<?xml version="1.0" encoding="UTF-8" standalone="no"?>
<!-- Created with Inkscape (http://www.inkscape.org/) -->

<svg
   xmlns:dc="http://purl.org/dc/elements/1.1/"
   xmlns:cc="http://creativecommons.org/ns#"
   xmlns:rdf="http://www.w3.org/1999/02/22-rdf-syntax-ns#"
   xmlns:svg="http://www.w3.org/2000/svg"
   xmlns="http://www.w3.org/2000/svg"
   xmlns:sodipodi="http://sodipodi.sourceforge.net/DTD/sodipodi-0.dtd"
   xmlns:inkscape="http://www.inkscape.org/namespaces/inkscape"
   width="900"
   height="900"
   id="svg3027"
   version="1.1"
   inkscape:version="0.48.4 r9939"
   sodipodi:docname="New document 1">
  <defs
     id="defs3029" />
  <sodipodi:namedview
     id="base"
     pagecolor="#ffffff"
     bordercolor="#666666"
     borderopacity="1.0"
     inkscape:pageopacity="0.0"
     inkscape:pageshadow="2"
     inkscape:zoom="0.38964844"
     inkscape:cx="326.04918"
     inkscape:cy="574.70646"
     inkscape:document-units="px"
     inkscape:current-layer="layer1"
     showgrid="false"
     inkscape:window-width="1366"
     inkscape:window-height="727"
     inkscape:window-x="0"
     inkscape:window-y="17"
     inkscape:window-maximized="1" />
  <metadata
     id="metadata3032">
    <rdf:RDF>
      <cc:Work
         rdf:about="">
        <dc:format>image/svg+xml</dc:format>
        <dc:type
           rdf:resource="http://purl.org/dc/dcmitype/StillImage" />
        <dc:title></dc:title>
      </cc:Work>
    </rdf:RDF>
  </metadata>
  <g
     inkscape:label="Layer 1"
     inkscape:groupmode="layer"
     id="layer1"
     transform="translate(0,-152.36218)">
    <g
       id="g3080">
      <path
         inkscape:connector-curvature="0"
         id="path3892-36"
         d="m 481.66578,438.59379 -30.95074,-51.33308 32.46052,-0.75501 z"
         style="fill:#000000;stroke:#000000;stroke-width:8.45485401px;stroke-linecap:butt;stroke-linejoin:miter;stroke-opacity:1" />
      <path
         transform="matrix(8.4548534,0,0,8.4548534,-2602.846,-2493.0183)"
         d="m 406.42859,394.32648 a 43.482143,3.3928571 0 1 1 -86.96429,0 43.482143,3.3928571 0 1 1 86.96429,0 z"
         sodipodi:ry="3.3928571"
         sodipodi:rx="43.482143"
         sodipodi:cy="394.32648"
         sodipodi:cx="362.94644"
         id="path3921-1"
         style="color:#000000;fill:#000000;fill-opacity:1;fill-rule:nonzero;stroke:#000000;stroke-width:2;stroke-linecap:butt;stroke-linejoin:miter;stroke-miterlimit:4;stroke-opacity:1;stroke-dasharray:none;stroke-dashoffset:0;marker:none;visibility:visible;display:inline;overflow:visible;enable-background:accumulate"
         sodipodi:type="arc" />
      <path
         sodipodi:nodetypes="ssssss"
         inkscape:connector-curvature="0"
         id="path3865-0"
         d="m 812.31091,618.25944 c -0.3702,132.16262 -61.52518,239.30254 -346.49805,239.30254 -304.60024,0 -346.28299,-107.13958 -346.49808,-239.30254 C 119.09897,485.66449 248.3213,384.07705 465.81286,436.329 c 5.47602,1.31564 11.02192,5.44712 16.35801,3.84814 223.8471,-67.07702 330.50204,48.93354 330.14004,178.0823 z"
         style="color:#000000;fill:#ffffff;fill-opacity:1;fill-rule:nonzero;stroke:#000000;stroke-width:16.90970802;stroke-linecap:butt;stroke-linejoin:miter;stroke-miterlimit:4;stroke-opacity:1;stroke-dashoffset:0;marker:none;visibility:visible;display:inline;overflow:visible;enable-background:accumulate" />
      <path
         sodipodi:nodetypes="ccc"
         inkscape:connector-curvature="0"
         id="path3867-6"
         d="M 483.17556,440.8585 C 382.39034,417.62837 272.08165,864.1089 468.07765,857.56198 871.08911,862.45529 894.89991,399.36223 483.17556,440.8585 z"
         style="fill:none;stroke:#000000;stroke-width:8.45485401px;stroke-linecap:butt;stroke-linejoin:miter;stroke-opacity:1" />
      <path
         sodipodi:nodetypes="ccc"
         inkscape:connector-curvature="0"
         id="path3867-8-6"
         d="M 483.05356,439.67423 C 282.65428,404.26926 85.619038,841.01648 467.95566,856.3777 c 355.26995,-0.20283 249.3125,-418.97768 15.0979,-416.70347 z"
         style="fill:none;stroke:#000000;stroke-width:8.45485401px;stroke-linecap:butt;stroke-linejoin:miter;stroke-opacity:1" />
      <path
         sodipodi:nodetypes="ccc"
         inkscape:connector-curvature="0"
         id="path3867-9-1"
         d="M 469.46544,438.16436 C 103.995,389.31957 24.206278,838.75362 454.36753,854.8678 605.61706,896.97806 670.72182,427.78077 469.46544,438.16436 z"
         style="fill:none;stroke:#000000;stroke-width:8.45485401px;stroke-linecap:butt;stroke-linejoin:miter;stroke-opacity:1" />
      <path
         sodipodi:nodetypes="cc"
         inkscape:connector-curvature="0"
         id="path3923-5"
         d="m 202.20879,456.94968 c 182.20139,71.80338 364.40284,66.10495 546.60423,12.81108"
         style="fill:none;stroke:#000000;stroke-width:8.45485401px;stroke-linecap:butt;stroke-linejoin:miter;stroke-opacity:1" />
    </g>
    <path
       style="fill:#000000;stroke:#000000;stroke-width:8.45485401px;stroke-linecap:butt;stroke-linejoin:miter;stroke-opacity:1"
       d="m 299.19593,535.99351 -4.44118,67.9467 c 46.2292,37.61326 104.89127,22.9194 159.74933,24.22981 z"
       id="path3870-3"
       inkscape:connector-curvature="0"
       sodipodi:nodetypes="cccc" />
    <path
       style="fill:#000000;stroke:#000000;stroke-width:8.45485401px;stroke-linecap:butt;stroke-linejoin:miter;stroke-opacity:1"
       d="m 691.65291,527.51119 9.55221,67.41824 c -43.26137,40.99219 -102.86436,30.76368 -157.46743,36.20699 z"
       id="path3870-2-2"
       inkscape:connector-curvature="0"
       sodipodi:nodetypes="cccc" />
    <path
       style="fill:#000000;stroke:#000000;stroke-width:8.45485401px;stroke-linecap:butt;stroke-linejoin:miter;stroke-opacity:1"
       d="m 286.90232,676.38652 66.4309,114.74455 58.88206,-25.66656 83.03871,37.74491 40.76451,-30.19589 18.11747,25.66648 123.80326,-111.72492 -114.37932,70.57083 -30.24813,-26.19147 -45.04425,36.63161 -82.02662,-39.83422 -39.73393,23.91694 z"
       id="path3894-0"
       inkscape:connector-curvature="0"
       sodipodi:nodetypes="ccccccccccccc" />
  </g>
</svg>
