<?xml version="1.0" encoding="UTF-8" standalone="no"?>
<!-- Created with Inkscape (http://www.inkscape.org/) -->

<svg
   xmlns:dc="http://purl.org/dc/elements/1.1/"
   xmlns:cc="http://creativecommons.org/ns#"
   xmlns:rdf="http://www.w3.org/1999/02/22-rdf-syntax-ns#"
   xmlns:svg="http://www.w3.org/2000/svg"
   xmlns="http://www.w3.org/2000/svg"
   xmlns:sodipodi="http://sodipodi.sourceforge.net/DTD/sodipodi-0.dtd"
   xmlns:inkscape="http://www.inkscape.org/namespaces/inkscape"
   width="100"
   height="100"
   id="svg81596"
   version="1.1"
   inkscape:version="0.48.3.1 r9886"
   sodipodi:docname="rhum.svg">
  <defs
     id="defs81598" />
  <sodipodi:namedview
     id="base"
     pagecolor="#ffffff"
     bordercolor="#666666"
     borderopacity="1.0"
     inkscape:pageopacity="0.0"
     inkscape:pageshadow="2"
     inkscape:zoom="3.959798"
     inkscape:cx="65.037161"
     inkscape:cy="38.336091"
     inkscape:document-units="px"
     inkscape:current-layer="layer1"
     showgrid="false"
     inkscape:window-width="1278"
     inkscape:window-height="783"
     inkscape:window-x="0"
     inkscape:window-y="15"
     inkscape:window-maximized="0" />
  <metadata
     id="metadata81601">
    <rdf:RDF>
      <cc:Work
         rdf:about="">
        <dc:format>image/svg+xml</dc:format>
        <dc:type
           rdf:resource="http://purl.org/dc/dcmitype/StillImage" />
        <dc:title></dc:title>
      </cc:Work>
    </rdf:RDF>
  </metadata>
  <g
     inkscape:label="Layer 1"
     inkscape:groupmode="layer"
     id="layer1"
     transform="translate(0,-952.36218)">
    <path
       sodipodi:type="arc"
       style="fill:#000000;fill-opacity:1;fill-rule:nonzero;stroke:#000000;stroke-width:4;stroke-linecap:round;stroke-linejoin:bevel;stroke-miterlimit:4;stroke-opacity:1;stroke-dasharray:none;stroke-dashoffset:0"
       id="path81708"
       sodipodi:cx="47.603439"
       sodipodi:cy="88.00444"
       sodipodi:rx="16.793787"
       sodipodi:ry="2.1465743"
       d="m 64.397226,88.00444 a 16.793787,2.1465743 0 1 1 -33.587574,0 16.793787,2.1465743 0 1 1 33.587574,0 z"
       transform="translate(1.2626907,951.11979)" />
    <g
       transform="matrix(-0.21348562,-0.3955236,0.3955236,-0.21348562,-269.03054,1251.1999)"
       id="g81630">
      <path
         sodipodi:nodetypes="cccsaccccascc"
         inkscape:connector-curvature="0"
         id="rect72728"
         d="m 223.74688,937.45014 9.72935,-17.78839 -16.94934,-9.27042 c -7.67674,1.73105 -27.62849,-14.33289 -32.09971,-31.33544 -0.66822,-2.54102 -1.46316,-5.98871 -3.33169,-8.31945 -1.20238,-1.49983 -4.75908,-3.25704 -4.75908,-3.25704 L 92.596705,821.67789 c -9.704316,12.53901 -19.533741,24.57756 -26.434504,48.33075 l 84.746589,46.35222 c 0,0 3.55725,1.80629 5.49338,1.91453 2.6146,0.14616 5.12308,-1.04284 7.66039,-1.74244 16.4072,-4.52379 40.58026,5.66143 42.73498,11.64678 z"
         style="fill:#ffffff;fill-opacity:1;fill-rule:nonzero;stroke:#000000;stroke-width:5.35573959;stroke-linecap:round;stroke-linejoin:bevel;stroke-miterlimit:4;stroke-opacity:1;stroke-dasharray:none;stroke-dashoffset:0" />
      <rect
         transform="matrix(0.4798636,-0.8773431,-0.8773431,-0.4798636,0,0)"
         y="-559.69409"
         x="-731.54712"
         height="54.705059"
         width="45.141235"
         id="rect72731"
         style="fill:#ffffff;fill-opacity:1;fill-rule:nonzero;stroke:#000000;stroke-width:5.35573959;stroke-linecap:round;stroke-linejoin:bevel;stroke-miterlimit:4;stroke-opacity:1;stroke-dasharray:none;stroke-dashoffset:0" />
      <path
         style="fill:#ffffff;stroke:#000000;stroke-width:3.21344376;stroke-miterlimit:4;stroke-opacity:1;stroke-dasharray:none"
         id="path2827"
         d="m 109.71084,874.0682 c 4.43323,-8.05759 14.55897,-10.99571 22.61657,-6.56249 8.0575,4.43319 10.99569,14.55898 6.56247,22.61655 -4.43323,8.05759 -14.55904,10.99565 -22.61654,6.56249 -8.05766,-4.43327 -10.9957,-14.55898 -6.5625,-22.61655 z"
         inkscape:connector-curvature="0" />
      <path
         style="stroke-width:2.006006;stroke-miterlimit:4;stroke-dasharray:none"
         id="path8"
         d="m 136.34857,879.21092 c -0.41563,1.86301 -5.06212,8.12591 -10.84984,3.13938 -2.10624,-1.81468 -1.74746,-5.21574 -2.0135,-7.10626 -0.62978,-4.47531 -7.76873,-4.84732 -7.76873,-4.84732 0,0 5.19705,0.93569 5.46222,5.36546 0.24396,4.07565 -6.39167,14.01301 -0.48499,17.2161 11.31674,6.13681 16.91754,-13.67686 15.65484,-13.76736 z"
         inkscape:connector-curvature="0" />
      <rect
         transform="matrix(-0.48204794,0.87614484,-0.87614484,-0.48204794,0,0)"
         style="stroke-width:2.006006;stroke-miterlimit:4;stroke-dasharray:none"
         id="rect10"
         y="-546.96472"
         x="706.13013"
         height="18.927334"
         width="1.5260885" />
    </g>
  </g>
</svg>
