<?xml version="1.0" encoding="UTF-8" standalone="no"?>
<!-- Created with Inkscape (http://www.inkscape.org/) -->

<svg
   xmlns:dc="http://purl.org/dc/elements/1.1/"
   xmlns:cc="http://creativecommons.org/ns#"
   xmlns:rdf="http://www.w3.org/1999/02/22-rdf-syntax-ns#"
   xmlns:svg="http://www.w3.org/2000/svg"
   xmlns="http://www.w3.org/2000/svg"
   xmlns:sodipodi="http://sodipodi.sourceforge.net/DTD/sodipodi-0.dtd"
   xmlns:inkscape="http://www.inkscape.org/namespaces/inkscape"
   width="100"
   height="100"
   id="svg2"
   version="1.1"
   inkscape:version="0.48.3.1 r9886"
   sodipodi:docname="gueant.svg"
   inkscape:export-filename="/home/mogmi/Dropbox/Public/hmm/hmm-la-lib/characters/others/gueant.png"
   inkscape:export-xdpi="90"
   inkscape:export-ydpi="90">
  <defs
     id="defs4" />
  <sodipodi:namedview
     id="base"
     pagecolor="#ffffff"
     bordercolor="#666666"
     borderopacity="1.0"
     inkscape:pageopacity="0.0"
     inkscape:pageshadow="2"
     inkscape:zoom="1.4"
     inkscape:cx="91.299051"
     inkscape:cy="135.36959"
     inkscape:document-units="px"
     inkscape:current-layer="layer1"
     showgrid="false"
     inkscape:window-width="1278"
     inkscape:window-height="783"
     inkscape:window-x="0"
     inkscape:window-y="15"
     inkscape:window-maximized="0" />
  <metadata
     id="metadata7">
    <rdf:RDF>
      <cc:Work
         rdf:about="">
        <dc:format>image/svg+xml</dc:format>
        <dc:type
           rdf:resource="http://purl.org/dc/dcmitype/StillImage" />
        <dc:title></dc:title>
      </cc:Work>
    </rdf:RDF>
  </metadata>
  <g
     inkscape:label="Layer 1"
     inkscape:groupmode="layer"
     id="layer1"
     transform="translate(0,-952.36218)">
    <g
       id="g3864"
       transform="matrix(0.74875471,0,0,0.74875471,-84.814875,694.91932)">
      <path
         transform="translate(-3.0304576,-3.0304576)"
         d="m 231.32493,468.49402 c 0,2.23157 -21.93464,4.04061 -48.9924,4.04061 -27.05775,0 -48.99239,-1.80904 -48.99239,-4.04061 0,-2.23157 21.93464,-4.04061 48.99239,-4.04061 27.05776,0 48.9924,1.80904 48.9924,4.04061 z"
         sodipodi:ry="4.0406103"
         sodipodi:rx="48.992397"
         sodipodi:cy="468.49402"
         sodipodi:cx="182.33253"
         id="path3822"
         style="fill:#000000;fill-opacity:1;fill-rule:nonzero;stroke:#000000;stroke-width:3;stroke-linecap:round;stroke-linejoin:round;stroke-miterlimit:4;stroke-opacity:1;stroke-dasharray:none;stroke-dashoffset:0"
         sodipodi:type="arc" />
      <rect
         ry="36.071426"
         y="358.07648"
         x="137.14287"
         height="107.85714"
         width="82.14286"
         id="rect3766"
         style="fill:#ffffff;fill-opacity:1;fill-rule:nonzero;stroke:#000000;stroke-width:4;stroke-linecap:round;stroke-linejoin:round;stroke-miterlimit:4;stroke-opacity:1;stroke-dasharray:none;stroke-dashoffset:0" />
      <rect
         ry="7.4999995"
         y="393.96933"
         x="145"
         height="22.142857"
         width="37.857143"
         id="rect3768"
         style="fill:#ffffff;stroke:#000000;stroke-width:3;stroke-linecap:round;stroke-linejoin:round;stroke-miterlimit:4;stroke-opacity:1;stroke-dasharray:none;stroke-dashoffset:0" />
      <rect
         ry="7.4999995"
         y="393.96933"
         x="194.64285"
         height="22.142857"
         width="37.857143"
         id="rect3768-3"
         style="fill:#ffffff;stroke:#000000;stroke-width:3;stroke-linecap:round;stroke-linejoin:round;stroke-miterlimit:4;stroke-opacity:1;stroke-dasharray:none;stroke-dashoffset:0" />
      <path
         inkscape:connector-curvature="0"
         id="path3788"
         d="m 182.85714,405.57647 11.42857,0"
         style="fill:none;stroke:#000000;stroke-width:3;stroke-linecap:butt;stroke-linejoin:miter;stroke-miterlimit:4;stroke-opacity:1;stroke-dasharray:none" />
      <path
         sodipodi:nodetypes="cc"
         inkscape:connector-curvature="0"
         id="path3790"
         d="m 144.64286,404.86218 -8.92857,-1.42857"
         style="fill:none;stroke:#000000;stroke-width:3;stroke-linecap:butt;stroke-linejoin:miter;stroke-miterlimit:4;stroke-opacity:1;stroke-dasharray:none" />
      <path
         transform="matrix(0.4047267,0,0,0.71553417,67.478774,147.39312)"
         d="m 249.28571,360.57648 c 0,1.7752 -3.03806,3.21428 -6.78571,3.21428 -3.74765,0 -6.78571,-1.43908 -6.78571,-3.21428 0,-1.7752 3.03806,-3.21429 6.78571,-3.21429 3.74765,0 6.78571,1.43909 6.78571,3.21429 z"
         sodipodi:ry="3.2142856"
         sodipodi:rx="6.7857141"
         sodipodi:cy="360.57648"
         sodipodi:cx="242.5"
         id="path3792"
         style="fill:#000000;stroke:#000000;stroke-width:3;stroke-linecap:round;stroke-linejoin:round;stroke-miterlimit:4;stroke-opacity:1;stroke-dasharray:none;stroke-dashoffset:0"
         sodipodi:type="arc" />
      <path
         transform="matrix(0.4047267,0,0,0.71553417,114.88949,147.39311)"
         d="m 249.28571,360.57648 c 0,1.7752 -3.03806,3.21428 -6.78571,3.21428 -3.74765,0 -6.78571,-1.43908 -6.78571,-3.21428 0,-1.7752 3.03806,-3.21429 6.78571,-3.21429 3.74765,0 6.78571,1.43909 6.78571,3.21429 z"
         sodipodi:ry="3.2142856"
         sodipodi:rx="6.7857141"
         sodipodi:cy="360.57648"
         sodipodi:cx="242.5"
         id="path3792-6"
         style="fill:#000000;stroke:#000000;stroke-width:3;stroke-linecap:round;stroke-linejoin:round;stroke-miterlimit:4;stroke-opacity:1;stroke-dasharray:none;stroke-dashoffset:0"
         sodipodi:type="arc" />
      <path
         sodipodi:nodetypes="cc"
         inkscape:connector-curvature="0"
         id="path3812"
         d="m 157.77574,397.51012 11.50997,7.53063"
         style="fill:none;stroke:#000000;stroke-width:2;stroke-linecap:butt;stroke-linejoin:miter;stroke-miterlimit:4;stroke-opacity:1;stroke-dasharray:none" />
      <path
         sodipodi:nodetypes="cc"
         inkscape:connector-curvature="0"
         id="path3814"
         d="m 208.92857,405.04075 12.1376,-8.36222"
         style="fill:none;stroke:#000000;stroke-width:2;stroke-linecap:butt;stroke-linejoin:miter;stroke-miterlimit:4;stroke-opacity:1;stroke-dasharray:none" />
      <path
         sodipodi:nodetypes="cc"
         inkscape:connector-curvature="0"
         id="path3816"
         d="m 170.2466,448.55094 c 16.09166,-8.87175 22.57115,-6.2089 25.25381,1.01015"
         style="fill:none;stroke:#000000;stroke-width:1px;stroke-linecap:butt;stroke-linejoin:miter;stroke-opacity:1" />
      <path
         sodipodi:nodetypes="ccsccc"
         inkscape:connector-curvature="0"
         id="path3818"
         d="m 141.42857,400.93361 -7.77048,-2.85714 c 2.43505,-29.00524 25.89484,-45.11934 47.77048,-45 9.63133,0.0525 23.32266,4.1436 19.1124,7.3013 l -33.72026,0.9235 c -9.58072,-0.62695 -25.48905,31.00344 -25.39214,39.63234 z"
         style="fill:#000000;stroke:#000000;stroke-width:1px;stroke-linecap:butt;stroke-linejoin:miter;stroke-opacity:1" />
      <path
         sodipodi:nodetypes="ccccc"
         inkscape:connector-curvature="0"
         id="path3820"
         d="m 201.46942,367.44549 2.5814,-2.99719 c 8.56809,-4.02466 24.63984,28.71483 14.14213,24.24366 l -0.97426,1.81109 c -2.85805,-8.38097 -4.68427,-13.17775 -15.74927,-23.05756 z"
         style="fill:#000000;stroke:#000000;stroke-width:1px;stroke-linecap:butt;stroke-linejoin:miter;stroke-opacity:1" />
      <path
         sodipodi:nodetypes="cccc"
         inkscape:connector-curvature="0"
         id="path3824"
         d="m 186.07143,367.36218 c 4.50133,-0.64242 2.53708,-3.44003 3.21428,-5.35715 -11.97564,-4.52159 -23.78843,-4.80888 -34.82142,15.17858 9.61454,-6.11409 16.74834,-19.87713 31.60714,-9.82143 z"
         style="fill:#000000;stroke:#000000;stroke-width:1px;stroke-linecap:butt;stroke-linejoin:miter;stroke-opacity:1" />
    </g>
  </g>
</svg>
