<?xml version="1.0" encoding="UTF-8" standalone="no"?>
<!-- Created with Inkscape (http://www.inkscape.org/) -->

<svg
   xmlns:dc="http://purl.org/dc/elements/1.1/"
   xmlns:cc="http://creativecommons.org/ns#"
   xmlns:rdf="http://www.w3.org/1999/02/22-rdf-syntax-ns#"
   xmlns:svg="http://www.w3.org/2000/svg"
   xmlns="http://www.w3.org/2000/svg"
   xmlns:sodipodi="http://sodipodi.sourceforge.net/DTD/sodipodi-0.dtd"
   xmlns:inkscape="http://www.inkscape.org/namespaces/inkscape"
   width="200"
   height="200"
   id="svg2"
   version="1.1"
   inkscape:version="0.47 r22583"
   inkscape:export-filename="/home/mogmi/Dropbox/Public/hmm/dudes/harrypotter.png"
   inkscape:export-xdpi="90"
   inkscape:export-ydpi="90"
   sodipodi:docname="harrypotter.svg">
  <defs
     id="defs4">
    <inkscape:perspective
       sodipodi:type="inkscape:persp3d"
       inkscape:vp_x="0 : 526.18109 : 1"
       inkscape:vp_y="0 : 1000 : 0"
       inkscape:vp_z="744.09448 : 526.18109 : 1"
       inkscape:persp3d-origin="372.04724 : 350.78739 : 1"
       id="perspective10" />
    <inkscape:perspective
       id="perspective3600"
       inkscape:persp3d-origin="0.5 : 0.33333333 : 1"
       inkscape:vp_z="1 : 0.5 : 1"
       inkscape:vp_y="0 : 1000 : 0"
       inkscape:vp_x="0 : 0.5 : 1"
       sodipodi:type="inkscape:persp3d" />
    <inkscape:perspective
       id="perspective3642"
       inkscape:persp3d-origin="0.5 : 0.33333333 : 1"
       inkscape:vp_z="1 : 0.5 : 1"
       inkscape:vp_y="0 : 1000 : 0"
       inkscape:vp_x="0 : 0.5 : 1"
       sodipodi:type="inkscape:persp3d" />
    <inkscape:perspective
       id="perspective3664"
       inkscape:persp3d-origin="0.5 : 0.33333333 : 1"
       inkscape:vp_z="1 : 0.5 : 1"
       inkscape:vp_y="0 : 1000 : 0"
       inkscape:vp_x="0 : 0.5 : 1"
       sodipodi:type="inkscape:persp3d" />
    <inkscape:perspective
       id="perspective3696"
       inkscape:persp3d-origin="0.5 : 0.33333333 : 1"
       inkscape:vp_z="1 : 0.5 : 1"
       inkscape:vp_y="0 : 1000 : 0"
       inkscape:vp_x="0 : 0.5 : 1"
       sodipodi:type="inkscape:persp3d" />
  </defs>
  <sodipodi:namedview
     id="base"
     pagecolor="#ffffff"
     bordercolor="#666666"
     borderopacity="1.0"
     inkscape:pageopacity="1"
     inkscape:pageshadow="2"
     inkscape:zoom="1.979899"
     inkscape:cx="117.33406"
     inkscape:cy="120.74189"
     inkscape:document-units="px"
     inkscape:current-layer="layer1"
     showgrid="false"
     inkscape:snap-grids="true"
     inkscape:window-width="1376"
     inkscape:window-height="854"
     inkscape:window-x="1390"
     inkscape:window-y="184"
     inkscape:window-maximized="0" />
  <metadata
     id="metadata7">
    <rdf:RDF>
      <cc:Work
         rdf:about="">
        <dc:format>image/svg+xml</dc:format>
        <dc:type
           rdf:resource="http://purl.org/dc/dcmitype/StillImage" />
        <dc:title></dc:title>
      </cc:Work>
    </rdf:RDF>
  </metadata>
  <g
     inkscape:label="Layer 1"
     inkscape:groupmode="layer"
     id="layer1"
     transform="translate(0,-852.36218)">
    <path
       sodipodi:type="arc"
       style="opacity:0.98999999;fill:#000000;fill-opacity:1;stroke:#000000;stroke-width:2.56999993;stroke-linecap:round;stroke-linejoin:miter;stroke-miterlimit:4;stroke-opacity:1;stroke-dasharray:none;stroke-dashoffset:0"
       id="path3764"
       sodipodi:cx="100.25764"
       sodipodi:cy="174.99872"
       sodipodi:rx="49.750011"
       sodipodi:ry="5.3033009"
       d="m 150.00765,174.99872 a 49.750011,5.3033009 0 1 1 -99.500024,0 49.750011,5.3033009 0 1 1 99.500024,0 z"
       transform="translate(-2.5253814,844.28096)" />
    <g
       id="g3748"
       transform="translate(-1.0101525,-4.5456865)">
      <path
         sodipodi:nodetypes="csssc"
         id="path3588"
         d="m 146.585,974.69908 c -6.59355,33.60302 -32.39647,56.45052 -48.864141,50.86022 -26.78874,-9.0939 -33.1459,-14.9149 -42.29815,-45.80946 -9.91968,-33.4851 23.00787,-63.23462 51.389521,-63.23462 28.38165,0 39.77277,23.26034 39.77277,58.18386 z"
         style="opacity:0.98999999;fill:#ffffff;fill-opacity:1;stroke:#000000;stroke-width:3;stroke-linecap:round;stroke-linejoin:miter;stroke-miterlimit:4;stroke-opacity:1;stroke-dashoffset:0" />
      <path
         transform="translate(-64.556947,805.82126)"
         d="m 184.64285,158.21428 c 0,7.69254 -6.23603,13.92857 -13.92857,13.92857 -7.69254,0 -13.92857,-6.23603 -13.92857,-13.92857 0,-7.69254 6.23603,-13.92857 13.92857,-13.92857 7.69254,0 13.92857,6.23603 13.92857,13.92857 z"
         sodipodi:ry="13.928572"
         sodipodi:rx="13.928572"
         sodipodi:cy="158.21428"
         sodipodi:cx="170.71428"
         id="path3590"
         style="opacity:0.98999999;fill:#ffffff;fill-opacity:1;stroke:#000000;stroke-width:3;stroke-linecap:round;stroke-linejoin:miter;stroke-miterlimit:4;stroke-opacity:1;stroke-dasharray:none;stroke-dashoffset:0"
         sodipodi:type="arc" />
      <path
         transform="translate(-27.05694,806.17841)"
         d="m 184.64285,158.21428 c 0,7.69254 -6.23603,13.92857 -13.92857,13.92857 -7.69254,0 -13.92857,-6.23603 -13.92857,-13.92857 0,-7.69254 6.23603,-13.92857 13.92857,-13.92857 7.69254,0 13.92857,6.23603 13.92857,13.92857 z"
         sodipodi:ry="13.928572"
         sodipodi:rx="13.928572"
         sodipodi:cy="158.21428"
         sodipodi:cx="170.71428"
         id="path3590-8"
         style="opacity:0.98999999;fill:#ffffff;fill-opacity:1;stroke:#000000;stroke-width:3;stroke-linecap:round;stroke-linejoin:miter;stroke-miterlimit:4;stroke-opacity:1;stroke-dasharray:none;stroke-dashoffset:0"
         sodipodi:type="arc" />
      <path
         sodipodi:nodetypes="cc"
         id="path3614"
         d="m 119.72877,964.39269 c 3.98112,-2.64372 7.32582,-2.10529 10.35714,0"
         style="fill:none;stroke:#000000;stroke-width:1px;stroke-linecap:butt;stroke-linejoin:miter;stroke-opacity:1" />
      <path
         id="path3616"
         d="m 60.800199,951.89269 31.07143,10.35714"
         style="fill:none;stroke:#000000;stroke-width:1px;stroke-linecap:butt;stroke-linejoin:miter;stroke-opacity:1" />
      <path
         id="path3618"
         d="m 124.01448,938.32126 -3.21428,10.35715 6.42857,-3.57143 -3.92857,11.07143"
         style="fill:none;stroke:#000000;stroke-width:1px;stroke-linecap:butt;stroke-linejoin:miter;stroke-opacity:1" />
      <path
         sodipodi:nodetypes="cc"
         id="path3622"
         d="m 91.835739,1001.2143 c 9.508661,4.7987 15.000041,3.5715 22.500001,5.3571"
         style="fill:none;stroke:#000000;stroke-width:1px;stroke-linecap:butt;stroke-linejoin:miter;stroke-opacity:1" />
      <path
         sodipodi:nodetypes="cacccsccccccccsccccc"
         id="path3624"
         d="m 56.662409,989.41065 c 0,0 -2.11439,-19.80822 -0.6677,-29.55594 1.35558,-9.13383 3.95345,-17.00164 8.64196,-26.31912 0.53911,-1.07137 -0.6039,-1.55318 -0.6039,-1.55318 0,0 7.65753,-4.80644 7.65753,-4.80644 0,0 17.45596,-11.92515 21.02944,-12.0519 8.792951,-0.31186 17.650661,-1.38982 17.650661,-1.38982 2.44229,-0.89762 3.80313,0.67223 6.42485,1.26556 3.32017,0.7076 8.4976,1.4306 8.4976,1.4306 0,0 2.84137,0.3611 2.84137,0.3611 0,0 1.2213,1.26437 1.2213,1.26437 0,0 14.35226,6.39796 14.35226,6.39796 0,0 1.66534,4.62237 1.66534,4.62237 0,0 6.99185,9.03772 9.43412,15.07578 -8.7521,-2.99384 -36.3931,-11.46213 -45.20841,-8.62901 -11.963071,3.84476 -9.42724,6.89541 -24.904441,7.2027 l -19.66637,22.2146 -3.93852,42.09482 -2.70944,-3.652 c -4.23374,-5.5648 -2.09416,2.732 -1.71765,-13.97245 z"
         style="opacity:0.98999999;fill:#000000;fill-opacity:1;stroke:#000000;stroke-width:3;stroke-linecap:round;stroke-linejoin:miter;stroke-miterlimit:4;stroke-opacity:1;stroke-dashoffset:0" />
      <g
         transform="matrix(0.99763352,-0.06875573,0.06875573,0.99763352,-136.09342,222.13535)"
         id="g3682">
        <path
           sodipodi:type="arc"
           style="opacity:0.98999999;fill:#000000;fill-opacity:1;stroke:#ffffff;stroke-width:1;stroke-linecap:round;stroke-linejoin:miter;stroke-miterlimit:4;stroke-opacity:1;stroke-dasharray:none;stroke-dashoffset:0"
           id="path3678"
           sodipodi:cx="193.57143"
           sodipodi:cy="108.57143"
           sodipodi:rx="47.142857"
           sodipodi:ry="7.1428571"
           d="m 240.71428,108.57143 c 0,3.94489 -21.10657,7.14285 -47.14285,7.14285 -26.03628,0 -47.14286,-3.19796 -47.14286,-7.14285 0,-3.94489 21.10658,-7.14286 47.14286,-7.14286 26.03628,0 47.14285,3.19797 47.14285,7.14286 z"
           transform="translate(-2.7779195,604.38249)" />
        <path
           style="fill:#000000;fill-opacity:1;stroke:#ffffff;stroke-width:0.5;stroke-linecap:butt;stroke-linejoin:miter;stroke-miterlimit:4;stroke-opacity:1;stroke-dasharray:none"
           d="m 148.96756,656.85095 18.01866,30.88998 3.90803,-0.78161 -3.77534,0.75519 2.30731,24.25463 c 13.89166,4.10896 33.69063,3.538 48.05584,0.50508 l -25.25457,-32.13684 -43.25993,-23.48643 z"
           id="path3680"
           sodipodi:nodetypes="cccccccc" />
      </g>
      <g
         transform="matrix(0.99010249,0.14034622,-0.14034622,0.99010249,-85.526889,169.32297)"
         id="g3710">
        <rect
           style="opacity:0.98999999;fill:#ffffff;fill-opacity:1;stroke:#000000;stroke-width:3;stroke-linecap:round;stroke-linejoin:miter;stroke-miterlimit:4;stroke-opacity:1;stroke-dasharray:none;stroke-dashoffset:0"
           id="rect3686"
           width="7.994668"
           height="41.923237"
           x="271.00266"
           y="784.0791"
           ry="0" />
        <rect
           style="opacity:0.98999999;fill:#ffffff;fill-opacity:1;stroke:#000000;stroke-width:2.56999993;stroke-linecap:round;stroke-linejoin:miter;stroke-miterlimit:4;stroke-opacity:1;stroke-dasharray:none;stroke-dashoffset:0"
           id="rect3686-9"
           width="4.1316609"
           height="59.52597"
           x="273.07449"
           y="724.35168"
           ry="2.0658305" />
      </g>
    </g>
  </g>
</svg>
