<?xml version="1.0" encoding="UTF-8" standalone="no"?>
<!-- Created with Inkscape (http://www.inkscape.org/) -->

<svg
   xmlns:dc="http://purl.org/dc/elements/1.1/"
   xmlns:cc="http://creativecommons.org/ns#"
   xmlns:rdf="http://www.w3.org/1999/02/22-rdf-syntax-ns#"
   xmlns:svg="http://www.w3.org/2000/svg"
   xmlns="http://www.w3.org/2000/svg"
   xmlns:sodipodi="http://sodipodi.sourceforge.net/DTD/sodipodi-0.dtd"
   xmlns:inkscape="http://www.inkscape.org/namespaces/inkscape"
   width="100"
   height="100"
   id="svg3790"
   version="1.1"
   inkscape:version="0.48.4 r9939"
   sodipodi:docname="normal_guy.svg"
   inkscape:export-filename="/home/mogmi/Dropbox/Public/hmm/trash/zieux.png"
   inkscape:export-xdpi="270"
   inkscape:export-ydpi="270">
  <defs
     id="defs3792" />
  <sodipodi:namedview
     id="base"
     pagecolor="#ffffff"
     bordercolor="#666666"
     borderopacity="1.0"
     inkscape:pageopacity="0.0"
     inkscape:pageshadow="2"
     inkscape:zoom="2.4538772"
     inkscape:cx="-5.242051"
     inkscape:cy="69.103667"
     inkscape:document-units="px"
     inkscape:current-layer="layer1"
     showgrid="false"
     inkscape:window-width="1366"
     inkscape:window-height="727"
     inkscape:window-x="0"
     inkscape:window-y="17"
     inkscape:window-maximized="1" />
  <metadata
     id="metadata3795">
    <rdf:RDF>
      <cc:Work
         rdf:about="">
        <dc:format>image/svg+xml</dc:format>
        <dc:type
           rdf:resource="http://purl.org/dc/dcmitype/StillImage" />
        <dc:title></dc:title>
      </cc:Work>
    </rdf:RDF>
  </metadata>
  <g
     inkscape:label="Layer 1"
     inkscape:groupmode="layer"
     id="layer1"
     transform="translate(0,-952.36218)">
    <path
       sodipodi:type="arc"
       style="fill:#000000;fill-opacity:1;stroke:#000000;stroke-width:5;stroke-linejoin:bevel;stroke-miterlimit:4;stroke-opacity:1;stroke-dasharray:none;stroke-dashoffset:0"
       id="path3763"
       sodipodi:cx="190.92732"
       sodipodi:cy="383.98495"
       sodipodi:rx="80.802002"
       sodipodi:ry="8.7969923"
       d="m 271.72932,383.98495 a 80.802002,8.7969923 0 1 1 -161.604,0 80.802002,8.7969923 0 1 1 161.604,0 z"
       transform="matrix(0.37045339,0,0,0.37045339,-18.924545,898.0726)"
       inkscape:export-filename="/home/mogmi/Dropbox/Public/hmm/trash/test_perso.png"
       inkscape:export-xdpi="90"
       inkscape:export-ydpi="90" />
    <path
       sodipodi:type="arc"
       style="fill:#ffffff;fill-opacity:1;stroke:#000000;stroke-width:5;stroke-linejoin:bevel;stroke-miterlimit:4;stroke-opacity:1;stroke-dasharray:none;stroke-dashoffset:0"
       id="path3753"
       sodipodi:cx="301.05264"
       sodipodi:cy="340"
       sodipodi:rx="67.117798"
       sodipodi:ry="91.8797"
       d="m 368.17044,340 a 67.117798,91.8797 0 1 1 -134.2356,0 67.117798,91.8797 0 1 1 134.2356,0 z"
       transform="matrix(0.4187633,0,0,0.4187633,-74.879287,859.87508)"
       inkscape:export-filename="/home/mogmi/Dropbox/Public/hmm/trash/test_perso.png"
       inkscape:export-xdpi="90"
       inkscape:export-ydpi="90" />
    <path
       style="fill:none;stroke:#000000;stroke-width:0.41876331px;stroke-linecap:butt;stroke-linejoin:miter;stroke-opacity:1"
       d="m 44.914307,1028.7238 c 6.204096,-0.2592 13.03941,0.9544 17.191335,-4.0932"
       id="path3757"
       inkscape:connector-curvature="0"
       sodipodi:nodetypes="cc"
       inkscape:export-filename="/home/mogmi/Dropbox/Public/hmm/trash/test_perso.png"
       inkscape:export-xdpi="90"
       inkscape:export-ydpi="90" />
    <path
       sodipodi:type="arc"
       style="fill:#ffffff;fill-opacity:1;stroke:#000000;stroke-width:2;stroke-linejoin:bevel;stroke-miterlimit:4;stroke-opacity:1;stroke-dasharray:none;stroke-dashoffset:0"
       id="path2989"
       sodipodi:cx="47.374008"
       sodipodi:cy="51.810955"
       sodipodi:rx="7.2334509"
       sodipodi:ry="7.2334509"
       d="m 54.607459,51.810955 a 7.2334509,7.2334509 0 1 1 -14.466902,0 7.2334509,7.2334509 0 1 1 14.466902,0 z"
       transform="matrix(0.82500716,0,0,0.82500716,-3.195757,958.1933)" />
    <path
       transform="matrix(0.82500716,0,0,0.82500716,11.541215,958.1933)"
       d="m 54.607459,51.810955 a 7.2334509,7.2334509 0 1 1 -14.466902,0 7.2334509,7.2334509 0 1 1 14.466902,0 z"
       sodipodi:ry="7.2334509"
       sodipodi:rx="7.2334509"
       sodipodi:cy="51.810955"
       sodipodi:cx="47.374008"
       id="path3765"
       style="fill:#ffffff;fill-opacity:1;stroke:#000000;stroke-width:2;stroke-linejoin:bevel;stroke-miterlimit:4;stroke-opacity:1;stroke-dasharray:none;stroke-dashoffset:0"
       sodipodi:type="arc" />
    <path
       transform="matrix(0.26374023,0,0,0.26374023,11.105776,925.82722)"
       d="m 145.96491,285.91479 a 2.6065164,5.8646617 0 1 1 -5.21303,0 2.6065164,5.8646617 0 1 1 5.21303,0 z"
       sodipodi:ry="5.8646617"
       sodipodi:rx="2.6065164"
       sodipodi:cy="285.91479"
       sodipodi:cx="143.3584"
       id="path3761"
       style="fill:#000000;fill-opacity:1;stroke:#000000;stroke-width:5;stroke-linejoin:bevel;stroke-miterlimit:4;stroke-opacity:1;stroke-dasharray:none;stroke-dashoffset:0"
       sodipodi:type="arc"
       inkscape:export-filename="/home/mogmi/Dropbox/Public/hmm/trash/test_perso.png"
       inkscape:export-xdpi="90"
       inkscape:export-ydpi="90" />
    <path
       sodipodi:type="arc"
       style="fill:#000000;fill-opacity:1;stroke:#000000;stroke-width:5;stroke-linejoin:bevel;stroke-miterlimit:4;stroke-opacity:1;stroke-dasharray:none;stroke-dashoffset:0"
       id="path3759"
       sodipodi:cx="143.3584"
       sodipodi:cy="285.91479"
       sodipodi:rx="2.6065164"
       sodipodi:ry="5.8646617"
       d="m 145.96491,285.91479 a 2.6065164,5.8646617 0 1 1 -5.21303,0 2.6065164,5.8646617 0 1 1 5.21303,0 z"
       transform="matrix(0.26374023,0,0,0.26374023,-3.8129851,925.82722)"
       inkscape:export-filename="/home/mogmi/Dropbox/Public/hmm/trash/test_perso.png"
       inkscape:export-xdpi="90"
       inkscape:export-ydpi="90" />
    <path
       style="fill:#000000;stroke:#000000;stroke-width:0.41876331px;stroke-linecap:butt;stroke-linejoin:miter;stroke-opacity:1"
       d="m 84.031887,1006.7181 c -0.220076,4.2115 -1.110279,10.2922 -20.982277,5.649 l 1.250373,-26.29282 -32.760607,6.83625 -12.497459,14.93777 c -6.571706,-0.7886 -9.705488,-39.47757 19.083969,-46.24441 12.883123,-3.02813 29.150918,1.00218 38.260971,10.60173 8.111097,8.54691 7.64503,34.51248 7.64503,34.51248 z"
       id="path3755"
       inkscape:connector-curvature="0"
       sodipodi:nodetypes="cccccsac"
       inkscape:export-filename="/home/mogmi/Dropbox/Public/hmm/trash/test_perso.png"
       inkscape:export-xdpi="90"
       inkscape:export-ydpi="90" />
  </g>
</svg>
