<?xml version="1.0" encoding="UTF-8" standalone="no"?>
<!-- Created with Inkscape (http://www.inkscape.org/) -->

<svg
   xmlns:dc="http://purl.org/dc/elements/1.1/"
   xmlns:cc="http://creativecommons.org/ns#"
   xmlns:rdf="http://www.w3.org/1999/02/22-rdf-syntax-ns#"
   xmlns:svg="http://www.w3.org/2000/svg"
   xmlns="http://www.w3.org/2000/svg"
   xmlns:sodipodi="http://sodipodi.sourceforge.net/DTD/sodipodi-0.dtd"
   xmlns:inkscape="http://www.inkscape.org/namespaces/inkscape"
   width="200"
   height="200"
   id="svg2562"
   sodipodi:version="0.32"
   inkscape:version="0.47 r22583"
   version="1.0"
   sodipodi:docname="olidol.svg"
   inkscape:output_extension="org.inkscape.output.svg.inkscape"
   inkscape:export-filename="/home/mogmi/Dropbox/Public/hmm/dudes/olidol.png"
   inkscape:export-xdpi="90"
   inkscape:export-ydpi="90">
  <defs
     id="defs2564">
    <inkscape:perspective
       sodipodi:type="inkscape:persp3d"
       inkscape:vp_x="0 : 526.18109 : 1"
       inkscape:vp_y="0 : 1000 : 0"
       inkscape:vp_z="744.09448 : 526.18109 : 1"
       inkscape:persp3d-origin="372.04724 : 350.78739 : 1"
       id="perspective2570" />
    <inkscape:perspective
       id="perspective3604"
       inkscape:persp3d-origin="0.5 : 0.33333333 : 1"
       inkscape:vp_z="1 : 0.5 : 1"
       inkscape:vp_y="0 : 1000 : 0"
       inkscape:vp_x="0 : 0.5 : 1"
       sodipodi:type="inkscape:persp3d" />
    <inkscape:perspective
       id="perspective3627"
       inkscape:persp3d-origin="0.5 : 0.33333333 : 1"
       inkscape:vp_z="1 : 0.5 : 1"
       inkscape:vp_y="0 : 1000 : 0"
       inkscape:vp_x="0 : 0.5 : 1"
       sodipodi:type="inkscape:persp3d" />
    <inkscape:perspective
       id="perspective3655"
       inkscape:persp3d-origin="0.5 : 0.33333333 : 1"
       inkscape:vp_z="1 : 0.5 : 1"
       inkscape:vp_y="0 : 1000 : 0"
       inkscape:vp_x="0 : 0.5 : 1"
       sodipodi:type="inkscape:persp3d" />
    <inkscape:perspective
       id="perspective3687"
       inkscape:persp3d-origin="0.5 : 0.33333333 : 1"
       inkscape:vp_z="1 : 0.5 : 1"
       inkscape:vp_y="0 : 1000 : 0"
       inkscape:vp_x="0 : 0.5 : 1"
       sodipodi:type="inkscape:persp3d" />
    <inkscape:perspective
       id="perspective3832"
       inkscape:persp3d-origin="0.5 : 0.33333333 : 1"
       inkscape:vp_z="1 : 0.5 : 1"
       inkscape:vp_y="0 : 1000 : 0"
       inkscape:vp_x="0 : 0.5 : 1"
       sodipodi:type="inkscape:persp3d" />
    <inkscape:perspective
       id="perspective3858"
       inkscape:persp3d-origin="0.5 : 0.33333333 : 1"
       inkscape:vp_z="1 : 0.5 : 1"
       inkscape:vp_y="0 : 1000 : 0"
       inkscape:vp_x="0 : 0.5 : 1"
       sodipodi:type="inkscape:persp3d" />
    <inkscape:perspective
       id="perspective3880"
       inkscape:persp3d-origin="0.5 : 0.33333333 : 1"
       inkscape:vp_z="1 : 0.5 : 1"
       inkscape:vp_y="0 : 1000 : 0"
       inkscape:vp_x="0 : 0.5 : 1"
       sodipodi:type="inkscape:persp3d" />
    <inkscape:perspective
       sodipodi:type="inkscape:persp3d"
       inkscape:vp_x="0 : 526.18109 : 1"
       inkscape:vp_y="0 : 1000 : 0"
       inkscape:vp_z="744.09448 : 526.18109 : 1"
       inkscape:persp3d-origin="372.04724 : 350.78739 : 1"
       id="perspective10" />
    <inkscape:perspective
       id="perspective2570-7"
       inkscape:persp3d-origin="372.04724 : 350.78739 : 1"
       inkscape:vp_z="744.09448 : 526.18109 : 1"
       inkscape:vp_y="0 : 1000 : 0"
       inkscape:vp_x="0 : 526.18109 : 1"
       sodipodi:type="inkscape:persp3d" />
    <inkscape:perspective
       id="perspective3954"
       inkscape:persp3d-origin="0.5 : 0.33333333 : 1"
       inkscape:vp_z="1 : 0.5 : 1"
       inkscape:vp_y="0 : 1000 : 0"
       inkscape:vp_x="0 : 0.5 : 1"
       sodipodi:type="inkscape:persp3d" />
  </defs>
  <sodipodi:namedview
     id="base"
     pagecolor="#ffffff"
     bordercolor="#666666"
     borderopacity="1.0"
     inkscape:pageopacity="1"
     inkscape:pageshadow="2"
     inkscape:zoom="0.9899495"
     inkscape:cx="94.188992"
     inkscape:cy="96.781925"
     inkscape:document-units="px"
     inkscape:current-layer="layer1"
     showgrid="false"
     width="150px"
     inkscape:window-width="1042"
     inkscape:window-height="699"
     inkscape:window-x="1325"
     inkscape:window-y="275"
     inkscape:window-maximized="0"
     inkscape:snap-nodes="true" />
  <metadata
     id="metadata2567">
    <rdf:RDF>
      <cc:Work
         rdf:about="">
        <dc:format>image/svg+xml</dc:format>
        <dc:type
           rdf:resource="http://purl.org/dc/dcmitype/StillImage" />
        <dc:title></dc:title>
      </cc:Work>
    </rdf:RDF>
  </metadata>
  <g
     inkscape:label="Calque 1"
     inkscape:groupmode="layer"
     id="layer1"
     transform="translate(0,50)">
    <path
       sodipodi:type="arc"
       style="fill:#000000;fill-opacity:1;stroke:#000000;stroke-width:1;stroke-linecap:butt;stroke-linejoin:miter;stroke-miterlimit:4;stroke-opacity:1;stroke-dasharray:none;stroke-dashoffset:0"
       id="path3980"
       sodipodi:cx="94.449265"
       sodipodi:cy="171.21065"
       sodipodi:rx="53.033009"
       sodipodi:ry="8.0812206"
       d="m 147.48227,171.21065 c 0,4.46313 -23.74368,8.08122 -53.033005,8.08122 -29.289322,0 -53.033009,-3.61809 -53.033009,-8.08122 0,-4.46314 23.743687,-8.08122 53.033009,-8.08122 29.289325,0 53.033005,3.61808 53.033005,8.08122 z"
       transform="translate(4.5456864,-61.616754)" />
    <path
       style="fill:#ffffff;fill-opacity:1;stroke:#000000;stroke-width:3.05595756;stroke-miterlimit:4;stroke-opacity:1"
       d="M 152.2049,41.680384 C 147.10037,79.579626 128.3331,117.93045 96.602424,116.39509 69.088389,115.06377 43.399667,80.979889 43.588505,41.49275 43.786937,-7.2663334e-4 60.906709,-25.708762 95.696454,-25.708762 c 34.789736,0 56.508446,26.02173267 56.508446,67.389146 z"
       id="path3584"
       sodipodi:nodetypes="csssc" />
    <path
       style="fill:#000000;fill-opacity:1;stroke:#000000;stroke-width:1.37744951;stroke-linejoin:miter;stroke-miterlimit:4;stroke-opacity:1;stroke-dasharray:0.13774496, 0.13774496;stroke-dashoffset:0"
       d="m 112.06003,79.654034 c 0.77989,-0.519925 11.87882,21.944966 1.75065,34.063036 -3.17789,3.80226 -8.98538,4.68226 -13.908066,5.2508 -5.06781,0.58527 -10.85427,0.71543 -15.17329,-1.99959 -11.595748,-7.28928 -8.69761,-31.467675 -6.556904,-31.467675 -0.49221,0.246105 -1.486053,20.541655 8.91083,23.437075 14.37799,4.00411 3.478821,-6.35248 5.134057,-12.738934 0.765375,-2.9531 -1.818238,-6.927731 -1.818238,-6.927731 l 8.890905,-1.181496 c 0,0 -1.32168,6.448107 -2.00649,9.253017 -1.71344,7.018044 1.07619,17.290124 11.534536,10.700574 8.73943,-5.5065 3.24201,-28.389076 3.24201,-28.389076 z"
       id="path3713"
       sodipodi:nodetypes="csascssccssc" />
    <path
       style="fill:#000000;fill-opacity:1;stroke:#000000;stroke-width:2.283;stroke-linecap:butt;stroke-linejoin:miter;stroke-miterlimit:4;stroke-opacity:1;stroke-dasharray:none;stroke-dashoffset:0"
       d="M 153.5977,38.514717 141.28392,4.2969408 C 134.54397,1.7335838 129.41503,-1.6763823 123.31654,-3.3728037 95.621074,-11.076885 74.35433,-9.865237 57.825395,0.04293817 52.946982,2.9672748 46.777771,23.173677 41.825549,25.895978 c -5.399269,-8.075473 6.758185,-47.124901 13.027963,-59.353926 3.120835,-6.087101 -3.320894,14.343732 1.488274,12.555565 2.265677,-1.361069 5.960285,-17.671869 8.94885,-18.63588 3.494779,-1.127298 -0.694068,12.573566 3.419479,12.645688 2.482308,0.04352 7.480245,-13.015651 10.363381,-13.123564 2.308675,-0.08641 -1.268915,12.378457 1.107009,12.611696 2.827267,0.277548 7.54264,-10.732005 10.733679,-10.726001 2.993051,0.0056 -0.575856,9.68885 2.559678,10.45366 1.730503,0.422099 7.345248,-8.254316 9.221498,-8.061094 2.01981,0.208008 0.0403,8.117278 1.92837,8.572483 2.29183,0.552561 6.75992,-5.861826 8.88078,-5.734631 1.55893,0.09349 3.23874,4.491684 4.54979,5.005489 4.46115,1.748349 7.32393,1.264956 9.70088,2.381241 14.61884,6.360923 19.38336,18.640419 24.31908,32.2748468 3.60694,9.9637932 3.90035,18.4133662 1.52344,31.7531662 z"
       id="path3722"
       sodipodi:nodetypes="ccsscscsssssssssscsc" />
    <path
       style="fill:none;stroke:#000000;stroke-width:1.6769973px;stroke-linecap:butt;stroke-linejoin:miter;stroke-opacity:1"
       d="m 78.797054,78.041533 c 12.72176,-0.245374 27.960516,2.026259 30.981926,-7.919483"
       id="path3728"
       sodipodi:nodetypes="cc" />
    <rect
       style="fill:#ffffff;fill-opacity:1;stroke:#000000;stroke-width:2.62146091;stroke-linejoin:miter;stroke-miterlimit:4;stroke-opacity:1;stroke-dasharray:none"
       id="rect3677"
       width="34.952805"
       height="18.41264"
       x="42.479725"
       y="27.971807" />
    <path
       style="fill:none;stroke:#000000;stroke-width:1.21355331px;stroke-linecap:butt;stroke-linejoin:miter;stroke-opacity:1"
       d="m 77.964442,36.509021 c 5.05647,-2.889411 9.535061,-2.889411 13.435766,0"
       id="path3701"
       sodipodi:nodetypes="cc" />
    <path
       style="fill:none;stroke:#000000;stroke-width:1.17421496px;stroke-linecap:butt;stroke-linejoin:miter;stroke-opacity:1"
       d="M 125.31959,37.433492 155.52769,26.95429"
       id="path3718" />
    <rect
       style="fill:#ffffff;fill-opacity:1;stroke:#000000;stroke-width:2.62146091;stroke-linejoin:miter;stroke-miterlimit:4;stroke-opacity:1;stroke-dasharray:none"
       id="rect3677-6"
       width="34.952805"
       height="18.41264"
       x="90.973625"
       y="27.984659" />
    <path
       transform="matrix(0.75527523,0,0,0.75527523,50.371696,-25.42651)"
       sodipodi:type="arc"
       style="fill:#000000;fill-opacity:1;stroke:#000000;stroke-width:1.79999995;stroke-linecap:butt;stroke-linejoin:miter;stroke-miterlimit:4;stroke-opacity:1;stroke-dasharray:none;stroke-dashoffset:0"
       id="path3846-7"
       sodipodi:cx="65.803574"
       sodipodi:cy="83.660713"
       sodipodi:rx="2.4107144"
       sodipodi:ry="2.5892856"
       d="m 68.214288,83.660713 a 2.4107144,2.5892856 0 1 1 -4.821429,0 2.4107144,2.5892856 0 1 1 4.821429,0 z" />
    <path
       transform="matrix(0.75527523,0,0,0.75527523,2.468088,-25.178391)"
       sodipodi:type="arc"
       style="fill:#000000;fill-opacity:1;stroke:#000000;stroke-width:1.79999995;stroke-linecap:butt;stroke-linejoin:miter;stroke-miterlimit:4;stroke-opacity:1;stroke-dasharray:none;stroke-dashoffset:0"
       id="path3846-7-0"
       sodipodi:cx="65.803574"
       sodipodi:cy="83.660713"
       sodipodi:rx="2.4107144"
       sodipodi:ry="2.5892856"
       d="m 68.214288,83.660713 a 2.4107144,2.5892856 0 1 1 -4.821429,0 2.4107144,2.5892856 0 1 1 4.821429,0 z" />
  </g>
</svg>
