<?xml version="1.0" encoding="UTF-8" standalone="no"?>
<!-- Created with Inkscape (http://www.inkscape.org/) -->

<svg
   xmlns:dc="http://purl.org/dc/elements/1.1/"
   xmlns:cc="http://creativecommons.org/ns#"
   xmlns:rdf="http://www.w3.org/1999/02/22-rdf-syntax-ns#"
   xmlns:svg="http://www.w3.org/2000/svg"
   xmlns="http://www.w3.org/2000/svg"
   xmlns:sodipodi="http://sodipodi.sourceforge.net/DTD/sodipodi-0.dtd"
   xmlns:inkscape="http://www.inkscape.org/namespaces/inkscape"
   width="100"
   height="100"
   id="svg3235"
   version="1.1"
   inkscape:version="0.48.2 r9819"
   sodipodi:docname="New document 1">
  <defs
     id="defs3237" />
  <sodipodi:namedview
     id="base"
     pagecolor="#ffffff"
     bordercolor="#666666"
     borderopacity="1.0"
     inkscape:pageopacity="0.0"
     inkscape:pageshadow="2"
     inkscape:zoom="1.4"
     inkscape:cx="74.427334"
     inkscape:cy="148.73753"
     inkscape:document-units="px"
     inkscape:current-layer="layer1"
     showgrid="false"
     inkscape:window-width="469"
     inkscape:window-height="1012"
     inkscape:window-x="150"
     inkscape:window-y="0"
     inkscape:window-maximized="0" />
  <metadata
     id="metadata3240">
    <rdf:RDF>
      <cc:Work
         rdf:about="">
        <dc:format>image/svg+xml</dc:format>
        <dc:type
           rdf:resource="http://purl.org/dc/dcmitype/StillImage" />
        <dc:title></dc:title>
      </cc:Work>
    </rdf:RDF>
  </metadata>
  <g
     inkscape:label="Layer 1"
     inkscape:groupmode="layer"
     id="layer1"
     transform="translate(0,-952.36218)">
    <g
       id="g154"
       transform="matrix(0.64069348,0,0,0.64069348,-90.59237,422.17302)">
      <path
         style="opacity:0.98999999;stroke:#000000;stroke-width:3;stroke-linecap:round"
         inkscape:connector-curvature="0"
         id="path156"
         transform="translate(1.824,588.6066)"
         d="m 260.1143,376.0063 c 0,3.4868 -18.4296,6.3134 -41.1637,6.3134 -22.7341,0 -41.1637,-2.8266 -41.1637,-6.3134 0,-3.4868 18.4296,-6.3135 41.1637,-6.3135 22.7341,0 41.1637,2.8266 41.1637,6.3135 z" />
      <path
         style="opacity:0.98999999;fill:#ffffff;stroke:#000000;stroke-width:3;stroke-linecap:round"
         inkscape:connector-curvature="0"
         id="path158"
         transform="translate(-5.247,589.1117)"
         d="m 267.6904,324.9936 c 0,26.9183 -18.8819,48.7399 -42.1739,48.7399 -23.292,0 -42.1739,-21.8216 -42.1739,-48.7399 0,-26.9183 18.8819,-48.7399 42.1739,-48.7399 23.292,0 42.1739,21.8216 42.1739,48.7399 z" />
      <path
         style="opacity:0.98999999;stroke:#000000;stroke-width:3;stroke-linecap:round"
         inkscape:connector-curvature="0"
         id="path160"
         d="m 177.1498,929.683 c 0,1.2553 5.1936,2.8411 10.3541,2.8411 5.1605,0 4.23,-1.0807 4.23,-2.336 0,-1.2553 -0.0561,-2.9053 -4.4825,-0.2525 -7.5709,4.5373 -10.2309,-1.2643 -10.1015,-0.2525 z" />
      <path
         style="opacity:0.98999999;stroke:#000000;stroke-width:3;stroke-linecap:round"
         inkscape:connector-curvature="0"
         id="path162"
         d="m 185.1363,848.3935 82.4979,11.8003 -5.1492,35.9991 c -28.5724,3.5683 -56.2123,0.6183 -82.4979,-11.8003 l 5.1492,-35.9991 z" />
      <path
         style="opacity:0.98999999;stroke:#ffffff;stroke-width:3;stroke-linecap:round"
         inkscape:connector-curvature="0"
         id="path164"
         transform="matrix(1.00797,0.14418,-0.14128,0.9877,45.23314,551.72262)"
         d="m 259.1041,273.4758 c 0,2.9289 -18.3166,5.3033 -40.9112,5.3033 -22.5946,0 -40.9112,-2.3744 -40.9112,-5.3033 0,-2.9289 18.3166,-5.3033 40.9112,-5.3033 22.5946,0 40.9112,2.3744 40.9112,5.3033 z" />
      <path
         style="opacity:0.98999999;stroke:#ffffff;stroke-width:3;stroke-linecap:round"
         inkscape:connector-curvature="0"
         id="path166"
         d="m 261.8599,896.9964 c -0.1951,1.812 -64.03,15.8299 -94.7506,3.4118 -31.1769,-12.6025 9.934,-15.4098 12.5027,-15.1764 1.5974,0.1451 17.3215,8.4727 40.0336,11.7214 22.7121,3.2487 42.4414,-1.5446 42.2143,0.0432 z" />
      <path
         style="opacity:0.98999999;stroke:#000000;stroke-width:3;stroke-linecap:round"
         inkscape:connector-curvature="0"
         id="path168"
         transform="translate(-2.9742,594.1624)"
         d="m 192.4341,321.7106 c 0,1.8132 -1.2437,3.283 -2.7779,3.283 -1.5342,0 -2.7779,-1.4699 -2.7779,-3.283 0,-1.8132 1.2437,-3.283 2.7779,-3.283 1.5342,0 2.7779,1.4698 2.7779,3.283 z" />
      <path
         style="opacity:0.98999999;stroke:#000000;stroke-width:3;stroke-linecap:round"
         inkscape:connector-curvature="0"
         id="path170"
         transform="translate(12.1781,594.6675)"
         d="m 192.4341,321.7106 c 0,1.8132 -1.2437,3.283 -2.7779,3.283 -1.5342,0 -2.7779,-1.4699 -2.7779,-3.283 0,-1.8132 1.2437,-3.283 2.7779,-3.283 1.5342,0 2.7779,1.4698 2.7779,3.283 z" />
      <path
         style="fill:none;stroke:#000000"
         inkscape:connector-curvature="0"
         id="path172"
         d="m 180.3685,907.2868 13.132,7.0711 17.4251,-5.8084" />
      <path
         style="fill:none;stroke:#000000"
         inkscape:connector-curvature="0"
         id="path174"
         d="m 197.3037,941.8104 13.9286,-3.9286" />
      <path
         style="opacity:0.98999999;stroke:#000000;stroke-width:3;stroke-linecap:round"
         inkscape:connector-curvature="0"
         id="path176"
         d="m 209.9154,929.6995 c 0,1.2553 -5.1936,2.8411 -10.3541,2.8411 -5.1605,0 -4.23,-1.0807 -4.23,-2.336 0,-1.2553 0.0561,-2.9053 4.4825,-0.2525 7.5709,4.5373 10.2309,-1.2643 10.1015,-0.2525 z" />
    </g>
  </g>
</svg>
