<?xml version="1.0" encoding="UTF-8" standalone="no"?>
<!-- Created with Inkscape (http://www.inkscape.org/) -->

<svg
   xmlns:dc="http://purl.org/dc/elements/1.1/"
   xmlns:cc="http://creativecommons.org/ns#"
   xmlns:rdf="http://www.w3.org/1999/02/22-rdf-syntax-ns#"
   xmlns:svg="http://www.w3.org/2000/svg"
   xmlns="http://www.w3.org/2000/svg"
   xmlns:sodipodi="http://sodipodi.sourceforge.net/DTD/sodipodi-0.dtd"
   xmlns:inkscape="http://www.inkscape.org/namespaces/inkscape"
   width="200"
   height="200"
   id="svg2562"
   sodipodi:version="0.32"
   inkscape:version="0.47 r22583"
   version="1.0"
   sodipodi:docname="spiderboy.svg"
   inkscape:output_extension="org.inkscape.output.svg.inkscape"
   inkscape:export-filename="/home/mogmi/Dropbox/Public/hmm/dudes/spiderboy.png"
   inkscape:export-xdpi="90"
   inkscape:export-ydpi="90">
  <defs
     id="defs2564">
    <inkscape:perspective
       sodipodi:type="inkscape:persp3d"
       inkscape:vp_x="0 : 526.18109 : 1"
       inkscape:vp_y="0 : 1000 : 0"
       inkscape:vp_z="744.09448 : 526.18109 : 1"
       inkscape:persp3d-origin="372.04724 : 350.78739 : 1"
       id="perspective2570" />
    <inkscape:perspective
       id="perspective5439"
       inkscape:persp3d-origin="0.5 : 0.33333333 : 1"
       inkscape:vp_z="1 : 0.5 : 1"
       inkscape:vp_y="0 : 1000 : 0"
       inkscape:vp_x="0 : 0.5 : 1"
       sodipodi:type="inkscape:persp3d" />
  </defs>
  <sodipodi:namedview
     id="base"
     pagecolor="#ffffff"
     bordercolor="#666666"
     borderopacity="1.0"
     inkscape:pageopacity="1"
     inkscape:pageshadow="2"
     inkscape:zoom="1.4"
     inkscape:cx="200.70083"
     inkscape:cy="121.30434"
     inkscape:document-units="px"
     inkscape:current-layer="layer1"
     showgrid="false"
     width="150px"
     inkscape:window-width="1042"
     inkscape:window-height="699"
     inkscape:window-x="-138"
     inkscape:window-y="382"
     inkscape:window-maximized="0" />
  <metadata
     id="metadata2567">
    <rdf:RDF>
      <cc:Work
         rdf:about="">
        <dc:format>image/svg+xml</dc:format>
        <dc:type
           rdf:resource="http://purl.org/dc/dcmitype/StillImage" />
        <dc:title></dc:title>
      </cc:Work>
    </rdf:RDF>
  </metadata>
  <g
     inkscape:label="Calque 1"
     inkscape:groupmode="layer"
     id="layer1"
     transform="translate(0,50)">
    <g
       transform="matrix(1.428466,0,0,1.428466,-29.857766,-1242.9942)"
       id="g5416">
      <path
         sodipodi:open="true"
         sodipodi:end="6.1711503"
         sodipodi:start="0"
         transform="matrix(-1.18208,0,0,1.0586424,18.697967,559.36705)"
         d="m -22.223354,373.73349 c 0,2.37104 -17.072842,4.29315 -38.133259,4.29315 -21.060417,0 -38.133259,-1.92211 -38.133259,-4.29315 0,-2.37104 17.072842,-4.29315 38.133259,-4.29315 19.410704,0 35.724056,1.64156 37.894188,3.81317"
         sodipodi:ry="4.2931485"
         sodipodi:rx="38.133259"
         sodipodi:cy="373.73349"
         sodipodi:cx="-60.356613"
         id="path5187"
         style="opacity:0.98999999;fill:#000000;fill-opacity:1;stroke:#000000;stroke-width:2;stroke-linecap:round;stroke-linejoin:miter;stroke-miterlimit:4;stroke-opacity:1;stroke-dasharray:none;stroke-dashoffset:0"
         sodipodi:type="arc" />
      <path
         sodipodi:nodetypes="csssc"
         id="path5005"
         d="m 53.728125,905.30938 c 3.366814,22.39325 13.290225,39.56852 32.911982,48.22517 19.318433,8.52282 38.554213,-21.86586 38.195313,-46.06348 -0.39493,-26.62618 -22.74807,-33.08409 -44.183783,-33.08409 -21.435716,0 -26.923512,4.29348 -26.923512,30.9224 z"
         style="opacity:0.98999999;fill:#ffffff;fill-opacity:1;stroke:#000000;stroke-width:3.88960576;stroke-linecap:round;stroke-linejoin:miter;stroke-miterlimit:4;stroke-opacity:1;stroke-dashoffset:0" />
      <path
         d="m 60.107113,880.4021 c -0.553497,0.97614 -0.871454,2.06121 -1.074891,3.21749 -0.171754,1.25888 -0.201291,2.53791 -0.22329,3.81166 -0.0092,0.85 -0.01059,1.70022 -0.0063,2.55029 0.01322,0.94388 0.336237,1.8035 0.646434,2.64517 0.279984,0.76641 0.671383,1.45685 1.044215,2.15599 0.499483,0.83374 1.005852,1.66146 1.515356,2.48602 0.515239,0.78287 0.932298,1.65139 1.403395,2.47343 0.299235,0.47775 0.42376,1.02153 0.480659,1.61068 0.115777,1.09009 -0.214153,2.05073 -0.619096,2.98921 -0.718171,1.53441 -1.815806,2.66314 -2.930652,3.73115 -0.682364,0.68286 -1.453376,1.21723 -2.111339,1.93727 -0.490695,0.56767 -0.903449,1.23173 -1.313977,1.88811 -0.63135,0.94861 -1.169438,1.9816 -1.652105,3.0543 -0.437761,0.97508 -0.800861,1.97842 -0.93853,3.08564 -0.0021,1.64443 0.971538,2.74303 1.943237,3.67571 1.404453,1.23901 2.944007,2.21747 4.441479,3.26658 0.219592,0.15384 0.462182,0.35476 0.720428,0.30926 0.04839,-0.16463 0.142517,-0.31865 0.1452,-0.49387 0.0025,-0.16139 -0.3448,-0.77839 -0.377022,-0.83708 -0.326493,-0.59462 -0.695001,-1.14158 -1.065303,-1.6941 -0.724739,-1.02126 -1.443387,-2.04331 -2.039601,-3.18811 -0.403359,-0.75797 -0.560959,-1.60189 -0.628542,-2.49112 -0.0014,-1.11447 0.324352,-2.13008 0.692746,-3.12455 0.414944,-0.92449 1.032286,-1.66515 1.625359,-2.41153 0.759602,-0.98248 1.424131,-2.06706 2.079256,-3.15685 0.557529,-0.9596 1.089702,-1.94133 1.642844,-2.9046 0.456637,-0.70207 0.91194,-1.39509 1.316756,-2.14588 0.750935,-1.27542 1.192995,-2.75097 1.672876,-4.19812 0.435024,-1.30651 0.798429,-2.64443 1.14722,-3.98914 0.242518,-0.93211 0.398534,-1.89598 0.554933,-2.85513 0.164224,-0.7793 0.318939,-1.52396 0.181396,-2.32355 -0.13374,-0.47277 -0.355002,-0.94186 -0.713317,-1.20753 -2.995452,-2.22086 -2.136078,-1.74776 -3.617131,-2.52476 -1.131373,-0.45554 -2.308539,-0.67759 -3.484479,-0.86559 -0.657809,-0.0424 -1.850038,-0.38935 -2.408108,0.24973 -0.06717,0.0769 -0.104013,0.18663 -0.156026,0.27994 -0.0174,0.13573 -0.05274,0.26976 -0.05217,0.4072 0.004,0.95183 0.689832,2.02018 1.104566,2.75801 0.751317,1.22974 1.516957,2.44778 2.116279,3.80357 0.427247,1.10683 0.483907,2.35117 0.06808,3.4834 -0.09748,0.26541 -0.231355,0.50776 -0.347033,0.76163 -0.993147,1.80938 -2.459612,3.01458 -3.94572,4.12088 -0.840457,0.61872 -1.769292,1.00429 -2.654691,1.50326 -0.750613,0.41489 -1.447893,0.93166 -2.091288,1.56354 -0.598317,0.60936 -1.102433,1.34189 -1.612513,2.06034 -0.499441,0.71217 -0.904951,1.50832 -1.221736,2.36519 -0.306082,0.72999 -0.425975,1.53025 -0.492999,2.34004 -0.06028,0.68178 -0.06741,1.3584 0.115208,2.01086 0.133127,0.40754 0.360531,0.7518 0.613081,1.05469 0.234321,0.29391 0.465127,0.59451 0.713314,0.87085 1.195724,0.88753 2.615299,2.58868 4.189546,2.25821 0.600386,-0.19999 0.957308,-0.74064 1.24167,-1.39209 0.275577,-0.86483 0.588484,-1.70499 0.961118,-2.51251 0.496257,-1.0562 1.144063,-1.98427 1.708513,-2.98347 0.612701,-1.1435 1.037598,-2.39612 1.318871,-3.71904 0.218202,-1.02731 0.20669,-2.0924 0.302127,-3.13916 0.102279,-0.91542 0.62458,-1.66397 1.026812,-2.41208 0.713678,-1.21339 1.339713,-2.50096 1.998275,-3.76036 0.345887,-0.76817 0.718423,-1.51541 1.114386,-2.24495 0.243716,-0.48313 0.435553,-0.99266 0.596509,-1.52495 0.160476,-0.59688 0.29263,-1.20263 0.519793,-1.76728 0.239825,-0.56927 0.486194,-1.13325 0.719659,-1.70666 0.01585,-0.0293 0.110328,-0.24241 0.175574,-0.25629 0.01942,-0.004 0.05612,0.0671 0.03885,0.0554 -0.998495,-0.681 -1.939935,-1.50397 -2.985636,-2.06513 -0.104933,-0.0564 -0.1006,0.25519 -0.157117,0.37861 -0.124955,0.27287 -0.258052,0.53986 -0.387078,0.80981 -1.508367,2.77675 -3.032229,5.56642 -4.863662,8.03672 -0.46182,0.62291 -0.955497,1.20821 -1.433246,1.81231 -0.49709,0.56514 -0.986525,1.14086 -1.49127,1.69544 -1.176732,1.29292 -1.669603,1.79315 -2.922921,2.9201 -1.110522,0.99856 -2.270806,1.90942 -3.414665,2.8469 -0.908448,0.68584 -1.812589,1.37747 -2.480614,2.41885 -0.318172,0.5213 -0.605146,1.10467 -1.037552,1.4928 -0.231754,0.11623 -0.462355,0.23123 -0.696793,0.34196 0,0 2.869006,2.38703 2.869006,2.38703 l 0,0 c 0.255505,-0.13331 0.523146,-0.24362 0.747954,-0.4508 0.420807,-0.45332 0.738015,-1.02829 1.062248,-1.58655 0.63287,-0.99214 1.494131,-1.67843 2.324895,-2.39142 1.109114,-0.98009 2.241425,-1.92362 3.330111,-2.9388 1.228371,-1.14546 1.747617,-1.68253 2.908576,-2.9731 0.505694,-0.56216 0.997402,-1.14343 1.496104,-1.71514 0.482786,-0.60969 0.979799,-1.20252 1.448359,-1.82911 1.855266,-2.48098 3.424232,-5.25834 5.056969,-7.96153 0.147426,-0.26272 0.297289,-0.52336 0.442281,-0.78816 0.08827,-0.16121 0.376641,-0.36287 0.25745,-0.48976 -1.719745,-1.83061 -2.451979,-3.53683 -3.286054,-1.86823 -0.224924,0.57845 -0.464798,1.14333 -0.710484,1.70847 -0.237258,0.57494 -0.385566,1.18762 -0.540421,1.80246 -0.158502,0.49874 -0.330185,0.9863 -0.557562,1.44444 -0.390232,0.73736 -0.734261,1.50838 -1.079063,2.27952 -0.642575,1.26674 -1.259157,2.55794 -1.990583,3.75058 -0.446404,0.78943 -1.025798,1.5883 -1.140776,2.57023 -0.09379,1.0336 -0.04517,2.08853 -0.24991,3.1075 -0.254538,1.28201 -0.661822,2.48632 -1.26431,3.58138 -0.571302,1.00778 -1.216986,1.95213 -1.725443,3.01285 -0.383252,0.80411 -0.716973,1.63786 -0.992526,2.50695 -0.233512,0.54505 -0.539092,0.97106 -1.063906,1.02767 -1.40832,-0.0339 -3.195254,-1.76668 1.835218,1.79285 -0.308351,-0.17395 -0.482758,-0.52061 -0.744993,-0.77236 -0.20933,-0.32083 -0.4836,-0.56453 -0.668515,-0.91489 -0.236775,-0.65327 -0.272511,-1.11511 -0.206311,-1.84114 0.05525,-0.76673 0.151146,-1.5258 0.441359,-2.21772 0.288653,-0.82723 0.680041,-1.58441 1.162571,-2.25945 0.494735,-0.69961 0.991326,-1.40579 1.573329,-1.99679 0.631761,-0.60132 1.324302,-1.07593 2.053551,-1.47241 0.890018,-0.48996 1.795207,-0.94716 2.622591,-1.594 1.510594,-1.1764 2.998971,-2.45593 4.040413,-4.29241 0.129242,-0.2732 0.277107,-0.53406 0.387728,-0.8196 0.465548,-1.20167 0.476161,-2.56546 0.06728,-3.78702 -0.559298,-1.39741 -1.337511,-2.62639 -2.103623,-3.85735 -0.471356,-0.82481 -1.008782,-1.65562 -1.180462,-2.66855 0.336704,-0.63042 1.80787,-0.2178 2.287841,-0.19544 1.172963,0.20756 2.357842,0.44669 3.462356,1.00046 1.240358,0.75558 0.658986,0.41539 -2.249732,-1.68731 -0.09346,-0.0676 0.18454,0.14044 0.27308,0.21757 0.224614,0.19566 0.405404,0.41602 0.521078,0.73018 0.237739,0.75742 0.05585,1.388 -0.09881,2.14843 -0.140249,0.94914 -0.296544,1.89885 -0.515268,2.82494 -0.339607,1.33796 -0.678071,2.67643 -1.107489,3.97576 -0.476485,1.41718 -0.897598,2.87359 -1.668904,4.09887 -0.41945,0.73533 -0.885066,1.41997 -1.325467,2.13515 -0.539049,0.96909 -1.048317,1.96354 -1.606991,2.91613 -0.648095,1.07474 -1.314593,2.13399 -2.075075,3.09146 -0.623939,0.77837 -1.258212,1.5679 -1.685734,2.54044 -0.387699,1.05796 -0.726002,2.13108 -0.786448,3.30562 0.04486,0.94737 0.165339,1.86481 0.575997,2.68796 0.580262,1.17824 1.286475,2.23171 2.03739,3.24843 0.362183,0.5384 0.736155,1.05882 1.05825,1.63629 0.06502,0.11657 0.342037,0.67311 0.381281,0.67585 0.08746,0.005 0.131775,-0.14336 0.197662,-0.21505 -0.150064,-0.13364 -0.976139,-0.66603 -0.59291,-0.38146 0.81245,0.60333 1.63336,1.18891 2.45015,1.78312 0.176274,0.12824 -0.355419,-0.25061 -0.528598,-0.38519 -0.197903,-0.1538 -0.389499,-0.31977 -0.58425,-0.47966 -0.937342,-0.80142 -1.901345,-1.73452 -2.042077,-3.23682 0.08721,-1.06679 0.456577,-2.01997 0.864129,-2.95488 0.464035,-1.06046 1.003439,-2.06664 1.633813,-2.98725 0.406078,-0.63067 0.818439,-1.26246 1.29947,-1.80829 0.647649,-0.7058 1.377758,-1.28241 2.042055,-1.96321 1.13375,-1.12415 2.270053,-2.29218 3.020976,-3.86267 0.44131,-0.9887 0.827891,-2.01647 0.758074,-3.17824 -0.02802,-0.64618 -0.111467,-1.27481 -0.412278,-1.82195 -0.475444,-0.83186 -0.922243,-1.6868 -1.421968,-2.49747 -0.494692,-0.8217 -0.988158,-1.64575 -1.504308,-2.44647 -0.359045,-0.70096 -0.766611,-1.3651 -1.072702,-2.10548 -0.298576,-0.79237 -0.641416,-1.58568 -0.699273,-2.47399 -0.0017,-0.85169 -0.0145,-1.7033 -0.01397,-2.55502 0.0041,-1.2509 0.01816,-2.50786 0.18036,-3.74551 0.183713,-1.1034 0.475113,-2.14138 1.04446,-3.03847 0,0 -2.966733,-2.17513 -2.966733,-2.17513 z"
         id="path5026"
         style="opacity:0.98999999;fill:#000000;fill-opacity:1;stroke:#000000;stroke-width:2.04921937;stroke-linecap:round;stroke-linejoin:miter;stroke-miterlimit:4;stroke-opacity:1;stroke-dasharray:none;stroke-dashoffset:0" />
      <path
         sodipodi:nodetypes="cscccsccccsccscsscsccccccssccsccscsssscssscccscscccssssssscccsscccccccccsscscsscscscccscscccccscscsscsccccsssccscccsccscsscsssscscsccssscccccc"
         d="m 52.628657,886.16711 c 0.01038,0.94871 0.263969,1.81271 0.507492,2.65868 0.219807,0.7703 0.527082,1.46425 0.819778,2.16696 0.392128,0.83799 0.789661,1.66993 1.189655,2.49871 0.404497,0.78685 0.731915,1.6598 1.101758,2.48605 0.23492,0.48016 0.332678,1.02672 0.377349,1.61888 0.0909,1.09565 -0.168126,2.06118 -0.486031,3.00446 -0.563812,1.54223 -1.425529,2.67671 -2.300755,3.75017 -0.535701,0.68634 -1.140996,1.22342 -1.65754,1.94713 -0.385228,0.57058 -0.709268,1.23802 -1.031559,1.89775 -0.495651,0.95344 -0.918086,1.99172 -1.29701,3.06987 -0.343671,0.98006 -0.628729,1.98851 -0.736809,3.10137 -0.0017,1.65283 0.762721,2.75704 1.525569,3.69446 1.102589,1.24533 2.31124,2.22877 3.486854,3.28322 0.172394,0.15465 0.362842,0.35658 0.565583,0.31084 0.038,-0.16546 0.111885,-0.32025 0.113992,-0.49638 0.0019,-0.1622 -0.270692,-0.78236 -0.295988,-0.84135 -0.256319,-0.59766 -0.545621,-1.1474 -0.836334,-1.70275 -0.568968,-1.02646 -1.133151,-2.05372 -1.60122,-3.20433 -0.316662,-0.76186 -0.440389,-1.61008 -0.493445,-2.50383 -0.0011,-1.12017 0.254636,-2.14096 0.54385,-3.14049 0.325758,-0.92922 0.810412,-1.67366 1.276013,-2.42382 0.596338,-0.9875 1.118037,-2.07761 1.632354,-3.17296 0.437697,-0.96449 0.855486,-1.95124 1.28974,-2.91942 0.358491,-0.70563 0.715933,-1.4022 1.03374,-2.1568 0.589534,-1.28192 0.93658,-2.76499 1.313317,-4.21952 0.341523,-1.31318 0.626819,-2.65794 0.900644,-4.00949 0.190392,-0.93686 0.312875,-1.90565 0.435659,-2.86968 0.128927,-0.78329 0.250388,-1.53174 0.142407,-2.33541 -0.104998,-0.47517 -0.278698,-0.94666 -0.56,-1.21369 -2.351627,-2.23217 -1.676962,-1.75666 -2.839686,-2.53761 -7.366339,-3.29521 -3.825438,2.6722 -2.260942,6.66667 0.335416,1.11248 0.379897,2.36316 0.05345,3.50116 -0.07653,0.26676 -0.181629,0.51035 -0.272445,0.76551 -0.779686,1.81861 -1.930956,3.02994 -3.097649,4.14189 -0.659814,0.62187 -1.389012,1.00943 -2.084107,1.51094 -0.58928,0.41699 -1.136691,0.9364 -1.641799,1.5715 -0.469719,0.61247 -0.865483,1.34873 -1.265929,2.07084 -0.392095,0.7158 -0.710446,1.51601 -0.959143,2.37727 -0.240294,0.73368 -0.334418,1.53804 -0.387037,2.35196 -0.04733,0.68526 -0.05292,1.36531 0.09045,2.0211 0.104516,0.40963 0.283041,0.75563 0.481308,1.06006 0.183959,0.29543 0.365156,0.59756 0.56,0.87529 0.938721,0.89205 2.053181,2.60189 3.289069,2.26974 0.471343,-0.20102 0.751548,-0.74442 0.974791,-1.39918 0.216347,-0.86926 0.462001,-1.71367 0.754541,-2.52533 0.389596,-1.06159 0.898165,-1.99439 1.341295,-2.99869 0.481013,-1.14933 0.814585,-2.40834 1.035402,-3.73801 0.171302,-1.03254 0.162265,-2.10305 0.237189,-3.15516 0.08029,-0.92008 0.490337,-1.67244 0.806116,-2.42436 0.560283,-1.21959 1.051762,-2.51371 1.568777,-3.77954 0.271543,-0.7721 0.564009,-1.52315 0.874867,-2.2564 0.191332,-0.4856 0.341937,-0.99772 0.468297,-1.53273 0.125985,-0.59991 0.229735,-1.20877 0.408072,-1.7763 0.188279,-0.57214 0.381694,-1.13902 0.564981,-1.71534 0.01244,-0.0294 0.08662,-0.24367 0.137836,-0.2576 0.01525,-0.004 0.04406,0.0674 0.0305,0.0557 -0.783884,-0.68448 -1.522976,-1.51163 -2.34392,-2.07567 -0.08238,-0.0566 -0.07897,0.25651 -0.123348,0.38054 -1.161146,3.05662 -2.552158,6.02499 -4.122175,8.89165 -0.362559,0.62608 -0.750129,1.21438 -1.125192,1.82156 -0.390249,0.56801 -0.774488,1.14666 -1.170745,1.70407 -0.923812,1.29952 -1.310748,1.8023 -2.294687,2.93499 -0.871832,1.00365 -1.782732,1.91915 -2.680736,2.86141 -0.713191,0.68937 -1.423001,1.3845 -1.947443,2.43118 0.831057,1.87502 -0.475082,1.11031 -0.814547,1.50043 -0.181943,0.1168 1.528498,2.6643 -0.54703,0.34369 0,0 2.252359,2.39922 2.252359,2.39922 l 0,0 c 0.200589,-0.13399 0.410704,-0.24487 0.587192,-0.45312 0.330362,-0.45562 0.579391,-1.03353 0.833935,-1.59464 0.496846,-0.99718 1.172992,-1.68697 1.825197,-2.40361 0.870727,-0.98509 1.759665,-1.93343 2.614355,-2.95379 0.964351,-1.15129 1.371995,-1.69109 2.283424,-2.98825 0.397002,-0.56503 0.783026,-1.14925 1.17454,-1.72387 0.379019,-0.61282 0.769206,-1.20866 1.137056,-1.83845 1.456506,-2.49363 2.688248,-5.28515 3.970054,-8.00212 0.11574,-0.26405 0.23339,-0.52603 0.34722,-0.79217 0.0693,-0.16204 0.295688,-0.36474 0.202115,-0.49226 -1.350113,-1.83995 -1.924966,-3.55487 -2.57977,-1.87775 -0.17658,0.58137 -0.364896,1.14915 -0.557774,1.71717 -0.186265,0.57786 -0.302697,1.19367 -0.424268,1.81166 -0.124435,0.50127 -0.259216,0.99131 -0.437723,1.45179 -0.306357,0.74112 -0.576443,1.51607 -0.847134,2.29114 -0.504465,1.2732 -0.988521,2.57098 -1.562739,3.7697 -0.350457,0.79347 -0.805319,1.59641 -0.895584,2.58333 -0.07364,1.03888 -0.03547,2.09919 -0.196196,3.12336 -0.199829,1.28854 -0.519575,2.499 -0.992567,3.59964 -0.44851,1.01291 -0.955414,1.96209 -1.354587,3.0282 -0.300877,0.80822 -0.56287,1.64621 -0.779197,2.51973 -0.183321,0.54784 -0.423224,0.97602 -0.835236,1.03292 -1.105624,-0.0341 -2.508485,-1.77568 1.440766,1.80199 -0.242075,-0.17484 -0.378995,-0.52327 -0.584867,-0.77631 -0.164339,-0.32246 -0.379658,-0.56739 -0.524831,-0.91954 -0.185882,-0.6566 -0.213936,-1.12079 -0.161967,-1.85052 0.04339,-0.77065 0.118661,-1.53359 0.346496,-2.22903 0.226612,-0.83146 0.533878,-1.5925 0.912696,-2.27097 0.388399,-0.70319 0.778256,-1.41297 1.235166,-2.00698 0.495975,-0.60438 1.039665,-1.0814 1.612173,-1.47992 0.698723,-0.49245 1.409356,-0.95198 2.058906,-1.60213 1.185917,-1.18239 2.35439,-2.46843 3.171989,-4.31429 0.101467,-0.27459 0.217549,-0.53679 0.304393,-0.82378 0.365486,-1.20779 0.373818,-2.57853 0.05282,-3.80632 -0.439086,-1.40453 -1.050034,-2.63979 -1.651483,-3.87701 -0.775804,-1.74861 -1.607678,-3.20561 0.869366,-2.87862 0.920853,0.20865 1.851061,0.44898 2.718177,1.00557 0.973763,0.75944 0.517348,0.41751 -1.766189,-1.69591 -0.07337,-0.0679 0.144877,0.14117 0.214387,0.21867 0.176337,0.19666 0.318269,0.41814 0.409081,0.73393 0.186639,0.76127 0.04385,1.39507 -0.07757,2.15938 -0.110103,0.95397 -0.232805,1.90851 -0.404518,2.83933 -0.266615,1.3448 -0.532331,2.69007 -0.869453,3.99604 -0.374071,1.42439 -0.704673,2.88824 -1.310198,4.11977 -0.329298,0.73907 -0.694835,1.42723 -1.040579,2.14602 -0.42319,0.97404 -0.822998,1.97357 -1.261595,2.93101 -0.508796,1.08022 -1.03204,2.14486 -1.62907,3.10722 -0.489834,0.78233 -0.98778,1.57588 -1.323412,2.55338 -0.304369,1.06337 -0.569959,2.14195 -0.617412,3.32248 0.03521,0.95221 0.1298,1.87433 0.452194,2.70168 0.455545,1.18424 1.009969,2.24309 1.599486,3.26498 0.284338,0.54114 0.577929,1.06422 0.830796,1.64465 0.05105,0.11716 0.268521,0.67653 0.299331,0.67929 0.06866,0.005 0.103445,-0.1441 0.155177,-0.21615 -0.11781,-0.13433 -0.766333,-0.66943 -0.465473,-0.38341 0.637826,0.60641 1.282294,1.19498 1.923529,1.79222 0.138386,0.12888 -0.279029,-0.25188 -0.414985,-0.38715 -0.155367,-0.15459 -0.305782,-0.32141 -0.458674,-0.48211 -0.735874,-0.80552 -1.492682,-1.74335 -1.603165,-3.25332 0.06847,-1.07224 0.358443,-2.03026 0.678396,-2.96996 0.364299,-1.06586 0.787768,-2.07716 1.282652,-3.00247 0.318799,-0.6339 0.642529,-1.26892 1.02017,-1.81752 0.508447,-0.70939 1.081631,-1.28895 1.603148,-1.97321 0.890066,-1.12988 1.782141,-2.30388 2.371665,-3.88238 0.346457,-0.99373 0.649947,-2.02675 0.595137,-3.19443 -0.022,-0.64948 -0.08751,-1.28131 -0.323666,-1.83125 -0.373254,-0.83609 -0.724021,-1.6954 -1.116338,-2.51019 -0.388365,-0.82589 -0.775769,-1.65414 -1.180981,-2.45896 -0.281873,-0.70454 -0.601838,-1.37205 -0.842141,-2.11622 -0.234403,-0.7964 -0.503553,-1.59376 -0.548974,-2.4866 -0.0014,-0.85604 -0.01138,-1.71198 -0.01097,-2.56803 -0.08435,-2.34788 0.118509,-4.62543 0.961566,-6.81857 4.069166,1.08569 -1.625951,6.06319 -3.353268,7.44191 z"
         id="path5026-5"
         style="opacity:0.98999999;fill:#000000;fill-opacity:1;stroke:#000000;stroke-width:1.82031202;stroke-linecap:round;stroke-linejoin:miter;stroke-miterlimit:4;stroke-opacity:1;stroke-dasharray:none;stroke-dashoffset:0" />
      <g
         transform="matrix(-0.98013799,-0.10123726,-0.06110824,1.1898449,89.121222,-197.22169)"
         id="g5059">
        <path
           sodipodi:type="arc"
           style="opacity:0.98999999;fill:#000000;fill-opacity:1;stroke:#ffffff;stroke-width:2;stroke-linecap:round;stroke-linejoin:miter;stroke-miterlimit:4;stroke-opacity:1;stroke-dasharray:none;stroke-dashoffset:0"
           id="path5007"
           sodipodi:cx="-51.875"
           sodipodi:cy="305.35715"
           sodipodi:rx="63.839287"
           sodipodi:ry="6.25"
           d="m 11.964287,305.35715 c 0,3.45178 -28.581822,6.25 -63.839287,6.25 -35.257465,0 -63.83929,-2.79822 -63.83929,-6.25 0,-3.45178 28.581825,-6.25 63.83929,-6.25 32.495662,0 59.806015,2.38979 63.439055,5.55124"
           transform="translate(-6.25,603.43361)"
           sodipodi:start="0"
           sodipodi:end="6.1711503"
           sodipodi:open="true" />
        <path
           style="opacity:0.98999999;fill:#000000;fill-opacity:1;stroke:#000000;stroke-width:3.9000001;stroke-linecap:round;stroke-linejoin:miter;stroke-miterlimit:4;stroke-opacity:1;stroke-dashoffset:0"
           d="m -94.10714,906.64788 11.001949,-21.92427 c -0.180783,1.2085 50.317479,-5.78134 51.589483,-2.90002 l 10.801429,24.46715"
           id="rect5009"
           sodipodi:nodetypes="czzc" />
        <path
           transform="matrix(0.99954753,-0.03007879,0.03007879,0.99954753,0,0)"
           style="opacity:0.98999999;fill:#ffffff;fill-opacity:1;stroke:#ffffff;stroke-width:3.9000001;stroke-linecap:round;stroke-linejoin:miter;stroke-miterlimit:4;stroke-opacity:1;stroke-dashoffset:0"
           d="m -116.36704,898.2356 c 34.295656,2.56258 54.005344,2.67616 63.907213,1.29301 l 0.98339,2.32013 c -17.73236,1.02104 -41.898343,-0.61589 -65.393293,-1.81639 l 0.50269,-1.79675 z"
           id="rect5017"
           sodipodi:nodetypes="ccccc" />
      </g>
      <path
         sodipodi:nodetypes="cc"
         id="path5064"
         d="m 96.799591,938.80449 c -5.092435,-1.34785 -8.560012,-0.67871 -15.664285,-6.34599"
         style="fill:none;stroke:#000000;stroke-width:1.0699811px;stroke-linecap:butt;stroke-linejoin:miter;stroke-opacity:1" />
      <path
         sodipodi:open="true"
         sodipodi:end="6.1711503"
         sodipodi:start="0"
         transform="matrix(-1.0699811,0,0,1.0699811,30.057466,559.12657)"
         d="m -69.953066,326.63513 c 0,2.02236 -3.109293,3.6618 -6.944799,3.6618 -3.835507,0 -6.944799,-1.63944 -6.944799,-3.6618 0,-2.02236 3.109292,-3.6618 6.944799,-3.6618 3.535062,0 6.506037,1.40015 6.901259,3.25241"
         sodipodi:ry="3.661803"
         sodipodi:rx="6.9447989"
         sodipodi:cy="326.63513"
         sodipodi:cx="-76.897865"
         id="path5163"
         style="opacity:0.98999999;fill:#ffffff;fill-opacity:1;stroke:#000000;stroke-width:1.68227267;stroke-linecap:round;stroke-linejoin:miter;stroke-miterlimit:4;stroke-opacity:1;stroke-dasharray:none;stroke-dashoffset:0"
         sodipodi:type="arc" />
      <path
         sodipodi:open="true"
         sodipodi:end="6.1711503"
         sodipodi:start="0"
         transform="matrix(1.0699811,0,0,1.0699811,184.49665,560.45447)"
         d="m -65.035606,325.24615 c 0,0.27895 -0.365887,0.50508 -0.817231,0.50508 -0.451344,0 -0.81723,-0.22613 -0.81723,-0.50508 0,-0.27894 0.365886,-0.50507 0.81723,-0.50507 0.41599,0 0.7656,0.19312 0.812107,0.44861"
         sodipodi:ry="0.50507629"
         sodipodi:rx="0.81723058"
         sodipodi:cy="325.24615"
         sodipodi:cx="-65.852837"
         id="path5068-4"
         style="opacity:0.98999999;fill:#000000;fill-opacity:1;stroke:#000000;stroke-width:2;stroke-linecap:round;stroke-linejoin:miter;stroke-miterlimit:4;stroke-opacity:1;stroke-dasharray:none;stroke-dashoffset:0"
         sodipodi:type="arc" />
      <path
         sodipodi:open="true"
         sodipodi:end="6.1711503"
         sodipodi:start="0"
         transform="matrix(-1.0699811,0,0,1.0699811,8.887005,559.17456)"
         d="m -69.953066,326.63513 c 0,2.02236 -3.109293,3.6618 -6.944799,3.6618 -3.835507,0 -6.944799,-1.63944 -6.944799,-3.6618 0,-2.02236 3.109292,-3.6618 6.944799,-3.6618 3.535062,0 6.506037,1.40015 6.901259,3.25241"
         sodipodi:ry="3.661803"
         sodipodi:rx="6.9447989"
         sodipodi:cy="326.63513"
         sodipodi:cx="-76.897865"
         id="path5163-4"
         style="opacity:0.98999999;fill:#ffffff;fill-opacity:1;stroke:#000000;stroke-width:1.68227267;stroke-linecap:round;stroke-linejoin:miter;stroke-miterlimit:4;stroke-opacity:1;stroke-dasharray:none;stroke-dashoffset:0"
         sodipodi:type="arc" />
      <path
         sodipodi:open="true"
         sodipodi:end="6.1711503"
         sodipodi:start="0"
         transform="matrix(1.0699811,0,0,1.0699811,163.32619,560.50246)"
         d="m -65.035606,325.24615 c 0,0.27895 -0.365887,0.50508 -0.817231,0.50508 -0.451344,0 -0.81723,-0.22613 -0.81723,-0.50508 0,-0.27894 0.365886,-0.50507 0.81723,-0.50507 0.41599,0 0.7656,0.19312 0.812107,0.44861"
         sodipodi:ry="0.50507629"
         sodipodi:rx="0.81723058"
         sodipodi:cy="325.24615"
         sodipodi:cx="-65.852837"
         id="path5068-4-8"
         style="opacity:0.98999999;fill:#000000;fill-opacity:1;stroke:#000000;stroke-width:2;stroke-linecap:round;stroke-linejoin:miter;stroke-miterlimit:4;stroke-opacity:1;stroke-dasharray:none;stroke-dashoffset:0"
         sodipodi:type="arc" />
    </g>
  </g>
</svg>
