<?xml version="1.0" encoding="UTF-8" standalone="no"?>
<!-- Created with Inkscape (http://www.inkscape.org/) -->

<svg
   xmlns:dc="http://purl.org/dc/elements/1.1/"
   xmlns:cc="http://creativecommons.org/ns#"
   xmlns:rdf="http://www.w3.org/1999/02/22-rdf-syntax-ns#"
   xmlns:svg="http://www.w3.org/2000/svg"
   xmlns="http://www.w3.org/2000/svg"
   xmlns:xlink="http://www.w3.org/1999/xlink"
   xmlns:sodipodi="http://sodipodi.sourceforge.net/DTD/sodipodi-0.dtd"
   xmlns:inkscape="http://www.inkscape.org/namespaces/inkscape"
   width="100"
   height="100"
   id="svg4050"
   version="1.1"
   inkscape:version="0.48.4 r9939"
   sodipodi:docname="viking-guy.svg">
  <defs
     id="defs4052" />
  <sodipodi:namedview
     id="base"
     pagecolor="#ffffff"
     bordercolor="#666666"
     borderopacity="1.0"
     inkscape:pageopacity="0.0"
     inkscape:pageshadow="2"
     inkscape:zoom="3.7408297"
     inkscape:cx="14.859782"
     inkscape:cy="53.321338"
     inkscape:document-units="px"
     inkscape:current-layer="layer1"
     showgrid="false"
     inkscape:window-width="1366"
     inkscape:window-height="727"
     inkscape:window-x="0"
     inkscape:window-y="17"
     inkscape:window-maximized="1" />
  <metadata
     id="metadata4055">
    <rdf:RDF>
      <cc:Work
         rdf:about="">
        <dc:format>image/svg+xml</dc:format>
        <dc:type
           rdf:resource="http://purl.org/dc/dcmitype/StillImage" />
        <dc:title></dc:title>
      </cc:Work>
    </rdf:RDF>
  </metadata>
  <g
     inkscape:label="Layer 1"
     inkscape:groupmode="layer"
     id="layer1"
     transform="translate(0,-952.36218)">
    <path
       sodipodi:type="arc"
       style="fill:#000000;fill-opacity:1;stroke:#000000;stroke-width:5;stroke-linejoin:bevel;stroke-miterlimit:4;stroke-opacity:1;stroke-dasharray:none;stroke-dashoffset:0"
       id="path3855"
       sodipodi:cx="334.4819"
       sodipodi:cy="476.25555"
       sodipodi:rx="84.029175"
       sodipodi:ry="9.8088531"
       d="m 418.51108,476.25555 c 0,5.41728 -37.62115,9.80886 -84.02918,9.80886 -46.40803,0 -84.02917,-4.39158 -84.02917,-9.80886 0,-5.41728 37.62114,-9.80885 84.02917,-9.80885 46.40803,0 84.02918,4.39157 84.02918,9.80885 z"
       transform="matrix(0.41754854,0,0,0.41754854,-87.690704,838.22788)"
       inkscape:export-filename="/home/mogmi/Dropbox/Public/hmm/trash/viking.png"
       inkscape:export-xdpi="90"
       inkscape:export-ydpi="90" />
    <path
       transform="matrix(0.41754854,0,0,0.41754854,-93.697695,838.77397)"
       sodipodi:type="arc"
       style="fill:#ffffff;fill-opacity:1;stroke:#000000;stroke-width:5;stroke-linejoin:round;stroke-miterlimit:4;stroke-opacity:1;stroke-dasharray:none;stroke-dashoffset:0"
       id="path3793"
       sodipodi:cx="348.6449"
       sodipodi:cy="406.39807"
       sodipodi:rx="66.79821"
       sodipodi:ry="66.122307"
       d="m 415.44311,406.39807 a 66.79821,66.122307 0 1 1 -133.59642,0 66.79821,66.122307 0 1 1 133.59642,0 z"
       inkscape:export-filename="/home/mogmi/Dropbox/Public/hmm/trash/viking.png"
       inkscape:export-xdpi="90"
       inkscape:export-ydpi="90" />
    <path
       style="fill:#ffff00;stroke:#000000;stroke-width:2;stroke-linecap:butt;stroke-linejoin:miter;stroke-opacity:1;stroke-miterlimit:4;stroke-dasharray:none"
       d="m 70.205934,1000.1403 c 0.974624,6.3563 9.510772,11.0676 1.871243,18.7001 l -0.70141,11.0939 c 12.6879,-8.7764 14.079404,-31.62186 3.730223,-32.92828 z"
       id="path5020"
       inkscape:connector-curvature="0"
       sodipodi:nodetypes="ccccc" />
    <g
       id="g4103"
       transform="translate(-0.88967564,0)">
      <use
         inkscape:export-ydpi="90"
         inkscape:export-xdpi="90"
         inkscape:export-filename="/home/mogmi/Dropbox/Public/hmm/trash/viking.png"
         style="stroke-width:5;stroke-miterlimit:4;stroke-dasharray:none"
         height="1052.3622"
         width="744.09448"
         transform="matrix(-1,0,0,1,108.94528,-3.279041e-7)"
         id="use3800"
         xlink:href="#path3798"
         y="0"
         x="0" />
      <path
         inkscape:export-ydpi="90"
         inkscape:export-xdpi="90"
         inkscape:export-filename="/home/mogmi/Dropbox/Public/hmm/trash/viking.png"
         sodipodi:nodetypes="ccsc"
         inkscape:connector-curvature="0"
         id="path3795"
         d="m 81.342782,1000.3558 -57.535414,0 c 0,-14.18183 12.87974,-25.67843 28.767708,-25.67843 15.887965,0 28.767706,11.4966 28.767706,25.67843 z"
         style="fill:#666666;fill-opacity:1;stroke:#000000;stroke-width:2.08774281;stroke-linejoin:round;stroke-miterlimit:4;stroke-opacity:1;stroke-dasharray:none;stroke-dashoffset:0" />
      <path
         inkscape:export-ydpi="90"
         inkscape:export-xdpi="90"
         inkscape:export-filename="/home/mogmi/Dropbox/Public/hmm/trash/viking.png"
         transform="matrix(0.41754854,0,0,0.41754854,-85.972197,840.36539)"
         d="m 342.98289,322.09308 c 0,2.79893 -5.63585,5.06791 -12.58802,5.06791 -6.95218,0 -12.58803,-2.26898 -12.58803,-5.06791 0,-2.79893 5.63585,-5.06791 12.58803,-5.06791 6.95217,0 12.58802,2.26898 12.58802,5.06791 z"
         sodipodi:ry="5.0679073"
         sodipodi:rx="12.588028"
         sodipodi:cy="322.09308"
         sodipodi:cx="330.39487"
         id="path3802"
         style="fill:#808000;fill-opacity:1;stroke:#000000;stroke-width:5;stroke-linejoin:bevel;stroke-miterlimit:4;stroke-opacity:1;stroke-dasharray:none;stroke-dashoffset:0"
         sodipodi:type="arc" />
      <path
         inkscape:export-ydpi="90"
         inkscape:export-xdpi="90"
         inkscape:export-filename="/home/mogmi/Dropbox/Public/hmm/trash/viking.png"
         sodipodi:nodetypes="cccc"
         inkscape:connector-curvature="0"
         id="path3798"
         d="m 88.220698,957.8364 c -3.669465,10.88015 -2.232225,26.44148 -18.020954,26.21229 -3.605694,5.93557 2.580836,11.56868 8.737432,9.01056 15.441801,-8.44841 12.690377,-24.91755 9.283522,-35.22285 z"
         style="fill:#ffffff;stroke:#000000;stroke-width:2.08774281;stroke-linecap:butt;stroke-linejoin:bevel;stroke-miterlimit:4;stroke-opacity:1;stroke-dasharray:none" />
      <path
         inkscape:export-ydpi="90"
         inkscape:export-xdpi="90"
         inkscape:export-filename="/home/mogmi/Dropbox/Public/hmm/trash/viking.png"
         sodipodi:nodetypes="sssssssss"
         inkscape:connector-curvature="0"
         id="rect3806"
         d="m 24.055825,994.90223 c 18.307947,2.41471 43.377662,1.40213 57.33811,0 0.376633,-0.0389 0.683268,0.30477 0.683268,0.68333 l 0,4.50384 c 0,0.3787 -0.308226,0.6321 -0.683268,0.6832 -17.759838,2.4267 -37.601759,2.2503 -57.33811,0 -0.376098,-0.042 -0.683267,-0.3045 -0.683267,-0.6832 l 0,-4.50384 c 0,-0.37856 0.307984,-0.73275 0.683267,-0.68333 z"
         style="fill:#4d4d4d;fill-opacity:1;stroke:#000000;stroke-width:2.08774281;stroke-linejoin:bevel;stroke-miterlimit:4;stroke-opacity:1;stroke-dasharray:none;stroke-dashoffset:0" />
      <path
         inkscape:export-ydpi="90"
         inkscape:export-xdpi="90"
         inkscape:export-filename="/home/mogmi/Dropbox/Public/hmm/trash/viking.png"
         transform="matrix(0.41754854,0,0,0.41754854,-93.627155,834.20047)"
         sodipodi:type="arc"
         style="fill:#808000;fill-opacity:1;stroke:#000000;stroke-width:5;stroke-linejoin:bevel;stroke-miterlimit:4;stroke-opacity:1;stroke-dasharray:none;stroke-dashoffset:0"
         id="path3811"
         sodipodi:cx="288.54376"
         sodipodi:cy="392.38986"
         sodipodi:rx="3.4330986"
         sodipodi:ry="3.4330986"
         d="m 291.97686,392.38986 c 0,1.89605 -1.53705,3.4331 -3.4331,3.4331 -1.89605,0 -3.4331,-1.53705 -3.4331,-3.4331 0,-1.89605 1.53705,-3.4331 3.4331,-3.4331 1.89605,0 3.4331,1.53705 3.4331,3.4331 z" />
      <path
         inkscape:export-ydpi="90"
         inkscape:export-xdpi="90"
         inkscape:export-filename="/home/mogmi/Dropbox/Public/hmm/trash/viking.png"
         transform="matrix(0.41754854,0,0,0.41754854,-85.884378,835.01961)"
         sodipodi:type="arc"
         style="fill:#808000;fill-opacity:1;stroke:#000000;stroke-width:5;stroke-linejoin:bevel;stroke-miterlimit:4;stroke-opacity:1;stroke-dasharray:none;stroke-dashoffset:0"
         id="path3813"
         sodipodi:cx="288.54376"
         sodipodi:cy="392.38986"
         sodipodi:rx="3.4330986"
         sodipodi:ry="3.4330986"
         d="m 291.97686,392.38986 c 0,1.89605 -1.53705,3.4331 -3.4331,3.4331 -1.89605,0 -3.4331,-1.53705 -3.4331,-3.4331 0,-1.89605 1.53705,-3.4331 3.4331,-3.4331 1.89605,0 3.4331,1.53705 3.4331,3.4331 z" />
      <path
         inkscape:export-ydpi="90"
         inkscape:export-xdpi="90"
         inkscape:export-filename="/home/mogmi/Dropbox/Public/hmm/trash/viking.png"
         transform="matrix(0.41754854,0,0,0.41754854,-78.141615,835.42917)"
         sodipodi:type="arc"
         style="fill:#808000;fill-opacity:1;stroke:#000000;stroke-width:5;stroke-linejoin:bevel;stroke-miterlimit:4;stroke-opacity:1;stroke-dasharray:none;stroke-dashoffset:0"
         id="path3815"
         sodipodi:cx="288.54376"
         sodipodi:cy="392.38986"
         sodipodi:rx="3.4330986"
         sodipodi:ry="3.4330986"
         d="m 291.97686,392.38986 c 0,1.89605 -1.53705,3.4331 -3.4331,3.4331 -1.89605,0 -3.4331,-1.53705 -3.4331,-3.4331 0,-1.89605 1.53705,-3.4331 3.4331,-3.4331 1.89605,0 3.4331,1.53705 3.4331,3.4331 z" />
      <path
         inkscape:export-ydpi="90"
         inkscape:export-xdpi="90"
         inkscape:export-filename="/home/mogmi/Dropbox/Public/hmm/trash/viking.png"
         transform="matrix(0.41754854,0,0,0.41754854,-70.398838,835.70221)"
         sodipodi:type="arc"
         style="fill:#808000;fill-opacity:1;stroke:#000000;stroke-width:5;stroke-linejoin:bevel;stroke-miterlimit:4;stroke-opacity:1;stroke-dasharray:none;stroke-dashoffset:0"
         id="path3817"
         sodipodi:cx="288.54376"
         sodipodi:cy="392.38986"
         sodipodi:rx="3.4330986"
         sodipodi:ry="3.4330986"
         d="m 291.97686,392.38986 c 0,1.89605 -1.53705,3.4331 -3.4331,3.4331 -1.89605,0 -3.4331,-1.53705 -3.4331,-3.4331 0,-1.89605 1.53705,-3.4331 3.4331,-3.4331 1.89605,0 3.4331,1.53705 3.4331,3.4331 z" />
      <path
         inkscape:export-ydpi="90"
         inkscape:export-xdpi="90"
         inkscape:export-filename="/home/mogmi/Dropbox/Public/hmm/trash/viking.png"
         transform="matrix(0.41754854,0,0,0.41754854,-62.656077,835.56569)"
         sodipodi:type="arc"
         style="fill:#808000;fill-opacity:1;stroke:#000000;stroke-width:5;stroke-linejoin:bevel;stroke-miterlimit:4;stroke-opacity:1;stroke-dasharray:none;stroke-dashoffset:0"
         id="path3819"
         sodipodi:cx="288.54376"
         sodipodi:cy="392.38986"
         sodipodi:rx="3.4330986"
         sodipodi:ry="3.4330986"
         d="m 291.97686,392.38986 c 0,1.89605 -1.53705,3.4331 -3.4331,3.4331 -1.89605,0 -3.4331,-1.53705 -3.4331,-3.4331 0,-1.89605 1.53705,-3.4331 3.4331,-3.4331 1.89605,0 3.4331,1.53705 3.4331,3.4331 z" />
      <path
         inkscape:export-ydpi="90"
         inkscape:export-xdpi="90"
         inkscape:export-filename="/home/mogmi/Dropbox/Public/hmm/trash/viking.png"
         transform="matrix(0.41754854,0,0,0.41754854,-54.913299,835.15613)"
         sodipodi:type="arc"
         style="fill:#808000;fill-opacity:1;stroke:#000000;stroke-width:5;stroke-linejoin:bevel;stroke-miterlimit:4;stroke-opacity:1;stroke-dasharray:none;stroke-dashoffset:0"
         id="path3821"
         sodipodi:cx="288.54376"
         sodipodi:cy="392.38986"
         sodipodi:rx="3.4330986"
         sodipodi:ry="3.4330986"
         d="m 291.97686,392.38986 c 0,1.89605 -1.53705,3.4331 -3.4331,3.4331 -1.89605,0 -3.4331,-1.53705 -3.4331,-3.4331 0,-1.89605 1.53705,-3.4331 3.4331,-3.4331 1.89605,0 3.4331,1.53705 3.4331,3.4331 z" />
      <path
         inkscape:export-ydpi="90"
         inkscape:export-xdpi="90"
         inkscape:export-filename="/home/mogmi/Dropbox/Public/hmm/trash/viking.png"
         transform="matrix(0.41754854,0,0,0.41754854,-47.170525,834.74655)"
         sodipodi:type="arc"
         style="fill:#808000;fill-opacity:1;stroke:#000000;stroke-width:5;stroke-linejoin:bevel;stroke-miterlimit:4;stroke-opacity:1;stroke-dasharray:none;stroke-dashoffset:0"
         id="path3823"
         sodipodi:cx="288.54376"
         sodipodi:cy="392.38986"
         sodipodi:rx="3.4330986"
         sodipodi:ry="3.4330986"
         d="m 291.97686,392.38986 c 0,1.89605 -1.53705,3.4331 -3.4331,3.4331 -1.89605,0 -3.4331,-1.53705 -3.4331,-3.4331 0,-1.89605 1.53705,-3.4331 3.4331,-3.4331 1.89605,0 3.4331,1.53705 3.4331,3.4331 z" />
      <path
         inkscape:export-ydpi="90"
         inkscape:export-xdpi="90"
         inkscape:export-filename="/home/mogmi/Dropbox/Public/hmm/trash/viking.png"
         transform="matrix(0.41754854,0,0,0.41754854,-39.427755,834.06394)"
         d="m 291.97686,392.38986 c 0,1.89605 -1.53705,3.4331 -3.4331,3.4331 -1.89605,0 -3.4331,-1.53705 -3.4331,-3.4331 0,-1.89605 1.53705,-3.4331 3.4331,-3.4331 1.89605,0 3.4331,1.53705 3.4331,3.4331 z"
         sodipodi:ry="3.4330986"
         sodipodi:rx="3.4330986"
         sodipodi:cy="392.38986"
         sodipodi:cx="288.54376"
         id="path3809"
         style="fill:#808000;fill-opacity:1;stroke:#000000;stroke-width:5;stroke-linejoin:bevel;stroke-miterlimit:4;stroke-opacity:1;stroke-dasharray:none;stroke-dashoffset:0"
         sodipodi:type="arc" />
    </g>
    <path
       style="fill:#ffff00;stroke:#000000;stroke-width:2.08774281;stroke-linecap:butt;stroke-linejoin:bevel;stroke-miterlimit:4;stroke-opacity:1;stroke-dasharray:none"
       d="m 35.208046,1011.3553 -20.465617,34.1737 10.812022,-13.515 -4.054507,13.3219 6.950583,-13.9011 -1.544575,16.0249 9.653593,-28.5746 7.143659,31.0845 -1.544575,-18.1486 5.599084,14.8663 -2.509935,-15.4455 11.391239,15.2525 -17.667969,-34.7681 z"
       id="path3829"
       inkscape:connector-curvature="0"
       sodipodi:nodetypes="cccccccccccccc"
       inkscape:export-filename="/home/mogmi/Dropbox/Public/hmm/trash/viking.png"
       inkscape:export-xdpi="90"
       inkscape:export-ydpi="90" />
    <path
       sodipodi:type="arc"
       style="fill:#ffffff;fill-opacity:1;stroke:#000000;stroke-width:5;stroke-linejoin:bevel;stroke-miterlimit:4;stroke-opacity:1;stroke-dasharray:none;stroke-dashoffset:0"
       id="path3831"
       sodipodi:cx="295.70081"
       sodipodi:cy="398.99979"
       sodipodi:rx="1.1559844"
       sodipodi:ry="5.0863314"
       d="m 296.85679,398.99979 c 0,2.8091 -0.51755,5.08633 -1.15598,5.08633 -0.63844,0 -1.15599,-2.27723 -1.15599,-5.08633 0,-2.80911 0.51755,-5.08633 1.15599,-5.08633 0.63843,0 1.15598,2.27722 1.15598,5.08633 z"
       transform="matrix(0.41754854,0,0,0.41754854,-91.960051,840.29914)"
       inkscape:export-filename="/home/mogmi/Dropbox/Public/hmm/trash/viking.png"
       inkscape:export-xdpi="90"
       inkscape:export-ydpi="90" />
    <path
       sodipodi:type="arc"
       style="fill:#ffffff;fill-opacity:1;stroke:#000000;stroke-width:5;stroke-linejoin:bevel;stroke-miterlimit:4;stroke-opacity:1;stroke-dasharray:none;stroke-dashoffset:0"
       id="path3831-5"
       sodipodi:cx="295.70081"
       sodipodi:cy="398.99979"
       sodipodi:rx="1.1559844"
       sodipodi:ry="5.0863314"
       d="m 296.85679,398.99979 c 0,2.8091 -0.51755,5.08633 -1.15598,5.08633 -0.63844,0 -1.15599,-2.27723 -1.15599,-5.08633 0,-2.80911 0.51755,-5.08633 1.15599,-5.08633 0.63843,0 1.15598,2.27722 1.15598,5.08633 z"
       transform="matrix(0.41754854,0,0,0.41754854,-80.858408,840.85492)"
       inkscape:export-filename="/home/mogmi/Dropbox/Public/hmm/trash/viking.png"
       inkscape:export-xdpi="90"
       inkscape:export-ydpi="90" />
    <path
       style="fill:#ffff00;stroke:#000000;stroke-width:1.25264561;stroke-linecap:butt;stroke-linejoin:miter;stroke-miterlimit:4;stroke-opacity:1;stroke-dasharray:none"
       d="m 57.264747,1001.5582 -18.417728,4.4301 17.873361,-12.37545 -6.790906,7.65625 15.58931,-9.89849 z"
       id="path3857"
       inkscape:connector-curvature="0"
       sodipodi:nodetypes="cccccc"
       inkscape:export-filename="/home/mogmi/Dropbox/Public/hmm/trash/viking.png"
       inkscape:export-xdpi="90"
       inkscape:export-ydpi="90" />
    <use
       x="0"
       y="0"
       xlink:href="#path3857"
       id="use3859"
       transform="matrix(-0.98637144,-0.16453386,-0.16453386,0.98637144,239.71108,20.012058)"
       width="744.09448"
       height="1052.3622"
       inkscape:export-filename="/home/mogmi/Dropbox/Public/hmm/trash/viking.png"
       inkscape:export-xdpi="90"
       inkscape:export-ydpi="90" />
  </g>
</svg>
