<?xml version="1.0" encoding="UTF-8" standalone="no"?>
<!-- Created with Inkscape (http://www.inkscape.org/) -->

<svg
   xmlns:dc="http://purl.org/dc/elements/1.1/"
   xmlns:cc="http://creativecommons.org/ns#"
   xmlns:rdf="http://www.w3.org/1999/02/22-rdf-syntax-ns#"
   xmlns:svg="http://www.w3.org/2000/svg"
   xmlns="http://www.w3.org/2000/svg"
   xmlns:sodipodi="http://sodipodi.sourceforge.net/DTD/sodipodi-0.dtd"
   xmlns:inkscape="http://www.inkscape.org/namespaces/inkscape"
   width="100"
   height="100"
   id="svg4865"
   version="1.1"
   inkscape:version="0.48.4 r9939"
   sodipodi:docname="viking-guy-brown.svg">
  <defs
     id="defs4867" />
  <sodipodi:namedview
     id="base"
     pagecolor="#ffffff"
     bordercolor="#666666"
     borderopacity="1.0"
     inkscape:pageopacity="0.0"
     inkscape:pageshadow="2"
     inkscape:zoom="6.2125"
     inkscape:cx="38.793742"
     inkscape:cy="42.645462"
     inkscape:document-units="px"
     inkscape:current-layer="layer1"
     showgrid="false"
     inkscape:window-width="1366"
     inkscape:window-height="727"
     inkscape:window-x="0"
     inkscape:window-y="17"
     inkscape:window-maximized="1" />
  <metadata
     id="metadata4870">
    <rdf:RDF>
      <cc:Work
         rdf:about="">
        <dc:format>image/svg+xml</dc:format>
        <dc:type
           rdf:resource="http://purl.org/dc/dcmitype/StillImage" />
        <dc:title></dc:title>
      </cc:Work>
    </rdf:RDF>
  </metadata>
  <g
     inkscape:label="Layer 1"
     inkscape:groupmode="layer"
     id="layer1"
     transform="translate(0,-952.36218)">
    <g
       id="g6262">
      <path
         sodipodi:nodetypes="ccccc"
         inkscape:connector-curvature="0"
         id="rect6062"
         d="m 19.677497,1019.7996 15.681006,0 0,21.9735 c -4.165133,0.6067 -9.65968,0.4539 -15.681006,0 1.168246,-8.3259 0.666046,-15.2199 0,-21.9735 z"
         style="fill:#803300;fill-opacity:1;stroke:#000000;stroke-width:1.75503445;stroke-linejoin:miter;stroke-miterlimit:4;stroke-opacity:1;stroke-dashoffset:0" />
      <path
         sodipodi:nodetypes="cccc"
         inkscape:connector-curvature="0"
         id="path6193-8"
         d="m 36.388631,974.24469 c -0.317297,2.68262 0.436148,7.58769 5.393467,7.49092 3.725495,-18.32827 14.644102,-20.93827 25.369271,-23.97096 -10.979862,-2.7994 -21.628991,-1.81902 -30.762738,16.48004 z"
         style="fill:#ffffff;stroke:#000000;stroke-width:1.75503445;stroke-linecap:butt;stroke-linejoin:miter;stroke-miterlimit:4;stroke-opacity:1;stroke-dasharray:none" />
      <path
         transform="matrix(0.79874049,0,0,0.79874049,-0.41852142,955.95289)"
         d="m 92.457081,71.431175 a 35.6609,36.536221 0 1 1 -71.3218,0 35.6609,36.536221 0 1 1 71.3218,0 z"
         sodipodi:ry="36.536221"
         sodipodi:rx="35.6609"
         sodipodi:cy="71.431175"
         sodipodi:cx="56.796181"
         id="path5530"
         style="fill:#ffffff;fill-opacity:1;stroke:#000000;stroke-width:2.19725251;stroke-linejoin:bevel;stroke-miterlimit:4;stroke-opacity:1;stroke-dasharray:none;stroke-dashoffset:0"
         sodipodi:type="arc" />
      <path
         transform="matrix(0.87751725,0,0,0.87751725,8.6648484,964.26625)"
         d="m 80.482895,90.503021 a 35.734406,3.0583501 0 1 1 -71.4688111,0 35.734406,3.0583501 0 1 1 71.4688111,0 z"
         sodipodi:ry="3.0583501"
         sodipodi:rx="35.734406"
         sodipodi:cy="90.503021"
         sodipodi:cx="44.748489"
         id="path6213"
         style="fill:#000000;fill-opacity:1;stroke:#000000;stroke-width:2;stroke-linejoin:bevel;stroke-miterlimit:4;stroke-opacity:1;stroke-dasharray:none;stroke-dashoffset:0"
         sodipodi:type="arc" />
      <path
         sodipodi:nodetypes="ccc"
         inkscape:connector-curvature="0"
         id="path6058"
         d="m 17.38028,1020.9981 c 5.688803,8.2672 32.833963,11.189 44.146526,2.2973 10.054568,28.2636 -43.30665,24.2233 -44.146526,-2.2973 z"
         style="fill:#803300;stroke:#000000;stroke-width:1.75503445;stroke-linecap:butt;stroke-linejoin:miter;stroke-miterlimit:4;stroke-opacity:1;stroke-dasharray:none" />
      <path
         sodipodi:nodetypes="cccccccsc"
         inkscape:connector-curvature="0"
         id="path6044"
         d="m 19.277981,997.52663 c 4.623857,-10.68365 18.845595,-15.55818 27.167093,-15.38137 16.340297,1.8681 22.42038,10.23448 25.768787,16.77966 7.02008,14.31608 2.064167,29.03148 3.795403,43.34758 -2.295214,2.7757 -10.116857,1.8671 -16.979434,1.598 l -0.399516,-38.5533 -7.985029,-5.87986 c -1.071322,0.0369 -2.14189,0.0697 -3.211322,0.0964 -9.567761,0.24309 -19.044569,0.0308 -28.155982,-2.00735 z"
         style="fill:#803300;stroke:#000000;stroke-width:1.75503445;stroke-linecap:butt;stroke-linejoin:miter;stroke-miterlimit:4;stroke-opacity:1;stroke-dasharray:none" />
      <path
         sodipodi:nodetypes="scccs"
         inkscape:connector-curvature="0"
         id="path6060"
         d="m 31.33201,1014.7572 c -12.498967,0.18 -7.890443,24.5703 -7.890443,24.5703 l 6.891653,-18.178 9.188869,21.1743 c 0,0 3.890085,-27.7406 -8.190079,-27.5666 z"
         style="fill:#803300;stroke:#000000;stroke-width:1.75503445;stroke-linecap:butt;stroke-linejoin:miter;stroke-miterlimit:4;stroke-opacity:1;stroke-dasharray:none" />
      <path
         sodipodi:type="arc"
         style="fill:#ffffff;fill-opacity:1;stroke:#000000;stroke-width:2;stroke-linejoin:miter;stroke-miterlimit:4;stroke-opacity:1;stroke-dasharray:none;stroke-dashoffset:0"
         id="path6069"
         sodipodi:cx="25.674044"
         sodipodi:cy="41.569416"
         sodipodi:rx="0.8853119"
         sodipodi:ry="2.8973844"
         d="m 26.559356,41.569416 a 0.8853119,2.8973844 0 1 1 -1.770624,0 0.8853119,2.8973844 0 1 1 1.770624,0 z"
         transform="matrix(0.87751725,0,0,0.87751725,4.9923416,969.06876)" />
      <path
         transform="matrix(0.87751725,0,0,0.87751725,15.44486,969.21001)"
         d="m 26.559356,41.569416 a 0.8853119,2.8973844 0 1 1 -1.770624,0 0.8853119,2.8973844 0 1 1 1.770624,0 z"
         sodipodi:ry="2.8973844"
         sodipodi:rx="0.8853119"
         sodipodi:cy="41.569416"
         sodipodi:cx="25.674044"
         id="path6067"
         style="fill:#ffffff;fill-opacity:1;stroke:#000000;stroke-width:2;stroke-linejoin:miter;stroke-miterlimit:4;stroke-opacity:1;stroke-dasharray:none;stroke-dashoffset:0"
         sodipodi:type="arc" />
      <path
         style="fill:#803300;stroke:#000000;stroke-width:0.87751722px;stroke-linecap:butt;stroke-linejoin:miter;stroke-opacity:1"
         d="m 28.539363,999.95878 -20.3501519,-7.27456 6.0707079,3.30801 -7.0598934,-1.82516 6.5954154,3.00161 -7.1939066,-1.3019 22.6588286,7.94972 z"
         id="path6073"
         inkscape:connector-curvature="0"
         sodipodi:nodetypes="cccccccc" />
      <path
         sodipodi:nodetypes="cccc"
         inkscape:connector-curvature="0"
         id="path5532"
         d="M 57.232008,968.76147 C 33.779731,973.13412 30.072345,984.3631 25.670239,988.93703 L 73.41241,1000.9225 C 73.668327,989.52158 68.153215,978.98096 57.232008,968.76147 z"
         style="fill:#666666;stroke:#000000;stroke-width:1.75503445;stroke-linecap:butt;stroke-linejoin:miter;stroke-miterlimit:4;stroke-opacity:1;stroke-dasharray:none" />
      <g
         transform="matrix(0.76766417,-0.0266419,0.0266419,0.76766417,-28.989795,233.50563)"
         id="g6243">
        <rect
           style="fill:#803300;fill-opacity:1;stroke:#000000;stroke-width:2;stroke-linejoin:bevel;stroke-miterlimit:4;stroke-opacity:1;stroke-dasharray:none;stroke-dashoffset:0"
           id="rect6215"
           width="9.7384272"
           height="42.012074"
           x="85.472839"
           y="1000.0483" />
        <path
           style="fill:none;stroke:#000000;stroke-width:1px;stroke-linecap:butt;stroke-linejoin:miter;stroke-opacity:1"
           d="m 92.474849,1008.338 -6.760563,6.2777"
           id="path6217"
           inkscape:connector-curvature="0"
           sodipodi:nodetypes="cc" />
        <path
           style="fill:none;stroke:#000000;stroke-width:1px;stroke-linecap:butt;stroke-linejoin:miter;stroke-opacity:1"
           d="m 90.301811,1010.4306 5.150906,7.163"
           id="path6219"
           inkscape:connector-curvature="0" />
        <path
           style="fill:none;stroke:#000000;stroke-width:1px;stroke-linecap:butt;stroke-linejoin:miter;stroke-opacity:1"
           d="m 92.796781,1013.8109 -6.760563,6.2776"
           id="path6221"
           inkscape:connector-curvature="0" />
        <path
           style="fill:none;stroke:#000000;stroke-width:1px;stroke-linecap:butt;stroke-linejoin:miter;stroke-opacity:1"
           d="m 88.933602,1017.5131 6.1167,7.3239"
           id="path6223"
           inkscape:connector-curvature="0" />
        <path
           style="fill:none;stroke:#000000;stroke-width:1px;stroke-linecap:butt;stroke-linejoin:miter;stroke-opacity:1"
           d="m 92.233401,1021.3763 -6.277666,5.6338"
           id="path6225"
           inkscape:connector-curvature="0" />
        <path
           style="fill:none;stroke:#000000;stroke-width:1px;stroke-linecap:butt;stroke-linejoin:miter;stroke-opacity:1"
           d="m 88.692153,1024.2736 6.277666,7.2435"
           id="path6227"
           inkscape:connector-curvature="0" />
        <path
           style="fill:none;stroke:#000000;stroke-width:1px;stroke-linecap:butt;stroke-linejoin:miter;stroke-opacity:1"
           d="m 91.830986,1028.1368 -5.794768,5.5533"
           id="path6229"
           inkscape:connector-curvature="0" />
        <path
           style="fill:none;stroke:#000000;stroke-width:1px;stroke-linecap:butt;stroke-linejoin:miter;stroke-opacity:1"
           d="m 89.014085,1031.0342 5.955734,6.9215"
           id="path6231"
           inkscape:connector-curvature="0" />
        <path
           style="fill:none;stroke:#000000;stroke-width:1px;stroke-linecap:butt;stroke-linejoin:miter;stroke-opacity:1"
           d="m 91.830986,1034.6559 -5.875251,5.8753"
           id="path6233"
           inkscape:connector-curvature="0" />
        <path
           style="fill:none;stroke:#000000;stroke-width:1px;stroke-linecap:butt;stroke-linejoin:miter;stroke-opacity:1"
           d="m 89.496982,1037.4728 4.104628,4.2656"
           id="path6235"
           inkscape:connector-curvature="0" />
        <path
           style="fill:none;stroke:#000000;stroke-width:1px;stroke-linecap:butt;stroke-linejoin:miter;stroke-opacity:1"
           d="m 93.682093,1000.3702 -7.967807,6.5191"
           id="path6239"
           inkscape:connector-curvature="0"
           sodipodi:nodetypes="cc" />
        <path
           style="fill:none;stroke:#000000;stroke-width:1px;stroke-linecap:butt;stroke-linejoin:miter;stroke-opacity:1"
           d="m 89.657948,1004.0724 5.472837,6.6801"
           id="path6241"
           inkscape:connector-curvature="0" />
      </g>
      <path
         sodipodi:nodetypes="ccccc"
         inkscape:connector-curvature="0"
         id="rect6186"
         d="m 26.73966,984.08721 c 18.259542,7.0921 32.496124,9.01181 47.162998,11.48477 l -1.559659,6.40492 c -16.324098,-2.92372 -32.89209,-5.48144 -47.162998,-11.48484 z"
         style="fill:#333333;fill-opacity:1;stroke:#000000;stroke-width:1.75503445;stroke-linejoin:bevel;stroke-miterlimit:4;stroke-opacity:1;stroke-dashoffset:0" />
      <path
         sodipodi:nodetypes="cccccccc"
         inkscape:connector-curvature="0"
         id="path6071"
         d="m 37.128721,1000.6206 21.172118,-4.33473 -6.476241,2.41964 7.246626,-0.81221 -6.952544,2.04241 7.305578,-0.27538 -23.552908,4.67797 z"
         style="fill:#803300;stroke:#000000;stroke-width:0.87751722px;stroke-linecap:butt;stroke-linejoin:miter;stroke-opacity:1" />
      <path
         sodipodi:nodetypes="ccccc"
         inkscape:connector-curvature="0"
         id="path6188"
         d="m 37.056447,986.93945 5.193709,1.79782 c 2.215519,-5.89863 7.109699,-12.74487 14.582337,-18.5775 l -3.196129,-0.59927 c -6.21083,4.02508 -12.476802,9.13843 -16.579917,17.37895 z"
         style="fill:#333333;stroke:#000000;stroke-width:1.75503445;stroke-linecap:butt;stroke-linejoin:miter;stroke-miterlimit:4;stroke-opacity:1;stroke-dasharray:none" />
      <path
         sodipodi:nodetypes="cccc"
         inkscape:connector-curvature="0"
         id="path6193"
         d="m 58.830073,980.14768 c -0.317298,2.68262 0.436147,7.5877 5.393466,7.49092 3.725494,-18.32828 14.644102,-20.93827 25.36927,-23.97096 -10.97986,-2.7994 -21.62899,-1.81902 -30.762736,16.48004 z"
         style="fill:#ffffff;stroke:#000000;stroke-width:1.75503445;stroke-linecap:butt;stroke-linejoin:miter;stroke-miterlimit:4;stroke-opacity:1;stroke-dasharray:none" />
      <path
         transform="translate(0,952.36218)"
         inkscape:connector-curvature="0"
         id="path6260"
         d="m 64.535943,79.967679 -2.04876,7.28448 3.4146,-2.39022 0.5691,4.438981 3.18696,-4.097521 3.4146,3.86988 -0.22764,-4.66662 4.325161,2.2764 -5.691001,-7.62594 z"
         style="fill:#803300;stroke:#000000;stroke-width:1px;stroke-linecap:butt;stroke-linejoin:miter;stroke-opacity:1" />
      <rect
         transform="matrix(0.99900761,-0.04453979,0.05649154,0.99840308,0,0)"
         y="1031.9"
         x="5.5437336"
         height="2.189249"
         width="8.5774965"
         id="rect6258"
         style="fill:#000000;fill-opacity:1;stroke:#000000;stroke-width:1.63271213;stroke-linejoin:bevel;stroke-miterlimit:4;stroke-opacity:1;stroke-dasharray:none;stroke-dashoffset:0" />
    </g>
  </g>
</svg>
