<?xml version="1.0" encoding="UTF-8" standalone="no"?>
<!-- Created with Inkscape (http://www.inkscape.org/) -->

<svg
   xmlns:dc="http://purl.org/dc/elements/1.1/"
   xmlns:cc="http://creativecommons.org/ns#"
   xmlns:rdf="http://www.w3.org/1999/02/22-rdf-syntax-ns#"
   xmlns:svg="http://www.w3.org/2000/svg"
   xmlns="http://www.w3.org/2000/svg"
   xmlns:sodipodi="http://sodipodi.sourceforge.net/DTD/sodipodi-0.dtd"
   xmlns:inkscape="http://www.inkscape.org/namespaces/inkscape"
   width="100"
   height="100"
   id="svg5214"
   version="1.1"
   inkscape:version="0.48.4 r9939"
   sodipodi:docname="New document 1">
  <defs
     id="defs5216" />
  <sodipodi:namedview
     id="base"
     pagecolor="#ffffff"
     bordercolor="#666666"
     borderopacity="1.0"
     inkscape:pageopacity="0.0"
     inkscape:pageshadow="2"
     inkscape:zoom="3.1171875"
     inkscape:cx="58.210665"
     inkscape:cy="51.311308"
     inkscape:document-units="px"
     inkscape:current-layer="layer1"
     showgrid="false"
     inkscape:window-width="1366"
     inkscape:window-height="727"
     inkscape:window-x="0"
     inkscape:window-y="17"
     inkscape:window-maximized="1" />
  <metadata
     id="metadata5219">
    <rdf:RDF>
      <cc:Work
         rdf:about="">
        <dc:format>image/svg+xml</dc:format>
        <dc:type
           rdf:resource="http://purl.org/dc/dcmitype/StillImage" />
        <dc:title></dc:title>
      </cc:Work>
    </rdf:RDF>
  </metadata>
  <g
     inkscape:label="Layer 1"
     inkscape:groupmode="layer"
     id="layer1"
     transform="translate(0,-952.36218)">
    <path
       sodipodi:type="arc"
       style="fill:#000000;fill-opacity:1;stroke:#000000;stroke-width:1;stroke-linejoin:miter;stroke-miterlimit:4;stroke-opacity:1;stroke-dasharray:none;stroke-dashoffset:0"
       id="path5291"
       sodipodi:cx="42.987469"
       sodipodi:cy="90.055138"
       sodipodi:rx="41.383457"
       sodipodi:ry="3.5288219"
       d="m 84.370926,90.055138 a 41.383457,3.5288219 0 1 1 -82.7669145,0 41.383457,3.5288219 0 1 1 82.7669145,0 z"
       transform="translate(7.3784461,948.83336)" />
    <g
       id="g5276"
       transform="matrix(1.0616372,0,0,1.0616372,-1.9455415,-65.866894)">
      <path
         sodipodi:nodetypes="cccccccccs"
         id="rect3629"
         d="m 41.322191,982.80914 c 5.034609,-1.849 -6.276504,-4.28645 -8.34719,-2.82626 -1.181989,-1.3566 9.460849,-5.13693 12.330823,-1.84297 1.902327,-4.02042 -12.186238,-7.24642 -12.461258,-6.66517 -0.716049,-1.25922 15.063104,-2.21007 18.731555,4.24127 1.076058,0.2415 2.645236,-5.61513 1.033861,-5.97678 4.971954,-0.34461 4.29114,16.12507 0.888695,16.3609 l -5.259812,-0.0548 c 3.307264,-1.67299 -9.182011,-1.39947 -13.917395,-0.29717 -0.247461,-0.12439 5.21189,-2.28206 7.000722,-2.93902 z"
         style="fill:#000000;fill-opacity:1;stroke:#000000;stroke-width:0;stroke-miterlimit:4;stroke-dasharray:none"
         inkscape:connector-curvature="0" />
      <path
         sodipodi:nodetypes="ccccccccc"
         id="rect3629-3"
         d="m 5.5451379,1022.4835 c -0.2255693,-0.4021 8.8392511,2.1594 9.7242301,1.8801 -3.091386,1.4762 -10.4727386,-8.865 -8.5009511,-9.3685 0.6610157,1.2842 10.0269371,6.3697 10.0269371,6.3697 -2.02879,0 -3.504471,-8.651 -0.994717,-8.4668 -1.633616,0.4665 5.592583,10.1175 5.873523,10.044 l -0.97577,4.4738 c -0.407352,3.3871 -15.3474027,-2.6461 -15.1532679,-4.9323 l 1.58e-5,0 z"
         style="fill:#000000;fill-opacity:1;stroke:#000000;stroke-width:0;stroke-miterlimit:4;stroke-dasharray:none"
         inkscape:connector-curvature="0" />
      <path
         sodipodi:nodetypes="csssscs"
         id="rect3588"
         d="m 47.090221,983.96724 c 1.354258,-1.13975 4.830265,-1.76539 6.527458,-0.1761 7.694298,7.20513 23.516444,29.25216 28.897289,48.54136 0.684037,2.4521 -1.872376,5.7104 -4.354989,6.2739 -16.466448,3.7374 -40.241402,3.7254 -57.621245,-1.4773 -2.15493,-0.6451 -3.999401,-3.3741 -3.750902,-5.6098 3.977581,-21.7445 28.49211,-46.02851 30.302389,-47.55206 z"
         style="fill:#ffff00;fill-opacity:1;stroke:#000000;stroke-width:2.71164203;stroke-miterlimit:4;stroke-dasharray:none"
         inkscape:connector-curvature="0" />
      <path
         transform="matrix(0.25055596,5.2816778e-4,-5.2816778e-4,0.25055596,-33.605922,963.87578)"
         d="m 416.07142,196.07143 c 0,12.22916 -10.31344,22.14285 -23.03571,22.14285 -12.72228,0 -23.03572,-9.91369 -23.03572,-22.14285 0,-12.22917 10.31344,-22.14286 23.03572,-22.14286 12.72227,0 23.03571,9.91369 23.03571,22.14286 z"
         sodipodi:ry="22.142857"
         sodipodi:rx="23.035715"
         sodipodi:cy="196.07143"
         sodipodi:cx="393.03571"
         id="path3654-9"
         style="fill:#ffffff;fill-opacity:1;stroke:#000000;stroke-width:6.31332064;stroke-miterlimit:4;stroke-dasharray:none"
         sodipodi:type="arc" />
      <path
         transform="matrix(0.25055596,5.2816778e-4,-5.2816778e-4,0.25055596,-52.475096,963.78116)"
         d="m 416.07142,196.07143 c 0,12.22916 -10.31344,22.14285 -23.03571,22.14285 -12.72228,0 -23.03572,-9.91369 -23.03572,-22.14285 0,-12.22917 10.31344,-22.14286 23.03572,-22.14286 12.72227,0 23.03571,9.91369 23.03571,22.14286 z"
         sodipodi:ry="22.142857"
         sodipodi:rx="23.035715"
         sodipodi:cy="196.07143"
         sodipodi:cx="393.03571"
         id="path3654-9-1"
         style="fill:#ffffff;fill-opacity:1;stroke:#000000;stroke-width:6.31332064;stroke-miterlimit:4;stroke-dasharray:none"
         sodipodi:type="arc" />
      <path
         transform="matrix(0.31636788,6.6694067e-4,-6.6694067e-4,0.31636788,-75.897308,956.70366)"
         d="m 392.85715,180.17857 c 0,2.07107 -1.67893,3.75 -3.75,3.75 -2.07107,0 -3.75,-1.67893 -3.75,-3.75 0,-2.07106 1.67893,-3.75 3.75,-3.75 2.07107,0 3.75,1.67894 3.75,3.75 z"
         sodipodi:ry="3.75"
         sodipodi:rx="3.75"
         sodipodi:cy="180.17857"
         sodipodi:cx="389.10715"
         id="path3700"
         style="fill:#000000;fill-opacity:1;stroke:#000000;stroke-width:2.5;stroke-miterlimit:4;stroke-dasharray:none"
         sodipodi:type="arc" />
      <path
         transform="matrix(0.31636788,6.6694067e-4,-6.6694067e-4,0.31636788,-57.19683,956.34783)"
         d="m 392.85715,180.17857 c 0,2.07107 -1.67893,3.75 -3.75,3.75 -2.07107,0 -3.75,-1.67893 -3.75,-3.75 0,-2.07106 1.67893,-3.75 3.75,-3.75 2.07107,0 3.75,1.67894 3.75,3.75 z"
         sodipodi:ry="3.75"
         sodipodi:rx="3.75"
         sodipodi:cy="180.17857"
         sodipodi:cx="389.10715"
         id="path3700-8"
         style="fill:#000000;fill-opacity:1;stroke:#000000;stroke-width:2.5;stroke-miterlimit:4;stroke-dasharray:none"
         sodipodi:type="arc" />
      <path
         sodipodi:nodetypes="cc"
         id="path3724"
         d="m 33.095498,1038.7814 c 16.59335,-8.0198 29.427848,-9.4191 41.167843,-0.2879"
         style="fill:#ffffff;stroke:#000000;stroke-width:1.48909497;stroke-linecap:butt;stroke-linejoin:miter;stroke-miterlimit:4;stroke-opacity:1;stroke-dasharray:none"
         inkscape:connector-curvature="0" />
      <path
         sodipodi:nodetypes="cccsc"
         id="rect3593-0"
         d="m 43.915838,1027.0227 8.525672,-4.1691 25.719158,3.9136 c 0,0 -12.835542,7.3499 -19.84041,7.0037 -5.295792,-0.2618 -14.40442,-6.7482 -14.40442,-6.7482 z"
         style="fill:#ff8c00;fill-opacity:1;stroke:#000000;stroke-width:1.71245921;stroke-miterlimit:4;stroke-dasharray:none"
         inkscape:connector-curvature="0" />
      <path
         sodipodi:nodetypes="ccccc"
         id="rect3593"
         d="m 52.300823,1017.7018 c 13.367451,0.855 26.557524,2.5871 38.184155,12.0518 l -39.510597,-5.167 -7.876297,2.2793 c 1.319741,-3.7144 4.38734,-6.769 9.202739,-9.1641 z"
         style="fill:#ff8c00;fill-opacity:1;stroke:#000000;stroke-width:1.71245921;stroke-miterlimit:4;stroke-dasharray:none"
         inkscape:connector-curvature="0" />
      <path
         sodipodi:nodetypes="ccccc"
         id="rect3728"
         d="m 36.125881,1000.797 17.750385,6.5201 -1.020906,3.4686 -18.643266,-5.4874 1.913787,-4.5013 z"
         style="fill:#000000;fill-opacity:1;stroke:#000000;stroke-width:0.63273668;stroke-miterlimit:4"
         inkscape:connector-curvature="0" />
      <path
         sodipodi:nodetypes="ccccc"
         id="rect3728-2"
         d="m 75.2105,1000.4048 -17.777718,6.4452 1.006267,3.4728 18.666251,-5.4087 -1.8948,-4.5093 z"
         style="fill:#000000;fill-opacity:1;stroke:#000000;stroke-width:0.63273668;stroke-miterlimit:4"
         inkscape:connector-curvature="0" />
      <path
         sodipodi:nodetypes="ccccc"
         id="rect22396"
         d="m 39.372086,1037.8576 31.18846,-0.2525 0.69448,0.947 c -10.672403,1.2131 -21.519616,2.2417 -35.165936,0.3157 l 3.282996,-1.0102 z"
         style="fill:#ffffff;fill-opacity:1;stroke:#ffffff;stroke-width:0;stroke-linecap:round;stroke-linejoin:miter;stroke-miterlimit:4;stroke-opacity:1;stroke-dashoffset:0"
         inkscape:connector-curvature="0" />
    </g>
  </g>
</svg>
