<?xml version="1.0" encoding="UTF-8" standalone="no"?>
<!-- Created with Inkscape (http://www.inkscape.org/) -->

<svg
   xmlns:dc="http://purl.org/dc/elements/1.1/"
   xmlns:cc="http://creativecommons.org/ns#"
   xmlns:rdf="http://www.w3.org/1999/02/22-rdf-syntax-ns#"
   xmlns:svg="http://www.w3.org/2000/svg"
   xmlns="http://www.w3.org/2000/svg"
   xmlns:sodipodi="http://sodipodi.sourceforge.net/DTD/sodipodi-0.dtd"
   xmlns:inkscape="http://www.inkscape.org/namespaces/inkscape"
   width="100"
   height="100"
   id="svg2"
   version="1.1"
   inkscape:version="0.48.4 r9939"
   sodipodi:docname="caporal-nyu.svg">
  <defs
     id="defs4" />
  <sodipodi:namedview
     id="base"
     pagecolor="#ffffff"
     bordercolor="#666666"
     borderopacity="1.0"
     inkscape:pageopacity="0.0"
     inkscape:pageshadow="2"
     inkscape:zoom="1.6707031"
     inkscape:cx="66.248188"
     inkscape:cy="116.15551"
     inkscape:document-units="px"
     inkscape:current-layer="layer1"
     showgrid="false"
     inkscape:window-width="1278"
     inkscape:window-height="768"
     inkscape:window-x="0"
     inkscape:window-y="17"
     inkscape:window-maximized="0" />
  <metadata
     id="metadata7">
    <rdf:RDF>
      <cc:Work
         rdf:about="">
        <dc:format>image/svg+xml</dc:format>
        <dc:type
           rdf:resource="http://purl.org/dc/dcmitype/StillImage" />
        <dc:title></dc:title>
      </cc:Work>
    </rdf:RDF>
  </metadata>
  <g
     inkscape:label="Layer 1"
     inkscape:groupmode="layer"
     id="layer1"
     transform="translate(0,-952.36218)">
    <g
       transform="matrix(1.0019481,0,0,1.0019481,-0.62858565,-1.1074213)"
       id="g11129"
       inkscape:export-filename="/home/mogmi/Dropbox/Public/hmm/bonus/caporal-nyu.png"
       inkscape:export-xdpi="90"
       inkscape:export-ydpi="90">
      <path
         transform="matrix(0.86116739,0,0,0.67499686,-261.19752,801.71138)"
         d="m 397.14285,352.14285 c 0,2.36694 -15.98984,4.28572 -35.71429,4.28572 -19.72446,0 -35.71429,-1.91878 -35.71429,-4.28572 0,-2.36693 15.98983,-4.28571 35.71429,-4.28571 19.72445,0 35.71429,1.91878 35.71429,4.28571 z"
         sodipodi:ry="4.2857141"
         sodipodi:rx="35.714287"
         sodipodi:cy="352.14285"
         sodipodi:cx="361.42856"
         id="path3566"
         style="fill:#000000;fill-opacity:1;stroke:#000000;stroke-width:3.64199996;stroke-linecap:round;stroke-linejoin:round;stroke-miterlimit:4;stroke-opacity:1;stroke-dasharray:none"
         sodipodi:type="arc" />
      <path
         transform="matrix(0.80493411,0,0,0.57808601,-232.29429,832.22618)"
         d="m 342.85715,327.14285 c 0,10.65121 -7.67512,19.28572 -17.14286,19.28572 -9.46773,0 -17.14285,-8.63451 -17.14285,-19.28572 0,-10.6512 7.67512,-19.28571 17.14285,-19.28571 9.46774,0 17.14286,8.63451 17.14286,19.28571 z"
         sodipodi:ry="19.285715"
         sodipodi:rx="17.142857"
         sodipodi:cy="327.14285"
         sodipodi:cx="325.71429"
         id="path3493"
         style="fill:#ffffff;fill-opacity:1;stroke:#000000;stroke-width:4.07059813;stroke-linecap:round;stroke-linejoin:round;stroke-miterlimit:4;stroke-opacity:1;stroke-dasharray:none"
         sodipodi:type="arc" />
      <path
         inkscape:connector-curvature="0"
         sodipodi:nodetypes="csssssssssc"
         id="path3491"
         d="m 74.137651,1012.1246 c 0,9.2027 -1.723471,19.9314 -7.592921,24.8092 -3.640542,3.0255 -7.52569,-1.4244 -13.552148,-0.3934 -6.036603,1.0328 -13.201033,3.1924 -16.548546,-0.011 -5.30951,-5.0817 -7.192685,-15.1294 -7.192685,-24.4044 0,-9.6848 13.779815,-43.39682 21.989496,-48.16503 4.429845,-2.57287 -4.365051,23.23003 1.232503,23.23003 4.286787,0 10.317276,-24.84177 13.978055,-23.27784 1.319636,0.56377 0.885702,26.61775 1.829869,27.66625 2.303537,2.55807 2.723244,4.04847 3.63317,5.66682 2.290137,4.07317 2.223207,8.17357 2.223207,14.87977 z"
         style="fill:#ffffff;fill-opacity:1;stroke:#000000;stroke-width:2.77673602;stroke-linecap:round;stroke-linejoin:round;stroke-miterlimit:4;stroke-opacity:1;stroke-dasharray:none" />
      <path
         transform="matrix(0.70363671,0,0,0.55152178,-204.48273,842.26706)"
         d="m 371.42857,290.71429 c 0,7.10081 -1.91878,12.85715 -4.28572,12.85715 -2.36693,0 -4.28571,-5.75634 -4.28571,-12.85715 0,-7.1008 1.91878,-12.85714 4.28571,-12.85714 2.36694,0 4.28572,5.75634 4.28572,12.85714 z"
         sodipodi:ry="12.857142"
         sodipodi:rx="4.2857141"
         sodipodi:cy="290.71429"
         sodipodi:cx="367.14285"
         id="path3498"
         style="fill:#ffffff;fill-opacity:1;stroke:#000000;stroke-width:4.45737362;stroke-linecap:round;stroke-linejoin:round;stroke-miterlimit:4;stroke-opacity:1;stroke-dasharray:none"
         sodipodi:type="arc" />
      <path
         transform="matrix(0.70363671,0,0,0.55152178,-194.93338,842.661)"
         d="m 371.42857,290.71429 c 0,7.10081 -1.91878,12.85715 -4.28572,12.85715 -2.36693,0 -4.28571,-5.75634 -4.28571,-12.85715 0,-7.1008 1.91878,-12.85714 4.28571,-12.85714 2.36694,0 4.28572,5.75634 4.28572,12.85714 z"
         sodipodi:ry="12.857142"
         sodipodi:rx="4.2857141"
         sodipodi:cy="290.71429"
         sodipodi:cx="367.14285"
         id="path3502"
         style="fill:#ffffff;fill-opacity:1;stroke:#000000;stroke-width:4.45737362;stroke-linecap:round;stroke-linejoin:round;stroke-miterlimit:4;stroke-opacity:1;stroke-dasharray:none"
         sodipodi:type="arc" />
    </g>
  </g>
</svg>
