<?xml version="1.0" encoding="UTF-8" standalone="no"?>
<!-- Created with Inkscape (http://www.inkscape.org/) -->

<svg
   xmlns:dc="http://purl.org/dc/elements/1.1/"
   xmlns:cc="http://creativecommons.org/ns#"
   xmlns:rdf="http://www.w3.org/1999/02/22-rdf-syntax-ns#"
   xmlns:svg="http://www.w3.org/2000/svg"
   xmlns="http://www.w3.org/2000/svg"
   xmlns:sodipodi="http://sodipodi.sourceforge.net/DTD/sodipodi-0.dtd"
   xmlns:inkscape="http://www.inkscape.org/namespaces/inkscape"
   width="100"
   height="100"
   id="svg10681"
   version="1.1"
   inkscape:version="0.48.4 r9939"
   sodipodi:docname="New document 2">
  <defs
     id="defs10683" />
  <sodipodi:namedview
     id="base"
     pagecolor="#ffffff"
     bordercolor="#666666"
     borderopacity="1.0"
     inkscape:pageopacity="0.0"
     inkscape:pageshadow="2"
     inkscape:zoom="3.1171875"
     inkscape:cx="79.60468"
     inkscape:cy="51.854147"
     inkscape:document-units="px"
     inkscape:current-layer="layer1"
     showgrid="false"
     inkscape:window-width="1366"
     inkscape:window-height="727"
     inkscape:window-x="0"
     inkscape:window-y="17"
     inkscape:window-maximized="1" />
  <metadata
     id="metadata10686">
    <rdf:RDF>
      <cc:Work
         rdf:about="">
        <dc:format>image/svg+xml</dc:format>
        <dc:type
           rdf:resource="http://purl.org/dc/dcmitype/StillImage" />
        <dc:title></dc:title>
      </cc:Work>
    </rdf:RDF>
  </metadata>
  <g
     inkscape:label="Layer 1"
     inkscape:groupmode="layer"
     id="layer1"
     transform="translate(0,-952.36218)">
    <g
       id="g5928"
       transform="matrix(0.75926741,0,0,0.75926741,-121.54547,305.10756)">
      <path
         inkscape:connector-curvature="0"
         sodipodi:nodetypes="ccccc"
         id="rect5746-9"
         d="m 258.39459,964.31489 -22.27469,14.24796 -45.05973,-12.67703 29.47158,-13.60323 37.86284,12.0323 z"
         style="fill:#000000;fill-opacity:1;stroke:#000000;stroke-width:1;stroke-linecap:butt;stroke-linejoin:miter;stroke-miterlimit:4;stroke-opacity:1;stroke-dasharray:none;stroke-dashoffset:0" />
      <path
         inkscape:connector-curvature="0"
         sodipodi:nodetypes="cccc"
         id="path5751"
         d="m 256.67586,930.54154 0,32.62812 -20.1942,13.50628 0,-33.97844"
         style="fill:#ffffff;stroke:#000000;stroke-width:2;stroke-linecap:butt;stroke-linejoin:miter;stroke-miterlimit:4;stroke-opacity:1;stroke-dasharray:none" />
      <path
         inkscape:connector-curvature="0"
         sodipodi:nodetypes="cccc"
         id="path5749"
         d="m 192.98752,935.63694 0.0632,29.00677 43.05445,11.56281 0.0116,-32.83586"
         style="fill:#ffffff;stroke:#000000;stroke-width:1.99769354;stroke-linecap:butt;stroke-linejoin:miter;stroke-miterlimit:4;stroke-opacity:1;stroke-dasharray:none" />
      <path
         inkscape:connector-curvature="0"
         sodipodi:nodetypes="ccccc"
         id="rect5746"
         d="m 221.04079,924.24109 34.10714,6.78571 -18.92857,11.78571 -40.89285,-7.5 25.71428,-11.07142 z"
         style="fill:#ffffff;fill-opacity:1;stroke:#000000;stroke-width:2;stroke-linecap:butt;stroke-linejoin:miter;stroke-miterlimit:4;stroke-opacity:1;stroke-dasharray:none;stroke-dashoffset:0" />
      <path
         transform="matrix(0.86051867,0,0,0.98773042,35.755785,628.85782)"
         d="m 243.21428,308.21429 c 0,2.16969 -9.2741,3.92858 -20.71428,3.92858 -11.44018,0 -20.71428,-1.75889 -20.71428,-3.92858 0,-2.16969 9.2741,-3.92857 20.71428,-3.92857 11.44018,0 20.71428,1.75888 20.71428,3.92857 z"
         sodipodi:ry="3.9285715"
         sodipodi:rx="20.714285"
         sodipodi:cy="308.21429"
         sodipodi:cx="222.5"
         id="path5713-7"
         style="fill:#000000;fill-opacity:1;stroke:#000000;stroke-width:2;stroke-linecap:butt;stroke-linejoin:miter;stroke-miterlimit:4;stroke-opacity:1;stroke-dasharray:none;stroke-dashoffset:0"
         sodipodi:type="arc" />
      <path
         inkscape:connector-curvature="0"
         sodipodi:nodetypes="cccccc"
         id="rect5741"
         d="m 206.88507,868.91895 41.38393,-0.067 -5.84822,64.50892 c -8.52017,3.09486 -17.66975,4.37187 -29.82142,0 l -5.71429,-64.44196 0,4e-5 z"
         style="fill:#ffffff;fill-opacity:1;stroke:#000000;stroke-width:2;stroke-linecap:butt;stroke-linejoin:miter;stroke-miterlimit:4;stroke-opacity:1;stroke-dasharray:none;stroke-dashoffset:0" />
      <path
         transform="translate(5.0993481,559.25378)"
         d="m 243.21428,308.21429 c 0,2.16969 -9.2741,3.92858 -20.71428,3.92858 -11.44018,0 -20.71428,-1.75889 -20.71428,-3.92858 0,-2.16969 9.2741,-3.92857 20.71428,-3.92857 11.44018,0 20.71428,1.75888 20.71428,3.92857 z"
         sodipodi:ry="3.9285715"
         sodipodi:rx="20.714285"
         sodipodi:cy="308.21429"
         sodipodi:cx="222.5"
         id="path5713"
         style="fill:#ffffff;fill-opacity:1;stroke:#000000;stroke-width:2;stroke-linecap:butt;stroke-linejoin:miter;stroke-miterlimit:4;stroke-opacity:1;stroke-dasharray:none;stroke-dashoffset:0"
         sodipodi:type="arc" />
      <path
         inkscape:connector-curvature="0"
         id="path5753"
         d="m 235.08144,943.13944 1.5468,0"
         style="fill:none;stroke:#000000;stroke-width:1px;stroke-linecap:butt;stroke-linejoin:miter;stroke-opacity:1" />
      <path
         transform="translate(4.0406073,622.59679)"
         d="m 210.30114,331.33865 c 0,3.39966 -2.09171,6.15562 -4.67196,6.15562 -2.58025,0 -4.67195,-2.75596 -4.67195,-6.15562 0,-3.39965 2.0917,-6.15561 4.67195,-6.15561 2.58025,0 4.67196,2.75596 4.67196,6.15561 z"
         sodipodi:ry="6.1556172"
         sodipodi:rx="4.6719556"
         sodipodi:cy="331.33865"
         sodipodi:cx="205.62918"
         id="path5755-1"
         style="fill:#ffffff;fill-opacity:1;stroke:#000000;stroke-width:2;stroke-linecap:butt;stroke-linejoin:miter;stroke-miterlimit:4;stroke-opacity:1;stroke-dasharray:none;stroke-dashoffset:0"
         sodipodi:type="arc" />
      <path
         transform="translate(2.5885159,623.32285)"
         d="m 210.30114,331.33865 c 0,3.39966 -2.09171,6.15562 -4.67196,6.15562 -2.58025,0 -4.67195,-2.75596 -4.67195,-6.15562 0,-3.39965 2.0917,-6.15561 4.67195,-6.15561 2.58025,0 4.67196,2.75596 4.67196,6.15561 z"
         sodipodi:ry="6.1556172"
         sodipodi:rx="4.6719556"
         sodipodi:cy="331.33865"
         sodipodi:cx="205.62918"
         id="path5755"
         style="fill:#ffffff;fill-opacity:1;stroke:#000000;stroke-width:2;stroke-linecap:butt;stroke-linejoin:miter;stroke-miterlimit:4;stroke-opacity:1;stroke-dasharray:none;stroke-dashoffset:0"
         sodipodi:type="arc" />
      <path
         inkscape:connector-curvature="0"
         sodipodi:nodetypes="cc"
         id="path5781"
         d="m 211.62696,922.68385 c 3.77028,1.15469 3.06395,3.37524 13.13198,3.03046"
         style="fill:none;stroke:#000000;stroke-width:1px;stroke-linecap:butt;stroke-linejoin:miter;stroke-opacity:1" />
      <path
         inkscape:connector-curvature="0"
         sodipodi:nodetypes="cc"
         id="path5781-7"
         d="m 210.61681,914.89426 c 3.77028,1.15469 3.06395,3.37524 13.13198,3.03046"
         style="fill:none;stroke:#000000;stroke-width:1px;stroke-linecap:butt;stroke-linejoin:miter;stroke-opacity:1" />
      <path
         inkscape:connector-curvature="0"
         sodipodi:nodetypes="cc"
         id="path5781-9"
         d="m 210.238,899.31509 c 3.77028,1.15469 3.06395,3.37524 13.13198,3.03046"
         style="fill:none;stroke:#000000;stroke-width:1px;stroke-linecap:butt;stroke-linejoin:miter;stroke-opacity:1" />
      <path
         inkscape:connector-curvature="0"
         sodipodi:nodetypes="cc"
         id="path5781-2"
         d="m 209.73292,891.52551 c 3.77028,1.15469 3.06395,3.37524 13.13198,3.03046"
         style="fill:none;stroke:#000000;stroke-width:1px;stroke-linecap:butt;stroke-linejoin:miter;stroke-opacity:1" />
      <path
         inkscape:connector-curvature="0"
         sodipodi:nodetypes="cc"
         id="path5781-78"
         d="m 208.2177,883.73591 c 3.77028,1.15469 3.06395,3.37524 13.13198,3.03046"
         style="fill:none;stroke:#000000;stroke-width:1px;stroke-linecap:butt;stroke-linejoin:miter;stroke-opacity:1" />
      <path
         inkscape:connector-curvature="0"
         sodipodi:nodetypes="cc"
         id="path5781-4"
         d="m 207.83889,875.94632 c 3.77028,1.15469 3.06395,3.37524 13.13198,3.03046"
         style="fill:none;stroke:#000000;stroke-width:1px;stroke-linecap:butt;stroke-linejoin:miter;stroke-opacity:1" />
      <path
         inkscape:connector-curvature="0"
         sodipodi:nodetypes="cc"
         id="path5781-5"
         d="m 209.98546,907.10468 c 3.77028,1.15469 3.06395,3.37524 13.13198,3.03046"
         style="fill:none;stroke:#000000;stroke-width:1px;stroke-linecap:butt;stroke-linejoin:miter;stroke-opacity:1" />
    </g>
  </g>
</svg>
