<?xml version="1.0" encoding="UTF-8" standalone="no"?>
<!-- Created with Inkscape (http://www.inkscape.org/) -->

<svg
   xmlns:dc="http://purl.org/dc/elements/1.1/"
   xmlns:cc="http://creativecommons.org/ns#"
   xmlns:rdf="http://www.w3.org/1999/02/22-rdf-syntax-ns#"
   xmlns:svg="http://www.w3.org/2000/svg"
   xmlns="http://www.w3.org/2000/svg"
   xmlns:sodipodi="http://sodipodi.sourceforge.net/DTD/sodipodi-0.dtd"
   xmlns:inkscape="http://www.inkscape.org/namespaces/inkscape"
   width="100"
   height="100"
   id="svg7297"
   version="1.1"
   inkscape:version="0.48.4 r9939"
   sodipodi:docname="New document 2">
  <defs
     id="defs7299" />
  <sodipodi:namedview
     id="base"
     pagecolor="#ffffff"
     bordercolor="#666666"
     borderopacity="1.0"
     inkscape:pageopacity="0.0"
     inkscape:pageshadow="2"
     inkscape:zoom="4.4083688"
     inkscape:cx="42.976339"
     inkscape:cy="44.448703"
     inkscape:document-units="px"
     inkscape:current-layer="layer1"
     showgrid="false"
     inkscape:window-width="1366"
     inkscape:window-height="727"
     inkscape:window-x="0"
     inkscape:window-y="17"
     inkscape:window-maximized="1" />
  <metadata
     id="metadata7302">
    <rdf:RDF>
      <cc:Work
         rdf:about="">
        <dc:format>image/svg+xml</dc:format>
        <dc:type
           rdf:resource="http://purl.org/dc/dcmitype/StillImage" />
        <dc:title></dc:title>
      </cc:Work>
    </rdf:RDF>
  </metadata>
  <g
     inkscape:label="Layer 1"
     inkscape:groupmode="layer"
     id="layer1"
     transform="translate(0,-952.36215)">
    <g
       id="g37905"
       transform="matrix(0.44453748,0,0,0.44453748,-39.100531,454.76588)"
       style="stroke-width:2.24952911;stroke-miterlimit:4;stroke-dasharray:none">
      <path
         transform="matrix(2.3741537,0,0,2.3741537,-197.75274,713.81497)"
         d="m 183.84776,251.88383 c 0,3.69604 -7.17964,6.69227 -16.03618,6.69227 -8.85653,0 -16.03617,-2.99623 -16.03617,-6.69227 0,-3.69603 7.17964,-6.69226 16.03617,-6.69226 8.85654,0 16.03618,2.99623 16.03618,6.69226 z"
         sodipodi:ry="6.6922607"
         sodipodi:rx="16.036171"
         sodipodi:cy="251.88383"
         sodipodi:cx="167.81158"
         id="path4244-3-4"
         style="opacity:0.98999999000000005;fill:#000000;fill-opacity:1;stroke:#000000;stroke-width:0.94750778;stroke-linecap:round;stroke-linejoin:miter;stroke-miterlimit:4;stroke-opacity:1;stroke-dasharray:none;stroke-dashoffset:0"
         sodipodi:type="arc" />
      <path
         transform="matrix(2.3741537,0,0,2.3741537,-197.60625,710.25912)"
         d="m 183.84776,251.88383 c 0,3.69604 -7.17964,6.69227 -16.03618,6.69227 -8.85653,0 -16.03617,-2.99623 -16.03617,-6.69227 0,-3.69603 7.17964,-6.69226 16.03617,-6.69226 8.85654,0 16.03618,2.99623 16.03618,6.69226 z"
         sodipodi:ry="6.6922607"
         sodipodi:rx="16.036171"
         sodipodi:cy="251.88383"
         sodipodi:cx="167.81158"
         id="path4244-3"
         style="opacity:0.98999999000000005;fill:#ffffff;fill-opacity:1;stroke:#000000;stroke-width:0.94750778;stroke-linecap:round;stroke-linejoin:miter;stroke-miterlimit:4;stroke-opacity:1;stroke-dasharray:none;stroke-dashoffset:0"
         sodipodi:type="arc" />
      <path
         inkscape:connector-curvature="0"
         sodipodi:nodetypes="ccccccccc"
         id="rect4239-9"
         d="m 186.41471,1173.0682 29.97821,0 c 0.83041,0 1.49892,0.6685 1.49892,1.4989 l 0,129.506 c 0,0.8303 -0.66851,1.4989 -1.49892,1.4989 -8.70637,4.1807 -18.09862,6.1321 -29.97821,0 -0.83037,0 -1.49889,-0.6686 -1.49889,-1.4989 l 0,-129.506 c 0,-0.8304 0.66852,-1.4989 1.49889,-1.4989 z"
         style="opacity:0.98999999000000005;fill:#ffffff;fill-opacity:1;stroke:#000000;stroke-width:2.24952911;stroke-linecap:round;stroke-linejoin:miter;stroke-miterlimit:4;stroke-opacity:1;stroke-dashoffset:0;stroke-dasharray:none" />
      <path
         transform="matrix(2.1411047,0,0,2.0050008,-153.72258,784.33906)"
         d="m 173.4937,194.17886 c 0,1.11579 -3.44848,2.02031 -7.70241,2.02031 -4.25392,0 -7.70241,-0.90452 -7.70241,-2.02031 0,-1.11578 3.44849,-2.0203 7.70241,-2.0203 4.25393,0 7.70241,0.90452 7.70241,2.0203 z"
         sodipodi:ry="2.0203052"
         sodipodi:rx="7.7024131"
         sodipodi:cy="194.17886"
         sodipodi:cx="165.79129"
         id="path4241-0"
         style="opacity:0.98999999000000005;fill:#ffffff;fill-opacity:1;stroke:#000000;stroke-width:1.08571388;stroke-linecap:round;stroke-linejoin:miter;stroke-miterlimit:4;stroke-opacity:1;stroke-dasharray:none;stroke-dashoffset:0"
         sodipodi:type="arc" />
      <path
         inkscape:connector-curvature="0"
         sodipodi:nodetypes="csssc"
         id="path4246-8"
         d="m 210.39729,1150.7344 c 0,10.1823 -3.62386,18.4366 -8.0941,18.4366 -4.47027,0 -15.27964,-11.2222 -8.09413,-18.4366 11.69456,-11.7415 3.64791,-18.4398 8.09413,-18.4365 4.47024,0 8.0941,8.2543 8.0941,18.4365 z"
         style="opacity:0.98999999000000005;fill:#ffffff;fill-opacity:1;stroke:#000000;stroke-width:2.24952911;stroke-linecap:round;stroke-linejoin:miter;stroke-miterlimit:4;stroke-opacity:1;stroke-dashoffset:0;stroke-dasharray:none" />
    </g>
  </g>
</svg>
