<?xml version="1.0" encoding="UTF-8" standalone="no"?>
<!-- Created with Inkscape (http://www.inkscape.org/) -->

<svg
   xmlns:dc="http://purl.org/dc/elements/1.1/"
   xmlns:cc="http://creativecommons.org/ns#"
   xmlns:rdf="http://www.w3.org/1999/02/22-rdf-syntax-ns#"
   xmlns:svg="http://www.w3.org/2000/svg"
   xmlns="http://www.w3.org/2000/svg"
   xmlns:sodipodi="http://sodipodi.sourceforge.net/DTD/sodipodi-0.dtd"
   xmlns:inkscape="http://www.inkscape.org/namespaces/inkscape"
   width="100"
   height="100"
   id="svg3606"
   version="1.1"
   inkscape:version="0.48.4 r9939"
   sodipodi:docname="New document 2">
  <defs
     id="defs3608" />
  <sodipodi:namedview
     id="base"
     pagecolor="#ffffff"
     bordercolor="#666666"
     borderopacity="1.0"
     inkscape:pageopacity="0.0"
     inkscape:pageshadow="2"
     inkscape:zoom="3.1171875"
     inkscape:cx="46.500829"
     inkscape:cy="50.215326"
     inkscape:document-units="px"
     inkscape:current-layer="layer1"
     showgrid="false"
     inkscape:window-width="1366"
     inkscape:window-height="727"
     inkscape:window-x="0"
     inkscape:window-y="17"
     inkscape:window-maximized="1" />
  <metadata
     id="metadata3611">
    <rdf:RDF>
      <cc:Work
         rdf:about="">
        <dc:format>image/svg+xml</dc:format>
        <dc:type
           rdf:resource="http://purl.org/dc/dcmitype/StillImage" />
        <dc:title></dc:title>
      </cc:Work>
    </rdf:RDF>
  </metadata>
  <g
     inkscape:label="Layer 1"
     inkscape:groupmode="layer"
     id="layer1"
     transform="translate(0,-952.36218)">
    <g
       id="g5614"
       transform="matrix(0.61583049,-0.05585691,0.05585691,0.61583049,-2.6561998,965.93241)">
      <path
         inkscape:connector-curvature="0"
         sodipodi:nodetypes="cssaacscss"
         id="path5164"
         d="m 54.940266,127.74961 c -9.55081,7.75518 -26.64507,2.55777 -34.36242,-6.1041 -7.82472,-8.78232 -12.8038797,-25.180978 -1.75266,-35.243828 12.61119,-11.483293 21.48289,-2.14324 29.54139,-8.467206 7.32734,-5.750187 5.12739,-21.032302 13.86427,-24.260518 7.3341,-2.709894 22.08396,7.905166 22.08396,7.905166 0,0 6.42694,4.426793 -7.11146,19.827248 -4.22173,4.80238 9.16658,6.20454 12.35731,4.41531 12.836924,3.78469 -17.65671,7.29377 -24.53011,13.87813 -7.17542,6.873658 -1.09699,20.747298 -10.09028,28.049798 z"
         style="fill:#000000;fill-opacity:1;stroke:#000000;stroke-width:1;stroke-miterlimit:4;stroke-opacity:1" />
      <rect
         transform="matrix(0.74290669,-0.66939499,0.66939499,0.74290669,0,0)"
         y="109.31374"
         x="79.212914"
         height="2.4089868"
         width="1.3347192"
         id="rect5484"
         style="fill:#ffffff;fill-opacity:1;stroke:#000000;stroke-width:0.45440185;stroke-miterlimit:4;stroke-opacity:1;stroke-dasharray:none" />
      <rect
         transform="matrix(0.74290669,-0.66939499,0.66939499,0.74290669,0,0)"
         y="108.18395"
         x="87.991051"
         height="2.4089868"
         width="1.3347192"
         id="rect5484-0"
         style="fill:#ffffff;fill-opacity:1;stroke:#000000;stroke-width:0.45440185;stroke-miterlimit:4;stroke-opacity:1;stroke-dasharray:none" />
      <rect
         transform="matrix(0.74290669,-0.66939499,0.66939499,0.74290669,0,0)"
         y="109.58454"
         x="95.652641"
         height="2.4089868"
         width="1.3347192"
         id="rect5484-07"
         style="fill:#ffffff;fill-opacity:1;stroke:#000000;stroke-width:0.45440185;stroke-miterlimit:4;stroke-opacity:1;stroke-dasharray:none" />
      <rect
         transform="matrix(0.74290669,-0.66939499,0.66939499,0.74290669,0,0)"
         y="92.315804"
         x="95.576683"
         height="2.4089868"
         width="1.3347192"
         id="rect5484-7"
         style="fill:#ffffff;fill-opacity:1;stroke:#000000;stroke-width:0.45440185;stroke-miterlimit:4;stroke-opacity:1;stroke-dasharray:none" />
      <rect
         transform="matrix(0.74290669,-0.66939499,0.66939499,0.74290669,0,0)"
         y="93.581841"
         x="87.803223"
         height="2.4089868"
         width="1.3347192"
         id="rect5484-01"
         style="fill:#ffffff;fill-opacity:1;stroke:#000000;stroke-width:0.45440185;stroke-miterlimit:4;stroke-opacity:1;stroke-dasharray:none" />
      <rect
         transform="matrix(0.74290669,-0.66939499,0.66939499,0.74290669,0,0)"
         y="92.543694"
         x="79.498024"
         height="2.4089868"
         width="1.3347192"
         id="rect5484-75"
         style="fill:#ffffff;fill-opacity:1;stroke:#000000;stroke-width:0.45440185;stroke-miterlimit:4;stroke-opacity:1;stroke-dasharray:none" />
      <path
         inkscape:connector-curvature="0"
         sodipodi:nodetypes="ccccccccc"
         id="rect5166"
         d="m 121.13326,17.812522 c 6.05061,-2.250311 10.58265,-6.493424 13.81235,-12.4455984 2.20732,-1.988903 5.47856,-1.931753 7.33462,0.128139 0.30773,1.59225 0.87991,3.103615 3.57365,3.966095 1.85606,2.0598914 1.57328,5.3193894 -0.63404,7.3082924 -6.1967,2.996404 -10.17532,7.588787 -13.41893,12.721558 -1.77923,-1.190179 -3.94759,1.09368 -6.10716,1.28767 l -6.04128,-6.65116 c -1.32533,-1.635941 2.08939,-2.076711 1.48079,-6.314996 z"
         style="fill:#000000;fill-opacity:1;stroke:#000000;stroke-width:0.5;stroke-miterlimit:4;stroke-opacity:1;stroke-dasharray:none" />
      <rect
         transform="matrix(0.74290669,-0.66939499,0.66939499,0.74290669,0,0)"
         ry="0"
         y="97.911407"
         x="2.5953152"
         height="9.1887913"
         width="70.116196"
         id="rect5168"
         style="fill:#ffffff;fill-opacity:1;stroke:#000000;stroke-width:0.76833212;stroke-miterlimit:4;stroke-opacity:1;stroke-dasharray:none" />
      <path
         transform="matrix(0.60775442,-0.54761623,0.54761623,0.60775442,116.90241,-55.275871)"
         d="m -213.42115,98.578392 c 0,1.028389 -0.89781,1.862068 -2.0053,1.862068 -1.1075,0 -2.0053,-0.833679 -2.0053,-1.862068 0,-1.028389 0.8978,-1.862064 2.0053,-1.862064 1.10749,0 2.0053,0.833675 2.0053,1.862064 z"
         sodipodi:ry="1.8620638"
         sodipodi:rx="2.0052993"
         sodipodi:cy="98.578392"
         sodipodi:cx="-215.42645"
         id="path5171"
         style="fill:#ffffff;fill-opacity:1;stroke:#000000;stroke-width:1;stroke-miterlimit:4;stroke-opacity:1;stroke-dasharray:none"
         sodipodi:type="arc" />
      <path
         transform="matrix(0.60775442,-0.54761623,0.54761623,0.60775442,124.51663,-53.555099)"
         d="m -213.42115,98.578392 c 0,1.028389 -0.89781,1.862068 -2.0053,1.862068 -1.1075,0 -2.0053,-0.833679 -2.0053,-1.862068 0,-1.028389 0.8978,-1.862064 2.0053,-1.862064 1.10749,0 2.0053,0.833675 2.0053,1.862064 z"
         sodipodi:ry="1.8620638"
         sodipodi:rx="2.0052993"
         sodipodi:cy="98.578392"
         sodipodi:cx="-215.42645"
         id="path5171-8"
         style="fill:#ffffff;fill-opacity:1;stroke:#000000;stroke-width:1;stroke-miterlimit:4;stroke-opacity:1;stroke-dasharray:none"
         sodipodi:type="arc" />
      <path
         transform="matrix(0.60775442,-0.54761623,0.54761623,0.60775442,123.00544,-63.10011)"
         d="m -213.42115,98.578392 c 0,1.028389 -0.89781,1.862068 -2.0053,1.862068 -1.1075,0 -2.0053,-0.833679 -2.0053,-1.862068 0,-1.028389 0.8978,-1.862064 2.0053,-1.862064 1.10749,0 2.0053,0.833675 2.0053,1.862064 z"
         sodipodi:ry="1.8620638"
         sodipodi:rx="2.0052993"
         sodipodi:cy="98.578392"
         sodipodi:cx="-215.42645"
         id="path5171-9"
         style="fill:#ffffff;fill-opacity:1;stroke:#000000;stroke-width:1;stroke-miterlimit:4;stroke-opacity:1;stroke-dasharray:none"
         sodipodi:type="arc" />
      <path
         transform="matrix(0.60775442,-0.54761623,0.54761623,0.60775442,129.46625,-60.468945)"
         d="m -213.42115,98.578392 c 0,1.028389 -0.89781,1.862068 -2.0053,1.862068 -1.1075,0 -2.0053,-0.833679 -2.0053,-1.862068 0,-1.028389 0.8978,-1.862064 2.0053,-1.862064 1.10749,0 2.0053,0.833675 2.0053,1.862064 z"
         sodipodi:ry="1.8620638"
         sodipodi:rx="2.0052993"
         sodipodi:cy="98.578392"
         sodipodi:cx="-215.42645"
         id="path5171-6"
         style="fill:#ffffff;fill-opacity:1;stroke:#000000;stroke-width:1;stroke-miterlimit:4;stroke-opacity:1;stroke-dasharray:none"
         sodipodi:type="arc" />
      <path
         transform="matrix(0.60775442,-0.54761623,0.54761623,0.60775442,142.78148,-116.50227)"
         d="m -213.42115,98.578392 c 0,1.028389 -0.89781,1.862068 -2.0053,1.862068 -1.1075,0 -2.0053,-0.833679 -2.0053,-1.862068 0,-1.028389 0.8978,-1.862064 2.0053,-1.862064 1.10749,0 2.0053,0.833675 2.0053,1.862064 z"
         sodipodi:ry="1.8620638"
         sodipodi:rx="2.0052993"
         sodipodi:cy="98.578392"
         sodipodi:cx="-215.42645"
         id="path5171-3"
         style="fill:#ffffff;fill-opacity:1;stroke:#000000;stroke-width:1;stroke-miterlimit:4;stroke-opacity:1;stroke-dasharray:none"
         sodipodi:type="arc" />
      <rect
         transform="matrix(0.74290669,-0.66939499,0.66939499,0.74290669,0,0)"
         y="93.340439"
         x="-8.8166113"
         height="18.047695"
         width="7.5914907"
         id="rect5244"
         style="fill:#ffffff;fill-opacity:1;stroke:#000000;stroke-width:1;stroke-miterlimit:4;stroke-opacity:1;stroke-dasharray:none" />
      <rect
         transform="matrix(0.74290669,-0.66939499,0.66939499,0.74290669,0,0)"
         y="93.340439"
         x="-27.598379"
         height="18.047695"
         width="7.5914907"
         id="rect5244-8"
         style="fill:#ffffff;fill-opacity:1;stroke:#000000;stroke-width:1;stroke-miterlimit:4;stroke-opacity:1;stroke-dasharray:none" />
      <path
         transform="matrix(0.74290669,-0.66939499,0.66939499,0.74290669,134.63927,-94.819185)"
         d="m -199.59891,83.001511 c 0,6.111006 -0.80161,11.064955 -1.79045,11.064955 -0.98883,0 -1.79044,-4.953949 -1.79044,-11.064955 0,-6.111007 0.80161,-11.064956 1.79044,-11.064956 0.98884,0 1.79045,4.953949 1.79045,11.064956 z"
         sodipodi:ry="11.064956"
         sodipodi:rx="1.7904459"
         sodipodi:cy="83.001511"
         sodipodi:cx="-201.38936"
         id="path5268"
         style="fill:#ffffff;fill-opacity:1;stroke:#000000;stroke-width:1;stroke-miterlimit:4;stroke-opacity:1;stroke-dasharray:none"
         sodipodi:type="arc" />
      <path
         inkscape:connector-curvature="0"
         id="path5270"
         d="M 38.212686,99.332622 141.85078,5.9496656"
         style="fill:none;stroke:#000000;stroke-width:0.36505046;stroke-linecap:butt;stroke-linejoin:miter;stroke-miterlimit:4;stroke-opacity:1;stroke-dasharray:none" />
      <path
         inkscape:connector-curvature="0"
         id="path5270-7"
         d="M 39.227766,100.45917 142.86585,7.0762166"
         style="fill:none;stroke:#000000;stroke-width:0.36505046;stroke-linecap:butt;stroke-linejoin:miter;stroke-miterlimit:4;stroke-opacity:1;stroke-dasharray:none" />
      <path
         inkscape:connector-curvature="0"
         id="path5270-3"
         d="M 40.242836,101.58571 143.88093,8.2027636"
         style="fill:none;stroke:#000000;stroke-width:0.36505046;stroke-linecap:butt;stroke-linejoin:miter;stroke-miterlimit:4;stroke-opacity:1;stroke-dasharray:none" />
      <path
         inkscape:connector-curvature="0"
         id="path5270-0"
         d="M 41.257916,102.71227 144.89601,9.3293146"
         style="fill:none;stroke:#000000;stroke-width:0.36505046;stroke-linecap:butt;stroke-linejoin:miter;stroke-miterlimit:4;stroke-opacity:1;stroke-dasharray:none" />
      <path
         inkscape:connector-curvature="0"
         id="path5270-33"
         d="M 42.272986,103.83881 145.91108,10.455867"
         style="fill:none;stroke:#000000;stroke-width:0.36505046;stroke-linecap:butt;stroke-linejoin:miter;stroke-miterlimit:4;stroke-opacity:1;stroke-dasharray:none" />
      <path
         transform="matrix(0.60775442,-0.54761623,0.54761623,0.60775442,202.02422,-158.77456)"
         d="m -213.42115,98.578392 c 0,1.028389 -0.89781,1.862068 -2.0053,1.862068 -1.1075,0 -2.0053,-0.833679 -2.0053,-1.862068 0,-1.028389 0.8978,-1.862064 2.0053,-1.862064 1.10749,0 2.0053,0.833675 2.0053,1.862064 z"
         sodipodi:ry="1.8620638"
         sodipodi:rx="2.0052993"
         sodipodi:cy="98.578392"
         sodipodi:cx="-215.42645"
         id="path5171-9-1"
         style="fill:#ffffff;fill-opacity:1;stroke:#000000;stroke-width:0.61118984;stroke-miterlimit:4;stroke-opacity:1;stroke-dasharray:none"
         sodipodi:type="arc" />
      <path
         transform="matrix(0.60775442,-0.54761623,0.54761623,0.60775442,208.50474,-164.42101)"
         d="m -213.42115,98.578392 c 0,1.028389 -0.89781,1.862068 -2.0053,1.862068 -1.1075,0 -2.0053,-0.833679 -2.0053,-1.862068 0,-1.028389 0.8978,-1.862064 2.0053,-1.862064 1.10749,0 2.0053,0.833675 2.0053,1.862064 z"
         sodipodi:ry="1.8620638"
         sodipodi:rx="2.0052993"
         sodipodi:cy="98.578392"
         sodipodi:cx="-215.42645"
         id="path5171-9-1-4"
         style="fill:#ffffff;fill-opacity:1;stroke:#000000;stroke-width:0.61118984;stroke-miterlimit:4;stroke-opacity:1;stroke-dasharray:none"
         sodipodi:type="arc" />
      <path
         transform="matrix(0.60775442,-0.54761623,0.54761623,0.60775442,214.11764,-169.96052)"
         d="m -213.42115,98.578392 c 0,1.028389 -0.89781,1.862068 -2.0053,1.862068 -1.1075,0 -2.0053,-0.833679 -2.0053,-1.862068 0,-1.028389 0.8978,-1.862064 2.0053,-1.862064 1.10749,0 2.0053,0.833675 2.0053,1.862064 z"
         sodipodi:ry="1.8620638"
         sodipodi:rx="2.0052993"
         sodipodi:cy="98.578392"
         sodipodi:cx="-215.42645"
         id="path5171-9-1-1"
         style="fill:#ffffff;fill-opacity:1;stroke:#000000;stroke-width:0.61118984;stroke-miterlimit:4;stroke-opacity:1;stroke-dasharray:none"
         sodipodi:type="arc" />
      <path
         transform="matrix(0.60775442,-0.54761623,0.54761623,0.60775442,208.001,-151.82045)"
         d="m -213.42115,98.578392 c 0,1.028389 -0.89781,1.862068 -2.0053,1.862068 -1.1075,0 -2.0053,-0.833679 -2.0053,-1.862068 0,-1.028389 0.8978,-1.862064 2.0053,-1.862064 1.10749,0 2.0053,0.833675 2.0053,1.862064 z"
         sodipodi:ry="1.8620638"
         sodipodi:rx="2.0052993"
         sodipodi:cy="98.578392"
         sodipodi:cx="-215.42645"
         id="path5171-9-1-6"
         style="fill:#ffffff;fill-opacity:1;stroke:#000000;stroke-width:0.61118984;stroke-miterlimit:4;stroke-opacity:1;stroke-dasharray:none"
         sodipodi:type="arc" />
      <path
         transform="matrix(0.60775442,-0.54761623,0.54761623,0.60775442,214.01792,-158.3024)"
         d="m -213.42115,98.578392 c 0,1.028389 -0.89781,1.862068 -2.0053,1.862068 -1.1075,0 -2.0053,-0.833679 -2.0053,-1.862068 0,-1.028389 0.8978,-1.862064 2.0053,-1.862064 1.10749,0 2.0053,0.833675 2.0053,1.862064 z"
         sodipodi:ry="1.8620638"
         sodipodi:rx="2.0052993"
         sodipodi:cy="98.578392"
         sodipodi:cx="-215.42645"
         id="path5171-9-1-3"
         style="fill:#ffffff;fill-opacity:1;stroke:#000000;stroke-width:0.61118984;stroke-miterlimit:4;stroke-opacity:1;stroke-dasharray:none"
         sodipodi:type="arc" />
      <path
         transform="matrix(0.60775442,-0.54761623,0.54761623,0.60775442,220.08915,-162.90526)"
         d="m -213.42115,98.578392 c 0,1.028389 -0.89781,1.862068 -2.0053,1.862068 -1.1075,0 -2.0053,-0.833679 -2.0053,-1.862068 0,-1.028389 0.8978,-1.862064 2.0053,-1.862064 1.10749,0 2.0053,0.833675 2.0053,1.862064 z"
         sodipodi:ry="1.8620638"
         sodipodi:rx="2.0052993"
         sodipodi:cy="98.578392"
         sodipodi:cx="-215.42645"
         id="path5171-9-1-7"
         style="fill:#ffffff;fill-opacity:1;stroke:#000000;stroke-width:0.61118984;stroke-miterlimit:4;stroke-opacity:1;stroke-dasharray:none"
         sodipodi:type="arc" />
      <path
         transform="matrix(0.74290669,-0.66939499,0.66939499,0.74290669,133.28752,-94.179605)"
         d="m -79.782271,72.903397 c 0,0.454864 -0.913835,0.823605 -2.041109,0.823605 -1.127273,0 -2.041108,-0.368741 -2.041108,-0.823605 0,-0.454865 0.913835,-0.823606 2.041108,-0.823606 1.127274,0 2.041109,0.368741 2.041109,0.823606 z"
         sodipodi:ry="0.82360512"
         sodipodi:rx="2.0411084"
         sodipodi:cy="72.903397"
         sodipodi:cx="-81.82338"
         id="path5423"
         style="fill:#ffffff;fill-opacity:1;stroke:#000000;stroke-width:0.5;stroke-miterlimit:4;stroke-opacity:1;stroke-dasharray:none"
         sodipodi:type="arc" />
      <path
         d="m -79.782271,72.903397 c 0,0.454864 -0.913835,0.823605 -2.041109,0.823605 -1.127273,0 -2.041108,-0.368741 -2.041108,-0.823605 0,-0.454865 0.913835,-0.823606 2.041108,-0.823606 1.127274,0 2.041109,0.368741 2.041109,0.823606 z"
         sodipodi:ry="0.82360512"
         sodipodi:rx="2.0411084"
         sodipodi:cy="72.903397"
         sodipodi:cx="-81.82338"
         id="path5423-3"
         style="fill:#ffffff;fill-opacity:1;stroke:#000000;stroke-width:0.5;stroke-miterlimit:4;stroke-opacity:1;stroke-dasharray:none"
         sodipodi:type="arc"
         transform="matrix(0.74290669,-0.66939499,0.66939499,0.74290669,140.032,-99.051679)" />
      <path
         d="m -79.782271,72.903397 c 0,0.454864 -0.913835,0.823605 -2.041109,0.823605 -1.127273,0 -2.041108,-0.368741 -2.041108,-0.823605 0,-0.454865 0.913835,-0.823606 2.041108,-0.823606 1.127274,0 2.041109,0.368741 2.041109,0.823606 z"
         sodipodi:ry="0.82360512"
         sodipodi:rx="2.0411084"
         sodipodi:cy="72.903397"
         sodipodi:cx="-81.82338"
         id="path5423-7"
         style="fill:#ffffff;fill-opacity:1;stroke:#000000;stroke-width:0.5;stroke-miterlimit:4;stroke-opacity:1;stroke-dasharray:none"
         sodipodi:type="arc"
         transform="matrix(0.74290669,-0.66939499,0.66939499,0.74290669,145.01113,-105.08055)" />
      <path
         transform="matrix(0.74290669,-0.66939499,0.66939499,0.74290669,146.42631,-78.929268)"
         d="m -79.782271,72.903397 c 0,0.454864 -0.913835,0.823605 -2.041109,0.823605 -1.127273,0 -2.041108,-0.368741 -2.041108,-0.823605 0,-0.454865 0.913835,-0.823606 2.041108,-0.823606 1.127274,0 2.041109,0.368741 2.041109,0.823606 z"
         sodipodi:ry="0.82360512"
         sodipodi:rx="2.0411084"
         sodipodi:cy="72.903397"
         sodipodi:cx="-81.82338"
         id="path5423-2"
         style="fill:#ffffff;fill-opacity:1;stroke:#000000;stroke-width:0.5;stroke-miterlimit:4;stroke-opacity:1;stroke-dasharray:none"
         sodipodi:type="arc" />
      <path
         d="m -79.782271,72.903397 c 0,0.454864 -0.913835,0.823605 -2.041109,0.823605 -1.127273,0 -2.041108,-0.368741 -2.041108,-0.823605 0,-0.454865 0.913835,-0.823606 2.041108,-0.823606 1.127274,0 2.041109,0.368741 2.041109,0.823606 z"
         sodipodi:ry="0.82360512"
         sodipodi:rx="2.0411084"
         sodipodi:cy="72.903397"
         sodipodi:cx="-81.82338"
         id="path5423-3-9"
         style="fill:#ffffff;fill-opacity:1;stroke:#000000;stroke-width:0.5;stroke-miterlimit:4;stroke-opacity:1;stroke-dasharray:none"
         sodipodi:type="arc"
         transform="matrix(0.74290669,-0.66939499,0.66939499,0.74290669,152.20748,-85.825421)" />
      <path
         d="m -79.782271,72.903397 c 0,0.454864 -0.913835,0.823605 -2.041109,0.823605 -1.127273,0 -2.041108,-0.368741 -2.041108,-0.823605 0,-0.454865 0.913835,-0.823606 2.041108,-0.823606 1.127274,0 2.041109,0.368741 2.041109,0.823606 z"
         sodipodi:ry="0.82360512"
         sodipodi:rx="2.0411084"
         sodipodi:cy="72.903397"
         sodipodi:cx="-81.82338"
         id="path5423-7-9"
         style="fill:#ffffff;fill-opacity:1;stroke:#000000;stroke-width:0.5;stroke-miterlimit:4;stroke-opacity:1;stroke-dasharray:none"
         sodipodi:type="arc"
         transform="matrix(0.74290669,-0.66939499,0.66939499,0.74290669,158.67144,-90.107326)" />
    </g>
  </g>
</svg>
