<svg version="1.0" viewBox="0 0 900 450" xmlns="http://www.w3.org/2000/svg" xmlns:svg="http://www.w3.org/2000/svg">
<path d="M-324.7297,738.9708H-134.5207A7.5735,7.5735 0 0 1 -126.9472,746.5443V782.8972A7.5735,7.5735 0 0 1 -134.5207,790.4708H-324.7297A7.5735,7.5735 0 0 1 -332.3032,782.8972V746.5443A7.5735,7.5735 0 0 1 -324.7297,738.9708z" stroke="#000" stroke-linecap="round" stroke-linejoin="round" stroke-width="5.8088" transform="matrix(1,0,.87861,.47753,0,0)"/>
<path d="M46.4853,72.7845H827.4872A31.621,31.621 0 0 1 859.1082,104.4056V352.7544A31.621,31.621 0 0 1 827.4872,384.3754H46.4853A31.621,31.621 0 0 1 14.8642,352.7544V104.4056A31.621,31.621 0 0 1 46.4853,72.7845z" fill="#fff" stroke="#000" stroke-linecap="round" stroke-width="7.4907"/>
<path d="M592.1059,69.47L592.1059,383.3604" fill="none" stroke="#000" stroke-width="5.6784"/>
<path d="M288.3958,68.7453L288.3958,382.6357" fill="none" stroke="#000" stroke-width="5.6784"/>
<g transform="matrix(.12574,0,0,.12574,816.83111,411.92037)">
<path d="M162.9615,-66.1029C166.455,-62.0454 171.1969,-61.5587 176.2443,-61.2734C182.6298,-61.4455 189.026,-62.9739 194.9925,-65.2443C198.1805,-66.4574 199.9424,-67.4904 202.9171,-69.0527C185.1139,-58.637 195.0252,-64.2154 198.3536,-67.7512C200.078,-69.5831 201.1079,-71.5131 202.0803,-73.8002C204.6069,-80.9176 204.9343,-88.5711 205.3652,-96.044C206.205,-106.9224 203.9531,-117.6028 201.5284,-128.1342C198.5789,-139.2121 194.5731,-149.9773 190.1613,-160.547C188.0488,-165.5407 185.6597,-170.4087 183.3326,-175.3036C180.1965,-181.3209 177.6309,-177.584 195.344,-184.4552C195.9544,-184.6919 196.0751,-183.3682 196.4662,-182.8431C197.1211,-181.9638 197.8094,-181.1099 198.4809,-180.2434C205.0155,-171.2763 212.8739,-163.4194 220.7492,-155.6472C225.3824,-151.1349 230.3508,-146.9467 234.7812,-142.2286C236.4627,-140.8555 237.4679,-138.92 238.8212,-137.2745C240.143,-136.0803 241.1771,-137.3375 242.3452,-138.1546C221.9421,-125.9198 229.2084,-129.8742 233.1206,-133.6257C234.6613,-135.103 236.1138,-136.6818 237.5889,-138.2234C239.6824,-140.3121 241.6662,-142.5484 243.9587,-144.4296C250.0105,-149.3955 258.4541,-153.3638 264.7123,-156.9238C270.4949,-159.4778 276.4106,-161.6997 282.419,-163.6577C283.6619,-163.9272 288.4708,-165.7766 289.5688,-164.5267C289.8243,-164.2359 289.9278,-163.8408 290.1072,-163.4978C290.1321,-163.1471 290.2293,-162.7941 290.1818,-162.4458C289.8354,-159.9037 285.8996,-156.946 284.1819,-155.3646C276.2864,-148.8374 268.6258,-142.0481 261.3333,-134.8534C254.99,-128.0483 248.4375,-121.3307 243.3873,-113.4811C240.2691,-108.5784 238.6116,-103.1651 237.8336,-97.4612C237.3182,-92.3602 237.4023,-87.2238 237.4103,-82.1038C237.6896,-76.538 238.3996,-70.961 240.0566,-65.6294C241.0066,-62.7897 242.6958,-60.7035 245.3984,-59.4565C247.1918,-58.8245 249.2452,-58.4083 251.1546,-58.7689C251.5988,-58.8529 255.3028,-60.1078 255.5991,-60.2068C259.9663,-62.5901 270.5149,-68.1635 250.7739,-57.3451C249.993,-56.9172 252.2774,-58.3004 253.0176,-58.7957C254.7175,-59.9333 255.126,-60.2677 256.721,-61.457C258.634,-62.8882 257.7277,-62.1927 259.444,-63.5378L273.1151,-69.0361C271.3827,-67.5797 272.3103,-68.3061 270.3191,-66.8738C262.2562,-60.6484 253.3247,-55.4952 244.0683,-51.2776C240.0071,-50.0654 237.0083,-49.4853 233.0532,-51.3558C230.1407,-52.9982 228.2379,-55.381 227.2136,-58.6022C225.5902,-64.0918 224.9779,-69.8068 224.4451,-75.4915C224.414,-80.6627 224.3292,-85.8471 224.7473,-91.006C225.4856,-96.9163 227.043,-102.5571 230.2219,-107.6713C230.8593,-108.7308 231.4383,-109.8277 232.1341,-110.8497C233.5635,-112.949 235.6974,-115.3519 237.3267,-117.2406C240.9264,-121.4136 244.6087,-125.5129 248.4113,-129.5027C255.5038,-136.6573 262.9793,-143.4183 270.7308,-149.8547C272.9266,-151.8936 275.199,-153.8815 277.0938,-156.2117C277.4084,-156.0458 276.3957,-156.0728 276.0435,-156.0235C274.2856,-155.7778 272.5938,-155.2318 270.901,-154.7183C264.9598,-152.7572 259.0786,-150.5816 253.4382,-147.8602C272.8794,-159.3576 261.1903,-152.8293 257.3908,-149.9058C255.0765,-148.125 253.0963,-145.926 251.0661,-143.8444C243.704,-136.0782 243.2815,-135.2558 230.8263,-128.8268C228.7851,-127.8625 227.644,-127.977 226.0472,-129.6547C224.7873,-131.3205 223.7779,-133.1781 222.2218,-134.6111C217.9797,-139.4028 213.2498,-143.7505 208.7563,-148.2998C200.956,-156.2393 193.036,-164.0853 186.0942,-172.8083C185.3483,-173.6466 184.6017,-174.4843 183.8565,-175.3233C183.4425,-175.7895 182.1438,-176.3177 182.6168,-176.7238C193.8626,-186.3779 193.2258,-188.9054 196.1308,-182.5316C198.3231,-177.537 200.6341,-172.5923 202.629,-167.5129C206.8035,-156.7535 210.6525,-145.8567 213.8046,-134.7502C216.3374,-124.1716 218.8429,-113.4256 218.1141,-102.4633C217.8266,-94.9202 217.3841,-87.2389 215.3364,-79.9427C214.6632,-78.0762 214.4306,-77.1236 213.3557,-75.4158C208.633,-67.9123 198.4469,-64.3688 191.7517,-60.1093C183.2311,-55.9217 174.1664,-52.9607 164.5762,-52.9176C163.243,-53.0245 161.8998,-53.0436 160.5765,-53.2383C156.6356,-53.8182 152.962,-55.54 150.2346,-58.4617L162.9615,-66.1029z" stroke="#000" stroke-linecap="round" stroke-linejoin="round" stroke-width="2"/>
<path d="M285.1504,-83.2549C279.2704,-81.6082 266.5253,-73.74 288.7732,-86.471C285.6873,-84.8287 283.8556,-82.1564 282.4117,-79.0736C281.5877,-76.6037 280.7082,-73.8959 280.8873,-71.2445C281.0112,-69.4099 281.4883,-68.4885 282.1122,-66.775C284.5548,-61.9495 288.3109,-57.9808 292.7681,-54.9746C296.0578,-52.6838 299.7974,-51.6413 303.7669,-51.5931C306.8299,-52.2892 309.6761,-53.4821 312.4808,-54.8725C313.6763,-55.4652 317.18,-57.4003 316.0334,-56.7177C302.8176,-48.8508 306.1278,-50.9743 310.8042,-54.1772C314.6548,-57.1431 318.8403,-60.5843 319.8322,-65.6282C319.9707,-66.3328 319.9608,-67.0585 320.0251,-67.7736C319.7705,-74.0822 315.7842,-79.021 311.938,-83.6853C309.5135,-86.3835 306.7679,-88.9566 303.4532,-90.5325C301.7709,-91.3322 300.9086,-91.4744 299.127,-91.9474C295.533,-92.1428 291.7665,-91.8011 288.3544,-90.5627C286.7769,-89.9902 284.386,-88.6593 282.9199,-87.8841C302.9062,-99.8746 289.8107,-91.9587 285.6886,-88.3736L272.0851,-82.8087C278.4156,-88.898 286.8685,-92.4857 294.2269,-96.9393C296.3627,-97.9778 297.6236,-98.6956 299.9061,-99.3886C303.5386,-100.4916 307.4494,-100.7491 311.1907,-100.1978C313.1147,-99.5839 313.8945,-99.429 315.7014,-98.4661C319.0659,-96.6731 321.8405,-93.9498 324.3224,-91.1058C328.3687,-86.1242 332.4762,-80.9616 333.0924,-74.3305C333.0628,-73.5258 333.1121,-72.7144 333.0035,-71.9165C332.2653,-66.4892 328.2283,-62.6312 324.1231,-59.4248C316.1605,-53.7094 320.2406,-56.4756 304.8488,-47.7573C300.8383,-45.4856 296.4513,-43.5622 291.8451,-43.0245C287.6957,-43.3915 283.8349,-44.6143 280.4546,-47.1325C275.8828,-50.4672 272.0386,-54.677 269.3612,-59.693C268.7366,-61.3275 268.0271,-62.8838 267.8135,-64.6468C267.4791,-67.4079 268.3981,-70.3095 269.0633,-72.941C270.3422,-76.1902 271.9653,-79.2701 275.0209,-81.1777C282.2031,-85.3118 288.9239,-90.0555 296.9357,-92.2666L285.1504,-83.2549z" stroke="#000" stroke-linecap="round" stroke-linejoin="round" stroke-width="2"/>
<path d="M347.1504,-77.2549C344.6035,-76.4403 341.9575,-75.7416 339.5363,-74.5814C338.7232,-74.1918 337.9599,-73.7059 337.1716,-73.2681C340.5173,-75.1416 343.863,-77.0152 347.2087,-78.8887C343.2371,-76.2087 340.2901,-73.5303 338.5132,-69.0387C337.3505,-65.3388 337.9081,-62.2103 340.8379,-59.4732C341.5453,-58.8124 342.3768,-58.2984 343.1462,-57.711C348.7467,-54.4938 355.3758,-53.3418 361.7904,-54.0225C363.6291,-54.2176 365.4327,-54.663 367.2538,-54.9833C371.4683,-56.0713 373.305,-56.374 377.2631,-58.0355C378.5761,-58.5866 382.3128,-60.6635 381.0902,-59.9334C363.2909,-49.3046 371.3475,-53.9354 374.1428,-56.7651C374.7627,-57.3926 375.255,-58.1344 375.8111,-58.8191C378.2486,-62.6326 378.3111,-66.0246 376.5942,-70.0879C376.279,-70.8016 374.4627,-74.5447 373.1819,-73.7346C372.9601,-73.5943 372.8477,-73.33 372.6807,-73.1277C392.8977,-84.6564 385.2006,-82.7287 383.2398,-77.11C382.3936,-74.6854 382.2459,-72.3278 382.1295,-69.7816C383.5341,-57.9615 388.7559,-47.0167 393.0457,-36.0346C398.2618,-21.5258 403.2897,-6.47 403.8684,9.092C403.9836,12.189 403.6821,15.2876 403.5889,18.3853C403.1263,21.364 402.8671,24.3813 402.2011,27.3212C400.0287,36.9109 395.0849,45.6892 387.7437,52.2682C386.4496,53.4279 384.9846,54.3816 383.6051,55.4383C378.0848,58.3221 372.8336,61.7934 367.0443,64.0899C364.6445,65.0418 358.8518,63.0561 356.9529,62.2095C349.8949,59.0631 343.7992,53.895 337.8032,49.1621C327.688,40.5031 317.7846,31.4711 308.7355,21.6837C304.0475,16.6133 302.8886,14.9067 298.8166,9.6614C295.3512,3.8792 291.2661,-2.8245 294.6732,-9.6402C296.6895,-13.6737 299.1232,-15.1372 302.5004,-18.074C312.6219,-24.6327 313.4505,-25.3796 328.104,-32.7999C331.6804,-34.6109 343.2136,-38.7065 346.7432,-39.9379C353.7819,-42.3937 361.3514,-44.8267 368.4293,-47.1393C387.0233,-52.5028 405.2349,-59.0355 423.2344,-66.1176C424.7623,-66.7671 426.2923,-67.4118 427.8181,-68.0661C428.9838,-68.566 430.1581,-69.0469 431.3089,-69.5801C433.6612,-70.67 435.8588,-72.019 438.2856,-72.9431C441.5765,-73.4124 442.7308,-69.4505 443.7159,-67.0436C445.9847,-60.9159 447.263,-54.4902 447.8147,-47.9941C447.9509,-45.0837 448.0453,-42.1595 447.6331,-39.2662C447.5909,-38.9704 447.7439,-38.5103 447.473,-38.3842C443.0642,-36.3309 438.4604,-34.7251 433.9541,-32.8956C433.9659,-33.7909 433.9166,-34.689 433.9896,-35.5814C434.0957,-36.8799 434.3191,-38.1662 434.4903,-39.4578C435.49,-46.9958 436.7994,-54.4336 438.3334,-61.8806C439.8884,-68.3767 441.231,-75.18 444.9433,-80.8503C449.1473,-85.2518 458.497,-93.9297 463.0497,-88.879C463.5264,-88.3501 463.8605,-87.7082 464.2658,-87.1228C465.1568,-85.5475 465.9266,-84.351 466.5095,-82.6055C468.1484,-77.6977 468.884,-71.9449 469.7517,-66.8403C470.8843,-62.4227 470.4525,-57.1322 471.7929,-52.8005C473.5655,-57.562 471.775,-52.58 459.0435,-46.5094C458.7853,-46.3863 459.4327,-46.9346 459.5772,-47.1814C459.9087,-47.7474 460.5577,-49.4088 460.8105,-49.919C461.1553,-50.6152 461.549,-51.286 461.9182,-51.9694C464.3127,-55.807 466.3395,-59.8622 468.9779,-63.5425C473.3892,-69.0698 477.5158,-70.2762 485.1519,-74.4725C485.4138,-74.6164 485.7664,-74.5326 486.0475,-74.431C486.4054,-74.3016 486.6836,-74.0129 487.0016,-73.8039C489.988,-70.6628 491.0279,-66.2182 492.0362,-62.1278C492.9125,-57.6742 493.3814,-53.131 495.0104,-48.8712C495.4071,-48.3128 495.7311,-47.6948 496.2004,-47.1959C499.6185,-43.5623 505.2722,-40.8461 509.9343,-39.3687C511.6885,-38.8128 513.4959,-38.4411 515.2767,-37.9773C522.8167,-36.0961 530.3825,-36.0026 537.8823,-38.0643C539.5423,-38.5206 541.2095,-38.9969 542.7819,-39.6981C544.2464,-40.3512 545.5581,-41.3036 546.9463,-42.1064C544.0584,-40.6163 541.3829,-38.6098 538.2826,-37.636C537.087,-37.2605 540.1428,-39.3201 540.9963,-40.2377C543.5122,-42.9425 544.9507,-45.9503 545.9633,-49.4488C546.6579,-52.3622 546.6456,-55.3557 546.5652,-58.3283C545.753,-64.4645 540.332,-58.4252 559.1,-66.0472C559.4417,-66.186 558.8994,-65.3356 558.842,-64.9712C558.7584,-64.4412 558.7327,-63.9037 558.678,-63.37C558.4116,-58.5352 558.3011,-53.6898 558.8385,-48.8729C559.3853,-45.774 559.9781,-42.6077 562.4072,-40.4324C564.1162,-39.3075 565.9299,-39.231 567.8176,-39.8486C572.3605,-42.1411 579.1794,-46.118 558.5218,-34.4558C557.7888,-34.042 559.9393,-35.3644 560.6358,-35.837L574.3857,-41.3039C573.3212,-40.43 573.5147,-40.5201 572.2923,-39.8054C567.6471,-37.0896 561.8948,-32.5533 556.0168,-30.8992C553.7225,-30.6532 551.5833,-31.1524 549.789,-32.6773C547.292,-35.2807 546.4771,-38.6003 545.9205,-42.101C545.3299,-46.9737 545.4484,-51.8684 545.5121,-56.7697C545.5317,-57.4241 545.5891,-59.6985 545.6353,-59.7292C555.3623,-66.1895 558.5071,-72.3046 559.7414,-65.0828C559.8109,-61.9585 559.8144,-58.8161 559.1617,-55.7418C555.9603,-42.9865 547.5064,-40.0804 535.8851,-33.2002C534.4562,-32.4798 533.0874,-31.625 531.5984,-31.0388C522.6477,-27.5147 512.8948,-27.7976 503.6881,-30.0046C501.849,-30.4923 499.9816,-30.8834 498.1708,-31.4678C493.5394,-32.9624 487.0263,-36.1598 483.6105,-39.7531C483.0478,-40.345 482.6426,-41.0688 482.1586,-41.7267C480.5349,-46.0707 480.067,-50.6739 479.2315,-55.2142C478.3895,-58.7321 477.5533,-63.083 474.6465,-65.525C473.9606,-65.439 474.3146,-65.5425 473.6055,-65.1501C477.5343,-67.4822 481.4631,-69.8142 485.392,-72.1463C485.7243,-72.3373 484.7836,-71.6778 484.5048,-71.4148C483.8053,-70.7548 483.2382,-69.9617 482.4827,-69.3567C479.6627,-65.8118 477.6289,-61.7908 475.2736,-57.9352C474.3882,-56.4197 473.6566,-54.9774 473.0931,-53.3151C472.9783,-52.9764 473.1056,-52.4677 472.7992,-52.2834C459.5044,-44.2868 462.4531,-41.0521 458.7423,-45.7121C457.6264,-50.4162 458.1984,-55.4103 457.1115,-60.1366C456.048,-66.7522 455.2298,-73.8382 451.6337,-79.6263C451.0084,-80.3781 450.7399,-81.067 449.7463,-81.2506C449.4773,-81.3003 448.6972,-81.0264 448.9293,-81.1714C452.7843,-83.5799 456.7874,-85.7435 460.684,-88.0841C461.0341,-88.2944 459.9199,-87.7826 459.574,-87.5654C459.1661,-87.3094 458.8163,-86.9709 458.4374,-86.6736C454.0539,-81.4464 452.7319,-74.3891 450.9594,-67.9864C448.9624,-58.7542 447.2481,-49.392 446.9663,-39.9303C442.6611,-37.2917 438.4431,-34.5055 434.0509,-32.0145C433.809,-31.8773 434.2913,-32.5188 434.3689,-32.7859C435.1731,-35.5526 434.9442,-38.4808 434.9437,-41.3192C434.5725,-47.6693 433.3852,-53.9844 430.9595,-59.8902C430.4967,-60.9584 429.6461,-64.0551 428.0273,-64.1645C427.6519,-64.1899 426.9629,-63.8928 426.664,-63.7855C421.876,-61.6536 417.2258,-59.2069 412.2498,-57.5029C394.41,-50.7931 376.4177,-44.5046 358.1221,-39.1385C347.5024,-35.6251 336.8084,-32.2298 326.4071,-28.0958C323.4132,-26.9058 320.6723,-24.9485 317.5147,-24.3088C315.893,-23.9803 323.0914,-27.8472 321.6038,-27.1227C319.4346,-26.0663 317.5039,-24.5777 315.454,-23.3052C311.6254,-20.2317 306.9304,-17.0518 306.0231,-11.7537C305.1302,-6.539 308.4514,-1.7173 310.6976,2.6064C312.0867,4.5044 313.4087,6.4534 314.865,8.3002C324.8107,20.9133 336.9125,31.7349 349.2333,41.9507C355.2776,46.4639 361.4425,51.5105 368.5887,54.2474C370.2378,54.879 371.9681,55.3572 373.7232,55.5527C375.2204,55.7194 379.0476,54.0524 378.2367,55.3221C376.5481,57.9662 373.0607,58.8689 370.4727,60.6424C371.9211,59.6313 373.4539,58.7314 374.818,57.609C382.3953,51.3747 387.7065,42.7683 390.0706,33.2575C390.7888,30.3679 391.0696,27.3869 391.5691,24.4516C391.713,21.3964 392.0786,18.3436 392.0007,15.286C391.6074,-.1509 386.3714,-15.0473 381.0958,-29.3649C376.6203,-40.4339 371.1739,-51.3452 369.2251,-63.2235C369.1596,-66.0352 369.2286,-68.1755 369.9092,-70.8957C369.9473,-71.0478 370.7023,-73.7558 371.0384,-73.9872C375.3553,-76.9602 379.9527,-79.5037 384.4099,-82.2619C384.7489,-82.2349 385.0988,-82.2704 385.4268,-82.1807C387.5325,-81.605 388.5419,-78.9921 389.422,-77.2845C391.2962,-72.8589 391.5534,-68.921 389.1687,-64.5737C388.6277,-63.7989 388.1602,-62.9673 387.5458,-62.2493C383.155,-57.1183 374.373,-53.5169 369.904,-51.0303C365.6297,-48.6519 360.7122,-47.6351 356.0106,-46.5342C354.1284,-46.2519 352.2609,-45.8421 350.3638,-45.6872C343.5879,-45.1342 336.6659,-46.3505 330.8819,-49.9878C330.0515,-50.6505 329.1568,-51.2399 328.3906,-51.9759C325.1513,-55.0883 324.1401,-58.5232 325.2119,-62.8203C326.8277,-67.9581 329.3611,-70.4448 333.6797,-73.6076C342.0135,-78.5311 349.5479,-83.9618 358.9357,-86.2666L347.1504,-77.2549z" stroke="#000" stroke-linecap="round" stroke-linejoin="round" stroke-width="2"/>
<path d="M549.2332,-122.1847C547.4497,-120.0919 546.0244,-117.6969 545.3462,-115.0219C544.8607,-112.3468 546.4564,-111.6609 548.6501,-110.701C552.1989,-109.4013 555.2322,-109.544 558.8667,-110.1867C563.727,-111.8529 571.4457,-116.6009 549.8419,-104.683C549.5386,-104.5156 550.4174,-105.0731 550.6735,-105.3066C551.283,-105.8622 551.3443,-106.0922 551.7431,-106.7885C552.4769,-108.4348 552.405,-109.9757 551.4599,-111.492C550.2026,-112.6833 548.3125,-112.5716 546.6902,-112.6506C545.0147,-112.4957 543.4191,-112.0801 542.057,-111.0753L553.6269,-120.3929C555.2743,-121.0166 556.9597,-121.4107 558.7396,-121.2691C560.8571,-121.0599 562.9403,-120.7594 564.3134,-118.9498C565.4318,-117.0683 565.8738,-115.1231 565.2275,-112.9755C562.8838,-105.9037 553.9818,-103.0447 547.0943,-101.3611C543.4244,-100.8997 539.7964,-101.101 536.3461,-102.5755C533.866,-103.8553 531.6424,-105.4567 532.0181,-108.5614C532.4759,-111.4436 533.8818,-114.0254 535.5706,-116.3799L549.2332,-122.1847z" stroke="#000" stroke-linecap="round" stroke-linejoin="round" stroke-width="2"/>
<path d="M359.6057,-86.1453C362.4187,-87.5125 365.103,-89.129 368.0047,-90.3079C369.8229,-91.4887 371.8175,-92.0343 373.9447,-92.2669C375.9013,-92.4156 377.8658,-92.3906 379.8266,-92.3838C381.7726,-92.5908 383.4211,-92.0588 385.1306,-91.2244C386.3272,-90.2653 387.2717,-88.9911 388.1806,-87.7589C388.971,-86.3232 389.4355,-84.7124 389.9217,-83.1481C390.3578,-81.5453 390.9514,-80.0138 391.2655,-78.376C391.5681,-76.4533 391.5887,-74.5022 391.6123,-72.5605C391.6209,-71.5593 391.6196,-70.5581 391.6191,-69.5568L378.4016,-62.8239C378.4031,-63.8201 378.4051,-64.8163 378.4006,-65.8125C378.3869,-67.6761 378.3836,-69.5468 378.1492,-71.3987C377.8884,-72.9952 377.3044,-74.4635 376.8794,-76.0128C376.4669,-77.4199 376.0218,-78.8533 375.3829,-80.165C374.6051,-81.185 373.8481,-82.3496 372.73,-83.0103C371.1597,-83.6924 369.5221,-83.7365 367.825,-83.6633C365.9059,-83.6547 363.9742,-83.6641 362.0745,-83.3541C360.0654,-82.9292 358.2552,-82.0648 356.4262,-81.1471C353.5803,-79.8236 350.8275,-78.3064 348.069,-76.8116L359.6057,-86.1453z" stroke="#000" stroke-linecap="round" stroke-linejoin="round" stroke-width="2"/>
</g>
<path d="M56.4125,37.4782H243.2907A15.9099,15.9099 0 0 1 259.2006,53.3881V53.3881A15.9099,15.9099 0 0 1 243.2907,69.298H56.4125A15.9099,15.9099 0 0 1 40.5025,53.3881V53.3881A15.9099,15.9099 0 0 1 56.4125,37.4782z" fill="#fff" stroke="#000" stroke-linecap="round" stroke-linejoin="round" stroke-width="4"/>
<path d="M101.5203,44.9288A36.8706,34.8503 0 1 1 27.7792,44.9288A36.8706,34.8503 0 1 1 101.5203,44.9288z" stroke="#000" stroke-linecap="round" stroke-linejoin="round" stroke-width="7.491" transform="matrix(.7121,0,0,.7121,-4.78379,15.10108)"/>
<text font-family="Bitstream Vera Sans" font-size="40" x="16.8655" y="61.1356">
   <tspan fill="#f9f9f9" x="16.8655" y="61.1356">10</tspan>
  </text>
<text font-family="Bitstream Vera Sans" font-size="20" x="115.6553" y="59.26">
   <tspan x="115.6553" y="59.26">Langue</tspan>
  </text>
<g transform="matrix(-1,0,0,1,-120.99555,53.36731)">
<path d="M446.8915,78.4154A61.5183,5.3033 0 1 1 323.8549,78.4154A61.5183,5.3033 0 1 1 446.8915,78.4154z" stroke="#000" stroke-linecap="round" stroke-width="4.862" transform="translate(-646.0555,176.8793)"/>
<path d="M-206.9241,168.4073L-206.9241,216.2957C-206.9241,236.3027-223.0308,252.4094-243.0378,252.4094L-278.4719,252.4094C-298.4789,252.4094-314.5856,236.3027-314.5856,216.2957L-314.5856,168.4073" fill="#fff" stroke="#000" stroke-linecap="round" stroke-linejoin="round" stroke-width="3.642"/>
<path d="M-293.5376,188.2187H-270.0036A.7803,.7803 0 0 1 -269.2233,188.999V199.0251A.7803,.7803 0 0 1 -270.0036,199.8054H-293.5376A.7803,.7803 0 0 1 -294.3179,199.0251V188.999A.7803,.7803 0 0 1 -293.5376,188.2187z" stroke="#000" stroke-linecap="square" stroke-linejoin="round" stroke-width="3.7338"/>
<path d="M-252.1466,188.2187H-231.7338A2.3409,2.3409 0 0 1 -229.3929,190.5596V197.4645A2.3409,2.3409 0 0 1 -231.7338,199.8054H-252.1466A2.3409,2.3409 0 0 1 -254.4875,197.4645V190.5596A2.3409,2.3409 0 0 1 -252.1466,188.2187z" stroke="#000" stroke-linecap="square" stroke-linejoin="round" stroke-width="3.7338"/>
<path d="M-312.2774,193.2733C-311.7282,193.2838-311.1788,193.2801-310.6296,193.2774C-310.2666,193.2752-309.9037,193.2738-309.5407,193.2731C-309.2482,193.2727-308.9557,193.2727-308.6632,193.2727C-308.3592,193.2721-308.0551,193.2733-307.7511,193.2739C-307.3605,193.2642-306.9759,193.2735-306.5891,193.3246C-306.1895,193.3791-305.786,193.3963-305.3829,193.4073C-304.9777,193.3915-304.58,193.4662-304.1789,193.5064C-303.771,193.5431-303.3609,193.547-302.9515,193.5514C-302.5214,193.5537-302.0912,193.5535-301.6611,193.552C-301.2875,193.5513-300.9139,193.5507-300.5403,193.5498C-300.2332,193.549-299.9262,193.5488-299.6192,193.5487C-299.3277,193.5486-299.0362,193.5486-298.7447,193.5486C-298.4531,193.5487-298.1616,193.5487-297.8701,193.5487C-297.5514,193.5483-297.2327,193.5492-296.914,193.5506C-296.5197,193.553-296.1255,193.551-295.7312,193.55C-295.3603,193.5497-294.9894,193.5504-294.6186,193.5515C-294.2218,193.5513-293.8251,193.5514-293.4284,193.5504C-293.0484,193.5506-292.6685,193.5511-292.2885,193.5506C-291.9429,193.5493-291.5973,193.5491-291.2518,193.5508C-290.7185,193.5534-290.1854,193.555-289.6522,193.5569C-288.9255,193.5597-288.1989,193.5603-287.4722,193.5579C-286.939,193.5565-286.4058,193.5527-285.8725,193.5524C-285.4313,193.5531-284.99,193.5524-284.5487,193.551C-284.4875,193.5507-284.4264,193.5505-284.3654,193.5504L-286.1113,194.7497C-286.1719,194.7494-286.2324,194.7492-286.2928,194.749C-286.7327,194.7475-287.1726,194.7469-287.6124,194.7475C-288.1404,194.7473-288.6683,194.7434-289.1963,194.7421C-289.9239,194.7397-290.6515,194.7403-291.3791,194.7431C-291.9182,194.745-292.4573,194.7466-292.9964,194.7492C-293.3422,194.7509-293.688,194.7507-294.0338,194.7494C-294.4139,194.7489-294.7941,194.7494-295.1742,194.7496C-295.5699,194.7486-295.9656,194.7487-296.3612,194.7485C-296.7336,194.7495-297.1059,194.7503-297.4783,194.75C-297.8719,194.749-298.2656,194.747-298.6593,194.7494C-298.9798,194.7508-299.3004,194.7517-299.621,194.7513C-299.9125,194.7513-300.2041,194.7513-300.4956,194.7513C-300.7871,194.7513-301.0785,194.7514-301.3699,194.7513C-301.6759,194.7511-301.9819,194.7509-302.2879,194.7503C-302.6599,194.7496-303.0319,194.7495-303.404,194.7494C-303.8341,194.7486-304.2643,194.7501-304.6944,194.7453C-305.1092,194.7397-305.5247,194.7308-305.9372,194.6859C-306.334,194.6413-306.7292,194.5887-307.1302,194.5989C-307.538,194.5838-307.9451,194.5554-308.3495,194.5022C-308.7315,194.4617-309.1148,194.473-309.4988,194.4743C-309.8039,194.4749-310.1091,194.4761-310.4142,194.4755C-310.7063,194.4755-310.9984,194.4755-311.2905,194.4751C-311.6494,194.4744-312.0082,194.473-312.3671,194.4709C-312.9203,194.4681-313.4736,194.4647-314.0268,194.4749L-312.2774,193.2733z" stroke="#000" stroke-linecap="square" stroke-linejoin="round" stroke-width=".4767"/>
<path d="M-225.9936,193.5754C-225.0415,193.5867-224.0891,193.5851-223.1369,193.5847C-222.2641,193.5839-221.3913,193.5822-220.5185,193.5794C-219.9353,193.5771-219.352,193.577-218.7687,193.5765C-218.3091,193.5757-217.8494,193.5749-217.3898,193.5745C-216.9883,193.5951-216.6025,193.5197-216.2078,193.4835C-215.812,193.451-215.4129,193.4463-215.0146,193.443C-214.6194,193.441-214.2242,193.4418-213.829,193.4422C-213.4343,193.4426-213.0396,193.4427-212.6449,193.4428C-212.2502,193.4428-211.8555,193.4428-211.4608,193.4428C-211.0661,193.4428-210.6714,193.4428-210.2767,193.4428C-209.8529,193.4423-209.4291,193.4439-209.0053,193.4439C-208.5762,193.4437-208.1471,193.4433-207.7179,193.443C-207.3205,193.4428-206.923,193.4428-206.5256,193.4428C-206.2627,193.4428-206.3941,193.4428-206.1313,193.4428L-208.4998,194.5881C-208.7626,194.5881-208.6312,194.5881-208.894,194.5881C-209.2912,194.588-209.6884,194.588-210.0855,194.5878C-210.5135,194.5876-210.9414,194.5872-211.3693,194.587C-211.7946,194.587-212.2198,194.5886-212.6451,194.588C-213.0398,194.5881-213.4345,194.5881-213.8292,194.5881C-214.2239,194.588-214.6187,194.588-215.0134,194.5879C-215.4081,194.5878-215.8029,194.5876-216.1976,194.5873C-216.5916,194.587-216.9857,194.5863-217.3797,194.5914C-217.771,194.5984-218.163,194.6099-218.5502,194.6519C-218.9506,194.695-219.349,194.7382-219.7569,194.7191C-220.2137,194.7186-220.6706,194.7178-221.1275,194.7171C-221.7068,194.7165-222.286,194.7165-222.8654,194.7142C-223.7308,194.7114-224.5963,194.7097-225.4618,194.7089C-226.4268,194.7084-227.3919,194.7071-228.3568,194.7181L-225.9936,193.5754z" stroke="#000" stroke-linecap="square" stroke-linejoin="round" stroke-width=".541"/>
<path d="M-277.4181,193.785C-276.4146,193.8459-275.4022,193.8651-274.3912,193.8795C-273.489,193.8899-272.5863,193.89-271.6838,193.8888C-270.9388,193.8884-270.1937,193.8882-269.4486,193.8874C-267.953,193.9058-266.4565,193.8968-264.9606,193.8935C-264.0566,193.8903-263.1528,193.889-262.2489,193.8872C-261.528,193.8872-260.8072,193.8868-260.0864,193.8877C-259.3286,193.8889-258.5708,193.8869-257.813,193.8874C-257.1292,193.8867-256.4454,193.8868-255.7617,193.8869C-255.0768,193.8873-254.392,193.887-253.7072,193.8864C-253.053,193.8875-252.3988,193.8865-251.7447,193.886C-251.1046,193.8873-250.4645,193.8864-249.8245,193.886C-249.2591,193.8856-248.6938,193.8854-248.1284,193.8854C-247.6556,193.9381-247.1799,193.976-246.6948,193.9943C-246.1687,194.0099-245.6413,194.0099-245.1143,194.0106C-244.5661,194.0107-244.018,194.0102-243.4698,194.01C-243.1953,194.0098-242.9209,194.0098-242.6464,194.0097L-245.9371,195.0935C-246.2114,195.0936-246.4858,195.0937-246.7602,195.0939C-247.309,195.0941-247.8579,195.0948-248.4067,195.0935C-248.9427,195.0913-249.4798,195.089-250.0135,195.0637C-250.4844,195.0372-250.9456,194.9829-251.419,194.9691C-251.9832,194.969-252.5474,194.9689-253.1116,194.9685C-253.7516,194.9681-254.3915,194.9672-255.0315,194.9685C-255.6849,194.968-256.3383,194.967-256.9916,194.9681C-257.6755,194.9674-258.3594,194.9671-259.0433,194.9676C-259.7259,194.9677-260.4085,194.9678-261.0911,194.967C-261.8482,194.9676-262.6055,194.9656-263.3627,194.9667C-264.0846,194.9676-264.8066,194.9673-265.5285,194.9673C-266.4196,194.9655-267.3108,194.9642-268.2019,194.961C-269.7106,194.9577-271.2199,194.9491-272.7283,194.9676C-273.4721,194.9672-274.2159,194.968-274.9597,194.9673C-275.859,194.9647-276.7584,194.9613-277.6572,194.947C-278.6866,194.9279-279.7147,194.8985-280.7396,194.8506L-277.4181,193.785z" stroke="#000" stroke-linecap="square" stroke-linejoin="round" stroke-width=".6203"/>
<path d="M-299.5799,155.8999L-299.5799,174.4431" fill="none" stroke="#000" stroke-linecap="round" stroke-width="4.8046"/>
<path d="M-290.0559,154.1456L-290.0559,172.6888" fill="none" stroke="#000" stroke-linecap="round" stroke-width="4.8046"/>
<path d="M-281.119,155.6099L-281.119,174.1531" fill="none" stroke="#000" stroke-linecap="round" stroke-width="4.8046"/>
<path d="M-269.4422,154.4426L-269.4422,172.9859" fill="none" stroke="#000" stroke-linecap="round" stroke-width="4.8046"/>
<path d="M-259.2836,156.6292L-259.2836,175.1725" fill="none" stroke="#000" stroke-linecap="round" stroke-width="4.8046"/>
<path d="M-247.6543,156.4538L-247.6543,174.9971" fill="none" stroke="#000" stroke-linecap="round" stroke-width="4.8046"/>
<path d="M-237.1518,154.7397L-237.1518,173.2829" fill="none" stroke="#000" stroke-linecap="round" stroke-width="4.8046"/>
<path d="M-227.2364,157.7766L-227.2364,176.3198" fill="none" stroke="#000" stroke-linecap="round" stroke-width="4.8046"/>
<path d="M-216.5634,157.4079L-216.5634,175.9511" fill="none" stroke="#000" stroke-linecap="round" stroke-width="4.8046"/>
<path d="M-269.1962,232.4823L-242.0732,228.0541" fill="none" stroke="#000" stroke-width=".7749"/>
<path d="M-307.4641,160.6301L-307.4641,179.1733" fill="none" stroke="#000" stroke-linecap="round" stroke-width="4.8046"/>
</g>
<g transform="matrix(1.20124,0,0,1,-622.91214,608.45829)">
<path d="M1013.7151,-530.8745H1138.6816A13.0878,13.0878 0 0 1 1151.7694,-517.7867V-495.7367A13.0878,13.0878 0 0 1 1138.6816,-482.649H1013.7151A13.0878,13.0878 0 0 1 1000.6273,-495.7367V-517.7867A13.0878,13.0878 0 0 1 1013.7151,-530.8745z" stroke="#000" stroke-linecap="round" stroke-linejoin="round" stroke-width="1.9703" transform="matrix(1,0,.84988,.52697,0,0)"/>
<path d="M602.1455,-296.3292H607.6698A4.1432,4.1432 0 0 1 611.813,-292.186V-261.8025A4.1432,4.1432 0 0 1 607.6698,-257.6593H602.1455A4.1432,4.1432 0 0 1 598.0023,-261.8025V-292.186A4.1432,4.1432 0 0 1 602.1455,-296.3292z" fill="#fff" stroke="#000" stroke-linecap="round" stroke-linejoin="round" stroke-width="3.642"/>
<path d="M707.3829,-296.3292H712.9072A4.1432,4.1432 0 0 1 717.0504,-292.186V-261.8025A4.1432,4.1432 0 0 1 712.9072,-257.6593H707.3829A4.1432,4.1432 0 0 1 703.2397,-261.8025V-292.186A4.1432,4.1432 0 0 1 707.3829,-296.3292z" fill="#fff" stroke="#000" stroke-linecap="round" stroke-linejoin="round" stroke-width="3.642"/>
<path d="M684.1809,-308.4826H689.7052A4.1432,4.1432 0 0 1 693.8484,-304.3394V-273.9559A4.1432,4.1432 0 0 1 689.7052,-269.8127H684.1809A4.1432,4.1432 0 0 1 680.0377,-273.9559V-304.3394A4.1432,4.1432 0 0 1 684.1809,-308.4826z" fill="#fff" stroke="#000" stroke-linecap="round" stroke-linejoin="round" stroke-width="3.642"/>
<path d="M576.4576,-311.7971H581.9819A4.1432,4.1432 0 0 1 586.1251,-307.6539V-277.2705A4.1432,4.1432 0 0 1 581.9819,-273.1272H576.4576A4.1432,4.1432 0 0 1 572.3144,-277.2705V-307.6539A4.1432,4.1432 0 0 1 576.4576,-311.7971z" fill="#fff" stroke="#000" stroke-linecap="round" stroke-linejoin="round" stroke-width="3.642"/>
<path d="M1076.8467,-603.2072H1201.8132A13.0878,13.0878 0 0 1 1214.901,-590.1194V-568.0694A13.0878,13.0878 0 0 1 1201.8132,-554.9817H1076.8467A13.0878,13.0878 0 0 1 1063.7589,-568.0694V-590.1194A13.0878,13.0878 0 0 1 1076.8467,-603.2072z" fill="#fff" stroke="#000" stroke-linecap="round" stroke-linejoin="round" stroke-width="1.9703" transform="matrix(1,0,.84988,.52697,0,0)"/>
<path d="M1082.5307,-610.5453H1207.4972A13.0878,13.0878 0 0 1 1220.585,-597.4575V-575.4075A13.0878,13.0878 0 0 1 1207.4972,-562.3197H1082.5307A13.0878,13.0878 0 0 1 1069.4429,-575.4075V-597.4575A13.0878,13.0878 0 0 1 1082.5307,-610.5453z" fill="#fff" stroke="#000" stroke-linecap="round" stroke-linejoin="round" stroke-width="1.9703" transform="matrix(1,0,.84988,.52697,0,0)"/>
</g>
<text font-family="Bitstream Vera Sans" font-size="20" x="158.4692" y="109.3884">
   <tspan text-align="center" text-anchor="middle" x="158.4692" y="109.3884">Bon alors on a quoi</tspan>
   <tspan text-align="center" text-anchor="middle" x="158.4692" y="134.3884">comme cours ce</tspan>
   <tspan text-align="center" text-anchor="middle" x="158.4692" y="159.3884">matin déjà ?</tspan>
  </text>
<path d="M149.6304,170.1554L141.8964,198.8816" fill="none" stroke="#000"/>
<g transform="matrix(-1,0,0,1,160.18983,59.5279)">
<path d="M446.8915,78.4154A61.5183,5.3033 0 1 1 323.8549,78.4154A61.5183,5.3033 0 1 1 446.8915,78.4154z" stroke="#000" stroke-linecap="round" stroke-width="4.862" transform="translate(-646.0555,176.8793)"/>
<path d="M-206.9241,168.4073L-206.9241,216.2957C-206.9241,236.3027-223.0308,252.4094-243.0378,252.4094L-278.4719,252.4094C-298.4789,252.4094-314.5856,236.3027-314.5856,216.2957L-314.5856,168.4073" fill="#fff" stroke="#000" stroke-linecap="round" stroke-linejoin="round" stroke-width="3.642"/>
<path d="M-293.5376,188.2187H-270.0036A.7803,.7803 0 0 1 -269.2233,188.999V199.0251A.7803,.7803 0 0 1 -270.0036,199.8054H-293.5376A.7803,.7803 0 0 1 -294.3179,199.0251V188.999A.7803,.7803 0 0 1 -293.5376,188.2187z" stroke="#000" stroke-linecap="square" stroke-linejoin="round" stroke-width="3.7338"/>
<path d="M-252.1466,188.2187H-231.7338A2.3409,2.3409 0 0 1 -229.3929,190.5596V197.4645A2.3409,2.3409 0 0 1 -231.7338,199.8054H-252.1466A2.3409,2.3409 0 0 1 -254.4875,197.4645V190.5596A2.3409,2.3409 0 0 1 -252.1466,188.2187z" stroke="#000" stroke-linecap="square" stroke-linejoin="round" stroke-width="3.7338"/>
<path d="M-312.2774,193.2733C-311.7282,193.2838-311.1788,193.2801-310.6296,193.2774C-310.2666,193.2752-309.9037,193.2738-309.5407,193.2731C-309.2482,193.2727-308.9557,193.2727-308.6632,193.2727C-308.3592,193.2721-308.0551,193.2733-307.7511,193.2739C-307.3605,193.2642-306.9759,193.2735-306.5891,193.3246C-306.1895,193.3791-305.786,193.3963-305.3829,193.4073C-304.9777,193.3915-304.58,193.4662-304.1789,193.5064C-303.771,193.5431-303.3609,193.547-302.9515,193.5514C-302.5214,193.5537-302.0912,193.5535-301.6611,193.552C-301.2875,193.5513-300.9139,193.5507-300.5403,193.5498C-300.2332,193.549-299.9262,193.5488-299.6192,193.5487C-299.3277,193.5486-299.0362,193.5486-298.7447,193.5486C-298.4531,193.5487-298.1616,193.5487-297.8701,193.5487C-297.5514,193.5483-297.2327,193.5492-296.914,193.5506C-296.5197,193.553-296.1255,193.551-295.7312,193.55C-295.3603,193.5497-294.9894,193.5504-294.6186,193.5515C-294.2218,193.5513-293.8251,193.5514-293.4284,193.5504C-293.0484,193.5506-292.6685,193.5511-292.2885,193.5506C-291.9429,193.5493-291.5973,193.5491-291.2518,193.5508C-290.7185,193.5534-290.1854,193.555-289.6522,193.5569C-288.9255,193.5597-288.1989,193.5603-287.4722,193.5579C-286.939,193.5565-286.4058,193.5527-285.8725,193.5524C-285.4313,193.5531-284.99,193.5524-284.5487,193.551C-284.4875,193.5507-284.4264,193.5505-284.3654,193.5504L-286.1113,194.7497C-286.1719,194.7494-286.2324,194.7492-286.2928,194.749C-286.7327,194.7475-287.1726,194.7469-287.6124,194.7475C-288.1404,194.7473-288.6683,194.7434-289.1963,194.7421C-289.9239,194.7397-290.6515,194.7403-291.3791,194.7431C-291.9182,194.745-292.4573,194.7466-292.9964,194.7492C-293.3422,194.7509-293.688,194.7507-294.0338,194.7494C-294.4139,194.7489-294.7941,194.7494-295.1742,194.7496C-295.5699,194.7486-295.9656,194.7487-296.3612,194.7485C-296.7336,194.7495-297.1059,194.7503-297.4783,194.75C-297.8719,194.749-298.2656,194.747-298.6593,194.7494C-298.9798,194.7508-299.3004,194.7517-299.621,194.7513C-299.9125,194.7513-300.2041,194.7513-300.4956,194.7513C-300.7871,194.7513-301.0785,194.7514-301.3699,194.7513C-301.6759,194.7511-301.9819,194.7509-302.2879,194.7503C-302.6599,194.7496-303.0319,194.7495-303.404,194.7494C-303.8341,194.7486-304.2643,194.7501-304.6944,194.7453C-305.1092,194.7397-305.5247,194.7308-305.9372,194.6859C-306.334,194.6413-306.7292,194.5887-307.1302,194.5989C-307.538,194.5838-307.9451,194.5554-308.3495,194.5022C-308.7315,194.4617-309.1148,194.473-309.4988,194.4743C-309.8039,194.4749-310.1091,194.4761-310.4142,194.4755C-310.7063,194.4755-310.9984,194.4755-311.2905,194.4751C-311.6494,194.4744-312.0082,194.473-312.3671,194.4709C-312.9203,194.4681-313.4736,194.4647-314.0268,194.4749L-312.2774,193.2733z" stroke="#000" stroke-linecap="square" stroke-linejoin="round" stroke-width=".4767"/>
<path d="M-225.9936,193.5754C-225.0415,193.5867-224.0891,193.5851-223.1369,193.5847C-222.2641,193.5839-221.3913,193.5822-220.5185,193.5794C-219.9353,193.5771-219.352,193.577-218.7687,193.5765C-218.3091,193.5757-217.8494,193.5749-217.3898,193.5745C-216.9883,193.5951-216.6025,193.5197-216.2078,193.4835C-215.812,193.451-215.4129,193.4463-215.0146,193.443C-214.6194,193.441-214.2242,193.4418-213.829,193.4422C-213.4343,193.4426-213.0396,193.4427-212.6449,193.4428C-212.2502,193.4428-211.8555,193.4428-211.4608,193.4428C-211.0661,193.4428-210.6714,193.4428-210.2767,193.4428C-209.8529,193.4423-209.4291,193.4439-209.0053,193.4439C-208.5762,193.4437-208.1471,193.4433-207.7179,193.443C-207.3205,193.4428-206.923,193.4428-206.5256,193.4428C-206.2627,193.4428-206.3941,193.4428-206.1313,193.4428L-208.4998,194.5881C-208.7626,194.5881-208.6312,194.5881-208.894,194.5881C-209.2912,194.588-209.6884,194.588-210.0855,194.5878C-210.5135,194.5876-210.9414,194.5872-211.3693,194.587C-211.7946,194.587-212.2198,194.5886-212.6451,194.588C-213.0398,194.5881-213.4345,194.5881-213.8292,194.5881C-214.2239,194.588-214.6187,194.588-215.0134,194.5879C-215.4081,194.5878-215.8029,194.5876-216.1976,194.5873C-216.5916,194.587-216.9857,194.5863-217.3797,194.5914C-217.771,194.5984-218.163,194.6099-218.5502,194.6519C-218.9506,194.695-219.349,194.7382-219.7569,194.7191C-220.2137,194.7186-220.6706,194.7178-221.1275,194.7171C-221.7068,194.7165-222.286,194.7165-222.8654,194.7142C-223.7308,194.7114-224.5963,194.7097-225.4618,194.7089C-226.4268,194.7084-227.3919,194.7071-228.3568,194.7181L-225.9936,193.5754z" stroke="#000" stroke-linecap="square" stroke-linejoin="round" stroke-width=".541"/>
<path d="M-277.4181,193.785C-276.4146,193.8459-275.4022,193.8651-274.3912,193.8795C-273.489,193.8899-272.5863,193.89-271.6838,193.8888C-270.9388,193.8884-270.1937,193.8882-269.4486,193.8874C-267.953,193.9058-266.4565,193.8968-264.9606,193.8935C-264.0566,193.8903-263.1528,193.889-262.2489,193.8872C-261.528,193.8872-260.8072,193.8868-260.0864,193.8877C-259.3286,193.8889-258.5708,193.8869-257.813,193.8874C-257.1292,193.8867-256.4454,193.8868-255.7617,193.8869C-255.0768,193.8873-254.392,193.887-253.7072,193.8864C-253.053,193.8875-252.3988,193.8865-251.7447,193.886C-251.1046,193.8873-250.4645,193.8864-249.8245,193.886C-249.2591,193.8856-248.6938,193.8854-248.1284,193.8854C-247.6556,193.9381-247.1799,193.976-246.6948,193.9943C-246.1687,194.0099-245.6413,194.0099-245.1143,194.0106C-244.5661,194.0107-244.018,194.0102-243.4698,194.01C-243.1953,194.0098-242.9209,194.0098-242.6464,194.0097L-245.9371,195.0935C-246.2114,195.0936-246.4858,195.0937-246.7602,195.0939C-247.309,195.0941-247.8579,195.0948-248.4067,195.0935C-248.9427,195.0913-249.4798,195.089-250.0135,195.0637C-250.4844,195.0372-250.9456,194.9829-251.419,194.9691C-251.9832,194.969-252.5474,194.9689-253.1116,194.9685C-253.7516,194.9681-254.3915,194.9672-255.0315,194.9685C-255.6849,194.968-256.3383,194.967-256.9916,194.9681C-257.6755,194.9674-258.3594,194.9671-259.0433,194.9676C-259.7259,194.9677-260.4085,194.9678-261.0911,194.967C-261.8482,194.9676-262.6055,194.9656-263.3627,194.9667C-264.0846,194.9676-264.8066,194.9673-265.5285,194.9673C-266.4196,194.9655-267.3108,194.9642-268.2019,194.961C-269.7106,194.9577-271.2199,194.9491-272.7283,194.9676C-273.4721,194.9672-274.2159,194.968-274.9597,194.9673C-275.859,194.9647-276.7584,194.9613-277.6572,194.947C-278.6866,194.9279-279.7147,194.8985-280.7396,194.8506L-277.4181,193.785z" stroke="#000" stroke-linecap="square" stroke-linejoin="round" stroke-width=".6203"/>
<path d="M-299.5799,155.8999L-299.5799,174.4431" fill="none" stroke="#000" stroke-linecap="round" stroke-width="4.8046"/>
<path d="M-290.0559,154.1456L-290.0559,172.6888" fill="none" stroke="#000" stroke-linecap="round" stroke-width="4.8046"/>
<path d="M-281.119,155.6099L-281.119,174.1531" fill="none" stroke="#000" stroke-linecap="round" stroke-width="4.8046"/>
<path d="M-269.4422,154.4426L-269.4422,172.9859" fill="none" stroke="#000" stroke-linecap="round" stroke-width="4.8046"/>
<path d="M-259.2836,156.6292L-259.2836,175.1725" fill="none" stroke="#000" stroke-linecap="round" stroke-width="4.8046"/>
<path d="M-247.6543,156.4538L-247.6543,174.9971" fill="none" stroke="#000" stroke-linecap="round" stroke-width="4.8046"/>
<path d="M-237.1518,154.7397L-237.1518,173.2829" fill="none" stroke="#000" stroke-linecap="round" stroke-width="4.8046"/>
<path d="M-227.2364,157.7766L-227.2364,176.3198" fill="none" stroke="#000" stroke-linecap="round" stroke-width="4.8046"/>
<path d="M-216.5634,157.4079L-216.5634,175.9511" fill="none" stroke="#000" stroke-linecap="round" stroke-width="4.8046"/>
<path d="M-269.1962,232.4823L-242.0732,228.0541" fill="none" stroke="#000" stroke-width=".7749"/>
<path d="M-307.4641,160.6301L-307.4641,179.1733" fill="none" stroke="#000" stroke-linecap="round" stroke-width="4.8046"/>
</g>
<g transform="matrix(1.20124,0,0,1,-341.72676,614.61888)">
<path d="M1013.7151,-530.8745H1138.6816A13.0878,13.0878 0 0 1 1151.7694,-517.7867V-495.7367A13.0878,13.0878 0 0 1 1138.6816,-482.649H1013.7151A13.0878,13.0878 0 0 1 1000.6273,-495.7367V-517.7867A13.0878,13.0878 0 0 1 1013.7151,-530.8745z" stroke="#000" stroke-linecap="round" stroke-linejoin="round" stroke-width="1.9703" transform="matrix(1,0,.84988,.52697,0,0)"/>
<path d="M602.1455,-296.3292H607.6698A4.1432,4.1432 0 0 1 611.813,-292.186V-261.8025A4.1432,4.1432 0 0 1 607.6698,-257.6593H602.1455A4.1432,4.1432 0 0 1 598.0023,-261.8025V-292.186A4.1432,4.1432 0 0 1 602.1455,-296.3292z" fill="#fff" stroke="#000" stroke-linecap="round" stroke-linejoin="round" stroke-width="3.642"/>
<path d="M707.3829,-296.3292H712.9072A4.1432,4.1432 0 0 1 717.0504,-292.186V-261.8025A4.1432,4.1432 0 0 1 712.9072,-257.6593H707.3829A4.1432,4.1432 0 0 1 703.2397,-261.8025V-292.186A4.1432,4.1432 0 0 1 707.3829,-296.3292z" fill="#fff" stroke="#000" stroke-linecap="round" stroke-linejoin="round" stroke-width="3.642"/>
<path d="M684.1809,-308.4826H689.7052A4.1432,4.1432 0 0 1 693.8484,-304.3394V-273.9559A4.1432,4.1432 0 0 1 689.7052,-269.8127H684.1809A4.1432,4.1432 0 0 1 680.0377,-273.9559V-304.3394A4.1432,4.1432 0 0 1 684.1809,-308.4826z" fill="#fff" stroke="#000" stroke-linecap="round" stroke-linejoin="round" stroke-width="3.642"/>
<path d="M576.4576,-311.7971H581.9819A4.1432,4.1432 0 0 1 586.1251,-307.6539V-277.2705A4.1432,4.1432 0 0 1 581.9819,-273.1272H576.4576A4.1432,4.1432 0 0 1 572.3144,-277.2705V-307.6539A4.1432,4.1432 0 0 1 576.4576,-311.7971z" fill="#fff" stroke="#000" stroke-linecap="round" stroke-linejoin="round" stroke-width="3.642"/>
<path d="M1076.8467,-603.2072H1201.8132A13.0878,13.0878 0 0 1 1214.901,-590.1194V-568.0694A13.0878,13.0878 0 0 1 1201.8132,-554.9817H1076.8467A13.0878,13.0878 0 0 1 1063.7589,-568.0694V-590.1194A13.0878,13.0878 0 0 1 1076.8467,-603.2072z" fill="#fff" stroke="#000" stroke-linecap="round" stroke-linejoin="round" stroke-width="1.9703" transform="matrix(1,0,.84988,.52697,0,0)"/>
<path d="M1082.5307,-610.5453H1207.4972A13.0878,13.0878 0 0 1 1220.585,-597.4575V-575.4075A13.0878,13.0878 0 0 1 1207.4972,-562.3197H1082.5307A13.0878,13.0878 0 0 1 1069.4429,-575.4075V-597.4575A13.0878,13.0878 0 0 1 1082.5307,-610.5453z" fill="#fff" stroke="#000" stroke-linecap="round" stroke-linejoin="round" stroke-width="1.9703" transform="matrix(1,0,.84988,.52697,0,0)"/>
</g>
<g transform="matrix(-1,0,0,1,447.45196,60.63276)">
<path d="M446.8915,78.4154A61.5183,5.3033 0 1 1 323.8549,78.4154A61.5183,5.3033 0 1 1 446.8915,78.4154z" stroke="#000" stroke-linecap="round" stroke-width="4.862" transform="translate(-646.0555,176.8793)"/>
<path d="M-206.9241,168.4073L-206.9241,216.2957C-206.9241,236.3027-223.0308,252.4094-243.0378,252.4094L-278.4719,252.4094C-298.4789,252.4094-314.5856,236.3027-314.5856,216.2957L-314.5856,168.4073" fill="#fff" stroke="#000" stroke-linecap="round" stroke-linejoin="round" stroke-width="3.642"/>
<path d="M-293.5376,188.2187H-270.0036A.7803,.7803 0 0 1 -269.2233,188.999V199.0251A.7803,.7803 0 0 1 -270.0036,199.8054H-293.5376A.7803,.7803 0 0 1 -294.3179,199.0251V188.999A.7803,.7803 0 0 1 -293.5376,188.2187z" stroke="#000" stroke-linecap="square" stroke-linejoin="round" stroke-width="3.7338"/>
<path d="M-252.1466,188.2187H-231.7338A2.3409,2.3409 0 0 1 -229.3929,190.5596V197.4645A2.3409,2.3409 0 0 1 -231.7338,199.8054H-252.1466A2.3409,2.3409 0 0 1 -254.4875,197.4645V190.5596A2.3409,2.3409 0 0 1 -252.1466,188.2187z" stroke="#000" stroke-linecap="square" stroke-linejoin="round" stroke-width="3.7338"/>
<path d="M-312.2774,193.2733C-311.7282,193.2838-311.1788,193.2801-310.6296,193.2774C-310.2666,193.2752-309.9037,193.2738-309.5407,193.2731C-309.2482,193.2727-308.9557,193.2727-308.6632,193.2727C-308.3592,193.2721-308.0551,193.2733-307.7511,193.2739C-307.3605,193.2642-306.9759,193.2735-306.5891,193.3246C-306.1895,193.3791-305.786,193.3963-305.3829,193.4073C-304.9777,193.3915-304.58,193.4662-304.1789,193.5064C-303.771,193.5431-303.3609,193.547-302.9515,193.5514C-302.5214,193.5537-302.0912,193.5535-301.6611,193.552C-301.2875,193.5513-300.9139,193.5507-300.5403,193.5498C-300.2332,193.549-299.9262,193.5488-299.6192,193.5487C-299.3277,193.5486-299.0362,193.5486-298.7447,193.5486C-298.4531,193.5487-298.1616,193.5487-297.8701,193.5487C-297.5514,193.5483-297.2327,193.5492-296.914,193.5506C-296.5197,193.553-296.1255,193.551-295.7312,193.55C-295.3603,193.5497-294.9894,193.5504-294.6186,193.5515C-294.2218,193.5513-293.8251,193.5514-293.4284,193.5504C-293.0484,193.5506-292.6685,193.5511-292.2885,193.5506C-291.9429,193.5493-291.5973,193.5491-291.2518,193.5508C-290.7185,193.5534-290.1854,193.555-289.6522,193.5569C-288.9255,193.5597-288.1989,193.5603-287.4722,193.5579C-286.939,193.5565-286.4058,193.5527-285.8725,193.5524C-285.4313,193.5531-284.99,193.5524-284.5487,193.551C-284.4875,193.5507-284.4264,193.5505-284.3654,193.5504L-286.1113,194.7497C-286.1719,194.7494-286.2324,194.7492-286.2928,194.749C-286.7327,194.7475-287.1726,194.7469-287.6124,194.7475C-288.1404,194.7473-288.6683,194.7434-289.1963,194.7421C-289.9239,194.7397-290.6515,194.7403-291.3791,194.7431C-291.9182,194.745-292.4573,194.7466-292.9964,194.7492C-293.3422,194.7509-293.688,194.7507-294.0338,194.7494C-294.4139,194.7489-294.7941,194.7494-295.1742,194.7496C-295.5699,194.7486-295.9656,194.7487-296.3612,194.7485C-296.7336,194.7495-297.1059,194.7503-297.4783,194.75C-297.8719,194.749-298.2656,194.747-298.6593,194.7494C-298.9798,194.7508-299.3004,194.7517-299.621,194.7513C-299.9125,194.7513-300.2041,194.7513-300.4956,194.7513C-300.7871,194.7513-301.0785,194.7514-301.3699,194.7513C-301.6759,194.7511-301.9819,194.7509-302.2879,194.7503C-302.6599,194.7496-303.0319,194.7495-303.404,194.7494C-303.8341,194.7486-304.2643,194.7501-304.6944,194.7453C-305.1092,194.7397-305.5247,194.7308-305.9372,194.6859C-306.334,194.6413-306.7292,194.5887-307.1302,194.5989C-307.538,194.5838-307.9451,194.5554-308.3495,194.5022C-308.7315,194.4617-309.1148,194.473-309.4988,194.4743C-309.8039,194.4749-310.1091,194.4761-310.4142,194.4755C-310.7063,194.4755-310.9984,194.4755-311.2905,194.4751C-311.6494,194.4744-312.0082,194.473-312.3671,194.4709C-312.9203,194.4681-313.4736,194.4647-314.0268,194.4749L-312.2774,193.2733z" stroke="#000" stroke-linecap="square" stroke-linejoin="round" stroke-width=".4767"/>
<path d="M-225.9936,193.5754C-225.0415,193.5867-224.0891,193.5851-223.1369,193.5847C-222.2641,193.5839-221.3913,193.5822-220.5185,193.5794C-219.9353,193.5771-219.352,193.577-218.7687,193.5765C-218.3091,193.5757-217.8494,193.5749-217.3898,193.5745C-216.9883,193.5951-216.6025,193.5197-216.2078,193.4835C-215.812,193.451-215.4129,193.4463-215.0146,193.443C-214.6194,193.441-214.2242,193.4418-213.829,193.4422C-213.4343,193.4426-213.0396,193.4427-212.6449,193.4428C-212.2502,193.4428-211.8555,193.4428-211.4608,193.4428C-211.0661,193.4428-210.6714,193.4428-210.2767,193.4428C-209.8529,193.4423-209.4291,193.4439-209.0053,193.4439C-208.5762,193.4437-208.1471,193.4433-207.7179,193.443C-207.3205,193.4428-206.923,193.4428-206.5256,193.4428C-206.2627,193.4428-206.3941,193.4428-206.1313,193.4428L-208.4998,194.5881C-208.7626,194.5881-208.6312,194.5881-208.894,194.5881C-209.2912,194.588-209.6884,194.588-210.0855,194.5878C-210.5135,194.5876-210.9414,194.5872-211.3693,194.587C-211.7946,194.587-212.2198,194.5886-212.6451,194.588C-213.0398,194.5881-213.4345,194.5881-213.8292,194.5881C-214.2239,194.588-214.6187,194.588-215.0134,194.5879C-215.4081,194.5878-215.8029,194.5876-216.1976,194.5873C-216.5916,194.587-216.9857,194.5863-217.3797,194.5914C-217.771,194.5984-218.163,194.6099-218.5502,194.6519C-218.9506,194.695-219.349,194.7382-219.7569,194.7191C-220.2137,194.7186-220.6706,194.7178-221.1275,194.7171C-221.7068,194.7165-222.286,194.7165-222.8654,194.7142C-223.7308,194.7114-224.5963,194.7097-225.4618,194.7089C-226.4268,194.7084-227.3919,194.7071-228.3568,194.7181L-225.9936,193.5754z" stroke="#000" stroke-linecap="square" stroke-linejoin="round" stroke-width=".541"/>
<path d="M-277.4181,193.785C-276.4146,193.8459-275.4022,193.8651-274.3912,193.8795C-273.489,193.8899-272.5863,193.89-271.6838,193.8888C-270.9388,193.8884-270.1937,193.8882-269.4486,193.8874C-267.953,193.9058-266.4565,193.8968-264.9606,193.8935C-264.0566,193.8903-263.1528,193.889-262.2489,193.8872C-261.528,193.8872-260.8072,193.8868-260.0864,193.8877C-259.3286,193.8889-258.5708,193.8869-257.813,193.8874C-257.1292,193.8867-256.4454,193.8868-255.7617,193.8869C-255.0768,193.8873-254.392,193.887-253.7072,193.8864C-253.053,193.8875-252.3988,193.8865-251.7447,193.886C-251.1046,193.8873-250.4645,193.8864-249.8245,193.886C-249.2591,193.8856-248.6938,193.8854-248.1284,193.8854C-247.6556,193.9381-247.1799,193.976-246.6948,193.9943C-246.1687,194.0099-245.6413,194.0099-245.1143,194.0106C-244.5661,194.0107-244.018,194.0102-243.4698,194.01C-243.1953,194.0098-242.9209,194.0098-242.6464,194.0097L-245.9371,195.0935C-246.2114,195.0936-246.4858,195.0937-246.7602,195.0939C-247.309,195.0941-247.8579,195.0948-248.4067,195.0935C-248.9427,195.0913-249.4798,195.089-250.0135,195.0637C-250.4844,195.0372-250.9456,194.9829-251.419,194.9691C-251.9832,194.969-252.5474,194.9689-253.1116,194.9685C-253.7516,194.9681-254.3915,194.9672-255.0315,194.9685C-255.6849,194.968-256.3383,194.967-256.9916,194.9681C-257.6755,194.9674-258.3594,194.9671-259.0433,194.9676C-259.7259,194.9677-260.4085,194.9678-261.0911,194.967C-261.8482,194.9676-262.6055,194.9656-263.3627,194.9667C-264.0846,194.9676-264.8066,194.9673-265.5285,194.9673C-266.4196,194.9655-267.3108,194.9642-268.2019,194.961C-269.7106,194.9577-271.2199,194.9491-272.7283,194.9676C-273.4721,194.9672-274.2159,194.968-274.9597,194.9673C-275.859,194.9647-276.7584,194.9613-277.6572,194.947C-278.6866,194.9279-279.7147,194.8985-280.7396,194.8506L-277.4181,193.785z" stroke="#000" stroke-linecap="square" stroke-linejoin="round" stroke-width=".6203"/>
<path d="M-299.5799,155.8999L-299.5799,174.4431" fill="none" stroke="#000" stroke-linecap="round" stroke-width="4.8046"/>
<path d="M-290.0559,154.1456L-290.0559,172.6888" fill="none" stroke="#000" stroke-linecap="round" stroke-width="4.8046"/>
<path d="M-281.119,155.6099L-281.119,174.1531" fill="none" stroke="#000" stroke-linecap="round" stroke-width="4.8046"/>
<path d="M-269.4422,154.4426L-269.4422,172.9859" fill="none" stroke="#000" stroke-linecap="round" stroke-width="4.8046"/>
<path d="M-259.2836,156.6292L-259.2836,175.1725" fill="none" stroke="#000" stroke-linecap="round" stroke-width="4.8046"/>
<path d="M-247.6543,156.4538L-247.6543,174.9971" fill="none" stroke="#000" stroke-linecap="round" stroke-width="4.8046"/>
<path d="M-237.1518,154.7397L-237.1518,173.2829" fill="none" stroke="#000" stroke-linecap="round" stroke-width="4.8046"/>
<path d="M-227.2364,157.7766L-227.2364,176.3198" fill="none" stroke="#000" stroke-linecap="round" stroke-width="4.8046"/>
<path d="M-216.5634,157.4079L-216.5634,175.9511" fill="none" stroke="#000" stroke-linecap="round" stroke-width="4.8046"/>
<path d="M-269.1962,232.4823L-242.0732,228.0541" fill="none" stroke="#000" stroke-width=".7749"/>
<path d="M-307.4641,160.6301L-307.4641,179.1733" fill="none" stroke="#000" stroke-linecap="round" stroke-width="4.8046"/>
</g>
<g transform="matrix(1.20124,0,0,1,-54.46463,615.72374)">
<path d="M1013.7151,-530.8745H1138.6816A13.0878,13.0878 0 0 1 1151.7694,-517.7867V-495.7367A13.0878,13.0878 0 0 1 1138.6816,-482.649H1013.7151A13.0878,13.0878 0 0 1 1000.6273,-495.7367V-517.7867A13.0878,13.0878 0 0 1 1013.7151,-530.8745z" stroke="#000" stroke-linecap="round" stroke-linejoin="round" stroke-width="1.9703" transform="matrix(1,0,.84988,.52697,0,0)"/>
<path d="M602.1455,-296.3292H607.6698A4.1432,4.1432 0 0 1 611.813,-292.186V-261.8025A4.1432,4.1432 0 0 1 607.6698,-257.6593H602.1455A4.1432,4.1432 0 0 1 598.0023,-261.8025V-292.186A4.1432,4.1432 0 0 1 602.1455,-296.3292z" fill="#fff" stroke="#000" stroke-linecap="round" stroke-linejoin="round" stroke-width="3.642"/>
<path d="M707.3829,-296.3292H712.9072A4.1432,4.1432 0 0 1 717.0504,-292.186V-261.8025A4.1432,4.1432 0 0 1 712.9072,-257.6593H707.3829A4.1432,4.1432 0 0 1 703.2397,-261.8025V-292.186A4.1432,4.1432 0 0 1 707.3829,-296.3292z" fill="#fff" stroke="#000" stroke-linecap="round" stroke-linejoin="round" stroke-width="3.642"/>
<path d="M684.1809,-308.4826H689.7052A4.1432,4.1432 0 0 1 693.8484,-304.3394V-273.9559A4.1432,4.1432 0 0 1 689.7052,-269.8127H684.1809A4.1432,4.1432 0 0 1 680.0377,-273.9559V-304.3394A4.1432,4.1432 0 0 1 684.1809,-308.4826z" fill="#fff" stroke="#000" stroke-linecap="round" stroke-linejoin="round" stroke-width="3.642"/>
<path d="M576.4576,-311.7971H581.9819A4.1432,4.1432 0 0 1 586.1251,-307.6539V-277.2705A4.1432,4.1432 0 0 1 581.9819,-273.1272H576.4576A4.1432,4.1432 0 0 1 572.3144,-277.2705V-307.6539A4.1432,4.1432 0 0 1 576.4576,-311.7971z" fill="#fff" stroke="#000" stroke-linecap="round" stroke-linejoin="round" stroke-width="3.642"/>
<path d="M1076.8467,-603.2072H1201.8132A13.0878,13.0878 0 0 1 1214.901,-590.1194V-568.0694A13.0878,13.0878 0 0 1 1201.8132,-554.9817H1076.8467A13.0878,13.0878 0 0 1 1063.7589,-568.0694V-590.1194A13.0878,13.0878 0 0 1 1076.8467,-603.2072z" fill="#fff" stroke="#000" stroke-linecap="round" stroke-linejoin="round" stroke-width="1.9703" transform="matrix(1,0,.84988,.52697,0,0)"/>
<path d="M1082.5307,-610.5453H1207.4972A13.0878,13.0878 0 0 1 1220.585,-597.4575V-575.4075A13.0878,13.0878 0 0 1 1207.4972,-562.3197H1082.5307A13.0878,13.0878 0 0 1 1069.4429,-575.4075V-597.4575A13.0878,13.0878 0 0 1 1082.5307,-610.5453z" fill="#fff" stroke="#000" stroke-linecap="round" stroke-linejoin="round" stroke-width="1.9703" transform="matrix(1,0,.84988,.52697,0,0)"/>
</g>
<text font-family="Bitstream Vera Sans" font-size="20" x="433.578" y="111.5981">
   <tspan text-align="center" text-anchor="middle" x="433.578" y="111.5981">수업을 할 때는 보통</tspan>
   <tspan text-align="center" text-anchor="middle" x="433.578" y="136.6856"> 만다린어를 배운다.</tspan>
   <tspan text-align="center" text-anchor="middle" x="433.578" y="161.7731">을 할 때는...</tspan>
  </text>
<path d="M523.0712,151.3729L574.9994,169.0505" fill="none" stroke="#000"/>
<text font-family="Bitstream Vera Sans" font-size="20" x="624.7178" y="151.3729">
   <tspan x="624.7178" y="151.3729">Putain physique...</tspan>
  </text>
<path d="M720.8401,170.1554L713.1061,204.4059" fill="none" stroke="#000"/>
</svg>
