<svg version="1.0" viewBox="0 0 900 450" xmlns="http://www.w3.org/2000/svg" xmlns:svg="http://www.w3.org/2000/svg">
<path d="M-332.5404,754.1926H-142.3314A7.5735,7.5735 0 0 1 -134.7579,761.7662V798.1191A7.5735,7.5735 0 0 1 -142.3314,805.6926H-332.5404A7.5735,7.5735 0 0 1 -340.1139,798.1191V761.7662A7.5735,7.5735 0 0 1 -332.5404,754.1926z" stroke="#000" stroke-linecap="round" stroke-linejoin="round" stroke-width="5.8088" transform="matrix(1,0,.87861,.47753,0,0)"/>
<path d="M52.0488,80.0536H833.0507A31.621,31.621 0 0 1 864.6717,111.6746V360.0234A31.621,31.621 0 0 1 833.0507,391.6444H52.0488A31.621,31.621 0 0 1 20.4278,360.0234V111.6746A31.621,31.621 0 0 1 52.0488,80.0536z" fill="#fff" stroke="#000" stroke-linecap="round" stroke-width="7.4907"/>
<path d="M591.6694,76.739L591.6694,390.6294" fill="none" stroke="#000" stroke-width="5.6784"/>
<path d="M293.9593,76.0143L293.9593,389.9047" fill="none" stroke="#000" stroke-width="5.6784"/>
<g transform="matrix(.12574,0,0,.12574,822.39456,419.18939)">
<path d="M162.9615,-66.1029C166.455,-62.0454 171.1969,-61.5587 176.2443,-61.2734C182.6298,-61.4455 189.026,-62.9739 194.9925,-65.2443C198.1805,-66.4574 199.9424,-67.4904 202.9171,-69.0527C185.1139,-58.637 195.0252,-64.2154 198.3536,-67.7512C200.078,-69.5831 201.1079,-71.5131 202.0803,-73.8002C204.6069,-80.9176 204.9343,-88.5711 205.3652,-96.044C206.205,-106.9224 203.9531,-117.6028 201.5284,-128.1342C198.5789,-139.2121 194.5731,-149.9773 190.1613,-160.547C188.0488,-165.5407 185.6597,-170.4087 183.3326,-175.3036C180.1965,-181.3209 177.6309,-177.584 195.344,-184.4552C195.9544,-184.6919 196.0751,-183.3682 196.4662,-182.8431C197.1211,-181.9638 197.8094,-181.1099 198.4809,-180.2434C205.0155,-171.2763 212.8739,-163.4194 220.7492,-155.6472C225.3824,-151.1349 230.3508,-146.9467 234.7812,-142.2286C236.4627,-140.8555 237.4679,-138.92 238.8212,-137.2745C240.143,-136.0803 241.1771,-137.3375 242.3452,-138.1546C221.9421,-125.9198 229.2084,-129.8742 233.1206,-133.6257C234.6613,-135.103 236.1138,-136.6818 237.5889,-138.2234C239.6824,-140.3121 241.6662,-142.5484 243.9587,-144.4296C250.0105,-149.3955 258.4541,-153.3638 264.7123,-156.9238C270.4949,-159.4778 276.4106,-161.6997 282.419,-163.6577C283.6619,-163.9272 288.4708,-165.7766 289.5688,-164.5267C289.8243,-164.2359 289.9278,-163.8408 290.1072,-163.4978C290.1321,-163.1471 290.2293,-162.7941 290.1818,-162.4458C289.8354,-159.9037 285.8996,-156.946 284.1819,-155.3646C276.2864,-148.8374 268.6258,-142.0481 261.3333,-134.8534C254.99,-128.0483 248.4375,-121.3307 243.3873,-113.4811C240.2691,-108.5784 238.6116,-103.1651 237.8336,-97.4612C237.3182,-92.3602 237.4023,-87.2238 237.4103,-82.1038C237.6896,-76.538 238.3996,-70.961 240.0566,-65.6294C241.0066,-62.7897 242.6958,-60.7035 245.3984,-59.4565C247.1918,-58.8245 249.2452,-58.4083 251.1546,-58.7689C251.5988,-58.8529 255.3028,-60.1078 255.5991,-60.2068C259.9663,-62.5901 270.5149,-68.1635 250.7739,-57.3451C249.993,-56.9172 252.2774,-58.3004 253.0176,-58.7957C254.7175,-59.9333 255.126,-60.2677 256.721,-61.457C258.634,-62.8882 257.7277,-62.1927 259.444,-63.5378L273.1151,-69.0361C271.3827,-67.5797 272.3103,-68.3061 270.3191,-66.8738C262.2562,-60.6484 253.3247,-55.4952 244.0683,-51.2776C240.0071,-50.0654 237.0083,-49.4853 233.0532,-51.3558C230.1407,-52.9982 228.2379,-55.381 227.2136,-58.6022C225.5902,-64.0918 224.9779,-69.8068 224.4451,-75.4915C224.414,-80.6627 224.3292,-85.8471 224.7473,-91.006C225.4856,-96.9163 227.043,-102.5571 230.2219,-107.6713C230.8593,-108.7308 231.4383,-109.8277 232.1341,-110.8497C233.5635,-112.949 235.6974,-115.3519 237.3267,-117.2406C240.9264,-121.4136 244.6087,-125.5129 248.4113,-129.5027C255.5038,-136.6573 262.9793,-143.4183 270.7308,-149.8547C272.9266,-151.8936 275.199,-153.8815 277.0938,-156.2117C277.4084,-156.0458 276.3957,-156.0728 276.0435,-156.0235C274.2856,-155.7778 272.5938,-155.2318 270.901,-154.7183C264.9598,-152.7572 259.0786,-150.5816 253.4382,-147.8602C272.8794,-159.3576 261.1903,-152.8293 257.3908,-149.9058C255.0765,-148.125 253.0963,-145.926 251.0661,-143.8444C243.704,-136.0782 243.2815,-135.2558 230.8263,-128.8268C228.7851,-127.8625 227.644,-127.977 226.0472,-129.6547C224.7873,-131.3205 223.7779,-133.1781 222.2218,-134.6111C217.9797,-139.4028 213.2498,-143.7505 208.7563,-148.2998C200.956,-156.2393 193.036,-164.0853 186.0942,-172.8083C185.3483,-173.6466 184.6017,-174.4843 183.8565,-175.3233C183.4425,-175.7895 182.1438,-176.3177 182.6168,-176.7238C193.8626,-186.3779 193.2258,-188.9054 196.1308,-182.5316C198.3231,-177.537 200.6341,-172.5923 202.629,-167.5129C206.8035,-156.7535 210.6525,-145.8567 213.8046,-134.7502C216.3374,-124.1716 218.8429,-113.4256 218.1141,-102.4633C217.8266,-94.9202 217.3841,-87.2389 215.3364,-79.9427C214.6632,-78.0762 214.4306,-77.1236 213.3557,-75.4158C208.633,-67.9123 198.4469,-64.3688 191.7517,-60.1093C183.2311,-55.9217 174.1664,-52.9607 164.5762,-52.9176C163.243,-53.0245 161.8998,-53.0436 160.5765,-53.2383C156.6356,-53.8182 152.962,-55.54 150.2346,-58.4617L162.9615,-66.1029z" stroke="#000" stroke-linecap="round" stroke-linejoin="round" stroke-width="2"/>
<path d="M285.1504,-83.2549C279.2704,-81.6082 266.5253,-73.74 288.7732,-86.471C285.6873,-84.8287 283.8556,-82.1564 282.4117,-79.0736C281.5877,-76.6037 280.7082,-73.8959 280.8873,-71.2445C281.0112,-69.4099 281.4883,-68.4885 282.1122,-66.775C284.5548,-61.9495 288.3109,-57.9808 292.7681,-54.9746C296.0578,-52.6838 299.7974,-51.6413 303.7669,-51.5931C306.8299,-52.2892 309.6761,-53.4821 312.4808,-54.8725C313.6763,-55.4652 317.18,-57.4003 316.0334,-56.7177C302.8176,-48.8508 306.1278,-50.9743 310.8042,-54.1772C314.6548,-57.1431 318.8403,-60.5843 319.8322,-65.6282C319.9707,-66.3328 319.9608,-67.0585 320.0251,-67.7736C319.7705,-74.0822 315.7842,-79.021 311.938,-83.6853C309.5135,-86.3835 306.7679,-88.9566 303.4532,-90.5325C301.7709,-91.3322 300.9086,-91.4744 299.127,-91.9474C295.533,-92.1428 291.7665,-91.8011 288.3544,-90.5627C286.7769,-89.9902 284.386,-88.6593 282.9199,-87.8841C302.9062,-99.8746 289.8107,-91.9587 285.6886,-88.3736L272.0851,-82.8087C278.4156,-88.898 286.8685,-92.4857 294.2269,-96.9393C296.3627,-97.9778 297.6236,-98.6956 299.9061,-99.3886C303.5386,-100.4916 307.4494,-100.7491 311.1907,-100.1978C313.1147,-99.5839 313.8945,-99.429 315.7014,-98.4661C319.0659,-96.6731 321.8405,-93.9498 324.3224,-91.1058C328.3687,-86.1242 332.4762,-80.9616 333.0924,-74.3305C333.0628,-73.5258 333.1121,-72.7144 333.0035,-71.9165C332.2653,-66.4892 328.2283,-62.6312 324.1231,-59.4248C316.1605,-53.7094 320.2406,-56.4756 304.8488,-47.7573C300.8383,-45.4856 296.4513,-43.5622 291.8451,-43.0245C287.6957,-43.3915 283.8349,-44.6143 280.4546,-47.1325C275.8828,-50.4672 272.0386,-54.677 269.3612,-59.693C268.7366,-61.3275 268.0271,-62.8838 267.8135,-64.6468C267.4791,-67.4079 268.3981,-70.3095 269.0633,-72.941C270.3422,-76.1902 271.9653,-79.2701 275.0209,-81.1777C282.2031,-85.3118 288.9239,-90.0555 296.9357,-92.2666L285.1504,-83.2549z" stroke="#000" stroke-linecap="round" stroke-linejoin="round" stroke-width="2"/>
<path d="M347.1504,-77.2549C344.6035,-76.4403 341.9575,-75.7416 339.5363,-74.5814C338.7232,-74.1918 337.9599,-73.7059 337.1716,-73.2681C340.5173,-75.1416 343.863,-77.0152 347.2087,-78.8887C343.2371,-76.2087 340.2901,-73.5303 338.5132,-69.0387C337.3505,-65.3388 337.9081,-62.2103 340.8379,-59.4732C341.5453,-58.8124 342.3768,-58.2984 343.1462,-57.711C348.7467,-54.4938 355.3758,-53.3418 361.7904,-54.0225C363.6291,-54.2176 365.4327,-54.663 367.2538,-54.9833C371.4683,-56.0713 373.305,-56.374 377.2631,-58.0355C378.5761,-58.5866 382.3128,-60.6635 381.0902,-59.9334C363.2909,-49.3046 371.3475,-53.9354 374.1428,-56.7651C374.7627,-57.3926 375.255,-58.1344 375.8111,-58.8191C378.2486,-62.6326 378.3111,-66.0246 376.5942,-70.0879C376.279,-70.8016 374.4627,-74.5447 373.1819,-73.7346C372.9601,-73.5943 372.8477,-73.33 372.6807,-73.1277C392.8977,-84.6564 385.2006,-82.7287 383.2398,-77.11C382.3936,-74.6854 382.2459,-72.3278 382.1295,-69.7816C383.5341,-57.9615 388.7559,-47.0167 393.0457,-36.0346C398.2618,-21.5258 403.2897,-6.47 403.8684,9.092C403.9836,12.189 403.6821,15.2876 403.5889,18.3853C403.1263,21.364 402.8671,24.3813 402.2011,27.3212C400.0287,36.9109 395.0849,45.6892 387.7437,52.2682C386.4496,53.4279 384.9846,54.3816 383.6051,55.4383C378.0848,58.3221 372.8336,61.7934 367.0443,64.0899C364.6445,65.0418 358.8518,63.0561 356.9529,62.2095C349.8949,59.0631 343.7992,53.895 337.8032,49.1621C327.688,40.5031 317.7846,31.4711 308.7355,21.6837C304.0475,16.6133 302.8886,14.9067 298.8166,9.6614C295.3512,3.8792 291.2661,-2.8245 294.6732,-9.6402C296.6895,-13.6737 299.1232,-15.1372 302.5004,-18.074C312.6219,-24.6327 313.4505,-25.3796 328.104,-32.7999C331.6804,-34.6109 343.2136,-38.7065 346.7432,-39.9379C353.7819,-42.3937 361.3514,-44.8267 368.4293,-47.1393C387.0233,-52.5028 405.2349,-59.0355 423.2344,-66.1176C424.7623,-66.7671 426.2923,-67.4118 427.8181,-68.0661C428.9838,-68.566 430.1581,-69.0469 431.3089,-69.5801C433.6612,-70.67 435.8588,-72.019 438.2856,-72.9431C441.5765,-73.4124 442.7308,-69.4505 443.7159,-67.0436C445.9847,-60.9159 447.263,-54.4902 447.8147,-47.9941C447.9509,-45.0837 448.0453,-42.1595 447.6331,-39.2662C447.5909,-38.9704 447.7439,-38.5103 447.473,-38.3842C443.0642,-36.3309 438.4604,-34.7251 433.9541,-32.8956C433.9659,-33.7909 433.9166,-34.689 433.9896,-35.5814C434.0957,-36.8799 434.3191,-38.1662 434.4903,-39.4578C435.49,-46.9958 436.7994,-54.4336 438.3334,-61.8806C439.8884,-68.3767 441.231,-75.18 444.9433,-80.8503C449.1473,-85.2518 458.497,-93.9297 463.0497,-88.879C463.5264,-88.3501 463.8605,-87.7082 464.2658,-87.1228C465.1568,-85.5475 465.9266,-84.351 466.5095,-82.6055C468.1484,-77.6977 468.884,-71.9449 469.7517,-66.8403C470.8843,-62.4227 470.4525,-57.1322 471.7929,-52.8005C473.5655,-57.562 471.775,-52.58 459.0435,-46.5094C458.7853,-46.3863 459.4327,-46.9346 459.5772,-47.1814C459.9087,-47.7474 460.5577,-49.4088 460.8105,-49.919C461.1553,-50.6152 461.549,-51.286 461.9182,-51.9694C464.3127,-55.807 466.3395,-59.8622 468.9779,-63.5425C473.3892,-69.0698 477.5158,-70.2762 485.1519,-74.4725C485.4138,-74.6164 485.7664,-74.5326 486.0475,-74.431C486.4054,-74.3016 486.6836,-74.0129 487.0016,-73.8039C489.988,-70.6628 491.0279,-66.2182 492.0362,-62.1278C492.9125,-57.6742 493.3814,-53.131 495.0104,-48.8712C495.4071,-48.3128 495.7311,-47.6948 496.2004,-47.1959C499.6185,-43.5623 505.2722,-40.8461 509.9343,-39.3687C511.6885,-38.8128 513.4959,-38.4411 515.2767,-37.9773C522.8167,-36.0961 530.3825,-36.0026 537.8823,-38.0643C539.5423,-38.5206 541.2095,-38.9969 542.7819,-39.6981C544.2464,-40.3512 545.5581,-41.3036 546.9463,-42.1064C544.0584,-40.6163 541.3829,-38.6098 538.2826,-37.636C537.087,-37.2605 540.1428,-39.3201 540.9963,-40.2377C543.5122,-42.9425 544.9507,-45.9503 545.9633,-49.4488C546.6579,-52.3622 546.6456,-55.3557 546.5652,-58.3283C545.753,-64.4645 540.332,-58.4252 559.1,-66.0472C559.4417,-66.186 558.8994,-65.3356 558.842,-64.9712C558.7584,-64.4412 558.7327,-63.9037 558.678,-63.37C558.4116,-58.5352 558.3011,-53.6898 558.8385,-48.8729C559.3853,-45.774 559.9781,-42.6077 562.4072,-40.4324C564.1162,-39.3075 565.9299,-39.231 567.8176,-39.8486C572.3605,-42.1411 579.1794,-46.118 558.5218,-34.4558C557.7888,-34.042 559.9393,-35.3644 560.6358,-35.837L574.3857,-41.3039C573.3212,-40.43 573.5147,-40.5201 572.2923,-39.8054C567.6471,-37.0896 561.8948,-32.5533 556.0168,-30.8992C553.7225,-30.6532 551.5833,-31.1524 549.789,-32.6773C547.292,-35.2807 546.4771,-38.6003 545.9205,-42.101C545.3299,-46.9737 545.4484,-51.8684 545.5121,-56.7697C545.5317,-57.4241 545.5891,-59.6985 545.6353,-59.7292C555.3623,-66.1895 558.5071,-72.3046 559.7414,-65.0828C559.8109,-61.9585 559.8144,-58.8161 559.1617,-55.7418C555.9603,-42.9865 547.5064,-40.0804 535.8851,-33.2002C534.4562,-32.4798 533.0874,-31.625 531.5984,-31.0388C522.6477,-27.5147 512.8948,-27.7976 503.6881,-30.0046C501.849,-30.4923 499.9816,-30.8834 498.1708,-31.4678C493.5394,-32.9624 487.0263,-36.1598 483.6105,-39.7531C483.0478,-40.345 482.6426,-41.0688 482.1586,-41.7267C480.5349,-46.0707 480.067,-50.6739 479.2315,-55.2142C478.3895,-58.7321 477.5533,-63.083 474.6465,-65.525C473.9606,-65.439 474.3146,-65.5425 473.6055,-65.1501C477.5343,-67.4822 481.4631,-69.8142 485.392,-72.1463C485.7243,-72.3373 484.7836,-71.6778 484.5048,-71.4148C483.8053,-70.7548 483.2382,-69.9617 482.4827,-69.3567C479.6627,-65.8118 477.6289,-61.7908 475.2736,-57.9352C474.3882,-56.4197 473.6566,-54.9774 473.0931,-53.3151C472.9783,-52.9764 473.1056,-52.4677 472.7992,-52.2834C459.5044,-44.2868 462.4531,-41.0521 458.7423,-45.7121C457.6264,-50.4162 458.1984,-55.4103 457.1115,-60.1366C456.048,-66.7522 455.2298,-73.8382 451.6337,-79.6263C451.0084,-80.3781 450.7399,-81.067 449.7463,-81.2506C449.4773,-81.3003 448.6972,-81.0264 448.9293,-81.1714C452.7843,-83.5799 456.7874,-85.7435 460.684,-88.0841C461.0341,-88.2944 459.9199,-87.7826 459.574,-87.5654C459.1661,-87.3094 458.8163,-86.9709 458.4374,-86.6736C454.0539,-81.4464 452.7319,-74.3891 450.9594,-67.9864C448.9624,-58.7542 447.2481,-49.392 446.9663,-39.9303C442.6611,-37.2917 438.4431,-34.5055 434.0509,-32.0145C433.809,-31.8773 434.2913,-32.5188 434.3689,-32.7859C435.1731,-35.5526 434.9442,-38.4808 434.9437,-41.3192C434.5725,-47.6693 433.3852,-53.9844 430.9595,-59.8902C430.4967,-60.9584 429.6461,-64.0551 428.0273,-64.1645C427.6519,-64.1899 426.9629,-63.8928 426.664,-63.7855C421.876,-61.6536 417.2258,-59.2069 412.2498,-57.5029C394.41,-50.7931 376.4177,-44.5046 358.1221,-39.1385C347.5024,-35.6251 336.8084,-32.2298 326.4071,-28.0958C323.4132,-26.9058 320.6723,-24.9485 317.5147,-24.3088C315.893,-23.9803 323.0914,-27.8472 321.6038,-27.1227C319.4346,-26.0663 317.5039,-24.5777 315.454,-23.3052C311.6254,-20.2317 306.9304,-17.0518 306.0231,-11.7537C305.1302,-6.539 308.4514,-1.7173 310.6976,2.6064C312.0867,4.5044 313.4087,6.4534 314.865,8.3002C324.8107,20.9133 336.9125,31.7349 349.2333,41.9507C355.2776,46.4639 361.4425,51.5105 368.5887,54.2474C370.2378,54.879 371.9681,55.3572 373.7232,55.5527C375.2204,55.7194 379.0476,54.0524 378.2367,55.3221C376.5481,57.9662 373.0607,58.8689 370.4727,60.6424C371.9211,59.6313 373.4539,58.7314 374.818,57.609C382.3953,51.3747 387.7065,42.7683 390.0706,33.2575C390.7888,30.3679 391.0696,27.3869 391.5691,24.4516C391.713,21.3964 392.0786,18.3436 392.0007,15.286C391.6074,-.1509 386.3714,-15.0473 381.0958,-29.3649C376.6203,-40.4339 371.1739,-51.3452 369.2251,-63.2235C369.1596,-66.0352 369.2286,-68.1755 369.9092,-70.8957C369.9473,-71.0478 370.7023,-73.7558 371.0384,-73.9872C375.3553,-76.9602 379.9527,-79.5037 384.4099,-82.2619C384.7489,-82.2349 385.0988,-82.2704 385.4268,-82.1807C387.5325,-81.605 388.5419,-78.9921 389.422,-77.2845C391.2962,-72.8589 391.5534,-68.921 389.1687,-64.5737C388.6277,-63.7989 388.1602,-62.9673 387.5458,-62.2493C383.155,-57.1183 374.373,-53.5169 369.904,-51.0303C365.6297,-48.6519 360.7122,-47.6351 356.0106,-46.5342C354.1284,-46.2519 352.2609,-45.8421 350.3638,-45.6872C343.5879,-45.1342 336.6659,-46.3505 330.8819,-49.9878C330.0515,-50.6505 329.1568,-51.2399 328.3906,-51.9759C325.1513,-55.0883 324.1401,-58.5232 325.2119,-62.8203C326.8277,-67.9581 329.3611,-70.4448 333.6797,-73.6076C342.0135,-78.5311 349.5479,-83.9618 358.9357,-86.2666L347.1504,-77.2549z" stroke="#000" stroke-linecap="round" stroke-linejoin="round" stroke-width="2"/>
<path d="M549.2332,-122.1847C547.4497,-120.0919 546.0244,-117.6969 545.3462,-115.0219C544.8607,-112.3468 546.4564,-111.6609 548.6501,-110.701C552.1989,-109.4013 555.2322,-109.544 558.8667,-110.1867C563.727,-111.8529 571.4457,-116.6009 549.8419,-104.683C549.5386,-104.5156 550.4174,-105.0731 550.6735,-105.3066C551.283,-105.8622 551.3443,-106.0922 551.7431,-106.7885C552.4769,-108.4348 552.405,-109.9757 551.4599,-111.492C550.2026,-112.6833 548.3125,-112.5716 546.6902,-112.6506C545.0147,-112.4957 543.4191,-112.0801 542.057,-111.0753L553.6269,-120.3929C555.2743,-121.0166 556.9597,-121.4107 558.7396,-121.2691C560.8571,-121.0599 562.9403,-120.7594 564.3134,-118.9498C565.4318,-117.0683 565.8738,-115.1231 565.2275,-112.9755C562.8838,-105.9037 553.9818,-103.0447 547.0943,-101.3611C543.4244,-100.8997 539.7964,-101.101 536.3461,-102.5755C533.866,-103.8553 531.6424,-105.4567 532.0181,-108.5614C532.4759,-111.4436 533.8818,-114.0254 535.5706,-116.3799L549.2332,-122.1847z" stroke="#000" stroke-linecap="round" stroke-linejoin="round" stroke-width="2"/>
<path d="M359.6057,-86.1453C362.4187,-87.5125 365.103,-89.129 368.0047,-90.3079C369.8229,-91.4887 371.8175,-92.0343 373.9447,-92.2669C375.9013,-92.4156 377.8658,-92.3906 379.8266,-92.3838C381.7726,-92.5908 383.4211,-92.0588 385.1306,-91.2244C386.3272,-90.2653 387.2717,-88.9911 388.1806,-87.7589C388.971,-86.3232 389.4355,-84.7124 389.9217,-83.1481C390.3578,-81.5453 390.9514,-80.0138 391.2655,-78.376C391.5681,-76.4533 391.5887,-74.5022 391.6123,-72.5605C391.6209,-71.5593 391.6196,-70.5581 391.6191,-69.5568L378.4016,-62.8239C378.4031,-63.8201 378.4051,-64.8163 378.4006,-65.8125C378.3869,-67.6761 378.3836,-69.5468 378.1492,-71.3987C377.8884,-72.9952 377.3044,-74.4635 376.8794,-76.0128C376.4669,-77.4199 376.0218,-78.8533 375.3829,-80.165C374.6051,-81.185 373.8481,-82.3496 372.73,-83.0103C371.1597,-83.6924 369.5221,-83.7365 367.825,-83.6633C365.9059,-83.6547 363.9742,-83.6641 362.0745,-83.3541C360.0654,-82.9292 358.2552,-82.0648 356.4262,-81.1471C353.5803,-79.8236 350.8275,-78.3064 348.069,-76.8116L359.6057,-86.1453z" stroke="#000" stroke-linecap="round" stroke-linejoin="round" stroke-width="2"/>
</g>
<path d="M61.976,44.7472H248.8542A15.9099,15.9099 0 0 1 264.7641,60.6571V60.6571A15.9099,15.9099 0 0 1 248.8542,76.567H61.976A15.9099,15.9099 0 0 1 46.0661,60.6571V60.6571A15.9099,15.9099 0 0 1 61.976,44.7472z" fill="#fff" stroke="#000" stroke-linecap="round" stroke-linejoin="round" stroke-width="4"/>
<path d="M101.5203,44.9288A36.8706,34.8503 0 1 1 27.7792,44.9288A36.8706,34.8503 0 1 1 101.5203,44.9288z" stroke="#000" stroke-linecap="round" stroke-linejoin="round" stroke-width="7.491" transform="matrix(.7121,0,0,.7121,.7797,22.37009)"/>
<text font-family="Bitstream Vera Sans" font-size="40" x="22.429" y="68.4046">
   <tspan fill="#f9f9f9" x="22.429" y="68.4046">13</tspan>
  </text>
<text font-family="Bitstream Vera Sans" font-size="20" x="125.2189" y="66.529">
   <tspan x="125.2189" y="66.529">Metro</tspan>
  </text>
<g transform="translate(22.2234,23.2335)">
<path d="M89.5565,122.6012H153.8903A15.9248,15.9248 0 0 1 169.815,138.5259V341.2506A15.9248,15.9248 0 0 1 153.8903,357.1753H89.5565A15.9248,15.9248 0 0 1 73.6318,341.2506V138.5259A15.9248,15.9248 0 0 1 89.5565,122.6012z" fill="#fff" stroke="#000" stroke-linecap="round" stroke-linejoin="round" stroke-width="3.6722"/>
<path d="M187.0362,123.6113H251.37A15.9248,15.9248 0 0 1 267.2947,139.5361V342.2608A15.9248,15.9248 0 0 1 251.37,358.1855H187.0362A15.9248,15.9248 0 0 1 171.1115,342.2608V139.5361A15.9248,15.9248 0 0 1 187.0362,123.6113z" fill="#fff" stroke="#000" stroke-linecap="round" stroke-linejoin="round" stroke-width="3.6722"/>
<path d="M203.377,138.9019H237.1603A8.3625,8.3625 0 0 1 245.5228,147.2644V253.7203A8.3625,8.3625 0 0 1 237.1603,262.0828H203.377A8.3625,8.3625 0 0 1 195.0145,253.7203V147.2644A8.3625,8.3625 0 0 1 203.377,138.9019z" fill="#fff" stroke="#000" stroke-linecap="round" stroke-linejoin="round" stroke-width="1.9284"/>
<path d="M103.3165,138.9019H137.0998A8.3625,8.3625 0 0 1 145.4623,147.2644V253.7203A8.3625,8.3625 0 0 1 137.0998,262.0828H103.3165A8.3625,8.3625 0 0 1 94.954,253.7203V147.2644A8.3625,8.3625 0 0 1 103.3165,138.9019z" fill="#fff" stroke="#000" stroke-linecap="round" stroke-linejoin="round" stroke-width="1.9284"/>
</g>
<g transform="matrix(.8003,0,0,.8003,147.56033,25.03826)">
<path d="M-43.5297,288.8057L-43.5297,336.6941C-43.5297,356.7011-59.6364,372.8078-79.6434,372.8078L-115.0774,372.8078C-135.0844,372.8078-151.1912,356.7011-151.1912,336.6941L-151.1912,288.8057" fill="#fff" stroke="#000" stroke-linecap="round" stroke-linejoin="round" stroke-width="3.6422"/>
<path d="M-122.1431,308.6171H-98.6091A.7803,.7803 0 0 1 -97.8288,309.3974V319.4235A.7803,.7803 0 0 1 -98.6091,320.2038H-122.1431A.7803,.7803 0 0 1 -122.9234,319.4235V309.3974A.7803,.7803 0 0 1 -122.1431,308.6171z" stroke="#000" stroke-linecap="square" stroke-linejoin="round" stroke-width="3.7338"/>
<path d="M-80.7522,308.6171H-60.3393A2.3409,2.3409 0 0 1 -57.9985,310.958V317.8629A2.3409,2.3409 0 0 1 -60.3393,320.2038H-80.7522A2.3409,2.3409 0 0 1 -83.093,317.8629V310.958A2.3409,2.3409 0 0 1 -80.7522,308.6171z" stroke="#000" stroke-linecap="square" stroke-linejoin="round" stroke-width="3.7338"/>
<path d="M-148.8829,313.6717C-148.3338,313.6822-147.7844,313.6785-147.2351,313.6758C-146.8722,313.6736-146.5092,313.6722-146.1462,313.6715C-145.8537,313.6711-145.5613,313.6711-145.2688,313.6711C-144.9647,313.6705-144.6607,313.6717-144.3567,313.6723C-143.966,313.6626-143.5814,313.6719-143.1947,313.723C-142.7951,313.7775-142.3916,313.7947-141.9885,313.8057C-141.5833,313.7899-141.1856,313.8646-140.7845,313.9048C-140.3766,313.9415-139.9665,313.9454-139.5571,313.9498C-139.1269,313.9521-138.6968,313.9519-138.2666,313.9504C-137.893,313.9497-137.5194,313.9491-137.1458,313.9482C-136.8388,313.9474-136.5318,313.9472-136.2247,313.9471C-135.9332,313.947-135.6418,313.947-135.3502,313.947C-135.0587,313.947-134.7672,313.947-134.4756,313.947C-134.1569,313.9467-133.8382,313.9476-133.5196,313.949C-133.1253,313.9514-132.731,313.9494-132.3367,313.9484C-131.9659,313.9481-131.595,313.9488-131.2241,313.9499C-130.8274,313.9497-130.4307,313.9498-130.0339,313.9488C-129.654,313.949-129.274,313.9495-128.894,313.949C-128.5484,313.9477-128.2029,313.9475-127.8573,313.9492C-127.3241,313.9518-126.7909,313.9534-126.2577,313.9553C-125.5311,313.9581-124.8045,313.9587-124.0778,313.9563C-123.5446,313.9549-123.0113,313.9511-122.4781,313.9509C-122.0368,313.9515-121.5955,313.9508-121.1542,313.9493C-121.0931,313.9491-121.032,313.949-120.9709,313.9488L-122.7169,315.1481C-122.7774,315.1478-122.8379,315.1476-122.8984,315.1474C-123.3383,315.1459-123.7781,315.1453-124.218,315.1459C-124.7459,315.1457-125.2739,315.1418-125.8018,315.1405C-126.5294,315.1381-127.2571,315.1387-127.9846,315.1415C-128.5238,315.1434-129.0628,315.145-129.6019,315.1476C-129.9477,315.1493-130.2936,315.1491-130.6394,315.1478C-131.0195,315.1473-131.3996,315.1478-131.7797,315.148C-132.1754,315.147-132.5711,315.1471-132.9668,315.1469C-133.3391,315.1479-133.7115,315.1487-134.0838,315.1484C-134.4775,315.1474-134.8712,315.1454-135.2648,315.1478C-135.5854,315.1492-135.9059,315.1501-136.2265,315.1497C-136.5181,315.1497-136.8096,315.1497-137.1012,315.1497C-137.3926,315.1497-137.684,315.1497-137.9755,315.1497C-138.2815,315.1495-138.5875,315.1493-138.8935,315.1487C-139.2655,315.148-139.6375,315.1479-140.0095,315.1478C-140.4397,315.147-140.8698,315.1485-141.3,315.1437C-141.7147,315.1381-142.1302,315.1292-142.5427,315.0843C-142.9395,315.0397-143.3348,314.9871-143.7358,314.9973C-144.1436,314.9822-144.5506,314.9538-144.955,314.9006C-145.3371,314.8601-145.7204,314.8714-146.1043,314.8727C-146.4095,314.8733-146.7146,314.8745-147.0198,314.8739C-147.3119,314.8739-147.604,314.8739-147.8961,314.8735C-148.255,314.8728-148.6138,314.8714-148.9726,314.8693C-149.5259,314.8665-150.0792,314.863-150.6323,314.8733L-148.8829,313.6717z" stroke="#000" stroke-linecap="square" stroke-linejoin="round" stroke-width=".4767"/>
<path d="M-57.3881,313.9484C-56.6843,313.9602-55.9802,313.9586-55.2763,313.9581C-54.631,313.9572-53.9858,313.9554-53.3406,313.9525C-52.9094,313.9502-52.4782,313.9501-52.047,313.9495C-51.7073,313.9487-51.3675,313.9479-51.0277,313.9474C-50.7309,313.9691-50.4456,313.8899-50.1539,313.8518C-49.8613,313.8177-49.5662,313.8128-49.2718,313.8093C-48.9796,313.8072-48.6875,313.8081-48.3953,313.8085C-48.1035,313.8089-47.8117,313.809-47.5199,313.8091C-47.2282,313.8091-46.9364,313.8091-46.6446,313.8091C-46.3528,313.8091-46.061,313.8091-45.7692,313.8091C-45.4559,313.8085-45.1426,313.8102-44.8294,313.8103C-44.5121,313.81-44.1949,313.8096-43.8776,313.8093C-43.5838,313.8091-43.29,313.8091-42.9962,313.8091C-42.8018,313.8091-42.899,313.8091-42.7047,313.8091L-44.4556,315.0118C-44.6499,315.0118-44.5527,315.0118-44.7471,315.0118C-45.0407,315.0118-45.3343,315.0118-45.6279,315.0116C-45.9442,315.0113-46.2606,315.0109-46.577,315.0106C-46.8913,315.0107-47.2057,315.0124-47.5201,315.0118C-47.8119,315.0118-48.1037,315.0118-48.3955,315.0118C-48.6873,315.0118-48.9791,315.0118-49.2709,315.0117C-49.5627,315.0115-49.8545,315.0113-50.1463,315.011C-50.4376,315.0107-50.7289,315.0099-51.0202,315.0153C-51.3095,315.0227-51.5993,315.0348-51.8855,315.0788C-52.1815,315.1241-52.476,315.1695-52.7776,315.1494C-53.1153,315.1489-53.453,315.1481-53.7908,315.1473C-54.219,315.1467-54.6473,315.1466-55.0755,315.1442C-55.7153,315.1413-56.3552,315.1395-56.995,315.1387C-57.7084,315.1382-58.4219,315.1368-59.1352,315.1484L-57.3881,313.9484z" stroke="#000" stroke-linecap="square" stroke-linejoin="round" stroke-width=".4767"/>
<path d="M-97.681,314.1116C-97.1471,314.1792-96.6084,314.2005-96.0705,314.2165C-95.5904,314.228-95.1101,314.228-94.63,314.2268C-94.2335,314.2263-93.8371,314.2261-93.4407,314.2252C-92.6449,314.2456-91.8487,314.2356-91.0528,314.2319C-90.5718,314.2284-90.0909,314.2269-89.6099,314.225C-89.2264,314.225-88.8429,314.2245-88.4594,314.2256C-88.0562,314.2268-87.653,314.2246-87.2498,314.2253C-86.886,314.2244-86.5221,314.2245-86.1583,314.2246C-85.794,314.2251-85.4296,314.2248-85.0652,314.2241C-84.7171,314.2253-84.3691,314.2242-84.021,314.2236C-83.6805,314.2251-83.3399,314.2241-82.9994,314.2236C-82.6986,314.2232-82.3977,314.223-82.0969,314.223C-81.8453,314.2815-81.5923,314.3235-81.3342,314.3439C-81.0543,314.3611-80.7736,314.3611-80.4933,314.3619C-80.2016,314.3621-79.9099,314.3615-79.6182,314.3612C-79.4722,314.3611-79.3262,314.361-79.1802,314.361L-80.931,315.5637C-81.077,315.5638-81.223,315.5639-81.369,315.564C-81.661,315.5644-81.953,315.5651-82.245,315.5636C-82.5302,315.5612-82.816,315.5587-83.0999,315.5305C-83.3505,315.5012-83.5959,315.4409-83.8477,315.4256C-84.1479,315.4255-84.4481,315.4254-84.7483,315.4249C-85.0888,315.4245-85.4293,315.4235-85.7698,315.4249C-86.1175,315.4243-86.4651,315.4233-86.8128,315.4244C-87.1766,315.4237-87.5405,315.4234-87.9044,315.4239C-88.2676,315.4241-88.6307,315.4241-88.9939,315.4233C-89.3968,315.4239-89.7997,315.4217-90.2026,315.423C-90.5867,315.424-90.9708,315.4235-91.3549,315.4236C-91.8291,315.4216-92.3032,315.4202-92.7774,315.4166C-93.5801,315.4129-94.3831,315.4034-95.1857,315.424C-95.5815,315.4235-95.9772,315.4244-96.373,315.4236C-96.8515,315.4207-97.33,315.417-97.8082,315.401C-98.3559,315.3799-98.9029,315.3472-99.4483,315.2941L-97.681,314.1116z" stroke="#000" stroke-linecap="square" stroke-linejoin="round" stroke-width=".4767"/>
<path d="M-136.1855,276.2983L-136.1855,294.8415" fill="none" stroke="#000" stroke-linecap="round" stroke-width="4.8046"/>
<path d="M-126.6615,274.544L-126.6615,293.0872" fill="none" stroke="#000" stroke-linecap="round" stroke-width="4.8046"/>
<path d="M-117.7245,276.0083L-117.7245,294.5515" fill="none" stroke="#000" stroke-linecap="round" stroke-width="4.8046"/>
<path d="M-106.0478,274.841L-106.0478,293.3843" fill="none" stroke="#000" stroke-linecap="round" stroke-width="4.8046"/>
<path d="M-95.8892,277.0276L-95.8892,295.5709" fill="none" stroke="#000" stroke-linecap="round" stroke-width="4.8046"/>
<path d="M-84.2599,276.8522L-84.2599,295.3955" fill="none" stroke="#000" stroke-linecap="round" stroke-width="4.8046"/>
<path d="M-73.7574,275.1381L-73.7574,293.6813" fill="none" stroke="#000" stroke-linecap="round" stroke-width="4.8046"/>
<path d="M-63.8419,278.175L-63.8419,296.7182" fill="none" stroke="#000" stroke-linecap="round" stroke-width="4.8046"/>
<path d="M-53.169,277.8063L-53.169,296.3495" fill="none" stroke="#000" stroke-linecap="round" stroke-width="4.8046"/>
<path d="M-105.8017,352.8807L-78.6788,348.4525" fill="none" stroke="#000" stroke-width=".7749"/>
<path d="M-144.0697,281.0285L-144.0697,299.5717" fill="none" stroke="#000" stroke-linecap="round" stroke-width="4.8046"/>
</g>
<path d="M27.7792,319.6903H104.5508A7.5761,7.5761 0 0 1 112.1269,327.2665V327.2665A7.5761,7.5761 0 0 1 104.5508,334.8426H27.7792A7.5761,7.5761 0 0 1 20.2031,327.2665V327.2665A7.5761,7.5761 0 0 1 27.7792,319.6903z" fill="#fff" stroke="#000" stroke-linecap="round" stroke-linejoin="round" stroke-width="3.891"/>
<text font-family="Bitstream Vera Sans" font-size="20" x="148.4924" y="109.5786">
   <tspan text-align="center" text-anchor="middle" x="148.4924" y="109.5786">Il se passe jamais rien</tspan>
   <tspan text-align="center" text-anchor="middle" x="148.4924" y="134.5786">dans le métro...</tspan>
  </text>
<path d="M67.6802,160.0862L64.6498,225.7461" fill="none" stroke="#000"/>
<g transform="translate(591.6969,23.2721)">
<path d="M89.5565,122.6012H153.8903A15.9248,15.9248 0 0 1 169.815,138.5259V341.2506A15.9248,15.9248 0 0 1 153.8903,357.1753H89.5565A15.9248,15.9248 0 0 1 73.6318,341.2506V138.5259A15.9248,15.9248 0 0 1 89.5565,122.6012z" fill="#fff" stroke="#000" stroke-linecap="round" stroke-linejoin="round" stroke-width="3.6722"/>
<path d="M187.0362,123.6113H251.37A15.9248,15.9248 0 0 1 267.2947,139.5361V342.2608A15.9248,15.9248 0 0 1 251.37,358.1855H187.0362A15.9248,15.9248 0 0 1 171.1115,342.2608V139.5361A15.9248,15.9248 0 0 1 187.0362,123.6113z" fill="#fff" stroke="#000" stroke-linecap="round" stroke-linejoin="round" stroke-width="3.6722"/>
<path d="M203.377,138.9019H237.1603A8.3625,8.3625 0 0 1 245.5228,147.2644V253.7203A8.3625,8.3625 0 0 1 237.1603,262.0828H203.377A8.3625,8.3625 0 0 1 195.0145,253.7203V147.2644A8.3625,8.3625 0 0 1 203.377,138.9019z" fill="#fff" stroke="#000" stroke-linecap="round" stroke-linejoin="round" stroke-width="1.9284"/>
<path d="M103.3165,138.9019H137.0998A8.3625,8.3625 0 0 1 145.4623,147.2644V253.7203A8.3625,8.3625 0 0 1 137.0998,262.0828H103.3165A8.3625,8.3625 0 0 1 94.954,253.7203V147.2644A8.3625,8.3625 0 0 1 103.3165,138.9019z" fill="#fff" stroke="#000" stroke-linecap="round" stroke-linejoin="round" stroke-width="1.9284"/>
</g>
<path d="M682.1969,254.2091L682.1969,292.5344C682.1969,308.5461 669.3066,321.4364 653.2949,321.4364L624.9369,321.4364C608.9252,321.4364 596.035,308.5461 596.035,292.5344L596.035,254.2091" fill="#fff" stroke="#000" stroke-linecap="round" stroke-linejoin="round" stroke-width="2.9149"/>
<path d="M619.2822,270.0643H638.1165A.6245,.6245 0 0 1 638.741,270.6888V278.7127A.6245,.6245 0 0 1 638.1165,279.3371H619.2822A.6245,.6245 0 0 1 618.6577,278.7127V270.6888A.6245,.6245 0 0 1 619.2822,270.0643z" stroke="#000" stroke-linecap="square" stroke-linejoin="round" stroke-width="2.9882"/>
<path d="M652.4075,270.0643H668.744A1.8734,1.8734 0 0 1 670.6174,271.9377V277.4637A1.8734,1.8734 0 0 1 668.744,279.3371H652.4075A1.8734,1.8734 0 0 1 650.5341,277.4637V271.9377A1.8734,1.8734 0 0 1 652.4075,270.0643z" stroke="#000" stroke-linecap="square" stroke-linejoin="round" stroke-width="2.9882"/>
<path d="M597.8822,274.1095C598.3218,274.1179 598.7614,274.1149 599.201,274.1128C599.4915,274.111 599.782,274.1099 600.0724,274.1094C600.3065,274.109 600.5406,274.1091 600.7747,274.1091C601.018,274.1085 601.2613,274.1095 601.5047,274.11C601.8173,274.1022 602.1251,274.1097 602.4346,274.1506C602.7544,274.1942 603.0773,274.2079 603.3999,274.2167C603.7242,274.2041 604.0425,274.2639 604.3635,274.296C604.6899,274.3254 605.0181,274.3286 605.3458,274.332C605.69,274.3339 606.0343,274.3338 606.3785,274.3326C606.6775,274.332 606.9765,274.3315 607.2755,274.3308C607.5212,274.3302 607.7669,274.33 608.0127,274.3299C608.2459,274.3298 608.4792,274.3298 608.7125,274.3299C608.9458,274.3299 609.1792,274.3299 609.4125,274.3299C609.6675,274.3295 609.9226,274.3303 610.1776,274.3314C610.4932,274.3333 610.8087,274.3318 611.1242,274.3309C611.4211,274.3307 611.7179,274.3313 612.0147,274.3321C612.3322,274.332 612.6497,274.332 612.9672,274.3313C613.2713,274.3314 613.5754,274.3318 613.8794,274.3314C614.156,274.3304 614.4326,274.3302 614.7092,274.3316C615.1359,274.3337 615.5626,274.3349 615.9893,274.3365C616.5708,274.3387 617.1524,274.3392 617.7339,274.3372C618.1606,274.3362 618.5874,274.3331 619.0141,274.3329C619.3673,274.3334 619.7205,274.3329 620.0737,274.3317C620.1226,274.3315 620.1715,274.3314 620.2204,274.3312L618.823,275.291C618.7746,275.2909 618.7262,275.2907 618.6778,275.2905C618.3257,275.2893 617.9737,275.2888 617.6217,275.2893C617.1992,275.2892 616.7767,275.2861 616.3542,275.285C615.7719,275.283 615.1895,275.2835 614.6072,275.2858C614.1758,275.2873 613.7444,275.2886 613.3129,275.2906C613.0362,275.292 612.7594,275.2919 612.4827,275.2908C612.1784,275.2904 611.8742,275.2908 611.57,275.291C611.2533,275.2902 610.9367,275.2903 610.62,275.2901C610.322,275.2909 610.024,275.2915 609.726,275.2913C609.411,275.2905 609.0959,275.2889 608.7809,275.2908C608.5244,275.2919 608.2678,275.2927 608.0112,275.2924C607.7779,275.2924 607.5446,275.2924 607.3112,275.2924C607.078,275.2924 606.8448,275.2924 606.6115,275.2923C606.3667,275.2922 606.1218,275.292 605.8769,275.2915C605.5791,275.291 605.2814,275.2909 604.9837,275.2908C604.6394,275.2902 604.2952,275.2914 603.9509,275.2876C603.619,275.2831 603.2865,275.276 602.9564,275.24C602.6388,275.2043 602.3225,275.1622 602.0015,275.1704C601.6752,275.1583 601.3494,275.1356 601.0258,275.093C600.72,275.0606 600.4132,275.0696 600.106,275.0707C599.8618,275.0711 599.6176,275.0721 599.3733,275.0716C599.1396,275.0716 598.9058,275.0716 598.672,275.0713C598.3848,275.0708 598.0977,275.0696 597.8105,275.0679C597.3677,275.0657 596.9249,275.0629 596.4822,275.0712L597.8822,274.1095z" stroke="#000" stroke-linecap="square" stroke-linejoin="round" stroke-width=".3815"/>
<path d="M671.1059,274.3309C671.6692,274.3404 672.2327,274.3391 672.796,274.3387C673.3124,274.338 673.8288,274.3366 674.3451,274.3342C674.6902,274.3324 675.0353,274.3323 675.3804,274.3318C675.6523,274.3312 675.9243,274.3305 676.1962,274.3301C676.4337,274.3475 676.662,274.2841 676.8955,274.2536C677.1297,274.2264 677.3658,274.2224 677.6014,274.2196C677.8352,274.2179 678.069,274.2187 678.3029,274.219C678.5364,274.2193 678.7699,274.2194 679.0034,274.2194C679.2369,274.2195 679.4705,274.2195 679.704,274.2195C679.9375,274.2195 680.171,274.2195 680.4046,274.2195C680.6553,274.219 680.906,274.2203 681.1567,274.2204C681.4106,274.2202 681.6645,274.2198 681.9184,274.2196C682.1535,274.2195 682.3887,274.2195 682.6238,274.2195C682.7794,274.2195 682.7016,274.2195 682.8571,274.2195L681.4558,275.182C681.3003,275.182 681.3781,275.182 681.2226,275.182C680.9876,275.182 680.7526,275.1819 680.5177,275.1818C680.2645,275.1816 680.0113,275.1813 679.7581,275.1811C679.5065,275.1811 679.2549,275.1825 679.0033,275.182C678.7698,275.182 678.5363,275.182 678.3027,275.182C678.0692,275.182 677.8357,275.182 677.6022,275.1819C677.3686,275.1818 677.1351,275.1816 676.9015,275.1813C676.6684,275.1811 676.4353,275.1805 676.2022,275.1848C675.9706,275.1907 675.7387,275.2004 675.5097,275.2356C675.2727,275.2718 675.0371,275.3082 674.7957,275.2921C674.5254,275.2917 674.2552,275.291 673.9849,275.2904C673.6421,275.29 673.2994,275.2899 672.9567,275.288C672.4446,275.2856 671.9326,275.2842 671.4205,275.2835C670.8496,275.2831 670.2786,275.282 669.7077,275.2913L671.1059,274.3309z" stroke="#000" stroke-linecap="square" stroke-linejoin="round" stroke-width=".3815"/>
<path d="M638.8594,274.4615C639.2867,274.5156 639.7178,274.5327 640.1482,274.5455C640.5325,274.5547 640.9168,274.5548 641.3011,274.5537C641.6184,274.5533 641.9356,274.5532 642.2529,274.5524C642.8897,274.5688 643.527,274.5608 644.164,274.5579C644.5489,274.555 644.9338,274.5539 645.3187,274.5523C645.6256,274.5523 645.9325,274.5519 646.2395,274.5528C646.5621,274.5538 646.8848,274.552 647.2075,274.5525C647.4987,274.5518 647.7898,274.5519 648.081,274.552C648.3726,274.5524 648.6642,274.5521 648.9558,274.5516C649.2344,274.5525 649.5129,274.5517 649.7915,274.5512C650.064,274.5523 650.3366,274.5516 650.6091,274.5512C650.8499,274.5508 651.0906,274.5507 651.3313,274.5507C651.5327,274.5975 651.7352,274.6312 651.9418,274.6474C652.1658,274.6612 652.3904,274.6612 652.6148,274.6619C652.8482,274.662 653.0816,274.6615 653.3151,274.6613C653.4319,274.6612 653.5488,274.6612 653.6656,274.6611L652.2644,275.6237C652.1476,275.6237 652.0308,275.6238 651.9139,275.6239C651.6802,275.6242 651.4465,275.6248 651.2128,275.6236C650.9846,275.6217 650.7559,275.6196 650.5286,275.5971C650.3281,275.5736 650.1317,275.5254 649.9302,275.5131C649.6899,275.5131 649.4497,275.513 649.2094,275.5126C648.9369,275.5122 648.6644,275.5115 648.3919,275.5126C648.1137,275.5121 647.8355,275.5113 647.5572,275.5122C647.266,275.5116 646.9748,275.5114 646.6836,275.5118C646.393,275.5119 646.1023,275.512 645.8116,275.5113C645.4892,275.5118 645.1668,275.51 644.8444,275.511C644.537,275.5118 644.2295,275.5115 643.9221,275.5115C643.5427,275.5099 643.1632,275.5088 642.7837,275.5059C642.1413,275.503 641.4987,275.4954 640.8564,275.5118C640.5396,275.5115 640.2229,275.5122 639.9062,275.5115C639.5232,275.5092 639.1403,275.5062 638.7575,275.4935C638.3192,275.4765 637.8814,275.4504 637.445,275.4079L638.8594,274.4615z" stroke="#000" stroke-linecap="square" stroke-linejoin="round" stroke-width=".3815"/>
<path d="M608.0441,244.1994L608.0441,259.0396" fill="none" stroke="#000" stroke-linecap="round" stroke-width="3.8452"/>
<path d="M615.6662,242.7954L615.6662,257.6356" fill="none" stroke="#000" stroke-linecap="round" stroke-width="3.8452"/>
<path d="M622.8184,243.9673L622.8184,258.8075" fill="none" stroke="#000" stroke-linecap="round" stroke-width="3.8452"/>
<path d="M632.1634,243.0332L632.1634,257.8734" fill="none" stroke="#000" stroke-linecap="round" stroke-width="3.8452"/>
<path d="M640.2934,244.7831L640.2934,259.6233" fill="none" stroke="#000" stroke-linecap="round" stroke-width="3.8452"/>
<path d="M649.6003,244.6428L649.6003,259.483" fill="none" stroke="#000" stroke-linecap="round" stroke-width="3.8452"/>
<path d="M658.0055,243.2709L658.0055,258.1111" fill="none" stroke="#000" stroke-linecap="round" stroke-width="3.8452"/>
<path d="M665.9409,245.7013L665.9409,260.5416" fill="none" stroke="#000" stroke-linecap="round" stroke-width="3.8452"/>
<path d="M674.4825,245.4063L674.4825,260.2465" fill="none" stroke="#000" stroke-linecap="round" stroke-width="3.8452"/>
<path d="M601.7343,247.985L601.7343,262.8252" fill="none" stroke="#000" stroke-linecap="round" stroke-width="3.8452"/>
<path d="M601.2527,319.7289H678.0243A7.5761,7.5761 0 0 1 685.6005,327.3051V327.3051A7.5761,7.5761 0 0 1 678.0243,334.8812H601.2527A7.5761,7.5761 0 0 1 593.6766,327.3051V327.3051A7.5761,7.5761 0 0 1 601.2527,319.7289z" fill="#fff" stroke="#000" stroke-linecap="round" stroke-linejoin="round" stroke-width="3.891"/>
<path d="M637.1537,158.1248L634.1233,223.7847" fill="none" stroke="#000"/>
<path d="M589.9494,384.5084L554.8802,384.5084C546.0579,384.5084 538.9554,377.406 538.9554,368.5836L538.9554,165.859C538.9554,157.0367 546.0579,149.9342 554.8802,149.9342L589.4443,149.9342" fill="#fff" stroke="#000" stroke-linecap="round" stroke-linejoin="round" stroke-width="3.6722"/>
<path d="M569.221,165.2247L589.9697,165.2247L590.4748,288.4056L569.221,288.4056C564.5882,288.4056 560.8585,284.676 560.8585,280.0432L560.8585,173.5872C560.8585,168.9544 564.5882,165.2247 569.221,165.2247z" fill="#fff" stroke="#000" stroke-linecap="round" stroke-linejoin="round" stroke-width="1.9284"/>
<g transform="translate(-70)">
<path d="M397.4005,148.9241H461.7343A15.9248,15.9248 0 0 1 477.659,164.8488V367.5735A15.9248,15.9248 0 0 1 461.7343,383.4982H397.4005A15.9248,15.9248 0 0 1 381.4757,367.5735V164.8488A15.9248,15.9248 0 0 1 397.4005,148.9241z" fill="#fff" stroke="#000" stroke-linecap="round" stroke-linejoin="round" stroke-width="3.6722"/>
<path d="M411.1605,165.2248H444.9438A8.3625,8.3625 0 0 1 453.3063,173.5872V280.0432A8.3625,8.3625 0 0 1 444.9438,288.4057H411.1605A8.3625,8.3625 0 0 1 402.798,280.0432V173.5872A8.3625,8.3625 0 0 1 411.1605,165.2248z" fill="#fff" stroke="#000" stroke-linecap="round" stroke-linejoin="round" stroke-width="1.9284"/>
</g>
<g transform="matrix(.8003,0,0,.8003,421.18096,28.12763)">
<path d="M-43.5297,288.8057L-43.5297,336.6941C-43.5297,356.7011-59.6364,372.8078-79.6434,372.8078L-115.0774,372.8078C-135.0844,372.8078-151.1912,356.7011-151.1912,336.6941L-151.1912,288.8057" fill="#fff" stroke="#000" stroke-linecap="round" stroke-linejoin="round" stroke-width="3.6422"/>
<path d="M-122.1431,308.6171H-98.6091A.7803,.7803 0 0 1 -97.8288,309.3974V319.4235A.7803,.7803 0 0 1 -98.6091,320.2038H-122.1431A.7803,.7803 0 0 1 -122.9234,319.4235V309.3974A.7803,.7803 0 0 1 -122.1431,308.6171z" stroke="#000" stroke-linecap="square" stroke-linejoin="round" stroke-width="3.7338"/>
<path d="M-80.7522,308.6171H-60.3393A2.3409,2.3409 0 0 1 -57.9985,310.958V317.8629A2.3409,2.3409 0 0 1 -60.3393,320.2038H-80.7522A2.3409,2.3409 0 0 1 -83.093,317.8629V310.958A2.3409,2.3409 0 0 1 -80.7522,308.6171z" stroke="#000" stroke-linecap="square" stroke-linejoin="round" stroke-width="3.7338"/>
<path d="M-148.8829,313.6717C-148.3338,313.6822-147.7844,313.6785-147.2351,313.6758C-146.8722,313.6736-146.5092,313.6722-146.1462,313.6715C-145.8537,313.6711-145.5613,313.6711-145.2688,313.6711C-144.9647,313.6705-144.6607,313.6717-144.3567,313.6723C-143.966,313.6626-143.5814,313.6719-143.1947,313.723C-142.7951,313.7775-142.3916,313.7947-141.9885,313.8057C-141.5833,313.7899-141.1856,313.8646-140.7845,313.9048C-140.3766,313.9415-139.9665,313.9454-139.5571,313.9498C-139.1269,313.9521-138.6968,313.9519-138.2666,313.9504C-137.893,313.9497-137.5194,313.9491-137.1458,313.9482C-136.8388,313.9474-136.5318,313.9472-136.2247,313.9471C-135.9332,313.947-135.6418,313.947-135.3502,313.947C-135.0587,313.947-134.7672,313.947-134.4756,313.947C-134.1569,313.9467-133.8382,313.9476-133.5196,313.949C-133.1253,313.9514-132.731,313.9494-132.3367,313.9484C-131.9659,313.9481-131.595,313.9488-131.2241,313.9499C-130.8274,313.9497-130.4307,313.9498-130.0339,313.9488C-129.654,313.949-129.274,313.9495-128.894,313.949C-128.5484,313.9477-128.2029,313.9475-127.8573,313.9492C-127.3241,313.9518-126.7909,313.9534-126.2577,313.9553C-125.5311,313.9581-124.8045,313.9587-124.0778,313.9563C-123.5446,313.9549-123.0113,313.9511-122.4781,313.9509C-122.0368,313.9515-121.5955,313.9508-121.1542,313.9493C-121.0931,313.9491-121.032,313.949-120.9709,313.9488L-122.7169,315.1481C-122.7774,315.1478-122.8379,315.1476-122.8984,315.1474C-123.3383,315.1459-123.7781,315.1453-124.218,315.1459C-124.7459,315.1457-125.2739,315.1418-125.8018,315.1405C-126.5294,315.1381-127.2571,315.1387-127.9846,315.1415C-128.5238,315.1434-129.0628,315.145-129.6019,315.1476C-129.9477,315.1493-130.2936,315.1491-130.6394,315.1478C-131.0195,315.1473-131.3996,315.1478-131.7797,315.148C-132.1754,315.147-132.5711,315.1471-132.9668,315.1469C-133.3391,315.1479-133.7115,315.1487-134.0838,315.1484C-134.4775,315.1474-134.8712,315.1454-135.2648,315.1478C-135.5854,315.1492-135.9059,315.1501-136.2265,315.1497C-136.5181,315.1497-136.8096,315.1497-137.1012,315.1497C-137.3926,315.1497-137.684,315.1497-137.9755,315.1497C-138.2815,315.1495-138.5875,315.1493-138.8935,315.1487C-139.2655,315.148-139.6375,315.1479-140.0095,315.1478C-140.4397,315.147-140.8698,315.1485-141.3,315.1437C-141.7147,315.1381-142.1302,315.1292-142.5427,315.0843C-142.9395,315.0397-143.3348,314.9871-143.7358,314.9973C-144.1436,314.9822-144.5506,314.9538-144.955,314.9006C-145.3371,314.8601-145.7204,314.8714-146.1043,314.8727C-146.4095,314.8733-146.7146,314.8745-147.0198,314.8739C-147.3119,314.8739-147.604,314.8739-147.8961,314.8735C-148.255,314.8728-148.6138,314.8714-148.9726,314.8693C-149.5259,314.8665-150.0792,314.863-150.6323,314.8733L-148.8829,313.6717z" stroke="#000" stroke-linecap="square" stroke-linejoin="round" stroke-width=".4767"/>
<path d="M-57.3881,313.9484C-56.6843,313.9602-55.9802,313.9586-55.2763,313.9581C-54.631,313.9572-53.9858,313.9554-53.3406,313.9525C-52.9094,313.9502-52.4782,313.9501-52.047,313.9495C-51.7073,313.9487-51.3675,313.9479-51.0277,313.9474C-50.7309,313.9691-50.4456,313.8899-50.1539,313.8518C-49.8613,313.8177-49.5662,313.8128-49.2718,313.8093C-48.9796,313.8072-48.6875,313.8081-48.3953,313.8085C-48.1035,313.8089-47.8117,313.809-47.5199,313.8091C-47.2282,313.8091-46.9364,313.8091-46.6446,313.8091C-46.3528,313.8091-46.061,313.8091-45.7692,313.8091C-45.4559,313.8085-45.1426,313.8102-44.8294,313.8103C-44.5121,313.81-44.1949,313.8096-43.8776,313.8093C-43.5838,313.8091-43.29,313.8091-42.9962,313.8091C-42.8018,313.8091-42.899,313.8091-42.7047,313.8091L-44.4556,315.0118C-44.6499,315.0118-44.5527,315.0118-44.7471,315.0118C-45.0407,315.0118-45.3343,315.0118-45.6279,315.0116C-45.9442,315.0113-46.2606,315.0109-46.577,315.0106C-46.8913,315.0107-47.2057,315.0124-47.5201,315.0118C-47.8119,315.0118-48.1037,315.0118-48.3955,315.0118C-48.6873,315.0118-48.9791,315.0118-49.2709,315.0117C-49.5627,315.0115-49.8545,315.0113-50.1463,315.011C-50.4376,315.0107-50.7289,315.0099-51.0202,315.0153C-51.3095,315.0227-51.5993,315.0348-51.8855,315.0788C-52.1815,315.1241-52.476,315.1695-52.7776,315.1494C-53.1153,315.1489-53.453,315.1481-53.7908,315.1473C-54.219,315.1467-54.6473,315.1466-55.0755,315.1442C-55.7153,315.1413-56.3552,315.1395-56.995,315.1387C-57.7084,315.1382-58.4219,315.1368-59.1352,315.1484L-57.3881,313.9484z" stroke="#000" stroke-linecap="square" stroke-linejoin="round" stroke-width=".4767"/>
<path d="M-97.681,314.1116C-97.1471,314.1792-96.6084,314.2005-96.0705,314.2165C-95.5904,314.228-95.1101,314.228-94.63,314.2268C-94.2335,314.2263-93.8371,314.2261-93.4407,314.2252C-92.6449,314.2456-91.8487,314.2356-91.0528,314.2319C-90.5718,314.2284-90.0909,314.2269-89.6099,314.225C-89.2264,314.225-88.8429,314.2245-88.4594,314.2256C-88.0562,314.2268-87.653,314.2246-87.2498,314.2253C-86.886,314.2244-86.5221,314.2245-86.1583,314.2246C-85.794,314.2251-85.4296,314.2248-85.0652,314.2241C-84.7171,314.2253-84.3691,314.2242-84.021,314.2236C-83.6805,314.2251-83.3399,314.2241-82.9994,314.2236C-82.6986,314.2232-82.3977,314.223-82.0969,314.223C-81.8453,314.2815-81.5923,314.3235-81.3342,314.3439C-81.0543,314.3611-80.7736,314.3611-80.4933,314.3619C-80.2016,314.3621-79.9099,314.3615-79.6182,314.3612C-79.4722,314.3611-79.3262,314.361-79.1802,314.361L-80.931,315.5637C-81.077,315.5638-81.223,315.5639-81.369,315.564C-81.661,315.5644-81.953,315.5651-82.245,315.5636C-82.5302,315.5612-82.816,315.5587-83.0999,315.5305C-83.3505,315.5012-83.5959,315.4409-83.8477,315.4256C-84.1479,315.4255-84.4481,315.4254-84.7483,315.4249C-85.0888,315.4245-85.4293,315.4235-85.7698,315.4249C-86.1175,315.4243-86.4651,315.4233-86.8128,315.4244C-87.1766,315.4237-87.5405,315.4234-87.9044,315.4239C-88.2676,315.4241-88.6307,315.4241-88.9939,315.4233C-89.3968,315.4239-89.7997,315.4217-90.2026,315.423C-90.5867,315.424-90.9708,315.4235-91.3549,315.4236C-91.8291,315.4216-92.3032,315.4202-92.7774,315.4166C-93.5801,315.4129-94.3831,315.4034-95.1857,315.424C-95.5815,315.4235-95.9772,315.4244-96.373,315.4236C-96.8515,315.4207-97.33,315.417-97.8082,315.401C-98.3559,315.3799-98.9029,315.3472-99.4483,315.2941L-97.681,314.1116z" stroke="#000" stroke-linecap="square" stroke-linejoin="round" stroke-width=".4767"/>
<path d="M-136.1855,276.2983L-136.1855,294.8415" fill="none" stroke="#000" stroke-linecap="round" stroke-width="4.8046"/>
<path d="M-126.6615,274.544L-126.6615,293.0872" fill="none" stroke="#000" stroke-linecap="round" stroke-width="4.8046"/>
<path d="M-117.7245,276.0083L-117.7245,294.5515" fill="none" stroke="#000" stroke-linecap="round" stroke-width="4.8046"/>
<path d="M-106.0478,274.841L-106.0478,293.3843" fill="none" stroke="#000" stroke-linecap="round" stroke-width="4.8046"/>
<path d="M-95.8892,277.0276L-95.8892,295.5709" fill="none" stroke="#000" stroke-linecap="round" stroke-width="4.8046"/>
<path d="M-84.2599,276.8522L-84.2599,295.3955" fill="none" stroke="#000" stroke-linecap="round" stroke-width="4.8046"/>
<path d="M-73.7574,275.1381L-73.7574,293.6813" fill="none" stroke="#000" stroke-linecap="round" stroke-width="4.8046"/>
<path d="M-63.8419,278.175L-63.8419,296.7182" fill="none" stroke="#000" stroke-linecap="round" stroke-width="4.8046"/>
<path d="M-53.169,277.8063L-53.169,296.3495" fill="none" stroke="#000" stroke-linecap="round" stroke-width="4.8046"/>
<path d="M-105.8017,352.8807L-78.6788,348.4525" fill="none" stroke="#000" stroke-width=".7749"/>
<path d="M-144.0697,281.0285L-144.0697,299.5717" fill="none" stroke="#000" stroke-linecap="round" stroke-width="4.8046"/>
</g>
<path d="M303.3998,322.7797H380.1714A7.5761,7.5761 0 0 1 387.7476,330.3558V330.3558A7.5761,7.5761 0 0 1 380.1714,337.9319H303.3998A7.5761,7.5761 0 0 1 295.8237,330.3558V330.3558A7.5761,7.5761 0 0 1 303.3998,322.7797z" fill="#fff" stroke="#000" stroke-linecap="round" stroke-linejoin="round" stroke-width="3.891"/>
<path d="M23.7386,142.4085L863.6804,142.4085" fill="none" stroke="#000"/>
<path d="M429.7996,148.9745H514.6524A15.6574,15.6574 0 0 1 530.3098,164.6319V164.6319A15.6574,15.6574 0 0 1 514.6524,180.2893H429.7996A15.6574,15.6574 0 0 1 414.1422,164.6319V164.6319A15.6574,15.6574 0 0 1 429.7996,148.9745z" fill="#fff" stroke="#000" stroke-linecap="round" stroke-linejoin="round" stroke-width="3.891"/>
<text font-family="Bitstream Vera Sans" font-size="21.439" transform="matrix(1.07194,0,-.42617,.93289,0,0)" x="460.6794" y="183.5133">
   <tspan x="460.6794" y="183.5133">St Michel</tspan>
  </text>
<path d="M534.3707,319.6903L539.4215,319.6903M408.1016,319.6903L463.4075,319.6903" fill="none" stroke="#000"/>
<path d="M495.9849,366.6624C497.4907,366.286 495.6067,370.5139 496.995,371.2081C498.2091,371.8151 499.3446,368.9894 499.0154,367.6726C498.7571,366.6396 496.9373,367.1386 495.9849,366.6624z" fill="none" stroke="#000"/>
<path d="M483.8631,373.2284C483.2827,370.907 477.6254,377.0923 479.3174,378.7842C481.4868,380.9536 483.3601,377.2669 484.3682,376.2589C485.0923,375.5347 484.0314,374.2386 483.8631,373.2284z" fill="none" stroke="#000"/>
<path d="M520.7336,373.2284C521.7153,372.2467 520.3969,376.9323 521.7438,377.269C524.6934,378.0064 526.4863,376.0555 523.259,375.2487C522.2132,374.9873 521.5754,373.9018 520.7336,373.2284z" fill="none" stroke="#000"/>
<path d="M506.5915,374.2589C503.6707,373.5287 503.561,377.3929 503.561,380.3198C503.561,383.1174 508.4642,379.9623 508.6118,379.8147C509.577,378.8495 506.8952,374.7651 506.5915,374.2589z" fill="none" stroke="#000"/>
<path d="M473.7615,259.5863L481.3377,283.8299" fill="none" stroke="#000"/>
<text font-family="Bitstream Vera Sans" font-size="12.94" x="467.1054" y="237.5548">
   <tspan text-align="center" text-anchor="middle" x="467.1054" y="237.5548">C'est la fin</tspan>
   <tspan text-align="center" text-anchor="middle" x="467.1054" y="253.7299">du monde...</tspan>
  </text>
<text font-family="Bitstream Vera Sans" font-size="20" x="623.2641" y="121.7004">
   <tspan x="623.2641" y="121.7004">Haha !</tspan>
  </text>
<path d="M629.325,304.538C632.6903,307.2458 637.554,309.1207 643.4672,310.599C646.0658,311.2486 646.4272,310.0069 648.5179,309.5888" fill="none" stroke="#000"/>
<path d="M507.7653,361.7564C505.8182,361.9867 505.2347,362.0606 503.1792,361.9625L464.8975,360.1353M468.1722,291.5265L506.4539,293.3537C522.4474,294.1171 534.8331,304.9959 534.2246,317.7457L533.1467,340.3265C532.6798,350.1086 526.132,358.0658 515.2208,360.8953" fill="#fff" stroke="#000" stroke-linecap="round" stroke-linejoin="round" stroke-width="2.6026"/>
<path d="M512.6524,346.9644C512.2445,347.9764 511.0414,352.3982 510.6321,354.0355C510.0259,356.4604 509.1169,357.5596 509.1169,360.0964C509.1169,361.6573 510.2025,363.4809 509.1169,365.6523C508.3812,367.1236 503.7544,366.6624 501.5407,366.6624C497.7722,366.6624 495.6712,364.6421 491.9443,364.6421C489.5879,364.6421 487.9527,363.632 485.3783,363.632C482.5162,363.632 479.6541,363.632 476.792,363.632C474.3888,363.632 473.2909,365.6179 472.2463,366.6624C470.756,368.1527 470.0362,369.5673 469.2159,371.2081C468.2566,373.1267 466.8895,373.0145 467.7006,376.2589C468.1242,377.9532 471.0792,379.2109 472.2463,379.7944C476.6756,382.009 484.7838,383.3299 489.924,383.3299C492.4494,383.3299 494.9747,383.3299 497.5001,383.3299C499.5047,383.3299 503.0833,382.818 505.0763,382.3198C507.2787,381.7692 510.3687,382.3198 512.6524,382.3198C515.6091,382.3198 518.9471,382.0088 521.7438,381.3096C524.2967,380.6714 525.6514,379.6084 527.2996,378.7842C529.4869,377.6906 529.9688,376.9814 531.3402,374.2386C532.2441,372.4307 531.8453,369.185 531.8453,366.6624C531.8453,366.4302 526.5257,364.7011 526.2895,364.6421C523.8725,364.0379 522.3433,363.632 519.7235,363.632C516.3477,363.632 515.281,363.8383 514.1676,361.6116C513.426,360.1284 513.1575,356.9022 513.1575,355.0457C513.1575,351.9518 512.6524,350.4294 512.6524,346.9644z" fill="none" stroke="#000"/>
<path d="M465.1438,357.809C464.7736,357.0318 464.3874,356.2585 463.9409,355.5056C463.7078,355.1124 463.6305,354.0722 463.2113,354.3373C462.7905,354.6034 464.3746,355.7629 463.9194,355.5192C463.3784,355.2297 463.2523,354.6269 462.9188,354.1807C461.1265,351.7986 459.326,349.4238 457.4011,347.1065C456.1592,345.64 455.6765,344.9897 455.0369,342.9565C454.9911,342.8107 455.3513,343.126 455.4957,343.2239C455.7121,343.3705 455.9101,343.5337 456.1172,343.6886C458.2722,345.4433 460.5765,347.0764 462.9552,348.6334C464.7211,349.817 466.5714,350.9127 468.4105,352.0205C468.7205,352.2477 469.0776,352.428 469.4118,352.6272C469.4191,352.6316 469.3904,352.6319 469.3847,352.6262C469.336,352.5779 469.2982,352.5232 469.255,352.4717C468.4436,350.2217 467.0734,348.1228 465.7785,346.0251C463.9187,343.0428 462.1405,340.0294 460.383,337.0094C459.9698,336.2485 459.4422,335.5204 459.1062,334.7338C459.1045,334.7298 458.8745,334.1644 458.9663,334.0676C459.0586,333.9702 459.2394,333.9564 459.376,333.9008C459.5609,333.9299 459.7552,333.9319 459.9308,333.9881C460.1587,334.0611 461.3937,334.6758 461.5069,334.7354C462.5824,335.3015 463.6127,335.9216 464.6345,336.5475C465.4775,337.0955 466.287,337.6752 467.1132,338.239C467.2096,338.3047 467.8788,338.8174 468.1091,338.8223C468.0024,338.7477 467.8615,338.6957 467.789,338.5985C467.6217,338.374 467.5357,338.1178 467.4057,337.8785C467.1974,337.4951 466.9873,337.1123 466.7742,336.7306C465.7598,334.9136 464.8136,333.0814 463.871,331.2408C461.6517,327.0014 459.5727,322.7192 457.3587,318.4784C456.9893,317.6859 456.5299,316.9216 456.1356,316.137C456.0744,316.0152 455.6551,315.1965 455.7209,315.0322C455.8753,314.6466 456.5696,314.9035 456.7898,314.9389C459.4273,316.0739 461.8968,317.4468 464.4313,318.7229C465.208,319.1129 465.9686,319.5273 466.7597,319.8988C466.8582,319.9451 466.9975,319.9518 467.0628,320.0267C467.1016,320.0713 466.8367,319.9646 466.861,320.0151C467.248,320.8164 467.7482,321.5816 468.1918,322.3648C466.318,320.0974 464.3478,317.8805 462.4627,315.6182C461.4857,314.3418 460.2863,313.1575 459.4208,311.827C457.3834,308.695 457.0955,309.8351 457.5956,308.3964C457.7842,308.3389 457.9584,308.2326 458.1611,308.2238C458.6618,308.2023 459.7079,308.5156 460.1019,308.627C461.3762,308.9873 462.6361,309.3811 463.9113,309.7401C464.5025,309.8415 465.6318,310.2441 466.2642,310.2008C466.3319,310.1962 466.4301,310.1467 466.415,310.0934C466.3833,309.9809 466.2276,309.9146 466.1551,309.8142C466.0138,309.6186 465.9024,309.4105 465.7761,309.2086C466.1194,309.7377 466.5118,310.249 466.806,310.796C467.0248,311.2028 466.2772,310.0164 466.0031,309.6307C464.7058,307.8052 463.2868,306.039 461.9115,304.2502C461.6159,303.8622 461.3232,303.4728 461.0246,303.0862C460.3547,302.2192 459.603,301.3714 459.0144,300.4662C458.3999,299.5211 457.8002,298.5701 457.193,297.622C457.3223,297.5702 457.435,297.4687 457.5808,297.4665C457.9798,297.4605 459.1632,298.2229 459.4633,298.3802C460.3858,298.8641 460.5927,298.9411 461.5815,299.3918C463.1187,299.9812 464.6418,300.8476 466.3668,301.0115C466.4301,300.996 466.5095,301.0018 466.5566,300.9651C466.6168,300.918 466.495,300.6423 466.4679,300.5829C466.0643,299.6968 464.828,297.7797 467.0704,301.323C465.8676,299.6958 464.2798,298.2833 462.8214,296.8025C462.0196,295.7814 459.642,293.7145 460.6057,293.0211C460.7889,292.8893 460.9851,292.875 461.2117,292.8323C461.3266,292.8262 461.4411,292.8102 461.5565,292.8141C463.2426,292.8712 464.9064,293.0421 466.5954,292.9983C466.7665,292.9413 467.5705,293.0405 467.6693,292.7822C467.7083,292.6802 467.3458,292.2946 467.2887,292.2208C467.792,293.0024 468.3138,293.7769 468.7988,294.5657C468.8568,294.6601 468.6498,294.3919 468.5715,294.3071C468.4602,294.1867 468.3151,294.0837 468.229,293.9511C467.6313,293.0303 467.0006,292.1209 466.4705,291.175C466.4415,291.1232 466.5566,291.0875 466.5996,291.0438C466.9943,290.8288 467.4799,290.8769 467.9385,290.8957C468.4301,290.9083 468.922,290.9721 469.4133,290.9582C469.4611,290.9468 469.509,290.9355 469.5568,290.9241L471.2575,293.624C471.1818,293.6444 471.106,293.6648 471.0302,293.6852C470.5263,293.7226 470.0191,293.6488 469.5131,293.6355C469.2235,293.6222 468.8564,293.6008 468.6042,293.6254C469.7271,294.0962 468.678,293.668 466.9919,291.107C466.9543,291.05 467.0589,291.2246 467.103,291.2787C467.2389,291.4451 467.4518,291.569 467.5731,291.7423C468.2435,292.6997 468.8669,293.6771 469.5137,294.6445C469.5587,294.7397 469.6255,294.8303 469.6486,294.93C469.8113,295.6331 468.7409,295.6626 468.1547,295.66C466.3917,295.671 464.6327,295.4989 462.8702,295.5391C462.7786,295.5498 462.6258,295.5229 462.6017,295.594C462.592,295.6224 462.6472,295.7066 462.6294,295.6804C459.526,291.1016 460.8475,293.1078 461.5863,294.0493C463.0118,295.5657 464.6303,296.9692 465.8988,298.5772C466.625,299.6837 467.3768,300.7801 468.0774,301.8967C468.3087,302.2653 468.7138,303.0319 468.4848,303.4584C468.3672,303.6775 468.1531,303.6798 467.9096,303.7369C466.1118,303.5829 464.5381,302.6583 462.9333,302.0554C461.9414,301.6247 460.96,301.1927 460.0215,300.6886C459.8356,300.5887 459.653,300.4847 459.4735,300.3776C459.3834,300.324 459.2321,300.2943 459.2132,300.2065C459.1981,300.1368 459.3415,300.1118 459.4058,300.0644C458.8737,299.2621 458.3376,298.4614 457.8097,297.6574C457.7203,297.5212 457.9966,297.9264 458.0903,298.0608C458.9327,299.2695 459.8981,300.4199 460.7694,301.6157C463.2654,304.8909 465.9162,308.0987 467.94,311.5832C468.0543,311.8136 468.2319,312.031 468.2831,312.2744C468.3518,312.6008 468.2163,312.8739 467.7836,312.9113C467.5832,312.9286 467.3815,312.8678 467.1833,312.8328C466.4685,312.7065 466.0368,312.5754 465.3196,312.3878C464.0567,312.0241 462.8027,311.6329 461.5309,311.2906C461.3009,311.2287 460.2146,310.9493 459.8427,310.9003C459.774,310.8912 459.7051,310.9127 459.6363,310.9189C459.7066,311.9273 459.7,311.2373 458.2386,309.0714C458.079,308.8349 458.5563,309.5451 458.7267,309.7769C459.5349,310.8766 460.4434,311.9282 461.3126,312.9976C463.1514,315.2107 465.0379,317.3976 466.9902,319.5492C467.5976,320.5716 468.327,321.555 468.8123,322.6164C468.8597,322.72 468.6142,322.795 468.4775,322.8016C468.3763,322.8065 467.6407,322.3819 467.5785,322.3486C464.9829,320.9579 468.94,323.1004 465.7511,321.3693C463.2836,320.0937 460.8452,318.7651 458.2432,317.6725C458.1176,317.606 457.8291,317.3664 457.8582,317.4836C458.1379,318.6117 458.962,319.6215 459.3842,320.7139C461.5432,324.9427 463.6087,329.2001 465.8347,333.4082C466.4253,334.5449 467.33,336.3058 467.9643,337.4553C468.3727,338.1954 469.1321,339.4523 469.5432,340.2445C469.6824,340.5128 469.8742,340.7745 469.9217,341.0609C469.9492,341.2261 469.8128,341.3798 469.7583,341.5392C469.6403,341.5579 469.5211,341.6224 469.4044,341.5953C469.2404,341.5572 468.4384,340.9864 468.4125,340.9683C467.5884,340.3897 466.7821,339.7945 465.938,339.2341C464.3987,338.2631 462.8032,337.364 461.1025,336.5852C461.048,336.5089 461.04,336.4916 461.1307,336.7668C461.1712,336.8896 461.2184,337.0113 461.2733,337.1308C461.6151,337.8751 462.0849,338.5791 462.4814,339.3052C464.209,342.31 465.9757,345.3018 467.8315,348.2594C468.7095,349.6815 469.5926,351.0969 470.3553,352.5601C470.6493,353.1244 471.021,353.8391 471.2149,354.4484C471.2715,354.6262 471.2883,354.8099 471.325,354.9906C471.2676,355.0968 471.2441,355.2197 471.1528,355.3092C470.7598,355.6943 470.0058,354.9238 469.7506,354.7783C467.8989,353.6173 466.0375,352.4668 464.2244,351.2666C461.8642,349.7418 459.5807,348.1359 457.4153,346.4352C455.7266,345.1943 456.4754,345.7389 455.0741,342.906C455.0295,342.8159 455.1734,343.0836 455.2355,343.1671C455.5463,343.5856 455.9242,343.9719 456.2146,344.4004C457.0813,345.4541 457.9505,346.5085 458.7808,347.5803C460.0609,349.2326 459.4529,348.5088 460.7357,350.2032C461.0769,350.6539 461.4314,351.0983 461.7792,351.5458C463.8958,354.337 465.8759,357.2126 467.3381,360.2567L465.1438,357.809z" fill="#fff" stroke="#000" stroke-linecap="round" stroke-linejoin="round" stroke-width="3.4741"/>
<path d="M510.3213,349.1162C512.5881,352.0028 514.2845,351.0695 516.8557,349.9338C519.0741,348.9538 519.4819,347.8831 519.619,345.0092C519.7347,342.5862 517.8909,341.7084 516.2802,340.8046C513.6747,339.3426 513.4827,339.8985 512.6523,342.654C512.4593,343.2945 509.6554,341.8797 509.4567,346.0411C509.382,347.6082 509.8707,346.8621 510.3213,349.1162z" fill="none" stroke="#000"/>
<path d="M478.3072,364.137C478.3072,363.9717 474.0385,368.4872 479.3174,367.1675C482.3347,366.4131 481.7328,364.137 478.3072,364.137z" fill="none" stroke="#000"/>
<path d="M524.7743,364.6421C525.9647,363.4516 520.9909,367.1769 521.7438,368.6827C523.0968,371.3887 526.1578,368.8144 526.7945,368.1776C527.7544,367.2178 525.6222,365.702 524.7743,364.6421z" fill="none" stroke="#000"/>
<path d="M491.9443,339.3883L478.3072,347.9746" fill="none" stroke="#000"/>
<path d="M477.8021,338.3781L490.9341,348.9848" fill="none" stroke="#000"/>
<g transform="translate(-.5051,-20.9607)">
<path d="M491.9443,339.3883L478.3072,347.9746" fill="none" stroke="#000"/>
<path d="M477.8021,338.3781L490.9341,348.9848" fill="none" stroke="#000"/>
</g>
</svg>
