<svg version="1.0" viewBox="0 0 900 450" xmlns="http://www.w3.org/2000/svg" xmlns:svg="http://www.w3.org/2000/svg" xmlns:xlink="http://www.w3.org/1999/xlink">
<path d="M-330.1407,748.2096H-139.9318A7.5735,7.5735 0 0 1 -132.3582,755.7831V792.1361A7.5735,7.5735 0 0 1 -139.9318,799.7096H-330.1407A7.5735,7.5735 0 0 1 -337.7143,792.1361V755.7831A7.5735,7.5735 0 0 1 -330.1407,748.2096z" stroke="#000" stroke-linecap="round" stroke-linejoin="round" stroke-width="5.8088" transform="matrix(1,0,.87861,.47753,0,0)"/>
<path d="M49.1916,77.1964H830.1935A31.621,31.621 0 0 1 861.8146,108.8174V357.1663A31.621,31.621 0 0 1 830.1935,388.7873H49.1916A31.621,31.621 0 0 1 17.5706,357.1663V108.8174A31.621,31.621 0 0 1 49.1916,77.1964z" fill="#fff" stroke="#000" stroke-linecap="round" stroke-width="7.4907"/>
<g transform="translate(559.5703,-5.9861)">
<path d="M67.4028,302.6746H246.8829A38.0456,38.0456 0 0 1 284.9285,340.7202V352.137A38.0456,38.0456 0 0 1 246.8829,390.1826H67.4028A38.0456,38.0456 0 0 1 29.3572,352.137V340.7202A38.0456,38.0456 0 0 1 67.4028,302.6746z" fill="#fff" stroke="#000" stroke-linecap="round" stroke-linejoin="round" stroke-width="1.2674"/>
<path d="M66.8336,298.9325H246.3137A38.0456,38.0456 0 0 1 284.3593,336.9781V348.3949A38.0456,38.0456 0 0 1 246.3137,386.4405H66.8336A38.0456,38.0456 0 0 1 28.788,348.3949V336.9781A38.0456,38.0456 0 0 1 66.8336,298.9325z" fill="#fff" stroke="#000" stroke-linecap="round" stroke-linejoin="round" stroke-width="1.2674"/>
</g>
<path d="M446.8915,78.4154A61.5183,5.3033 0 1 1 323.8549,78.4154A61.5183,5.3033 0 1 1 446.8915,78.4154z" stroke="#000" stroke-linecap="round" stroke-width="4.862" transform="matrix(-1,0,0,1,544.88342,236.23259)"/>
<path d="M574.8123,73.8818L574.8123,387.7723" fill="none" stroke="#000" stroke-width="5.6784"/>
<path d="M291.1022,73.1572L291.1022,387.0476" fill="none" stroke="#000" stroke-width="5.6784"/>
<g transform="matrix(.12574,0,0,.12574,819.53746,416.33225)">
<path d="M162.9615,-66.1029C166.455,-62.0454 171.1969,-61.5587 176.2443,-61.2734C182.6298,-61.4455 189.026,-62.9739 194.9925,-65.2443C198.1805,-66.4574 199.9424,-67.4904 202.9171,-69.0527C185.1139,-58.637 195.0252,-64.2154 198.3536,-67.7512C200.078,-69.5831 201.1079,-71.5131 202.0803,-73.8002C204.6069,-80.9176 204.9343,-88.5711 205.3652,-96.044C206.205,-106.9224 203.9531,-117.6028 201.5284,-128.1342C198.5789,-139.2121 194.5731,-149.9773 190.1613,-160.547C188.0488,-165.5407 185.6597,-170.4087 183.3326,-175.3036C180.1965,-181.3209 177.6309,-177.584 195.344,-184.4552C195.9544,-184.6919 196.0751,-183.3682 196.4662,-182.8431C197.1211,-181.9638 197.8094,-181.1099 198.4809,-180.2434C205.0155,-171.2763 212.8739,-163.4194 220.7492,-155.6472C225.3824,-151.1349 230.3508,-146.9467 234.7812,-142.2286C236.4627,-140.8555 237.4679,-138.92 238.8212,-137.2745C240.143,-136.0803 241.1771,-137.3375 242.3452,-138.1546C221.9421,-125.9198 229.2084,-129.8742 233.1206,-133.6257C234.6613,-135.103 236.1138,-136.6818 237.5889,-138.2234C239.6824,-140.3121 241.6662,-142.5484 243.9587,-144.4296C250.0105,-149.3955 258.4541,-153.3638 264.7123,-156.9238C270.4949,-159.4778 276.4106,-161.6997 282.419,-163.6577C283.6619,-163.9272 288.4708,-165.7766 289.5688,-164.5267C289.8243,-164.2359 289.9278,-163.8408 290.1072,-163.4978C290.1321,-163.1471 290.2293,-162.7941 290.1818,-162.4458C289.8354,-159.9037 285.8996,-156.946 284.1819,-155.3646C276.2864,-148.8374 268.6258,-142.0481 261.3333,-134.8534C254.99,-128.0483 248.4375,-121.3307 243.3873,-113.4811C240.2691,-108.5784 238.6116,-103.1651 237.8336,-97.4612C237.3182,-92.3602 237.4023,-87.2238 237.4103,-82.1038C237.6896,-76.538 238.3996,-70.961 240.0566,-65.6294C241.0066,-62.7897 242.6958,-60.7035 245.3984,-59.4565C247.1918,-58.8245 249.2452,-58.4083 251.1546,-58.7689C251.5988,-58.8529 255.3028,-60.1078 255.5991,-60.2068C259.9663,-62.5901 270.5149,-68.1635 250.7739,-57.3451C249.993,-56.9172 252.2774,-58.3004 253.0176,-58.7957C254.7175,-59.9333 255.126,-60.2677 256.721,-61.457C258.634,-62.8882 257.7277,-62.1927 259.444,-63.5378L273.1151,-69.0361C271.3827,-67.5797 272.3103,-68.3061 270.3191,-66.8738C262.2562,-60.6484 253.3247,-55.4952 244.0683,-51.2776C240.0071,-50.0654 237.0083,-49.4853 233.0532,-51.3558C230.1407,-52.9982 228.2379,-55.381 227.2136,-58.6022C225.5902,-64.0918 224.9779,-69.8068 224.4451,-75.4915C224.414,-80.6627 224.3292,-85.8471 224.7473,-91.006C225.4856,-96.9163 227.043,-102.5571 230.2219,-107.6713C230.8593,-108.7308 231.4383,-109.8277 232.1341,-110.8497C233.5635,-112.949 235.6974,-115.3519 237.3267,-117.2406C240.9264,-121.4136 244.6087,-125.5129 248.4113,-129.5027C255.5038,-136.6573 262.9793,-143.4183 270.7308,-149.8547C272.9266,-151.8936 275.199,-153.8815 277.0938,-156.2117C277.4084,-156.0458 276.3957,-156.0728 276.0435,-156.0235C274.2856,-155.7778 272.5938,-155.2318 270.901,-154.7183C264.9598,-152.7572 259.0786,-150.5816 253.4382,-147.8602C272.8794,-159.3576 261.1903,-152.8293 257.3908,-149.9058C255.0765,-148.125 253.0963,-145.926 251.0661,-143.8444C243.704,-136.0782 243.2815,-135.2558 230.8263,-128.8268C228.7851,-127.8625 227.644,-127.977 226.0472,-129.6547C224.7873,-131.3205 223.7779,-133.1781 222.2218,-134.6111C217.9797,-139.4028 213.2498,-143.7505 208.7563,-148.2998C200.956,-156.2393 193.036,-164.0853 186.0942,-172.8083C185.3483,-173.6466 184.6017,-174.4843 183.8565,-175.3233C183.4425,-175.7895 182.1438,-176.3177 182.6168,-176.7238C193.8626,-186.3779 193.2258,-188.9054 196.1308,-182.5316C198.3231,-177.537 200.6341,-172.5923 202.629,-167.5129C206.8035,-156.7535 210.6525,-145.8567 213.8046,-134.7502C216.3374,-124.1716 218.8429,-113.4256 218.1141,-102.4633C217.8266,-94.9202 217.3841,-87.2389 215.3364,-79.9427C214.6632,-78.0762 214.4306,-77.1236 213.3557,-75.4158C208.633,-67.9123 198.4469,-64.3688 191.7517,-60.1093C183.2311,-55.9217 174.1664,-52.9607 164.5762,-52.9176C163.243,-53.0245 161.8998,-53.0436 160.5765,-53.2383C156.6356,-53.8182 152.962,-55.54 150.2346,-58.4617L162.9615,-66.1029z" stroke="#000" stroke-linecap="round" stroke-linejoin="round" stroke-width="2"/>
<path d="M285.1504,-83.2549C279.2704,-81.6082 266.5253,-73.74 288.7732,-86.471C285.6873,-84.8287 283.8556,-82.1564 282.4117,-79.0736C281.5877,-76.6037 280.7082,-73.8959 280.8873,-71.2445C281.0112,-69.4099 281.4883,-68.4885 282.1122,-66.775C284.5548,-61.9495 288.3109,-57.9808 292.7681,-54.9746C296.0578,-52.6838 299.7974,-51.6413 303.7669,-51.5931C306.8299,-52.2892 309.6761,-53.4821 312.4808,-54.8725C313.6763,-55.4652 317.18,-57.4003 316.0334,-56.7177C302.8176,-48.8508 306.1278,-50.9743 310.8042,-54.1772C314.6548,-57.1431 318.8403,-60.5843 319.8322,-65.6282C319.9707,-66.3328 319.9608,-67.0585 320.0251,-67.7736C319.7705,-74.0822 315.7842,-79.021 311.938,-83.6853C309.5135,-86.3835 306.7679,-88.9566 303.4532,-90.5325C301.7709,-91.3322 300.9086,-91.4744 299.127,-91.9474C295.533,-92.1428 291.7665,-91.8011 288.3544,-90.5627C286.7769,-89.9902 284.386,-88.6593 282.9199,-87.8841C302.9062,-99.8746 289.8107,-91.9587 285.6886,-88.3736L272.0851,-82.8087C278.4156,-88.898 286.8685,-92.4857 294.2269,-96.9393C296.3627,-97.9778 297.6236,-98.6956 299.9061,-99.3886C303.5386,-100.4916 307.4494,-100.7491 311.1907,-100.1978C313.1147,-99.5839 313.8945,-99.429 315.7014,-98.4661C319.0659,-96.6731 321.8405,-93.9498 324.3224,-91.1058C328.3687,-86.1242 332.4762,-80.9616 333.0924,-74.3305C333.0628,-73.5258 333.1121,-72.7144 333.0035,-71.9165C332.2653,-66.4892 328.2283,-62.6312 324.1231,-59.4248C316.1605,-53.7094 320.2406,-56.4756 304.8488,-47.7573C300.8383,-45.4856 296.4513,-43.5622 291.8451,-43.0245C287.6957,-43.3915 283.8349,-44.6143 280.4546,-47.1325C275.8828,-50.4672 272.0386,-54.677 269.3612,-59.693C268.7366,-61.3275 268.0271,-62.8838 267.8135,-64.6468C267.4791,-67.4079 268.3981,-70.3095 269.0633,-72.941C270.3422,-76.1902 271.9653,-79.2701 275.0209,-81.1777C282.2031,-85.3118 288.9239,-90.0555 296.9357,-92.2666L285.1504,-83.2549z" stroke="#000" stroke-linecap="round" stroke-linejoin="round" stroke-width="2"/>
<path d="M347.1504,-77.2549C344.6035,-76.4403 341.9575,-75.7416 339.5363,-74.5814C338.7232,-74.1918 337.9599,-73.7059 337.1716,-73.2681C340.5173,-75.1416 343.863,-77.0152 347.2087,-78.8887C343.2371,-76.2087 340.2901,-73.5303 338.5132,-69.0387C337.3505,-65.3388 337.9081,-62.2103 340.8379,-59.4732C341.5453,-58.8124 342.3768,-58.2984 343.1462,-57.711C348.7467,-54.4938 355.3758,-53.3418 361.7904,-54.0225C363.6291,-54.2176 365.4327,-54.663 367.2538,-54.9833C371.4683,-56.0713 373.305,-56.374 377.2631,-58.0355C378.5761,-58.5866 382.3128,-60.6635 381.0902,-59.9334C363.2909,-49.3046 371.3475,-53.9354 374.1428,-56.7651C374.7627,-57.3926 375.255,-58.1344 375.8111,-58.8191C378.2486,-62.6326 378.3111,-66.0246 376.5942,-70.0879C376.279,-70.8016 374.4627,-74.5447 373.1819,-73.7346C372.9601,-73.5943 372.8477,-73.33 372.6807,-73.1277C392.8977,-84.6564 385.2006,-82.7287 383.2398,-77.11C382.3936,-74.6854 382.2459,-72.3278 382.1295,-69.7816C383.5341,-57.9615 388.7559,-47.0167 393.0457,-36.0346C398.2618,-21.5258 403.2897,-6.47 403.8684,9.092C403.9836,12.189 403.6821,15.2876 403.5889,18.3853C403.1263,21.364 402.8671,24.3813 402.2011,27.3212C400.0287,36.9109 395.0849,45.6892 387.7437,52.2682C386.4496,53.4279 384.9846,54.3816 383.6051,55.4383C378.0848,58.3221 372.8336,61.7934 367.0443,64.0899C364.6445,65.0418 358.8518,63.0561 356.9529,62.2095C349.8949,59.0631 343.7992,53.895 337.8032,49.1621C327.688,40.5031 317.7846,31.4711 308.7355,21.6837C304.0475,16.6133 302.8886,14.9067 298.8166,9.6614C295.3512,3.8792 291.2661,-2.8245 294.6732,-9.6402C296.6895,-13.6737 299.1232,-15.1372 302.5004,-18.074C312.6219,-24.6327 313.4505,-25.3796 328.104,-32.7999C331.6804,-34.6109 343.2136,-38.7065 346.7432,-39.9379C353.7819,-42.3937 361.3514,-44.8267 368.4293,-47.1393C387.0233,-52.5028 405.2349,-59.0355 423.2344,-66.1176C424.7623,-66.7671 426.2923,-67.4118 427.8181,-68.0661C428.9838,-68.566 430.1581,-69.0469 431.3089,-69.5801C433.6612,-70.67 435.8588,-72.019 438.2856,-72.9431C441.5765,-73.4124 442.7308,-69.4505 443.7159,-67.0436C445.9847,-60.9159 447.263,-54.4902 447.8147,-47.9941C447.9509,-45.0837 448.0453,-42.1595 447.6331,-39.2662C447.5909,-38.9704 447.7439,-38.5103 447.473,-38.3842C443.0642,-36.3309 438.4604,-34.7251 433.9541,-32.8956C433.9659,-33.7909 433.9166,-34.689 433.9896,-35.5814C434.0957,-36.8799 434.3191,-38.1662 434.4903,-39.4578C435.49,-46.9958 436.7994,-54.4336 438.3334,-61.8806C439.8884,-68.3767 441.231,-75.18 444.9433,-80.8503C449.1473,-85.2518 458.497,-93.9297 463.0497,-88.879C463.5264,-88.3501 463.8605,-87.7082 464.2658,-87.1228C465.1568,-85.5475 465.9266,-84.351 466.5095,-82.6055C468.1484,-77.6977 468.884,-71.9449 469.7517,-66.8403C470.8843,-62.4227 470.4525,-57.1322 471.7929,-52.8005C473.5655,-57.562 471.775,-52.58 459.0435,-46.5094C458.7853,-46.3863 459.4327,-46.9346 459.5772,-47.1814C459.9087,-47.7474 460.5577,-49.4088 460.8105,-49.919C461.1553,-50.6152 461.549,-51.286 461.9182,-51.9694C464.3127,-55.807 466.3395,-59.8622 468.9779,-63.5425C473.3892,-69.0698 477.5158,-70.2762 485.1519,-74.4725C485.4138,-74.6164 485.7664,-74.5326 486.0475,-74.431C486.4054,-74.3016 486.6836,-74.0129 487.0016,-73.8039C489.988,-70.6628 491.0279,-66.2182 492.0362,-62.1278C492.9125,-57.6742 493.3814,-53.131 495.0104,-48.8712C495.4071,-48.3128 495.7311,-47.6948 496.2004,-47.1959C499.6185,-43.5623 505.2722,-40.8461 509.9343,-39.3687C511.6885,-38.8128 513.4959,-38.4411 515.2767,-37.9773C522.8167,-36.0961 530.3825,-36.0026 537.8823,-38.0643C539.5423,-38.5206 541.2095,-38.9969 542.7819,-39.6981C544.2464,-40.3512 545.5581,-41.3036 546.9463,-42.1064C544.0584,-40.6163 541.3829,-38.6098 538.2826,-37.636C537.087,-37.2605 540.1428,-39.3201 540.9963,-40.2377C543.5122,-42.9425 544.9507,-45.9503 545.9633,-49.4488C546.6579,-52.3622 546.6456,-55.3557 546.5652,-58.3283C545.753,-64.4645 540.332,-58.4252 559.1,-66.0472C559.4417,-66.186 558.8994,-65.3356 558.842,-64.9712C558.7584,-64.4412 558.7327,-63.9037 558.678,-63.37C558.4116,-58.5352 558.3011,-53.6898 558.8385,-48.8729C559.3853,-45.774 559.9781,-42.6077 562.4072,-40.4324C564.1162,-39.3075 565.9299,-39.231 567.8176,-39.8486C572.3605,-42.1411 579.1794,-46.118 558.5218,-34.4558C557.7888,-34.042 559.9393,-35.3644 560.6358,-35.837L574.3857,-41.3039C573.3212,-40.43 573.5147,-40.5201 572.2923,-39.8054C567.6471,-37.0896 561.8948,-32.5533 556.0168,-30.8992C553.7225,-30.6532 551.5833,-31.1524 549.789,-32.6773C547.292,-35.2807 546.4771,-38.6003 545.9205,-42.101C545.3299,-46.9737 545.4484,-51.8684 545.5121,-56.7697C545.5317,-57.4241 545.5891,-59.6985 545.6353,-59.7292C555.3623,-66.1895 558.5071,-72.3046 559.7414,-65.0828C559.8109,-61.9585 559.8144,-58.8161 559.1617,-55.7418C555.9603,-42.9865 547.5064,-40.0804 535.8851,-33.2002C534.4562,-32.4798 533.0874,-31.625 531.5984,-31.0388C522.6477,-27.5147 512.8948,-27.7976 503.6881,-30.0046C501.849,-30.4923 499.9816,-30.8834 498.1708,-31.4678C493.5394,-32.9624 487.0263,-36.1598 483.6105,-39.7531C483.0478,-40.345 482.6426,-41.0688 482.1586,-41.7267C480.5349,-46.0707 480.067,-50.6739 479.2315,-55.2142C478.3895,-58.7321 477.5533,-63.083 474.6465,-65.525C473.9606,-65.439 474.3146,-65.5425 473.6055,-65.1501C477.5343,-67.4822 481.4631,-69.8142 485.392,-72.1463C485.7243,-72.3373 484.7836,-71.6778 484.5048,-71.4148C483.8053,-70.7548 483.2382,-69.9617 482.4827,-69.3567C479.6627,-65.8118 477.6289,-61.7908 475.2736,-57.9352C474.3882,-56.4197 473.6566,-54.9774 473.0931,-53.3151C472.9783,-52.9764 473.1056,-52.4677 472.7992,-52.2834C459.5044,-44.2868 462.4531,-41.0521 458.7423,-45.7121C457.6264,-50.4162 458.1984,-55.4103 457.1115,-60.1366C456.048,-66.7522 455.2298,-73.8382 451.6337,-79.6263C451.0084,-80.3781 450.7399,-81.067 449.7463,-81.2506C449.4773,-81.3003 448.6972,-81.0264 448.9293,-81.1714C452.7843,-83.5799 456.7874,-85.7435 460.684,-88.0841C461.0341,-88.2944 459.9199,-87.7826 459.574,-87.5654C459.1661,-87.3094 458.8163,-86.9709 458.4374,-86.6736C454.0539,-81.4464 452.7319,-74.3891 450.9594,-67.9864C448.9624,-58.7542 447.2481,-49.392 446.9663,-39.9303C442.6611,-37.2917 438.4431,-34.5055 434.0509,-32.0145C433.809,-31.8773 434.2913,-32.5188 434.3689,-32.7859C435.1731,-35.5526 434.9442,-38.4808 434.9437,-41.3192C434.5725,-47.6693 433.3852,-53.9844 430.9595,-59.8902C430.4967,-60.9584 429.6461,-64.0551 428.0273,-64.1645C427.6519,-64.1899 426.9629,-63.8928 426.664,-63.7855C421.876,-61.6536 417.2258,-59.2069 412.2498,-57.5029C394.41,-50.7931 376.4177,-44.5046 358.1221,-39.1385C347.5024,-35.6251 336.8084,-32.2298 326.4071,-28.0958C323.4132,-26.9058 320.6723,-24.9485 317.5147,-24.3088C315.893,-23.9803 323.0914,-27.8472 321.6038,-27.1227C319.4346,-26.0663 317.5039,-24.5777 315.454,-23.3052C311.6254,-20.2317 306.9304,-17.0518 306.0231,-11.7537C305.1302,-6.539 308.4514,-1.7173 310.6976,2.6064C312.0867,4.5044 313.4087,6.4534 314.865,8.3002C324.8107,20.9133 336.9125,31.7349 349.2333,41.9507C355.2776,46.4639 361.4425,51.5105 368.5887,54.2474C370.2378,54.879 371.9681,55.3572 373.7232,55.5527C375.2204,55.7194 379.0476,54.0524 378.2367,55.3221C376.5481,57.9662 373.0607,58.8689 370.4727,60.6424C371.9211,59.6313 373.4539,58.7314 374.818,57.609C382.3953,51.3747 387.7065,42.7683 390.0706,33.2575C390.7888,30.3679 391.0696,27.3869 391.5691,24.4516C391.713,21.3964 392.0786,18.3436 392.0007,15.286C391.6074,-.1509 386.3714,-15.0473 381.0958,-29.3649C376.6203,-40.4339 371.1739,-51.3452 369.2251,-63.2235C369.1596,-66.0352 369.2286,-68.1755 369.9092,-70.8957C369.9473,-71.0478 370.7023,-73.7558 371.0384,-73.9872C375.3553,-76.9602 379.9527,-79.5037 384.4099,-82.2619C384.7489,-82.2349 385.0988,-82.2704 385.4268,-82.1807C387.5325,-81.605 388.5419,-78.9921 389.422,-77.2845C391.2962,-72.8589 391.5534,-68.921 389.1687,-64.5737C388.6277,-63.7989 388.1602,-62.9673 387.5458,-62.2493C383.155,-57.1183 374.373,-53.5169 369.904,-51.0303C365.6297,-48.6519 360.7122,-47.6351 356.0106,-46.5342C354.1284,-46.2519 352.2609,-45.8421 350.3638,-45.6872C343.5879,-45.1342 336.6659,-46.3505 330.8819,-49.9878C330.0515,-50.6505 329.1568,-51.2399 328.3906,-51.9759C325.1513,-55.0883 324.1401,-58.5232 325.2119,-62.8203C326.8277,-67.9581 329.3611,-70.4448 333.6797,-73.6076C342.0135,-78.5311 349.5479,-83.9618 358.9357,-86.2666L347.1504,-77.2549z" stroke="#000" stroke-linecap="round" stroke-linejoin="round" stroke-width="2"/>
<path d="M549.2332,-122.1847C547.4497,-120.0919 546.0244,-117.6969 545.3462,-115.0219C544.8607,-112.3468 546.4564,-111.6609 548.6501,-110.701C552.1989,-109.4013 555.2322,-109.544 558.8667,-110.1867C563.727,-111.8529 571.4457,-116.6009 549.8419,-104.683C549.5386,-104.5156 550.4174,-105.0731 550.6735,-105.3066C551.283,-105.8622 551.3443,-106.0922 551.7431,-106.7885C552.4769,-108.4348 552.405,-109.9757 551.4599,-111.492C550.2026,-112.6833 548.3125,-112.5716 546.6902,-112.6506C545.0147,-112.4957 543.4191,-112.0801 542.057,-111.0753L553.6269,-120.3929C555.2743,-121.0166 556.9597,-121.4107 558.7396,-121.2691C560.8571,-121.0599 562.9403,-120.7594 564.3134,-118.9498C565.4318,-117.0683 565.8738,-115.1231 565.2275,-112.9755C562.8838,-105.9037 553.9818,-103.0447 547.0943,-101.3611C543.4244,-100.8997 539.7964,-101.101 536.3461,-102.5755C533.866,-103.8553 531.6424,-105.4567 532.0181,-108.5614C532.4759,-111.4436 533.8818,-114.0254 535.5706,-116.3799L549.2332,-122.1847z" stroke="#000" stroke-linecap="round" stroke-linejoin="round" stroke-width="2"/>
<path d="M359.6057,-86.1453C362.4187,-87.5125 365.103,-89.129 368.0047,-90.3079C369.8229,-91.4887 371.8175,-92.0343 373.9447,-92.2669C375.9013,-92.4156 377.8658,-92.3906 379.8266,-92.3838C381.7726,-92.5908 383.4211,-92.0588 385.1306,-91.2244C386.3272,-90.2653 387.2717,-88.9911 388.1806,-87.7589C388.971,-86.3232 389.4355,-84.7124 389.9217,-83.1481C390.3578,-81.5453 390.9514,-80.0138 391.2655,-78.376C391.5681,-76.4533 391.5887,-74.5022 391.6123,-72.5605C391.6209,-71.5593 391.6196,-70.5581 391.6191,-69.5568L378.4016,-62.8239C378.4031,-63.8201 378.4051,-64.8163 378.4006,-65.8125C378.3869,-67.6761 378.3836,-69.5468 378.1492,-71.3987C377.8884,-72.9952 377.3044,-74.4635 376.8794,-76.0128C376.4669,-77.4199 376.0218,-78.8533 375.3829,-80.165C374.6051,-81.185 373.8481,-82.3496 372.73,-83.0103C371.1597,-83.6924 369.5221,-83.7365 367.825,-83.6633C365.9059,-83.6547 363.9742,-83.6641 362.0745,-83.3541C360.0654,-82.9292 358.2552,-82.0648 356.4262,-81.1471C353.5803,-79.8236 350.8275,-78.3064 348.069,-76.8116L359.6057,-86.1453z" stroke="#000" stroke-linecap="round" stroke-linejoin="round" stroke-width="2"/>
</g>
<path d="M59.1188,41.8901H245.997A15.9099,15.9099 0 0 1 261.9069,57.8V57.8A15.9099,15.9099 0 0 1 245.997,73.7099H59.1188A15.9099,15.9099 0 0 1 43.2089,57.8V57.8A15.9099,15.9099 0 0 1 59.1188,41.8901z" fill="#fff" stroke="#000" stroke-linecap="round" stroke-linejoin="round" stroke-width="4"/>
<path d="M101.5203,44.9288A36.8706,34.8503 0 1 1 27.7792,44.9288A36.8706,34.8503 0 1 1 101.5203,44.9288z" stroke="#000" stroke-linecap="round" stroke-linejoin="round" stroke-width="7.491" transform="matrix(.7121,0,0,.7121,-2.07745,19.51295)"/>
<text font-family="Bitstream Vera Sans" font-size="40" x="19.5718" y="65.5475">
   <tspan fill="#f9f9f9" x="19.5718" y="65.5475">15</tspan>
  </text>
<text font-family="Bitstream Vera Sans" font-size="20" x="125.4821" y="64.567">
   <tspan x="125.4821" y="64.567">Poker</tspan>
  </text>
<path d="M105.7521,227.7605L105.7521,275.6489C105.7521,295.656 121.8588,311.7627 141.8658,311.7627L177.2998,311.7627C197.3068,311.7627 213.4135,295.656 213.4135,275.6489L213.4135,227.7605" fill="#fff" stroke="#000" stroke-linecap="round" stroke-linejoin="round" stroke-width="3.6422"/>
<path d="M-190.3655,247.572H-166.8315A.7803,.7803 0 0 1 -166.0512,248.3523V258.3783A.7803,.7803 0 0 1 -166.8315,259.1586H-190.3655A.7803,.7803 0 0 1 -191.1458,258.3783V248.3523A.7803,.7803 0 0 1 -190.3655,247.572z" stroke="#000" stroke-linecap="square" stroke-linejoin="round" stroke-width="3.7338" transform="scale(-1,1)"/>
<path d="M-146.9746,247.572H-126.5617A2.3409,2.3409 0 0 1 -124.2208,249.9128V256.8178A2.3409,2.3409 0 0 1 -126.5617,259.1586H-146.9746A2.3409,2.3409 0 0 1 -149.3154,256.8178V249.9128A2.3409,2.3409 0 0 1 -146.9746,247.572z" stroke="#000" stroke-linecap="square" stroke-linejoin="round" stroke-width="3.7338" transform="scale(-1,1)"/>
<path d="M211.1053,252.6266C210.5561,252.637 210.0068,252.6333 209.4575,252.6306C209.0945,252.6285 208.7316,252.6271 208.3686,252.6264C208.0761,252.626 207.7836,252.626 207.4911,252.626C207.1871,252.6254 206.8831,252.6266 206.579,252.6271C206.1884,252.6175 205.8038,252.6268 205.4171,252.6779C205.0174,252.7324 204.614,252.7496 204.2109,252.7606C203.8057,252.7448 203.408,252.8194 203.0069,252.8596C202.5989,252.8964 202.1889,252.9003 201.7795,252.9046C201.3493,252.9069 200.9192,252.9068 200.489,252.9053C200.1154,252.9045 199.7418,252.904 199.3682,252.9031C199.0612,252.9023 198.7542,252.9021 198.4471,252.9019C198.1556,252.9019 197.8641,252.9019 197.5726,252.9019C197.2811,252.9019 196.9896,252.9019 196.698,252.9019C196.3793,252.9015 196.0606,252.9024 195.742,252.9039C195.3477,252.9062 194.9534,252.9043 194.5591,252.9032C194.1883,252.903 193.8174,252.9037 193.4465,252.9047C193.0498,252.9046 192.6531,252.9046 192.2563,252.9036C191.8764,252.9038 191.4964,252.9044 191.1164,252.9038C190.7708,252.9025 190.4253,252.9023 190.0797,252.9041C189.5465,252.9067 189.0133,252.9083 188.4801,252.9101C187.7535,252.9129 187.0268,252.9135 186.3002,252.9111C185.767,252.9098 185.2337,252.9059 184.7005,252.9057C184.2592,252.9064 183.8179,252.9057 183.3766,252.9042C183.3155,252.904 183.2544,252.9038 183.1933,252.9036L184.9393,254.1029C184.9998,254.1027 185.0603,254.1025 185.1208,254.1023C185.5607,254.1008 186.0005,254.1001 186.4403,254.1008C186.9683,254.1006 187.4963,254.0967 188.0242,254.0954C188.7518,254.0929 189.4794,254.0936 190.207,254.0964C190.7461,254.0982 191.2852,254.0998 191.8243,254.1024C192.1701,254.1041 192.516,254.104 192.8618,254.1027C193.2419,254.1021 193.622,254.1027 194.0021,254.1028C194.3978,254.1018 194.7935,254.1019 195.1892,254.1018C195.5615,254.1028 195.9339,254.1035 196.3062,254.1033C196.6999,254.1022 197.0935,254.1003 197.4872,254.1026C197.8078,254.104 198.1283,254.105 198.4489,254.1046C198.7405,254.1046 199.032,254.1046 199.3236,254.1046C199.615,254.1046 199.9064,254.1046 200.1978,254.1045C200.5038,254.1044 200.8099,254.1042 201.1158,254.1036C201.4879,254.1029 201.8599,254.1027 202.2319,254.1027C202.6621,254.1019 203.0922,254.1034 203.5224,254.0986C203.9371,254.093 204.3526,254.0841 204.7651,254.0391C205.1619,253.9946 205.5572,253.9419 205.9582,253.9522C206.366,253.937 206.773,253.9087 207.1774,253.8554C207.5595,253.815 207.9428,253.8262 208.3267,253.8276C208.6319,253.8282 208.937,253.8294 209.2422,253.8288C209.5343,253.8288 209.8264,253.8288 210.1185,253.8284C210.4773,253.8277 210.8362,253.8263 211.195,253.8241C211.7483,253.8213 212.3016,253.8179 212.8547,253.8282L211.1053,252.6266z" stroke="#000" stroke-linecap="square" stroke-linejoin="round" stroke-width=".4767"/>
<path d="M123.6528,252.9234C122.7564,252.9348 121.8597,252.9332 120.9632,252.9328C120.1415,252.9319 119.3197,252.9302 118.498,252.9274C117.9489,252.9251 117.3997,252.925 116.8506,252.9245C116.4179,252.9237 115.9851,252.9229 115.5524,252.9225C115.1744,252.9433 114.8111,252.8672 114.4395,252.8305C114.0669,252.7977 113.6911,252.793 113.3161,252.7896C112.9441,252.7876 112.572,252.7884 112.1999,252.7888C111.8283,252.7892 111.4567,252.7893 111.0851,252.7894C110.7135,252.7894 110.3418,252.7894 109.9702,252.7894C109.5986,252.7894 109.227,252.7894 108.8554,252.7894C108.4564,252.7888 108.0574,252.7905 107.6585,252.7905C107.2544,252.7903 106.8504,252.7899 106.4464,252.7896C106.0722,252.7894 105.698,252.7894 105.3238,252.7894C105.0763,252.7894 105.2,252.7894 104.9526,252.7894L107.1825,253.9466C107.4299,253.9466 107.3062,253.9466 107.5536,253.9466C107.9276,253.9465 108.3015,253.9465 108.6754,253.9463C109.0783,253.9461 109.4812,253.9457 109.8841,253.9454C110.2845,253.9455 110.6848,253.9471 111.0852,253.9466C111.4568,253.9466 111.8285,253.9466 112.2001,253.9466C112.5717,253.9466 112.9434,253.9466 113.315,253.9464C113.6866,253.9463 114.0583,253.9461 114.4299,253.9458C114.8009,253.9455 115.1719,253.9447 115.5428,253.9499C115.9113,253.957 116.2803,253.9687 116.6448,254.0111C117.0219,254.0546 117.3969,254.0983 117.781,254.0789C118.2111,254.0785 118.6412,254.0777 119.0713,254.0769C119.6167,254.0764 120.1621,254.0763 120.7075,254.074C121.5224,254.0712 122.3372,254.0695 123.1521,254.0686C124.0606,254.0682 124.9693,254.0668 125.8777,254.078L123.6528,252.9234z" stroke="#000" stroke-linecap="square" stroke-linejoin="round" stroke-width=".5276"/>
<path d="M165.8721,253.0964C165.1669,253.1611 164.4553,253.1815 163.7447,253.1969C163.1105,253.208 162.4761,253.208 161.8417,253.2068C161.3181,253.2063 160.7944,253.2062 160.2707,253.2052C159.2195,253.2249 158.1677,253.2152 157.1162,253.2117C156.4809,253.2083 155.8456,253.2069 155.2103,253.205C154.7036,253.2051 154.197,253.2046 153.6903,253.2056C153.1577,253.2069 152.6251,253.2047 152.0925,253.2053C151.6119,253.2045 151.1312,253.2046 150.6507,253.2047C150.1693,253.2052 149.688,253.2049 149.2066,253.2042C148.7468,253.2054 148.287,253.2043 147.8272,253.2038C147.3774,253.2051 146.9275,253.2042 146.4776,253.2037C146.0803,253.2033 145.6829,253.2032 145.2855,253.2031C144.9532,253.2592 144.6189,253.2996 144.2779,253.3191C143.9081,253.3356 143.5374,253.3356 143.167,253.3363C142.7817,253.3365 142.3964,253.336 142.0111,253.3357C141.8183,253.3356 141.6253,253.3355 141.4325,253.3354L143.7453,254.4887C143.9382,254.4888 144.131,254.4889 144.3239,254.489C144.7096,254.4893 145.0954,254.49 145.4812,254.4886C145.8579,254.4863 146.2354,254.4838 146.6105,254.4569C146.9415,254.4287 147.2656,254.3709 147.5983,254.3562C147.9949,254.3562 148.3915,254.3561 148.788,254.3556C149.2378,254.3552 149.6876,254.3543 150.1375,254.3556C150.5967,254.3551 151.0559,254.354 151.5152,254.3552C151.9958,254.3545 152.4765,254.3541 152.9572,254.3547C153.4369,254.3548 153.9167,254.3549 154.3965,254.354C154.9287,254.3547 155.4609,254.3525 155.9931,254.3537C156.5006,254.3547 157.008,254.3543 157.5154,254.3543C158.1417,254.3524 158.7681,254.351 159.3945,254.3476C160.4549,254.3441 161.5157,254.3349 162.5759,254.3547C163.0987,254.3543 163.6215,254.3551 164.1442,254.3544C164.7764,254.3516 165.4085,254.348 166.0402,254.3327C166.7637,254.3124 167.4864,254.2811 168.2067,254.2301L165.8721,253.0964z" stroke="#000" stroke-linecap="square" stroke-linejoin="round" stroke-width=".5365"/>
<path d="M198.4079,215.2532L198.4079,233.7964" fill="none" stroke="#000" stroke-linecap="round" stroke-width="4.8046"/>
<path d="M188.8838,213.4988L188.8838,232.042" fill="none" stroke="#000" stroke-linecap="round" stroke-width="4.8046"/>
<path d="M179.9469,214.9631L179.9469,233.5063" fill="none" stroke="#000" stroke-linecap="round" stroke-width="4.8046"/>
<path d="M168.2702,213.7959L168.2702,232.3391" fill="none" stroke="#000" stroke-linecap="round" stroke-width="4.8046"/>
<path d="M158.1115,215.9825L158.1115,234.5257" fill="none" stroke="#000" stroke-linecap="round" stroke-width="4.8046"/>
<path d="M146.4823,215.8071L146.4823,234.3503" fill="none" stroke="#000" stroke-linecap="round" stroke-width="4.8046"/>
<path d="M135.9797,214.0929L135.9797,232.6361" fill="none" stroke="#000" stroke-linecap="round" stroke-width="4.8046"/>
<path d="M126.0643,217.1298L126.0643,235.6731" fill="none" stroke="#000" stroke-linecap="round" stroke-width="4.8046"/>
<path d="M115.3913,216.7611L115.3913,235.3044" fill="none" stroke="#000" stroke-linecap="round" stroke-width="4.8046"/>
<path d="M168.0241,291.8356L140.9012,287.4074" fill="none" stroke="#000" stroke-width=".7749"/>
<g transform="translate(226.4286,16.4286)">
<path d="M37.9721,260.525H57.9721A.3571,.3571 0 0 1 58.3292,260.8821V293.7393A.3571,.3571 0 0 1 57.9721,294.0964H37.9721A.3571,.3571 0 0 1 37.6149,293.7393V260.8821A.3571,.3571 0 0 1 37.9721,260.525z" fill="#fff" stroke="#000" stroke-linecap="round" stroke-linejoin="round" transform="rotate(21.381)"/>
<path d="M-78.9286,255.7143H-58.9286A.3571,.3571 0 0 1 -58.5714,256.0714V288.9286A.3571,.3571 0 0 1 -58.9286,289.2857H-78.9286A.3571,.3571 0 0 1 -79.2857,288.9286V256.0714A.3571,.3571 0 0 1 -78.9286,255.7143z" fill="#fff" stroke="#000" stroke-linecap="round" stroke-linejoin="round"/>
<path d="M-148.6937,234.349H-128.6937A.3571,.3571 0 0 1 -128.3366,234.7061V267.5633A.3571,.3571 0 0 1 -128.6937,267.9204H-148.6937A.3571,.3571 0 0 1 -149.0509,267.5633V234.7061A.3571,.3571 0 0 1 -148.6937,234.349z" fill="#fff" stroke="#000" stroke-linecap="round" stroke-linejoin="round" transform="matrix(.97489,-.22269,.22269,.97489,0,0)"/>
</g>
<path d="M206.292,219.9834L206.292,238.5266" fill="none" stroke="#000" stroke-linecap="round" stroke-width="4.8046"/>
<text font-family="Bitstream Vera Sans" font-size="20" x="158.6064" y="111.9499">
   <tspan text-align="center" text-anchor="middle" x="158.6064" y="111.9499">J'aime pas</tspan>
   <tspan text-align="center" text-anchor="middle" x="158.6064" y="136.9499">le poker...</tspan>
  </text>
<path d="M153.4025,172.7596L161.215,208.6971" fill="none" stroke="#000"/>
<g transform="translate(0,-6)">
<path d="M67.4028,302.6746H246.8829A38.0456,38.0456 0 0 1 284.9285,340.7202V352.137A38.0456,38.0456 0 0 1 246.8829,390.1826H67.4028A38.0456,38.0456 0 0 1 29.3572,352.137V340.7202A38.0456,38.0456 0 0 1 67.4028,302.6746z" fill="#fff" stroke="#000" stroke-linecap="round" stroke-linejoin="round" stroke-width="1.2674"/>
<path d="M66.8336,298.9325H246.3137A38.0456,38.0456 0 0 1 284.3593,336.9781V348.3949A38.0456,38.0456 0 0 1 246.3137,386.4405H66.8336A38.0456,38.0456 0 0 1 28.788,348.3949V336.9781A38.0456,38.0456 0 0 1 66.8336,298.9325z" fill="#fff" stroke="#000" stroke-linecap="round" stroke-linejoin="round" stroke-width="1.2674"/>
</g>
<g transform="translate(271.731,2.1527)">
<path d="M105.7521,224.4084L105.7521,272.2968C105.7521,292.3038 121.8588,308.4106 141.8658,308.4106L177.2998,308.4106C197.3068,308.4106 213.4135,292.3038 213.4135,272.2968L213.4135,224.4084" fill="#fff" stroke="#000" stroke-linecap="round" stroke-linejoin="round" stroke-width="3.6422"/>
<path d="M-190.3655,244.2199H-166.8315A.7803,.7803 0 0 1 -166.0512,245.0001V255.0262A.7803,.7803 0 0 1 -166.8315,255.8065H-190.3655A.7803,.7803 0 0 1 -191.1458,255.0262V245.0001A.7803,.7803 0 0 1 -190.3655,244.2199z" stroke="#000" stroke-linecap="square" stroke-linejoin="round" stroke-width="3.7338" transform="scale(-1,1)"/>
<path d="M-146.9746,244.2199H-126.5617A2.3409,2.3409 0 0 1 -124.2208,246.5607V253.4657A2.3409,2.3409 0 0 1 -126.5617,255.8065H-146.9746A2.3409,2.3409 0 0 1 -149.3154,253.4657V246.5607A2.3409,2.3409 0 0 1 -146.9746,244.2199z" stroke="#000" stroke-linecap="square" stroke-linejoin="round" stroke-width="3.7338" transform="scale(-1,1)"/>
<path d="M211.1053,249.2745C210.5561,249.2849 210.0068,249.2812 209.4575,249.2785C209.0945,249.2764 208.7316,249.275 208.3686,249.2743C208.0761,249.2739 207.7836,249.2739 207.4911,249.2739C207.1871,249.2732 206.8831,249.2745 206.579,249.275C206.1884,249.2654 205.8038,249.2747 205.4171,249.3257C205.0174,249.3803 204.614,249.3975 204.2108,249.4085C203.8056,249.3927 203.408,249.4673 203.0068,249.5075C202.5989,249.5443 202.1889,249.5482 201.7794,249.5525C201.3493,249.5548 200.9192,249.5547 200.489,249.5532C200.1154,249.5524 199.7418,249.5519 199.3682,249.551C199.0612,249.5502 198.7542,249.55 198.4471,249.5498C198.1556,249.5498 197.8641,249.5498 197.5726,249.5498C197.2811,249.5498 196.9896,249.5498 196.698,249.5498C196.3793,249.5494 196.0606,249.5503 195.742,249.5517C195.3477,249.5541 194.9534,249.5522 194.5591,249.5511C194.1882,249.5508 193.8174,249.5516 193.4465,249.5526C193.0497,249.5524 192.653,249.5525 192.2563,249.5515C191.8764,249.5517 191.4964,249.5523 191.1164,249.5517C190.7708,249.5504 190.4253,249.5502 190.0797,249.552C189.5465,249.5546 189.0133,249.5561 188.4801,249.558C187.7535,249.5608 187.0268,249.5614 186.3002,249.559C185.767,249.5577 185.2337,249.5538 184.7005,249.5536C184.2592,249.5542 183.8179,249.5536 183.3766,249.5521C183.3155,249.5519 183.2544,249.5517 183.1933,249.5515L184.9393,250.7508C184.9998,250.7506 185.0603,250.7504 185.1208,250.7502C185.5606,250.7487 186.0005,250.748 186.4403,250.7487C186.9683,250.7484 187.4962,250.7446 188.0242,250.7432C188.7518,250.7408 189.4794,250.7414 190.207,250.7442C190.7461,250.7461 191.2852,250.7477 191.8243,250.7503C192.1701,250.752 192.5159,250.7518 192.8618,250.7506C193.2419,250.75 193.622,250.7505 194.0021,250.7507C194.3978,250.7497 194.7935,250.7498 195.1892,250.7497C195.5615,250.7507 195.9339,250.7514 196.3062,250.7512C196.6999,250.7501 197.0935,250.7482 197.4872,250.7505C197.8077,250.7519 198.1283,250.7528 198.4489,250.7525C198.7404,250.7525 199.032,250.7525 199.3236,250.7525C199.615,250.7525 199.9064,250.7525 200.1978,250.7524C200.5038,250.7523 200.8099,250.7521 201.1158,250.7515C201.4879,250.7508 201.8599,250.7506 202.2319,250.7506C202.6621,250.7497 203.0922,250.7513 203.5223,250.7465C203.9371,250.7409 204.3526,250.732 204.7651,250.687C205.1619,250.6425 205.5571,250.5898 205.9581,250.6001C206.3659,250.5849 206.773,250.5566 207.1774,250.5033C207.5594,250.4629 207.9428,250.4741 208.3267,250.4755C208.6319,250.476 208.937,250.4773 209.2422,250.4766C209.5343,250.4767 209.8264,250.4767 210.1185,250.4762C210.4773,250.4756 210.8362,250.4742 211.195,250.472C211.7482,250.4692 212.3016,250.4658 212.8547,250.4761L211.1053,249.2745z" stroke="#000" stroke-linecap="square" stroke-linejoin="round" stroke-width=".4767"/>
<path d="M123.6528,249.5713C122.7564,249.5827 121.8597,249.5811 120.9632,249.5806C120.1415,249.5798 119.3197,249.5781 118.498,249.5753C117.9489,249.573 117.3997,249.5729 116.8506,249.5724C116.4179,249.5716 115.9851,249.5708 115.5524,249.5703C115.1744,249.5912 114.8111,249.515 114.4395,249.4784C114.0669,249.4456 113.6911,249.4409 113.3161,249.4375C112.9441,249.4355 112.572,249.4363 112.1999,249.4367C111.8283,249.4371 111.4567,249.4372 111.0851,249.4373C110.7135,249.4373 110.3418,249.4373 109.9702,249.4373C109.5986,249.4373 109.227,249.4373 108.8554,249.4373C108.4564,249.4367 108.0574,249.4384 107.6585,249.4384C107.2544,249.4382 106.8504,249.4377 106.4464,249.4375C106.0722,249.4373 105.698,249.4373 105.3238,249.4373C105.0763,249.4373 105.2,249.4373 104.9526,249.4373L107.1825,250.5944C107.4299,250.5944 107.3062,250.5944 107.5536,250.5944C107.9276,250.5944 108.3015,250.5944 108.6754,250.5942C109.0783,250.594 109.4812,250.5936 109.8841,250.5933C110.2845,250.5934 110.6848,250.595 111.0852,250.5944C111.4568,250.5944 111.8285,250.5944 112.2001,250.5944C112.5717,250.5944 112.9434,250.5944 113.315,250.5943C113.6866,250.5942 114.0583,250.594 114.4299,250.5936C114.8009,250.5934 115.1719,250.5926 115.5428,250.5978C115.9113,250.6049 116.2803,250.6166 116.6448,250.6589C117.0219,250.7025 117.3969,250.7462 117.781,250.7268C118.2111,250.7264 118.6412,250.7256 119.0713,250.7248C119.6167,250.7243 120.1621,250.7242 120.7075,250.7219C121.5224,250.7191 122.3372,250.7174 123.1521,250.7165C124.0606,250.716 124.9693,250.7147 125.8777,250.7259L123.6528,249.5713z" stroke="#000" stroke-linecap="square" stroke-linejoin="round" stroke-width=".5276"/>
<path d="M165.8721,249.7442C165.1668,249.809 164.4553,249.8294 163.7447,249.8448C163.1105,249.8559 162.476,249.8559 161.8417,249.8547C161.318,249.8542 160.7944,249.8541 160.2707,249.8531C159.2195,249.8727 158.1677,249.8631 157.1162,249.8596C156.4809,249.8562 155.8456,249.8548 155.2103,249.8529C154.7036,249.853 154.197,249.8525 153.6903,249.8535C153.1577,249.8547 152.6251,249.8526 152.0925,249.8532C151.6119,249.8524 151.1312,249.8525 150.6507,249.8526C150.1693,249.8531 149.688,249.8528 149.2066,249.8521C148.7468,249.8532 148.287,249.8522 147.8272,249.8517C147.3774,249.853 146.9275,249.8521 146.4776,249.8516C146.0803,249.8512 145.6829,249.8511 145.2855,249.851C144.9532,249.9071 144.6189,249.9475 144.2779,249.9669C143.9081,249.9835 143.5374,249.9835 143.167,249.9842C142.7817,249.9844 142.3964,249.9838 142.0111,249.9836C141.8182,249.9834 141.6253,249.9834 141.4324,249.9833L143.7453,251.1366C143.9382,251.1367 144.131,251.1368 144.3239,251.1369C144.7096,251.1372 145.0954,251.1379 145.4811,251.1365C145.8579,251.1342 146.2354,251.1317 146.6104,251.1048C146.9415,251.0766 147.2656,251.0188 147.5983,251.0041C147.9949,251.0041 148.3915,251.0039 148.788,251.0035C149.2378,251.0031 149.6876,251.0021 150.1375,251.0035C150.5967,251.0029 151.0559,251.0019 151.5151,251.0031C151.9958,251.0024 152.4765,251.002 152.9572,251.0026C153.4369,251.0027 153.9167,251.0027 154.3965,251.0019C154.9287,251.0026 155.4609,251.0004 155.9931,251.0016C156.5006,251.0026 157.008,251.0022 157.5154,251.0022C158.1417,251.0003 158.7681,250.9989 159.3944,250.9955C160.4549,250.992 161.5156,250.9828 162.5759,251.0026C163.0987,251.0022 163.6215,251.003 164.1442,251.0022C164.7764,250.9995 165.4085,250.9959 166.0402,250.9806C166.7637,250.9603 167.4863,250.929 168.2067,250.878L165.8721,249.7442z" stroke="#000" stroke-linecap="square" stroke-linejoin="round" stroke-width=".5365"/>
<path d="M198.4078,211.901L198.4078,230.4443" fill="none" stroke="#000" stroke-linecap="round" stroke-width="4.8046"/>
<path d="M188.8838,210.1467L188.8838,228.6899" fill="none" stroke="#000" stroke-linecap="round" stroke-width="4.8046"/>
<path d="M179.9469,211.611L179.9469,230.1542" fill="none" stroke="#000" stroke-linecap="round" stroke-width="4.8046"/>
<path d="M168.2702,210.4438L168.2702,228.987" fill="none" stroke="#000" stroke-linecap="round" stroke-width="4.8046"/>
<path d="M158.1115,212.6304L158.1115,231.1736" fill="none" stroke="#000" stroke-linecap="round" stroke-width="4.8046"/>
<path d="M146.4823,212.455L146.4823,230.9982" fill="none" stroke="#000" stroke-linecap="round" stroke-width="4.8046"/>
<path d="M135.9797,210.7408L135.9797,229.284" fill="none" stroke="#000" stroke-linecap="round" stroke-width="4.8046"/>
<path d="M126.0643,213.7777L126.0643,232.321" fill="none" stroke="#000" stroke-linecap="round" stroke-width="4.8046"/>
<path d="M115.3913,213.409L115.3913,231.9523" fill="none" stroke="#000" stroke-linecap="round" stroke-width="4.8046"/>
<path d="M168.0241,288.4835L140.9012,284.0553" fill="none" stroke="#000" stroke-width=".7749"/>
<path d="M206.292,216.6313L206.292,235.1745" fill="none" stroke="#000" stroke-linecap="round" stroke-width="4.8046"/>
<text font-family="Bitstream Vera Sans" font-size="20" x="158.7289" y="125.7704">
     <tspan text-align="center" text-anchor="middle" x="158.7289" y="125.7704">Hmm...</tspan>
    </text>
<path d="M150.372,147.1841L158.1845,183.1216" fill="none" stroke="#000"/>
</g>
<g transform="translate(499.0531,17.4924)">
<path d="M37.9721,260.525H57.9721A.3571,.3571 0 0 1 58.3292,260.8821V293.7393A.3571,.3571 0 0 1 57.9721,294.0964H37.9721A.3571,.3571 0 0 1 37.6149,293.7393V260.8821A.3571,.3571 0 0 1 37.9721,260.525z" fill="#fff" stroke="#000" stroke-linecap="round" stroke-linejoin="round" transform="rotate(21.381)"/>
<path d="M-78.9286,255.7143H-58.9286A.3571,.3571 0 0 1 -58.5714,256.0714V288.9286A.3571,.3571 0 0 1 -58.9286,289.2857H-78.9286A.3571,.3571 0 0 1 -79.2857,288.9286V256.0714A.3571,.3571 0 0 1 -78.9286,255.7143z" fill="#fff" stroke="#000" stroke-linecap="round" stroke-linejoin="round"/>
<path d="M-148.6937,234.349H-128.6937A.3571,.3571 0 0 1 -128.3366,234.7061V267.5633A.3571,.3571 0 0 1 -128.6937,267.9204H-148.6937A.3571,.3571 0 0 1 -149.0509,267.5633V234.7061A.3571,.3571 0 0 1 -148.6937,234.349z" fill="#fff" stroke="#000" stroke-linecap="round" stroke-linejoin="round" transform="matrix(.97489,-.22269,.22269,.97489,0,0)"/>
</g>
<g transform="translate(278.9989,-5.9861)">
<path d="M67.4028,302.6746H246.8829A38.0456,38.0456 0 0 1 284.9285,340.7202V352.137A38.0456,38.0456 0 0 1 246.8829,390.1826H67.4028A38.0456,38.0456 0 0 1 29.3572,352.137V340.7202A38.0456,38.0456 0 0 1 67.4028,302.6746z" fill="#fff" stroke="#000" stroke-linecap="round" stroke-linejoin="round" stroke-width="1.2674"/>
<path d="M66.8336,298.9325H246.3137A38.0456,38.0456 0 0 1 284.3593,336.9781V348.3949A38.0456,38.0456 0 0 1 246.3137,386.4405H66.8336A38.0456,38.0456 0 0 1 28.788,348.3949V336.9781A38.0456,38.0456 0 0 1 66.8336,298.9325z" fill="#fff" stroke="#000" stroke-linecap="round" stroke-linejoin="round" stroke-width="1.2674"/>
</g>
<path d="M664.3664,226.0763L664.3664,273.9648C664.3664,293.9718 680.4731,310.0785 700.4801,310.0785L735.9142,310.0785C755.9212,310.0785 772.0279,293.9718 772.0279,273.9648L772.0279,226.0763" fill="#fff" stroke="#000" stroke-linecap="round" stroke-linejoin="round" stroke-width="3.6422"/>
<path d="M-748.9799,245.8878H-725.4459A.7803,.7803 0 0 1 -724.6656,246.6681V256.6942A.7803,.7803 0 0 1 -725.4459,257.4745H-748.9799A.7803,.7803 0 0 1 -749.7602,256.6942V246.6681A.7803,.7803 0 0 1 -748.9799,245.8878z" stroke="#000" stroke-linecap="square" stroke-linejoin="round" stroke-width="3.7338" transform="scale(-1,1)"/>
<path d="M-705.589,245.8878H-685.1761A2.3409,2.3409 0 0 1 -682.8352,248.2287V255.1336A2.3409,2.3409 0 0 1 -685.1761,257.4745H-705.589A2.3409,2.3409 0 0 1 -707.9298,255.1336V248.2287A2.3409,2.3409 0 0 1 -705.589,245.8878z" stroke="#000" stroke-linecap="square" stroke-linejoin="round" stroke-width="3.7338" transform="scale(-1,1)"/>
<path d="M769.7197,250.9424C769.1705,250.9529 768.6211,250.9492 768.0719,250.9464C767.7089,250.9443 767.3459,250.9429 766.983,250.9422C766.6905,250.9418 766.398,250.9418 766.1055,250.9418C765.8015,250.9412 765.4974,250.9424 765.1934,250.943C764.8028,250.9333 764.4182,250.9426 764.0314,250.9937C763.6318,251.0482 763.2283,251.0654 762.8252,251.0764C762.42,251.0606 762.0223,251.1353 761.6212,251.1754C761.2133,251.2122 760.8032,251.2161 760.3938,251.2205C759.9637,251.2228 759.5335,251.2226 759.1034,251.2211C758.7298,251.2204 758.3562,251.2198 757.9826,251.2189C757.6755,251.2181 757.3685,251.2179 757.0615,251.2178C756.77,251.2177 756.4785,251.2177 756.187,251.2177C755.8954,251.2177 755.6039,251.2177 755.3124,251.2177C754.9937,251.2173 754.675,251.2183 754.3563,251.2197C753.962,251.222 753.5678,251.2201 753.1735,251.2191C752.8026,251.2188 752.4317,251.2195 752.0608,251.2206C751.6641,251.2204 751.2674,251.2205 750.8707,251.2195C750.4907,251.2197 750.1107,251.2202 749.7308,251.2196C749.3852,251.2184 749.0396,251.2181 748.694,251.2199C748.1608,251.2225 747.6277,251.2241 747.0945,251.226C746.3678,251.2288 745.6412,251.2294 744.9145,251.227C744.3813,251.2256 743.8481,251.2217 743.3148,251.2215C742.8736,251.2222 742.4322,251.2215 741.9909,251.22C741.9298,251.2198 741.8687,251.2196 741.8076,251.2194L743.5536,252.4187C743.6141,252.4185 743.6747,252.4183 743.7351,252.4181C744.175,252.4166 744.6148,252.416 745.0547,252.4166C745.5827,252.4164 746.1106,252.4125 746.6386,252.4112C747.3662,252.4087 748.0938,252.4094 748.8214,252.4122C749.3605,252.4141 749.8996,252.4157 750.4387,252.4183C750.7845,252.42 751.1303,252.4198 751.4761,252.4185C751.8562,252.4179 752.2364,252.4185 752.6165,252.4187C753.0122,252.4177 753.4078,252.4178 753.8035,252.4176C754.1759,252.4186 754.5482,252.4194 754.9206,252.4191C755.3142,252.418 755.7079,252.4161 756.1015,252.4185C756.4221,252.4199 756.7427,252.4208 757.0633,252.4204C757.3548,252.4204 757.6464,252.4204 757.9379,252.4204C758.2293,252.4204 758.5208,252.4204 758.8122,252.4204C759.1182,252.4202 759.4242,252.42 759.7302,252.4194C760.1022,252.4187 760.4742,252.4186 760.8463,252.4185C761.2764,252.4177 761.7066,252.4192 762.1367,252.4144C762.5515,252.4088 762.967,252.3999 763.3795,252.355C763.7762,252.3104 764.1715,252.2577 764.5725,252.268C764.9803,252.2529 765.3874,252.2245 765.7918,252.1713C766.1738,252.1308 766.5571,252.1421 766.9411,252.1434C767.2462,252.144 767.5514,252.1452 767.8565,252.1446C768.1486,252.1446 768.4407,252.1446 768.7328,252.1442C769.0917,252.1435 769.4505,252.1421 769.8094,252.1399C770.3626,252.1372 770.9159,252.1337 771.4691,252.144L769.7197,250.9424z" stroke="#000" stroke-linecap="square" stroke-linejoin="round" stroke-width=".4767"/>
<path d="M682.2672,251.2392C681.3707,251.2506 680.4741,251.2491 679.5776,251.2486C678.7558,251.2477 677.9341,251.246 677.1124,251.2432C676.5633,251.2409 676.0141,251.2408 675.465,251.2403C675.0322,251.2396 674.5995,251.2387 674.1667,251.2383C673.7887,251.2591 673.4254,251.183 673.0539,251.1463C672.6812,251.1135 672.3055,251.1088 671.9305,251.1054C671.5584,251.1034 671.1863,251.1043 670.8143,251.1046C670.4426,251.105 670.071,251.1051 669.6994,251.1052C669.3278,251.1053 668.9562,251.1053 668.5846,251.1053C668.213,251.1053 667.8414,251.1053 667.4697,251.1053C667.0707,251.1047 666.6718,251.1063 666.2728,251.1063C665.8688,251.1061 665.4648,251.1057 665.0607,251.1054C664.6865,251.1053 664.3123,251.1053 663.9381,251.1052C663.6906,251.1052 663.8144,251.1052 663.5669,251.1052L665.7968,252.2624C666.0443,252.2624 665.9205,252.2624 666.168,252.2624C666.5419,252.2624 666.9159,252.2623 667.2898,252.2622C667.6927,252.262 668.0956,252.2615 668.4985,252.2613C668.8989,252.2613 669.2992,252.2629 669.6996,252.2624C670.0712,252.2624 670.4428,252.2624 670.8144,252.2624C671.1861,252.2624 671.5577,252.2624 671.9293,252.2623C672.301,252.2621 672.6726,252.2619 673.0443,252.2616C673.4153,252.2614 673.7863,252.2606 674.1572,252.2657C674.5257,252.2728 674.8947,252.2845 675.2592,252.3269C675.6362,252.3704 676.0113,252.4141 676.3953,252.3947C676.8254,252.3943 677.2556,252.3935 677.6857,252.3927C678.2311,252.3922 678.7765,252.3921 679.3219,252.3898C680.1368,252.387 680.9516,252.3853 681.7664,252.3844C682.675,252.384 683.5837,252.3826 684.4921,252.3938L682.2672,251.2392z" stroke="#000" stroke-linecap="square" stroke-linejoin="round" stroke-width=".5276"/>
<path d="M724.4865,251.4122C723.7812,251.477 723.0696,251.4974 722.359,251.5127C721.7249,251.5238 721.0904,251.5238 720.4561,251.5226C719.9324,251.5221 719.4087,251.522 718.885,251.5211C717.8338,251.5407 716.782,251.5311 715.7306,251.5276C715.0952,251.5241 714.4599,251.5228 713.8246,251.5209C713.318,251.5209 712.8113,251.5205 712.3047,251.5214C711.7721,251.5227 711.2394,251.5205 710.7068,251.5212C710.2262,251.5203 709.7456,251.5204 709.265,251.5205C708.7837,251.5211 708.3023,251.5207 707.821,251.52C707.3612,251.5212 706.9014,251.5201 706.4416,251.5196C705.9917,251.521 705.5418,251.52 705.092,251.5196C704.6946,251.5191 704.2972,251.519 703.8999,251.519C703.5675,251.575 703.2332,251.6154 702.8922,251.6349C702.5225,251.6514 702.1517,251.6514 701.7814,251.6522C701.3961,251.6524 701.0108,251.6518 700.6255,251.6515C700.4326,251.6514 700.2397,251.6513 700.0468,251.6513L702.3597,252.8045C702.5525,252.8046 702.7454,252.8047 702.9382,252.8048C703.324,252.8051 703.7097,252.8059 704.0955,252.8045C704.4722,252.8021 704.8497,252.7997 705.2248,252.7727C705.5558,252.7446 705.88,252.6867 706.2127,252.6721C706.6092,252.672 707.0058,252.6719 707.4024,252.6715C707.8522,252.671 708.302,252.6701 708.7518,252.6714C709.211,252.6709 709.6703,252.6699 710.1295,252.671C710.6102,252.6703 711.0909,252.67 711.5716,252.6705C712.0513,252.6706 712.5311,252.6707 713.0108,252.6699C713.543,252.6705 714.0753,252.6684 714.6075,252.6696C715.1149,252.6705 715.6223,252.6701 716.1297,252.6702C716.7561,252.6682 717.3825,252.6669 718.0088,252.6635C719.0692,252.66 720.13,252.6508 721.1902,252.6705C721.713,252.6701 722.2358,252.671 722.7586,252.6702C723.3907,252.6674 724.0228,252.6638 724.6546,252.6486C725.3781,252.6283 726.1007,252.597 726.8211,252.546L724.4865,251.4122z" stroke="#000" stroke-linecap="square" stroke-linejoin="round" stroke-width=".5365"/>
<path d="M757.0222,213.569L757.0222,232.1122" fill="none" stroke="#000" stroke-linecap="round" stroke-width="4.8046"/>
<path d="M747.4982,211.8147L747.4982,230.3579" fill="none" stroke="#000" stroke-linecap="round" stroke-width="4.8046"/>
<path d="M738.5613,213.279L738.5613,231.8222" fill="none" stroke="#000" stroke-linecap="round" stroke-width="4.8046"/>
<path d="M726.8845,212.1117L726.8845,230.655" fill="none" stroke="#000" stroke-linecap="round" stroke-width="4.8046"/>
<path d="M716.7259,214.2983L716.7259,232.8415" fill="none" stroke="#000" stroke-linecap="round" stroke-width="4.8046"/>
<path d="M705.0966,214.1229L705.0966,232.6662" fill="none" stroke="#000" stroke-linecap="round" stroke-width="4.8046"/>
<path d="M694.5941,212.4087L694.5941,230.952" fill="none" stroke="#000" stroke-linecap="round" stroke-width="4.8046"/>
<path d="M684.6787,215.4457L684.6787,233.9889" fill="none" stroke="#000" stroke-linecap="round" stroke-width="4.8046"/>
<path d="M674.0057,215.077L674.0057,233.6202" fill="none" stroke="#000" stroke-linecap="round" stroke-width="4.8046"/>
<path d="M764.9064,218.2992L764.9064,236.8424" fill="none" stroke="#000" stroke-linecap="round" stroke-width="4.8046"/>
<text font-family="Bitstream Vera Sans" font-size="20" x="717.3433" y="121.3774">
   <tspan text-align="center" text-anchor="middle" x="717.3433" y="121.3774">J'aime</tspan>
   <tspan text-align="center" text-anchor="middle" x="717.3433" y="146.3774">le poker...</tspan>
  </text>
<path d="M714.0371,158.9536L721.8496,194.8911" fill="none" stroke="#000"/>
<g transform="translate(19.3871,3.7194)">
<path d="m123.2143,311.25c0,1.4793-3.7576,2.6786-8.3928,2.6786-4.6353,0-8.3929,-1.1992-8.3929,-2.6786 0,-1.4793 3.7576,-2.6786 8.3929,-2.6786 4.6352,0 8.3928,1.1992 8.3928,2.6786z" fill="#fff" stroke="#000" stroke-linecap="round" stroke-linejoin="round"/>
<path d="m123.2143,311.25c0,1.4793-3.7576,2.6786-8.3928,2.6786-4.6353,0-8.3929,-1.1992-8.3929,-2.6786 0,-1.4793 3.7576,-2.6786 8.3929,-2.6786 4.6352,0 8.3928,1.1992 8.3928,2.6786z" fill="#fff" stroke="#000" stroke-linecap="round" stroke-linejoin="round" transform="translate(.1544,-1.8059)"/>
</g>
<g transform="translate(38.3157,3.7194)">
<path d="m123.2143,311.25c0,1.4793-3.7576,2.6786-8.3928,2.6786-4.6353,0-8.3929,-1.1992-8.3929,-2.6786 0,-1.4793 3.7576,-2.6786 8.3929,-2.6786 4.6352,0 8.3928,1.1992 8.3928,2.6786z" fill="#fff" stroke="#000" stroke-linecap="round" stroke-linejoin="round"/>
<path d="m123.2143,311.25c0,1.4793-3.7576,2.6786-8.3928,2.6786-4.6353,0-8.3929,-1.1992-8.3929,-2.6786 0,-1.4793 3.7576,-2.6786 8.3929,-2.6786 4.6352,0 8.3928,1.1992 8.3928,2.6786z" fill="#fff" stroke="#000" stroke-linecap="round" stroke-linejoin="round" transform="translate(.1544,-1.8059)"/>
</g>
<g id="g3877">
<g transform="translate(2.7278535e-6,3.3521)">
<path d="m123.2143,311.25c0,1.4793-3.7576,2.6786-8.3928,2.6786-4.6353,0-8.3929,-1.1992-8.3929,-2.6786 0,-1.4793 3.7576,-2.6786 8.3929,-2.6786 4.6352,0 8.3928,1.1992 8.3928,2.6786z" fill="#fff" stroke="#000" stroke-linecap="round" stroke-linejoin="round"/>
<path d="m123.2143,311.25c0,1.4793-3.7576,2.6786-8.3928,2.6786-4.6353,0-8.3929,-1.1992-8.3929,-2.6786 0,-1.4793 3.7576,-2.6786 8.3929,-2.6786 4.6352,0 8.3928,1.1992 8.3928,2.6786z" fill="#fff" stroke="#000" stroke-linecap="round" stroke-linejoin="round" transform="translate(.1544,-1.8059)"/>
</g>
<g transform="translate(.1014,-.5663)">
<path d="m123.2143,311.25c0,1.4793-3.7576,2.6786-8.3928,2.6786-4.6353,0-8.3929,-1.1992-8.3929,-2.6786 0,-1.4793 3.7576,-2.6786 8.3929,-2.6786 4.6352,0 8.3928,1.1992 8.3928,2.6786z" fill="#fff" stroke="#000" stroke-linecap="round" stroke-linejoin="round"/>
<path d="m123.2143,311.25c0,1.4793-3.7576,2.6786-8.3928,2.6786-4.6353,0-8.3929,-1.1992-8.3929,-2.6786 0,-1.4793 3.7576,-2.6786 8.3929,-2.6786 4.6352,0 8.3928,1.1992 8.3928,2.6786z" fill="#fff" stroke="#000" stroke-linecap="round" stroke-linejoin="round" transform="translate(.1544,-1.8059)"/>
</g>
<g transform="translate(5.0687728e-2,-4.3214)">
<path d="m123.2143,311.25c0,1.4793-3.7576,2.6786-8.3928,2.6786-4.6353,0-8.3929,-1.1992-8.3929,-2.6786 0,-1.4793 3.7576,-2.6786 8.3929,-2.6786 4.6352,0 8.3928,1.1992 8.3928,2.6786z" fill="#fff" stroke="#000" stroke-linecap="round" stroke-linejoin="round"/>
<path d="m123.2143,311.25c0,1.4793-3.7576,2.6786-8.3928,2.6786-4.6353,0-8.3929,-1.1992-8.3929,-2.6786 0,-1.4793 3.7576,-2.6786 8.3929,-2.6786 4.6352,0 8.3928,1.1992 8.3928,2.6786z" fill="#fff" stroke="#000" stroke-linecap="round" stroke-linejoin="round" transform="translate(.1544,-1.8059)"/>
</g>
<g transform="translate(.1521,-7.8827)">
<path d="m123.2143,311.25c0,1.4793-3.7576,2.6786-8.3928,2.6786-4.6353,0-8.3929,-1.1992-8.3929,-2.6786 0,-1.4793 3.7576,-2.6786 8.3929,-2.6786 4.6352,0 8.3928,1.1992 8.3928,2.6786z" fill="#fff" stroke="#000" stroke-linecap="round" stroke-linejoin="round"/>
<path d="m123.2143,311.25c0,1.4793-3.7576,2.6786-8.3928,2.6786-4.6353,0-8.3929,-1.1992-8.3929,-2.6786 0,-1.4793 3.7576,-2.6786 8.3929,-2.6786 4.6352,0 8.3928,1.1992 8.3928,2.6786z" fill="#fff" stroke="#000" stroke-linecap="round" stroke-linejoin="round" transform="translate(.1544,-1.8059)"/>
</g>
</g>
<g transform="translate(19.3364,-.3928)">
<path d="m123.2143,311.25c0,1.4793-3.7576,2.6786-8.3928,2.6786-4.6353,0-8.3929,-1.1992-8.3929,-2.6786 0,-1.4793 3.7576,-2.6786 8.3929,-2.6786 4.6352,0 8.3928,1.1992 8.3928,2.6786z" fill="#fff" stroke="#000" stroke-linecap="round" stroke-linejoin="round"/>
<path d="m123.2143,311.25c0,1.4793-3.7576,2.6786-8.3928,2.6786-4.6353,0-8.3929,-1.1992-8.3929,-2.6786 0,-1.4793 3.7576,-2.6786 8.3929,-2.6786 4.6352,0 8.3928,1.1992 8.3928,2.6786z" fill="#fff" stroke="#000" stroke-linecap="round" stroke-linejoin="round" transform="translate(.1544,-1.8059)"/>
</g>
<g transform="translate(19.4378,-4.3113)">
<path d="m123.2143,311.25c0,1.4793-3.7576,2.6786-8.3928,2.6786-4.6353,0-8.3929,-1.1992-8.3929,-2.6786 0,-1.4793 3.7576,-2.6786 8.3929,-2.6786 4.6352,0 8.3928,1.1992 8.3928,2.6786z" fill="#fff" stroke="#000" stroke-linecap="round" stroke-linejoin="round"/>
<path d="m123.2143,311.25c0,1.4793-3.7576,2.6786-8.3928,2.6786-4.6353,0-8.3929,-1.1992-8.3929,-2.6786 0,-1.4793 3.7576,-2.6786 8.3929,-2.6786 4.6352,0 8.3928,1.1992 8.3928,2.6786z" fill="#fff" stroke="#000" stroke-linecap="round" stroke-linejoin="round" transform="translate(.1544,-1.8059)"/>
</g>
<use height="450" id="use3891" transform="translate(283.9519,-3.3804)" width="900" x="0" xlink:href="#g3877" y="0"/>
<use height="450" id="use3897" transform="translate(6.7608,-9.296)" width="900" x="0" xlink:href="#use3895" y="0"/>
<use height="450" id="use3895" transform="translate(-36.7616,1.2676)" width="900" x="0" xlink:href="#use3893" y="0"/>
<use height="450" id="use3899" transform="translate(21.5499,.8451)" width="900" x="0" xlink:href="#use3897" y="0"/>
<use height="450" transform="translate(19.8597,-.8451)" width="900" x="0" xlink:href="#use3899" y="0"/>
<use height="450" id="use3893" transform="translate(52.8184,8.0284)" width="900" x="0" xlink:href="#use3891" y="0"/>
<g id="g3909" transform="translate(.5976,-9.2624)">
<use height="450" id="use3903" transform="translate(249.7255,10.1411)" width="900" x="0" xlink:href="#use3895" y="0"/>
<use height="450" id="use3905" transform="translate(0,-14.8148)" width="900" x="0" xlink:href="#use3903" y="0"/>
<use height="450" transform="translate(0,-14.9393)" width="900" x="0" xlink:href="#use3905" y="0"/>
</g>
<use height="450" id="use3914" transform="translate(14.6405,3.5854)" width="900" x="0" xlink:href="#g3909" y="0"/>
<use height="450" id="use3918" transform="translate(13.7442,-3.2866)" width="900" x="0" xlink:href="#use3916" y="0"/>
<use height="450" id="use3916" transform="translate(13.7442,4.4818)" width="900" x="0" xlink:href="#use3914" y="0"/>
<use height="450" id="use3920" transform="translate(15.8357,4.183)" width="900" x="0" xlink:href="#use3918" y="0"/>
<use height="450" transform="translate(-16.1345,-.2988)" width="900" x="0" xlink:href="#use3924" y="0"/>
<use height="450" id="use3922" transform="translate(15.2381,2.6891)" width="900" x="0" xlink:href="#use3920" y="0"/>
<use height="450" id="use3924" transform="translate(22.7078,-6.8721)" width="900" x="0" xlink:href="#use3922" y="0"/>
</svg>
