<svg version="1.0" viewBox="0 0 900 450" xmlns="http://www.w3.org/2000/svg" xmlns:svg="http://www.w3.org/2000/svg">
<path d="M-344.2541,769.1505H-154.0451A7.5735,7.5735 0 0 1 -146.4716,776.724V813.077A7.5735,7.5735 0 0 1 -154.0451,820.6505H-344.2541A7.5735,7.5735 0 0 1 -351.8276,813.077V776.724A7.5735,7.5735 0 0 1 -344.2541,769.1505z" stroke="#000" stroke-linecap="round" stroke-linejoin="round" stroke-width="5.8088" transform="matrix(1,0,.87861,.47753,0,0)"/>
<path d="M53.4773,87.1964H834.4792A31.621,31.621 0 0 1 866.1003,118.8174V367.1663A31.621,31.621 0 0 1 834.4792,398.7873H53.4773A31.621,31.621 0 0 1 21.8563,367.1663V118.8174A31.621,31.621 0 0 1 53.4773,87.1964z" fill="#fff" stroke="#000" stroke-linecap="round" stroke-width="7.4907"/>
<path d="M649.7527,416.6587H868.6875A2.3409,2.3409 0 0 1 871.0283,418.9995V558.6036A2.3409,2.3409 0 0 1 868.6875,560.9444H649.7527A2.3409,2.3409 0 0 1 647.4119,558.6036V418.9995A2.3409,2.3409 0 0 1 649.7527,416.6587z" fill="#fff" stroke="#000" stroke-linecap="round" stroke-linejoin="round" stroke-width="1.0372" transform="matrix(.92953,-.36876,0,1,0,0)"/>
<path d="M600.3572,370.9757L864.9458,256.4835" fill="none" stroke="#000"/>
<path d="M612.5,228.1185C611.4044,229.7542 611.8352,236.1735 612.5,238.8328C613.3092,242.0698 619.8845,239.4263 621.0714,238.8328C623.7475,237.4948 622.5,230.6323 622.5,239.5471C622.5,243.0828 623.2143,246.0164 623.2143,249.5471" fill="none" stroke="#000"/>
<path d="M634.6429,222.4043C634.6429,224.663 640.0613,222.5268 641.0714,224.5471C643.2691,228.9426 639.962,232.7994 638.2143,234.5471C635.9653,236.7961 636.8701,240.5991 637.5,243.1185C638.6108,247.5618 645.0818,241.7179 646.0714,240.9757C647.4435,239.9466 647.323,240.1413 648.2143,239.5471" fill="none" stroke="#000"/>
<path d="M782.5,148.8328C784.7295,147.1607 778.9669,153.9864 779.6429,156.69C780.4711,160.0031 783.5519,160.2614 785.3572,160.2614C786.6799,160.2614 788.2143,153.8723 788.2143,152.4043C788.2143,147.833 787.2427,147.8843 782.5,148.8328z" fill="none" stroke="#000"/>
<path d="M783.9286,143.8328C783.9286,141.2575 787.8587,140.1718 790.3572,139.5471C791.7622,139.1959 789.9941,142.4278 789.6429,143.8328" fill="none" stroke="#000"/>
<path d="M791.0714,159.5471C793.7948,158.8663 798.2078,157.4108 800.3572,155.2614C802.1782,153.4403 795.7496,152.7968 793.9286,150.9757" fill="none" stroke="#000"/>
<path d="M599.098,83.8818L599.098,397.7723" fill="none" stroke="#000" stroke-width="5.6784"/>
<path d="M295.3879,83.1572L295.3879,397.0476" fill="none" stroke="#000" stroke-width="5.6784"/>
<path d="M844.3147,418.0202C844.754,418.5304 845.3502,418.5916 845.9849,418.6275C846.7878,418.6058 847.5921,418.4136 848.3424,418.1281C848.7433,417.9756 848.9648,417.8457 849.3389,417.6492C847.1002,418.959 848.3465,418.2575 848.765,417.8129C848.9819,417.5826 849.1114,417.3399 849.2336,417.0523C849.5513,416.1573 849.5925,415.1949 849.6467,414.2552C849.7523,412.8873 849.4691,411.5443 849.1642,410.2201C848.7934,408.8271 848.2897,407.4734 847.7349,406.1443C847.4693,405.5164 847.1688,404.9043 846.8762,404.2888C846.4819,403.5321 846.1593,404.002 848.3866,403.138C848.4633,403.1082 848.4785,403.2747 848.5277,403.3407C848.61,403.4513 848.6966,403.5587 848.781,403.6676C849.6027,404.7952 850.5909,405.7831 851.5811,406.7605C852.1637,407.3279 852.7885,407.8545 853.3456,408.4478C853.557,408.6204 853.6834,408.8638 853.8536,409.0707C854.0198,409.2209 854.1498,409.0628 854.2967,408.9601C851.7312,410.4985 852.6448,410.0013 853.1368,409.5295C853.3305,409.3438 853.5132,409.1452 853.6986,408.9514C853.9619,408.6888 854.2114,408.4076 854.4996,408.171C855.2606,407.5466 856.3223,407.0476 857.1093,406.5999C857.8364,406.2788 858.5803,405.9994 859.3358,405.7532C859.4921,405.7193 860.0968,405.4867 860.2348,405.6439C860.267,405.6805 860.28,405.7302 860.3025,405.7733C860.3057,405.8174 860.3179,405.8618 860.3119,405.9056C860.2684,406.2252 859.7735,406.5971 859.5575,406.796C858.5646,407.6168 857.6014,408.4705 856.6844,409.3752C855.8867,410.2309 855.0628,411.0756 854.4278,412.0626C854.0357,412.6791 853.8273,413.3598 853.7294,414.077C853.6646,414.7185 853.6752,415.3643 853.6762,416.0081C853.7113,416.708 853.8006,417.4093 854.009,418.0797C854.1284,418.4368 854.3408,418.6991 854.6807,418.8559C854.9062,418.9354 855.1644,418.9877 855.4045,418.9424C855.4603,418.9318 855.9261,418.774 855.9633,418.7616C856.5125,418.4619 857.8389,417.7611 855.3566,419.1214C855.2584,419.1752 855.5457,419.0013 855.6387,418.939C855.8525,418.796 855.9038,418.7539 856.1044,418.6044C856.345,418.4244 856.231,418.5118 856.4468,418.3427L858.1659,417.6513C857.948,417.8345 858.0647,417.7431 857.8143,417.9232C856.8004,418.706 855.6773,419.354 854.5134,419.8844C854.0027,420.0368 853.6256,420.1097 853.1283,419.8745C852.7621,419.668 852.5228,419.3684 852.394,418.9633C852.1899,418.273 852.1129,417.5544 852.0459,416.8396C852.042,416.1893 852.0313,415.5374 852.0839,414.8887C852.1767,414.1456 852.3726,413.4362 852.7723,412.7932C852.8524,412.6599 852.9252,412.522 853.0127,412.3935C853.1925,412.1295 853.4608,411.8274 853.6657,411.5899C854.1183,411.0652 854.5813,410.5497 855.0595,410.048C855.9514,409.1483 856.8914,408.2982 857.8661,407.4888C858.1422,407.2325 858.4279,406.9825 858.6662,406.6895C858.7057,406.7103 858.5784,406.707 858.5341,406.7131C858.3131,406.744 858.1003,406.8127 857.8875,406.8773C857.1404,407.1239 856.4009,407.3974 855.6916,407.7396C858.1362,406.2939 856.6664,407.1148 856.1886,407.4824C855.8976,407.7063 855.6486,407.9828 855.3933,408.2446C854.4676,409.2212 854.4145,409.3246 852.8483,410.133C852.5916,410.2542 852.4481,410.2398 852.2474,410.0289C852.0889,409.8194 851.962,409.5858 851.7663,409.4056C851.2329,408.8031 850.6381,408.2564 850.0731,407.6843C849.0923,406.686 848.0964,405.6994 847.2235,404.6026C847.1297,404.4971 847.0358,404.3918 846.9421,404.2863C846.89,404.2277 846.7267,404.1613 846.7862,404.1102C848.2003,402.8963 848.1202,402.5784 848.4855,403.3799C848.7612,404.0079 849.0518,404.6297 849.3026,405.2684C849.8276,406.6214 850.3116,407.9916 850.7079,409.3881C851.0264,410.7183 851.3414,412.0696 851.2498,413.4481C851.2137,414.3965 851.158,415.3624 850.9005,416.2799C850.8159,416.5146 850.7866,416.6344 850.6515,416.8491C850.0576,417.7926 848.7768,418.2382 847.9349,418.7738C846.8635,419.3004 845.7236,419.6727 844.5177,419.6781C844.3501,419.6647 844.1812,419.6623 844.0148,419.6378C843.5192,419.5649 843.0573,419.3484 842.7143,418.981L844.3147,418.0202z" stroke="#000" stroke-linecap="round" stroke-linejoin="round" stroke-width=".2515"/>
<path d="M859.6792,415.8634C858.9399,416.0705 857.3372,417.0598 860.1348,415.459C859.7468,415.6655 859.5164,416.0015 859.3349,416.3892C859.2313,416.6997 859.1207,417.0402 859.1432,417.3736C859.1588,417.6043 859.2188,417.7202 859.2972,417.9357C859.6044,418.5424 860.0767,419.0415 860.6371,419.4195C861.0508,419.7075 861.521,419.8386 862.0202,419.8447C862.4053,419.7572 862.7632,419.6072 863.1159,419.4323C863.2662,419.3578 863.7068,419.1145 863.5626,419.2003C861.9008,420.1895 862.317,419.9225 862.9051,419.5197C863.3893,419.1468 863.9156,418.7141 864.0403,418.0799C864.0577,417.9913 864.0565,417.9 864.0645,417.8101C864.0325,417.0168 863.5313,416.3958 863.0476,415.8093C862.7428,415.47 862.3975,415.1464 861.9807,414.9483C861.7692,414.8477 861.6608,414.8298 861.4367,414.7704C860.9848,414.7458 860.5112,414.7888 860.0821,414.9445C859.8838,415.0165 859.5831,415.1838 859.3988,415.2813C861.9119,413.7736 860.2653,414.7689 859.7469,415.2197L858.0364,415.9195C858.8324,415.1538 859.8953,414.7027 860.8206,414.1427C861.0891,414.0121 861.2477,413.9218 861.5347,413.8347C861.9915,413.696 862.4832,413.6636 862.9537,413.7329C863.1956,413.8101 863.2937,413.8296 863.5209,413.9507C863.9439,414.1761 864.2928,414.5186 864.6049,414.8762C865.1137,415.5026 865.6302,416.1518 865.7077,416.9856C865.704,417.0868 865.7102,417.1888 865.6965,417.2891C865.6037,417.9716 865.0961,418.4567 864.5799,418.8599C863.5786,419.5786 864.0917,419.2308 862.1562,420.327C861.6519,420.6127 861.1003,420.8545 860.5211,420.9221C859.9993,420.876 859.5138,420.7222 859.0888,420.4056C858.5139,419.9863 858.0305,419.4569 857.6938,418.8262C857.6153,418.6207 857.5261,418.425 857.4992,418.2033C857.4572,417.8561 857.5727,417.4912 857.6564,417.1603C857.8172,416.7517 858.0213,416.3645 858.4055,416.1246C859.3086,415.6048 860.1537,415.0083 861.1612,414.7302L859.6792,415.8634z" stroke="#000" stroke-linecap="round" stroke-linejoin="round" stroke-width=".2515"/>
<path d="M867.4754,416.6179C867.1552,416.7203 866.8224,416.8082 866.518,416.954C866.4157,417.003 866.3197,417.0641 866.2206,417.1192C866.6413,416.8836 867.062,416.648 867.4827,416.4124C866.9833,416.7494 866.6128,417.0862 866.3893,417.651C866.2431,418.1162 866.3132,418.5096 866.6817,418.8538C866.7706,418.9369 866.8752,419.0015 866.9719,419.0754C867.6761,419.4799 868.5097,419.6248 869.3163,419.5392C869.5475,419.5147 869.7743,419.4587 870.0033,419.4184C870.5332,419.2816 870.7642,419.2435 871.2619,419.0346C871.427,418.9653 871.8969,418.7041 871.7431,418.7959C869.505,420.1325 870.5181,419.5502 870.8696,419.1943C870.9475,419.1154 871.0094,419.0222 871.0793,418.9361C871.3858,418.4565 871.3937,418.03 871.1778,417.5191C871.1382,417.4293 870.9098,416.9587 870.7487,417.0605C870.7208,417.0782 870.7067,417.1114 870.6857,417.1368C873.2279,415.6872 872.26,415.9296 872.0134,416.6361C871.907,416.941 871.8885,417.2374 871.8738,417.5576C872.0505,419.0439 872.7071,420.4201 873.2465,421.8011C873.9024,423.6255 874.5346,425.5187 874.6074,427.4755C874.6219,427.8649 874.584,428.2546 874.5722,428.6441C874.5141,429.0186 874.4815,429.3981 874.3977,429.7677C874.1246,430.9736 873.5029,432.0774 872.5798,432.9047C872.4171,433.0505 872.2329,433.1704 872.0594,433.3033C871.3652,433.6659 870.7049,434.1024 869.977,434.3912C869.6752,434.5109 868.9468,434.2612 868.708,434.1547C867.8205,433.7591 867.054,433.1092 866.3001,432.5141C865.0281,431.4253 863.7828,430.2896 862.6449,429.0589C862.0555,428.4213 861.9097,428.2067 861.3977,427.5471C860.9619,426.82 860.4483,425.9771 860.8767,425.12C861.1302,424.6128 861.4362,424.4288 861.8609,424.0595C863.1336,423.2348 863.2378,423.1409 865.0804,422.2078C865.5301,421.9801 866.9804,421.4651 867.4242,421.3103C868.3093,421.0015 869.2611,420.6955 870.1511,420.4047C872.4892,419.7303 874.7792,418.9088 877.0426,418.0183C877.2347,417.9366 877.4271,417.8556 877.6189,417.7733C877.7655,417.7104 877.9132,417.65 878.0579,417.5829C878.3537,417.4459 878.63,417.2763 878.9352,417.1601C879.349,417.101 879.4941,417.5992 879.618,417.9019C879.9033,418.6724 880.064,419.4804 880.1334,420.2973C880.1505,420.6632 880.1624,421.0309 880.1106,421.3947C880.1053,421.4319 880.1245,421.4898 880.0904,421.5056C879.536,421.7638 878.9571,421.9658 878.3905,422.1958C878.392,422.0832 878.3858,421.9703 878.395,421.8581C878.4083,421.6948 878.4364,421.5331 878.4579,421.3706C878.5836,420.4228 878.7483,419.4875 878.9412,418.5511C879.1367,417.7342 879.3055,416.8788 879.7723,416.1658C880.301,415.6123 881.4766,414.5211 882.0491,415.1562C882.1091,415.2227 882.1511,415.3034 882.202,415.377C882.3141,415.5751 882.4109,415.7256 882.4842,415.945C882.6902,416.5622 882.7827,417.2856 882.8919,417.9274C883.0343,418.4829 882.98,419.1482 883.1485,419.6929C883.3714,419.0941 883.1463,419.7206 881.5454,420.4839C881.5129,420.4994 881.5943,420.4305 881.6125,420.3994C881.6541,420.3283 881.7358,420.1194 881.7675,420.0552C881.8109,419.9677 881.8604,419.8833 881.9068,419.7974C882.2079,419.3148 882.4628,418.8049 882.7946,418.3421C883.3492,417.6471 883.8681,417.4954 884.8283,416.9677C884.8613,416.9496 884.9056,416.9602 884.941,416.973C884.986,416.9892 885.0209,417.0255 885.0609,417.0518C885.4365,417.4468 885.5672,418.0057 885.694,418.52C885.8042,419.08 885.8632,419.6513 886.068,420.187C886.1179,420.2572 886.1586,420.3349 886.2176,420.3976C886.6474,420.8545 887.3584,421.1961 887.9446,421.3818C888.1652,421.4517 888.3924,421.4985 888.6164,421.5568C889.5645,421.7933 890.5158,421.8051 891.4589,421.5459C891.6676,421.4885 891.8773,421.4286 892.075,421.3404C892.2591,421.2583 892.4241,421.1385 892.5986,421.0376C892.2355,421.225 891.8991,421.4773 891.5092,421.5997C891.3589,421.6469 891.7431,421.3879 891.8505,421.2726C892.1668,420.9325 892.3477,420.5543 892.475,420.1143C892.5624,419.748 892.5608,419.3716 892.5507,418.9978C892.4486,418.2262 891.7669,418.9856 894.1269,418.0272C894.1699,418.0097 894.1017,418.1166 894.0945,418.1625C894.084,418.2291 894.0807,418.2967 894.0738,418.3638C894.0403,418.9718 894.0264,419.581 894.094,420.1867C894.1628,420.5764 894.2373,420.9746 894.5428,421.2481C894.7577,421.3895 894.9857,421.3992 895.2231,421.3215C895.7943,421.0332 896.6518,420.5332 894.0542,421.9996C893.962,422.0516 894.2324,421.8854 894.32,421.8259L896.049,421.1385C895.9151,421.2484 895.9395,421.2371 895.7858,421.3269C895.2017,421.6684 894.4783,422.2388 893.7392,422.4468C893.4507,422.4778 893.1817,422.415 892.9561,422.2233C892.6421,421.8959 892.5396,421.4785 892.4697,421.0383C892.3954,420.4255 892.4103,419.8101 892.4183,419.1938C892.4208,419.1115 892.428,418.8255 892.4338,418.8216C893.6569,418.0093 894.0523,417.2403 894.2076,418.1484C894.2163,418.5413 894.2167,418.9364 894.1347,419.323C893.7321,420.9269 892.6691,421.2924 891.2078,422.1575C891.0281,422.2481 890.856,422.3556 890.6687,422.4293C889.5432,422.8724 888.3169,422.8368 887.1592,422.5593C886.9279,422.498 886.6931,422.4488 886.4654,422.3753C885.883,422.1874 885.064,421.7853 884.6345,421.3335C884.5638,421.2591 884.5128,421.1681 884.4519,421.0853C884.2478,420.5391 884.1889,419.9603 884.0839,419.3894C883.978,418.947 883.8729,418.3999 883.5073,418.0928C883.4211,418.1037 883.4656,418.0906 883.3764,418.14C883.8705,417.8467 884.3645,417.5535 884.8585,417.2602C884.9003,417.2362 884.782,417.3191 884.747,417.3522C884.659,417.4352 884.5877,417.5349 884.4927,417.611C884.1381,418.0568 883.8824,418.5624 883.5862,419.0472C883.4749,419.2378 883.3829,419.4191 883.312,419.6282C883.2976,419.6707 883.3136,419.7347 883.2751,419.7579C881.6033,420.7634 881.9741,421.1702 881.5075,420.5842C881.3672,419.9927 881.4391,419.3647 881.3024,418.7704C881.1687,417.9385 881.0658,417.0475 880.6136,416.3197C880.535,416.2251 880.5012,416.1385 880.3763,416.1154C880.3424,416.1092 880.2444,416.1436 880.2735,416.1254C880.7583,415.8225 881.2617,415.5505 881.7516,415.2561C881.7957,415.2297 881.6555,415.2941 881.6121,415.3214C881.5608,415.3536 881.5168,415.3961 881.4691,415.4335C880.9179,416.0908 880.7517,416.9782 880.5288,417.7833C880.2777,418.9442 880.0621,420.1215 880.0267,421.3112C879.4854,421.643 878.955,421.9934 878.4027,422.3066C878.3722,422.3238 878.4329,422.2432 878.4427,422.2096C878.5438,421.8617 878.515,421.4935 878.5149,421.1366C878.4683,420.3381 878.319,419.544 878.0139,418.8014C877.9557,418.6671 877.8488,418.2777 877.6452,418.2639C877.598,418.2607 877.5114,418.2981 877.4738,418.3116C876.8717,418.5796 876.287,418.8873 875.6613,419.1016C873.418,419.9453 871.1556,420.736 868.855,421.4108C867.5197,421.8526 866.175,422.2795 864.8671,422.7994C864.4906,422.949 864.1459,423.1951 863.7489,423.2755C863.545,423.3168 864.4501,422.8306 864.2631,422.9217C863.9903,423.0546 863.7475,423.2417 863.4898,423.4017C863.0083,423.7882 862.418,424.1881 862.3039,424.8543C862.1916,425.51 862.6092,426.1163 862.8917,426.66C863.0663,426.8986 863.2326,427.1437 863.4157,427.3759C864.6663,428.962 866.188,430.3227 867.7373,431.6073C868.4974,432.1748 869.2726,432.8094 870.1712,433.1535C870.3785,433.233 870.5961,433.2931 870.8168,433.3177C871.0051,433.3386 871.4863,433.129 871.3843,433.2887C871.172,433.6212 870.7335,433.7347 870.4081,433.9577C870.5902,433.8305 870.7829,433.7174 870.9545,433.5763C871.9073,432.7923 872.5751,431.7101 872.8724,430.5142C872.9627,430.1508 872.998,429.776 873.0608,429.4069C873.0789,429.0227 873.1249,428.6388 873.1151,428.2544C873.0656,426.3133 872.4072,424.4401 871.7439,422.6398C871.1811,421.2479 870.4962,419.8759 870.2512,418.3822C870.2429,418.0287 870.2516,417.7595 870.3372,417.4175C870.342,417.3984 870.4369,417.0579 870.4792,417.0288C871.022,416.6549 871.6001,416.3351 872.1606,415.9882C872.2032,415.9917 872.2472,415.9872 872.2885,415.9985C872.5532,416.0709 872.6802,416.3994 872.7908,416.6141C873.0265,417.1706 873.0588,417.6658 872.759,418.2124C872.691,418.3099 872.6322,418.4144 872.5549,418.5047C872.0028,419.1499 870.8985,419.6028 870.3366,419.9155C869.7991,420.2145 869.1807,420.3424 868.5895,420.4808C868.3529,420.5163 868.118,420.5679 867.8795,420.5873C867.0274,420.6569 866.157,420.5039 865.4297,420.0466C865.3253,419.9632 865.2128,419.8891 865.1165,419.7966C864.7091,419.4052 864.582,418.9733 864.7168,418.4329C864.9199,417.7869 865.2385,417.4742 865.7815,417.0765C866.8295,416.4574 867.7769,415.7745 868.9573,415.4847L867.4754,416.6179z" stroke="#000" stroke-linecap="round" stroke-linejoin="round" stroke-width=".2515"/>
<path d="M892.8862,410.9682C892.6619,411.2314 892.4827,411.5325 892.3974,411.8689C892.3364,412.2052 892.537,412.2915 892.8129,412.4122C893.2591,412.5756 893.6406,412.5577 894.0976,412.4769C894.7087,412.2674 895.6793,411.6703 892.9628,413.1689C892.9246,413.19 893.0351,413.1199 893.0673,413.0905C893.144,413.0207 893.1517,412.9917 893.2018,412.9042C893.2941,412.6972 893.285,412.5034 893.1662,412.3127C893.0081,412.1629 892.7704,412.177 892.5664,412.167C892.3558,412.1865 892.1551,412.2388 891.9838,412.3651L893.4387,411.1935C893.6458,411.1151 893.8578,411.0655 894.0816,411.0833C894.3478,411.1096 894.6098,411.1474 894.7825,411.375C894.9231,411.6116 894.9787,411.8561 894.8974,412.1262C894.6027,413.0154 893.4833,413.3749 892.6173,413.5866C892.1558,413.6447 891.6996,413.6193 891.2657,413.4339C890.9539,413.273 890.6743,413.0716 890.7215,412.6812C890.7791,412.3188 890.9559,411.9942 891.1682,411.6981L892.8862,410.9682z" stroke="#000" stroke-linecap="round" stroke-linejoin="round" stroke-width=".2515"/>
<path d="M869.0416,415.4999C869.3953,415.328 869.7328,415.1248 870.0977,414.9765C870.3264,414.828 870.5772,414.7594 870.8446,414.7302C871.0907,414.7115 871.3377,414.7146 871.5843,414.7155C871.829,414.6895 872.0363,414.7564 872.2512,414.8613C872.4017,414.9819 872.5204,415.1421 872.6347,415.297C872.7341,415.4776 872.7925,415.6801 872.8537,415.8768C872.9085,416.0784 872.9831,416.2709 873.0226,416.4769C873.0607,416.7187 873.0633,416.964 873.0663,417.2082C873.0673,417.334 873.0672,417.4599 873.0671,417.5858L871.4051,418.4325C871.4053,418.3072 871.4055,418.1819 871.405,418.0567C871.4032,417.8223 871.4028,417.5871 871.3733,417.3542C871.3405,417.1535 871.2671,416.9689 871.2137,416.774C871.1618,416.5971 871.1058,416.4169 871.0255,416.2519C870.9277,416.1237 870.8325,415.9772 870.6919,415.8942C870.4944,415.8084 870.2885,415.8028 870.0751,415.812C869.8338,415.8131 869.5909,415.8119 869.352,415.8509C869.0994,415.9043 868.8718,416.013 868.6418,416.1284C868.2839,416.2949 867.9378,416.4857 867.5909,416.6736L869.0416,415.4999z" stroke="#000" stroke-linecap="round" stroke-linejoin="round" stroke-width=".2515"/>
<path d="M63.4045,51.8901H250.2827A15.9099,15.9099 0 0 1 266.1926,67.8V67.8A15.9099,15.9099 0 0 1 250.2827,83.7099H63.4045A15.9099,15.9099 0 0 1 47.4946,67.8V67.8A15.9099,15.9099 0 0 1 63.4045,51.8901z" fill="#fff" stroke="#000" stroke-linecap="round" stroke-linejoin="round" stroke-width="4"/>
<path d="M101.5203,44.9288A36.8706,34.8503 0 1 1 27.7792,44.9288A36.8706,34.8503 0 1 1 101.5203,44.9288z" stroke="#000" stroke-linecap="round" stroke-linejoin="round" stroke-width="7.491" transform="matrix(.7121,0,0,.7121,2.20827,29.51295)"/>
<text font-family="Bitstream Vera Sans" font-size="40" x="23.8575" y="75.5475">
   <tspan fill="#f9f9f9" x="23.8575" y="75.5475">19</tspan>
  </text>
<text font-family="Bitstream Vera Sans" font-size="20" x="112.6474" y="75.6719">
   <tspan x="112.6474" y="75.6719">Méthodo</tspan>
  </text>
<text font-family="Bitstream Vera Sans" font-size="20" x="450.57" y="159.8671">
   <tspan text-align="center" text-anchor="middle" x="450.57" y="159.8671">Hmm...</tspan>
  </text>
<path d="M444.3647,182.7075L437.2219,232.7075" fill="none" stroke="#000"/>
<path d="M338.534,299.0371H557.4687A2.3409,2.3409 0 0 1 559.8096,301.3779V440.9819A2.3409,2.3409 0 0 1 557.4687,443.3228H338.534A2.3409,2.3409 0 0 1 336.1931,440.9819V301.3779A2.3409,2.3409 0 0 1 338.534,299.0371z" fill="#fff" stroke="#000" stroke-linecap="round" stroke-linejoin="round" stroke-width="1.0372" transform="matrix(.92953,-.36876,0,1,0,0)"/>
<path d="M311.0714,368.1186L581.7857,250.9757" fill="none" stroke="#000"/>
<path d="M323.2143,225.2614C322.1187,226.8971 322.5495,233.3164 323.2143,235.9757C324.0235,239.2126 330.5988,236.5692 331.7857,235.9757C334.4618,234.6376 333.2143,227.7751 333.2143,236.69C333.2143,240.2257 333.9286,243.1593 333.9286,246.69" fill="none" stroke="#000"/>
<path d="M345.3571,219.5471C345.3571,221.8059 350.7756,219.6697 351.7857,221.69C353.9834,226.0854 350.6763,229.9422 348.9286,231.69C346.6796,233.939 347.5844,237.742 348.2143,240.2614C349.3251,244.7046 355.7961,238.8608 356.7857,238.1185C358.1578,237.0895 358.0373,237.2842 358.9286,236.69" fill="none" stroke="#000"/>
<path d="M493.2143,145.9757C495.4438,144.3036 489.6812,151.1292 490.3571,153.8328C491.1854,157.146 494.2662,157.4043 496.0714,157.4043C497.3942,157.4043 498.9286,151.0151 498.9286,149.5471C498.9286,144.9759 497.957,145.0272 493.2143,145.9757z" fill="none" stroke="#000"/>
<path d="M494.6429,140.9757C494.6429,138.4003 498.5729,137.3146 501.0714,136.69C502.4765,136.3387 500.7084,139.5707 500.3571,140.9757" fill="none" stroke="#000"/>
<path d="M501.7857,156.69C504.509,156.0091 508.9221,154.5536 511.0714,152.4043C512.8925,150.5832 506.4639,149.9396 504.6429,148.1185" fill="none" stroke="#000"/>
<g transform="translate(307.7771,27.1267)">
<path d="m446.8915,78.4154c0,2.9289-27.5427,5.3033-61.5183,5.3033-33.9756,0-61.5183,-2.3744-61.5183,-5.3033 0,-2.9289 27.5427,-5.3033 61.5183,-5.3033 33.9756,0 61.5183,2.3744 61.5183,5.3033z" stroke="#000" stroke-linecap="round" stroke-width="4.862" transform="matrix(-1,0,0,1,544.01854,260.95283)"/>
<path d="M104.8871,252.4807L104.8871,300.3692C104.8871,320.3762 120.9939,336.4829 141.0009,336.4829L176.4349,336.4829C196.4419,336.4829 212.5486,320.3762 212.5486,300.3692L212.5486,252.4807" fill="#fff" stroke="#000" stroke-linecap="round" stroke-linejoin="round" stroke-width="3.642"/>
<path d="M-197.5006,272.2922H-173.9666A.7803,.7803 0 0 1 -173.1863,273.0725V283.0986A.7803,.7803 0 0 1 -173.9666,283.8789H-197.5006A.7803,.7803 0 0 1 -198.2809,283.0986V273.0725A.7803,.7803 0 0 1 -197.5006,272.2922z" stroke="#000" stroke-linecap="square" stroke-linejoin="round" stroke-width="3.7338" transform="scale(-1,1)"/>
<path d="M-154.1097,272.2922H-133.6968A2.3409,2.3409 0 0 1 -131.3559,274.6331V281.538A2.3409,2.3409 0 0 1 -133.6968,283.8789H-154.1097A2.3409,2.3409 0 0 1 -156.4505,281.538V274.6331A2.3409,2.3409 0 0 1 -154.1097,272.2922z" stroke="#000" stroke-linecap="square" stroke-linejoin="round" stroke-width="3.7338" transform="scale(-1,1)"/>
<path d="M210.2404,277.3468C209.6912,277.3573 209.1418,277.3536 208.5926,277.3509C208.2296,277.3487 207.8667,277.3473 207.5037,277.3466C207.2112,277.3462 206.9187,277.3462 206.6262,277.3462C206.3222,277.3456 206.0181,277.3468 205.7141,277.3474C205.3235,277.3377 204.9389,277.347 204.5522,277.3981C204.1525,277.4526 203.7491,277.4698 203.3459,277.4808C202.9407,277.465 202.543,277.5397 202.1419,277.5799C201.734,277.6166 201.3239,277.6205 200.9145,277.6249C200.4844,277.6272 200.0542,277.627 199.6241,277.6255C199.2505,277.6248 198.8769,277.6242 198.5033,277.6233C198.1963,277.6225 197.8892,277.6223 197.5822,277.6222C197.2907,277.6221 196.9992,277.6221 196.7077,277.6221C196.4162,277.6221 196.1246,277.6221 195.8331,277.6221C195.5144,277.6218 195.1957,277.6227 194.877,277.6241C194.4828,277.6264 194.0885,277.6245 193.6942,277.6235C193.3233,277.6232 192.9524,277.6239 192.5816,277.625C192.1848,277.6248 191.7881,277.6249 191.3914,277.6239C191.0114,277.6241 190.6315,277.6246 190.2515,277.6241C189.9059,277.6228 189.5603,277.6225 189.2148,277.6243C188.6816,277.6269 188.1484,277.6285 187.6152,277.6304C186.8886,277.6332 186.1619,277.6338 185.4353,277.6314C184.902,277.63 184.3688,277.6262 183.8356,277.6259C183.3943,277.6266 182.953,277.6259 182.5117,277.6244C182.4506,277.6242 182.3895,277.624 182.3284,277.6238L184.0743,278.8231C184.1349,278.8229 184.1954,278.8227 184.2559,278.8225C184.6957,278.821 185.1356,278.8204 185.5754,278.821C186.1034,278.8208 186.6313,278.8169 187.1593,278.8156C187.8869,278.8132 188.6145,278.8138 189.3421,278.8166C189.8812,278.8185 190.4203,278.8201 190.9594,278.8227C191.3052,278.8244 191.651,278.8242 191.9968,278.8229C192.3769,278.8223 192.7571,278.8229 193.1372,278.8231C193.5329,278.8221 193.9286,278.8222 194.3243,278.822C194.6966,278.823 195.0689,278.8238 195.4413,278.8235C195.8349,278.8224 196.2286,278.8205 196.6223,278.8229C196.9428,278.8243 197.2634,278.8252 197.584,278.8248C197.8755,278.8248 198.1671,278.8248 198.4586,278.8248C198.7501,278.8248 199.0415,278.8248 199.3329,278.8248C199.6389,278.8246 199.9449,278.8244 200.2509,278.8238C200.6229,278.8231 200.995,278.823 201.367,278.8229C201.7971,278.8221 202.2273,278.8236 202.6574,278.8188C203.0722,278.8132 203.4877,278.8043 203.9002,278.7594C204.297,278.7148 204.6922,278.6622 205.0932,278.6724C205.501,278.6573 205.9081,278.6289 206.3125,278.5757C206.6945,278.5352 207.0779,278.5465 207.4618,278.5478C207.7669,278.5484 208.0721,278.5496 208.3773,278.549C208.6694,278.549 208.9615,278.549 209.2536,278.5486C209.6124,278.5479 209.9712,278.5465 210.3301,278.5444C210.8833,278.5416 211.4366,278.5381 211.9898,278.5484L210.2404,277.3468z" stroke="#000" stroke-linecap="square" stroke-linejoin="round" stroke-width=".4767"/>
<path d="M138.8458,277.704C137.1576,277.714 135.469,277.7126 133.7806,277.7122C132.233,277.7115 130.6855,277.71 129.1379,277.7075C128.1038,277.7055 127.0696,277.7054 126.0354,277.7049C125.2205,277.7043 124.4055,277.7035 123.5905,277.7031C122.8786,277.7215 122.1945,277.6543 121.4947,277.622C120.7929,277.5931 120.0852,277.5889 119.3791,277.5859C118.6784,277.5841 117.9776,277.5849 117.2769,277.5852C116.577,277.5856 115.8772,277.5857 115.1774,277.5857C114.4775,277.5858 113.7777,277.5858 113.0778,277.5858C112.378,277.5858 111.6781,277.5858 110.9783,277.5858C110.2268,277.5853 109.4755,277.5867 108.7241,277.5867C107.9632,277.5865 107.2023,277.5861 106.4414,277.586C105.7367,277.5858 105.0319,277.5858 104.3273,277.5858C103.8612,277.5858 104.0942,277.5858 103.6282,277.5858L107.8277,278.6067C108.2937,278.6067 108.0606,278.6067 108.5267,278.6067C109.2309,278.6067 109.9351,278.6067 110.6393,278.6065C111.3981,278.6063 112.1569,278.6059 112.9156,278.6057C113.6697,278.6057 114.4236,278.6072 115.1776,278.6067C115.8775,278.6067 116.5774,278.6067 117.2773,278.6067C117.9771,278.6067 118.677,278.6067 119.3769,278.6066C120.0768,278.6065 120.7768,278.6063 121.4767,278.606C122.1753,278.6058 122.874,278.6051 123.5725,278.6096C124.2665,278.6159 124.9615,278.6262 125.6479,278.6636C126.358,278.702 127.0643,278.7405 127.7875,278.7235C128.5976,278.7231 129.4076,278.7224 130.2177,278.7217C131.2448,278.7212 132.272,278.7212 133.2991,278.7191C134.8337,278.7166 136.3682,278.7151 137.9028,278.7144C139.6139,278.714 141.3251,278.7128 143.036,278.7226L138.8458,277.704z" stroke="#000" stroke-linecap="square" stroke-linejoin="round" stroke-width=".6801"/>
<path d="M178.4168,277.68C177.4133,277.7409 176.4009,277.76 175.3899,277.7744C174.4877,277.7849 173.585,277.7849 172.6825,277.7837C171.9375,277.7833 171.1924,277.7832 170.4473,277.7823C168.9517,277.8007 167.4552,277.7917 165.9593,277.7884C165.0554,277.7852 164.1515,277.7839 163.2476,277.7821C162.5268,277.7821 161.8059,277.7817 161.0851,277.7826C160.3273,277.7838 159.5695,277.7818 158.8117,277.7824C158.1279,277.7816 157.4441,277.7817 156.7604,277.7818C156.0755,277.7823 155.3907,277.782 154.7059,277.7813C154.0517,277.7824 153.3975,277.7814 152.7434,277.7809C152.1033,277.7822 151.4632,277.7813 150.8232,277.7809C150.2578,277.7805 149.6925,277.7804 149.1271,277.7803C148.6543,277.833 148.1787,277.8709 147.6935,277.8893C147.1675,277.9048 146.64,277.9048 146.1131,277.9055C145.5649,277.9057 145.0167,277.9051 144.4685,277.9049C144.1941,277.9047 143.9196,277.9047 143.6452,277.9047L146.9358,278.9885C147.2102,278.9885 147.4845,278.9886 147.7589,278.9888C148.3077,278.9891 148.8566,278.9897 149.4055,278.9884C149.9414,278.9862 150.4785,278.9839 151.0122,278.9586C151.4831,278.9321 151.9443,278.8778 152.4177,278.864C152.9819,278.8639 153.5461,278.8638 154.1103,278.8634C154.7503,278.863 155.3903,278.8621 156.0302,278.8634C156.6836,278.8629 157.337,278.8619 157.9904,278.863C158.6743,278.8623 159.3581,278.862 160.042,278.8625C160.7246,278.8626 161.4072,278.8627 162.0898,278.8619C162.847,278.8625 163.6042,278.8605 164.3614,278.8616C165.0834,278.8626 165.8053,278.8622 166.5272,278.8622C167.4184,278.8604 168.3095,278.8591 169.2006,278.8559C170.7094,278.8526 172.2186,278.844 173.727,278.8625C174.4708,278.8622 175.2146,278.863 175.9584,278.8622C176.8578,278.8596 177.7571,278.8562 178.656,278.8419C179.6853,278.8228 180.7134,278.7934 181.7383,278.7455L178.4168,277.68z" stroke="#000" stroke-linecap="square" stroke-linejoin="round" stroke-width=".6203"/>
<path d="M197.5429,239.9734L197.5429,258.5166" fill="none" stroke="#000" stroke-linecap="round" stroke-width="4.8046"/>
<path d="M188.0189,238.2191L188.0189,256.7623" fill="none" stroke="#000" stroke-linecap="round" stroke-width="4.8046"/>
<path d="M179.082,239.6834L179.082,258.2266" fill="none" stroke="#000" stroke-linecap="round" stroke-width="4.8046"/>
<path d="M167.4052,238.5161L167.4052,257.0594" fill="none" stroke="#000" stroke-linecap="round" stroke-width="4.8046"/>
<path d="M157.2466,240.7027L157.2466,259.2459" fill="none" stroke="#000" stroke-linecap="round" stroke-width="4.8046"/>
<path d="M145.6173,240.5273L145.6173,259.0706" fill="none" stroke="#000" stroke-linecap="round" stroke-width="4.8046"/>
<path d="M135.1148,238.8132L135.1148,257.3564" fill="none" stroke="#000" stroke-linecap="round" stroke-width="4.8046"/>
<path d="M125.1994,241.8501L125.1994,260.3933" fill="none" stroke="#000" stroke-linecap="round" stroke-width="4.8046"/>
<path d="M114.5264,241.4814L114.5264,260.0246" fill="none" stroke="#000" stroke-linecap="round" stroke-width="4.8046"/>
<path d="M167.1592,316.5558L140.0362,312.1276" fill="none" stroke="#000" stroke-width=".7749"/>
<path d="M205.4271,244.7036L205.4271,263.2468" fill="none" stroke="#000" stroke-linecap="round" stroke-width="4.8046"/>
</g>
<g transform="matrix(-1,0,0,1,879.33245,43.95263)">
<path d="m446.8915,78.4154c0,2.9289-27.5427,5.3033-61.5183,5.3033-33.9756,0-61.5183,-2.3744-61.5183,-5.3033 0,-2.9289 27.5427,-5.3033 61.5183,-5.3033 33.9756,0 61.5183,2.3744 61.5183,5.3033z" stroke="#000" stroke-linecap="round" stroke-width="4.862" transform="matrix(-1,0,0,1,544.01854,260.95283)"/>
<path d="M104.8871,252.4807L104.8871,300.3692C104.8871,320.3762 120.9939,336.4829 141.0009,336.4829L176.4349,336.4829C196.4419,336.4829 212.5486,320.3762 212.5486,300.3692L212.5486,252.4807" fill="#fff" stroke="#000" stroke-linecap="round" stroke-linejoin="round" stroke-width="3.642"/>
<path d="M-197.5006,272.2922H-173.9666A.7803,.7803 0 0 1 -173.1863,273.0725V283.0986A.7803,.7803 0 0 1 -173.9666,283.8789H-197.5006A.7803,.7803 0 0 1 -198.2809,283.0986V273.0725A.7803,.7803 0 0 1 -197.5006,272.2922z" stroke="#000" stroke-linecap="square" stroke-linejoin="round" stroke-width="3.7338" transform="scale(-1,1)"/>
<path d="M-154.1097,272.2922H-133.6968A2.3409,2.3409 0 0 1 -131.3559,274.6331V281.538A2.3409,2.3409 0 0 1 -133.6968,283.8789H-154.1097A2.3409,2.3409 0 0 1 -156.4505,281.538V274.6331A2.3409,2.3409 0 0 1 -154.1097,272.2922z" stroke="#000" stroke-linecap="square" stroke-linejoin="round" stroke-width="3.7338" transform="scale(-1,1)"/>
<path d="M210.2404,277.3468C209.6912,277.3573 209.1418,277.3536 208.5926,277.3509C208.2296,277.3487 207.8667,277.3473 207.5037,277.3466C207.2112,277.3462 206.9187,277.3462 206.6262,277.3462C206.3222,277.3456 206.0181,277.3468 205.7141,277.3474C205.3235,277.3377 204.9389,277.347 204.5522,277.3981C204.1525,277.4526 203.7491,277.4698 203.3459,277.4808C202.9407,277.465 202.543,277.5397 202.1419,277.5799C201.734,277.6166 201.3239,277.6205 200.9145,277.6249C200.4844,277.6272 200.0542,277.627 199.6241,277.6255C199.2505,277.6248 198.8769,277.6242 198.5033,277.6233C198.1963,277.6225 197.8892,277.6223 197.5822,277.6222C197.2907,277.6221 196.9992,277.6221 196.7077,277.6221C196.4162,277.6221 196.1246,277.6221 195.8331,277.6221C195.5144,277.6218 195.1957,277.6227 194.877,277.6241C194.4828,277.6264 194.0885,277.6245 193.6942,277.6235C193.3233,277.6232 192.9524,277.6239 192.5816,277.625C192.1848,277.6248 191.7881,277.6249 191.3914,277.6239C191.0114,277.6241 190.6315,277.6246 190.2515,277.6241C189.9059,277.6228 189.5603,277.6225 189.2148,277.6243C188.6816,277.6269 188.1484,277.6285 187.6152,277.6304C186.8886,277.6332 186.1619,277.6338 185.4353,277.6314C184.902,277.63 184.3688,277.6262 183.8356,277.6259C183.3943,277.6266 182.953,277.6259 182.5117,277.6244C182.4506,277.6242 182.3895,277.624 182.3284,277.6238L184.0743,278.8231C184.1349,278.8229 184.1954,278.8227 184.2559,278.8225C184.6957,278.821 185.1356,278.8204 185.5754,278.821C186.1034,278.8208 186.6313,278.8169 187.1593,278.8156C187.8869,278.8132 188.6145,278.8138 189.3421,278.8166C189.8812,278.8185 190.4203,278.8201 190.9594,278.8227C191.3052,278.8244 191.651,278.8242 191.9968,278.8229C192.3769,278.8223 192.7571,278.8229 193.1372,278.8231C193.5329,278.8221 193.9286,278.8222 194.3243,278.822C194.6966,278.823 195.0689,278.8238 195.4413,278.8235C195.8349,278.8224 196.2286,278.8205 196.6223,278.8229C196.9428,278.8243 197.2634,278.8252 197.584,278.8248C197.8755,278.8248 198.1671,278.8248 198.4586,278.8248C198.7501,278.8248 199.0415,278.8248 199.3329,278.8248C199.6389,278.8246 199.9449,278.8244 200.2509,278.8238C200.6229,278.8231 200.995,278.823 201.367,278.8229C201.7971,278.8221 202.2273,278.8236 202.6574,278.8188C203.0722,278.8132 203.4877,278.8043 203.9002,278.7594C204.297,278.7148 204.6922,278.6622 205.0932,278.6724C205.501,278.6573 205.9081,278.6289 206.3125,278.5757C206.6945,278.5352 207.0779,278.5465 207.4618,278.5478C207.7669,278.5484 208.0721,278.5496 208.3773,278.549C208.6694,278.549 208.9615,278.549 209.2536,278.5486C209.6124,278.5479 209.9712,278.5465 210.3301,278.5444C210.8833,278.5416 211.4366,278.5381 211.9898,278.5484L210.2404,277.3468z" stroke="#000" stroke-linecap="square" stroke-linejoin="round" stroke-width=".4767"/>
<path d="M138.8458,277.704C137.1576,277.714 135.469,277.7126 133.7806,277.7122C132.233,277.7115 130.6855,277.71 129.1379,277.7075C128.1038,277.7055 127.0696,277.7054 126.0354,277.7049C125.2205,277.7043 124.4055,277.7035 123.5905,277.7031C122.8786,277.7215 122.1945,277.6543 121.4947,277.622C120.7929,277.5931 120.0852,277.5889 119.3791,277.5859C118.6784,277.5841 117.9776,277.5849 117.2769,277.5852C116.577,277.5856 115.8772,277.5857 115.1774,277.5857C114.4775,277.5858 113.7777,277.5858 113.0778,277.5858C112.378,277.5858 111.6781,277.5858 110.9783,277.5858C110.2268,277.5853 109.4755,277.5867 108.7241,277.5867C107.9632,277.5865 107.2023,277.5861 106.4414,277.586C105.7367,277.5858 105.0319,277.5858 104.3273,277.5858C103.8612,277.5858 104.0942,277.5858 103.6282,277.5858L107.8277,278.6067C108.2937,278.6067 108.0606,278.6067 108.5267,278.6067C109.2309,278.6067 109.9351,278.6067 110.6393,278.6065C111.3981,278.6063 112.1569,278.6059 112.9156,278.6057C113.6697,278.6057 114.4236,278.6072 115.1776,278.6067C115.8775,278.6067 116.5774,278.6067 117.2773,278.6067C117.9771,278.6067 118.677,278.6067 119.3769,278.6066C120.0768,278.6065 120.7768,278.6063 121.4767,278.606C122.1753,278.6058 122.874,278.6051 123.5725,278.6096C124.2665,278.6159 124.9615,278.6262 125.6479,278.6636C126.358,278.702 127.0643,278.7405 127.7875,278.7235C128.5976,278.7231 129.4076,278.7224 130.2177,278.7217C131.2448,278.7212 132.272,278.7212 133.2991,278.7191C134.8337,278.7166 136.3682,278.7151 137.9028,278.7144C139.6139,278.714 141.3251,278.7128 143.036,278.7226L138.8458,277.704z" stroke="#000" stroke-linecap="square" stroke-linejoin="round" stroke-width=".6801"/>
<path d="M178.4168,277.68C177.4133,277.7409 176.4009,277.76 175.3899,277.7744C174.4877,277.7849 173.585,277.7849 172.6825,277.7837C171.9375,277.7833 171.1924,277.7832 170.4473,277.7823C168.9517,277.8007 167.4552,277.7917 165.9593,277.7884C165.0554,277.7852 164.1515,277.7839 163.2476,277.7821C162.5268,277.7821 161.8059,277.7817 161.0851,277.7826C160.3273,277.7838 159.5695,277.7818 158.8117,277.7824C158.1279,277.7816 157.4441,277.7817 156.7604,277.7818C156.0755,277.7823 155.3907,277.782 154.7059,277.7813C154.0517,277.7824 153.3975,277.7814 152.7434,277.7809C152.1033,277.7822 151.4632,277.7813 150.8232,277.7809C150.2578,277.7805 149.6925,277.7804 149.1271,277.7803C148.6543,277.833 148.1787,277.8709 147.6935,277.8893C147.1675,277.9048 146.64,277.9048 146.1131,277.9055C145.5649,277.9057 145.0167,277.9051 144.4685,277.9049C144.1941,277.9047 143.9196,277.9047 143.6452,277.9047L146.9358,278.9885C147.2102,278.9885 147.4845,278.9886 147.7589,278.9888C148.3077,278.9891 148.8566,278.9897 149.4055,278.9884C149.9414,278.9862 150.4785,278.9839 151.0122,278.9586C151.4831,278.9321 151.9443,278.8778 152.4177,278.864C152.9819,278.8639 153.5461,278.8638 154.1103,278.8634C154.7503,278.863 155.3903,278.8621 156.0302,278.8634C156.6836,278.8629 157.337,278.8619 157.9904,278.863C158.6743,278.8623 159.3581,278.862 160.042,278.8625C160.7246,278.8626 161.4072,278.8627 162.0898,278.8619C162.847,278.8625 163.6042,278.8605 164.3614,278.8616C165.0834,278.8626 165.8053,278.8622 166.5272,278.8622C167.4184,278.8604 168.3095,278.8591 169.2006,278.8559C170.7094,278.8526 172.2186,278.844 173.727,278.8625C174.4708,278.8622 175.2146,278.863 175.9584,278.8622C176.8578,278.8596 177.7571,278.8562 178.656,278.8419C179.6853,278.8228 180.7134,278.7934 181.7383,278.7455L178.4168,277.68z" stroke="#000" stroke-linecap="square" stroke-linejoin="round" stroke-width=".6203"/>
<path d="M197.5429,239.9734L197.5429,258.5166" fill="none" stroke="#000" stroke-linecap="round" stroke-width="4.8046"/>
<path d="M188.0189,238.2191L188.0189,256.7623" fill="none" stroke="#000" stroke-linecap="round" stroke-width="4.8046"/>
<path d="M179.082,239.6834L179.082,258.2266" fill="none" stroke="#000" stroke-linecap="round" stroke-width="4.8046"/>
<path d="M167.4052,238.5161L167.4052,257.0594" fill="none" stroke="#000" stroke-linecap="round" stroke-width="4.8046"/>
<path d="M157.2466,240.7027L157.2466,259.2459" fill="none" stroke="#000" stroke-linecap="round" stroke-width="4.8046"/>
<path d="M145.6173,240.5273L145.6173,259.0706" fill="none" stroke="#000" stroke-linecap="round" stroke-width="4.8046"/>
<path d="M135.1148,238.8132L135.1148,257.3564" fill="none" stroke="#000" stroke-linecap="round" stroke-width="4.8046"/>
<path d="M125.1994,241.8501L125.1994,260.3933" fill="none" stroke="#000" stroke-linecap="round" stroke-width="4.8046"/>
<path d="M114.5264,241.4814L114.5264,260.0246" fill="none" stroke="#000" stroke-linecap="round" stroke-width="4.8046"/>
<path d="M167.1592,316.5558L140.0362,312.1276" fill="none" stroke="#000" stroke-width=".7749"/>
<path d="M205.4271,244.7036L205.4271,263.2468" fill="none" stroke="#000" stroke-linecap="round" stroke-width="4.8046"/>
</g>
<path d="M31.5416,184.8554H250.4764A2.3409,2.3409 0 0 1 252.8172,187.1962V326.8002A2.3409,2.3409 0 0 1 250.4764,329.1411H31.5416A2.3409,2.3409 0 0 1 29.2008,326.8002V187.1962A2.3409,2.3409 0 0 1 31.5416,184.8554z" fill="#fff" stroke="#000" stroke-linecap="round" stroke-linejoin="round" stroke-width="1.0372" transform="matrix(.92953,-.36876,0,1,0,0)"/>
<path d="M25.7143,367.1429L296.4286,250" fill="none" stroke="#000"/>
<path d="M37.8571,224.2857C36.7615,225.9214 37.1923,232.3407 37.8571,235C38.6664,238.2369 45.2416,235.5935 46.4286,235C49.1047,233.6619 47.8571,226.7995 47.8571,235.7143C47.8571,239.25 48.5714,242.1836 48.5714,245.7143" fill="none" stroke="#000"/>
<path d="M60,218.5714C60,220.8302 65.4184,218.694 66.4286,220.7143C68.6263,225.1097 65.3192,228.9665 63.5714,230.7143C61.3224,232.9633 62.2273,236.7663 62.8571,239.2857C63.9679,243.7289 70.4389,237.8851 71.4286,237.1429C72.8007,236.1138 72.6802,236.3085 73.5714,235.7143" fill="none" stroke="#000"/>
<path d="M207.8571,145C210.0866,143.3279 204.3241,150.1535 205,152.8571C205.8283,156.1703 208.9091,156.4286 210.7143,156.4286C212.037,156.4286 213.5714,150.0394 213.5714,148.5714C213.5714,144.0002 212.5998,144.0515 207.8571,145z" fill="none" stroke="#000"/>
<path d="M209.2857,140C209.2857,137.4246 213.2158,136.3389 215.7143,135.7143C217.1193,135.363 215.3513,138.595 215,140" fill="none" stroke="#000"/>
<path d="M216.4286,155.7143C219.1519,155.0334 223.5649,153.5779 225.7143,151.4286C227.5354,149.6075 221.1068,148.9639 219.2857,147.1429" fill="none" stroke="#000"/>
<g transform="translate(22.0628,27.4225)">
<path d="m446.8915,78.4154c0,2.9289-27.5427,5.3033-61.5183,5.3033-33.9756,0-61.5183,-2.3744-61.5183,-5.3033 0,-2.9289 27.5427,-5.3033 61.5183,-5.3033 33.9756,0 61.5183,2.3744 61.5183,5.3033z" stroke="#000" stroke-linecap="round" stroke-width="4.862" transform="matrix(-1,0,0,1,544.01854,260.95283)"/>
<path d="M104.8871,252.4807L104.8871,300.3692C104.8871,320.3762 120.9939,336.4829 141.0009,336.4829L176.4349,336.4829C196.4419,336.4829 212.5486,320.3762 212.5486,300.3692L212.5486,252.4807" fill="#fff" stroke="#000" stroke-linecap="round" stroke-linejoin="round" stroke-width="3.642"/>
<path d="M-197.5006,272.2922H-173.9666A.7803,.7803 0 0 1 -173.1863,273.0725V283.0986A.7803,.7803 0 0 1 -173.9666,283.8789H-197.5006A.7803,.7803 0 0 1 -198.2809,283.0986V273.0725A.7803,.7803 0 0 1 -197.5006,272.2922z" stroke="#000" stroke-linecap="square" stroke-linejoin="round" stroke-width="3.7338" transform="scale(-1,1)"/>
<path d="M-154.1097,272.2922H-133.6968A2.3409,2.3409 0 0 1 -131.3559,274.6331V281.538A2.3409,2.3409 0 0 1 -133.6968,283.8789H-154.1097A2.3409,2.3409 0 0 1 -156.4505,281.538V274.6331A2.3409,2.3409 0 0 1 -154.1097,272.2922z" stroke="#000" stroke-linecap="square" stroke-linejoin="round" stroke-width="3.7338" transform="scale(-1,1)"/>
<path d="M210.2404,277.3468C209.6912,277.3573 209.1418,277.3536 208.5926,277.3509C208.2296,277.3487 207.8667,277.3473 207.5037,277.3466C207.2112,277.3462 206.9187,277.3462 206.6262,277.3462C206.3222,277.3456 206.0181,277.3468 205.7141,277.3474C205.3235,277.3377 204.9389,277.347 204.5522,277.3981C204.1525,277.4526 203.7491,277.4698 203.3459,277.4808C202.9407,277.465 202.543,277.5397 202.1419,277.5799C201.734,277.6166 201.3239,277.6205 200.9145,277.6249C200.4844,277.6272 200.0542,277.627 199.6241,277.6255C199.2505,277.6248 198.8769,277.6242 198.5033,277.6233C198.1963,277.6225 197.8892,277.6223 197.5822,277.6222C197.2907,277.6221 196.9992,277.6221 196.7077,277.6221C196.4162,277.6221 196.1246,277.6221 195.8331,277.6221C195.5144,277.6218 195.1957,277.6227 194.877,277.6241C194.4828,277.6264 194.0885,277.6245 193.6942,277.6235C193.3233,277.6232 192.9524,277.6239 192.5816,277.625C192.1848,277.6248 191.7881,277.6249 191.3914,277.6239C191.0114,277.6241 190.6315,277.6246 190.2515,277.6241C189.9059,277.6228 189.5603,277.6225 189.2148,277.6243C188.6816,277.6269 188.1484,277.6285 187.6152,277.6304C186.8886,277.6332 186.1619,277.6338 185.4353,277.6314C184.902,277.63 184.3688,277.6262 183.8356,277.6259C183.3943,277.6266 182.953,277.6259 182.5117,277.6244C182.4506,277.6242 182.3895,277.624 182.3284,277.6238L184.0743,278.8231C184.1349,278.8229 184.1954,278.8227 184.2559,278.8225C184.6957,278.821 185.1356,278.8204 185.5754,278.821C186.1034,278.8208 186.6313,278.8169 187.1593,278.8156C187.8869,278.8132 188.6145,278.8138 189.3421,278.8166C189.8812,278.8185 190.4203,278.8201 190.9594,278.8227C191.3052,278.8244 191.651,278.8242 191.9968,278.8229C192.3769,278.8223 192.7571,278.8229 193.1372,278.8231C193.5329,278.8221 193.9286,278.8222 194.3243,278.822C194.6966,278.823 195.0689,278.8238 195.4413,278.8235C195.8349,278.8224 196.2286,278.8205 196.6223,278.8229C196.9428,278.8243 197.2634,278.8252 197.584,278.8248C197.8755,278.8248 198.1671,278.8248 198.4586,278.8248C198.7501,278.8248 199.0415,278.8248 199.3329,278.8248C199.6389,278.8246 199.9449,278.8244 200.2509,278.8238C200.6229,278.8231 200.995,278.823 201.367,278.8229C201.7971,278.8221 202.2273,278.8236 202.6574,278.8188C203.0722,278.8132 203.4877,278.8043 203.9002,278.7594C204.297,278.7148 204.6922,278.6622 205.0932,278.6724C205.501,278.6573 205.9081,278.6289 206.3125,278.5757C206.6945,278.5352 207.0779,278.5465 207.4618,278.5478C207.7669,278.5484 208.0721,278.5496 208.3773,278.549C208.6694,278.549 208.9615,278.549 209.2536,278.5486C209.6124,278.5479 209.9712,278.5465 210.3301,278.5444C210.8833,278.5416 211.4366,278.5381 211.9898,278.5484L210.2404,277.3468z" stroke="#000" stroke-linecap="square" stroke-linejoin="round" stroke-width=".4767"/>
<path d="M138.8458,277.704C137.1576,277.714 135.469,277.7126 133.7806,277.7122C132.233,277.7115 130.6855,277.71 129.1379,277.7075C128.1038,277.7055 127.0696,277.7054 126.0354,277.7049C125.2205,277.7043 124.4055,277.7035 123.5905,277.7031C122.8786,277.7215 122.1945,277.6543 121.4947,277.622C120.7929,277.5931 120.0852,277.5889 119.3791,277.5859C118.6784,277.5841 117.9776,277.5849 117.2769,277.5852C116.577,277.5856 115.8772,277.5857 115.1774,277.5857C114.4775,277.5858 113.7777,277.5858 113.0778,277.5858C112.378,277.5858 111.6781,277.5858 110.9783,277.5858C110.2268,277.5853 109.4755,277.5867 108.7241,277.5867C107.9632,277.5865 107.2023,277.5861 106.4414,277.586C105.7367,277.5858 105.0319,277.5858 104.3273,277.5858C103.8612,277.5858 104.0942,277.5858 103.6282,277.5858L107.8277,278.6067C108.2937,278.6067 108.0606,278.6067 108.5267,278.6067C109.2309,278.6067 109.9351,278.6067 110.6393,278.6065C111.3981,278.6063 112.1569,278.6059 112.9156,278.6057C113.6697,278.6057 114.4236,278.6072 115.1776,278.6067C115.8775,278.6067 116.5774,278.6067 117.2773,278.6067C117.9771,278.6067 118.677,278.6067 119.3769,278.6066C120.0768,278.6065 120.7768,278.6063 121.4767,278.606C122.1753,278.6058 122.874,278.6051 123.5725,278.6096C124.2665,278.6159 124.9615,278.6262 125.6479,278.6636C126.358,278.702 127.0643,278.7405 127.7875,278.7235C128.5976,278.7231 129.4076,278.7224 130.2177,278.7217C131.2448,278.7212 132.272,278.7212 133.2991,278.7191C134.8337,278.7166 136.3682,278.7151 137.9028,278.7144C139.6139,278.714 141.3251,278.7128 143.036,278.7226L138.8458,277.704z" stroke="#000" stroke-linecap="square" stroke-linejoin="round" stroke-width=".6801"/>
<path d="M178.4168,277.68C177.4133,277.7409 176.4009,277.76 175.3899,277.7744C174.4877,277.7849 173.585,277.7849 172.6825,277.7837C171.9375,277.7833 171.1924,277.7832 170.4473,277.7823C168.9517,277.8007 167.4552,277.7917 165.9593,277.7884C165.0554,277.7852 164.1515,277.7839 163.2476,277.7821C162.5268,277.7821 161.8059,277.7817 161.0851,277.7826C160.3273,277.7838 159.5695,277.7818 158.8117,277.7824C158.1279,277.7816 157.4441,277.7817 156.7604,277.7818C156.0755,277.7823 155.3907,277.782 154.7059,277.7813C154.0517,277.7824 153.3975,277.7814 152.7434,277.7809C152.1033,277.7822 151.4632,277.7813 150.8232,277.7809C150.2578,277.7805 149.6925,277.7804 149.1271,277.7803C148.6543,277.833 148.1787,277.8709 147.6935,277.8893C147.1675,277.9048 146.64,277.9048 146.1131,277.9055C145.5649,277.9057 145.0167,277.9051 144.4685,277.9049C144.1941,277.9047 143.9196,277.9047 143.6452,277.9047L146.9358,278.9885C147.2102,278.9885 147.4845,278.9886 147.7589,278.9888C148.3077,278.9891 148.8566,278.9897 149.4055,278.9884C149.9414,278.9862 150.4785,278.9839 151.0122,278.9586C151.4831,278.9321 151.9443,278.8778 152.4177,278.864C152.9819,278.8639 153.5461,278.8638 154.1103,278.8634C154.7503,278.863 155.3903,278.8621 156.0302,278.8634C156.6836,278.8629 157.337,278.8619 157.9904,278.863C158.6743,278.8623 159.3581,278.862 160.042,278.8625C160.7246,278.8626 161.4072,278.8627 162.0898,278.8619C162.847,278.8625 163.6042,278.8605 164.3614,278.8616C165.0834,278.8626 165.8053,278.8622 166.5272,278.8622C167.4184,278.8604 168.3095,278.8591 169.2006,278.8559C170.7094,278.8526 172.2186,278.844 173.727,278.8625C174.4708,278.8622 175.2146,278.863 175.9584,278.8622C176.8578,278.8596 177.7571,278.8562 178.656,278.8419C179.6853,278.8228 180.7134,278.7934 181.7383,278.7455L178.4168,277.68z" stroke="#000" stroke-linecap="square" stroke-linejoin="round" stroke-width=".6203"/>
<path d="M197.5429,239.9734L197.5429,258.5166" fill="none" stroke="#000" stroke-linecap="round" stroke-width="4.8046"/>
<path d="M188.0189,238.2191L188.0189,256.7623" fill="none" stroke="#000" stroke-linecap="round" stroke-width="4.8046"/>
<path d="M179.082,239.6834L179.082,258.2266" fill="none" stroke="#000" stroke-linecap="round" stroke-width="4.8046"/>
<path d="M167.4052,238.5161L167.4052,257.0594" fill="none" stroke="#000" stroke-linecap="round" stroke-width="4.8046"/>
<path d="M157.2466,240.7027L157.2466,259.2459" fill="none" stroke="#000" stroke-linecap="round" stroke-width="4.8046"/>
<path d="M145.6173,240.5273L145.6173,259.0706" fill="none" stroke="#000" stroke-linecap="round" stroke-width="4.8046"/>
<path d="M135.1148,238.8132L135.1148,257.3564" fill="none" stroke="#000" stroke-linecap="round" stroke-width="4.8046"/>
<path d="M125.1994,241.8501L125.1994,260.3933" fill="none" stroke="#000" stroke-linecap="round" stroke-width="4.8046"/>
<path d="M114.5264,241.4814L114.5264,260.0246" fill="none" stroke="#000" stroke-linecap="round" stroke-width="4.8046"/>
<path d="M167.1592,316.5558L140.0362,312.1276" fill="none" stroke="#000" stroke-width=".7749"/>
<path d="M205.4271,244.7036L205.4271,263.2468" fill="none" stroke="#000" stroke-linecap="round" stroke-width="4.8046"/>
</g>
<path d="M311.4286,367.8571L296.4286,374.2857" fill="none" stroke="#000"/>
<path d="M581.4286,251.0714L598.3929,243.0357" fill="none" stroke="#000"/>
<path d="M221.7285,195.4416L278.297,192.4111" fill="none" stroke="#000"/>
<path d="M779.8378,207.5634L842.4672,206.5532" fill="none" stroke="#000"/>
<text font-family="Bitstream Vera Sans" font-size="20" x="702.9849" y="206.6751">
   <tspan x="702.9849" y="206.6751">Merci.</tspan>
  </text>
<path d="M796.5053,294.9416L779.3327,304.033" fill="none" stroke="#000"/>
<path d="M805.5967,332.3172L785.3936,344.4391" fill="none" stroke="#000"/>
<path d="M792.9697,316.1548L779.8378,322.2157" fill="none" stroke="#000"/>
<text font-family="Bitstream Vera Sans" font-size="20" x="60.6092" y="203.5228">
   <tspan x="60.6092" y="203.5228">Intéresse-moi !</tspan>
  </text>
<text font-family="Bitstream Vera Sans" font-size="20" x="414.1625" y="208.5735">
   <tspan x="414.1625" y="208.5735">Hmm...</tspan>
  </text>
<path d="M448.0027,222.7157L455.5788,250.4949" fill="none" stroke="#000"/>
<text font-family="Bitstream Vera Sans" font-size="20" transform="skewY(339.978)" x="157.5838" y="191.4463">
   <tspan font-size="10" x="157.5838" y="191.4463">destruxion.net</tspan>
  </text>
<text font-family="Bitstream Vera Sans" font-size="20" transform="skewY(339.978)" x="443.7382" y="296.6346">
   <tspan font-size="10" x="443.7382" y="296.6346">destruxion.net</tspan>
  </text>
<text font-family="Bitstream Vera Sans" font-size="20" transform="skewY(339.978)" x="734.6621" y="407.6971">
   <tspan font-size="10" x="734.6621" y="407.6971">destruxion.net</tspan>
  </text>
</svg>
