<svg version="1.0" viewBox="0 0 900 450" xmlns="http://www.w3.org/2000/svg" xmlns:svg="http://www.w3.org/2000/svg">
<path d="M-343.0541,766.1589H-152.8451A7.5735,7.5735 0 0 1 -145.2716,773.7325V810.0854A7.5735,7.5735 0 0 1 -152.8451,817.6589H-343.0541A7.5735,7.5735 0 0 1 -350.6276,810.0854V773.7325A7.5735,7.5735 0 0 1 -343.0541,766.1589z" stroke="#000" stroke-linecap="round" stroke-linejoin="round" stroke-width="5.8088" transform="matrix(1,0,.87861,.47753,0,0)"/>
<path d="M52.0488,85.7678H833.0507A31.621,31.621 0 0 1 864.6717,117.3889V365.7377A31.621,31.621 0 0 1 833.0507,397.3587H52.0488A31.621,31.621 0 0 1 20.4277,365.7377V117.3889A31.621,31.621 0 0 1 52.0488,85.7678z" fill="#fff" stroke="#000" stroke-linecap="round" stroke-width="7.4907"/>
<path d="M700.5234,83.517L700.5234,310.6599L591.9519,361.3742" fill="none" stroke="#000"/>
<path d="M129.1124,85.495L129.1124,312.6378L20.541,363.3521" fill="none" stroke="#000"/>
<path d="M624.5194,308.3521L863.3981,308.3521M53.5306,308.3521L297.735,308.3521" fill="none" stroke="#000"/>
<path d="M589.6694,82.4533L589.6694,396.3437" fill="none" stroke="#000" stroke-width="5.6784"/>
<path d="M297.9593,85.9762L297.9593,395.6571" fill="none" stroke="#000" stroke-width="5.6402"/>
<path d="M842.8861,416.5916C843.3254,417.1018 843.9216,417.163 844.5563,417.1989C845.3593,417.1772 846.1636,416.9851 846.9138,416.6996C847.3147,416.547 847.5362,416.4171 847.9103,416.2207C845.6716,417.5304 846.9179,416.8289 847.3365,416.3843C847.5533,416.154 847.6828,415.9113 847.8051,415.6237C848.1228,414.7287 848.1639,413.7663 848.2181,412.8267C848.3237,411.4588 848.0406,410.1158 847.7357,408.7915C847.3648,407.3985 846.8611,406.0448 846.3063,404.7158C846.0407,404.0878 845.7403,403.4757 845.4477,402.8602C845.0533,402.1036 844.7307,402.5735 846.958,401.7095C847.0348,401.6797 847.05,401.8461 847.0991,401.9122C847.1815,402.0227 847.268,402.1301 847.3525,402.2391C848.1742,403.3666 849.1623,404.3546 850.1526,405.3319C850.7352,405.8993 851.3599,406.4259 851.917,407.0192C852.1285,407.1919 852.2549,407.4352 852.425,407.6422C852.5912,407.7923 852.7213,407.6342 852.8682,407.5315C850.3026,409.07 851.2163,408.5727 851.7082,408.101C851.902,407.9152 852.0846,407.7167 852.2701,407.5228C852.5333,407.2602 852.7828,406.979 853.0711,406.7425C853.832,406.118 854.8938,405.619 855.6807,405.1714C856.4078,404.8502 857.1517,404.5708 857.9072,404.3246C858.0635,404.2907 858.6682,404.0582 858.8063,404.2153C858.8384,404.2519 858.8514,404.3016 858.874,404.3447C858.8771,404.3888 858.8893,404.4332 858.8834,404.477C858.8398,404.7967 858.3449,405.1686 858.1289,405.3674C857.1361,406.1882 856.1728,407.0419 855.2558,407.9466C854.4582,408.8023 853.6342,409.647 852.9992,410.634C852.6071,411.2505 852.3987,411.9312 852.3008,412.6485C852.236,413.2899 852.2466,413.9358 852.2476,414.5796C852.2827,415.2794 852.372,415.9807 852.5804,416.6511C852.6998,417.0082 852.9122,417.2705 853.2521,417.4273C853.4776,417.5068 853.7358,417.5591 853.9759,417.5138C854.0318,417.5032 854.4975,417.3454 854.5348,417.333C855.0839,417.0333 856.4103,416.3325 853.928,417.6928C853.8298,417.7466 854.1171,417.5727 854.2102,417.5104C854.4239,417.3674 854.4753,417.3253 854.6758,417.1758C854.9164,416.9958 854.8024,417.0833 855.0182,416.9141L856.7373,416.2228C856.5195,416.4059 856.6361,416.3145 856.3857,416.4947C855.3719,417.2775 854.2488,417.9255 853.0848,418.4558C852.5742,418.6082 852.1971,418.6812 851.6997,418.446C851.3335,418.2394 851.0942,417.9398 850.9655,417.5348C850.7613,416.8445 850.6843,416.1258 850.6173,415.411C850.6134,414.7608 850.6028,414.1089 850.6553,413.4602C850.7482,412.717 850.944,412.0077 851.3437,411.3646C851.4239,411.2314 851.4967,411.0934 851.5842,410.9649C851.7639,410.701 852.0322,410.3988 852.2371,410.1613C852.6898,409.6366 853.1528,409.1211 853.6309,408.6194C854.5228,407.7198 855.4628,406.8696 856.4375,406.0603C856.7136,405.8039 856.9994,405.5539 857.2376,405.2609C857.2772,405.2818 857.1498,405.2784 857.1055,405.2846C856.8845,405.3155 856.6718,405.3841 856.4589,405.4487C855.7118,405.6953 854.9723,405.9689 854.2631,406.3111C856.7077,404.8653 855.2378,405.6862 854.7601,406.0539C854.4691,406.2778 854.2201,406.5543 853.9648,406.816C853.039,407.7926 852.9859,407.896 851.4197,408.7044C851.1631,408.8257 851.0196,408.8113 850.8188,408.6003C850.6603,408.3908 850.5334,408.1573 850.3378,407.9771C849.8043,407.3745 849.2096,406.8278 848.6445,406.2558C847.6637,405.2574 846.6678,404.2708 845.7949,403.174C845.7011,403.0686 845.6072,402.9632 845.5135,402.8577C845.4615,402.7991 845.2982,402.7327 845.3577,402.6816C846.7717,401.4677 846.6917,401.1499 847.057,401.9513C847.3326,402.5794 847.6232,403.2011 847.8741,403.8399C848.399,405.1928 848.883,406.563 849.2793,407.9596C849.5978,409.2898 849.9129,410.641 849.8212,412.0195C849.7851,412.968 849.7294,413.9339 849.4719,414.8513C849.3873,415.086 849.3581,415.2058 849.2229,415.4205C848.6291,416.3641 847.3482,416.8096 846.5063,417.3453C845.4349,417.8718 844.295,418.2441 843.0891,418.2496C842.9215,418.2361 842.7526,418.2337 842.5862,418.2092C842.0907,418.1363 841.6287,417.9198 841.2858,417.5524L842.8861,416.5916z" stroke="#000" stroke-linecap="round" stroke-linejoin="round" stroke-width=".2515"/>
<path d="M858.2507,414.4348C857.5113,414.6419 855.9087,415.6313 858.7062,414.0304C858.3182,414.2369 858.0879,414.573 857.9063,414.9606C857.8027,415.2712 857.6921,415.6117 857.7146,415.9451C857.7302,416.1757 857.7902,416.2916 857.8687,416.5071C858.1758,417.1139 858.6481,417.6129 859.2086,417.9909C859.6222,418.279 860.0925,418.4101 860.5916,418.4161C860.9768,418.3286 861.3347,418.1786 861.6873,418.0038C861.8377,417.9292 862.2782,417.6859 862.1341,417.7717C860.4722,418.7609 860.8885,418.4939 861.4765,418.0912C861.9607,417.7182 862.487,417.2855 862.6117,416.6513C862.6291,416.5627 862.6279,416.4714 862.636,416.3815C862.604,415.5882 862.1027,414.9672 861.6191,414.3807C861.3142,414.0414 860.969,413.7179 860.5522,413.5197C860.3406,413.4192 860.2322,413.4013 860.0082,413.3418C859.5562,413.3172 859.0826,413.3602 858.6536,413.5159C858.4552,413.5879 858.1546,413.7553 857.9702,413.8527C860.4834,412.345 858.8367,413.3404 858.3184,413.7912L856.6078,414.4909C857.4038,413.7252 858.4667,413.2741 859.392,412.7141C859.6606,412.5835 859.8191,412.4932 860.1061,412.4061C860.5629,412.2674 861.0547,412.235 861.5251,412.3043C861.767,412.3815 861.8651,412.401 862.0923,412.5221C862.5154,412.7476 862.8643,413.09 863.1763,413.4476C863.6852,414.074 864.2016,414.7232 864.2791,415.557C864.2754,415.6582 864.2816,415.7602 864.268,415.8606C864.1751,416.543 863.6675,417.0281 863.1513,417.4313C862.15,418.15 862.6631,417.8022 860.7277,418.8985C860.2233,419.1841 859.6717,419.426 859.0925,419.4936C858.5707,419.4474 858.0853,419.2937 857.6602,418.977C857.0853,418.5577 856.6019,418.0283 856.2653,417.3976C856.1867,417.1921 856.0975,416.9964 856.0707,416.7747C856.0286,416.4275 856.1442,416.0626 856.2278,415.7317C856.3886,415.3232 856.5927,414.9359 856.977,414.696C857.8801,414.1762 858.7252,413.5797 859.7326,413.3016L858.2507,414.4348z" stroke="#000" stroke-linecap="round" stroke-linejoin="round" stroke-width=".2515"/>
<path d="M866.0468,415.1893C865.7266,415.2917 865.3939,415.3796 865.0894,415.5255C864.9872,415.5745 864.8912,415.6356 864.7921,415.6906C865.2128,415.455 865.6335,415.2194 866.0542,414.9839C865.5548,415.3209 865.1842,415.6576 864.9608,416.2224C864.8146,416.6877 864.8847,417.0811 865.2531,417.4252C865.342,417.5083 865.4466,417.573 865.5433,417.6468C866.2476,418.0514 867.0811,418.1962 867.8877,418.1106C868.119,418.0861 868.3457,418.0301 868.5747,417.9898C869.1047,417.853 869.3356,417.8149 869.8333,417.606C869.9985,417.5367 870.4683,417.2756 870.3146,417.3674C868.0764,418.7039 869.0895,418.1216 869.441,417.7658C869.5189,417.6869 869.5808,417.5936 869.6508,417.5075C869.9573,417.028 869.9651,416.6014 869.7492,416.0905C869.7096,416.0008 869.4812,415.5301 869.3202,415.632C869.2923,415.6496 869.2781,415.6828 869.2571,415.7083C871.7993,414.2586 870.8314,414.501 870.5849,415.2075C870.4785,415.5124 870.4599,415.8088 870.4453,416.129C870.6219,417.6153 871.2785,418.9916 871.8179,420.3725C872.4738,422.1969 873.106,424.0901 873.1788,426.0469C873.1933,426.4364 873.1554,426.826 873.1437,427.2155C873.0855,427.5901 873.0529,427.9695 872.9692,428.3392C872.696,429.545 872.0743,430.6488 871.1512,431.4761C870.9885,431.6219 870.8043,431.7418 870.6308,431.8747C869.9367,432.2374 869.2764,432.6739 868.5484,432.9626C868.2466,433.0823 867.5182,432.8326 867.2794,432.7262C866.3919,432.3305 865.6255,431.6807 864.8715,431.0855C863.5996,429.9967 862.3543,428.861 861.2164,427.6303C860.6269,426.9927 860.4812,426.7781 859.9691,426.1185C859.5334,425.3915 859.0197,424.5485 859.4481,423.6915C859.7017,423.1843 860.0077,423.0002 860.4324,422.631C861.7051,421.8062 861.8093,421.7123 863.6519,420.7793C864.1016,420.5515 865.5518,420.0365 865.9956,419.8817C866.8807,419.5729 867.8325,419.267 868.7225,418.9762C871.0606,418.3017 873.3506,417.4803 875.614,416.5897C875.8061,416.5081 875.9985,416.427 876.1904,416.3447C876.3369,416.2819 876.4846,416.2214 876.6293,416.1544C876.9251,416.0173 877.2014,415.8477 877.5066,415.7315C877.9204,415.6725 878.0656,416.1707 878.1894,416.4733C878.4747,417.2438 878.6355,418.0518 878.7048,418.8687C878.7219,419.2346 878.7338,419.6023 878.682,419.9662C878.6767,420.0034 878.6959,420.0612 878.6619,420.0771C878.1075,420.3353 877.5286,420.5372 876.9619,420.7672C876.9634,420.6547 876.9572,420.5417 876.9664,420.4295C876.9797,420.2662 877.0078,420.1045 877.0294,419.9421C877.1551,418.9942 877.3197,418.0589 877.5126,417.1225C877.7081,416.3057 877.877,415.4502 878.3438,414.7372C878.8724,414.1837 880.0481,413.0925 880.6205,413.7276C880.6805,413.7941 880.7225,413.8748 880.7735,413.9484C880.8855,414.1465 880.9823,414.297 881.0556,414.5165C881.2617,415.1336 881.3542,415.857 881.4633,416.4989C881.6057,417.0544 881.5514,417.7196 881.72,418.2643C881.9429,417.6656 881.7177,418.292 880.1168,419.0554C880.0843,419.0709 880.1657,419.0019 880.1839,418.9709C880.2256,418.8997 880.3072,418.6908 880.339,418.6266C880.3823,418.5391 880.4318,418.4547 880.4783,418.3688C880.7794,417.8863 881.0342,417.3763 881.366,416.9135C881.9207,416.2185 882.4396,416.0668 883.3998,415.5392C883.4327,415.5211 883.477,415.5316 883.5124,415.5444C883.5574,415.5607 883.5924,415.5969 883.6324,415.6232C884.0079,416.0182 884.1386,416.5771 884.2654,417.0914C884.3756,417.6515 884.4346,418.2227 884.6394,418.7584C884.6893,418.8286 884.7301,418.9063 884.7891,418.969C885.2189,419.426 885.9298,419.7675 886.516,419.9533C886.7366,420.0232 886.9639,420.0699 887.1878,420.1282C888.1359,420.3648 889.0873,420.3765 890.0303,420.1173C890.2391,420.0599 890.4487,420 890.6464,419.9119C890.8306,419.8297 890.9955,419.71 891.1701,419.609C890.8069,419.7964 890.4705,420.0487 890.0807,420.1712C889.9303,420.2184 890.3146,419.9594 890.4219,419.844C890.7383,419.5039 890.9191,419.1257 891.0465,418.6858C891.1338,418.3194 891.1323,417.943 891.1222,417.5692C891.02,416.7976 890.3384,417.557 892.6983,416.5986C892.7413,416.5811 892.6731,416.6881 892.6659,416.7339C892.6554,416.8005 892.6522,416.8681 892.6453,416.9352C892.6118,417.5432 892.5979,418.1525 892.6655,418.7582C892.7342,419.1479 892.8088,419.546 893.1142,419.8195C893.3291,419.961 893.5572,419.9706 893.7945,419.8929C894.3658,419.6047 895.2232,419.1046 892.6256,420.571C892.5335,420.6231 892.8039,420.4568 892.8915,420.3974L894.6204,419.7099C894.4866,419.8198 894.5109,419.8085 894.3572,419.8984C893.7731,420.2399 893.0498,420.8103 892.3106,421.0183C892.0222,421.0492 891.7532,420.9864 891.5275,420.7947C891.2136,420.4673 891.1111,420.0499 891.0411,419.6097C890.9668,418.997 890.9817,418.3815 890.9897,417.7652C890.9922,417.6829 890.9994,417.3969 891.0052,417.3931C892.2283,416.5807 892.6238,415.8118 892.779,416.7199C892.7877,417.1127 892.7882,417.5079 892.7061,417.8944C892.3035,419.4984 891.2405,419.8638 889.7792,420.7289C889.5995,420.8195 889.4274,420.927 889.2402,421.0007C888.1147,421.4438 886.8883,421.4083 885.7306,421.1307C885.4994,421.0694 885.2645,421.0202 885.0368,420.9468C884.4544,420.7588 883.6355,420.3568 883.206,419.9049C883.1352,419.8305 883.0842,419.7395 883.0234,419.6568C882.8192,419.1105 882.7604,418.5317 882.6553,417.9608C882.5494,417.5184 882.4443,416.9713 882.0788,416.6643C881.9925,416.6751 882.037,416.6621 881.9479,416.7114C882.4419,416.4182 882.9359,416.1249 883.43,415.8317C883.4717,415.8077 883.3535,415.8906 883.3184,415.9237C883.2304,416.0066 883.1591,416.1064 883.0641,416.1824C882.7095,416.6282 882.4538,417.1338 882.1576,417.6186C882.0463,417.8092 881.9543,417.9906 881.8834,418.1996C881.869,418.2422 881.885,418.3061 881.8465,418.3293C880.1747,419.3349 880.5455,419.7416 880.0789,419.1556C879.9386,418.5641 880.0105,417.9361 879.8738,417.3418C879.7401,416.5099 879.6372,415.6189 879.185,414.8911C879.1064,414.7966 879.0726,414.7099 878.9477,414.6869C878.9139,414.6806 878.8158,414.7151 878.845,414.6968C879.3297,414.394 879.8331,414.1219 880.3231,413.8276C880.3671,413.8011 880.227,413.8655 880.1835,413.8928C880.1322,413.925 880.0882,413.9676 880.0406,414.0049C879.4894,414.6622 879.3231,415.5496 879.1002,416.3548C878.8492,417.5156 878.6336,418.6929 878.5981,419.8827C878.0568,420.2144 877.5264,420.5648 876.9741,420.878C876.9437,420.8953 877.0043,420.8146 877.0141,420.781C877.1152,420.4331 877.0864,420.0649 877.0864,419.708C877.0397,418.9095 876.8904,418.1154 876.5854,417.3728C876.5272,417.2385 876.4202,416.8491 876.2167,416.8353C876.1695,416.8322 876.0828,416.8695 876.0452,416.883C875.4432,417.1511 874.8584,417.4587 874.2327,417.673C871.9895,418.5167 869.727,419.3075 867.4265,419.9822C866.0911,420.424 864.7464,420.851 863.4385,421.3708C863.062,421.5204 862.7174,421.7665 862.3203,421.847C862.1164,421.8883 863.0216,421.402 862.8345,421.4931C862.5617,421.626 862.319,421.8132 862.0612,421.9732C861.5798,422.3596 860.9894,422.7595 860.8753,423.4257C860.763,424.0814 861.1807,424.6877 861.4631,425.2314C861.6378,425.4701 861.804,425.7151 861.9871,425.9474C863.2377,427.5334 864.7595,428.8942 866.3088,430.1787C867.0688,430.7462 867.844,431.3808 868.7426,431.725C868.95,431.8044 869.1675,431.8645 869.3882,431.8891C869.5765,431.9101 870.0577,431.7005 869.9558,431.8601C869.7434,432.1926 869.3049,432.3061 868.9795,432.5291C869.1616,432.402 869.3544,432.2888 869.5259,432.1477C870.4787,431.3638 871.1466,430.2815 871.4438,429.0856C871.5341,428.7223 871.5694,428.3474 871.6323,427.9783C871.6504,427.5941 871.6963,427.2103 871.6865,426.8258C871.6371,424.8847 870.9787,423.0115 870.3153,421.2112C869.7525,419.8193 869.0677,418.4473 868.8226,416.9537C868.8144,416.6001 868.823,416.331 868.9086,415.9889C868.9134,415.9698 869.0084,415.6293 869.0506,415.6002C869.5934,415.2263 870.1716,414.9065 870.732,414.5597C870.7746,414.5631 870.8186,414.5586 870.8599,414.5699C871.1247,414.6423 871.2516,414.9708 871.3623,415.1856C871.5979,415.7421 871.6303,416.2372 871.3304,416.7839C871.2624,416.8813 871.2036,416.9859 871.1263,417.0762C870.5742,417.7214 869.4699,418.1742 868.908,418.4869C868.3705,418.786 867.7522,418.9138 867.161,419.0522C866.9243,419.0878 866.6895,419.1393 866.4509,419.1587C865.5989,419.2283 864.7285,419.0754 864.0012,418.618C863.8967,418.5346 863.7842,418.4605 863.6879,418.368C863.2806,417.9766 863.1534,417.5447 863.2882,417.0044C863.4914,416.3583 863.8099,416.0456 864.353,415.6479C865.4009,415.0288 866.3483,414.3459 867.5288,414.0561L866.0468,415.1893z" stroke="#000" stroke-linecap="round" stroke-linejoin="round" stroke-width=".2515"/>
<path d="M891.4576,409.5396C891.2334,409.8028 891.0542,410.1039 890.9689,410.4403C890.9078,410.7767 891.1085,410.8629 891.3843,410.9836C891.8306,411.1471 892.212,411.1291 892.669,411.0483C893.2802,410.8388 894.2507,410.2418 891.5342,411.7404C891.496,411.7614 891.6065,411.6913 891.6387,411.6619C891.7154,411.5921 891.7231,411.5632 891.7732,411.4756C891.8655,411.2686 891.8565,411.0748 891.7376,410.8842C891.5796,410.7344 891.3419,410.7484 891.1379,410.7385C890.9272,410.7579 890.7265,410.8102 890.5553,410.9366L892.0101,409.7649C892.2173,409.6865 892.4292,409.6369 892.653,409.6547C892.9193,409.6811 893.1812,409.7188 893.3539,409.9464C893.4945,410.183 893.5501,410.4276 893.4688,410.6976C893.1741,411.5869 892.0548,411.9464 891.1887,412.1581C890.7272,412.2161 890.271,412.1908 889.8372,412.0054C889.5253,411.8444 889.2457,411.6431 889.2929,411.2527C889.3505,410.8903 889.5273,410.5656 889.7396,410.2695L891.4576,409.5396z" stroke="#000" stroke-linecap="round" stroke-linejoin="round" stroke-width=".2515"/>
<path d="M867.613,414.0714C867.9667,413.8995 868.3043,413.6962 868.6692,413.548C868.8978,413.3995 869.1486,413.3309 869.4161,413.3016C869.6621,413.2829 869.9091,413.2861 870.1557,413.2869C870.4004,413.2609 870.6077,413.3278 870.8226,413.4327C870.9731,413.5533 871.0919,413.7135 871.2062,413.8685C871.3056,414.049 871.364,414.2516 871.4251,414.4482C871.4799,414.6498 871.5546,414.8424 871.5941,415.0483C871.6321,415.2901 871.6347,415.5354 871.6377,415.7796C871.6388,415.9055 871.6386,416.0314 871.6385,416.1573L869.9765,417.0039C869.9767,416.8786 869.9769,416.7534 869.9764,416.6281C869.9747,416.3938 869.9742,416.1585 869.9448,415.9257C869.912,415.7249 869.8385,415.5403 869.7851,415.3455C869.7332,415.1685 869.6773,414.9883 869.5969,414.8234C869.4991,414.6951 869.4039,414.5487 869.2633,414.4656C869.0659,414.3798 868.86,414.3743 868.6466,414.3835C868.4052,414.3845 868.1623,414.3834 867.9235,414.4223C867.6708,414.4758 867.4432,414.5845 867.2132,414.6999C866.8554,414.8663 866.5092,415.0571 866.1623,415.245L867.613,414.0714z" stroke="#000" stroke-linecap="round" stroke-linejoin="round" stroke-width=".2515"/>
<path d="M61.9759,50.4615H248.8542A15.9099,15.9099 0 0 1 264.7641,66.3714V66.3714A15.9099,15.9099 0 0 1 248.8542,82.2813H61.9759A15.9099,15.9099 0 0 1 46.066,66.3714V66.3714A15.9099,15.9099 0 0 1 61.9759,50.4615z" fill="#fff" stroke="#000" stroke-linecap="round" stroke-linejoin="round" stroke-width="4"/>
<path d="M101.5203,44.9288A36.8706,34.8503 0 1 1 27.7792,44.9288A36.8706,34.8503 0 1 1 101.5203,44.9288z" stroke="#000" stroke-linecap="round" stroke-linejoin="round" stroke-width="7.491" transform="matrix(.7121,0,0,.7121,.77969,28.08437)"/>
<text font-family="Bitstream Vera Sans" font-size="40" x="22.429" y="74.1189">
   <tspan fill="#f9f9f9" x="22.429" y="74.1189">24</tspan>
  </text>
<text font-family="Bitstream Vera Sans" font-size="20" x="120.3392" y="73.1384">
   <tspan x="120.3392" y="73.1384">Rêve</tspan>
  </text>
<path d="M897.0268,848.7417H1081.2599A10.8396,10.8396 0 0 1 1092.0995,859.5813V913.8722A10.8396,10.8396 0 0 1 1081.2599,924.7118H897.0268A10.8396,10.8396 0 0 1 886.1872,913.8722V859.5813A10.8396,10.8396 0 0 1 897.0268,848.7417z" stroke="#000" stroke-linecap="round" stroke-linejoin="round" stroke-width="3.2495" transform="matrix(.83324,0,-.78013,.2927,24.1251,82.72612)"/>
<path d="M889.2323,843.6788H1090.5679A7.4282,10.8396 0 0 1 1097.9961,854.5183V923.4512A7.4282,10.8396 0 0 1 1090.5679,934.2907H889.2323A7.4282,10.8396 0 0 1 881.8041,923.4512V854.5183A7.4282,10.8396 0 0 1 889.2323,843.6788z" stroke="#000" stroke-linecap="round" stroke-linejoin="round" stroke-width="3.2495" transform="matrix(.83324,0,-.78013,.2927,24.1251,82.72612)"/>
<path d="M68.2705,329.0202H68.2705A5.1786,5.1786 0 0 1 73.4491,334.1987V347.7702A5.1786,5.1786 0 0 1 68.2705,352.9487H68.2705A5.1786,5.1786 0 0 1 63.0919,347.7702V334.1987A5.1786,5.1786 0 0 1 68.2705,329.0202z" fill="#fff" stroke="#000" stroke-linecap="round" stroke-linejoin="round" stroke-width="3"/>
<path d="M203.3062,329.413H203.3062A5.1786,5.1786 0 0 1 208.4848,334.5916V348.163A5.1786,5.1786 0 0 1 203.3062,353.3416H203.3062A5.1786,5.1786 0 0 1 198.1276,348.163V334.5916A5.1786,5.1786 0 0 1 203.3062,329.413z" fill="#fff" stroke="#000" stroke-linecap="round" stroke-linejoin="round" stroke-width="3"/>
<path d="M248.8419,311.0201H248.8419A5.1786,5.1786 0 0 1 254.0205,316.1987V329.7701A5.1786,5.1786 0 0 1 248.8419,334.9487H248.8419A5.1786,5.1786 0 0 1 243.6634,329.7701V316.1987A5.1786,5.1786 0 0 1 248.8419,311.0201z" fill="#fff" stroke="#000" stroke-linecap="round" stroke-linejoin="round" stroke-width="3"/>
<path d="M111.8419,312.0916H111.8419A5.1786,5.1786 0 0 1 117.0205,317.2702V330.8416A5.1786,5.1786 0 0 1 111.8419,336.0202H111.8419A5.1786,5.1786 0 0 1 106.6633,330.8416V317.2702A5.1786,5.1786 0 0 1 111.8419,312.0916z" fill="#fff" stroke="#000" stroke-linecap="round" stroke-linejoin="round" stroke-width="3"/>
<g transform="matrix(.78777,0,0,.78777,31.05456,79.27157)">
<path d="M897.0268,848.7417H1081.2599A10.8396,10.8396 0 0 1 1092.0995,859.5813V913.8722A10.8396,10.8396 0 0 1 1081.2599,924.7118H897.0268A10.8396,10.8396 0 0 1 886.1872,913.8722V859.5813A10.8396,10.8396 0 0 1 897.0268,848.7417z" fill="#fff" stroke="#000" stroke-linecap="round" stroke-linejoin="round" stroke-width="3.2495" transform="matrix(1,0,-.93627,.35128,0,0)"/>
<path d="M892.6436,843.6788H1076.8768A10.8396,10.8396 0 0 1 1087.7164,854.5183V908.8093A10.8396,10.8396 0 0 1 1076.8768,919.6488H892.6436A10.8396,10.8396 0 0 1 881.8041,908.8093V854.5183A10.8396,10.8396 0 0 1 892.6436,843.6788z" fill="#fff" stroke="#000" stroke-linecap="round" stroke-linejoin="round" stroke-width="3.2495" transform="matrix(1,0,-.93627,.35128,0,0)"/>
<path d="M897.0268,848.7417H1081.2599A10.8396,10.8396 0 0 1 1092.0995,859.5813V913.8722A10.8396,10.8396 0 0 1 1081.2599,924.7118H897.0268A10.8396,10.8396 0 0 1 886.1872,913.8722V859.5813A10.8396,10.8396 0 0 1 897.0268,848.7417z" fill="#fff" stroke="#000" stroke-linecap="round" stroke-linejoin="round" stroke-width="3.2495" transform="matrix(1,0,-.93627,.35128,.35714,-3.10356)"/>
<path d="M892.6436,843.6788H1076.8768A10.8396,10.8396 0 0 1 1087.7164,854.5183V908.8093A10.8396,10.8396 0 0 1 1076.8768,919.6488H892.6436A10.8396,10.8396 0 0 1 881.8041,908.8093V854.5183A10.8396,10.8396 0 0 1 892.6436,843.6788z" fill="#fff" stroke="#000" stroke-linecap="round" stroke-linejoin="round" stroke-width="3.2495" transform="matrix(1,0,-.93627,.35128,.35714,-3.10356)"/>
<path d="M897.0268,848.7417H1081.2599A10.8396,10.8396 0 0 1 1092.0995,859.5813V913.8722A10.8396,10.8396 0 0 1 1081.2599,924.7118H897.0268A10.8396,10.8396 0 0 1 886.1872,913.8722V859.5813A10.8396,10.8396 0 0 1 897.0268,848.7417z" fill="#fff" stroke="#000" stroke-linecap="round" stroke-linejoin="round" stroke-width="3.2495" transform="matrix(1,0,-.93627,.35128,.62499,-6.63035)"/>
<path d="M892.6436,843.6788H1076.8768A10.8396,10.8396 0 0 1 1087.7164,854.5183V908.8093A10.8396,10.8396 0 0 1 1076.8768,919.6488H892.6436A10.8396,10.8396 0 0 1 881.8041,908.8093V854.5183A10.8396,10.8396 0 0 1 892.6436,843.6788z" fill="#fff" stroke="#000" stroke-linecap="round" stroke-linejoin="round" stroke-width="3.2495" transform="matrix(1,0,-.93627,.35128,.62499,-6.63035)"/>
</g>
<path d="M59.5469,300.8581H111.7002A3.0109,3.0109 0 0 1 114.711,303.869V345.5769A3.0109,3.0109 0 0 1 111.7002,348.5878H59.5469A3.0109,3.0109 0 0 1 56.536,345.5769V303.869A3.0109,3.0109 0 0 1 59.5469,300.8581z" fill="#fff" stroke="#000" stroke-linecap="round" stroke-linejoin="round" stroke-width="3.1126" transform="matrix(.92897,-.37014,0,1,0,0)"/>
<path d="M62.5372,302.5963H114.6905A3.0109,3.0109 0 0 1 117.7014,305.6072V347.3151A3.0109,3.0109 0 0 1 114.6905,350.326H62.5372A3.0109,3.0109 0 0 1 59.5263,347.3151V305.6072A3.0109,3.0109 0 0 1 62.5372,302.5963z" fill="#fff" stroke="#000" stroke-linecap="round" stroke-linejoin="round" stroke-width="3.1126" transform="matrix(.92897,-.37014,0,1,0,0)"/>
<path d="M119.198,282.6935A52.2754,16.2887 0 1 1 14.6472,282.6935A52.2754,16.2887 0 1 1 119.198,282.6935z" fill="#fff" stroke="#000" stroke-linecap="round" stroke-linejoin="round" stroke-width="3" transform="matrix(.59838,-.3161,.28511,.66342,-28.60109,141.28769)"/>
<g transform="matrix(.51148,-.46605,.46605,.51148,9.84508,71.76691)">
<path d="M-43.5297,288.8057L-43.5297,336.6941C-43.5297,356.7011-59.6364,372.8078-79.6434,372.8078L-115.0774,372.8078C-135.0844,372.8078-151.1912,356.7011-151.1912,336.6941L-151.1912,288.8057" fill="#fff" stroke="#000" stroke-linecap="round" stroke-linejoin="round" stroke-width="3.6422"/>
<path d="M-122.1431,308.6171H-98.6091A.7803,.7803 0 0 1 -97.8288,309.3974V319.4235A.7803,.7803 0 0 1 -98.6091,320.2038H-122.1431A.7803,.7803 0 0 1 -122.9234,319.4235V309.3974A.7803,.7803 0 0 1 -122.1431,308.6171z" stroke="#000" stroke-linecap="square" stroke-linejoin="round" stroke-width="3.7338"/>
<path d="M-80.7522,308.6171H-60.3393A2.3409,2.3409 0 0 1 -57.9985,310.958V317.8629A2.3409,2.3409 0 0 1 -60.3393,320.2038H-80.7522A2.3409,2.3409 0 0 1 -83.093,317.8629V310.958A2.3409,2.3409 0 0 1 -80.7522,308.6171z" stroke="#000" stroke-linecap="square" stroke-linejoin="round" stroke-width="3.7338"/>
<path d="M-148.8829,313.6717C-148.3338,313.6822-147.7844,313.6785-147.2351,313.6758C-146.8722,313.6736-146.5092,313.6722-146.1462,313.6715C-145.8537,313.6711-145.5613,313.6711-145.2688,313.6711C-144.9647,313.6705-144.6607,313.6717-144.3567,313.6723C-143.966,313.6626-143.5814,313.6719-143.1947,313.723C-142.7951,313.7775-142.3916,313.7947-141.9885,313.8057C-141.5833,313.7899-141.1856,313.8646-140.7845,313.9048C-140.3766,313.9415-139.9665,313.9454-139.5571,313.9498C-139.1269,313.9521-138.6968,313.9519-138.2666,313.9504C-137.893,313.9497-137.5194,313.9491-137.1458,313.9482C-136.8388,313.9474-136.5318,313.9472-136.2247,313.9471C-135.9332,313.947-135.6418,313.947-135.3502,313.947C-135.0587,313.947-134.7672,313.947-134.4756,313.947C-134.1569,313.9467-133.8382,313.9476-133.5196,313.949C-133.1253,313.9514-132.731,313.9494-132.3367,313.9484C-131.9659,313.9481-131.595,313.9488-131.2241,313.9499C-130.8274,313.9497-130.4307,313.9498-130.0339,313.9488C-129.654,313.949-129.274,313.9495-128.894,313.949C-128.5484,313.9477-128.2029,313.9475-127.8573,313.9492C-127.3241,313.9518-126.7909,313.9534-126.2577,313.9553C-125.5311,313.9581-124.8045,313.9587-124.0778,313.9563C-123.5446,313.9549-123.0113,313.9511-122.4781,313.9509C-122.0368,313.9515-121.5955,313.9508-121.1542,313.9493C-121.0931,313.9491-121.032,313.949-120.9709,313.9488L-122.7169,315.1481C-122.7774,315.1478-122.8379,315.1476-122.8984,315.1474C-123.3383,315.1459-123.7781,315.1453-124.218,315.1459C-124.7459,315.1457-125.2739,315.1418-125.8018,315.1405C-126.5294,315.1381-127.2571,315.1387-127.9846,315.1415C-128.5238,315.1434-129.0628,315.145-129.6019,315.1476C-129.9477,315.1493-130.2936,315.1491-130.6394,315.1478C-131.0195,315.1473-131.3996,315.1478-131.7797,315.148C-132.1754,315.147-132.5711,315.1471-132.9668,315.1469C-133.3391,315.1479-133.7115,315.1487-134.0838,315.1484C-134.4775,315.1474-134.8712,315.1454-135.2648,315.1478C-135.5854,315.1492-135.9059,315.1501-136.2265,315.1497C-136.5181,315.1497-136.8096,315.1497-137.1012,315.1497C-137.3926,315.1497-137.684,315.1497-137.9755,315.1497C-138.2815,315.1495-138.5875,315.1493-138.8935,315.1487C-139.2655,315.148-139.6375,315.1479-140.0095,315.1478C-140.4397,315.147-140.8698,315.1485-141.3,315.1437C-141.7147,315.1381-142.1302,315.1292-142.5427,315.0843C-142.9395,315.0397-143.3348,314.9871-143.7358,314.9973C-144.1436,314.9822-144.5506,314.9538-144.955,314.9006C-145.3371,314.8601-145.7204,314.8714-146.1043,314.8727C-146.4095,314.8733-146.7146,314.8745-147.0198,314.8739C-147.3119,314.8739-147.604,314.8739-147.8961,314.8735C-148.255,314.8728-148.6138,314.8714-148.9726,314.8693C-149.5259,314.8665-150.0792,314.863-150.6323,314.8733L-148.8829,313.6717z" stroke="#000" stroke-linecap="square" stroke-linejoin="round" stroke-width=".4767"/>
<path d="M-57.3881,313.9484C-56.6843,313.9602-55.9802,313.9586-55.2763,313.9581C-54.631,313.9572-53.9858,313.9554-53.3406,313.9525C-52.9094,313.9502-52.4782,313.9501-52.047,313.9495C-51.7073,313.9487-51.3675,313.9479-51.0277,313.9474C-50.7309,313.9691-50.4456,313.8899-50.1539,313.8518C-49.8613,313.8177-49.5662,313.8128-49.2718,313.8093C-48.9796,313.8072-48.6875,313.8081-48.3953,313.8085C-48.1035,313.8089-47.8117,313.809-47.5199,313.8091C-47.2282,313.8091-46.9364,313.8091-46.6446,313.8091C-46.3528,313.8091-46.061,313.8091-45.7692,313.8091C-45.4559,313.8085-45.1426,313.8102-44.8294,313.8103C-44.5121,313.81-44.1949,313.8096-43.8776,313.8093C-43.5838,313.8091-43.29,313.8091-42.9962,313.8091C-42.8018,313.8091-42.899,313.8091-42.7047,313.8091L-44.4556,315.0118C-44.6499,315.0118-44.5527,315.0118-44.7471,315.0118C-45.0407,315.0118-45.3343,315.0118-45.6279,315.0116C-45.9442,315.0113-46.2606,315.0109-46.577,315.0106C-46.8913,315.0107-47.2057,315.0124-47.5201,315.0118C-47.8119,315.0118-48.1037,315.0118-48.3955,315.0118C-48.6873,315.0118-48.9791,315.0118-49.2709,315.0117C-49.5627,315.0115-49.8545,315.0113-50.1463,315.011C-50.4376,315.0107-50.7289,315.0099-51.0202,315.0153C-51.3095,315.0227-51.5993,315.0348-51.8855,315.0788C-52.1815,315.1241-52.476,315.1695-52.7776,315.1494C-53.1153,315.1489-53.453,315.1481-53.7908,315.1473C-54.219,315.1467-54.6473,315.1466-55.0755,315.1442C-55.7153,315.1413-56.3552,315.1395-56.995,315.1387C-57.7084,315.1382-58.4219,315.1368-59.1352,315.1484L-57.3881,313.9484z" stroke="#000" stroke-linecap="square" stroke-linejoin="round" stroke-width=".4767"/>
<path d="M-97.681,314.1116C-97.1471,314.1792-96.6084,314.2005-96.0705,314.2165C-95.5904,314.228-95.1101,314.228-94.63,314.2268C-94.2335,314.2263-93.8371,314.2261-93.4407,314.2252C-92.6449,314.2456-91.8487,314.2356-91.0528,314.2319C-90.5718,314.2284-90.0909,314.2269-89.6099,314.225C-89.2264,314.225-88.8429,314.2245-88.4594,314.2256C-88.0562,314.2268-87.653,314.2246-87.2498,314.2253C-86.886,314.2244-86.5221,314.2245-86.1583,314.2246C-85.794,314.2251-85.4296,314.2248-85.0652,314.2241C-84.7171,314.2253-84.3691,314.2242-84.021,314.2236C-83.6805,314.2251-83.3399,314.2241-82.9994,314.2236C-82.6986,314.2232-82.3977,314.223-82.0969,314.223C-81.8453,314.2815-81.5923,314.3235-81.3342,314.3439C-81.0543,314.3611-80.7736,314.3611-80.4933,314.3619C-80.2016,314.3621-79.9099,314.3615-79.6182,314.3612C-79.4722,314.3611-79.3262,314.361-79.1802,314.361L-80.931,315.5637C-81.077,315.5638-81.223,315.5639-81.369,315.564C-81.661,315.5644-81.953,315.5651-82.245,315.5636C-82.5302,315.5612-82.816,315.5587-83.0999,315.5305C-83.3505,315.5012-83.5959,315.4409-83.8477,315.4256C-84.1479,315.4255-84.4481,315.4254-84.7483,315.4249C-85.0888,315.4245-85.4293,315.4235-85.7698,315.4249C-86.1175,315.4243-86.4651,315.4233-86.8128,315.4244C-87.1766,315.4237-87.5405,315.4234-87.9044,315.4239C-88.2676,315.4241-88.6307,315.4241-88.9939,315.4233C-89.3968,315.4239-89.7997,315.4217-90.2026,315.423C-90.5867,315.424-90.9708,315.4235-91.3549,315.4236C-91.8291,315.4216-92.3032,315.4202-92.7774,315.4166C-93.5801,315.4129-94.3831,315.4034-95.1857,315.424C-95.5815,315.4235-95.9772,315.4244-96.373,315.4236C-96.8515,315.4207-97.33,315.417-97.8082,315.401C-98.3559,315.3799-98.9029,315.3472-99.4483,315.2941L-97.681,314.1116z" stroke="#000" stroke-linecap="square" stroke-linejoin="round" stroke-width=".4767"/>
<path d="M-136.1855,276.2983L-136.1855,294.8415" fill="none" stroke="#000" stroke-linecap="round" stroke-width="4.8046"/>
<path d="M-126.6615,274.544L-126.6615,293.0872" fill="none" stroke="#000" stroke-linecap="round" stroke-width="4.8046"/>
<path d="M-117.7245,276.0083L-117.7245,294.5515" fill="none" stroke="#000" stroke-linecap="round" stroke-width="4.8046"/>
<path d="M-106.0478,274.841L-106.0478,293.3843" fill="none" stroke="#000" stroke-linecap="round" stroke-width="4.8046"/>
<path d="M-95.8892,277.0276L-95.8892,295.5709" fill="none" stroke="#000" stroke-linecap="round" stroke-width="4.8046"/>
<path d="M-84.2599,276.8522L-84.2599,295.3955" fill="none" stroke="#000" stroke-linecap="round" stroke-width="4.8046"/>
<path d="M-73.7574,275.1381L-73.7574,293.6813" fill="none" stroke="#000" stroke-linecap="round" stroke-width="4.8046"/>
<path d="M-63.8419,278.175L-63.8419,296.7182" fill="none" stroke="#000" stroke-linecap="round" stroke-width="4.8046"/>
<path d="M-53.169,277.8063L-53.169,296.3495" fill="none" stroke="#000" stroke-linecap="round" stroke-width="4.8046"/>
<path d="M-105.8017,352.8807L-78.6788,348.4525" fill="none" stroke="#000" stroke-width=".7749"/>
<path d="M-144.0697,281.0285L-144.0697,299.5717" fill="none" stroke="#000" stroke-linecap="round" stroke-width="4.8046"/>
</g>
<path d="M151.1961,292.8373L259.9337,306.4087C264.3542,306.4087 261.0864,313.1171 257.4865,315.6827L245.9237,320.1273L231.0125,325.3067C227.4127,327.8724 206.313,333.1521 201.8924,333.1521L107.7977,332.795C103.3771,332.795 100.5735,323.2295 104.1734,320.6639L136.7189,297.4684C140.3187,294.9028 146.7756,292.8373 151.1961,292.8373z" fill="#fff" stroke="#000" stroke-linecap="round" stroke-linejoin="round" stroke-width="1.6996"/>
<text font-family="Bitstream Vera Sans" font-size="20" x="142.0562" y="170.1273">
   <tspan x="142.0562" y="170.1273">ZZZzzzZZZ...</tspan>
  </text>
<path d="M897.0268,848.7417H1081.2599A10.8396,10.8396 0 0 1 1092.0995,859.5813V913.8722A10.8396,10.8396 0 0 1 1081.2599,924.7118H897.0268A10.8396,10.8396 0 0 1 886.1872,913.8722V859.5813A10.8396,10.8396 0 0 1 897.0268,848.7417z" stroke="#000" stroke-linecap="round" stroke-linejoin="round" stroke-width="3.2495" transform="matrix(.83324,0,-.78013,.2927,594.35181,83.3529)"/>
<path d="M889.2323,843.6788H1090.5679A7.4282,10.8396 0 0 1 1097.9961,854.5183V923.4512A7.4282,10.8396 0 0 1 1090.5679,934.2907H889.2323A7.4282,10.8396 0 0 1 881.8041,923.4512V854.5183A7.4282,10.8396 0 0 1 889.2323,843.6788z" stroke="#000" stroke-linecap="round" stroke-linejoin="round" stroke-width="3.2495" transform="matrix(.83324,0,-.78013,.2927,594.35181,83.3529)"/>
<path d="M638.4972,329.647H638.4972A5.1786,5.1786 0 0 1 643.6757,334.8255V348.397A5.1786,5.1786 0 0 1 638.4972,353.5755H638.4972A5.1786,5.1786 0 0 1 633.3186,348.397V334.8255A5.1786,5.1786 0 0 1 638.4972,329.647z" fill="#fff" stroke="#000" stroke-linecap="round" stroke-linejoin="round" stroke-width="3"/>
<path d="M773.5329,330.0398H773.5329A5.1786,5.1786 0 0 1 778.7115,335.2184V348.7898A5.1786,5.1786 0 0 1 773.5329,353.9684H773.5329A5.1786,5.1786 0 0 1 768.3543,348.7898V335.2184A5.1786,5.1786 0 0 1 773.5329,330.0398z" fill="#fff" stroke="#000" stroke-linecap="round" stroke-linejoin="round" stroke-width="3"/>
<path d="M819.0687,311.6469H819.0687A5.1786,5.1786 0 0 1 824.2472,316.8255V330.3969A5.1786,5.1786 0 0 1 819.0687,335.5755H819.0687A5.1786,5.1786 0 0 1 813.8901,330.3969V316.8255A5.1786,5.1786 0 0 1 819.0687,311.6469z" fill="#fff" stroke="#000" stroke-linecap="round" stroke-linejoin="round" stroke-width="3"/>
<path d="M682.0686,312.7184H682.0686A5.1786,5.1786 0 0 1 687.2472,317.897V331.4684A5.1786,5.1786 0 0 1 682.0686,336.647H682.0686A5.1786,5.1786 0 0 1 676.89,331.4684V317.897A5.1786,5.1786 0 0 1 682.0686,312.7184z" fill="#fff" stroke="#000" stroke-linecap="round" stroke-linejoin="round" stroke-width="3"/>
<g transform="matrix(.78777,0,0,.78777,601.28126,79.89836)">
<path d="M897.0268,848.7417H1081.2599A10.8396,10.8396 0 0 1 1092.0995,859.5813V913.8722A10.8396,10.8396 0 0 1 1081.2599,924.7118H897.0268A10.8396,10.8396 0 0 1 886.1872,913.8722V859.5813A10.8396,10.8396 0 0 1 897.0268,848.7417z" fill="#fff" stroke="#000" stroke-linecap="round" stroke-linejoin="round" stroke-width="3.2495" transform="matrix(1,0,-.93627,.35128,0,0)"/>
<path d="M892.6436,843.6788H1076.8768A10.8396,10.8396 0 0 1 1087.7164,854.5183V908.8093A10.8396,10.8396 0 0 1 1076.8768,919.6488H892.6436A10.8396,10.8396 0 0 1 881.8041,908.8093V854.5183A10.8396,10.8396 0 0 1 892.6436,843.6788z" fill="#fff" stroke="#000" stroke-linecap="round" stroke-linejoin="round" stroke-width="3.2495" transform="matrix(1,0,-.93627,.35128,0,0)"/>
<path d="M897.0268,848.7417H1081.2599A10.8396,10.8396 0 0 1 1092.0995,859.5813V913.8722A10.8396,10.8396 0 0 1 1081.2599,924.7118H897.0268A10.8396,10.8396 0 0 1 886.1872,913.8722V859.5813A10.8396,10.8396 0 0 1 897.0268,848.7417z" fill="#fff" stroke="#000" stroke-linecap="round" stroke-linejoin="round" stroke-width="3.2495" transform="matrix(1,0,-.93627,.35128,.35714,-3.10356)"/>
<path d="M892.6436,843.6788H1076.8768A10.8396,10.8396 0 0 1 1087.7164,854.5183V908.8093A10.8396,10.8396 0 0 1 1076.8768,919.6488H892.6436A10.8396,10.8396 0 0 1 881.8041,908.8093V854.5183A10.8396,10.8396 0 0 1 892.6436,843.6788z" fill="#fff" stroke="#000" stroke-linecap="round" stroke-linejoin="round" stroke-width="3.2495" transform="matrix(1,0,-.93627,.35128,.35714,-3.10356)"/>
<path d="M897.0268,848.7417H1081.2599A10.8396,10.8396 0 0 1 1092.0995,859.5813V913.8722A10.8396,10.8396 0 0 1 1081.2599,924.7118H897.0268A10.8396,10.8396 0 0 1 886.1872,913.8722V859.5813A10.8396,10.8396 0 0 1 897.0268,848.7417z" fill="#fff" stroke="#000" stroke-linecap="round" stroke-linejoin="round" stroke-width="3.2495" transform="matrix(1,0,-.93627,.35128,.62499,-6.63035)"/>
<path d="M892.6436,843.6788H1076.8768A10.8396,10.8396 0 0 1 1087.7164,854.5183V908.8093A10.8396,10.8396 0 0 1 1076.8768,919.6488H892.6436A10.8396,10.8396 0 0 1 881.8041,908.8093V854.5183A10.8396,10.8396 0 0 1 892.6436,843.6788z" fill="#fff" stroke="#000" stroke-linecap="round" stroke-linejoin="round" stroke-width="3.2495" transform="matrix(1,0,-.93627,.35128,.62499,-6.63035)"/>
</g>
<path d="M673.3706,528.6876H725.5239A3.0109,3.0109 0 0 1 728.5348,531.6985V573.4064A3.0109,3.0109 0 0 1 725.5239,576.4173H673.3706A3.0109,3.0109 0 0 1 670.3597,573.4064V531.6985A3.0109,3.0109 0 0 1 673.3706,528.6876z" fill="#fff" stroke="#000" stroke-linecap="round" stroke-linejoin="round" stroke-width="3.1126" transform="matrix(.92897,-.37014,0,1,0,0)"/>
<path d="M676.3609,530.4258H728.5142A3.0109,3.0109 0 0 1 731.5251,533.4367V575.1446A3.0109,3.0109 0 0 1 728.5142,578.1555H676.3609A3.0109,3.0109 0 0 1 673.35,575.1446V533.4367A3.0109,3.0109 0 0 1 676.3609,530.4258z" fill="#fff" stroke="#000" stroke-linecap="round" stroke-linejoin="round" stroke-width="3.1126" transform="matrix(.92897,-.37014,0,1,0,0)"/>
<path d="M119.198,282.6935A52.2754,16.2887 0 1 1 14.6472,282.6935A52.2754,16.2887 0 1 1 119.198,282.6935z" fill="#fff" stroke="#000" stroke-linecap="round" stroke-linejoin="round" stroke-width="3" transform="matrix(.59838,-.3161,.28511,.66342,541.62562,141.91447)"/>
<g transform="matrix(.51148,-.46605,.46605,.51148,580.07179,72.3937)">
<path d="M-43.5297,288.8057L-43.5297,336.6941C-43.5297,356.7011-59.6364,372.8078-79.6434,372.8078L-115.0774,372.8078C-135.0844,372.8078-151.1912,356.7011-151.1912,336.6941L-151.1912,288.8057" fill="#fff" stroke="#000" stroke-linecap="round" stroke-linejoin="round" stroke-width="3.6422"/>
<path d="M-122.1431,308.6171H-98.6091A.7803,.7803 0 0 1 -97.8288,309.3974V319.4235A.7803,.7803 0 0 1 -98.6091,320.2038H-122.1431A.7803,.7803 0 0 1 -122.9234,319.4235V309.3974A.7803,.7803 0 0 1 -122.1431,308.6171z" stroke="#000" stroke-linecap="square" stroke-linejoin="round" stroke-width="3.7338"/>
<path d="M-80.7522,308.6171H-60.3393A2.3409,2.3409 0 0 1 -57.9985,310.958V317.8629A2.3409,2.3409 0 0 1 -60.3393,320.2038H-80.7522A2.3409,2.3409 0 0 1 -83.093,317.8629V310.958A2.3409,2.3409 0 0 1 -80.7522,308.6171z" stroke="#000" stroke-linecap="square" stroke-linejoin="round" stroke-width="3.7338"/>
<path d="M-148.8829,313.6717C-148.3338,313.6822-147.7844,313.6785-147.2351,313.6758C-146.8722,313.6736-146.5092,313.6722-146.1462,313.6715C-145.8537,313.6711-145.5613,313.6711-145.2688,313.6711C-144.9647,313.6705-144.6607,313.6717-144.3567,313.6723C-143.966,313.6626-143.5814,313.6719-143.1947,313.723C-142.7951,313.7775-142.3916,313.7947-141.9885,313.8057C-141.5833,313.7899-141.1856,313.8646-140.7845,313.9048C-140.3766,313.9415-139.9665,313.9454-139.5571,313.9498C-139.1269,313.9521-138.6968,313.9519-138.2666,313.9504C-137.893,313.9497-137.5194,313.9491-137.1458,313.9482C-136.8388,313.9474-136.5318,313.9472-136.2247,313.9471C-135.9332,313.947-135.6418,313.947-135.3502,313.947C-135.0587,313.947-134.7672,313.947-134.4756,313.947C-134.1569,313.9467-133.8382,313.9476-133.5196,313.949C-133.1253,313.9514-132.731,313.9494-132.3367,313.9484C-131.9659,313.9481-131.595,313.9488-131.2241,313.9499C-130.8274,313.9497-130.4307,313.9498-130.0339,313.9488C-129.654,313.949-129.274,313.9495-128.894,313.949C-128.5484,313.9477-128.2029,313.9475-127.8573,313.9492C-127.3241,313.9518-126.7909,313.9534-126.2577,313.9553C-125.5311,313.9581-124.8045,313.9587-124.0778,313.9563C-123.5446,313.9549-123.0113,313.9511-122.4781,313.9509C-122.0368,313.9515-121.5955,313.9508-121.1542,313.9493C-121.0931,313.9491-121.032,313.949-120.9709,313.9488L-122.7169,315.1481C-122.7774,315.1478-122.8379,315.1476-122.8984,315.1474C-123.3383,315.1459-123.7781,315.1453-124.218,315.1459C-124.7459,315.1457-125.2739,315.1418-125.8018,315.1405C-126.5294,315.1381-127.2571,315.1387-127.9846,315.1415C-128.5238,315.1434-129.0628,315.145-129.6019,315.1476C-129.9477,315.1493-130.2936,315.1491-130.6394,315.1478C-131.0195,315.1473-131.3996,315.1478-131.7797,315.148C-132.1754,315.147-132.5711,315.1471-132.9668,315.1469C-133.3391,315.1479-133.7115,315.1487-134.0838,315.1484C-134.4775,315.1474-134.8712,315.1454-135.2648,315.1478C-135.5854,315.1492-135.9059,315.1501-136.2265,315.1497C-136.5181,315.1497-136.8096,315.1497-137.1012,315.1497C-137.3926,315.1497-137.684,315.1497-137.9755,315.1497C-138.2815,315.1495-138.5875,315.1493-138.8935,315.1487C-139.2655,315.148-139.6375,315.1479-140.0095,315.1478C-140.4397,315.147-140.8698,315.1485-141.3,315.1437C-141.7147,315.1381-142.1302,315.1292-142.5427,315.0843C-142.9395,315.0397-143.3348,314.9871-143.7358,314.9973C-144.1436,314.9822-144.5506,314.9538-144.955,314.9006C-145.3371,314.8601-145.7204,314.8714-146.1043,314.8727C-146.4095,314.8733-146.7146,314.8745-147.0198,314.8739C-147.3119,314.8739-147.604,314.8739-147.8961,314.8735C-148.255,314.8728-148.6138,314.8714-148.9726,314.8693C-149.5259,314.8665-150.0792,314.863-150.6323,314.8733L-148.8829,313.6717z" stroke="#000" stroke-linecap="square" stroke-linejoin="round" stroke-width=".4767"/>
<path d="M-57.3881,313.9484C-56.6843,313.9602-55.9802,313.9586-55.2763,313.9581C-54.631,313.9572-53.9858,313.9554-53.3406,313.9525C-52.9094,313.9502-52.4782,313.9501-52.047,313.9495C-51.7073,313.9487-51.3675,313.9479-51.0277,313.9474C-50.7309,313.9691-50.4456,313.8899-50.1539,313.8518C-49.8613,313.8177-49.5662,313.8128-49.2718,313.8093C-48.9796,313.8072-48.6875,313.8081-48.3953,313.8085C-48.1035,313.8089-47.8117,313.809-47.5199,313.8091C-47.2282,313.8091-46.9364,313.8091-46.6446,313.8091C-46.3528,313.8091-46.061,313.8091-45.7692,313.8091C-45.4559,313.8085-45.1426,313.8102-44.8294,313.8103C-44.5121,313.81-44.1949,313.8096-43.8776,313.8093C-43.5838,313.8091-43.29,313.8091-42.9962,313.8091C-42.8018,313.8091-42.899,313.8091-42.7047,313.8091L-44.4556,315.0118C-44.6499,315.0118-44.5527,315.0118-44.7471,315.0118C-45.0407,315.0118-45.3343,315.0118-45.6279,315.0116C-45.9442,315.0113-46.2606,315.0109-46.577,315.0106C-46.8913,315.0107-47.2057,315.0124-47.5201,315.0118C-47.8119,315.0118-48.1037,315.0118-48.3955,315.0118C-48.6873,315.0118-48.9791,315.0118-49.2709,315.0117C-49.5627,315.0115-49.8545,315.0113-50.1463,315.011C-50.4376,315.0107-50.7289,315.0099-51.0202,315.0153C-51.3095,315.0227-51.5993,315.0348-51.8855,315.0788C-52.1815,315.1241-52.476,315.1695-52.7776,315.1494C-53.1153,315.1489-53.453,315.1481-53.7908,315.1473C-54.219,315.1467-54.6473,315.1466-55.0755,315.1442C-55.7153,315.1413-56.3552,315.1395-56.995,315.1387C-57.7084,315.1382-58.4219,315.1368-59.1352,315.1484L-57.3881,313.9484z" stroke="#000" stroke-linecap="square" stroke-linejoin="round" stroke-width=".4767"/>
<path d="M-97.681,314.1116C-97.1471,314.1792-96.6084,314.2005-96.0705,314.2165C-95.5904,314.228-95.1101,314.228-94.63,314.2268C-94.2335,314.2263-93.8371,314.2261-93.4407,314.2252C-92.6449,314.2456-91.8487,314.2356-91.0528,314.2319C-90.5718,314.2284-90.0909,314.2269-89.6099,314.225C-89.2264,314.225-88.8429,314.2245-88.4594,314.2256C-88.0562,314.2268-87.653,314.2246-87.2498,314.2253C-86.886,314.2244-86.5221,314.2245-86.1583,314.2246C-85.794,314.2251-85.4296,314.2248-85.0652,314.2241C-84.7171,314.2253-84.3691,314.2242-84.021,314.2236C-83.6805,314.2251-83.3399,314.2241-82.9994,314.2236C-82.6986,314.2232-82.3977,314.223-82.0969,314.223C-81.8453,314.2815-81.5923,314.3235-81.3342,314.3439C-81.0543,314.3611-80.7736,314.3611-80.4933,314.3619C-80.2016,314.3621-79.9099,314.3615-79.6182,314.3612C-79.4722,314.3611-79.3262,314.361-79.1802,314.361L-80.931,315.5637C-81.077,315.5638-81.223,315.5639-81.369,315.564C-81.661,315.5644-81.953,315.5651-82.245,315.5636C-82.5302,315.5612-82.816,315.5587-83.0999,315.5305C-83.3505,315.5012-83.5959,315.4409-83.8477,315.4256C-84.1479,315.4255-84.4481,315.4254-84.7483,315.4249C-85.0888,315.4245-85.4293,315.4235-85.7698,315.4249C-86.1175,315.4243-86.4651,315.4233-86.8128,315.4244C-87.1766,315.4237-87.5405,315.4234-87.9044,315.4239C-88.2676,315.4241-88.6307,315.4241-88.9939,315.4233C-89.3968,315.4239-89.7997,315.4217-90.2026,315.423C-90.5867,315.424-90.9708,315.4235-91.3549,315.4236C-91.8291,315.4216-92.3032,315.4202-92.7774,315.4166C-93.5801,315.4129-94.3831,315.4034-95.1857,315.424C-95.5815,315.4235-95.9772,315.4244-96.373,315.4236C-96.8515,315.4207-97.33,315.417-97.8082,315.401C-98.3559,315.3799-98.9029,315.3472-99.4483,315.2941L-97.681,314.1116z" stroke="#000" stroke-linecap="square" stroke-linejoin="round" stroke-width=".4767"/>
<path d="M-136.1855,276.2983L-136.1855,294.8415" fill="none" stroke="#000" stroke-linecap="round" stroke-width="4.8046"/>
<path d="M-126.6615,274.544L-126.6615,293.0872" fill="none" stroke="#000" stroke-linecap="round" stroke-width="4.8046"/>
<path d="M-117.7245,276.0083L-117.7245,294.5515" fill="none" stroke="#000" stroke-linecap="round" stroke-width="4.8046"/>
<path d="M-106.0478,274.841L-106.0478,293.3843" fill="none" stroke="#000" stroke-linecap="round" stroke-width="4.8046"/>
<path d="M-95.8892,277.0276L-95.8892,295.5709" fill="none" stroke="#000" stroke-linecap="round" stroke-width="4.8046"/>
<path d="M-84.2599,276.8522L-84.2599,295.3955" fill="none" stroke="#000" stroke-linecap="round" stroke-width="4.8046"/>
<path d="M-73.7574,275.1381L-73.7574,293.6813" fill="none" stroke="#000" stroke-linecap="round" stroke-width="4.8046"/>
<path d="M-63.8419,278.175L-63.8419,296.7182" fill="none" stroke="#000" stroke-linecap="round" stroke-width="4.8046"/>
<path d="M-53.169,277.8063L-53.169,296.3495" fill="none" stroke="#000" stroke-linecap="round" stroke-width="4.8046"/>
<path d="M-105.8017,352.8807L-78.6788,348.4525" fill="none" stroke="#000" stroke-width=".7749"/>
<path d="M-144.0697,281.0285L-144.0697,299.5717" fill="none" stroke="#000" stroke-linecap="round" stroke-width="4.8046"/>
</g>
<path d="M721.4228,293.4641L830.1604,307.0355C834.581,307.0355 831.3131,313.7439 827.7132,316.3095L816.1504,320.7541L801.2392,325.9335C797.6394,328.4991 776.5397,333.7789 772.1191,333.7789L678.0244,333.4218C673.6038,333.4218 670.8003,323.8563 674.4001,321.2906L706.9456,298.0952C710.5454,295.5296 717.0023,293.4641 721.4228,293.4641z" fill="#fff" stroke="#000" stroke-linecap="round" stroke-linejoin="round" stroke-width="1.6996"/>
<text font-family="Bitstream Vera Sans" font-size="20" x="778.2268" y="165.6573">
   <tspan text-align="center" text-anchor="middle" x="778.2268" y="165.6573">Bon je vais</tspan>
   <tspan text-align="center" text-anchor="middle" x="778.2268" y="190.6573">arrêter Tetris</tspan>
   <tspan text-align="center" text-anchor="middle" x="778.2268" y="215.6573">je crois...</tspan>
  </text>
<path d="M731.2912,234.2248L717.0054,257.7963" fill="none" stroke="#000"/>
<path d="M46.9062,207.3081H118.4098A.3121,.3121 0 0 1 118.7219,207.6202V254.262A.3121,.3121 0 0 1 118.4098,254.5741H46.9062A.3121,.3121 0 0 1 46.5941,254.262V207.6202A.3121,.3121 0 0 1 46.9062,207.3081z" fill="#fff" stroke="#000" stroke-linecap="round" stroke-linejoin="round" stroke-width="3.1321" transform="matrix(.91743,-.39789,0,1,0,0)"/>
<path d="M58.0982,213.2515H106.812A2.893,2.893 0 0 1 109.705,216.1445V246.0727A2.893,2.893 0 0 1 106.812,248.9658H58.0982A2.893,2.893 0 0 1 55.2052,246.0727V216.1445A2.893,2.893 0 0 1 58.0982,213.2515z" fill="#fff" stroke="#000" stroke-linecap="round" stroke-linejoin="round" stroke-width="3.1321" transform="matrix(.91743,-.39789,0,1,0,0)"/>
<path d="m446.8915,78.4154c0,2.9289-27.5427,5.3033-61.5183,5.3033-33.9756,0-61.5183,-2.3744-61.5183,-5.3033 0,-2.9289 27.5427,-5.3033 61.5183,-5.3033 33.9756,0 61.5183,2.3744 61.5183,5.3033z" stroke="#000" stroke-linecap="round" stroke-width="4.862" transform="matrix(-.21053,.09131,0,.21053,156.29977,157.9706)"/>
<g transform="matrix(-.21053,.09131,0,.21053,54.68669,139.45509)">
<path d="M-43.5297,288.8057L-43.5297,336.6941C-43.5297,356.7011-59.6364,372.8078-79.6434,372.8078L-115.0774,372.8078C-135.0844,372.8078-151.1912,356.7011-151.1912,336.6941L-151.1912,288.8057" fill="#fff" stroke="#000" stroke-linecap="round" stroke-linejoin="round" stroke-width="3.6422"/>
<path d="M-122.1431,308.6171H-98.6091A.7803,.7803 0 0 1 -97.8288,309.3974V319.4235A.7803,.7803 0 0 1 -98.6091,320.2038H-122.1431A.7803,.7803 0 0 1 -122.9234,319.4235V309.3974A.7803,.7803 0 0 1 -122.1431,308.6171z" stroke="#000" stroke-linecap="square" stroke-linejoin="round" stroke-width="3.7338"/>
<path d="M-80.7522,308.6171H-60.3393A2.3409,2.3409 0 0 1 -57.9985,310.958V317.8629A2.3409,2.3409 0 0 1 -60.3393,320.2038H-80.7522A2.3409,2.3409 0 0 1 -83.093,317.8629V310.958A2.3409,2.3409 0 0 1 -80.7522,308.6171z" stroke="#000" stroke-linecap="square" stroke-linejoin="round" stroke-width="3.7338"/>
<path d="M-148.8829,313.6717C-148.3338,313.6822-147.7844,313.6785-147.2351,313.6758C-146.8722,313.6736-146.5092,313.6722-146.1462,313.6715C-145.8537,313.6711-145.5613,313.6711-145.2688,313.6711C-144.9647,313.6705-144.6607,313.6717-144.3567,313.6723C-143.966,313.6626-143.5814,313.6719-143.1947,313.723C-142.7951,313.7775-142.3916,313.7947-141.9885,313.8057C-141.5833,313.7899-141.1856,313.8646-140.7845,313.9048C-140.3766,313.9415-139.9665,313.9454-139.5571,313.9498C-139.1269,313.9521-138.6968,313.9519-138.2666,313.9504C-137.893,313.9497-137.5194,313.9491-137.1458,313.9482C-136.8388,313.9474-136.5318,313.9472-136.2247,313.9471C-135.9332,313.947-135.6418,313.947-135.3502,313.947C-135.0587,313.947-134.7672,313.947-134.4756,313.947C-134.1569,313.9467-133.8382,313.9476-133.5196,313.949C-133.1253,313.9514-132.731,313.9494-132.3367,313.9484C-131.9659,313.9481-131.595,313.9488-131.2241,313.9499C-130.8274,313.9497-130.4307,313.9498-130.0339,313.9488C-129.654,313.949-129.274,313.9495-128.894,313.949C-128.5484,313.9477-128.2029,313.9475-127.8573,313.9492C-127.3241,313.9518-126.7909,313.9534-126.2577,313.9553C-125.5311,313.9581-124.8045,313.9587-124.0778,313.9563C-123.5446,313.9549-123.0113,313.9511-122.4781,313.9509C-122.0368,313.9515-121.5955,313.9508-121.1542,313.9493C-121.0931,313.9491-121.032,313.949-120.9709,313.9488L-122.7169,315.1481C-122.7774,315.1478-122.8379,315.1476-122.8984,315.1474C-123.3383,315.1459-123.7781,315.1453-124.218,315.1459C-124.7459,315.1457-125.2739,315.1418-125.8018,315.1405C-126.5294,315.1381-127.2571,315.1387-127.9846,315.1415C-128.5238,315.1434-129.0628,315.145-129.6019,315.1476C-129.9477,315.1493-130.2936,315.1491-130.6394,315.1478C-131.0195,315.1473-131.3996,315.1478-131.7797,315.148C-132.1754,315.147-132.5711,315.1471-132.9668,315.1469C-133.3391,315.1479-133.7115,315.1487-134.0838,315.1484C-134.4775,315.1474-134.8712,315.1454-135.2648,315.1478C-135.5854,315.1492-135.9059,315.1501-136.2265,315.1497C-136.5181,315.1497-136.8096,315.1497-137.1012,315.1497C-137.3926,315.1497-137.684,315.1497-137.9755,315.1497C-138.2815,315.1495-138.5875,315.1493-138.8935,315.1487C-139.2655,315.148-139.6375,315.1479-140.0095,315.1478C-140.4397,315.147-140.8698,315.1485-141.3,315.1437C-141.7147,315.1381-142.1302,315.1292-142.5427,315.0843C-142.9395,315.0397-143.3348,314.9871-143.7358,314.9973C-144.1436,314.9822-144.5506,314.9538-144.955,314.9006C-145.3371,314.8601-145.7204,314.8714-146.1043,314.8727C-146.4095,314.8733-146.7146,314.8745-147.0198,314.8739C-147.3119,314.8739-147.604,314.8739-147.8961,314.8735C-148.255,314.8728-148.6138,314.8714-148.9726,314.8693C-149.5259,314.8665-150.0792,314.863-150.6323,314.8733L-148.8829,313.6717z" stroke="#000" stroke-linecap="square" stroke-linejoin="round" stroke-width=".4767"/>
<path d="M-57.3881,313.9484C-56.6843,313.9602-55.9802,313.9586-55.2763,313.9581C-54.631,313.9572-53.9858,313.9554-53.3406,313.9525C-52.9094,313.9502-52.4782,313.9501-52.047,313.9495C-51.7073,313.9487-51.3675,313.9479-51.0277,313.9474C-50.7309,313.9691-50.4456,313.8899-50.1539,313.8518C-49.8613,313.8177-49.5662,313.8128-49.2718,313.8093C-48.9796,313.8072-48.6875,313.8081-48.3953,313.8085C-48.1035,313.8089-47.8117,313.809-47.5199,313.8091C-47.2282,313.8091-46.9364,313.8091-46.6446,313.8091C-46.3528,313.8091-46.061,313.8091-45.7692,313.8091C-45.4559,313.8085-45.1426,313.8102-44.8294,313.8103C-44.5121,313.81-44.1949,313.8096-43.8776,313.8093C-43.5838,313.8091-43.29,313.8091-42.9962,313.8091C-42.8018,313.8091-42.899,313.8091-42.7047,313.8091L-44.4556,315.0118C-44.6499,315.0118-44.5527,315.0118-44.7471,315.0118C-45.0407,315.0118-45.3343,315.0118-45.6279,315.0116C-45.9442,315.0113-46.2606,315.0109-46.577,315.0106C-46.8913,315.0107-47.2057,315.0124-47.5201,315.0118C-47.8119,315.0118-48.1037,315.0118-48.3955,315.0118C-48.6873,315.0118-48.9791,315.0118-49.2709,315.0117C-49.5627,315.0115-49.8545,315.0113-50.1463,315.011C-50.4376,315.0107-50.7289,315.0099-51.0202,315.0153C-51.3095,315.0227-51.5993,315.0348-51.8855,315.0788C-52.1815,315.1241-52.476,315.1695-52.7776,315.1494C-53.1153,315.1489-53.453,315.1481-53.7908,315.1473C-54.219,315.1467-54.6473,315.1466-55.0755,315.1442C-55.7153,315.1413-56.3552,315.1395-56.995,315.1387C-57.7084,315.1382-58.4219,315.1368-59.1352,315.1484L-57.3881,313.9484z" stroke="#000" stroke-linecap="square" stroke-linejoin="round" stroke-width=".4767"/>
<path d="M-97.681,314.1116C-97.1471,314.1792-96.6084,314.2005-96.0705,314.2165C-95.5904,314.228-95.1101,314.228-94.63,314.2268C-94.2335,314.2263-93.8371,314.2261-93.4407,314.2252C-92.6449,314.2456-91.8487,314.2356-91.0528,314.2319C-90.5718,314.2284-90.0909,314.2269-89.6099,314.225C-89.2264,314.225-88.8429,314.2245-88.4594,314.2256C-88.0562,314.2268-87.653,314.2246-87.2498,314.2253C-86.886,314.2244-86.5221,314.2245-86.1583,314.2246C-85.794,314.2251-85.4296,314.2248-85.0652,314.2241C-84.7171,314.2253-84.3691,314.2242-84.021,314.2236C-83.6805,314.2251-83.3399,314.2241-82.9994,314.2236C-82.6986,314.2232-82.3977,314.223-82.0969,314.223C-81.8453,314.2815-81.5923,314.3235-81.3342,314.3439C-81.0543,314.3611-80.7736,314.3611-80.4933,314.3619C-80.2016,314.3621-79.9099,314.3615-79.6182,314.3612C-79.4722,314.3611-79.3262,314.361-79.1802,314.361L-80.931,315.5637C-81.077,315.5638-81.223,315.5639-81.369,315.564C-81.661,315.5644-81.953,315.5651-82.245,315.5636C-82.5302,315.5612-82.816,315.5587-83.0999,315.5305C-83.3505,315.5012-83.5959,315.4409-83.8477,315.4256C-84.1479,315.4255-84.4481,315.4254-84.7483,315.4249C-85.0888,315.4245-85.4293,315.4235-85.7698,315.4249C-86.1175,315.4243-86.4651,315.4233-86.8128,315.4244C-87.1766,315.4237-87.5405,315.4234-87.9044,315.4239C-88.2676,315.4241-88.6307,315.4241-88.9939,315.4233C-89.3968,315.4239-89.7997,315.4217-90.2026,315.423C-90.5867,315.424-90.9708,315.4235-91.3549,315.4236C-91.8291,315.4216-92.3032,315.4202-92.7774,315.4166C-93.5801,315.4129-94.3831,315.4034-95.1857,315.424C-95.5815,315.4235-95.9772,315.4244-96.373,315.4236C-96.8515,315.4207-97.33,315.417-97.8082,315.401C-98.3559,315.3799-98.9029,315.3472-99.4483,315.2941L-97.681,314.1116z" stroke="#000" stroke-linecap="square" stroke-linejoin="round" stroke-width=".4767"/>
<path d="M-136.1855,276.2983L-136.1855,294.8415" fill="none" stroke="#000" stroke-linecap="round" stroke-width="4.8046"/>
<path d="M-126.6615,274.544L-126.6615,293.0872" fill="none" stroke="#000" stroke-linecap="round" stroke-width="4.8046"/>
<path d="M-117.7245,276.0083L-117.7245,294.5515" fill="none" stroke="#000" stroke-linecap="round" stroke-width="4.8046"/>
<path d="M-106.0478,274.841L-106.0478,293.3843" fill="none" stroke="#000" stroke-linecap="round" stroke-width="4.8046"/>
<path d="M-95.8892,277.0276L-95.8892,295.5709" fill="none" stroke="#000" stroke-linecap="round" stroke-width="4.8046"/>
<path d="M-84.2599,276.8522L-84.2599,295.3955" fill="none" stroke="#000" stroke-linecap="round" stroke-width="4.8046"/>
<path d="M-73.7574,275.1381L-73.7574,293.6813" fill="none" stroke="#000" stroke-linecap="round" stroke-width="4.8046"/>
<path d="M-63.8419,278.175L-63.8419,296.7182" fill="none" stroke="#000" stroke-linecap="round" stroke-width="4.8046"/>
<path d="M-53.169,277.8063L-53.169,296.3495" fill="none" stroke="#000" stroke-linecap="round" stroke-width="4.8046"/>
<path d="M-105.8017,352.8807L-78.6788,348.4525" fill="none" stroke="#000" stroke-width=".7749"/>
<path d="M-144.0697,281.0285L-144.0697,299.5717" fill="none" stroke="#000" stroke-linecap="round" stroke-width="4.8046"/>
</g>
<g transform="matrix(1,-.4337,0,1,-281.45249,106.74552)">
<path d="M357.5,181.0714L336.4286,222.8571" fill="none" stroke="#000"/>
<path d="M357.6215,181.0342L378.693,222.8199" fill="none" stroke="#000"/>
<path d="m381.4286,150.8929c0,.6904-.7195,1.25-1.6071,1.25-.8876,0-1.6071,-.5596-1.6071,-1.25 0,-.6904 .7195,-1.25 1.6071,-1.25 .8876,0 1.6071,.5596 1.6071,1.25z" fill="#fff" stroke="#000" stroke-linecap="round" stroke-linejoin="round" stroke-width="3" transform="translate(-22.1429,30.7143)"/>
</g>
<path d="M44.2134,189.5686L51.7134,192.3873" fill="none" stroke="#000"/>
<path d="M43.9175,234.5004L51.0604,225.8668" fill="none" stroke="#000"/>
<path d="M101.351,170.1759L107.9581,161.4175" fill="none" stroke="#000"/>
<path d="M101.2031,203.3931L107.0959,206.9088" fill="none" stroke="#000"/>
<path d="M670.2219,457.6657H741.7255A.3121,.3121 0 0 1 742.0376,457.9778V504.6196A.3121,.3121 0 0 1 741.7255,504.9317H670.2219A.3121,.3121 0 0 1 669.9097,504.6196V457.9778A.3121,.3121 0 0 1 670.2219,457.6657z" fill="#fff" stroke="#000" stroke-linecap="round" stroke-linejoin="round" stroke-width="3.1321" transform="matrix(.91743,-.39789,0,1,0,0)"/>
<path d="M681.4138,463.609H730.1276A2.893,2.893 0 0 1 733.0207,466.5021V496.4303A2.893,2.893 0 0 1 730.1276,499.3233H681.4138A2.893,2.893 0 0 1 678.5208,496.4303V466.5021A2.893,2.893 0 0 1 681.4138,463.609z" fill="#fff" stroke="#000" stroke-linecap="round" stroke-linejoin="round" stroke-width="3.1321" transform="matrix(.91743,-.39789,0,1,0,0)"/>
<path d="m446.8915,78.4154c0,2.9289-27.5427,5.3033-61.5183,5.3033-33.9756,0-61.5183,-2.3744-61.5183,-5.3033 0,-2.9289 27.5427,-5.3033 61.5183,-5.3033 33.9756,0 61.5183,2.3744 61.5183,5.3033z" stroke="#000" stroke-linecap="round" stroke-width="4.862" transform="matrix(-.21053,.09131,0,.21053,728.15037,160.31753)"/>
<g transform="matrix(-.21053,.09131,0,.21053,626.53729,141.80202)">
<path d="M-43.5297,288.8057L-43.5297,336.6941C-43.5297,356.7011-59.6364,372.8078-79.6434,372.8078L-115.0774,372.8078C-135.0844,372.8078-151.1912,356.7011-151.1912,336.6941L-151.1912,288.8057" fill="#fff" stroke="#000" stroke-linecap="round" stroke-linejoin="round" stroke-width="3.6422"/>
<path d="M-122.1431,308.6171H-98.6091A.7803,.7803 0 0 1 -97.8288,309.3974V319.4235A.7803,.7803 0 0 1 -98.6091,320.2038H-122.1431A.7803,.7803 0 0 1 -122.9234,319.4235V309.3974A.7803,.7803 0 0 1 -122.1431,308.6171z" stroke="#000" stroke-linecap="square" stroke-linejoin="round" stroke-width="3.7338"/>
<path d="M-80.7522,308.6171H-60.3393A2.3409,2.3409 0 0 1 -57.9985,310.958V317.8629A2.3409,2.3409 0 0 1 -60.3393,320.2038H-80.7522A2.3409,2.3409 0 0 1 -83.093,317.8629V310.958A2.3409,2.3409 0 0 1 -80.7522,308.6171z" stroke="#000" stroke-linecap="square" stroke-linejoin="round" stroke-width="3.7338"/>
<path d="M-148.8829,313.6717C-148.3338,313.6822-147.7844,313.6785-147.2351,313.6758C-146.8722,313.6736-146.5092,313.6722-146.1462,313.6715C-145.8537,313.6711-145.5613,313.6711-145.2688,313.6711C-144.9647,313.6705-144.6607,313.6717-144.3567,313.6723C-143.966,313.6626-143.5814,313.6719-143.1947,313.723C-142.7951,313.7775-142.3916,313.7947-141.9885,313.8057C-141.5833,313.7899-141.1856,313.8646-140.7845,313.9048C-140.3766,313.9415-139.9665,313.9454-139.5571,313.9498C-139.1269,313.9521-138.6968,313.9519-138.2666,313.9504C-137.893,313.9497-137.5194,313.9491-137.1458,313.9482C-136.8388,313.9474-136.5318,313.9472-136.2247,313.9471C-135.9332,313.947-135.6418,313.947-135.3502,313.947C-135.0587,313.947-134.7672,313.947-134.4756,313.947C-134.1569,313.9467-133.8382,313.9476-133.5196,313.949C-133.1253,313.9514-132.731,313.9494-132.3367,313.9484C-131.9659,313.9481-131.595,313.9488-131.2241,313.9499C-130.8274,313.9497-130.4307,313.9498-130.0339,313.9488C-129.654,313.949-129.274,313.9495-128.894,313.949C-128.5484,313.9477-128.2029,313.9475-127.8573,313.9492C-127.3241,313.9518-126.7909,313.9534-126.2577,313.9553C-125.5311,313.9581-124.8045,313.9587-124.0778,313.9563C-123.5446,313.9549-123.0113,313.9511-122.4781,313.9509C-122.0368,313.9515-121.5955,313.9508-121.1542,313.9493C-121.0931,313.9491-121.032,313.949-120.9709,313.9488L-122.7169,315.1481C-122.7774,315.1478-122.8379,315.1476-122.8984,315.1474C-123.3383,315.1459-123.7781,315.1453-124.218,315.1459C-124.7459,315.1457-125.2739,315.1418-125.8018,315.1405C-126.5294,315.1381-127.2571,315.1387-127.9846,315.1415C-128.5238,315.1434-129.0628,315.145-129.6019,315.1476C-129.9477,315.1493-130.2936,315.1491-130.6394,315.1478C-131.0195,315.1473-131.3996,315.1478-131.7797,315.148C-132.1754,315.147-132.5711,315.1471-132.9668,315.1469C-133.3391,315.1479-133.7115,315.1487-134.0838,315.1484C-134.4775,315.1474-134.8712,315.1454-135.2648,315.1478C-135.5854,315.1492-135.9059,315.1501-136.2265,315.1497C-136.5181,315.1497-136.8096,315.1497-137.1012,315.1497C-137.3926,315.1497-137.684,315.1497-137.9755,315.1497C-138.2815,315.1495-138.5875,315.1493-138.8935,315.1487C-139.2655,315.148-139.6375,315.1479-140.0095,315.1478C-140.4397,315.147-140.8698,315.1485-141.3,315.1437C-141.7147,315.1381-142.1302,315.1292-142.5427,315.0843C-142.9395,315.0397-143.3348,314.9871-143.7358,314.9973C-144.1436,314.9822-144.5506,314.9538-144.955,314.9006C-145.3371,314.8601-145.7204,314.8714-146.1043,314.8727C-146.4095,314.8733-146.7146,314.8745-147.0198,314.8739C-147.3119,314.8739-147.604,314.8739-147.8961,314.8735C-148.255,314.8728-148.6138,314.8714-148.9726,314.8693C-149.5259,314.8665-150.0792,314.863-150.6323,314.8733L-148.8829,313.6717z" stroke="#000" stroke-linecap="square" stroke-linejoin="round" stroke-width=".4767"/>
<path d="M-57.3881,313.9484C-56.6843,313.9602-55.9802,313.9586-55.2763,313.9581C-54.631,313.9572-53.9858,313.9554-53.3406,313.9525C-52.9094,313.9502-52.4782,313.9501-52.047,313.9495C-51.7073,313.9487-51.3675,313.9479-51.0277,313.9474C-50.7309,313.9691-50.4456,313.8899-50.1539,313.8518C-49.8613,313.8177-49.5662,313.8128-49.2718,313.8093C-48.9796,313.8072-48.6875,313.8081-48.3953,313.8085C-48.1035,313.8089-47.8117,313.809-47.5199,313.8091C-47.2282,313.8091-46.9364,313.8091-46.6446,313.8091C-46.3528,313.8091-46.061,313.8091-45.7692,313.8091C-45.4559,313.8085-45.1426,313.8102-44.8294,313.8103C-44.5121,313.81-44.1949,313.8096-43.8776,313.8093C-43.5838,313.8091-43.29,313.8091-42.9962,313.8091C-42.8018,313.8091-42.899,313.8091-42.7047,313.8091L-44.4556,315.0118C-44.6499,315.0118-44.5527,315.0118-44.7471,315.0118C-45.0407,315.0118-45.3343,315.0118-45.6279,315.0116C-45.9442,315.0113-46.2606,315.0109-46.577,315.0106C-46.8913,315.0107-47.2057,315.0124-47.5201,315.0118C-47.8119,315.0118-48.1037,315.0118-48.3955,315.0118C-48.6873,315.0118-48.9791,315.0118-49.2709,315.0117C-49.5627,315.0115-49.8545,315.0113-50.1463,315.011C-50.4376,315.0107-50.7289,315.0099-51.0202,315.0153C-51.3095,315.0227-51.5993,315.0348-51.8855,315.0788C-52.1815,315.1241-52.476,315.1695-52.7776,315.1494C-53.1153,315.1489-53.453,315.1481-53.7908,315.1473C-54.219,315.1467-54.6473,315.1466-55.0755,315.1442C-55.7153,315.1413-56.3552,315.1395-56.995,315.1387C-57.7084,315.1382-58.4219,315.1368-59.1352,315.1484L-57.3881,313.9484z" stroke="#000" stroke-linecap="square" stroke-linejoin="round" stroke-width=".4767"/>
<path d="M-97.681,314.1116C-97.1471,314.1792-96.6084,314.2005-96.0705,314.2165C-95.5904,314.228-95.1101,314.228-94.63,314.2268C-94.2335,314.2263-93.8371,314.2261-93.4407,314.2252C-92.6449,314.2456-91.8487,314.2356-91.0528,314.2319C-90.5718,314.2284-90.0909,314.2269-89.6099,314.225C-89.2264,314.225-88.8429,314.2245-88.4594,314.2256C-88.0562,314.2268-87.653,314.2246-87.2498,314.2253C-86.886,314.2244-86.5221,314.2245-86.1583,314.2246C-85.794,314.2251-85.4296,314.2248-85.0652,314.2241C-84.7171,314.2253-84.3691,314.2242-84.021,314.2236C-83.6805,314.2251-83.3399,314.2241-82.9994,314.2236C-82.6986,314.2232-82.3977,314.223-82.0969,314.223C-81.8453,314.2815-81.5923,314.3235-81.3342,314.3439C-81.0543,314.3611-80.7736,314.3611-80.4933,314.3619C-80.2016,314.3621-79.9099,314.3615-79.6182,314.3612C-79.4722,314.3611-79.3262,314.361-79.1802,314.361L-80.931,315.5637C-81.077,315.5638-81.223,315.5639-81.369,315.564C-81.661,315.5644-81.953,315.5651-82.245,315.5636C-82.5302,315.5612-82.816,315.5587-83.0999,315.5305C-83.3505,315.5012-83.5959,315.4409-83.8477,315.4256C-84.1479,315.4255-84.4481,315.4254-84.7483,315.4249C-85.0888,315.4245-85.4293,315.4235-85.7698,315.4249C-86.1175,315.4243-86.4651,315.4233-86.8128,315.4244C-87.1766,315.4237-87.5405,315.4234-87.9044,315.4239C-88.2676,315.4241-88.6307,315.4241-88.9939,315.4233C-89.3968,315.4239-89.7997,315.4217-90.2026,315.423C-90.5867,315.424-90.9708,315.4235-91.3549,315.4236C-91.8291,315.4216-92.3032,315.4202-92.7774,315.4166C-93.5801,315.4129-94.3831,315.4034-95.1857,315.424C-95.5815,315.4235-95.9772,315.4244-96.373,315.4236C-96.8515,315.4207-97.33,315.417-97.8082,315.401C-98.3559,315.3799-98.9029,315.3472-99.4483,315.2941L-97.681,314.1116z" stroke="#000" stroke-linecap="square" stroke-linejoin="round" stroke-width=".4767"/>
<path d="M-136.1855,276.2983L-136.1855,294.8415" fill="none" stroke="#000" stroke-linecap="round" stroke-width="4.8046"/>
<path d="M-126.6615,274.544L-126.6615,293.0872" fill="none" stroke="#000" stroke-linecap="round" stroke-width="4.8046"/>
<path d="M-117.7245,276.0083L-117.7245,294.5515" fill="none" stroke="#000" stroke-linecap="round" stroke-width="4.8046"/>
<path d="M-106.0478,274.841L-106.0478,293.3843" fill="none" stroke="#000" stroke-linecap="round" stroke-width="4.8046"/>
<path d="M-95.8892,277.0276L-95.8892,295.5709" fill="none" stroke="#000" stroke-linecap="round" stroke-width="4.8046"/>
<path d="M-84.2599,276.8522L-84.2599,295.3955" fill="none" stroke="#000" stroke-linecap="round" stroke-width="4.8046"/>
<path d="M-73.7574,275.1381L-73.7574,293.6813" fill="none" stroke="#000" stroke-linecap="round" stroke-width="4.8046"/>
<path d="M-63.8419,278.175L-63.8419,296.7182" fill="none" stroke="#000" stroke-linecap="round" stroke-width="4.8046"/>
<path d="M-53.169,277.8063L-53.169,296.3495" fill="none" stroke="#000" stroke-linecap="round" stroke-width="4.8046"/>
<path d="M-105.8017,352.8807L-78.6788,348.4525" fill="none" stroke="#000" stroke-width=".7749"/>
<path d="M-144.0697,281.0285L-144.0697,299.5717" fill="none" stroke="#000" stroke-linecap="round" stroke-width="4.8046"/>
</g>
<g transform="matrix(1,-.4337,0,1,290.39811,109.09245)">
<path d="M357.5,181.0714L336.4286,222.8571" fill="none" stroke="#000"/>
<path d="M357.6215,181.0342L378.693,222.8199" fill="none" stroke="#000"/>
<path d="m381.4286,150.8929c0,.6904-.7195,1.25-1.6071,1.25-.8876,0-1.6071,-.5596-1.6071,-1.25 0,-.6904 .7195,-1.25 1.6071,-1.25 .8876,0 1.6071,.5596 1.6071,1.25z" fill="#fff" stroke="#000" stroke-linecap="round" stroke-linejoin="round" stroke-width="3" transform="translate(-22.1429,30.7143)"/>
</g>
<path d="M616.064,191.9155L623.564,194.7342" fill="none" stroke="#000"/>
<path d="M615.7681,236.8473L622.911,228.2138" fill="none" stroke="#000"/>
<path d="M673.2016,172.5228L679.8087,163.7645" fill="none" stroke="#000"/>
<path d="M673.0537,205.74L678.9465,209.2557" fill="none" stroke="#000"/>
<path d="M148.5714,183.5714L135.7143,238.5714" fill="none" stroke="#000"/>
<path d="M167.1429,263.9286A6.4286,6.7857 0 1 1 154.2857,263.9286A6.4286,6.7857 0 1 1 167.1429,263.9286z" fill="#fff" stroke="#000" stroke-linecap="round" stroke-linejoin="round" stroke-width="3"/>
<path d="M190,247.1429A10.3571,10 0 1 1 169.2857,247.1429A10.3571,10 0 1 1 190,247.1429z" fill="#fff" stroke="#000" stroke-linecap="round" stroke-linejoin="round" stroke-width="3"/>
<path d="M268.5714,219.2857A41.7857,27.1429 0 1 1 185,219.2857A41.7857,27.1429 0 1 1 268.5714,219.2857z" fill="#fff" stroke="#000" stroke-linecap="round" stroke-linejoin="round" stroke-width="3"/>
<text font-family="Bitstream Vera Sans" font-size="16.764" x="225.3619" y="214.8056">
   <tspan text-align="center" text-anchor="middle" x="225.3619" y="214.8056">New</tspan>
   <tspan text-align="center" text-anchor="middle" x="225.3619" y="235.7601">Game</tspan>
  </text>
<path d="M326.2857,89.2857H485.5714V392.8572H326.2857z" fill="#fff" stroke="#000" stroke-linecap="round" stroke-linejoin="round" stroke-width="3"/>
<path d="M506.5097,89.3744H548.2046A20.9924,20.9924 0 0 1 569.197,110.3668V372.776A20.9924,20.9924 0 0 1 548.2046,393.7685H506.5097A20.9924,20.9924 0 0 1 485.5172,372.776V110.3668A20.9924,20.9924 0 0 1 506.5097,89.3744z" fill="#fff" stroke="#000" stroke-linecap="round" stroke-linejoin="round" stroke-width="2.1774"/>
<g transform="matrix(.2598,-2.9794916e-4,2.9794916e-4,.2598,411.45264,215.22674)">
<path d="M-43.5297,288.8057L-43.5297,336.6941C-43.5297,356.7011-59.6364,372.8078-79.6434,372.8078L-115.0774,372.8078C-135.0844,372.8078-151.1912,356.7011-151.1912,336.6941L-151.1912,288.8057" fill="#fff" stroke="#000" stroke-linecap="round" stroke-linejoin="round" stroke-width="3.6422"/>
<path d="M-122.1431,308.6171H-98.6091A.7803,.7803 0 0 1 -97.8288,309.3974V319.4235A.7803,.7803 0 0 1 -98.6091,320.2038H-122.1431A.7803,.7803 0 0 1 -122.9234,319.4235V309.3974A.7803,.7803 0 0 1 -122.1431,308.6171z" stroke="#000" stroke-linecap="square" stroke-linejoin="round" stroke-width="3.7338"/>
<path d="M-80.7522,308.6171H-60.3393A2.3409,2.3409 0 0 1 -57.9985,310.958V317.8629A2.3409,2.3409 0 0 1 -60.3393,320.2038H-80.7522A2.3409,2.3409 0 0 1 -83.093,317.8629V310.958A2.3409,2.3409 0 0 1 -80.7522,308.6171z" stroke="#000" stroke-linecap="square" stroke-linejoin="round" stroke-width="3.7338"/>
<path d="M-148.8829,313.6717C-148.3338,313.6822-147.7844,313.6785-147.2351,313.6758C-146.8722,313.6736-146.5092,313.6722-146.1462,313.6715C-145.8537,313.6711-145.5613,313.6711-145.2688,313.6711C-144.9647,313.6705-144.6607,313.6717-144.3567,313.6723C-143.966,313.6626-143.5814,313.6719-143.1947,313.723C-142.7951,313.7775-142.3916,313.7947-141.9885,313.8057C-141.5833,313.7899-141.1856,313.8646-140.7845,313.9048C-140.3766,313.9415-139.9665,313.9454-139.5571,313.9498C-139.1269,313.9521-138.6968,313.9519-138.2666,313.9504C-137.893,313.9497-137.5194,313.9491-137.1458,313.9482C-136.8388,313.9474-136.5318,313.9472-136.2247,313.9471C-135.9332,313.947-135.6418,313.947-135.3502,313.947C-135.0587,313.947-134.7672,313.947-134.4756,313.947C-134.1569,313.9467-133.8382,313.9476-133.5196,313.949C-133.1253,313.9514-132.731,313.9494-132.3367,313.9484C-131.9659,313.9481-131.595,313.9488-131.2241,313.9499C-130.8274,313.9497-130.4307,313.9498-130.0339,313.9488C-129.654,313.949-129.274,313.9495-128.894,313.949C-128.5484,313.9477-128.2029,313.9475-127.8573,313.9492C-127.3241,313.9518-126.7909,313.9534-126.2577,313.9553C-125.5311,313.9581-124.8045,313.9587-124.0778,313.9563C-123.5446,313.9549-123.0113,313.9511-122.4781,313.9509C-122.0368,313.9515-121.5955,313.9508-121.1542,313.9493C-121.0931,313.9491-121.032,313.949-120.9709,313.9488L-122.7169,315.1481C-122.7774,315.1478-122.8379,315.1476-122.8984,315.1474C-123.3383,315.1459-123.7781,315.1453-124.218,315.1459C-124.7459,315.1457-125.2739,315.1418-125.8018,315.1405C-126.5294,315.1381-127.2571,315.1387-127.9846,315.1415C-128.5238,315.1434-129.0628,315.145-129.6019,315.1476C-129.9477,315.1493-130.2936,315.1491-130.6394,315.1478C-131.0195,315.1473-131.3996,315.1478-131.7797,315.148C-132.1754,315.147-132.5711,315.1471-132.9668,315.1469C-133.3391,315.1479-133.7115,315.1487-134.0838,315.1484C-134.4775,315.1474-134.8712,315.1454-135.2648,315.1478C-135.5854,315.1492-135.9059,315.1501-136.2265,315.1497C-136.5181,315.1497-136.8096,315.1497-137.1012,315.1497C-137.3926,315.1497-137.684,315.1497-137.9755,315.1497C-138.2815,315.1495-138.5875,315.1493-138.8935,315.1487C-139.2655,315.148-139.6375,315.1479-140.0095,315.1478C-140.4397,315.147-140.8698,315.1485-141.3,315.1437C-141.7147,315.1381-142.1302,315.1292-142.5427,315.0843C-142.9395,315.0397-143.3348,314.9871-143.7358,314.9973C-144.1436,314.9822-144.5506,314.9538-144.955,314.9006C-145.3371,314.8601-145.7204,314.8714-146.1043,314.8727C-146.4095,314.8733-146.7146,314.8745-147.0198,314.8739C-147.3119,314.8739-147.604,314.8739-147.8961,314.8735C-148.255,314.8728-148.6138,314.8714-148.9726,314.8693C-149.5259,314.8665-150.0792,314.863-150.6323,314.8733L-148.8829,313.6717z" stroke="#000" stroke-linecap="square" stroke-linejoin="round" stroke-width=".4767"/>
<path d="M-57.3881,313.9484C-56.6843,313.9602-55.9802,313.9586-55.2763,313.9581C-54.631,313.9572-53.9858,313.9554-53.3406,313.9525C-52.9094,313.9502-52.4782,313.9501-52.047,313.9495C-51.7073,313.9487-51.3675,313.9479-51.0277,313.9474C-50.7309,313.9691-50.4456,313.8899-50.1539,313.8518C-49.8613,313.8177-49.5662,313.8128-49.2718,313.8093C-48.9796,313.8072-48.6875,313.8081-48.3953,313.8085C-48.1035,313.8089-47.8117,313.809-47.5199,313.8091C-47.2282,313.8091-46.9364,313.8091-46.6446,313.8091C-46.3528,313.8091-46.061,313.8091-45.7692,313.8091C-45.4559,313.8085-45.1426,313.8102-44.8294,313.8103C-44.5121,313.81-44.1949,313.8096-43.8776,313.8093C-43.5838,313.8091-43.29,313.8091-42.9962,313.8091C-42.8018,313.8091-42.899,313.8091-42.7047,313.8091L-44.4556,315.0118C-44.6499,315.0118-44.5527,315.0118-44.7471,315.0118C-45.0407,315.0118-45.3343,315.0118-45.6279,315.0116C-45.9442,315.0113-46.2606,315.0109-46.577,315.0106C-46.8913,315.0107-47.2057,315.0124-47.5201,315.0118C-47.8119,315.0118-48.1037,315.0118-48.3955,315.0118C-48.6873,315.0118-48.9791,315.0118-49.2709,315.0117C-49.5627,315.0115-49.8545,315.0113-50.1463,315.011C-50.4376,315.0107-50.7289,315.0099-51.0202,315.0153C-51.3095,315.0227-51.5993,315.0348-51.8855,315.0788C-52.1815,315.1241-52.476,315.1695-52.7776,315.1494C-53.1153,315.1489-53.453,315.1481-53.7908,315.1473C-54.219,315.1467-54.6473,315.1466-55.0755,315.1442C-55.7153,315.1413-56.3552,315.1395-56.995,315.1387C-57.7084,315.1382-58.4219,315.1368-59.1352,315.1484L-57.3881,313.9484z" stroke="#000" stroke-linecap="square" stroke-linejoin="round" stroke-width=".4767"/>
<path d="M-97.681,314.1116C-97.1471,314.1792-96.6084,314.2005-96.0705,314.2165C-95.5904,314.228-95.1101,314.228-94.63,314.2268C-94.2335,314.2263-93.8371,314.2261-93.4407,314.2252C-92.6449,314.2456-91.8487,314.2356-91.0528,314.2319C-90.5718,314.2284-90.0909,314.2269-89.6099,314.225C-89.2264,314.225-88.8429,314.2245-88.4594,314.2256C-88.0562,314.2268-87.653,314.2246-87.2498,314.2253C-86.886,314.2244-86.5221,314.2245-86.1583,314.2246C-85.794,314.2251-85.4296,314.2248-85.0652,314.2241C-84.7171,314.2253-84.3691,314.2242-84.021,314.2236C-83.6805,314.2251-83.3399,314.2241-82.9994,314.2236C-82.6986,314.2232-82.3977,314.223-82.0969,314.223C-81.8453,314.2815-81.5923,314.3235-81.3342,314.3439C-81.0543,314.3611-80.7736,314.3611-80.4933,314.3619C-80.2016,314.3621-79.9099,314.3615-79.6182,314.3612C-79.4722,314.3611-79.3262,314.361-79.1802,314.361L-80.931,315.5637C-81.077,315.5638-81.223,315.5639-81.369,315.564C-81.661,315.5644-81.953,315.5651-82.245,315.5636C-82.5302,315.5612-82.816,315.5587-83.0999,315.5305C-83.3505,315.5012-83.5959,315.4409-83.8477,315.4256C-84.1479,315.4255-84.4481,315.4254-84.7483,315.4249C-85.0888,315.4245-85.4293,315.4235-85.7698,315.4249C-86.1175,315.4243-86.4651,315.4233-86.8128,315.4244C-87.1766,315.4237-87.5405,315.4234-87.9044,315.4239C-88.2676,315.4241-88.6307,315.4241-88.9939,315.4233C-89.3968,315.4239-89.7997,315.4217-90.2026,315.423C-90.5867,315.424-90.9708,315.4235-91.3549,315.4236C-91.8291,315.4216-92.3032,315.4202-92.7774,315.4166C-93.5801,315.4129-94.3831,315.4034-95.1857,315.424C-95.5815,315.4235-95.9772,315.4244-96.373,315.4236C-96.8515,315.4207-97.33,315.417-97.8082,315.401C-98.3559,315.3799-98.9029,315.3472-99.4483,315.2941L-97.681,314.1116z" stroke="#000" stroke-linecap="square" stroke-linejoin="round" stroke-width=".4767"/>
<path d="M-136.1855,276.2983L-136.1855,294.8415" fill="none" stroke="#000" stroke-linecap="round" stroke-width="4.8046"/>
<path d="M-126.6615,274.544L-126.6615,293.0872" fill="none" stroke="#000" stroke-linecap="round" stroke-width="4.8046"/>
<path d="M-117.7245,276.0083L-117.7245,294.5515" fill="none" stroke="#000" stroke-linecap="round" stroke-width="4.8046"/>
<path d="M-106.0478,274.841L-106.0478,293.3843" fill="none" stroke="#000" stroke-linecap="round" stroke-width="4.8046"/>
<path d="M-95.8892,277.0276L-95.8892,295.5709" fill="none" stroke="#000" stroke-linecap="round" stroke-width="4.8046"/>
<path d="M-84.2599,276.8522L-84.2599,295.3955" fill="none" stroke="#000" stroke-linecap="round" stroke-width="4.8046"/>
<path d="M-73.7574,275.1381L-73.7574,293.6813" fill="none" stroke="#000" stroke-linecap="round" stroke-width="4.8046"/>
<path d="M-63.8419,278.175L-63.8419,296.7182" fill="none" stroke="#000" stroke-linecap="round" stroke-width="4.8046"/>
<path d="M-53.169,277.8063L-53.169,296.3495" fill="none" stroke="#000" stroke-linecap="round" stroke-width="4.8046"/>
<path d="M-105.8017,352.8807L-78.6788,348.4525" fill="none" stroke="#000" stroke-width=".7749"/>
<path d="M-144.0697,281.0285L-144.0697,299.5717" fill="none" stroke="#000" stroke-linecap="round" stroke-width="4.8046"/>
</g>
<text font-family="Bitstream Vera Sans" font-size="11.182" x="389.7941" y="265">
   <tspan x="389.7941" y="265">Hmm...</tspan>
  </text>
<path d="M406.7857,269.2857L396.7857,280" fill="none" stroke="#000"/>
<g transform="translate(29.473,126.1211)">
<path d="M356.5839,188.8756H375.7768V207.5634H356.5839z" fill="#fff" stroke="#000" stroke-linecap="round" stroke-linejoin="round" stroke-width="3"/>
<path d="M356.5839,207.8362H375.7768V226.5241H356.5839z" fill="#fff" stroke="#000" stroke-linecap="round" stroke-linejoin="round" stroke-width="3"/>
<g transform="translate(-1.3078506e-5,37.7443)">
<path d="M356.5839,188.8756H375.7768V207.5634H356.5839z" fill="#fff" stroke="#000" stroke-linecap="round" stroke-linejoin="round" stroke-width="3"/>
<path d="M356.5839,207.8362H375.7768V226.5241H356.5839z" fill="#fff" stroke="#000" stroke-linecap="round" stroke-linejoin="round" stroke-width="3"/>
</g>
</g>
<g transform="translate(68.5424,125.4796)">
<path d="M356.5839,188.8756H375.7768V207.5634H356.5839z" fill="#fff" stroke="#000" stroke-linecap="round" stroke-linejoin="round" stroke-width="3"/>
<path d="M356.5839,207.8362H375.7768V226.5241H356.5839z" fill="#fff" stroke="#000" stroke-linecap="round" stroke-linejoin="round" stroke-width="3"/>
</g>
<g transform="translate(87.7353,144.42)">
<path d="M356.5839,188.8756H375.7768V207.5634H356.5839z" fill="#fff" stroke="#000" stroke-linecap="round" stroke-linejoin="round" stroke-width="3"/>
<path d="M356.5839,207.8362H375.7768V226.5241H356.5839z" fill="#fff" stroke="#000" stroke-linecap="round" stroke-linejoin="round" stroke-width="3"/>
</g>
<g transform="translate(-27.5267,164.0134)">
<path d="M356.5839,188.8756H375.7768V207.5634H356.5839z" fill="#fff" stroke="#000" stroke-linecap="round" stroke-linejoin="round" stroke-width="3"/>
<path d="M356.5839,207.8362H375.7768V226.5241H356.5839z" fill="#fff" stroke="#000" stroke-linecap="round" stroke-linejoin="round" stroke-width="3"/>
</g>
<g transform="matrix(0,1,-1,0,574.89026,14.87678)">
<path d="M356.5839,188.8756H375.7768V207.5634H356.5839z" fill="#fff" stroke="#000" stroke-linecap="round" stroke-linejoin="round" stroke-width="3"/>
<path d="M356.5839,207.8362H375.7768V226.5241H356.5839z" fill="#fff" stroke="#000" stroke-linecap="round" stroke-linejoin="round" stroke-width="3"/>
</g>
<g transform="translate(68.7484,163.9553)">
<path d="M356.5839,188.8756H375.7768V207.5634H356.5839z" fill="#fff" stroke="#000" stroke-linecap="round" stroke-linejoin="round" stroke-width="3"/>
<path d="M356.5839,207.8362H375.7768V226.5241H356.5839z" fill="#fff" stroke="#000" stroke-linecap="round" stroke-linejoin="round" stroke-width="3"/>
</g>
<g transform="matrix(0,1,-1,0,671.16535,14.81872)">
<path d="M356.5839,188.8756H375.7768V207.5634H356.5839z" fill="#fff" stroke="#000" stroke-linecap="round" stroke-linejoin="round" stroke-width="3"/>
<path d="M356.5839,207.8362H375.7768V226.5241H356.5839z" fill="#fff" stroke="#000" stroke-linecap="round" stroke-linejoin="round" stroke-width="3"/>
</g>
<g transform="matrix(0,-1,1,0,159.61115,728.52216)">
<path d="M356.5839,188.8756H375.7768V207.5634H356.5839z" fill="#fff" stroke="#000" stroke-linecap="round" stroke-linejoin="round" stroke-width="3"/>
<path d="M356.5839,207.8362H375.7768V226.5241H356.5839z" fill="#fff" stroke="#000" stroke-linecap="round" stroke-linejoin="round" stroke-width="3"/>
</g>
<g transform="translate(10.4746,126.1052)">
<path d="M356.5839,188.8756H375.7768V207.5634H356.5839z" fill="#fff" stroke="#000" stroke-linecap="round" stroke-linejoin="round" stroke-width="3"/>
<path d="M356.5839,207.8362H375.7768V226.5241H356.5839z" fill="#fff" stroke="#000" stroke-linecap="round" stroke-linejoin="round" stroke-width="3"/>
</g>
<g transform="translate(106.6768,106.6423)">
<path d="M356.5839,188.8756H375.7768V207.5634H356.5839z" fill="#fff" stroke="#000" stroke-linecap="round" stroke-linejoin="round" stroke-width="3"/>
<path d="M356.5839,207.8362H375.7768V226.5241H356.5839z" fill="#fff" stroke="#000" stroke-linecap="round" stroke-linejoin="round" stroke-width="3"/>
<g transform="translate(-1.3078506e-5,37.7443)">
<path d="M356.5839,188.8756H375.7768V207.5634H356.5839z" fill="#fff" stroke="#000" stroke-linecap="round" stroke-linejoin="round" stroke-width="3"/>
<path d="M356.5839,207.8362H375.7768V226.5241H356.5839z" fill="#fff" stroke="#000" stroke-linecap="round" stroke-linejoin="round" stroke-width="3"/>
</g>
</g>
<g transform="translate(9.2231,-32.4007)">
<path d="M356.5839,188.8756H375.7768V207.5634H356.5839z" fill="#fff" stroke="#000" stroke-linecap="round" stroke-linejoin="round" stroke-width="3"/>
<path d="M356.5839,207.8362H375.7768V226.5241H356.5839z" fill="#fff" stroke="#000" stroke-linecap="round" stroke-linejoin="round" stroke-width="3"/>
</g>
<g transform="matrix(0,1,-1,0,611.64003,-181.53731)">
<path d="M356.5839,188.8756H375.7768V207.5634H356.5839z" fill="#fff" stroke="#000" stroke-linecap="round" stroke-linejoin="round" stroke-width="3"/>
<path d="M356.5839,207.8362H375.7768V226.5241H356.5839z" fill="#fff" stroke="#000" stroke-linecap="round" stroke-linejoin="round" stroke-width="3"/>
</g>
<path d="M380,124.6429L378.2143,142.8571" fill="none" stroke="#000"/>
<path d="M394.6429,127.8571L394.6429,146.0714" fill="none" stroke="#000"/>
<path d="M411.4286,131.4286L412.1429,149.6429" fill="none" stroke="#000"/>
<text font-family="Bitstream Vera Sans" font-size="20" x="492.5714" y="213.8612">
   <tspan x="492.5714" y="213.8612">SCORE</tspan>
  </text>
<path d="M504.1429,219.5754L548.4286,219.5754" fill="none" stroke="#000"/>
<text font-family="Bitstream Vera Sans" font-size="14.334" x="495.3735" y="236.7985">
   <tspan x="495.3735" y="236.7985">0421337</tspan>
  </text>
<path d="M505.7143,244.5754L547.8572,244.5754" fill="none" stroke="#000"/>
<text font-family="Bitstream Vera Sans" font-size="20" x="499.8571" y="271.004">
   <tspan x="499.8571" y="271.004">Level</tspan>
  </text>
<text font-family="Bitstream Vera Sans" font-size="19.056" x="514.3517" y="304.5888">
   <tspan x="514.3517" y="304.5888">69</tspan>
  </text>
<path d="M506.6429,278.2897L548.7857,278.2897" fill="none" stroke="#000"/>
<text font-family="Bitstream Vera Sans" font-size="20" x="500.0661" y="119.1344">
   <tspan x="500.0661" y="119.1344">NEXT</tspan>
  </text>
<path d="M496.9951,128.2461H557.0991V175.7233H496.9951z" fill="#fff" stroke="#000" stroke-linecap="round" stroke-linejoin="round" stroke-width="3"/>
<g transform="matrix(.2598,-2.9794916e-4,2.9794916e-4,.2598,550.98514,69.46975)">
<path d="M-43.5297,288.8057L-43.5297,336.6941C-43.5297,356.7011-59.6364,372.8078-79.6434,372.8078L-115.0774,372.8078C-135.0844,372.8078-151.1912,356.7011-151.1912,336.6941L-151.1912,288.8057" fill="#fff" stroke="#000" stroke-linecap="round" stroke-linejoin="round" stroke-width="3.6422"/>
<path d="M-122.1431,308.6171H-98.6091A.7803,.7803 0 0 1 -97.8288,309.3974V319.4235A.7803,.7803 0 0 1 -98.6091,320.2038H-122.1431A.7803,.7803 0 0 1 -122.9234,319.4235V309.3974A.7803,.7803 0 0 1 -122.1431,308.6171z" stroke="#000" stroke-linecap="square" stroke-linejoin="round" stroke-width="3.7338"/>
<path d="M-80.7522,308.6171H-60.3393A2.3409,2.3409 0 0 1 -57.9985,310.958V317.8629A2.3409,2.3409 0 0 1 -60.3393,320.2038H-80.7522A2.3409,2.3409 0 0 1 -83.093,317.8629V310.958A2.3409,2.3409 0 0 1 -80.7522,308.6171z" stroke="#000" stroke-linecap="square" stroke-linejoin="round" stroke-width="3.7338"/>
<path d="M-148.8829,313.6717C-148.3338,313.6822-147.7844,313.6785-147.2351,313.6758C-146.8722,313.6736-146.5092,313.6722-146.1462,313.6715C-145.8537,313.6711-145.5613,313.6711-145.2688,313.6711C-144.9647,313.6705-144.6607,313.6717-144.3567,313.6723C-143.966,313.6626-143.5814,313.6719-143.1947,313.723C-142.7951,313.7775-142.3916,313.7947-141.9885,313.8057C-141.5833,313.7899-141.1856,313.8646-140.7845,313.9048C-140.3766,313.9415-139.9665,313.9454-139.5571,313.9498C-139.1269,313.9521-138.6968,313.9519-138.2666,313.9504C-137.893,313.9497-137.5194,313.9491-137.1458,313.9482C-136.8388,313.9474-136.5318,313.9472-136.2247,313.9471C-135.9332,313.947-135.6418,313.947-135.3502,313.947C-135.0587,313.947-134.7672,313.947-134.4756,313.947C-134.1569,313.9467-133.8382,313.9476-133.5196,313.949C-133.1253,313.9514-132.731,313.9494-132.3367,313.9484C-131.9659,313.9481-131.595,313.9488-131.2241,313.9499C-130.8274,313.9497-130.4307,313.9498-130.0339,313.9488C-129.654,313.949-129.274,313.9495-128.894,313.949C-128.5484,313.9477-128.2029,313.9475-127.8573,313.9492C-127.3241,313.9518-126.7909,313.9534-126.2577,313.9553C-125.5311,313.9581-124.8045,313.9587-124.0778,313.9563C-123.5446,313.9549-123.0113,313.9511-122.4781,313.9509C-122.0368,313.9515-121.5955,313.9508-121.1542,313.9493C-121.0931,313.9491-121.032,313.949-120.9709,313.9488L-122.7169,315.1481C-122.7774,315.1478-122.8379,315.1476-122.8984,315.1474C-123.3383,315.1459-123.7781,315.1453-124.218,315.1459C-124.7459,315.1457-125.2739,315.1418-125.8018,315.1405C-126.5294,315.1381-127.2571,315.1387-127.9846,315.1415C-128.5238,315.1434-129.0628,315.145-129.6019,315.1476C-129.9477,315.1493-130.2936,315.1491-130.6394,315.1478C-131.0195,315.1473-131.3996,315.1478-131.7797,315.148C-132.1754,315.147-132.5711,315.1471-132.9668,315.1469C-133.3391,315.1479-133.7115,315.1487-134.0838,315.1484C-134.4775,315.1474-134.8712,315.1454-135.2648,315.1478C-135.5854,315.1492-135.9059,315.1501-136.2265,315.1497C-136.5181,315.1497-136.8096,315.1497-137.1012,315.1497C-137.3926,315.1497-137.684,315.1497-137.9755,315.1497C-138.2815,315.1495-138.5875,315.1493-138.8935,315.1487C-139.2655,315.148-139.6375,315.1479-140.0095,315.1478C-140.4397,315.147-140.8698,315.1485-141.3,315.1437C-141.7147,315.1381-142.1302,315.1292-142.5427,315.0843C-142.9395,315.0397-143.3348,314.9871-143.7358,314.9973C-144.1436,314.9822-144.5506,314.9538-144.955,314.9006C-145.3371,314.8601-145.7204,314.8714-146.1043,314.8727C-146.4095,314.8733-146.7146,314.8745-147.0198,314.8739C-147.3119,314.8739-147.604,314.8739-147.8961,314.8735C-148.255,314.8728-148.6138,314.8714-148.9726,314.8693C-149.5259,314.8665-150.0792,314.863-150.6323,314.8733L-148.8829,313.6717z" stroke="#000" stroke-linecap="square" stroke-linejoin="round" stroke-width=".4767"/>
<path d="M-57.3881,313.9484C-56.6843,313.9602-55.9802,313.9586-55.2763,313.9581C-54.631,313.9572-53.9858,313.9554-53.3406,313.9525C-52.9094,313.9502-52.4782,313.9501-52.047,313.9495C-51.7073,313.9487-51.3675,313.9479-51.0277,313.9474C-50.7309,313.9691-50.4456,313.8899-50.1539,313.8518C-49.8613,313.8177-49.5662,313.8128-49.2718,313.8093C-48.9796,313.8072-48.6875,313.8081-48.3953,313.8085C-48.1035,313.8089-47.8117,313.809-47.5199,313.8091C-47.2282,313.8091-46.9364,313.8091-46.6446,313.8091C-46.3528,313.8091-46.061,313.8091-45.7692,313.8091C-45.4559,313.8085-45.1426,313.8102-44.8294,313.8103C-44.5121,313.81-44.1949,313.8096-43.8776,313.8093C-43.5838,313.8091-43.29,313.8091-42.9962,313.8091C-42.8018,313.8091-42.899,313.8091-42.7047,313.8091L-44.4556,315.0118C-44.6499,315.0118-44.5527,315.0118-44.7471,315.0118C-45.0407,315.0118-45.3343,315.0118-45.6279,315.0116C-45.9442,315.0113-46.2606,315.0109-46.577,315.0106C-46.8913,315.0107-47.2057,315.0124-47.5201,315.0118C-47.8119,315.0118-48.1037,315.0118-48.3955,315.0118C-48.6873,315.0118-48.9791,315.0118-49.2709,315.0117C-49.5627,315.0115-49.8545,315.0113-50.1463,315.011C-50.4376,315.0107-50.7289,315.0099-51.0202,315.0153C-51.3095,315.0227-51.5993,315.0348-51.8855,315.0788C-52.1815,315.1241-52.476,315.1695-52.7776,315.1494C-53.1153,315.1489-53.453,315.1481-53.7908,315.1473C-54.219,315.1467-54.6473,315.1466-55.0755,315.1442C-55.7153,315.1413-56.3552,315.1395-56.995,315.1387C-57.7084,315.1382-58.4219,315.1368-59.1352,315.1484L-57.3881,313.9484z" stroke="#000" stroke-linecap="square" stroke-linejoin="round" stroke-width=".4767"/>
<path d="M-97.681,314.1116C-97.1471,314.1792-96.6084,314.2005-96.0705,314.2165C-95.5904,314.228-95.1101,314.228-94.63,314.2268C-94.2335,314.2263-93.8371,314.2261-93.4407,314.2252C-92.6449,314.2456-91.8487,314.2356-91.0528,314.2319C-90.5718,314.2284-90.0909,314.2269-89.6099,314.225C-89.2264,314.225-88.8429,314.2245-88.4594,314.2256C-88.0562,314.2268-87.653,314.2246-87.2498,314.2253C-86.886,314.2244-86.5221,314.2245-86.1583,314.2246C-85.794,314.2251-85.4296,314.2248-85.0652,314.2241C-84.7171,314.2253-84.3691,314.2242-84.021,314.2236C-83.6805,314.2251-83.3399,314.2241-82.9994,314.2236C-82.6986,314.2232-82.3977,314.223-82.0969,314.223C-81.8453,314.2815-81.5923,314.3235-81.3342,314.3439C-81.0543,314.3611-80.7736,314.3611-80.4933,314.3619C-80.2016,314.3621-79.9099,314.3615-79.6182,314.3612C-79.4722,314.3611-79.3262,314.361-79.1802,314.361L-80.931,315.5637C-81.077,315.5638-81.223,315.5639-81.369,315.564C-81.661,315.5644-81.953,315.5651-82.245,315.5636C-82.5302,315.5612-82.816,315.5587-83.0999,315.5305C-83.3505,315.5012-83.5959,315.4409-83.8477,315.4256C-84.1479,315.4255-84.4481,315.4254-84.7483,315.4249C-85.0888,315.4245-85.4293,315.4235-85.7698,315.4249C-86.1175,315.4243-86.4651,315.4233-86.8128,315.4244C-87.1766,315.4237-87.5405,315.4234-87.9044,315.4239C-88.2676,315.4241-88.6307,315.4241-88.9939,315.4233C-89.3968,315.4239-89.7997,315.4217-90.2026,315.423C-90.5867,315.424-90.9708,315.4235-91.3549,315.4236C-91.8291,315.4216-92.3032,315.4202-92.7774,315.4166C-93.5801,315.4129-94.3831,315.4034-95.1857,315.424C-95.5815,315.4235-95.9772,315.4244-96.373,315.4236C-96.8515,315.4207-97.33,315.417-97.8082,315.401C-98.3559,315.3799-98.9029,315.3472-99.4483,315.2941L-97.681,314.1116z" stroke="#000" stroke-linecap="square" stroke-linejoin="round" stroke-width=".4767"/>
<path d="M-136.1855,276.2983L-136.1855,294.8415" fill="none" stroke="#000" stroke-linecap="round" stroke-width="4.8046"/>
<path d="M-126.6615,274.544L-126.6615,293.0872" fill="none" stroke="#000" stroke-linecap="round" stroke-width="4.8046"/>
<path d="M-117.7245,276.0083L-117.7245,294.5515" fill="none" stroke="#000" stroke-linecap="round" stroke-width="4.8046"/>
<path d="M-106.0478,274.841L-106.0478,293.3843" fill="none" stroke="#000" stroke-linecap="round" stroke-width="4.8046"/>
<path d="M-95.8892,277.0276L-95.8892,295.5709" fill="none" stroke="#000" stroke-linecap="round" stroke-width="4.8046"/>
<path d="M-84.2599,276.8522L-84.2599,295.3955" fill="none" stroke="#000" stroke-linecap="round" stroke-width="4.8046"/>
<path d="M-73.7574,275.1381L-73.7574,293.6813" fill="none" stroke="#000" stroke-linecap="round" stroke-width="4.8046"/>
<path d="M-63.8419,278.175L-63.8419,296.7182" fill="none" stroke="#000" stroke-linecap="round" stroke-width="4.8046"/>
<path d="M-53.169,277.8063L-53.169,296.3495" fill="none" stroke="#000" stroke-linecap="round" stroke-width="4.8046"/>
<path d="M-105.8017,352.8807L-78.6788,348.4525" fill="none" stroke="#000" stroke-width=".7749"/>
<path d="M-144.0697,281.0285L-144.0697,299.5717" fill="none" stroke="#000" stroke-linecap="round" stroke-width="4.8046"/>
</g>
</svg>
