<svg version="1.0" viewBox="0 0 900 450" xmlns="http://www.w3.org/2000/svg" xmlns:svg="http://www.w3.org/2000/svg">
<g transform="translate(-3.39999999998675e-06,-5.7143)">
<path d="M-350.9394,775.1336H-160.7304A7.5735,7.5735 0 0 1 -153.1569,782.7071V819.0601A7.5735,7.5735 0 0 1 -160.7304,826.6336H-350.9394A7.5735,7.5735 0 0 1 -358.5129,819.0601V782.7071A7.5735,7.5735 0 0 1 -350.9394,775.1336z" stroke="#000" stroke-linecap="round" stroke-linejoin="round" stroke-width="5.8088" transform="matrix(1,0,.87861,.47753,0,0)"/>
<path d="M52.0488,90.0536H833.0507A31.621,31.621 0 0 1 864.6717,121.6746V370.0234A31.621,31.621 0 0 1 833.0507,401.6444H52.0488A31.621,31.621 0 0 1 20.4277,370.0234V121.6746A31.621,31.621 0 0 1 52.0488,90.0536z" fill="#fff" stroke="#000" stroke-linecap="round" stroke-width="7.4907"/>
<path d="m446.8915,78.4154c0,2.9289-27.5427,5.3033-61.5183,5.3033-33.9756,0-61.5183,-2.3744-61.5183,-5.3033 0,-2.9289 27.5427,-5.3033 61.5183,-5.3033 33.9756,0 61.5183,2.3744 61.5183,5.3033z" stroke="#000" stroke-linecap="round" stroke-width="4.862" transform="matrix(-1,0,0,1,543.96248,303.55131)"/>
<g transform="matrix(-1,0,0,1,61.30145,6.27357)">
<path d="M-43.5297,288.8057L-43.5297,336.6941C-43.5297,356.7011-59.6364,372.8078-79.6434,372.8078L-115.0774,372.8078C-135.0844,372.8078-151.1912,356.7011-151.1912,336.6941L-151.1912,288.8057" fill="#fff" stroke="#000" stroke-linecap="round" stroke-linejoin="round" stroke-width="3.6422"/>
<path d="M-122.1431,308.6171H-98.6091A.7803,.7803 0 0 1 -97.8288,309.3974V319.4235A.7803,.7803 0 0 1 -98.6091,320.2038H-122.1431A.7803,.7803 0 0 1 -122.9234,319.4235V309.3974A.7803,.7803 0 0 1 -122.1431,308.6171z" stroke="#000" stroke-linecap="square" stroke-linejoin="round" stroke-width="3.7338"/>
<path d="M-80.7522,308.6171H-60.3393A2.3409,2.3409 0 0 1 -57.9985,310.958V317.8629A2.3409,2.3409 0 0 1 -60.3393,320.2038H-80.7522A2.3409,2.3409 0 0 1 -83.093,317.8629V310.958A2.3409,2.3409 0 0 1 -80.7522,308.6171z" stroke="#000" stroke-linecap="square" stroke-linejoin="round" stroke-width="3.7338"/>
<path d="M-148.8829,313.6717C-148.3338,313.6822-147.7844,313.6785-147.2351,313.6758C-146.8722,313.6736-146.5092,313.6722-146.1462,313.6715C-145.8537,313.6711-145.5613,313.6711-145.2688,313.6711C-144.9647,313.6705-144.6607,313.6717-144.3567,313.6723C-143.966,313.6626-143.5814,313.6719-143.1947,313.723C-142.7951,313.7775-142.3916,313.7947-141.9885,313.8057C-141.5833,313.7899-141.1856,313.8646-140.7845,313.9048C-140.3766,313.9415-139.9665,313.9454-139.5571,313.9498C-139.1269,313.9521-138.6968,313.9519-138.2666,313.9504C-137.893,313.9497-137.5194,313.9491-137.1458,313.9482C-136.8388,313.9474-136.5318,313.9472-136.2247,313.9471C-135.9332,313.947-135.6418,313.947-135.3502,313.947C-135.0587,313.947-134.7672,313.947-134.4756,313.947C-134.1569,313.9467-133.8382,313.9476-133.5196,313.949C-133.1253,313.9514-132.731,313.9494-132.3367,313.9484C-131.9659,313.9481-131.595,313.9488-131.2241,313.9499C-130.8274,313.9497-130.4307,313.9498-130.0339,313.9488C-129.654,313.949-129.274,313.9495-128.894,313.949C-128.5484,313.9477-128.2029,313.9475-127.8573,313.9492C-127.3241,313.9518-126.7909,313.9534-126.2577,313.9553C-125.5311,313.9581-124.8045,313.9587-124.0778,313.9563C-123.5446,313.9549-123.0113,313.9511-122.4781,313.9509C-122.0368,313.9515-121.5955,313.9508-121.1542,313.9493C-121.0931,313.9491-121.032,313.949-120.9709,313.9488L-122.7169,315.1481C-122.7774,315.1478-122.8379,315.1476-122.8984,315.1474C-123.3383,315.1459-123.7781,315.1453-124.218,315.1459C-124.7459,315.1457-125.2739,315.1418-125.8018,315.1405C-126.5294,315.1381-127.2571,315.1387-127.9846,315.1415C-128.5238,315.1434-129.0628,315.145-129.6019,315.1476C-129.9477,315.1493-130.2936,315.1491-130.6394,315.1478C-131.0195,315.1473-131.3996,315.1478-131.7797,315.148C-132.1754,315.147-132.5711,315.1471-132.9668,315.1469C-133.3391,315.1479-133.7115,315.1487-134.0838,315.1484C-134.4775,315.1474-134.8712,315.1454-135.2648,315.1478C-135.5854,315.1492-135.9059,315.1501-136.2265,315.1497C-136.5181,315.1497-136.8096,315.1497-137.1012,315.1497C-137.3926,315.1497-137.684,315.1497-137.9755,315.1497C-138.2815,315.1495-138.5875,315.1493-138.8935,315.1487C-139.2655,315.148-139.6375,315.1479-140.0095,315.1478C-140.4397,315.147-140.8698,315.1485-141.3,315.1437C-141.7147,315.1381-142.1302,315.1292-142.5427,315.0843C-142.9395,315.0397-143.3348,314.9871-143.7358,314.9973C-144.1436,314.9822-144.5506,314.9538-144.955,314.9006C-145.3371,314.8601-145.7204,314.8714-146.1043,314.8727C-146.4095,314.8733-146.7146,314.8745-147.0198,314.8739C-147.3119,314.8739-147.604,314.8739-147.8961,314.8735C-148.255,314.8728-148.6138,314.8714-148.9726,314.8693C-149.5259,314.8665-150.0792,314.863-150.6323,314.8733L-148.8829,313.6717z" stroke="#000" stroke-linecap="square" stroke-linejoin="round" stroke-width=".4767"/>
<path d="M-57.3881,313.9484C-56.6843,313.9602-55.9802,313.9586-55.2763,313.9581C-54.631,313.9572-53.9858,313.9554-53.3406,313.9525C-52.9094,313.9502-52.4782,313.9501-52.047,313.9495C-51.7073,313.9487-51.3675,313.9479-51.0277,313.9474C-50.7309,313.9691-50.4456,313.8899-50.1539,313.8518C-49.8613,313.8177-49.5662,313.8128-49.2718,313.8093C-48.9796,313.8072-48.6875,313.8081-48.3953,313.8085C-48.1035,313.8089-47.8117,313.809-47.5199,313.8091C-47.2282,313.8091-46.9364,313.8091-46.6446,313.8091C-46.3528,313.8091-46.061,313.8091-45.7692,313.8091C-45.4559,313.8085-45.1426,313.8102-44.8294,313.8103C-44.5121,313.81-44.1949,313.8096-43.8776,313.8093C-43.5838,313.8091-43.29,313.8091-42.9962,313.8091C-42.8018,313.8091-42.899,313.8091-42.7047,313.8091L-44.4556,315.0118C-44.6499,315.0118-44.5527,315.0118-44.7471,315.0118C-45.0407,315.0118-45.3343,315.0118-45.6279,315.0116C-45.9442,315.0113-46.2606,315.0109-46.577,315.0106C-46.8913,315.0107-47.2057,315.0124-47.5201,315.0118C-47.8119,315.0118-48.1037,315.0118-48.3955,315.0118C-48.6873,315.0118-48.9791,315.0118-49.2709,315.0117C-49.5627,315.0115-49.8545,315.0113-50.1463,315.011C-50.4376,315.0107-50.7289,315.0099-51.0202,315.0153C-51.3095,315.0227-51.5993,315.0348-51.8855,315.0788C-52.1815,315.1241-52.476,315.1695-52.7776,315.1494C-53.1153,315.1489-53.453,315.1481-53.7908,315.1473C-54.219,315.1467-54.6473,315.1466-55.0755,315.1442C-55.7153,315.1413-56.3552,315.1395-56.995,315.1387C-57.7084,315.1382-58.4219,315.1368-59.1352,315.1484L-57.3881,313.9484z" stroke="#000" stroke-linecap="square" stroke-linejoin="round" stroke-width=".4767"/>
<path d="M-97.681,314.1116C-97.1471,314.1792-96.6084,314.2005-96.0705,314.2165C-95.5904,314.228-95.1101,314.228-94.63,314.2268C-94.2335,314.2263-93.8371,314.2261-93.4407,314.2252C-92.6449,314.2456-91.8487,314.2356-91.0528,314.2319C-90.5718,314.2284-90.0909,314.2269-89.6099,314.225C-89.2264,314.225-88.8429,314.2245-88.4594,314.2256C-88.0562,314.2268-87.653,314.2246-87.2498,314.2253C-86.886,314.2244-86.5221,314.2245-86.1583,314.2246C-85.794,314.2251-85.4296,314.2248-85.0652,314.2241C-84.7171,314.2253-84.3691,314.2242-84.021,314.2236C-83.6805,314.2251-83.3399,314.2241-82.9994,314.2236C-82.6986,314.2232-82.3977,314.223-82.0969,314.223C-81.8453,314.2815-81.5923,314.3235-81.3342,314.3439C-81.0543,314.3611-80.7736,314.3611-80.4933,314.3619C-80.2016,314.3621-79.9099,314.3615-79.6182,314.3612C-79.4722,314.3611-79.3262,314.361-79.1802,314.361L-80.931,315.5637C-81.077,315.5638-81.223,315.5639-81.369,315.564C-81.661,315.5644-81.953,315.5651-82.245,315.5636C-82.5302,315.5612-82.816,315.5587-83.0999,315.5305C-83.3505,315.5012-83.5959,315.4409-83.8477,315.4256C-84.1479,315.4255-84.4481,315.4254-84.7483,315.4249C-85.0888,315.4245-85.4293,315.4235-85.7698,315.4249C-86.1175,315.4243-86.4651,315.4233-86.8128,315.4244C-87.1766,315.4237-87.5405,315.4234-87.9044,315.4239C-88.2676,315.4241-88.6307,315.4241-88.9939,315.4233C-89.3968,315.4239-89.7997,315.4217-90.2026,315.423C-90.5867,315.424-90.9708,315.4235-91.3549,315.4236C-91.8291,315.4216-92.3032,315.4202-92.7774,315.4166C-93.5801,315.4129-94.3831,315.4034-95.1857,315.424C-95.5815,315.4235-95.9772,315.4244-96.373,315.4236C-96.8515,315.4207-97.33,315.417-97.8082,315.401C-98.3559,315.3799-98.9029,315.3472-99.4483,315.2941L-97.681,314.1116z" stroke="#000" stroke-linecap="square" stroke-linejoin="round" stroke-width=".4767"/>
<path d="M-136.1855,276.2983L-136.1855,294.8415" fill="none" stroke="#000" stroke-linecap="round" stroke-width="4.8046"/>
<path d="M-126.6615,274.544L-126.6615,293.0872" fill="none" stroke="#000" stroke-linecap="round" stroke-width="4.8046"/>
<path d="M-117.7245,276.0083L-117.7245,294.5515" fill="none" stroke="#000" stroke-linecap="round" stroke-width="4.8046"/>
<path d="M-106.0478,274.841L-106.0478,293.3843" fill="none" stroke="#000" stroke-linecap="round" stroke-width="4.8046"/>
<path d="M-95.8892,277.0276L-95.8892,295.5709" fill="none" stroke="#000" stroke-linecap="round" stroke-width="4.8046"/>
<path d="M-84.2599,276.8522L-84.2599,295.3955" fill="none" stroke="#000" stroke-linecap="round" stroke-width="4.8046"/>
<path d="M-73.7574,275.1381L-73.7574,293.6813" fill="none" stroke="#000" stroke-linecap="round" stroke-width="4.8046"/>
<path d="M-63.8419,278.175L-63.8419,296.7182" fill="none" stroke="#000" stroke-linecap="round" stroke-width="4.8046"/>
<path d="M-53.169,277.8063L-53.169,296.3495" fill="none" stroke="#000" stroke-linecap="round" stroke-width="4.8046"/>
<path d="M-105.8017,352.8807L-78.6788,348.4525" fill="none" stroke="#000" stroke-width=".7749"/>
<path d="M-144.0697,281.0285L-144.0697,299.5717" fill="none" stroke="#000" stroke-linecap="round" stroke-width="4.8046"/>
</g>
<path d="M587.6694,86.739L587.6694,400.6294" fill="none" stroke="#000" stroke-width="5.6784"/>
<path d="M299.9593,86.0143L299.9593,399.9047" fill="none" stroke="#000" stroke-width="5.6784"/>
<g transform="matrix(.12574,0,0,.12574,822.3946,429.18939)">
<path d="M162.9615,-66.1029C166.455,-62.0454 171.1969,-61.5587 176.2443,-61.2734C182.6298,-61.4455 189.026,-62.9739 194.9925,-65.2443C198.1805,-66.4574 199.9424,-67.4904 202.9171,-69.0527C185.1139,-58.637 195.0252,-64.2154 198.3536,-67.7512C200.078,-69.5831 201.1079,-71.5131 202.0803,-73.8002C204.6069,-80.9176 204.9343,-88.5711 205.3652,-96.044C206.205,-106.9224 203.9531,-117.6028 201.5284,-128.1342C198.5789,-139.2121 194.5731,-149.9773 190.1613,-160.547C188.0488,-165.5407 185.6597,-170.4087 183.3326,-175.3036C180.1965,-181.3209 177.6309,-177.584 195.344,-184.4552C195.9544,-184.6919 196.0751,-183.3682 196.4662,-182.8431C197.1211,-181.9638 197.8094,-181.1099 198.4809,-180.2434C205.0155,-171.2763 212.8739,-163.4194 220.7492,-155.6472C225.3824,-151.1349 230.3508,-146.9467 234.7812,-142.2286C236.4627,-140.8555 237.4679,-138.92 238.8212,-137.2745C240.143,-136.0803 241.1771,-137.3375 242.3452,-138.1546C221.9421,-125.9198 229.2084,-129.8742 233.1206,-133.6257C234.6613,-135.103 236.1138,-136.6818 237.5889,-138.2234C239.6824,-140.3121 241.6662,-142.5484 243.9587,-144.4296C250.0105,-149.3955 258.4541,-153.3638 264.7123,-156.9238C270.4949,-159.4778 276.4106,-161.6997 282.419,-163.6577C283.6619,-163.9272 288.4708,-165.7766 289.5688,-164.5267C289.8243,-164.2359 289.9278,-163.8408 290.1072,-163.4978C290.1321,-163.1471 290.2293,-162.7941 290.1818,-162.4458C289.8354,-159.9037 285.8996,-156.946 284.1819,-155.3646C276.2864,-148.8374 268.6258,-142.0481 261.3333,-134.8534C254.99,-128.0483 248.4375,-121.3307 243.3873,-113.4811C240.2691,-108.5784 238.6116,-103.1651 237.8336,-97.4612C237.3182,-92.3602 237.4023,-87.2238 237.4103,-82.1038C237.6896,-76.538 238.3996,-70.961 240.0566,-65.6294C241.0066,-62.7897 242.6958,-60.7035 245.3984,-59.4565C247.1918,-58.8245 249.2452,-58.4083 251.1546,-58.7689C251.5988,-58.8529 255.3028,-60.1078 255.5991,-60.2068C259.9663,-62.5901 270.5149,-68.1635 250.7739,-57.3451C249.993,-56.9172 252.2774,-58.3004 253.0176,-58.7957C254.7175,-59.9333 255.126,-60.2677 256.721,-61.457C258.634,-62.8882 257.7277,-62.1927 259.444,-63.5378L273.1151,-69.0361C271.3827,-67.5797 272.3103,-68.3061 270.3191,-66.8738C262.2562,-60.6484 253.3247,-55.4952 244.0683,-51.2776C240.0071,-50.0654 237.0083,-49.4853 233.0532,-51.3558C230.1407,-52.9982 228.2379,-55.381 227.2136,-58.6022C225.5902,-64.0918 224.9779,-69.8068 224.4451,-75.4915C224.414,-80.6627 224.3292,-85.8471 224.7473,-91.006C225.4856,-96.9163 227.043,-102.5571 230.2219,-107.6713C230.8593,-108.7308 231.4383,-109.8277 232.1341,-110.8497C233.5635,-112.949 235.6974,-115.3519 237.3267,-117.2406C240.9264,-121.4136 244.6087,-125.5129 248.4113,-129.5027C255.5038,-136.6573 262.9793,-143.4183 270.7308,-149.8547C272.9266,-151.8936 275.199,-153.8815 277.0938,-156.2117C277.4084,-156.0458 276.3957,-156.0728 276.0435,-156.0235C274.2856,-155.7778 272.5938,-155.2318 270.901,-154.7183C264.9598,-152.7572 259.0786,-150.5816 253.4382,-147.8602C272.8794,-159.3576 261.1903,-152.8293 257.3908,-149.9058C255.0765,-148.125 253.0963,-145.926 251.0661,-143.8444C243.704,-136.0782 243.2815,-135.2558 230.8263,-128.8268C228.7851,-127.8625 227.644,-127.977 226.0472,-129.6547C224.7873,-131.3205 223.7779,-133.1781 222.2218,-134.6111C217.9797,-139.4028 213.2498,-143.7505 208.7563,-148.2998C200.956,-156.2393 193.036,-164.0853 186.0942,-172.8083C185.3483,-173.6466 184.6017,-174.4843 183.8565,-175.3233C183.4425,-175.7895 182.1438,-176.3177 182.6168,-176.7238C193.8626,-186.3779 193.2258,-188.9054 196.1308,-182.5316C198.3231,-177.537 200.6341,-172.5923 202.629,-167.5129C206.8035,-156.7535 210.6525,-145.8567 213.8046,-134.7502C216.3374,-124.1716 218.8429,-113.4256 218.1141,-102.4633C217.8266,-94.9202 217.3841,-87.2389 215.3364,-79.9427C214.6632,-78.0762 214.4306,-77.1236 213.3557,-75.4158C208.633,-67.9123 198.4469,-64.3688 191.7517,-60.1093C183.2311,-55.9217 174.1664,-52.9607 164.5762,-52.9176C163.243,-53.0245 161.8998,-53.0436 160.5765,-53.2383C156.6356,-53.8182 152.962,-55.54 150.2346,-58.4617L162.9615,-66.1029z" stroke="#000" stroke-linecap="round" stroke-linejoin="round" stroke-width="2"/>
<path d="M285.1504,-83.2549C279.2704,-81.6082 266.5253,-73.74 288.7732,-86.471C285.6873,-84.8287 283.8556,-82.1564 282.4117,-79.0736C281.5877,-76.6037 280.7082,-73.8959 280.8873,-71.2445C281.0112,-69.4099 281.4883,-68.4885 282.1122,-66.775C284.5548,-61.9495 288.3109,-57.9808 292.7681,-54.9746C296.0578,-52.6838 299.7974,-51.6413 303.7669,-51.5931C306.8299,-52.2892 309.6761,-53.4821 312.4808,-54.8725C313.6763,-55.4652 317.18,-57.4003 316.0334,-56.7177C302.8176,-48.8508 306.1278,-50.9743 310.8042,-54.1772C314.6548,-57.1431 318.8403,-60.5843 319.8322,-65.6282C319.9707,-66.3328 319.9608,-67.0585 320.0251,-67.7736C319.7705,-74.0822 315.7842,-79.021 311.938,-83.6853C309.5135,-86.3835 306.7679,-88.9566 303.4532,-90.5325C301.7709,-91.3322 300.9086,-91.4744 299.127,-91.9474C295.533,-92.1428 291.7665,-91.8011 288.3544,-90.5627C286.7769,-89.9902 284.386,-88.6593 282.9199,-87.8841C302.9062,-99.8746 289.8107,-91.9587 285.6886,-88.3736L272.0851,-82.8087C278.4156,-88.898 286.8685,-92.4857 294.2269,-96.9393C296.3627,-97.9778 297.6236,-98.6956 299.9061,-99.3886C303.5386,-100.4916 307.4494,-100.7491 311.1907,-100.1978C313.1147,-99.5839 313.8945,-99.429 315.7014,-98.4661C319.0659,-96.6731 321.8405,-93.9498 324.3224,-91.1058C328.3687,-86.1242 332.4762,-80.9616 333.0924,-74.3305C333.0628,-73.5258 333.1121,-72.7144 333.0035,-71.9165C332.2653,-66.4892 328.2283,-62.6312 324.1231,-59.4248C316.1605,-53.7094 320.2406,-56.4756 304.8488,-47.7573C300.8383,-45.4856 296.4513,-43.5622 291.8451,-43.0245C287.6957,-43.3915 283.8349,-44.6143 280.4546,-47.1325C275.8828,-50.4672 272.0386,-54.677 269.3612,-59.693C268.7366,-61.3275 268.0271,-62.8838 267.8135,-64.6468C267.4791,-67.4079 268.3981,-70.3095 269.0633,-72.941C270.3422,-76.1902 271.9653,-79.2701 275.0209,-81.1777C282.2031,-85.3118 288.9239,-90.0555 296.9357,-92.2666L285.1504,-83.2549z" stroke="#000" stroke-linecap="round" stroke-linejoin="round" stroke-width="2"/>
<path d="M347.1504,-77.2549C344.6035,-76.4403 341.9575,-75.7416 339.5363,-74.5814C338.7232,-74.1918 337.9599,-73.7059 337.1716,-73.2681C340.5173,-75.1416 343.863,-77.0152 347.2087,-78.8887C343.2371,-76.2087 340.2901,-73.5303 338.5132,-69.0387C337.3505,-65.3388 337.9081,-62.2103 340.8379,-59.4732C341.5453,-58.8124 342.3768,-58.2984 343.1462,-57.711C348.7467,-54.4938 355.3758,-53.3418 361.7904,-54.0225C363.6291,-54.2176 365.4327,-54.663 367.2538,-54.9833C371.4683,-56.0713 373.305,-56.374 377.2631,-58.0355C378.5761,-58.5866 382.3128,-60.6635 381.0902,-59.9334C363.2909,-49.3046 371.3475,-53.9354 374.1428,-56.7651C374.7627,-57.3926 375.255,-58.1344 375.8111,-58.8191C378.2486,-62.6326 378.3111,-66.0246 376.5942,-70.0879C376.279,-70.8016 374.4627,-74.5447 373.1819,-73.7346C372.9601,-73.5943 372.8477,-73.33 372.6807,-73.1277C392.8977,-84.6564 385.2006,-82.7287 383.2398,-77.11C382.3936,-74.6854 382.2459,-72.3278 382.1295,-69.7816C383.5341,-57.9615 388.7559,-47.0167 393.0457,-36.0346C398.2618,-21.5258 403.2897,-6.47 403.8684,9.092C403.9836,12.189 403.6821,15.2876 403.5889,18.3853C403.1263,21.364 402.8671,24.3813 402.2011,27.3212C400.0287,36.9109 395.0849,45.6892 387.7437,52.2682C386.4496,53.4279 384.9846,54.3816 383.6051,55.4383C378.0848,58.3221 372.8336,61.7934 367.0443,64.0899C364.6445,65.0418 358.8518,63.0561 356.9529,62.2095C349.8949,59.0631 343.7992,53.895 337.8032,49.1621C327.688,40.5031 317.7846,31.4711 308.7355,21.6837C304.0475,16.6133 302.8886,14.9067 298.8166,9.6614C295.3512,3.8792 291.2661,-2.8245 294.6732,-9.6402C296.6895,-13.6737 299.1232,-15.1372 302.5004,-18.074C312.6219,-24.6327 313.4505,-25.3796 328.104,-32.7999C331.6804,-34.6109 343.2136,-38.7065 346.7432,-39.9379C353.7819,-42.3937 361.3514,-44.8267 368.4293,-47.1393C387.0233,-52.5028 405.2349,-59.0355 423.2344,-66.1176C424.7623,-66.7671 426.2923,-67.4118 427.8181,-68.0661C428.9838,-68.566 430.1581,-69.0469 431.3089,-69.5801C433.6612,-70.67 435.8588,-72.019 438.2856,-72.9431C441.5765,-73.4124 442.7308,-69.4505 443.7159,-67.0436C445.9847,-60.9159 447.263,-54.4902 447.8147,-47.9941C447.9509,-45.0837 448.0453,-42.1595 447.6331,-39.2662C447.5909,-38.9704 447.7439,-38.5103 447.473,-38.3842C443.0642,-36.3309 438.4604,-34.7251 433.9541,-32.8956C433.9659,-33.7909 433.9166,-34.689 433.9896,-35.5814C434.0957,-36.8799 434.3191,-38.1662 434.4903,-39.4578C435.49,-46.9958 436.7994,-54.4336 438.3334,-61.8806C439.8884,-68.3767 441.231,-75.18 444.9433,-80.8503C449.1473,-85.2518 458.497,-93.9297 463.0497,-88.879C463.5264,-88.3501 463.8605,-87.7082 464.2658,-87.1228C465.1568,-85.5475 465.9266,-84.351 466.5095,-82.6055C468.1484,-77.6977 468.884,-71.9449 469.7517,-66.8403C470.8843,-62.4227 470.4525,-57.1322 471.7929,-52.8005C473.5655,-57.562 471.775,-52.58 459.0435,-46.5094C458.7853,-46.3863 459.4327,-46.9346 459.5772,-47.1814C459.9087,-47.7474 460.5577,-49.4088 460.8105,-49.919C461.1553,-50.6152 461.549,-51.286 461.9182,-51.9694C464.3127,-55.807 466.3395,-59.8622 468.9779,-63.5425C473.3892,-69.0698 477.5158,-70.2762 485.1519,-74.4725C485.4138,-74.6164 485.7664,-74.5326 486.0475,-74.431C486.4054,-74.3016 486.6836,-74.0129 487.0016,-73.8039C489.988,-70.6628 491.0279,-66.2182 492.0362,-62.1278C492.9125,-57.6742 493.3814,-53.131 495.0104,-48.8712C495.4071,-48.3128 495.7311,-47.6948 496.2004,-47.1959C499.6185,-43.5623 505.2722,-40.8461 509.9343,-39.3687C511.6885,-38.8128 513.4959,-38.4411 515.2767,-37.9773C522.8167,-36.0961 530.3825,-36.0026 537.8823,-38.0643C539.5423,-38.5206 541.2095,-38.9969 542.7819,-39.6981C544.2464,-40.3512 545.5581,-41.3036 546.9463,-42.1064C544.0584,-40.6163 541.3829,-38.6098 538.2826,-37.636C537.087,-37.2605 540.1428,-39.3201 540.9963,-40.2377C543.5122,-42.9425 544.9507,-45.9503 545.9633,-49.4488C546.6579,-52.3622 546.6456,-55.3557 546.5652,-58.3283C545.753,-64.4645 540.332,-58.4252 559.1,-66.0472C559.4417,-66.186 558.8994,-65.3356 558.842,-64.9712C558.7584,-64.4412 558.7327,-63.9037 558.678,-63.37C558.4116,-58.5352 558.3011,-53.6898 558.8385,-48.8729C559.3853,-45.774 559.9781,-42.6077 562.4072,-40.4324C564.1162,-39.3075 565.9299,-39.231 567.8176,-39.8486C572.3605,-42.1411 579.1794,-46.118 558.5218,-34.4558C557.7888,-34.042 559.9393,-35.3644 560.6358,-35.837L574.3857,-41.3039C573.3212,-40.43 573.5147,-40.5201 572.2923,-39.8054C567.6471,-37.0896 561.8948,-32.5533 556.0168,-30.8992C553.7225,-30.6532 551.5833,-31.1524 549.789,-32.6773C547.292,-35.2807 546.4771,-38.6003 545.9205,-42.101C545.3299,-46.9737 545.4484,-51.8684 545.5121,-56.7697C545.5317,-57.4241 545.5891,-59.6985 545.6353,-59.7292C555.3623,-66.1895 558.5071,-72.3046 559.7414,-65.0828C559.8109,-61.9585 559.8144,-58.8161 559.1617,-55.7418C555.9603,-42.9865 547.5064,-40.0804 535.8851,-33.2002C534.4562,-32.4798 533.0874,-31.625 531.5984,-31.0388C522.6477,-27.5147 512.8948,-27.7976 503.6881,-30.0046C501.849,-30.4923 499.9816,-30.8834 498.1708,-31.4678C493.5394,-32.9624 487.0263,-36.1598 483.6105,-39.7531C483.0478,-40.345 482.6426,-41.0688 482.1586,-41.7267C480.5349,-46.0707 480.067,-50.6739 479.2315,-55.2142C478.3895,-58.7321 477.5533,-63.083 474.6465,-65.525C473.9606,-65.439 474.3146,-65.5425 473.6055,-65.1501C477.5343,-67.4822 481.4631,-69.8142 485.392,-72.1463C485.7243,-72.3373 484.7836,-71.6778 484.5048,-71.4148C483.8053,-70.7548 483.2382,-69.9617 482.4827,-69.3567C479.6627,-65.8118 477.6289,-61.7908 475.2736,-57.9352C474.3882,-56.4197 473.6566,-54.9774 473.0931,-53.3151C472.9783,-52.9764 473.1056,-52.4677 472.7992,-52.2834C459.5044,-44.2868 462.4531,-41.0521 458.7423,-45.7121C457.6264,-50.4162 458.1984,-55.4103 457.1115,-60.1366C456.048,-66.7522 455.2298,-73.8382 451.6337,-79.6263C451.0084,-80.3781 450.7399,-81.067 449.7463,-81.2506C449.4773,-81.3003 448.6972,-81.0264 448.9293,-81.1714C452.7843,-83.5799 456.7874,-85.7435 460.684,-88.0841C461.0341,-88.2944 459.9199,-87.7826 459.574,-87.5654C459.1661,-87.3094 458.8163,-86.9709 458.4374,-86.6736C454.0539,-81.4464 452.7319,-74.3891 450.9594,-67.9864C448.9624,-58.7542 447.2481,-49.392 446.9663,-39.9303C442.6611,-37.2917 438.4431,-34.5055 434.0509,-32.0145C433.809,-31.8773 434.2913,-32.5188 434.3689,-32.7859C435.1731,-35.5526 434.9442,-38.4808 434.9437,-41.3192C434.5725,-47.6693 433.3852,-53.9844 430.9595,-59.8902C430.4967,-60.9584 429.6461,-64.0551 428.0273,-64.1645C427.6519,-64.1899 426.9629,-63.8928 426.664,-63.7855C421.876,-61.6536 417.2258,-59.2069 412.2498,-57.5029C394.41,-50.7931 376.4177,-44.5046 358.1221,-39.1385C347.5024,-35.6251 336.8084,-32.2298 326.4071,-28.0958C323.4132,-26.9058 320.6723,-24.9485 317.5147,-24.3088C315.893,-23.9803 323.0914,-27.8472 321.6038,-27.1227C319.4346,-26.0663 317.5039,-24.5777 315.454,-23.3052C311.6254,-20.2317 306.9304,-17.0518 306.0231,-11.7537C305.1302,-6.539 308.4514,-1.7173 310.6976,2.6064C312.0867,4.5044 313.4087,6.4534 314.865,8.3002C324.8107,20.9133 336.9125,31.7349 349.2333,41.9507C355.2776,46.4639 361.4425,51.5105 368.5887,54.2474C370.2378,54.879 371.9681,55.3572 373.7232,55.5527C375.2204,55.7194 379.0476,54.0524 378.2367,55.3221C376.5481,57.9662 373.0607,58.8689 370.4727,60.6424C371.9211,59.6313 373.4539,58.7314 374.818,57.609C382.3953,51.3747 387.7065,42.7683 390.0706,33.2575C390.7888,30.3679 391.0696,27.3869 391.5691,24.4516C391.713,21.3964 392.0786,18.3436 392.0007,15.286C391.6074,-.1509 386.3714,-15.0473 381.0958,-29.3649C376.6203,-40.4339 371.1739,-51.3452 369.2251,-63.2235C369.1596,-66.0352 369.2286,-68.1755 369.9092,-70.8957C369.9473,-71.0478 370.7023,-73.7558 371.0384,-73.9872C375.3553,-76.9602 379.9527,-79.5037 384.4099,-82.2619C384.7489,-82.2349 385.0988,-82.2704 385.4268,-82.1807C387.5325,-81.605 388.5419,-78.9921 389.422,-77.2845C391.2962,-72.8589 391.5534,-68.921 389.1687,-64.5737C388.6277,-63.7989 388.1602,-62.9673 387.5458,-62.2493C383.155,-57.1183 374.373,-53.5169 369.904,-51.0303C365.6297,-48.6519 360.7122,-47.6351 356.0106,-46.5342C354.1284,-46.2519 352.2609,-45.8421 350.3638,-45.6872C343.5879,-45.1342 336.6659,-46.3505 330.8819,-49.9878C330.0515,-50.6505 329.1568,-51.2399 328.3906,-51.9759C325.1513,-55.0883 324.1401,-58.5232 325.2119,-62.8203C326.8277,-67.9581 329.3611,-70.4448 333.6797,-73.6076C342.0135,-78.5311 349.5479,-83.9618 358.9357,-86.2666L347.1504,-77.2549z" stroke="#000" stroke-linecap="round" stroke-linejoin="round" stroke-width="2"/>
<path d="M549.2332,-122.1847C547.4497,-120.0919 546.0244,-117.6969 545.3462,-115.0219C544.8607,-112.3468 546.4564,-111.6609 548.6501,-110.701C552.1989,-109.4013 555.2322,-109.544 558.8667,-110.1867C563.727,-111.8529 571.4457,-116.6009 549.8419,-104.683C549.5386,-104.5156 550.4174,-105.0731 550.6735,-105.3066C551.283,-105.8622 551.3443,-106.0922 551.7431,-106.7885C552.4769,-108.4348 552.405,-109.9757 551.4599,-111.492C550.2026,-112.6833 548.3125,-112.5716 546.6902,-112.6506C545.0147,-112.4957 543.4191,-112.0801 542.057,-111.0753L553.6269,-120.3929C555.2743,-121.0166 556.9597,-121.4107 558.7396,-121.2691C560.8571,-121.0599 562.9403,-120.7594 564.3134,-118.9498C565.4318,-117.0683 565.8738,-115.1231 565.2275,-112.9755C562.8838,-105.9037 553.9818,-103.0447 547.0943,-101.3611C543.4244,-100.8997 539.7964,-101.101 536.3461,-102.5755C533.866,-103.8553 531.6424,-105.4567 532.0181,-108.5614C532.4759,-111.4436 533.8818,-114.0254 535.5706,-116.3799L549.2332,-122.1847z" stroke="#000" stroke-linecap="round" stroke-linejoin="round" stroke-width="2"/>
<path d="M359.6057,-86.1453C362.4187,-87.5125 365.103,-89.129 368.0047,-90.3079C369.8229,-91.4887 371.8175,-92.0343 373.9447,-92.2669C375.9013,-92.4156 377.8658,-92.3906 379.8266,-92.3838C381.7726,-92.5908 383.4211,-92.0588 385.1306,-91.2244C386.3272,-90.2653 387.2717,-88.9911 388.1806,-87.7589C388.971,-86.3232 389.4355,-84.7124 389.9217,-83.1481C390.3578,-81.5453 390.9514,-80.0138 391.2655,-78.376C391.5681,-76.4533 391.5887,-74.5022 391.6123,-72.5605C391.6209,-71.5593 391.6196,-70.5581 391.6191,-69.5568L378.4016,-62.8239C378.4031,-63.8201 378.4051,-64.8163 378.4006,-65.8125C378.3869,-67.6761 378.3836,-69.5468 378.1492,-71.3987C377.8884,-72.9952 377.3044,-74.4635 376.8794,-76.0128C376.4669,-77.4199 376.0218,-78.8533 375.3829,-80.165C374.6051,-81.185 373.8481,-82.3496 372.73,-83.0103C371.1597,-83.6924 369.5221,-83.7365 367.825,-83.6633C365.9059,-83.6547 363.9742,-83.6641 362.0745,-83.3541C360.0654,-82.9292 358.2552,-82.0648 356.4262,-81.1471C353.5803,-79.8236 350.8275,-78.3064 348.069,-76.8116L359.6057,-86.1453z" stroke="#000" stroke-linecap="round" stroke-linejoin="round" stroke-width="2"/>
</g>
<path d="M61.9759,54.7472H248.8542A15.9099,15.9099 0 0 1 264.7641,70.6571V70.6571A15.9099,15.9099 0 0 1 248.8542,86.567H61.9759A15.9099,15.9099 0 0 1 46.066,70.6571V70.6571A15.9099,15.9099 0 0 1 61.9759,54.7472z" fill="#fff" stroke="#000" stroke-linecap="round" stroke-linejoin="round" stroke-width="4"/>
<path d="m101.5203,44.9288c0,19.2473-16.5075,34.8503-36.8706,34.8503-20.3631,0-36.8706,-15.603-36.8706,-34.8503 0,-19.2473 16.5075,-34.8503 36.8706,-34.8503 20.3631,0 36.8706,15.603 36.8706,34.8503z" stroke="#000" stroke-linecap="round" stroke-linejoin="round" stroke-width="7.491" transform="matrix(.7121,0,0,.7121,.7797,32.37009)"/>
<text font-family="Bitstream Vera Sans" font-size="40" x="22.429" y="78.4046">
     <tspan fill="#f9f9f9" x="22.429" y="78.4046">34</tspan>
    </text>
<text font-family="Bitstream Vera Sans" font-size="20" x="100.3392" y="77.4242">
     <tspan x="100.3392" y="77.4242">Incompatible</tspan>
    </text>
<path d="m446.8915,78.4154c0,2.9289-27.5427,5.3033-61.5183,5.3033-33.9756,0-61.5183,-2.3744-61.5183,-5.3033 0,-2.9289 27.5427,-5.3033 61.5183,-5.3033 33.9756,0 61.5183,2.3744 61.5183,5.3033z" stroke="#000" stroke-linecap="round" stroke-width="4.862" transform="matrix(-1,0,0,1,822.76925,303.32565)"/>
<g transform="matrix(-1,0,0,1,340.10822,6.04791)">
<path d="M-43.5297,288.8057L-43.5297,336.6941C-43.5297,356.7011-59.6364,372.8078-79.6434,372.8078L-115.0774,372.8078C-135.0844,372.8078-151.1912,356.7011-151.1912,336.6941L-151.1912,288.8057" fill="#fff" stroke="#000" stroke-linecap="round" stroke-linejoin="round" stroke-width="3.6422"/>
<path d="M-122.1431,308.6171H-98.6091A.7803,.7803 0 0 1 -97.8288,309.3974V319.4235A.7803,.7803 0 0 1 -98.6091,320.2038H-122.1431A.7803,.7803 0 0 1 -122.9234,319.4235V309.3974A.7803,.7803 0 0 1 -122.1431,308.6171z" stroke="#000" stroke-linecap="square" stroke-linejoin="round" stroke-width="3.7338"/>
<path d="M-80.7522,308.6171H-60.3393A2.3409,2.3409 0 0 1 -57.9985,310.958V317.8629A2.3409,2.3409 0 0 1 -60.3393,320.2038H-80.7522A2.3409,2.3409 0 0 1 -83.093,317.8629V310.958A2.3409,2.3409 0 0 1 -80.7522,308.6171z" stroke="#000" stroke-linecap="square" stroke-linejoin="round" stroke-width="3.7338"/>
<path d="M-148.8829,313.6717C-148.3338,313.6822-147.7844,313.6785-147.2351,313.6758C-146.8722,313.6736-146.5092,313.6722-146.1462,313.6715C-145.8537,313.6711-145.5613,313.6711-145.2688,313.6711C-144.9647,313.6705-144.6607,313.6717-144.3567,313.6723C-143.966,313.6626-143.5814,313.6719-143.1947,313.723C-142.7951,313.7775-142.3916,313.7947-141.9885,313.8057C-141.5833,313.7899-141.1856,313.8646-140.7845,313.9048C-140.3766,313.9415-139.9665,313.9454-139.5571,313.9498C-139.1269,313.9521-138.6968,313.9519-138.2666,313.9504C-137.893,313.9497-137.5194,313.9491-137.1458,313.9482C-136.8388,313.9474-136.5318,313.9472-136.2247,313.9471C-135.9332,313.947-135.6418,313.947-135.3502,313.947C-135.0587,313.947-134.7672,313.947-134.4756,313.947C-134.1569,313.9467-133.8382,313.9476-133.5196,313.949C-133.1253,313.9514-132.731,313.9494-132.3367,313.9484C-131.9659,313.9481-131.595,313.9488-131.2241,313.9499C-130.8274,313.9497-130.4307,313.9498-130.0339,313.9488C-129.654,313.949-129.274,313.9495-128.894,313.949C-128.5484,313.9477-128.2029,313.9475-127.8573,313.9492C-127.3241,313.9518-126.7909,313.9534-126.2577,313.9553C-125.5311,313.9581-124.8045,313.9587-124.0778,313.9563C-123.5446,313.9549-123.0113,313.9511-122.4781,313.9509C-122.0368,313.9515-121.5955,313.9508-121.1542,313.9493C-121.0931,313.9491-121.032,313.949-120.9709,313.9488L-122.7169,315.1481C-122.7774,315.1478-122.8379,315.1476-122.8984,315.1474C-123.3383,315.1459-123.7781,315.1453-124.218,315.1459C-124.7459,315.1457-125.2739,315.1418-125.8018,315.1405C-126.5294,315.1381-127.2571,315.1387-127.9846,315.1415C-128.5238,315.1434-129.0628,315.145-129.6019,315.1476C-129.9477,315.1493-130.2936,315.1491-130.6394,315.1478C-131.0195,315.1473-131.3996,315.1478-131.7797,315.148C-132.1754,315.147-132.5711,315.1471-132.9668,315.1469C-133.3391,315.1479-133.7115,315.1487-134.0838,315.1484C-134.4775,315.1474-134.8712,315.1454-135.2648,315.1478C-135.5854,315.1492-135.9059,315.1501-136.2265,315.1497C-136.5181,315.1497-136.8096,315.1497-137.1012,315.1497C-137.3926,315.1497-137.684,315.1497-137.9755,315.1497C-138.2815,315.1495-138.5875,315.1493-138.8935,315.1487C-139.2655,315.148-139.6375,315.1479-140.0095,315.1478C-140.4397,315.147-140.8698,315.1485-141.3,315.1437C-141.7147,315.1381-142.1302,315.1292-142.5427,315.0843C-142.9395,315.0397-143.3348,314.9871-143.7358,314.9973C-144.1436,314.9822-144.5506,314.9538-144.955,314.9006C-145.3371,314.8601-145.7204,314.8714-146.1043,314.8727C-146.4095,314.8733-146.7146,314.8745-147.0198,314.8739C-147.3119,314.8739-147.604,314.8739-147.8961,314.8735C-148.255,314.8728-148.6138,314.8714-148.9726,314.8693C-149.5259,314.8665-150.0792,314.863-150.6323,314.8733L-148.8829,313.6717z" stroke="#000" stroke-linecap="square" stroke-linejoin="round" stroke-width=".4767"/>
<path d="M-57.3881,313.9484C-56.6843,313.9602-55.9802,313.9586-55.2763,313.9581C-54.631,313.9572-53.9858,313.9554-53.3406,313.9525C-52.9094,313.9502-52.4782,313.9501-52.047,313.9495C-51.7073,313.9487-51.3675,313.9479-51.0277,313.9474C-50.7309,313.9691-50.4456,313.8899-50.1539,313.8518C-49.8613,313.8177-49.5662,313.8128-49.2718,313.8093C-48.9796,313.8072-48.6875,313.8081-48.3953,313.8085C-48.1035,313.8089-47.8117,313.809-47.5199,313.8091C-47.2282,313.8091-46.9364,313.8091-46.6446,313.8091C-46.3528,313.8091-46.061,313.8091-45.7692,313.8091C-45.4559,313.8085-45.1426,313.8102-44.8294,313.8103C-44.5121,313.81-44.1949,313.8096-43.8776,313.8093C-43.5838,313.8091-43.29,313.8091-42.9962,313.8091C-42.8018,313.8091-42.899,313.8091-42.7047,313.8091L-44.4556,315.0118C-44.6499,315.0118-44.5527,315.0118-44.7471,315.0118C-45.0407,315.0118-45.3343,315.0118-45.6279,315.0116C-45.9442,315.0113-46.2606,315.0109-46.577,315.0106C-46.8913,315.0107-47.2057,315.0124-47.5201,315.0118C-47.8119,315.0118-48.1037,315.0118-48.3955,315.0118C-48.6873,315.0118-48.9791,315.0118-49.2709,315.0117C-49.5627,315.0115-49.8545,315.0113-50.1463,315.011C-50.4376,315.0107-50.7289,315.0099-51.0202,315.0153C-51.3095,315.0227-51.5993,315.0348-51.8855,315.0788C-52.1815,315.1241-52.476,315.1695-52.7776,315.1494C-53.1153,315.1489-53.453,315.1481-53.7908,315.1473C-54.219,315.1467-54.6473,315.1466-55.0755,315.1442C-55.7153,315.1413-56.3552,315.1395-56.995,315.1387C-57.7084,315.1382-58.4219,315.1368-59.1352,315.1484L-57.3881,313.9484z" stroke="#000" stroke-linecap="square" stroke-linejoin="round" stroke-width=".4767"/>
<path d="M-97.681,314.1116C-97.1471,314.1792-96.6084,314.2005-96.0705,314.2165C-95.5904,314.228-95.1101,314.228-94.63,314.2268C-94.2335,314.2263-93.8371,314.2261-93.4407,314.2252C-92.6449,314.2456-91.8487,314.2356-91.0528,314.2319C-90.5718,314.2284-90.0909,314.2269-89.6099,314.225C-89.2264,314.225-88.8429,314.2245-88.4594,314.2256C-88.0562,314.2268-87.653,314.2246-87.2498,314.2253C-86.886,314.2244-86.5221,314.2245-86.1583,314.2246C-85.794,314.2251-85.4296,314.2248-85.0652,314.2241C-84.7171,314.2253-84.3691,314.2242-84.021,314.2236C-83.6805,314.2251-83.3399,314.2241-82.9994,314.2236C-82.6986,314.2232-82.3977,314.223-82.0969,314.223C-81.8453,314.2815-81.5923,314.3235-81.3342,314.3439C-81.0543,314.3611-80.7736,314.3611-80.4933,314.3619C-80.2016,314.3621-79.9099,314.3615-79.6182,314.3612C-79.4722,314.3611-79.3262,314.361-79.1802,314.361L-80.931,315.5637C-81.077,315.5638-81.223,315.5639-81.369,315.564C-81.661,315.5644-81.953,315.5651-82.245,315.5636C-82.5302,315.5612-82.816,315.5587-83.0999,315.5305C-83.3505,315.5012-83.5959,315.4409-83.8477,315.4256C-84.1479,315.4255-84.4481,315.4254-84.7483,315.4249C-85.0888,315.4245-85.4293,315.4235-85.7698,315.4249C-86.1175,315.4243-86.4651,315.4233-86.8128,315.4244C-87.1766,315.4237-87.5405,315.4234-87.9044,315.4239C-88.2676,315.4241-88.6307,315.4241-88.9939,315.4233C-89.3968,315.4239-89.7997,315.4217-90.2026,315.423C-90.5867,315.424-90.9708,315.4235-91.3549,315.4236C-91.8291,315.4216-92.3032,315.4202-92.7774,315.4166C-93.5801,315.4129-94.3831,315.4034-95.1857,315.424C-95.5815,315.4235-95.9772,315.4244-96.373,315.4236C-96.8515,315.4207-97.33,315.417-97.8082,315.401C-98.3559,315.3799-98.9029,315.3472-99.4483,315.2941L-97.681,314.1116z" stroke="#000" stroke-linecap="square" stroke-linejoin="round" stroke-width=".4767"/>
<path d="M-136.1855,276.2983L-136.1855,294.8415" fill="none" stroke="#000" stroke-linecap="round" stroke-width="4.8046"/>
<path d="M-126.6615,274.544L-126.6615,293.0872" fill="none" stroke="#000" stroke-linecap="round" stroke-width="4.8046"/>
<path d="M-117.7245,276.0083L-117.7245,294.5515" fill="none" stroke="#000" stroke-linecap="round" stroke-width="4.8046"/>
<path d="M-106.0478,274.841L-106.0478,293.3843" fill="none" stroke="#000" stroke-linecap="round" stroke-width="4.8046"/>
<path d="M-95.8892,277.0276L-95.8892,295.5709" fill="none" stroke="#000" stroke-linecap="round" stroke-width="4.8046"/>
<path d="M-84.2599,276.8522L-84.2599,295.3955" fill="none" stroke="#000" stroke-linecap="round" stroke-width="4.8046"/>
<path d="M-73.7574,275.1381L-73.7574,293.6813" fill="none" stroke="#000" stroke-linecap="round" stroke-width="4.8046"/>
<path d="M-63.8419,278.175L-63.8419,296.7182" fill="none" stroke="#000" stroke-linecap="round" stroke-width="4.8046"/>
<path d="M-53.169,277.8063L-53.169,296.3495" fill="none" stroke="#000" stroke-linecap="round" stroke-width="4.8046"/>
<path d="M-105.8017,352.8807L-78.6788,348.4525" fill="none" stroke="#000" stroke-width=".7749"/>
<path d="M-144.0697,281.0285L-144.0697,299.5717" fill="none" stroke="#000" stroke-linecap="round" stroke-width="4.8046"/>
</g>
<text font-family="Bitstream Vera Sans" font-size="20" text-align="center" text-anchor="middle" x="163.7005" y="138.9651">
     <tspan text-align="center" text-anchor="middle" x="163.7005" y="138.9651">J'ai un pote qui a</tspan>
     <tspan text-align="center" text-anchor="middle" x="163.7005" y="163.9651">rencontré une fille</tspan>
     <tspan text-align="center" text-anchor="middle" x="163.7005" y="188.9651">géniale y'a pas</tspan>
     <tspan text-align="center" text-anchor="middle" x="163.7005" y="213.9651">longtemps.</tspan>
    </text>
<path d="M149.6462,226.8281L166.8187,269.2545" fill="none" stroke="#000"/>
<text font-family="Bitstream Vera Sans" font-size="20" x="431.457" y="168.1268">
     <tspan text-align="center" text-anchor="middle" x="431.457" y="168.1268">Mais entre eux, ça</tspan>
     <tspan text-align="center" text-anchor="middle" x="431.457" y="193.1268">marchera jamais...</tspan>
    </text>
<text font-family="Bitstream Vera Sans" font-size="20" x="718.6805" y="139.8164">
     <tspan text-align="center" text-anchor="middle" x="718.6805" y="139.8164">Il est à EPITA et</tspan>
     <tspan text-align="center" text-anchor="middle" x="718.6805" y="164.8164">elle lui a dit qu'elle</tspan>
     <tspan text-align="center" text-anchor="middle" x="718.6805" y="189.8164">était allergique</tspan>
     <tspan text-align="center" text-anchor="middle" x="718.6805" y="214.8164">au LaTeX !</tspan>
    </text>
<path d="M433.2742,221.8071L444.3859,259.1827" fill="none" stroke="#000"/>
<path d="M713.0865,230.8375L724.1982,266.1929" fill="none" stroke="#000"/>
<g transform="translate(7.0711,1.0102)">
<path d="m446.8915,78.4154c0,2.9289-27.5427,5.3033-61.5183,5.3033-33.9756,0-61.5183,-2.3744-61.5183,-5.3033 0,-2.9289 27.5427,-5.3033 61.5183,-5.3033 33.9756,0 61.5183,2.3744 61.5183,5.3033z" stroke="#000" stroke-linecap="round" stroke-width="4.862" transform="translate(334.8656,305.346)"/>
<path d="M773.997,296.8739L773.997,344.7623C773.997,364.7693 757.8903,380.8761 737.8833,380.8761L702.4492,380.8761C682.4422,380.8761 666.3355,364.7693 666.3355,344.7623L666.3355,296.8739" fill="#fff" stroke="#000" stroke-linecap="round" stroke-linejoin="round" stroke-width="3.6422"/>
<path d="M695.3835,316.6854H718.9175A.7803,.7803 0 0 1 719.6978,317.4656V327.4917A.7803,.7803 0 0 1 718.9175,328.272H695.3835A.7803,.7803 0 0 1 694.6032,327.4917V317.4656A.7803,.7803 0 0 1 695.3835,316.6854z" stroke="#000" stroke-linecap="square" stroke-linejoin="round" stroke-width="3.7338"/>
<path d="M736.7744,316.6854H757.1873A2.3409,2.3409 0 0 1 759.5282,319.0262V325.9312A2.3409,2.3409 0 0 1 757.1873,328.272H736.7744A2.3409,2.3409 0 0 1 734.4336,325.9312V319.0262A2.3409,2.3409 0 0 1 736.7744,316.6854z" stroke="#000" stroke-linecap="square" stroke-linejoin="round" stroke-width="3.7338"/>
<path d="M668.6437,321.7399C669.1929,321.7504 669.7423,321.7467 670.2916,321.744C670.6545,321.7419 671.0175,321.7405 671.3804,321.7398C671.6729,321.7393 671.9654,321.7394 672.2579,321.7394C672.5619,321.7387 672.866,321.74 673.17,321.7405C673.5607,321.7308 673.9452,321.7402 674.332,321.7912C674.7316,321.8458 675.1351,321.863 675.5382,321.8739C675.9434,321.8582 676.3411,321.9328 676.7422,321.973C677.1501,322.0098 677.5602,322.0136 677.9696,322.018C678.3997,322.0203 678.8299,322.0201 679.26,322.0187C679.6336,322.0179 680.0072,322.0174 680.3808,322.0164C680.6879,322.0157 680.9949,322.0155 681.3019,322.0153C681.5934,322.0152 681.8849,322.0153 682.1764,322.0153C682.468,322.0153 682.7595,322.0153 683.051,322.0153C683.3697,322.0149 683.6884,322.0158 684.0071,322.0172C684.4014,322.0196 684.7957,322.0177 685.1899,322.0166C685.5608,322.0163 685.9317,322.0171 686.3026,322.0181C686.6993,322.0179 687.096,322.018 687.4927,322.017C687.8727,322.0172 688.2527,322.0178 688.6326,322.0172C688.9782,322.0159 689.3238,322.0157 689.6694,322.0174C690.2026,322.0201 690.7358,322.0216 691.269,322.0235C691.9956,322.0263 692.7222,322.0269 693.4489,322.0245C693.9821,322.0232 694.5153,322.0193 695.0486,322.0191C695.4899,322.0197 695.9312,322.0191 696.3725,322.0176C696.4336,322.0174 696.4947,322.0172 696.5558,322.017L694.8098,323.2163C694.7493,323.2161 694.6888,323.2159 694.6283,323.2157C694.1884,323.2142 693.7486,323.2135 693.3087,323.2142C692.7808,323.2139 692.2528,323.2101 691.7248,323.2087C690.9973,323.2063 690.2696,323.2069 689.542,323.2097C689.0029,323.2116 688.4638,323.2132 687.9248,323.2158C687.5789,323.2175 687.2331,323.2173 686.8873,323.2161C686.5072,323.2155 686.1271,323.216 685.7469,323.2162C685.3513,323.2152 684.9556,323.2153 684.5599,323.2151C684.1875,323.2162 683.8152,323.2169 683.4429,323.2167C683.0492,323.2156 682.6555,323.2136 682.2619,323.216C681.9413,323.2174 681.6207,323.2183 681.3002,323.218C681.0086,323.218 680.717,323.218 680.4255,323.218C680.1341,323.218 679.8426,323.218 679.5512,323.2179C679.2452,323.2178 678.9392,323.2176 678.6332,323.2169C678.2612,323.2163 677.8892,323.2161 677.5172,323.2161C677.087,323.2152 676.6568,323.2168 676.2267,323.212C675.8119,323.2064 675.3964,323.1974 674.984,323.1525C674.5872,323.108 674.1919,323.0553 673.7909,323.0656C673.3831,323.0504 672.976,323.0221 672.5716,322.9688C672.1896,322.9284 671.8063,322.9396 671.4223,322.941C671.1172,322.9415 670.812,322.9427 670.5069,322.9421C670.2148,322.9421 669.9227,322.9422 669.6306,322.9417C669.2717,322.9411 668.9129,322.9396 668.554,322.9375C668.0008,322.9347 667.4475,322.9313 666.8943,322.9416L668.6437,321.7399z" stroke="#000" stroke-linecap="square" stroke-linejoin="round" stroke-width=".4767"/>
<path d="M760.1385,322.0166C760.8424,322.0284 761.5465,322.0268 762.2504,322.0263C762.8956,322.0254 763.5409,322.0237 764.1861,322.0208C764.6173,322.0184 765.0485,322.0183 765.4796,322.0177C765.8194,322.0169 766.1592,322.0161 766.499,322.0156C766.7958,322.0373 767.0811,321.9581 767.3728,321.92C767.6654,321.8859 767.9605,321.881 768.2549,321.8775C768.547,321.8754 768.8392,321.8763 769.1314,321.8767C769.4232,321.8771 769.7149,321.8772 770.0067,321.8773C770.2985,321.8774 770.5903,321.8774 770.8821,321.8774C771.1739,321.8774 771.4657,321.8774 771.7575,321.8774C772.0708,321.8768 772.384,321.8784 772.6973,321.8785C773.0145,321.8782 773.3318,321.8778 773.649,321.8776C773.9429,321.8774 774.2367,321.8774 774.5305,321.8773C774.7248,321.8773 774.6277,321.8773 774.822,321.8773L773.0711,323.08C772.8768,323.08 772.9739,323.08 772.7796,323.08C772.486,323.08 772.1924,323.08 771.8988,323.0798C771.5824,323.0796 771.2661,323.0791 770.9497,323.0789C770.6353,323.0789 770.321,323.0806 770.0066,323.08C769.7148,323.08 769.423,323.08 769.1312,323.08C768.8394,323.08 768.5476,323.08 768.2558,323.0799C767.964,323.0798 767.6721,323.0795 767.3803,323.0792C767.0891,323.079 766.7977,323.0781 766.5065,323.0835C766.2172,323.0909 765.9274,323.103 765.6412,323.1471C765.3451,323.1923 765.0507,323.2377 764.7491,323.2176C764.4114,323.2172 764.0737,323.2163 763.7359,323.2155C763.3076,323.215 762.8794,323.2149 762.4511,323.2125C761.8113,323.2095 761.1715,323.2078 760.5317,323.2069C759.8183,323.2064 759.1048,323.205 758.3915,323.2166L760.1385,322.0166z" stroke="#000" stroke-linecap="square" stroke-linejoin="round" stroke-width=".4767"/>
<path d="M719.8457,322.1798C720.3796,322.2474 720.9183,322.2687 721.4562,322.2847C721.9362,322.2962 722.4165,322.2963 722.8967,322.295C723.2931,322.2945 723.6896,322.2944 724.086,322.2934C724.8817,322.3139 725.678,322.3038 726.4739,322.3002C726.9549,322.2966 727.4358,322.2952 727.9167,322.2932C728.3003,322.2932 728.6838,322.2928 729.0673,322.2938C729.4705,322.2951 729.8737,322.2928 730.2769,322.2935C730.6407,322.2926 731.0045,322.2927 731.3683,322.2928C731.7327,322.2934 732.0971,322.293 732.4615,322.2923C732.8095,322.2935 733.1576,322.2924 733.5056,322.2919C733.8462,322.2933 734.1868,322.2923 734.5273,322.2918C734.8281,322.2914 735.1289,322.2913 735.4297,322.2912C735.6813,322.3497 735.9344,322.3918 736.1925,322.4121C736.4724,322.4293 736.7531,322.4294 737.0334,322.4301C737.3251,322.4303 737.6168,322.4297 737.9084,322.4294C738.0545,322.4293 738.2005,322.4292 738.3465,322.4292L736.5957,323.6319C736.4497,323.632 736.3037,323.6321 736.1577,323.6323C735.8657,323.6326 735.5737,323.6333 735.2817,323.6319C734.9965,323.6294 734.7107,323.6269 734.4268,323.5988C734.1762,323.5694 733.9308,323.5091 733.6789,323.4938C733.3787,323.4937 733.0785,323.4936 732.7784,323.4932C732.4379,323.4927 732.0973,323.4917 731.7568,323.4931C731.4092,323.4926 731.0616,323.4915 730.7139,323.4927C730.35,323.4919 729.9862,323.4916 729.6223,323.4922C729.2591,323.4923 728.8959,323.4924 728.5327,323.4915C728.1299,323.4921 727.727,323.4899 727.3241,323.4912C726.94,323.4922 726.5558,323.4918 726.1717,323.4918C725.6976,323.4898 725.2234,323.4884 724.7493,323.4848C723.9466,323.4812 723.1436,323.4716 722.341,323.4922C721.9452,323.4918 721.5495,323.4927 721.1537,323.4918C720.6752,323.4889 720.1967,323.4852 719.7184,323.4693C719.1708,323.4481 718.6237,323.4155 718.0784,323.3623L719.8457,322.1798z" stroke="#000" stroke-linecap="square" stroke-linejoin="round" stroke-width=".4767"/>
<path d="M681.3412,284.3665L681.3412,302.9098" fill="none" stroke="#000" stroke-linecap="round" stroke-width="4.8046"/>
<path d="M690.8652,282.6122L690.8652,301.1554" fill="none" stroke="#000" stroke-linecap="round" stroke-width="4.8046"/>
<path d="M699.8021,284.0765L699.8021,302.6197" fill="none" stroke="#000" stroke-linecap="round" stroke-width="4.8046"/>
<path d="M711.4789,282.9093L711.4789,301.4525" fill="none" stroke="#000" stroke-linecap="round" stroke-width="4.8046"/>
<path d="M721.6375,285.0959L721.6375,303.6391" fill="none" stroke="#000" stroke-linecap="round" stroke-width="4.8046"/>
<path d="M733.2668,284.9205L733.2668,303.4637" fill="none" stroke="#000" stroke-linecap="round" stroke-width="4.8046"/>
<path d="M743.7693,283.2063L743.7693,301.7495" fill="none" stroke="#000" stroke-linecap="round" stroke-width="4.8046"/>
<path d="M753.6847,286.2432L753.6847,304.7864" fill="none" stroke="#000" stroke-linecap="round" stroke-width="4.8046"/>
<path d="M764.3577,285.8745L764.3577,304.4178" fill="none" stroke="#000" stroke-linecap="round" stroke-width="4.8046"/>
<path d="M673.457,289.0967L673.457,307.64" fill="none" stroke="#000" stroke-linecap="round" stroke-width="4.8046"/>
<path d="M727.6205,361.4286L706.1919,352.8571C705.2133,356.6832 703.1766,355.5196 705.5916,358.7396C706.2143,359.5699 708.9409,364.2955 709.6322,364.2955C712.6627,364.2955 715.6931,364.2955 718.7236,364.2955C721.2181,364.2955 723.203,363.9903 725.2896,362.7803C726.0666,362.3297 726.8435,361.8791 727.6205,361.4286z" fill="none" stroke="#000"/>
</g>
</g>
</svg>
