<svg version="1.0" viewBox="0 0 900 450" xmlns="http://www.w3.org/2000/svg" xmlns:svg="http://www.w3.org/2000/svg">
<path d="M-336.8262,754.1928H-146.6172A7.5735,7.5735 0 0 1 -139.0437,761.7663V798.1193A7.5735,7.5735 0 0 1 -146.6172,805.6928H-336.8262A7.5735,7.5735 0 0 1 -344.3997,798.1193V761.7663A7.5735,7.5735 0 0 1 -336.8262,754.1928z" stroke="#000" stroke-linecap="round" stroke-linejoin="round" stroke-width="5.8088" transform="matrix(1,0,.87861,.47753,0,0)"/>
<path d="M47.763,80.0536H828.765A31.621,31.621 0 0 1 860.386,111.6746V360.0234A31.621,31.621 0 0 1 828.765,391.6444H47.763A31.621,31.621 0 0 1 16.142,360.0234V111.6746A31.621,31.621 0 0 1 47.763,80.0536z" fill="#fff" stroke="#000" stroke-linecap="round" stroke-width="7.4907"/>
<path d="M575.3837,76.739L575.3837,390.6294" fill="none" stroke="#000" stroke-width="5.6784"/>
<path d="M289.6736,76.0143L289.6736,389.9047" fill="none" stroke="#000" stroke-width="5.6784"/>
<path d="M838.6004,410.8773C839.0397,411.3875 839.6359,411.4487 840.2706,411.4846C841.0736,411.463 841.8778,411.2708 842.6281,410.9853C843.029,410.8327 843.2505,410.7028 843.6246,410.5064C841.3859,411.8161 842.6322,411.1146 843.0507,410.67C843.2676,410.4397 843.3971,410.197 843.5194,409.9094C843.8371,409.0144 843.8782,408.0521 843.9324,407.1124C844.038,405.7445 843.7549,404.4015 843.45,403.0772C843.0791,401.6842 842.5754,400.3306 842.0206,399.0015C841.755,398.3736 841.4546,397.7614 841.162,397.1459C840.7676,396.3893 840.445,396.8592 842.6723,395.9952C842.7491,395.9654 842.7642,396.1318 842.8134,396.1979C842.8958,396.3084 842.9823,396.4158 843.0668,396.5248C843.8885,397.6523 844.8766,398.6403 845.8669,399.6176C846.4495,400.185 847.0742,400.7117 847.6313,401.3049C847.8428,401.4776 847.9692,401.721 848.1393,401.9279C848.3055,402.078 848.4356,401.9199 848.5825,401.8172C846.0169,403.3557 846.9306,402.8584 847.4225,402.3867C847.6163,402.2009 847.7989,402.0024 847.9844,401.8086C848.2476,401.5459 848.4971,401.2647 848.7853,401.0282C849.5463,400.4037 850.6081,399.9047 851.395,399.4571C852.1221,399.1359 852.866,398.8565 853.6215,398.6103C853.7778,398.5764 854.3825,398.3439 854.5206,398.5011C854.5527,398.5376 854.5657,398.5873 854.5883,398.6304C854.5914,398.6745 854.6036,398.7189 854.5977,398.7627C854.5541,399.0824 854.0592,399.4543 853.8432,399.6531C852.8504,400.4739 851.8871,401.3276 850.9701,402.2323C850.1725,403.088 849.3485,403.9327 848.7135,404.9198C848.3214,405.5362 848.113,406.2169 848.0151,406.9342C847.9503,407.5756 847.9609,408.2215 847.9619,408.8653C847.997,409.5652 848.0863,410.2664 848.2947,410.9368C848.4141,411.2939 848.6265,411.5563 848.9664,411.7131C849.1919,411.7925 849.4501,411.8449 849.6902,411.7995C849.746,411.789 850.2118,411.6312 850.2491,411.6187C850.7982,411.319 852.1246,410.6182 849.6423,411.9785C849.5441,412.0324 849.8314,411.8584 849.9244,411.7962C850.1382,411.6531 850.1896,411.6111 850.3901,411.4615C850.6307,411.2815 850.5167,411.369 850.7325,411.1999L852.4516,410.5085C852.2338,410.6916 852.3504,410.6003 852.1,410.7804C851.0862,411.5632 849.9631,412.2112 848.7991,412.7415C848.2885,412.8939 847.9114,412.9669 847.414,412.7317C847.0478,412.5252 846.8085,412.2255 846.6798,411.8205C846.4756,411.1302 846.3986,410.4116 846.3316,409.6968C846.3277,409.0465 846.317,408.3946 846.3696,407.7459C846.4624,407.0027 846.6583,406.2934 847.058,405.6503C847.1382,405.5171 847.211,405.3792 847.2985,405.2507C847.4782,404.9867 847.7465,404.6845 847.9514,404.447C848.404,403.9223 848.8671,403.4068 849.3452,402.9051C850.2371,402.0055 851.1771,401.1553 852.1518,400.346C852.4279,400.0896 852.7136,399.8396 852.9519,399.5466C852.9915,399.5675 852.8641,399.5641 852.8198,399.5703C852.5988,399.6012 852.386,399.6698 852.1732,399.7344C851.4261,399.981 850.6866,400.2546 849.9773,400.5968C852.422,399.151 850.9521,399.9719 850.4744,400.3396C850.1833,400.5635 849.9343,400.84 849.6791,401.1017C848.7533,402.0783 848.7002,402.1817 847.134,402.9901C846.8773,403.1114 846.7339,403.097 846.5331,402.886C846.3746,402.6766 846.2477,402.443 846.0521,402.2628C845.5186,401.6603 844.9239,401.1135 844.3588,400.5415C843.378,399.5432 842.3821,398.5566 841.5092,397.4597C841.4154,397.3543 841.3215,397.2489 841.2278,397.1434C841.1758,397.0848 841.0125,397.0184 841.0719,396.9673C842.486,395.7534 842.406,395.4356 842.7713,396.237C843.0469,396.8651 843.3375,397.4869 843.5884,398.1256C844.1133,399.4785 844.5973,400.8487 844.9936,402.2453C845.3121,403.5755 845.6272,404.9267 845.5355,406.3052C845.4994,407.2537 845.4437,408.2196 845.1862,409.137C845.1016,409.3717 845.0723,409.4915 844.9372,409.7063C844.3433,410.6498 843.0625,411.0954 842.2206,411.631C841.1492,412.1575 840.0093,412.5299 838.8034,412.5353C838.6358,412.5218 838.4669,412.5195 838.3005,412.495C837.8049,412.4221 837.343,412.2055 837.0001,411.8381L838.6004,410.8773z" stroke="#000" stroke-linecap="round" stroke-linejoin="round" stroke-width=".2515"/>
<path d="M853.965,408.7205C853.2256,408.9276 851.623,409.917 854.4205,408.3161C854.0325,408.5226 853.8022,408.8587 853.6206,409.2463C853.517,409.5569 853.4064,409.8974 853.4289,410.2308C853.4445,410.4615 853.5045,410.5773 853.5829,410.7928C853.8901,411.3996 854.3624,411.8986 854.9229,412.2766C855.3365,412.5647 855.8067,412.6958 856.3059,412.7018C856.6911,412.6143 857.0489,412.4643 857.4016,412.2895C857.552,412.2149 857.9925,411.9716 857.8483,412.0575C856.1865,413.0467 856.6028,412.7797 857.1908,412.3769C857.675,412.004 858.2013,411.5713 858.326,410.937C858.3434,410.8484 858.3422,410.7572 858.3503,410.6672C858.3183,409.874 857.817,409.2529 857.3334,408.6664C857.0285,408.3271 856.6833,408.0036 856.2664,407.8054C856.0549,407.7049 855.9465,407.687 855.7224,407.6275C855.2705,407.6029 854.7969,407.6459 854.3679,407.8016C854.1695,407.8736 853.8689,408.041 853.6845,408.1384C856.1977,406.6307 854.551,407.6261 854.0326,408.0769L852.3221,408.7767C853.1181,408.0109 854.181,407.5598 855.1063,406.9998C855.3749,406.8692 855.5334,406.779 855.8204,406.6918C856.2772,406.5531 856.769,406.5207 857.2394,406.5901C857.4813,406.6673 857.5794,406.6867 857.8066,406.8078C858.2297,407.0333 858.5785,407.3757 858.8906,407.7333C859.3994,408.3597 859.9159,409.0089 859.9934,409.8427C859.9897,409.9439 859.9959,410.046 859.9822,410.1463C859.8894,410.8287 859.3818,411.3139 858.8656,411.717C857.8643,412.4357 858.3774,412.0879 856.4419,413.1842C855.9376,413.4698 855.386,413.7117 854.8068,413.7793C854.285,413.7332 853.7996,413.5794 853.3745,413.2627C852.7996,412.8434 852.3162,412.3141 851.9796,411.6833C851.901,411.4778 851.8118,411.2821 851.785,411.0604C851.7429,410.7132 851.8585,410.3484 851.9421,410.0175C852.1029,409.6089 852.307,409.2216 852.6912,408.9817C853.5944,408.4619 854.4395,407.8654 855.4469,407.5874L853.965,408.7205z" stroke="#000" stroke-linecap="round" stroke-linejoin="round" stroke-width=".2515"/>
<path d="M861.7611,409.475C861.4409,409.5774 861.1082,409.6653 860.8037,409.8112C860.7015,409.8602 860.6055,409.9213 860.5064,409.9763C860.9271,409.7407 861.3478,409.5052 861.7685,409.2696C861.2691,409.6066 860.8985,409.9434 860.6751,410.5082C860.5289,410.9734 860.599,411.3668 860.9674,411.711C861.0563,411.7941 861.1609,411.8587 861.2576,411.9325C861.9619,412.3371 862.7954,412.4819 863.602,412.3964C863.8332,412.3718 864.06,412.3158 864.289,412.2756C864.819,412.1387 865.0499,412.1007 865.5476,411.8918C865.7127,411.8224 866.1826,411.5613 866.0289,411.6531C863.7907,412.9896 864.8038,412.4073 865.1553,412.0515C865.2332,411.9726 865.2951,411.8793 865.365,411.7932C865.6716,411.3137 865.6794,410.8872 865.4635,410.3762C865.4239,410.2865 865.1955,409.8158 865.0344,409.9177C865.0066,409.9353 864.9924,409.9685 864.9714,409.994C867.5136,408.5443 866.5457,408.7867 866.2992,409.4932C866.1928,409.7981 866.1742,410.0946 866.1596,410.4147C866.3362,411.901 866.9928,413.2773 867.5322,414.6582C868.1881,416.4826 868.8203,418.3758 868.8931,420.3327C868.9076,420.7221 868.8697,421.1117 868.858,421.5013C868.7998,421.8758 868.7672,422.2552 868.6835,422.6249C868.4103,423.8307 867.7886,424.9346 866.8655,425.7618C866.7028,425.9077 866.5186,426.0276 866.3451,426.1605C865.651,426.5231 864.9907,426.9596 864.2627,427.2483C863.9609,427.368 863.2325,427.1183 862.9937,427.0119C862.1062,426.6162 861.3397,425.9664 860.5858,425.3712C859.3138,424.2824 858.0685,423.1467 856.9307,421.916C856.3412,421.2784 856.1955,421.0638 855.6834,420.4042C855.2477,419.6772 854.734,418.8342 855.1624,417.9772C855.4159,417.47 855.722,417.286 856.1466,416.9167C857.4194,416.092 857.5236,415.998 859.3662,415.065C859.8159,414.8372 861.2661,414.3223 861.7099,414.1674C862.595,413.8586 863.5468,413.5527 864.4368,413.2619C866.7749,412.5874 869.0649,411.766 871.3283,410.8755C871.5204,410.7938 871.7128,410.7127 871.9046,410.6304C872.0512,410.5676 872.1989,410.5071 872.3436,410.4401C872.6394,410.303 872.9157,410.1334 873.2209,410.0172C873.6347,409.9582 873.7798,410.4564 873.9037,410.759C874.189,411.5295 874.3497,412.3376 874.4191,413.1544C874.4362,413.5204 874.4481,413.8881 874.3963,414.2519C874.391,414.2891 874.4102,414.3469 874.3762,414.3628C873.8218,414.621 873.2429,414.8229 872.6762,415.053C872.6777,414.9404 872.6715,414.8274 872.6807,414.7152C872.694,414.5519 872.7221,414.3902 872.7437,414.2278C872.8694,413.2799 873.034,412.3447 873.2269,411.4082C873.4224,410.5914 873.5912,409.7359 874.0581,409.0229C874.5867,408.4694 875.7623,407.3782 876.3348,408.0133C876.3948,408.0799 876.4368,408.1606 876.4878,408.2342C876.5998,408.4323 876.6966,408.5827 876.7699,408.8022C876.976,409.4193 877.0685,410.1427 877.1776,410.7846C877.32,411.3401 877.2657,412.0053 877.4342,412.55C877.6571,411.9513 877.432,412.5777 875.8311,413.3411C875.7986,413.3566 875.88,413.2876 875.8982,413.2566C875.9399,413.1854 876.0215,412.9765 876.0533,412.9123C876.0966,412.8248 876.1461,412.7405 876.1926,412.6545C876.4937,412.172 876.7485,411.662 877.0803,411.1993C877.635,410.5043 878.1539,410.3526 879.1141,409.8249C879.147,409.8068 879.1913,409.8173 879.2267,409.8301C879.2717,409.8464 879.3067,409.8827 879.3467,409.909C879.7222,410.3039 879.8529,410.8628 879.9797,411.3772C880.0899,411.9372 880.1489,412.5084 880.3537,413.0441C880.4036,413.1143 880.4443,413.192 880.5033,413.2548C880.9332,413.7117 881.6441,414.0532 882.2303,414.239C882.4509,414.3089 882.6782,414.3556 882.9021,414.4139C883.8502,414.6505 884.8016,414.6623 885.7446,414.403C885.9534,414.3456 886.163,414.2858 886.3607,414.1976C886.5449,414.1155 886.7098,413.9957 886.8844,413.8947C886.5212,414.0821 886.1848,414.3344 885.7949,414.4569C885.6446,414.5041 886.0289,414.2451 886.1362,414.1297C886.4525,413.7896 886.6334,413.4114 886.7608,412.9715C886.8481,412.6051 886.8466,412.2287 886.8365,411.8549C886.7343,411.0833 886.0527,411.8427 888.4126,410.8843C888.4556,410.8669 888.3874,410.9738 888.3802,411.0196C888.3697,411.0863 888.3664,411.1538 888.3596,411.221C888.3261,411.8289 888.3122,412.4382 888.3797,413.0439C888.4485,413.4336 888.5231,413.8317 888.8285,414.1052C889.0434,414.2467 889.2714,414.2563 889.5088,414.1787C890.0801,413.8904 890.9375,413.3903 888.3399,414.8568C888.2478,414.9088 888.5182,414.7425 888.6057,414.6831L890.3347,413.9957C890.2009,414.1055 890.2252,414.0942 890.0715,414.1841C889.4874,414.5256 888.7641,415.096 888.0249,415.304C887.7364,415.3349 887.4674,415.2722 887.2418,415.0804C886.9278,414.753 886.8254,414.3356 886.7554,413.8954C886.6811,413.2827 886.696,412.6672 886.704,412.0509C886.7065,411.9686 886.7137,411.6826 886.7195,411.6788C887.9426,410.8664 888.3381,410.0975 888.4933,411.0056C888.502,411.3985 888.5025,411.7936 888.4204,412.1802C888.0178,413.7841 886.9548,414.1495 885.4935,415.0146C885.3138,415.1052 885.1417,415.2127 884.9544,415.2864C883.829,415.7296 882.6026,415.694 881.4449,415.4165C881.2136,415.3551 880.9788,415.306 880.7511,415.2325C880.1687,415.0445 879.3498,414.6425 878.9202,414.1907C878.8495,414.1162 878.7985,414.0252 878.7377,413.9425C878.5335,413.3963 878.4747,412.8174 878.3696,412.2465C878.2637,411.8041 878.1586,411.257 877.7931,410.95C877.7068,410.9608 877.7513,410.9478 877.6622,410.9971C878.1562,410.7039 878.6502,410.4106 879.1443,410.1174C879.186,410.0934 879.0678,410.1763 879.0327,410.2094C878.9447,410.2924 878.8734,410.3921 878.7784,410.4682C878.4238,410.9139 878.1681,411.4195 877.8719,411.9044C877.7606,412.0949 877.6686,412.2763 877.5977,412.4853C877.5833,412.5279 877.5993,412.5919 877.5608,412.615C875.889,413.6206 876.2598,414.0273 875.7932,413.4413C875.6529,412.8498 875.7248,412.2219 875.5881,411.6275C875.4544,410.7957 875.3515,409.9046 874.8993,409.1768C874.8207,409.0823 874.7869,408.9957 874.662,408.9726C874.6282,408.9663 874.5301,409.0008 874.5593,408.9825C875.044,408.6797 875.5474,408.4076 876.0374,408.1133C876.0814,408.0869 875.9413,408.1512 875.8978,408.1785C875.8465,408.2107 875.8025,408.2533 875.7549,408.2907C875.2037,408.9479 875.0374,409.8354 874.8145,410.6405C874.5634,411.8014 874.3479,412.9786 874.3124,414.1684C873.7711,414.5002 873.2407,414.8505 872.6884,415.1637C872.658,415.181 872.7186,415.1003 872.7284,415.0667C872.8295,414.7188 872.8007,414.3506 872.8007,413.9937C872.754,413.1952 872.6047,412.4011 872.2997,411.6585C872.2415,411.5242 872.1345,411.1348 871.931,411.1211C871.8837,411.1179 871.7971,411.1552 871.7595,411.1687C871.1575,411.4368 870.5727,411.7444 869.947,411.9587C867.7038,412.8024 865.4413,413.5932 863.1408,414.2679C861.8054,414.7097 860.4607,415.1367 859.1528,415.6565C858.7763,415.8061 858.4317,416.0523 858.0346,416.1327C857.8307,416.174 858.7358,415.6878 858.5488,415.7789C858.276,415.9117 858.0332,416.0989 857.7755,416.2589C857.294,416.6454 856.7037,417.0452 856.5896,417.7114C856.4773,418.3671 856.8949,418.9735 857.1774,419.5171C857.3521,419.7558 857.5183,420.0009 857.7014,420.2331C858.952,421.8191 860.4738,423.1799 862.023,424.4645C862.7831,425.032 863.5583,425.6665 864.4569,426.0107C864.6643,426.0901 864.8818,426.1503 865.1025,426.1748C865.2908,426.1958 865.772,425.9862 865.6701,426.1458C865.4577,426.4783 865.0192,426.5918 864.6938,426.8148C864.8759,426.6877 865.0687,426.5745 865.2402,426.4334C866.193,425.6495 866.8608,424.5673 867.1581,423.3713C867.2484,423.008 867.2837,422.6331 867.3465,422.264C867.3646,421.8799 867.4106,421.496 867.4008,421.1115C867.3514,419.1704 866.6929,417.2973 866.0296,415.4969C865.4668,414.1051 864.782,412.733 864.5369,411.2394C864.5287,410.8858 864.5373,410.6167 864.6229,410.2747C864.6277,410.2555 864.7227,409.915 864.7649,409.8859C865.3077,409.5121 865.8858,409.1922 866.4463,408.8454C866.4889,408.8488 866.5329,408.8443 866.5742,408.8556C866.839,408.928 866.9659,409.2566 867.0765,409.4713C867.3122,410.0278 867.3446,410.5229 867.0447,411.0696C866.9767,411.167 866.9179,411.2716 866.8406,411.3619C866.2885,412.0071 865.1842,412.4599 864.6223,412.7726C864.0848,413.0717 863.4665,413.1995 862.8753,413.338C862.6386,413.3735 862.4037,413.425 862.1652,413.4445C861.3132,413.514 860.4428,413.3611 859.7155,412.9037C859.611,412.8204 859.4985,412.7463 859.4022,412.6537C858.9949,412.2623 858.8677,411.8304 859.0025,411.2901C859.2057,410.644 859.5242,410.3313 860.0673,409.9336C861.1152,409.3145 862.0626,408.6316 863.2431,408.3418L861.7611,409.475z" stroke="#000" stroke-linecap="round" stroke-linejoin="round" stroke-width=".2515"/>
<path d="M887.1719,403.8253C886.9477,404.0885 886.7684,404.3897 886.6832,404.726C886.6221,405.0624 886.8228,405.1486 887.0986,405.2693C887.5448,405.4328 887.9263,405.4148 888.3833,405.334C888.9945,405.1245 889.965,404.5275 887.2485,406.0261C887.2103,406.0471 887.3208,405.977 887.353,405.9477C887.4297,405.8778 887.4374,405.8489 887.4875,405.7613C887.5798,405.5543 887.5708,405.3605 887.4519,405.1699C887.2938,405.0201 887.0562,405.0341 886.8522,405.0242C886.6415,405.0437 886.4408,405.0959 886.2696,405.2223L887.7244,404.0506C887.9316,403.9722 888.1435,403.9227 888.3673,403.9405C888.6336,403.9668 888.8955,404.0046 889.0682,404.2321C889.2088,404.4687 889.2644,404.7133 889.1831,404.9833C888.8884,405.8726 887.769,406.2321 886.903,406.4438C886.4415,406.5018 885.9853,406.4765 885.5515,406.2911C885.2396,406.1302 884.96,405.9288 885.0072,405.5384C885.0648,405.176 885.2416,404.8513 885.4539,404.5553L887.1719,403.8253z" stroke="#000" stroke-linecap="round" stroke-linejoin="round" stroke-width=".2515"/>
<path d="M863.3273,408.3571C863.681,408.1852 864.0186,407.9819 864.3835,407.8337C864.6121,407.6852 864.8629,407.6166 865.1304,407.5873C865.3764,407.5686 865.6234,407.5718 865.87,407.5726C866.1147,407.5466 866.322,407.6135 866.5369,407.7184C866.6874,407.839 866.8062,407.9993 866.9205,408.1542C867.0199,408.3347 867.0783,408.5373 867.1394,408.734C867.1942,408.9355 867.2689,409.1281 867.3084,409.334C867.3464,409.5758 867.349,409.8211 867.352,410.0653C867.3531,410.1912 867.3529,410.3171 867.3528,410.443L865.6908,411.2896C865.691,411.1644 865.6912,411.0391 865.6907,410.9138C865.6889,410.6795 865.6885,410.4443 865.6591,410.2114C865.6263,410.0106 865.5528,409.826 865.4994,409.6312C865.4475,409.4543 865.3916,409.274 865.3112,409.1091C865.2134,408.9808 865.1182,408.8344 864.9776,408.7513C864.7802,408.6655 864.5743,408.66 864.3609,408.6692C864.1195,408.6703 863.8766,408.6691 863.6378,408.7081C863.3851,408.7615 863.1575,408.8702 862.9275,408.9856C862.5697,409.152 862.2235,409.3428 861.8766,409.5308L863.3273,408.3571z" stroke="#000" stroke-linecap="round" stroke-linejoin="round" stroke-width=".2515"/>
<path d="M57.6902,44.7472H244.5685A15.9099,15.9099 0 0 1 260.4784,60.6571V60.6571A15.9099,15.9099 0 0 1 244.5685,76.567H57.6902A15.9099,15.9099 0 0 1 41.7803,60.6571V60.6571A15.9099,15.9099 0 0 1 57.6902,44.7472z" fill="#fff" stroke="#000" stroke-linecap="round" stroke-linejoin="round" stroke-width="4"/>
<path d="M101.5203,44.9288A36.8706,34.8503 0 1 1 27.7792,44.9288A36.8706,34.8503 0 1 1 101.5203,44.9288z" stroke="#000" stroke-linecap="round" stroke-linejoin="round" stroke-width="7.491" transform="matrix(.7121,0,0,.7121,-3.50602,22.37009)"/>
<text font-family="Bitstream Vera Sans" font-size="40" x="18.1432" y="68.4046">
   <tspan fill="#f9f9f9" x="18.1432" y="68.4046">45</tspan>
  </text>
<path d="M446.8915,78.4154A61.5183,5.3033 0 1 1 323.8549,78.4154A61.5183,5.3033 0 1 1 446.8915,78.4154z" stroke="#000" stroke-linecap="round" stroke-width="4.862" transform="translate(-263.646,233.08)"/>
<path d="M175.4854,224.6079L175.4854,272.4964C175.4854,292.5034 159.3786,308.6101 139.3716,308.6101L103.9376,308.6101C83.9306,308.6101 67.8239,292.5034 67.8239,272.4964L67.8239,224.6079" fill="#fff" stroke="#000" stroke-linecap="round" stroke-linejoin="round" stroke-width="3.6422"/>
<path d="M96.8719,244.4194H120.4059A.7803,.7803 0 0 1 121.1862,245.1997V255.2258A.7803,.7803 0 0 1 120.4059,256.0061H96.8719A.7803,.7803 0 0 1 96.0916,255.2258V245.1997A.7803,.7803 0 0 1 96.8719,244.4194z" stroke="#000" stroke-linecap="square" stroke-linejoin="round" stroke-width="3.7338"/>
<path d="M138.2628,244.4194H158.6757A2.3409,2.3409 0 0 1 161.0166,246.7603V253.6652A2.3409,2.3409 0 0 1 158.6757,256.0061H138.2628A2.3409,2.3409 0 0 1 135.922,253.6652V246.7603A2.3409,2.3409 0 0 1 138.2628,244.4194z" stroke="#000" stroke-linecap="square" stroke-linejoin="round" stroke-width="3.7338"/>
<path d="M70.1321,249.474C70.6813,249.4845 71.2306,249.4808 71.7799,249.478C72.1429,249.4759 72.5058,249.4745 72.8688,249.4738C73.1613,249.4734 73.4538,249.4734 73.7463,249.4734C74.0503,249.4728 74.3543,249.474 74.6584,249.4746C75.049,249.4649 75.4336,249.4742 75.8203,249.5253C76.22,249.5798 76.6234,249.597 77.0266,249.608C77.4318,249.5922 77.8294,249.6669 78.2306,249.707C78.6385,249.7438 79.0486,249.7477 79.458,249.7521C79.8881,249.7544 80.3183,249.7542 80.7484,249.7527C81.122,249.752 81.4956,249.7514 81.8692,249.7505C82.1762,249.7497 82.4833,249.7495 82.7903,249.7494C83.0818,249.7493 83.3733,249.7493 83.6648,249.7493C83.9563,249.7493 84.2479,249.7493 84.5394,249.7493C84.8581,249.7489 85.1768,249.7499 85.4955,249.7513C85.8897,249.7536 86.284,249.7517 86.6783,249.7507C87.0492,249.7504 87.42,249.7511 87.7909,249.7522C88.1877,249.752 88.5844,249.7521 88.9811,249.7511C89.3611,249.7513 89.741,249.7518 90.121,249.7512C90.4666,249.75 90.8122,249.7497 91.1577,249.7515C91.6909,249.7541 92.2241,249.7557 92.7573,249.7576C93.4839,249.7604 94.2106,249.761 94.9372,249.7586C95.4704,249.7572 96.0037,249.7534 96.5369,249.7531C96.9782,249.7538 97.4195,249.7531 97.8608,249.7516C97.9219,249.7514 97.983,249.7512 98.0441,249.751L96.2982,250.9503C96.2376,250.9501 96.1771,250.9499 96.1166,250.9497C95.6768,250.9482 95.2369,250.9476 94.7971,250.9482C94.2691,250.948 93.7412,250.9441 93.2132,250.9428C92.4856,250.9403 91.758,250.941 91.0304,250.9438C90.4913,250.9457 89.9522,250.9473 89.4131,250.9498C89.0673,250.9516 88.7215,250.9514 88.3757,250.9501C87.9955,250.9495 87.6154,250.9501 87.2353,250.9503C86.8396,250.9493 86.4439,250.9494 86.0482,250.9492C85.6759,250.9502 85.3036,250.951 84.9312,250.9507C84.5375,250.9496 84.1439,250.9477 83.7502,250.9501C83.4297,250.9515 83.1091,250.9524 82.7885,250.952C82.497,250.952 82.2054,250.952 81.9138,250.952C81.6224,250.952 81.331,250.952 81.0396,250.952C80.7336,250.9518 80.4276,250.9516 80.1216,250.951C79.7495,250.9503 79.3775,250.9502 79.0055,250.9501C78.5754,250.9493 78.1452,250.9508 77.7151,250.946C77.3003,250.9404 76.8848,250.9315 76.4723,250.8866C76.0755,250.842 75.6803,250.7894 75.2793,250.7996C74.8715,250.7845 74.4644,250.7561 74.06,250.7029C73.678,250.6624 73.2946,250.6737 72.9107,250.675C72.6055,250.6756 72.3004,250.6768 71.9952,250.6762C71.7031,250.6762 71.411,250.6762 71.1189,250.6758C70.7601,250.6751 70.4012,250.6737 70.0424,250.6715C69.4892,250.6688 68.9359,250.6653 68.3827,250.6756L70.1321,249.474z" stroke="#000" stroke-linecap="square" stroke-linejoin="round" stroke-width=".4767"/>
<path d="M161.6269,249.7507C162.3308,249.7625 163.0348,249.7609 163.7388,249.7604C164.384,249.7595 165.0292,249.7577 165.6744,249.7548C166.1056,249.7524 166.5368,249.7523 166.968,249.7518C167.3078,249.751 167.6476,249.7501 167.9874,249.7497C168.2842,249.7713 168.5694,249.6922 168.8612,249.6541C169.1538,249.62 169.4488,249.6151 169.7432,249.6116C170.0354,249.6095 170.3276,249.6104 170.6197,249.6107C170.9115,249.6112 171.2033,249.6113 171.4951,249.6114C171.7869,249.6114 172.0787,249.6114 172.3705,249.6114C172.6623,249.6114 172.954,249.6114 173.2458,249.6114C173.5591,249.6108 173.8724,249.6125 174.1857,249.6125C174.5029,249.6123 174.8202,249.6119 175.1374,249.6116C175.4312,249.6114 175.7251,249.6114 176.0189,249.6114C176.2132,249.6114 176.116,249.6114 176.3103,249.6114L174.5594,250.8141C174.3651,250.8141 174.4623,250.8141 174.268,250.8141C173.9744,250.8141 173.6807,250.814 173.3871,250.8139C173.0708,250.8136 172.7544,250.8132 172.4381,250.8129C172.1237,250.813 171.8093,250.8147 171.495,250.8141C171.2032,250.8141 170.9114,250.8141 170.6196,250.8141C170.3278,250.8141 170.036,250.8141 169.7442,250.814C169.4523,250.8138 169.1605,250.8136 168.8687,250.8132C168.5774,250.813 168.2861,250.8122 167.9949,250.8176C167.7055,250.825 167.4158,250.8371 167.1296,250.8811C166.8335,250.9264 166.539,250.9718 166.2375,250.9517C165.8997,250.9512 165.562,250.9504 165.2243,250.9495C164.796,250.949 164.3678,250.9489 163.9395,250.9465C163.2997,250.9436 162.6599,250.9418 162.02,250.9409C161.3067,250.9405 160.5932,250.9391 159.8799,250.9507L161.6269,249.7507z" stroke="#000" stroke-linecap="square" stroke-linejoin="round" stroke-width=".4767"/>
<path d="M121.3341,249.9139C121.868,249.9815 122.4066,250.0027 122.9445,250.0187C123.4246,250.0303 123.9049,250.0303 124.3851,250.0291C124.7815,250.0285 125.1779,250.0284 125.5743,250.0274C126.3701,250.0479 127.1663,250.0379 127.9623,250.0342C128.4432,250.0307 128.9241,250.0292 129.4051,250.0272C129.7886,250.0273 130.1721,250.0268 130.5557,250.0278C130.9589,250.0291 131.3621,250.0269 131.7653,250.0275C132.1291,250.0267 132.4929,250.0268 132.8567,250.0269C133.2211,250.0274 133.5855,250.0271 133.9498,250.0264C134.2979,250.0276 134.6459,250.0265 134.994,250.0259C135.3346,250.0273 135.6751,250.0264 136.0157,250.0259C136.3165,250.0254 136.6173,250.0253 136.9181,250.0252C137.1697,250.0837 137.4228,250.1258 137.6809,250.1462C137.9608,250.1634 138.2414,250.1634 138.5218,250.1642C138.8135,250.1644 139.1051,250.1638 139.3968,250.1635C139.5428,250.1634 139.6888,250.1633 139.8349,250.1632L138.084,251.366C137.9381,251.3661 137.7921,251.3662 137.6461,251.3663C137.3541,251.3666 137.062,251.3674 136.77,251.3659C136.4848,251.3635 136.1991,251.3609 135.9151,251.3328C135.6645,251.3035 135.4192,251.2431 135.1673,251.2278C134.8671,251.2278 134.5669,251.2277 134.2667,251.2272C133.9262,251.2267 133.5857,251.2258 133.2452,251.2272C132.8975,251.2266 132.5499,251.2255 132.2023,251.2267C131.8384,251.226 131.4745,251.2257 131.1106,251.2262C130.7475,251.2263 130.3843,251.2264 130.0211,251.2256C129.6182,251.2262 129.2153,251.224 128.8125,251.2252C128.4283,251.2263 128.0442,251.2258 127.6601,251.2259C127.186,251.2239 126.7118,251.2224 126.2377,251.2189C125.4349,251.2152 124.6319,251.2056 123.8293,251.2262C123.4336,251.2258 123.0378,251.2267 122.6421,251.2259C122.1636,251.223 121.6851,251.2192 121.2068,251.2033C120.6591,251.1822 120.1121,251.1495 119.5668,251.0963L121.3341,249.9139z" stroke="#000" stroke-linecap="square" stroke-linejoin="round" stroke-width=".4767"/>
<path d="M82.8296,212.1006L82.8296,230.6438" fill="none" stroke="#000" stroke-linecap="round" stroke-width="4.8046"/>
<path d="M92.3536,210.3462L92.3536,228.8895" fill="none" stroke="#000" stroke-linecap="round" stroke-width="4.8046"/>
<path d="M101.2905,211.8106L101.2905,230.3538" fill="none" stroke="#000" stroke-linecap="round" stroke-width="4.8046"/>
<path d="M112.9672,210.6433L112.9672,229.1866" fill="none" stroke="#000" stroke-linecap="round" stroke-width="4.8046"/>
<path d="M123.1259,212.8299L123.1259,231.3731" fill="none" stroke="#000" stroke-linecap="round" stroke-width="4.8046"/>
<path d="M134.7551,212.6545L134.7551,231.1978" fill="none" stroke="#000" stroke-linecap="round" stroke-width="4.8046"/>
<path d="M145.2577,210.9403L145.2577,229.4836" fill="none" stroke="#000" stroke-linecap="round" stroke-width="4.8046"/>
<path d="M155.1731,213.9772L155.1731,232.5205" fill="none" stroke="#000" stroke-linecap="round" stroke-width="4.8046"/>
<path d="M165.8461,213.6086L165.8461,232.1518" fill="none" stroke="#000" stroke-linecap="round" stroke-width="4.8046"/>
<path d="M113.2133,288.683L140.3362,284.2548" fill="none" stroke="#000" stroke-width=".7749"/>
<path d="M74.9454,216.8308L74.9454,235.374" fill="none" stroke="#000" stroke-linecap="round" stroke-width="4.8046"/>
<text font-family="Bitstream Vera Sans" font-size="20" x="124.0535" y="67.4242">
   <tspan x="124.0535" y="67.4242">Rush</tspan>
  </text>
<path d="M-516.3975,661.6663H-343.9835A18.0569,18.0569 0 0 1 -325.9266,679.7233V710.1452A18.0569,18.0569 0 0 1 -343.9835,728.2022H-516.3975A18.0569,18.0569 0 0 1 -534.4545,710.1452V679.7233A18.0569,18.0569 0 0 1 -516.3975,661.6663z" stroke="#000" stroke-linecap="round" stroke-linejoin="round" stroke-width="2.7184" transform="matrix(1,0,.84988,.52697,0,0)"/>
<path d="M100.5904,325.8173H108.2122A5.7163,5.7163 0 0 1 113.9285,331.5336V373.4531A5.7163,5.7163 0 0 1 108.2122,379.1694H100.5904A5.7163,5.7163 0 0 1 94.8741,373.4531V331.5336A5.7163,5.7163 0 0 1 100.5904,325.8173z" fill="#fff" stroke="#000" stroke-linecap="round" stroke-linejoin="round" stroke-width="5.0248"/>
<path d="M245.7844,325.8173H253.4062A5.7163,5.7163 0 0 1 259.1225,331.5336V373.4531A5.7163,5.7163 0 0 1 253.4062,379.1694H245.7844A5.7163,5.7163 0 0 1 240.0681,373.4531V331.5336A5.7163,5.7163 0 0 1 245.7844,325.8173z" fill="#fff" stroke="#000" stroke-linecap="round" stroke-linejoin="round" stroke-width="5.0248"/>
<path d="M213.7731,309.0495H221.3948A5.7163,5.7163 0 0 1 227.1111,314.7658V356.6853A5.7163,5.7163 0 0 1 221.3948,362.4016H213.7731A5.7163,5.7163 0 0 1 208.0568,356.6853V314.7658A5.7163,5.7163 0 0 1 213.7731,309.0495z" fill="#fff" stroke="#000" stroke-linecap="round" stroke-linejoin="round" stroke-width="5.0248"/>
<path d="M65.1493,304.4765H72.771A5.7163,5.7163 0 0 1 78.4873,310.1928V352.1123A5.7163,5.7163 0 0 1 72.771,357.8286H65.1493A5.7163,5.7163 0 0 1 59.433,352.1123V310.1928A5.7163,5.7163 0 0 1 65.1493,304.4765z" fill="#fff" stroke="#000" stroke-linecap="round" stroke-linejoin="round" stroke-width="5.0248"/>
<path d="M-429.2961,561.8703H-256.8821A18.0569,18.0569 0 0 1 -238.8251,579.9272V610.3492A18.0569,18.0569 0 0 1 -256.8821,628.4062H-429.2961A18.0569,18.0569 0 0 1 -447.353,610.3492V579.9272A18.0569,18.0569 0 0 1 -429.2961,561.8703z" fill="#fff" stroke="#000" stroke-linecap="round" stroke-linejoin="round" stroke-width="2.7184" transform="matrix(1,0,.84988,.52697,0,0)"/>
<path d="M-421.454,551.7461H-249.04A18.0569,18.0569 0 0 1 -230.9831,569.803V600.225A18.0569,18.0569 0 0 1 -249.04,618.282H-421.454A18.0569,18.0569 0 0 1 -439.511,600.225V569.803A18.0569,18.0569 0 0 1 -421.454,551.7461z" fill="#fff" stroke="#000" stroke-linecap="round" stroke-linejoin="round" stroke-width="2.7184" transform="matrix(1,0,.84988,.52697,0,0)"/>
<path d="M1761.4982,-1182.2065H1812.4091A9.4409,9.4409 0 0 1 1821.85,-1172.7656V-1148.9294A9.4409,9.4409 0 0 1 1812.4091,-1139.4885H1761.4982A9.4409,9.4409 0 0 1 1752.0573,-1148.9294V-1172.7656A9.4409,9.4409 0 0 1 1761.4982,-1182.2065z" fill="#fff" stroke="#000" stroke-linecap="round" stroke-linejoin="round" stroke-width="3.8211" transform="matrix(1.1239,0,1.02836,.55665,-654.85753,955.23979)"/>
<path d="M1769.5676,-1190.4218H1820.4785A9.4409,9.4409 0 0 1 1829.9194,-1180.9809V-1157.1447A9.4409,9.4409 0 0 1 1820.4785,-1147.7038H1769.5676A9.4409,9.4409 0 0 1 1760.1267,-1157.1447V-1180.9809A9.4409,9.4409 0 0 1 1769.5676,-1190.4218z" fill="#fff" stroke="#000" stroke-linecap="round" stroke-linejoin="round" stroke-width="3.8211" transform="matrix(1.1239,0,1.02836,.55665,-654.85753,955.23979)"/>
<path d="M469.2149,-567.1227H518.5548A9.8568,9.8568 0 0 1 528.4115,-557.266V-532.3799A9.8568,9.8568 0 0 1 518.5548,-522.5231H469.2149A9.8568,9.8568 0 0 1 459.3581,-532.3799V-557.266A9.8568,9.8568 0 0 1 469.2149,-567.1227z" fill="#fff" stroke="#000" stroke-linecap="round" stroke-linejoin="round" stroke-width="3.8836" transform="matrix(1.1239,0,-.53501,1.21333,-654.85753,955.23979)"/>
<text font-family="Bitstream Vera Sans" font-size="9.443" transform="matrix(.90256,0,-.52157,1.10796,0,0)" x="359.1933" y="270.899">
   <tspan x="359.1933" y="270.899">MSI</tspan>
  </text>
<path d="M529.2253,-432.7306A5.5243,5.2481 0 1 1 518.1767,-432.7306A5.5243,5.2481 0 1 1 529.2253,-432.7306z" fill="none" stroke="#000" stroke-linecap="round" stroke-linejoin="round" transform="matrix(1.78142,0,-1.12556,2.18684,-1227.3735,1242.0918)"/>
<path d="M446.8915,78.4154A61.5183,5.3033 0 1 1 323.8549,78.4154A61.5183,5.3033 0 1 1 446.8915,78.4154z" stroke="#000" stroke-linecap="round" stroke-width="4.862" transform="translate(9.0862,230.5557)"/>
<path d="M448.2176,222.0836L448.2176,269.972C448.2176,289.979 432.1109,306.0858 412.1039,306.0858L376.6698,306.0858C356.6628,306.0858 340.5561,289.979 340.5561,269.972L340.5561,222.0836" fill="#fff" stroke="#000" stroke-linecap="round" stroke-linejoin="round" stroke-width="3.6422"/>
<path d="M369.6041,241.895H393.1381A.7803,.7803 0 0 1 393.9184,242.6753V252.7014A.7803,.7803 0 0 1 393.1381,253.4817H369.6041A.7803,.7803 0 0 1 368.8238,252.7014V242.6753A.7803,.7803 0 0 1 369.6041,241.895z" stroke="#000" stroke-linecap="square" stroke-linejoin="round" stroke-width="3.7338"/>
<path d="M410.9951,241.895H431.4079A2.3409,2.3409 0 0 1 433.7488,244.2359V251.1408A2.3409,2.3409 0 0 1 431.4079,253.4817H410.9951A2.3409,2.3409 0 0 1 408.6542,251.1408V244.2359A2.3409,2.3409 0 0 1 410.9951,241.895z" stroke="#000" stroke-linecap="square" stroke-linejoin="round" stroke-width="3.7338"/>
<path d="M342.8643,246.9496C343.4135,246.9601 343.9629,246.9564 344.5121,246.9537C344.8751,246.9516 345.238,246.9502 345.601,246.9495C345.8935,246.949 346.186,246.9491 346.4785,246.9491C346.7825,246.9484 347.0866,246.9497 347.3906,246.9502C347.7812,246.9406 348.1658,246.9498 348.5526,247.0009C348.9522,247.0555 349.3557,247.0727 349.7588,247.0837C350.164,247.0679 350.5617,247.1425 350.9628,247.1827C351.3707,247.2195 351.7808,247.2234 352.1902,247.2277C352.6203,247.23 353.0505,247.2298 353.4806,247.2284C353.8542,247.2276 354.2278,247.2271 354.6014,247.2261C354.9085,247.2254 355.2155,247.2252 355.5225,247.225C355.814,247.225 356.1055,247.225 356.397,247.225C356.6886,247.225 356.9801,247.225 357.2716,247.225C357.5903,247.2246 357.909,247.2255 358.2277,247.2269C358.622,247.2293 359.0162,247.2274 359.4105,247.2263C359.7814,247.226 360.1523,247.2268 360.5231,247.2278C360.9199,247.2276 361.3166,247.2277 361.7133,247.2267C362.0933,247.2269 362.4733,247.2275 362.8532,247.2269C363.1988,247.2256 363.5444,247.2254 363.8899,247.2271C364.4232,247.2297 364.9563,247.2313 365.4895,247.2332C366.2162,247.236 366.9428,247.2366 367.6694,247.2342C368.2027,247.2329 368.7359,247.229 369.2692,247.2288C369.7104,247.2294 370.1517,247.2288 370.5931,247.2273C370.6542,247.2271 370.7153,247.2269 370.7763,247.2267L369.0304,248.426C368.9699,248.4258 368.9093,248.4256 368.8489,248.4254C368.409,248.4239 367.9692,248.4232 367.5293,248.4239C367.0013,248.4236 366.4734,248.4198 365.9454,248.4184C365.2178,248.416 364.4902,248.4166 363.7626,248.4194C363.2235,248.4213 362.6844,248.4229 362.1453,248.4255C361.7995,248.4272 361.4537,248.427 361.1079,248.4258C360.7278,248.4252 360.3476,248.4257 359.9675,248.4259C359.5718,248.4249 359.1762,248.425 358.7805,248.4248C358.4081,248.4259 358.0358,248.4266 357.6634,248.4264C357.2698,248.4253 356.8761,248.4233 356.4824,248.4257C356.1619,248.4271 355.8413,248.428 355.5207,248.4277C355.2292,248.4277 354.9376,248.4277 354.6461,248.4277C354.3546,248.4277 354.0632,248.4277 353.7718,248.4276C353.4658,248.4275 353.1598,248.4272 352.8538,248.4266C352.4818,248.426 352.1098,248.4258 351.7377,248.4258C351.3076,248.4249 350.8774,248.4265 350.4473,248.4217C350.0325,248.4161 349.617,248.4071 349.2045,248.3622C348.8077,248.3176 348.4125,248.265 348.0115,248.2753C347.6037,248.2601 347.1966,248.2318 346.7922,248.1785C346.4102,248.1381 346.0269,248.1493 345.6429,248.1507C345.3378,248.1512 345.0326,248.1524 344.7275,248.1518C344.4354,248.1518 344.1433,248.1519 343.8512,248.1514C343.4923,248.1508 343.1335,248.1493 342.7746,248.1472C342.2214,248.1444 341.6681,248.141 341.1149,248.1513L342.8643,246.9496z" stroke="#000" stroke-linecap="square" stroke-linejoin="round" stroke-width=".4767"/>
<path d="M434.3591,247.2263C435.063,247.2381 435.767,247.2365 436.471,247.236C437.1162,247.2352 437.7614,247.2334 438.4067,247.2305C438.8378,247.2281 439.269,247.228 439.7002,247.2275C440.04,247.2266 440.3798,247.2258 440.7196,247.2253C441.0164,247.247 441.3016,247.1678 441.5934,247.1297C441.886,247.0957 442.1811,247.0907 442.4755,247.0872C442.7676,247.0851 443.0598,247.086 443.3519,247.0864C443.6437,247.0868 443.9355,247.0869 444.2273,247.087C444.5191,247.0871 444.8109,247.0871 445.1027,247.0871C445.3945,247.0871 445.6863,247.0871 445.9781,247.0871C446.2914,247.0865 446.6046,247.0882 446.9179,247.0882C447.2351,247.0879 447.5524,247.0875 447.8696,247.0873C448.1635,247.0871 448.4573,247.0871 448.7511,247.0871C448.9454,247.087 448.8483,247.087 449.0426,247.087L447.2917,248.2897C447.0974,248.2897 447.1945,248.2897 447.0002,248.2897C446.7066,248.2897 446.413,248.2897 446.1194,248.2895C445.803,248.2893 445.4867,248.2888 445.1703,248.2886C444.8559,248.2886 444.5416,248.2903 444.2272,248.2897C443.9354,248.2897 443.6436,248.2897 443.3518,248.2897C443.06,248.2897 442.7682,248.2897 442.4764,248.2896C442.1846,248.2895 441.8927,248.2892 441.6009,248.2889C441.3096,248.2887 441.0183,248.2878 440.7271,248.2932C440.4377,248.3006 440.148,248.3127 439.8618,248.3568C439.5657,248.402 439.2713,248.4474 438.9697,248.4273C438.632,248.4269 438.2942,248.426 437.9565,248.4252C437.5282,248.4247 437.1,248.4246 436.6717,248.4222C436.0319,248.4193 435.3921,248.4175 434.7523,248.4166C434.0389,248.4161 433.3254,248.4147 432.6121,248.4263L434.3591,247.2263z" stroke="#000" stroke-linecap="square" stroke-linejoin="round" stroke-width=".4767"/>
<path d="M394.0663,247.3895C394.6002,247.4571 395.1389,247.4784 395.6768,247.4944C396.1568,247.5059 396.6371,247.506 397.1173,247.5047C397.5137,247.5042 397.9101,247.5041 398.3066,247.5031C399.1023,247.5236 399.8986,247.5135 400.6945,247.5099C401.1754,247.5063 401.6564,247.5049 402.1373,247.5029C402.5208,247.5029 402.9044,247.5025 403.2879,247.5035C403.6911,247.5048 404.0943,247.5025 404.4975,247.5032C404.8613,247.5023 405.2251,247.5024 405.5889,247.5025C405.9533,247.5031 406.3177,247.5027 406.6821,247.502C407.0301,247.5032 407.3782,247.5021 407.7262,247.5016C408.0668,247.503 408.4074,247.502 408.7479,247.5015C409.0487,247.5011 409.3495,247.501 409.6503,247.5009C409.9019,247.5594 410.155,247.6015 410.4131,247.6218C410.693,247.639 410.9737,247.6391 411.254,247.6398C411.5457,247.64 411.8373,247.6394 412.129,247.6391C412.275,247.639 412.4211,247.6389 412.5671,247.6389L410.8163,248.8416C410.6703,248.8417 410.5243,248.8418 410.3783,248.842C410.0863,248.8423 409.7942,248.843 409.5022,248.8416C409.217,248.8391 408.9313,248.8366 408.6473,248.8085C408.3968,248.7791 408.1514,248.7188 407.8995,248.7035C407.5993,248.7034 407.2991,248.7033 406.9989,248.7029C406.6584,248.7024 406.3179,248.7014 405.9774,248.7028C405.6298,248.7023 405.2821,248.7012 404.9345,248.7024C404.5706,248.7017 404.2067,248.7013 403.8429,248.7019C403.4797,248.702 403.1165,248.7021 402.7533,248.7012C402.3505,248.7019 401.9476,248.6996 401.5447,248.7009C401.1606,248.7019 400.7764,248.7015 400.3923,248.7015C399.9182,248.6995 399.444,248.6981 398.9699,248.6945C398.1671,248.6909 397.3641,248.6813 396.5616,248.7019C396.1658,248.7015 395.77,248.7023 395.3743,248.7015C394.8958,248.6986 394.4173,248.6949 393.939,248.679C393.3913,248.6578 392.8443,248.6252 392.299,248.572L394.0663,247.3895z" stroke="#000" stroke-linecap="square" stroke-linejoin="round" stroke-width=".4767"/>
<path d="M355.5618,209.5762L355.5618,228.1195" fill="none" stroke="#000" stroke-linecap="round" stroke-width="4.8046"/>
<path d="M365.0858,207.8219L365.0858,226.3651" fill="none" stroke="#000" stroke-linecap="round" stroke-width="4.8046"/>
<path d="M374.0227,209.2862L374.0227,227.8294" fill="none" stroke="#000" stroke-linecap="round" stroke-width="4.8046"/>
<path d="M385.6995,208.119L385.6995,226.6622" fill="none" stroke="#000" stroke-linecap="round" stroke-width="4.8046"/>
<path d="M395.8581,210.3056L395.8581,228.8488" fill="none" stroke="#000" stroke-linecap="round" stroke-width="4.8046"/>
<path d="M407.4874,210.1302L407.4874,228.6734" fill="none" stroke="#000" stroke-linecap="round" stroke-width="4.8046"/>
<path d="M417.9899,208.416L417.9899,226.9592" fill="none" stroke="#000" stroke-linecap="round" stroke-width="4.8046"/>
<path d="M427.9053,211.4529L427.9053,229.9961" fill="none" stroke="#000" stroke-linecap="round" stroke-width="4.8046"/>
<path d="M438.5783,211.0842L438.5783,229.6275" fill="none" stroke="#000" stroke-linecap="round" stroke-width="4.8046"/>
<path d="M385.9455,286.1587L413.0685,281.7305" fill="none" stroke="#000" stroke-width=".7749"/>
<path d="M347.6776,214.3065L347.6776,232.8497" fill="none" stroke="#000" stroke-linecap="round" stroke-width="4.8046"/>
<path d="M-241.5941,656.8761H-69.1801A18.0569,18.0569 0 0 1 -51.1232,674.933V705.355A18.0569,18.0569 0 0 1 -69.1801,723.412H-241.5941A18.0569,18.0569 0 0 1 -259.6511,705.355V674.933A18.0569,18.0569 0 0 1 -241.5941,656.8761z" stroke="#000" stroke-linecap="round" stroke-linejoin="round" stroke-width="2.7184" transform="matrix(1,0,.84988,.52697,0,0)"/>
<path d="M371.3226,323.293H378.9444A5.7163,5.7163 0 0 1 384.6607,329.0093V370.9288A5.7163,5.7163 0 0 1 378.9444,376.6451H371.3226A5.7163,5.7163 0 0 1 365.6064,370.9288V329.0093A5.7163,5.7163 0 0 1 371.3226,323.293z" fill="#fff" stroke="#000" stroke-linecap="round" stroke-linejoin="round" stroke-width="5.0248"/>
<path d="M516.5166,323.293H524.1384A5.7163,5.7163 0 0 1 529.8547,329.0093V370.9288A5.7163,5.7163 0 0 1 524.1384,376.6451H516.5166A5.7163,5.7163 0 0 1 510.8003,370.9288V329.0093A5.7163,5.7163 0 0 1 516.5166,323.293z" fill="#fff" stroke="#000" stroke-linecap="round" stroke-linejoin="round" stroke-width="5.0248"/>
<path d="M484.5053,306.5251H492.1271A5.7163,5.7163 0 0 1 497.8434,312.2414V354.161A5.7163,5.7163 0 0 1 492.1271,359.8773H484.5053A5.7163,5.7163 0 0 1 478.789,354.161V312.2414A5.7163,5.7163 0 0 1 484.5053,306.5251z" fill="#fff" stroke="#000" stroke-linecap="round" stroke-linejoin="round" stroke-width="5.0248"/>
<path d="M335.8815,301.9522H343.5032A5.7163,5.7163 0 0 1 349.2195,307.6684V349.588A5.7163,5.7163 0 0 1 343.5032,355.3043H335.8815A5.7163,5.7163 0 0 1 330.1652,349.588V307.6684A5.7163,5.7163 0 0 1 335.8815,301.9522z" fill="#fff" stroke="#000" stroke-linecap="round" stroke-linejoin="round" stroke-width="5.0248"/>
<path d="M-154.4927,557.08H17.9213A18.0569,18.0569 0 0 1 35.9783,575.137V605.559A18.0569,18.0569 0 0 1 17.9213,623.6159H-154.4927A18.0569,18.0569 0 0 1 -172.5496,605.559V575.137A18.0569,18.0569 0 0 1 -154.4927,557.08z" fill="#fff" stroke="#000" stroke-linecap="round" stroke-linejoin="round" stroke-width="2.7184" transform="matrix(1,0,.84988,.52697,0,0)"/>
<path d="M-146.6506,546.9558H25.7634A18.0569,18.0569 0 0 1 43.8203,565.0127V595.4347A18.0569,18.0569 0 0 1 25.7634,613.4917H-146.6506A18.0569,18.0569 0 0 1 -164.7076,595.4347V565.0127A18.0569,18.0569 0 0 1 -146.6506,546.9558z" fill="#fff" stroke="#000" stroke-linecap="round" stroke-linejoin="round" stroke-width="2.7184" transform="matrix(1,0,.84988,.52697,0,0)"/>
<path d="M1761.4982,-1182.2065H1812.4091A9.4409,9.4409 0 0 1 1821.85,-1172.7656V-1148.9294A9.4409,9.4409 0 0 1 1812.4091,-1139.4885H1761.4982A9.4409,9.4409 0 0 1 1752.0573,-1148.9294V-1172.7656A9.4409,9.4409 0 0 1 1761.4982,-1182.2065z" fill="#fff" stroke="#000" stroke-linecap="round" stroke-linejoin="round" stroke-width="3.8211" transform="matrix(1.1239,0,1.02836,.55665,-384.12531,952.71544)"/>
<path d="M1769.5676,-1190.4218H1820.4785A9.4409,9.4409 0 0 1 1829.9194,-1180.9809V-1157.1447A9.4409,9.4409 0 0 1 1820.4785,-1147.7038H1769.5676A9.4409,9.4409 0 0 1 1760.1267,-1157.1447V-1180.9809A9.4409,9.4409 0 0 1 1769.5676,-1190.4218z" fill="#fff" stroke="#000" stroke-linecap="round" stroke-linejoin="round" stroke-width="3.8211" transform="matrix(1.1239,0,1.02836,.55665,-384.12531,952.71544)"/>
<path d="M469.2149,-567.1227H518.5548A9.8568,9.8568 0 0 1 528.4115,-557.266V-532.3799A9.8568,9.8568 0 0 1 518.5548,-522.5231H469.2149A9.8568,9.8568 0 0 1 459.3581,-532.3799V-557.266A9.8568,9.8568 0 0 1 469.2149,-567.1227z" fill="#fff" stroke="#000" stroke-linecap="round" stroke-linejoin="round" stroke-width="3.8836" transform="matrix(1.1239,0,-.53501,1.21333,-384.12531,952.71544)"/>
<text font-family="Bitstream Vera Sans" font-size="9.443" transform="matrix(.90256,0,-.52157,1.10796,0,0)" x="657.8379" y="268.6207">
   <tspan x="657.8379" y="268.6207">MSI</tspan>
  </text>
<path d="M529.2253,-432.7306A5.5243,5.2481 0 1 1 518.1767,-432.7306A5.5243,5.2481 0 1 1 529.2253,-432.7306z" fill="none" stroke="#000" stroke-linecap="round" stroke-linejoin="round" transform="matrix(1.78142,0,-1.12556,2.18684,-956.64127,1239.5675)"/>
<path d="M446.8915,78.4154A61.5183,5.3033 0 1 1 323.8549,78.4154A61.5183,5.3033 0 1 1 446.8915,78.4154z" stroke="#000" stroke-linecap="round" stroke-width="4.862" transform="translate(289.9086,232.576)"/>
<path d="M729.04,224.1039L729.04,271.9923C729.04,291.9993 712.9333,308.1061 692.9263,308.1061L657.4922,308.1061C637.4852,308.1061 621.3785,291.9993 621.3785,271.9923L621.3785,224.1039" fill="#fff" stroke="#000" stroke-linecap="round" stroke-linejoin="round" stroke-width="3.6422"/>
<path d="M650.4265,243.9154H673.9605A.7803,.7803 0 0 1 674.7408,244.6956V254.7217A.7803,.7803 0 0 1 673.9605,255.502H650.4265A.7803,.7803 0 0 1 649.6462,254.7217V244.6956A.7803,.7803 0 0 1 650.4265,243.9154z" stroke="#000" stroke-linecap="square" stroke-linejoin="round" stroke-width="3.7338"/>
<path d="M691.8175,243.9154H712.2304A2.3409,2.3409 0 0 1 714.5712,246.2562V253.1612A2.3409,2.3409 0 0 1 712.2304,255.502H691.8175A2.3409,2.3409 0 0 1 689.4766,253.1612V246.2562A2.3409,2.3409 0 0 1 691.8175,243.9154z" stroke="#000" stroke-linecap="square" stroke-linejoin="round" stroke-width="3.7338"/>
<path d="M623.6867,248.97C624.2359,248.9804 624.7853,248.9767 625.3345,248.974C625.6975,248.9719 626.0605,248.9705 626.4234,248.9698C626.7159,248.9693 627.0084,248.9694 627.3009,248.9694C627.6049,248.9688 627.909,248.97 628.213,248.9705C628.6036,248.9609 628.9882,248.9702 629.375,249.0213C629.7746,249.0758 630.1781,249.093 630.5812,249.104C630.9864,249.0882 631.3841,249.1628 631.7852,249.203C632.1931,249.2398 632.6032,249.2437 633.0126,249.248C633.4427,249.2503 633.8729,249.2501 634.303,249.2487C634.6766,249.2479 635.0502,249.2474 635.4238,249.2465C635.7309,249.2457 636.0379,249.2455 636.3449,249.2453C636.6364,249.2453 636.9279,249.2453 637.2194,249.2453C637.511,249.2453 637.8025,249.2453 638.094,249.2453C638.4127,249.2449 638.7314,249.2458 639.0501,249.2472C639.4444,249.2496 639.8386,249.2477 640.2329,249.2466C640.6038,249.2463 640.9747,249.2471 641.3456,249.2481C641.7423,249.2479 642.139,249.248 642.5357,249.247C642.9157,249.2472 643.2957,249.2478 643.6756,249.2472C644.0212,249.2459 644.3668,249.2457 644.7124,249.2474C645.2456,249.2501 645.7787,249.2516 646.3119,249.2535C647.0386,249.2563 647.7652,249.2569 648.4919,249.2545C649.0251,249.2532 649.5583,249.2493 650.0916,249.2491C650.5329,249.2497 650.9742,249.2491 651.4155,249.2476C651.4766,249.2474 651.5377,249.2472 651.5987,249.247L649.8528,250.4463C649.7923,250.4461 649.7318,250.4459 649.6713,250.4457C649.2314,250.4442 648.7916,250.4435 648.3517,250.4442C647.8237,250.444 647.2958,250.4401 646.7678,250.4387C646.0402,250.4363 645.3126,250.4369 644.585,250.4397C644.0459,250.4416 643.5068,250.4432 642.9678,250.4458C642.6219,250.4475 642.2761,250.4474 641.9303,250.4461C641.5502,250.4455 641.17,250.446 640.7899,250.4462C640.3942,250.4452 639.9986,250.4453 639.6029,250.4452C639.2305,250.4462 638.8582,250.4469 638.4858,250.4467C638.0922,250.4456 637.6985,250.4437 637.3048,250.446C636.9843,250.4474 636.6637,250.4484 636.3431,250.448C636.0516,250.448 635.76,250.448 635.4685,250.448C635.1771,250.448 634.8856,250.448 634.5942,250.4479C634.2882,250.4478 633.9822,250.4476 633.6762,250.4469C633.3042,250.4463 632.9322,250.4461 632.5601,250.4461C632.13,250.4452 631.6998,250.4468 631.2697,250.442C630.8549,250.4364 630.4394,250.4274 630.0269,250.3825C629.6302,250.338 629.2349,250.2853 628.8339,250.2956C628.4261,250.2804 628.019,250.2521 627.6146,250.1988C627.2326,250.1584 626.8493,250.1696 626.4653,250.171C626.1602,250.1715 625.855,250.1728 625.5499,250.1721C625.2578,250.1721 624.9657,250.1722 624.6736,250.1717C624.3147,250.1711 623.9559,250.1696 623.597,250.1675C623.0438,250.1647 622.4905,250.1613 621.9373,250.1716L623.6867,248.97z" stroke="#000" stroke-linecap="square" stroke-linejoin="round" stroke-width=".4767"/>
<path d="M715.1815,249.2466C715.8854,249.2584 716.5895,249.2568 717.2934,249.2563C717.9386,249.2555 718.5838,249.2537 719.2291,249.2508C719.6602,249.2484 720.0914,249.2483 720.5226,249.2478C720.8624,249.2469 721.2022,249.2461 721.542,249.2456C721.8388,249.2673 722.1241,249.1882 722.4158,249.15C722.7084,249.116 723.0035,249.1111 723.2979,249.1076C723.59,249.1054 723.8822,249.1063 724.1744,249.1067C724.4661,249.1071 724.7579,249.1072 725.0497,249.1073C725.3415,249.1074 725.6333,249.1074 725.9251,249.1074C726.2169,249.1074 726.5087,249.1074 726.8005,249.1074C727.1138,249.1068 727.427,249.1085 727.7403,249.1085C728.0575,249.1082 728.3748,249.1078 728.692,249.1076C728.9859,249.1074 729.2797,249.1074 729.5735,249.1074C729.7678,249.1073 729.6707,249.1073 729.865,249.1073L728.1141,250.31C727.9198,250.31 728.0169,250.31 727.8226,250.31C727.529,250.31 727.2354,250.31 726.9418,250.3098C726.6254,250.3096 726.3091,250.3091 725.9927,250.3089C725.6783,250.3089 725.364,250.3106 725.0496,250.31C724.7578,250.31 724.466,250.31 724.1742,250.31C723.8824,250.31 723.5906,250.31 723.2988,250.3099C723.007,250.3098 722.7151,250.3096 722.4233,250.3092C722.1321,250.309 721.8407,250.3082 721.5495,250.3135C721.2602,250.3209 720.9704,250.333 720.6842,250.3771C720.3881,250.4223 720.0937,250.4677 719.7921,250.4476C719.4544,250.4472 719.1166,250.4463 718.7789,250.4455C718.3506,250.445 717.9224,250.4449 717.4941,250.4425C716.8543,250.4396 716.2145,250.4378 715.5747,250.4369C714.8613,250.4364 714.1478,250.435 713.4345,250.4466L715.1815,249.2466z" stroke="#000" stroke-linecap="square" stroke-linejoin="round" stroke-width=".4767"/>
<path d="M674.8887,249.4098C675.4226,249.4774 675.9613,249.4987 676.4992,249.5147C676.9792,249.5263 677.4595,249.5263 677.9397,249.525C678.3361,249.5245 678.7325,249.5244 679.129,249.5234C679.9247,249.5439 680.721,249.5338 681.5169,249.5302C681.9978,249.5266 682.4788,249.5252 682.9597,249.5232C683.3432,249.5232 683.7268,249.5228 684.1103,249.5238C684.5135,249.5251 684.9167,249.5229 685.3199,249.5235C685.6837,249.5226 686.0475,249.5227 686.4113,249.5228C686.7757,249.5234 687.1401,249.5231 687.5045,249.5223C687.8525,249.5235 688.2006,249.5224 688.5486,249.5219C688.8892,249.5233 689.2298,249.5223 689.5703,249.5218C689.8711,249.5214 690.1719,249.5213 690.4727,249.5212C690.7243,249.5797 690.9774,249.6218 691.2355,249.6421C691.5154,249.6593 691.7961,249.6594 692.0764,249.6601C692.3681,249.6603 692.6598,249.6597 692.9514,249.6594C693.0974,249.6593 693.2435,249.6592 693.3895,249.6592L691.6387,250.8619C691.4927,250.862 691.3467,250.8621 691.2007,250.8623C690.9087,250.8626 690.6167,250.8633 690.3246,250.8619C690.0395,250.8595 689.7537,250.8569 689.4697,250.8288C689.2192,250.7994 688.9738,250.7391 688.7219,250.7238C688.4217,250.7237 688.1215,250.7236 687.8214,250.7232C687.4808,250.7227 687.1403,250.7217 686.7998,250.7231C686.4522,250.7226 686.1046,250.7215 685.7569,250.7227C685.393,250.722 685.0292,250.7216 684.6653,250.7222C684.3021,250.7223 683.9389,250.7224 683.5757,250.7215C683.1729,250.7222 682.77,250.7199 682.3671,250.7212C681.983,250.7222 681.5988,250.7218 681.2147,250.7218C680.7406,250.7198 680.2664,250.7184 679.7923,250.7148C678.9896,250.7112 678.1865,250.7016 677.384,250.7222C676.9882,250.7218 676.5924,250.7227 676.1967,250.7218C675.7182,250.719 675.2397,250.7152 674.7614,250.6993C674.2138,250.6781 673.6667,250.6455 673.1214,250.5923L674.8887,249.4098z" stroke="#000" stroke-linecap="square" stroke-linejoin="round" stroke-width=".4767"/>
<path d="M636.3842,211.5965L636.3842,230.1398" fill="none" stroke="#000" stroke-linecap="round" stroke-width="4.8046"/>
<path d="M645.9082,209.8422L645.9082,228.3854" fill="none" stroke="#000" stroke-linecap="round" stroke-width="4.8046"/>
<path d="M654.8451,211.3065L654.8451,229.8497" fill="none" stroke="#000" stroke-linecap="round" stroke-width="4.8046"/>
<path d="M666.5219,210.1393L666.5219,228.6825" fill="none" stroke="#000" stroke-linecap="round" stroke-width="4.8046"/>
<path d="M676.6805,212.3259L676.6805,230.8691" fill="none" stroke="#000" stroke-linecap="round" stroke-width="4.8046"/>
<path d="M688.3098,212.1505L688.3098,230.6937" fill="none" stroke="#000" stroke-linecap="round" stroke-width="4.8046"/>
<path d="M698.8123,210.4363L698.8123,228.9795" fill="none" stroke="#000" stroke-linecap="round" stroke-width="4.8046"/>
<path d="M708.7277,213.4732L708.7277,232.0164" fill="none" stroke="#000" stroke-linecap="round" stroke-width="4.8046"/>
<path d="M719.4007,213.1045L719.4007,231.6478" fill="none" stroke="#000" stroke-linecap="round" stroke-width="4.8046"/>
<path d="M628.5,216.3268L628.5,234.87" fill="none" stroke="#000" stroke-linecap="round" stroke-width="4.8046"/>
<path d="M35.97,660.7099H208.384A18.0569,18.0569 0 0 1 226.441,678.7668V709.1888A18.0569,18.0569 0 0 1 208.384,727.2458H35.97A18.0569,18.0569 0 0 1 17.9131,709.1888V678.7668A18.0569,18.0569 0 0 1 35.97,660.7099z" stroke="#000" stroke-linecap="round" stroke-linejoin="round" stroke-width="2.7184" transform="matrix(1,0,.84988,.52697,0,0)"/>
<path d="M652.1451,325.3133H659.7668A5.7163,5.7163 0 0 1 665.4831,331.0296V372.9491A5.7163,5.7163 0 0 1 659.7668,378.6654H652.1451A5.7163,5.7163 0 0 1 646.4288,372.9491V331.0296A5.7163,5.7163 0 0 1 652.1451,325.3133z" fill="#fff" stroke="#000" stroke-linecap="round" stroke-linejoin="round" stroke-width="5.0248"/>
<path d="M797.339,325.3133H804.9608A5.7163,5.7163 0 0 1 810.6771,331.0296V372.9491A5.7163,5.7163 0 0 1 804.9608,378.6654H797.339A5.7163,5.7163 0 0 1 791.6227,372.9491V331.0296A5.7163,5.7163 0 0 1 797.339,325.3133z" fill="#fff" stroke="#000" stroke-linecap="round" stroke-linejoin="round" stroke-width="5.0248"/>
<path d="M765.3277,308.5455H772.9495A5.7163,5.7163 0 0 1 778.6658,314.2618V356.1813A5.7163,5.7163 0 0 1 772.9495,361.8976H765.3277A5.7163,5.7163 0 0 1 759.6114,356.1813V314.2618A5.7163,5.7163 0 0 1 765.3277,308.5455z" fill="#fff" stroke="#000" stroke-linecap="round" stroke-linejoin="round" stroke-width="5.0248"/>
<path d="M616.7039,303.9724H624.3256A5.7163,5.7163 0 0 1 630.0419,309.6887V351.6083A5.7163,5.7163 0 0 1 624.3256,357.3246H616.7039A5.7163,5.7163 0 0 1 610.9876,351.6083V309.6887A5.7163,5.7163 0 0 1 616.7039,303.9724z" fill="#fff" stroke="#000" stroke-linecap="round" stroke-linejoin="round" stroke-width="5.0248"/>
<path d="M123.0715,560.9138H295.4855A18.0569,18.0569 0 0 1 313.5424,578.9708V609.3928A18.0569,18.0569 0 0 1 295.4855,627.4497H123.0715A18.0569,18.0569 0 0 1 105.0145,609.3928V578.9708A18.0569,18.0569 0 0 1 123.0715,560.9138z" fill="#fff" stroke="#000" stroke-linecap="round" stroke-linejoin="round" stroke-width="2.7184" transform="matrix(1,0,.84988,.52697,0,0)"/>
<path d="M130.9135,550.7896H303.3275A18.0569,18.0569 0 0 1 321.3845,568.8465V599.2685A18.0569,18.0569 0 0 1 303.3275,617.3255H130.9135A18.0569,18.0569 0 0 1 112.8566,599.2685V568.8465A18.0569,18.0569 0 0 1 130.9135,550.7896z" fill="#fff" stroke="#000" stroke-linecap="round" stroke-linejoin="round" stroke-width="2.7184" transform="matrix(1,0,.84988,.52697,0,0)"/>
<path d="M1761.4982,-1182.2065H1812.4091A9.4409,9.4409 0 0 1 1821.85,-1172.7656V-1148.9294A9.4409,9.4409 0 0 1 1812.4091,-1139.4885H1761.4982A9.4409,9.4409 0 0 1 1752.0573,-1148.9294V-1172.7656A9.4409,9.4409 0 0 1 1761.4982,-1182.2065z" fill="#fff" stroke="#000" stroke-linecap="round" stroke-linejoin="round" stroke-width="3.8211" transform="matrix(1.1239,0,1.02836,.55665,-103.30289,954.73575)"/>
<path d="M1769.5676,-1190.4218H1820.4785A9.4409,9.4409 0 0 1 1829.9194,-1180.9809V-1157.1447A9.4409,9.4409 0 0 1 1820.4785,-1147.7038H1769.5676A9.4409,9.4409 0 0 1 1760.1267,-1157.1447V-1180.9809A9.4409,9.4409 0 0 1 1769.5676,-1190.4218z" fill="#fff" stroke="#000" stroke-linecap="round" stroke-linejoin="round" stroke-width="3.8211" transform="matrix(1.1239,0,1.02836,.55665,-103.30289,954.73575)"/>
<path d="M469.2149,-567.1227H518.5548A9.8568,9.8568 0 0 1 528.4115,-557.266V-532.3799A9.8568,9.8568 0 0 1 518.5548,-522.5231H469.2149A9.8568,9.8568 0 0 1 459.3581,-532.3799V-557.266A9.8568,9.8568 0 0 1 469.2149,-567.1227z" fill="#fff" stroke="#000" stroke-linecap="round" stroke-linejoin="round" stroke-width="3.8836" transform="matrix(1.1239,0,-.53501,1.21333,-103.30289,954.73575)"/>
<text font-family="Bitstream Vera Sans" font-size="9.443" transform="matrix(.90256,0,-.52157,1.10796,0,0)" x="970.0324" y="270.4441">
   <tspan x="970.0324" y="270.4441">MSI</tspan>
  </text>
<path d="M529.2253,-432.7306A5.5243,5.2481 0 1 1 518.1767,-432.7306A5.5243,5.2481 0 1 1 529.2253,-432.7306z" fill="none" stroke="#000" stroke-linecap="round" stroke-linejoin="round" transform="matrix(1.78142,0,-1.12556,2.18684,-675.81885,1241.5878)"/>
<path d="M221.1138,240.2748L201.9209,257.4474" fill="none" stroke="#000"/>
<path d="M399.8702,181.7469L392.7991,201.95" fill="none" stroke="#000"/>
<path d="M693.8652,176.6352L686.7941,204.9195" fill="none" stroke="#000"/>
<text font-family="Bitstream Vera Sans" font-size="20" x="209.9818" y="235.0413">
   <tspan x="209.9818" y="235.0413">*F5*</tspan>
  </text>
<text font-family="Bitstream Vera Sans" font-size="20" x="435.2661" y="150.3713">
   <tspan text-align="center" text-anchor="middle" x="435.2661" y="150.3713">Oh tiens un nouvel</tspan>
   <tspan text-align="center" text-anchor="middle" x="435.2661" y="175.3713">article !</tspan>
   <tspan text-align="center" text-anchor="middle" x="435.2661" y="200.3713"></tspan>
  </text>
<text font-family="Bitstream Vera Sans" font-size="20" x="142.3219" y="167.5438">
   <tspan text-align="center" text-anchor="middle" x="142.3219" y="167.5438">Hmm...</tspan>
  </text>
<path d="M134.2407,181.686L128.1798,201.889" fill="none" stroke="#000"/>
<text font-family="Bitstream Vera Sans" font-size="20" x="656.4895" y="155.422">
   <tspan x="656.4895" y="155.422"></tspan>
  </text>
<path d="M96.9746,91.3958H195.9696V127.7613H96.9746z" fill="#fff" stroke="#000" stroke-linecap="round" stroke-linejoin="round" stroke-width="3"/>
<text font-family="Bitstream Vera Sans" font-size="20" x="100.0457" y="120.6903">
    <tspan font-size="32" x="100.0457" y="120.6903">05:42</tspan>
   </text>
<text font-family="Bitstream Vera Sans" font-size="20" x="718.2185" y="115.6395">
   <tspan text-align="center" text-anchor="middle" x="718.2185" y="115.6395">Oui oui, la soutenance</tspan>
   <tspan text-align="center" text-anchor="middle" x="718.2185" y="140.6395">du projet est bien dans</tspan>
   <tspan text-align="center" text-anchor="middle" x="718.2185" y="165.6395">35 heures.</tspan>
  </text>
<path d="M655.3365,283.8299C655.9828,284.4772 657.9075,285.7353 659.3771,286.1028C661.552,286.6465 663.9207,286.7967 666.1956,287.3654C667.5349,287.7002 669.0215,287.618 670.4887,287.618C671.7514,287.618 673.0141,287.618 674.2768,287.618" fill="none" stroke="#000"/>
<g transform="matrix(.7537,0,-1.8984933e-2,.90642,21.28104,28.93951)">
<path d="M89.8364,287.0876C88.3134,296.5851 88.4286,303.092 89.7218,304.2264C89.7218,306.8303 84.1742,308.9436 77.3389,308.9436C70.5036,308.9436 64.2691,306.6539 64.9561,304.2264C65.5075,302.2779 66.0438,295.9383 65.3,286.9303" fill="#fff" stroke="#000" stroke-linecap="round" stroke-linejoin="round" stroke-width="2.2557"/>
<path d="m103.9286,284.2857c0,2.9587-8.6345,5.3571-19.2857,5.3571-10.6512,0-19.2857,-2.3985-19.2857,-5.3571 0,-2.9587 8.6345,-5.3571 19.2857,-5.3571 10.6512,0 19.2857,2.3985 19.2857,5.3571z" fill="#fff" stroke="#000" stroke-linecap="round" stroke-linejoin="round" stroke-width="3" transform="matrix(.64207,0,0,.88053,22.99192,37.23722)"/>
</g>
<path d="M64.5209,294.8429C64.1703,294.6996 63.8123,294.5658 63.4477,294.4605C63.0838,294.3596 62.7271,294.2514 62.3512,294.2015C61.992,294.163 61.6304,294.1655 61.2697,294.1614C60.7988,294.1588 60.3278,294.1578 59.8568,294.1598C59.4392,294.1261 59.0387,294.1943 58.6299,294.2626C58.5369,294.3207 58.4225,294.3306 58.3267,294.3819C57.7853,294.6717 58.6277,294.2733 58.089,294.5391C57.3905,294.8837 59.432,293.7498 60.1081,293.3631C59.8812,293.4805 59.6935,293.6499 59.4985,293.8111C59.2855,293.9857 59.1543,294.167 59.0847,294.4336C59.028,294.742 59.0111,295.0546 59.0672,295.3633C59.1084,295.6499 59.202,295.9228 59.3032,296.1929C59.4127,296.4879 59.5957,296.763 59.8069,296.9956C59.9824,297.2412 60.2216,297.41 60.4535,297.5929C60.641,297.7762 60.7981,297.9882 60.9885,298.1681C61.1425,298.3527 61.3473,298.5045 61.5692,298.5983C61.7995,298.7434 62.0476,298.8473 62.2785,298.9934C62.5664,299.1097 62.8293,299.2749 63.1071,299.4124C63.1562,299.4309 63.2068,299.4458 63.2544,299.4678C63.5677,299.6134 63.239,299.488 63.5358,299.614C63.6741,299.6728 63.8137,299.7008 63.9508,299.7642C64.2198,299.8463 64.4781,299.9561 64.7481,300.0358C65.0536,300.1077 65.3693,300.1126 65.6815,300.1194L63.5477,301.6591C63.2163,301.6446 62.8817,301.6248 62.5645,301.5193C62.2946,301.4231 62.0208,301.3388 61.7558,301.2299C61.464,301.1227 61.1838,300.9966 60.9054,300.858C60.6267,300.7108 60.3454,300.5695 60.064,300.4282C59.8307,300.3001 59.5912,300.1847 59.3616,300.0502C59.1286,299.9172 58.9068,299.7576 58.7343,299.5501C58.5604,299.3693 58.4021,299.174 58.2192,299.0018C57.9702,298.8143 57.7471,298.602 57.5548,298.3551C57.3319,298.0921 57.1216,297.8026 57.0011,297.4776C56.8843,297.1968 56.7886,296.9065 56.7409,296.6057C56.6706,296.267 56.671,295.9291 56.7125,295.5853C56.752,295.3007 56.8004,294.9974 57.0566,294.8253C57.2181,294.6259 57.4307,294.4562 57.6447,294.3182C57.9606,294.1361 59.744,292.8791 60.7302,292.6848C61.142,292.6209 61.5533,292.6092 61.9699,292.624C62.4445,292.6247 62.9191,292.6205 63.3938,292.6208C63.7641,292.6225 64.1358,292.6308 64.5021,292.6905C64.8805,292.7615 65.2458,292.8782 65.6159,292.9826C65.9741,293.1009 66.3269,293.241 66.6941,293.3286L64.5209,294.8429z" fill="#fff" stroke="#000" stroke-linecap="round" stroke-linejoin="round" stroke-width="3"/>
<path d="M79.1964,291.2054A6.1607,1.3839 0 1 1 66.875,291.2054A6.1607,1.3839 0 1 1 79.1964,291.2054z" fill="#fff" stroke="#000" stroke-linecap="round" stroke-linejoin="round" stroke-width="3" transform="translate(1.0893,-.5357)"/>
<g transform="translate(277.3144,-2.8571)">
<g transform="matrix(.7537,0,-1.8984933e-2,.90642,21.28104,28.93951)">
<path d="M89.8364,287.0876C88.3134,296.5851 88.4286,303.092 89.7218,304.2264C89.7218,306.8303 84.1742,308.9436 77.3389,308.9436C70.5036,308.9436 64.2691,306.6539 64.9561,304.2264C65.5075,302.2779 66.0438,295.9383 65.3,286.9303" fill="#fff" stroke="#000" stroke-linecap="round" stroke-linejoin="round" stroke-width="2.2557"/>
<path d="m103.9286,284.2857c0,2.9587-8.6345,5.3571-19.2857,5.3571-10.6512,0-19.2857,-2.3985-19.2857,-5.3571 0,-2.9587 8.6345,-5.3571 19.2857,-5.3571 10.6512,0 19.2857,2.3985 19.2857,5.3571z" fill="#fff" stroke="#000" stroke-linecap="round" stroke-linejoin="round" stroke-width="3" transform="matrix(.64207,0,0,.88053,22.99192,37.23722)"/>
</g>
<path d="M64.5209,294.8429C64.1703,294.6996 63.8123,294.5658 63.4477,294.4605C63.0838,294.3596 62.7271,294.2514 62.3512,294.2015C61.992,294.163 61.6304,294.1655 61.2697,294.1614C60.7988,294.1588 60.3278,294.1578 59.8568,294.1598C59.4392,294.1261 59.0387,294.1943 58.6299,294.2626C58.5369,294.3207 58.4225,294.3306 58.3267,294.3819C57.7853,294.6717 58.6277,294.2733 58.089,294.5391C57.3905,294.8837 59.432,293.7498 60.1081,293.3631C59.8812,293.4805 59.6935,293.6499 59.4985,293.8111C59.2855,293.9857 59.1543,294.167 59.0847,294.4336C59.028,294.742 59.0111,295.0546 59.0672,295.3633C59.1084,295.6499 59.202,295.9228 59.3032,296.1929C59.4127,296.4879 59.5957,296.763 59.8069,296.9956C59.9824,297.2412 60.2216,297.41 60.4535,297.5929C60.641,297.7762 60.7981,297.9882 60.9885,298.1681C61.1425,298.3527 61.3473,298.5045 61.5692,298.5983C61.7995,298.7434 62.0476,298.8473 62.2785,298.9934C62.5664,299.1097 62.8293,299.2749 63.1071,299.4124C63.1562,299.4309 63.2068,299.4458 63.2544,299.4678C63.5677,299.6134 63.239,299.488 63.5358,299.614C63.6741,299.6728 63.8137,299.7008 63.9508,299.7642C64.2198,299.8463 64.4781,299.9561 64.7481,300.0358C65.0536,300.1077 65.3693,300.1126 65.6815,300.1194L63.5477,301.6591C63.2163,301.6446 62.8817,301.6248 62.5645,301.5193C62.2946,301.4231 62.0208,301.3388 61.7558,301.2299C61.464,301.1227 61.1838,300.9966 60.9054,300.858C60.6267,300.7108 60.3454,300.5695 60.064,300.4282C59.8307,300.3001 59.5912,300.1847 59.3616,300.0502C59.1286,299.9172 58.9068,299.7576 58.7343,299.5501C58.5604,299.3693 58.4021,299.174 58.2192,299.0018C57.9702,298.8143 57.7471,298.602 57.5548,298.3551C57.3319,298.0921 57.1216,297.8026 57.0011,297.4776C56.8843,297.1968 56.7886,296.9065 56.7409,296.6057C56.6706,296.267 56.671,295.9291 56.7125,295.5853C56.752,295.3007 56.8004,294.9974 57.0566,294.8253C57.2181,294.6259 57.4307,294.4562 57.6447,294.3182C57.9606,294.1361 59.744,292.8791 60.7302,292.6848C61.142,292.6209 61.5533,292.6092 61.9699,292.624C62.4445,292.6247 62.9191,292.6205 63.3938,292.6208C63.7641,292.6225 64.1358,292.6308 64.5021,292.6905C64.8805,292.7615 65.2458,292.8782 65.6159,292.9826C65.9741,293.1009 66.3269,293.241 66.6941,293.3286L64.5209,294.8429z" fill="#fff" stroke="#000" stroke-linecap="round" stroke-linejoin="round" stroke-width="3"/>
<path d="m79.1964,291.2054c0,.7643-2.7582,1.3839-6.1607,1.3839-3.4025,0-6.1607,-.6196-6.1607,-1.3839 0,-.7643 2.7582,-1.3839 6.1607,-1.3839 3.4025,0 6.1607,.6196 6.1607,1.3839z" fill="#fff" stroke="#000" stroke-linecap="round" stroke-linejoin="round" stroke-width="3" transform="translate(1.0893,-.5357)"/>
</g>
<g transform="translate(555.8858,-4.2857)">
<g transform="matrix(.7537,0,-1.8984933e-2,.90642,21.28104,28.93951)">
<path d="M89.8364,287.0876C88.3134,296.5851 88.4286,303.092 89.7218,304.2264C89.7218,306.8303 84.1742,308.9436 77.3389,308.9436C70.5036,308.9436 64.2691,306.6539 64.9561,304.2264C65.5075,302.2779 66.0438,295.9383 65.3,286.9303" fill="#fff" stroke="#000" stroke-linecap="round" stroke-linejoin="round" stroke-width="2.2557"/>
<path d="m103.9286,284.2857c0,2.9587-8.6345,5.3571-19.2857,5.3571-10.6512,0-19.2857,-2.3985-19.2857,-5.3571 0,-2.9587 8.6345,-5.3571 19.2857,-5.3571 10.6512,0 19.2857,2.3985 19.2857,5.3571z" fill="#fff" stroke="#000" stroke-linecap="round" stroke-linejoin="round" stroke-width="3" transform="matrix(.64207,0,0,.88053,22.99192,37.23722)"/>
</g>
<path d="M64.5209,294.8429C64.1703,294.6996 63.8123,294.5658 63.4477,294.4605C63.0838,294.3596 62.7271,294.2514 62.3512,294.2015C61.992,294.163 61.6304,294.1655 61.2697,294.1614C60.7988,294.1588 60.3278,294.1578 59.8568,294.1598C59.4392,294.1261 59.0387,294.1943 58.6299,294.2626C58.5369,294.3207 58.4225,294.3306 58.3267,294.3819C57.7853,294.6717 58.6277,294.2733 58.089,294.5391C57.3905,294.8837 59.432,293.7498 60.1081,293.3631C59.8812,293.4805 59.6935,293.6499 59.4985,293.8111C59.2855,293.9857 59.1543,294.167 59.0847,294.4336C59.028,294.742 59.0111,295.0546 59.0672,295.3633C59.1084,295.6499 59.202,295.9228 59.3032,296.1929C59.4127,296.4879 59.5957,296.763 59.8069,296.9956C59.9824,297.2412 60.2216,297.41 60.4535,297.5929C60.641,297.7762 60.7981,297.9882 60.9885,298.1681C61.1425,298.3527 61.3473,298.5045 61.5692,298.5983C61.7995,298.7434 62.0476,298.8473 62.2785,298.9934C62.5664,299.1097 62.8293,299.2749 63.1071,299.4124C63.1562,299.4309 63.2068,299.4458 63.2544,299.4678C63.5677,299.6134 63.239,299.488 63.5358,299.614C63.6741,299.6728 63.8137,299.7008 63.9508,299.7642C64.2198,299.8463 64.4781,299.9561 64.7481,300.0358C65.0536,300.1077 65.3693,300.1126 65.6815,300.1194L63.5477,301.6591C63.2163,301.6446 62.8817,301.6248 62.5645,301.5193C62.2946,301.4231 62.0208,301.3388 61.7558,301.2299C61.464,301.1227 61.1838,300.9966 60.9054,300.858C60.6267,300.7108 60.3454,300.5695 60.064,300.4282C59.8307,300.3001 59.5912,300.1847 59.3616,300.0502C59.1286,299.9172 58.9068,299.7576 58.7343,299.5501C58.5604,299.3693 58.4021,299.174 58.2192,299.0018C57.9702,298.8143 57.7471,298.602 57.5548,298.3551C57.3319,298.0921 57.1216,297.8026 57.0011,297.4776C56.8843,297.1968 56.7886,296.9065 56.7409,296.6057C56.6706,296.267 56.671,295.9291 56.7125,295.5853C56.752,295.3007 56.8004,294.9974 57.0566,294.8253C57.2181,294.6259 57.4307,294.4562 57.6447,294.3182C57.9606,294.1361 59.744,292.8791 60.7302,292.6848C61.142,292.6209 61.5533,292.6092 61.9699,292.624C62.4445,292.6247 62.9191,292.6205 63.3938,292.6208C63.7641,292.6225 64.1358,292.6308 64.5021,292.6905C64.8805,292.7615 65.2458,292.8782 65.6159,292.9826C65.9741,293.1009 66.3269,293.241 66.6941,293.3286L64.5209,294.8429z" fill="#fff" stroke="#000" stroke-linecap="round" stroke-linejoin="round" stroke-width="3"/>
<path d="m79.1964,291.2054c0,.7643-2.7582,1.3839-6.1607,1.3839-3.4025,0-6.1607,-.6196-6.1607,-1.3839 0,-.7643 2.7582,-1.3839 6.1607,-1.3839 3.4025,0 6.1607,.6196 6.1607,1.3839z" fill="#fff" stroke="#000" stroke-linecap="round" stroke-linejoin="round" stroke-width="3" transform="translate(1.0893,-.5357)"/>
</g>
</svg>
