<svg version="1.0" viewBox="0 0 900 450" xmlns="http://www.w3.org/2000/svg" xmlns:svg="http://www.w3.org/2000/svg">
<path d="M-353.7427,772.4215H-163.5337A7.5735,7.5735 0 0 1 -155.9602,779.995V816.3479A7.5735,7.5735 0 0 1 -163.5337,823.9215H-353.7427A7.5735,7.5735 0 0 1 -361.3162,816.3479V779.995A7.5735,7.5735 0 0 1 -353.7427,772.4215z" stroke="#000" stroke-linecap="round" stroke-linejoin="round" stroke-width="5.8088" transform="matrix(1,0,.87861,.47753,0,0)"/>
<path d="M46.8625,88.7584H827.8644A31.621,31.621 0 0 1 859.4854,120.3794V368.7282A31.621,31.621 0 0 1 827.8644,400.3492H46.8625A31.621,31.621 0 0 1 15.2415,368.7282V120.3794A31.621,31.621 0 0 1 46.8625,88.7584z" fill="#fff" stroke="#000" stroke-linecap="round" stroke-width="7.4907"/>
<path d="M446.8915,78.4154A61.5183,5.3033 0 1 1 323.8549,78.4154A61.5183,5.3033 0 1 1 446.8915,78.4154z" stroke="#000" stroke-linecap="round" stroke-width="4.862" transform="translate(-240.3139,289.7159)"/>
<g transform="translate(242.3471,-7.5619)">
<path d="M-43.5297,288.8057L-43.5297,336.6941C-43.5297,356.7011-59.6364,372.8078-79.6434,372.8078L-115.0774,372.8078C-135.0844,372.8078-151.1912,356.7011-151.1912,336.6941L-151.1912,288.8057" fill="#fff" stroke="#000" stroke-linecap="round" stroke-linejoin="round" stroke-width="3.6422"/>
<path d="M-122.1431,308.6171H-98.6091A.7803,.7803 0 0 1 -97.8288,309.3974V319.4235A.7803,.7803 0 0 1 -98.6091,320.2038H-122.1431A.7803,.7803 0 0 1 -122.9234,319.4235V309.3974A.7803,.7803 0 0 1 -122.1431,308.6171z" stroke="#000" stroke-linecap="square" stroke-linejoin="round" stroke-width="3.7338"/>
<path d="M-80.7522,308.6171H-60.3393A2.3409,2.3409 0 0 1 -57.9985,310.958V317.8629A2.3409,2.3409 0 0 1 -60.3393,320.2038H-80.7522A2.3409,2.3409 0 0 1 -83.093,317.8629V310.958A2.3409,2.3409 0 0 1 -80.7522,308.6171z" stroke="#000" stroke-linecap="square" stroke-linejoin="round" stroke-width="3.7338"/>
<path d="M-148.8829,313.6717C-148.3338,313.6822-147.7844,313.6785-147.2351,313.6758C-146.8722,313.6736-146.5092,313.6722-146.1462,313.6715C-145.8537,313.6711-145.5613,313.6711-145.2688,313.6711C-144.9647,313.6705-144.6607,313.6717-144.3567,313.6723C-143.966,313.6626-143.5814,313.6719-143.1947,313.723C-142.7951,313.7775-142.3916,313.7947-141.9885,313.8057C-141.5833,313.7899-141.1856,313.8646-140.7845,313.9048C-140.3766,313.9415-139.9665,313.9454-139.5571,313.9498C-139.1269,313.9521-138.6968,313.9519-138.2666,313.9504C-137.893,313.9497-137.5194,313.9491-137.1458,313.9482C-136.8388,313.9474-136.5318,313.9472-136.2247,313.9471C-135.9332,313.947-135.6418,313.947-135.3502,313.947C-135.0587,313.947-134.7672,313.947-134.4756,313.947C-134.1569,313.9467-133.8382,313.9476-133.5196,313.949C-133.1253,313.9514-132.731,313.9494-132.3367,313.9484C-131.9659,313.9481-131.595,313.9488-131.2241,313.9499C-130.8274,313.9497-130.4307,313.9498-130.0339,313.9488C-129.654,313.949-129.274,313.9495-128.894,313.949C-128.5484,313.9477-128.2029,313.9475-127.8573,313.9492C-127.3241,313.9518-126.7909,313.9534-126.2577,313.9553C-125.5311,313.9581-124.8045,313.9587-124.0778,313.9563C-123.5446,313.9549-123.0113,313.9511-122.4781,313.9509C-122.0368,313.9515-121.5955,313.9508-121.1542,313.9493C-121.0931,313.9491-121.032,313.949-120.9709,313.9488L-122.7169,315.1481C-122.7774,315.1478-122.8379,315.1476-122.8984,315.1474C-123.3383,315.1459-123.7781,315.1453-124.218,315.1459C-124.7459,315.1457-125.2739,315.1418-125.8018,315.1405C-126.5294,315.1381-127.2571,315.1387-127.9846,315.1415C-128.5238,315.1434-129.0628,315.145-129.6019,315.1476C-129.9477,315.1493-130.2936,315.1491-130.6394,315.1478C-131.0195,315.1473-131.3996,315.1478-131.7797,315.148C-132.1754,315.147-132.5711,315.1471-132.9668,315.1469C-133.3391,315.1479-133.7115,315.1487-134.0838,315.1484C-134.4775,315.1474-134.8712,315.1454-135.2648,315.1478C-135.5854,315.1492-135.9059,315.1501-136.2265,315.1497C-136.5181,315.1497-136.8096,315.1497-137.1012,315.1497C-137.3926,315.1497-137.684,315.1497-137.9755,315.1497C-138.2815,315.1495-138.5875,315.1493-138.8935,315.1487C-139.2655,315.148-139.6375,315.1479-140.0095,315.1478C-140.4397,315.147-140.8698,315.1485-141.3,315.1437C-141.7147,315.1381-142.1302,315.1292-142.5427,315.0843C-142.9395,315.0397-143.3348,314.9871-143.7358,314.9973C-144.1436,314.9822-144.5506,314.9538-144.955,314.9006C-145.3371,314.8601-145.7204,314.8714-146.1043,314.8727C-146.4095,314.8733-146.7146,314.8745-147.0198,314.8739C-147.3119,314.8739-147.604,314.8739-147.8961,314.8735C-148.255,314.8728-148.6138,314.8714-148.9726,314.8693C-149.5259,314.8665-150.0792,314.863-150.6323,314.8733L-148.8829,313.6717z" stroke="#000" stroke-linecap="square" stroke-linejoin="round" stroke-width=".4767"/>
<path d="M-57.3881,313.9484C-56.6843,313.9602-55.9802,313.9586-55.2763,313.9581C-54.631,313.9572-53.9858,313.9554-53.3406,313.9525C-52.9094,313.9502-52.4782,313.9501-52.047,313.9495C-51.7073,313.9487-51.3675,313.9479-51.0277,313.9474C-50.7309,313.9691-50.4456,313.8899-50.1539,313.8518C-49.8613,313.8177-49.5662,313.8128-49.2718,313.8093C-48.9796,313.8072-48.6875,313.8081-48.3953,313.8085C-48.1035,313.8089-47.8117,313.809-47.5199,313.8091C-47.2282,313.8091-46.9364,313.8091-46.6446,313.8091C-46.3528,313.8091-46.061,313.8091-45.7692,313.8091C-45.4559,313.8085-45.1426,313.8102-44.8294,313.8103C-44.5121,313.81-44.1949,313.8096-43.8776,313.8093C-43.5838,313.8091-43.29,313.8091-42.9962,313.8091C-42.8018,313.8091-42.899,313.8091-42.7047,313.8091L-44.4556,315.0118C-44.6499,315.0118-44.5527,315.0118-44.7471,315.0118C-45.0407,315.0118-45.3343,315.0118-45.6279,315.0116C-45.9442,315.0113-46.2606,315.0109-46.577,315.0106C-46.8913,315.0107-47.2057,315.0124-47.5201,315.0118C-47.8119,315.0118-48.1037,315.0118-48.3955,315.0118C-48.6873,315.0118-48.9791,315.0118-49.2709,315.0117C-49.5627,315.0115-49.8545,315.0113-50.1463,315.011C-50.4376,315.0107-50.7289,315.0099-51.0202,315.0153C-51.3095,315.0227-51.5993,315.0348-51.8855,315.0788C-52.1815,315.1241-52.476,315.1695-52.7776,315.1494C-53.1153,315.1489-53.453,315.1481-53.7908,315.1473C-54.219,315.1467-54.6473,315.1466-55.0755,315.1442C-55.7153,315.1413-56.3552,315.1395-56.995,315.1387C-57.7084,315.1382-58.4219,315.1368-59.1352,315.1484L-57.3881,313.9484z" stroke="#000" stroke-linecap="square" stroke-linejoin="round" stroke-width=".4767"/>
<path d="M-97.681,314.1116C-97.1471,314.1792-96.6084,314.2005-96.0705,314.2165C-95.5904,314.228-95.1101,314.228-94.63,314.2268C-94.2335,314.2263-93.8371,314.2261-93.4407,314.2252C-92.6449,314.2456-91.8487,314.2356-91.0528,314.2319C-90.5718,314.2284-90.0909,314.2269-89.6099,314.225C-89.2264,314.225-88.8429,314.2245-88.4594,314.2256C-88.0562,314.2268-87.653,314.2246-87.2498,314.2253C-86.886,314.2244-86.5221,314.2245-86.1583,314.2246C-85.794,314.2251-85.4296,314.2248-85.0652,314.2241C-84.7171,314.2253-84.3691,314.2242-84.021,314.2236C-83.6805,314.2251-83.3399,314.2241-82.9994,314.2236C-82.6986,314.2232-82.3977,314.223-82.0969,314.223C-81.8453,314.2815-81.5923,314.3235-81.3342,314.3439C-81.0543,314.3611-80.7736,314.3611-80.4933,314.3619C-80.2016,314.3621-79.9099,314.3615-79.6182,314.3612C-79.4722,314.3611-79.3262,314.361-79.1802,314.361L-80.931,315.5637C-81.077,315.5638-81.223,315.5639-81.369,315.564C-81.661,315.5644-81.953,315.5651-82.245,315.5636C-82.5302,315.5612-82.816,315.5587-83.0999,315.5305C-83.3505,315.5012-83.5959,315.4409-83.8477,315.4256C-84.1479,315.4255-84.4481,315.4254-84.7483,315.4249C-85.0888,315.4245-85.4293,315.4235-85.7698,315.4249C-86.1175,315.4243-86.4651,315.4233-86.8128,315.4244C-87.1766,315.4237-87.5405,315.4234-87.9044,315.4239C-88.2676,315.4241-88.6307,315.4241-88.9939,315.4233C-89.3968,315.4239-89.7997,315.4217-90.2026,315.423C-90.5867,315.424-90.9708,315.4235-91.3549,315.4236C-91.8291,315.4216-92.3032,315.4202-92.7774,315.4166C-93.5801,315.4129-94.3831,315.4034-95.1857,315.424C-95.5815,315.4235-95.9772,315.4244-96.373,315.4236C-96.8515,315.4207-97.33,315.417-97.8082,315.401C-98.3559,315.3799-98.9029,315.3472-99.4483,315.2941L-97.681,314.1116z" stroke="#000" stroke-linecap="square" stroke-linejoin="round" stroke-width=".4767"/>
<path d="M-136.1855,276.2983L-136.1855,294.8415" fill="none" stroke="#000" stroke-linecap="round" stroke-width="4.8046"/>
<path d="M-126.6615,274.544L-126.6615,293.0872" fill="none" stroke="#000" stroke-linecap="round" stroke-width="4.8046"/>
<path d="M-117.7245,276.0083L-117.7245,294.5515" fill="none" stroke="#000" stroke-linecap="round" stroke-width="4.8046"/>
<path d="M-106.0478,274.841L-106.0478,293.3843" fill="none" stroke="#000" stroke-linecap="round" stroke-width="4.8046"/>
<path d="M-95.8892,277.0276L-95.8892,295.5709" fill="none" stroke="#000" stroke-linecap="round" stroke-width="4.8046"/>
<path d="M-84.2599,276.8522L-84.2599,295.3955" fill="none" stroke="#000" stroke-linecap="round" stroke-width="4.8046"/>
<path d="M-73.7574,275.1381L-73.7574,293.6813" fill="none" stroke="#000" stroke-linecap="round" stroke-width="4.8046"/>
<path d="M-63.8419,278.175L-63.8419,296.7182" fill="none" stroke="#000" stroke-linecap="round" stroke-width="4.8046"/>
<path d="M-53.169,277.8063L-53.169,296.3495" fill="none" stroke="#000" stroke-linecap="round" stroke-width="4.8046"/>
<path d="M-105.8017,352.8807L-78.6788,348.4525" fill="none" stroke="#000" stroke-width=".7749"/>
<path d="M-144.0697,281.0285L-144.0697,299.5717" fill="none" stroke="#000" stroke-linecap="round" stroke-width="4.8046"/>
</g>
<path d="M572.4832,85.4438L572.4832,399.3342" fill="none" stroke="#000" stroke-width="5.6784"/>
<path d="M288.7731,84.7191L288.7731,398.6096" fill="none" stroke="#000" stroke-width="5.6784"/>
<path d="M837.6999,419.5821C838.1392,420.0923 838.7354,420.1535 839.3701,420.1894C840.173,420.1678 840.9773,419.9756 841.7276,419.6901C842.1285,419.5376 842.35,419.4076 842.7241,419.2112C840.4854,420.5209 841.7317,419.8195 842.1502,419.3748C842.3671,419.1445 842.4966,418.9018 842.6188,418.6142C842.9365,417.7192 842.9777,416.7569 843.0319,415.8172C843.1375,414.4493 842.8543,413.1063 842.5494,411.782C842.1786,410.389 841.6748,409.0354 841.1201,407.7063C840.8545,407.0784 840.554,406.4662 840.2614,405.8507C839.8671,405.0941 839.5445,405.564 841.7718,404.7C841.8485,404.6702 841.8637,404.8367 841.9129,404.9027C841.9952,405.0133 842.0818,405.1206 842.1662,405.2296C842.9879,406.3571 843.9761,407.3451 844.9663,408.3224C845.5489,408.8898 846.1737,409.4165 846.7308,410.0097C846.9422,410.1824 847.0686,410.4258 847.2388,410.6327C847.405,410.7828 847.535,410.6248 847.6819,410.522C845.1164,412.0605 846.03,411.5632 846.522,411.0915C846.7157,410.9057 846.8984,410.7072 847.0838,410.5134C847.3471,410.2507 847.5965,409.9695 847.8848,409.733C848.6458,409.1085 849.7075,408.6096 850.4945,408.1619C851.2216,407.8407 851.9655,407.5614 852.721,407.3151C852.8773,407.2812 853.482,407.0487 853.62,407.2059C853.6522,407.2424 853.6652,407.2921 853.6877,407.3352C853.6909,407.3793 853.7031,407.4237 853.6971,407.4675C853.6536,407.7872 853.1586,408.1591 852.9427,408.358C851.9498,409.1787 850.9866,410.0324 850.0696,410.9371C849.2719,411.7928 848.448,412.6375 847.813,413.6246C847.4209,414.2411 847.2124,414.9217 847.1146,415.639C847.0498,416.2804 847.0604,416.9263 847.0614,417.5701C847.0965,418.27 847.1858,418.9712 847.3941,419.6417C847.5136,419.9987 847.726,420.2611 848.0658,420.4179C848.2913,420.4973 848.5496,420.5497 848.7897,420.5043C848.8455,420.4938 849.3113,420.336 849.3485,420.3235C849.8977,420.0238 851.2241,419.323 848.7418,420.6834C848.6436,420.7372 848.9308,420.5632 849.0239,420.501C849.2377,420.3579 849.289,420.3159 849.4896,420.1663C849.7301,419.9864 849.6162,420.0738 849.832,419.9047L851.5511,419.2133C851.3332,419.3964 851.4499,419.3051 851.1995,419.4852C850.1856,420.268 849.0625,420.916 847.8986,421.4463C847.3879,421.5987 847.0108,421.6717 846.5135,421.4365C846.1473,421.23 845.908,420.9303 845.7792,420.5253C845.5751,419.835 845.4981,419.1164 845.4311,418.4016C845.4272,417.7513 845.4165,417.0994 845.4691,416.4507C845.5619,415.7075 845.7578,414.9982 846.1575,414.3551C846.2376,414.2219 846.3104,414.084 846.3979,413.9555C846.5777,413.6915 846.846,413.3893 847.0509,413.1518C847.5035,412.6271 847.9665,412.1116 848.4447,411.61C849.3365,410.7103 850.2766,409.8601 851.2513,409.0508C851.5274,408.7944 851.8131,408.5444 852.0514,408.2514C852.0909,408.2723 851.9636,408.2689 851.9193,408.2751C851.6983,408.306 851.4855,408.3747 851.2727,408.4392C850.5256,408.6858 849.7861,408.9594 849.0768,409.3016C851.5214,407.8558 850.0516,408.6768 849.5738,409.0444C849.2828,409.2683 849.0338,409.5448 848.7785,409.8066C847.8528,410.7831 847.7997,410.8865 846.2335,411.6949C845.9768,411.8162 845.8333,411.8018 845.6326,411.5908C845.4741,411.3814 845.3472,411.1478 845.1515,410.9676C844.6181,410.3651 844.0233,409.8184 843.4583,409.2463C842.4775,408.248 841.4816,407.2614 840.6087,406.1645C840.5149,406.0591 840.421,405.9538 840.3273,405.8483C840.2752,405.7896 840.1119,405.7232 840.1714,405.6721C841.5855,404.4582 841.5054,404.1404 841.8707,404.9418C842.1464,405.5699 842.437,406.1917 842.6878,406.8304C843.2128,408.1833 843.6967,409.5535 844.0931,410.9501C844.4116,412.2803 844.7266,413.6316 844.635,415.01C844.5988,415.9585 844.5432,416.9244 844.2857,417.8418C844.2011,418.0765 844.1718,418.1963 844.0367,418.4111C843.4428,419.3546 842.162,419.8002 841.3201,420.3358C840.2487,420.8623 839.1088,421.2347 837.9029,421.2401C837.7353,421.2267 837.5664,421.2243 837.4,421.1998C836.9044,421.1269 836.4425,420.9103 836.0995,420.543L837.6999,419.5821z" stroke="#000" stroke-linecap="round" stroke-linejoin="round" stroke-width=".2515"/>
<path d="M853.0644,417.4253C852.3251,417.6324 850.7224,418.6218 853.52,417.021C853.132,417.2275 852.9016,417.5635 852.7201,417.9511C852.6165,418.2617 852.5059,418.6022 852.5284,418.9356C852.544,419.1663 852.604,419.2822 852.6824,419.4976C852.9896,420.1044 853.4619,420.6034 854.0223,420.9814C854.436,421.2695 854.9062,421.4006 855.4054,421.4067C855.7905,421.3191 856.1484,421.1691 856.5011,420.9943C856.6514,420.9198 857.092,420.6764 856.9478,420.7623C855.286,421.7515 855.7022,421.4845 856.2903,421.0817C856.7745,420.7088 857.3008,420.2761 857.4255,419.6418C857.4429,419.5532 857.4417,419.462 857.4497,419.372C857.4177,418.5788 856.9165,417.9577 856.4328,417.3712C856.128,417.0319 855.7827,416.7084 855.3659,416.5102C855.1544,416.4097 855.0459,416.3918 854.8219,416.3323C854.37,416.3077 853.8964,416.3507 853.4673,416.5064C853.269,416.5784 852.9683,416.7458 852.784,416.8433C855.2971,415.3355 853.6504,416.3309 853.1321,416.7817L851.4216,417.4815C852.2176,416.7158 853.2805,416.2646 854.2058,415.7046C854.4743,415.574 854.6329,415.4838 854.9199,415.3966C855.3767,415.2579 855.8684,415.2255 856.3389,415.2949C856.5808,415.3721 856.6789,415.3915 856.9061,415.5126C857.3291,415.7381 857.678,416.0805 857.9901,416.4381C858.4989,417.0645 859.0154,417.7137 859.0929,418.5476C859.0892,418.6487 859.0954,418.7508 859.0817,418.8511C858.9889,419.5335 858.4813,420.0187 857.9651,420.4219C856.9638,421.1405 857.4769,420.7927 855.5414,421.889C855.0371,422.1746 854.4855,422.4165 853.9063,422.4841C853.3845,422.438 852.899,422.2842 852.474,421.9676C851.8991,421.5482 851.4157,421.0189 851.079,420.3881C851.0005,420.1826 850.9113,419.9869 850.8844,419.7652C850.8424,419.418 850.9579,419.0532 851.0416,418.7223C851.2024,418.3137 851.4065,417.9264 851.7907,417.6866C852.6938,417.1667 853.5389,416.5702 854.5464,416.2922L853.0644,417.4253z" stroke="#000" stroke-linecap="round" stroke-linejoin="round" stroke-width=".2515"/>
<path d="M860.8606,418.1798C860.5403,418.2822 860.2076,418.3701 859.9032,418.516C859.8009,418.565 859.7049,418.6261 859.6058,418.6811C860.0265,418.4456 860.4472,418.21 860.8679,417.9744C860.3685,418.3114 859.998,418.6482 859.7745,419.213C859.6283,419.6782 859.6984,420.0716 860.0669,420.4158C860.1558,420.4989 860.2604,420.5635 860.3571,420.6374C861.0613,421.0419 861.8949,421.1868 862.7015,421.1012C862.9327,421.0766 863.1595,421.0206 863.3885,420.9804C863.9184,420.8435 864.1494,420.8055 864.6471,420.5966C864.8122,420.5272 865.2821,420.2661 865.1283,420.3579C862.8902,421.6944 863.9033,421.1121 864.2547,420.7563C864.3327,420.6774 864.3946,420.5841 864.4645,420.498C864.771,420.0185 864.7789,419.592 864.563,419.081C864.5234,418.9913 864.295,418.5206 864.1339,418.6225C864.106,418.6401 864.0919,418.6734 864.0709,418.6988C866.6131,417.2491 865.6452,417.4915 865.3986,418.198C865.2922,418.5029 865.2737,418.7994 865.259,419.1195C865.4357,420.6059 866.0923,421.9821 866.6317,423.363C867.2876,425.1875 867.9198,427.0806 867.9926,429.0375C868.0071,429.4269 867.9692,429.8165 867.9574,430.2061C867.8993,430.5806 867.8667,430.96 867.7829,431.3297C867.5098,432.5356 866.8881,433.6394 865.965,434.4666C865.8023,434.6125 865.6181,434.7324 865.4446,434.8653C864.7504,435.2279 864.0901,435.6644 863.3622,435.9531C863.0604,436.0729 862.332,435.8231 862.0932,435.7167C861.2057,435.3211 860.4392,434.6712 859.6852,434.0761C858.4133,432.9872 857.168,431.8515 856.0301,430.6208C855.4407,429.9832 855.2949,429.7686 854.7829,429.1091C854.3471,428.382 853.8335,427.539 854.2619,426.682C854.5154,426.1748 854.8214,425.9908 855.2461,425.6215C856.5188,424.7968 856.623,424.7029 858.4656,423.7698C858.9153,423.5421 860.3656,423.0271 860.8094,422.8722C861.6945,422.5634 862.6463,422.2575 863.5363,421.9667C865.8744,421.2923 868.1644,420.4708 870.4277,419.5803C870.6199,419.4986 870.8123,419.4175 871.0041,419.3353C871.1507,419.2724 871.2984,419.2119 871.4431,419.1449C871.7389,419.0078 872.0152,418.8382 872.3203,418.722C872.7342,418.663 872.8793,419.1612 873.0032,419.4638C873.2885,420.2344 873.4492,421.0424 873.5186,421.8592C873.5357,422.2252 873.5476,422.5929 873.4958,422.9567C873.4905,422.9939 873.5097,423.0517 873.4756,423.0676C872.9212,423.3258 872.3423,423.5277 871.7757,423.7578C871.7772,423.6452 871.771,423.5322 871.7802,423.42C871.7935,423.2568 871.8216,423.095 871.8431,422.9326C871.9688,421.9847 872.1335,421.0495 872.3264,420.113C872.5219,419.2962 872.6907,418.4407 873.1575,417.7277C873.6861,417.1743 874.8618,416.0831 875.4343,416.7181C875.4942,416.7847 875.5362,416.8654 875.5872,416.939C875.6993,417.1371 875.7961,417.2875 875.8694,417.507C876.0754,418.1241 876.1679,418.8475 876.2771,419.4894C876.4195,420.0449 876.3652,420.7101 876.5337,421.2548C876.7566,420.6561 876.5315,421.2826 874.9306,422.0459C874.8981,422.0614 874.9795,421.9924 874.9977,421.9614C875.0393,421.8902 875.1209,421.6813 875.1527,421.6171C875.1961,421.5296 875.2456,421.4453 875.292,421.3593C875.5931,420.8768 875.848,420.3668 876.1798,419.9041C876.7344,419.2091 877.2533,419.0574 878.2135,418.5297C878.2465,418.5116 878.2908,418.5221 878.3261,418.5349C878.3712,418.5512 878.4061,418.5875 878.4461,418.6138C878.8216,419.0087 878.9524,419.5676 879.0792,420.082C879.1894,420.642 879.2483,421.2133 879.4532,421.7489C879.5031,421.8191 879.5438,421.8968 879.6028,421.9596C880.0326,422.4165 880.7436,422.758 881.3298,422.9438C881.5504,423.0137 881.7776,423.0604 882.0016,423.1188C882.9497,423.3553 883.901,423.3671 884.8441,423.1078C885.0528,423.0504 885.2625,422.9906 885.4602,422.9024C885.6443,422.8203 885.8093,422.7005 885.9838,422.5996C885.6207,422.7869 885.2843,423.0392 884.8944,423.1617C884.7441,423.2089 885.1283,422.9499 885.2356,422.8345C885.552,422.4944 885.7329,422.1162 885.8602,421.6763C885.9476,421.3099 885.946,420.9335 885.9359,420.5597C885.8338,419.7881 885.1521,420.5476 887.5121,419.5891C887.5551,419.5717 887.4869,419.6786 887.4796,419.7244C887.4692,419.7911 887.4659,419.8587 887.459,419.9258C887.4255,420.5337 887.4116,421.143 887.4792,421.7487C887.548,422.1384 887.6225,422.5365 887.928,422.81C888.1429,422.9515 888.3709,422.9611 888.6083,422.8835C889.1795,422.5952 890.037,422.0951 887.4394,423.5616C887.3472,423.6136 887.6176,423.4473 887.7052,423.3879L889.4342,422.7005C889.3003,422.8104 889.3247,422.799 889.171,422.8889C888.5869,423.2304 887.8635,423.8008 887.1244,424.0088C886.8359,424.0397 886.5669,423.977 886.3413,423.7852C886.0273,423.4579 885.9248,423.0404 885.8549,422.6002C885.7806,421.9875 885.7955,421.372 885.8035,420.7557C885.806,420.6734 885.8132,420.3874 885.819,420.3836C887.0421,419.5712 887.4375,418.8023 887.5928,419.7104C887.6015,420.1033 887.6019,420.4984 887.5199,420.885C887.1173,422.4889 886.0543,422.8543 884.593,423.7194C884.4133,423.81 884.2412,423.9175 884.0539,423.9912C882.9284,424.4344 881.702,424.3988 880.5444,424.1213C880.3131,424.06 880.0783,424.0108 879.8506,423.9373C879.2682,423.7493 878.4492,423.3473 878.0197,422.8955C877.949,422.821 877.898,422.73 877.8371,422.6473C877.633,422.1011 877.5741,421.5222 877.4691,420.9513C877.3632,420.509 877.2581,419.9619 876.8925,419.6548C876.8063,419.6656 876.8508,419.6526 876.7616,419.7019C877.2557,419.4087 877.7497,419.1154 878.2437,418.8222C878.2855,418.7982 878.1672,418.8811 878.1322,418.9142C878.0442,418.9972 877.9729,419.0969 877.8779,419.173C877.5233,419.6187 877.2676,420.1243 876.9714,420.6092C876.8601,420.7997 876.7681,420.9811 876.6972,421.1901C876.6828,421.2327 876.6988,421.2967 876.6603,421.3198C874.9885,422.3254 875.3593,422.7321 874.8927,422.1462C874.7524,421.5546 874.8243,420.9267 874.6876,420.3324C874.5539,419.5005 874.451,418.6094 873.9988,417.8816C873.9202,417.7871 873.8864,417.7005 873.7615,417.6774C873.7276,417.6711 873.6296,417.7056 873.6587,417.6873C874.1435,417.3845 874.6468,417.1124 875.1368,416.8181C875.1808,416.7917 875.0407,416.856 874.9973,416.8833C874.946,416.9155 874.902,416.9581 874.8543,416.9955C874.3031,417.6528 874.1369,418.5402 873.914,419.3453C873.6629,420.5062 873.4473,421.6834 873.4119,422.8732C872.8705,423.205 872.3401,423.5553 871.7879,423.8686C871.7574,423.8858 871.8181,423.8051 871.8279,423.7715C871.929,423.4237 871.9002,423.0555 871.9001,422.6985C871.8534,421.9001 871.7042,421.106 871.3991,420.3633C871.3409,420.229 871.234,419.8396 871.0304,419.8259C870.9832,419.8227 870.8966,419.86 870.859,419.8735C870.2569,420.1416 869.6722,420.4493 869.0465,420.6635C866.8032,421.5072 864.5408,422.298 862.2402,422.9728C860.9049,423.4145 859.5602,423.8415 858.2523,424.3613C857.8758,424.5109 857.5311,424.7571 857.1341,424.8375C856.9302,424.8788 857.8353,424.3926 857.6483,424.4837C857.3755,424.6165 857.1327,424.8037 856.875,424.9637C856.3935,425.3502 855.8032,425.75 855.6891,426.4162C855.5768,427.072 855.9944,427.6783 856.2769,428.2219C856.4515,428.4606 856.6178,428.7057 856.8009,428.9379C858.0515,430.5239 859.5732,431.8847 861.1225,433.1693C861.8826,433.7368 862.6578,434.3714 863.5563,434.7155C863.7637,434.7949 863.9813,434.8551 864.202,434.8796C864.3903,434.9006 864.8715,434.691 864.7695,434.8506C864.5572,435.1831 864.1187,435.2966 863.7932,435.5196C863.9754,435.3925 864.1681,435.2794 864.3397,435.1382C865.2925,434.3543 865.9603,433.2721 866.2576,432.0761C866.3479,431.7128 866.3832,431.3379 866.446,430.9688C866.4641,430.5847 866.5101,430.2008 866.5003,429.8163C866.4508,427.8752 865.7924,426.0021 865.1291,424.2017C864.5663,422.8099 863.8814,421.4378 863.6364,419.9442C863.6281,419.5906 863.6368,419.3215 863.7224,418.9795C863.7272,418.9603 863.8221,418.6198 863.8644,418.5907C864.4072,418.2169 864.9853,417.897 865.5458,417.5502C865.5884,417.5536 865.6324,417.5491 865.6736,417.5604C865.9384,417.6328 866.0654,417.9614 866.176,418.1761C866.4117,418.7326 866.444,419.2278 866.1442,419.7744C866.0761,419.8718 866.0174,419.9764 865.9401,420.0667C865.388,420.7119 864.2837,421.1647 863.7218,421.4774C863.1843,421.7765 862.5659,421.9044 861.9747,422.0428C861.7381,422.0783 861.5032,422.1298 861.2647,422.1493C860.4126,422.2188 859.5422,422.0659 858.8149,421.6085C858.7105,421.5252 858.598,421.4511 858.5017,421.3585C858.0943,420.9672 857.9672,420.5352 858.1019,419.9949C858.3051,419.3488 858.6237,419.0362 859.1667,418.6384C860.2147,418.0193 861.1621,417.3365 862.3425,417.0466L860.8606,418.1798z" stroke="#000" stroke-linecap="round" stroke-linejoin="round" stroke-width=".2515"/>
<path d="M886.2714,412.5301C886.0471,412.7933 885.8679,413.0945 885.7826,413.4308C885.7216,413.7672 885.9222,413.8535 886.1981,413.9742C886.6443,414.1376 887.0258,414.1196 887.4828,414.0388C888.0939,413.8293 889.0645,413.2323 886.3479,414.7309C886.3098,414.7519 886.4203,414.6818 886.4525,414.6525C886.5291,414.5826 886.5369,414.5537 886.587,414.4661C886.6793,414.2591 886.6702,414.0654 886.5514,413.8747C886.3933,413.7249 886.1556,413.7389 885.9516,413.729C885.7409,413.7485 885.5403,413.8007 885.369,413.9271L886.8239,412.7554C887.031,412.677 887.243,412.6275 887.4668,412.6453C887.733,412.6716 887.995,412.7094 888.1677,412.9369C888.3083,413.1735 888.3639,413.4181 888.2826,413.6882C887.9879,414.5774 886.8685,414.9369 886.0024,415.1486C885.541,415.2066 885.0848,415.1813 884.6509,414.9959C884.3391,414.835 884.0595,414.6336 884.1067,414.2432C884.1643,413.8808 884.3411,413.5561 884.5534,413.2601L886.2714,412.5301z" stroke="#000" stroke-linecap="round" stroke-linejoin="round" stroke-width=".2515"/>
<path d="M862.4268,417.0619C862.7805,416.89 863.118,416.6867 863.4829,416.5385C863.7115,416.39 863.9624,416.3214 864.2298,416.2921C864.4759,416.2734 864.7229,416.2766 864.9695,416.2774C865.2142,416.2514 865.4215,416.3183 865.6364,416.4232C865.7869,416.5438 865.9056,416.7041 866.0199,416.859C866.1193,417.0395 866.1777,417.2421 866.2389,417.4388C866.2937,417.6403 866.3683,417.8329 866.4078,418.0389C866.4459,418.2806 866.4485,418.526 866.4515,418.7701C866.4525,418.896 866.4524,419.0219 866.4523,419.1478L864.7903,419.9944C864.7904,419.8692 864.7907,419.7439 864.7902,419.6186C864.7884,419.3843 864.788,419.1491 864.7585,418.9162C864.7257,418.7155 864.6523,418.5308 864.5989,418.336C864.547,418.1591 864.491,417.9788 864.4107,417.8139C864.3129,417.6856 864.2177,417.5392 864.0771,417.4561C863.8796,417.3703 863.6737,417.3648 863.4603,417.374C863.219,417.3751 862.9761,417.3739 862.7372,417.4129C862.4846,417.4663 862.257,417.575 862.027,417.6904C861.6691,417.8568 861.323,418.0476 860.9761,418.2356L862.4268,417.0619z" stroke="#000" stroke-linecap="round" stroke-linejoin="round" stroke-width=".2515"/>
<path d="M56.7897,53.452H243.6679A15.9099,15.9099 0 0 1 259.5778,69.3619V69.3619A15.9099,15.9099 0 0 1 243.6679,85.2718H56.7897A15.9099,15.9099 0 0 1 40.8798,69.3619V69.3619A15.9099,15.9099 0 0 1 56.7897,53.452z" fill="#fff" stroke="#000" stroke-linecap="round" stroke-linejoin="round" stroke-width="4"/>
<path d="M101.5203,44.9288A36.8706,34.8503 0 1 1 27.7792,44.9288A36.8706,34.8503 0 1 1 101.5203,44.9288z" stroke="#000" stroke-linecap="round" stroke-linejoin="round" stroke-width="7.491" transform="matrix(.7121,0,0,.7121,-4.40656,31.07489)"/>
<text font-family="Bitstream Vera Sans" font-size="40" x="15.2427" y="77.1094">
   <tspan fill="#f9f9f9" x="15.2427" y="77.1094">46</tspan>
  </text>
<text font-family="Bitstream Vera Sans" font-size="20" x="110.1358" y="182.3458">
   <tspan text-align="center" text-anchor="middle" x="110.1358" y="182.3458">Hmm...</tspan>
  </text>
<path d="M446.8915,78.4154A61.5183,5.3033 0 1 1 323.8549,78.4154A61.5183,5.3033 0 1 1 446.8915,78.4154z" stroke="#000" stroke-linecap="round" stroke-width="4.862" transform="translate(38.9474,286.8233)"/>
<g transform="translate(524.4656,-7.5973)">
<path d="M-43.5297,288.8057L-43.5297,336.6941C-43.5297,356.7011-59.6364,372.8078-79.6434,372.8078L-115.0774,372.8078C-135.0844,372.8078-151.1912,356.7011-151.1912,336.6941L-151.1912,288.8057" fill="#fff" stroke="#000" stroke-linecap="round" stroke-linejoin="round" stroke-width="3.6422"/>
<path d="M-122.1431,308.6171H-98.6091A.7803,.7803 0 0 1 -97.8288,309.3974V319.4235A.7803,.7803 0 0 1 -98.6091,320.2038H-122.1431A.7803,.7803 0 0 1 -122.9234,319.4235V309.3974A.7803,.7803 0 0 1 -122.1431,308.6171z" stroke="#000" stroke-linecap="square" stroke-linejoin="round" stroke-width="3.7338"/>
<path d="M-80.7522,308.6171H-60.3393A2.3409,2.3409 0 0 1 -57.9985,310.958V317.8629A2.3409,2.3409 0 0 1 -60.3393,320.2038H-80.7522A2.3409,2.3409 0 0 1 -83.093,317.8629V310.958A2.3409,2.3409 0 0 1 -80.7522,308.6171z" stroke="#000" stroke-linecap="square" stroke-linejoin="round" stroke-width="3.7338"/>
<path d="M-148.8829,313.6717C-148.3338,313.6822-147.7844,313.6785-147.2351,313.6758C-146.8722,313.6736-146.5092,313.6722-146.1462,313.6715C-145.8537,313.6711-145.5613,313.6711-145.2688,313.6711C-144.9647,313.6705-144.6607,313.6717-144.3567,313.6723C-143.966,313.6626-143.5814,313.6719-143.1947,313.723C-142.7951,313.7775-142.3916,313.7947-141.9885,313.8057C-141.5833,313.7899-141.1856,313.8646-140.7845,313.9048C-140.3766,313.9415-139.9665,313.9454-139.5571,313.9498C-139.1269,313.9521-138.6968,313.9519-138.2666,313.9504C-137.893,313.9497-137.5194,313.9491-137.1458,313.9482C-136.8388,313.9474-136.5318,313.9472-136.2247,313.9471C-135.9332,313.947-135.6418,313.947-135.3502,313.947C-135.0587,313.947-134.7672,313.947-134.4756,313.947C-134.1569,313.9467-133.8382,313.9476-133.5196,313.949C-133.1253,313.9514-132.731,313.9494-132.3367,313.9484C-131.9659,313.9481-131.595,313.9488-131.2241,313.9499C-130.8274,313.9497-130.4307,313.9498-130.0339,313.9488C-129.654,313.949-129.274,313.9495-128.894,313.949C-128.5484,313.9477-128.2029,313.9475-127.8573,313.9492C-127.3241,313.9518-126.7909,313.9534-126.2577,313.9553C-125.5311,313.9581-124.8045,313.9587-124.0778,313.9563C-123.5446,313.9549-123.0113,313.9511-122.4781,313.9509C-122.0368,313.9515-121.5955,313.9508-121.1542,313.9493C-121.0931,313.9491-121.032,313.949-120.9709,313.9488L-122.7169,315.1481C-122.7774,315.1478-122.8379,315.1476-122.8984,315.1474C-123.3383,315.1459-123.7781,315.1453-124.218,315.1459C-124.7459,315.1457-125.2739,315.1418-125.8018,315.1405C-126.5294,315.1381-127.2571,315.1387-127.9846,315.1415C-128.5238,315.1434-129.0628,315.145-129.6019,315.1476C-129.9477,315.1493-130.2936,315.1491-130.6394,315.1478C-131.0195,315.1473-131.3996,315.1478-131.7797,315.148C-132.1754,315.147-132.5711,315.1471-132.9668,315.1469C-133.3391,315.1479-133.7115,315.1487-134.0838,315.1484C-134.4775,315.1474-134.8712,315.1454-135.2648,315.1478C-135.5854,315.1492-135.9059,315.1501-136.2265,315.1497C-136.5181,315.1497-136.8096,315.1497-137.1012,315.1497C-137.3926,315.1497-137.684,315.1497-137.9755,315.1497C-138.2815,315.1495-138.5875,315.1493-138.8935,315.1487C-139.2655,315.148-139.6375,315.1479-140.0095,315.1478C-140.4397,315.147-140.8698,315.1485-141.3,315.1437C-141.7147,315.1381-142.1302,315.1292-142.5427,315.0843C-142.9395,315.0397-143.3348,314.9871-143.7358,314.9973C-144.1436,314.9822-144.5506,314.9538-144.955,314.9006C-145.3371,314.8601-145.7204,314.8714-146.1043,314.8727C-146.4095,314.8733-146.7146,314.8745-147.0198,314.8739C-147.3119,314.8739-147.604,314.8739-147.8961,314.8735C-148.255,314.8728-148.6138,314.8714-148.9726,314.8693C-149.5259,314.8665-150.0792,314.863-150.6323,314.8733L-148.8829,313.6717z" stroke="#000" stroke-linecap="square" stroke-linejoin="round" stroke-width=".4767"/>
<path d="M-57.3881,313.9484C-56.6843,313.9602-55.9802,313.9586-55.2763,313.9581C-54.631,313.9572-53.9858,313.9554-53.3406,313.9525C-52.9094,313.9502-52.4782,313.9501-52.047,313.9495C-51.7073,313.9487-51.3675,313.9479-51.0277,313.9474C-50.7309,313.9691-50.4456,313.8899-50.1539,313.8518C-49.8613,313.8177-49.5662,313.8128-49.2718,313.8093C-48.9796,313.8072-48.6875,313.8081-48.3953,313.8085C-48.1035,313.8089-47.8117,313.809-47.5199,313.8091C-47.2282,313.8091-46.9364,313.8091-46.6446,313.8091C-46.3528,313.8091-46.061,313.8091-45.7692,313.8091C-45.4559,313.8085-45.1426,313.8102-44.8294,313.8103C-44.5121,313.81-44.1949,313.8096-43.8776,313.8093C-43.5838,313.8091-43.29,313.8091-42.9962,313.8091C-42.8018,313.8091-42.899,313.8091-42.7047,313.8091L-44.4556,315.0118C-44.6499,315.0118-44.5527,315.0118-44.7471,315.0118C-45.0407,315.0118-45.3343,315.0118-45.6279,315.0116C-45.9442,315.0113-46.2606,315.0109-46.577,315.0106C-46.8913,315.0107-47.2057,315.0124-47.5201,315.0118C-47.8119,315.0118-48.1037,315.0118-48.3955,315.0118C-48.6873,315.0118-48.9791,315.0118-49.2709,315.0117C-49.5627,315.0115-49.8545,315.0113-50.1463,315.011C-50.4376,315.0107-50.7289,315.0099-51.0202,315.0153C-51.3095,315.0227-51.5993,315.0348-51.8855,315.0788C-52.1815,315.1241-52.476,315.1695-52.7776,315.1494C-53.1153,315.1489-53.453,315.1481-53.7908,315.1473C-54.219,315.1467-54.6473,315.1466-55.0755,315.1442C-55.7153,315.1413-56.3552,315.1395-56.995,315.1387C-57.7084,315.1382-58.4219,315.1368-59.1352,315.1484L-57.3881,313.9484z" stroke="#000" stroke-linecap="square" stroke-linejoin="round" stroke-width=".4767"/>
<path d="M-97.681,314.1116C-97.1471,314.1792-96.6084,314.2005-96.0705,314.2165C-95.5904,314.228-95.1101,314.228-94.63,314.2268C-94.2335,314.2263-93.8371,314.2261-93.4407,314.2252C-92.6449,314.2456-91.8487,314.2356-91.0528,314.2319C-90.5718,314.2284-90.0909,314.2269-89.6099,314.225C-89.2264,314.225-88.8429,314.2245-88.4594,314.2256C-88.0562,314.2268-87.653,314.2246-87.2498,314.2253C-86.886,314.2244-86.5221,314.2245-86.1583,314.2246C-85.794,314.2251-85.4296,314.2248-85.0652,314.2241C-84.7171,314.2253-84.3691,314.2242-84.021,314.2236C-83.6805,314.2251-83.3399,314.2241-82.9994,314.2236C-82.6986,314.2232-82.3977,314.223-82.0969,314.223C-81.8453,314.2815-81.5923,314.3235-81.3342,314.3439C-81.0543,314.3611-80.7736,314.3611-80.4933,314.3619C-80.2016,314.3621-79.9099,314.3615-79.6182,314.3612C-79.4722,314.3611-79.3262,314.361-79.1802,314.361L-80.931,315.5637C-81.077,315.5638-81.223,315.5639-81.369,315.564C-81.661,315.5644-81.953,315.5651-82.245,315.5636C-82.5302,315.5612-82.816,315.5587-83.0999,315.5305C-83.3505,315.5012-83.5959,315.4409-83.8477,315.4256C-84.1479,315.4255-84.4481,315.4254-84.7483,315.4249C-85.0888,315.4245-85.4293,315.4235-85.7698,315.4249C-86.1175,315.4243-86.4651,315.4233-86.8128,315.4244C-87.1766,315.4237-87.5405,315.4234-87.9044,315.4239C-88.2676,315.4241-88.6307,315.4241-88.9939,315.4233C-89.3968,315.4239-89.7997,315.4217-90.2026,315.423C-90.5867,315.424-90.9708,315.4235-91.3549,315.4236C-91.8291,315.4216-92.3032,315.4202-92.7774,315.4166C-93.5801,315.4129-94.3831,315.4034-95.1857,315.424C-95.5815,315.4235-95.9772,315.4244-96.373,315.4236C-96.8515,315.4207-97.33,315.417-97.8082,315.401C-98.3559,315.3799-98.9029,315.3472-99.4483,315.2941L-97.681,314.1116z" stroke="#000" stroke-linecap="square" stroke-linejoin="round" stroke-width=".4767"/>
<path d="M-136.1855,276.2983L-136.1855,294.8415" fill="none" stroke="#000" stroke-linecap="round" stroke-width="4.8046"/>
<path d="M-126.6615,274.544L-126.6615,293.0872" fill="none" stroke="#000" stroke-linecap="round" stroke-width="4.8046"/>
<path d="M-117.7245,276.0083L-117.7245,294.5515" fill="none" stroke="#000" stroke-linecap="round" stroke-width="4.8046"/>
<path d="M-106.0478,274.841L-106.0478,293.3843" fill="none" stroke="#000" stroke-linecap="round" stroke-width="4.8046"/>
<path d="M-95.8892,277.0276L-95.8892,295.5709" fill="none" stroke="#000" stroke-linecap="round" stroke-width="4.8046"/>
<path d="M-84.2599,276.8522L-84.2599,295.3955" fill="none" stroke="#000" stroke-linecap="round" stroke-width="4.8046"/>
<path d="M-73.7574,275.1381L-73.7574,293.6813" fill="none" stroke="#000" stroke-linecap="round" stroke-width="4.8046"/>
<path d="M-63.8419,278.175L-63.8419,296.7182" fill="none" stroke="#000" stroke-linecap="round" stroke-width="4.8046"/>
<path d="M-53.169,277.8063L-53.169,296.3495" fill="none" stroke="#000" stroke-linecap="round" stroke-width="4.8046"/>
<path d="M-105.8017,352.8807L-78.6788,348.4525" fill="none" stroke="#000" stroke-width=".7749"/>
<path d="M-144.0697,281.0285L-144.0697,299.5717" fill="none" stroke="#000" stroke-linecap="round" stroke-width="4.8046"/>
</g>
<path d="M446.8915,78.4154A61.5183,5.3033 0 1 1 323.8549,78.4154A61.5183,5.3033 0 1 1 446.8915,78.4154z" stroke="#000" stroke-linecap="round" stroke-width="4.862" transform="matrix(-1,0,0,1,1097.0641,295.3947)"/>
<path d="M657.9327,286.9226L657.9327,334.8111C657.9327,354.8181 674.0394,370.9248 694.0464,370.9248L729.4805,370.9248C749.4875,370.9248 765.5942,354.8181 765.5942,334.8111L765.5942,286.9226" fill="#fff" stroke="#000" stroke-linecap="round" stroke-linejoin="round" stroke-width="3.6422"/>
<path d="M-736.5461,306.734H-713.012A.7803,.7803 0 0 1 -712.2318,307.5143V317.5404A.7803,.7803 0 0 1 -713.012,318.3207H-736.5461A.7803,.7803 0 0 1 -737.3264,317.5404V307.5143A.7803,.7803 0 0 1 -736.5461,306.734z" stroke="#000" stroke-linecap="square" stroke-linejoin="round" stroke-width="3.7338" transform="scale(-1,1)"/>
<path d="M-695.1551,306.734H-674.7422A2.3409,2.3409 0 0 1 -672.4013,309.0749V315.9798A2.3409,2.3409 0 0 1 -674.7422,318.3207H-695.1551A2.3409,2.3409 0 0 1 -697.4959,315.9798V309.0749A2.3409,2.3409 0 0 1 -695.1551,306.734z" stroke="#000" stroke-linecap="square" stroke-linejoin="round" stroke-width="3.7338" transform="scale(-1,1)"/>
<path d="M763.286,311.7887C762.7368,311.7991 762.1874,311.7955 761.6381,311.7927C761.2752,311.7906 760.9122,311.7892 760.5493,311.7885C760.2568,311.7881 759.9643,311.7881 759.6718,311.7881C759.3678,311.7875 759.0637,311.7887 758.7597,311.7892C758.369,311.7796 757.9845,311.7889 757.5977,311.84C757.1981,311.8945 756.7946,311.9117 756.3915,311.9227C755.9863,311.9069 755.5886,311.9816 755.1875,312.0217C754.7796,312.0585 754.3695,312.0624 753.9601,312.0668C753.53,312.0691 753.0998,312.0689 752.6697,312.0674C752.2961,312.0666 751.9225,312.0661 751.5489,312.0652C751.2418,312.0644 750.9348,312.0642 750.6278,312.0641C750.3363,312.064 750.0448,312.064 749.7533,312.064C749.4617,312.064 749.1702,312.064 748.8787,312.064C748.56,312.0636 748.2413,312.0645 747.9226,312.066C747.5283,312.0683 747.134,312.0664 746.7398,312.0653C746.3689,312.0651 745.998,312.0658 745.6271,312.0668C745.2304,312.0667 744.8337,312.0668 744.437,312.0658C744.057,312.0659 743.677,312.0665 743.2971,312.0659C742.9515,312.0646 742.6059,312.0644 742.2603,312.0662C741.7271,312.0688 741.1939,312.0704 740.6607,312.0722C739.9341,312.0751 739.2075,312.0756 738.4808,312.0732C737.9476,312.0719 737.4144,312.068 736.8811,312.0678C736.4398,312.0685 735.9985,312.0678 735.5572,312.0663C735.4961,312.0661 735.435,312.0659 735.3739,312.0657L737.1199,313.265C737.1804,313.2648 737.2409,313.2646 737.3014,313.2644C737.7413,313.2629 738.1811,313.2622 738.621,313.2629C739.1489,313.2627 739.6769,313.2588 740.2049,313.2575C740.9324,313.255 741.6601,313.2557 742.3877,313.2585C742.9268,313.2604 743.4658,313.2619 744.0049,313.2645C744.3508,313.2663 744.6966,313.2661 745.0424,313.2648C745.4225,313.2642 745.8026,313.2648 746.1828,313.2649C746.5784,313.264 746.9741,313.264 747.3698,313.2639C747.7422,313.2649 748.1145,313.2656 748.4868,313.2654C748.8805,313.2643 749.2742,313.2624 749.6678,313.2647C749.9884,313.2661 750.309,313.2671 750.6295,313.2667C750.9211,313.2667 751.2126,313.2667 751.5042,313.2667C751.7956,313.2667 752.0871,313.2667 752.3785,313.2666C752.6845,313.2665 752.9905,313.2663 753.2965,313.2657C753.6685,313.265 754.0405,313.2648 754.4125,313.2648C754.8427,313.264 755.2729,313.2655 755.703,313.2607C756.1178,313.2551 756.5332,313.2462 756.9457,313.2012C757.3425,313.1567 757.7378,313.104 758.1388,313.1143C758.5466,313.0992 758.9537,313.0708 759.3581,313.0175C759.7401,312.9771 760.1234,312.9884 760.5074,312.9897C760.8125,312.9903 761.1177,312.9915 761.4228,312.9909C761.7149,312.9909 762.007,312.9909 762.2991,312.9905C762.658,312.9898 763.0168,312.9884 763.3757,312.9862C763.9289,312.9835 764.4822,312.98 765.0354,312.9903L763.286,311.7887z" stroke="#000" stroke-linecap="square" stroke-linejoin="round" stroke-width=".4767"/>
<path d="M671.7912,312.0653C671.0873,312.0771 670.3832,312.0755 669.6793,312.0751C669.0341,312.0742 668.3888,312.0724 667.7436,312.0695C667.3124,312.0671 666.8812,312.067 666.4501,312.0665C666.1103,312.0657 665.7705,312.0648 665.4307,312.0644C665.1339,312.086 664.8486,312.0069 664.5569,311.9688C664.2643,311.9347 663.9692,311.9298 663.6748,311.9263C663.3827,311.9242 663.0905,311.925 662.7983,311.9254C662.5065,311.9258 662.2148,311.926 661.923,311.926C661.6312,311.9261 661.3394,311.9261 661.0476,311.9261C660.7558,311.9261 660.464,311.9261 660.1722,311.9261C659.8589,311.9255 659.5457,311.9272 659.2324,311.9272C658.9151,311.927 658.5979,311.9265 658.2807,311.9263C657.9868,311.9261 657.693,311.9261 657.3992,311.9261C657.2049,311.9261 657.302,311.9261 657.1077,311.9261L658.8586,313.1288C659.0529,313.1288 658.9558,313.1288 659.1501,313.1288C659.4437,313.1287 659.7373,313.1287 660.0309,313.1285C660.3473,313.1283 660.6636,313.1279 660.98,313.1276C661.2944,313.1277 661.6087,313.1293 661.9231,313.1288C662.2149,313.1288 662.5067,313.1288 662.7985,313.1288C663.0903,313.1288 663.3821,313.1288 663.6739,313.1286C663.9657,313.1285 664.2575,313.1283 664.5494,313.1279C664.8406,313.1277 665.132,313.1269 665.4232,313.1322C665.7125,313.1396 666.0023,313.1517 666.2885,313.1958C666.5845,313.241 666.879,313.2865 667.1806,313.2663C667.5183,313.2659 667.856,313.265 668.1938,313.2642C668.622,313.2637 669.0503,313.2636 669.4785,313.2612C670.1184,313.2583 670.7582,313.2565 671.398,313.2556C672.1114,313.2552 672.8249,313.2538 673.5382,313.2654L671.7912,312.0653z" stroke="#000" stroke-linecap="square" stroke-linejoin="round" stroke-width=".4767"/>
<path d="M712.084,312.2286C711.5501,312.2961 711.0114,312.3174 710.4735,312.3334C709.9934,312.345 709.5132,312.345 709.033,312.3437C708.6366,312.3432 708.2401,312.3431 707.8437,312.3421C707.048,312.3626 706.2517,312.3526 705.4558,312.3489C704.9748,312.3453 704.4939,312.3439 704.013,312.3419C703.6294,312.3419 703.2459,312.3415 702.8624,312.3425C702.4592,312.3438 702.056,312.3416 701.6528,312.3422C701.289,312.3413 700.9252,312.3415 700.5614,312.3415C700.197,312.3421 699.8326,312.3418 699.4682,312.341C699.1202,312.3422 698.7721,312.3412 698.424,312.3406C698.0835,312.342 697.7429,312.341 697.4024,312.3406C697.1016,312.3401 696.8008,312.34 696.5,312.3399C696.2484,312.3984 695.9953,312.4405 695.7372,312.4608C695.4573,312.4781 695.1766,312.4781 694.8963,312.4789C694.6046,312.479 694.3129,312.4785 694.0213,312.4782C693.8752,312.478 693.7292,312.478 693.5832,312.4779L695.334,313.6807C695.48,313.6807 695.626,313.6808 695.772,313.681C696.064,313.6813 696.356,313.6821 696.648,313.6806C696.9332,313.6782 697.219,313.6756 697.5029,313.6475C697.7535,313.6181 697.9989,313.5578 698.2508,313.5425C698.551,313.5424 698.8512,313.5423 699.1513,313.5419C699.4918,313.5414 699.8324,313.5405 700.1729,313.5419C700.5205,313.5413 700.8681,313.5402 701.2158,313.5414C701.5797,313.5407 701.9435,313.5403 702.3074,313.5409C702.6706,313.541 703.0338,313.5411 703.3969,313.5402C703.7998,313.5409 704.2027,313.5387 704.6056,313.5399C704.9897,313.5409 705.3738,313.5405 705.7579,313.5405C706.2321,313.5385 706.7063,313.5371 707.1804,313.5335C707.9831,313.5299 708.7861,313.5203 709.5887,313.5409C709.9845,313.5405 710.3802,313.5414 710.776,313.5406C711.2545,313.5377 711.733,313.5339 712.2112,313.518C712.7589,313.4968 713.306,313.4642 713.8513,313.411L712.084,312.2286z" stroke="#000" stroke-linecap="square" stroke-linejoin="round" stroke-width=".4767"/>
<path d="M750.5885,274.4153L750.5885,292.9585" fill="none" stroke="#000" stroke-linecap="round" stroke-width="4.8046"/>
<path d="M741.0645,272.6609L741.0645,291.2042" fill="none" stroke="#000" stroke-linecap="round" stroke-width="4.8046"/>
<path d="M732.1276,274.1252L732.1276,292.6685" fill="none" stroke="#000" stroke-linecap="round" stroke-width="4.8046"/>
<path d="M720.4508,272.958L720.4508,291.5012" fill="none" stroke="#000" stroke-linecap="round" stroke-width="4.8046"/>
<path d="M710.2922,275.1446L710.2922,293.6878" fill="none" stroke="#000" stroke-linecap="round" stroke-width="4.8046"/>
<path d="M698.6629,274.9692L698.6629,293.5124" fill="none" stroke="#000" stroke-linecap="round" stroke-width="4.8046"/>
<path d="M688.1604,273.255L688.1604,291.7983" fill="none" stroke="#000" stroke-linecap="round" stroke-width="4.8046"/>
<path d="M678.245,276.2919L678.245,294.8352" fill="none" stroke="#000" stroke-linecap="round" stroke-width="4.8046"/>
<path d="M667.572,275.9232L667.572,294.4665" fill="none" stroke="#000" stroke-linecap="round" stroke-width="4.8046"/>
<path d="M758.4727,279.1455L758.4727,297.6887" fill="none" stroke="#000" stroke-linecap="round" stroke-width="4.8046"/>
<path d="M715.865,226.6827L708.0525,262.6202" fill="none" stroke="#000"/>
<text font-family="Bitstream Vera Sans" font-size="20" x="716.6887" y="136.2718">
   <tspan text-align="center" text-anchor="middle" x="716.6887" y="136.2718">C'est bien ce que je</tspan>
   <tspan text-align="center" text-anchor="middle" x="719.8723" y="161.2718">pensais! Les bombes à</tspan>
   <tspan text-align="center" text-anchor="middle" x="716.6887" y="186.2718">eau sont plus efficaces</tspan>
   <tspan text-align="center" text-anchor="middle" x="716.6887" y="211.2718">une fois gelées !</tspan>
  </text>
<text font-family="Bitstream Vera Sans" font-size="20" x="89.153" y="76.129">
   <tspan x="89.153" y="76.129">Amélioration</tspan>
  </text>
<path d="M249.2857,241.7857C249.2857,251.2486 243.2057,258.9286 235.7143,258.9286C228.2228,258.9286 222.1871,251.2485 222.1429,241.7857C222.099,232.4105 224.5039,230.6948 233.5714,229.2857C237.5514,228.6672 247.826,233.0527 249.2857,241.7857z" fill="#fff" stroke="#000" stroke-linecap="round" stroke-linejoin="round" stroke-width="3"/>
<path d="M224.2857,231.25A3.9286,3.0357 0 1 1 216.4286,231.25A3.9286,3.0357 0 1 1 224.2857,231.25z" fill="#fff" stroke="#000" stroke-linecap="round" stroke-linejoin="round" stroke-width="3" transform="matrix(.38881,0,0,.8561,137.71676,34.34798)"/>
<path d="M219.6429,228.0357A3.9286,4.8214 0 1 1 211.7857,228.0357A3.9286,4.8214 0 1 1 219.6429,228.0357z" fill="#fff" stroke="#000" stroke-linecap="round" stroke-linejoin="round" stroke-width="3" transform="matrix(.39236,.31856,-.49301,.60723,248.50234,22.81236)"/>
<path d="M201.4286,262.8571L217.8571,251.4286" fill="none" stroke="#000"/>
<path d="M207.5,272.8571L221.7857,258.5714" fill="none" stroke="#000"/>
<path d="M212.8571,283.9286L228.5714,265.7143" fill="none" stroke="#000"/>
<path d="M468.0602,207.7346L539.4888,227.7346" fill="none" stroke="#000"/>
<text font-family="Bitstream Vera Sans" font-size="20" x="390.7143" y="187.8571">
   <tspan font-size="36" x="390.7143" y="187.8571">AIE !</tspan>
  </text>
<path d="M710.6423,355.0457C711.7756,355.0457 716.0569,355.0457 718.7235,355.0457C720.3281,355.0457 722.6198,353.0975 723.7743,352.5203C725.4735,351.6707 726.4219,350.6914 727.8149,349.9949" fill="none" stroke="#000"/>
<path d="M109.0965,205.5431L123.2386,252.0101" fill="none" stroke="#000"/>
<text font-family="Bitstream Vera Sans" font-size="13.569" transform="matrix(.70584,-.70837,.70837,.70584,0,0)" x="224.1105" y="543.8059">
   <tspan x="224.1105" y="543.8059">*bim*</tspan>
  </text>
<path d="M246.7267,367.8805A14.73,2.946 0 1 1 217.2668,367.8805A14.73,2.946 0 1 1 246.7267,367.8805z" stroke="#000" stroke-linecap="round" stroke-linejoin="round" stroke-width="3" transform="translate(4.7872,-.3682)"/>
</svg>
