<svg version="1.0" viewBox="0 0 900 450" xmlns="http://www.w3.org/2000/svg" xmlns:svg="http://www.w3.org/2000/svg">
<path d="M50.9031,78.6568H831.905A31.621,31.621 0 0 1 863.5261,110.2779V358.6267A31.621,31.621 0 0 1 831.905,390.2477H50.9031A31.621,31.621 0 0 1 19.2821,358.6267V110.2779A31.621,31.621 0 0 1 50.9031,78.6568z" fill="#fff" stroke="#000" stroke-linecap="round" stroke-width="7.4907"/>
<path d="M699.3777,76.406L699.3777,303.5489L590.8063,354.2632" fill="none" stroke="#000"/>
<path d="M127.9668,78.384L127.9668,305.5268L19.3953,356.2411" fill="none" stroke="#000"/>
<path d="M623.3737,301.2411L862.2525,301.2411M52.385,301.2411L296.5894,301.2411" fill="none" stroke="#000"/>
<path d="M315.2408,386.3331L315.2408,115.1617C315.2408,95.8801 330.7636,80.3574 350.0451,80.3574L538.3841,80.3574C557.6656,80.3574 573.1883,95.8801 573.1883,115.1617L573.1883,386.3331" fill="#fff" stroke="#000" stroke-linecap="round" stroke-linejoin="round" stroke-width="3.1465"/>
<path d="M588.5237,75.3423L588.5237,389.2327" fill="none" stroke="#000" stroke-width="5.6784"/>
<path d="M296.8136,78.8652L296.8136,388.5461" fill="none" stroke="#000" stroke-width="5.6402"/>
<path d="M841.7405,409.4806C842.1798,409.9908 842.776,410.052 843.4107,410.0879C844.2136,410.0662 845.0179,409.8741 845.7682,409.5886C846.1691,409.436 846.3906,409.3061 846.7647,409.1097C844.526,410.4194 845.7723,409.7179 846.1908,409.2733C846.4077,409.043 846.5372,408.8003 846.6594,408.5127C846.9771,407.6177 847.0183,406.6553 847.0725,405.7157C847.1781,404.3478 846.8949,403.0048 846.59,401.6805C846.2192,400.2875 845.7155,398.9339 845.1607,397.6048C844.8951,396.9768 844.5946,396.3647 844.302,395.7492C843.9077,394.9926 843.5851,395.4625 845.8124,394.5985C845.8891,394.5687 845.9043,394.7351 845.9535,394.8012C846.0358,394.9117 846.1224,395.0191 846.2068,395.1281C847.0285,396.2556 848.0167,397.2436 849.0069,398.2209C849.5895,398.7883 850.2143,399.3149 850.7714,399.9082C850.9828,400.0809 851.1092,400.3243 851.2794,400.5312C851.4456,400.6813 851.5756,400.5232 851.7225,400.4205C849.157,401.959 850.0706,401.4617 850.5626,400.99C850.7563,400.8042 850.939,400.6057 851.1244,400.4118C851.3877,400.1492 851.6372,399.868 851.9254,399.6314C852.6864,399.007 853.7481,398.508 854.5351,398.0604C855.2622,397.7392 856.0061,397.4598 856.7616,397.2136C856.9179,397.1797 857.5226,396.9472 857.6606,397.1043C857.6928,397.1409 857.7058,397.1906 857.7283,397.2337C857.7315,397.2778 857.7437,397.3222 857.7377,397.366C857.6942,397.6857 857.1993,398.0576 856.9833,398.2564C855.9904,399.0772 855.0272,399.9309 854.1102,400.8356C853.3125,401.6913 852.4886,402.536 851.8536,403.523C851.4615,404.1395 851.2531,404.8202 851.1552,405.5374C851.0904,406.1789 851.101,406.8248 851.102,407.4686C851.1371,408.1684 851.2264,408.8697 851.4348,409.5401C851.5542,409.8972 851.7666,410.1595 852.1064,410.3163C852.332,410.3958 852.5902,410.4481 852.8302,410.4028C852.8861,410.3922 853.3519,410.2344 853.3891,410.222C853.9383,409.9223 855.2647,409.2215 852.7824,410.5818C852.6842,410.6356 852.9715,410.4617 853.0645,410.3994C853.2783,410.2564 853.3296,410.2143 853.5302,410.0648C853.7708,409.8848 853.6568,409.9723 853.8726,409.8031L855.5917,409.1118C855.3738,409.2949 855.4905,409.2036 855.2401,409.3837C854.2262,410.1665 853.1031,410.8145 851.9392,411.3448C851.4285,411.4972 851.0514,411.5702 850.5541,411.335C850.1879,411.1284 849.9486,410.8288 849.8198,410.4238C849.6157,409.7335 849.5387,409.0148 849.4717,408.3C849.4678,407.6498 849.4571,406.9979 849.5097,406.3492C849.6025,405.606 849.7984,404.8967 850.1981,404.2536C850.2782,404.1204 850.351,403.9824 850.4385,403.8539C850.6183,403.59 850.8866,403.2878 851.0915,403.0503C851.5441,402.5256 852.0071,402.0101 852.4853,401.5084C853.3772,400.6088 854.3171,399.7586 855.2919,398.9493C855.568,398.6929 855.8537,398.4429 856.092,398.1499C856.1315,398.1708 856.0042,398.1674 855.9599,398.1736C855.7389,398.2045 855.5261,398.2731 855.3133,398.3377C854.5662,398.5843 853.8267,398.8579 853.1174,399.2001C855.562,397.7543 854.0922,398.5752 853.6144,398.9429C853.3234,399.1668 853.0744,399.4433 852.8191,399.705C851.8934,400.6816 851.8402,400.785 850.2741,401.5934C850.0174,401.7147 849.8739,401.7003 849.6731,401.4893C849.5147,401.2798 849.3878,401.0463 849.1921,400.8661C848.6587,400.2635 848.0639,399.7168 847.4989,399.1448C846.5181,398.1464 845.5222,397.1599 844.6493,396.063C844.5555,395.9576 844.4616,395.8522 844.3679,395.7467C844.3158,395.6881 844.1525,395.6217 844.212,395.5706C845.6261,394.3567 845.546,394.0389 845.9113,394.8403C846.187,395.4684 846.4776,396.0901 846.7284,396.7289C847.2533,398.0818 847.7373,399.452 848.1337,400.8486C848.4522,402.1788 848.7672,403.53 848.6756,404.9085C848.6395,405.857 848.5838,406.8229 848.3263,407.7403C848.2417,407.975 848.2124,408.0948 848.0773,408.3095C847.4834,409.2531 846.2026,409.6986 845.3607,410.2343C844.2893,410.7608 843.1494,411.1332 841.9435,411.1386C841.7759,411.1251 841.607,411.1227 841.4406,411.0983C840.945,411.0253 840.4831,410.8088 840.1401,410.4414L841.7405,409.4806z" stroke="#000" stroke-linecap="round" stroke-linejoin="round" stroke-width=".2515"/>
<path d="M857.105,407.3238C856.3657,407.5309 854.763,408.5203 857.5606,406.9194C857.1726,407.1259 856.9422,407.462 856.7607,407.8496C856.6571,408.1602 856.5465,408.5007 856.569,408.8341C856.5846,409.0648 856.6445,409.1806 856.723,409.3961C857.0302,410.0029 857.5025,410.5019 858.0629,410.8799C858.4766,411.168 858.9468,411.2991 859.446,411.3051C859.8311,411.2176 860.189,411.0676 860.5417,410.8927C860.692,410.8182 861.1326,410.5749 860.9884,410.6607C859.3266,411.6499 859.7428,411.3829 860.3309,410.9802C860.8151,410.6072 861.3414,410.1745 861.4661,409.5403C861.4835,409.4517 861.4823,409.3604 861.4903,409.2705C861.4583,408.4772 860.9571,407.8562 860.4734,407.2697C860.1686,406.9304 859.8233,406.6069 859.4065,406.4087C859.195,406.3082 859.0865,406.2903 858.8625,406.2308C858.4106,406.2062 857.937,406.2492 857.5079,406.4049C857.3096,406.4769 857.0089,406.6443 856.8246,406.7417C859.3377,405.234 857.6911,406.2294 857.1727,406.6802L855.4622,407.3799C856.2582,406.6142 857.3211,406.1631 858.2464,405.6031C858.5149,405.4725 858.6735,405.3822 858.9605,405.2951C859.4173,405.1564 859.909,405.124 860.3795,405.1934C860.6214,405.2705 860.7195,405.29 860.9467,405.4111C861.3697,405.6366 861.7186,405.979 862.0307,406.3366C862.5395,406.963 863.056,407.6122 863.1335,408.446C863.1298,408.5472 863.136,408.6492 863.1223,408.7496C863.0295,409.432 862.5218,409.9171 862.0056,410.3203C861.0044,411.039 861.5175,410.6912 859.582,411.7875C859.0777,412.0731 858.5261,412.315 857.9469,412.3826C857.4251,412.3364 856.9396,412.1827 856.5146,411.866C855.9397,411.4467 855.4563,410.9173 855.1196,410.2866C855.0411,410.0811 854.9519,409.8854 854.925,409.6637C854.883,409.3165 854.9985,408.9516 855.0822,408.6207C855.243,408.2122 855.4471,407.8249 855.8313,407.585C856.7344,407.0652 857.5795,406.4687 858.587,406.1907L857.105,407.3238z" stroke="#000" stroke-linecap="round" stroke-linejoin="round" stroke-width=".2515"/>
<path d="M864.9012,408.0783C864.581,408.1807 864.2482,408.2686 863.9438,408.4145C863.8415,408.4635 863.7455,408.5246 863.6464,408.5796C864.0671,408.344 864.4878,408.1084 864.9085,407.8729C864.4091,408.2099 864.0386,408.5466 863.8151,409.1114C863.6689,409.5767 863.739,409.9701 864.1074,410.3142C864.1964,410.3973 864.3009,410.462 864.3977,410.5358C865.1019,410.9404 865.9355,411.0852 866.7421,410.9996C866.9733,410.9751 867.2001,410.9191 867.4291,410.8788C867.959,410.742 868.19,410.7039 868.6877,410.495C868.8528,410.4257 869.3227,410.1646 869.1689,410.2564C866.9308,411.5929 867.9439,411.0106 868.2953,410.6548C868.3733,410.5759 868.4352,410.4826 868.5051,410.3965C868.8116,409.917 868.8195,409.4904 868.6036,408.9795C868.564,408.8898 868.3356,408.4191 868.1745,408.521C868.1466,408.5386 868.1325,408.5718 868.1115,408.5973C870.6537,407.1476 869.6858,407.39 869.4392,408.0965C869.3328,408.4014 869.3143,408.6978 869.2996,409.018C869.4763,410.5043 870.1329,411.8806 870.6723,413.2615C871.3282,415.0859 871.9604,416.9791 872.0332,418.9359C872.0477,419.3254 872.0098,419.715 871.998,420.1045C871.9399,420.4791 871.9073,420.8585 871.8235,421.2282C871.5504,422.434 870.9287,423.5378 870.0056,424.3651C869.8429,424.5109 869.6586,424.6309 869.4852,424.7637C868.791,425.1264 868.1307,425.5629 867.4027,425.8516C867.101,425.9713 866.3726,425.7216 866.1338,425.6152C865.2463,425.2195 864.4798,424.5697 863.7259,423.9745C862.4539,422.8857 861.2086,421.75 860.0707,420.5193C859.4813,419.8817 859.3355,419.6671 858.8235,419.0075C858.3877,418.2804 857.8741,417.4375 858.3025,416.5805C858.556,416.0733 858.862,415.8893 859.2867,415.52C860.5594,414.6952 860.6636,414.6013 862.5062,413.6683C862.9559,413.4405 864.4062,412.9255 864.85,412.7707C865.7351,412.4619 866.6869,412.156 867.5769,411.8652C869.915,411.1907 872.205,410.3693 874.4683,409.4787C874.6605,409.3971 874.8529,409.316 875.0447,409.2337C875.1913,409.1709 875.339,409.1104 875.4837,409.0434C875.7795,408.9063 876.0558,408.7367 876.361,408.6205C876.7748,408.5615 876.9199,409.0596 877.0438,409.3623C877.3291,410.1328 877.4898,410.9408 877.5592,411.7577C877.5763,412.1236 877.5882,412.4913 877.5363,412.8552C877.5311,412.8924 877.5503,412.9502 877.5162,412.9661C876.9618,413.2243 876.3829,413.4262 875.8163,413.6562C875.8178,413.5437 875.8116,413.4307 875.8207,413.3185C875.8341,413.1552 875.8622,412.9935 875.8837,412.8311C876.0094,411.8832 876.1741,410.9479 876.367,410.0115C876.5625,409.1947 876.7313,408.3392 877.1981,407.6262C877.7268,407.0727 878.9024,405.9815 879.4749,406.6166C879.5349,406.6831 879.5769,406.7638 879.6278,406.8374C879.7399,407.0355 879.8366,407.186 879.9099,407.4055C880.116,408.0226 880.2085,408.746 880.3176,409.3879C880.4601,409.9434 880.4058,410.6086 880.5743,411.1533C880.7972,410.5546 880.5721,411.181 878.9711,411.9444C878.9387,411.9599 879.0201,411.8909 879.0383,411.8599C879.0799,411.7887 879.1616,411.5798 879.1933,411.5156C879.2367,411.4281 879.2862,411.3437 879.3326,411.2578C879.6337,410.7753 879.8886,410.2653 880.2204,409.8025C880.775,409.1075 881.2939,408.9558 882.2541,408.4282C882.2871,408.4101 882.3314,408.4206 882.3668,408.4334C882.4118,408.4497 882.4467,408.486 882.4867,408.5122C882.8623,408.9072 882.993,409.4661 883.1198,409.9804C883.23,410.5405 883.2889,411.1117 883.4938,411.6474C883.5437,411.7176 883.5844,411.7953 883.6434,411.858C884.0732,412.315 884.7841,412.6565 885.3704,412.8423C885.591,412.9122 885.8182,412.9589 886.0422,413.0172C886.9903,413.2538 887.9416,413.2655 888.8847,413.0063C889.0934,412.9489 889.3031,412.889 889.5008,412.8009C889.6849,412.7187 889.8499,412.599 890.0244,412.498C889.6613,412.6854 889.3249,412.9377 888.935,413.0602C888.7847,413.1074 889.1689,412.8484 889.2763,412.733C889.5926,412.3929 889.7735,412.0147 889.9008,411.5748C889.9882,411.2084 889.9866,410.832 889.9765,410.4582C889.8744,409.6866 889.1927,410.446 891.5527,409.4876C891.5957,409.4701 891.5275,409.5771 891.5203,409.6229C891.5098,409.6895 891.5065,409.7571 891.4996,409.8242C891.4661,410.4322 891.4522,411.0415 891.5198,411.6472C891.5886,412.0369 891.6631,412.435 891.9686,412.7085C892.1835,412.85 892.4115,412.8596 892.6489,412.7819C893.2201,412.4937 894.0776,411.9936 891.48,413.46C891.3878,413.5121 891.6582,413.3458 891.7458,413.2864L893.4748,412.5989C893.3409,412.7088 893.3653,412.6975 893.2116,412.7874C892.6275,413.1289 891.9041,413.6993 891.165,413.9073C890.8765,413.9382 890.6075,413.8754 890.3819,413.6837C890.0679,413.3563 889.9654,412.9389 889.8954,412.4987C889.8212,411.886 889.8361,411.2705 889.8441,410.6542C889.8466,410.5719 889.8538,410.2859 889.8596,410.2821C891.0827,409.4697 891.4781,408.7008 891.6334,409.6089C891.6421,410.0017 891.6425,410.3969 891.5605,410.7834C891.1579,412.3874 890.0949,412.7528 888.6336,413.6179C888.4539,413.7085 888.2818,413.816 888.0945,413.8897C886.969,414.3328 885.7427,414.2973 884.585,414.0197C884.3537,413.9584 884.1189,413.9092 883.8912,413.8358C883.3088,413.6478 882.4898,413.2458 882.0603,412.7939C881.9896,412.7195 881.9386,412.6285 881.8777,412.5458C881.6736,411.9995 881.6147,411.4207 881.5097,410.8498C881.4038,410.4074 881.2986,409.8603 880.9331,409.5533C880.8469,409.5641 880.8914,409.5511 880.8022,409.6004C881.2963,409.3072 881.7903,409.0139 882.2843,408.7207C882.3261,408.6966 882.2078,408.7796 882.1728,408.8127C882.0848,408.8956 882.0135,408.9954 881.9185,409.0714C881.5639,409.5172 881.3082,410.0228 881.012,410.5076C880.9007,410.6982 880.8087,410.8796 880.7378,411.0886C880.7234,411.1312 880.7394,411.1951 880.7008,411.2183C879.0291,412.2239 879.3999,412.6306 878.9333,412.0446C878.793,411.4531 878.8649,410.8251 878.7282,410.2308C878.5945,409.3989 878.4916,408.5079 878.0394,407.7801C877.9608,407.6856 877.927,407.5989 877.8021,407.5759C877.7682,407.5696 877.6702,407.604 877.6993,407.5858C878.1841,407.283 878.6875,407.0109 879.1774,406.7166C879.2215,406.6901 879.0813,406.7545 879.0379,406.7818C878.9866,406.814 878.9426,406.8566 878.8949,406.8939C878.3437,407.5512 878.1775,408.4386 877.9546,409.2438C877.7035,410.4047 877.4879,411.5819 877.4525,412.7717C876.9112,413.1035 876.3808,413.4538 875.8285,413.767C875.798,413.7843 875.8587,413.7036 875.8685,413.67C875.9696,413.3221 875.9408,412.9539 875.9407,412.597C875.894,411.7985 875.7448,411.0044 875.4397,410.2618C875.3815,410.1275 875.2746,409.7381 875.071,409.7243C875.0238,409.7212 874.9372,409.7585 874.8996,409.772C874.2975,410.0401 873.7128,410.3477 873.0871,410.562C870.8438,411.4057 868.5814,412.1965 866.2808,412.8712C864.9455,413.313 863.6008,413.74 862.2929,414.2598C861.9164,414.4094 861.5717,414.6555 861.1747,414.736C860.9708,414.7773 861.8759,414.291 861.6889,414.3821C861.4161,414.515 861.1733,414.7022 860.9156,414.8622C860.4341,415.2486 859.8438,415.6485 859.7297,416.3147C859.6174,416.9704 860.035,417.5767 860.3175,418.1204C860.4921,418.3591 860.6584,418.6041 860.8415,418.8364C862.0921,420.4224 863.6138,421.7831 865.1631,423.0677C865.9232,423.6352 866.6984,424.2698 867.5969,424.614C867.8043,424.6934 868.0219,424.7535 868.2426,424.7781C868.4308,424.7991 868.9121,424.5895 868.8101,424.7491C868.5978,425.0816 868.1593,425.1951 867.8338,425.4181C868.016,425.291 868.2087,425.1778 868.3803,425.0367C869.3331,424.2528 870.0009,423.1705 870.2982,421.9746C870.3885,421.6113 870.4238,421.2364 870.4866,420.8673C870.5047,420.4831 870.5507,420.0993 870.5409,419.7148C870.4914,417.7737 869.833,415.9006 869.1697,414.1002C868.6069,412.7083 867.922,411.3363 867.677,409.8427C867.6687,409.4891 867.6774,409.22 867.763,408.8779C867.7678,408.8588 867.8627,408.5183 867.905,408.4892C868.4478,408.1153 869.0259,407.7955 869.5864,407.4487C869.629,407.4521 869.673,407.4476 869.7142,407.4589C869.979,407.5313 870.106,407.8598 870.2166,408.0746C870.4523,408.6311 870.4846,409.1262 870.1848,409.6729C870.1168,409.7703 870.058,409.8749 869.9807,409.9652C869.4286,410.6104 868.3243,411.0632 867.7623,411.3759C867.2249,411.675 866.6065,411.8028 866.0153,411.9412C865.7786,411.9767 865.5438,412.0283 865.3053,412.0478C864.4532,412.1173 863.5828,411.9644 862.8555,411.507C862.7511,411.4236 862.6386,411.3495 862.5423,411.257C862.1349,410.8656 862.0078,410.4337 862.1426,409.8934C862.3457,409.2473 862.6643,408.9346 863.2073,408.5369C864.2553,407.9178 865.2027,407.2349 866.3831,406.9451L864.9012,408.0783z" stroke="#000" stroke-linecap="round" stroke-linejoin="round" stroke-width=".2515"/>
<path d="M890.312,402.4286C890.0877,402.6918 889.9085,402.9929 889.8232,403.3293C889.7622,403.6657 889.9628,403.7519 890.2387,403.8726C890.6849,404.0361 891.0664,404.0181 891.5234,403.9373C892.1345,403.7278 893.1051,403.1307 890.3886,404.6294C890.3504,404.6504 890.4609,404.5803 890.4931,404.551C890.5697,404.4811 890.5775,404.4522 890.6276,404.3646C890.7199,404.1576 890.7108,403.9638 890.592,403.7732C890.4339,403.6234 890.1962,403.6374 889.9922,403.6275C889.7816,403.647 889.5809,403.6992 889.4096,403.8256L890.8645,402.6539C891.0716,402.5755 891.2836,402.5259 891.5074,402.5437C891.7736,402.57 892.0356,402.6078 892.2083,402.8354C892.3489,403.072 892.4045,403.3166 892.3232,403.5866C892.0285,404.4759 890.9091,404.8354 890.043,405.0471C889.5816,405.1051 889.1254,405.0798 888.6915,404.8944C888.3797,404.7334 888.1001,404.5321 888.1473,404.1417C888.2049,403.7793 888.3817,403.4546 888.594,403.1585L890.312,402.4286z" stroke="#000" stroke-linecap="round" stroke-linejoin="round" stroke-width=".2515"/>
<path d="M866.4674,406.9604C866.8211,406.7885 867.1586,406.5852 867.5235,406.437C867.7522,406.2885 868.003,406.2199 868.2704,406.1906C868.5165,406.1719 868.7635,406.1751 869.01,406.1759C869.2548,406.1499 869.462,406.2168 869.677,406.3217C869.8275,406.4423 869.9462,406.6025 870.0605,406.7575C870.1599,406.938 870.2183,407.1406 870.2795,407.3372C870.3343,407.5388 870.4089,407.7314 870.4484,407.9373C870.4865,408.1791 870.4891,408.4244 870.492,408.6686C870.4931,408.7945 870.493,408.9204 870.4929,409.0463L868.8309,409.8929C868.8311,409.7677 868.8313,409.6424 868.8307,409.5171C868.829,409.2828 868.8286,409.0475 868.7991,408.8147C868.7663,408.6139 868.6929,408.4293 868.6395,408.2345C868.5876,408.0575 868.5316,407.8773 868.4513,407.7124C868.3535,407.5841 868.2583,407.4377 868.1177,407.3546C867.9202,407.2688 867.7143,407.2633 867.5009,407.2725C867.2596,407.2736 867.0167,407.2724 866.7778,407.3114C866.5252,407.3648 866.2976,407.4735 866.0676,407.5889C865.7097,407.7553 865.3636,407.9461 865.0167,408.134L866.4674,406.9604z" stroke="#000" stroke-linecap="round" stroke-linejoin="round" stroke-width=".2515"/>
<path d="M60.8303,43.3505H247.7085A15.9099,15.9099 0 0 1 263.6184,59.2604V59.2604A15.9099,15.9099 0 0 1 247.7085,75.1703H60.8303A15.9099,15.9099 0 0 1 44.9204,59.2604V59.2604A15.9099,15.9099 0 0 1 60.8303,43.3505z" fill="#fff" stroke="#000" stroke-linecap="round" stroke-linejoin="round" stroke-width="4"/>
<path d="M101.5203,44.9288A36.8706,34.8503 0 1 1 27.7792,44.9288A36.8706,34.8503 0 1 1 101.5203,44.9288z" stroke="#000" stroke-linecap="round" stroke-linejoin="round" stroke-width="7.491" transform="matrix(.7121,0,0,.7121,-.36594,20.97337)"/>
<text font-family="Bitstream Vera Sans" font-size="40" x="20.2732" y="69.0282">
   <tspan fill="#f9f9f9" x="20.2732" y="69.0282">47</tspan>
  </text>
<text font-family="Bitstream Vera Sans" font-size="20" x="119.1936" y="66.0274">
   <tspan x="119.1936" y="66.0274">Repos</tspan>
  </text>
<path d="M971.9506,922.4566H1125.4605A9.0319,9.0319 0 0 1 1134.4924,931.4885V976.7258A9.0319,9.0319 0 0 1 1125.4605,985.7577H971.9506A9.0319,9.0319 0 0 1 962.9187,976.7258V931.4885A9.0319,9.0319 0 0 1 971.9506,922.4566z" stroke="#000" stroke-linecap="round" stroke-linejoin="round" stroke-width="2.7076" transform="matrix(1,0,-.93627,.35128,0,0)"/>
<path d="M965.456,918.238H1133.2163A6.1895,9.0319 0 0 1 1139.4057,927.2699V984.7073A6.1895,9.0319 0 0 1 1133.2163,993.7392H965.456A6.1895,9.0319 0 0 1 959.2665,984.7073V927.2699A6.1895,9.0319 0 0 1 965.456,918.238z" stroke="#000" stroke-linecap="round" stroke-linejoin="round" stroke-width="2.7076" transform="matrix(1,0,-.93627,.35128,0,0)"/>
<path d="M67.1248,321.9092H67.1248A5.1786,5.1786 0 0 1 72.3034,327.0878V340.6592A5.1786,5.1786 0 0 1 67.1248,345.8378H67.1248A5.1786,5.1786 0 0 1 61.9463,340.6592V327.0878A5.1786,5.1786 0 0 1 67.1248,321.9092z" fill="#fff" stroke="#000" stroke-linecap="round" stroke-linejoin="round" stroke-width="3"/>
<path d="M202.1606,322.302H202.1606A5.1786,5.1786 0 0 1 207.3391,327.4806V341.052A5.1786,5.1786 0 0 1 202.1606,346.2306H202.1606A5.1786,5.1786 0 0 1 196.982,341.052V327.4806A5.1786,5.1786 0 0 1 202.1606,322.302z" fill="#fff" stroke="#000" stroke-linecap="round" stroke-linejoin="round" stroke-width="3"/>
<path d="M247.6963,303.9092H247.6963A5.1786,5.1786 0 0 1 252.8748,309.0877V322.6592A5.1786,5.1786 0 0 1 247.6963,327.8377H247.6963A5.1786,5.1786 0 0 1 242.5177,322.6592V309.0877A5.1786,5.1786 0 0 1 247.6963,303.9092z" fill="#fff" stroke="#000" stroke-linecap="round" stroke-linejoin="round" stroke-width="3"/>
<path d="M110.6963,304.9806H110.6963A5.1786,5.1786 0 0 1 115.8749,310.1592V323.7306A5.1786,5.1786 0 0 1 110.6963,328.9092H110.6963A5.1786,5.1786 0 0 1 105.5177,323.7306V310.1592A5.1786,5.1786 0 0 1 110.6963,304.9806z" fill="#fff" stroke="#000" stroke-linecap="round" stroke-linejoin="round" stroke-width="3"/>
<path d="M897.0268,848.7417H1081.2599A10.8396,10.8396 0 0 1 1092.0995,859.5813V913.8722A10.8396,10.8396 0 0 1 1081.2599,924.7118H897.0268A10.8396,10.8396 0 0 1 886.1872,913.8722V859.5813A10.8396,10.8396 0 0 1 897.0268,848.7417z" fill="#fff" stroke="#000" stroke-linecap="round" stroke-linejoin="round" stroke-width="3.2495" transform="matrix(.78777,0,-.73757,.27673,29.90892,72.16057)"/>
<path d="M892.6436,843.6788H1076.8768A10.8396,10.8396 0 0 1 1087.7164,854.5183V908.8093A10.8396,10.8396 0 0 1 1076.8768,919.6488H892.6436A10.8396,10.8396 0 0 1 881.8041,908.8093V854.5183A10.8396,10.8396 0 0 1 892.6436,843.6788z" fill="#fff" stroke="#000" stroke-linecap="round" stroke-linejoin="round" stroke-width="3.2495" transform="matrix(.78777,0,-.73757,.27673,29.90892,72.16057)"/>
<path d="M897.0268,848.7417H1081.2599A10.8396,10.8396 0 0 1 1092.0995,859.5813V913.8722A10.8396,10.8396 0 0 1 1081.2599,924.7118H897.0268A10.8396,10.8396 0 0 1 886.1872,913.8722V859.5813A10.8396,10.8396 0 0 1 897.0268,848.7417z" fill="#fff" stroke="#000" stroke-linecap="round" stroke-linejoin="round" stroke-width="3.2495" transform="matrix(.78777,0,-.73757,.27673,30.19026,69.71568)"/>
<path d="M892.6436,843.6788H1076.8768A10.8396,10.8396 0 0 1 1087.7164,854.5183V908.8093A10.8396,10.8396 0 0 1 1076.8768,919.6488H892.6436A10.8396,10.8396 0 0 1 881.8041,908.8093V854.5183A10.8396,10.8396 0 0 1 892.6436,843.6788z" fill="#fff" stroke="#000" stroke-linecap="round" stroke-linejoin="round" stroke-width="3.2495" transform="matrix(.78777,0,-.73757,.27673,30.19026,69.71568)"/>
<path d="M897.0268,848.7417H1081.2599A10.8396,10.8396 0 0 1 1092.0995,859.5813V913.8722A10.8396,10.8396 0 0 1 1081.2599,924.7118H897.0268A10.8396,10.8396 0 0 1 886.1872,913.8722V859.5813A10.8396,10.8396 0 0 1 897.0268,848.7417z" fill="#fff" stroke="#000" stroke-linecap="round" stroke-linejoin="round" stroke-width="3.2495" transform="matrix(.78777,0,-.73757,.27673,30.40127,66.93738)"/>
<path d="M892.6436,843.6788H1076.8768A10.8396,10.8396 0 0 1 1087.7164,854.5183V908.8093A10.8396,10.8396 0 0 1 1076.8768,919.6488H892.6436A10.8396,10.8396 0 0 1 881.8041,908.8093V854.5183A10.8396,10.8396 0 0 1 892.6436,843.6788z" fill="#fff" stroke="#000" stroke-linecap="round" stroke-linejoin="round" stroke-width="3.2495" transform="matrix(.78777,0,-.73757,.27673,30.40127,66.93738)"/>
<path d="M58.3136,293.2906H110.4669A3.0109,3.0109 0 0 1 113.4778,296.3015V338.0094A3.0109,3.0109 0 0 1 110.4669,341.0203H58.3136A3.0109,3.0109 0 0 1 55.3028,338.0094V296.3015A3.0109,3.0109 0 0 1 58.3136,293.2906z" fill="#fff" stroke="#000" stroke-linecap="round" stroke-linejoin="round" stroke-width="3.1126" transform="matrix(.92897,-.37014,0,1,0,0)"/>
<path d="M61.304,295.0288H113.4572A3.0109,3.0109 0 0 1 116.4681,298.0397V339.7476A3.0109,3.0109 0 0 1 113.4572,342.7585H61.304A3.0109,3.0109 0 0 1 58.2931,339.7476V298.0397A3.0109,3.0109 0 0 1 61.304,295.0288z" fill="#fff" stroke="#000" stroke-linecap="round" stroke-linejoin="round" stroke-width="3.1126" transform="matrix(.92897,-.37014,0,1,0,0)"/>
<path d="M119.198,282.6935A52.2754,16.2887 0 1 1 14.6472,282.6935A52.2754,16.2887 0 1 1 119.198,282.6935z" fill="#fff" stroke="#000" stroke-linecap="round" stroke-linejoin="round" stroke-width="3" transform="matrix(.59838,-.3161,.28511,.66342,-29.74673,134.17669)"/>
<path d="M121.0326,232.6608L143.3509,257.1547C152.6752,267.3879 151.9434,283.1327 141.7103,292.4569L123.5865,308.9709C113.3534,318.2951 97.6086,317.5634 88.2844,307.3303L65.966,282.8363" fill="#fff" stroke="#000" stroke-linecap="round" stroke-linejoin="round" stroke-width="2.5203"/>
<path d="M-121.635,267.2025H-105.3503A.5399,.5399 0 0 1 -104.8104,267.7424V274.6801A.5399,.5399 0 0 1 -105.3503,275.22H-121.635A.5399,.5399 0 0 1 -122.1749,274.6801V267.7424A.5399,.5399 0 0 1 -121.635,267.2025z" stroke="#000" stroke-linecap="square" stroke-linejoin="round" stroke-width="2.5837" transform="matrix(.73917,-.67352,.67352,.73917,0,0)"/>
<path d="M-92.994,267.2025H-78.8691A1.6198,1.6198 0 0 1 -77.2493,268.8223V273.6002A1.6198,1.6198 0 0 1 -78.8691,275.22H-92.994A1.6198,1.6198 0 0 1 -94.6138,273.6002V268.8223A1.6198,1.6198 0 0 1 -92.994,267.2025z" stroke="#000" stroke-linecap="square" stroke-linejoin="round" stroke-width="2.5837" transform="matrix(.73917,-.67352,.67352,.73917,0,0)"/>
<path d="M78.7354,294.4791C79.0212,294.2285 79.3005,293.9706 79.5801,293.7132C79.7648,293.5429 79.9498,293.373 80.1351,293.2036C80.2845,293.067 80.4341,292.9307 80.5837,292.7944C80.7389,292.6524 80.895,292.5113 81.0508,292.3699C81.2461,292.1829 81.4471,292.0084 81.6687,291.8543C81.8986,291.6959 82.1129,291.5167 82.3242,291.3345C82.5241,291.1375 82.7623,290.9904 82.9862,290.824C83.212,290.6527 83.4236,290.4636 83.635,290.275C83.8561,290.0757 84.076,289.8751 84.2953,289.6739C84.4861,289.4994 84.6769,289.325 84.8675,289.1504C85.0242,289.0069 85.1812,288.8637 85.3382,288.7206C85.4872,288.5847 85.6363,288.4488 85.7854,288.313C85.9345,288.1771 86.0836,288.0413 86.2328,287.9054C86.3956,287.7567 86.559,287.6086 86.7227,287.4608C86.9254,287.2783 87.1262,287.0935 87.3274,286.9092C87.5169,286.7362 87.707,286.5638 87.8972,286.3915C88.1,286.2065 88.303,286.0216 88.5054,285.8362C88.6998,285.6592 88.8944,285.4824 89.0885,285.3051C89.2647,285.1433 89.4413,284.9822 89.6189,284.822C89.8928,284.5749 90.1663,284.3272 90.4399,284.0797C90.8129,283.7424 91.1848,283.4041 91.5553,283.0642C91.8274,282.815 92.0984,282.5645 92.371,282.3159C92.597,282.1106 92.8224,281.9045 93.0475,281.6981C93.0786,281.6696 93.1098,281.641 93.1409,281.6124L92.8068,283.0395C92.7758,283.0676 92.7447,283.0957 92.7137,283.1238C92.488,283.328 92.2628,283.5327 92.0381,283.738C91.7679,283.9839 91.4961,284.228 91.2254,284.4734C90.8522,284.8112 90.4803,285.1507 90.1094,285.4912C89.8346,285.7434 89.5596,285.9955 89.2851,286.248C89.109,286.4101 88.932,286.5712 88.7546,286.7317C88.5599,286.9085 88.3657,287.086 88.1713,287.2632C87.9685,287.4471 87.7662,287.6316 87.5637,287.8159C87.3737,287.99 87.1836,288.1639 86.9931,288.3373C86.7912,288.5202 86.589,288.7027 86.3887,288.8873C86.2254,289.0374 86.0619,289.1873 85.8977,289.3365C85.7486,289.4724 85.5995,289.6083 85.4504,289.7442C85.3013,289.88 85.1522,290.0158 85.0032,290.1516C84.8466,290.2941 84.69,290.4366 84.5332,290.5789C84.3426,290.752 84.1522,290.9253 83.9619,291.0986C83.7415,291.2987 83.5222,291.4999 83.3,291.6979C83.0852,291.8884 82.8685,292.0774 82.6366,292.2467C82.4129,292.4088 82.1862,292.5661 81.9859,292.7583C81.7702,292.9406 81.5488,293.1158 81.3172,293.277C81.1029,293.4344 80.9121,293.6188 80.7164,293.7984C80.5605,293.9409 80.405,294.0837 80.2487,294.2256C80.0992,294.3618 79.9499,294.4979 79.8003,294.6338C79.6164,294.8007 79.4322,294.9672 79.2477,295.1334C78.9634,295.3898 78.6788,295.6459 78.4007,295.909L78.7354,294.4791z" stroke="#000" stroke-linecap="square" stroke-linejoin="round" stroke-width=".3298"/>
<path d="M125.662,251.9795C126.0275,251.6575 126.3869,251.3286 126.7467,251.0003C127.0763,250.6991 127.4055,250.3975 127.7342,250.0953C127.9536,249.8931 128.1741,249.6921 128.3944,249.4909C128.5678,249.3321 128.7412,249.1733 128.9148,249.0147C129.0767,248.8875 129.1857,248.714 129.3172,248.5586C129.4509,248.4048 129.5996,248.2648 129.7485,248.1258C129.897,247.9885 130.0468,247.8528 130.1964,247.7168C130.3459,247.5811 130.4952,247.4452 130.6445,247.3092C130.7937,247.1732 130.943,247.0373 131.0922,246.9013C131.2414,246.7653 131.3907,246.6293 131.5399,246.4933C131.6999,246.347 131.8609,246.2018 132.0212,246.0559C132.1833,245.9079 132.3454,245.7598 132.5075,245.6118C132.6577,245.4748 132.808,245.3379 132.9583,245.2009C133.0577,245.1103 133.008,245.1556 133.1074,245.0651L132.7723,246.4962C132.6729,246.5868 132.7226,246.5415 132.6233,246.6321C132.4731,246.7689 132.3229,246.9057 132.1726,247.0425C132.0107,247.1898 131.8487,247.337 131.6868,247.4843C131.526,247.6308 131.366,247.7782 131.2049,247.9244C131.0557,248.0604 130.9064,248.1964 130.7572,248.3324C130.6079,248.4684 130.4587,248.6044 130.3093,248.7403C130.16,248.8763 130.0107,249.0121 129.8612,249.148C129.7122,249.2836 129.5628,249.4189 129.4163,249.5574C129.2718,249.6961 129.1292,249.8373 129.0033,249.9932C128.873,250.1543 128.7435,250.3148 128.5799,250.445C128.407,250.6022 128.2338,250.7592 128.0607,250.9162C127.8414,251.1155 127.6223,251.315 127.4022,251.5134C127.0736,251.8101 126.7455,252.1073 126.4178,252.4051C126.0527,252.7373 125.6871,253.0691 125.3277,253.4075L125.662,251.9795z" stroke="#000" stroke-linecap="square" stroke-linejoin="round" stroke-width=".3298"/>
<path d="M105.1291,270.8414C105.4337,270.6272 105.7191,270.387 106.0017,270.1445C106.2527,269.9267 106.4983,269.7029 106.7433,269.4784C106.9459,269.2934 107.1486,269.1086 107.3509,268.9233C107.7674,268.563 108.17,268.1867 108.5754,267.8139C108.8197,267.5879 109.0651,267.3631 109.3101,267.1379C109.5063,266.9592 109.7023,266.7802 109.8989,266.602C110.1057,266.4148 110.3109,266.2257 110.5174,266.0381C110.7031,265.8681 110.8893,265.6986 111.0754,265.5291C111.262,265.3596 111.4482,265.1896 111.6343,265.0194C111.8128,264.8578 111.9904,264.695 112.1681,264.5325C112.343,264.3745 112.5167,264.2153 112.6907,264.0564C112.8443,263.916 112.9981,263.7757 113.1519,263.6355C113.3079,263.5481 113.4569,263.4517 113.5984,263.3418C113.7496,263.2202 113.8932,263.0894 114.0369,262.9591C114.1862,262.8233 114.3351,262.6871 114.4842,262.551C114.5588,262.4829 114.6334,262.4148 114.7081,262.3467L114.3731,263.7778C114.2985,263.8459 114.2239,263.914 114.1493,263.9821C114.0001,264.1184 113.8511,264.2549 113.701,264.3902C113.554,264.5219 113.4067,264.6538 113.2483,264.7717C113.1065,264.8735 112.9529,264.957 112.8169,265.0665C112.6633,265.2064 112.5097,265.3462 112.356,265.4859C112.1816,265.6444 112.007,265.8026 111.8335,265.962C111.6554,266.1237 111.4771,266.2852 111.2999,266.4478C111.1134,266.617 110.9271,266.7864 110.7413,266.9563C110.5556,267.1256 110.3698,267.2949 110.1837,267.4637C109.9779,267.6518 109.7708,267.8385 109.5653,268.0269C109.3693,268.2064 109.1727,268.3852 108.9762,268.5642C108.7328,268.7842 108.4896,269.0044 108.2454,269.2236C107.8331,269.5958 107.4179,269.9652 107.017,270.3498C106.8144,270.534 106.6124,270.7189 106.4096,270.9029C106.1635,271.1244 105.917,271.3455 105.665,271.5603C105.375,271.8047 105.08,272.0429 104.7763,272.2699L105.1291,270.8414z" stroke="#000" stroke-linecap="square" stroke-linejoin="round" stroke-width=".3298"/>
<path d="M67.8121,269.4457L76.4541,278.9302" fill="none" stroke="#000" stroke-linecap="round" stroke-width="3.3246"/>
<path d="M71.8658,264.1098L80.5078,273.5942" fill="none" stroke="#000" stroke-linecap="round" stroke-width="3.3246"/>
<path d="M77.1193,260.6937L85.7613,270.1781" fill="none" stroke="#000" stroke-linecap="round" stroke-width="3.3246"/>
<path d="M82.5477,254.6547L91.1897,264.1392" fill="none" stroke="#000" stroke-linecap="round" stroke-width="3.3246"/>
<path d="M88.7627,251.0387L97.4047,260.5232" fill="none" stroke="#000" stroke-linecap="round" stroke-width="3.3246"/>
<path d="M94.629,245.5292L103.2711,255.0137" fill="none" stroke="#000" stroke-linecap="round" stroke-width="3.3246"/>
<path d="M99.202,239.7577L107.844,249.2422" fill="none" stroke="#000" stroke-linecap="round" stroke-width="3.3246"/>
<path d="M105.6889,236.69L114.3309,246.1744" fill="none" stroke="#000" stroke-linecap="round" stroke-width="3.3246"/>
<path d="M110.976,231.5273L119.6181,241.0117" fill="none" stroke="#000" stroke-linecap="round" stroke-width="3.3246"/>
<path d="M119.0439,294.4557C126.1059,291.6578 129.8505,286.5561 130.8529,279.5501" fill="none" stroke="#000" stroke-width=".5362"/>
<path d="M65.984,275.5396L74.626,285.024" fill="none" stroke="#000" stroke-linecap="round" stroke-width="3.3246"/>
<path d="M150.0505,285.7263L258.788,299.2977C263.2086,299.2977 259.9407,306.0061 256.3409,308.5717L244.7781,313.0163L229.8669,318.1957C226.267,320.7614 205.1673,326.0411 200.7467,326.0411L106.6521,325.684C102.2315,325.684 99.4279,316.1185 103.0278,313.5529L135.5732,290.3574C139.173,287.7918 145.6299,285.7263 150.0505,285.7263z" fill="#fff" stroke="#000" stroke-linecap="round" stroke-linejoin="round" stroke-width="1.6996"/>
<text font-family="Bitstream Vera Sans" font-size="20" x="212.6314" y="131.1965">
   <tspan text-align="center" text-anchor="middle" x="212.6314" y="131.1965">Enfin !</tspan>
   <tspan text-align="center" text-anchor="middle" x="212.6314" y="156.1965">Mon lit !</tspan>
   <tspan text-align="center" text-anchor="middle" x="212.6314" y="181.1965">Dodo !</tspan>
   <tspan text-align="center" text-anchor="middle" x="212.6314" y="206.1965">Plus de taff !</tspan>
  </text>
<path d="M1543.8478,924.2409H1697.3577A9.0319,9.0319 0 0 1 1706.3896,933.2728V978.5101A9.0319,9.0319 0 0 1 1697.3577,987.542H1543.8478A9.0319,9.0319 0 0 1 1534.8159,978.5101V933.2728A9.0319,9.0319 0 0 1 1543.8478,924.2409z" stroke="#000" stroke-linecap="round" stroke-linejoin="round" stroke-width="2.7076" transform="matrix(1,0,-.93627,.35128,0,0)"/>
<path d="M1537.3532,920.0223H1705.1134A6.1895,9.0319 0 0 1 1711.3029,929.0542V986.4916A6.1895,9.0319 0 0 1 1705.1134,995.5235H1537.3532A6.1895,9.0319 0 0 1 1531.1637,986.4916V929.0542A6.1895,9.0319 0 0 1 1537.3532,920.0223z" stroke="#000" stroke-linecap="round" stroke-linejoin="round" stroke-width="2.7076" transform="matrix(1,0,-.93627,.35128,0,0)"/>
<path d="M637.3515,322.536H637.3515A5.1786,5.1786 0 0 1 642.5301,327.7146V341.286A5.1786,5.1786 0 0 1 637.3515,346.4646H637.3515A5.1786,5.1786 0 0 1 632.173,341.286V327.7146A5.1786,5.1786 0 0 1 637.3515,322.536z" fill="#fff" stroke="#000" stroke-linecap="round" stroke-linejoin="round" stroke-width="3"/>
<path d="M772.3873,322.9288H772.3873A5.1786,5.1786 0 0 1 777.5658,328.1074V341.6788A5.1786,5.1786 0 0 1 772.3873,346.8574H772.3873A5.1786,5.1786 0 0 1 767.2087,341.6788V328.1074A5.1786,5.1786 0 0 1 772.3873,322.9288z" fill="#fff" stroke="#000" stroke-linecap="round" stroke-linejoin="round" stroke-width="3"/>
<path d="M817.923,304.536H817.923A5.1786,5.1786 0 0 1 823.1016,309.7145V323.286A5.1786,5.1786 0 0 1 817.923,328.4645H817.923A5.1786,5.1786 0 0 1 812.7445,323.286V309.7145A5.1786,5.1786 0 0 1 817.923,304.536z" fill="#fff" stroke="#000" stroke-linecap="round" stroke-linejoin="round" stroke-width="3"/>
<path d="M680.923,305.6074H680.923A5.1786,5.1786 0 0 1 686.1015,310.786V324.3574A5.1786,5.1786 0 0 1 680.923,329.536H680.923A5.1786,5.1786 0 0 1 675.7444,324.3574V310.786A5.1786,5.1786 0 0 1 680.923,305.6074z" fill="#fff" stroke="#000" stroke-linecap="round" stroke-linejoin="round" stroke-width="3"/>
<path d="M897.0268,848.7417H1081.2599A10.8396,10.8396 0 0 1 1092.0995,859.5813V913.8722A10.8396,10.8396 0 0 1 1081.2599,924.7118H897.0268A10.8396,10.8396 0 0 1 886.1872,913.8722V859.5813A10.8396,10.8396 0 0 1 897.0268,848.7417z" fill="#fff" stroke="#000" stroke-linecap="round" stroke-linejoin="round" stroke-width="3.2495" transform="matrix(.78777,0,-.73757,.27673,600.13562,72.78736)"/>
<path d="M892.6436,843.6788H1076.8768A10.8396,10.8396 0 0 1 1087.7164,854.5183V908.8093A10.8396,10.8396 0 0 1 1076.8768,919.6488H892.6436A10.8396,10.8396 0 0 1 881.8041,908.8093V854.5183A10.8396,10.8396 0 0 1 892.6436,843.6788z" fill="#fff" stroke="#000" stroke-linecap="round" stroke-linejoin="round" stroke-width="3.2495" transform="matrix(.78777,0,-.73757,.27673,600.13562,72.78736)"/>
<path d="M897.0268,848.7417H1081.2599A10.8396,10.8396 0 0 1 1092.0995,859.5813V913.8722A10.8396,10.8396 0 0 1 1081.2599,924.7118H897.0268A10.8396,10.8396 0 0 1 886.1872,913.8722V859.5813A10.8396,10.8396 0 0 1 897.0268,848.7417z" fill="#fff" stroke="#000" stroke-linecap="round" stroke-linejoin="round" stroke-width="3.2495" transform="matrix(.78777,0,-.73757,.27673,600.41696,70.34246)"/>
<path d="M892.6436,843.6788H1076.8768A10.8396,10.8396 0 0 1 1087.7164,854.5183V908.8093A10.8396,10.8396 0 0 1 1076.8768,919.6488H892.6436A10.8396,10.8396 0 0 1 881.8041,908.8093V854.5183A10.8396,10.8396 0 0 1 892.6436,843.6788z" fill="#fff" stroke="#000" stroke-linecap="round" stroke-linejoin="round" stroke-width="3.2495" transform="matrix(.78777,0,-.73757,.27673,600.41696,70.34246)"/>
<path d="M897.0268,848.7417H1081.2599A10.8396,10.8396 0 0 1 1092.0995,859.5813V913.8722A10.8396,10.8396 0 0 1 1081.2599,924.7118H897.0268A10.8396,10.8396 0 0 1 886.1872,913.8722V859.5813A10.8396,10.8396 0 0 1 897.0268,848.7417z" fill="#fff" stroke="#000" stroke-linecap="round" stroke-linejoin="round" stroke-width="3.2495" transform="matrix(.78777,0,-.73757,.27673,600.62797,67.56416)"/>
<path d="M892.6436,843.6788H1076.8768A10.8396,10.8396 0 0 1 1087.7164,854.5183V908.8093A10.8396,10.8396 0 0 1 1076.8768,919.6488H892.6436A10.8396,10.8396 0 0 1 881.8041,908.8093V854.5183A10.8396,10.8396 0 0 1 892.6436,843.6788z" fill="#fff" stroke="#000" stroke-linecap="round" stroke-linejoin="round" stroke-width="3.2495" transform="matrix(.78777,0,-.73757,.27673,600.62797,67.56416)"/>
<path d="M672.1374,521.1201H724.2907A3.0109,3.0109 0 0 1 727.3016,524.131V565.8389A3.0109,3.0109 0 0 1 724.2907,568.8498H672.1374A3.0109,3.0109 0 0 1 669.1265,565.8389V524.131A3.0109,3.0109 0 0 1 672.1374,521.1201z" fill="#fff" stroke="#000" stroke-linecap="round" stroke-linejoin="round" stroke-width="3.1126" transform="matrix(.92897,-.37014,0,1,0,0)"/>
<path d="M675.1277,522.8583H727.281A3.0109,3.0109 0 0 1 730.2919,525.8692V567.5771A3.0109,3.0109 0 0 1 727.281,570.588H675.1277A3.0109,3.0109 0 0 1 672.1168,567.5771V525.8692A3.0109,3.0109 0 0 1 675.1277,522.8583z" fill="#fff" stroke="#000" stroke-linecap="round" stroke-linejoin="round" stroke-width="3.1126" transform="matrix(.92897,-.37014,0,1,0,0)"/>
<path d="M119.198,282.6935A52.2754,16.2887 0 1 1 14.6472,282.6935A52.2754,16.2887 0 1 1 119.198,282.6935z" fill="#fff" stroke="#000" stroke-linecap="round" stroke-linejoin="round" stroke-width="3" transform="matrix(.59838,-.3161,.28511,.66342,540.47998,134.80347)"/>
<path d="M691.2593,233.2876L713.5776,257.7815C722.9019,268.0147 722.1702,283.7595 711.937,293.0837L693.8132,309.5977C683.5801,318.9219 667.8353,318.1902 658.5111,307.9571L636.1927,283.4631" fill="#fff" stroke="#000" stroke-linecap="round" stroke-linejoin="round" stroke-width="2.5203"/>
<path d="M299.4379,651.7236H315.7226A.5399,.5399 0 0 1 316.2625,652.2636V659.2012A.5399,.5399 0 0 1 315.7226,659.7412H299.4379A.5399,.5399 0 0 1 298.898,659.2012V652.2636A.5399,.5399 0 0 1 299.4379,651.7236z" stroke="#000" stroke-linecap="square" stroke-linejoin="round" stroke-width="2.5837" transform="matrix(.73917,-.67352,.67352,.73917,0,0)"/>
<path d="M328.0789,651.7236H342.2038A1.6198,1.6198 0 0 1 343.8236,653.3434V658.1214A1.6198,1.6198 0 0 1 342.2038,659.7412H328.0789A1.6198,1.6198 0 0 1 326.4591,658.1214V653.3434A1.6198,1.6198 0 0 1 328.0789,651.7236z" stroke="#000" stroke-linecap="square" stroke-linejoin="round" stroke-width="2.5837" transform="matrix(.73917,-.67352,.67352,.73917,0,0)"/>
<path d="M648.9621,295.1059C649.2479,294.8553 649.5272,294.5973 649.8068,294.34C649.9915,294.1697 650.1765,293.9998 650.3618,293.8303C650.5112,293.6938 650.6608,293.5575 650.8104,293.4212C650.9656,293.2792 651.1217,293.1381 651.2775,292.9967C651.4728,292.8097 651.6738,292.6352 651.8954,292.4811C652.1253,292.3227 652.3396,292.1435 652.5509,291.9612C652.7509,291.7643 652.989,291.6172 653.2129,291.4508C653.4387,291.2795 653.6503,291.0904 653.8617,290.9018C654.0828,290.7025 654.3027,290.5019 654.522,290.3007C654.7128,290.1262 654.9036,289.9518 655.0942,289.7772C655.2509,289.6337 655.4079,289.4905 655.5649,289.3474C655.7139,289.2115 655.863,289.0756 656.0121,288.9398C656.1612,288.8039 656.3103,288.668 656.4595,288.5322C656.6223,288.3834 656.7857,288.2354 656.9494,288.0876C657.1521,287.9051 657.3529,287.7203 657.5541,287.536C657.7437,287.363 657.9337,287.1906 658.1239,287.0183C658.3267,286.8333 658.5297,286.6484 658.7321,286.463C658.9266,286.286 659.1211,286.1092 659.3152,285.9319C659.4914,285.7701 659.668,285.609 659.8456,285.4488C660.1196,285.2016 660.393,284.954 660.6666,284.7064C661.0396,284.3692 661.4115,284.0309 661.782,283.691C662.0541,283.4418 662.3251,283.1913 662.5977,282.9427C662.8237,282.7373 663.0491,282.5313 663.2742,282.3249C663.3053,282.2963 663.3365,282.2677 663.3676,282.2392L663.0335,283.6663C663.0025,283.6944 662.9715,283.7225 662.9404,283.7506C662.7147,283.9548 662.4895,284.1595 662.2648,284.3648C661.9946,284.6107 661.7228,284.8548 661.4521,285.1002C661.0789,285.438 660.707,285.7775 660.3361,286.118C660.0613,286.3702 659.7863,286.6223 659.5118,286.8748C659.3357,287.0369 659.1587,287.1979 658.9813,287.3585C658.7866,287.5353 658.5924,287.7128 658.3981,287.89C658.1952,288.0739 657.9929,288.2584 657.7904,288.4427C657.6004,288.6167 657.4103,288.7907 657.2198,288.964C657.0179,289.147 656.8157,289.3295 656.6154,289.5141C656.4521,289.6642 656.2886,289.8141 656.1244,289.9633C655.9753,290.0992 655.8262,290.2351 655.6771,290.3709C655.528,290.5068 655.379,290.6426 655.2299,290.7784C655.0733,290.9209 654.9167,291.0634 654.7599,291.2057C654.5693,291.3788 654.3789,291.5521 654.1886,291.7254C653.9682,291.9255 653.7489,292.1267 653.5267,292.3247C653.3119,292.5152 653.0952,292.7042 652.8633,292.8735C652.6396,293.0356 652.4129,293.1929 652.2126,293.3851C651.9969,293.5674 651.7755,293.7426 651.5439,293.9038C651.3296,294.0612 651.1388,294.2456 650.9431,294.4252C650.7872,294.5677 650.6317,294.7105 650.4754,294.8524C650.326,294.9886 650.1766,295.1247 650.027,295.2606C649.8431,295.4275 649.6589,295.594 649.4744,295.7602C649.1901,296.0166 648.9055,296.2727 648.6274,296.5358L648.9621,295.1059z" stroke="#000" stroke-linecap="square" stroke-linejoin="round" stroke-width=".3298"/>
<path d="M695.8887,252.6063C696.2542,252.2843 696.6136,251.9554 696.9734,251.627C697.303,251.3259 697.6322,251.0243 697.9609,250.7221C698.1803,250.5199 698.4008,250.3189 698.6211,250.1177C698.7945,249.9589 698.9679,249.8001 699.1415,249.6415C699.3034,249.5143 699.4124,249.3408 699.5439,249.1854C699.6776,249.0316 699.8263,248.8915 699.9752,248.7526C700.1237,248.6153 700.2735,248.4796 700.4231,248.3436C700.5726,248.2079 700.7219,248.0719 700.8711,247.936C701.0204,247.8 701.1697,247.664 701.3189,247.5281C701.4682,247.3921 701.6174,247.2561 701.7666,247.1201C701.9266,246.9738 702.0876,246.8286 702.2479,246.6826C702.41,246.5347 702.5721,246.3866 702.7342,246.2386C702.8844,246.1016 703.0347,245.9646 703.185,245.8277C703.2844,245.7371 703.2347,245.7824 703.3341,245.6918L702.999,247.123C702.8996,247.2136 702.9493,247.1683 702.85,247.2588C702.6998,247.3957 702.5496,247.5325 702.3993,247.6693C702.2374,247.8166 702.0754,247.9638 701.9135,248.1111C701.7527,248.2576 701.5927,248.405 701.4316,248.5512C701.2824,248.6872 701.1331,248.8232 700.9839,248.9592C700.8346,249.0952 700.6853,249.2312 700.5361,249.3671C700.3867,249.5031 700.2374,249.6389 700.0879,249.7748C699.9389,249.9104 699.7895,250.0457 699.643,250.1842C699.4985,250.3228 699.3559,250.4641 699.2301,250.62C699.0997,250.7811 698.9702,250.9416 698.8066,251.0718C698.6337,251.229 698.4606,251.386 698.2874,251.5429C698.0681,251.7423 697.849,251.9418 697.6289,252.1402C697.3003,252.4369 696.9722,252.7341 696.6445,253.0319C696.2794,253.3641 695.9138,253.6959 695.5544,254.0343L695.8887,252.6063z" stroke="#000" stroke-linecap="square" stroke-linejoin="round" stroke-width=".3298"/>
<path d="M675.3558,271.4682C675.6604,271.254 675.9459,271.0138 676.2284,270.7713C676.4794,270.5535 676.725,270.3297 676.97,270.1052C677.1726,269.9202 677.3753,269.7354 677.5776,269.5501C677.9941,269.1897 678.3967,268.8135 678.8021,268.4407C679.0465,268.2147 679.2918,267.9899 679.5368,267.7647C679.733,267.586 679.929,267.407 680.1256,267.2288C680.3324,267.0415 680.5376,266.8525 680.7441,266.6649C680.9298,266.4949 681.116,266.3254 681.3021,266.1559C681.4887,265.9864 681.6749,265.8164 681.861,265.6462C682.0395,265.4846 682.2171,265.3218 682.3948,265.1593C682.5697,265.0013 682.7434,264.8421 682.9174,264.6832C683.071,264.5427 683.2248,264.4025 683.3786,264.2622C683.5346,264.1749 683.6836,264.0785 683.8251,263.9686C683.9763,263.847 684.1199,263.7162 684.2636,263.5859C684.4129,263.4501 684.5618,263.3139 684.7109,263.1778C684.7855,263.1096 684.8602,263.0416 684.9348,262.9735L684.5998,264.4046C684.5252,264.4727 684.4506,264.5408 684.376,264.6089C684.2268,264.7452 684.0778,264.8816 683.9277,265.017C683.7807,265.1487 683.6334,265.2805 683.475,265.3985C683.3332,265.5003 683.1796,265.5838 683.0436,265.6933C682.89,265.8332 682.7364,265.973 682.5827,266.1127C682.4083,266.2712 682.2337,266.4294 682.0602,266.5888C681.8821,266.7505 681.7038,266.912 681.5266,267.0746C681.3401,267.2438 681.1538,267.4132 680.968,267.5831C680.7823,267.7524 680.5965,267.9217 680.4104,268.0905C680.2046,268.2786 679.9975,268.4652 679.792,268.6537C679.596,268.8332 679.3994,269.012 679.2029,269.191C678.9595,269.411 678.7163,269.6312 678.4721,269.8504C678.0598,270.2226 677.6446,270.592 677.2437,270.9765C677.0411,271.1608 676.8391,271.3457 676.6363,271.5297C676.3902,271.7512 676.1437,271.9723 675.8917,272.187C675.6017,272.4315 675.3067,272.6697 675.003,272.8967L675.3558,271.4682z" stroke="#000" stroke-linecap="square" stroke-linejoin="round" stroke-width=".3298"/>
<path d="M638.0388,270.0725L646.6808,279.557" fill="none" stroke="#000" stroke-linecap="round" stroke-width="3.3246"/>
<path d="M642.0925,264.7366L650.7345,274.221" fill="none" stroke="#000" stroke-linecap="round" stroke-width="3.3246"/>
<path d="M647.346,261.3205L655.988,270.8049" fill="none" stroke="#000" stroke-linecap="round" stroke-width="3.3246"/>
<path d="M652.7744,255.2815L661.4164,264.766" fill="none" stroke="#000" stroke-linecap="round" stroke-width="3.3246"/>
<path d="M658.9894,251.6655L667.6314,261.15" fill="none" stroke="#000" stroke-linecap="round" stroke-width="3.3246"/>
<path d="M664.8557,246.156L673.4978,255.6404" fill="none" stroke="#000" stroke-linecap="round" stroke-width="3.3246"/>
<path d="M669.4287,240.3845L678.0707,249.869" fill="none" stroke="#000" stroke-linecap="round" stroke-width="3.3246"/>
<path d="M675.9156,237.3168L684.5576,246.8012" fill="none" stroke="#000" stroke-linecap="round" stroke-width="3.3246"/>
<path d="M681.2027,232.154L689.8448,241.6385" fill="none" stroke="#000" stroke-linecap="round" stroke-width="3.3246"/>
<path d="M689.2706,295.0825L701.0796,280.1769" fill="none" stroke="#000" stroke-width=".5362"/>
<path d="M636.2107,276.1663L644.8527,285.6508" fill="none" stroke="#000" stroke-linecap="round" stroke-width="3.3246"/>
<path d="M720.2772,286.3531L829.0147,299.9245C833.4353,299.9245 830.1675,306.6329 826.5676,309.1985L815.0048,313.6431L800.0936,318.8225C796.4937,321.3881 775.394,326.6679 770.9734,326.6679L676.8788,326.3108C672.4582,326.3108 669.6546,316.7453 673.2545,314.1796L705.7999,290.9842C709.3998,288.4186 715.8566,286.3531 720.2772,286.3531z" fill="#fff" stroke="#000" stroke-linecap="round" stroke-linejoin="round" stroke-width="1.6996"/>
<text font-family="Bitstream Vera Sans" font-size="20" x="783.142" y="217.1352">
   <tspan text-align="center" text-anchor="middle" x="783.142" y="217.1352">Et merde...</tspan>
  </text>
<path d="M730.1455,227.1138L715.8598,250.6853" fill="none" stroke="#000"/>
<path d="M45.6575,199.7002H117.1611A.3121,.3121 0 0 1 117.4732,200.0124V246.6542A.3121,.3121 0 0 1 117.1611,246.9663H45.6575A.3121,.3121 0 0 1 45.3453,246.6542V200.0124A.3121,.3121 0 0 1 45.6575,199.7002z" fill="#fff" stroke="#000" stroke-linecap="round" stroke-linejoin="round" stroke-width="3.1321" transform="matrix(.91743,-.39789,0,1,0,0)"/>
<path d="M56.8495,205.6436H105.5632A2.893,2.893 0 0 1 108.4563,208.5367V238.4649A2.893,2.893 0 0 1 105.5632,241.3579H56.8495A2.893,2.893 0 0 1 53.9564,238.4649V208.5367A2.893,2.893 0 0 1 56.8495,205.6436z" fill="#fff" stroke="#000" stroke-linecap="round" stroke-linejoin="round" stroke-width="3.1321" transform="matrix(.91743,-.39789,0,1,0,0)"/>
<path d="M446.8915,78.4154A61.5183,5.3033 0 1 1 323.8549,78.4154A61.5183,5.3033 0 1 1 446.8915,78.4154z" stroke="#000" stroke-linecap="round" stroke-width="4.862" transform="matrix(-.21053,9.1305115e-2,0,.21053,155.15414,150.8596)"/>
<g transform="matrix(-.21053,9.1305115e-2,0,.21053,53.54105,132.34409)">
<path d="M-43.5297,288.8057L-43.5297,336.6941C-43.5297,356.7011-59.6364,372.8078-79.6434,372.8078L-115.0774,372.8078C-135.0844,372.8078-151.1912,356.7011-151.1912,336.6941L-151.1912,288.8057" fill="#fff" stroke="#000" stroke-linecap="round" stroke-linejoin="round" stroke-width="3.6422"/>
<path d="M-122.1431,308.6171H-98.6091A.7803,.7803 0 0 1 -97.8288,309.3974V319.4235A.7803,.7803 0 0 1 -98.6091,320.2038H-122.1431A.7803,.7803 0 0 1 -122.9234,319.4235V309.3974A.7803,.7803 0 0 1 -122.1431,308.6171z" stroke="#000" stroke-linecap="square" stroke-linejoin="round" stroke-width="3.7338"/>
<path d="M-80.7522,308.6171H-60.3393A2.3409,2.3409 0 0 1 -57.9985,310.958V317.8629A2.3409,2.3409 0 0 1 -60.3393,320.2038H-80.7522A2.3409,2.3409 0 0 1 -83.093,317.8629V310.958A2.3409,2.3409 0 0 1 -80.7522,308.6171z" stroke="#000" stroke-linecap="square" stroke-linejoin="round" stroke-width="3.7338"/>
<path d="M-148.8829,313.6717C-148.3338,313.6822-147.7844,313.6785-147.2351,313.6758C-146.8722,313.6736-146.5092,313.6722-146.1462,313.6715C-145.8537,313.6711-145.5613,313.6711-145.2688,313.6711C-144.9647,313.6705-144.6607,313.6717-144.3567,313.6723C-143.966,313.6626-143.5814,313.6719-143.1947,313.723C-142.7951,313.7775-142.3916,313.7947-141.9885,313.8057C-141.5833,313.7899-141.1856,313.8646-140.7845,313.9048C-140.3766,313.9415-139.9665,313.9454-139.5571,313.9498C-139.1269,313.9521-138.6968,313.9519-138.2666,313.9504C-137.893,313.9497-137.5194,313.9491-137.1458,313.9482C-136.8388,313.9474-136.5318,313.9472-136.2247,313.9471C-135.9332,313.947-135.6418,313.947-135.3502,313.947C-135.0587,313.947-134.7672,313.947-134.4756,313.947C-134.1569,313.9467-133.8382,313.9476-133.5196,313.949C-133.1253,313.9514-132.731,313.9494-132.3367,313.9484C-131.9659,313.9481-131.595,313.9488-131.2241,313.9499C-130.8274,313.9497-130.4307,313.9498-130.0339,313.9488C-129.654,313.949-129.274,313.9495-128.894,313.949C-128.5484,313.9477-128.2029,313.9475-127.8573,313.9492C-127.3241,313.9518-126.7909,313.9534-126.2577,313.9553C-125.5311,313.9581-124.8045,313.9587-124.0778,313.9563C-123.5446,313.9549-123.0113,313.9511-122.4781,313.9509C-122.0368,313.9515-121.5955,313.9508-121.1542,313.9493C-121.0931,313.9491-121.032,313.949-120.9709,313.9488L-122.7169,315.1481C-122.7774,315.1478-122.8379,315.1476-122.8984,315.1474C-123.3383,315.1459-123.7781,315.1453-124.218,315.1459C-124.7459,315.1457-125.2739,315.1418-125.8018,315.1405C-126.5294,315.1381-127.2571,315.1387-127.9846,315.1415C-128.5238,315.1434-129.0628,315.145-129.6019,315.1476C-129.9477,315.1493-130.2936,315.1491-130.6394,315.1478C-131.0195,315.1473-131.3996,315.1478-131.7797,315.148C-132.1754,315.147-132.5711,315.1471-132.9668,315.1469C-133.3391,315.1479-133.7115,315.1487-134.0838,315.1484C-134.4775,315.1474-134.8712,315.1454-135.2648,315.1478C-135.5854,315.1492-135.9059,315.1501-136.2265,315.1497C-136.5181,315.1497-136.8096,315.1497-137.1012,315.1497C-137.3926,315.1497-137.684,315.1497-137.9755,315.1497C-138.2815,315.1495-138.5875,315.1493-138.8935,315.1487C-139.2655,315.148-139.6375,315.1479-140.0095,315.1478C-140.4397,315.147-140.8698,315.1485-141.3,315.1437C-141.7147,315.1381-142.1302,315.1292-142.5427,315.0843C-142.9395,315.0397-143.3348,314.9871-143.7358,314.9973C-144.1436,314.9822-144.5506,314.9538-144.955,314.9006C-145.3371,314.8601-145.7204,314.8714-146.1043,314.8727C-146.4095,314.8733-146.7146,314.8745-147.0198,314.8739C-147.3119,314.8739-147.604,314.8739-147.8961,314.8735C-148.255,314.8728-148.6138,314.8714-148.9726,314.8693C-149.5259,314.8665-150.0792,314.863-150.6323,314.8733L-148.8829,313.6717z" stroke="#000" stroke-linecap="square" stroke-linejoin="round" stroke-width=".4767"/>
<path d="M-57.3881,313.9484C-56.6843,313.9602-55.9802,313.9586-55.2763,313.9581C-54.631,313.9572-53.9858,313.9554-53.3406,313.9525C-52.9094,313.9502-52.4782,313.9501-52.047,313.9495C-51.7073,313.9487-51.3675,313.9479-51.0277,313.9474C-50.7309,313.9691-50.4456,313.8899-50.1539,313.8518C-49.8613,313.8177-49.5662,313.8128-49.2718,313.8093C-48.9796,313.8072-48.6875,313.8081-48.3953,313.8085C-48.1035,313.8089-47.8117,313.809-47.5199,313.8091C-47.2282,313.8091-46.9364,313.8091-46.6446,313.8091C-46.3528,313.8091-46.061,313.8091-45.7692,313.8091C-45.4559,313.8085-45.1426,313.8102-44.8294,313.8103C-44.5121,313.81-44.1949,313.8096-43.8776,313.8093C-43.5838,313.8091-43.29,313.8091-42.9962,313.8091C-42.8018,313.8091-42.899,313.8091-42.7047,313.8091L-44.4556,315.0118C-44.6499,315.0118-44.5527,315.0118-44.7471,315.0118C-45.0407,315.0118-45.3343,315.0118-45.6279,315.0116C-45.9442,315.0113-46.2606,315.0109-46.577,315.0106C-46.8913,315.0107-47.2057,315.0124-47.5201,315.0118C-47.8119,315.0118-48.1037,315.0118-48.3955,315.0118C-48.6873,315.0118-48.9791,315.0118-49.2709,315.0117C-49.5627,315.0115-49.8545,315.0113-50.1463,315.011C-50.4376,315.0107-50.7289,315.0099-51.0202,315.0153C-51.3095,315.0227-51.5993,315.0348-51.8855,315.0788C-52.1815,315.1241-52.476,315.1695-52.7776,315.1494C-53.1153,315.1489-53.453,315.1481-53.7908,315.1473C-54.219,315.1467-54.6473,315.1466-55.0755,315.1442C-55.7153,315.1413-56.3552,315.1395-56.995,315.1387C-57.7084,315.1382-58.4219,315.1368-59.1352,315.1484L-57.3881,313.9484z" stroke="#000" stroke-linecap="square" stroke-linejoin="round" stroke-width=".4767"/>
<path d="M-97.681,314.1116C-97.1471,314.1792-96.6084,314.2005-96.0705,314.2165C-95.5904,314.228-95.1101,314.228-94.63,314.2268C-94.2335,314.2263-93.8371,314.2261-93.4407,314.2252C-92.6449,314.2456-91.8487,314.2356-91.0528,314.2319C-90.5718,314.2284-90.0909,314.2269-89.6099,314.225C-89.2264,314.225-88.8429,314.2245-88.4594,314.2256C-88.0562,314.2268-87.653,314.2246-87.2498,314.2253C-86.886,314.2244-86.5221,314.2245-86.1583,314.2246C-85.794,314.2251-85.4296,314.2248-85.0652,314.2241C-84.7171,314.2253-84.3691,314.2242-84.021,314.2236C-83.6805,314.2251-83.3399,314.2241-82.9994,314.2236C-82.6986,314.2232-82.3977,314.223-82.0969,314.223C-81.8453,314.2815-81.5923,314.3235-81.3342,314.3439C-81.0543,314.3611-80.7736,314.3611-80.4933,314.3619C-80.2016,314.3621-79.9099,314.3615-79.6182,314.3612C-79.4722,314.3611-79.3262,314.361-79.1802,314.361L-80.931,315.5637C-81.077,315.5638-81.223,315.5639-81.369,315.564C-81.661,315.5644-81.953,315.5651-82.245,315.5636C-82.5302,315.5612-82.816,315.5587-83.0999,315.5305C-83.3505,315.5012-83.5959,315.4409-83.8477,315.4256C-84.1479,315.4255-84.4481,315.4254-84.7483,315.4249C-85.0888,315.4245-85.4293,315.4235-85.7698,315.4249C-86.1175,315.4243-86.4651,315.4233-86.8128,315.4244C-87.1766,315.4237-87.5405,315.4234-87.9044,315.4239C-88.2676,315.4241-88.6307,315.4241-88.9939,315.4233C-89.3968,315.4239-89.7997,315.4217-90.2026,315.423C-90.5867,315.424-90.9708,315.4235-91.3549,315.4236C-91.8291,315.4216-92.3032,315.4202-92.7774,315.4166C-93.5801,315.4129-94.3831,315.4034-95.1857,315.424C-95.5815,315.4235-95.9772,315.4244-96.373,315.4236C-96.8515,315.4207-97.33,315.417-97.8082,315.401C-98.3559,315.3799-98.9029,315.3472-99.4483,315.2941L-97.681,314.1116z" stroke="#000" stroke-linecap="square" stroke-linejoin="round" stroke-width=".4767"/>
<path d="M-136.1855,276.2983L-136.1855,294.8415" fill="none" stroke="#000" stroke-linecap="round" stroke-width="4.8046"/>
<path d="M-126.6615,274.544L-126.6615,293.0872" fill="none" stroke="#000" stroke-linecap="round" stroke-width="4.8046"/>
<path d="M-117.7245,276.0083L-117.7245,294.5515" fill="none" stroke="#000" stroke-linecap="round" stroke-width="4.8046"/>
<path d="M-106.0478,274.841L-106.0478,293.3843" fill="none" stroke="#000" stroke-linecap="round" stroke-width="4.8046"/>
<path d="M-95.8892,277.0276L-95.8892,295.5709" fill="none" stroke="#000" stroke-linecap="round" stroke-width="4.8046"/>
<path d="M-84.2599,276.8522L-84.2599,295.3955" fill="none" stroke="#000" stroke-linecap="round" stroke-width="4.8046"/>
<path d="M-73.7574,275.1381L-73.7574,293.6813" fill="none" stroke="#000" stroke-linecap="round" stroke-width="4.8046"/>
<path d="M-63.8419,278.175L-63.8419,296.7182" fill="none" stroke="#000" stroke-linecap="round" stroke-width="4.8046"/>
<path d="M-53.169,277.8063L-53.169,296.3495" fill="none" stroke="#000" stroke-linecap="round" stroke-width="4.8046"/>
<path d="M-105.8017,352.8807L-78.6788,348.4525" fill="none" stroke="#000" stroke-width=".7749"/>
<path d="M-144.0697,281.0285L-144.0697,299.5717" fill="none" stroke="#000" stroke-linecap="round" stroke-width="4.8046"/>
</g>
<path d="M74.9019,125.6588L53.8304,176.5832" fill="none" stroke="#000"/>
<path d="M75.0234,125.5688L96.0948,158.2159" fill="none" stroke="#000"/>
<path d="M381.4286,150.8929A1.6071,1.25 0 1 1 378.2143,150.8929A1.6071,1.25 0 1 1 381.4286,150.8929z" fill="#fff" stroke="#000" stroke-linecap="round" stroke-linejoin="round" stroke-width="3" transform="matrix(1,-.4337,0,1,-304.74099,139.95213)"/>
<path d="M43.0678,182.4576L50.5678,185.2763" fill="none" stroke="#000"/>
<path d="M42.7719,227.3894L49.9147,218.7558" fill="none" stroke="#000"/>
<path d="M100.2054,163.0649L106.8125,154.3065" fill="none" stroke="#000"/>
<path d="M100.0574,196.2821L105.9503,199.7978" fill="none" stroke="#000"/>
<path d="M668.9731,450.0578H740.4767A.3121,.3121 0 0 1 740.7888,450.3699V497.0118A.3121,.3121 0 0 1 740.4767,497.3239H668.9731A.3121,.3121 0 0 1 668.6609,497.0118V450.3699A.3121,.3121 0 0 1 668.9731,450.0578z" fill="#fff" stroke="#000" stroke-linecap="round" stroke-linejoin="round" stroke-width="3.1321" transform="matrix(.91743,-.39789,0,1,0,0)"/>
<path d="M680.1651,456.0012H728.8789A2.893,2.893 0 0 1 731.7719,458.8942V488.8224A2.893,2.893 0 0 1 728.8789,491.7155H680.1651A2.893,2.893 0 0 1 677.272,488.8224V458.8942A2.893,2.893 0 0 1 680.1651,456.0012z" fill="#fff" stroke="#000" stroke-linecap="round" stroke-linejoin="round" stroke-width="3.1321" transform="matrix(.91743,-.39789,0,1,0,0)"/>
<path d="M446.8915,78.4154A61.5183,5.3033 0 1 1 323.8549,78.4154A61.5183,5.3033 0 1 1 446.8915,78.4154z" stroke="#000" stroke-linecap="round" stroke-width="4.862" transform="matrix(-.21053,9.1305115e-2,0,.21053,727.00473,153.20653)"/>
<g transform="matrix(-.21053,9.1305115e-2,0,.21053,625.39165,134.69102)">
<path d="M-43.5297,288.8057L-43.5297,336.6941C-43.5297,356.7011-59.6364,372.8078-79.6434,372.8078L-115.0774,372.8078C-135.0844,372.8078-151.1912,356.7011-151.1912,336.6941L-151.1912,288.8057" fill="#fff" stroke="#000" stroke-linecap="round" stroke-linejoin="round" stroke-width="3.6422"/>
<path d="M-122.1431,308.6171H-98.6091A.7803,.7803 0 0 1 -97.8288,309.3974V319.4235A.7803,.7803 0 0 1 -98.6091,320.2038H-122.1431A.7803,.7803 0 0 1 -122.9234,319.4235V309.3974A.7803,.7803 0 0 1 -122.1431,308.6171z" stroke="#000" stroke-linecap="square" stroke-linejoin="round" stroke-width="3.7338"/>
<path d="M-80.7522,308.6171H-60.3393A2.3409,2.3409 0 0 1 -57.9985,310.958V317.8629A2.3409,2.3409 0 0 1 -60.3393,320.2038H-80.7522A2.3409,2.3409 0 0 1 -83.093,317.8629V310.958A2.3409,2.3409 0 0 1 -80.7522,308.6171z" stroke="#000" stroke-linecap="square" stroke-linejoin="round" stroke-width="3.7338"/>
<path d="M-148.8829,313.6717C-148.3338,313.6822-147.7844,313.6785-147.2351,313.6758C-146.8722,313.6736-146.5092,313.6722-146.1462,313.6715C-145.8537,313.6711-145.5613,313.6711-145.2688,313.6711C-144.9647,313.6705-144.6607,313.6717-144.3567,313.6723C-143.966,313.6626-143.5814,313.6719-143.1947,313.723C-142.7951,313.7775-142.3916,313.7947-141.9885,313.8057C-141.5833,313.7899-141.1856,313.8646-140.7845,313.9048C-140.3766,313.9415-139.9665,313.9454-139.5571,313.9498C-139.1269,313.9521-138.6968,313.9519-138.2666,313.9504C-137.893,313.9497-137.5194,313.9491-137.1458,313.9482C-136.8388,313.9474-136.5318,313.9472-136.2247,313.9471C-135.9332,313.947-135.6418,313.947-135.3502,313.947C-135.0587,313.947-134.7672,313.947-134.4756,313.947C-134.1569,313.9467-133.8382,313.9476-133.5196,313.949C-133.1253,313.9514-132.731,313.9494-132.3367,313.9484C-131.9659,313.9481-131.595,313.9488-131.2241,313.9499C-130.8274,313.9497-130.4307,313.9498-130.0339,313.9488C-129.654,313.949-129.274,313.9495-128.894,313.949C-128.5484,313.9477-128.2029,313.9475-127.8573,313.9492C-127.3241,313.9518-126.7909,313.9534-126.2577,313.9553C-125.5311,313.9581-124.8045,313.9587-124.0778,313.9563C-123.5446,313.9549-123.0113,313.9511-122.4781,313.9509C-122.0368,313.9515-121.5955,313.9508-121.1542,313.9493C-121.0931,313.9491-121.032,313.949-120.9709,313.9488L-122.7169,315.1481C-122.7774,315.1478-122.8379,315.1476-122.8984,315.1474C-123.3383,315.1459-123.7781,315.1453-124.218,315.1459C-124.7459,315.1457-125.2739,315.1418-125.8018,315.1405C-126.5294,315.1381-127.2571,315.1387-127.9846,315.1415C-128.5238,315.1434-129.0628,315.145-129.6019,315.1476C-129.9477,315.1493-130.2936,315.1491-130.6394,315.1478C-131.0195,315.1473-131.3996,315.1478-131.7797,315.148C-132.1754,315.147-132.5711,315.1471-132.9668,315.1469C-133.3391,315.1479-133.7115,315.1487-134.0838,315.1484C-134.4775,315.1474-134.8712,315.1454-135.2648,315.1478C-135.5854,315.1492-135.9059,315.1501-136.2265,315.1497C-136.5181,315.1497-136.8096,315.1497-137.1012,315.1497C-137.3926,315.1497-137.684,315.1497-137.9755,315.1497C-138.2815,315.1495-138.5875,315.1493-138.8935,315.1487C-139.2655,315.148-139.6375,315.1479-140.0095,315.1478C-140.4397,315.147-140.8698,315.1485-141.3,315.1437C-141.7147,315.1381-142.1302,315.1292-142.5427,315.0843C-142.9395,315.0397-143.3348,314.9871-143.7358,314.9973C-144.1436,314.9822-144.5506,314.9538-144.955,314.9006C-145.3371,314.8601-145.7204,314.8714-146.1043,314.8727C-146.4095,314.8733-146.7146,314.8745-147.0198,314.8739C-147.3119,314.8739-147.604,314.8739-147.8961,314.8735C-148.255,314.8728-148.6138,314.8714-148.9726,314.8693C-149.5259,314.8665-150.0792,314.863-150.6323,314.8733L-148.8829,313.6717z" stroke="#000" stroke-linecap="square" stroke-linejoin="round" stroke-width=".4767"/>
<path d="M-57.3881,313.9484C-56.6843,313.9602-55.9802,313.9586-55.2763,313.9581C-54.631,313.9572-53.9858,313.9554-53.3406,313.9525C-52.9094,313.9502-52.4782,313.9501-52.047,313.9495C-51.7073,313.9487-51.3675,313.9479-51.0277,313.9474C-50.7309,313.9691-50.4456,313.8899-50.1539,313.8518C-49.8613,313.8177-49.5662,313.8128-49.2718,313.8093C-48.9796,313.8072-48.6875,313.8081-48.3953,313.8085C-48.1035,313.8089-47.8117,313.809-47.5199,313.8091C-47.2282,313.8091-46.9364,313.8091-46.6446,313.8091C-46.3528,313.8091-46.061,313.8091-45.7692,313.8091C-45.4559,313.8085-45.1426,313.8102-44.8294,313.8103C-44.5121,313.81-44.1949,313.8096-43.8776,313.8093C-43.5838,313.8091-43.29,313.8091-42.9962,313.8091C-42.8018,313.8091-42.899,313.8091-42.7047,313.8091L-44.4556,315.0118C-44.6499,315.0118-44.5527,315.0118-44.7471,315.0118C-45.0407,315.0118-45.3343,315.0118-45.6279,315.0116C-45.9442,315.0113-46.2606,315.0109-46.577,315.0106C-46.8913,315.0107-47.2057,315.0124-47.5201,315.0118C-47.8119,315.0118-48.1037,315.0118-48.3955,315.0118C-48.6873,315.0118-48.9791,315.0118-49.2709,315.0117C-49.5627,315.0115-49.8545,315.0113-50.1463,315.011C-50.4376,315.0107-50.7289,315.0099-51.0202,315.0153C-51.3095,315.0227-51.5993,315.0348-51.8855,315.0788C-52.1815,315.1241-52.476,315.1695-52.7776,315.1494C-53.1153,315.1489-53.453,315.1481-53.7908,315.1473C-54.219,315.1467-54.6473,315.1466-55.0755,315.1442C-55.7153,315.1413-56.3552,315.1395-56.995,315.1387C-57.7084,315.1382-58.4219,315.1368-59.1352,315.1484L-57.3881,313.9484z" stroke="#000" stroke-linecap="square" stroke-linejoin="round" stroke-width=".4767"/>
<path d="M-97.681,314.1116C-97.1471,314.1792-96.6084,314.2005-96.0705,314.2165C-95.5904,314.228-95.1101,314.228-94.63,314.2268C-94.2335,314.2263-93.8371,314.2261-93.4407,314.2252C-92.6449,314.2456-91.8487,314.2356-91.0528,314.2319C-90.5718,314.2284-90.0909,314.2269-89.6099,314.225C-89.2264,314.225-88.8429,314.2245-88.4594,314.2256C-88.0562,314.2268-87.653,314.2246-87.2498,314.2253C-86.886,314.2244-86.5221,314.2245-86.1583,314.2246C-85.794,314.2251-85.4296,314.2248-85.0652,314.2241C-84.7171,314.2253-84.3691,314.2242-84.021,314.2236C-83.6805,314.2251-83.3399,314.2241-82.9994,314.2236C-82.6986,314.2232-82.3977,314.223-82.0969,314.223C-81.8453,314.2815-81.5923,314.3235-81.3342,314.3439C-81.0543,314.3611-80.7736,314.3611-80.4933,314.3619C-80.2016,314.3621-79.9099,314.3615-79.6182,314.3612C-79.4722,314.3611-79.3262,314.361-79.1802,314.361L-80.931,315.5637C-81.077,315.5638-81.223,315.5639-81.369,315.564C-81.661,315.5644-81.953,315.5651-82.245,315.5636C-82.5302,315.5612-82.816,315.5587-83.0999,315.5305C-83.3505,315.5012-83.5959,315.4409-83.8477,315.4256C-84.1479,315.4255-84.4481,315.4254-84.7483,315.4249C-85.0888,315.4245-85.4293,315.4235-85.7698,315.4249C-86.1175,315.4243-86.4651,315.4233-86.8128,315.4244C-87.1766,315.4237-87.5405,315.4234-87.9044,315.4239C-88.2676,315.4241-88.6307,315.4241-88.9939,315.4233C-89.3968,315.4239-89.7997,315.4217-90.2026,315.423C-90.5867,315.424-90.9708,315.4235-91.3549,315.4236C-91.8291,315.4216-92.3032,315.4202-92.7774,315.4166C-93.5801,315.4129-94.3831,315.4034-95.1857,315.424C-95.5815,315.4235-95.9772,315.4244-96.373,315.4236C-96.8515,315.4207-97.33,315.417-97.8082,315.401C-98.3559,315.3799-98.9029,315.3472-99.4483,315.2941L-97.681,314.1116z" stroke="#000" stroke-linecap="square" stroke-linejoin="round" stroke-width=".4767"/>
<path d="M-136.1855,276.2983L-136.1855,294.8415" fill="none" stroke="#000" stroke-linecap="round" stroke-width="4.8046"/>
<path d="M-126.6615,274.544L-126.6615,293.0872" fill="none" stroke="#000" stroke-linecap="round" stroke-width="4.8046"/>
<path d="M-117.7245,276.0083L-117.7245,294.5515" fill="none" stroke="#000" stroke-linecap="round" stroke-width="4.8046"/>
<path d="M-106.0478,274.841L-106.0478,293.3843" fill="none" stroke="#000" stroke-linecap="round" stroke-width="4.8046"/>
<path d="M-95.8892,277.0276L-95.8892,295.5709" fill="none" stroke="#000" stroke-linecap="round" stroke-width="4.8046"/>
<path d="M-84.2599,276.8522L-84.2599,295.3955" fill="none" stroke="#000" stroke-linecap="round" stroke-width="4.8046"/>
<path d="M-73.7574,275.1381L-73.7574,293.6813" fill="none" stroke="#000" stroke-linecap="round" stroke-width="4.8046"/>
<path d="M-63.8419,278.175L-63.8419,296.7182" fill="none" stroke="#000" stroke-linecap="round" stroke-width="4.8046"/>
<path d="M-53.169,277.8063L-53.169,296.3495" fill="none" stroke="#000" stroke-linecap="round" stroke-width="4.8046"/>
<path d="M-105.8017,352.8807L-78.6788,348.4525" fill="none" stroke="#000" stroke-width=".7749"/>
<path d="M-144.0697,281.0285L-144.0697,299.5717" fill="none" stroke="#000" stroke-linecap="round" stroke-width="4.8046"/>
</g>
<path d="M646.7525,128.0057L625.681,178.9301" fill="none" stroke="#000"/>
<path d="M646.874,127.9158L667.9454,160.5628" fill="none" stroke="#000"/>
<path d="M381.4286,150.8929A1.6071,1.25 0 1 1 378.2143,150.8929A1.6071,1.25 0 1 1 381.4286,150.8929z" fill="#fff" stroke="#000" stroke-linecap="round" stroke-linejoin="round" stroke-width="3" transform="matrix(1,-.4337,0,1,267.10961,142.29906)"/>
<path d="M614.9184,184.8045L622.4184,187.6232" fill="none" stroke="#000"/>
<path d="M614.6225,229.7363L621.7653,221.1028" fill="none" stroke="#000"/>
<path d="M672.056,165.4118L678.6631,156.6535" fill="none" stroke="#000"/>
<path d="M671.908,198.629L677.8009,202.1447" fill="none" stroke="#000"/>
<path d="M165.6372,211.282L134.54,231.4891" fill="none" stroke="#000" stroke-width=".9427"/>
<g transform="translate(32.83,5.5558)">
<text font-family="Bitstream Vera Sans" font-size="20" x="340.4214" y="106.5481">
    <tspan font-size="18" x="340.4214" y="106.5481">BAM !</tspan>
   </text>
<text font-family="Bitstream Vera Sans" font-size="20" x="395.8789" y="125.96">
    <tspan font-size="24" x="395.8789" y="125.96">BAM !</tspan>
   </text>
<text font-family="Bitstream Vera Sans" font-size="20" x="422.1429" y="168.3864">
    <tspan font-size="36" x="422.1429" y="168.3864">BAM !</tspan>
   </text>
<text font-family="Bitstream Vera Sans" font-size="20" x="361.5337" y="213.8433">
    <tspan font-size="40" x="361.5337" y="213.8433">BAM !</tspan>
   </text>
</g>
<text font-family="Bitstream Vera Sans" font-size="19.572" x="443.9796" y="264.3117">
   <tspan text-align="center" text-anchor="middle" x="447.095" y="264.3117">Hey grouille on passe </tspan>
   <tspan text-align="center" text-anchor="middle" x="447.095" y="288.7764">dans 50 minutes et on </tspan>
   <tspan text-align="center" text-anchor="middle" x="443.9796" y="313.2411">a pas imprim le rapport</tspan>
   <tspan text-align="center" text-anchor="middle" x="443.9796" y="337.7058">car les imprimantes</tspan>
   <tspan text-align="center" text-anchor="middle" x="443.9796" y="362.1705">ne marchent pas !</tspan>
  </text>
<path d="M434.3656,157.5608A4.0406,4.0406 0 1 1 426.2844,157.5608A4.0406,4.0406 0 1 1 434.3656,157.5608z" fill="#fff" stroke="#000" stroke-linecap="round" stroke-linejoin="round" stroke-width="3" transform="translate(12.6269,11.1117)"/>
<path d="M351.028,214.6345L350.0179,242.4136" fill="none" stroke="#000"/>
<path d="M566.1905,364.137A13.3845,14.1421 0 1 1 539.4215,364.137A13.3845,14.1421 0 1 1 566.1905,364.137z" fill="#fff" stroke="#000" stroke-linecap="round" stroke-linejoin="round" stroke-width="3" transform="translate(0,7.0711)"/>
<path d="M564.1702,365.3997A23.7386,8.3338 0 1 1 516.6931,365.3997A23.7386,8.3338 0 1 1 564.1702,365.3997z" fill="#fff" stroke="#000" stroke-linecap="round" stroke-linejoin="round" stroke-width="3" transform="translate(0,7.0711)"/>
</svg>
