<svg version="1.0" viewBox="0 0 900 450" xmlns="http://www.w3.org/2000/svg" xmlns:svg="http://www.w3.org/2000/svg">
<path d="M-344.2259,760.1758H-154.0169A7.5735,7.5735 0 0 1 -146.4434,767.7494V804.1023A7.5735,7.5735 0 0 1 -154.0169,811.6758H-344.2259A7.5735,7.5735 0 0 1 -351.7994,804.1023V767.7494A7.5735,7.5735 0 0 1 -344.2259,760.1758z" stroke="#000" stroke-linecap="round" stroke-linejoin="round" stroke-width="5.8088" transform="matrix(1,0,.87861,.47753,0,0)"/>
<path d="M43.6202,82.9107H824.6221A31.621,31.621 0 0 1 856.2431,114.5317V362.8806A31.621,31.621 0 0 1 824.6221,394.5016H43.6202A31.621,31.621 0 0 1 11.9992,362.8806V114.5317A31.621,31.621 0 0 1 43.6202,82.9107z" fill="#fff" stroke="#000" stroke-linecap="round" stroke-width="7.4907"/>
<path d="M630.8423,168.5294H675.8423A7.5,7.5 0 0 1 683.3423,176.0294V221.0294A7.5,7.5 0 0 1 675.8423,228.5294H630.8423A7.5,7.5 0 0 1 623.3423,221.0294V176.0294A7.5,7.5 0 0 1 630.8423,168.5294z" fill="#fff" stroke="#000" stroke-linecap="round" stroke-linejoin="round" stroke-width="3"/>
<path d="M463.5962,166.7246H508.5962A7.5,7.5 0 0 1 516.0963,174.2246V219.2246A7.5,7.5 0 0 1 508.5962,226.7246H463.5962A7.5,7.5 0 0 1 456.0962,219.2246V174.2246A7.5,7.5 0 0 1 463.5962,166.7246z" fill="#fff" stroke="#000" stroke-linecap="round" stroke-linejoin="round" stroke-width="3"/>
<path d="M182.0455,167.3262H227.0455A7.5,7.5 0 0 1 234.5455,174.8262V219.8262A7.5,7.5 0 0 1 227.0455,227.3262H182.0455A7.5,7.5 0 0 1 174.5455,219.8262V174.8262A7.5,7.5 0 0 1 182.0455,167.3262z" fill="#fff" stroke="#000" stroke-linecap="round" stroke-linejoin="round" stroke-width="3"/>
<path d="M12.0321,329.0775L857.2861,329.0775" fill="none" stroke="#000"/>
<path d="M571.2408,79.5961L571.2408,393.4866" fill="none" stroke="#000" stroke-width="5.6784"/>
<path d="M291.5307,78.8714L291.5307,392.7619" fill="none" stroke="#000" stroke-width="5.6784"/>
<g transform="translate(6.75)">
<path d="M836.4575,413.7344C836.8968,414.2447 837.4931,414.3059 838.1278,414.3417C838.9307,414.3201 839.735,414.1279 840.4853,413.8424C840.8861,413.6899 841.1077,413.56 841.4817,413.3635C839.2431,414.6733 840.4894,413.9718 840.9079,413.5272C841.1247,413.2968 841.2542,413.0541 841.3765,412.7666C841.6942,411.8716 841.7354,410.9092 841.7896,409.9695C841.8952,408.6016 841.612,407.2586 841.3071,405.9344C840.9362,404.5414 840.4325,403.1877 839.8778,401.8586C839.6121,401.2307 839.3117,400.6186 839.0191,400.0031C838.6247,399.2464 838.3021,399.7163 840.5294,398.8523C840.6062,398.8225 840.6214,398.989 840.6706,399.055C840.7529,399.1656 840.8395,399.2729 840.9239,399.3819C841.7456,400.5095 842.7337,401.4974 843.724,402.4747C844.3066,403.0421 844.9314,403.5688 845.4885,404.1621C845.6999,404.3347 845.8263,404.5781 845.9965,404.785C846.1627,404.9352 846.2927,404.7771 846.4396,404.6744C843.874,406.2128 844.7877,405.7156 845.2797,405.2438C845.4734,405.0581 845.656,404.8595 845.8415,404.6657C846.1048,404.4031 846.3542,404.1219 846.6425,403.8853C847.4035,403.2609 848.4652,402.7619 849.2521,402.3142C849.9793,401.9931 850.7231,401.7137 851.4787,401.4675C851.635,401.4336 852.2396,401.201 852.3777,401.3582C852.4098,401.3948 852.4228,401.4445 852.4454,401.4876C852.4485,401.5317 852.4608,401.5761 852.4548,401.6199C852.4112,401.9395 851.9163,402.3114 851.7003,402.5103C850.7075,403.3311 849.7442,404.1848 848.8273,405.0895C848.0296,405.9452 847.2057,406.7899 846.5706,407.7769C846.1785,408.3934 845.9701,409.0741 845.8723,409.7913C845.8075,410.4327 845.818,411.0786 845.819,411.7224C845.8542,412.4223 845.9434,413.1236 846.1518,413.794C846.2713,414.1511 846.4837,414.4134 846.8235,414.5702C847.049,414.6497 847.3072,414.702 847.5473,414.6567C847.6032,414.6461 848.0689,414.4883 848.1062,414.4758C848.6553,414.1762 849.9818,413.4753 847.4995,414.8357C847.4013,414.8895 847.6885,414.7156 847.7816,414.6533C847.9954,414.5102 848.0467,414.4682 848.2473,414.3186C848.4878,414.1387 848.3739,414.2261 848.5897,414.057L850.3087,413.3656C850.0909,413.5487 850.2075,413.4574 849.9572,413.6375C848.9433,414.4203 847.8202,415.0683 846.6563,415.5987C846.1456,415.7511 845.7685,415.824 845.2712,415.5888C844.9049,415.3823 844.6657,415.0827 844.5369,414.6776C844.3328,413.9873 844.2558,413.2687 844.1888,412.5539C844.1848,411.9036 844.1742,411.2517 844.2268,410.603C844.3196,409.8598 844.5154,409.1505 844.9152,408.5075C844.9953,408.3742 845.0681,408.2363 845.1556,408.1078C845.3353,407.8438 845.6037,407.5417 845.8085,407.3042C846.2612,406.7794 846.7242,406.264 847.2024,405.7623C848.0942,404.8626 849.0342,404.0125 850.0089,403.2031C850.285,402.9468 850.5708,402.6968 850.809,402.4038C850.8486,402.4246 850.7213,402.4212 850.677,402.4274C850.4559,402.4583 850.2432,402.527 850.0303,402.5915C849.2833,402.8381 848.5437,403.1117 847.8345,403.4539C850.2791,402.0082 848.8093,402.8291 848.3315,403.1967C848.0405,403.4206 847.7915,403.6971 847.5362,403.9589C846.6105,404.9354 846.5573,405.0389 844.9912,405.8473C844.7345,405.9685 844.591,405.9541 844.3902,405.7432C844.2318,405.5337 844.1049,405.3001 843.9092,405.1199C843.3758,404.5174 842.781,403.9707 842.216,403.3986C841.2351,402.4003 840.2392,401.4137 839.3663,400.3168C839.2726,400.2114 839.1787,400.1061 839.085,400.0006C839.0329,399.942 838.8696,399.8755 838.9291,399.8245C840.3432,398.6105 840.2631,398.2927 840.6284,399.0942C840.9041,399.7222 841.1947,400.344 841.4455,400.9827C841.9704,402.3356 842.4544,403.7058 842.8508,405.1024C843.1693,406.4326 843.4843,407.7839 843.3927,409.1623C843.3565,410.1108 843.3009,411.0767 843.0434,411.9942C842.9587,412.2289 842.9295,412.3487 842.7943,412.5634C842.2005,413.5069 840.9196,413.9525 840.0777,414.4881C839.0063,415.0147 837.8665,415.387 836.6606,415.3924C836.4929,415.379 836.324,415.3766 836.1576,415.3521C835.6621,415.2792 835.2002,415.0627 834.8572,414.6953L836.4575,413.7344z" stroke="#000" stroke-linecap="round" stroke-linejoin="round" stroke-width=".2515"/>
<path d="M851.8221,411.5777C851.0827,411.7847 849.4801,412.7741 852.2777,411.1733C851.8896,411.3798 851.6593,411.7158 851.4777,412.1035C851.3741,412.414 851.2635,412.7545 851.2861,413.0879C851.3016,413.3186 851.3616,413.4345 851.4401,413.6499C851.7472,414.2567 852.2195,414.7558 852.78,415.1338C853.1937,415.4218 853.6639,415.5529 854.163,415.559C854.5482,415.4715 854.9061,415.3215 855.2588,415.1466C855.4091,415.0721 855.8497,414.8288 855.7055,414.9146C854.0437,415.9038 854.4599,415.6368 855.0479,415.234C855.5321,414.8611 856.0584,414.4284 856.1832,413.7941C856.2006,413.7056 856.1993,413.6143 856.2074,413.5244C856.1754,412.7311 855.6741,412.1101 855.1905,411.5236C854.8856,411.1843 854.5404,410.8607 854.1236,410.6626C853.9121,410.562 853.8036,410.5441 853.5796,410.4846C853.1277,410.4601 852.654,410.503 852.225,410.6588C852.0266,410.7308 851.726,410.8981 851.5416,410.9956C854.0548,409.4878 852.4081,410.4832 851.8898,410.934L850.1792,411.6338C850.9752,410.8681 852.0382,410.417 852.9634,409.8569C853.232,409.7264 853.3905,409.6361 853.6776,409.549C854.1343,409.4103 854.6261,409.3779 855.0965,409.4472C855.3385,409.5244 855.4365,409.5439 855.6637,409.665C856.0868,409.8904 856.4357,410.2329 856.7478,410.5905C857.2566,411.2169 857.7731,411.8661 857.8506,412.6999C857.8468,412.8011 857.853,412.9031 857.8394,413.0034C857.7465,413.6859 857.2389,414.171 856.7227,414.5742C855.7215,415.2929 856.2345,414.945 854.2991,416.0413C853.7948,416.327 853.2431,416.5688 852.6639,416.6364C852.1422,416.5903 851.6567,416.4365 851.2316,416.1199C850.6568,415.7006 850.1734,415.1712 849.8367,414.5405C849.7582,414.3349 849.6689,414.1392 849.6421,413.9176C849.6,413.5704 849.7156,413.2055 849.7993,412.8746C849.9601,412.466 850.1642,412.0788 850.5484,411.8389C851.4515,411.319 852.2966,410.7226 853.304,410.4445L851.8221,411.5777z" stroke="#000" stroke-linecap="round" stroke-linejoin="round" stroke-width=".2515"/>
<path d="M859.6183,412.3322C859.298,412.4346 858.9653,412.5224 858.6608,412.6683C858.5586,412.7173 858.4626,412.7784 858.3635,412.8335C858.7842,412.5979 859.2049,412.3623 859.6256,412.1267C859.1262,412.4637 858.7556,412.8005 858.5322,413.3653C858.386,413.8305 858.4561,414.2239 858.8245,414.5681C858.9135,414.6512 859.018,414.7158 859.1148,414.7897C859.819,415.1942 860.6526,415.3391 861.4592,415.2535C861.6904,415.229 861.9172,415.173 862.1462,415.1327C862.6761,414.9959 862.9071,414.9578 863.4048,414.7489C863.5699,414.6796 864.0398,414.4184 863.886,414.5102C861.6478,415.8467 862.6609,415.2645 863.0124,414.9086C863.0904,414.8297 863.1523,414.7364 863.2222,414.6504C863.5287,414.1708 863.5366,413.7443 863.3207,413.2334C863.281,413.1436 863.0526,412.673 862.8916,412.7748C862.8637,412.7924 862.8496,412.8257 862.8286,412.8511C865.3708,411.4015 864.4029,411.6438 864.1563,412.3504C864.0499,412.6553 864.0313,412.9517 864.0167,413.2719C864.1933,414.7582 864.8499,416.1344 865.3894,417.5154C866.0453,419.3398 866.6775,421.233 866.7503,423.1898C866.7647,423.5792 866.7268,423.9689 866.7151,424.3584C866.6569,424.7329 866.6243,425.1123 866.5406,425.482C866.2674,426.6879 865.6458,427.7917 864.7227,428.619C864.5599,428.7648 864.3757,428.8847 864.2023,429.0176C863.5081,429.3802 862.8478,429.8167 862.1198,430.1055C861.8181,430.2252 861.0897,429.9755 860.8509,429.869C859.9634,429.4734 859.1969,428.8235 858.4429,428.2284C857.171,427.1396 855.9257,426.0038 854.7878,424.7731C854.1983,424.1356 854.0526,423.921 853.5406,423.2614C853.1048,422.5343 852.5911,421.6914 853.0196,420.8343C853.2731,420.3271 853.5791,420.1431 854.0038,419.7738C855.2765,418.9491 855.3807,418.8552 857.2233,417.9221C857.673,417.6944 859.1232,417.1794 859.5671,417.0245C860.4521,416.7158 861.404,416.4098 862.294,416.119C864.6321,415.4446 866.9221,414.6231 869.1854,413.7326C869.3776,413.6509 869.5699,413.5699 869.7618,413.4876C869.9084,413.4247 870.056,413.3643 870.2007,413.2972C870.4965,413.1602 870.7729,412.9905 871.078,412.8743C871.4918,412.8153 871.637,413.3135 871.7609,413.6162C872.0461,414.3867 872.2069,415.1947 872.2763,416.0115C872.2934,416.3775 872.3053,416.7452 872.2534,417.109C872.2481,417.1462 872.2673,417.2041 872.2333,417.2199C871.6789,417.4781 871.1,417.68 870.5334,417.9101C870.5348,417.7975 870.5286,417.6846 870.5378,417.5724C870.5512,417.4091 870.5793,417.2473 870.6008,417.0849C870.7265,416.1371 870.8911,415.2018 871.084,414.2654C871.2796,413.4485 871.4484,412.5931 871.9152,411.88C872.4438,411.3266 873.6195,410.2354 874.192,410.8705C874.2519,410.937 874.2939,411.0177 874.3449,411.0913C874.4569,411.2894 874.5537,411.4398 874.627,411.6593C874.8331,412.2765 874.9256,412.9998 875.0347,413.6417C875.1771,414.1972 875.1228,414.8625 875.2914,415.4072C875.5143,414.8084 875.2891,415.4349 873.6882,416.1982C873.6558,416.2137 873.7372,416.1448 873.7553,416.1137C873.797,416.0426 873.8786,415.8336 873.9104,415.7695C873.9538,415.6819 874.0033,415.5976 874.0497,415.5117C874.3508,415.0291 874.6056,414.5192 874.9374,414.0564C875.4921,413.3614 876.011,413.2097 876.9712,412.682C877.0041,412.6639 877.0485,412.6745 877.0838,412.6872C877.1288,412.7035 877.1638,412.7398 877.2038,412.7661C877.5793,413.1611 877.7101,413.72 877.8369,414.2343C877.947,414.7943 878.006,415.3656 878.2109,415.9013C878.2607,415.9715 878.3015,416.0492 878.3605,416.1119C878.7903,416.5688 879.5012,416.9104 880.0874,417.0961C880.308,417.166 880.5353,417.2128 880.7592,417.2711C881.7074,417.5076 882.6587,417.5194 883.6018,417.2602C883.8105,417.2028 884.0201,417.1429 884.2178,417.0547C884.402,416.9726 884.567,416.8528 884.7415,416.7519C884.3784,416.9393 884.042,417.1916 883.6521,417.314C883.5018,417.3612 883.886,417.1022 883.9933,416.9869C884.3097,416.6467 884.4906,416.2685 884.6179,415.8286C884.7052,415.4623 884.7037,415.0858 884.6936,414.7121C884.5915,413.9405 883.9098,414.6999 886.2698,413.7415C886.3127,413.724 886.2445,413.8309 886.2373,413.8768C886.2268,413.9434 886.2236,414.011 886.2167,414.0781C886.1832,414.6861 886.1693,415.2953 886.2369,415.901C886.3056,416.2907 886.3802,416.6889 886.6856,416.9624C886.9005,417.1038 887.1286,417.1134 887.366,417.0358C887.9372,416.7475 888.7946,416.2475 886.1971,417.7139C886.1049,417.7659 886.3753,417.5996 886.4629,417.5402L888.1919,416.8528C888.058,416.9627 888.0823,416.9513 887.9286,417.0412C887.3445,417.3827 886.6212,417.9531 885.8821,418.1611C885.5936,418.1921 885.3246,418.1293 885.099,417.9375C884.785,417.6102 884.6825,417.1927 884.6125,416.7525C884.5382,416.1398 884.5532,415.5244 884.5612,414.9081C884.5636,414.8258 884.5708,414.5398 884.5767,414.5359C885.7998,413.7236 886.1952,412.9546 886.3504,413.8627C886.3592,414.2556 886.3596,414.6507 886.2775,415.0373C885.875,416.6412 884.8119,417.0066 883.3506,417.8718C883.1709,417.9624 882.9988,418.0699 882.8116,418.1436C881.6861,418.5867 880.4597,418.5511 879.302,418.2736C879.0708,418.2123 878.836,418.1631 878.6083,418.0896C878.0259,417.9017 877.2069,417.4996 876.7774,417.0478C876.7066,416.9734 876.6557,416.8824 876.5948,416.7996C876.3906,416.2534 876.3318,415.6746 876.2268,415.1037C876.1209,414.6613 876.0157,414.1142 875.6502,413.8071C875.564,413.8179 875.6085,413.8049 875.5193,413.8543C876.0133,413.561 876.5074,413.2678 877.0014,412.9745C877.0432,412.9505 876.9249,413.0334 876.8898,413.0665C876.8019,413.1495 876.7306,413.2492 876.6356,413.3253C876.281,413.7711 876.0252,414.2767 875.7291,414.7615C875.6177,414.9521 875.5257,415.1334 875.4549,415.3424C875.4404,415.385 875.4565,415.449 875.4179,415.4722C873.7462,416.4777 874.117,416.8845 873.6503,416.2985C873.51,415.707 873.582,415.079 873.4453,414.4847C873.3116,413.6528 873.2087,412.7618 872.7565,412.034C872.6779,411.9394 872.6441,411.8528 872.5191,411.8297C872.4853,411.8235 872.3872,411.8579 872.4164,411.8397C872.9012,411.5368 873.4045,411.2648 873.8945,410.9704C873.9385,410.944 873.7984,411.0084 873.7549,411.0357C873.7036,411.0679 873.6596,411.1104 873.612,411.1478C873.0608,411.8051 872.8946,412.6925 872.6717,413.4976C872.4206,414.6585 872.205,415.8358 872.1696,417.0255C871.6282,417.3573 871.0978,417.7077 870.5455,418.0209C870.5151,418.0381 870.5758,417.9575 870.5855,417.9239C870.6866,417.576 870.6579,417.2078 870.6578,416.8509C870.6111,416.0524 870.4618,415.2583 870.1568,414.5157C870.0986,414.3813 869.9917,413.9919 869.7881,413.9782C869.7409,413.975 869.6543,414.0124 869.6167,414.0259C869.0146,414.2939 868.4299,414.6016 867.8042,414.8159C865.5609,415.6596 863.2985,416.4503 860.9979,417.1251C859.6625,417.5669 858.3178,417.9938 857.0099,418.5136C856.6335,418.6633 856.2888,418.9094 855.8918,418.9898C855.6878,419.0311 856.593,418.5449 856.4059,418.636C856.1332,418.7688 855.8904,418.956 855.6326,419.116C855.1512,419.5025 854.5608,419.9024 854.4467,420.5686C854.3345,421.2243 854.7521,421.8306 855.0345,422.3743C855.2092,422.6129 855.3754,422.858 855.5586,423.0902C856.8092,424.6763 858.3309,426.037 859.8802,427.3216C860.6402,427.8891 861.4154,428.5237 862.314,428.8678C862.5214,428.9473 862.739,429.0074 862.9597,429.032C863.1479,429.0529 863.6292,428.8433 863.5272,429.003C863.3149,429.3355 862.8764,429.449 862.5509,429.672C862.7331,429.5448 862.9258,429.4317 863.0973,429.2905C864.0501,428.5066 864.718,427.4244 865.0153,426.2285C865.1056,425.8651 865.1409,425.4903 865.2037,425.1212C865.2218,424.737 865.2677,424.3531 865.258,423.9687C865.2085,422.0276 864.5501,420.1544 863.8867,418.3541C863.3239,416.9622 862.6391,415.5902 862.394,414.0965C862.3858,413.743 862.3945,413.4738 862.4801,413.1318C862.4849,413.1127 862.5798,412.7722 862.622,412.743C863.1649,412.3692 863.743,412.0494 864.3034,411.7025C864.3461,411.7059 864.3901,411.7015 864.4313,411.7128C864.6961,411.7852 864.823,412.1137 864.9337,412.3284C865.1694,412.8849 865.2017,413.3801 864.9018,413.9267C864.8338,414.0242 864.775,414.1287 864.6978,414.219C864.1457,414.8642 863.0414,415.3171 862.4794,415.6298C861.9419,415.9288 861.3236,416.0567 860.7324,416.1951C860.4957,416.2306 860.2609,416.2821 860.0223,416.3016C859.1703,416.3712 858.2999,416.2182 857.5726,415.7608C857.4682,415.6775 857.3557,415.6034 857.2593,415.5108C856.852,415.1195 856.7249,414.6876 856.8596,414.1472C857.0628,413.5012 857.3814,413.1885 857.9244,412.7908C858.9723,412.1717 859.9197,411.4888 861.1002,411.199L859.6183,412.3322z" stroke="#000" stroke-linecap="round" stroke-linejoin="round" stroke-width=".2515"/>
<path d="M885.0291,406.6825C884.8048,406.9456 884.6256,407.2468 884.5403,407.5832C884.4792,407.9195 884.6799,408.0058 884.9557,408.1265C885.402,408.2899 885.7834,408.272 886.2404,408.1912C886.8516,407.9816 887.8222,407.3846 885.1056,408.8832C885.0675,408.9043 885.178,408.8342 885.2102,408.8048C885.2868,408.735 885.2945,408.706 885.3447,408.6185C885.437,408.4115 885.4279,408.2177 885.3091,408.027C885.151,407.8772 884.9133,407.8913 884.7093,407.8813C884.4986,407.9008 884.298,407.9531 884.1267,408.0794L885.5815,406.9078C885.7887,406.8293 886.0006,406.7798 886.2245,406.7976C886.4907,406.8239 886.7527,406.8617 886.9253,407.0892C887.066,407.3258 887.1215,407.5704 887.0403,407.8405C886.7456,408.7297 885.6262,409.0892 884.7601,409.3009C884.2986,409.3589 883.8424,409.3336 883.4086,409.1482C883.0967,408.9873 882.8171,408.7859 882.8644,408.3955C882.9219,408.0331 883.0987,407.7085 883.3111,407.4124L885.0291,406.6825z" stroke="#000" stroke-linecap="round" stroke-linejoin="round" stroke-width=".2515"/>
<path d="M861.1845,411.2142C861.5382,411.0423 861.8757,410.839 862.2406,410.6908C862.4692,410.5423 862.72,410.4737 862.9875,410.4445C863.2336,410.4258 863.4806,410.4289 863.7271,410.4298C863.9718,410.4038 864.1791,410.4706 864.3941,410.5756C864.5445,410.6962 864.6633,410.8564 864.7776,411.0113C864.877,411.1919 864.9354,411.3944 864.9965,411.5911C865.0514,411.7926 865.126,411.9852 865.1655,412.1912C865.2035,412.433 865.2061,412.6783 865.2091,412.9225C865.2102,413.0483 865.21,413.1742 865.21,413.3001L863.548,414.1468C863.5481,414.0215 863.5484,413.8962 863.5478,413.771C863.5461,413.5366 863.5457,413.3014 863.5162,413.0685C863.4834,412.8678 863.41,412.6832 863.3565,412.4883C863.3047,412.3114 863.2487,412.1312 863.1684,411.9662C863.0706,411.838 862.9754,411.6915 862.8348,411.6084C862.6373,411.5227 862.4314,411.5171 862.218,411.5263C861.9767,411.5274 861.7338,411.5262 861.4949,411.5652C861.2423,411.6186 861.0146,411.7273 860.7847,411.8427C860.4268,412.0091 860.0806,412.1999 859.7338,412.3879L861.1845,411.2142z" stroke="#000" stroke-linecap="round" stroke-linejoin="round" stroke-width=".2515"/>
</g>
<path d="M55.5474,47.6044H242.4256A15.9099,15.9099 0 0 1 258.3355,63.5143V63.5143A15.9099,15.9099 0 0 1 242.4256,79.4242H55.5474A15.9099,15.9099 0 0 1 39.6375,63.5143V63.5143A15.9099,15.9099 0 0 1 55.5474,47.6044z" fill="#fff" stroke="#000" stroke-linecap="round" stroke-linejoin="round" stroke-width="4"/>
<path d="M101.5203,44.9288A36.8706,34.8503 0 1 1 27.7792,44.9288A36.8706,34.8503 0 1 1 101.5203,44.9288z" stroke="#000" stroke-linecap="round" stroke-linejoin="round" stroke-width="7.491" transform="matrix(.7121,0,0,.7121,-5.64888,25.22724)"/>
<text font-family="Bitstream Vera Sans" font-size="40" x="16.0004" y="71.2618">
   <tspan fill="#f9f9f9" x="16.0004" y="71.2618">50</tspan>
  </text>
<path d="m446.8915,78.4154c0,2.9289-27.5427,5.3033-61.5183,5.3033-33.9756,0-61.5183,-2.3744-61.5183,-5.3033 0,-2.9289 27.5427,-5.3033 61.5183,-5.3033 33.9756,0 61.5183,2.3744 61.5183,5.3033z" stroke="#000" stroke-linecap="round" stroke-width="4.862" transform="matrix(-.73695,0,0,.73695,1068.20775,310.06581)"/>
<g transform="matrix(-.73695,0,0,.73695,712.51034,90.98674)">
<path d="M-43.5297,288.8057L-43.5297,336.6941C-43.5297,356.7011-59.6364,372.8078-79.6434,372.8078L-115.0774,372.8078C-135.0844,372.8078-151.1912,356.7011-151.1912,336.6941L-151.1912,288.8057" fill="#fff" stroke="#000" stroke-linecap="round" stroke-linejoin="round" stroke-width="3.6422"/>
<path d="M-122.1431,308.6171H-98.6091A.7803,.7803 0 0 1 -97.8288,309.3974V319.4235A.7803,.7803 0 0 1 -98.6091,320.2038H-122.1431A.7803,.7803 0 0 1 -122.9234,319.4235V309.3974A.7803,.7803 0 0 1 -122.1431,308.6171z" stroke="#000" stroke-linecap="square" stroke-linejoin="round" stroke-width="3.7338"/>
<path d="M-80.7522,308.6171H-60.3393A2.3409,2.3409 0 0 1 -57.9985,310.958V317.8629A2.3409,2.3409 0 0 1 -60.3393,320.2038H-80.7522A2.3409,2.3409 0 0 1 -83.093,317.8629V310.958A2.3409,2.3409 0 0 1 -80.7522,308.6171z" stroke="#000" stroke-linecap="square" stroke-linejoin="round" stroke-width="3.7338"/>
<path d="M-148.8829,313.6717C-148.3338,313.6822-147.7844,313.6785-147.2351,313.6758C-146.8722,313.6736-146.5092,313.6722-146.1462,313.6715C-145.8537,313.6711-145.5613,313.6711-145.2688,313.6711C-144.9647,313.6705-144.6607,313.6717-144.3567,313.6723C-143.966,313.6626-143.5814,313.6719-143.1947,313.723C-142.7951,313.7775-142.3916,313.7947-141.9885,313.8057C-141.5833,313.7899-141.1856,313.8646-140.7845,313.9048C-140.3766,313.9415-139.9665,313.9454-139.5571,313.9498C-139.1269,313.9521-138.6968,313.9519-138.2666,313.9504C-137.893,313.9497-137.5194,313.9491-137.1458,313.9482C-136.8388,313.9474-136.5318,313.9472-136.2247,313.9471C-135.9332,313.947-135.6418,313.947-135.3502,313.947C-135.0587,313.947-134.7672,313.947-134.4756,313.947C-134.1569,313.9467-133.8382,313.9476-133.5196,313.949C-133.1253,313.9514-132.731,313.9494-132.3367,313.9484C-131.9659,313.9481-131.595,313.9488-131.2241,313.9499C-130.8274,313.9497-130.4307,313.9498-130.0339,313.9488C-129.654,313.949-129.274,313.9495-128.894,313.949C-128.5484,313.9477-128.2029,313.9475-127.8573,313.9492C-127.3241,313.9518-126.7909,313.9534-126.2577,313.9553C-125.5311,313.9581-124.8045,313.9587-124.0778,313.9563C-123.5446,313.9549-123.0113,313.9511-122.4781,313.9509C-122.0368,313.9515-121.5955,313.9508-121.1542,313.9493C-121.0931,313.9491-121.032,313.949-120.9709,313.9488L-122.7169,315.1481C-122.7774,315.1478-122.8379,315.1476-122.8984,315.1474C-123.3383,315.1459-123.7781,315.1453-124.218,315.1459C-124.7459,315.1457-125.2739,315.1418-125.8018,315.1405C-126.5294,315.1381-127.2571,315.1387-127.9846,315.1415C-128.5238,315.1434-129.0628,315.145-129.6019,315.1476C-129.9477,315.1493-130.2936,315.1491-130.6394,315.1478C-131.0195,315.1473-131.3996,315.1478-131.7797,315.148C-132.1754,315.147-132.5711,315.1471-132.9668,315.1469C-133.3391,315.1479-133.7115,315.1487-134.0838,315.1484C-134.4775,315.1474-134.8712,315.1454-135.2648,315.1478C-135.5854,315.1492-135.9059,315.1501-136.2265,315.1497C-136.5181,315.1497-136.8096,315.1497-137.1012,315.1497C-137.3926,315.1497-137.684,315.1497-137.9755,315.1497C-138.2815,315.1495-138.5875,315.1493-138.8935,315.1487C-139.2655,315.148-139.6375,315.1479-140.0095,315.1478C-140.4397,315.147-140.8698,315.1485-141.3,315.1437C-141.7147,315.1381-142.1302,315.1292-142.5427,315.0843C-142.9395,315.0397-143.3348,314.9871-143.7358,314.9973C-144.1436,314.9822-144.5506,314.9538-144.955,314.9006C-145.3371,314.8601-145.7204,314.8714-146.1043,314.8727C-146.4095,314.8733-146.7146,314.8745-147.0198,314.8739C-147.3119,314.8739-147.604,314.8739-147.8961,314.8735C-148.255,314.8728-148.6138,314.8714-148.9726,314.8693C-149.5259,314.8665-150.0792,314.863-150.6323,314.8733L-148.8829,313.6717z" stroke="#000" stroke-linecap="square" stroke-linejoin="round" stroke-width=".4767"/>
<path d="M-57.3881,313.9484C-56.6843,313.9602-55.9802,313.9586-55.2763,313.9581C-54.631,313.9572-53.9858,313.9554-53.3406,313.9525C-52.9094,313.9502-52.4782,313.9501-52.047,313.9495C-51.7073,313.9487-51.3675,313.9479-51.0277,313.9474C-50.7309,313.9691-50.4456,313.8899-50.1539,313.8518C-49.8613,313.8177-49.5662,313.8128-49.2718,313.8093C-48.9796,313.8072-48.6875,313.8081-48.3953,313.8085C-48.1035,313.8089-47.8117,313.809-47.5199,313.8091C-47.2282,313.8091-46.9364,313.8091-46.6446,313.8091C-46.3528,313.8091-46.061,313.8091-45.7692,313.8091C-45.4559,313.8085-45.1426,313.8102-44.8294,313.8103C-44.5121,313.81-44.1949,313.8096-43.8776,313.8093C-43.5838,313.8091-43.29,313.8091-42.9962,313.8091C-42.8018,313.8091-42.899,313.8091-42.7047,313.8091L-44.4556,315.0118C-44.6499,315.0118-44.5527,315.0118-44.7471,315.0118C-45.0407,315.0118-45.3343,315.0118-45.6279,315.0116C-45.9442,315.0113-46.2606,315.0109-46.577,315.0106C-46.8913,315.0107-47.2057,315.0124-47.5201,315.0118C-47.8119,315.0118-48.1037,315.0118-48.3955,315.0118C-48.6873,315.0118-48.9791,315.0118-49.2709,315.0117C-49.5627,315.0115-49.8545,315.0113-50.1463,315.011C-50.4376,315.0107-50.7289,315.0099-51.0202,315.0153C-51.3095,315.0227-51.5993,315.0348-51.8855,315.0788C-52.1815,315.1241-52.476,315.1695-52.7776,315.1494C-53.1153,315.1489-53.453,315.1481-53.7908,315.1473C-54.219,315.1467-54.6473,315.1466-55.0755,315.1442C-55.7153,315.1413-56.3552,315.1395-56.995,315.1387C-57.7084,315.1382-58.4219,315.1368-59.1352,315.1484L-57.3881,313.9484z" stroke="#000" stroke-linecap="square" stroke-linejoin="round" stroke-width=".4767"/>
<path d="M-97.681,314.1116C-97.1471,314.1792-96.6084,314.2005-96.0705,314.2165C-95.5904,314.228-95.1101,314.228-94.63,314.2268C-94.2335,314.2263-93.8371,314.2261-93.4407,314.2252C-92.6449,314.2456-91.8487,314.2356-91.0528,314.2319C-90.5718,314.2284-90.0909,314.2269-89.6099,314.225C-89.2264,314.225-88.8429,314.2245-88.4594,314.2256C-88.0562,314.2268-87.653,314.2246-87.2498,314.2253C-86.886,314.2244-86.5221,314.2245-86.1583,314.2246C-85.794,314.2251-85.4296,314.2248-85.0652,314.2241C-84.7171,314.2253-84.3691,314.2242-84.021,314.2236C-83.6805,314.2251-83.3399,314.2241-82.9994,314.2236C-82.6986,314.2232-82.3977,314.223-82.0969,314.223C-81.8453,314.2815-81.5923,314.3235-81.3342,314.3439C-81.0543,314.3611-80.7736,314.3611-80.4933,314.3619C-80.2016,314.3621-79.9099,314.3615-79.6182,314.3612C-79.4722,314.3611-79.3262,314.361-79.1802,314.361L-80.931,315.5637C-81.077,315.5638-81.223,315.5639-81.369,315.564C-81.661,315.5644-81.953,315.5651-82.245,315.5636C-82.5302,315.5612-82.816,315.5587-83.0999,315.5305C-83.3505,315.5012-83.5959,315.4409-83.8477,315.4256C-84.1479,315.4255-84.4481,315.4254-84.7483,315.4249C-85.0888,315.4245-85.4293,315.4235-85.7698,315.4249C-86.1175,315.4243-86.4651,315.4233-86.8128,315.4244C-87.1766,315.4237-87.5405,315.4234-87.9044,315.4239C-88.2676,315.4241-88.6307,315.4241-88.9939,315.4233C-89.3968,315.4239-89.7997,315.4217-90.2026,315.423C-90.5867,315.424-90.9708,315.4235-91.3549,315.4236C-91.8291,315.4216-92.3032,315.4202-92.7774,315.4166C-93.5801,315.4129-94.3831,315.4034-95.1857,315.424C-95.5815,315.4235-95.9772,315.4244-96.373,315.4236C-96.8515,315.4207-97.33,315.417-97.8082,315.401C-98.3559,315.3799-98.9029,315.3472-99.4483,315.2941L-97.681,314.1116z" stroke="#000" stroke-linecap="square" stroke-linejoin="round" stroke-width=".4767"/>
<path d="M-136.1855,276.2983L-136.1855,294.8415" fill="none" stroke="#000" stroke-linecap="round" stroke-width="4.8046"/>
<path d="M-126.6615,274.544L-126.6615,293.0872" fill="none" stroke="#000" stroke-linecap="round" stroke-width="4.8046"/>
<path d="M-117.7245,276.0083L-117.7245,294.5515" fill="none" stroke="#000" stroke-linecap="round" stroke-width="4.8046"/>
<path d="M-106.0478,274.841L-106.0478,293.3843" fill="none" stroke="#000" stroke-linecap="round" stroke-width="4.8046"/>
<path d="M-95.8892,277.0276L-95.8892,295.5709" fill="none" stroke="#000" stroke-linecap="round" stroke-width="4.8046"/>
<path d="M-84.2599,276.8522L-84.2599,295.3955" fill="none" stroke="#000" stroke-linecap="round" stroke-width="4.8046"/>
<path d="M-73.7574,275.1381L-73.7574,293.6813" fill="none" stroke="#000" stroke-linecap="round" stroke-width="4.8046"/>
<path d="M-63.8419,278.175L-63.8419,296.7182" fill="none" stroke="#000" stroke-linecap="round" stroke-width="4.8046"/>
<path d="M-53.169,277.8063L-53.169,296.3495" fill="none" stroke="#000" stroke-linecap="round" stroke-width="4.8046"/>
<path d="M-105.8017,352.8807L-78.6788,348.4525" fill="none" stroke="#000" stroke-width=".7749"/>
<path d="M-144.0697,281.0285L-144.0697,299.5717" fill="none" stroke="#000" stroke-linecap="round" stroke-width="4.8046"/>
</g>
<text font-family="Bitstream Vera Sans" font-size="20" x="86.9107" y="70.2813">
   <tspan x="86.9107" y="70.2813">Piège à geek</tspan>
  </text>
<path d="M176.4286,169.3571H221.4286A7.5,7.5 0 0 1 228.9286,176.8571V221.8571A7.5,7.5 0 0 1 221.4286,229.3571H176.4286A7.5,7.5 0 0 1 168.9286,221.8571V176.8571A7.5,7.5 0 0 1 176.4286,169.3571z" fill="#fff" stroke="#000" stroke-linecap="round" stroke-linejoin="round" stroke-width="3"/>
<text font-family="Bitstream Vera Sans" font-size="57.534" x="183.1248" y="218.2603">
   <tspan font-family="Liberation Mono" x="183.1248" y="218.2603">?</tspan>
  </text>
<path d="M221.4958,174.6949H223.1379V176.5194H221.4958z" stroke="#000" stroke-linecap="round" stroke-width="1.5326"/>
<path d="M174.179,174.6949H175.8211V176.5194H174.179z" stroke="#000" stroke-linecap="round" stroke-width="1.5326"/>
<path d="M221.7872,222.323H223.4293V224.1475H221.7872z" stroke="#000" stroke-linecap="round" stroke-width="1.5326"/>
<path d="M174.4703,222.323H176.1124V224.1475H174.4703z" stroke="#000" stroke-linecap="round" stroke-width="1.5326"/>
<path d="M114,378A33,4 0 1 1 48,378A33,4 0 1 1 114,378z" stroke="#000" stroke-linecap="round" transform="matrix(1.1976,0,0,1.1976,-3.05674,-86.58165)"/>
<path d="M138.2143,328.2143A31.4286,39.6429 0 1 1 75.3571,328.2143A31.4286,39.6429 0 1 1 138.2143,328.2143z" fill="#fff" stroke="#000" stroke-linecap="round" stroke-width="3" transform="matrix(1.1976,0,0,1.1976,-34.79311,-74.00686)"/>
<path d="M55.4545,312.6466L128.5936,312.6466" fill="none" stroke="#000" stroke-width="3.5928"/>
<g transform="matrix(1.1976,0,0,1.1976,1.13486,-79.99486)">
<path d="M64.1071,320.625H80.8929A2.6786,2.6786 0 0 1 83.5714,323.3036V333.3036A2.6786,2.6786 0 0 1 80.8929,335.9821H64.1071A2.6786,2.6786 0 0 1 61.4286,333.3036V323.3036A2.6786,2.6786 0 0 1 64.1071,320.625z" fill="#fff" stroke="#000" stroke-linecap="round" stroke-width="3"/>
<path d="M91.25,320.625H108.0357A2.6786,2.6786 0 0 1 110.7143,323.3036V333.3036A2.6786,2.6786 0 0 1 108.0357,335.9821H91.25A2.6786,2.6786 0 0 1 88.5714,333.3036V323.3036A2.6786,2.6786 0 0 1 91.25,320.625z" fill="#fff" stroke="#000" stroke-linecap="round" stroke-width="3"/>
</g>
<path d="M84.9387,335.1417L85.4122,336.3018L106.9389,336.3018L107.4171,335.1417L84.9387,335.1417z" fill-rule="evenodd"/>
<path d="M85.6899,335.4183C91.0843,354.7832 97.8352,357.6433 106.6479,335.4183" fill-rule="evenodd" stroke="#000" stroke-width="1.1976"/>
<path d="M91.9706,335.9035H97.8517V343.2816H91.9706z" fill="#fff" stroke="#000" stroke-linecap="round" stroke-width="1.1976"/>
<path d="M97.9051,335.9035H103.7862V343.2816H97.9051z" fill="#fff" stroke="#000" stroke-linecap="round" stroke-width="1.1976"/>
<path d="M52.8964,285.6724C56.5966,287.7505 60.5278,289.5699 64.4004,291.4445C68.5496,293.3512 69.3371,293.2601 76.1369,291.8367C76.5946,291.7409 75.8331,291.1323 75.6163,290.803C75.3123,290.3412 74.9255,289.9157 74.5801,289.4721C72.0905,286.3746 69.3506,283.3922 66.986,280.2346C67.4176,280.7745 65.8791,278.6411 66.3962,278.9232C66.6093,279.0395 67.1887,279.3478 66.93,279.3672C64.3281,279.5625 61.695,279.3084 59.0894,279.4716C58.579,279.5036 60.0824,279.6672 60.5789,279.765C64.99,281.0279 69.3079,282.4818 73.6301,283.9183C75.4758,284.5933 77.4007,285.1509 79.1959,285.9088C79.2515,285.9448 79.2913,286.025 79.3627,286.0166C89.7815,284.7954 89.1442,285.9223 84.4618,283.2993C82.8407,282.3912 82.2994,282.0346 80.7035,281.0529C78.0751,279.3875 75.5416,277.6316 73.2064,275.7169C70.8273,273.3645 75.6075,274.3817 64.1691,275.5432C63.8966,275.5709 64.67,275.7212 64.9084,275.828C65.3352,276.0191 65.7445,276.2332 66.1626,276.4358C70.4928,278.3003 74.4488,280.6228 78.4485,282.8786C80.1612,283.8732 81.8645,284.877 83.4683,285.9777C83.65,285.7644 84.0559,286.6706 84.0911,286.5121C84.1105,286.4248 83.9295,286.2586 84.0422,286.2491C92.4327,285.5427 94.8018,287.1742 91.7111,285.3282C87.9094,282.7198 84.8419,279.5543 81.8379,276.3958C80.1625,274.239 77.071,271.8005 76.6944,269.1732C76.7545,269.1527 76.8133,269.0937 76.8748,269.1117C79.2274,269.8025 71.8461,269.2849 69.3563,269.5521C68.8074,269.611 70.4013,269.8428 70.907,270.0198C72.5302,270.588 73.6048,271.112 75.1806,271.8138C80.6077,274.3392 85.9997,276.9064 91.2342,279.6707C93.6013,281.0523 95.9474,282.4845 98.0738,284.092C101.2423,286.5489 99.2135,286.2077 108.084,284.4108C108.512,284.3241 107.4506,283.9287 107.1339,283.6875C102.5134,279.8652 98.1239,275.8771 93.6746,271.9338C91.9951,270.4392 90.3935,268.8914 88.8156,267.331C88.1484,266.6711 87.5146,266.0493 87.0689,265.2848C87.0697,265.2174 86.9934,265.0539 87.0714,265.0827C87.2818,265.1601 87.7965,265.4475 87.5654,265.4677C85.0455,265.6878 82.4575,265.3415 79.9646,265.7035C79.2621,265.8055 81.3191,266.0627 81.9778,266.2792C84.0847,266.9714 85.486,267.592 87.5429,268.4328C93.2095,270.7517 98.3854,273.6924 103.2702,276.9006C105.6245,278.4597 107.4843,280.3841 109.2947,282.3195C110.8751,284.2134 112.5655,286.0496 114.1403,287.9467C114.9872,288.9307 115.8612,289.9117 116.5652,290.9644C116.9872,291.8916 117.4565,292.8003 118.0235,293.6793C118.0751,293.786 118.1267,293.8928 118.1783,293.9995L127.1094,293.7602C127.05,293.6238 126.9905,293.4874 126.9311,293.3509C126.3558,292.4785 125.8159,291.5989 125.4849,290.6458C124.823,289.5332 123.8334,288.5467 122.9336,287.5478C121.329,285.6509 119.6205,283.8085 118.0628,281.8873C116.2115,279.8981 114.3526,277.8773 111.9037,276.3052C106.8926,273.1235 101.6368,270.1664 95.9791,267.7197C93.7198,266.744 92.8405,266.3311 90.5982,265.479C89.9757,265.2425 89.3971,264.8609 88.7085,264.8062C85.3938,264.5429 82.0486,264.4367 78.7192,264.5355C77.93,264.5588 78.1425,265.2964 78.1723,265.5831C78.6705,266.4323 79.3633,267.0897 80.139,267.8043C81.8243,269.357 83.5265,270.9 85.27,272.4131C89.7334,276.2768 94.0661,280.2279 98.3463,284.2156C98.6183,284.4513 98.7566,284.9075 99.1623,284.9228C110.5284,285.3505 110.1854,285.988 106.8989,283.5432C104.7372,281.8578 102.2382,280.4464 99.8103,279.0093C94.5145,276.2967 89.0933,273.7418 83.7264,271.1183C82.4173,270.4933 80.9778,269.7767 79.6035,269.2203C79.1289,269.0282 78.6797,268.7338 78.1475,268.6954C74.9063,268.4617 71.644,268.3783 68.3893,268.4116C67.9453,268.4161 67.8345,269.1025 67.7782,269.2815C68.4922,272.176 71.411,274.4142 73.3676,276.8188C76.3521,279.9697 79.3066,283.1689 82.8884,285.9304C83.1336,286.1077 83.2911,286.4421 83.6242,286.4624C85.2358,286.5607 95.8472,288.3229 92.3545,285.3674C90.6197,284.2994 88.9237,283.1916 87.0792,282.2319C83.0417,280.0523 79.1522,277.6918 74.9054,275.7601C74.5182,275.5459 74.1295,275.3333 73.7437,275.1176C73.5107,274.9873 73.3353,274.7269 73.0488,274.7221C68.8937,274.6525 61.3434,273.0918 64.3805,276.2447C66.7819,278.1949 69.4546,279.9262 72.1134,281.6556C73.8783,282.7796 75.6637,283.8775 77.5029,284.927C77.9064,285.1572 78.2309,285.5852 78.7302,285.5993C81.9184,285.6893 85.1039,285.366 88.2896,285.2315C88.3545,285.2288 88.1617,285.2131 88.0978,285.2039C86.3793,284.259 84.1184,283.8928 82.2779,283.1194C77.93,281.7377 73.5909,280.3375 69.2815,278.8843C65.0542,277.7901 66.5505,278.058 58.1089,278.3362C57.7931,278.3466 57.59,278.644 57.4398,278.8614C57.0862,279.373 58.1167,280.2047 58.2269,280.6085C60.7223,283.7101 63.5517,286.6467 65.8817,289.8328C66.184,290.2526 66.4898,290.6709 66.7887,291.0921C66.9261,291.2857 66.908,291.6624 67.1907,291.6773C70.1148,291.8317 73.0514,291.5937 75.9821,291.5775C76.1908,291.5763 75.5624,291.6713 75.3598,291.6321C74.5316,291.472 73.906,290.8714 73.065,290.7463C69.2001,288.9671 65.2822,287.1955 61.7299,285.0522L52.8964,285.6724z" stroke="#000" stroke-linecap="round" stroke-width="2.1251"/>
<text font-family="Bitstream Vera Sans" font-size="20" x="64.5" y="204">
   <tspan x="64.5" y="204">W00T !</tspan>
  </text>
<path d="M100.5,218L96,258" fill="none" stroke="#000"/>
<g transform="translate(347.4286,-16)">
<path d="M111.0714,185H156.0714A7.5,7.5 0 0 1 163.5714,192.5V237.5A7.5,7.5 0 0 1 156.0714,245H111.0714A7.5,7.5 0 0 1 103.5714,237.5V192.5A7.5,7.5 0 0 1 111.0714,185z" fill="#fff" stroke="#000" stroke-linecap="round" stroke-linejoin="round" stroke-width="3"/>
<text font-family="Bitstream Vera Sans" font-size="57.534" x="117.7677" y="233.9032">
    <tspan font-family="Liberation Mono" x="117.7677" y="233.9032">?</tspan>
   </text>
<path d="M156.1387,190.3377H157.7808V192.1623H156.1387z" stroke="#000" stroke-linecap="round" stroke-width="1.5326"/>
<path d="M108.8218,190.3377H110.4639V192.1623H108.8218z" stroke="#000" stroke-linecap="round" stroke-width="1.5326"/>
<path d="M156.4301,237.9658H158.0722V239.7904H156.4301z" stroke="#000" stroke-linecap="round" stroke-width="1.5326"/>
<path d="M109.1132,237.9658H110.7553V239.7904H109.1132z" stroke="#000" stroke-linecap="round" stroke-width="1.5326"/>
</g>
<path d="M138.2143,328.2143A31.4286,39.6429 0 1 1 75.3571,328.2143A31.4286,39.6429 0 1 1 138.2143,328.2143z" fill="#fff" stroke="#000" stroke-linecap="round" stroke-width="3" transform="matrix(.92346,.76254,-.76254,.92346,589.1998,-114.66352)"/>
<path d="M412.5962,240.944L468.993,287.5136" fill="none" stroke="#000" stroke-width="3.5928"/>
<g transform="matrix(.92346,.76254,-.76254,.92346,620.7162,-96.40449)">
<path d="M64.1071,320.625H80.8929A2.6786,2.6786 0 0 1 83.5714,323.3036V333.3036A2.6786,2.6786 0 0 1 80.8929,335.9821H64.1071A2.6786,2.6786 0 0 1 61.4286,333.3036V323.3036A2.6786,2.6786 0 0 1 64.1071,320.625z" fill="#fff" stroke="#000" stroke-linecap="round" stroke-width="3"/>
<path d="M91.25,320.625H108.0357A2.6786,2.6786 0 0 1 110.7143,323.3036V333.3036A2.6786,2.6786 0 0 1 108.0357,335.9821H91.25A2.6786,2.6786 0 0 1 88.5714,333.3036V323.3036A2.6786,2.6786 0 0 1 91.25,320.625z" fill="#fff" stroke="#000" stroke-linecap="round" stroke-width="3"/>
</g>
<path d="M427.7988,218.5157C429.3288,222.474 431.2016,226.38 432.9942,230.2913C434.9796,234.4035 435.6447,234.8347 441.7943,238.0667C442.2083,238.2843 442.0086,237.3301 442.0511,236.9381C442.1107,236.3885 442.0834,235.8141 442.0996,235.2521C442.1521,231.2785 441.9383,227.2343 442.1255,223.2938C442.1146,223.985 442.2867,221.3603 442.5057,221.9071C442.596,222.1324 442.8465,222.7391 442.6347,222.5894C440.504,221.0832 438.6354,219.2107 436.5224,217.6775C436.1085,217.3772 437.1635,218.4606 437.484,218.8522C440.0814,222.6346 442.4851,226.5051 444.9032,230.3648C445.8966,232.0604 447.0259,233.716 447.9276,235.4436C447.9475,235.5067 447.9272,235.5939 447.9875,235.6328C456.7989,241.3251 455.59,241.7882 453.6495,236.7843C452.9777,235.0519 452.7874,234.4322 452.1819,232.6591C451.2156,229.7014 450.3801,226.7342 449.7986,223.771C449.4619,220.4423 452.5002,224.2702 442.9406,217.8827C442.7129,217.7306 443.2135,218.339 443.3293,218.573C443.5368,218.9922 443.7161,219.4179 443.9094,219.8403C446.0612,224.0352 447.6329,228.3449 449.2806,232.6311C449.968,234.4885 450.6423,236.3471 451.1781,238.217C451.4541,238.1682 451.19,239.1254 451.3181,239.0256C451.3886,238.9707 451.3549,238.7273 451.4478,238.7917C458.3674,243.5894 459.1553,246.356 457.9476,242.9646C456.677,238.5326 456.3273,234.1386 456.0219,229.7904C456.1034,227.0606 455.2722,223.2118 456.6546,220.9461C456.7141,220.9686 456.797,220.9605 456.8329,221.0135C458.2072,223.0441 452.8451,217.9452 450.7551,216.5659C450.2943,216.2618 451.3758,217.4555 451.653,217.9139C452.5429,219.3856 453.0378,220.4738 453.8061,222.0183C456.3829,227.4213 458.906,232.834 461.1822,238.2985C462.1277,240.871 463.0248,243.4692 463.6409,246.0626C464.5197,249.9747 463.1726,248.4197 471.1567,252.6823C471.5419,252.8879 470.9753,251.9072 470.8846,251.5196C469.7555,245.6303 468.9102,239.7602 467.9902,233.8865C467.6468,231.6646 467.3973,229.4514 467.1742,227.2435C467.0799,226.3098 466.9871,225.4268 467.1302,224.5535C467.1737,224.5021 467.219,224.3274 467.2609,224.3993C467.3737,224.5929 467.5877,225.1422 467.3966,225.0107C465.3134,223.5759 463.5383,221.661 461.3856,220.3529C460.7789,219.9843 462.2012,221.4923 462.5713,222.0786C463.7552,223.9539 464.4405,225.3247 465.4913,227.2827C468.3842,232.6789 470.5029,238.2421 472.2267,243.8261C473.0494,246.5274 473.2581,249.1955 473.4218,251.8406C473.4346,254.3072 473.5688,256.7994 473.5752,259.2649C473.6017,260.563 473.651,261.8758 473.5236,263.1359C473.2587,264.1195 473.0419,265.1191 472.9194,266.1578C472.8913,266.273 472.8631,266.3882 472.8349,266.5033L479.874,272.0055C479.915,271.8624 479.956,271.7194 479.9971,271.5763C480.1089,270.5373 480.2527,269.5153 480.6044,268.5696C480.8024,267.2903 480.6675,265.8995 480.6096,264.5563C480.5802,262.072 480.4359,259.5634 480.458,257.0902C480.2971,254.3776 480.1504,251.6357 479.2631,248.8642C477.4249,243.2201 475.2551,237.5935 472.4504,232.1044C471.3295,229.9135 470.9144,229.0352 469.7279,226.9505C469.3985,226.3717 469.1954,225.7091 468.6992,225.2284C466.3109,222.9149 463.7991,220.703 461.169,218.6592C460.5455,218.1748 460.2398,218.8788 460.0802,219.1189C459.9237,220.0909 460.0393,221.0389 460.1824,222.0838C460.4933,224.3542 460.8234,226.6278 461.2043,228.9047C462.1859,234.7259 463.011,240.5313 463.7724,246.3315C463.832,246.6865 463.6481,247.1263 463.9513,247.3963C472.4432,254.9633 471.7728,255.2365 470.7953,251.2587C470.2015,248.5827 469.1733,245.9032 468.2162,243.2492C465.8599,237.7855 463.3064,232.3636 460.8385,226.9234C460.2271,225.6079 459.5733,224.1388 458.8679,222.8347C458.6243,222.3844 458.4653,221.8714 458.0794,221.503C455.7289,219.2589 453.2665,217.1174 450.7357,215.0707C450.3904,214.7915 449.868,215.2503 449.7105,215.3524C448.4181,218.0389 449.2436,221.6233 449.2213,224.7233C449.5163,229.0532 449.7575,233.4013 450.7611,237.8112C450.8373,238.1042 450.7457,238.4623 450.9897,238.6901C452.1698,239.792 459.2301,247.9073 458.4187,243.4044C457.7611,241.4763 457.1587,239.5422 456.3475,237.6278C454.622,233.3764 453.1258,229.0797 451.0811,224.886C450.9189,224.4743 450.7547,224.063 450.5945,223.651C450.4978,223.4021 450.5283,223.0897 450.3105,222.9035C447.1508,220.2041 442.3226,214.1933 442.6569,218.5583C443.2669,221.5911 444.2254,224.6278 445.1745,227.6543C445.8196,229.6447 446.4973,231.6282 447.2472,233.6084C447.4118,234.0429 447.3895,234.5796 447.7655,234.9083C450.1667,237.0078 452.8288,238.7867 455.3709,240.7115C455.4226,240.7507 455.284,240.6158 455.2405,240.568C454.5171,238.7453 453.0069,237.0233 452.0801,235.2551C449.6073,231.4212 447.153,227.5787 444.7553,223.7142C442.1925,220.1789 443.1757,221.3382 436.4893,216.1777C436.2391,215.9846 435.8932,216.0847 435.639,216.1566C435.0405,216.3259 435.3055,217.6234 435.1334,218.005C435.0828,221.9855 435.3947,226.0514 435.1626,229.9918C435.1284,230.508 435.0979,231.0252 435.0602,231.5403C435.0428,231.7771 434.789,232.056 434.9975,232.2475C437.154,234.2284 439.5699,235.9147 441.84,237.7682C442.0017,237.9003 441.4567,237.5734 441.3254,237.4141C440.7887,236.7633 440.6887,235.9019 440.1199,235.27C438.2726,231.4372 436.3796,227.5765 435.0051,223.6619L427.7988,218.5157z" stroke="#000" stroke-linecap="round" stroke-width="2.1251"/>
<path d="M114,378A33,4 0 1 1 48,378A33,4 0 1 1 114,378z" stroke="#000" stroke-linecap="round" transform="matrix(1.40412,0,0,1.40412,325.77831,-166.8899)"/>
<text font-family="Bitstream Vera Sans" font-size="20" x="303" y="314">
   <tspan x="303" y="314">*boing*</tspan>
  </text>
<path d="M401.5,316.5L394,338" fill="none" stroke="#000"/>
<path d="M412.5,322L404.5,342" fill="none" stroke="#000"/>
<path d="M421,325L413.5,348" fill="none" stroke="#000"/>
<text font-family="Bitstream Vera Sans" font-size="20" x="386" y="209">
   <tspan x="386" y="209">*BIM*</tspan>
  </text>
<g transform="translate(513.9286,-14.5)">
<path d="M111.0714,185H156.0714A7.5,7.5 0 0 1 163.5714,192.5V237.5A7.5,7.5 0 0 1 156.0714,245H111.0714A7.5,7.5 0 0 1 103.5714,237.5V192.5A7.5,7.5 0 0 1 111.0714,185z" fill="#fff" stroke="#000" stroke-linecap="round" stroke-linejoin="round" stroke-width="3"/>
<text font-family="Bitstream Vera Sans" font-size="57.534" x="117.7677" y="233.9032">
    <tspan font-family="Liberation Mono" x="117.7677" y="233.9032">?</tspan>
   </text>
<path d="M156.1387,190.3377H157.7808V192.1623H156.1387z" stroke="#000" stroke-linecap="round" stroke-width="1.5326"/>
<path d="M108.8218,190.3377H110.4639V192.1623H108.8218z" stroke="#000" stroke-linecap="round" stroke-width="1.5326"/>
<path d="M156.4301,237.9658H158.0722V239.7904H156.4301z" stroke="#000" stroke-linecap="round" stroke-width="1.5326"/>
<path d="M109.1132,237.9658H110.7553V239.7904H109.1132z" stroke="#000" stroke-linecap="round" stroke-width="1.5326"/>
</g>
<path d="M114,378A33,4 0 1 1 48,378A33,4 0 1 1 114,378z" stroke="#000" stroke-linecap="round" transform="matrix(1.1976,0,0,1.1976,544.99447,-84.19246)"/>
<g transform="matrix(.60504,.67083,-.67083,.60504,461.39604,-304.50437)">
<path d="m138.2143,328.2143c0,21.8941-14.071,39.6429-31.4286,39.6429-17.3575,0-31.4286,-17.7487-31.4286,-39.6429 0,-21.8941 14.0711,-39.6429 31.4286,-39.6429 17.3575,0 31.4286,17.7487 31.4286,39.6429z" fill="#fff" stroke="#000" stroke-linecap="round" stroke-width="3" transform="matrix(.92346,.76254,-.76254,.92346,804.89554,-55.32708)"/>
<path d="M628.2919,300.2804L684.6887,346.85" fill="none" stroke="#000" stroke-width="3.5928"/>
<g transform="matrix(.92346,.76254,-.76254,.92346,836.41194,-37.06806)">
<path d="M64.1071,320.625H80.8929A2.6786,2.6786 0 0 1 83.5714,323.3036V333.3036A2.6786,2.6786 0 0 1 80.8929,335.9821H64.1071A2.6786,2.6786 0 0 1 61.4286,333.3036V323.3036A2.6786,2.6786 0 0 1 64.1071,320.625z" fill="#fff" stroke="#000" stroke-linecap="round" stroke-width="3"/>
<path d="M91.25,320.625H108.0357A2.6786,2.6786 0 0 1 110.7143,323.3036V333.3036A2.6786,2.6786 0 0 1 108.0357,335.9821H91.25A2.6786,2.6786 0 0 1 88.5714,333.3036V323.3036A2.6786,2.6786 0 0 1 91.25,320.625z" fill="#fff" stroke="#000" stroke-linecap="round" stroke-width="3"/>
</g>
<g transform="matrix(-1,0,0,-1,1067.0377,638.92609)">
<path d="M421.0079,277.0631L420.6343,278.2591L437.2333,291.9658L438.3408,291.3757L421.0079,277.0631z" fill-rule="evenodd"/>
<path d="M421.411,277.7547C413.2404,296.1214 416.6248,302.6253 437.5715,291.0992" fill-rule="evenodd" stroke="#000" stroke-width="1.1976"/>
</g>
<path d="M712.1819,-145.2503H718.0629V-137.8723H712.1819z" fill="#fff" stroke="#000" stroke-linecap="round" stroke-width="1.1976" transform="rotate(39.548)"/>
<path d="M718.1164,-145.2503H723.9975V-137.8723H718.1164z" fill="#fff" stroke="#000" stroke-linecap="round" stroke-width="1.1976" transform="rotate(39.548)"/>
<path d="M643.4946,277.8521C645.0245,281.8105 646.8974,285.7165 648.69,289.6278C650.6753,293.7399 651.3405,294.1711 657.49,297.4032C657.904,297.6207 657.7043,296.6665 657.7468,296.2746C657.8065,295.7249 657.7791,295.1506 657.7953,294.5886C657.8478,290.615 657.6341,286.5707 657.8213,282.6302C657.8103,283.3214 657.9825,280.6967 658.2015,281.2435C658.2917,281.4688 658.5422,282.0756 658.3304,281.9258C656.1997,280.4197 654.3311,278.5472 652.2181,277.014C651.8042,276.7136 652.8592,277.7971 653.1798,278.1886C655.7771,281.971 658.1808,285.8415 660.599,289.7012C661.5924,291.3969 662.7216,293.0525 663.6233,294.78C663.6433,294.8431 663.6229,294.9303 663.6832,294.9693C672.4947,300.6615 671.2858,301.1247 669.3453,296.1208C668.6735,294.3883 668.4832,293.7686 667.8777,291.9955C666.9114,289.0378 666.0758,286.0707 665.4943,283.1074C665.1576,279.7787 668.1959,283.6067 658.6363,277.2192C658.4086,277.067 658.9092,277.6754 659.0251,277.9095C659.2325,278.3286 659.4118,278.7543 659.6052,279.1768C661.7569,283.3716 663.3286,287.6813 664.9764,291.9675C665.6637,293.8249 666.338,295.6835 666.8738,297.5535C667.1498,297.5047 666.8858,298.4619 667.0138,298.3621C667.0843,298.3071 667.0506,298.0637 667.1436,298.1282C674.0631,302.9258 674.8511,305.6924 673.6433,302.301C672.3727,297.8691 672.023,293.475 671.7177,289.1268C671.7991,286.397 670.968,282.5482 672.3504,280.2825C672.4098,280.305 672.4928,280.297 672.5286,280.35C673.9029,282.3806 668.5409,277.2816 666.4508,275.9023C665.99,275.5983 667.0716,276.7919 667.3488,277.2504C668.2386,278.722 668.7336,279.8102 669.5018,281.3548C672.0786,286.7577 674.6017,292.1704 676.8779,297.6349C677.8234,300.2075 678.7205,302.8057 679.3367,305.3991C680.2155,309.3111 678.8684,307.7562 686.8524,312.0187C687.2376,312.2244 686.671,311.2436 686.5803,310.856C685.4513,304.9667 684.6059,299.0966 683.686,293.223C683.3425,291.0011 683.0931,288.7878 682.87,286.5799C682.7756,285.6462 682.6829,284.7632 682.8259,283.8899C682.8695,283.8385 682.9148,283.6639 682.9566,283.7357C683.0695,283.9294 683.2834,284.4787 683.0923,284.3471C681.0091,282.9124 679.2341,280.9975 677.0813,279.6894C676.4746,279.3207 677.897,280.8288 678.2671,281.4151C679.451,283.2904 680.1363,284.6612 681.187,286.6191C684.08,292.0154 686.1986,297.5785 687.9225,303.1626C688.7451,305.8638 688.9538,308.5319 689.1175,311.177C689.1303,313.6436 689.2646,316.1359 689.2709,318.6014C689.2975,319.8994 689.3468,321.2123 689.2194,322.4723C688.9544,323.456 688.7376,324.4555 688.6152,325.4943C688.587,325.6094 688.5588,325.7246 688.5307,325.8398L695.5697,331.3419C695.6107,331.1989 695.6518,331.0558 695.6928,330.9128C695.8047,329.8737 695.9484,328.8517 696.3001,327.9061C696.4982,326.6267 696.3632,325.236 696.3054,323.8928C696.2759,321.4084 696.1316,318.8999 696.1537,316.4266C695.9928,313.714 695.8461,310.9721 694.9588,308.2006C693.1206,302.5566 690.9508,296.9299 688.1461,291.4409C687.0253,289.2499 686.6101,288.3716 685.4237,286.2869C685.0943,285.7081 684.8911,285.0455 684.3949,284.5649C682.0067,282.2513 679.4948,280.0394 676.8647,277.9957C676.2413,277.5112 675.9356,278.2152 675.7759,278.4553C675.6194,279.4273 675.735,280.3753 675.8781,281.4203C676.189,283.6907 676.5191,285.9642 676.9,288.2411C677.8816,294.0623 678.7067,299.8677 679.4681,305.668C679.5277,306.0229 679.3439,306.4627 679.647,306.7328C688.1389,314.2997 687.4685,314.5729 686.491,310.5951C685.8973,307.9191 684.8691,305.2396 683.912,302.5856C681.5557,297.1219 679.0022,291.7001 676.5342,286.2599C675.9228,284.9444 675.269,283.4752 674.5636,282.1711C674.32,281.7208 674.1611,281.2079 673.7751,280.8394C671.4247,278.5954 668.9623,276.4539 666.4314,274.4072C666.0861,274.128 665.5637,274.5867 665.4062,274.6889C664.1138,277.3754 664.9394,280.9597 664.917,284.0597C665.212,288.3897 665.4532,292.7377 666.4568,297.1477C666.533,297.4406 666.4414,297.7987 666.6854,298.0265C667.8655,299.1284 674.9258,307.2438 674.1145,302.7409C673.4569,300.8128 672.8545,298.8787 672.0432,296.9642C670.3177,292.7128 668.8216,288.4161 666.7769,284.2225C666.6147,283.8108 666.4504,283.3994 666.2902,282.9874C666.1935,282.7385 666.2241,282.4261 666.0062,282.24C662.8466,279.5406 658.0184,273.5297 658.3527,277.8947C658.9627,280.9275 659.9212,283.9643 660.8702,286.9908C661.5154,288.9812 662.193,290.9646 662.943,292.9449C663.1075,293.3793 663.0852,293.916 663.4613,294.2448C665.8624,296.3442 668.5245,298.1232 671.0666,300.0479C671.1184,300.0871 670.9797,299.9523 670.9362,299.9045C670.2128,298.0817 668.7027,296.3597 667.7758,294.5915C665.303,290.7577 662.8487,286.9151 660.4511,283.0506C657.8882,279.5153 658.8714,280.6746 652.185,275.5142C651.9349,275.3211 651.5889,275.4211 651.3347,275.4931C650.7363,275.6624 651.0013,276.9599 650.8292,277.3414C650.7785,281.322 651.0904,285.3879 650.8583,289.3282C650.8242,289.8444 650.7936,290.3616 650.7559,290.8768C650.7386,291.1136 650.4848,291.3924 650.6932,291.5839C652.8497,293.5648 655.2656,295.2511 657.5358,297.1047C657.6975,297.2367 657.1524,296.9098 657.0211,296.7506C656.4845,296.0998 656.3845,295.2384 655.8157,294.6064C653.9683,290.7736 652.0754,286.9129 650.7009,282.9984L643.4946,277.8521z" stroke="#000" stroke-linecap="round" stroke-width="2.1251"/>
<path d="M639.5317,340.5864L640.0982,342.3556L643.0413,341.6368L642.6254,340.5864L639.5317,340.5864z" fill="#fff"/>
<path d="M650.316,347.7175L649.8356,351.0491L651.6537,350.9085L651.7847,347.9206L650.316,347.7175z" fill="#fff"/>
</g>
<path d="M682.0045,331.5596L682.0045,375.4002" fill="none" stroke="#000" stroke-dasharray="12,2" stroke-width="2"/>
<path d="M714.885,378.9358C712.2816,379.5847 700.7896,391.5214 689.6059,386.0068C679.9079,381.2248 665.8595,381.862 664.3268,378.9358C662.9317,376.2721 672.6658,373.5682 689.6059,371.8647C703.2819,370.4894 714.8409,375.253 714.885,378.9358z" stroke="#000" stroke-linecap="round" stroke-width="2"/>
<path d="M697.9144,252.894C726.8873,285.4218 697.4265,296.0397 657.5209,288.0725C635.7002,283.716 621.0706,271.9477 617.1275,252.894C611.749,226.9048 628.6763,199.1856 657.5209,217.7154C673.3536,227.8863 677.8302,243.0172 697.9144,252.894z" stroke="#000" stroke-linecap="round" stroke-width="2" transform="matrix(.2098,0,0,.2208,487.22282,167.09117)"/>
<path d="M625.5,229.5L625.5,252" fill="none" stroke="#000" stroke-dasharray="12,2" stroke-width="2"/>
<text font-family="Bitstream Vera Sans" font-size="20" x="723" y="230">
   <tspan x="723" y="230">Hmm...</tspan>
  </text>
<path d="M752,245L766,283" fill="none" stroke="#000"/>
<g transform="matrix(.70419,.71001,-.71001,.70419,598.46755,-19.98294)">
<path d="M84.9387,335.1417L85.4122,336.3018L106.9389,336.3018L107.4171,335.1417L84.9387,335.1417z" fill-rule="evenodd"/>
<path d="M85.6899,335.4183C91.0843,354.7832 97.8352,357.6433 106.6479,335.4183" fill-rule="evenodd" stroke="#000" stroke-width="1.1976"/>
<path d="M91.9706,335.9035H97.8517V343.2816H91.9706z" fill="#fff" stroke="#000" stroke-linecap="round" stroke-width="1.1976"/>
<path d="M97.9051,335.9035H103.7862V343.2816H97.9051z" fill="#fff" stroke="#000" stroke-linecap="round" stroke-width="1.1976"/>
</g>
<path d="M168.3522,360.0951H229.4586V367.8461H168.3522z" stroke="#000" stroke-linecap="round" stroke-width="1.8437"/>
<path d="M450.5047,362.0503H511.611V369.8013H450.5047z" stroke="#000" stroke-linecap="round" stroke-width="1.8437"/>
</svg>
