<svg version="1.0" viewBox="0 0 900 450" xmlns="http://www.w3.org/2000/svg" xmlns:svg="http://www.w3.org/2000/svg">
<path d="M49.1916,84.3393H830.1935A31.621,31.621 0 0 1 861.8146,115.9603V364.3091A31.621,31.621 0 0 1 830.1935,395.9302H49.1916A31.621,31.621 0 0 1 17.5706,364.3091V115.9603A31.621,31.621 0 0 1 49.1916,84.3393z" fill="#fff" stroke="#000" stroke-linecap="round" stroke-width="7.4907"/>
<path d="M584.8122,81.0247L584.8122,394.9151" fill="none" stroke="#000" stroke-width="5.6784"/>
<path d="M297.1021,81.1761L297.1021,394.1983" fill="none" stroke="#000" stroke-width="5.6706"/>
<g transform="matrix(.12574,0,0,.12574,819.53745,423.4751)">
<path d="M162.9615,-66.1029C166.455,-62.0454 171.1969,-61.5587 176.2443,-61.2734C182.6298,-61.4455 189.026,-62.9739 194.9925,-65.2443C198.1805,-66.4574 199.9424,-67.4904 202.9171,-69.0527C185.1139,-58.637 195.0252,-64.2154 198.3536,-67.7512C200.078,-69.5831 201.1079,-71.5131 202.0803,-73.8002C204.6069,-80.9176 204.9343,-88.5711 205.3652,-96.044C206.205,-106.9224 203.9531,-117.6028 201.5284,-128.1342C198.5789,-139.2121 194.5731,-149.9773 190.1613,-160.547C188.0488,-165.5407 185.6597,-170.4087 183.3326,-175.3036C180.1965,-181.3209 177.6309,-177.584 195.344,-184.4552C195.9544,-184.6919 196.0751,-183.3682 196.4662,-182.8431C197.1211,-181.9638 197.8094,-181.1099 198.4809,-180.2434C205.0155,-171.2763 212.8739,-163.4194 220.7492,-155.6472C225.3824,-151.1349 230.3508,-146.9467 234.7812,-142.2286C236.4627,-140.8555 237.4679,-138.92 238.8212,-137.2745C240.143,-136.0803 241.1771,-137.3375 242.3452,-138.1546C221.9421,-125.9198 229.2084,-129.8742 233.1206,-133.6257C234.6613,-135.103 236.1138,-136.6818 237.5889,-138.2234C239.6824,-140.3121 241.6662,-142.5484 243.9587,-144.4296C250.0105,-149.3955 258.4541,-153.3638 264.7123,-156.9238C270.4949,-159.4778 276.4106,-161.6997 282.419,-163.6577C283.6619,-163.9272 288.4708,-165.7766 289.5688,-164.5267C289.8243,-164.2359 289.9278,-163.8408 290.1072,-163.4978C290.1321,-163.1471 290.2293,-162.7941 290.1818,-162.4458C289.8354,-159.9037 285.8996,-156.946 284.1819,-155.3646C276.2864,-148.8374 268.6258,-142.0481 261.3333,-134.8534C254.99,-128.0483 248.4375,-121.3307 243.3873,-113.4811C240.2691,-108.5784 238.6116,-103.1651 237.8336,-97.4612C237.3182,-92.3602 237.4023,-87.2238 237.4103,-82.1038C237.6896,-76.538 238.3996,-70.961 240.0566,-65.6294C241.0066,-62.7897 242.6958,-60.7035 245.3984,-59.4565C247.1918,-58.8245 249.2452,-58.4083 251.1546,-58.7689C251.5988,-58.8529 255.3028,-60.1078 255.5991,-60.2068C259.9663,-62.5901 270.5149,-68.1635 250.7739,-57.3451C249.993,-56.9172 252.2774,-58.3004 253.0176,-58.7957C254.7175,-59.9333 255.126,-60.2677 256.721,-61.457C258.634,-62.8882 257.7277,-62.1927 259.444,-63.5378L273.1151,-69.0361C271.3827,-67.5797 272.3103,-68.3061 270.3191,-66.8738C262.2562,-60.6484 253.3247,-55.4952 244.0683,-51.2776C240.0071,-50.0654 237.0083,-49.4853 233.0532,-51.3558C230.1407,-52.9982 228.2379,-55.381 227.2136,-58.6022C225.5902,-64.0918 224.9779,-69.8068 224.4451,-75.4915C224.414,-80.6627 224.3292,-85.8471 224.7473,-91.006C225.4856,-96.9163 227.043,-102.5571 230.2219,-107.6713C230.8593,-108.7308 231.4383,-109.8277 232.1341,-110.8497C233.5635,-112.949 235.6974,-115.3519 237.3267,-117.2406C240.9264,-121.4136 244.6087,-125.5129 248.4113,-129.5027C255.5038,-136.6573 262.9793,-143.4183 270.7308,-149.8547C272.9266,-151.8936 275.199,-153.8815 277.0938,-156.2117C277.4084,-156.0458 276.3957,-156.0728 276.0435,-156.0235C274.2856,-155.7778 272.5938,-155.2318 270.901,-154.7183C264.9598,-152.7572 259.0786,-150.5816 253.4382,-147.8602C272.8794,-159.3576 261.1903,-152.8293 257.3908,-149.9058C255.0765,-148.125 253.0963,-145.926 251.0661,-143.8444C243.704,-136.0782 243.2815,-135.2558 230.8263,-128.8268C228.7851,-127.8625 227.644,-127.977 226.0472,-129.6547C224.7873,-131.3205 223.7779,-133.1781 222.2218,-134.6111C217.9797,-139.4028 213.2498,-143.7505 208.7563,-148.2998C200.956,-156.2393 193.036,-164.0853 186.0942,-172.8083C185.3483,-173.6466 184.6017,-174.4843 183.8565,-175.3233C183.4425,-175.7895 182.1438,-176.3177 182.6168,-176.7238C193.8626,-186.3779 193.2258,-188.9054 196.1308,-182.5316C198.3231,-177.537 200.6341,-172.5923 202.629,-167.5129C206.8035,-156.7535 210.6525,-145.8567 213.8046,-134.7502C216.3374,-124.1716 218.8429,-113.4256 218.1141,-102.4633C217.8266,-94.9202 217.3841,-87.2389 215.3364,-79.9427C214.6632,-78.0762 214.4306,-77.1236 213.3557,-75.4158C208.633,-67.9123 198.4469,-64.3688 191.7517,-60.1093C183.2311,-55.9217 174.1664,-52.9607 164.5762,-52.9176C163.243,-53.0245 161.8998,-53.0436 160.5765,-53.2383C156.6356,-53.8182 152.962,-55.54 150.2346,-58.4617L162.9615,-66.1029z" stroke="#000" stroke-linecap="round" stroke-linejoin="round" stroke-width="2"/>
<path d="M285.1504,-83.2549C279.2704,-81.6082 266.5253,-73.74 288.7732,-86.471C285.6873,-84.8287 283.8556,-82.1564 282.4117,-79.0736C281.5877,-76.6037 280.7082,-73.8959 280.8873,-71.2445C281.0112,-69.4099 281.4883,-68.4885 282.1122,-66.775C284.5548,-61.9495 288.3109,-57.9808 292.7681,-54.9746C296.0578,-52.6838 299.7974,-51.6413 303.7669,-51.5931C306.8299,-52.2892 309.6761,-53.4821 312.4808,-54.8725C313.6763,-55.4652 317.18,-57.4003 316.0334,-56.7177C302.8176,-48.8508 306.1278,-50.9743 310.8042,-54.1772C314.6548,-57.1431 318.8403,-60.5843 319.8322,-65.6282C319.9707,-66.3328 319.9608,-67.0585 320.0251,-67.7736C319.7705,-74.0822 315.7842,-79.021 311.938,-83.6853C309.5135,-86.3835 306.7679,-88.9566 303.4532,-90.5325C301.7709,-91.3322 300.9086,-91.4744 299.127,-91.9474C295.533,-92.1428 291.7665,-91.8011 288.3544,-90.5627C286.7769,-89.9902 284.386,-88.6593 282.9199,-87.8841C302.9062,-99.8746 289.8107,-91.9587 285.6886,-88.3736L272.0851,-82.8087C278.4156,-88.898 286.8685,-92.4857 294.2269,-96.9393C296.3627,-97.9778 297.6236,-98.6956 299.9061,-99.3886C303.5386,-100.4916 307.4494,-100.7491 311.1907,-100.1978C313.1147,-99.5839 313.8945,-99.429 315.7014,-98.4661C319.0659,-96.6731 321.8405,-93.9498 324.3224,-91.1058C328.3687,-86.1242 332.4762,-80.9616 333.0924,-74.3305C333.0628,-73.5258 333.1121,-72.7144 333.0035,-71.9165C332.2653,-66.4892 328.2283,-62.6312 324.1231,-59.4248C316.1605,-53.7094 320.2406,-56.4756 304.8488,-47.7573C300.8383,-45.4856 296.4513,-43.5622 291.8451,-43.0245C287.6957,-43.3915 283.8349,-44.6143 280.4546,-47.1325C275.8828,-50.4672 272.0386,-54.677 269.3612,-59.693C268.7366,-61.3275 268.0271,-62.8838 267.8135,-64.6468C267.4791,-67.4079 268.3981,-70.3095 269.0633,-72.941C270.3422,-76.1902 271.9653,-79.2701 275.0209,-81.1777C282.2031,-85.3118 288.9239,-90.0555 296.9357,-92.2666L285.1504,-83.2549z" stroke="#000" stroke-linecap="round" stroke-linejoin="round" stroke-width="2"/>
<path d="M347.1504,-77.2549C344.6035,-76.4403 341.9575,-75.7416 339.5363,-74.5814C338.7232,-74.1918 337.9599,-73.7059 337.1716,-73.2681C340.5173,-75.1416 343.863,-77.0152 347.2087,-78.8887C343.2371,-76.2087 340.2901,-73.5303 338.5132,-69.0387C337.3505,-65.3388 337.9081,-62.2103 340.8379,-59.4732C341.5453,-58.8124 342.3768,-58.2984 343.1462,-57.711C348.7467,-54.4938 355.3758,-53.3418 361.7904,-54.0225C363.6291,-54.2176 365.4327,-54.663 367.2538,-54.9833C371.4683,-56.0713 373.305,-56.374 377.2631,-58.0355C378.5761,-58.5866 382.3128,-60.6635 381.0902,-59.9334C363.2909,-49.3046 371.3475,-53.9354 374.1428,-56.7651C374.7627,-57.3926 375.255,-58.1344 375.8111,-58.8191C378.2486,-62.6326 378.3111,-66.0246 376.5942,-70.0879C376.279,-70.8016 374.4627,-74.5447 373.1819,-73.7346C372.9601,-73.5943 372.8477,-73.33 372.6807,-73.1277C392.8977,-84.6564 385.2006,-82.7287 383.2398,-77.11C382.3936,-74.6854 382.2459,-72.3278 382.1295,-69.7816C383.5341,-57.9615 388.7559,-47.0167 393.0457,-36.0346C398.2618,-21.5258 403.2897,-6.47 403.8684,9.092C403.9836,12.189 403.6821,15.2876 403.5889,18.3853C403.1263,21.364 402.8671,24.3813 402.2011,27.3212C400.0287,36.9109 395.0849,45.6892 387.7437,52.2682C386.4496,53.4279 384.9846,54.3816 383.6051,55.4383C378.0848,58.3221 372.8336,61.7934 367.0443,64.0899C364.6445,65.0418 358.8518,63.0561 356.9529,62.2095C349.8949,59.0631 343.7992,53.895 337.8032,49.1621C327.688,40.5031 317.7846,31.4711 308.7355,21.6837C304.0475,16.6133 302.8886,14.9067 298.8166,9.6614C295.3512,3.8792 291.2661,-2.8245 294.6732,-9.6402C296.6895,-13.6737 299.1232,-15.1372 302.5004,-18.074C312.6219,-24.6327 313.4505,-25.3796 328.104,-32.7999C331.6804,-34.6109 343.2136,-38.7065 346.7432,-39.9379C353.7819,-42.3937 361.3514,-44.8267 368.4293,-47.1393C387.0233,-52.5028 405.2349,-59.0355 423.2344,-66.1176C424.7623,-66.7671 426.2923,-67.4118 427.8181,-68.0661C428.9838,-68.566 430.1581,-69.0469 431.3089,-69.5801C433.6612,-70.67 435.8588,-72.019 438.2856,-72.9431C441.5765,-73.4124 442.7308,-69.4505 443.7159,-67.0436C445.9847,-60.9159 447.263,-54.4902 447.8147,-47.9941C447.9509,-45.0837 448.0453,-42.1595 447.6331,-39.2662C447.5909,-38.9704 447.7439,-38.5103 447.473,-38.3842C443.0642,-36.3309 438.4604,-34.7251 433.9541,-32.8956C433.9659,-33.7909 433.9166,-34.689 433.9896,-35.5814C434.0957,-36.8799 434.3191,-38.1662 434.4903,-39.4578C435.49,-46.9958 436.7994,-54.4336 438.3334,-61.8806C439.8884,-68.3767 441.231,-75.18 444.9433,-80.8503C449.1473,-85.2518 458.497,-93.9297 463.0497,-88.879C463.5264,-88.3501 463.8605,-87.7082 464.2658,-87.1228C465.1568,-85.5475 465.9266,-84.351 466.5095,-82.6055C468.1484,-77.6977 468.884,-71.9449 469.7517,-66.8403C470.8843,-62.4227 470.4525,-57.1322 471.7929,-52.8005C473.5655,-57.562 471.775,-52.58 459.0435,-46.5094C458.7853,-46.3863 459.4327,-46.9346 459.5772,-47.1814C459.9087,-47.7474 460.5577,-49.4088 460.8105,-49.919C461.1553,-50.6152 461.549,-51.286 461.9182,-51.9694C464.3127,-55.807 466.3395,-59.8622 468.9779,-63.5425C473.3892,-69.0698 477.5158,-70.2762 485.1519,-74.4725C485.4138,-74.6164 485.7664,-74.5326 486.0475,-74.431C486.4054,-74.3016 486.6836,-74.0129 487.0016,-73.8039C489.988,-70.6628 491.0279,-66.2182 492.0362,-62.1278C492.9125,-57.6742 493.3814,-53.131 495.0104,-48.8712C495.4071,-48.3128 495.7311,-47.6948 496.2004,-47.1959C499.6185,-43.5623 505.2722,-40.8461 509.9343,-39.3687C511.6885,-38.8128 513.4959,-38.4411 515.2767,-37.9773C522.8167,-36.0961 530.3825,-36.0026 537.8823,-38.0643C539.5423,-38.5206 541.2095,-38.9969 542.7819,-39.6981C544.2464,-40.3512 545.5581,-41.3036 546.9463,-42.1064C544.0584,-40.6163 541.3829,-38.6098 538.2826,-37.636C537.087,-37.2605 540.1428,-39.3201 540.9963,-40.2377C543.5122,-42.9425 544.9507,-45.9503 545.9633,-49.4488C546.6579,-52.3622 546.6456,-55.3557 546.5652,-58.3283C545.753,-64.4645 540.332,-58.4252 559.1,-66.0472C559.4417,-66.186 558.8994,-65.3356 558.842,-64.9712C558.7584,-64.4412 558.7327,-63.9037 558.678,-63.37C558.4116,-58.5352 558.3011,-53.6898 558.8385,-48.8729C559.3853,-45.774 559.9781,-42.6077 562.4072,-40.4324C564.1162,-39.3075 565.9299,-39.231 567.8176,-39.8486C572.3605,-42.1411 579.1794,-46.118 558.5218,-34.4558C557.7888,-34.042 559.9393,-35.3644 560.6358,-35.837L574.3857,-41.3039C573.3212,-40.43 573.5147,-40.5201 572.2923,-39.8054C567.6471,-37.0896 561.8948,-32.5533 556.0168,-30.8992C553.7225,-30.6532 551.5833,-31.1524 549.789,-32.6773C547.292,-35.2807 546.4771,-38.6003 545.9205,-42.101C545.3299,-46.9737 545.4484,-51.8684 545.5121,-56.7697C545.5317,-57.4241 545.5891,-59.6985 545.6353,-59.7292C555.3623,-66.1895 558.5071,-72.3046 559.7414,-65.0828C559.8109,-61.9585 559.8144,-58.8161 559.1617,-55.7418C555.9603,-42.9865 547.5064,-40.0804 535.8851,-33.2002C534.4562,-32.4798 533.0874,-31.625 531.5984,-31.0388C522.6477,-27.5147 512.8948,-27.7976 503.6881,-30.0046C501.849,-30.4923 499.9816,-30.8834 498.1708,-31.4678C493.5394,-32.9624 487.0263,-36.1598 483.6105,-39.7531C483.0478,-40.345 482.6426,-41.0688 482.1586,-41.7267C480.5349,-46.0707 480.067,-50.6739 479.2315,-55.2142C478.3895,-58.7321 477.5533,-63.083 474.6465,-65.525C473.9606,-65.439 474.3146,-65.5425 473.6055,-65.1501C477.5343,-67.4822 481.4631,-69.8142 485.392,-72.1463C485.7243,-72.3373 484.7836,-71.6778 484.5048,-71.4148C483.8053,-70.7548 483.2382,-69.9617 482.4827,-69.3567C479.6627,-65.8118 477.6289,-61.7908 475.2736,-57.9352C474.3882,-56.4197 473.6566,-54.9774 473.0931,-53.3151C472.9783,-52.9764 473.1056,-52.4677 472.7992,-52.2834C459.5044,-44.2868 462.4531,-41.0521 458.7423,-45.7121C457.6264,-50.4162 458.1984,-55.4103 457.1115,-60.1366C456.048,-66.7522 455.2298,-73.8382 451.6337,-79.6263C451.0084,-80.3781 450.7399,-81.067 449.7463,-81.2506C449.4773,-81.3003 448.6972,-81.0264 448.9293,-81.1714C452.7843,-83.5799 456.7874,-85.7435 460.684,-88.0841C461.0341,-88.2944 459.9199,-87.7826 459.574,-87.5654C459.1661,-87.3094 458.8163,-86.9709 458.4374,-86.6736C454.0539,-81.4464 452.7319,-74.3891 450.9594,-67.9864C448.9624,-58.7542 447.2481,-49.392 446.9663,-39.9303C442.6611,-37.2917 438.4431,-34.5055 434.0509,-32.0145C433.809,-31.8773 434.2913,-32.5188 434.3689,-32.7859C435.1731,-35.5526 434.9442,-38.4808 434.9437,-41.3192C434.5725,-47.6693 433.3852,-53.9844 430.9595,-59.8902C430.4967,-60.9584 429.6461,-64.0551 428.0273,-64.1645C427.6519,-64.1899 426.9629,-63.8928 426.664,-63.7855C421.876,-61.6536 417.2258,-59.2069 412.2498,-57.5029C394.41,-50.7931 376.4177,-44.5046 358.1221,-39.1385C347.5024,-35.6251 336.8084,-32.2298 326.4071,-28.0958C323.4132,-26.9058 320.6723,-24.9485 317.5147,-24.3088C315.893,-23.9803 323.0914,-27.8472 321.6038,-27.1227C319.4346,-26.0663 317.5039,-24.5777 315.454,-23.3052C311.6254,-20.2317 306.9304,-17.0518 306.0231,-11.7537C305.1302,-6.539 308.4514,-1.7173 310.6976,2.6064C312.0867,4.5044 313.4087,6.4534 314.865,8.3002C324.8107,20.9133 336.9125,31.7349 349.2333,41.9507C355.2776,46.4639 361.4425,51.5105 368.5887,54.2474C370.2378,54.879 371.9681,55.3572 373.7232,55.5527C375.2204,55.7194 379.0476,54.0524 378.2367,55.3221C376.5481,57.9662 373.0607,58.8689 370.4727,60.6424C371.9211,59.6313 373.4539,58.7314 374.818,57.609C382.3953,51.3747 387.7065,42.7683 390.0706,33.2575C390.7888,30.3679 391.0696,27.3869 391.5691,24.4516C391.713,21.3964 392.0786,18.3436 392.0007,15.286C391.6074,-.1509 386.3714,-15.0473 381.0958,-29.3649C376.6203,-40.4339 371.1739,-51.3452 369.2251,-63.2235C369.1596,-66.0352 369.2286,-68.1755 369.9092,-70.8957C369.9473,-71.0478 370.7023,-73.7558 371.0384,-73.9872C375.3553,-76.9602 379.9527,-79.5037 384.4099,-82.2619C384.7489,-82.2349 385.0988,-82.2704 385.4268,-82.1807C387.5325,-81.605 388.5419,-78.9921 389.422,-77.2845C391.2962,-72.8589 391.5534,-68.921 389.1687,-64.5737C388.6277,-63.7989 388.1602,-62.9673 387.5458,-62.2493C383.155,-57.1183 374.373,-53.5169 369.904,-51.0303C365.6297,-48.6519 360.7122,-47.6351 356.0106,-46.5342C354.1284,-46.2519 352.2609,-45.8421 350.3638,-45.6872C343.5879,-45.1342 336.6659,-46.3505 330.8819,-49.9878C330.0515,-50.6505 329.1568,-51.2399 328.3906,-51.9759C325.1513,-55.0883 324.1401,-58.5232 325.2119,-62.8203C326.8277,-67.9581 329.3611,-70.4448 333.6797,-73.6076C342.0135,-78.5311 349.5479,-83.9618 358.9357,-86.2666L347.1504,-77.2549z" stroke="#000" stroke-linecap="round" stroke-linejoin="round" stroke-width="2"/>
<path d="M549.2332,-122.1847C547.4497,-120.0919 546.0244,-117.6969 545.3462,-115.0219C544.8607,-112.3468 546.4564,-111.6609 548.6501,-110.701C552.1989,-109.4013 555.2322,-109.544 558.8667,-110.1867C563.727,-111.8529 571.4457,-116.6009 549.8419,-104.683C549.5386,-104.5156 550.4174,-105.0731 550.6735,-105.3066C551.283,-105.8622 551.3443,-106.0922 551.7431,-106.7885C552.4769,-108.4348 552.405,-109.9757 551.4599,-111.492C550.2026,-112.6833 548.3125,-112.5716 546.6902,-112.6506C545.0147,-112.4957 543.4191,-112.0801 542.057,-111.0753L553.6269,-120.3929C555.2743,-121.0166 556.9597,-121.4107 558.7396,-121.2691C560.8571,-121.0599 562.9403,-120.7594 564.3134,-118.9498C565.4318,-117.0683 565.8738,-115.1231 565.2275,-112.9755C562.8838,-105.9037 553.9818,-103.0447 547.0943,-101.3611C543.4244,-100.8997 539.7964,-101.101 536.3461,-102.5755C533.866,-103.8553 531.6424,-105.4567 532.0181,-108.5614C532.4759,-111.4436 533.8818,-114.0254 535.5706,-116.3799L549.2332,-122.1847z" stroke="#000" stroke-linecap="round" stroke-linejoin="round" stroke-width="2"/>
<path d="M359.6057,-86.1453C362.4187,-87.5125 365.103,-89.129 368.0047,-90.3079C369.8229,-91.4887 371.8175,-92.0343 373.9447,-92.2669C375.9013,-92.4156 377.8658,-92.3906 379.8266,-92.3838C381.7726,-92.5908 383.4211,-92.0588 385.1306,-91.2244C386.3272,-90.2653 387.2717,-88.9911 388.1806,-87.7589C388.971,-86.3232 389.4355,-84.7124 389.9217,-83.1481C390.3578,-81.5453 390.9514,-80.0138 391.2655,-78.376C391.5681,-76.4533 391.5887,-74.5022 391.6123,-72.5605C391.6209,-71.5593 391.6196,-70.5581 391.6191,-69.5568L378.4016,-62.8239C378.4031,-63.8201 378.4051,-64.8163 378.4006,-65.8125C378.3869,-67.6761 378.3836,-69.5468 378.1492,-71.3987C377.8884,-72.9952 377.3044,-74.4635 376.8794,-76.0128C376.4669,-77.4199 376.0218,-78.8533 375.3829,-80.165C374.6051,-81.185 373.8481,-82.3496 372.73,-83.0103C371.1597,-83.6924 369.5221,-83.7365 367.825,-83.6633C365.9059,-83.6547 363.9742,-83.6641 362.0745,-83.3541C360.0654,-82.9292 358.2552,-82.0648 356.4262,-81.1471C353.5803,-79.8236 350.8275,-78.3064 348.069,-76.8116L359.6057,-86.1453z" stroke="#000" stroke-linecap="round" stroke-linejoin="round" stroke-width="2"/>
</g>
<path d="M59.1188,49.0329H245.997A15.9099,15.9099 0 0 1 261.9069,64.9428V64.9428A15.9099,15.9099 0 0 1 245.997,80.8527H59.1188A15.9099,15.9099 0 0 1 43.2089,64.9428V64.9428A15.9099,15.9099 0 0 1 59.1188,49.0329z" fill="#fff" stroke="#000" stroke-linecap="round" stroke-linejoin="round" stroke-width="4"/>
<path d="M101.5203,44.9288A36.8706,34.8503 0 1 1 27.7792,44.9288A36.8706,34.8503 0 1 1 101.5203,44.9288z" stroke="#000" stroke-linecap="round" stroke-linejoin="round" stroke-width="7.491" transform="matrix(.7121,0,0,.7121,-2.07745,26.65581)"/>
<text font-family="Bitstream Vera Sans" font-size="40" x="19.5718" y="72.6903">
   <tspan fill="#f9f9f9" x="19.5718" y="72.6903">57</tspan>
  </text>
<text font-family="Bitstream Vera Sans" font-size="20" x="117.4821" y="71.7099">
   <tspan x="117.4821" y="71.7099">Matrix</tspan>
  </text>
<text font-family="Bitstream Vera Sans" font-size="20" x="159.6911" y="140.2298">
   <tspan text-align="center" text-anchor="middle" x="159.6911" y="140.2298"></tspan>
  </text>
<path d="M189.6689,242.5792L189.6689,290.4677C189.6689,310.4747 173.5621,326.5814 153.5551,326.5814L118.1211,326.5814C98.1141,326.5814 82.0074,310.4747 82.0074,290.4677L82.0074,242.5792" fill="#fff" stroke="#000" stroke-linecap="round" stroke-linejoin="round" stroke-width="3.6422"/>
<path d="M152.4464,262.3907H172.8592A2.3409,2.3409 0 0 1 175.2001,264.7315V271.6365A2.3409,2.3409 0 0 1 172.8592,273.9773H152.4464A2.3409,2.3409 0 0 1 150.1055,271.6365V264.7315A2.3409,2.3409 0 0 1 152.4464,262.3907z" stroke="#000" stroke-linecap="square" stroke-linejoin="round" stroke-width="3.7338"/>
<path d="M84.3156,267.4453C84.8648,267.4557 85.4142,267.4521 85.9634,267.4493C86.3264,267.4472 86.6893,267.4458 87.0523,267.4451C87.3448,267.4447 87.6373,267.4447 87.9298,267.4447C88.2338,267.4441 88.5379,267.4453 88.8419,267.4459C89.2325,267.4362 89.6171,267.4455 90.0038,267.4966C90.4035,267.5511 90.8069,267.5683 91.2101,267.5793C91.6153,267.5635 92.013,267.6382 92.4141,267.6783C92.822,267.7151 93.2321,267.719 93.6415,267.7234C94.0716,267.7257 94.5018,267.7255 94.9319,267.724C95.3055,267.7233 95.6791,267.7227 96.0527,267.7218C96.3597,267.721 96.6668,267.7208 96.9738,267.7207C97.2653,267.7206 97.5568,267.7206 97.8483,267.7206C98.1398,267.7206 98.4314,267.7206 98.7229,267.7206C99.0416,267.7202 99.3603,267.7212 99.679,267.7226C100.0732,267.7249 100.4675,267.723 100.8618,267.7219C101.2327,267.7217 101.6035,267.7224 101.9744,267.7234C102.3712,267.7233 102.7679,267.7234 103.1646,267.7224C103.5446,267.7226 103.9245,267.7231 104.3045,267.7225C104.6501,267.7213 104.9957,267.721 105.3412,267.7228C105.8744,267.7254 106.4076,267.727 106.9408,267.7289C107.6675,267.7317 108.3941,267.7323 109.1207,267.7299C109.654,267.7285 110.1872,267.7246 110.7204,267.7244C111.1617,267.7251 111.603,267.7244 112.0443,267.7229C112.1054,267.7227 112.1665,267.7225 112.2276,267.7223L110.4817,268.9216C110.4211,268.9214 110.3606,268.9212 110.3001,268.921C109.8603,268.9195 109.4204,268.9189 108.9806,268.9195C108.4526,268.9193 107.9247,268.9154 107.3967,268.9141C106.6691,268.9116 105.9415,268.9123 105.2139,268.9151C104.6748,268.917 104.1357,268.9185 103.5966,268.9211C103.2508,268.9229 102.905,268.9227 102.5592,268.9214C102.1791,268.9208 101.7989,268.9214 101.4188,268.9216C101.0231,268.9206 100.6274,268.9207 100.2318,268.9205C99.8594,268.9215 99.4871,268.9223 99.1147,268.922C98.7211,268.9209 98.3274,268.919 97.9337,268.9214C97.6132,268.9228 97.2926,268.9237 96.972,268.9233C96.6805,268.9233 96.3889,268.9233 96.0974,268.9233C95.8059,268.9233 95.5145,268.9233 95.2231,268.9232C94.9171,268.9231 94.6111,268.9229 94.3051,268.9223C93.9331,268.9216 93.561,268.9214 93.189,268.9214C92.7589,268.9206 92.3287,268.9221 91.8986,268.9173C91.4838,268.9117 91.0683,268.9028 90.6558,268.8578C90.259,268.8133 89.8638,268.7606 89.4628,268.7709C89.055,268.7558 88.6479,268.7274 88.2435,268.6741C87.8615,268.6337 87.4781,268.645 87.0942,268.6463C86.7891,268.6469 86.4839,268.6481 86.1787,268.6475C85.8866,268.6475 85.5945,268.6475 85.3024,268.6471C84.9436,268.6464 84.5847,268.645 84.2259,268.6428C83.6727,268.6401 83.1194,268.6366 82.5662,268.6469L84.3156,267.4453z" stroke="#000" stroke-linecap="square" stroke-linejoin="round" stroke-width=".4767"/>
<path d="M175.8104,267.7219C176.5143,267.7337 177.2183,267.7321 177.9223,267.7317C178.5675,267.7308 179.2127,267.729 179.8579,267.7261C180.2891,267.7237 180.7203,267.7236 181.1515,267.7231C181.4913,267.7223 181.8311,267.7214 182.1709,267.721C182.4677,267.7426 182.7529,267.6635 183.0447,267.6254C183.3373,267.5913 183.6323,267.5864 183.9267,267.5829C184.2189,267.5808 184.5111,267.5817 184.8032,267.582C185.095,267.5824 185.3868,267.5826 185.6786,267.5827C185.9704,267.5827 186.2622,267.5827 186.554,267.5827C186.8458,267.5827 187.1376,267.5827 187.4293,267.5827C187.7426,267.5821 188.0559,267.5838 188.3692,267.5838C188.6864,267.5836 189.0037,267.5831 189.3209,267.5829C189.6147,267.5827 189.9086,267.5827 190.2024,267.5827C190.3967,267.5827 190.2996,267.5827 190.4939,267.5827L188.7429,268.7854C188.5487,268.7854 188.6458,268.7854 188.4515,268.7854C188.1579,268.7853 187.8643,268.7853 187.5707,268.7851C187.2543,268.7849 186.938,268.7845 186.6216,268.7842C186.3072,268.7843 185.9929,268.786 185.6785,268.7854C185.3867,268.7854 185.0949,268.7854 184.8031,268.7854C184.5113,268.7854 184.2195,268.7854 183.9277,268.7853C183.6359,268.7851 183.344,268.7849 183.0522,268.7845C182.7609,268.7843 182.4696,268.7835 182.1784,268.7888C181.889,268.7962 181.5993,268.8084 181.3131,268.8524C181.017,268.8976 180.7225,268.9431 180.421,268.9229C180.0832,268.9225 179.7455,268.9216 179.4078,268.9208C178.9795,268.9203 178.5513,268.9202 178.123,268.9178C177.4832,268.9149 176.8434,268.9131 176.2036,268.9122C175.4902,268.9118 174.7767,268.9104 174.0634,268.922L175.8104,267.7219z" stroke="#000" stroke-linecap="square" stroke-linejoin="round" stroke-width=".4767"/>
<path d="M135.5176,267.8852C136.0515,267.9527 136.5901,267.974 137.1281,267.99C137.6081,268.0016 138.0884,268.0016 138.5686,268.0003C138.965,267.9998 139.3614,267.9997 139.7578,267.9987C140.5536,268.0192 141.3499,268.0092 142.1458,268.0055C142.6267,268.0019 143.1077,268.0005 143.5886,267.9985C143.9721,267.9986 144.3556,267.9981 144.7392,267.9991C145.1424,268.0004 145.5456,267.9982 145.9488,267.9988C146.3126,267.998 146.6764,267.9981 147.0402,267.9982C147.4046,267.9987 147.769,267.9984 148.1334,267.9977C148.4814,267.9989 148.8295,267.9978 149.1775,267.9972C149.5181,267.9986 149.8586,267.9977 150.1992,267.9972C150.5,267.9967 150.8008,267.9966 151.1016,267.9965C151.3532,268.055 151.6063,268.0971 151.8644,268.1174C152.1443,268.1347 152.4249,268.1347 152.7053,268.1355C152.997,268.1356 153.2886,268.1351 153.5803,268.1348C153.7263,268.1346 153.8724,268.1346 154.0184,268.1345L152.2675,269.3373C152.1216,269.3374 151.9756,269.3374 151.8296,269.3376C151.5376,269.3379 151.2455,269.3387 150.9535,269.3372C150.6683,269.3348 150.3826,269.3322 150.0986,269.3041C149.8481,269.2747 149.6027,269.2144 149.3508,269.1991C149.0506,269.1991 148.7504,269.1989 148.4502,269.1985C148.1097,269.198 147.7692,269.1971 147.4287,269.1985C147.0811,269.1979 146.7334,269.1968 146.3858,269.198C146.0219,269.1973 145.658,269.197 145.2942,269.1975C144.931,269.1976 144.5678,269.1977 144.2046,269.1968C143.8017,269.1975 143.3989,269.1953 142.996,269.1965C142.6118,269.1975 142.2277,269.1971 141.8436,269.1971C141.3695,269.1952 140.8953,269.1937 140.4212,269.1902C139.6184,269.1865 138.8154,269.1769 138.0128,269.1975C137.6171,269.1971 137.2213,269.198 136.8256,269.1972C136.3471,269.1943 135.8686,269.1905 135.3903,269.1746C134.8426,269.1534 134.2956,269.1208 133.7503,269.0676L135.5176,267.8852z" stroke="#000" stroke-linecap="square" stroke-linejoin="round" stroke-width=".4767"/>
<path d="M97.0131,230.0719L97.0131,248.6151" fill="none" stroke="#000" stroke-linecap="round" stroke-width="4.8046"/>
<path d="M106.5371,228.3175L106.5371,246.8608" fill="none" stroke="#000" stroke-linecap="round" stroke-width="4.8046"/>
<path d="M115.474,229.7818L115.474,248.3251" fill="none" stroke="#000" stroke-linecap="round" stroke-width="4.8046"/>
<path d="M127.1508,228.6146L127.1508,247.1578" fill="none" stroke="#000" stroke-linecap="round" stroke-width="4.8046"/>
<path d="M137.3094,230.8012L137.3094,249.3444" fill="none" stroke="#000" stroke-linecap="round" stroke-width="4.8046"/>
<path d="M148.9386,230.6258L148.9386,249.169" fill="none" stroke="#000" stroke-linecap="round" stroke-width="4.8046"/>
<path d="M159.4412,228.9116L159.4412,247.4549" fill="none" stroke="#000" stroke-linecap="round" stroke-width="4.8046"/>
<path d="M169.3566,231.9485L169.3566,250.4918" fill="none" stroke="#000" stroke-linecap="round" stroke-width="4.8046"/>
<path d="M180.0296,231.5799L180.0296,250.1231" fill="none" stroke="#000" stroke-linecap="round" stroke-width="4.8046"/>
<path d="M89.1289,234.8021L89.1289,253.3453" fill="none" stroke="#000" stroke-linecap="round" stroke-width="4.8046"/>
<path d="M111.7936,262.5995H132.2064A2.3409,2.3409 0 0 1 134.5473,264.9404V271.8453A2.3409,2.3409 0 0 1 132.2064,274.1862H111.7936A2.3409,2.3409 0 0 1 109.4527,271.8453V264.9404A2.3409,2.3409 0 0 1 111.7936,262.5995z" stroke="#000" stroke-linecap="square" stroke-linejoin="round" stroke-width="3.7338"/>
<path d="M141.1071,306.7857L118.25,303.9286" fill="none" stroke="#000"/>
<g transform="matrix(1.20124,0,0,1,-612.92924,629.95672)">
<path d="M1013.7151,-530.8745H1138.6816A13.0878,13.0878 0 0 1 1151.7694,-517.7867V-495.7367A13.0878,13.0878 0 0 1 1138.6816,-482.649H1013.7151A13.0878,13.0878 0 0 1 1000.6273,-495.7367V-517.7867A13.0878,13.0878 0 0 1 1013.7151,-530.8745z" stroke="#000" stroke-linecap="round" stroke-linejoin="round" stroke-width="1.9703" transform="matrix(1,0,.84988,.52697,0,0)"/>
<path d="M602.1455,-296.3292H607.6698A4.1432,4.1432 0 0 1 611.813,-292.186V-261.8025A4.1432,4.1432 0 0 1 607.6698,-257.6593H602.1455A4.1432,4.1432 0 0 1 598.0023,-261.8025V-292.186A4.1432,4.1432 0 0 1 602.1455,-296.3292z" fill="#fff" stroke="#000" stroke-linecap="round" stroke-linejoin="round" stroke-width="3.642"/>
<path d="M707.3829,-296.3292H712.9072A4.1432,4.1432 0 0 1 717.0504,-292.186V-261.8025A4.1432,4.1432 0 0 1 712.9072,-257.6593H707.3829A4.1432,4.1432 0 0 1 703.2397,-261.8025V-292.186A4.1432,4.1432 0 0 1 707.3829,-296.3292z" fill="#fff" stroke="#000" stroke-linecap="round" stroke-linejoin="round" stroke-width="3.642"/>
<path d="M684.1809,-308.4826H689.7052A4.1432,4.1432 0 0 1 693.8484,-304.3394V-273.9559A4.1432,4.1432 0 0 1 689.7052,-269.8127H684.1809A4.1432,4.1432 0 0 1 680.0377,-273.9559V-304.3394A4.1432,4.1432 0 0 1 684.1809,-308.4826z" fill="#fff" stroke="#000" stroke-linecap="round" stroke-linejoin="round" stroke-width="3.642"/>
<path d="M576.4576,-311.7971H581.9819A4.1432,4.1432 0 0 1 586.1251,-307.6539V-277.2705A4.1432,4.1432 0 0 1 581.9819,-273.1272H576.4576A4.1432,4.1432 0 0 1 572.3144,-277.2705V-307.6539A4.1432,4.1432 0 0 1 576.4576,-311.7971z" fill="#fff" stroke="#000" stroke-linecap="round" stroke-linejoin="round" stroke-width="3.642"/>
<path d="M1076.8467,-603.2072H1201.8132A13.0878,13.0878 0 0 1 1214.901,-590.1194V-568.0694A13.0878,13.0878 0 0 1 1201.8132,-554.9817H1076.8467A13.0878,13.0878 0 0 1 1063.7589,-568.0694V-590.1194A13.0878,13.0878 0 0 1 1076.8467,-603.2072z" fill="#fff" stroke="#000" stroke-linecap="round" stroke-linejoin="round" stroke-width="1.9703" transform="matrix(1,0,.84988,.52697,0,0)"/>
<path d="M1082.5307,-610.5453H1207.4972A13.0878,13.0878 0 0 1 1220.585,-597.4575V-575.4075A13.0878,13.0878 0 0 1 1207.4972,-562.3197H1082.5307A13.0878,13.0878 0 0 1 1069.4429,-575.4075V-597.4575A13.0878,13.0878 0 0 1 1082.5307,-610.5453z" fill="#fff" stroke="#000" stroke-linecap="round" stroke-linejoin="round" stroke-width="1.9703" transform="matrix(1,0,.84988,.52697,0,0)"/>
</g>
<text font-family="Bitstream Vera Sans" font-size="20" x="162.567" y="132.2813">
   <tspan text-align="center" text-anchor="middle" x="162.567" y="132.2813">P'tain je sais rien</tspan>
   <tspan text-align="center" text-anchor="middle" x="162.567" y="157.2813">faire dans ce partiel</tspan>
   <tspan text-align="center" text-anchor="middle" x="162.567" y="182.2813">de physique...</tspan>
  </text>
<text font-family="Bitstream Vera Sans" font-size="20" x="723.3192" y="129.6359">
   <tspan text-align="center" text-anchor="middle" x="723.3192" y="129.6359">Allo Tank ? Télécharge</tspan>
   <tspan text-align="center" text-anchor="middle" x="723.3192" y="154.6359">moi un programme</tspan>
   <tspan text-align="center" text-anchor="middle" x="723.3192" y="179.6359">de physique...</tspan>
  </text>
<path d="M741.1884,243.566L741.1884,291.4545C741.1884,311.4615 725.0817,327.5682 705.0747,327.5682L669.6407,327.5682C649.6337,327.5682 633.527,311.4615 633.527,291.4545L633.527,243.566" fill="#fff" stroke="#000" stroke-linecap="round" stroke-linejoin="round" stroke-width="3.6422"/>
<path d="M703.966,263.3775H724.3789A2.3409,2.3409 0 0 1 726.7197,265.7183V272.6233A2.3409,2.3409 0 0 1 724.3789,274.9641H703.966A2.3409,2.3409 0 0 1 701.6251,272.6233V265.7183A2.3409,2.3409 0 0 1 703.966,263.3775z" stroke="#000" stroke-linecap="square" stroke-linejoin="round" stroke-width="3.7338"/>
<path d="M635.8352,268.4321C636.3844,268.4425 636.9338,268.4389 637.483,268.4361C637.846,268.434 638.2089,268.4326 638.5719,268.4319C638.8644,268.4315 639.1569,268.4315 639.4494,268.4315C639.7534,268.4309 640.0574,268.4321 640.3615,268.4327C640.7521,268.423 641.1367,268.4323 641.5234,268.4834C641.9231,268.5379 642.3265,268.5551 642.7297,268.5661C643.1349,268.5503 643.5325,268.625 643.9337,268.6651C644.3416,268.7019 644.7517,268.7058 645.1611,268.7102C645.5912,268.7125 646.0214,268.7123 646.4515,268.7108C646.8251,268.7101 647.1987,268.7095 647.5723,268.7086C647.8793,268.7078 648.1864,268.7076 648.4934,268.7075C648.7849,268.7074 649.0764,268.7074 649.3679,268.7074C649.6594,268.7074 649.951,268.7074 650.2425,268.7074C650.5612,268.707 650.8799,268.7079 651.1986,268.7094C651.5928,268.7117 651.9871,268.7098 652.3814,268.7087C652.7523,268.7085 653.1231,268.7092 653.494,268.7102C653.8908,268.7101 654.2875,268.7102 654.6842,268.7092C655.0642,268.7094 655.4441,268.7099 655.8241,268.7093C656.1697,268.7081 656.5153,268.7078 656.8608,268.7096C657.394,268.7122 657.9272,268.7138 658.4604,268.7157C659.187,268.7185 659.9137,268.719 660.6403,268.7167C661.1735,268.7153 661.7068,268.7114 662.24,268.7112C662.6813,268.7119 663.1226,268.7112 663.5639,268.7097C663.625,268.7095 663.6861,268.7093 663.7472,268.7091L662.0013,269.9084C661.9407,269.9082 661.8802,269.908 661.8197,269.9078C661.3799,269.9063 660.94,269.9057 660.5002,269.9063C659.9722,269.9061 659.4443,269.9022 658.9163,269.9009C658.1887,269.8984 657.4611,269.8991 656.7335,269.9019C656.1944,269.9038 655.6553,269.9053 655.1162,269.9079C654.7704,269.9097 654.4246,269.9095 654.0788,269.9082C653.6986,269.9076 653.3185,269.9082 652.9384,269.9083C652.5427,269.9074 652.147,269.9075 651.7513,269.9073C651.379,269.9083 651.0067,269.9091 650.6343,269.9088C650.2406,269.9077 649.847,269.9058 649.4533,269.9082C649.1328,269.9096 648.8122,269.9105 648.4916,269.9101C648.2001,269.9101 647.9085,269.9101 647.6169,269.9101C647.3255,269.9101 647.0341,269.9101 646.7427,269.91C646.4367,269.9099 646.1307,269.9097 645.8247,269.9091C645.4526,269.9084 645.0806,269.9082 644.7086,269.9082C644.2785,269.9074 643.8483,269.9089 643.4182,269.9041C643.0034,269.8985 642.5879,269.8896 642.1754,269.8447C641.7786,269.8001 641.3834,269.7474 640.9824,269.7577C640.5746,269.7426 640.1675,269.7142 639.7631,269.661C639.3811,269.6205 638.9977,269.6318 638.6138,269.6331C638.3086,269.6337 638.0035,269.6349 637.6983,269.6343C637.4062,269.6343 637.1141,269.6343 636.822,269.6339C636.4632,269.6332 636.1043,269.6318 635.7455,269.6296C635.1923,269.6269 634.639,269.6234 634.0858,269.6337L635.8352,268.4321z" stroke="#000" stroke-linecap="square" stroke-linejoin="round" stroke-width=".4767"/>
<path d="M727.33,268.7088C728.0339,268.7206 728.7379,268.719 729.4419,268.7185C730.0871,268.7176 730.7323,268.7158 731.3775,268.7129C731.8087,268.7105 732.2399,268.7104 732.6711,268.7099C733.0109,268.7091 733.3507,268.7082 733.6905,268.7078C733.9873,268.7294 734.2725,268.6503 734.5643,268.6122C734.8569,268.5781 735.1519,268.5732 735.4463,268.5697C735.7385,268.5676 736.0307,268.5685 736.3228,268.5688C736.6146,268.5692 736.9064,268.5694 737.1982,268.5695C737.49,268.5695 737.7818,268.5695 738.0736,268.5695C738.3654,268.5695 738.6572,268.5695 738.9489,268.5695C739.2622,268.5689 739.5755,268.5706 739.8888,268.5706C740.206,268.5704 740.5232,268.5699 740.8405,268.5697C741.1343,268.5695 741.4282,268.5695 741.722,268.5695C741.9163,268.5695 741.8191,268.5695 742.0135,268.5695L740.2625,269.7722C740.0682,269.7722 740.1654,269.7722 739.9711,269.7722C739.6775,269.7722 739.3839,269.7721 739.0902,269.772C738.7739,269.7717 738.4575,269.7713 738.1412,269.771C737.8268,269.7711 737.5124,269.7727 737.1981,269.7722C736.9063,269.7722 736.6145,269.7722 736.3227,269.7722C736.0309,269.7722 735.7391,269.7722 735.4473,269.772C735.1554,269.7719 734.8636,269.7717 734.5718,269.7713C734.2805,269.7711 733.9892,269.7703 733.698,269.7756C733.4086,269.783 733.1188,269.7952 732.8327,269.8392C732.5366,269.8845 732.2421,269.9299 731.9406,269.9097C731.6028,269.9093 731.2651,269.9085 730.9274,269.9076C730.4991,269.9071 730.0709,269.907 729.6426,269.9046C729.0028,269.9017 728.363,269.8999 727.7232,269.899C727.0098,269.8986 726.2963,269.8972 725.583,269.9088L727.33,268.7088z" stroke="#000" stroke-linecap="square" stroke-linejoin="round" stroke-width=".4767"/>
<path d="M687.0372,268.872C687.5711,268.9395 688.1097,268.9608 688.6476,268.9768C689.1277,268.9884 689.608,268.9884 690.0882,268.9871C690.4846,268.9866 690.881,268.9865 691.2774,268.9855C692.0732,269.006 692.8694,268.996 693.6654,268.9923C694.1463,268.9887 694.6273,268.9873 695.1082,268.9853C695.4917,268.9854 695.8752,268.9849 696.2588,268.9859C696.662,268.9872 697.0652,268.985 697.4683,268.9856C697.8322,268.9848 698.196,268.9849 698.5598,268.985C698.9242,268.9855 699.2885,268.9852 699.6529,268.9844C700.001,268.9857 700.3491,268.9846 700.6971,268.984C701.0377,268.9854 701.3782,268.9844 701.7188,268.984C702.0196,268.9835 702.3204,268.9834 702.6212,268.9833C702.8728,269.0418 703.1259,269.0839 703.384,269.1042C703.6639,269.1215 703.9445,269.1215 704.2249,269.1223C704.5166,269.1225 704.8082,269.1219 705.0999,269.1216C705.2459,269.1214 705.3919,269.1214 705.538,269.1213L703.7871,270.3241C703.6412,270.3242 703.4952,270.3243 703.3492,270.3244C703.0572,270.3247 702.7651,270.3255 702.4731,270.324C702.1879,270.3216 701.9022,270.319 701.6182,270.2909C701.3676,270.2615 701.1223,270.2012 700.8704,270.1859C700.5702,270.1859 700.27,270.1857 699.9698,270.1853C699.6293,270.1848 699.2888,270.1839 698.9483,270.1853C698.6006,270.1847 698.253,270.1836 697.9054,270.1848C697.5415,270.1841 697.1776,270.1837 696.8138,270.1843C696.4506,270.1844 696.0874,270.1845 695.7242,270.1837C695.3213,270.1843 694.9184,270.1821 694.5155,270.1833C694.1314,270.1843 693.7473,270.1839 693.3632,270.1839C692.8891,270.1819 692.4149,270.1805 691.9408,270.177C691.138,270.1733 690.335,270.1637 689.5324,270.1843C689.1367,270.1839 688.7409,270.1848 688.3452,270.184C687.8667,270.1811 687.3881,270.1773 686.9099,270.1614C686.3622,270.1402 685.8152,270.1076 685.2699,270.0544L687.0372,268.872z" stroke="#000" stroke-linecap="square" stroke-linejoin="round" stroke-width=".4767"/>
<path d="M648.5327,231.0587L648.5327,249.6019" fill="none" stroke="#000" stroke-linecap="round" stroke-width="4.8046"/>
<path d="M658.0567,229.3043L658.0567,247.8476" fill="none" stroke="#000" stroke-linecap="round" stroke-width="4.8046"/>
<path d="M666.9936,230.7686L666.9936,249.3119" fill="none" stroke="#000" stroke-linecap="round" stroke-width="4.8046"/>
<path d="M678.6703,229.6014L678.6703,248.1446" fill="none" stroke="#000" stroke-linecap="round" stroke-width="4.8046"/>
<path d="M688.829,231.788L688.829,250.3312" fill="none" stroke="#000" stroke-linecap="round" stroke-width="4.8046"/>
<path d="M700.4582,231.6126L700.4582,250.1558" fill="none" stroke="#000" stroke-linecap="round" stroke-width="4.8046"/>
<path d="M710.9608,229.8984L710.9608,248.4417" fill="none" stroke="#000" stroke-linecap="round" stroke-width="4.8046"/>
<path d="M720.8762,232.9353L720.8762,251.4786" fill="none" stroke="#000" stroke-linecap="round" stroke-width="4.8046"/>
<path d="M731.5492,232.5667L731.5492,251.1099" fill="none" stroke="#000" stroke-linecap="round" stroke-width="4.8046"/>
<path d="M640.6485,235.7889L640.6485,254.3321" fill="none" stroke="#000" stroke-linecap="round" stroke-width="4.8046"/>
<path d="M663.3131,263.5863H683.726A2.3409,2.3409 0 0 1 686.0669,265.9272V272.8321A2.3409,2.3409 0 0 1 683.726,275.173H663.3131A2.3409,2.3409 0 0 1 660.9723,272.8321V265.9272A2.3409,2.3409 0 0 1 663.3131,263.5863z" stroke="#000" stroke-linecap="square" stroke-linejoin="round" stroke-width="3.7338"/>
<path d="M689.0553,306.3439C681.4173,305.5242 673.4129,307.2693 666.1982,303.4868" fill="none" stroke="#000"/>
<path d="M740.3445,185.1349L730.243,224.5308" fill="none" stroke="#000"/>
<path d="M-323.5064,556.9339H-297.9207A.135,.135 0 0 1 -297.7857,557.0689V584.7737A.135,.135 0 0 1 -297.9207,584.9087H-323.5064A.135,.135 0 0 1 -323.6414,584.7737V557.0689A.135,.135 0 0 1 -323.5064,556.9339z" fill="#fff" stroke="#000" stroke-linecap="round" stroke-linejoin="round" stroke-width="1.5832" transform="matrix(1,0,.82667,.56269,0,0)"/>
<path d="M166.4286,192.1429L155,220" fill="none" stroke="#000"/>
<path d="M465.4742,243.566L465.4742,291.4545C465.4742,311.4615 449.3675,327.5682 429.3605,327.5682L393.9264,327.5682C373.9194,327.5682 357.8127,311.4615 357.8127,291.4545L357.8127,243.566" fill="#fff" stroke="#000" stroke-linecap="round" stroke-linejoin="round" stroke-width="3.6422"/>
<path d="M428.2517,263.3775H448.6646A2.3409,2.3409 0 0 1 451.0055,265.7184V272.6233A2.3409,2.3409 0 0 1 448.6646,274.9642H428.2517A2.3409,2.3409 0 0 1 425.9109,272.6233V265.7184A2.3409,2.3409 0 0 1 428.2517,263.3775z" stroke="#000" stroke-linecap="square" stroke-linejoin="round" stroke-width="3.7338"/>
<path d="M360.1209,268.4321C360.6701,268.4425 361.2195,268.4389 361.7688,268.4361C362.1317,268.434 362.4947,268.4326 362.8576,268.4319C363.1501,268.4315 363.4426,268.4315 363.7351,268.4315C364.0392,268.4309 364.3432,268.4321 364.6472,268.4327C365.0379,268.423 365.4225,268.4323 365.8092,268.4834C366.2088,268.5379 366.6123,268.5551 367.0154,268.5661C367.4206,268.5503 367.8183,268.625 368.2194,268.6651C368.6273,268.7019 369.0374,268.7058 369.4468,268.7102C369.877,268.7125 370.3071,268.7123 370.7373,268.7108C371.1109,268.7101 371.4844,268.7095 371.858,268.7086C372.1651,268.7078 372.4721,268.7076 372.7792,268.7075C373.0707,268.7074 373.3621,268.7074 373.6537,268.7074C373.9452,268.7074 374.2367,268.7074 374.5283,268.7074C374.847,268.707 375.1656,268.708 375.4843,268.7094C375.8786,268.7117 376.2729,268.7098 376.6671,268.7088C377.038,268.7085 377.4089,268.7092 377.7798,268.7102C378.1765,268.7101 378.5732,268.7102 378.9699,268.7092C379.3499,268.7094 379.7299,268.7099 380.1098,268.7093C380.4554,268.7081 380.801,268.7078 381.1466,268.7096C381.6798,268.7122 382.213,268.7138 382.7462,268.7157C383.4728,268.7185 384.1994,268.7191 384.9261,268.7167C385.4593,268.7153 385.9925,268.7115 386.5258,268.7112C386.9671,268.7119 387.4084,268.7112 387.8497,268.7097C387.9108,268.7095 387.9719,268.7093 388.033,268.7091L386.287,269.9084C386.2265,269.9082 386.166,269.908 386.1055,269.9078C385.6656,269.9063 385.2258,269.9057 384.7859,269.9063C384.258,269.9061 383.73,269.9022 383.2021,269.9009C382.4745,269.8984 381.7468,269.8991 381.0192,269.9019C380.4801,269.9038 379.9411,269.9054 379.402,269.908C379.0562,269.9097 378.7103,269.9095 378.3645,269.9082C377.9844,269.9076 377.6043,269.9082 377.2242,269.9084C376.8285,269.9074 376.4328,269.9075 376.0371,269.9073C375.6648,269.9083 375.2924,269.9091 374.9201,269.9088C374.5264,269.9077 374.1327,269.9058 373.7391,269.9082C373.4185,269.9096 373.098,269.9105 372.7774,269.9101C372.4858,269.9101 372.1943,269.9101 371.9027,269.9101C371.6113,269.9101 371.3198,269.9101 371.0284,269.9101C370.7224,269.9099 370.4164,269.9097 370.1104,269.9091C369.7384,269.9084 369.3664,269.9083 368.9944,269.9082C368.5642,269.9074 368.1341,269.9089 367.7039,269.9041C367.2892,269.8985 366.8737,269.8896 366.4612,269.8447C366.0644,269.8001 365.6691,269.7475 365.2681,269.7577C364.8603,269.7426 364.4533,269.7142 364.0489,269.661C363.6668,269.6205 363.2835,269.6318 362.8996,269.6331C362.5944,269.6337 362.2893,269.6349 361.9841,269.6343C361.692,269.6343 361.3999,269.6343 361.1078,269.6339C360.7489,269.6332 360.3901,269.6318 360.0312,269.6297C359.478,269.6269 358.9247,269.6234 358.3716,269.6337L360.1209,268.4321z" stroke="#000" stroke-linecap="square" stroke-linejoin="round" stroke-width=".4767"/>
<path d="M451.6158,268.7088C452.3196,268.7206 453.0237,268.719 453.7276,268.7185C454.3729,268.7176 455.0181,268.7158 455.6633,268.7129C456.0945,268.7105 456.5257,268.7104 456.9568,268.7099C457.2966,268.7091 457.6364,268.7082 457.9762,268.7078C458.273,268.7294 458.5583,268.6503 458.85,268.6122C459.1426,268.5781 459.4377,268.5732 459.7321,268.5697C460.0243,268.5676 460.3164,268.5685 460.6086,268.5688C460.9004,268.5693 461.1922,268.5694 461.4839,268.5695C461.7757,268.5695 462.0675,268.5695 462.3593,268.5695C462.6511,268.5695 462.9429,268.5695 463.2347,268.5695C463.548,268.5689 463.8613,268.5706 464.1745,268.5706C464.4918,268.5704 464.809,268.57 465.1263,268.5697C465.4201,268.5695 465.7139,268.5695 466.0077,268.5695C466.2021,268.5695 466.1049,268.5695 466.2992,268.5695L464.5483,269.7722C464.354,269.7722 464.4511,269.7722 464.2568,269.7722C463.9632,269.7722 463.6696,269.7721 463.376,269.772C463.0596,269.7717 462.7433,269.7713 462.4269,269.771C462.1126,269.7711 461.7982,269.7728 461.4838,269.7722C461.192,269.7722 460.9002,269.7722 460.6084,269.7722C460.3166,269.7722 460.0248,269.7722 459.733,269.7721C459.4412,269.7719 459.1494,269.7717 458.8576,269.7713C458.5663,269.7711 458.275,269.7703 457.9837,269.7756C457.6944,269.7831 457.4046,269.7952 457.1184,269.8392C456.8224,269.8845 456.5279,269.9299 456.2263,269.9097C455.8886,269.9093 455.5509,269.9085 455.2131,269.9076C454.7849,269.9071 454.3566,269.907 453.9284,269.9046C453.2885,269.9017 452.6487,269.8999 452.0089,269.899C451.2955,269.8986 450.582,269.8972 449.8687,269.9088L451.6158,268.7088z" stroke="#000" stroke-linecap="square" stroke-linejoin="round" stroke-width=".4767"/>
<path d="M411.3229,268.872C411.8568,268.9396 412.3955,268.9608 412.9334,268.9768C413.4135,268.9884 413.8938,268.9884 414.3739,268.9871C414.7704,268.9866 415.1668,268.9865 415.5632,268.9855C416.359,269.006 417.1552,268.996 417.9511,268.9923C418.4321,268.9887 418.913,268.9873 419.394,268.9853C419.7775,268.9854 420.161,268.9849 420.5445,268.9859C420.9477,268.9872 421.3509,268.985 421.7541,268.9856C422.1179,268.9848 422.4818,268.9849 422.8456,268.985C423.2099,268.9855 423.5743,268.9852 423.9387,268.9845C424.2867,268.9857 424.6348,268.9846 424.9829,268.984C425.3234,268.9854 425.664,268.9845 426.0045,268.984C426.3053,268.9835 426.6062,268.9834 426.907,268.9833C427.1585,269.0418 427.4116,269.0839 427.6697,269.1042C427.9496,269.1215 428.2303,269.1215 428.5106,269.1223C428.8023,269.1225 429.094,269.1219 429.3857,269.1216C429.5317,269.1214 429.6777,269.1214 429.8237,269.1213L428.0729,270.3241C427.9269,270.3242 427.7809,270.3243 427.6349,270.3244C427.3429,270.3247 427.0509,270.3255 426.7589,270.324C426.4737,270.3216 426.1879,270.319 425.904,270.2909C425.6534,270.2616 425.408,270.2012 425.1562,270.1859C424.856,270.1859 424.5558,270.1857 424.2556,270.1853C423.9151,270.1848 423.5746,270.1839 423.2341,270.1853C422.8864,270.1847 422.5388,270.1836 422.1911,270.1848C421.8273,270.1841 421.4634,270.1838 421.0995,270.1843C420.7363,270.1844 420.3732,270.1845 420.01,270.1837C419.6071,270.1843 419.2042,270.1821 418.8013,270.1834C418.4172,270.1844 418.0331,270.1839 417.649,270.1839C417.1748,270.182 416.7007,270.1805 416.2265,270.177C415.4238,270.1733 414.6208,270.1637 413.8182,270.1843C413.4224,270.1839 413.0267,270.1848 412.6309,270.184C412.1524,270.1811 411.6739,270.1773 411.1957,270.1614C410.648,270.1402 410.101,270.1076 409.5556,270.0544L411.3229,268.872z" stroke="#000" stroke-linecap="square" stroke-linejoin="round" stroke-width=".4767"/>
<path d="M372.8184,231.0587L372.8184,249.6019" fill="none" stroke="#000" stroke-linecap="round" stroke-width="4.8046"/>
<path d="M382.3424,229.3043L382.3424,247.8476" fill="none" stroke="#000" stroke-linecap="round" stroke-width="4.8046"/>
<path d="M391.2794,230.7687L391.2794,249.3119" fill="none" stroke="#000" stroke-linecap="round" stroke-width="4.8046"/>
<path d="M402.9561,229.6014L402.9561,248.1447" fill="none" stroke="#000" stroke-linecap="round" stroke-width="4.8046"/>
<path d="M413.1147,231.788L413.1147,250.3312" fill="none" stroke="#000" stroke-linecap="round" stroke-width="4.8046"/>
<path d="M424.744,231.6126L424.744,250.1559" fill="none" stroke="#000" stroke-linecap="round" stroke-width="4.8046"/>
<path d="M435.2465,229.8984L435.2465,248.4417" fill="none" stroke="#000" stroke-linecap="round" stroke-width="4.8046"/>
<path d="M445.162,232.9353L445.162,251.4786" fill="none" stroke="#000" stroke-linecap="round" stroke-width="4.8046"/>
<path d="M455.8349,232.5667L455.8349,251.1099" fill="none" stroke="#000" stroke-linecap="round" stroke-width="4.8046"/>
<path d="M364.9342,235.7889L364.9342,254.3321" fill="none" stroke="#000" stroke-linecap="round" stroke-width="4.8046"/>
<path d="M387.5989,263.5863H408.0118A2.3409,2.3409 0 0 1 410.3527,265.9272V272.8321A2.3409,2.3409 0 0 1 408.0118,275.173H387.5989A2.3409,2.3409 0 0 1 385.2581,272.8321V265.9272A2.3409,2.3409 0 0 1 387.5989,263.5863z" stroke="#000" stroke-linecap="square" stroke-linejoin="round" stroke-width="3.7338"/>
<path d="M413.0021,304.4637C413.4346,306.2235 399.1744,308.5347 390.1449,301.6066" fill="none" stroke="#000"/>
<g transform="matrix(1.20124,0,0,1,-337.12389,630.94353)">
<path d="M1013.7151,-530.8745H1138.6816A13.0878,13.0878 0 0 1 1151.7694,-517.7867V-495.7367A13.0878,13.0878 0 0 1 1138.6816,-482.649H1013.7151A13.0878,13.0878 0 0 1 1000.6273,-495.7367V-517.7867A13.0878,13.0878 0 0 1 1013.7151,-530.8745z" stroke="#000" stroke-linecap="round" stroke-linejoin="round" stroke-width="1.9703" transform="matrix(1,0,.84988,.52697,0,0)"/>
<path d="M602.1455,-296.3292H607.6698A4.1432,4.1432 0 0 1 611.813,-292.186V-261.8025A4.1432,4.1432 0 0 1 607.6698,-257.6593H602.1455A4.1432,4.1432 0 0 1 598.0023,-261.8025V-292.186A4.1432,4.1432 0 0 1 602.1455,-296.3292z" fill="#fff" stroke="#000" stroke-linecap="round" stroke-linejoin="round" stroke-width="3.642"/>
<path d="M707.3829,-296.3292H712.9072A4.1432,4.1432 0 0 1 717.0504,-292.186V-261.8025A4.1432,4.1432 0 0 1 712.9072,-257.6593H707.3829A4.1432,4.1432 0 0 1 703.2397,-261.8025V-292.186A4.1432,4.1432 0 0 1 707.3829,-296.3292z" fill="#fff" stroke="#000" stroke-linecap="round" stroke-linejoin="round" stroke-width="3.642"/>
<path d="M684.1809,-308.4826H689.7052A4.1432,4.1432 0 0 1 693.8484,-304.3394V-273.9559A4.1432,4.1432 0 0 1 689.7052,-269.8127H684.1809A4.1432,4.1432 0 0 1 680.0377,-273.9559V-304.3394A4.1432,4.1432 0 0 1 684.1809,-308.4826z" fill="#fff" stroke="#000" stroke-linecap="round" stroke-linejoin="round" stroke-width="3.642"/>
<path d="M576.4576,-311.7971H581.9819A4.1432,4.1432 0 0 1 586.1251,-307.6539V-277.2705A4.1432,4.1432 0 0 1 581.9819,-273.1272H576.4576A4.1432,4.1432 0 0 1 572.3144,-277.2705V-307.6539A4.1432,4.1432 0 0 1 576.4576,-311.7971z" fill="#fff" stroke="#000" stroke-linecap="round" stroke-linejoin="round" stroke-width="3.642"/>
<path d="M1076.8467,-603.2072H1201.8132A13.0878,13.0878 0 0 1 1214.901,-590.1194V-568.0694A13.0878,13.0878 0 0 1 1201.8132,-554.9817H1076.8467A13.0878,13.0878 0 0 1 1063.7589,-568.0694V-590.1194A13.0878,13.0878 0 0 1 1076.8467,-603.2072z" fill="#fff" stroke="#000" stroke-linecap="round" stroke-linejoin="round" stroke-width="1.9703" transform="matrix(1,0,.84988,.52697,0,0)"/>
<path d="M1082.5307,-610.5453H1207.4972A13.0878,13.0878 0 0 1 1220.585,-597.4575V-575.4075A13.0878,13.0878 0 0 1 1207.4972,-562.3197H1082.5307A13.0878,13.0878 0 0 1 1069.4429,-575.4075V-597.4575A13.0878,13.0878 0 0 1 1082.5307,-610.5453z" fill="#fff" stroke="#000" stroke-linecap="round" stroke-linejoin="round" stroke-width="1.9703" transform="matrix(1,0,.84988,.52697,0,0)"/>
</g>
<path d="M-49.1508,558.6877H-23.5651A.135,.135 0 0 1 -23.4301,558.8227V586.5274A.135,.135 0 0 1 -23.5651,586.6625H-49.1508A.135,.135 0 0 1 -49.2858,586.5274V558.8227A.135,.135 0 0 1 -49.1508,558.6877z" fill="#fff" stroke="#000" stroke-linecap="round" stroke-linejoin="round" stroke-width="1.5832" transform="matrix(1,0,.82667,.56269,0,0)"/>
<g transform="matrix(1.20124,0,0,1,-61.40961,630.94352)">
<path d="M1013.7151,-530.8745H1138.6816A13.0878,13.0878 0 0 1 1151.7694,-517.7867V-495.7367A13.0878,13.0878 0 0 1 1138.6816,-482.649H1013.7151A13.0878,13.0878 0 0 1 1000.6273,-495.7367V-517.7867A13.0878,13.0878 0 0 1 1013.7151,-530.8745z" stroke="#000" stroke-linecap="round" stroke-linejoin="round" stroke-width="1.9703" transform="matrix(1,0,.84988,.52697,0,0)"/>
<path d="M602.1455,-296.3292H607.6698A4.1432,4.1432 0 0 1 611.813,-292.186V-261.8025A4.1432,4.1432 0 0 1 607.6698,-257.6593H602.1455A4.1432,4.1432 0 0 1 598.0023,-261.8025V-292.186A4.1432,4.1432 0 0 1 602.1455,-296.3292z" fill="#fff" stroke="#000" stroke-linecap="round" stroke-linejoin="round" stroke-width="3.642"/>
<path d="M707.3829,-296.3292H712.9072A4.1432,4.1432 0 0 1 717.0504,-292.186V-261.8025A4.1432,4.1432 0 0 1 712.9072,-257.6593H707.3829A4.1432,4.1432 0 0 1 703.2397,-261.8025V-292.186A4.1432,4.1432 0 0 1 707.3829,-296.3292z" fill="#fff" stroke="#000" stroke-linecap="round" stroke-linejoin="round" stroke-width="3.642"/>
<path d="M684.1809,-308.4826H689.7052A4.1432,4.1432 0 0 1 693.8484,-304.3394V-273.9559A4.1432,4.1432 0 0 1 689.7052,-269.8127H684.1809A4.1432,4.1432 0 0 1 680.0377,-273.9559V-304.3394A4.1432,4.1432 0 0 1 684.1809,-308.4826z" fill="#fff" stroke="#000" stroke-linecap="round" stroke-linejoin="round" stroke-width="3.642"/>
<path d="M576.4576,-311.7971H581.9819A4.1432,4.1432 0 0 1 586.1251,-307.6539V-277.2705A4.1432,4.1432 0 0 1 581.9819,-273.1272H576.4576A4.1432,4.1432 0 0 1 572.3144,-277.2705V-307.6539A4.1432,4.1432 0 0 1 576.4576,-311.7971z" fill="#fff" stroke="#000" stroke-linecap="round" stroke-linejoin="round" stroke-width="3.642"/>
<path d="M1076.8467,-603.2072H1201.8132A13.0878,13.0878 0 0 1 1214.901,-590.1194V-568.0694A13.0878,13.0878 0 0 1 1201.8132,-554.9817H1076.8467A13.0878,13.0878 0 0 1 1063.7589,-568.0694V-590.1194A13.0878,13.0878 0 0 1 1076.8467,-603.2072z" fill="#fff" stroke="#000" stroke-linecap="round" stroke-linejoin="round" stroke-width="1.9703" transform="matrix(1,0,.84988,.52697,0,0)"/>
<path d="M1082.5307,-610.5453H1207.4972A13.0878,13.0878 0 0 1 1220.585,-597.4575V-575.4075A13.0878,13.0878 0 0 1 1207.4972,-562.3197H1082.5307A13.0878,13.0878 0 0 1 1069.4429,-575.4075V-597.4575A13.0878,13.0878 0 0 1 1082.5307,-610.5453z" fill="#fff" stroke="#000" stroke-linecap="round" stroke-linejoin="round" stroke-width="1.9703" transform="matrix(1,0,.84988,.52697,0,0)"/>
</g>
<path d="M226.5635,558.6877H252.1492A.135,.135 0 0 1 252.2842,558.8227V586.5274A.135,.135 0 0 1 252.1492,586.6625H226.5635A.135,.135 0 0 1 226.4285,586.5274V558.8227A.135,.135 0 0 1 226.5635,558.6877z" fill="#fff" stroke="#000" stroke-linecap="round" stroke-linejoin="round" stroke-width="1.5832" transform="matrix(1,0,.82667,.56269,0,0)"/>
<path d="M608.5714,206.0714A5,11.7857 0 1 1 598.5714,206.0714A5,11.7857 0 1 1 608.5714,206.0714z" fill="#fff" stroke="#000" stroke-linecap="round" stroke-linejoin="round" stroke-width="3" transform="matrix(.41816,-.25732,.25732,.41816,320.0043,345.90103)"/>
<path d="M361.4235,585.4341H361.4235A10.7143,10.7143 0 0 1 372.1377,596.1484V614.0055A10.7143,10.7143 0 0 1 361.4235,624.7198H361.4235A10.7143,10.7143 0 0 1 350.7092,614.0055V596.1484A10.7143,10.7143 0 0 1 361.4235,585.4341z" fill="#fff" stroke="#000" stroke-linecap="round" stroke-linejoin="round" stroke-width="3" transform="matrix(.81967,-.57283,.57283,.81967,0,0)"/>
<text font-family="Bitstream Vera Sans" font-size="20" x="438.9021" y="145.1814">
   <tspan text-align="center" text-anchor="middle" x="438.9021" y="145.1814">Enfin... pas encore !</tspan>
  </text>
<path d="M439.7727,165.4412L430.7487,210.5615" fill="none" stroke="#000"/>
</svg>
