<svg version="1.0" viewBox="0 0 750 750" xmlns="http://www.w3.org/2000/svg" xmlns:svg="http://www.w3.org/2000/svg">
<path d="M85.072,74.792H662.82A64.9058,64.9058 0 0 1 727.7258,139.6979V649.4629A64.9058,64.9058 0 0 1 662.82,714.3687H85.072A64.9058,64.9058 0 0 1 20.1662,649.4629V139.6979A64.9058,64.9058 0 0 1 85.072,74.792z" fill="#fff" stroke="#000" stroke-linecap="round" stroke-width="9.8248"/>
<g transform="matrix(.12574,0,0,.12574,674.4939,738.02994)">
<path d="M162.9615,-66.1029C166.455,-62.0454 171.1969,-61.5587 176.2443,-61.2734C182.6298,-61.4455 189.026,-62.9739 194.9925,-65.2443C198.1805,-66.4574 199.9424,-67.4904 202.9171,-69.0527C185.1139,-58.637 195.0252,-64.2154 198.3536,-67.7512C200.078,-69.5831 201.1079,-71.5131 202.0803,-73.8002C204.6069,-80.9176 204.9343,-88.5711 205.3652,-96.044C206.205,-106.9224 203.9531,-117.6028 201.5284,-128.1342C198.5789,-139.2121 194.5731,-149.9773 190.1613,-160.547C188.0488,-165.5407 185.6597,-170.4087 183.3326,-175.3036C180.1965,-181.3209 177.6309,-177.584 195.344,-184.4552C195.9544,-184.6919 196.0751,-183.3682 196.4662,-182.8431C197.1211,-181.9638 197.8094,-181.1099 198.4809,-180.2434C205.0155,-171.2763 212.8739,-163.4194 220.7492,-155.6472C225.3824,-151.1349 230.3508,-146.9467 234.7812,-142.2286C236.4627,-140.8555 237.4679,-138.92 238.8212,-137.2745C240.143,-136.0803 241.1771,-137.3375 242.3452,-138.1546C221.9421,-125.9198 229.2084,-129.8742 233.1206,-133.6257C234.6613,-135.103 236.1138,-136.6818 237.5889,-138.2234C239.6824,-140.3121 241.6662,-142.5484 243.9587,-144.4296C250.0105,-149.3955 258.4541,-153.3638 264.7123,-156.9238C270.4949,-159.4778 276.4106,-161.6997 282.419,-163.6577C283.6619,-163.9272 288.4708,-165.7766 289.5688,-164.5267C289.8243,-164.2359 289.9278,-163.8408 290.1072,-163.4978C290.1321,-163.1471 290.2293,-162.7941 290.1818,-162.4458C289.8354,-159.9037 285.8996,-156.946 284.1819,-155.3646C276.2864,-148.8374 268.6258,-142.0481 261.3333,-134.8534C254.99,-128.0483 248.4375,-121.3307 243.3873,-113.4811C240.2691,-108.5784 238.6116,-103.1651 237.8336,-97.4612C237.3182,-92.3602 237.4023,-87.2238 237.4103,-82.1038C237.6896,-76.538 238.3996,-70.961 240.0566,-65.6294C241.0066,-62.7897 242.6958,-60.7035 245.3984,-59.4565C247.1918,-58.8245 249.2452,-58.4083 251.1546,-58.7689C251.5988,-58.8529 255.3028,-60.1078 255.5991,-60.2068C259.9663,-62.5901 270.5149,-68.1635 250.7739,-57.3451C249.993,-56.9172 252.2774,-58.3004 253.0176,-58.7957C254.7175,-59.9333 255.126,-60.2677 256.721,-61.457C258.634,-62.8882 257.7277,-62.1927 259.444,-63.5378L273.1151,-69.0361C271.3827,-67.5797 272.3103,-68.3061 270.3191,-66.8738C262.2562,-60.6484 253.3247,-55.4952 244.0683,-51.2776C240.0071,-50.0654 237.0083,-49.4853 233.0532,-51.3558C230.1407,-52.9982 228.2379,-55.381 227.2136,-58.6022C225.5902,-64.0918 224.9779,-69.8068 224.4451,-75.4915C224.414,-80.6627 224.3292,-85.8471 224.7473,-91.006C225.4856,-96.9163 227.043,-102.5571 230.2219,-107.6713C230.8593,-108.7308 231.4383,-109.8277 232.1341,-110.8497C233.5635,-112.949 235.6974,-115.3519 237.3267,-117.2406C240.9264,-121.4136 244.6087,-125.5129 248.4113,-129.5027C255.5038,-136.6573 262.9793,-143.4183 270.7308,-149.8547C272.9266,-151.8936 275.199,-153.8815 277.0938,-156.2117C277.4084,-156.0458 276.3957,-156.0728 276.0435,-156.0235C274.2856,-155.7778 272.5938,-155.2318 270.901,-154.7183C264.9598,-152.7572 259.0786,-150.5816 253.4382,-147.8602C272.8794,-159.3576 261.1903,-152.8293 257.3908,-149.9058C255.0765,-148.125 253.0963,-145.926 251.0661,-143.8444C243.704,-136.0782 243.2815,-135.2558 230.8263,-128.8268C228.7851,-127.8625 227.644,-127.977 226.0472,-129.6547C224.7873,-131.3205 223.7779,-133.1781 222.2218,-134.6111C217.9797,-139.4028 213.2498,-143.7505 208.7563,-148.2998C200.956,-156.2393 193.036,-164.0853 186.0942,-172.8083C185.3483,-173.6466 184.6017,-174.4843 183.8565,-175.3233C183.4425,-175.7895 182.1438,-176.3177 182.6168,-176.7238C193.8626,-186.3779 193.2258,-188.9054 196.1308,-182.5316C198.3231,-177.537 200.6341,-172.5923 202.629,-167.5129C206.8035,-156.7535 210.6525,-145.8567 213.8046,-134.7502C216.3374,-124.1716 218.8429,-113.4256 218.1141,-102.4633C217.8266,-94.9202 217.3841,-87.2389 215.3364,-79.9427C214.6632,-78.0762 214.4306,-77.1236 213.3557,-75.4158C208.633,-67.9123 198.4469,-64.3688 191.7517,-60.1093C183.2311,-55.9217 174.1664,-52.9607 164.5762,-52.9176C163.243,-53.0245 161.8998,-53.0436 160.5765,-53.2383C156.6356,-53.8182 152.962,-55.54 150.2346,-58.4617L162.9615,-66.1029z" stroke="#000" stroke-linecap="round" stroke-linejoin="round" stroke-width="2"/>
<path d="M285.1504,-83.2549C279.2704,-81.6082 266.5253,-73.74 288.7732,-86.471C285.6873,-84.8287 283.8556,-82.1564 282.4117,-79.0736C281.5877,-76.6037 280.7082,-73.8959 280.8873,-71.2445C281.0112,-69.4099 281.4883,-68.4885 282.1122,-66.775C284.5548,-61.9495 288.3109,-57.9808 292.7681,-54.9746C296.0578,-52.6838 299.7974,-51.6413 303.7669,-51.5931C306.8299,-52.2892 309.6761,-53.4821 312.4808,-54.8725C313.6763,-55.4652 317.18,-57.4003 316.0334,-56.7177C302.8176,-48.8508 306.1278,-50.9743 310.8042,-54.1772C314.6548,-57.1431 318.8403,-60.5843 319.8322,-65.6282C319.9707,-66.3328 319.9608,-67.0585 320.0251,-67.7736C319.7705,-74.0822 315.7842,-79.021 311.938,-83.6853C309.5135,-86.3835 306.7679,-88.9566 303.4532,-90.5325C301.7709,-91.3322 300.9086,-91.4744 299.127,-91.9474C295.533,-92.1428 291.7665,-91.8011 288.3544,-90.5627C286.7769,-89.9902 284.386,-88.6593 282.9199,-87.8841C302.9062,-99.8746 289.8107,-91.9587 285.6886,-88.3736L272.0851,-82.8087C278.4156,-88.898 286.8685,-92.4857 294.2269,-96.9393C296.3627,-97.9778 297.6236,-98.6956 299.9061,-99.3886C303.5386,-100.4916 307.4494,-100.7491 311.1907,-100.1978C313.1147,-99.5839 313.8945,-99.429 315.7014,-98.4661C319.0659,-96.6731 321.8405,-93.9498 324.3224,-91.1058C328.3687,-86.1242 332.4762,-80.9616 333.0924,-74.3305C333.0628,-73.5258 333.1121,-72.7144 333.0035,-71.9165C332.2653,-66.4892 328.2283,-62.6312 324.1231,-59.4248C316.1605,-53.7094 320.2406,-56.4756 304.8488,-47.7573C300.8383,-45.4856 296.4513,-43.5622 291.8451,-43.0245C287.6957,-43.3915 283.8349,-44.6143 280.4546,-47.1325C275.8828,-50.4672 272.0386,-54.677 269.3612,-59.693C268.7366,-61.3275 268.0271,-62.8838 267.8135,-64.6468C267.4791,-67.4079 268.3981,-70.3095 269.0633,-72.941C270.3422,-76.1902 271.9653,-79.2701 275.0209,-81.1777C282.2031,-85.3118 288.9239,-90.0555 296.9357,-92.2666L285.1504,-83.2549z" stroke="#000" stroke-linecap="round" stroke-linejoin="round" stroke-width="2"/>
<path d="M347.1504,-77.2549C344.6035,-76.4403 341.9575,-75.7416 339.5363,-74.5814C338.7232,-74.1918 337.9599,-73.7059 337.1716,-73.2681C340.5173,-75.1416 343.863,-77.0152 347.2087,-78.8887C343.2371,-76.2087 340.2901,-73.5303 338.5132,-69.0387C337.3505,-65.3388 337.9081,-62.2103 340.8379,-59.4732C341.5453,-58.8124 342.3768,-58.2984 343.1462,-57.711C348.7467,-54.4938 355.3758,-53.3418 361.7904,-54.0225C363.6291,-54.2176 365.4327,-54.663 367.2538,-54.9833C371.4683,-56.0713 373.305,-56.374 377.2631,-58.0355C378.5761,-58.5866 382.3128,-60.6635 381.0902,-59.9334C363.2909,-49.3046 371.3475,-53.9354 374.1428,-56.7651C374.7627,-57.3926 375.255,-58.1344 375.8111,-58.8191C378.2486,-62.6326 378.3111,-66.0246 376.5942,-70.0879C376.279,-70.8016 374.4627,-74.5447 373.1819,-73.7346C372.9601,-73.5943 372.8477,-73.33 372.6807,-73.1277C392.8977,-84.6564 385.2006,-82.7287 383.2398,-77.11C382.3936,-74.6854 382.2459,-72.3278 382.1295,-69.7816C383.5341,-57.9615 388.7559,-47.0167 393.0457,-36.0346C398.2618,-21.5258 403.2897,-6.47 403.8684,9.092C403.9836,12.189 403.6821,15.2876 403.5889,18.3853C403.1263,21.364 402.8671,24.3813 402.2011,27.3212C400.0287,36.9109 395.0849,45.6892 387.7437,52.2682C386.4496,53.4279 384.9846,54.3816 383.6051,55.4383C378.0848,58.3221 372.8336,61.7934 367.0443,64.0899C364.6445,65.0418 358.8518,63.0561 356.9529,62.2095C349.8949,59.0631 343.7992,53.895 337.8032,49.1621C327.688,40.5031 317.7846,31.4711 308.7355,21.6837C304.0475,16.6133 302.8886,14.9067 298.8166,9.6614C295.3512,3.8792 291.2661,-2.8245 294.6732,-9.6402C296.6895,-13.6737 299.1232,-15.1372 302.5004,-18.074C312.6219,-24.6327 313.4505,-25.3796 328.104,-32.7999C331.6804,-34.6109 343.2136,-38.7065 346.7432,-39.9379C353.7819,-42.3937 361.3514,-44.8267 368.4293,-47.1393C387.0233,-52.5028 405.2349,-59.0355 423.2344,-66.1176C424.7623,-66.7671 426.2923,-67.4118 427.8181,-68.0661C428.9838,-68.566 430.1581,-69.0469 431.3089,-69.5801C433.6612,-70.67 435.8588,-72.019 438.2856,-72.9431C441.5765,-73.4124 442.7308,-69.4505 443.7159,-67.0436C445.9847,-60.9159 447.263,-54.4902 447.8147,-47.9941C447.9509,-45.0837 448.0453,-42.1595 447.6331,-39.2662C447.5909,-38.9704 447.7439,-38.5103 447.473,-38.3842C443.0642,-36.3309 438.4604,-34.7251 433.9541,-32.8956C433.9659,-33.7909 433.9166,-34.689 433.9896,-35.5814C434.0957,-36.8799 434.3191,-38.1662 434.4903,-39.4578C435.49,-46.9958 436.7994,-54.4336 438.3334,-61.8806C439.8884,-68.3767 441.231,-75.18 444.9433,-80.8503C449.1473,-85.2518 458.497,-93.9297 463.0497,-88.879C463.5264,-88.3501 463.8605,-87.7082 464.2658,-87.1228C465.1568,-85.5475 465.9266,-84.351 466.5095,-82.6055C468.1484,-77.6977 468.884,-71.9449 469.7517,-66.8403C470.8843,-62.4227 470.4525,-57.1322 471.7929,-52.8005C473.5655,-57.562 471.775,-52.58 459.0435,-46.5094C458.7853,-46.3863 459.4327,-46.9346 459.5772,-47.1814C459.9087,-47.7474 460.5577,-49.4088 460.8105,-49.919C461.1553,-50.6152 461.549,-51.286 461.9182,-51.9694C464.3127,-55.807 466.3395,-59.8622 468.9779,-63.5425C473.3892,-69.0698 477.5158,-70.2762 485.1519,-74.4725C485.4138,-74.6164 485.7664,-74.5326 486.0475,-74.431C486.4054,-74.3016 486.6836,-74.0129 487.0016,-73.8039C489.988,-70.6628 491.0279,-66.2182 492.0362,-62.1278C492.9125,-57.6742 493.3814,-53.131 495.0104,-48.8712C495.4071,-48.3128 495.7311,-47.6948 496.2004,-47.1959C499.6185,-43.5623 505.2722,-40.8461 509.9343,-39.3687C511.6885,-38.8128 513.4959,-38.4411 515.2767,-37.9773C522.8167,-36.0961 530.3825,-36.0026 537.8823,-38.0643C539.5423,-38.5206 541.2095,-38.9969 542.7819,-39.6981C544.2464,-40.3512 545.5581,-41.3036 546.9463,-42.1064C544.0584,-40.6163 541.3829,-38.6098 538.2826,-37.636C537.087,-37.2605 540.1428,-39.3201 540.9963,-40.2377C543.5122,-42.9425 544.9507,-45.9503 545.9633,-49.4488C546.6579,-52.3622 546.6456,-55.3557 546.5652,-58.3283C545.753,-64.4645 540.332,-58.4252 559.1,-66.0472C559.4417,-66.186 558.8994,-65.3356 558.842,-64.9712C558.7584,-64.4412 558.7327,-63.9037 558.678,-63.37C558.4116,-58.5352 558.3011,-53.6898 558.8385,-48.8729C559.3853,-45.774 559.9781,-42.6077 562.4072,-40.4324C564.1162,-39.3075 565.9299,-39.231 567.8176,-39.8486C572.3605,-42.1411 579.1794,-46.118 558.5218,-34.4558C557.7888,-34.042 559.9393,-35.3644 560.6358,-35.837L574.3857,-41.3039C573.3212,-40.43 573.5147,-40.5201 572.2923,-39.8054C567.6471,-37.0896 561.8948,-32.5533 556.0168,-30.8992C553.7225,-30.6532 551.5833,-31.1524 549.789,-32.6773C547.292,-35.2807 546.4771,-38.6003 545.9205,-42.101C545.3299,-46.9737 545.4484,-51.8684 545.5121,-56.7697C545.5317,-57.4241 545.5891,-59.6985 545.6353,-59.7292C555.3623,-66.1895 558.5071,-72.3046 559.7414,-65.0828C559.8109,-61.9585 559.8144,-58.8161 559.1617,-55.7418C555.9603,-42.9865 547.5064,-40.0804 535.8851,-33.2002C534.4562,-32.4798 533.0874,-31.625 531.5984,-31.0388C522.6477,-27.5147 512.8948,-27.7976 503.6881,-30.0046C501.849,-30.4923 499.9816,-30.8834 498.1708,-31.4678C493.5394,-32.9624 487.0263,-36.1598 483.6105,-39.7531C483.0478,-40.345 482.6426,-41.0688 482.1586,-41.7267C480.5349,-46.0707 480.067,-50.6739 479.2315,-55.2142C478.3895,-58.7321 477.5533,-63.083 474.6465,-65.525C473.9606,-65.439 474.3146,-65.5425 473.6055,-65.1501C477.5343,-67.4822 481.4631,-69.8142 485.392,-72.1463C485.7243,-72.3373 484.7836,-71.6778 484.5048,-71.4148C483.8053,-70.7548 483.2382,-69.9617 482.4827,-69.3567C479.6627,-65.8118 477.6289,-61.7908 475.2736,-57.9352C474.3882,-56.4197 473.6566,-54.9774 473.0931,-53.3151C472.9783,-52.9764 473.1056,-52.4677 472.7992,-52.2834C459.5044,-44.2868 462.4531,-41.0521 458.7423,-45.7121C457.6264,-50.4162 458.1984,-55.4103 457.1115,-60.1366C456.048,-66.7522 455.2298,-73.8382 451.6337,-79.6263C451.0084,-80.3781 450.7399,-81.067 449.7463,-81.2506C449.4773,-81.3003 448.6972,-81.0264 448.9293,-81.1714C452.7843,-83.5799 456.7874,-85.7435 460.684,-88.0841C461.0341,-88.2944 459.9199,-87.7826 459.574,-87.5654C459.1661,-87.3094 458.8163,-86.9709 458.4374,-86.6736C454.0539,-81.4464 452.7319,-74.3891 450.9594,-67.9864C448.9624,-58.7542 447.2481,-49.392 446.9663,-39.9303C442.6611,-37.2917 438.4431,-34.5055 434.0509,-32.0145C433.809,-31.8773 434.2913,-32.5188 434.3689,-32.7859C435.1731,-35.5526 434.9442,-38.4808 434.9437,-41.3192C434.5725,-47.6693 433.3852,-53.9844 430.9595,-59.8902C430.4967,-60.9584 429.6461,-64.0551 428.0273,-64.1645C427.6519,-64.1899 426.9629,-63.8928 426.664,-63.7855C421.876,-61.6536 417.2258,-59.2069 412.2498,-57.5029C394.41,-50.7931 376.4177,-44.5046 358.1221,-39.1385C347.5024,-35.6251 336.8084,-32.2298 326.4071,-28.0958C323.4132,-26.9058 320.6723,-24.9485 317.5147,-24.3088C315.893,-23.9803 323.0914,-27.8472 321.6038,-27.1227C319.4346,-26.0663 317.5039,-24.5777 315.454,-23.3052C311.6254,-20.2317 306.9304,-17.0518 306.0231,-11.7537C305.1302,-6.539 308.4514,-1.7173 310.6976,2.6064C312.0867,4.5044 313.4087,6.4534 314.865,8.3002C324.8107,20.9133 336.9125,31.7349 349.2333,41.9507C355.2776,46.4639 361.4425,51.5105 368.5887,54.2474C370.2378,54.879 371.9681,55.3572 373.7232,55.5527C375.2204,55.7194 379.0476,54.0524 378.2367,55.3221C376.5481,57.9662 373.0607,58.8689 370.4727,60.6424C371.9211,59.6313 373.4539,58.7314 374.818,57.609C382.3953,51.3747 387.7065,42.7683 390.0706,33.2575C390.7888,30.3679 391.0696,27.3869 391.5691,24.4516C391.713,21.3964 392.0786,18.3436 392.0007,15.286C391.6074,-.1509 386.3714,-15.0473 381.0958,-29.3649C376.6203,-40.4339 371.1739,-51.3452 369.2251,-63.2235C369.1596,-66.0352 369.2286,-68.1755 369.9092,-70.8957C369.9473,-71.0478 370.7023,-73.7558 371.0384,-73.9872C375.3553,-76.9602 379.9527,-79.5037 384.4099,-82.2619C384.7489,-82.2349 385.0988,-82.2704 385.4268,-82.1807C387.5325,-81.605 388.5419,-78.9921 389.422,-77.2845C391.2962,-72.8589 391.5534,-68.921 389.1687,-64.5737C388.6277,-63.7989 388.1602,-62.9673 387.5458,-62.2493C383.155,-57.1183 374.373,-53.5169 369.904,-51.0303C365.6297,-48.6519 360.7122,-47.6351 356.0106,-46.5342C354.1284,-46.2519 352.2609,-45.8421 350.3638,-45.6872C343.5879,-45.1342 336.6659,-46.3505 330.8819,-49.9878C330.0515,-50.6505 329.1568,-51.2399 328.3906,-51.9759C325.1513,-55.0883 324.1401,-58.5232 325.2119,-62.8203C326.8277,-67.9581 329.3611,-70.4448 333.6797,-73.6076C342.0135,-78.5311 349.5479,-83.9618 358.9357,-86.2666L347.1504,-77.2549z" stroke="#000" stroke-linecap="round" stroke-linejoin="round" stroke-width="2"/>
<path d="M549.2332,-122.1847C547.4497,-120.0919 546.0244,-117.6969 545.3462,-115.0219C544.8607,-112.3468 546.4564,-111.6609 548.6501,-110.701C552.1989,-109.4013 555.2322,-109.544 558.8667,-110.1867C563.727,-111.8529 571.4457,-116.6009 549.8419,-104.683C549.5386,-104.5156 550.4174,-105.0731 550.6735,-105.3066C551.283,-105.8622 551.3443,-106.0922 551.7431,-106.7885C552.4769,-108.4348 552.405,-109.9757 551.4599,-111.492C550.2026,-112.6833 548.3125,-112.5716 546.6902,-112.6506C545.0147,-112.4957 543.4191,-112.0801 542.057,-111.0753L553.6269,-120.3929C555.2743,-121.0166 556.9597,-121.4107 558.7396,-121.2691C560.8571,-121.0599 562.9403,-120.7594 564.3134,-118.9498C565.4318,-117.0683 565.8738,-115.1231 565.2275,-112.9755C562.8838,-105.9037 553.9818,-103.0447 547.0943,-101.3611C543.4244,-100.8997 539.7964,-101.101 536.3461,-102.5755C533.866,-103.8553 531.6424,-105.4567 532.0181,-108.5614C532.4759,-111.4436 533.8818,-114.0254 535.5706,-116.3799L549.2332,-122.1847z" stroke="#000" stroke-linecap="round" stroke-linejoin="round" stroke-width="2"/>
<path d="M359.6057,-86.1453C362.4187,-87.5125 365.103,-89.129 368.0047,-90.3079C369.8229,-91.4887 371.8175,-92.0343 373.9447,-92.2669C375.9013,-92.4156 377.8658,-92.3906 379.8266,-92.3838C381.7726,-92.5908 383.4211,-92.0588 385.1306,-91.2244C386.3272,-90.2653 387.2717,-88.9911 388.1806,-87.7589C388.971,-86.3232 389.4355,-84.7124 389.9217,-83.1481C390.3578,-81.5453 390.9514,-80.0138 391.2655,-78.376C391.5681,-76.4533 391.5887,-74.5022 391.6123,-72.5605C391.6209,-71.5593 391.6196,-70.5581 391.6191,-69.5568L378.4016,-62.8239C378.4031,-63.8201 378.4051,-64.8163 378.4006,-65.8125C378.3869,-67.6761 378.3836,-69.5468 378.1492,-71.3987C377.8884,-72.9952 377.3044,-74.4635 376.8794,-76.0128C376.4669,-77.4199 376.0218,-78.8533 375.3829,-80.165C374.6051,-81.185 373.8481,-82.3496 372.73,-83.0103C371.1597,-83.6924 369.5221,-83.7365 367.825,-83.6633C365.9059,-83.6547 363.9742,-83.6641 362.0745,-83.3541C360.0654,-82.9292 358.2552,-82.0648 356.4262,-81.1471C353.5803,-79.8236 350.8275,-78.3064 348.069,-76.8116L359.6057,-86.1453z" stroke="#000" stroke-linecap="round" stroke-linejoin="round" stroke-width="2"/>
</g>
<path d="M78.5474,38.3187H265.4256A15.9099,15.9099 0 0 1 281.3355,54.2286V54.2286A15.9099,15.9099 0 0 1 265.4256,70.1385H78.5474A15.9099,15.9099 0 0 1 62.6375,54.2286V54.2286A15.9099,15.9099 0 0 1 78.5474,38.3187z" fill="#fff" stroke="#000" stroke-linecap="round" stroke-linejoin="round" stroke-width="4"/>
<path d="M101.5203,44.9288A36.8706,34.8503 0 1 1 27.7792,44.9288A36.8706,34.8503 0 1 1 101.5203,44.9288z" stroke="#000" stroke-linecap="round" stroke-linejoin="round" stroke-width="7.491" transform="matrix(.7121,0,0,.7121,17.35112,15.94152)"/>
<text font-family="Bitstream Vera Sans" font-size="40" x="39.0004" y="61.9761">
   <tspan fill="#f9f9f9" x="39.0004" y="61.9761">58</tspan>
  </text>
<text font-family="Bitstream Vera Sans" font-size="20" x="128.9107" y="60.9956">
   <tspan x="128.9107" y="60.9956">Mystère</tspan>
  </text>
<text font-family="Bitstream Vera Sans" font-size="20" x="161.1197" y="129.5155">
   <tspan text-align="center" text-anchor="middle" x="161.1197" y="129.5155"></tspan>
  </text>
<g transform="translate(-47.4772,-13.132)">
<path d="m192.8571,317.5c0,3.3532-24.7842,6.0714-55.3571,6.0714-30.5729,0-55.3571,-2.7183-55.3571,-6.0714 0,-3.3532 24.7842,-6.0714 55.3571,-6.0714 30.5729,0 55.3571,2.7183 55.3571,6.0714z" stroke="#000" stroke-linejoin="round" stroke-width="2" transform="matrix(1.42991,0,0,1.42991,-3.3547822e-2,189.77449)"/>
<path d="M274.6623,524.789L274.6623,593.265C274.6623,621.8731 251.6312,644.9042 223.023,644.9042L172.3557,644.9042C143.7475,644.9042 120.7164,621.8731 120.7164,593.265L120.7164,524.789" fill="#fff" stroke="#000" stroke-linecap="round" stroke-linejoin="round" stroke-width="5.208"/>
<path d="M221.4376,553.1176H250.6261A3.3472,3.3472 0 0 1 253.9733,556.4648V566.3382A3.3472,3.3472 0 0 1 250.6261,569.6854H221.4376A3.3472,3.3472 0 0 1 218.0904,566.3382V556.4648A3.3472,3.3472 0 0 1 221.4376,553.1176z" stroke="#000" stroke-linecap="square" stroke-linejoin="round" stroke-width="5.339"/>
<path d="M124.017,560.3451C124.8023,560.3601 125.5878,560.3549 126.3732,560.351C126.8922,560.3479 127.4112,560.3459 127.9302,560.3449C128.3485,560.3443 128.7667,560.3443 129.1849,560.3443C129.6197,560.3434 130.0544,560.3452 130.4892,560.346C131.0477,560.3322 131.5976,560.3455 132.1507,560.4185C132.7221,560.4965 133.299,560.521 133.8754,560.5368C134.4548,560.5142 135.0235,560.6209 135.597,560.6784C136.1803,560.731 136.7667,560.7365 137.3521,560.7428C137.9672,560.7461 138.5823,560.7458 139.1973,560.7437C139.7315,560.7426 140.2657,560.7418 140.7999,560.7405C141.239,560.7394 141.678,560.7391 142.117,560.7389C142.5339,560.7388 142.9506,560.7388 143.3675,560.7388C143.7844,560.7389 144.2012,560.7389 144.6181,560.7389C145.0738,560.7383 145.5295,560.7396 145.9852,560.7417C146.5489,560.745 147.1127,560.7423 147.6765,560.7408C148.2068,560.7404 148.7371,560.7414 149.2675,560.7429C149.8348,560.7427 150.402,560.7428 150.9693,560.7414C151.5126,560.7416 152.0559,560.7424 152.5992,560.7416C153.0934,560.7398 153.5875,560.7395 154.0817,560.7419C154.8441,560.7457 155.6065,560.7479 156.3689,560.7506C157.4079,560.7547 158.447,560.7555 159.486,560.7521C160.2485,560.7501 161.0109,560.7446 161.7734,560.7443C162.4044,560.7452 163.0355,560.7443 163.6665,560.7422C163.7538,560.7419 163.8412,560.7416 163.9286,560.7413L161.432,562.4562C161.3455,562.4559 161.2589,562.4556 161.1724,562.4553C160.5435,562.4532 159.9145,562.4522 159.2856,562.4532C158.5307,562.4528 157.7757,562.4473 157.0208,562.4454C155.9804,562.4419 154.94,562.4428 153.8996,562.4468C153.1287,562.4495 152.3579,562.4518 151.5871,562.4555C151.0926,562.4579 150.5981,562.4577 150.1036,562.4559C149.56,562.4551 149.0165,562.4558 148.473,562.4561C147.9072,562.4547 147.3414,562.4548 146.7756,562.4546C146.2432,562.456 145.7107,562.4571 145.1783,562.4567C144.6154,562.4552 144.0525,562.4524 143.4896,562.4558C143.0313,562.4578 142.5729,562.4591 142.1145,562.4586C141.6976,562.4586 141.2807,562.4586 140.8638,562.4586C140.4471,562.4586 140.0304,562.4586 139.6137,562.4585C139.1761,562.4583 138.7386,562.458 138.301,562.4571C137.7691,562.4561 137.2371,562.4559 136.7052,562.4559C136.0901,562.4547 135.475,562.4569 134.8599,562.45C134.2669,562.442 133.6728,562.4292 133.0829,562.365C132.5155,562.3013 131.9504,562.226 131.377,562.2407C130.7938,562.219 130.2118,562.1785 129.6335,562.1023C129.0873,562.0445 128.5391,562.0606 127.9901,562.0625C127.5538,562.0633 127.1175,562.0651 126.6811,562.0642C126.2634,562.0642 125.8458,562.0642 125.4281,562.0636C124.915,562.0626 124.4018,562.0606 123.8887,562.0575C123.0977,562.0536 122.3065,562.0487 121.5155,562.0634L124.017,560.3451z" stroke="#000" stroke-linecap="square" stroke-linejoin="round" stroke-width=".6816"/>
<path d="M254.846,560.7408C255.8524,560.7576 256.8592,560.7554 257.8657,560.7547C258.7883,560.7534 259.711,560.7509 260.6336,560.7467C261.2501,560.7433 261.8667,560.7432 262.4832,560.7424C262.9691,560.7412 263.455,560.74 263.9408,560.7394C264.3653,560.7703 264.7731,560.6572 265.1903,560.6027C265.6087,560.5539 266.0306,560.5469 266.4516,560.5419C266.8693,560.5389 267.2871,560.5402 267.7049,560.5407C268.1221,560.5413 268.5393,560.5415 268.9566,560.5416C269.3738,560.5417 269.791,560.5417 270.2083,560.5417C270.6255,560.5417 271.0427,560.5417 271.46,560.5417C271.9079,560.5408 272.3559,560.5432 272.8038,560.5433C273.2575,560.5429 273.7111,560.5423 274.1647,560.5419C274.5849,560.5417 275.005,560.5417 275.4251,560.5416C275.703,560.5416 275.5641,560.5416 275.8419,560.5416L273.3383,562.2614C273.0605,562.2614 273.1994,562.2614 272.9215,562.2614C272.5017,562.2613 272.0818,562.2613 271.662,562.261C271.2097,562.2607 270.7573,562.2601 270.305,562.2597C269.8554,562.2598 269.4059,562.2622 268.9564,562.2613C268.5392,562.2614 268.1219,562.2614 267.7047,562.2614C267.2874,562.2613 266.8701,562.2613 266.4529,562.2612C266.0356,562.261 265.6183,562.2607 265.2011,562.2601C264.7846,562.2598 264.368,562.2586 263.9516,562.2663C263.5378,562.2769 263.1235,562.2942 262.7143,562.3572C262.2909,562.4219 261.8699,562.4868 261.4387,562.4581C260.9557,562.4574 260.4728,562.4562 259.9899,562.4551C259.3775,562.4543 258.7652,562.4542 258.1528,562.4507C257.2379,562.4466 256.323,562.444 255.4081,562.4428C254.3881,562.4421 253.3679,562.4401 252.3479,562.4567L254.846,560.7408z" stroke="#000" stroke-linecap="square" stroke-linejoin="round" stroke-width=".6816"/>
<path d="M197.231,560.9742C197.9944,561.0708 198.7647,561.1012 199.5338,561.1241C200.2203,561.1406 200.907,561.1407 201.5936,561.1388C202.1605,561.1381 202.7274,561.1379 203.2942,561.1366C204.4321,561.1658 205.5706,561.1514 206.7087,561.1462C207.3964,561.1411 208.0841,561.1391 208.7718,561.1363C209.3202,561.1363 209.8686,561.1357 210.417,561.1371C210.9936,561.1389 211.5701,561.1358 212.1466,561.1367C212.6669,561.1354 213.1871,561.1356 213.7073,561.1357C214.2283,561.1365 214.7493,561.136 215.2704,561.135C215.7681,561.1367 216.2657,561.1351 216.7634,561.1344C217.2504,561.1364 217.7374,561.135 218.2243,561.1343C218.6544,561.1337 219.0846,561.1335 219.5147,561.1334C219.8745,561.217 220.2363,561.2772 220.6054,561.3063C221.0056,561.3309 221.4069,561.331 221.8078,561.332C222.2249,561.3323 222.6419,561.3315 223.059,561.3311C223.2678,561.3309 223.4766,561.3308 223.6854,561.3307L221.1819,563.0505C220.9731,563.0507 220.7644,563.0508 220.5556,563.051C220.1381,563.0515 219.7205,563.0525 219.303,563.0504C218.8952,563.047 218.4865,563.0433 218.0805,563.0031C217.7222,562.9611 217.3714,562.8749 217.0112,562.853C216.582,562.8529 216.1527,562.8527 215.7235,562.8521C215.2366,562.8514 214.7497,562.85 214.2628,562.852C213.7657,562.8513 213.2686,562.8497 212.7715,562.8514C212.2512,562.8504 211.7309,562.8499 211.2106,562.8507C210.6913,562.8508 210.172,562.851 209.6527,562.8497C209.0766,562.8506 208.5005,562.8475 207.9244,562.8493C207.3751,562.8507 206.8259,562.8501 206.2766,562.8501C205.5987,562.8473 204.9207,562.8453 204.2427,562.8402C203.0949,562.8349 201.9466,562.8213 200.799,562.8507C200.2331,562.8501 199.6672,562.8514 199.1013,562.8502C198.4171,562.8461 197.7329,562.8407 197.049,562.8179C196.2659,562.7877 195.4837,562.741 194.7039,562.665L197.231,560.9742z" stroke="#000" stroke-linecap="square" stroke-linejoin="round" stroke-width=".6816"/>
<path d="M142.1732,506.9047L142.1732,533.4198" fill="none" stroke="#000" stroke-linecap="round" stroke-width="6.8702"/>
<path d="M155.7916,504.3962L155.7916,530.9112" fill="none" stroke="#000" stroke-linecap="round" stroke-width="6.8702"/>
<path d="M168.5706,506.49L168.5706,533.005" fill="none" stroke="#000" stroke-linecap="round" stroke-width="6.8702"/>
<path d="M185.2672,504.8209L185.2672,531.336" fill="none" stroke="#000" stroke-linecap="round" stroke-width="6.8702"/>
<path d="M199.7931,507.9476L199.7931,534.4626" fill="none" stroke="#000" stroke-linecap="round" stroke-width="6.8702"/>
<path d="M216.4219,507.6968L216.4219,534.2119" fill="none" stroke="#000" stroke-linecap="round" stroke-width="6.8702"/>
<path d="M231.4395,505.2457L231.4395,531.7607" fill="none" stroke="#000" stroke-linecap="round" stroke-width="6.8702"/>
<path d="M245.6176,509.5881L245.6176,536.1032" fill="none" stroke="#000" stroke-linecap="round" stroke-width="6.8702"/>
<path d="M260.879,509.061L260.879,535.5761" fill="none" stroke="#000" stroke-linecap="round" stroke-width="6.8702"/>
<path d="M130.8995,513.6685L130.8995,540.1835" fill="none" stroke="#000" stroke-linecap="round" stroke-width="6.8702"/>
<path d="M163.3079,553.4162H192.4964A3.3472,3.3472 0 0 1 195.8436,556.7634V566.6368A3.3472,3.3472 0 0 1 192.4964,569.984H163.3079A3.3472,3.3472 0 0 1 159.9607,566.6368V556.7634A3.3472,3.3472 0 0 1 163.3079,553.4162z" stroke="#000" stroke-linecap="square" stroke-linejoin="round" stroke-width="5.339"/>
<path d="M196.1322,615.5881L163.4486,611.5027" fill="none" stroke="#000" stroke-width="1.4299"/>
</g>
<text font-family="Bitstream Vera Sans" font-size="20" x="177.1275" y="299.3539">
   <tspan text-align="center" text-anchor="middle" x="177.1275" y="299.3539">Penchons nous sur un</tspan>
   <tspan text-align="center" text-anchor="middle" x="177.1275" y="324.3539">des plus grands mystères</tspan>
   <tspan text-align="center" text-anchor="middle" x="177.1275" y="349.3539">de ce siècle !</tspan>
  </text>
<path d="M658.2935,559.074H683.2821A7.2037,7.2037 0 0 1 690.4857,566.2776V693.7273A7.2037,7.2037 0 0 1 683.2821,700.931H658.2935A7.2037,7.2037 0 0 1 651.0898,693.7273V566.2776A7.2037,7.2037 0 0 1 658.2935,559.074z" fill="#fff" stroke="#000" stroke-linejoin="round" stroke-width="5.2372" transform="matrix(1,0,-.41135,.91148,0,0)"/>
<path d="M-276.3256,558.5198H-251.337A7.2037,7.2037 0 0 1 -244.1334,565.7235V693.1731A7.2037,7.2037 0 0 1 -251.337,700.3768H-276.3256A7.2037,7.2037 0 0 1 -283.5293,693.1731V565.7235A7.2037,7.2037 0 0 1 -276.3256,558.5198z" fill="#fff" stroke="#000" stroke-linejoin="round" stroke-width="5.2372" transform="matrix(-1,0,.41135,.91148,0,0)"/>
<path d="M379.5684,160.7654H562.904A64.9058,64.9058 0 0 1 627.8098,225.6712V470.6262A64.9058,64.9058 0 0 1 562.904,535.532H379.5684A64.9058,64.9058 0 0 1 314.6625,470.6262V225.6712A64.9058,64.9058 0 0 1 379.5684,160.7654z" fill="#fff" stroke="#000" stroke-linejoin="round" stroke-width="5"/>
<path d="M149.5026,458.0659L183.8478,372.2029" fill="none" stroke="#000"/>
<path d="M213.2089,587.2987L359.9097,452.0718" fill="none" stroke="#000" stroke-linecap="round" stroke-width="8.1132"/>
<path d="M408.4323,400.5434C407.6349,391.5524 407.216,382.2429 407.216,372.708C393.2009,274.8625 421.1297,238.5436 466.6905,234.9467C525.8776,230.274 539.7614,289.0158 526.165,372.708C524.3606,383.8148 524.5714,393.889 523.4709,404.3605" fill="#fff" stroke="#000" stroke-linecap="round" stroke-linejoin="round" stroke-width="7.6868"/>
<path d="M508.1067,327.7562A33.8401,19.1929 0 1 1 440.4265,327.7562A33.8401,19.1929 0 1 1 508.1067,327.7562z" fill="#fff" stroke="#000" stroke-linecap="round" stroke-linejoin="round" stroke-width="7.5" transform="translate(2.0203,7.0711)"/>
<path d="M474.7717,271.6928A7.0711,15.6574 0 1 1 460.6295,271.6928A7.0711,15.6574 0 1 1 474.7717,271.6928z" fill="#fff" stroke="#000" stroke-linecap="round" stroke-linejoin="round" stroke-width="3.75" transform="translate(-5.0508,21.2132)"/>
<path d="M474.7717,271.6928A7.0711,15.6574 0 1 1 460.6295,271.6928A7.0711,15.6574 0 1 1 474.7717,271.6928z" fill="#fff" stroke="#000" stroke-linecap="round" stroke-linejoin="round" stroke-width="3.75" transform="translate(16.1624,21.7183)"/>
<text font-family="Bitstream Vera Sans" font-size="24.892" x="471.7556" y="189.7449">
   <tspan text-align="center" text-anchor="middle" x="471.7556" y="189.7449">LE CORPS DE</tspan>
   <tspan text-align="center" text-anchor="middle" x="471.7556" y="220.8598">TAUPIQUEUR</tspan>
  </text>
<path d="M384.8681,403.5177C387.9351,404.7824 397.4485,404.9183 403.0509,403.5177C412.6415,401.12 417.528,400.1522 424.2641,393.4162C435.5771,382.1031 442.7315,386.6298 449.5179,393.4162C454.3077,398.206 455.0211,397.4568 461.6397,397.4568C474.4637,397.4568 481.6827,385.1749 490.9341,394.4263C495.9044,399.3966 497.7817,395.2398 505.0763,393.4162C507.3685,392.8431 514.5635,399.675 516.188,400.4872C521.1009,402.9437 525.0287,403.8974 528.3098,405.538C538.4408,410.6035 535.4752,415.8684 544.4722,413.6192C545.1255,413.4559 545.8191,413.6192 546.4925,413.6192" fill="none" stroke="#000" stroke-width="7.5"/>
<text font-family="Bitstream Vera Sans" font-size="20" x="543.462" y="498.472">
   <tspan font-size="100" x="543.462" y="498.472">?</tspan>
  </text>
<g transform="matrix(.50312,-.86421,.86421,.50312,-95.34819,629.38085)">
<path d="M460.7558,465.6421L460.7558,416.5234L472.4989,428.2664" fill="none" stroke="#000" stroke-width="5"/>
<path d="M455.8945,465.5789L455.8945,416.4602L444.1515,428.2033" fill="none" stroke="#000" stroke-width="5"/>
</g>
</svg>
