<svg version="1.0" viewBox="0 0 900 450" xmlns="http://www.w3.org/2000/svg" xmlns:svg="http://www.w3.org/2000/svg">
<text font-family="Bitstream Vera Sans" font-size="20" x="157.5482" y="139.5155">
   <tspan text-align="center" text-anchor="middle" x="157.5482" y="139.5155"></tspan>
  </text>
<path d="M-337.4261,755.6886H-147.2172A7.5735,7.5735 0 0 1 -139.6436,763.2621V799.6151A7.5735,7.5735 0 0 1 -147.2172,807.1886H-337.4261A7.5735,7.5735 0 0 1 -344.9997,799.6151V763.2621A7.5735,7.5735 0 0 1 -337.4261,755.6886z" stroke="#000" stroke-linecap="round" stroke-linejoin="round" stroke-width="5.8088" transform="matrix(1,0,.87861,.47753,0,0)"/>
<path d="M48.4773,80.7678H829.4792A31.621,31.621 0 0 1 861.1003,112.3889V360.7377A31.621,31.621 0 0 1 829.4792,392.3587H48.4773A31.621,31.621 0 0 1 16.8563,360.7377V112.3889A31.621,31.621 0 0 1 48.4773,80.7678z" fill="#fff" stroke="#000" stroke-linecap="round" stroke-width="7.4907"/>
<path d="m154.2857,169.6429a61.4286,8.2143 0 1 1 -122.8571,0 61.4286,8.2143 0 1 1 122.8571,0z" stroke="#000" transform="matrix(.74538,0,0,.74538,739.75991,238.37875)"/>
<path d="M16.8767,327.5583L862.3744,327.5583" fill="none" stroke="#000"/>
<path d="m798.9759,279.3089 24.0751,0c3.9131,21.0438 22.4214,15.9221 24.6992,24.6992l-4.1412,38.3591c-8.1662,14.3639-18.6149,23.4815-28.8405,23.1934l-6.3807,0c-10.3428,-.5569-26.1734,-12.9664-28.8405,-26.2052l-5.2707,-35.3472c1.6086,-6.0999 16.0456,-.9877 24.6992,-24.6992z" fill="#fff" stroke="#000" stroke-linecap="round" stroke-linejoin="round" stroke-width="2.7147"/>
<path d="M290.3879,76.7286L290.3879,390.619" fill="none" stroke="#000" stroke-width="5.6784"/>
<g transform="matrix(.12574,0,0,.12574,818.82317,419.90368)">
<path d="M162.9615,-66.1029C166.455,-62.0454 171.1969,-61.5587 176.2443,-61.2734C182.6298,-61.4455 189.026,-62.9739 194.9925,-65.2443C198.1805,-66.4574 199.9424,-67.4904 202.9171,-69.0527C185.1139,-58.637 195.0252,-64.2154 198.3536,-67.7512C200.078,-69.5831 201.1079,-71.5131 202.0803,-73.8002C204.6069,-80.9176 204.9343,-88.5711 205.3652,-96.044C206.205,-106.9224 203.9531,-117.6028 201.5284,-128.1342C198.5789,-139.2121 194.5731,-149.9773 190.1613,-160.547C188.0488,-165.5407 185.6597,-170.4087 183.3326,-175.3036C180.1965,-181.3209 177.6309,-177.584 195.344,-184.4552C195.9544,-184.6919 196.0751,-183.3682 196.4662,-182.8431C197.1211,-181.9638 197.8094,-181.1099 198.4809,-180.2434C205.0155,-171.2763 212.8739,-163.4194 220.7492,-155.6472C225.3824,-151.1349 230.3508,-146.9467 234.7812,-142.2286C236.4627,-140.8555 237.4679,-138.92 238.8212,-137.2745C240.143,-136.0803 241.1771,-137.3375 242.3452,-138.1546C221.9421,-125.9198 229.2084,-129.8742 233.1206,-133.6257C234.6613,-135.103 236.1138,-136.6818 237.5889,-138.2234C239.6824,-140.3121 241.6662,-142.5484 243.9587,-144.4296C250.0105,-149.3955 258.4541,-153.3638 264.7123,-156.9238C270.4949,-159.4778 276.4106,-161.6997 282.419,-163.6577C283.6619,-163.9272 288.4708,-165.7766 289.5688,-164.5267C289.8243,-164.2359 289.9278,-163.8408 290.1072,-163.4978C290.1321,-163.1471 290.2293,-162.7941 290.1818,-162.4458C289.8354,-159.9037 285.8996,-156.946 284.1819,-155.3646C276.2864,-148.8374 268.6258,-142.0481 261.3333,-134.8534C254.99,-128.0483 248.4375,-121.3307 243.3873,-113.4811C240.2691,-108.5784 238.6116,-103.1651 237.8336,-97.4612C237.3182,-92.3602 237.4023,-87.2238 237.4103,-82.1038C237.6896,-76.538 238.3996,-70.961 240.0566,-65.6294C241.0066,-62.7897 242.6958,-60.7035 245.3984,-59.4565C247.1918,-58.8245 249.2452,-58.4083 251.1546,-58.7689C251.5988,-58.8529 255.3028,-60.1078 255.5991,-60.2068C259.9663,-62.5901 270.5149,-68.1635 250.7739,-57.3451C249.993,-56.9172 252.2774,-58.3004 253.0176,-58.7957C254.7175,-59.9333 255.126,-60.2677 256.721,-61.457C258.634,-62.8882 257.7277,-62.1927 259.444,-63.5378L273.1151,-69.0361C271.3827,-67.5797 272.3103,-68.3061 270.3191,-66.8738C262.2562,-60.6484 253.3247,-55.4952 244.0683,-51.2776C240.0071,-50.0654 237.0083,-49.4853 233.0532,-51.3558C230.1407,-52.9982 228.2379,-55.381 227.2136,-58.6022C225.5902,-64.0918 224.9779,-69.8068 224.4451,-75.4915C224.414,-80.6627 224.3292,-85.8471 224.7473,-91.006C225.4856,-96.9163 227.043,-102.5571 230.2219,-107.6713C230.8593,-108.7308 231.4383,-109.8277 232.1341,-110.8497C233.5635,-112.949 235.6974,-115.3519 237.3267,-117.2406C240.9264,-121.4136 244.6087,-125.5129 248.4113,-129.5027C255.5038,-136.6573 262.9793,-143.4183 270.7308,-149.8547C272.9266,-151.8936 275.199,-153.8815 277.0938,-156.2117C277.4084,-156.0458 276.3957,-156.0728 276.0435,-156.0235C274.2856,-155.7778 272.5938,-155.2318 270.901,-154.7183C264.9598,-152.7572 259.0786,-150.5816 253.4382,-147.8602C272.8794,-159.3576 261.1903,-152.8293 257.3908,-149.9058C255.0765,-148.125 253.0963,-145.926 251.0661,-143.8444C243.704,-136.0782 243.2815,-135.2558 230.8263,-128.8268C228.7851,-127.8625 227.644,-127.977 226.0472,-129.6547C224.7873,-131.3205 223.7779,-133.1781 222.2218,-134.6111C217.9797,-139.4028 213.2498,-143.7505 208.7563,-148.2998C200.956,-156.2393 193.036,-164.0853 186.0942,-172.8083C185.3483,-173.6466 184.6017,-174.4843 183.8565,-175.3233C183.4425,-175.7895 182.1438,-176.3177 182.6168,-176.7238C193.8626,-186.3779 193.2258,-188.9054 196.1308,-182.5316C198.3231,-177.537 200.6341,-172.5923 202.629,-167.5129C206.8035,-156.7535 210.6525,-145.8567 213.8046,-134.7502C216.3374,-124.1716 218.8429,-113.4256 218.1141,-102.4633C217.8266,-94.9202 217.3841,-87.2389 215.3364,-79.9427C214.6632,-78.0762 214.4306,-77.1236 213.3557,-75.4158C208.633,-67.9123 198.4469,-64.3688 191.7517,-60.1093C183.2311,-55.9217 174.1664,-52.9607 164.5762,-52.9176C163.243,-53.0245 161.8998,-53.0436 160.5765,-53.2383C156.6356,-53.8182 152.962,-55.54 150.2346,-58.4617L162.9615,-66.1029z" stroke="#000" stroke-linecap="round" stroke-linejoin="round" stroke-width="2"/>
<path d="M285.1504,-83.2549C279.2704,-81.6082 266.5253,-73.74 288.7732,-86.471C285.6873,-84.8287 283.8556,-82.1564 282.4117,-79.0736C281.5877,-76.6037 280.7082,-73.8959 280.8873,-71.2445C281.0112,-69.4099 281.4883,-68.4885 282.1122,-66.775C284.5548,-61.9495 288.3109,-57.9808 292.7681,-54.9746C296.0578,-52.6838 299.7974,-51.6413 303.7669,-51.5931C306.8299,-52.2892 309.6761,-53.4821 312.4808,-54.8725C313.6763,-55.4652 317.18,-57.4003 316.0334,-56.7177C302.8176,-48.8508 306.1278,-50.9743 310.8042,-54.1772C314.6548,-57.1431 318.8403,-60.5843 319.8322,-65.6282C319.9707,-66.3328 319.9608,-67.0585 320.0251,-67.7736C319.7705,-74.0822 315.7842,-79.021 311.938,-83.6853C309.5135,-86.3835 306.7679,-88.9566 303.4532,-90.5325C301.7709,-91.3322 300.9086,-91.4744 299.127,-91.9474C295.533,-92.1428 291.7665,-91.8011 288.3544,-90.5627C286.7769,-89.9902 284.386,-88.6593 282.9199,-87.8841C302.9062,-99.8746 289.8107,-91.9587 285.6886,-88.3736L272.0851,-82.8087C278.4156,-88.898 286.8685,-92.4857 294.2269,-96.9393C296.3627,-97.9778 297.6236,-98.6956 299.9061,-99.3886C303.5386,-100.4916 307.4494,-100.7491 311.1907,-100.1978C313.1147,-99.5839 313.8945,-99.429 315.7014,-98.4661C319.0659,-96.6731 321.8405,-93.9498 324.3224,-91.1058C328.3687,-86.1242 332.4762,-80.9616 333.0924,-74.3305C333.0628,-73.5258 333.1121,-72.7144 333.0035,-71.9165C332.2653,-66.4892 328.2283,-62.6312 324.1231,-59.4248C316.1605,-53.7094 320.2406,-56.4756 304.8488,-47.7573C300.8383,-45.4856 296.4513,-43.5622 291.8451,-43.0245C287.6957,-43.3915 283.8349,-44.6143 280.4546,-47.1325C275.8828,-50.4672 272.0386,-54.677 269.3612,-59.693C268.7366,-61.3275 268.0271,-62.8838 267.8135,-64.6468C267.4791,-67.4079 268.3981,-70.3095 269.0633,-72.941C270.3422,-76.1902 271.9653,-79.2701 275.0209,-81.1777C282.2031,-85.3118 288.9239,-90.0555 296.9357,-92.2666L285.1504,-83.2549z" stroke="#000" stroke-linecap="round" stroke-linejoin="round" stroke-width="2"/>
<path d="M347.1504,-77.2549C344.6035,-76.4403 341.9575,-75.7416 339.5363,-74.5814C338.7232,-74.1918 337.9599,-73.7059 337.1716,-73.2681C340.5173,-75.1416 343.863,-77.0152 347.2087,-78.8887C343.2371,-76.2087 340.2901,-73.5303 338.5132,-69.0387C337.3505,-65.3388 337.9081,-62.2103 340.8379,-59.4732C341.5453,-58.8124 342.3768,-58.2984 343.1462,-57.711C348.7467,-54.4938 355.3758,-53.3418 361.7904,-54.0225C363.6291,-54.2176 365.4327,-54.663 367.2538,-54.9833C371.4683,-56.0713 373.305,-56.374 377.2631,-58.0355C378.5761,-58.5866 382.3128,-60.6635 381.0902,-59.9334C363.2909,-49.3046 371.3475,-53.9354 374.1428,-56.7651C374.7627,-57.3926 375.255,-58.1344 375.8111,-58.8191C378.2486,-62.6326 378.3111,-66.0246 376.5942,-70.0879C376.279,-70.8016 374.4627,-74.5447 373.1819,-73.7346C372.9601,-73.5943 372.8477,-73.33 372.6807,-73.1277C392.8977,-84.6564 385.2006,-82.7287 383.2398,-77.11C382.3936,-74.6854 382.2459,-72.3278 382.1295,-69.7816C383.5341,-57.9615 388.7559,-47.0167 393.0457,-36.0346C398.2618,-21.5258 403.2897,-6.47 403.8684,9.092C403.9836,12.189 403.6821,15.2876 403.5889,18.3853C403.1263,21.364 402.8671,24.3813 402.2011,27.3212C400.0287,36.9109 395.0849,45.6892 387.7437,52.2682C386.4496,53.4279 384.9846,54.3816 383.6051,55.4383C378.0848,58.3221 372.8336,61.7934 367.0443,64.0899C364.6445,65.0418 358.8518,63.0561 356.9529,62.2095C349.8949,59.0631 343.7992,53.895 337.8032,49.1621C327.688,40.5031 317.7846,31.4711 308.7355,21.6837C304.0475,16.6133 302.8886,14.9067 298.8166,9.6614C295.3512,3.8792 291.2661,-2.8245 294.6732,-9.6402C296.6895,-13.6737 299.1232,-15.1372 302.5004,-18.074C312.6219,-24.6327 313.4505,-25.3796 328.104,-32.7999C331.6804,-34.6109 343.2136,-38.7065 346.7432,-39.9379C353.7819,-42.3937 361.3514,-44.8267 368.4293,-47.1393C387.0233,-52.5028 405.2349,-59.0355 423.2344,-66.1176C424.7623,-66.7671 426.2923,-67.4118 427.8181,-68.0661C428.9838,-68.566 430.1581,-69.0469 431.3089,-69.5801C433.6612,-70.67 435.8588,-72.019 438.2856,-72.9431C441.5765,-73.4124 442.7308,-69.4505 443.7159,-67.0436C445.9847,-60.9159 447.263,-54.4902 447.8147,-47.9941C447.9509,-45.0837 448.0453,-42.1595 447.6331,-39.2662C447.5909,-38.9704 447.7439,-38.5103 447.473,-38.3842C443.0642,-36.3309 438.4604,-34.7251 433.9541,-32.8956C433.9659,-33.7909 433.9166,-34.689 433.9896,-35.5814C434.0957,-36.8799 434.3191,-38.1662 434.4903,-39.4578C435.49,-46.9958 436.7994,-54.4336 438.3334,-61.8806C439.8884,-68.3767 441.231,-75.18 444.9433,-80.8503C449.1473,-85.2518 458.497,-93.9297 463.0497,-88.879C463.5264,-88.3501 463.8605,-87.7082 464.2658,-87.1228C465.1568,-85.5475 465.9266,-84.351 466.5095,-82.6055C468.1484,-77.6977 468.884,-71.9449 469.7517,-66.8403C470.8843,-62.4227 470.4525,-57.1322 471.7929,-52.8005C473.5655,-57.562 471.775,-52.58 459.0435,-46.5094C458.7853,-46.3863 459.4327,-46.9346 459.5772,-47.1814C459.9087,-47.7474 460.5577,-49.4088 460.8105,-49.919C461.1553,-50.6152 461.549,-51.286 461.9182,-51.9694C464.3127,-55.807 466.3395,-59.8622 468.9779,-63.5425C473.3892,-69.0698 477.5158,-70.2762 485.1519,-74.4725C485.4138,-74.6164 485.7664,-74.5326 486.0475,-74.431C486.4054,-74.3016 486.6836,-74.0129 487.0016,-73.8039C489.988,-70.6628 491.0279,-66.2182 492.0362,-62.1278C492.9125,-57.6742 493.3814,-53.131 495.0104,-48.8712C495.4071,-48.3128 495.7311,-47.6948 496.2004,-47.1959C499.6185,-43.5623 505.2722,-40.8461 509.9343,-39.3687C511.6885,-38.8128 513.4959,-38.4411 515.2767,-37.9773C522.8167,-36.0961 530.3825,-36.0026 537.8823,-38.0643C539.5423,-38.5206 541.2095,-38.9969 542.7819,-39.6981C544.2464,-40.3512 545.5581,-41.3036 546.9463,-42.1064C544.0584,-40.6163 541.3829,-38.6098 538.2826,-37.636C537.087,-37.2605 540.1428,-39.3201 540.9963,-40.2377C543.5122,-42.9425 544.9507,-45.9503 545.9633,-49.4488C546.6579,-52.3622 546.6456,-55.3557 546.5652,-58.3283C545.753,-64.4645 540.332,-58.4252 559.1,-66.0472C559.4417,-66.186 558.8994,-65.3356 558.842,-64.9712C558.7584,-64.4412 558.7327,-63.9037 558.678,-63.37C558.4116,-58.5352 558.3011,-53.6898 558.8385,-48.8729C559.3853,-45.774 559.9781,-42.6077 562.4072,-40.4324C564.1162,-39.3075 565.9299,-39.231 567.8176,-39.8486C572.3605,-42.1411 579.1794,-46.118 558.5218,-34.4558C557.7888,-34.042 559.9393,-35.3644 560.6358,-35.837L574.3857,-41.3039C573.3212,-40.43 573.5147,-40.5201 572.2923,-39.8054C567.6471,-37.0896 561.8948,-32.5533 556.0168,-30.8992C553.7225,-30.6532 551.5833,-31.1524 549.789,-32.6773C547.292,-35.2807 546.4771,-38.6003 545.9205,-42.101C545.3299,-46.9737 545.4484,-51.8684 545.5121,-56.7697C545.5317,-57.4241 545.5891,-59.6985 545.6353,-59.7292C555.3623,-66.1895 558.5071,-72.3046 559.7414,-65.0828C559.8109,-61.9585 559.8144,-58.8161 559.1617,-55.7418C555.9603,-42.9865 547.5064,-40.0804 535.8851,-33.2002C534.4562,-32.4798 533.0874,-31.625 531.5984,-31.0388C522.6477,-27.5147 512.8948,-27.7976 503.6881,-30.0046C501.849,-30.4923 499.9816,-30.8834 498.1708,-31.4678C493.5394,-32.9624 487.0263,-36.1598 483.6105,-39.7531C483.0478,-40.345 482.6426,-41.0688 482.1586,-41.7267C480.5349,-46.0707 480.067,-50.6739 479.2315,-55.2142C478.3895,-58.7321 477.5533,-63.083 474.6465,-65.525C473.9606,-65.439 474.3146,-65.5425 473.6055,-65.1501C477.5343,-67.4822 481.4631,-69.8142 485.392,-72.1463C485.7243,-72.3373 484.7836,-71.6778 484.5048,-71.4148C483.8053,-70.7548 483.2382,-69.9617 482.4827,-69.3567C479.6627,-65.8118 477.6289,-61.7908 475.2736,-57.9352C474.3882,-56.4197 473.6566,-54.9774 473.0931,-53.3151C472.9783,-52.9764 473.1056,-52.4677 472.7992,-52.2834C459.5044,-44.2868 462.4531,-41.0521 458.7423,-45.7121C457.6264,-50.4162 458.1984,-55.4103 457.1115,-60.1366C456.048,-66.7522 455.2298,-73.8382 451.6337,-79.6263C451.0084,-80.3781 450.7399,-81.067 449.7463,-81.2506C449.4773,-81.3003 448.6972,-81.0264 448.9293,-81.1714C452.7843,-83.5799 456.7874,-85.7435 460.684,-88.0841C461.0341,-88.2944 459.9199,-87.7826 459.574,-87.5654C459.1661,-87.3094 458.8163,-86.9709 458.4374,-86.6736C454.0539,-81.4464 452.7319,-74.3891 450.9594,-67.9864C448.9624,-58.7542 447.2481,-49.392 446.9663,-39.9303C442.6611,-37.2917 438.4431,-34.5055 434.0509,-32.0145C433.809,-31.8773 434.2913,-32.5188 434.3689,-32.7859C435.1731,-35.5526 434.9442,-38.4808 434.9437,-41.3192C434.5725,-47.6693 433.3852,-53.9844 430.9595,-59.8902C430.4967,-60.9584 429.6461,-64.0551 428.0273,-64.1645C427.6519,-64.1899 426.9629,-63.8928 426.664,-63.7855C421.876,-61.6536 417.2258,-59.2069 412.2498,-57.5029C394.41,-50.7931 376.4177,-44.5046 358.1221,-39.1385C347.5024,-35.6251 336.8084,-32.2298 326.4071,-28.0958C323.4132,-26.9058 320.6723,-24.9485 317.5147,-24.3088C315.893,-23.9803 323.0914,-27.8472 321.6038,-27.1227C319.4346,-26.0663 317.5039,-24.5777 315.454,-23.3052C311.6254,-20.2317 306.9304,-17.0518 306.0231,-11.7537C305.1302,-6.539 308.4514,-1.7173 310.6976,2.6064C312.0867,4.5044 313.4087,6.4534 314.865,8.3002C324.8107,20.9133 336.9125,31.7349 349.2333,41.9507C355.2776,46.4639 361.4425,51.5105 368.5887,54.2474C370.2378,54.879 371.9681,55.3572 373.7232,55.5527C375.2204,55.7194 379.0476,54.0524 378.2367,55.3221C376.5481,57.9662 373.0607,58.8689 370.4727,60.6424C371.9211,59.6313 373.4539,58.7314 374.818,57.609C382.3953,51.3747 387.7065,42.7683 390.0706,33.2575C390.7888,30.3679 391.0696,27.3869 391.5691,24.4516C391.713,21.3964 392.0786,18.3436 392.0007,15.286C391.6074,-.1509 386.3714,-15.0473 381.0958,-29.3649C376.6203,-40.4339 371.1739,-51.3452 369.2251,-63.2235C369.1596,-66.0352 369.2286,-68.1755 369.9092,-70.8957C369.9473,-71.0478 370.7023,-73.7558 371.0384,-73.9872C375.3553,-76.9602 379.9527,-79.5037 384.4099,-82.2619C384.7489,-82.2349 385.0988,-82.2704 385.4268,-82.1807C387.5325,-81.605 388.5419,-78.9921 389.422,-77.2845C391.2962,-72.8589 391.5534,-68.921 389.1687,-64.5737C388.6277,-63.7989 388.1602,-62.9673 387.5458,-62.2493C383.155,-57.1183 374.373,-53.5169 369.904,-51.0303C365.6297,-48.6519 360.7122,-47.6351 356.0106,-46.5342C354.1284,-46.2519 352.2609,-45.8421 350.3638,-45.6872C343.5879,-45.1342 336.6659,-46.3505 330.8819,-49.9878C330.0515,-50.6505 329.1568,-51.2399 328.3906,-51.9759C325.1513,-55.0883 324.1401,-58.5232 325.2119,-62.8203C326.8277,-67.9581 329.3611,-70.4448 333.6797,-73.6076C342.0135,-78.5311 349.5479,-83.9618 358.9357,-86.2666L347.1504,-77.2549z" stroke="#000" stroke-linecap="round" stroke-linejoin="round" stroke-width="2"/>
<path d="M549.2332,-122.1847C547.4497,-120.0919 546.0244,-117.6969 545.3462,-115.0219C544.8607,-112.3468 546.4564,-111.6609 548.6501,-110.701C552.1989,-109.4013 555.2322,-109.544 558.8667,-110.1867C563.727,-111.8529 571.4457,-116.6009 549.8419,-104.683C549.5386,-104.5156 550.4174,-105.0731 550.6735,-105.3066C551.283,-105.8622 551.3443,-106.0922 551.7431,-106.7885C552.4769,-108.4348 552.405,-109.9757 551.4599,-111.492C550.2026,-112.6833 548.3125,-112.5716 546.6902,-112.6506C545.0147,-112.4957 543.4191,-112.0801 542.057,-111.0753L553.6269,-120.3929C555.2743,-121.0166 556.9597,-121.4107 558.7396,-121.2691C560.8571,-121.0599 562.9403,-120.7594 564.3134,-118.9498C565.4318,-117.0683 565.8738,-115.1231 565.2275,-112.9755C562.8838,-105.9037 553.9818,-103.0447 547.0943,-101.3611C543.4244,-100.8997 539.7964,-101.101 536.3461,-102.5755C533.866,-103.8553 531.6424,-105.4567 532.0181,-108.5614C532.4759,-111.4436 533.8818,-114.0254 535.5706,-116.3799L549.2332,-122.1847z" stroke="#000" stroke-linecap="round" stroke-linejoin="round" stroke-width="2"/>
<path d="M359.6057,-86.1453C362.4187,-87.5125 365.103,-89.129 368.0047,-90.3079C369.8229,-91.4887 371.8175,-92.0343 373.9447,-92.2669C375.9013,-92.4156 377.8658,-92.3906 379.8266,-92.3838C381.7726,-92.5908 383.4211,-92.0588 385.1306,-91.2244C386.3272,-90.2653 387.2717,-88.9911 388.1806,-87.7589C388.971,-86.3232 389.4355,-84.7124 389.9217,-83.1481C390.3578,-81.5453 390.9514,-80.0138 391.2655,-78.376C391.5681,-76.4533 391.5887,-74.5022 391.6123,-72.5605C391.6209,-71.5593 391.6196,-70.5581 391.6191,-69.5568L378.4016,-62.8239C378.4031,-63.8201 378.4051,-64.8163 378.4006,-65.8125C378.3869,-67.6761 378.3836,-69.5468 378.1492,-71.3987C377.8884,-72.9952 377.3044,-74.4635 376.8794,-76.0128C376.4669,-77.4199 376.0218,-78.8533 375.3829,-80.165C374.6051,-81.185 373.8481,-82.3496 372.73,-83.0103C371.1597,-83.6924 369.5221,-83.7365 367.825,-83.6633C365.9059,-83.6547 363.9742,-83.6641 362.0745,-83.3541C360.0654,-82.9292 358.2552,-82.0648 356.4262,-81.1471C353.5803,-79.8236 350.8275,-78.3064 348.069,-76.8116L359.6057,-86.1453z" stroke="#000" stroke-linecap="round" stroke-linejoin="round" stroke-width="2"/>
</g>
<path d="M58.4045,45.4615H245.2827A15.9099,15.9099 0 0 1 261.1926,61.3714V61.3714A15.9099,15.9099 0 0 1 245.2827,77.2813H58.4045A15.9099,15.9099 0 0 1 42.4946,61.3714V61.3714A15.9099,15.9099 0 0 1 58.4045,45.4615z" fill="#fff" stroke="#000" stroke-linecap="round" stroke-linejoin="round" stroke-width="4"/>
<path d="M101.5203,44.9288A36.8706,34.8503 0 1 1 27.7792,44.9288A36.8706,34.8503 0 1 1 101.5203,44.9288z" stroke="#000" stroke-linecap="round" stroke-linejoin="round" stroke-width="7.491" transform="matrix(.7121,0,0,.7121,-2.79174,23.08438)"/>
<text font-family="Bitstream Vera Sans" font-size="40" x="18.8575" y="69.1189">
   <tspan fill="#f9f9f9" x="18.8575" y="69.1189">59</tspan>
  </text>
<text font-family="Bitstream Vera Sans" font-size="20" x="114.7678" y="68.1385">
   <tspan x="114.7678" y="68.1385">Karting</tspan>
  </text>
<path d="M446.8915,78.4154A61.5183,5.3033 0 1 1 323.8549,78.4154A61.5183,5.3033 0 1 1 446.8915,78.4154z" stroke="#000" stroke-linecap="round" stroke-width="4.862" transform="translate(-277.9971,278.0836)"/>
<path d="M161.1342,269.6115L161.1342,317.5C161.1342,337.507 145.0275,353.6137 125.0205,353.6137L89.5864,353.6137C69.5794,353.6137 53.4727,337.507 53.4727,317.5L53.4727,269.6115" fill="#fff" stroke="#000" stroke-linecap="round" stroke-linejoin="round" stroke-width="3.6422"/>
<path d="M82.5207,289.423H106.0547A.7803,.7803 0 0 1 106.835,290.2033V300.2294A.7803,.7803 0 0 1 106.0547,301.0097H82.5207A.7803,.7803 0 0 1 81.7404,300.2294V290.2033A.7803,.7803 0 0 1 82.5207,289.423z" stroke="#000" stroke-linecap="square" stroke-linejoin="round" stroke-width="3.7338"/>
<path d="M123.9117,289.423H144.3246A2.3409,2.3409 0 0 1 146.6654,291.7639V298.6688A2.3409,2.3409 0 0 1 144.3246,301.0097H123.9117A2.3409,2.3409 0 0 1 121.5708,298.6688V291.7639A2.3409,2.3409 0 0 1 123.9117,289.423z" stroke="#000" stroke-linecap="square" stroke-linejoin="round" stroke-width="3.7338"/>
<path d="M55.7809,294.4776C56.3301,294.488 56.8795,294.4844 57.4288,294.4816C57.7917,294.4795 58.1547,294.4781 58.5176,294.4774C58.8101,294.477 59.1026,294.477 59.3951,294.477C59.6992,294.4764 60.0032,294.4776 60.3072,294.4782C60.6979,294.4685 61.0825,294.4778 61.4692,294.5289C61.8688,294.5834 62.2723,294.6006 62.6754,294.6116C63.0806,294.5958 63.4783,294.6705 63.8794,294.7106C64.2873,294.7474 64.6974,294.7513 65.1068,294.7557C65.537,294.758 65.9671,294.7578 66.3972,294.7563C66.7708,294.7556 67.1444,294.755 67.518,294.7541C67.8251,294.7533 68.1321,294.7531 68.4391,294.753C68.7306,294.7529 69.0221,294.7529 69.3136,294.7529C69.6052,294.7529 69.8967,294.7529 70.1882,294.7529C70.507,294.7525 70.8256,294.7534 71.1443,294.7549C71.5386,294.7572 71.9329,294.7553 72.3271,294.7542C72.698,294.754 73.0689,294.7547 73.4398,294.7557C73.8365,294.7556 74.2332,294.7557 74.6299,294.7547C75.0099,294.7549 75.3899,294.7554 75.7698,294.7548C76.1154,294.7536 76.461,294.7533 76.8066,294.7551C77.3398,294.7577 77.873,294.7593 78.4062,294.7612C79.1328,294.764 79.8594,294.7645 80.5861,294.7622C81.1193,294.7608 81.6525,294.7569 82.1858,294.7567C82.6271,294.7574 83.0684,294.7567 83.5097,294.7552C83.5708,294.755 83.6319,294.7548 83.693,294.7546L81.947,295.9539C81.8865,295.9537 81.826,295.9535 81.7655,295.9533C81.3256,295.9518 80.8858,295.9512 80.4459,295.9518C79.918,295.9516 79.39,295.9477 78.862,295.9464C78.1345,295.9439 77.4068,295.9446 76.6792,295.9474C76.1401,295.9493 75.6011,295.9509 75.062,295.9534C74.7161,295.9552 74.3703,295.955 74.0245,295.9537C73.6444,295.9531 73.2643,295.9537 72.8841,295.9538C72.4885,295.9529 72.0928,295.953 71.6971,295.9528C71.3247,295.9538 70.9524,295.9546 70.5801,295.9543C70.1864,295.9532 69.7927,295.9513 69.3991,295.9537C69.0785,295.9551 68.7579,295.956 68.4374,295.9556C68.1458,295.9556 67.8543,295.9556 67.5627,295.9556C67.2713,295.9556 66.9798,295.9556 66.6884,295.9555C66.3824,295.9554 66.0764,295.9552 65.7704,295.9546C65.3984,295.9539 65.0264,295.9537 64.6544,295.9537C64.2242,295.9529 63.794,295.9544 63.3639,295.9496C62.9492,295.944 62.5337,295.9351 62.1212,295.8902C61.7244,295.8456 61.3291,295.7929 60.9281,295.8032C60.5203,295.7881 60.1132,295.7597 59.7088,295.7065C59.3268,295.666 58.9435,295.6773 58.5596,295.6786C58.2544,295.6792 57.9492,295.6804 57.6441,295.6798C57.352,295.6798 57.0599,295.6798 56.7678,295.6794C56.4089,295.6787 56.0501,295.6773 55.6912,295.6751C55.138,295.6724 54.5847,295.6689 54.0316,295.6792L55.7809,294.4776z" stroke="#000" stroke-linecap="square" stroke-linejoin="round" stroke-width=".4767"/>
<path d="M147.2757,294.7543C147.9796,294.7661 148.6837,294.7645 149.3876,294.764C150.0328,294.7631 150.6781,294.7613 151.3233,294.7584C151.7545,294.756 152.1857,294.7559 152.6168,294.7554C152.9566,294.7546 153.2964,294.7537 153.6362,294.7533C153.933,294.7749 154.2183,294.6958 154.51,294.6577C154.8026,294.6236 155.0977,294.6187 155.3921,294.6152C155.6842,294.6131 155.9764,294.614 156.2686,294.6143C156.5604,294.6147 156.8521,294.6149 157.1439,294.615C157.4357,294.615 157.7275,294.615 158.0193,294.615C158.3111,294.615 158.6029,294.615 158.8947,294.615C159.208,294.6144 159.5213,294.6161 159.8345,294.6161C160.1518,294.6159 160.469,294.6154 160.7862,294.6152C161.0801,294.615 161.3739,294.615 161.6677,294.615C161.8621,294.615 161.7649,294.615 161.9592,294.615L160.2083,295.8177C160.014,295.8177 160.1111,295.8177 159.9168,295.8177C159.6232,295.8177 159.3296,295.8176 159.036,295.8175C158.7196,295.8172 158.4033,295.8168 158.0869,295.8165C157.7725,295.8166 157.4582,295.8182 157.1438,295.8177C156.852,295.8177 156.5602,295.8177 156.2684,295.8177C155.9766,295.8177 155.6848,295.8177 155.393,295.8175C155.1012,295.8174 154.8094,295.8172 154.5175,295.8168C154.2263,295.8166 153.9349,295.8158 153.6437,295.8211C153.3544,295.8285 153.0646,295.8407 152.7784,295.8847C152.4824,295.93 152.1879,295.9754 151.8863,295.9552C151.5486,295.9548 151.2109,295.954 150.8731,295.9531C150.4449,295.9526 150.0166,295.9525 149.5884,295.9501C148.9485,295.9472 148.3087,295.9454 147.6689,295.9445C146.9555,295.9441 146.242,295.9427 145.5287,295.9543L147.2757,294.7543z" stroke="#000" stroke-linecap="square" stroke-linejoin="round" stroke-width=".4767"/>
<path d="M106.9829,294.9175C107.5168,294.9851 108.0555,295.0063 108.5934,295.0223C109.0735,295.0339 109.5537,295.0339 110.0339,295.0326C110.4303,295.0321 110.8268,295.032 111.2232,295.031C112.019,295.0515 112.8152,295.0415 113.6111,295.0378C114.0921,295.0342 114.573,295.0328 115.0539,295.0308C115.4375,295.0309 115.821,295.0304 116.2045,295.0314C116.6077,295.0327 117.0109,295.0305 117.4141,295.0311C117.7779,295.0303 118.1418,295.0304 118.5055,295.0305C118.8699,295.031 119.2343,295.0307 119.5987,295.0299C119.9467,295.0312 120.2948,295.0301 120.6429,295.0295C120.9834,295.0309 121.324,295.0299 121.6645,295.0295C121.9653,295.029 122.2661,295.0289 122.567,295.0288C122.8185,295.0873 123.0716,295.1294 123.3297,295.1497C123.6096,295.167 123.8903,295.167 124.1706,295.1678C124.4623,295.168 124.754,295.1674 125.0456,295.1671C125.1917,295.1669 125.3377,295.1669 125.4837,295.1668L123.7329,296.3696C123.5869,296.3697 123.4409,296.3698 123.2949,296.3699C123.0029,296.3702 122.7109,296.371 122.4189,296.3695C122.1337,296.3671 121.8479,296.3645 121.564,296.3364C121.3134,296.3071 121.068,296.2467 120.8161,296.2314C120.516,296.2314 120.2157,296.2312 119.9156,296.2308C119.5751,296.2303 119.2345,296.2294 118.894,296.2308C118.5464,296.2302 118.1988,296.2291 117.8511,296.2303C117.4873,296.2296 117.1234,296.2292 116.7595,296.2298C116.3963,296.2299 116.0332,296.23 115.67,296.2292C115.2671,296.2298 114.8642,296.2276 114.4613,296.2288C114.0772,296.2298 113.6931,296.2294 113.309,296.2294C112.8348,296.2274 112.3607,296.226 111.8865,296.2225C111.0838,296.2188 110.2808,296.2092 109.4782,296.2298C109.0824,296.2294 108.6867,296.2303 108.2909,296.2295C107.8124,296.2266 107.3339,296.2228 106.8557,296.2069C106.308,296.1857 105.7609,296.1531 105.2156,296.0999L106.9829,294.9175z" stroke="#000" stroke-linecap="square" stroke-linejoin="round" stroke-width=".4767"/>
<path d="M68.4784,257.1042L68.4784,275.6474" fill="none" stroke="#000" stroke-linecap="round" stroke-width="4.8046"/>
<path d="M78.0024,255.3498L78.0024,273.8931" fill="none" stroke="#000" stroke-linecap="round" stroke-width="4.8046"/>
<path d="M86.9394,256.8141L86.9394,275.3574" fill="none" stroke="#000" stroke-linecap="round" stroke-width="4.8046"/>
<path d="M98.6161,255.6469L98.6161,274.1901" fill="none" stroke="#000" stroke-linecap="round" stroke-width="4.8046"/>
<path d="M108.7747,257.8335L108.7747,276.3767" fill="none" stroke="#000" stroke-linecap="round" stroke-width="4.8046"/>
<path d="M120.404,257.6581L120.404,276.2013" fill="none" stroke="#000" stroke-linecap="round" stroke-width="4.8046"/>
<path d="M130.9065,255.9439L130.9065,274.4872" fill="none" stroke="#000" stroke-linecap="round" stroke-width="4.8046"/>
<path d="M140.8219,258.9808L140.8219,277.5241" fill="none" stroke="#000" stroke-linecap="round" stroke-width="4.8046"/>
<path d="M151.4949,258.6122L151.4949,277.1554" fill="none" stroke="#000" stroke-linecap="round" stroke-width="4.8046"/>
<path d="M60.5942,261.8344L60.5942,280.3776" fill="none" stroke="#000" stroke-linecap="round" stroke-width="4.8046"/>
<text font-family="Bitstream Vera Sans" font-size="20" x="159.2857" y="120.7143">
   <tspan text-align="center" text-anchor="middle" x="159.2857" y="120.7143">Pourquoi tu te balades</tspan>
   <tspan text-align="center" text-anchor="middle" x="159.2857" y="145.7143">avec toutes ces</tspan>
   <tspan text-align="center" text-anchor="middle" x="159.2857" y="170.7143">bananes ?</tspan>
  </text>
<text font-family="Bitstream Vera Sans" font-size="20" x="718.3035" y="-322.433">
   <tspan text-align="center" text-anchor="middle" x="718.3035" y="-322.433"></tspan>
  </text>
<text font-family="Bitstream Vera Sans" font-size="20" x="487.1429" y="-139.2857">
   <tspan x="487.1429" y="-139.2857"></tspan>
  </text>
<g transform="translate(63.6396,-11.6168)">
<g transform="matrix(.96445,-.26425,.26425,.96445,-24.64147,37.0868)">
<path d="M-14.4336,323.359C-16.0926,326.3105-33.5242,325.9744-53.3985,314.8031C-73.2728,303.6317-77.1141,286.6018-75.4551,283.6502C-73.796,280.6987-68.6168,294.2794-48.7425,305.4508C-28.8682,316.6221-12.7745,320.4075-14.4336,323.359z" fill="#fff" stroke="#000200" stroke-linecap="round" stroke-linejoin="round" stroke-width="2"/>
<path d="M-76.7732,277.2643L-74.7168,283.2278" fill="#fff" fill-rule="evenodd" stroke="#000" stroke-width="1.5558"/>
<path d="m162.6346,-61.8948c0,1.8131-3.2789,3.283-7.3236,3.283-4.0447,0-7.3236,-1.4698-7.3236,-3.283 0,-1.8131 3.2789,-3.283 7.3236,-3.283 4.0447,0 7.3236,1.4698 7.3236,3.283z" stroke="#000200" stroke-linecap="round" stroke-linejoin="round" stroke-width="3" transform="matrix(.45207,.25411,-.25411,.45207,-145.10516,290.85018)"/>
<path d="m210.6168,-62.6524c0,1.1158-4.2965,2.0203-9.5964,2.0203-5.3,0-9.5965,-.9045-9.5965,-2.0203 0,-1.1158 4.2965,-2.0203 9.5965,-2.0203 5.3,0 9.5964,.9045 9.5964,2.0203z" stroke="#000200" stroke-linecap="round" stroke-linejoin="round" stroke-width="3" transform="matrix(.45207,.25411,-.25411,.45207,-145.10516,290.85018)"/>
<path d="m132.835,-69.976c0,1.8131-2.0352,3.283-4.5457,3.283-2.5105,0-4.5457,-1.4698-4.5457,-3.283 0,-1.8131 2.0352,-3.283 4.5457,-3.283 2.5105,0 4.5457,1.4698 4.5457,3.283z" stroke="#000200" stroke-linecap="round" stroke-linejoin="round" stroke-width="3" transform="matrix(.45207,.25411,-.25411,.45207,-145.10516,290.85018)"/>
<path d="m183.3427,-50.0255c0,1.6737-3.1658,3.0305-7.0711,3.0305-3.9052,0-7.0711,-1.3568-7.0711,-3.0305 0,-1.6737 3.1658,-3.0305 7.0711,-3.0305 3.9052,0 7.0711,1.3568 7.0711,3.0305z" stroke="#000200" stroke-linecap="round" stroke-linejoin="round" stroke-width="3" transform="matrix(.45207,.25411,-.25411,.45207,-145.10516,290.85018)"/>
<path d="m235.8706,-59.8745c0,1.5342-2.8266,2.7779-6.3134,2.7779-3.4868,0-6.3134,-1.2437-6.3134,-2.7779 0,-1.5342 2.8266,-2.7779 6.3134,-2.7779 3.4868,0 6.3134,1.2437 6.3134,2.7779z" stroke="#000200" stroke-linecap="round" stroke-linejoin="round" stroke-width="3" transform="matrix(.45207,.25411,-.25411,.45207,-145.10516,290.85018)"/>
</g>
<path d="M37.0608,371.1326C35.4017,374.0841 17.9701,373.748-1.9041,362.5766C-21.7784,351.4053-25.6198,334.3753-23.9607,331.4238C-22.3017,328.4723-17.1224,342.0529 2.7519,353.2243C22.6261,364.3957 38.7198,368.181 37.0608,371.1326z" fill="#fff" stroke="#000200" stroke-linecap="round" stroke-linejoin="round" stroke-width="2"/>
<path d="M-25.2788,325.0379L-23.2224,331.0014" fill="#fff" fill-rule="evenodd" stroke="#000" stroke-width="1.5558"/>
<path d="m162.6346,-61.8948c0,1.8131-3.2789,3.283-7.3236,3.283-4.0447,0-7.3236,-1.4698-7.3236,-3.283 0,-1.8131 3.2789,-3.283 7.3236,-3.283 4.0447,0 7.3236,1.4698 7.3236,3.283z" stroke="#000200" stroke-linecap="round" stroke-linejoin="round" stroke-width="3" transform="matrix(.45207,.25411,-.25411,.45207,-93.6108,338.62373)"/>
<path d="m210.6168,-62.6524c0,1.1158-4.2965,2.0203-9.5964,2.0203-5.3,0-9.5965,-.9045-9.5965,-2.0203 0,-1.1158 4.2965,-2.0203 9.5965,-2.0203 5.3,0 9.5964,.9045 9.5964,2.0203z" stroke="#000200" stroke-linecap="round" stroke-linejoin="round" stroke-width="3" transform="matrix(.45207,.25411,-.25411,.45207,-93.6108,338.62373)"/>
<path d="m132.835,-69.976c0,1.8131-2.0352,3.283-4.5457,3.283-2.5105,0-4.5457,-1.4698-4.5457,-3.283 0,-1.8131 2.0352,-3.283 4.5457,-3.283 2.5105,0 4.5457,1.4698 4.5457,3.283z" stroke="#000200" stroke-linecap="round" stroke-linejoin="round" stroke-width="3" transform="matrix(.45207,.25411,-.25411,.45207,-93.6108,338.62373)"/>
<path d="m183.3427,-50.0255c0,1.6737-3.1658,3.0305-7.0711,3.0305-3.9052,0-7.0711,-1.3568-7.0711,-3.0305 0,-1.6737 3.1658,-3.0305 7.0711,-3.0305 3.9052,0 7.0711,1.3568 7.0711,3.0305z" stroke="#000200" stroke-linecap="round" stroke-linejoin="round" stroke-width="3" transform="matrix(.45207,.25411,-.25411,.45207,-93.6108,338.62373)"/>
<path d="m235.8706,-59.8745c0,1.5342-2.8266,2.7779-6.3134,2.7779-3.4868,0-6.3134,-1.2437-6.3134,-2.7779 0,-1.5342 2.8266,-2.7779 6.3134,-2.7779 3.4868,0 6.3134,1.2437 6.3134,2.7779z" stroke="#000200" stroke-linecap="round" stroke-linejoin="round" stroke-width="3" transform="matrix(.45207,.25411,-.25411,.45207,-93.6108,338.62373)"/>
<g transform="matrix(.99928,3.7913216e-2,-3.7913216e-2,.99928,67.82776,97.77051)">
<path d="M-25.0636,280.2188C-26.7227,283.1704-44.1543,282.8342-64.0285,271.6629C-83.9028,260.4915-87.7442,243.4616-86.0851,240.5101C-84.426,237.5585-79.2468,251.1392-59.3725,262.3106C-39.4982,273.4819-23.4045,277.2673-25.0636,280.2188z" fill="#fff" stroke="#000200" stroke-linecap="round" stroke-linejoin="round" stroke-width="2"/>
<path d="M-87.4032,234.1242L-85.3468,240.0876" fill="#fff" fill-rule="evenodd" stroke="#000" stroke-width="1.5558"/>
<path d="m162.6346,-61.8948c0,1.8131-3.2789,3.283-7.3236,3.283-4.0447,0-7.3236,-1.4698-7.3236,-3.283 0,-1.8131 3.2789,-3.283 7.3236,-3.283 4.0447,0 7.3236,1.4698 7.3236,3.283z" stroke="#000200" stroke-linecap="round" stroke-linejoin="round" stroke-width="3" transform="matrix(.45207,.25411,-.25411,.45207,-155.73519,247.71)"/>
<path d="m210.6168,-62.6524c0,1.1158-4.2965,2.0203-9.5964,2.0203-5.3,0-9.5965,-.9045-9.5965,-2.0203 0,-1.1158 4.2965,-2.0203 9.5965,-2.0203 5.3,0 9.5964,.9045 9.5964,2.0203z" stroke="#000200" stroke-linecap="round" stroke-linejoin="round" stroke-width="3" transform="matrix(.45207,.25411,-.25411,.45207,-155.73519,247.71)"/>
<path d="m132.835,-69.976c0,1.8131-2.0352,3.283-4.5457,3.283-2.5105,0-4.5457,-1.4698-4.5457,-3.283 0,-1.8131 2.0352,-3.283 4.5457,-3.283 2.5105,0 4.5457,1.4698 4.5457,3.283z" stroke="#000200" stroke-linecap="round" stroke-linejoin="round" stroke-width="3" transform="matrix(.45207,.25411,-.25411,.45207,-155.73519,247.71)"/>
<path d="m183.3427,-50.0255c0,1.6737-3.1658,3.0305-7.0711,3.0305-3.9052,0-7.0711,-1.3568-7.0711,-3.0305 0,-1.6737 3.1658,-3.0305 7.0711,-3.0305 3.9052,0 7.0711,1.3568 7.0711,3.0305z" stroke="#000200" stroke-linecap="round" stroke-linejoin="round" stroke-width="3" transform="matrix(.45207,.25411,-.25411,.45207,-155.73519,247.71)"/>
<path d="m235.8706,-59.8745c0,1.5342-2.8266,2.7779-6.3134,2.7779-3.4868,0-6.3134,-1.2437-6.3134,-2.7779 0,-1.5342 2.8266,-2.7779 6.3134,-2.7779 3.4868,0 6.3134,1.2437 6.3134,2.7779z" stroke="#000200" stroke-linecap="round" stroke-linejoin="round" stroke-width="3" transform="matrix(.45207,.25411,-.25411,.45207,-155.73519,247.71)"/>
</g>
<g transform="matrix(.9627,.27059,-.27059,.9627,118.75197,125.81251)">
<path d="M-25.0636,280.2188C-26.7227,283.1704-44.1543,282.8342-64.0285,271.6629C-83.9028,260.4915-87.7442,243.4616-86.0851,240.5101C-84.426,237.5585-79.2468,251.1392-59.3725,262.3106C-39.4982,273.4819-23.4045,277.2673-25.0636,280.2188z" fill="#fff" stroke="#000200" stroke-linecap="round" stroke-linejoin="round" stroke-width="2"/>
<path d="M-87.4032,234.1242L-85.3468,240.0876" fill="#fff" fill-rule="evenodd" stroke="#000" stroke-width="1.5558"/>
<path d="m162.6346,-61.8948c0,1.8131-3.2789,3.283-7.3236,3.283-4.0447,0-7.3236,-1.4698-7.3236,-3.283 0,-1.8131 3.2789,-3.283 7.3236,-3.283 4.0447,0 7.3236,1.4698 7.3236,3.283z" stroke="#000200" stroke-linecap="round" stroke-linejoin="round" stroke-width="3" transform="matrix(.45207,.25411,-.25411,.45207,-155.73519,247.71)"/>
<path d="m210.6168,-62.6524c0,1.1158-4.2965,2.0203-9.5964,2.0203-5.3,0-9.5965,-.9045-9.5965,-2.0203 0,-1.1158 4.2965,-2.0203 9.5965,-2.0203 5.3,0 9.5964,.9045 9.5964,2.0203z" stroke="#000200" stroke-linecap="round" stroke-linejoin="round" stroke-width="3" transform="matrix(.45207,.25411,-.25411,.45207,-155.73519,247.71)"/>
<path d="m132.835,-69.976c0,1.8131-2.0352,3.283-4.5457,3.283-2.5105,0-4.5457,-1.4698-4.5457,-3.283 0,-1.8131 2.0352,-3.283 4.5457,-3.283 2.5105,0 4.5457,1.4698 4.5457,3.283z" stroke="#000200" stroke-linecap="round" stroke-linejoin="round" stroke-width="3" transform="matrix(.45207,.25411,-.25411,.45207,-155.73519,247.71)"/>
<path d="m183.3427,-50.0255c0,1.6737-3.1658,3.0305-7.0711,3.0305-3.9052,0-7.0711,-1.3568-7.0711,-3.0305 0,-1.6737 3.1658,-3.0305 7.0711,-3.0305 3.9052,0 7.0711,1.3568 7.0711,3.0305z" stroke="#000200" stroke-linecap="round" stroke-linejoin="round" stroke-width="3" transform="matrix(.45207,.25411,-.25411,.45207,-155.73519,247.71)"/>
<path d="m235.8706,-59.8745c0,1.5342-2.8266,2.7779-6.3134,2.7779-3.4868,0-6.3134,-1.2437-6.3134,-2.7779 0,-1.5342 2.8266,-2.7779 6.3134,-2.7779 3.4868,0 6.3134,1.2437 6.3134,2.7779z" stroke="#000200" stroke-linecap="round" stroke-linejoin="round" stroke-width="3" transform="matrix(.45207,.25411,-.25411,.45207,-155.73519,247.71)"/>
</g>
<g transform="matrix(.89557,.44493,-.44493,.89557,150.88985,158.46693)">
<path d="M-25.0636,280.2188C-26.7227,283.1704-44.1543,282.8342-64.0285,271.6629C-83.9028,260.4915-87.7442,243.4616-86.0851,240.5101C-84.426,237.5585-79.2468,251.1392-59.3725,262.3106C-39.4982,273.4819-23.4045,277.2673-25.0636,280.2188z" fill="#fff" stroke="#000200" stroke-linecap="round" stroke-linejoin="round" stroke-width="2"/>
<path d="M-87.4032,234.1242L-85.3468,240.0876" fill="#fff" fill-rule="evenodd" stroke="#000" stroke-width="1.5558"/>
<path d="m162.6346,-61.8948c0,1.8131-3.2789,3.283-7.3236,3.283-4.0447,0-7.3236,-1.4698-7.3236,-3.283 0,-1.8131 3.2789,-3.283 7.3236,-3.283 4.0447,0 7.3236,1.4698 7.3236,3.283z" stroke="#000200" stroke-linecap="round" stroke-linejoin="round" stroke-width="3" transform="matrix(.45207,.25411,-.25411,.45207,-155.73519,247.71)"/>
<path d="m210.6168,-62.6524c0,1.1158-4.2965,2.0203-9.5964,2.0203-5.3,0-9.5965,-.9045-9.5965,-2.0203 0,-1.1158 4.2965,-2.0203 9.5965,-2.0203 5.3,0 9.5964,.9045 9.5964,2.0203z" stroke="#000200" stroke-linecap="round" stroke-linejoin="round" stroke-width="3" transform="matrix(.45207,.25411,-.25411,.45207,-155.73519,247.71)"/>
<path d="m132.835,-69.976c0,1.8131-2.0352,3.283-4.5457,3.283-2.5105,0-4.5457,-1.4698-4.5457,-3.283 0,-1.8131 2.0352,-3.283 4.5457,-3.283 2.5105,0 4.5457,1.4698 4.5457,3.283z" stroke="#000200" stroke-linecap="round" stroke-linejoin="round" stroke-width="3" transform="matrix(.45207,.25411,-.25411,.45207,-155.73519,247.71)"/>
<path d="m183.3427,-50.0255c0,1.6737-3.1658,3.0305-7.0711,3.0305-3.9052,0-7.0711,-1.3568-7.0711,-3.0305 0,-1.6737 3.1658,-3.0305 7.0711,-3.0305 3.9052,0 7.0711,1.3568 7.0711,3.0305z" stroke="#000200" stroke-linecap="round" stroke-linejoin="round" stroke-width="3" transform="matrix(.45207,.25411,-.25411,.45207,-155.73519,247.71)"/>
<path d="m235.8706,-59.8745c0,1.5342-2.8266,2.7779-6.3134,2.7779-3.4868,0-6.3134,-1.2437-6.3134,-2.7779 0,-1.5342 2.8266,-2.7779 6.3134,-2.7779 3.4868,0 6.3134,1.2437 6.3134,2.7779z" stroke="#000200" stroke-linecap="round" stroke-linejoin="round" stroke-width="3" transform="matrix(.45207,.25411,-.25411,.45207,-155.73519,247.71)"/>
</g>
</g>
<path d="M163.1396,181.8045L188.8985,231.8071" fill="none" stroke="#000"/>
<g transform="matrix(-1,0,0,1,824.73677,-3.51552)">
<path d="m446.8915,78.4154c0,2.9289-27.5427,5.3033-61.5183,5.3033-33.9756,0-61.5183,-2.3744-61.5183,-5.3033 0,-2.9289 27.5427,-5.3033 61.5183,-5.3033 33.9756,0 61.5183,2.3744 61.5183,5.3033z" stroke="#000" stroke-linecap="round" stroke-width="4.862" transform="matrix(-1,0,0,1,814.8921,283.7979)"/>
<path d="M375.7607,275.3258L375.7607,323.2142C375.7607,343.2213 391.8675,359.328 411.8745,359.328L447.3085,359.328C467.3155,359.328 483.4222,343.2213 483.4222,323.2142L483.4222,275.3258" fill="#fff" stroke="#000" stroke-linecap="round" stroke-linejoin="round" stroke-width="3.6422"/>
<path d="M-454.3742,295.1373H-430.8402A.7803,.7803 0 0 1 -430.0599,295.9176V305.9437A.7803,.7803 0 0 1 -430.8402,306.724H-454.3742A.7803,.7803 0 0 1 -455.1545,305.9437V295.9176A.7803,.7803 0 0 1 -454.3742,295.1373z" stroke="#000" stroke-linecap="square" stroke-linejoin="round" stroke-width="3.7338" transform="scale(-1,1)"/>
<path d="M-412.9833,295.1373H-392.5704A2.3409,2.3409 0 0 1 -390.2295,297.4782V304.3831A2.3409,2.3409 0 0 1 -392.5704,306.724H-412.9833A2.3409,2.3409 0 0 1 -415.3241,304.3831V297.4782A2.3409,2.3409 0 0 1 -412.9833,295.1373z" stroke="#000" stroke-linecap="square" stroke-linejoin="round" stroke-width="3.7338" transform="scale(-1,1)"/>
<path d="M481.114,300.1919C480.5648,300.2023 480.0154,300.1986 479.4662,300.1959C479.1032,300.1938 478.7403,300.1924 478.3773,300.1917C478.0848,300.1913 477.7923,300.1913 477.4998,300.1913C477.1958,300.1907 476.8918,300.1919 476.5877,300.1925C476.1971,300.1828 475.8125,300.1921 475.4258,300.2432C475.0261,300.2977 474.6227,300.3149 474.2195,300.3259C473.8143,300.3101 473.4167,300.3847 473.0155,300.4249C472.6076,300.4617 472.1975,300.4656 471.7881,300.4699C471.358,300.4722 470.9278,300.4721 470.4977,300.4706C470.1241,300.4698 469.7505,300.4693 469.3769,300.4684C469.0699,300.4676 468.7628,300.4674 468.4558,300.4673C468.1643,300.4672 467.8728,300.4672 467.5813,300.4672C467.2898,300.4672 466.9982,300.4672 466.7067,300.4672C466.388,300.4668 466.0693,300.4677 465.7506,300.4692C465.3564,300.4715 464.9621,300.4696 464.5678,300.4685C464.1969,300.4683 463.8261,300.469 463.4552,300.47C463.0584,300.4699 462.6617,300.4699 462.265,300.469C461.885,300.4692 461.5051,300.4697 461.1251,300.4691C460.7795,300.4678 460.4339,300.4676 460.0884,300.4694C459.5552,300.472 459.022,300.4736 458.4888,300.4755C457.7622,300.4783 457.0355,300.4788 456.3089,300.4764C455.7756,300.4751 455.2424,300.4712 454.7092,300.471C454.2679,300.4717 453.8266,300.471 453.3853,300.4695C453.3242,300.4693 453.2631,300.4691 453.202,300.4689L454.9479,301.6682C455.0085,301.668 455.069,301.6678 455.1295,301.6676C455.5693,301.6661 456.0092,301.6655 456.449,301.6661C456.977,301.6659 457.5049,301.662 458.0329,301.6607C458.7605,301.6582 459.4881,301.6589 460.2157,301.6617C460.7548,301.6635 461.2939,301.6651 461.833,301.6677C462.1788,301.6694 462.5246,301.6693 462.8704,301.668C463.2506,301.6674 463.6307,301.668 464.0108,301.6681C464.4065,301.6671 464.8022,301.6673 465.1979,301.6671C465.5702,301.6681 465.9425,301.6689 466.3149,301.6686C466.7086,301.6675 467.1022,301.6656 467.4959,301.668C467.8164,301.6693 468.137,301.6703 468.4576,301.6699C468.7491,301.6699 469.0407,301.6699 469.3322,301.6699C469.6237,301.6699 469.9151,301.6699 470.2065,301.6698C470.5125,301.6697 470.8185,301.6695 471.1245,301.6689C471.4966,301.6682 471.8686,301.668 472.2406,301.668C472.6707,301.6672 473.1009,301.6687 473.531,301.6639C473.9458,301.6583 474.3613,301.6494 474.7738,301.6044C475.1706,301.5599 475.5658,301.5072 475.9668,301.5175C476.3746,301.5023 476.7817,301.474 477.1861,301.4207C477.5681,301.3803 477.9515,301.3915 478.3354,301.3929C478.6406,301.3935 478.9457,301.3947 479.2509,301.3941C479.543,301.3941 479.8351,301.3941 480.1272,301.3937C480.486,301.393 480.8449,301.3916 481.2037,301.3894C481.7569,301.3866 482.3102,301.3832 482.8634,301.3935L481.114,300.1919z" stroke="#000" stroke-linecap="square" stroke-linejoin="round" stroke-width=".4767"/>
<path d="M389.6192,300.4685C388.9153,300.4803 388.2113,300.4787 387.5073,300.4783C386.8621,300.4774 386.2169,300.4756 385.5717,300.4727C385.1405,300.4703 384.7093,300.4702 384.2781,300.4697C383.9383,300.4689 383.5985,300.468 383.2587,300.4676C382.9619,300.4892 382.6767,300.4101 382.3849,300.372C382.0923,300.3379 381.7973,300.333 381.5029,300.3295C381.2107,300.3274 380.9185,300.3283 380.6264,300.3286C380.3346,300.329 380.0428,300.3292 379.751,300.3292C379.4592,300.3293 379.1674,300.3293 378.8756,300.3293C378.5838,300.3293 378.2921,300.3293 378.0003,300.3293C377.687,300.3287 377.3737,300.3304 377.0604,300.3304C376.7432,300.3302 376.426,300.3297 376.1087,300.3295C375.8149,300.3293 375.521,300.3293 375.2272,300.3293C375.0329,300.3293 375.1301,300.3293 374.9357,300.3293L376.6867,301.532C376.881,301.532 376.7838,301.532 376.9781,301.532C377.2717,301.5319 377.5654,301.5319 377.8589,301.5317C378.1753,301.5315 378.4917,301.5311 378.808,301.5308C379.1224,301.5308 379.4368,301.5325 379.7511,301.5319C380.0429,301.532 380.3347,301.532 380.6265,301.532C380.9183,301.5319 381.2101,301.5319 381.5019,301.5318C381.7938,301.5317 382.0856,301.5315 382.3774,301.5311C382.6687,301.5309 382.96,301.5301 383.2512,301.5354C383.5406,301.5428 383.8304,301.555 384.1165,301.599C384.4126,301.6442 384.7071,301.6896 385.0086,301.6695C385.3464,301.6691 385.6841,301.6682 386.0218,301.6674C386.4501,301.6669 386.8783,301.6668 387.3066,301.6644C387.9464,301.6615 388.5862,301.6597 389.226,301.6588C389.9394,301.6583 390.6529,301.6569 391.3662,301.6686L389.6192,300.4685z" stroke="#000" stroke-linecap="square" stroke-linejoin="round" stroke-width=".4767"/>
<path d="M429.912,300.6318C429.3781,300.6993 428.8395,300.7206 428.3016,300.7366C427.8215,300.7482 427.3412,300.7482 426.861,300.7469C426.4646,300.7464 426.0682,300.7463 425.6718,300.7453C424.876,300.7658 424.0798,300.7557 423.2838,300.7521C422.8029,300.7485 422.322,300.7471 421.841,300.7451C421.4575,300.7452 421.074,300.7447 420.6904,300.7457C420.2872,300.747 419.884,300.7448 419.4808,300.7454C419.117,300.7446 418.7532,300.7446 418.3894,300.7448C418.025,300.7453 417.6606,300.745 417.2963,300.7442C416.9482,300.7454 416.6001,300.7443 416.2521,300.7438C415.9115,300.7452 415.571,300.7442 415.2304,300.7437C414.9296,300.7433 414.6288,300.7432 414.328,300.7431C414.0764,300.8016 413.8234,300.8437 413.5652,300.864C413.2853,300.8813 413.0047,300.8813 412.7243,300.882C412.4326,300.8822 412.141,300.8817 411.8493,300.8814C411.7033,300.8812 411.5573,300.8812 411.4112,300.8811L413.1621,302.0838C413.308,302.084 413.454,302.084 413.6,302.0842C413.892,302.0845 414.1841,302.0853 414.4761,302.0838C414.7613,302.0814 415.047,302.0788 415.331,302.0507C415.5816,302.0213 415.8269,301.961 416.0788,301.9457C416.379,301.9457 416.6792,301.9455 416.9794,301.9451C417.3199,301.9446 417.6604,301.9436 418.0009,301.945C418.3485,301.9445 418.6962,301.9434 419.0438,301.9446C419.4077,301.9439 419.7716,301.9435 420.1354,301.9441C420.4986,301.9442 420.8618,301.9443 421.225,301.9434C421.6279,301.9441 422.0308,301.9418 422.4337,301.9431C422.8178,301.9441 423.2019,301.9437 423.586,301.9437C424.0601,301.9417 424.5343,301.9403 425.0084,301.9368C425.8112,301.9331 426.6142,301.9235 427.4168,301.9441C427.8125,301.9437 428.2083,301.9446 428.604,301.9438C429.0825,301.9409 429.5611,301.9371 430.0393,301.9212C430.587,301.9 431.134,301.8674 431.6793,301.8142L429.912,300.6318z" stroke="#000" stroke-linecap="square" stroke-linejoin="round" stroke-width=".4767"/>
<path d="M468.4165,262.8185L468.4165,281.3617" fill="none" stroke="#000" stroke-linecap="round" stroke-width="4.8046"/>
<path d="M458.8925,261.0641L458.8925,279.6073" fill="none" stroke="#000" stroke-linecap="round" stroke-width="4.8046"/>
<path d="M449.9556,262.5284L449.9556,281.0717" fill="none" stroke="#000" stroke-linecap="round" stroke-width="4.8046"/>
<path d="M438.2789,261.3612L438.2789,279.9044" fill="none" stroke="#000" stroke-linecap="round" stroke-width="4.8046"/>
<path d="M428.1202,263.5478L428.1202,282.091" fill="none" stroke="#000" stroke-linecap="round" stroke-width="4.8046"/>
<path d="M416.491,263.3724L416.491,281.9156" fill="none" stroke="#000" stroke-linecap="round" stroke-width="4.8046"/>
<path d="M405.9884,261.6582L405.9884,280.2015" fill="none" stroke="#000" stroke-linecap="round" stroke-width="4.8046"/>
<path d="M396.073,264.6951L396.073,283.2384" fill="none" stroke="#000" stroke-linecap="round" stroke-width="4.8046"/>
<path d="M385.4,264.3265L385.4,282.8697" fill="none" stroke="#000" stroke-linecap="round" stroke-width="4.8046"/>
<path d="M420.8851,337.8857C430.4795,337.9117 440.6454,339.4888 448.0081,333.4574" fill="none" stroke="#000" stroke-width=".7749"/>
<path d="M476.3007,267.5487L476.3007,286.0919" fill="none" stroke="#000" stroke-linecap="round" stroke-width="4.8046"/>
</g>
<text font-family="Bitstream Vera Sans" font-size="20" x="430.325" y="122.7106">
   <tspan text-align="center" text-anchor="middle" x="430.325" y="122.7106">Bref... et sinon tu</tspan>
   <tspan text-align="center" text-anchor="middle" x="433.5086" y="147.7106">viens au karting </tspan>
   <tspan text-align="center" text-anchor="middle" x="433.5086" y="172.7106">avec nous ce ... hey !</tspan>
  </text>
<path d="M451.0331,180.7944L481.3377,233.3223" fill="none" stroke="#000"/>
<text font-family="Bitstream Vera Sans" font-size="20" x="717.5079" y="127.4561">
   <tspan text-align="center" text-anchor="middle" x="717.5079" y="127.4561">Je crois que j'ai compris...</tspan>
  </text>
<g transform="translate(274.9617,14.681)">
<path d="m446.8915,78.4154c0,2.9289-27.5427,5.3033-61.5183,5.3033-33.9756,0-61.5183,-2.3744-61.5183,-5.3033 0,-2.9289 27.5427,-5.3033 61.5183,-5.3033 33.9756,0 61.5183,2.3744 61.5183,5.3033z" stroke="#000" stroke-linecap="round" stroke-width="4.862" transform="matrix(-1,0,0,1,814.8921,283.7979)"/>
<path d="M375.7607,275.3258L375.7607,323.2142C375.7607,343.2213 391.8675,359.328 411.8745,359.328L447.3085,359.328C467.3155,359.328 483.4222,343.2213 483.4222,323.2142L483.4222,275.3258" fill="#fff" stroke="#000" stroke-linecap="round" stroke-linejoin="round" stroke-width="3.6422"/>
<path d="M-454.3742,295.1373H-430.8402A.7803,.7803 0 0 1 -430.0599,295.9176V305.9437A.7803,.7803 0 0 1 -430.8402,306.724H-454.3742A.7803,.7803 0 0 1 -455.1545,305.9437V295.9176A.7803,.7803 0 0 1 -454.3742,295.1373z" stroke="#000" stroke-linecap="square" stroke-linejoin="round" stroke-width="3.7338" transform="scale(-1,1)"/>
<path d="M-412.9833,295.1373H-392.5704A2.3409,2.3409 0 0 1 -390.2295,297.4782V304.3831A2.3409,2.3409 0 0 1 -392.5704,306.724H-412.9833A2.3409,2.3409 0 0 1 -415.3241,304.3831V297.4782A2.3409,2.3409 0 0 1 -412.9833,295.1373z" stroke="#000" stroke-linecap="square" stroke-linejoin="round" stroke-width="3.7338" transform="scale(-1,1)"/>
<path d="M481.114,300.1919C480.5648,300.2023 480.0154,300.1986 479.4662,300.1959C479.1032,300.1938 478.7403,300.1924 478.3773,300.1917C478.0848,300.1913 477.7923,300.1913 477.4998,300.1913C477.1958,300.1907 476.8918,300.1919 476.5877,300.1925C476.1971,300.1828 475.8125,300.1921 475.4258,300.2432C475.0261,300.2977 474.6227,300.3149 474.2195,300.3259C473.8143,300.3101 473.4167,300.3847 473.0155,300.4249C472.6076,300.4617 472.1975,300.4656 471.7881,300.4699C471.358,300.4722 470.9278,300.4721 470.4977,300.4706C470.1241,300.4698 469.7505,300.4693 469.3769,300.4684C469.0699,300.4676 468.7628,300.4674 468.4558,300.4673C468.1643,300.4672 467.8728,300.4672 467.5813,300.4672C467.2898,300.4672 466.9982,300.4672 466.7067,300.4672C466.388,300.4668 466.0693,300.4677 465.7506,300.4692C465.3564,300.4715 464.9621,300.4696 464.5678,300.4685C464.1969,300.4683 463.8261,300.469 463.4552,300.47C463.0584,300.4699 462.6617,300.4699 462.265,300.469C461.885,300.4692 461.5051,300.4697 461.1251,300.4691C460.7795,300.4678 460.4339,300.4676 460.0884,300.4694C459.5552,300.472 459.022,300.4736 458.4888,300.4755C457.7622,300.4783 457.0355,300.4788 456.3089,300.4764C455.7756,300.4751 455.2424,300.4712 454.7092,300.471C454.2679,300.4717 453.8266,300.471 453.3853,300.4695C453.3242,300.4693 453.2631,300.4691 453.202,300.4689L454.9479,301.6682C455.0085,301.668 455.069,301.6678 455.1295,301.6676C455.5693,301.6661 456.0092,301.6655 456.449,301.6661C456.977,301.6659 457.5049,301.662 458.0329,301.6607C458.7605,301.6582 459.4881,301.6589 460.2157,301.6617C460.7548,301.6635 461.2939,301.6651 461.833,301.6677C462.1788,301.6694 462.5246,301.6693 462.8704,301.668C463.2506,301.6674 463.6307,301.668 464.0108,301.6681C464.4065,301.6671 464.8022,301.6673 465.1979,301.6671C465.5702,301.6681 465.9425,301.6689 466.3149,301.6686C466.7086,301.6675 467.1022,301.6656 467.4959,301.668C467.8164,301.6693 468.137,301.6703 468.4576,301.6699C468.7491,301.6699 469.0407,301.6699 469.3322,301.6699C469.6237,301.6699 469.9151,301.6699 470.2065,301.6698C470.5125,301.6697 470.8185,301.6695 471.1245,301.6689C471.4966,301.6682 471.8686,301.668 472.2406,301.668C472.6707,301.6672 473.1009,301.6687 473.531,301.6639C473.9458,301.6583 474.3613,301.6494 474.7738,301.6044C475.1706,301.5599 475.5658,301.5072 475.9668,301.5175C476.3746,301.5023 476.7817,301.474 477.1861,301.4207C477.5681,301.3803 477.9515,301.3915 478.3354,301.3929C478.6406,301.3935 478.9457,301.3947 479.2509,301.3941C479.543,301.3941 479.8351,301.3941 480.1272,301.3937C480.486,301.393 480.8449,301.3916 481.2037,301.3894C481.7569,301.3866 482.3102,301.3832 482.8634,301.3935L481.114,300.1919z" stroke="#000" stroke-linecap="square" stroke-linejoin="round" stroke-width=".4767"/>
<path d="M389.6192,300.4685C388.9153,300.4803 388.2113,300.4787 387.5073,300.4783C386.8621,300.4774 386.2169,300.4756 385.5717,300.4727C385.1405,300.4703 384.7093,300.4702 384.2781,300.4697C383.9383,300.4689 383.5985,300.468 383.2587,300.4676C382.9619,300.4892 382.6767,300.4101 382.3849,300.372C382.0923,300.3379 381.7973,300.333 381.5029,300.3295C381.2107,300.3274 380.9185,300.3283 380.6264,300.3286C380.3346,300.329 380.0428,300.3292 379.751,300.3292C379.4592,300.3293 379.1674,300.3293 378.8756,300.3293C378.5838,300.3293 378.2921,300.3293 378.0003,300.3293C377.687,300.3287 377.3737,300.3304 377.0604,300.3304C376.7432,300.3302 376.426,300.3297 376.1087,300.3295C375.8149,300.3293 375.521,300.3293 375.2272,300.3293C375.0329,300.3293 375.1301,300.3293 374.9357,300.3293L376.6867,301.532C376.881,301.532 376.7838,301.532 376.9781,301.532C377.2717,301.5319 377.5654,301.5319 377.8589,301.5317C378.1753,301.5315 378.4917,301.5311 378.808,301.5308C379.1224,301.5308 379.4368,301.5325 379.7511,301.5319C380.0429,301.532 380.3347,301.532 380.6265,301.532C380.9183,301.5319 381.2101,301.5319 381.5019,301.5318C381.7938,301.5317 382.0856,301.5315 382.3774,301.5311C382.6687,301.5309 382.96,301.5301 383.2512,301.5354C383.5406,301.5428 383.8304,301.555 384.1165,301.599C384.4126,301.6442 384.7071,301.6896 385.0086,301.6695C385.3464,301.6691 385.6841,301.6682 386.0218,301.6674C386.4501,301.6669 386.8783,301.6668 387.3066,301.6644C387.9464,301.6615 388.5862,301.6597 389.226,301.6588C389.9394,301.6583 390.6529,301.6569 391.3662,301.6686L389.6192,300.4685z" stroke="#000" stroke-linecap="square" stroke-linejoin="round" stroke-width=".4767"/>
<path d="M429.912,300.6318C429.3781,300.6993 428.8395,300.7206 428.3016,300.7366C427.8215,300.7482 427.3412,300.7482 426.861,300.7469C426.4646,300.7464 426.0682,300.7463 425.6718,300.7453C424.876,300.7658 424.0798,300.7557 423.2838,300.7521C422.8029,300.7485 422.322,300.7471 421.841,300.7451C421.4575,300.7452 421.074,300.7447 420.6904,300.7457C420.2872,300.747 419.884,300.7448 419.4808,300.7454C419.117,300.7446 418.7532,300.7446 418.3894,300.7448C418.025,300.7453 417.6606,300.745 417.2963,300.7442C416.9482,300.7454 416.6001,300.7443 416.2521,300.7438C415.9115,300.7452 415.571,300.7442 415.2304,300.7437C414.9296,300.7433 414.6288,300.7432 414.328,300.7431C414.0764,300.8016 413.8234,300.8437 413.5652,300.864C413.2853,300.8813 413.0047,300.8813 412.7243,300.882C412.4326,300.8822 412.141,300.8817 411.8493,300.8814C411.7033,300.8812 411.5573,300.8812 411.4112,300.8811L413.1621,302.0838C413.308,302.084 413.454,302.084 413.6,302.0842C413.892,302.0845 414.1841,302.0853 414.4761,302.0838C414.7613,302.0814 415.047,302.0788 415.331,302.0507C415.5816,302.0213 415.8269,301.961 416.0788,301.9457C416.379,301.9457 416.6792,301.9455 416.9794,301.9451C417.3199,301.9446 417.6604,301.9436 418.0009,301.945C418.3485,301.9445 418.6962,301.9434 419.0438,301.9446C419.4077,301.9439 419.7716,301.9435 420.1354,301.9441C420.4986,301.9442 420.8618,301.9443 421.225,301.9434C421.6279,301.9441 422.0308,301.9418 422.4337,301.9431C422.8178,301.9441 423.2019,301.9437 423.586,301.9437C424.0601,301.9417 424.5343,301.9403 425.0084,301.9368C425.8112,301.9331 426.6142,301.9235 427.4168,301.9441C427.8125,301.9437 428.2083,301.9446 428.604,301.9438C429.0825,301.9409 429.5611,301.9371 430.0393,301.9212C430.587,301.9 431.134,301.8674 431.6793,301.8142L429.912,300.6318z" stroke="#000" stroke-linecap="square" stroke-linejoin="round" stroke-width=".4767"/>
<path d="M468.4165,262.8185L468.4165,281.3617" fill="none" stroke="#000" stroke-linecap="round" stroke-width="4.8046"/>
<path d="M458.8925,261.0641L458.8925,279.6073" fill="none" stroke="#000" stroke-linecap="round" stroke-width="4.8046"/>
<path d="M449.9556,262.5284L449.9556,281.0717" fill="none" stroke="#000" stroke-linecap="round" stroke-width="4.8046"/>
<path d="M438.2789,261.3612L438.2789,279.9044" fill="none" stroke="#000" stroke-linecap="round" stroke-width="4.8046"/>
<path d="M428.1202,263.5478L428.1202,282.091" fill="none" stroke="#000" stroke-linecap="round" stroke-width="4.8046"/>
<path d="M416.491,263.3724L416.491,281.9156" fill="none" stroke="#000" stroke-linecap="round" stroke-width="4.8046"/>
<path d="M405.9884,261.6582L405.9884,280.2015" fill="none" stroke="#000" stroke-linecap="round" stroke-width="4.8046"/>
<path d="M396.073,264.6951L396.073,283.2384" fill="none" stroke="#000" stroke-linecap="round" stroke-width="4.8046"/>
<path d="M385.4,264.3265L385.4,282.8697" fill="none" stroke="#000" stroke-linecap="round" stroke-width="4.8046"/>
<path d="M420.8851,337.8857C430.4795,337.9117 440.6454,339.4888 448.0081,333.4574" fill="none" stroke="#000" stroke-width=".7749"/>
<path d="M476.3007,267.5487L476.3007,286.0919" fill="none" stroke="#000" stroke-linecap="round" stroke-width="4.8046"/>
</g>
<path d="m784.5589,310.1161c1.125,-.3276 2.2413,-.6377 3.399,-.8185 1.179,-.2478 2.3674,-.4081 3.5601,-.5714 .9372,-.1651 1.8625,-.343 2.8065,-.4587 1.3754,-.2003 2.7766,-.2867 4.1667,-.3181 .6983,-.052 1.3876,-.0297 2.0844,.0173l-3.5963,4.2691c-.6725,-.0458-1.343,-.0409-2.0166,-.0136-1.3847,.0532-2.7746,.1307-4.1406,.3736-.9372,.1299-1.8597,.3438-2.8003,.4526-1.1895,.1521-2.367,.3594-3.545,.5833-1.1458,.206-2.2576,.5441-3.3706,.8819l3.4528,-4.3971z" stroke="#000" stroke-linecap="round" stroke-linejoin="round" stroke-width="1.4908"/>
<path d="M805.7143,145L820.7143,219.2857" fill="none" stroke="#000"/>
<text font-family="Bitstream Vera Sans" font-size="20" x="689.1429" y="171.1429">
   <tspan text-align="center" text-anchor="middle" x="689.1429" y="171.1429">Ca va tre trop bien !</tspan>
   <tspan text-align="center" text-anchor="middle" x="689.1429" y="196.1429">Regarde, j'ai mme</tspan>
   <tspan text-align="center" text-anchor="middle" x="689.1429" y="221.1429">trouv des tortues !</tspan>
  </text>
<path d="M689.2857,228.5714L701.4286,267.8571" fill="none" stroke="#000"/>
<g transform="translate(346.0452,-13.2022)">
<g transform="matrix(.96445,-.26425,.26425,.96445,-24.64147,37.0868)">
<path d="M-14.4336,323.359C-16.0926,326.3105-33.5242,325.9744-53.3985,314.8031C-73.2728,303.6317-77.1141,286.6018-75.4551,283.6502C-73.796,280.6987-68.6168,294.2794-48.7425,305.4508C-28.8682,316.6221-12.7745,320.4075-14.4336,323.359z" fill="#fff" stroke="#000200" stroke-linecap="round" stroke-linejoin="round" stroke-width="2"/>
<path d="M-76.7732,277.2643L-74.7168,283.2278" fill="#fff" fill-rule="evenodd" stroke="#000" stroke-width="1.5558"/>
<path d="m162.6346,-61.8948c0,1.8131-3.2789,3.283-7.3236,3.283-4.0447,0-7.3236,-1.4698-7.3236,-3.283 0,-1.8131 3.2789,-3.283 7.3236,-3.283 4.0447,0 7.3236,1.4698 7.3236,3.283z" stroke="#000200" stroke-linecap="round" stroke-linejoin="round" stroke-width="3" transform="matrix(.45207,.25411,-.25411,.45207,-145.10516,290.85018)"/>
<path d="m210.6168,-62.6524c0,1.1158-4.2965,2.0203-9.5964,2.0203-5.3,0-9.5965,-.9045-9.5965,-2.0203 0,-1.1158 4.2965,-2.0203 9.5965,-2.0203 5.3,0 9.5964,.9045 9.5964,2.0203z" stroke="#000200" stroke-linecap="round" stroke-linejoin="round" stroke-width="3" transform="matrix(.45207,.25411,-.25411,.45207,-145.10516,290.85018)"/>
<path d="m132.835,-69.976c0,1.8131-2.0352,3.283-4.5457,3.283-2.5105,0-4.5457,-1.4698-4.5457,-3.283 0,-1.8131 2.0352,-3.283 4.5457,-3.283 2.5105,0 4.5457,1.4698 4.5457,3.283z" stroke="#000200" stroke-linecap="round" stroke-linejoin="round" stroke-width="3" transform="matrix(.45207,.25411,-.25411,.45207,-145.10516,290.85018)"/>
<path d="m183.3427,-50.0255c0,1.6737-3.1658,3.0305-7.0711,3.0305-3.9052,0-7.0711,-1.3568-7.0711,-3.0305 0,-1.6737 3.1658,-3.0305 7.0711,-3.0305 3.9052,0 7.0711,1.3568 7.0711,3.0305z" stroke="#000200" stroke-linecap="round" stroke-linejoin="round" stroke-width="3" transform="matrix(.45207,.25411,-.25411,.45207,-145.10516,290.85018)"/>
<path d="m235.8706,-59.8745c0,1.5342-2.8266,2.7779-6.3134,2.7779-3.4868,0-6.3134,-1.2437-6.3134,-2.7779 0,-1.5342 2.8266,-2.7779 6.3134,-2.7779 3.4868,0 6.3134,1.2437 6.3134,2.7779z" stroke="#000200" stroke-linecap="round" stroke-linejoin="round" stroke-width="3" transform="matrix(.45207,.25411,-.25411,.45207,-145.10516,290.85018)"/>
</g>
<path d="M37.0608,371.1326C35.4017,374.0841 17.9701,373.748-1.9041,362.5766C-21.7784,351.4053-25.6198,334.3753-23.9607,331.4238C-22.3017,328.4723-17.1224,342.0529 2.7519,353.2243C22.6261,364.3957 38.7198,368.181 37.0608,371.1326z" fill="#fff" stroke="#000200" stroke-linecap="round" stroke-linejoin="round" stroke-width="2"/>
<path d="M-25.2788,325.0379L-23.2224,331.0014" fill="#fff" fill-rule="evenodd" stroke="#000" stroke-width="1.5558"/>
<path d="m162.6346,-61.8948c0,1.8131-3.2789,3.283-7.3236,3.283-4.0447,0-7.3236,-1.4698-7.3236,-3.283 0,-1.8131 3.2789,-3.283 7.3236,-3.283 4.0447,0 7.3236,1.4698 7.3236,3.283z" stroke="#000200" stroke-linecap="round" stroke-linejoin="round" stroke-width="3" transform="matrix(.45207,.25411,-.25411,.45207,-93.6108,338.62373)"/>
<path d="m210.6168,-62.6524c0,1.1158-4.2965,2.0203-9.5964,2.0203-5.3,0-9.5965,-.9045-9.5965,-2.0203 0,-1.1158 4.2965,-2.0203 9.5965,-2.0203 5.3,0 9.5964,.9045 9.5964,2.0203z" stroke="#000200" stroke-linecap="round" stroke-linejoin="round" stroke-width="3" transform="matrix(.45207,.25411,-.25411,.45207,-93.6108,338.62373)"/>
<path d="m132.835,-69.976c0,1.8131-2.0352,3.283-4.5457,3.283-2.5105,0-4.5457,-1.4698-4.5457,-3.283 0,-1.8131 2.0352,-3.283 4.5457,-3.283 2.5105,0 4.5457,1.4698 4.5457,3.283z" stroke="#000200" stroke-linecap="round" stroke-linejoin="round" stroke-width="3" transform="matrix(.45207,.25411,-.25411,.45207,-93.6108,338.62373)"/>
<path d="m183.3427,-50.0255c0,1.6737-3.1658,3.0305-7.0711,3.0305-3.9052,0-7.0711,-1.3568-7.0711,-3.0305 0,-1.6737 3.1658,-3.0305 7.0711,-3.0305 3.9052,0 7.0711,1.3568 7.0711,3.0305z" stroke="#000200" stroke-linecap="round" stroke-linejoin="round" stroke-width="3" transform="matrix(.45207,.25411,-.25411,.45207,-93.6108,338.62373)"/>
<path d="m235.8706,-59.8745c0,1.5342-2.8266,2.7779-6.3134,2.7779-3.4868,0-6.3134,-1.2437-6.3134,-2.7779 0,-1.5342 2.8266,-2.7779 6.3134,-2.7779 3.4868,0 6.3134,1.2437 6.3134,2.7779z" stroke="#000200" stroke-linecap="round" stroke-linejoin="round" stroke-width="3" transform="matrix(.45207,.25411,-.25411,.45207,-93.6108,338.62373)"/>
<g transform="matrix(.99928,3.7913216e-2,-3.7913216e-2,.99928,67.82776,97.77051)">
<path d="M-25.0636,280.2188C-26.7227,283.1704-44.1543,282.8342-64.0285,271.6629C-83.9028,260.4915-87.7442,243.4616-86.0851,240.5101C-84.426,237.5585-79.2468,251.1392-59.3725,262.3106C-39.4982,273.4819-23.4045,277.2673-25.0636,280.2188z" fill="#fff" stroke="#000200" stroke-linecap="round" stroke-linejoin="round" stroke-width="2"/>
<path d="M-87.4032,234.1242L-85.3468,240.0876" fill="#fff" fill-rule="evenodd" stroke="#000" stroke-width="1.5558"/>
<path d="m162.6346,-61.8948c0,1.8131-3.2789,3.283-7.3236,3.283-4.0447,0-7.3236,-1.4698-7.3236,-3.283 0,-1.8131 3.2789,-3.283 7.3236,-3.283 4.0447,0 7.3236,1.4698 7.3236,3.283z" stroke="#000200" stroke-linecap="round" stroke-linejoin="round" stroke-width="3" transform="matrix(.45207,.25411,-.25411,.45207,-155.73519,247.71)"/>
<path d="m210.6168,-62.6524c0,1.1158-4.2965,2.0203-9.5964,2.0203-5.3,0-9.5965,-.9045-9.5965,-2.0203 0,-1.1158 4.2965,-2.0203 9.5965,-2.0203 5.3,0 9.5964,.9045 9.5964,2.0203z" stroke="#000200" stroke-linecap="round" stroke-linejoin="round" stroke-width="3" transform="matrix(.45207,.25411,-.25411,.45207,-155.73519,247.71)"/>
<path d="m132.835,-69.976c0,1.8131-2.0352,3.283-4.5457,3.283-2.5105,0-4.5457,-1.4698-4.5457,-3.283 0,-1.8131 2.0352,-3.283 4.5457,-3.283 2.5105,0 4.5457,1.4698 4.5457,3.283z" stroke="#000200" stroke-linecap="round" stroke-linejoin="round" stroke-width="3" transform="matrix(.45207,.25411,-.25411,.45207,-155.73519,247.71)"/>
<path d="m183.3427,-50.0255c0,1.6737-3.1658,3.0305-7.0711,3.0305-3.9052,0-7.0711,-1.3568-7.0711,-3.0305 0,-1.6737 3.1658,-3.0305 7.0711,-3.0305 3.9052,0 7.0711,1.3568 7.0711,3.0305z" stroke="#000200" stroke-linecap="round" stroke-linejoin="round" stroke-width="3" transform="matrix(.45207,.25411,-.25411,.45207,-155.73519,247.71)"/>
<path d="m235.8706,-59.8745c0,1.5342-2.8266,2.7779-6.3134,2.7779-3.4868,0-6.3134,-1.2437-6.3134,-2.7779 0,-1.5342 2.8266,-2.7779 6.3134,-2.7779 3.4868,0 6.3134,1.2437 6.3134,2.7779z" stroke="#000200" stroke-linecap="round" stroke-linejoin="round" stroke-width="3" transform="matrix(.45207,.25411,-.25411,.45207,-155.73519,247.71)"/>
</g>
<g transform="matrix(.9627,.27059,-.27059,.9627,118.75197,125.81251)">
<path d="M-25.0636,280.2188C-26.7227,283.1704-44.1543,282.8342-64.0285,271.6629C-83.9028,260.4915-87.7442,243.4616-86.0851,240.5101C-84.426,237.5585-79.2468,251.1392-59.3725,262.3106C-39.4982,273.4819-23.4045,277.2673-25.0636,280.2188z" fill="#fff" stroke="#000200" stroke-linecap="round" stroke-linejoin="round" stroke-width="2"/>
<path d="M-87.4032,234.1242L-85.3468,240.0876" fill="#fff" fill-rule="evenodd" stroke="#000" stroke-width="1.5558"/>
<path d="m162.6346,-61.8948c0,1.8131-3.2789,3.283-7.3236,3.283-4.0447,0-7.3236,-1.4698-7.3236,-3.283 0,-1.8131 3.2789,-3.283 7.3236,-3.283 4.0447,0 7.3236,1.4698 7.3236,3.283z" stroke="#000200" stroke-linecap="round" stroke-linejoin="round" stroke-width="3" transform="matrix(.45207,.25411,-.25411,.45207,-155.73519,247.71)"/>
<path d="m210.6168,-62.6524c0,1.1158-4.2965,2.0203-9.5964,2.0203-5.3,0-9.5965,-.9045-9.5965,-2.0203 0,-1.1158 4.2965,-2.0203 9.5965,-2.0203 5.3,0 9.5964,.9045 9.5964,2.0203z" stroke="#000200" stroke-linecap="round" stroke-linejoin="round" stroke-width="3" transform="matrix(.45207,.25411,-.25411,.45207,-155.73519,247.71)"/>
<path d="m132.835,-69.976c0,1.8131-2.0352,3.283-4.5457,3.283-2.5105,0-4.5457,-1.4698-4.5457,-3.283 0,-1.8131 2.0352,-3.283 4.5457,-3.283 2.5105,0 4.5457,1.4698 4.5457,3.283z" stroke="#000200" stroke-linecap="round" stroke-linejoin="round" stroke-width="3" transform="matrix(.45207,.25411,-.25411,.45207,-155.73519,247.71)"/>
<path d="m183.3427,-50.0255c0,1.6737-3.1658,3.0305-7.0711,3.0305-3.9052,0-7.0711,-1.3568-7.0711,-3.0305 0,-1.6737 3.1658,-3.0305 7.0711,-3.0305 3.9052,0 7.0711,1.3568 7.0711,3.0305z" stroke="#000200" stroke-linecap="round" stroke-linejoin="round" stroke-width="3" transform="matrix(.45207,.25411,-.25411,.45207,-155.73519,247.71)"/>
<path d="m235.8706,-59.8745c0,1.5342-2.8266,2.7779-6.3134,2.7779-3.4868,0-6.3134,-1.2437-6.3134,-2.7779 0,-1.5342 2.8266,-2.7779 6.3134,-2.7779 3.4868,0 6.3134,1.2437 6.3134,2.7779z" stroke="#000200" stroke-linecap="round" stroke-linejoin="round" stroke-width="3" transform="matrix(.45207,.25411,-.25411,.45207,-155.73519,247.71)"/>
</g>
<g transform="matrix(.89557,.44493,-.44493,.89557,150.88985,158.46693)">
<path d="M-25.0636,280.2188C-26.7227,283.1704-44.1543,282.8342-64.0285,271.6629C-83.9028,260.4915-87.7442,243.4616-86.0851,240.5101C-84.426,237.5585-79.2468,251.1392-59.3725,262.3106C-39.4982,273.4819-23.4045,277.2673-25.0636,280.2188z" fill="#fff" stroke="#000200" stroke-linecap="round" stroke-linejoin="round" stroke-width="2"/>
<path d="M-87.4032,234.1242L-85.3468,240.0876" fill="#fff" fill-rule="evenodd" stroke="#000" stroke-width="1.5558"/>
<path d="m162.6346,-61.8948c0,1.8131-3.2789,3.283-7.3236,3.283-4.0447,0-7.3236,-1.4698-7.3236,-3.283 0,-1.8131 3.2789,-3.283 7.3236,-3.283 4.0447,0 7.3236,1.4698 7.3236,3.283z" stroke="#000200" stroke-linecap="round" stroke-linejoin="round" stroke-width="3" transform="matrix(.45207,.25411,-.25411,.45207,-155.73519,247.71)"/>
<path d="m210.6168,-62.6524c0,1.1158-4.2965,2.0203-9.5964,2.0203-5.3,0-9.5965,-.9045-9.5965,-2.0203 0,-1.1158 4.2965,-2.0203 9.5965,-2.0203 5.3,0 9.5964,.9045 9.5964,2.0203z" stroke="#000200" stroke-linecap="round" stroke-linejoin="round" stroke-width="3" transform="matrix(.45207,.25411,-.25411,.45207,-155.73519,247.71)"/>
<path d="m132.835,-69.976c0,1.8131-2.0352,3.283-4.5457,3.283-2.5105,0-4.5457,-1.4698-4.5457,-3.283 0,-1.8131 2.0352,-3.283 4.5457,-3.283 2.5105,0 4.5457,1.4698 4.5457,3.283z" stroke="#000200" stroke-linecap="round" stroke-linejoin="round" stroke-width="3" transform="matrix(.45207,.25411,-.25411,.45207,-155.73519,247.71)"/>
<path d="m183.3427,-50.0255c0,1.6737-3.1658,3.0305-7.0711,3.0305-3.9052,0-7.0711,-1.3568-7.0711,-3.0305 0,-1.6737 3.1658,-3.0305 7.0711,-3.0305 3.9052,0 7.0711,1.3568 7.0711,3.0305z" stroke="#000200" stroke-linecap="round" stroke-linejoin="round" stroke-width="3" transform="matrix(.45207,.25411,-.25411,.45207,-155.73519,247.71)"/>
<path d="m235.8706,-59.8745c0,1.5342-2.8266,2.7779-6.3134,2.7779-3.4868,0-6.3134,-1.2437-6.3134,-2.7779 0,-1.5342 2.8266,-2.7779 6.3134,-2.7779 3.4868,0 6.3134,1.2437 6.3134,2.7779z" stroke="#000200" stroke-linecap="round" stroke-linejoin="round" stroke-width="3" transform="matrix(.45207,.25411,-.25411,.45207,-155.73519,247.71)"/>
</g>
</g>
<path d="m538.4195,257.9523c0,3.0469-2.4032,5.5169-5.3678,5.5169-2.9646,0-5.3678,-2.47-5.3678,-5.5169 0,-3.0469 2.4032,-5.5169 5.3678,-5.5169 2.9646,0 5.3678,2.47 5.3678,5.5169z" fill="#fff" stroke="#000" stroke-linecap="round" stroke-linejoin="round" stroke-width="2" transform="matrix(.74538,0,0,.74538,414.87193,132.45581)"/>
<path d="m555.2684,260.4871c0,.9058-.4005,1.6402-.8946,1.6402-.4941,0-.8946,-.7343-.8946,-1.6402 0,-.9058 .4005,-1.6402 .8946,-1.6402 .4941,0 .8946,.7343 .8946,1.6402z" fill="#fff" stroke="#000" stroke-linecap="round" stroke-linejoin="round" stroke-width="2" transform="matrix(.74538,0,0,.74538,397.23868,130.53946)"/>
<g transform="matrix(.74538,0,0,.74538,397.71021,131.90012)">
<path d="m538.4195,257.9523c0,3.0469-2.4032,5.5169-5.3678,5.5169-2.9646,0-5.3678,-2.47-5.3678,-5.5169 0,-3.0469 2.4032,-5.5169 5.3678,-5.5169 2.9646,0 5.3678,2.47 5.3678,5.5169z" fill="#fff" stroke="#000" stroke-linecap="round" stroke-linejoin="round" stroke-width="2"/>
<path d="m555.2684,260.4871c0,.9058-.4005,1.6402-.8946,1.6402-.4941,0-.8946,-.7343-.8946,-1.6402 0,-.9058 .4005,-1.6402 .8946,-1.6402 .4941,0 .8946,.7343 .8946,1.6402z" fill="#fff" stroke="#000" stroke-linecap="round" stroke-linejoin="round" stroke-width="2" transform="translate(-23.6822,-2.4475)"/>
</g>
<g transform="matrix(-1,0,0,1,761.81196,-8.91646)">
<g transform="matrix(.96445,-.26425,.26425,.96445,-24.64147,37.0868)">
<path d="M-14.4336,323.359C-16.0926,326.3105-33.5242,325.9744-53.3985,314.8031C-73.2728,303.6317-77.1141,286.6018-75.4551,283.6502C-73.796,280.6987-68.6168,294.2794-48.7425,305.4508C-28.8682,316.6221-12.7745,320.4075-14.4336,323.359z" fill="#fff" stroke="#000200" stroke-linecap="round" stroke-linejoin="round" stroke-width="2"/>
<path d="M-76.7732,277.2643L-74.7168,283.2278" fill="#fff" fill-rule="evenodd" stroke="#000" stroke-width="1.5558"/>
<path d="m162.6346,-61.8948c0,1.8131-3.2789,3.283-7.3236,3.283-4.0447,0-7.3236,-1.4698-7.3236,-3.283 0,-1.8131 3.2789,-3.283 7.3236,-3.283 4.0447,0 7.3236,1.4698 7.3236,3.283z" stroke="#000200" stroke-linecap="round" stroke-linejoin="round" stroke-width="3" transform="matrix(.45207,.25411,-.25411,.45207,-145.10516,290.85018)"/>
<path d="m210.6168,-62.6524c0,1.1158-4.2965,2.0203-9.5964,2.0203-5.3,0-9.5965,-.9045-9.5965,-2.0203 0,-1.1158 4.2965,-2.0203 9.5965,-2.0203 5.3,0 9.5964,.9045 9.5964,2.0203z" stroke="#000200" stroke-linecap="round" stroke-linejoin="round" stroke-width="3" transform="matrix(.45207,.25411,-.25411,.45207,-145.10516,290.85018)"/>
<path d="m132.835,-69.976c0,1.8131-2.0352,3.283-4.5457,3.283-2.5105,0-4.5457,-1.4698-4.5457,-3.283 0,-1.8131 2.0352,-3.283 4.5457,-3.283 2.5105,0 4.5457,1.4698 4.5457,3.283z" stroke="#000200" stroke-linecap="round" stroke-linejoin="round" stroke-width="3" transform="matrix(.45207,.25411,-.25411,.45207,-145.10516,290.85018)"/>
<path d="m183.3427,-50.0255c0,1.6737-3.1658,3.0305-7.0711,3.0305-3.9052,0-7.0711,-1.3568-7.0711,-3.0305 0,-1.6737 3.1658,-3.0305 7.0711,-3.0305 3.9052,0 7.0711,1.3568 7.0711,3.0305z" stroke="#000200" stroke-linecap="round" stroke-linejoin="round" stroke-width="3" transform="matrix(.45207,.25411,-.25411,.45207,-145.10516,290.85018)"/>
<path d="m235.8706,-59.8745c0,1.5342-2.8266,2.7779-6.3134,2.7779-3.4868,0-6.3134,-1.2437-6.3134,-2.7779 0,-1.5342 2.8266,-2.7779 6.3134,-2.7779 3.4868,0 6.3134,1.2437 6.3134,2.7779z" stroke="#000200" stroke-linecap="round" stroke-linejoin="round" stroke-width="3" transform="matrix(.45207,.25411,-.25411,.45207,-145.10516,290.85018)"/>
</g>
<path d="M37.0608,371.1326C35.4017,374.0841 17.9701,373.748-1.9041,362.5766C-21.7784,351.4053-25.6198,334.3753-23.9607,331.4238C-22.3017,328.4723-17.1224,342.0529 2.7519,353.2243C22.6261,364.3957 38.7198,368.181 37.0608,371.1326z" fill="#fff" stroke="#000200" stroke-linecap="round" stroke-linejoin="round" stroke-width="2"/>
<path d="M-25.2788,325.0379L-23.2224,331.0014" fill="#fff" fill-rule="evenodd" stroke="#000" stroke-width="1.5558"/>
<path d="m162.6346,-61.8948c0,1.8131-3.2789,3.283-7.3236,3.283-4.0447,0-7.3236,-1.4698-7.3236,-3.283 0,-1.8131 3.2789,-3.283 7.3236,-3.283 4.0447,0 7.3236,1.4698 7.3236,3.283z" stroke="#000200" stroke-linecap="round" stroke-linejoin="round" stroke-width="3" transform="matrix(.45207,.25411,-.25411,.45207,-93.6108,338.62373)"/>
<path d="m210.6168,-62.6524c0,1.1158-4.2965,2.0203-9.5964,2.0203-5.3,0-9.5965,-.9045-9.5965,-2.0203 0,-1.1158 4.2965,-2.0203 9.5965,-2.0203 5.3,0 9.5964,.9045 9.5964,2.0203z" stroke="#000200" stroke-linecap="round" stroke-linejoin="round" stroke-width="3" transform="matrix(.45207,.25411,-.25411,.45207,-93.6108,338.62373)"/>
<path d="m132.835,-69.976c0,1.8131-2.0352,3.283-4.5457,3.283-2.5105,0-4.5457,-1.4698-4.5457,-3.283 0,-1.8131 2.0352,-3.283 4.5457,-3.283 2.5105,0 4.5457,1.4698 4.5457,3.283z" stroke="#000200" stroke-linecap="round" stroke-linejoin="round" stroke-width="3" transform="matrix(.45207,.25411,-.25411,.45207,-93.6108,338.62373)"/>
<path d="m183.3427,-50.0255c0,1.6737-3.1658,3.0305-7.0711,3.0305-3.9052,0-7.0711,-1.3568-7.0711,-3.0305 0,-1.6737 3.1658,-3.0305 7.0711,-3.0305 3.9052,0 7.0711,1.3568 7.0711,3.0305z" stroke="#000200" stroke-linecap="round" stroke-linejoin="round" stroke-width="3" transform="matrix(.45207,.25411,-.25411,.45207,-93.6108,338.62373)"/>
<path d="m235.8706,-59.8745c0,1.5342-2.8266,2.7779-6.3134,2.7779-3.4868,0-6.3134,-1.2437-6.3134,-2.7779 0,-1.5342 2.8266,-2.7779 6.3134,-2.7779 3.4868,0 6.3134,1.2437 6.3134,2.7779z" stroke="#000200" stroke-linecap="round" stroke-linejoin="round" stroke-width="3" transform="matrix(.45207,.25411,-.25411,.45207,-93.6108,338.62373)"/>
<g transform="matrix(.99928,3.7913216e-2,-3.7913216e-2,.99928,67.82776,97.77051)">
<path d="M-25.0636,280.2188C-26.7227,283.1704-44.1543,282.8342-64.0285,271.6629C-83.9028,260.4915-87.7442,243.4616-86.0851,240.5101C-84.426,237.5585-79.2468,251.1392-59.3725,262.3106C-39.4982,273.4819-23.4045,277.2673-25.0636,280.2188z" fill="#fff" stroke="#000200" stroke-linecap="round" stroke-linejoin="round" stroke-width="2"/>
<path d="M-87.4032,234.1242L-85.3468,240.0876" fill="#fff" fill-rule="evenodd" stroke="#000" stroke-width="1.5558"/>
<path d="m162.6346,-61.8948c0,1.8131-3.2789,3.283-7.3236,3.283-4.0447,0-7.3236,-1.4698-7.3236,-3.283 0,-1.8131 3.2789,-3.283 7.3236,-3.283 4.0447,0 7.3236,1.4698 7.3236,3.283z" stroke="#000200" stroke-linecap="round" stroke-linejoin="round" stroke-width="3" transform="matrix(.45207,.25411,-.25411,.45207,-155.73519,247.71)"/>
<path d="m210.6168,-62.6524c0,1.1158-4.2965,2.0203-9.5964,2.0203-5.3,0-9.5965,-.9045-9.5965,-2.0203 0,-1.1158 4.2965,-2.0203 9.5965,-2.0203 5.3,0 9.5964,.9045 9.5964,2.0203z" stroke="#000200" stroke-linecap="round" stroke-linejoin="round" stroke-width="3" transform="matrix(.45207,.25411,-.25411,.45207,-155.73519,247.71)"/>
<path d="m132.835,-69.976c0,1.8131-2.0352,3.283-4.5457,3.283-2.5105,0-4.5457,-1.4698-4.5457,-3.283 0,-1.8131 2.0352,-3.283 4.5457,-3.283 2.5105,0 4.5457,1.4698 4.5457,3.283z" stroke="#000200" stroke-linecap="round" stroke-linejoin="round" stroke-width="3" transform="matrix(.45207,.25411,-.25411,.45207,-155.73519,247.71)"/>
<path d="m183.3427,-50.0255c0,1.6737-3.1658,3.0305-7.0711,3.0305-3.9052,0-7.0711,-1.3568-7.0711,-3.0305 0,-1.6737 3.1658,-3.0305 7.0711,-3.0305 3.9052,0 7.0711,1.3568 7.0711,3.0305z" stroke="#000200" stroke-linecap="round" stroke-linejoin="round" stroke-width="3" transform="matrix(.45207,.25411,-.25411,.45207,-155.73519,247.71)"/>
<path d="m235.8706,-59.8745c0,1.5342-2.8266,2.7779-6.3134,2.7779-3.4868,0-6.3134,-1.2437-6.3134,-2.7779 0,-1.5342 2.8266,-2.7779 6.3134,-2.7779 3.4868,0 6.3134,1.2437 6.3134,2.7779z" stroke="#000200" stroke-linecap="round" stroke-linejoin="round" stroke-width="3" transform="matrix(.45207,.25411,-.25411,.45207,-155.73519,247.71)"/>
</g>
<g transform="matrix(.9627,.27059,-.27059,.9627,118.75197,125.81251)">
<path d="M-25.0636,280.2188C-26.7227,283.1704-44.1543,282.8342-64.0285,271.6629C-83.9028,260.4915-87.7442,243.4616-86.0851,240.5101C-84.426,237.5585-79.2468,251.1392-59.3725,262.3106C-39.4982,273.4819-23.4045,277.2673-25.0636,280.2188z" fill="#fff" stroke="#000200" stroke-linecap="round" stroke-linejoin="round" stroke-width="2"/>
<path d="M-87.4032,234.1242L-85.3468,240.0876" fill="#fff" fill-rule="evenodd" stroke="#000" stroke-width="1.5558"/>
<path d="m162.6346,-61.8948c0,1.8131-3.2789,3.283-7.3236,3.283-4.0447,0-7.3236,-1.4698-7.3236,-3.283 0,-1.8131 3.2789,-3.283 7.3236,-3.283 4.0447,0 7.3236,1.4698 7.3236,3.283z" stroke="#000200" stroke-linecap="round" stroke-linejoin="round" stroke-width="3" transform="matrix(.45207,.25411,-.25411,.45207,-155.73519,247.71)"/>
<path d="m210.6168,-62.6524c0,1.1158-4.2965,2.0203-9.5964,2.0203-5.3,0-9.5965,-.9045-9.5965,-2.0203 0,-1.1158 4.2965,-2.0203 9.5965,-2.0203 5.3,0 9.5964,.9045 9.5964,2.0203z" stroke="#000200" stroke-linecap="round" stroke-linejoin="round" stroke-width="3" transform="matrix(.45207,.25411,-.25411,.45207,-155.73519,247.71)"/>
<path d="m132.835,-69.976c0,1.8131-2.0352,3.283-4.5457,3.283-2.5105,0-4.5457,-1.4698-4.5457,-3.283 0,-1.8131 2.0352,-3.283 4.5457,-3.283 2.5105,0 4.5457,1.4698 4.5457,3.283z" stroke="#000200" stroke-linecap="round" stroke-linejoin="round" stroke-width="3" transform="matrix(.45207,.25411,-.25411,.45207,-155.73519,247.71)"/>
<path d="m183.3427,-50.0255c0,1.6737-3.1658,3.0305-7.0711,3.0305-3.9052,0-7.0711,-1.3568-7.0711,-3.0305 0,-1.6737 3.1658,-3.0305 7.0711,-3.0305 3.9052,0 7.0711,1.3568 7.0711,3.0305z" stroke="#000200" stroke-linecap="round" stroke-linejoin="round" stroke-width="3" transform="matrix(.45207,.25411,-.25411,.45207,-155.73519,247.71)"/>
<path d="m235.8706,-59.8745c0,1.5342-2.8266,2.7779-6.3134,2.7779-3.4868,0-6.3134,-1.2437-6.3134,-2.7779 0,-1.5342 2.8266,-2.7779 6.3134,-2.7779 3.4868,0 6.3134,1.2437 6.3134,2.7779z" stroke="#000200" stroke-linecap="round" stroke-linejoin="round" stroke-width="3" transform="matrix(.45207,.25411,-.25411,.45207,-155.73519,247.71)"/>
</g>
<g transform="matrix(.89557,.44493,-.44493,.89557,150.88985,158.46693)">
<path d="M-25.0636,280.2188C-26.7227,283.1704-44.1543,282.8342-64.0285,271.6629C-83.9028,260.4915-87.7442,243.4616-86.0851,240.5101C-84.426,237.5585-79.2468,251.1392-59.3725,262.3106C-39.4982,273.4819-23.4045,277.2673-25.0636,280.2188z" fill="#fff" stroke="#000200" stroke-linecap="round" stroke-linejoin="round" stroke-width="2"/>
<path d="M-87.4032,234.1242L-85.3468,240.0876" fill="#fff" fill-rule="evenodd" stroke="#000" stroke-width="1.5558"/>
<path d="m162.6346,-61.8948c0,1.8131-3.2789,3.283-7.3236,3.283-4.0447,0-7.3236,-1.4698-7.3236,-3.283 0,-1.8131 3.2789,-3.283 7.3236,-3.283 4.0447,0 7.3236,1.4698 7.3236,3.283z" stroke="#000200" stroke-linecap="round" stroke-linejoin="round" stroke-width="3" transform="matrix(.45207,.25411,-.25411,.45207,-155.73519,247.71)"/>
<path d="m210.6168,-62.6524c0,1.1158-4.2965,2.0203-9.5964,2.0203-5.3,0-9.5965,-.9045-9.5965,-2.0203 0,-1.1158 4.2965,-2.0203 9.5965,-2.0203 5.3,0 9.5964,.9045 9.5964,2.0203z" stroke="#000200" stroke-linecap="round" stroke-linejoin="round" stroke-width="3" transform="matrix(.45207,.25411,-.25411,.45207,-155.73519,247.71)"/>
<path d="m132.835,-69.976c0,1.8131-2.0352,3.283-4.5457,3.283-2.5105,0-4.5457,-1.4698-4.5457,-3.283 0,-1.8131 2.0352,-3.283 4.5457,-3.283 2.5105,0 4.5457,1.4698 4.5457,3.283z" stroke="#000200" stroke-linecap="round" stroke-linejoin="round" stroke-width="3" transform="matrix(.45207,.25411,-.25411,.45207,-155.73519,247.71)"/>
<path d="m183.3427,-50.0255c0,1.6737-3.1658,3.0305-7.0711,3.0305-3.9052,0-7.0711,-1.3568-7.0711,-3.0305 0,-1.6737 3.1658,-3.0305 7.0711,-3.0305 3.9052,0 7.0711,1.3568 7.0711,3.0305z" stroke="#000200" stroke-linecap="round" stroke-linejoin="round" stroke-width="3" transform="matrix(.45207,.25411,-.25411,.45207,-155.73519,247.71)"/>
<path d="m235.8706,-59.8745c0,1.5342-2.8266,2.7779-6.3134,2.7779-3.4868,0-6.3134,-1.2437-6.3134,-2.7779 0,-1.5342 2.8266,-2.7779 6.3134,-2.7779 3.4868,0 6.3134,1.2437 6.3134,2.7779z" stroke="#000200" stroke-linecap="round" stroke-linejoin="round" stroke-width="3" transform="matrix(.45207,.25411,-.25411,.45207,-155.73519,247.71)"/>
</g>
</g>
<path d="m820.6413,308.4187c-1.1222,-.3371-2.2357,-.6568-3.3919,-.8475-1.1769,-.2581-2.3638,-.4286-3.5551,-.6019-.9358,-.1733-1.8595,-.3591-2.8025,-.4828-1.3737,-.212-2.774,-.3106-4.1638,-.3538-.6978,-.0582-1.3873,-.0421-2.0845,-6.2e-4l3.5597,4.2996c.6729,-.0396 1.3433,-.0285 2.0167,0 1.3841,.0644 2.7733,.1545 4.1373,.4091 .936,.1378 1.8567,.3596 2.7963,.4766 1.1882,.1623 2.3638,.3794 3.5398,.6135 1.1439,.2157 2.2528,.5633 3.363,.9106l-3.415,-4.4263z" stroke="#000" stroke-linecap="round" stroke-linejoin="round" stroke-width="1.4908"/>
<path d="M85.7143,329.2857L109.2857,332.8571" fill="none" stroke="#000"/>
<path d="M611.1423,339.3883A10.6066,5.5558 0 1 1 589.9291,339.3883A10.6066,5.5558 0 1 1 611.1423,339.3883z" fill="#fff" stroke="#000200" stroke-linecap="round" stroke-linejoin="round" stroke-width="2" transform="matrix(.76219,.44145,-.44145,.76219,288.97409,-180.57332)"/>
<path d="M611.1423,339.3883A10.6066,5.5558 0 1 1 589.9291,339.3883A10.6066,5.5558 0 1 1 611.1423,339.3883z" fill="#fff" stroke="#000200" stroke-linecap="round" stroke-linejoin="round" stroke-width="2" transform="translate(26.3902,-3.7881)"/>
<path d="M611.1423,339.3883A10.6066,5.5558 0 1 1 589.9291,339.3883A10.6066,5.5558 0 1 1 611.1423,339.3883z" fill="#fff" stroke="#000200" stroke-linecap="round" stroke-linejoin="round" stroke-width="2" transform="matrix(.80405,-.41845,.41845,.80405,-9.81908,326.12849)"/>
<path d="M629.8301,331.0545A16.9201,6.3135 0 1 1 595.99,331.0545A16.9201,6.3135 0 1 1 629.8301,331.0545z" fill="#fff" stroke="#000200" stroke-linecap="round" stroke-linejoin="round" stroke-width="2" transform="translate(-4.4194,6.0609)"/>
<path d="M595.2324,334.2113C595.2324,330.5171 600.9741,327.519 608.0487,327.519C615.1233,327.519 620.865,330.5171 620.865,334.2113" fill="#fff" stroke="#000200" stroke-linecap="round" stroke-linejoin="round" stroke-width="2"/>
<path d="M631.3454,327.8347A.5682,.4419 0 1 1 630.2089,327.8347A.5682,.4419 0 1 1 631.3454,327.8347z" fill="#fff" stroke="#000200" stroke-linecap="round" stroke-linejoin="round" stroke-width="2" transform="translate(-4.0406,4.5457)"/>
<path d="M596.3688,335.2214L603.8187,338.2519L612.7838,338.3782L619.8549,335.2214" fill="none" stroke="#000"/>
<g transform="translate(-13.8911,21.1444)">
<path d="m611.1423,339.3883c0,3.0684-4.7487,5.5558-10.6066,5.5558-5.8579,0-10.6066,-2.4874-10.6066,-5.5558 0,-3.0684 4.7487,-5.5558 10.6066,-5.5558 5.8579,0 10.6066,2.4874 10.6066,5.5558z" fill="#fff" stroke="#000200" stroke-linecap="round" stroke-linejoin="round" stroke-width="2" transform="matrix(.76219,.44145,-.44145,.76219,288.97409,-180.57332)"/>
<path d="m611.1423,339.3883c0,3.0684-4.7487,5.5558-10.6066,5.5558-5.8579,0-10.6066,-2.4874-10.6066,-5.5558 0,-3.0684 4.7487,-5.5558 10.6066,-5.5558 5.8579,0 10.6066,2.4874 10.6066,5.5558z" fill="#fff" stroke="#000200" stroke-linecap="round" stroke-linejoin="round" stroke-width="2" transform="translate(26.3902,-3.7881)"/>
<path d="m611.1423,339.3883c0,3.0684-4.7487,5.5558-10.6066,5.5558-5.8579,0-10.6066,-2.4874-10.6066,-5.5558 0,-3.0684 4.7487,-5.5558 10.6066,-5.5558 5.8579,0 10.6066,2.4874 10.6066,5.5558z" fill="#fff" stroke="#000200" stroke-linecap="round" stroke-linejoin="round" stroke-width="2" transform="matrix(.80405,-.41845,.41845,.80405,-9.81908,326.12849)"/>
<path d="m629.8301,331.0545c0,3.4868-7.5754,6.3135-16.9201,6.3135-9.3447,0-16.92,-2.8266-16.92,-6.3135 0,-3.4868 7.5754,-6.3134 16.92,-6.3134 9.3447,0 16.9201,2.8266 16.9201,6.3134z" fill="#fff" stroke="#000200" stroke-linecap="round" stroke-linejoin="round" stroke-width="2" transform="translate(-4.4194,6.0609)"/>
<path d="M595.2324,334.2113C595.2324,330.5171 600.9741,327.519 608.0487,327.519C615.1233,327.519 620.865,330.5171 620.865,334.2113" fill="#fff" stroke="#000200" stroke-linecap="round" stroke-linejoin="round" stroke-width="2"/>
<path d="m631.3454,327.8347c0,.2441-.2544,.4419-.5682,.4419-.3138,0-.5682,-.1979-.5682,-.4419 0,-.2441 .2544,-.442 .5682,-.442 .3138,0 .5682,.1979 .5682,.442z" fill="#fff" stroke="#000200" stroke-linecap="round" stroke-linejoin="round" stroke-width="2" transform="translate(-4.0406,4.5457)"/>
<path d="M596.3688,335.2214L603.8187,338.2519L612.7838,338.3782L619.8549,335.2214" fill="none" stroke="#000"/>
</g>
<path d="M576.098,77.4533L576.098,391.3437" fill="none" stroke="#000" stroke-width="5.6784"/>
<path d="m154.2857,169.6429a61.4286,8.2143 0 1 1 -122.8571,0 61.4286,8.2143 0 1 1 122.8571,0z" stroke="#000" transform="matrix(.74538,0,0,.74538,158.92837,229.79393)"/>
<path d="m218.1443,270.7241 24.0751,0c3.9131,21.0438 22.4214,15.9221 24.6992,24.6992l-4.1412,38.3591c-8.1662,14.3639-18.6149,23.4815-28.8405,23.1934l-6.3807,0c-10.3428,-.5569-26.1734,-12.9664-28.8405,-26.2052l-5.2707,-35.3472c1.6086,-6.0999 16.0456,-.9877 24.6992,-24.6992z" fill="#fff" stroke="#000" stroke-linecap="round" stroke-linejoin="round" stroke-width="2.7147"/>
<path d="m203.7273,304.5192c1.125,-.3276 2.2413,-.6377 3.399,-.8185 1.179,-.2478 2.3674,-.4081 3.5601,-.5714 .9372,-.1651 1.8625,-.343 2.8065,-.4587 1.3754,-.2003 2.7766,-.2867 4.1667,-.3181 .6983,-.052 1.3876,-.0297 2.0844,.0173l-3.5963,4.2691c-.6725,-.0458-1.343,-.0409-2.0166,-.0136-1.3847,.0532-2.7746,.1307-4.1406,.3736-.9372,.1299-1.8597,.3438-2.8003,.4526-1.1895,.1521-2.367,.3594-3.545,.5833-1.1458,.206-2.2576,.5441-3.3706,.8819l3.4528,-4.3971z" stroke="#000" stroke-linecap="round" stroke-linejoin="round" stroke-width="1.4908"/>
<path d="m239.8098,299.8339c-1.1222,-.3371-2.2357,-.6568-3.3919,-.8475-1.1769,-.2581-2.3638,-.4286-3.5551,-.6019-.9358,-.1733-1.8595,-.3591-2.8025,-.4828-1.3737,-.212-2.774,-.3106-4.1638,-.3538-.6978,-.0582-1.3873,-.0421-2.0845,-6.2e-4l3.5597,4.2996c.6729,-.0396 1.3433,-.0285 2.0167,0 1.3841,.0644 2.7733,.1545 4.1373,.4091 .936,.1378 1.8567,.3596 2.7963,.4766 1.1882,.1623 2.3638,.3794 3.5398,.6135 1.1439,.2157 2.2528,.5633 3.363,.9106l-3.415,-4.4263z" stroke="#000" stroke-linecap="round" stroke-linejoin="round" stroke-width="1.4908"/>
<path d="m538.4195,257.9523c0,3.0469-2.4032,5.5169-5.3678,5.5169-2.9646,0-5.3678,-2.47-5.3678,-5.5169 0,-3.0469 2.4032,-5.5169 5.3678,-5.5169 2.9646,0 5.3678,2.47 5.3678,5.5169z" fill="#fff" stroke="#000" stroke-linecap="round" stroke-linejoin="round" stroke-width="2" transform="matrix(.74538,0,0,.74538,-165.95961,123.87099)"/>
<path d="m555.2684,260.4871c0,.9058-.4005,1.6402-.8946,1.6402-.4941,0-.8946,-.7343-.8946,-1.6402 0,-.9058 .4005,-1.6402 .8946,-1.6402 .4941,0 .8946,.7343 .8946,1.6402z" fill="#fff" stroke="#000" stroke-linecap="round" stroke-linejoin="round" stroke-width="2" transform="matrix(.74538,0,0,.74538,-183.59286,121.95464)"/>
<g transform="matrix(.74538,0,0,.74538,-183.12133,123.3153)">
<path d="m538.4195,257.9523c0,3.0469-2.4032,5.5169-5.3678,5.5169-2.9646,0-5.3678,-2.47-5.3678,-5.5169 0,-3.0469 2.4032,-5.5169 5.3678,-5.5169 2.9646,0 5.3678,2.47 5.3678,5.5169z" fill="#fff" stroke="#000" stroke-linecap="round" stroke-linejoin="round" stroke-width="2"/>
<path d="m555.2684,260.4871c0,.9058-.4005,1.6402-.8946,1.6402-.4941,0-.8946,-.7343-.8946,-1.6402 0,-.9058 .4005,-1.6402 .8946,-1.6402 .4941,0 .8946,.7343 .8946,1.6402z" fill="#fff" stroke="#000" stroke-linecap="round" stroke-linejoin="round" stroke-width="2" transform="translate(-23.6822,-2.4475)"/>
</g>
<path d="m220.6159,277.8367-5.2288,1.8301c-3.7031,5.0547-6.5716,10.4457-19.085,13.8562-.6721,13.768-5.3375,14.726-9.4118,15.9477-4.0241,-1.6688-4.4693,-7.9965-6.2745,-12.549-7.5582,-11.3775-6.1574,-20.552 1.3072,-28.2353-.6551,-1.0204-.2196,.132-.3829,-2.1178 .4755,-.0842 3.1082,-1.8939 6.0131,-3.9216 1.6279,.5737 1.2789,-.1774 1.6901,1.8563-.3113,-1.9895 .6902,-3.4538 1.5686,-4.9673 1.1436,-1.1921 3.4473,-2.5775 6.0579,-4.014-.608,-1.7968 .7451,-3.3135 1.7852,-4.8749 4.0741,-3.0095 7.9336,-3.8611 11.7647,-4.183 6.1665,-2.7773 11.3445,-3.8229 13.5948,.2614 2.1577,-.2876 3.5934,-1.4778 7.5817,.5229 8.5894,-2.2632 9.8505,4.0653 11.5033,9.9346 1.6367,1.0862 3.5122,.8872 4.9066,.2773 6.5629,-2.6953 8.6262,3.129 13.3941,8.3502 8.7912,-4.9675 7.7252,8.4354 11.5033,12.8105 6.6837,-4.7873 9.1913,31.0173-2.1998,31.3409-.5645,3.8921-1.6501,5.1791-2.691,6.689-3.6683,2.5481-4.0256,1.9633-5.9655,2.8759-1.1305,-.2611 1.8249,-7.4735 1.9674,-10.579-2.7007,-5.1419-2.8303,-11.1409-2.6144,-17.255l-2.6144,-1.5686c-7.1365,4.8308-9.9853,-4.073-14.902,-6.2745-2.141,1.1169-4.1179,.2645-6.0131,-1.5686-12.7531,5.1774-15.1344,.0428-17.255,-4.4444z" stroke="#000" stroke-width="0"/>
<path d="m223.7666,343.973c4.1556,-1.8187 10.2839,-.7756 12.8212,-3.0948" fill="none" stroke="#000" stroke-width="1.2379"/>
<path d="m154.2857,169.6429a61.4286,8.2143 0 1 1 -122.8571,0 61.4286,8.2143 0 1 1 122.8571,0z" stroke="#000" transform="matrix(.74538,0,0,.74538,448.74217,230.01273)"/>
<path d="m507.9581,270.9429 24.0751,0c3.9131,21.0438 22.4214,15.9221 24.6992,24.6992l-4.1412,38.3591c-8.1662,14.3639-18.6149,23.4815-28.8405,23.1934l-6.3807,0c-10.3428,-.5569-26.1734,-12.9664-28.8405,-26.2052l-5.2707,-35.3472c1.6086,-6.0999 16.0456,-.9877 24.6992,-24.6992z" fill="#fff" stroke="#000" stroke-linecap="round" stroke-linejoin="round" stroke-width="2.7147"/>
<path d="m493.5411,304.738c1.125,-.3276 2.2413,-.6377 3.399,-.8185 1.179,-.2478 2.3674,-.4081 3.5601,-.5714 .9372,-.1651 1.8625,-.343 2.8065,-.4587 1.3754,-.2003 2.7766,-.2867 4.1667,-.3181 .6983,-.052 1.3876,-.0297 2.0844,.0173l-3.5963,4.2691c-.6725,-.0458-1.343,-.0409-2.0166,-.0136-1.3847,.0532-2.7746,.1307-4.1406,.3736-.9372,.1299-1.8597,.3438-2.8003,.4526-1.1895,.1521-2.367,.3594-3.545,.5833-1.1458,.206-2.2576,.5441-3.3706,.8819l3.4528,-4.3971z" stroke="#000" stroke-linecap="round" stroke-linejoin="round" stroke-width="1.4908"/>
<path d="m529.6236,304.2357c-1.1222,-.3371-2.2357,-.6568-3.3919,-.8475-1.1769,-.2581-2.3638,-.4286-3.5551,-.6019-.9358,-.1733-1.8595,-.3591-2.8025,-.4828-1.3737,-.212-2.774,-.3106-4.1638,-.3538-.6978,-.0582-1.3873,-.0421-2.0845,-6.2e-4l3.5597,4.2996c.6729,-.0396 1.3433,-.0285 2.0167,0 1.3841,.0644 2.7733,.1545 4.1373,.4091 .936,.1378 1.8567,.3596 2.7963,.4766 1.1882,.1623 2.3638,.3794 3.5398,.6135 1.1439,.2157 2.2528,.5633 3.363,.9106l-3.415,-4.4263z" stroke="#000" stroke-linecap="round" stroke-linejoin="round" stroke-width="1.4908"/>
<path d="m538.4195,257.9523c0,3.0469-2.4032,5.5169-5.3678,5.5169-2.9646,0-5.3678,-2.47-5.3678,-5.5169 0,-3.0469 2.4032,-5.5169 5.3678,-5.5169 2.9646,0 5.3678,2.47 5.3678,5.5169z" fill="#fff" stroke="#000" stroke-linecap="round" stroke-linejoin="round" stroke-width="2" transform="matrix(.74538,0,0,.74538,123.85419,124.0898)"/>
<path d="m555.2684,260.4871c0,.9058-.4005,1.6402-.8946,1.6402-.4941,0-.8946,-.7343-.8946,-1.6402 0,-.9058 .4005,-1.6402 .8946,-1.6402 .4941,0 .8946,.7343 .8946,1.6402z" fill="#fff" stroke="#000" stroke-linecap="round" stroke-linejoin="round" stroke-width="2" transform="matrix(.74538,0,0,.74538,106.22094,122.17345)"/>
<g transform="matrix(.74538,0,0,.74538,106.69247,123.53411)">
<path d="m538.4195,257.9523c0,3.0469-2.4032,5.5169-5.3678,5.5169-2.9646,0-5.3678,-2.47-5.3678,-5.5169 0,-3.0469 2.4032,-5.5169 5.3678,-5.5169 2.9646,0 5.3678,2.47 5.3678,5.5169z" fill="#fff" stroke="#000" stroke-linecap="round" stroke-linejoin="round" stroke-width="2"/>
<path d="m555.2684,260.4871c0,.9058-.4005,1.6402-.8946,1.6402-.4941,0-.8946,-.7343-.8946,-1.6402 0,-.9058 .4005,-1.6402 .8946,-1.6402 .4941,0 .8946,.7343 .8946,1.6402z" fill="#fff" stroke="#000" stroke-linecap="round" stroke-linejoin="round" stroke-width="2" transform="translate(-23.6822,-2.4475)"/>
</g>
<path d="m510.4297,278.0555-5.2288,1.8301c-3.7031,5.0547-6.5716,10.4457-19.085,13.8562-.6721,13.768-5.3375,14.726-9.4118,15.9477-4.0241,-1.6688-4.4693,-7.9965-6.2745,-12.549-7.5582,-11.3775-6.1574,-20.552 1.3072,-28.2353-.6551,-1.0204-.2196,.132-.3829,-2.1178 .4755,-.0842 3.1082,-1.8939 6.0131,-3.9216 1.6279,.5737 1.2789,-.1774 1.6901,1.8563-.3113,-1.9895 .6902,-3.4538 1.5686,-4.9673 1.1436,-1.1921 3.4473,-2.5775 6.0579,-4.014-.608,-1.7968 .7451,-3.3135 1.7852,-4.8749 4.0741,-3.0095 7.9336,-3.8611 11.7647,-4.183 6.1665,-2.7773 11.3445,-3.8229 13.5948,.2614 2.1577,-.2876 3.5934,-1.4778 7.5817,.5229 8.5894,-2.2632 9.8505,4.0653 11.5033,9.9346 1.6367,1.0862 3.5122,.8872 4.9066,.2773 6.5629,-2.6953 8.6262,3.129 13.3941,8.3502 8.7912,-4.9675 7.7252,8.4354 11.5033,12.8105 6.6837,-4.7873 9.1913,31.0173-2.1998,31.3409-.5645,3.8921-1.6501,5.1791-2.691,6.689-3.6683,2.5481-4.0256,1.9633-5.9655,2.8759-1.1305,-.2611 1.8249,-7.4735 1.9674,-10.579-2.7007,-5.1419-2.8303,-11.1409-2.6144,-17.255l-2.6144,-1.5686c-7.1365,4.8308-9.9853,-4.073-14.902,-6.2745-2.141,1.1169-4.1179,.2645-6.0131,-1.5686-12.7531,5.1774-15.1344,.0428-17.255,-4.4444z" stroke="#000" stroke-width="0"/>
<path d="m513.5804,344.1918c4.8246,-.4808 10.7323,.1213 12.8212,-3.0948" fill="none" stroke="#000" stroke-width="1.2379"/>
<path d="m801.4474,286.4215-5.2288,1.8301c-3.7031,5.0547-6.5716,10.4457-19.085,13.8562-.6721,13.768-5.3375,14.726-9.4118,15.9477-4.0241,-1.6688-4.4693,-7.9965-6.2745,-12.549-7.5582,-11.3775-6.1574,-20.552 1.3072,-28.2353-.6551,-1.0204-.2196,.132-.3829,-2.1178 .4755,-.0842 3.1082,-1.8939 6.0131,-3.9216 1.6279,.5737 1.2789,-.1774 1.6901,1.8563-.3113,-1.9895 .6902,-3.4538 1.5686,-4.9673 1.1436,-1.1921 3.4473,-2.5775 6.0579,-4.014-.608,-1.7968 .7451,-3.3135 1.7852,-4.8749 4.0741,-3.0095 7.9336,-3.8611 11.7647,-4.183 6.1665,-2.7773 11.3445,-3.8229 13.5948,.2614 2.1577,-.2876 3.5934,-1.4778 7.5817,.5229 8.5894,-2.2632 9.8505,4.0653 11.5033,9.9346 1.6367,1.0862 3.5122,.8872 4.9066,.2773 6.5629,-2.6953 8.6262,3.129 13.3941,8.3502 8.7912,-4.9675 7.7252,8.4354 11.5033,12.8105 6.6837,-4.7873 9.1913,31.0173-2.1998,31.3409-.5645,3.8921-1.6501,5.1791-2.691,6.689-3.6683,2.5481-4.0256,1.9633-5.9655,2.8759-1.1305,-.2611 1.8249,-7.4735 1.9674,-10.579-2.7007,-5.1419-2.8303,-11.1409-2.6144,-17.255l-2.6144,-1.5686c-7.1365,4.8308-9.9853,-4.073-14.902,-6.2745-2.141,1.1169-4.1179,.2645-6.0131,-1.5686-12.7531,5.1774-15.1344,.0428-17.255,-4.4444z" stroke="#000" stroke-width="0"/>
<path d="m804.5981,352.5578c5.5621,.9943 11.5865,1.8297 12.8212,-3.0948" fill="none" stroke="#000" stroke-width="1.2379"/>
</svg>
