<svg version="1.0" viewBox="0 0 900 450" xmlns="http://www.w3.org/2000/svg" xmlns:svg="http://www.w3.org/2000/svg">
<path d="M49.9059,84.3393H830.9078A31.621,31.621 0 0 1 862.5288,115.9603V364.3091A31.621,31.621 0 0 1 830.9078,395.9302H49.9059A31.621,31.621 0 0 1 18.2849,364.3091V115.9603A31.621,31.621 0 0 1 49.9059,84.3393z" fill="#fff" stroke="#000" stroke-linecap="round" stroke-width="7.4907"/>
<path d="M585.5265,81.0247L585.5265,394.9151" fill="none" stroke="#000" stroke-width="5.6784"/>
<g transform="matrix(.12574,0,0,.12574,820.25174,423.4751)">
<path d="M162.9615,-66.1029C166.455,-62.0454 171.1969,-61.5587 176.2443,-61.2734C182.6298,-61.4455 189.026,-62.9739 194.9925,-65.2443C198.1805,-66.4574 199.9424,-67.4904 202.9171,-69.0527C185.1139,-58.637 195.0252,-64.2154 198.3536,-67.7512C200.078,-69.5831 201.1079,-71.5131 202.0803,-73.8002C204.6069,-80.9176 204.9343,-88.5711 205.3652,-96.044C206.205,-106.9224 203.9531,-117.6028 201.5284,-128.1342C198.5789,-139.2121 194.5731,-149.9773 190.1613,-160.547C188.0488,-165.5407 185.6597,-170.4087 183.3326,-175.3036C180.1965,-181.3209 177.6309,-177.584 195.344,-184.4552C195.9544,-184.6919 196.0751,-183.3682 196.4662,-182.8431C197.1211,-181.9638 197.8094,-181.1099 198.4809,-180.2434C205.0155,-171.2763 212.8739,-163.4194 220.7492,-155.6472C225.3824,-151.1349 230.3508,-146.9467 234.7812,-142.2286C236.4627,-140.8555 237.4679,-138.92 238.8212,-137.2745C240.143,-136.0803 241.1771,-137.3375 242.3452,-138.1546C221.9421,-125.9198 229.2084,-129.8742 233.1206,-133.6257C234.6613,-135.103 236.1138,-136.6818 237.5889,-138.2234C239.6824,-140.3121 241.6662,-142.5484 243.9587,-144.4296C250.0105,-149.3955 258.4541,-153.3638 264.7123,-156.9238C270.4949,-159.4778 276.4106,-161.6997 282.419,-163.6577C283.6619,-163.9272 288.4708,-165.7766 289.5688,-164.5267C289.8243,-164.2359 289.9278,-163.8408 290.1072,-163.4978C290.1321,-163.1471 290.2293,-162.7941 290.1818,-162.4458C289.8354,-159.9037 285.8996,-156.946 284.1819,-155.3646C276.2864,-148.8374 268.6258,-142.0481 261.3333,-134.8534C254.99,-128.0483 248.4375,-121.3307 243.3873,-113.4811C240.2691,-108.5784 238.6116,-103.1651 237.8336,-97.4612C237.3182,-92.3602 237.4023,-87.2238 237.4103,-82.1038C237.6896,-76.538 238.3996,-70.961 240.0566,-65.6294C241.0066,-62.7897 242.6958,-60.7035 245.3984,-59.4565C247.1918,-58.8245 249.2452,-58.4083 251.1546,-58.7689C251.5988,-58.8529 255.3028,-60.1078 255.5991,-60.2068C259.9663,-62.5901 270.5149,-68.1635 250.7739,-57.3451C249.993,-56.9172 252.2774,-58.3004 253.0176,-58.7957C254.7175,-59.9333 255.126,-60.2677 256.721,-61.457C258.634,-62.8882 257.7277,-62.1927 259.444,-63.5378L273.1151,-69.0361C271.3827,-67.5797 272.3103,-68.3061 270.3191,-66.8738C262.2562,-60.6484 253.3247,-55.4952 244.0683,-51.2776C240.0071,-50.0654 237.0083,-49.4853 233.0532,-51.3558C230.1407,-52.9982 228.2379,-55.381 227.2136,-58.6022C225.5902,-64.0918 224.9779,-69.8068 224.4451,-75.4915C224.414,-80.6627 224.3292,-85.8471 224.7473,-91.006C225.4856,-96.9163 227.043,-102.5571 230.2219,-107.6713C230.8593,-108.7308 231.4383,-109.8277 232.1341,-110.8497C233.5635,-112.949 235.6974,-115.3519 237.3267,-117.2406C240.9264,-121.4136 244.6087,-125.5129 248.4113,-129.5027C255.5038,-136.6573 262.9793,-143.4183 270.7308,-149.8547C272.9266,-151.8936 275.199,-153.8815 277.0938,-156.2117C277.4084,-156.0458 276.3957,-156.0728 276.0435,-156.0235C274.2856,-155.7778 272.5938,-155.2318 270.901,-154.7183C264.9598,-152.7572 259.0786,-150.5816 253.4382,-147.8602C272.8794,-159.3576 261.1903,-152.8293 257.3908,-149.9058C255.0765,-148.125 253.0963,-145.926 251.0661,-143.8444C243.704,-136.0782 243.2815,-135.2558 230.8263,-128.8268C228.7851,-127.8625 227.644,-127.977 226.0472,-129.6547C224.7873,-131.3205 223.7779,-133.1781 222.2218,-134.6111C217.9797,-139.4028 213.2498,-143.7505 208.7563,-148.2998C200.956,-156.2393 193.036,-164.0853 186.0942,-172.8083C185.3483,-173.6466 184.6017,-174.4843 183.8565,-175.3233C183.4425,-175.7895 182.1438,-176.3177 182.6168,-176.7238C193.8626,-186.3779 193.2258,-188.9054 196.1308,-182.5316C198.3231,-177.537 200.6341,-172.5923 202.629,-167.5129C206.8035,-156.7535 210.6525,-145.8567 213.8046,-134.7502C216.3374,-124.1716 218.8429,-113.4256 218.1141,-102.4633C217.8266,-94.9202 217.3841,-87.2389 215.3364,-79.9427C214.6632,-78.0762 214.4306,-77.1236 213.3557,-75.4158C208.633,-67.9123 198.4469,-64.3688 191.7517,-60.1093C183.2311,-55.9217 174.1664,-52.9607 164.5762,-52.9176C163.243,-53.0245 161.8998,-53.0436 160.5765,-53.2383C156.6356,-53.8182 152.962,-55.54 150.2346,-58.4617L162.9615,-66.1029z" stroke="#000" stroke-linecap="round" stroke-linejoin="round" stroke-width="2"/>
<path d="M285.1504,-83.2549C279.2704,-81.6082 266.5253,-73.74 288.7732,-86.471C285.6873,-84.8287 283.8556,-82.1564 282.4117,-79.0736C281.5877,-76.6037 280.7082,-73.8959 280.8873,-71.2445C281.0112,-69.4099 281.4883,-68.4885 282.1122,-66.775C284.5548,-61.9495 288.3109,-57.9808 292.7681,-54.9746C296.0578,-52.6838 299.7974,-51.6413 303.7669,-51.5931C306.8299,-52.2892 309.6761,-53.4821 312.4808,-54.8725C313.6763,-55.4652 317.18,-57.4003 316.0334,-56.7177C302.8176,-48.8508 306.1278,-50.9743 310.8042,-54.1772C314.6548,-57.1431 318.8403,-60.5843 319.8322,-65.6282C319.9707,-66.3328 319.9608,-67.0585 320.0251,-67.7736C319.7705,-74.0822 315.7842,-79.021 311.938,-83.6853C309.5135,-86.3835 306.7679,-88.9566 303.4532,-90.5325C301.7709,-91.3322 300.9086,-91.4744 299.127,-91.9474C295.533,-92.1428 291.7665,-91.8011 288.3544,-90.5627C286.7769,-89.9902 284.386,-88.6593 282.9199,-87.8841C302.9062,-99.8746 289.8107,-91.9587 285.6886,-88.3736L272.0851,-82.8087C278.4156,-88.898 286.8685,-92.4857 294.2269,-96.9393C296.3627,-97.9778 297.6236,-98.6956 299.9061,-99.3886C303.5386,-100.4916 307.4494,-100.7491 311.1907,-100.1978C313.1147,-99.5839 313.8945,-99.429 315.7014,-98.4661C319.0659,-96.6731 321.8405,-93.9498 324.3224,-91.1058C328.3687,-86.1242 332.4762,-80.9616 333.0924,-74.3305C333.0628,-73.5258 333.1121,-72.7144 333.0035,-71.9165C332.2653,-66.4892 328.2283,-62.6312 324.1231,-59.4248C316.1605,-53.7094 320.2406,-56.4756 304.8488,-47.7573C300.8383,-45.4856 296.4513,-43.5622 291.8451,-43.0245C287.6957,-43.3915 283.8349,-44.6143 280.4546,-47.1325C275.8828,-50.4672 272.0386,-54.677 269.3612,-59.693C268.7366,-61.3275 268.0271,-62.8838 267.8135,-64.6468C267.4791,-67.4079 268.3981,-70.3095 269.0633,-72.941C270.3422,-76.1902 271.9653,-79.2701 275.0209,-81.1777C282.2031,-85.3118 288.9239,-90.0555 296.9357,-92.2666L285.1504,-83.2549z" stroke="#000" stroke-linecap="round" stroke-linejoin="round" stroke-width="2"/>
<path d="M347.1504,-77.2549C344.6035,-76.4403 341.9575,-75.7416 339.5363,-74.5814C338.7232,-74.1918 337.9599,-73.7059 337.1716,-73.2681C340.5173,-75.1416 343.863,-77.0152 347.2087,-78.8887C343.2371,-76.2087 340.2901,-73.5303 338.5132,-69.0387C337.3505,-65.3388 337.9081,-62.2103 340.8379,-59.4732C341.5453,-58.8124 342.3768,-58.2984 343.1462,-57.711C348.7467,-54.4938 355.3758,-53.3418 361.7904,-54.0225C363.6291,-54.2176 365.4327,-54.663 367.2538,-54.9833C371.4683,-56.0713 373.305,-56.374 377.2631,-58.0355C378.5761,-58.5866 382.3128,-60.6635 381.0902,-59.9334C363.2909,-49.3046 371.3475,-53.9354 374.1428,-56.7651C374.7627,-57.3926 375.255,-58.1344 375.8111,-58.8191C378.2486,-62.6326 378.3111,-66.0246 376.5942,-70.0879C376.279,-70.8016 374.4627,-74.5447 373.1819,-73.7346C372.9601,-73.5943 372.8477,-73.33 372.6807,-73.1277C392.8977,-84.6564 385.2006,-82.7287 383.2398,-77.11C382.3936,-74.6854 382.2459,-72.3278 382.1295,-69.7816C383.5341,-57.9615 388.7559,-47.0167 393.0457,-36.0346C398.2618,-21.5258 403.2897,-6.47 403.8684,9.092C403.9836,12.189 403.6821,15.2876 403.5889,18.3853C403.1263,21.364 402.8671,24.3813 402.2011,27.3212C400.0287,36.9109 395.0849,45.6892 387.7437,52.2682C386.4496,53.4279 384.9846,54.3816 383.6051,55.4383C378.0848,58.3221 372.8336,61.7934 367.0443,64.0899C364.6445,65.0418 358.8518,63.0561 356.9529,62.2095C349.8949,59.0631 343.7992,53.895 337.8032,49.1621C327.688,40.5031 317.7846,31.4711 308.7355,21.6837C304.0475,16.6133 302.8886,14.9067 298.8166,9.6614C295.3512,3.8792 291.2661,-2.8245 294.6732,-9.6402C296.6895,-13.6737 299.1232,-15.1372 302.5004,-18.074C312.6219,-24.6327 313.4505,-25.3796 328.104,-32.7999C331.6804,-34.6109 343.2136,-38.7065 346.7432,-39.9379C353.7819,-42.3937 361.3514,-44.8267 368.4293,-47.1393C387.0233,-52.5028 405.2349,-59.0355 423.2344,-66.1176C424.7623,-66.7671 426.2923,-67.4118 427.8181,-68.0661C428.9838,-68.566 430.1581,-69.0469 431.3089,-69.5801C433.6612,-70.67 435.8588,-72.019 438.2856,-72.9431C441.5765,-73.4124 442.7308,-69.4505 443.7159,-67.0436C445.9847,-60.9159 447.263,-54.4902 447.8147,-47.9941C447.9509,-45.0837 448.0453,-42.1595 447.6331,-39.2662C447.5909,-38.9704 447.7439,-38.5103 447.473,-38.3842C443.0642,-36.3309 438.4604,-34.7251 433.9541,-32.8956C433.9659,-33.7909 433.9166,-34.689 433.9896,-35.5814C434.0957,-36.8799 434.3191,-38.1662 434.4903,-39.4578C435.49,-46.9958 436.7994,-54.4336 438.3334,-61.8806C439.8884,-68.3767 441.231,-75.18 444.9433,-80.8503C449.1473,-85.2518 458.497,-93.9297 463.0497,-88.879C463.5264,-88.3501 463.8605,-87.7082 464.2658,-87.1228C465.1568,-85.5475 465.9266,-84.351 466.5095,-82.6055C468.1484,-77.6977 468.884,-71.9449 469.7517,-66.8403C470.8843,-62.4227 470.4525,-57.1322 471.7929,-52.8005C473.5655,-57.562 471.775,-52.58 459.0435,-46.5094C458.7853,-46.3863 459.4327,-46.9346 459.5772,-47.1814C459.9087,-47.7474 460.5577,-49.4088 460.8105,-49.919C461.1553,-50.6152 461.549,-51.286 461.9182,-51.9694C464.3127,-55.807 466.3395,-59.8622 468.9779,-63.5425C473.3892,-69.0698 477.5158,-70.2762 485.1519,-74.4725C485.4138,-74.6164 485.7664,-74.5326 486.0475,-74.431C486.4054,-74.3016 486.6836,-74.0129 487.0016,-73.8039C489.988,-70.6628 491.0279,-66.2182 492.0362,-62.1278C492.9125,-57.6742 493.3814,-53.131 495.0104,-48.8712C495.4071,-48.3128 495.7311,-47.6948 496.2004,-47.1959C499.6185,-43.5623 505.2722,-40.8461 509.9343,-39.3687C511.6885,-38.8128 513.4959,-38.4411 515.2767,-37.9773C522.8167,-36.0961 530.3825,-36.0026 537.8823,-38.0643C539.5423,-38.5206 541.2095,-38.9969 542.7819,-39.6981C544.2464,-40.3512 545.5581,-41.3036 546.9463,-42.1064C544.0584,-40.6163 541.3829,-38.6098 538.2826,-37.636C537.087,-37.2605 540.1428,-39.3201 540.9963,-40.2377C543.5122,-42.9425 544.9507,-45.9503 545.9633,-49.4488C546.6579,-52.3622 546.6456,-55.3557 546.5652,-58.3283C545.753,-64.4645 540.332,-58.4252 559.1,-66.0472C559.4417,-66.186 558.8994,-65.3356 558.842,-64.9712C558.7584,-64.4412 558.7327,-63.9037 558.678,-63.37C558.4116,-58.5352 558.3011,-53.6898 558.8385,-48.8729C559.3853,-45.774 559.9781,-42.6077 562.4072,-40.4324C564.1162,-39.3075 565.9299,-39.231 567.8176,-39.8486C572.3605,-42.1411 579.1794,-46.118 558.5218,-34.4558C557.7888,-34.042 559.9393,-35.3644 560.6358,-35.837L574.3857,-41.3039C573.3212,-40.43 573.5147,-40.5201 572.2923,-39.8054C567.6471,-37.0896 561.8948,-32.5533 556.0168,-30.8992C553.7225,-30.6532 551.5833,-31.1524 549.789,-32.6773C547.292,-35.2807 546.4771,-38.6003 545.9205,-42.101C545.3299,-46.9737 545.4484,-51.8684 545.5121,-56.7697C545.5317,-57.4241 545.5891,-59.6985 545.6353,-59.7292C555.3623,-66.1895 558.5071,-72.3046 559.7414,-65.0828C559.8109,-61.9585 559.8144,-58.8161 559.1617,-55.7418C555.9603,-42.9865 547.5064,-40.0804 535.8851,-33.2002C534.4562,-32.4798 533.0874,-31.625 531.5984,-31.0388C522.6477,-27.5147 512.8948,-27.7976 503.6881,-30.0046C501.849,-30.4923 499.9816,-30.8834 498.1708,-31.4678C493.5394,-32.9624 487.0263,-36.1598 483.6105,-39.7531C483.0478,-40.345 482.6426,-41.0688 482.1586,-41.7267C480.5349,-46.0707 480.067,-50.6739 479.2315,-55.2142C478.3895,-58.7321 477.5533,-63.083 474.6465,-65.525C473.9606,-65.439 474.3146,-65.5425 473.6055,-65.1501C477.5343,-67.4822 481.4631,-69.8142 485.392,-72.1463C485.7243,-72.3373 484.7836,-71.6778 484.5048,-71.4148C483.8053,-70.7548 483.2382,-69.9617 482.4827,-69.3567C479.6627,-65.8118 477.6289,-61.7908 475.2736,-57.9352C474.3882,-56.4197 473.6566,-54.9774 473.0931,-53.3151C472.9783,-52.9764 473.1056,-52.4677 472.7992,-52.2834C459.5044,-44.2868 462.4531,-41.0521 458.7423,-45.7121C457.6264,-50.4162 458.1984,-55.4103 457.1115,-60.1366C456.048,-66.7522 455.2298,-73.8382 451.6337,-79.6263C451.0084,-80.3781 450.7399,-81.067 449.7463,-81.2506C449.4773,-81.3003 448.6972,-81.0264 448.9293,-81.1714C452.7843,-83.5799 456.7874,-85.7435 460.684,-88.0841C461.0341,-88.2944 459.9199,-87.7826 459.574,-87.5654C459.1661,-87.3094 458.8163,-86.9709 458.4374,-86.6736C454.0539,-81.4464 452.7319,-74.3891 450.9594,-67.9864C448.9624,-58.7542 447.2481,-49.392 446.9663,-39.9303C442.6611,-37.2917 438.4431,-34.5055 434.0509,-32.0145C433.809,-31.8773 434.2913,-32.5188 434.3689,-32.7859C435.1731,-35.5526 434.9442,-38.4808 434.9437,-41.3192C434.5725,-47.6693 433.3852,-53.9844 430.9595,-59.8902C430.4967,-60.9584 429.6461,-64.0551 428.0273,-64.1645C427.6519,-64.1899 426.9629,-63.8928 426.664,-63.7855C421.876,-61.6536 417.2258,-59.2069 412.2498,-57.5029C394.41,-50.7931 376.4177,-44.5046 358.1221,-39.1385C347.5024,-35.6251 336.8084,-32.2298 326.4071,-28.0958C323.4132,-26.9058 320.6723,-24.9485 317.5147,-24.3088C315.893,-23.9803 323.0914,-27.8472 321.6038,-27.1227C319.4346,-26.0663 317.5039,-24.5777 315.454,-23.3052C311.6254,-20.2317 306.9304,-17.0518 306.0231,-11.7537C305.1302,-6.539 308.4514,-1.7173 310.6976,2.6064C312.0867,4.5044 313.4087,6.4534 314.865,8.3002C324.8107,20.9133 336.9125,31.7349 349.2333,41.9507C355.2776,46.4639 361.4425,51.5105 368.5887,54.2474C370.2378,54.879 371.9681,55.3572 373.7232,55.5527C375.2204,55.7194 379.0476,54.0524 378.2367,55.3221C376.5481,57.9662 373.0607,58.8689 370.4727,60.6424C371.9211,59.6313 373.4539,58.7314 374.818,57.609C382.3953,51.3747 387.7065,42.7683 390.0706,33.2575C390.7888,30.3679 391.0696,27.3869 391.5691,24.4516C391.713,21.3964 392.0786,18.3436 392.0007,15.286C391.6074,-.1509 386.3714,-15.0473 381.0958,-29.3649C376.6203,-40.4339 371.1739,-51.3452 369.2251,-63.2235C369.1596,-66.0352 369.2286,-68.1755 369.9092,-70.8957C369.9473,-71.0478 370.7023,-73.7558 371.0384,-73.9872C375.3553,-76.9602 379.9527,-79.5037 384.4099,-82.2619C384.7489,-82.2349 385.0988,-82.2704 385.4268,-82.1807C387.5325,-81.605 388.5419,-78.9921 389.422,-77.2845C391.2962,-72.8589 391.5534,-68.921 389.1687,-64.5737C388.6277,-63.7989 388.1602,-62.9673 387.5458,-62.2493C383.155,-57.1183 374.373,-53.5169 369.904,-51.0303C365.6297,-48.6519 360.7122,-47.6351 356.0106,-46.5342C354.1284,-46.2519 352.2609,-45.8421 350.3638,-45.6872C343.5879,-45.1342 336.6659,-46.3505 330.8819,-49.9878C330.0515,-50.6505 329.1568,-51.2399 328.3906,-51.9759C325.1513,-55.0883 324.1401,-58.5232 325.2119,-62.8203C326.8277,-67.9581 329.3611,-70.4448 333.6797,-73.6076C342.0135,-78.5311 349.5479,-83.9618 358.9357,-86.2666L347.1504,-77.2549z" stroke="#000" stroke-linecap="round" stroke-linejoin="round" stroke-width="2"/>
<path d="M549.2332,-122.1847C547.4497,-120.0919 546.0244,-117.6969 545.3462,-115.0219C544.8607,-112.3468 546.4564,-111.6609 548.6501,-110.701C552.1989,-109.4013 555.2322,-109.544 558.8667,-110.1867C563.727,-111.8529 571.4457,-116.6009 549.8419,-104.683C549.5386,-104.5156 550.4174,-105.0731 550.6735,-105.3066C551.283,-105.8622 551.3443,-106.0922 551.7431,-106.7885C552.4769,-108.4348 552.405,-109.9757 551.4599,-111.492C550.2026,-112.6833 548.3125,-112.5716 546.6902,-112.6506C545.0147,-112.4957 543.4191,-112.0801 542.057,-111.0753L553.6269,-120.3929C555.2743,-121.0166 556.9597,-121.4107 558.7396,-121.2691C560.8571,-121.0599 562.9403,-120.7594 564.3134,-118.9498C565.4318,-117.0683 565.8738,-115.1231 565.2275,-112.9755C562.8838,-105.9037 553.9818,-103.0447 547.0943,-101.3611C543.4244,-100.8997 539.7964,-101.101 536.3461,-102.5755C533.866,-103.8553 531.6424,-105.4567 532.0181,-108.5614C532.4759,-111.4436 533.8818,-114.0254 535.5706,-116.3799L549.2332,-122.1847z" stroke="#000" stroke-linecap="round" stroke-linejoin="round" stroke-width="2"/>
<path d="M359.6057,-86.1453C362.4187,-87.5125 365.103,-89.129 368.0047,-90.3079C369.8229,-91.4887 371.8175,-92.0343 373.9447,-92.2669C375.9013,-92.4156 377.8658,-92.3906 379.8266,-92.3838C381.7726,-92.5908 383.4211,-92.0588 385.1306,-91.2244C386.3272,-90.2653 387.2717,-88.9911 388.1806,-87.7589C388.971,-86.3232 389.4355,-84.7124 389.9217,-83.1481C390.3578,-81.5453 390.9514,-80.0138 391.2655,-78.376C391.5681,-76.4533 391.5887,-74.5022 391.6123,-72.5605C391.6209,-71.5593 391.6196,-70.5581 391.6191,-69.5568L378.4016,-62.8239C378.4031,-63.8201 378.4051,-64.8163 378.4006,-65.8125C378.3869,-67.6761 378.3836,-69.5468 378.1492,-71.3987C377.8884,-72.9952 377.3044,-74.4635 376.8794,-76.0128C376.4669,-77.4199 376.0218,-78.8533 375.3829,-80.165C374.6051,-81.185 373.8481,-82.3496 372.73,-83.0103C371.1597,-83.6924 369.5221,-83.7365 367.825,-83.6633C365.9059,-83.6547 363.9742,-83.6641 362.0745,-83.3541C360.0654,-82.9292 358.2552,-82.0648 356.4262,-81.1471C353.5803,-79.8236 350.8275,-78.3064 348.069,-76.8116L359.6057,-86.1453z" stroke="#000" stroke-linecap="round" stroke-linejoin="round" stroke-width="2"/>
</g>
<path d="M59.8331,49.0329H246.7113A15.9099,15.9099 0 0 1 262.6212,64.9428V64.9428A15.9099,15.9099 0 0 1 246.7113,80.8527H59.8331A15.9099,15.9099 0 0 1 43.9232,64.9428V64.9428A15.9099,15.9099 0 0 1 59.8331,49.0329z" fill="#fff" stroke="#000" stroke-linecap="round" stroke-linejoin="round" stroke-width="4"/>
<path d="M101.5203,44.9288A36.8706,34.8503 0 1 1 27.7792,44.9288A36.8706,34.8503 0 1 1 101.5203,44.9288z" stroke="#000" stroke-linecap="round" stroke-linejoin="round" stroke-width="7.491" transform="matrix(.7121,0,0,.7121,-1.36316,26.65581)"/>
<text font-family="Bitstream Vera Sans" font-size="40" x="20.2861" y="72.6903">
   <tspan fill="#f9f9f9" x="20.2861" y="72.6903">62</tspan>
  </text>
<text font-family="Bitstream Vera Sans" font-size="20" x="116.1964" y="71.7099">
   <tspan x="116.1964" y="71.7099">Priorités</tspan>
  </text>
<text font-family="Bitstream Vera Sans" font-size="20" x="160.4054" y="140.2298">
   <tspan text-align="center" text-anchor="middle" x="160.4054" y="140.2298"></tspan>
  </text>
<text font-family="Bitstream Vera Sans" font-size="20" x="438.7376" y="156.7429">
   <tspan text-align="center" text-anchor="middle" x="438.7376" y="156.7429">Argh ! Vite, vite !</tspan>
  </text>
<path d="M306.4286,328.5714L585.7143,328.5714" fill="none" stroke="#000"/>
<g transform="translate(-242.8571,45.7143)">
<path d="m744.2857,321.4286c0,3.5504-24.3045,6.4286-54.2857,6.4286-29.9812,0-54.2857,-2.8782-54.2857,-6.4286 0,-3.5504 24.3045,-6.4286 54.2857,-6.4286 29.9812,0 54.2857,2.8782 54.2857,6.4286z" stroke="#000200" stroke-linecap="round" stroke-linejoin="round" stroke-width="2" transform="translate(-1.4286,-5)"/>
<path d="M741.9027,232.8517L741.9027,280.7402C741.9027,300.7472 725.796,316.8539 705.789,316.8539L670.355,316.8539C650.348,316.8539 634.2413,300.7472 634.2413,280.7402L634.2413,232.8517" fill="#fff" stroke="#000" stroke-linecap="round" stroke-linejoin="round" stroke-width="3.6422"/>
<path d="M704.6803,252.6632H725.0932A2.3409,2.3409 0 0 1 727.434,255.004V261.909A2.3409,2.3409 0 0 1 725.0932,264.2498H704.6803A2.3409,2.3409 0 0 1 702.3394,261.909V255.004A2.3409,2.3409 0 0 1 704.6803,252.6632z" stroke="#000" stroke-linecap="square" stroke-linejoin="round" stroke-width="3.7338"/>
<path d="M636.5495,257.7178C637.0987,257.7283 637.648,257.7246 638.1973,257.7219C638.5603,257.7197 638.9232,257.7183 639.2862,257.7176C639.5787,257.7172 639.8712,257.7172 640.1637,257.7172C640.4677,257.7166 640.7717,257.7178 641.0758,257.7184C641.4664,257.7087 641.851,257.718 642.2377,257.7691C642.6374,257.8236 643.0408,257.8408 643.4439,257.8518C643.8492,257.836 644.2468,257.9107 644.648,257.9508C645.0559,257.9876 645.4659,257.9915 645.8754,257.9959C646.3055,257.9982 646.7356,257.998 647.1658,257.9965C647.5394,257.9958 647.913,257.9952 648.2866,257.9943C648.5936,257.9935 648.9007,257.9933 649.2077,257.9932C649.4992,257.9931 649.7907,257.9931 650.0822,257.9931C650.3737,257.9931 650.6653,257.9931 650.9568,257.9931C651.2755,257.9927 651.5942,257.9937 651.9129,257.9951C652.3071,257.9974 652.7014,257.9955 653.0957,257.9944C653.4666,257.9942 653.8374,257.9949 654.2083,257.9959C654.6051,257.9958 655.0018,257.9959 655.3985,257.9949C655.7785,257.9951 656.1584,257.9956 656.5384,257.995C656.884,257.9938 657.2296,257.9935 657.5751,257.9953C658.1083,257.9979 658.6415,257.9995 659.1747,258.0014C659.9013,258.0042 660.628,258.0048 661.3546,258.0024C661.8878,258.001 662.4211,257.9971 662.9543,257.9969C663.3956,257.9976 663.8369,257.9969 664.2782,257.9954C664.3393,257.9952 664.4004,257.995 664.4615,257.9948L662.7155,259.1941C662.655,259.1939 662.5945,259.1937 662.534,259.1935C662.0942,259.192 661.6543,259.1914 661.2145,259.192C660.6865,259.1918 660.1586,259.1879 659.6306,259.1866C658.903,259.1841 658.1754,259.1848 657.4478,259.1876C656.9087,259.1895 656.3696,259.1911 655.8305,259.1936C655.4847,259.1954 655.1389,259.1952 654.793,259.1939C654.4129,259.1933 654.0328,259.1939 653.6527,259.1941C653.257,259.1931 652.8613,259.1932 652.4656,259.193C652.0933,259.194 651.7209,259.1948 651.3486,259.1945C650.9549,259.1934 650.5613,259.1915 650.1676,259.1939C649.847,259.1953 649.5265,259.1962 649.2059,259.1958C648.9144,259.1958 648.6228,259.1958 648.3312,259.1958C648.0398,259.1958 647.7484,259.1958 647.457,259.1957C647.151,259.1956 646.845,259.1954 646.539,259.1948C646.1669,259.1941 645.7949,259.1939 645.4229,259.1939C644.9927,259.1931 644.5626,259.1946 644.1324,259.1898C643.7177,259.1842 643.3022,259.1753 642.8897,259.1304C642.4929,259.0858 642.0977,259.0332 641.6966,259.0434C641.2889,259.0283 640.8818,258.9999 640.4774,258.9467C640.0954,258.9062 639.712,258.9175 639.3281,258.9188C639.0229,258.9194 638.7178,258.9206 638.4126,258.92C638.1205,258.92 637.8284,258.92 637.5363,258.9196C637.1775,258.9189 636.8186,258.9175 636.4598,258.9154C635.9066,258.9126 635.3532,258.9091 634.8001,258.9194L636.5495,257.7178z" stroke="#000" stroke-linecap="square" stroke-linejoin="round" stroke-width=".4767"/>
<path d="M728.0443,257.9945C728.7482,258.0063 729.4522,258.0047 730.1562,258.0042C730.8014,258.0033 731.4466,258.0015 732.0918,257.9986C732.523,257.9962 732.9542,257.9961 733.3854,257.9956C733.7252,257.9948 734.065,257.9939 734.4048,257.9935C734.7016,258.0151 734.9868,257.936 735.2786,257.8979C735.5712,257.8638 735.8662,257.8589 736.1606,257.8554C736.4528,257.8533 736.745,257.8542 737.0371,257.8546C737.3289,257.855 737.6207,257.8551 737.9125,257.8552C738.2043,257.8552 738.4961,257.8552 738.7879,257.8552C739.0797,257.8552 739.3714,257.8552 739.6632,257.8552C739.9765,257.8546 740.2898,257.8563 740.6031,257.8563C740.9203,257.8561 741.2375,257.8557 741.5548,257.8554C741.8486,257.8552 742.1425,257.8552 742.4363,257.8552C742.6306,257.8552 742.5334,257.8552 742.7277,257.8552L740.9768,259.0579C740.7825,259.0579 740.8797,259.0579 740.6854,259.0579C740.3918,259.0579 740.0981,259.0578 739.8045,259.0577C739.4882,259.0574 739.1718,259.057 738.8555,259.0567C738.5411,259.0568 738.2267,259.0585 737.9124,259.0579C737.6206,259.0579 737.3288,259.0579 737.037,259.0579C736.7452,259.0579 736.4533,259.0579 736.1616,259.0578C735.8697,259.0576 735.5779,259.0574 735.2861,259.057C734.9948,259.0568 734.7035,259.056 734.4122,259.0614C734.1229,259.0688 733.8331,259.0809 733.547,259.1249C733.2509,259.1702 732.9564,259.2156 732.6549,259.1954C732.3171,259.195 731.9794,259.1942 731.6417,259.1934C731.2134,259.1928 730.7852,259.1927 730.3569,259.1903C729.7171,259.1874 729.0773,259.1856 728.4374,259.1848C727.7241,259.1843 727.0106,259.1829 726.2973,259.1945L728.0443,257.9945z" stroke="#000" stroke-linecap="square" stroke-linejoin="round" stroke-width=".4767"/>
<path d="M687.7514,258.1577C688.2854,258.2253 688.824,258.2465 689.3619,258.2625C689.842,258.2741 690.3223,258.2741 690.8025,258.2729C691.1989,258.2724 691.5953,258.2722 691.9917,258.2713C692.7875,258.2917 693.5837,258.2817 694.3797,258.278C694.8606,258.2745 695.3415,258.273 695.8225,258.271C696.206,258.2711 696.5895,258.2706 696.9731,258.2716C697.3763,258.2729 697.7794,258.2707 698.1826,258.2713C698.5465,258.2705 698.9103,258.2706 699.2741,258.2707C699.6385,258.2712 700.0028,258.2709 700.3672,258.2702C700.7153,258.2714 701.0633,258.2703 701.4114,258.2697C701.7519,258.2711 702.0925,258.2702 702.4331,258.2697C702.7339,258.2692 703.0347,258.2691 703.3355,258.269C703.5871,258.3275 703.8401,258.3696 704.0983,258.39C704.3782,258.4072 704.6588,258.4072 704.9392,258.408C705.2309,258.4082 705.5225,258.4076 705.8142,258.4073C705.9602,258.4072 706.1062,258.4071 706.2523,258.407L704.5014,259.6098C704.3554,259.6099 704.2094,259.61 704.0634,259.6101C703.7714,259.6104 703.4794,259.6112 703.1874,259.6097C702.9022,259.6073 702.6164,259.6047 702.3325,259.5766C702.0819,259.5473 701.8365,259.4869 701.5847,259.4717C701.2845,259.4716 700.9843,259.4715 700.6841,259.471C700.3436,259.4706 700.0031,259.4696 699.6626,259.471C699.3149,259.4704 698.9673,259.4693 698.6197,259.4705C698.2558,259.4698 697.8919,259.4695 697.528,259.47C697.1649,259.4701 696.8017,259.4702 696.4385,259.4694C696.0356,259.47 695.6327,259.4678 695.2298,259.469C694.8457,259.4701 694.4616,259.4696 694.0775,259.4697C693.6033,259.4677 693.1292,259.4662 692.655,259.4627C691.8523,259.459 691.0493,259.4495 690.2467,259.47C689.851,259.4696 689.4552,259.4705 689.0595,259.4697C688.581,259.4668 688.1024,259.4631 687.6242,259.4471C687.0765,259.426 686.5295,259.3933 685.9842,259.3401L687.7514,258.1577z" stroke="#000" stroke-linecap="square" stroke-linejoin="round" stroke-width=".4767"/>
<path d="M649.2469,220.3444L649.2469,238.8876" fill="none" stroke="#000" stroke-linecap="round" stroke-width="4.8046"/>
<path d="M658.771,218.5901L658.771,237.1333" fill="none" stroke="#000" stroke-linecap="round" stroke-width="4.8046"/>
<path d="M667.7079,220.0544L667.7079,238.5976" fill="none" stroke="#000" stroke-linecap="round" stroke-width="4.8046"/>
<path d="M679.3846,218.8871L679.3846,237.4304" fill="none" stroke="#000" stroke-linecap="round" stroke-width="4.8046"/>
<path d="M689.5433,221.0737L689.5433,239.617" fill="none" stroke="#000" stroke-linecap="round" stroke-width="4.8046"/>
<path d="M701.1725,220.8983L701.1725,239.4416" fill="none" stroke="#000" stroke-linecap="round" stroke-width="4.8046"/>
<path d="M711.6751,219.1841L711.6751,237.7274" fill="none" stroke="#000" stroke-linecap="round" stroke-width="4.8046"/>
<path d="M721.5905,222.2211L721.5905,240.7643" fill="none" stroke="#000" stroke-linecap="round" stroke-width="4.8046"/>
<path d="M732.2635,221.8524L732.2635,240.3956" fill="none" stroke="#000" stroke-linecap="round" stroke-width="4.8046"/>
<path d="M641.3628,225.0746L641.3628,243.6178" fill="none" stroke="#000" stroke-linecap="round" stroke-width="4.8046"/>
<path d="M664.0274,252.872H684.4403A2.3409,2.3409 0 0 1 686.7812,255.2129V262.1178A2.3409,2.3409 0 0 1 684.4403,264.4587H664.0274A2.3409,2.3409 0 0 1 661.6866,262.1178V255.2129A2.3409,2.3409 0 0 1 664.0274,252.872z" stroke="#000" stroke-linecap="square" stroke-linejoin="round" stroke-width="3.7338"/>
<path d="M672.1429,295L693.5714,297.8571" fill="none" stroke="#000"/>
</g>
<path d="M365.7143,295L382.1429,297.8571" fill="none" stroke="#000"/>
<path d="M368.5714,310.7143L381.4286,310.7143" fill="none" stroke="#000"/>
<path d="M368.5714,324.2857L381.4286,322.1429" fill="none" stroke="#000"/>
<path d="M305.8164,81.1761L305.8164,394.1983" fill="none" stroke="#000" stroke-width="5.6706"/>
<path d="M227.8571,340L306.7857,340" fill="none" stroke="#000"/>
<path d="M127.3731,96.0714L127.3731,323.2143L18.8017,373.9286" fill="none" stroke="#000"/>
<path d="M1024.257,980.2224H1177.7669A9.0319,9.0319 0 0 1 1186.7988,989.2543V1034.4915A9.0319,9.0319 0 0 1 1177.7669,1043.5234H1024.257A9.0319,9.0319 0 0 1 1015.2251,1034.4915V989.2543A9.0319,9.0319 0 0 1 1024.257,980.2224z" stroke="#000" stroke-linecap="round" stroke-linejoin="round" stroke-width="2.7076" transform="matrix(1,0,-.93627,.35128,0,0)"/>
<path d="M1017.7624,976.0037H1185.5226A6.1895,9.0319 0 0 1 1191.7121,985.0356V1042.473A6.1895,9.0319 0 0 1 1185.5226,1051.5049H1017.7624A6.1895,9.0319 0 0 1 1011.5729,1042.473V985.0356A6.1895,9.0319 0 0 1 1017.7624,976.0037z" stroke="#000" stroke-linecap="round" stroke-linejoin="round" stroke-width="2.7076" transform="matrix(1,0,-.93627,.35128,0,0)"/>
<path d="M65.3469,342.2014H65.3469A5.1786,5.1786 0 0 1 70.5255,347.38V360.9514A5.1786,5.1786 0 0 1 65.3469,366.13H65.3469A5.1786,5.1786 0 0 1 60.1683,360.9514V347.38A5.1786,5.1786 0 0 1 65.3469,342.2014z" fill="#fff" stroke="#000" stroke-linecap="round" stroke-linejoin="round" stroke-width="3"/>
<path d="M200.3826,342.5943H200.3826A5.1786,5.1786 0 0 1 205.5612,347.7728V361.3443A5.1786,5.1786 0 0 1 200.3826,366.5228H200.3826A5.1786,5.1786 0 0 1 195.2041,361.3443V347.7728A5.1786,5.1786 0 0 1 200.3826,342.5943z" fill="#fff" stroke="#000" stroke-linecap="round" stroke-linejoin="round" stroke-width="3"/>
<path d="M245.9184,324.2014H245.9184A5.1786,5.1786 0 0 1 251.0969,329.38V342.9514A5.1786,5.1786 0 0 1 245.9184,348.13H245.9184A5.1786,5.1786 0 0 1 240.7398,342.9514V329.38A5.1786,5.1786 0 0 1 245.9184,324.2014z" fill="#fff" stroke="#000" stroke-linecap="round" stroke-linejoin="round" stroke-width="3"/>
<path d="M108.9183,325.2728H108.9183A5.1786,5.1786 0 0 1 114.0969,330.4514V344.0228A5.1786,5.1786 0 0 1 108.9183,349.2014H108.9183A5.1786,5.1786 0 0 1 103.7398,344.0228V330.4514A5.1786,5.1786 0 0 1 108.9183,325.2728z" fill="#fff" stroke="#000" stroke-linecap="round" stroke-linejoin="round" stroke-width="3"/>
<path d="M897.0268,848.7417H1081.2599A10.8396,10.8396 0 0 1 1092.0995,859.5813V913.8722A10.8396,10.8396 0 0 1 1081.2599,924.7118H897.0268A10.8396,10.8396 0 0 1 886.1872,913.8722V859.5813A10.8396,10.8396 0 0 1 897.0268,848.7417z" fill="#fff" stroke="#000" stroke-linecap="round" stroke-linejoin="round" stroke-width="3.2495" transform="matrix(.78777,0,-.73757,.27673,28.131,92.45278)"/>
<path d="M892.6436,843.6788H1076.8768A10.8396,10.8396 0 0 1 1087.7164,854.5183V908.8093A10.8396,10.8396 0 0 1 1076.8768,919.6488H892.6436A10.8396,10.8396 0 0 1 881.8041,908.8093V854.5183A10.8396,10.8396 0 0 1 892.6436,843.6788z" fill="#fff" stroke="#000" stroke-linecap="round" stroke-linejoin="round" stroke-width="3.2495" transform="matrix(.78777,0,-.73757,.27673,28.131,92.45278)"/>
<path d="M897.0268,848.7417H1081.2599A10.8396,10.8396 0 0 1 1092.0995,859.5813V913.8722A10.8396,10.8396 0 0 1 1081.2599,924.7118H897.0268A10.8396,10.8396 0 0 1 886.1872,913.8722V859.5813A10.8396,10.8396 0 0 1 897.0268,848.7417z" fill="#fff" stroke="#000" stroke-linecap="round" stroke-linejoin="round" stroke-width="3.2495" transform="matrix(.78777,0,-.73757,.27673,28.41234,90.00788)"/>
<path d="M892.6436,843.6788H1076.8768A10.8396,10.8396 0 0 1 1087.7164,854.5183V908.8093A10.8396,10.8396 0 0 1 1076.8768,919.6488H892.6436A10.8396,10.8396 0 0 1 881.8041,908.8093V854.5183A10.8396,10.8396 0 0 1 892.6436,843.6788z" fill="#fff" stroke="#000" stroke-linecap="round" stroke-linejoin="round" stroke-width="3.2495" transform="matrix(.78777,0,-.73757,.27673,28.41234,90.00788)"/>
<path d="M897.0268,848.7417H1081.2599A10.8396,10.8396 0 0 1 1092.0995,859.5813V913.8722A10.8396,10.8396 0 0 1 1081.2599,924.7118H897.0268A10.8396,10.8396 0 0 1 886.1872,913.8722V859.5813A10.8396,10.8396 0 0 1 897.0268,848.7417z" fill="#fff" stroke="#000" stroke-linecap="round" stroke-linejoin="round" stroke-width="3.2495" transform="matrix(.78777,0,-.73757,.27673,28.62335,87.22958)"/>
<path d="M892.6436,843.6788H1076.8768A10.8396,10.8396 0 0 1 1087.7164,854.5183V908.8093A10.8396,10.8396 0 0 1 1076.8768,919.6488H892.6436A10.8396,10.8396 0 0 1 881.8041,908.8093V854.5183A10.8396,10.8396 0 0 1 892.6436,843.6788z" fill="#fff" stroke="#000" stroke-linecap="round" stroke-linejoin="round" stroke-width="3.2495" transform="matrix(.78777,0,-.73757,.27673,28.62335,87.22958)"/>
<path d="M56.3999,312.8744H108.5532A3.0109,3.0109 0 0 1 111.5641,315.8853V357.5932A3.0109,3.0109 0 0 1 108.5532,360.6041H56.3999A3.0109,3.0109 0 0 1 53.389,357.5932V315.8853A3.0109,3.0109 0 0 1 56.3999,312.8744z" fill="#fff" stroke="#000" stroke-linecap="round" stroke-linejoin="round" stroke-width="3.1126" transform="matrix(.92897,-.37014,0,1,0,0)"/>
<path d="M59.3902,314.6125H111.5435A3.0109,3.0109 0 0 1 114.5544,317.6234V359.3314A3.0109,3.0109 0 0 1 111.5435,362.3423H59.3902A3.0109,3.0109 0 0 1 56.3793,359.3314V317.6234A3.0109,3.0109 0 0 1 59.3902,314.6125z" fill="#fff" stroke="#000" stroke-linecap="round" stroke-linejoin="round" stroke-width="3.1126" transform="matrix(.92897,-.37014,0,1,0,0)"/>
<path d="M119.198,282.6935A52.2754,16.2887 0 1 1 14.6472,282.6935A52.2754,16.2887 0 1 1 119.198,282.6935z" fill="#fff" stroke="#000" stroke-linecap="round" stroke-linejoin="round" stroke-width="3" transform="matrix(.59838,-.3161,.28511,.66342,-31.52464,154.46889)"/>
<path d="M119.2546,252.953L141.573,277.4469C150.8973,287.6801 150.1655,303.4249 139.9324,312.7491L121.8086,329.2631C111.5755,338.5874 95.8307,337.8556 86.5065,327.6225L64.1881,303.1286" fill="#fff" stroke="#000" stroke-linecap="round" stroke-linejoin="round" stroke-width="2.5203"/>
<path d="M-136.6163,281.0044H-120.3317A.5399,.5399 0 0 1 -119.7917,281.5443V288.482A.5399,.5399 0 0 1 -120.3317,289.0219H-136.6163A.5399,.5399 0 0 1 -137.1562,288.482V281.5443A.5399,.5399 0 0 1 -136.6163,281.0044z" stroke="#000" stroke-linecap="square" stroke-linejoin="round" stroke-width="2.5837" transform="matrix(.73917,-.67352,.67352,.73917,0,0)"/>
<path d="M-107.9753,281.0044H-93.8504A1.6198,1.6198 0 0 1 -92.2306,282.6242V287.4021A1.6198,1.6198 0 0 1 -93.8504,289.0219H-107.9753A1.6198,1.6198 0 0 1 -109.5951,287.4021V282.6242A1.6198,1.6198 0 0 1 -107.9753,281.0044z" stroke="#000" stroke-linecap="square" stroke-linejoin="round" stroke-width="2.5837" transform="matrix(.73917,-.67352,.67352,.73917,0,0)"/>
<path d="M76.9575,314.7713C77.2433,314.5207 77.5225,314.2628 77.8022,314.0054C77.9869,313.8351 78.1719,313.6653 78.3572,313.4957C78.5066,313.3592 78.6562,313.2229 78.8058,313.0866C78.961,312.9446 79.1171,312.8035 79.2729,312.6621C79.4682,312.4751 79.6692,312.3006 79.8908,312.1465C80.1206,311.9882 80.335,311.8089 80.5463,311.6267C80.7462,311.4297 80.9844,311.2826 81.2083,311.1162C81.4341,310.9449 81.6456,310.7558 81.8571,310.5672C82.0782,310.3679 82.2981,310.1673 82.5174,309.9661C82.7082,309.7916 82.899,309.6172 83.0896,309.4426C83.2463,309.2991 83.4033,309.156 83.5602,309.0128C83.7093,308.8769 83.8584,308.741 84.0075,308.6052C84.1566,308.4693 84.3057,308.3335 84.4548,308.1976C84.6177,308.0489 84.7811,307.9008 84.9448,307.753C85.1475,307.5705 85.3483,307.3857 85.5495,307.2015C85.739,307.0285 85.9291,306.856 86.1192,306.6837C86.3221,306.4987 86.525,306.3138 86.7275,306.1284C86.9219,305.9515 87.1165,305.7747 87.3106,305.5973C87.4868,305.4356 87.6634,305.2744 87.841,305.1142C88.1149,304.8671 88.3884,304.6194 88.662,304.3719C89.0349,304.0346 89.4069,303.6963 89.7774,303.3564C90.0495,303.1072 90.3205,302.8567 90.5931,302.6081C90.8191,302.4028 91.0445,302.1968 91.2695,301.9903C91.3007,301.9617 91.3319,301.9332 91.363,301.9046L91.0289,303.3317C90.9979,303.3598 90.9668,303.3879 90.9358,303.416C90.7101,303.6202 90.4848,303.8249 90.2602,304.0302C89.99,304.2762 89.7182,304.5202 89.4475,304.7656C89.0742,305.1035 88.7024,305.4429 88.3315,305.7834C88.0567,306.0356 87.7817,306.2877 87.5071,306.5402C87.3311,306.7023 87.1541,306.8634 86.9766,307.0239C86.7819,307.2008 86.5878,307.3782 86.3934,307.5554C86.1906,307.7393 85.9882,307.9238 85.7858,308.1081C85.5958,308.2822 85.4057,308.4561 85.2151,308.6295C85.0133,308.8124 84.811,308.9949 84.6108,309.1795C84.4475,309.3297 84.284,309.4795 84.1198,309.6287C83.9707,309.7646 83.8216,309.9005 83.6724,310.0364C83.5234,310.1722 83.3743,310.308 83.2252,310.4438C83.0687,310.5863 82.912,310.7289 82.7553,310.8711C82.5647,311.0442 82.3743,311.2175 82.184,311.3908C81.9636,311.5909 81.7443,311.7921 81.5221,311.9902C81.3073,312.1806 81.0906,312.3697 80.8587,312.5389C80.635,312.7011 80.4083,312.8583 80.208,313.0505C79.9923,313.2328 79.7709,313.408 79.5392,313.5692C79.325,313.7266 79.1342,313.911 78.9384,314.0906C78.7826,314.2331 78.6271,314.3759 78.4707,314.5179C78.3213,314.654 78.1719,314.7901 78.0223,314.926C77.8385,315.0929 77.6543,315.2595 77.4697,315.4256C77.1855,315.682 76.9009,315.9381 76.6227,316.2012L76.9575,314.7713z" stroke="#000" stroke-linecap="square" stroke-linejoin="round" stroke-width=".3298"/>
<path d="M123.8841,272.2717C124.2496,271.9497 124.609,271.6208 124.9688,271.2925C125.2984,270.9913 125.6276,270.6897 125.9562,270.3875C126.1757,270.1853 126.3962,269.9843 126.6165,269.7831C126.7899,269.6243 126.9633,269.4655 127.1369,269.3069C127.2988,269.1797 127.4078,269.0063 127.5392,268.8508C127.673,268.697 127.8217,268.557 127.9706,268.418C128.119,268.2807 128.2689,268.145 128.4185,268.0091C128.5679,267.8733 128.7173,267.7373 128.8665,267.6014C129.0158,267.4654 129.165,267.3295 129.3143,267.1935C129.4635,267.0575 129.6128,266.9215 129.762,266.7855C129.922,266.6392 130.083,266.4941 130.2432,266.3481C130.4054,266.2001 130.5675,266.052 130.7296,265.904C130.8798,265.767 131.0301,265.6301 131.1804,265.4931C131.2798,265.4026 131.2301,265.4478 131.3295,265.3573L130.9944,266.7884C130.895,266.879 130.9447,266.8337 130.8453,266.9243C130.6952,267.0611 130.545,267.1979 130.3947,267.3347C130.2328,267.482 130.0708,267.6292 129.9088,267.7765C129.7481,267.923 129.5881,268.0704 129.427,268.2166C129.2777,268.3526 129.1285,268.4886 128.9793,268.6246C128.83,268.7606 128.6807,268.8966 128.5314,269.0325C128.3821,269.1685 128.2327,269.3043 128.0833,269.4402C127.9342,269.5758 127.7849,269.7111 127.6384,269.8496C127.4938,269.9882 127.3513,270.1295 127.2254,270.2854C127.0951,270.4465 126.9656,270.607 126.802,270.7372C126.6291,270.8944 126.4559,271.0514 126.2828,271.2084C126.0635,271.4077 125.8444,271.6072 125.6243,271.8056C125.2956,272.1023 124.9676,272.3996 124.6399,272.6973C124.2748,273.0295 123.9092,273.3613 123.5498,273.6997L123.8841,272.2717z" stroke="#000" stroke-linecap="square" stroke-linejoin="round" stroke-width=".3298"/>
<path d="M103.3512,291.1336C103.6558,290.9194 103.9412,290.6792 104.2238,290.4367C104.4748,290.2189 104.7204,289.9951 104.9654,289.7706C105.168,289.5856 105.3706,289.4008 105.573,289.2156C105.9895,288.8551 106.3921,288.4789 106.7975,288.1061C107.0418,287.8802 107.2871,287.6553 107.5322,287.4301C107.7284,287.2514 107.9243,287.0724 108.121,286.8942C108.3278,286.707 108.533,286.5179 108.7395,286.3303C108.9252,286.1603 109.1113,285.9908 109.2975,285.8213C109.4841,285.6518 109.6703,285.4818 109.8563,285.3116C110.0349,285.15 110.2124,284.9872 110.3902,284.8247C110.565,284.6667 110.7388,284.5075 110.9127,284.3486C111.0664,284.2082 111.2202,284.0679 111.374,283.9277C111.53,283.8403 111.679,283.7439 111.8205,283.634C111.9717,283.5124 112.1153,283.3816 112.259,283.2513C112.4083,283.1155 112.5572,282.9793 112.7063,282.8432C112.7809,282.7751 112.8555,282.707 112.9302,282.6389L112.5952,284.07C112.5206,284.1381 112.446,284.2062 112.3714,284.2743C112.2222,284.4106 112.0731,284.5471 111.9231,284.6824C111.7761,284.8141 111.6287,284.946 111.4704,285.0639C111.3286,285.1657 111.1749,285.2492 111.039,285.3587C110.8854,285.4986 110.7318,285.6384 110.5781,285.7781C110.4037,285.9366 110.2291,286.0948 110.0556,286.2542C109.8775,286.4159 109.6992,286.5774 109.5219,286.74C109.3355,286.9092 109.1492,287.0786 108.9634,287.2485C108.7776,287.4178 108.5919,287.5871 108.4058,287.7559C108.2,287.944 107.9929,288.1307 107.7874,288.3191C107.5914,288.4986 107.3948,288.6774 107.1983,288.8564C106.9549,289.0764 106.7117,289.2966 106.4675,289.5158C106.0552,289.888 105.64,290.2574 105.2391,290.642C105.0365,290.8262 104.8345,291.0111 104.6317,291.1951C104.3856,291.4166 104.1391,291.6377 103.8871,291.8525C103.5971,292.0969 103.3021,292.3351 102.9984,292.5621L103.3512,291.1336z" stroke="#000" stroke-linecap="square" stroke-linejoin="round" stroke-width=".3298"/>
<path d="M66.0341,289.7379L74.6762,299.2224" fill="none" stroke="#000" stroke-linecap="round" stroke-width="3.3246"/>
<path d="M70.0879,284.402L78.7299,293.8864" fill="none" stroke="#000" stroke-linecap="round" stroke-width="3.3246"/>
<path d="M75.3414,280.9859L83.9834,290.4703" fill="none" stroke="#000" stroke-linecap="round" stroke-width="3.3246"/>
<path d="M80.7698,274.9469L89.4118,284.4314" fill="none" stroke="#000" stroke-linecap="round" stroke-width="3.3246"/>
<path d="M86.9847,271.3309L95.6268,280.8154" fill="none" stroke="#000" stroke-linecap="round" stroke-width="3.3246"/>
<path d="M92.8511,265.8214L101.4932,275.3059" fill="none" stroke="#000" stroke-linecap="round" stroke-width="3.3246"/>
<path d="M97.4241,260.0499L106.0661,269.5344" fill="none" stroke="#000" stroke-linecap="round" stroke-width="3.3246"/>
<path d="M103.9109,256.9822L112.553,266.4666" fill="none" stroke="#000" stroke-linecap="round" stroke-width="3.3246"/>
<path d="M109.1981,251.8195L117.8402,261.3039" fill="none" stroke="#000" stroke-linecap="round" stroke-width="3.3246"/>
<path d="M117.266,314.7479L129.075,299.8423" fill="none" stroke="#000" stroke-width=".5362"/>
<path d="M64.2061,295.8318L72.8481,305.3162" fill="none" stroke="#000" stroke-linecap="round" stroke-width="3.3246"/>
<path d="M148.2726,306.0185L257.0101,319.5899C261.4307,319.5899 258.1628,326.2983 254.563,328.8639L243.0002,333.3085L228.089,338.4879C224.4891,341.0536 203.3894,346.3333 198.9688,346.3333L104.8742,345.9762C100.4536,345.9762 97.65,336.4107 101.2498,333.8451L133.7953,310.6496C137.3951,308.084 143.852,306.0185 148.2726,306.0185z" fill="#fff" stroke="#000" stroke-linecap="round" stroke-linejoin="round" stroke-width="1.6996"/>
<text font-family="Bitstream Vera Sans" font-size="20" x="194.5776" y="249.2697">
   <tspan text-align="center" text-anchor="middle" x="194.5776" y="249.2697">OMG !</tspan>
  </text>
<path d="M158.1409,246.7792L143.8552,270.3507" fill="none" stroke="#000"/>
<path d="M45.4895,221.6458H116.9931A.3121,.3121 0 0 1 117.3052,221.9579V268.5998A.3121,.3121 0 0 1 116.9931,268.9119H45.4895A.3121,.3121 0 0 1 45.1774,268.5998V221.9579A.3121,.3121 0 0 1 45.4895,221.6458z" fill="#fff" stroke="#000" stroke-linecap="round" stroke-linejoin="round" stroke-width="3.1321" transform="matrix(.91743,-.39789,0,1,0,0)"/>
<path d="M56.6815,227.5892H105.3953A2.893,2.893 0 0 1 108.2883,230.4822V260.4104A2.893,2.893 0 0 1 105.3953,263.3035H56.6815A2.893,2.893 0 0 1 53.7884,260.4104V230.4822A2.893,2.893 0 0 1 56.6815,227.5892z" fill="#fff" stroke="#000" stroke-linecap="round" stroke-linejoin="round" stroke-width="3.1321" transform="matrix(.91743,-.39789,0,1,0,0)"/>
<path d="M446.8915,78.4154A61.5183,5.3033 0 1 1 323.8549,78.4154A61.5183,5.3033 0 1 1 446.8915,78.4154z" stroke="#000" stroke-linecap="round" stroke-width="4.862" transform="matrix(-.21053,9.1305115e-2,0,.21053,155.00011,172.87195)"/>
<g transform="matrix(-.21053,9.1305115e-2,0,.21053,53.38703,154.35644)">
<path d="M-43.5297,288.8057L-43.5297,336.6941C-43.5297,356.7011-59.6364,372.8078-79.6434,372.8078L-115.0774,372.8078C-135.0844,372.8078-151.1912,356.7011-151.1912,336.6941L-151.1912,288.8057" fill="#fff" stroke="#000" stroke-linecap="round" stroke-linejoin="round" stroke-width="3.6422"/>
<path d="M-122.1431,308.6171H-98.6091A.7803,.7803 0 0 1 -97.8288,309.3974V319.4235A.7803,.7803 0 0 1 -98.6091,320.2038H-122.1431A.7803,.7803 0 0 1 -122.9234,319.4235V309.3974A.7803,.7803 0 0 1 -122.1431,308.6171z" stroke="#000" stroke-linecap="square" stroke-linejoin="round" stroke-width="3.7338"/>
<path d="M-80.7522,308.6171H-60.3393A2.3409,2.3409 0 0 1 -57.9985,310.958V317.8629A2.3409,2.3409 0 0 1 -60.3393,320.2038H-80.7522A2.3409,2.3409 0 0 1 -83.093,317.8629V310.958A2.3409,2.3409 0 0 1 -80.7522,308.6171z" stroke="#000" stroke-linecap="square" stroke-linejoin="round" stroke-width="3.7338"/>
<path d="M-148.8829,313.6717C-148.3338,313.6822-147.7844,313.6785-147.2351,313.6758C-146.8722,313.6736-146.5092,313.6722-146.1462,313.6715C-145.8537,313.6711-145.5613,313.6711-145.2688,313.6711C-144.9647,313.6705-144.6607,313.6717-144.3567,313.6723C-143.966,313.6626-143.5814,313.6719-143.1947,313.723C-142.7951,313.7775-142.3916,313.7947-141.9885,313.8057C-141.5833,313.7899-141.1856,313.8646-140.7845,313.9048C-140.3766,313.9415-139.9665,313.9454-139.5571,313.9498C-139.1269,313.9521-138.6968,313.9519-138.2666,313.9504C-137.893,313.9497-137.5194,313.9491-137.1458,313.9482C-136.8388,313.9474-136.5318,313.9472-136.2247,313.9471C-135.9332,313.947-135.6418,313.947-135.3502,313.947C-135.0587,313.947-134.7672,313.947-134.4756,313.947C-134.1569,313.9467-133.8382,313.9476-133.5196,313.949C-133.1253,313.9514-132.731,313.9494-132.3367,313.9484C-131.9659,313.9481-131.595,313.9488-131.2241,313.9499C-130.8274,313.9497-130.4307,313.9498-130.0339,313.9488C-129.654,313.949-129.274,313.9495-128.894,313.949C-128.5484,313.9477-128.2029,313.9475-127.8573,313.9492C-127.3241,313.9518-126.7909,313.9534-126.2577,313.9553C-125.5311,313.9581-124.8045,313.9587-124.0778,313.9563C-123.5446,313.9549-123.0113,313.9511-122.4781,313.9509C-122.0368,313.9515-121.5955,313.9508-121.1542,313.9493C-121.0931,313.9491-121.032,313.949-120.9709,313.9488L-122.7169,315.1481C-122.7774,315.1478-122.8379,315.1476-122.8984,315.1474C-123.3383,315.1459-123.7781,315.1453-124.218,315.1459C-124.7459,315.1457-125.2739,315.1418-125.8018,315.1405C-126.5294,315.1381-127.2571,315.1387-127.9846,315.1415C-128.5238,315.1434-129.0628,315.145-129.6019,315.1476C-129.9477,315.1493-130.2936,315.1491-130.6394,315.1478C-131.0195,315.1473-131.3996,315.1478-131.7797,315.148C-132.1754,315.147-132.5711,315.1471-132.9668,315.1469C-133.3391,315.1479-133.7115,315.1487-134.0838,315.1484C-134.4775,315.1474-134.8712,315.1454-135.2648,315.1478C-135.5854,315.1492-135.9059,315.1501-136.2265,315.1497C-136.5181,315.1497-136.8096,315.1497-137.1012,315.1497C-137.3926,315.1497-137.684,315.1497-137.9755,315.1497C-138.2815,315.1495-138.5875,315.1493-138.8935,315.1487C-139.2655,315.148-139.6375,315.1479-140.0095,315.1478C-140.4397,315.147-140.8698,315.1485-141.3,315.1437C-141.7147,315.1381-142.1302,315.1292-142.5427,315.0843C-142.9395,315.0397-143.3348,314.9871-143.7358,314.9973C-144.1436,314.9822-144.5506,314.9538-144.955,314.9006C-145.3371,314.8601-145.7204,314.8714-146.1043,314.8727C-146.4095,314.8733-146.7146,314.8745-147.0198,314.8739C-147.3119,314.8739-147.604,314.8739-147.8961,314.8735C-148.255,314.8728-148.6138,314.8714-148.9726,314.8693C-149.5259,314.8665-150.0792,314.863-150.6323,314.8733L-148.8829,313.6717z" stroke="#000" stroke-linecap="square" stroke-linejoin="round" stroke-width=".4767"/>
<path d="M-57.3881,313.9484C-56.6843,313.9602-55.9802,313.9586-55.2763,313.9581C-54.631,313.9572-53.9858,313.9554-53.3406,313.9525C-52.9094,313.9502-52.4782,313.9501-52.047,313.9495C-51.7073,313.9487-51.3675,313.9479-51.0277,313.9474C-50.7309,313.9691-50.4456,313.8899-50.1539,313.8518C-49.8613,313.8177-49.5662,313.8128-49.2718,313.8093C-48.9796,313.8072-48.6875,313.8081-48.3953,313.8085C-48.1035,313.8089-47.8117,313.809-47.5199,313.8091C-47.2282,313.8091-46.9364,313.8091-46.6446,313.8091C-46.3528,313.8091-46.061,313.8091-45.7692,313.8091C-45.4559,313.8085-45.1426,313.8102-44.8294,313.8103C-44.5121,313.81-44.1949,313.8096-43.8776,313.8093C-43.5838,313.8091-43.29,313.8091-42.9962,313.8091C-42.8018,313.8091-42.899,313.8091-42.7047,313.8091L-44.4556,315.0118C-44.6499,315.0118-44.5527,315.0118-44.7471,315.0118C-45.0407,315.0118-45.3343,315.0118-45.6279,315.0116C-45.9442,315.0113-46.2606,315.0109-46.577,315.0106C-46.8913,315.0107-47.2057,315.0124-47.5201,315.0118C-47.8119,315.0118-48.1037,315.0118-48.3955,315.0118C-48.6873,315.0118-48.9791,315.0118-49.2709,315.0117C-49.5627,315.0115-49.8545,315.0113-50.1463,315.011C-50.4376,315.0107-50.7289,315.0099-51.0202,315.0153C-51.3095,315.0227-51.5993,315.0348-51.8855,315.0788C-52.1815,315.1241-52.476,315.1695-52.7776,315.1494C-53.1153,315.1489-53.453,315.1481-53.7908,315.1473C-54.219,315.1467-54.6473,315.1466-55.0755,315.1442C-55.7153,315.1413-56.3552,315.1395-56.995,315.1387C-57.7084,315.1382-58.4219,315.1368-59.1352,315.1484L-57.3881,313.9484z" stroke="#000" stroke-linecap="square" stroke-linejoin="round" stroke-width=".4767"/>
<path d="M-97.681,314.1116C-97.1471,314.1792-96.6084,314.2005-96.0705,314.2165C-95.5904,314.228-95.1101,314.228-94.63,314.2268C-94.2335,314.2263-93.8371,314.2261-93.4407,314.2252C-92.6449,314.2456-91.8487,314.2356-91.0528,314.2319C-90.5718,314.2284-90.0909,314.2269-89.6099,314.225C-89.2264,314.225-88.8429,314.2245-88.4594,314.2256C-88.0562,314.2268-87.653,314.2246-87.2498,314.2253C-86.886,314.2244-86.5221,314.2245-86.1583,314.2246C-85.794,314.2251-85.4296,314.2248-85.0652,314.2241C-84.7171,314.2253-84.3691,314.2242-84.021,314.2236C-83.6805,314.2251-83.3399,314.2241-82.9994,314.2236C-82.6986,314.2232-82.3977,314.223-82.0969,314.223C-81.8453,314.2815-81.5923,314.3235-81.3342,314.3439C-81.0543,314.3611-80.7736,314.3611-80.4933,314.3619C-80.2016,314.3621-79.9099,314.3615-79.6182,314.3612C-79.4722,314.3611-79.3262,314.361-79.1802,314.361L-80.931,315.5637C-81.077,315.5638-81.223,315.5639-81.369,315.564C-81.661,315.5644-81.953,315.5651-82.245,315.5636C-82.5302,315.5612-82.816,315.5587-83.0999,315.5305C-83.3505,315.5012-83.5959,315.4409-83.8477,315.4256C-84.1479,315.4255-84.4481,315.4254-84.7483,315.4249C-85.0888,315.4245-85.4293,315.4235-85.7698,315.4249C-86.1175,315.4243-86.4651,315.4233-86.8128,315.4244C-87.1766,315.4237-87.5405,315.4234-87.9044,315.4239C-88.2676,315.4241-88.6307,315.4241-88.9939,315.4233C-89.3968,315.4239-89.7997,315.4217-90.2026,315.423C-90.5867,315.424-90.9708,315.4235-91.3549,315.4236C-91.8291,315.4216-92.3032,315.4202-92.7774,315.4166C-93.5801,315.4129-94.3831,315.4034-95.1857,315.424C-95.5815,315.4235-95.9772,315.4244-96.373,315.4236C-96.8515,315.4207-97.33,315.417-97.8082,315.401C-98.3559,315.3799-98.9029,315.3472-99.4483,315.2941L-97.681,314.1116z" stroke="#000" stroke-linecap="square" stroke-linejoin="round" stroke-width=".4767"/>
<path d="M-136.1855,276.2983L-136.1855,294.8415" fill="none" stroke="#000" stroke-linecap="round" stroke-width="4.8046"/>
<path d="M-126.6615,274.544L-126.6615,293.0872" fill="none" stroke="#000" stroke-linecap="round" stroke-width="4.8046"/>
<path d="M-117.7245,276.0083L-117.7245,294.5515" fill="none" stroke="#000" stroke-linecap="round" stroke-width="4.8046"/>
<path d="M-106.0478,274.841L-106.0478,293.3843" fill="none" stroke="#000" stroke-linecap="round" stroke-width="4.8046"/>
<path d="M-95.8892,277.0276L-95.8892,295.5709" fill="none" stroke="#000" stroke-linecap="round" stroke-width="4.8046"/>
<path d="M-84.2599,276.8522L-84.2599,295.3955" fill="none" stroke="#000" stroke-linecap="round" stroke-width="4.8046"/>
<path d="M-73.7574,275.1381L-73.7574,293.6813" fill="none" stroke="#000" stroke-linecap="round" stroke-width="4.8046"/>
<path d="M-63.8419,278.175L-63.8419,296.7182" fill="none" stroke="#000" stroke-linecap="round" stroke-width="4.8046"/>
<path d="M-53.169,277.8063L-53.169,296.3495" fill="none" stroke="#000" stroke-linecap="round" stroke-width="4.8046"/>
<path d="M-105.8017,352.8807L-78.6788,348.4525" fill="none" stroke="#000" stroke-width=".7749"/>
<path d="M-144.0697,281.0285L-144.0697,299.5717" fill="none" stroke="#000" stroke-linecap="round" stroke-width="4.8046"/>
</g>
<path d="M74.7478,147.6712L53.6764,198.5955" fill="none" stroke="#000"/>
<path d="M74.8694,147.5812L95.9408,180.2283" fill="none" stroke="#000"/>
<path d="M381.4286,150.8929A1.6071,1.25 0 1 1 378.2143,150.8929A1.6071,1.25 0 1 1 381.4286,150.8929z" fill="#fff" stroke="#000" stroke-linecap="round" stroke-linejoin="round" stroke-width="3" transform="matrix(1,-.4337,0,1,-304.89501,161.96448)"/>
<path d="M42.9137,204.47L50.4137,207.2886" fill="none" stroke="#000"/>
<path d="M42.6179,249.4017L49.7607,240.7682" fill="none" stroke="#000"/>
<path d="M100.0513,185.0772L106.6585,176.3189" fill="none" stroke="#000"/>
<path d="M99.9034,218.2944L105.7963,221.8101" fill="none" stroke="#000"/>
<path d="M127.3661,96.7857L127.3661,85.5357" fill="none" stroke="#000"/>
<path d="M55.9288,170.5227L99.2232,169.8765L90.1766,215.7557L128.9478,189.2621L141.2253,229.3256L155.4414,191.8468L190.9816,229.3256L181.2888,176.9845L235.5684,209.2938L216.1829,167.2918L258.185,176.3384L211.0134,148.5524L243.3227,129.1668L203.2592,133.6901L208.4286,105.2579L178.7041,132.3977L178.0579,100.7346L151.5643,134.3363L117.3164,102.027L113.4393,142.7367L63.0368,127.2282L101.1618,154.368L55.9288,170.5227z" fill="#fff" fill-rule="evenodd" stroke="#000" stroke-width="1.2794"/>
<text font-family="Bitstream Vera Sans" font-size="20" x="113.3303" y="169.893">
   <tspan font-size="20" x="113.3303" y="169.893">AU FEU !</tspan>
  </text>
<path d="M451.4286,176.4286L432.1429,247.8571" fill="none" stroke="#000"/>
<g transform="translate(5,-23.5714)">
<path d="M60.4489,631.5991H232.8629A18.0569,18.0569 0 0 1 250.9198,649.656V680.078A18.0569,18.0569 0 0 1 232.8629,698.1349H60.4489A18.0569,18.0569 0 0 1 42.3919,680.078V649.656A18.0569,18.0569 0 0 1 60.4489,631.5991z" stroke="#000" stroke-linecap="round" stroke-linejoin="round" stroke-width="2.7184" transform="matrix(1,0,.84988,.52697,0,0)"/>
<path d="M651.8832,309.9726H659.505A5.7163,5.7163 0 0 1 665.2213,315.6889V357.6085A5.7163,5.7163 0 0 1 659.505,363.3248H651.8832A5.7163,5.7163 0 0 1 646.1669,357.6085V315.6889A5.7163,5.7163 0 0 1 651.8832,309.9726z" fill="#fff" stroke="#000" stroke-linecap="round" stroke-linejoin="round" stroke-width="5.0248"/>
<path d="M797.0772,309.9726H804.6989A5.7163,5.7163 0 0 1 810.4152,315.6889V357.6085A5.7163,5.7163 0 0 1 804.6989,363.3248H797.0772A5.7163,5.7163 0 0 1 791.3609,357.6085V315.6889A5.7163,5.7163 0 0 1 797.0772,309.9726z" fill="#fff" stroke="#000" stroke-linecap="round" stroke-linejoin="round" stroke-width="5.0248"/>
<path d="M765.0659,293.2048H772.6876A5.7163,5.7163 0 0 1 778.4039,298.9211V340.8406A5.7163,5.7163 0 0 1 772.6876,346.5569H765.0659A5.7163,5.7163 0 0 1 759.3496,340.8406V298.9211A5.7163,5.7163 0 0 1 765.0659,293.2048z" fill="#fff" stroke="#000" stroke-linecap="round" stroke-linejoin="round" stroke-width="5.0248"/>
<path d="M616.4421,288.6318H624.0638A5.7163,5.7163 0 0 1 629.7801,294.3481V336.2676A5.7163,5.7163 0 0 1 624.0638,341.9839H616.4421A5.7163,5.7163 0 0 1 610.7258,336.2676V294.3481A5.7163,5.7163 0 0 1 616.4421,288.6318z" fill="#fff" stroke="#000" stroke-linecap="round" stroke-linejoin="round" stroke-width="5.0248"/>
<path d="M147.5503,531.803H319.9643A18.0569,18.0569 0 0 1 338.0213,549.86V580.282A18.0569,18.0569 0 0 1 319.9643,598.3389H147.5503A18.0569,18.0569 0 0 1 129.4934,580.282V549.86A18.0569,18.0569 0 0 1 147.5503,531.803z" fill="#fff" stroke="#000" stroke-linecap="round" stroke-linejoin="round" stroke-width="2.7184" transform="matrix(1,0,.84988,.52697,0,0)"/>
<path d="M155.3924,521.6788H327.8064A18.0569,18.0569 0 0 1 345.8633,539.7357V570.1577A18.0569,18.0569 0 0 1 327.8064,588.2146H155.3924A18.0569,18.0569 0 0 1 137.3354,570.1577V539.7357A18.0569,18.0569 0 0 1 155.3924,521.6788z" fill="#fff" stroke="#000" stroke-linecap="round" stroke-linejoin="round" stroke-width="2.7184" transform="matrix(1,0,.84988,.52697,0,0)"/>
</g>
<path d="M715.928,-12.2421H772.2886A11.0398,11.0398 0 0 1 783.3284,-1.2023V26.6708A11.0398,11.0398 0 0 1 772.2886,37.7106H715.928A11.0398,11.0398 0 0 1 704.8882,26.6708V-1.2023A11.0398,11.0398 0 0 1 715.928,-12.2421z" fill="#fff" stroke="#000" stroke-linecap="round" stroke-linejoin="round" stroke-width="4.3806" transform="matrix(1,0,.87943,.47603,-33.57143,260.71429)"/>
<path d="M707.8374,-64.8857H761.358A12.0443,12.0443 0 0 1 773.4023,-52.8413V-22.4321A12.0443,12.0443 0 0 1 761.358,-10.3877H707.8374A12.0443,12.0443 0 0 1 695.7931,-22.4321V-52.8413A12.0443,12.0443 0 0 1 707.8374,-64.8857z" fill="#fff" stroke="#000" stroke-linecap="round" stroke-linejoin="round" stroke-width="4.5512" transform="matrix(1,0,.11845,.99296,-33.57143,260.71429)"/>
<path d="M724.9973,-21.8486H781.3579A11.0398,11.0398 0 0 1 792.3977,-10.8088V17.0642A11.0398,11.0398 0 0 1 781.3579,28.104H724.9973A11.0398,11.0398 0 0 1 713.9575,17.0642V-10.8088A11.0398,11.0398 0 0 1 724.9973,-21.8486z" fill="#fff" stroke="#000" stroke-linecap="round" stroke-linejoin="round" stroke-width="4.3806" transform="matrix(1,0,.87943,.47603,-33.57143,260.71429)"/>
<text font-family="Bitstream Vera Sans" font-size="20" x="721.6766" y="129.2656">
   <tspan text-align="center" text-anchor="middle" x="721.6766" y="129.2656">Facebook : EPIC Y'A</tspan>
   <tspan text-align="center" text-anchor="middle" x="721.6766" y="154.2656">LE FEU A LA RESIDENCE !</tspan>
  </text>
<g transform="matrix(-1,0,0,1,1318.6114,284.28571)">
<path d="m446.8915,78.4154c0,2.9289-27.5427,5.3033-61.5183,5.3033-33.9756,0-61.5183,-2.3744-61.5183,-5.3033 0,-2.9289 27.5427,-5.3033 61.5183,-5.3033 33.9756,0 61.5183,2.3744 61.5183,5.3033z" stroke="#000" stroke-linecap="round" stroke-width="4.862" transform="translate(177.5039,-12.0504)"/>
<path d="M616.6353,-20.5225L616.6353,27.366C616.6353,47.373 600.5285,63.4797 580.5215,63.4797L545.0875,63.4797C525.0805,63.4797 508.9738,47.373 508.9738,27.366L508.9738,-20.5225" fill="#fff" stroke="#000" stroke-linecap="round" stroke-linejoin="round" stroke-width="3.642"/>
<path d="M523.9795,-33.0298L523.9795,-14.4866" fill="none" stroke="#000" stroke-linecap="round" stroke-width="4.8046"/>
<path d="M533.5035,-34.7842L533.5035,-16.2409" fill="none" stroke="#000" stroke-linecap="round" stroke-width="4.8046"/>
<path d="M542.4404,-33.3199L542.4404,-14.7766" fill="none" stroke="#000" stroke-linecap="round" stroke-width="4.8046"/>
<path d="M554.1172,-34.4871L554.1172,-15.9439" fill="none" stroke="#000" stroke-linecap="round" stroke-width="4.8046"/>
<path d="M564.2758,-32.3005L564.2758,-13.7573" fill="none" stroke="#000" stroke-linecap="round" stroke-width="4.8046"/>
<path d="M575.905,-32.4759L575.905,-13.9326" fill="none" stroke="#000" stroke-linecap="round" stroke-width="4.8046"/>
<path d="M586.4076,-34.1901L586.4076,-15.6468" fill="none" stroke="#000" stroke-linecap="round" stroke-width="4.8046"/>
<path d="M596.323,-31.1532L596.323,-12.6099" fill="none" stroke="#000" stroke-linecap="round" stroke-width="4.8046"/>
<path d="M606.996,-31.5218L606.996,-12.9786" fill="none" stroke="#000" stroke-linecap="round" stroke-width="4.8046"/>
<path d="M516.0953,-28.2996L516.0953,-9.7564" fill="none" stroke="#000" stroke-linecap="round" stroke-width="4.8046"/>
</g>
<path d="M697.1429,224.2857L714.2857,165.7143" fill="none" stroke="#000"/>
<path d="M674.0243,205.2905L677.6861,241.5298" fill="none" stroke="#000"/>
<path d="M714.7461,205.7325L718.4079,241.9717" fill="none" stroke="#000"/>
<path d="M656.7254,205.6694L731.7292,205.6694" fill="none" stroke="#000"/>
<g fill="#fff" transform="translate(.7143,-17.2134)">
<path d="M602.1429,394.2857C616.5754,378.4596 599.8245,361.6566 617.8571,340.7143C617.0688,360.7439 625.0072,377.2829 633.5714,393.5714" fill="#fff" fill-rule="evenodd" stroke="#000" stroke-width="3.642"/>
<path d="M608.5439,394.6703C617.0975,385.2909 607.17,375.3324 617.8571,362.9208C617.3899,374.7915 622.0947,384.5935 627.1703,394.247" fill="#fff" fill-rule="evenodd" stroke="#000" stroke-width="2.1585"/>
</g>
<g fill="#fff" transform="matrix(1,0,0,2.73536,-14.28571,-690.3143)">
<path d="M602.1429,394.2857C616.5754,378.4596 599.8245,361.6566 617.8571,340.7143C617.0688,360.7439 625.0072,377.2829 633.5714,393.5714" fill="#fff" fill-rule="evenodd" stroke="#000" stroke-width="3.642"/>
<path d="M608.5439,394.6703C617.0975,385.2909 607.17,375.3324 617.8571,362.9208C617.3899,374.7915 622.0947,384.5935 627.1703,394.247" fill="#fff" fill-rule="evenodd" stroke="#000" stroke-width="2.1585"/>
</g>
<g fill="#fff" transform="translate(31.4286,-15.7848)">
<path d="M602.1429,394.2857C616.5754,378.4596 599.8245,361.6566 617.8571,340.7143C617.0688,360.7439 625.0072,377.2829 633.5714,393.5714" fill="#fff" fill-rule="evenodd" stroke="#000" stroke-width="3.642"/>
<path d="M608.5439,394.6703C617.0975,385.2909 607.17,375.3324 617.8571,362.9208C617.3899,374.7915 622.0947,384.5935 627.1703,394.247" fill="#fff" fill-rule="evenodd" stroke="#000" stroke-width="2.1585"/>
</g>
<g fill="#fff" transform="matrix(1,0,0,2.11113,12.14286,-440.19579)">
<path d="M602.1429,394.2857C616.5754,378.4596 599.8245,361.6566 617.8571,340.7143C617.0688,360.7439 625.0072,377.2829 633.5714,393.5714" fill="#fff" fill-rule="evenodd" stroke="#000" stroke-width="3.642"/>
<path d="M608.5439,394.6703C617.0975,385.2909 607.17,375.3324 617.8571,362.9208C617.3899,374.7915 622.0947,384.5935 627.1703,394.247" fill="#fff" fill-rule="evenodd" stroke="#000" stroke-width="2.1585"/>
</g>
<g fill="#fff" transform="translate(60.7142,-10.7848)">
<path d="M602.1429,394.2857C616.5754,378.4596 599.8245,361.6566 617.8571,340.7143C617.0688,360.7439 625.0072,377.2829 633.5714,393.5714" fill="#fff" fill-rule="evenodd" stroke="#000" stroke-width="3.642"/>
<path d="M608.5439,394.6703C617.0975,385.2909 607.17,375.3324 617.8571,362.9208C617.3899,374.7915 622.0947,384.5935 627.1703,394.247" fill="#fff" fill-rule="evenodd" stroke="#000" stroke-width="2.1585"/>
</g>
<g fill="#fff" transform="matrix(1,0,0,1.93634,47.14283,-373.81975)">
<path d="M602.1429,394.2857C616.5754,378.4596 599.8245,361.6566 617.8571,340.7143C617.0688,360.7439 625.0072,377.2829 633.5714,393.5714" fill="#fff" fill-rule="evenodd" stroke="#000" stroke-width="3.642"/>
<path d="M608.5439,394.6703C617.0975,385.2909 607.17,375.3324 617.8571,362.9208C617.3899,374.7915 622.0947,384.5935 627.1703,394.247" fill="#fff" fill-rule="evenodd" stroke="#000" stroke-width="2.1585"/>
</g>
<g fill="#fff" transform="translate(75,-1.4991)">
<path d="M602.1429,394.2857C616.5754,378.4596 599.8245,361.6566 617.8571,340.7143C617.0688,360.7439 625.0072,377.2829 633.5714,393.5714" fill="#fff" fill-rule="evenodd" stroke="#000" stroke-width="3.642"/>
<path d="M608.5439,394.6703C617.0975,385.2909 607.17,375.3324 617.8571,362.9208C617.3899,374.7915 622.0947,384.5935 627.1703,394.247" fill="#fff" fill-rule="evenodd" stroke="#000" stroke-width="2.1585"/>
</g>
</svg>
