<svg version="1.1" viewBox="0 0 900 450" xmlns="http://www.w3.org/2000/svg" xmlns:svg="http://www.w3.org/2000/svg">
<g transform="translate(0,-602.3622)">
<path d="M50.6202,682.4157H831.6221A31.621,31.621 0 0 1 863.2431,714.0367V962.3856A31.621,31.621 0 0 1 831.6221,994.0066H50.6202A31.621,31.621 0 0 1 18.9992,962.3856V714.0367A31.621,31.621 0 0 1 50.6202,682.4157z" fill="#fff" stroke="#000" stroke-linecap="round" stroke-width="7.4907"/>
<path d="m18.5714,270 843.5714,0" fill="none" stroke="#000" transform="translate(0,602.3622)"/>
<path d="m576.9551,679.8155 0,313.8904" fill="none" stroke="#000" stroke-width="5.6784"/>
<path d="m298.5307,679.2525 0,313.0222" fill="none" stroke="#000" stroke-width="5.6706"/>
<g transform="matrix(.12574,0,0,.12574,820.96602,1021.5516)">
<path d="m162.9615,-66.1029c3.4935,4.0575 8.2353,4.5442 13.2828,4.8295 6.3854,-.1721 12.7816,-1.7005 18.7482,-3.9709 3.188,-1.2131 4.9498,-2.2461 7.9245,-3.8084-17.8031,10.4157-7.8919,4.8373-4.5635,1.3015 1.7244,-1.8318 2.7543,-3.7619 3.7268,-6.049 2.5265,-7.1174 2.8539,-14.7708 3.2849,-22.2438 .8398,-10.8784-1.4121,-21.5587-3.8369,-32.0902-2.9495,-11.0779-6.9553,-21.8431-11.3671,-32.4128-2.1125,-4.9937-4.5016,-9.8617-6.8287,-14.7566-3.1362,-6.0174-5.7017,-2.2804 12.0114,-9.1516 .6104,-.2368 .7311,1.087 1.1222,1.6121 .6549,.8793 1.3432,1.7331 2.0147,2.5997 6.5345,8.9671 14.393,16.8239 22.2682,24.5961 4.6332,4.5123 9.6016,8.7005 14.032,13.4186 1.6816,1.3731 2.6867,3.3087 4.04,4.9541 1.3218,1.1942 2.3559,-.063 3.524,-.88-20.4032,12.2348-13.1369,8.2804-9.2246,4.5289 1.5406,-1.4773 2.9931,-3.0561 4.4682,-4.5977 2.0935,-2.0887 4.0773,-4.3249 6.3699,-6.2061 6.0518,-4.966 14.4953,-8.9342 20.7536,-12.4943 5.7826,-2.554 11.6983,-4.7759 17.7067,-6.7339 1.2429,-.2695 6.0517,-2.1189 7.1497,-.869 .2555,.2908 .359,.686 .5385,1.029 .0249,.3507 .122,.7037 .0746,1.052-.3464,2.5421-4.2822,5.4998-5.9999,7.0812-7.8955,6.5272-15.5561,13.3165-22.8485,20.5113-6.3434,6.805-12.8959,13.5227-17.9461,21.3722-3.1182,4.9027-4.7756,10.316-5.5537,16.0199-.5154,5.1011-.4313,10.2374-.4233,15.3575 .2794,5.5658 .9893,11.1428 2.6464,16.4744 .9499,2.8397 2.6391,4.9259 5.3418,6.1729 1.7933,.6321 3.8468,1.0482 5.7562,.6876 .4443,-.0839 4.1482,-1.3389 4.4445,-1.4379 4.3672,-2.3833 14.9158,-7.9566-4.8252,2.8617-.781,.428 1.5035,-.9552 2.2436,-1.4505 1.7,-1.1377 2.1084,-1.4721 3.7035,-2.6614 1.913,-1.4312 1.0067,-.7357 2.723,-2.0808l13.6711,-5.4983c-1.7324,1.4564-.8048,.73-2.796,2.1623-8.0629,6.2254-16.9943,11.3785-26.2507,15.5961-4.0612,1.2122-7.06,1.7923-11.0152,-.0782-2.9124,-1.6424-4.8153,-4.0252-5.8395,-7.2464-1.6234,-5.4897-2.2357,-11.2047-2.7686,-16.8893-.0311,-5.1712-.1159,-10.3556 .3022,-15.5145 .7383,-5.9102 2.2958,-11.5511 5.4746,-16.6653 .6374,-1.0595 1.2164,-2.1564 1.9122,-3.1784 1.4293,-2.0993 3.5633,-4.5022 5.1926,-6.3909 3.5997,-4.173 7.2819,-8.2723 11.0846,-12.2621 7.0925,-7.1546 14.5679,-13.9155 22.3195,-20.352 2.1958,-2.0389 4.4682,-4.0268 6.363,-6.357 .3146,.1659-.6981,.139-1.0503,.1882-1.7578,.2457-3.4497,.7917-5.1425,1.3052-5.9412,1.9611-11.8224,4.1368-17.4628,6.8581 19.4412,-11.4974 7.7521,-4.9691 3.9527,-2.0455-2.3144,1.7808-4.2945,3.9798-6.3247,6.0613-7.3621,7.7662-7.7847,8.5886-20.2399,15.0176-2.0411,.9643-3.1823,.8498-4.779,-.8279-1.26,-1.6657-2.2693,-3.5234-3.8255,-4.9564-4.2421,-4.7917-8.972,-9.1394-13.4655,-13.6887-7.8003,-7.9395-15.7203,-15.7854-22.6621,-24.5085-.7459,-.8383-1.4925,-1.676-2.2377,-2.515-.414,-.4662-1.7128,-.9944-1.2397,-1.4005 11.2457,-9.654 10.609,-12.1815 13.514,-5.8078 2.1923,4.9946 4.5033,9.9394 6.4982,15.0188 4.1744,10.7594 8.0235,21.6562 11.1756,32.7627 2.5328,10.5786 5.0383,21.3246 4.3095,32.2869-.2875,7.5431-.73,15.2244-2.7778,22.5205-.6732,1.8665-.9058,2.8192-1.9806,4.5269-4.7227,7.5035-14.9088,11.0471-21.6041,15.3066-8.5205,4.1876-17.5853,7.1486-27.1755,7.1917-1.3332,-.1069-2.6764,-.126-3.9996,-.3207-3.9409,-.5799-7.6146,-2.3017-10.3419,-5.2234l12.7269,-7.6412z" stroke="#000" stroke-linecap="round" stroke-linejoin="round" stroke-width="2"/>
<path d="m285.1504,-83.2549c-5.88,1.6467-18.6251,9.5149 3.6228,-3.2161-3.0858,1.6423-4.9176,4.3146-6.3615,7.3973-.8239,2.47-1.7035,5.1777-1.5244,7.8292 .1239,1.8346 .601,2.756 1.225,4.4695 2.4426,4.8256 6.1987,8.7942 10.6559,11.8004 3.2897,2.2908 7.0292,3.3333 10.9988,3.3815 3.0629,-.6961 5.9092,-1.889 8.7139,-3.2794 1.1955,-.5927 4.6992,-2.5278 3.5526,-1.8452-13.2158,7.8669-9.9055,5.7434-5.2291,2.5405 3.8506,-2.9659 8.0361,-6.4071 9.0279,-11.451 .1385,-.7045 .1286,-1.4302 .1929,-2.1454-.2546,-6.3086-4.2409,-11.2474-8.0871,-15.9117-2.4245,-2.6982-5.17,-5.2714-8.4848,-6.8472-1.6823,-.7998-2.5447,-.9419-4.3262,-1.415-3.594,-.1953-7.3605,.1463-10.7726,1.3847-1.5775,.5726-3.9684,1.9034-5.4345,2.6786 19.9864,-11.9906 6.8908,-4.0746 2.7687,-.4895l-13.6034,5.5649c6.3305,-6.0894 14.7834,-9.6771 22.1418,-14.1306 2.1358,-1.0385 3.3967,-1.7563 5.6792,-2.4493 3.6325,-1.1029 7.5433,-1.3605 11.2846,-.8091 1.9239,.6139 2.7037,.7688 4.5106,1.7317 3.3646,1.793 6.1391,4.5163 8.621,7.3603 4.0463,4.9816 8.1538,10.1443 8.7701,16.7754-.0296,.8046 .0196,1.6161-.0889,2.4139-.7383,5.4273-4.7753,9.2853-8.8804,12.4917-7.9626,5.7154-3.8825,2.9492-19.2743,11.6675-4.0105,2.2717-8.3975,4.1951-13.0037,4.7328-4.1494,-.367-8.0102,-1.5898-11.3905,-4.108-4.5717,-3.3347-8.416,-7.5445-11.0934,-12.5605-.6247,-1.6344-1.3341,-3.1907-1.5477,-4.9537-.3345,-2.7611 .5846,-5.6627 1.2497,-8.2942 1.2789,-3.2492 2.902,-6.3291 5.9576,-8.2367 7.1822,-4.1341 13.903,-8.8778 21.9148,-11.0889l-11.7853,9.0117z" stroke="#000" stroke-linecap="round" stroke-linejoin="round" stroke-width="2"/>
<path d="m347.1504,-77.2549c-2.5469,.8146-5.1929,1.5133-7.6141,2.6735-.8131,.3896-1.5764,.8756-2.3647,1.3134 3.3457,-1.8736 6.6913,-3.7471 10.037,-5.6207-3.9716,2.6801-6.9185,5.3584-8.6955,9.85-1.1627,3.6999-.6052,6.8285 2.3247,9.5655 .7074,.6608 1.5389,1.1748 2.3083,1.7622 5.6004,3.2171 12.2296,4.3691 18.6442,3.6885 1.8388,-.1951 3.6423,-.6405 5.4634,-.9607 4.2145,-1.088 6.0512,-1.3908 10.0093,-3.0522 1.313,-.5511 5.0497,-2.628 3.8271,-1.898-17.7993,10.6288-9.7426,5.998-6.9473,3.1684 .6199,-.6275 1.1121,-1.3693 1.6682,-2.054 2.4376,-3.8135 2.5,-7.2055 .7831,-11.2688-.3152,-.7137-2.1315,-4.4568-3.4123,-3.6467-.2218,.1403-.3342,.4046-.5012,.6069 20.2171,-11.5287 12.5199,-9.601 10.5591,-3.9824-.8462,2.4247-.9939,4.7822-1.1102,7.3284 1.4046,11.8202 6.6264,22.7649 10.9162,33.7471 5.2161,14.5087 10.244,29.5646 10.8227,45.1266 .1152,3.097-.1863,6.1956-.2795,9.2933-.4626,2.9786-.7219,5.996-1.3878,8.9358-2.1724,9.5898-7.1162,18.3681-14.4574,24.947-1.2941,1.1597-2.7591,2.1134-4.1386,3.1701-5.5203,2.8839-10.7715,6.3551-16.5608,8.6516-2.3998,.952-8.1925,-1.0338-10.0914,-1.8803-7.058,-3.1465-13.1537,-8.3145-19.1496,-13.0475-10.1152,-8.659-20.0186,-17.691-29.0677,-27.4783-4.688,-5.0705-5.8469,-6.777-9.919,-12.0224-3.4654,-5.7822-7.5504,-12.4859-4.1433,-19.3016 2.0163,-4.0335 4.4499,-5.497 7.8272,-8.4338 10.1215,-6.5586 10.9501,-7.3056 25.6037,-14.7259 3.5764,-1.811 15.1096,-5.9066 18.6391,-7.138 7.0388,-2.4558 14.6082,-4.8887 21.6862,-7.2014 18.594,-5.3634 36.8056,-11.8962 54.8051,-18.9783 1.5279,-.6495 3.0578,-1.2942 4.5836,-1.9485 1.1657,-.4999 2.34,-.9808 3.4908,-1.514 2.3523,-1.0899 4.5499,-2.4389 6.9767,-3.363 3.291,-.4693 4.4452,3.4926 5.4304,5.8995 2.2687,6.1277 3.5471,12.5534 4.0987,19.0495 .1362,2.9104 .2306,5.8345-.1816,8.7279-.0421,.2958 .1108,.7559-.16,.882-4.4089,2.0533-9.0127,3.659-13.519,5.4886 .0118,-.8952-.0374,-1.7934 .0355,-2.6857 .1061,-1.2986 .3295,-2.5849 .5008,-3.8765 .9997,-7.538 2.3091,-14.9758 3.843,-22.4228 1.555,-6.4961 2.8976,-13.2994 6.61,-18.9697 4.2039,-4.4015 13.5536,-13.0794 18.1064,-8.0287 .4767,.5289 .8107,1.1708 1.2161,1.7562 .891,1.5753 1.6607,2.7718 2.2437,4.5173 1.6389,4.9078 2.3745,10.6605 3.2422,15.7652 1.1326,4.4176 .7008,9.7081 2.0412,14.0399 1.7726,-4.7616-.0179,.2205-12.7493,6.291-.2582,.1231 .3891,-.4251 .5337,-.672 .3315,-.566 .9805,-2.2274 1.2333,-2.7376 .3448,-.6961 .7385,-1.3669 1.1077,-2.0504 2.3945,-3.8376 4.4213,-7.8928 7.0597,-11.5731 4.4112,-5.5273 8.5378,-6.7337 16.174,-10.93 .2619,-.1439 .6145,-.0601 .8956,.0415 .3579,.1294 .6361,.4181 .9542,.6271 2.9864,3.1411 4.0262,7.5857 5.0346,11.6761 .8762,4.4536 1.3452,8.9967 2.9742,13.2566 .3967,.5584 .7207,1.1763 1.19,1.6753 3.4181,3.6336 9.0718,6.3498 13.7339,7.8272 1.7542,.5559 3.5616,.9276 5.3424,1.3914 7.54,1.8812 15.1058,1.9747 22.6056,-.087 1.66,-.4563 3.3273,-.9326 4.8996,-1.6338 1.4645,-.6531 2.7763,-1.6056 4.1644,-2.4083-2.8879,1.4901-5.5634,3.4967-8.6637,4.4704-1.1955,.3755 1.8602,-1.6841 2.7137,-2.6016 2.5159,-2.7049 3.9544,-5.7126 4.9671,-9.2111 .6946,-2.9134 .6823,-5.9069 .6019,-8.8795-.8123,-6.1361-6.2332,-.0969 12.5348,-7.7189 .3417,-.1388-.2006,.7117-.258,1.076-.0835,.53-.1093,1.0675-.1639,1.6012-.2665,4.8348-.377,9.6802 .1605,14.4971 .5467,3.099 1.1396,6.2653 3.5686,8.4405 1.7091,1.1249 3.5227,1.2014 5.4105,.5838 4.5429,-2.2925 11.3618,-6.2694-9.2958,5.3928-.733,.4138 1.4175,-.9086 2.114,-1.3812l13.7499,-5.4669c-1.0645,.874-.871,.7838-2.0934,1.4985-4.6452,2.7158-10.3975,7.2521-16.2755,8.9062-2.2943,.246-4.4334,-.2532-6.2278,-1.7781-2.497,-2.6033-3.3119,-5.923-3.8685,-9.4237-.5906,-4.8727-.472,-9.7673-.4084,-14.6687 .0197,-.6544 .077,-2.9288 .1232,-2.9595 9.727,-6.4603 12.8718,-12.5754 14.1061,-5.3537 .0695,3.1243 .0729,6.2667-.5797,9.341-3.2014,12.7554-11.6553,15.6615-23.2766,22.5416-1.4289,.7205-2.7977,1.5752-4.2867,2.1615-8.9506,3.524-18.7036,3.2412-27.9102,1.0341-1.8391,-.4877-3.7066,-.8788-5.5173,-1.4632-4.6315,-1.4947-11.1446,-4.692-14.5603,-8.2853-.5627,-.5919-.968,-1.3157-1.452,-1.9736-1.6237,-4.344-2.0916,-8.9473-2.927,-13.4875-.8421,-3.5179-1.6783,-7.8688-4.5851,-10.3108-.6859,.086-.3319,-.0175-1.041,.3749 3.9288,-2.3321 7.8577,-4.6642 11.7865,-6.9963 .3323,-.191-.6084,.4685-.8871,.7315-.6996,.66-1.2666,1.4531-2.0221,2.0581-2.82,3.545-4.8538,7.566-7.2091,11.4215-.8854,1.5155-1.617,2.9578-2.1805,4.6201-.1148,.3386 .0125,.8473-.2939,1.0316-13.2948,7.9967-10.3461,11.2314-14.0569,6.5713-1.1159,-4.7041-.5439,-9.6982-1.6308,-14.4245-1.0635,-6.6156-1.8817,-13.7016-5.4778,-19.4897-.6253,-.7518-.8938,-1.4407-1.8874,-1.6242-.2691,-.0497-1.0491,.2242-.8171,.0792 3.855,-2.4085 7.8581,-4.5721 11.7547,-6.9127 .3501,-.2103-.7641,.3015-1.11,.5187-.4078,.256-.7577,.5945-1.1366,.8918-4.3835,5.2272-5.7056,12.2845-7.478,18.6873-1.9969,9.2321-3.7113,18.5943-3.9931,28.0561-4.3051,2.6386-8.5232,5.4248-12.9154,7.9158-.2419,.1372 .2404,-.5043 .318,-.7714 .8042,-2.7667 .5753,-5.6949 .5747,-8.5333-.3712,-6.3501-1.5585,-12.6651-3.9842,-18.571-.4628,-1.0682-1.3134,-4.1649-2.9322,-4.2743-.3754,-.0254-1.0644,.2717-1.3633,.3791-4.7881,2.1318-9.4382,4.5785-14.4142,6.2825-17.8398,6.7098-35.8321,12.9983-54.1277,18.3644-10.6198,3.5133-21.3137,6.9086-31.715,11.0427-2.9939,1.19-5.7348,3.1473-8.8924,3.787-1.6217,.3285 5.5767,-3.5384 4.0891,-2.8139-2.1692,1.0565-4.0999,2.545-6.1498,3.8175-3.8287,3.0735-8.5236,6.2534-9.4308,11.5515-.893,5.2148 2.4282,10.0365 4.6745,14.3601 1.3891,1.8979 2.711,3.847 4.1673,5.6938 9.9457,12.6131 22.0475,23.4346 34.3683,33.6505 6.0444,4.5132 12.2092,9.5598 19.3554,12.2966 1.6491,.6316 3.3794,1.1098 5.1345,1.3053 1.4972,.1668 5.3244,-1.5002 4.5136,-.2306-1.6887,2.6441-5.176,3.5469-7.7641,5.3203 1.4485,-1.0111 2.9813,-1.911 4.3453,-3.0333 7.5773,-6.2343 12.8885,-14.8407 15.2526,-24.3515 .7183,-2.8896 .999,-5.8707 1.4986,-8.806 .1439,-3.0552 .5095,-6.108 .4316,-9.1656-.3934,-15.4369-5.6294,-30.3333-10.905,-44.6508-4.4755,-11.0691-9.9218,-21.9803-11.8707,-33.8586-.0655,-2.8117 .003,-4.952 .6842,-7.6722 .0381,-.1521 .7931,-2.8601 1.1292,-3.0916 4.3169,-2.973 8.9144,-5.5165 13.3715,-8.2747 .3389,.0271 .6889,-.0085 1.0169,.0812 2.1057,.5758 3.1151,3.1886 3.9952,4.8962 1.8742,4.4256 2.1315,8.3635-.2532,12.7108-.541,.7748-1.0086,1.6064-1.6229,2.3244-4.3907,5.131-13.1728,8.7324-17.6417,11.2191-4.2744,2.3784-9.1918,3.3952-13.8934,4.496-1.8823,.2823-3.7498,.6922-5.6468,.847-6.776,.553-13.6979,-.6632-19.4819,-4.3006-.8304,-.6627-1.7251,-1.252-2.4912,-1.9881-3.2394,-3.1123-4.2505,-6.5472-3.1788,-10.8443 1.6159,-5.1378 4.1492,-7.6245 8.4678,-10.7873 8.3338,-4.9235 15.8682,-10.3542 25.256,-12.659l-11.7853,9.0117z" stroke="#000" stroke-linecap="round" stroke-linejoin="round" stroke-width="2"/>
<path d="m549.2332,-122.1847c-1.7835,2.0929-3.2088,4.4879-3.887,7.1628-.4856,2.6751 1.1102,3.361 3.3038,4.3209 3.5488,1.2997 6.5822,1.157 10.2167,.5143 4.8602,-1.6662 12.579,-6.4142-9.0248,5.5037-.3034,.1673 .5755,-.3901 .8315,-.6236 .6095,-.5556 .6709,-.7857 1.0696,-1.4819 .7338,-1.6463 .6619,-3.1872-.2832,-4.7035-1.2573,-1.1913-3.1474,-1.0796-4.7697,-1.1586-1.6755,.1549-3.2712,.5705-4.6332,1.5753l11.5699,-9.3176c1.6475,-.6237 3.3328,-1.0178 5.1127,-.8762 2.1175,.2092 4.2007,.5097 5.5739,2.3193 1.1184,1.8815 1.5604,3.8267 .9141,5.9743-2.3437,7.0718-11.2457,9.9308-18.1332,11.6144-3.6699,.4613-7.2979,.2601-10.7482,-1.2144-2.4801,-1.2798-4.7037,-2.8813-4.3281,-5.9859 .4579,-2.8821 1.8638,-5.464 3.5526,-7.8184l13.6626,-5.8049z" stroke="#000" stroke-linecap="round" stroke-linejoin="round" stroke-width="2"/>
<path d="m359.6057,-86.1453c2.813,-1.3672 5.4973,-2.9836 8.3991,-4.1626 1.8182,-1.1808 3.8128,-1.7264 5.9399,-1.959 1.9567,-.1487 3.9211,-.1237 5.8819,-.1169 1.9461,-.207 3.5945,.325 5.304,1.1594 1.1966,.9591 2.1411,2.2333 3.05,3.4655 .7904,1.4357 1.2548,3.0464 1.7411,4.6107 .436,1.6028 1.0296,3.1343 1.3438,4.7721 .3026,1.9227 .3232,3.8738 .3468,5.8155 .009,1.0012 .007,2.0024 .007,3.0036l-13.2174,6.733c.001,-.9962 .003,-1.9924-10e-4,-2.9886-.0137,-1.8636-.0171,-3.7343-.2514,-5.5862-.2608,-1.5964-.8449,-3.0648-1.2698,-4.6141-.4125,-1.4071-.8576,-2.8405-1.4965,-4.1522-.7779,-1.02-1.5348,-2.1846-2.6529,-2.8453-1.5703,-.6821-3.2079,-.7262-4.905,-.653-1.9192,.0085-3.8508,-8.13e-4-5.7505,.3092-2.0091,.4249-3.8194,1.2893-5.6483,2.207-2.8459,1.3235-5.5987,2.8407-8.3572,4.3355l11.5367,-9.3337z" stroke="#000" stroke-linecap="round" stroke-linejoin="round" stroke-width="2"/>
</g>
<path d="M60.5474,647.1094H247.4256A15.9099,15.9099 0 0 1 263.3355,663.0193V663.0193A15.9099,15.9099 0 0 1 247.4256,678.9292H60.5474A15.9099,15.9099 0 0 1 44.6375,663.0193V663.0193A15.9099,15.9099 0 0 1 60.5474,647.1094z" fill="#fff" stroke="#000" stroke-linecap="round" stroke-linejoin="round" stroke-width="4"/>
<path d="m101.5203,44.9288a36.8706,34.8503 0 1 1 -73.7411,0 36.8706,34.8503 0 1 1 73.7411,0z" stroke="#000" stroke-linecap="round" stroke-linejoin="round" stroke-width="7.491" transform="matrix(.7121,0,0,.7121,-.64888,624.73227)"/>
<text font-family="Bitstream Vera Sans" font-size="40" x="21.0004" y="670.7668">
   <tspan fill="#f9f9f9" x="21.0004" y="670.7668">66</tspan>
  </text>
<text font-family="Bitstream Vera Sans" font-size="20" x="100.9107" y="669.7863">
   <tspan x="100.9107" y="669.7863">Embauche</tspan>
  </text>
<text font-family="Bitstream Vera Sans" font-size="20" x="161.1197" y="738.3063">
   <tspan text-align="center" text-anchor="middle" x="161.1197" y="738.3063"></tspan>
  </text>
<path d="m744.2857,321.4286a54.2857,6.4286 0 1 1 -108.5714,0 54.2857,6.4286 0 1 1 108.5714,0z" stroke="#000200" stroke-linecap="round" stroke-linejoin="round" stroke-width="2" transform="translate(-591.7101,581.6255)"/>
<path d="m151.6212,819.4772 0,47.8884c0,20.007-16.1067,36.1137-36.1137,36.1137l-35.434,0c-20.007,0-36.1137,-16.1067-36.1137,-36.1137l0,-47.8884" fill="#fff" stroke="#000" stroke-linecap="round" stroke-linejoin="round" stroke-width="3.6422"/>
<path d="M114.3988,839.2886H134.8116A2.3409,2.3409 0 0 1 137.1525,841.6295V848.5344A2.3409,2.3409 0 0 1 134.8116,850.8753H114.3988A2.3409,2.3409 0 0 1 112.0579,848.5344V841.6295A2.3409,2.3409 0 0 1 114.3988,839.2886z" stroke="#000" stroke-linecap="square" stroke-linejoin="round" stroke-width="3.7338"/>
<path d="m46.268,844.3432c.5492,.0105 1.0986,.007 1.6478,.004 .363,-.002 .7259,-.004 1.0889,-.004 .2925,-4.3e-4 .585,-4e-4 .8775,-4e-4 .304,-6.3e-4 .6081,6e-4 .9121,10e-4 .3906,-.01 .7752,-3.7e-4 1.162,.0507 .3996,.0545 .8031,.0717 1.2062,.0827 .4052,-.0158 .8029,.0589 1.204,.099 .4079,.0368 .818,.0407 1.2274,.045 .4301,.002 .8603,.002 1.2904,6.5e-4 .3736,-7.6e-4 .7472,-10e-4 1.1208,-.002 .307,-7.7e-4 .6141,-9.8e-4 .9211,-.001 .2915,-8e-5 .583,-7e-5 .8745,-6e-5 .2915,10e-6 .5831,10e-6 .8746,10e-6 .3187,-3.9e-4 .6374,5.3e-4 .9561,.002 .3943,.002 .7885,4.4e-4 1.1828,-6.3e-4 .3709,-2.7e-4 .7418,4.7e-4 1.1126,.002 .3967,-1.7e-4 .7934,-8e-5 1.1902,-10e-4 .38,1.9e-4 .7599,7.4e-4 1.1399,1.6e-4 .3456,-10e-4 .6912,-.002 1.0367,2.5e-4 .5332,.003 1.0664,.004 1.5996,.006 .7266,.003 1.4533,.003 2.1799,10e-4 .5332,-10e-4 1.0664,-.005 1.5997,-.005 .4413,6.5e-4 .8826,-2e-5 1.3239,-.002 .0611,-2e-4 .1222,-4e-4 .1833,-6e-4l-1.746,1.1993c-.0605,-2.1e-4-.121,-4.1e-4-.1815,-6.1e-4-.4399,-10e-4-.8797,-.002-1.3196,-.002-.528,-2.2e-4-1.0559,-.004-1.5839,-.005-.7276,-.002-1.4552,-.002-2.1828,9.8e-4-.5391,.002-1.0782,.003-1.6173,.006-.3458,.002-.6916,.002-1.0375,2.6e-4-.3801,-5.7e-4-.7602,-3e-5-1.1404,1.5e-4-.3957,-9.9e-4-.7914,-8.9e-4-1.187,-10e-4-.3723,10e-4-.7447,.002-1.117,.002-.3937,-10e-4-.7873,-.003-1.181,-6.3e-4-.3206,10e-4-.6411,.002-.9617,.002-.2915,0-.5831,0-.8747,0-.2914,0-.5829,2e-5-.8743,-6e-5-.306,-1.3e-4-.612,-3.5e-4-.918,-9.6e-4-.372,-6.9e-4-.744,-8.4e-4-1.1161,-8.8e-4-.4302,-8.3e-4-.8603,7e-4-1.2904,-.004-.4148,-.006-.8303,-.0145-1.2428,-.0594-.3968,-.0446-.792,-.0972-1.193,-.087-.4078,-.0151-.8149,-.0435-1.2193,-.0968-.382,-.0404-.7654,-.0292-1.1493,-.0278-.3051,5.7e-4-.6103,.002-.9155,10e-4-.2921,2e-5-.5842,3e-5-.8763,-4e-4-.3589,-6.7e-4-.7177,-.002-1.0765,-.004-.5532,-.003-1.1065,-.006-1.6597,.004l1.7494,-1.2016z" stroke="#000" stroke-linecap="square" stroke-linejoin="round" stroke-width=".4767"/>
<path d="m137.7628,844.6199c.7039,.0118 1.4079,.0102 2.1119,.01 .6452,-8.9e-4 1.2905,-.003 1.9357,-.006 .4312,-.002 .8624,-.002 1.2935,-.003 .3398,-8.1e-4 .6796,-.002 1.0194,-.002 .2968,.0217 .5821,-.0575 .8738,-.0956 .2926,-.0341 .5877,-.039 .8821,-.0425 .2922,-.002 .5843,-10e-4 .8765,-8.4e-4 .2918,4e-4 .5836,5.2e-4 .8754,6e-4 .2918,5e-5 .5836,5e-5 .8754,5e-5 .2918,0 .5836,0 .8754,0 .3133,-6.1e-4 .6266,10e-4 .9398,10e-4 .3172,-2.5e-4 .6345,-6.8e-4 .9517,-9.3e-4 .2938,-1.8e-4 .5877,-2e-4 .8815,-2e-4 .1943,-1e-5 .0972,-1e-5 .2915,-1e-5l-1.7509,1.2027c-.1943,0-.0971,0-.2914,0-.2936,-2e-5-.5872,-4e-5-.8808,-2.2e-4-.3164,-2.3e-4-.6327,-6.8e-4-.9491,-9.3e-4-.3144,4e-5-.6287,.002-.9431,10e-4-.2918,1e-5-.5836,1e-5-.8754,1e-5-.2918,-1e-5-.5836,-1e-5-.8754,-1.2e-4-.2918,-1.3e-4-.5837,-3.7e-4-.8755,-7.2e-4-.2913,-2.3e-4-.5826,-10e-4-.8738,.004-.2893,.007-.5791,.0195-.8653,.0636-.2961,.0453-.5905,.0907-.8921,.0705-.3377,-4.3e-4-.6755,-10e-4-1.0132,-.002-.4283,-5.4e-4-.8565,-6.3e-4-1.2848,-.003-.6398,-.003-1.2796,-.005-1.9195,-.006-.7134,-4.8e-4-1.4269,-.002-2.1402,.01l1.747,-1.2z" stroke="#000" stroke-linecap="square" stroke-linejoin="round" stroke-width=".4767"/>
<path d="m97.4699,844.7831c.5339,.0676 1.0726,.0889 1.6105,.1048 .4801,.0116 .9604,.0116 1.4405,.0103 .3964,-5e-4 .7929,-6.3e-4 1.1893,-.002 .7958,.0205 1.592,.0104 2.3879,.007 .4809,-.004 .9619,-.005 1.4428,-.007 .3835,3e-5 .767,-4.2e-4 1.1506,6e-4 .4032,10e-4 .8064,-9.5e-4 1.2096,-3.1e-4 .3638,-8.6e-4 .7277,-7.5e-4 1.0915,-6.6e-4 .3644,5.6e-4 .7288,2.2e-4 1.0931,-5.1e-4 .3481,10e-4 .6961,1.1e-4 1.0442,-4.5e-4 .3406,10e-4 .6811,4.5e-4 1.0217,-4e-5 .3008,-4.3e-4 .6016,-5.6e-4 .9024,-6.3e-4 .2516,.0585 .5047,.1006 .7628,.1209 .2799,.0172 .5606,.0173 .8409,.018 .2917,1.8e-4 .5833,-4e-4 .875,-6.9e-4 .146,-1.4e-4 .292,-2e-4 .4381,-2.6e-4l-1.7508,1.2027c-.146,9e-5-.292,1.8e-4-.438,3.4e-4-.292,3.2e-4-.584,.001-.876,-3.8e-4-.2852,-.002-.5709,-.005-.8549,-.0331-.2506,-.0294-.496,-.0897-.7478,-.105-.3002,-7e-5-.6004,-2e-4-.9006,-6.3e-4-.3405,-4.7e-4-.681,-10e-4-1.0215,-4e-5-.3476,-5.6e-4-.6953,-.002-1.0429,-4.4e-4-.3639,-7.3e-4-.7278,-10e-4-1.0916,-5.2e-4-.3632,1.2e-4-.7264,1.9e-4-1.0895,-6.6e-4-.4029,6.5e-4-.8058,-.002-1.2087,-3.1e-4-.3841,10e-4-.7682,5.8e-4-1.1523,6e-4-.4742,-.002-.9483,-.003-1.4224,-.007-.8027,-.004-1.6058,-.0132-2.4083,.007-.3958,-4.3e-4-.7915,4.7e-4-1.1873,-3.6e-4-.4785,-.003-.957,-.007-1.4353,-.0226-.5477,-.0212-1.0947,-.0538-1.64,-.107l1.7673,-1.1825z" stroke="#000" stroke-linecap="square" stroke-linejoin="round" stroke-width=".4767"/>
<path d="m58.9654,806.9698 0,18.5432" fill="none" stroke="#000" stroke-linecap="round" stroke-width="4.8046"/>
<path d="m68.4895,805.2155 0,18.5432" fill="none" stroke="#000" stroke-linecap="round" stroke-width="4.8046"/>
<path d="m77.4264,806.6798 0,18.5432" fill="none" stroke="#000" stroke-linecap="round" stroke-width="4.8046"/>
<path d="m89.1031,805.5126 0,18.5432" fill="none" stroke="#000" stroke-linecap="round" stroke-width="4.8046"/>
<path d="m99.2618,807.6992 0,18.5432" fill="none" stroke="#000" stroke-linecap="round" stroke-width="4.8046"/>
<path d="m110.891,807.5238 0,18.5432" fill="none" stroke="#000" stroke-linecap="round" stroke-width="4.8046"/>
<path d="m121.3936,805.8096 0,18.5432" fill="none" stroke="#000" stroke-linecap="round" stroke-width="4.8046"/>
<path d="m131.309,808.8465 0,18.5432" fill="none" stroke="#000" stroke-linecap="round" stroke-width="4.8046"/>
<path d="m141.982,808.4778 0,18.5432" fill="none" stroke="#000" stroke-linecap="round" stroke-width="4.8046"/>
<path d="m51.0812,811.7001 0,18.5432" fill="none" stroke="#000" stroke-linecap="round" stroke-width="4.8046"/>
<path d="M73.7459,839.4975H94.1588A2.3409,2.3409 0 0 1 96.4997,841.8384V848.7433A2.3409,2.3409 0 0 1 94.1588,851.0842H73.7459A2.3409,2.3409 0 0 1 71.4051,848.7433V841.8384A2.3409,2.3409 0 0 1 73.7459,839.4975z" stroke="#000" stroke-linecap="square" stroke-linejoin="round" stroke-width="3.7338"/>
<path d="m81.8614,881.6255 21.4286,2.8571" fill="none" stroke="#000"/>
<g transform="matrix(1.20124,0,0,1,-616.50066,1213.7475)">
<path d="M1013.7151,-530.8745H1138.6816A13.0878,13.0878 0 0 1 1151.7694,-517.7867V-495.7367A13.0878,13.0878 0 0 1 1138.6816,-482.649H1013.7151A13.0878,13.0878 0 0 1 1000.6273,-495.7367V-517.7867A13.0878,13.0878 0 0 1 1013.7151,-530.8745z" stroke="#000" stroke-linecap="round" stroke-linejoin="round" stroke-width="1.9703" transform="matrix(1,0,.84988,.52697,0,0)"/>
<path d="M602.1455,-296.3292H607.6698A4.1432,4.1432 0 0 1 611.813,-292.186V-261.8025A4.1432,4.1432 0 0 1 607.6698,-257.6593H602.1455A4.1432,4.1432 0 0 1 598.0023,-261.8025V-292.186A4.1432,4.1432 0 0 1 602.1455,-296.3292z" fill="#fff" stroke="#000" stroke-linecap="round" stroke-linejoin="round" stroke-width="3.642"/>
<path d="M707.3829,-296.3292H712.9072A4.1432,4.1432 0 0 1 717.0504,-292.186V-261.8025A4.1432,4.1432 0 0 1 712.9072,-257.6593H707.3829A4.1432,4.1432 0 0 1 703.2397,-261.8025V-292.186A4.1432,4.1432 0 0 1 707.3829,-296.3292z" fill="#fff" stroke="#000" stroke-linecap="round" stroke-linejoin="round" stroke-width="3.642"/>
<path d="M684.1809,-308.4826H689.7052A4.1432,4.1432 0 0 1 693.8484,-304.3394V-273.9559A4.1432,4.1432 0 0 1 689.7052,-269.8127H684.1809A4.1432,4.1432 0 0 1 680.0377,-273.9559V-304.3394A4.1432,4.1432 0 0 1 684.1809,-308.4826z" fill="#fff" stroke="#000" stroke-linecap="round" stroke-linejoin="round" stroke-width="3.642"/>
<path d="M576.4576,-311.7971H581.9819A4.1432,4.1432 0 0 1 586.1251,-307.6539V-277.2705A4.1432,4.1432 0 0 1 581.9819,-273.1272H576.4576A4.1432,4.1432 0 0 1 572.3144,-277.2705V-307.6539A4.1432,4.1432 0 0 1 576.4576,-311.7971z" fill="#fff" stroke="#000" stroke-linecap="round" stroke-linejoin="round" stroke-width="3.642"/>
<path d="M1076.8467,-603.2072H1201.8132A13.0878,13.0878 0 0 1 1214.901,-590.1194V-568.0694A13.0878,13.0878 0 0 1 1201.8132,-554.9817H1076.8467A13.0878,13.0878 0 0 1 1063.7589,-568.0694V-590.1194A13.0878,13.0878 0 0 1 1076.8467,-603.2072z" fill="#fff" stroke="#000" stroke-linecap="round" stroke-linejoin="round" stroke-width="1.9703" transform="matrix(1,0,.84988,.52697,0,0)"/>
<path d="M1082.5307,-610.5453H1207.4972A13.0878,13.0878 0 0 1 1220.585,-597.4575V-575.4075A13.0878,13.0878 0 0 1 1207.4972,-562.3197H1082.5307A13.0878,13.0878 0 0 1 1069.4429,-575.4075V-597.4575A13.0878,13.0878 0 0 1 1082.5307,-610.5453z" fill="#fff" stroke="#000" stroke-linecap="round" stroke-linejoin="round" stroke-width="1.9703" transform="matrix(1,0,.84988,.52697,0,0)"/>
</g>
<text font-family="Bitstream Vera Sans" font-size="20" x="159.7098" y="740.3578">
   <tspan text-align="center" text-anchor="middle" x="159.7098" y="740.3578">Présentez vous</tspan>
   <tspan text-align="center" text-anchor="middle" x="159.7098" y="765.3578">brièvement !</tspan>
  </text>
<path d="m254.2857,378.2143a38.9286,5.3571 0 1 1 -77.8571,0 38.9286,5.3571 0 1 1 77.8571,0z" transform="translate(-5.7143,596.6479)"/>
<path d="m255.7143,332.8571a41.7857,48.5714 0 1 1 -83.5714,0 41.7857,48.5714 0 1 1 83.5714,0z" fill="#fff" fill-rule="evenodd" stroke="#000" stroke-width="3.642" transform="translate(-4.2857,593.0765)"/>
<path d="m176.3639,895.3109c1.378,2.5105 2.559,5.1205 3.8668,7.6664 1.243,2.0664 2.2937,4.2349 3.3787,6.3856 1.1217,2.22 2.2168,4.4571 3.2119,6.7367 .7852,1.8125 1.5784,3.6133 2.5168,5.351 .0973,.1452 .1781,.3028 .2918,.4356 .3464,.4047 .2958,-.3399 .1213,-.2506-3.0929,1.5825-5.9734,3.5695-9.1097,5.0641-.2011,.0958-.0914,-.4363-.1507,-.651-.0738,-.2675-.1656,-.5296-.2484,-.7945-.8397,-2.4093-1.5213,-4.871-2.186,-7.3339-.9263,-3.5308-1.845,-7.0628-2.7823,-10.5906-.8349,-2.8893-1.531,-5.8179-2.3721,-8.705-.6146,-1.6111-.7923,-3.325-1.1594,-4.993-.2994,-1.1059-.5657,-2.2305-.6509,-3.3753-.0124,-4.083-.1557,-1.1537 9.6923,-5.3239 .061,-.0258 1.5953,2.1351 1.755,2.3783 .9451,1.6666 1.9169,3.3156 2.8866,4.9675 .8168,1.1289 1.4986,2.3424 2.2439,3.5183 .7847,1.3165 1.4901,2.6603 2.0034,4.1055 .4826,1.2812 1.0729,2.5157 1.5769,3.7869 .3412,1.0972 .7896,2.18 1.3992,3.1559 .5886,1.0429 1.2229,2.051 1.6211,3.1854 .3935,1.0135 .8782,1.9855 1.2825,2.9937 .6367,.954 .8482,2.0648 1.1857,3.1353 .3588,1.008 .5338,2.0636 1.0072,3.0294 .0272,.0115 .0905,.0627 .0816,.0346-1.2765,-4.0087-6.2103,3.1513-9.2873,4.6349-.2404,.1159-.1194,-.5203-.1882,-.7782-.2452,-.9196-.3099,-1.0552-.6292,-1.9963-.7603,-2.2751-1.328,-4.6079-2.0107,-6.9055-.6012,-1.7307-.8745,-3.5406-1.2154,-5.3333-.2493,-2.1205-.656,-4.2156-.9916,-6.3232-.4899,-1.5499-.7354,-3.1366-.9781,-4.7381-.3392,-2.0418-.5807,-4.0963-.7228,-6.1607-.0931,-1.5308-.1009,-3.0649-.1052,-4.598 .1202,-1.282-.1641,-2.5112-.3897,-3.7603 .0433,-.1206-.2803,-1.3698-.2234,-1.338 .0836,.0467 .0298,.3046 .116,.2628 9.7324,-4.7183 8.1472,-8.206 9.6706,-4.222 .8407,2.2571 1.876,4.4344 2.9096,6.6076 1.16,2.2559 2.2464,4.5513 3.3123,6.8533 .5828,1.6151 1.4261,3.1107 2.2003,4.6367 .8546,1.6897 1.4607,3.4865 2.2733,5.194 .7984,1.574 1.545,3.1678 2.2245,4.7969 .5362,1.3417 1.3336,2.5442 1.8355,3.8989 .5273,1.0225 .8167,2.133 1.2346,3.1991 .3771,1.0429 .493,2.1459 .9297,3.1695 .0258,.0187 .1055,.041 .0774,.0562-10.824,5.8595-8.316,7.6641-10.6043,1.2893-.9086,-2.7934-1.8167,-5.5894-2.5721,-8.4287-.4898,-2.1114-.803,-4.2635-1.1022,-6.4099-.2913,-2.2779-.5937,-4.5612-.9773,-6.826-.4169,-1.7363-.5716,-3.5167-.8681,-5.2722-.3395,-1.4448-.5496,-2.9093-.6655,-4.3875-.1194,-1.4143-.0274,-2.8371-.1512,-4.2496-.2515,-1.4287-.448,-2.8623-.5567,-4.3089-.0129,-.2413-.0279,-.4825-.0387,-.724-.0195,-.4357-.1045,-1.5464-.0777,-1.5605 9.5809,-5.0653 8.434,-8.0708 9.671,-4.2065 .5598,1.8595 1.3334,3.6386 2.0205,5.451 .9163,2.3801 1.927,4.7266 2.9618,7.0584 1.0555,2.3512 2.1473,4.6852 3.1254,7.0699 1.018,2.3479 1.9882,4.7208 3.1584,6.9989 .9371,1.7351 1.8098,3.4962 2.5855,5.3094 .7802,1.5574 1.2581,3.2385 1.8136,4.8839 .5159,1.714 1.1274,3.3994 1.553,5.1392 .2912,1.0237 .3665,2.2223 .8809,3.1726-1.7564,-3.7275 .1456,-.1409-9.3319,4.8222-.1653,.0866-.0291,-.3725-.0575,-.5569-.04,-.2604-.0968,-.5179-.1474,-.7765-.2139,-1.093-.218,-1.0845-.4679,-2.2486-.6639,-3.5414-1.4758,-7.0521-2.2239,-10.5766-.7549,-3.2094-1.4134,-6.4417-2.0064,-9.6848-.5675,-2.6799-.979,-5.3882-1.5439,-8.0687-.5259,-2.2592-1.008,-4.5484-1.6843,-6.769-.5081,-1.3275-.7754,-2.709-.913,-4.1178-.0648,-1.2661-.1748,-2.5449-.008,-3.8068 10.5281,-5.871 8.9424,-7.6973 11.2687,-.6563 1.09,3.0375 2.3036,6.0301 3.5175,9.0199 1.278,2.837 2.6564,5.6263 3.9605,8.4517 1.1906,2.4226 2.3033,4.8806 3.4295,7.3341 .9162,2.0073 1.74,4.0529 2.5385,6.1092 .6756,1.5862 1.3318,3.1858 1.8733,4.8234 .5354,1.1244 .8717,2.3197 1.3322,3.4727 .02,.0823 1.0036,3.2978 .5049,2.1942-11.9798,6.5114-8.6832,7.9967-9.3707,3.6007-.1719,-1.0992-.4203,-2.1879-.6674,-3.2717-.7516,-2.9908-1.5679,-5.9646-2.3178,-8.9557-.8636,-3.0292-1.4782,-6.1154-2.1001,-9.1998-.6284,-2.8788-.7734,-5.8243-1.1386,-8.7383-.3177,-1.8256-.561,-3.6561-.6746,-5.5054-.071,-1.7866-.0838,-3.5749-.0921,-5.3627-.002,-6.2458-1.0725,-2.6406 9.4958,-7.735 .2794,2.5199 .8585,4.9732 1.5133,7.4163 .6771,2.379 1.3907,4.7496 2.4005,7.0102 .9185,2.1603 1.9252,4.2745 3.0274,6.3465 1.1018,2.3064 2.2106,4.6069 3.1756,6.9747 .7477,1.7209 1.5258,3.4171 2.2254,5.1582 .768,2.1806 1.3797,4.4125 1.856,6.6738 .4071,2.0815 .791,4.1741 1.2738,6.2397 1.1872,3.6061 4.9097,-.0156-8.9264,5.3253-.3052,.1178-.0895,-.6483-.15,-.9698-.0712,-.378-.1633,-.7518-.245,-1.1278-.8081,-3.0733-1.6053,-6.1482-2.333,-9.2417-.7476,-3.0147-.8602,-6.1187-1.1399,-9.1955-.3116,-2.7994-.4995,-5.61-.6349,-8.4227-.0827,-1.7751-.1051,-3.5521-.1135,-5.3289 .0542,-1.4299-.0142,-2.8366-.2809,-4.2424-1.0385,-3.8032-3.8847,.9433 9.2408,-5.2059 .109,-.0511-.007,.2421 .0122,.3609 .0419,.2611 .2443,.8392 .3148,1.0549 .8064,2.0975 1.6253,4.1863 2.4954,6.2603 1.2052,2.7594 2.3263,5.5534 3.5173,8.3187 .7497,1.8561 1.5221,3.7011 2.3058,5.5431 .5248,1.2144 1.1504,2.3807 1.6831,3.5946 .6636,1.2307 1.0362,2.5768 1.5418,3.8727 .5172,1.246 .5709,2.5945 .7722,3.9085 .3494,1.3576 .4082,2.7658 .6714,4.1359 .3771,1.222 .4887,2.4948 .7111,3.7466-.2261,.2886 1.117,3.4694 .625,1.7979-13.1127,8.0716-7.6397,7.6476-9.2921,2.8216-.4133,-1.012-.7861,-2.0459-1.2064,-3.0567-.4778,-1.1734-.9434,-2.3497-1.2635,-3.5771-.2173,-1.423-.5522,-2.8233-.804,-4.2402-.2436,-1.5723-.2384,-3.1593-.4791,-4.732-.2792,-1.5242-.4267,-3.0649-.5075,-4.6108-.0598,-1.4391-.0584,-2.8798-.0594,-4.3198-.1096,-1.3374 .1368,-2.6284 .3864,-3.9316 1.2404,-5.3781 2.1705,-3.2779 10.2713,-7.7163 .958,1.1129 1.3184,2.5996 1.7213,3.9836 .4098,1.4374 .9567,2.8215 1.4584,4.2264 .3576,1.3535 .6168,2.7368 .8745,4.1141 .3649,1.5684 .8217,3.131 1.4393,4.6196 .5475,1.3046 1.2734,2.5211 1.8194,3.8262 .5183,1.0964 1.0995,2.1655 1.5733,3.282 .5795,.9356 .8909,1.9896 1.3122,2.998 .4065,1.2372 .801,2.4823 1.0834,3.755 .4402,1.2028 .7538,2.4268 .9268,3.695 .1527,1.4006 .1561,2.8114 .1639,4.2185 0,0-9.4448,4.8171-9.4448,4.8171l0,0c-.003,-1.3677 4.3e-4,-2.7379-.1138,-4.1019-.1378,-1.2462-.4199,-2.4478-.879,-3.618-.2443,-1.2174-.6478,-2.3854-1.0087,-3.5703-.4206,-1.0108-.7336,-2.0613-1.3097,-3.001-.456,-1.1256-1.0508,-2.1925-1.5544,-3.2976-.5278,-1.3129-1.2876,-2.5122-1.8164,-3.8249-.6415,-1.557-1.1043,-3.1909-1.5367,-4.8167-.2473,-1.3276-.5526,-2.6418-.8178,-3.964-.4837,-1.4334-1.0379,-2.8378-1.465,-4.2915-.1543,-.5538-.6818,-2.5847-1.0918,-2.9392-.0265,-.0229-.002,.07-.004,.105 2.9734,-1.7517 5.9464,-3.504 8.9202,-5.255 .0871,-.0513-.1984,.0757-.26,.1558-.4102,.5337-.2887,1.407-.7197,1.9464-.2049,1.2613-.6199,2.4774-.4829,3.7723-8.4e-4,1.4261-.005,2.8526 .0353,4.2782 .0579,1.5119 .1675,3.0223 .4381,4.5132 .2572,1.5675 .3225,3.1359 .4888,4.714 .2254,1.3968 .6045,2.76 .7723,4.1657 .2797,1.1838 .748,2.2956 1.2007,3.4211 .442,1.0243 .7929,2.0934 1.24,3.115 1.9187,5.3296-1.1568,4.6921-8.493,8.8234-.9865,-.8858-1.2857,-2.005-1.4941,-3.2957-.2803,-1.2365-.3099,-2.5221-.7122,-3.7365-.3137,-1.3718-.2968,-2.8046-.6801,-4.1688-.2511,-1.2383-.2133,-2.5323-.6841,-3.726-.4912,-1.2861-.8429,-2.6235-1.5142,-3.835-.5306,-1.2185-1.1669,-2.3855-1.6744,-3.6118-.784,-1.8448-1.468,-3.7302-2.2114,-5.5914-1.1878,-2.769-2.2797,-5.5769-3.5198,-8.324-.8906,-2.0868-1.7629,-4.1756-2.6429,-6.2652-.0479,-.1353-.6849,-1.628-.5467,-1.7151 5.7351,-3.6119 8.668,-8.8645 9.6373,-4.607 .2566,1.4687 .4707,2.9197 .3564,4.4171-.005,1.7753-.0108,3.551 .0321,5.326 .0817,2.8028 .2413,5.6033 .571,8.3891 .3024,3.0339 .3296,6.1053 1.0455,9.0875 .7099,3.0896 1.5112,6.1576 2.3998,9.2005 .17,.6631 .5531,2.1025 .4978,2.1465-5.7866,4.6144-8.2792,9.4963-9.7525,4.6449-.5087,-2.0751-.8048,-4.2078-1.2246,-6.3022-.452,-2.2003-1.0796,-4.3557-1.8339,-6.4716-.7048,-1.7403-1.4378,-3.4613-2.1796,-5.187-.9211,-2.3447-2.0226,-4.6072-3.1009,-6.8826-1.1253,-2.085-2.1768,-4.2074-3.0944,-6.3932-1.0426,-2.3124-1.7222,-4.7549-2.4319,-7.1858-.6494,-2.4341-1.2559,-4.8715-1.6754,-7.3578 10.9781,-6.2295 9.2462,-8.2759 9.314,-2.1336-.005,1.7719-.0155,3.5446 .0574,5.3154 .0913,1.8332 .2982,3.6534 .5935,5.4654 .3637,2.8956 .3969,5.8364 1.0508,8.6958 .6239,3.0692 1.209,6.1459 2.0822,9.1584 .7322,2.9941 1.5415,5.9696 2.3612,8.9406 .3406,1.35 .6563,2.7058 .9117,4.0739 .0383,.205 .2967,.4952 .1246,.6131-3.0003,2.055-6.2092,3.7874-9.3139,5.681-.4802,-.822-.3044,-1.854-.7211,-2.7195-.4664,-1.1794-.8029,-2.3982-1.3388,-3.5519-.5047,-1.6308-1.1604,-3.2149-1.8135,-4.7907-.7671,-2.0476-1.5892,-4.0744-2.4792,-6.0716-1.0897,-2.4673-2.2134,-4.9184-3.3963,-7.3421-1.3088,-2.8418-2.6503,-5.6678-3.9306,-8.5222-1.2287,-3.0002-2.4742,-5.9948-3.627,-9.0251-.3477,-.9673-.6445,-1.9705-1.0204,-2.9266-1.5508,-3.9441-6.1803,2.7153 8.6374,-5.9868-.7492,.8406-.1478,2.3735-.2557,3.3939 .0987,1.3455 .3103,2.6687 .7843,3.9398 .6667,2.258 1.0788,4.5991 1.6475,6.8831 .5937,2.6893 .9982,5.4123 1.5611,8.1078 .5342,3.249 1.1948,6.4788 1.9211,9.6898 .7234,3.5131 1.5703,6.9969 2.3037,10.5074 .2535,1.0144 .5093,2.0301 .7521,3.0468 .0444,.186 .2656,.4505 .1109,.5629-8.8796,6.4523-6.8721,8.7517-9.411,5.3869-.4471,-1.0757-.6585,-2.2722-.9078,-3.4021-.3762,-1.7174-.9832,-3.368-1.4773,-5.053-.5752,-1.6144-1.0265,-3.2793-1.7982,-4.8155-.7414,-1.8003-1.5848,-3.548-2.4895,-5.2717-1.1788,-2.3073-2.1544,-4.7068-3.1961,-7.0772-.9819,-2.3721-2.0446,-4.7087-3.1069,-7.0456-1.0512,-2.3448-2.0528,-4.714-3.0118,-7.0971-.6929,-1.8063-1.4859,-3.5722-2.1015,-5.409-1.6508,-3.8257-.5282,-.7164 9.1055,-5.823 .0932,-.0494-.007,.2108-.008,.3163-.006,.6532 .0171,1.306 .0474,1.9584 .0859,1.4307 .2458,2.8531 .5304,4.2594 .213,1.4219 .0752,2.8636 .1768,4.297 .0878,1.4435 .2555,2.8788 .6005,4.2864 .3487,1.7536 .3868,3.5634 .8261,5.3058 .4095,2.2709 .6711,4.5741 .9969,6.8576 .2924,2.1141 .6285,4.2242 1.0157,6.3219 .6921,2.8178 1.5876,5.5812 2.5168,8.3286 .0832,.212 1.4008,3.5949 1.3649,3.6197-8.9405,6.1776-7.2903,8.6746-9.3165,5.3334-.4041,-1.0436-.6193,-2.1176-.9169,-3.1907-.4217,-1.0787-.7131,-2.1969-1.2381,-3.2348-.459,-1.3519-1.2693,-2.5372-1.7891,-3.8665-.6557,-1.6187-1.3872,-3.1984-2.1683,-4.7599-.818,-1.697-1.4289,-3.4833-2.289,-5.1615-.7705,-1.5447-1.6414,-3.0476-2.1916,-4.692-1.0216,-2.3148-2.0794,-4.6178-3.2387,-6.8669-1.0607,-2.1847-2.126,-4.3698-3.0558,-6.6143-.0837,-.207-.4294,-.4867-.2511,-.6209 2.8567,-2.1506 7.896,-8.9585 9.1445,-5.6079 .0903,.2424 .0702,.5126 .1022,.7693 .0253,.2028 .0528,.4053 .0791,.6079 .2215,1.3074 .5936,2.5888 .4594,3.9303-.001,1.5184-.006,3.0374 .0545,4.5549 .0998,2.0335 .283,4.0637 .6536,6.0679 .2958,1.5941 .4915,3.2009 .9942,4.7518 .2942,2.0999 .7149,4.1789 .9691,6.2843 .3463,1.759 .6113,3.5372 1.1536,5.2508 .6727,2.2821 1.1837,4.6137 1.9704,6.863 .0727,.1958 1.001,2.7699 .9385,2.8228-4.6441,3.9299-6.8723,9.4048-9.4027,5.6233-.4503,-1.0221-.7177,-2.0836-1.0447,-3.147-.3588,-1.0436-.5043,-2.1532-1.1594,-3.0832-.3958,-1.0307-.9058,-2.0124-1.3045,-3.0432-.3388,-1.0696-.9657,-1.9965-1.4985,-2.9765-.6304,-1.0365-1.1636,-2.1559-1.4955,-3.3244-.4857,-1.2923-1.0853,-2.5388-1.5599,-3.8371-.4692,-1.375-1.1726,-2.6276-1.9122,-3.8747-.7582,-1.1843-1.4199,-2.4241-2.2256,-3.5779-.9472,-1.6404-1.9025,-3.2753-2.872,-4.9026-.4854,-.7187-.3463,-.5475-.8919,-1.2175-.1235,-.1517-.2405,-.3098-.3779,-.4491-.0676,-.0686-.3161,-.1212-.2333,-.1704 8.9491,-5.3166 12.0406,-3.2416 8.7435,-5.3052-.3669,.7526 .3215,2.2723 .4407,3.0807 .3957,1.6485 .4518,3.3788 1.0613,4.9842 .8163,2.9094 1.4454,5.8715 2.2968,8.7727 .9097,3.5289 1.8467,7.0507 2.8092,10.5655 .6633,2.4338 1.3985,4.8504 2.2544,7.2229 .1953,.5395 .5641,1.5196 .5115,1.5616-5.1355,4.0994-7.4156,9.2735-9.8725,5.0041-.9213,-1.7794-1.7046,-3.6161-2.4931,-5.4582-.9755,-2.2645-2.0593,-4.4849-3.1977,-6.6718-1.0943,-2.1454-2.1008,-4.3353-3.3264,-6.4123-1.2866,-2.5357-2.4281,-5.1523-3.9506,-7.561 0,0 9.1872,-5.2988 9.1872,-5.2988z"/>
<path d="m192.1429,177.1429 15,68.5714" fill="none" stroke="#000" transform="translate(0,602.3622)"/>
<path d="m744.2857,321.4286a54.2857,6.4286 0 1 1 -108.5714,0 54.2857,6.4286 0 1 1 108.5714,0z" stroke="#000200" stroke-linecap="round" stroke-linejoin="round" stroke-width="2" transform="translate(-302.8199,579.5543)"/>
<path d="m440.5114,817.406 0,47.8884c0,20.007-16.1067,36.1137-36.1137,36.1137l-35.434,0c-20.007,0-36.1137,-16.1067-36.1137,-36.1137l0,-47.8884" fill="#fff" stroke="#000" stroke-linecap="round" stroke-linejoin="round" stroke-width="3.6422"/>
<path d="M403.2889,837.2174H423.7018A2.3409,2.3409 0 0 1 426.0427,839.5583V846.4632A2.3409,2.3409 0 0 1 423.7018,848.8041H403.2889A2.3409,2.3409 0 0 1 400.9481,846.4632V839.5583A2.3409,2.3409 0 0 1 403.2889,837.2174z" stroke="#000" stroke-linecap="square" stroke-linejoin="round" stroke-width="3.7338"/>
<path d="m335.1582,842.2721c.5492,.0105 1.0986,.007 1.6478,.004 .363,-.002 .7259,-.004 1.0889,-.004 .2925,-4.3e-4 .585,-4e-4 .8775,-4e-4 .304,-6.3e-4 .6081,6e-4 .9121,10e-4 .3906,-.01 .7752,-3.7e-4 1.162,.0507 .3996,.0545 .8031,.0717 1.2062,.0827 .4052,-.0158 .8029,.0589 1.204,.099 .4079,.0368 .818,.0407 1.2274,.045 .4301,.002 .8603,.002 1.2904,6.5e-4 .3736,-7.6e-4 .7472,-10e-4 1.1208,-.002 .307,-7.7e-4 .6141,-9.8e-4 .9211,-.001 .2915,-8e-5 .583,-7e-5 .8745,-6e-5 .2915,10e-6 .5831,10e-6 .8746,10e-6 .3187,-3.9e-4 .6374,5.3e-4 .9561,.002 .3943,.002 .7885,4.4e-4 1.1828,-6.3e-4 .3709,-2.7e-4 .7418,4.7e-4 1.1126,.002 .3967,-1.7e-4 .7934,-8e-5 1.1902,-10e-4 .38,1.9e-4 .7599,7.4e-4 1.1399,1.6e-4 .3456,-10e-4 .6912,-.002 1.0367,2.5e-4 .5332,.003 1.0664,.004 1.5996,.006 .7266,.003 1.4533,.003 2.1799,10e-4 .5332,-10e-4 1.0664,-.005 1.5997,-.005 .4413,6.5e-4 .8826,-2e-5 1.3239,-.002 .0611,-2e-4 .1222,-4e-4 .1833,-6e-4l-1.746,1.1993c-.0605,-2.1e-4-.121,-4.1e-4-.1815,-6.1e-4-.4399,-10e-4-.8797,-.002-1.3196,-.002-.528,-2.2e-4-1.0559,-.004-1.5839,-.005-.7276,-.002-1.4552,-.002-2.1828,9.8e-4-.5391,.002-1.0782,.003-1.6173,.006-.3458,.002-.6916,.002-1.0375,2.6e-4-.3801,-5.7e-4-.7602,-3e-5-1.1404,1.5e-4-.3957,-9.9e-4-.7914,-8.9e-4-1.187,-10e-4-.3723,10e-4-.7447,.002-1.117,.002-.3937,-10e-4-.7873,-.003-1.181,-6.3e-4-.3206,10e-4-.6411,.002-.9617,.002-.2915,0-.5831,0-.8747,0-.2914,0-.5829,2e-5-.8743,-6e-5-.306,-1.3e-4-.612,-3.5e-4-.918,-9.6e-4-.372,-6.9e-4-.744,-8.4e-4-1.1161,-8.8e-4-.4302,-8.3e-4-.8603,7e-4-1.2904,-.004-.4148,-.006-.8303,-.0145-1.2428,-.0594-.3968,-.0446-.792,-.0972-1.193,-.087-.4078,-.0151-.8149,-.0435-1.2193,-.0968-.382,-.0404-.7654,-.0292-1.1493,-.0278-.3051,5.7e-4-.6103,.002-.9155,10e-4-.2921,2e-5-.5842,3e-5-.8763,-4e-4-.3589,-6.7e-4-.7177,-.002-1.0765,-.004-.5532,-.003-1.1065,-.006-1.6597,.004l1.7494,-1.2016z" stroke="#000" stroke-linecap="square" stroke-linejoin="round" stroke-width=".4767"/>
<path d="m426.653,842.5487c.7039,.0118 1.4079,.0102 2.1119,.01 .6452,-8.9e-4 1.2905,-.003 1.9357,-.006 .4312,-.002 .8624,-.002 1.2935,-.003 .3398,-8.1e-4 .6796,-.002 1.0194,-.002 .2968,.0217 .5821,-.0575 .8738,-.0956 .2926,-.0341 .5877,-.039 .8821,-.0425 .2922,-.002 .5843,-10e-4 .8765,-8.4e-4 .2918,4e-4 .5836,5.2e-4 .8754,6e-4 .2918,5e-5 .5836,5e-5 .8754,5e-5 .2918,0 .5836,0 .8754,0 .3133,-6.1e-4 .6266,10e-4 .9398,10e-4 .3172,-2.5e-4 .6345,-6.8e-4 .9517,-9.3e-4 .2938,-1.8e-4 .5877,-2e-4 .8815,-2e-4 .1943,-10e-6 .0972,-10e-6 .2915,-10e-6l-1.7509,1.2027c-.1943,0-.0971,0-.2914,0-.2936,-2e-5-.5872,-4e-5-.8808,-2.2e-4-.3164,-2.3e-4-.6327,-6.8e-4-.9491,-9.3e-4-.3144,4e-5-.6287,.002-.9431,10e-4-.2918,1e-5-.5836,1e-5-.8754,1e-5-.2918,-1e-5-.5836,-1e-5-.8754,-1.2e-4-.2918,-1.3e-4-.5837,-3.7e-4-.8755,-7.2e-4-.2913,-2.3e-4-.5826,-10e-4-.8738,.004-.2893,.007-.5791,.0195-.8653,.0636-.2961,.0453-.5905,.0907-.8921,.0705-.3377,-4.3e-4-.6755,-10e-4-1.0132,-.002-.4283,-5.4e-4-.8565,-6.3e-4-1.2848,-.003-.6398,-.003-1.2796,-.005-1.9195,-.006-.7134,-4.8e-4-1.4269,-.002-2.1402,.01l1.747,-1.2z" stroke="#000" stroke-linecap="square" stroke-linejoin="round" stroke-width=".4767"/>
<path d="m386.3601,842.7119c.5339,.0676 1.0726,.0889 1.6105,.1048 .4801,.0116 .9604,.0116 1.4405,.0103 .3964,-5e-4 .7929,-6.3e-4 1.1893,-.002 .7958,.0205 1.592,.0104 2.3879,.007 .4809,-.004 .9619,-.005 1.4428,-.007 .3835,3e-5 .767,-4.2e-4 1.1506,6e-4 .4032,10e-4 .8064,-9.5e-4 1.2096,-3.1e-4 .3638,-8.6e-4 .7277,-7.5e-4 1.0915,-6.6e-4 .3644,5.6e-4 .7288,2.2e-4 1.0931,-5.1e-4 .3481,10e-4 .6961,1.1e-4 1.0442,-4.5e-4 .3406,10e-4 .6811,4.5e-4 1.0217,-4e-5 .3008,-4.3e-4 .6016,-5.6e-4 .9024,-6.3e-4 .2516,.0585 .5047,.1006 .7628,.1209 .2799,.0172 .5606,.0173 .8409,.018 .2917,1.8e-4 .5833,-4e-4 .875,-6.9e-4 .146,-1.4e-4 .292,-2e-4 .4381,-2.6e-4l-1.7508,1.2027c-.146,9e-5-.292,1.8e-4-.438,3.4e-4-.292,3.2e-4-.584,.001-.876,-3.8e-4-.2852,-.002-.5709,-.005-.8549,-.0331-.2506,-.0294-.496,-.0897-.7478,-.105-.3002,-7e-5-.6004,-2e-4-.9006,-6.3e-4-.3405,-4.7e-4-.681,-10e-4-1.0215,-4e-5-.3476,-5.6e-4-.6953,-.002-1.0429,-4.4e-4-.3639,-7.3e-4-.7278,-10e-4-1.0916,-5.2e-4-.3632,1.2e-4-.7264,1.9e-4-1.0895,-6.6e-4-.4029,6.5e-4-.8058,-.002-1.2087,-3.1e-4-.3841,10e-4-.7682,5.8e-4-1.1523,6e-4-.4742,-.002-.9483,-.003-1.4224,-.007-.8027,-.004-1.6058,-.0132-2.4083,.007-.3958,-4.3e-4-.7915,4.7e-4-1.1873,-3.6e-4-.4785,-.003-.957,-.007-1.4353,-.0226-.5477,-.0212-1.0947,-.0538-1.64,-.107l1.7673,-1.1825z" stroke="#000" stroke-linecap="square" stroke-linejoin="round" stroke-width=".4767"/>
<path d="m347.8556,804.8986 0,18.5432" fill="none" stroke="#000" stroke-linecap="round" stroke-width="4.8046"/>
<path d="m357.3797,803.1443 0,18.5432" fill="none" stroke="#000" stroke-linecap="round" stroke-width="4.8046"/>
<path d="m366.3166,804.6086 0,18.5432" fill="none" stroke="#000" stroke-linecap="round" stroke-width="4.8046"/>
<path d="m377.9933,803.4414 0,18.5432" fill="none" stroke="#000" stroke-linecap="round" stroke-width="4.8046"/>
<path d="m388.1519,805.628 0,18.5432" fill="none" stroke="#000" stroke-linecap="round" stroke-width="4.8046"/>
<path d="m399.7812,805.4526 0,18.5432" fill="none" stroke="#000" stroke-linecap="round" stroke-width="4.8046"/>
<path d="m410.2838,803.7384 0,18.5432" fill="none" stroke="#000" stroke-linecap="round" stroke-width="4.8046"/>
<path d="m420.1992,806.7753 0,18.5432" fill="none" stroke="#000" stroke-linecap="round" stroke-width="4.8046"/>
<path d="m430.8722,806.4066 0,18.5432" fill="none" stroke="#000" stroke-linecap="round" stroke-width="4.8046"/>
<path d="m339.9715,809.6289 0,18.5432" fill="none" stroke="#000" stroke-linecap="round" stroke-width="4.8046"/>
<path d="M362.6361,837.4263H383.049A2.3409,2.3409 0 0 1 385.3899,839.7671V846.6721A2.3409,2.3409 0 0 1 383.049,849.0129H362.6361A2.3409,2.3409 0 0 1 360.2953,846.6721V839.7671A2.3409,2.3409 0 0 1 362.6361,837.4263z" stroke="#000" stroke-linecap="square" stroke-linejoin="round" stroke-width="3.7338"/>
<path d="m370.7516,879.5543 21.4286,2.8571" fill="none" stroke="#000"/>
<g transform="matrix(1.20124,0,0,1,-327.61046,1211.6763)">
<path d="M1013.7151,-530.8745H1138.6816A13.0878,13.0878 0 0 1 1151.7694,-517.7867V-495.7367A13.0878,13.0878 0 0 1 1138.6816,-482.649H1013.7151A13.0878,13.0878 0 0 1 1000.6273,-495.7367V-517.7867A13.0878,13.0878 0 0 1 1013.7151,-530.8745z" stroke="#000" stroke-linecap="round" stroke-linejoin="round" stroke-width="1.9703" transform="matrix(1,0,.84988,.52697,0,0)"/>
<path d="M602.1455,-296.3292H607.6698A4.1432,4.1432 0 0 1 611.813,-292.186V-261.8025A4.1432,4.1432 0 0 1 607.6698,-257.6593H602.1455A4.1432,4.1432 0 0 1 598.0023,-261.8025V-292.186A4.1432,4.1432 0 0 1 602.1455,-296.3292z" fill="#fff" stroke="#000" stroke-linecap="round" stroke-linejoin="round" stroke-width="3.642"/>
<path d="M707.3829,-296.3292H712.9072A4.1432,4.1432 0 0 1 717.0504,-292.186V-261.8025A4.1432,4.1432 0 0 1 712.9072,-257.6593H707.3829A4.1432,4.1432 0 0 1 703.2397,-261.8025V-292.186A4.1432,4.1432 0 0 1 707.3829,-296.3292z" fill="#fff" stroke="#000" stroke-linecap="round" stroke-linejoin="round" stroke-width="3.642"/>
<path d="M684.1809,-308.4826H689.7052A4.1432,4.1432 0 0 1 693.8484,-304.3394V-273.9559A4.1432,4.1432 0 0 1 689.7052,-269.8127H684.1809A4.1432,4.1432 0 0 1 680.0377,-273.9559V-304.3394A4.1432,4.1432 0 0 1 684.1809,-308.4826z" fill="#fff" stroke="#000" stroke-linecap="round" stroke-linejoin="round" stroke-width="3.642"/>
<path d="M576.4576,-311.7971H581.9819A4.1432,4.1432 0 0 1 586.1251,-307.6539V-277.2705A4.1432,4.1432 0 0 1 581.9819,-273.1272H576.4576A4.1432,4.1432 0 0 1 572.3144,-277.2705V-307.6539A4.1432,4.1432 0 0 1 576.4576,-311.7971z" fill="#fff" stroke="#000" stroke-linecap="round" stroke-linejoin="round" stroke-width="3.642"/>
<path d="M1076.8467,-603.2072H1201.8132A13.0878,13.0878 0 0 1 1214.901,-590.1194V-568.0694A13.0878,13.0878 0 0 1 1201.8132,-554.9817H1076.8467A13.0878,13.0878 0 0 1 1063.7589,-568.0694V-590.1194A13.0878,13.0878 0 0 1 1076.8467,-603.2072z" fill="#fff" stroke="#000" stroke-linecap="round" stroke-linejoin="round" stroke-width="1.9703" transform="matrix(1,0,.84988,.52697,0,0)"/>
<path d="M1082.5307,-610.5453H1207.4972A13.0878,13.0878 0 0 1 1220.585,-597.4575V-575.4075A13.0878,13.0878 0 0 1 1207.4972,-562.3197H1082.5307A13.0878,13.0878 0 0 1 1069.4429,-575.4075V-597.4575A13.0878,13.0878 0 0 1 1082.5307,-610.5453z" fill="#fff" stroke="#000" stroke-linecap="round" stroke-linejoin="round" stroke-width="1.9703" transform="matrix(1,0,.84988,.52697,0,0)"/>
</g>
<text font-family="Bitstream Vera Sans" font-size="20" x="448.6" y="738.2866">
   <tspan text-align="center" text-anchor="middle" x="448.6" y="738.2866">Hmm...</tspan>
  </text>
<g transform="translate(288.8902,-2.0712)">
<path d="m254.2857,378.2143c0,2.9587-17.4289,5.3571-38.9286,5.3571-21.4997,0-38.9286,-2.3985-38.9286,-5.3571 0,-2.9587 17.4289,-5.3571 38.9286,-5.3571 21.4996,0 38.9286,2.3985 38.9286,5.3571z" transform="translate(-5.7143,596.6479)"/>
<path d="m255.7143,332.8571c0,26.8253-18.7081,48.5714-41.7857,48.5714-23.0776,0-41.7857,-21.7462-41.7857,-48.5714 0,-26.8253 18.7081,-48.5714 41.7857,-48.5714 23.0776,0 41.7857,21.7462 41.7857,48.5714z" fill="#fff" fill-rule="evenodd" stroke="#000" stroke-width="3.642" transform="translate(-4.2857,593.0765)"/>
<path d="m176.3639,895.3109c1.378,2.5105 2.559,5.1205 3.8668,7.6664 1.243,2.0664 2.2937,4.2349 3.3787,6.3856 1.1217,2.22 2.2168,4.4571 3.2119,6.7367 .7852,1.8125 1.5784,3.6133 2.5168,5.351 .0973,.1452 .1781,.3028 .2918,.4356 .3464,.4047 .2958,-.3399 .1213,-.2506-3.0929,1.5825-5.9734,3.5695-9.1097,5.0641-.2011,.0958-.0914,-.4363-.1507,-.651-.0738,-.2675-.1656,-.5296-.2484,-.7945-.8397,-2.4093-1.5213,-4.871-2.186,-7.3339-.9263,-3.5308-1.845,-7.0628-2.7823,-10.5906-.8349,-2.8893-1.531,-5.8179-2.3721,-8.705-.6146,-1.6111-.7923,-3.325-1.1594,-4.993-.2994,-1.1059-.5657,-2.2305-.6509,-3.3753-.0124,-4.083-.1557,-1.1537 9.6923,-5.3239 .061,-.0258 1.5953,2.1351 1.755,2.3783 .9451,1.6666 1.9169,3.3156 2.8866,4.9675 .8168,1.1289 1.4986,2.3424 2.2439,3.5183 .7847,1.3165 1.4901,2.6603 2.0034,4.1055 .4826,1.2812 1.0729,2.5157 1.5769,3.7869 .3412,1.0972 .7896,2.18 1.3992,3.1559 .5886,1.0429 1.2229,2.051 1.6211,3.1854 .3935,1.0135 .8782,1.9855 1.2825,2.9937 .6367,.954 .8482,2.0648 1.1857,3.1353 .3588,1.008 .5338,2.0636 1.0072,3.0294 .0272,.0115 .0905,.0627 .0816,.0346-1.2765,-4.0087-6.2103,3.1513-9.2873,4.6349-.2404,.1159-.1194,-.5203-.1882,-.7782-.2452,-.9196-.3099,-1.0552-.6292,-1.9963-.7603,-2.2751-1.328,-4.6079-2.0107,-6.9055-.6012,-1.7307-.8745,-3.5406-1.2154,-5.3333-.2493,-2.1205-.656,-4.2156-.9916,-6.3232-.4899,-1.5499-.7354,-3.1366-.9781,-4.7381-.3392,-2.0418-.5807,-4.0963-.7228,-6.1607-.0931,-1.5308-.1009,-3.0649-.1052,-4.598 .1202,-1.282-.1641,-2.5112-.3897,-3.7603 .0433,-.1206-.2803,-1.3698-.2234,-1.338 .0836,.0467 .0298,.3046 .116,.2628 9.7324,-4.7183 8.1472,-8.206 9.6706,-4.222 .8407,2.2571 1.876,4.4344 2.9096,6.6076 1.16,2.2559 2.2464,4.5513 3.3123,6.8533 .5828,1.6151 1.4261,3.1107 2.2003,4.6367 .8546,1.6897 1.4607,3.4865 2.2733,5.194 .7984,1.574 1.545,3.1678 2.2245,4.7969 .5362,1.3417 1.3336,2.5442 1.8355,3.8989 .5273,1.0225 .8167,2.133 1.2346,3.1991 .3771,1.0429 .493,2.1459 .9297,3.1695 .0258,.0187 .1055,.041 .0774,.0562-10.824,5.8595-8.316,7.6641-10.6043,1.2893-.9086,-2.7934-1.8167,-5.5894-2.5721,-8.4287-.4898,-2.1114-.803,-4.2635-1.1022,-6.4099-.2913,-2.2779-.5937,-4.5612-.9773,-6.826-.4169,-1.7363-.5716,-3.5167-.8681,-5.2722-.3395,-1.4448-.5496,-2.9093-.6655,-4.3875-.1194,-1.4143-.0274,-2.8371-.1512,-4.2496-.2515,-1.4287-.448,-2.8623-.5567,-4.3089-.0129,-.2413-.0279,-.4825-.0387,-.724-.0195,-.4357-.1045,-1.5464-.0777,-1.5605 9.5809,-5.0653 8.434,-8.0708 9.671,-4.2065 .5598,1.8595 1.3334,3.6386 2.0205,5.451 .9163,2.3801 1.927,4.7266 2.9618,7.0584 1.0555,2.3512 2.1473,4.6852 3.1254,7.0699 1.018,2.3479 1.9882,4.7208 3.1584,6.9989 .9371,1.7351 1.8098,3.4962 2.5855,5.3094 .7802,1.5574 1.2581,3.2385 1.8136,4.8839 .5159,1.714 1.1274,3.3994 1.553,5.1392 .2912,1.0237 .3665,2.2223 .8809,3.1726-1.7564,-3.7275 .1456,-.1409-9.3319,4.8222-.1653,.0866-.0291,-.3725-.0575,-.5569-.04,-.2604-.0968,-.5179-.1474,-.7765-.2139,-1.093-.218,-1.0845-.4679,-2.2486-.6639,-3.5414-1.4758,-7.0521-2.2239,-10.5766-.7549,-3.2094-1.4134,-6.4417-2.0064,-9.6848-.5675,-2.6799-.979,-5.3882-1.5439,-8.0687-.5259,-2.2592-1.008,-4.5484-1.6843,-6.769-.5081,-1.3275-.7754,-2.709-.913,-4.1178-.0648,-1.2661-.1748,-2.5449-.008,-3.8068 10.5281,-5.871 8.9424,-7.6973 11.2687,-.6563 1.09,3.0375 2.3036,6.0301 3.5175,9.0199 1.278,2.837 2.6564,5.6263 3.9605,8.4517 1.1906,2.4226 2.3033,4.8806 3.4295,7.3341 .9162,2.0073 1.74,4.0529 2.5385,6.1092 .6756,1.5862 1.3318,3.1858 1.8733,4.8234 .5354,1.1244 .8717,2.3197 1.3322,3.4727 .02,.0823 1.0036,3.2978 .5049,2.1942-11.9798,6.5114-8.6832,7.9967-9.3707,3.6007-.1719,-1.0992-.4203,-2.1879-.6674,-3.2717-.7516,-2.9908-1.5679,-5.9646-2.3178,-8.9557-.8636,-3.0292-1.4782,-6.1154-2.1001,-9.1998-.6284,-2.8788-.7734,-5.8243-1.1386,-8.7383-.3177,-1.8256-.561,-3.6561-.6746,-5.5054-.071,-1.7866-.0838,-3.5749-.0921,-5.3627-.002,-6.2458-1.0725,-2.6406 9.4958,-7.735 .2794,2.5199 .8585,4.9732 1.5133,7.4163 .6771,2.379 1.3907,4.7496 2.4005,7.0102 .9185,2.1603 1.9252,4.2745 3.0274,6.3465 1.1018,2.3064 2.2106,4.6069 3.1756,6.9747 .7477,1.7209 1.5258,3.4171 2.2254,5.1582 .768,2.1806 1.3797,4.4125 1.856,6.6738 .4071,2.0815 .791,4.1741 1.2738,6.2397 1.1872,3.6061 4.9097,-.0156-8.9264,5.3253-.3052,.1178-.0895,-.6483-.15,-.9698-.0712,-.378-.1633,-.7518-.245,-1.1278-.8081,-3.0733-1.6053,-6.1482-2.333,-9.2417-.7476,-3.0147-.8602,-6.1187-1.1399,-9.1955-.3116,-2.7994-.4995,-5.61-.6349,-8.4227-.0827,-1.7751-.1051,-3.5521-.1135,-5.3289 .0542,-1.4299-.0142,-2.8366-.2809,-4.2424-1.0385,-3.8032-3.8847,.9433 9.2408,-5.2059 .109,-.0511-.007,.2421 .0122,.3609 .0419,.2611 .2443,.8392 .3148,1.0549 .8064,2.0975 1.6253,4.1863 2.4954,6.2603 1.2052,2.7594 2.3263,5.5534 3.5173,8.3187 .7497,1.8561 1.5221,3.7011 2.3058,5.5431 .5248,1.2144 1.1504,2.3807 1.6831,3.5946 .6636,1.2307 1.0362,2.5768 1.5418,3.8727 .5172,1.246 .5709,2.5945 .7722,3.9085 .3494,1.3576 .4082,2.7658 .6714,4.1359 .3771,1.222 .4887,2.4948 .7111,3.7466-.2261,.2886 1.117,3.4694 .625,1.7979-13.1127,8.0716-7.6397,7.6476-9.2921,2.8216-.4133,-1.012-.7861,-2.0459-1.2064,-3.0567-.4778,-1.1734-.9434,-2.3497-1.2635,-3.5771-.2173,-1.423-.5522,-2.8233-.804,-4.2402-.2436,-1.5723-.2384,-3.1593-.4791,-4.732-.2792,-1.5242-.4267,-3.0649-.5075,-4.6108-.0598,-1.4391-.0584,-2.8798-.0594,-4.3198-.1096,-1.3374 .1368,-2.6284 .3864,-3.9316 1.2404,-5.3781 2.1705,-3.2779 10.2713,-7.7163 .958,1.1129 1.3184,2.5996 1.7213,3.9836 .4098,1.4374 .9567,2.8215 1.4584,4.2264 .3576,1.3535 .6168,2.7368 .8745,4.1141 .3649,1.5684 .8217,3.131 1.4393,4.6196 .5475,1.3046 1.2734,2.5211 1.8194,3.8262 .5183,1.0964 1.0995,2.1655 1.5733,3.282 .5795,.9356 .8909,1.9896 1.3122,2.998 .4065,1.2372 .801,2.4823 1.0834,3.755 .4402,1.2028 .7538,2.4268 .9268,3.695 .1527,1.4006 .1561,2.8114 .1639,4.2185 0,0-9.4448,4.8171-9.4448,4.8171l0,0c-.003,-1.3677 4.3e-4,-2.7379-.1138,-4.1019-.1378,-1.2462-.4199,-2.4478-.879,-3.618-.2443,-1.2174-.6478,-2.3854-1.0087,-3.5703-.4206,-1.0108-.7336,-2.0613-1.3097,-3.001-.456,-1.1256-1.0508,-2.1925-1.5544,-3.2976-.5278,-1.3129-1.2876,-2.5122-1.8164,-3.8249-.6415,-1.557-1.1043,-3.1909-1.5367,-4.8167-.2473,-1.3276-.5526,-2.6418-.8178,-3.964-.4837,-1.4334-1.0379,-2.8378-1.465,-4.2915-.1543,-.5538-.6818,-2.5847-1.0918,-2.9392-.0265,-.0229-.002,.07-.004,.105 2.9734,-1.7517 5.9464,-3.504 8.9202,-5.255 .0871,-.0513-.1984,.0757-.26,.1558-.4102,.5337-.2887,1.407-.7197,1.9464-.2049,1.2613-.6199,2.4774-.4829,3.7723-8.4e-4,1.4261-.005,2.8526 .0353,4.2782 .0579,1.5119 .1675,3.0223 .4381,4.5132 .2572,1.5675 .3225,3.1359 .4888,4.714 .2254,1.3968 .6045,2.76 .7723,4.1657 .2797,1.1838 .748,2.2956 1.2007,3.4211 .442,1.0243 .7929,2.0934 1.24,3.115 1.9187,5.3296-1.1568,4.6921-8.493,8.8234-.9865,-.8858-1.2857,-2.005-1.4941,-3.2957-.2803,-1.2365-.3099,-2.5221-.7122,-3.7365-.3137,-1.3718-.2968,-2.8046-.6801,-4.1688-.2511,-1.2383-.2133,-2.5323-.6841,-3.726-.4912,-1.2861-.8429,-2.6235-1.5142,-3.835-.5306,-1.2185-1.1669,-2.3855-1.6744,-3.6118-.784,-1.8448-1.468,-3.7302-2.2114,-5.5914-1.1878,-2.769-2.2797,-5.5769-3.5198,-8.324-.8906,-2.0868-1.7629,-4.1756-2.6429,-6.2652-.0479,-.1353-.6849,-1.628-.5467,-1.7151 5.7351,-3.6119 8.668,-8.8645 9.6373,-4.607 .2566,1.4687 .4707,2.9197 .3564,4.4171-.005,1.7753-.0108,3.551 .0321,5.326 .0817,2.8028 .2413,5.6033 .571,8.3891 .3024,3.0339 .3296,6.1053 1.0455,9.0875 .7099,3.0896 1.5112,6.1576 2.3998,9.2005 .17,.6631 .5531,2.1025 .4978,2.1465-5.7866,4.6144-8.2792,9.4963-9.7525,4.6449-.5087,-2.0751-.8048,-4.2078-1.2246,-6.3022-.452,-2.2003-1.0796,-4.3557-1.8339,-6.4716-.7048,-1.7403-1.4378,-3.4613-2.1796,-5.187-.9211,-2.3447-2.0226,-4.6072-3.1009,-6.8826-1.1253,-2.085-2.1768,-4.2074-3.0944,-6.3932-1.0426,-2.3124-1.7222,-4.7549-2.4319,-7.1858-.6494,-2.4341-1.2559,-4.8715-1.6754,-7.3578 10.9781,-6.2295 9.2462,-8.2759 9.314,-2.1336-.005,1.7719-.0155,3.5446 .0574,5.3154 .0913,1.8332 .2982,3.6534 .5935,5.4654 .3637,2.8956 .3969,5.8364 1.0508,8.6958 .6239,3.0692 1.209,6.1459 2.0822,9.1584 .7322,2.9941 1.5415,5.9696 2.3612,8.9406 .3406,1.35 .6563,2.7058 .9117,4.0739 .0383,.205 .2967,.4952 .1246,.6131-3.0003,2.055-6.2092,3.7874-9.3139,5.681-.4802,-.822-.3044,-1.854-.7211,-2.7195-.4664,-1.1794-.8029,-2.3982-1.3388,-3.5519-.5047,-1.6308-1.1604,-3.2149-1.8135,-4.7907-.7671,-2.0476-1.5892,-4.0744-2.4792,-6.0716-1.0897,-2.4673-2.2134,-4.9184-3.3963,-7.3421-1.3088,-2.8418-2.6503,-5.6678-3.9306,-8.5222-1.2287,-3.0002-2.4742,-5.9948-3.627,-9.0251-.3477,-.9673-.6445,-1.9705-1.0204,-2.9266-1.5508,-3.9441-6.1803,2.7153 8.6374,-5.9868-.7492,.8406-.1478,2.3735-.2557,3.3939 .0987,1.3455 .3103,2.6687 .7843,3.9398 .6667,2.258 1.0788,4.5991 1.6475,6.8831 .5937,2.6893 .9982,5.4123 1.5611,8.1078 .5342,3.249 1.1948,6.4788 1.9211,9.6898 .7234,3.5131 1.5703,6.9969 2.3037,10.5074 .2535,1.0144 .5093,2.0301 .7521,3.0468 .0444,.186 .2656,.4505 .1109,.5629-8.8796,6.4523-6.8721,8.7517-9.411,5.3869-.4471,-1.0757-.6585,-2.2722-.9078,-3.4021-.3762,-1.7174-.9832,-3.368-1.4773,-5.053-.5752,-1.6144-1.0265,-3.2793-1.7982,-4.8155-.7414,-1.8003-1.5848,-3.548-2.4895,-5.2717-1.1788,-2.3073-2.1544,-4.7068-3.1961,-7.0772-.9819,-2.3721-2.0446,-4.7087-3.1069,-7.0456-1.0512,-2.3448-2.0528,-4.714-3.0118,-7.0971-.6929,-1.8063-1.4859,-3.5722-2.1015,-5.409-1.6508,-3.8257-.5282,-.7164 9.1055,-5.823 .0932,-.0494-.007,.2108-.008,.3163-.006,.6532 .0171,1.306 .0474,1.9584 .0859,1.4307 .2458,2.8531 .5304,4.2594 .213,1.4219 .0752,2.8636 .1768,4.297 .0878,1.4435 .2555,2.8788 .6005,4.2864 .3487,1.7536 .3868,3.5634 .8261,5.3058 .4095,2.2709 .6711,4.5741 .9969,6.8576 .2924,2.1141 .6285,4.2242 1.0157,6.3219 .6921,2.8178 1.5876,5.5812 2.5168,8.3286 .0832,.212 1.4008,3.5949 1.3649,3.6197-8.9405,6.1776-7.2903,8.6746-9.3165,5.3334-.4041,-1.0436-.6193,-2.1176-.9169,-3.1907-.4217,-1.0787-.7131,-2.1969-1.2381,-3.2348-.459,-1.3519-1.2693,-2.5372-1.7891,-3.8665-.6557,-1.6187-1.3872,-3.1984-2.1683,-4.7599-.818,-1.697-1.4289,-3.4833-2.289,-5.1615-.7705,-1.5447-1.6414,-3.0476-2.1916,-4.692-1.0216,-2.3148-2.0794,-4.6178-3.2387,-6.8669-1.0607,-2.1847-2.126,-4.3698-3.0558,-6.6143-.0837,-.207-.4294,-.4867-.2511,-.6209 2.8567,-2.1506 7.896,-8.9585 9.1445,-5.6079 .0903,.2424 .0702,.5126 .1022,.7693 .0253,.2028 .0528,.4053 .0791,.6079 .2215,1.3074 .5936,2.5888 .4594,3.9303-.001,1.5184-.006,3.0374 .0545,4.5549 .0998,2.0335 .283,4.0637 .6536,6.0679 .2958,1.5941 .4915,3.2009 .9942,4.7518 .2942,2.0999 .7149,4.1789 .9691,6.2843 .3463,1.759 .6113,3.5372 1.1536,5.2508 .6727,2.2821 1.1837,4.6137 1.9704,6.863 .0727,.1958 1.001,2.7699 .9385,2.8228-4.6441,3.9299-6.8723,9.4048-9.4027,5.6233-.4503,-1.0221-.7177,-2.0836-1.0447,-3.147-.3588,-1.0436-.5043,-2.1532-1.1594,-3.0832-.3958,-1.0307-.9058,-2.0124-1.3045,-3.0432-.3388,-1.0696-.9657,-1.9965-1.4985,-2.9765-.6304,-1.0365-1.1636,-2.1559-1.4955,-3.3244-.4857,-1.2923-1.0853,-2.5388-1.5599,-3.8371-.4692,-1.375-1.1726,-2.6276-1.9122,-3.8747-.7582,-1.1843-1.4199,-2.4241-2.2256,-3.5779-.9472,-1.6404-1.9025,-3.2753-2.872,-4.9026-.4854,-.7187-.3463,-.5475-.8919,-1.2175-.1235,-.1517-.2405,-.3098-.3779,-.4491-.0676,-.0686-.3161,-.1212-.2333,-.1704 8.9491,-5.3166 12.0406,-3.2416 8.7435,-5.3052-.3669,.7526 .3215,2.2723 .4407,3.0807 .3957,1.6485 .4518,3.3788 1.0613,4.9842 .8163,2.9094 1.4454,5.8715 2.2968,8.7727 .9097,3.5289 1.8467,7.0507 2.8092,10.5655 .6633,2.4338 1.3985,4.8504 2.2544,7.2229 .1953,.5395 .5641,1.5196 .5115,1.5616-5.1355,4.0994-7.4156,9.2735-9.8725,5.0041-.9213,-1.7794-1.7046,-3.6161-2.4931,-5.4582-.9755,-2.2645-2.0593,-4.4849-3.1977,-6.6718-1.0943,-2.1454-2.1008,-4.3353-3.3264,-6.4123-1.2866,-2.5357-2.4281,-5.1523-3.9506,-7.561 0,0 9.1872,-5.2988 9.1872,-5.2988z"/>
</g>
<path d="m744.2857,321.4286a54.2857,6.4286 0 1 1 -108.5714,0 54.2857,6.4286 0 1 1 108.5714,0z" stroke="#000200" stroke-linecap="round" stroke-linejoin="round" stroke-width="2" transform="translate(-24.9627,580.9828)"/>
<path d="m718.3686,818.8346 0,47.8884c0,20.007-16.1067,36.1137-36.1137,36.1137l-35.434,0c-20.007,0-36.1137,-16.1067-36.1137,-36.1137l0,-47.8884" fill="#fff" stroke="#000" stroke-linecap="round" stroke-linejoin="round" stroke-width="3.6422"/>
<path d="M681.1461,838.646H701.559A2.3409,2.3409 0 0 1 703.8998,840.9869V847.8918A2.3409,2.3409 0 0 1 701.559,850.2327H681.1461A2.3409,2.3409 0 0 1 678.8052,847.8918V840.9869A2.3409,2.3409 0 0 1 681.1461,838.646z" stroke="#000" stroke-linecap="square" stroke-linejoin="round" stroke-width="3.7338"/>
<path d="m613.0153,843.7006c.5492,.0105 1.0986,.007 1.6478,.004 .363,-.002 .7259,-.004 1.0889,-.004 .2925,-4.3e-4 .585,-4e-4 .8775,-4e-4 .304,-6.3e-4 .6081,6e-4 .9121,10e-4 .3906,-.01 .7752,-3.7e-4 1.162,.0507 .3996,.0545 .8031,.0717 1.2062,.0827 .4052,-.0158 .8029,.0589 1.204,.099 .4079,.0368 .818,.0407 1.2274,.045 .4301,.002 .8603,.002 1.2904,6.5e-4 .3736,-7.6e-4 .7472,-10e-4 1.1208,-.002 .307,-7.7e-4 .6141,-9.8e-4 .9211,-10e-4 .2915,-8e-5 .583,-7e-5 .8745,-6e-5 .2915,10e-6 .5831,10e-6 .8746,10e-6 .3187,-3.9e-4 .6374,5.3e-4 .9561,.002 .3943,.002 .7885,4.4e-4 1.1828,-6.3e-4 .3709,-2.7e-4 .7418,4.7e-4 1.1126,.002 .3967,-1.7e-4 .7934,-8e-5 1.1902,-10e-4 .38,1.9e-4 .7599,7.4e-4 1.1399,1.6e-4 .3456,-10e-4 .6912,-.002 1.0367,2.5e-4 .5332,.003 1.0664,.004 1.5996,.006 .7266,.003 1.4533,.003 2.1799,10e-4 .5332,-10e-4 1.0664,-.005 1.5997,-.005 .4413,6.5e-4 .8826,-2e-5 1.3239,-.002 .0611,-2e-4 .1222,-4e-4 .1833,-6e-4l-1.746,1.1993c-.0605,-2.1e-4-.121,-4.1e-4-.1815,-6.1e-4-.4399,-10e-4-.8797,-.002-1.3196,-.002-.528,-2.2e-4-1.0559,-.004-1.5839,-.005-.7276,-.002-1.4552,-.002-2.1828,9.8e-4-.5391,.002-1.0782,.003-1.6173,.006-.3458,.002-.6916,.002-1.0375,2.6e-4-.3801,-5.7e-4-.7602,-3e-5-1.1404,1.5e-4-.3957,-9.9e-4-.7914,-8.9e-4-1.187,-.001-.3723,.001-.7447,.002-1.117,.002-.3937,-10e-4-.7873,-.003-1.181,-6.3e-4-.3206,10e-4-.6411,.002-.9617,.002-.2915,0-.5831,0-.8747,0-.2914,0-.5829,2e-5-.8743,-6e-5-.306,-1.3e-4-.612,-3.5e-4-.918,-9.6e-4-.372,-6.9e-4-.744,-8.4e-4-1.1161,-8.8e-4-.4302,-8.3e-4-.8603,7e-4-1.2904,-.004-.4148,-.006-.8303,-.0145-1.2428,-.0594-.3968,-.0446-.792,-.0972-1.193,-.087-.4078,-.0151-.8149,-.0435-1.2193,-.0968-.382,-.0404-.7654,-.0292-1.1493,-.0278-.3051,5.7e-4-.6103,.002-.9155,10e-4-.2921,2e-5-.5842,3e-5-.8763,-4e-4-.3589,-6.7e-4-.7177,-.002-1.0765,-.004-.5532,-.003-1.1065,-.006-1.6597,.004l1.7494,-1.2016z" stroke="#000" stroke-linecap="square" stroke-linejoin="round" stroke-width=".4767"/>
<path d="m704.5101,843.9773c.7039,.0118 1.4079,.0102 2.1119,.01 .6452,-8.9e-4 1.2905,-.003 1.9357,-.006 .4312,-.002 .8624,-.002 1.2935,-.003 .3398,-8.1e-4 .6796,-.002 1.0194,-.002 .2968,.0217 .5821,-.0575 .8738,-.0956 .2926,-.0341 .5877,-.039 .8821,-.0425 .2922,-.002 .5843,-10e-4 .8765,-8.4e-4 .2918,4e-4 .5836,5.2e-4 .8754,6e-4 .2918,5e-5 .5836,5e-5 .8754,5e-5 .2918,0 .5836,0 .8754,0 .3133,-6.1e-4 .6266,10e-4 .9398,10e-4 .3172,-2.5e-4 .6345,-6.8e-4 .9517,-9.3e-4 .2938,-1.8e-4 .5877,-2e-4 .8815,-2e-4 .1943,-1e-5 .0972,-1e-5 .2915,-1e-5l-1.7509,1.2027c-.1943,0-.0971,0-.2914,0-.2936,-2e-5-.5872,-4e-5-.8808,-2.2e-4-.3164,-2.3e-4-.6327,-6.8e-4-.9491,-9.3e-4-.3144,4e-5-.6287,.002-.9431,10e-4-.2918,10e-6-.5836,10e-6-.8754,10e-6-.2918,-10e-6-.5836,-10e-6-.8754,-1.2e-4-.2918,-1.3e-4-.5837,-3.7e-4-.8755,-7.2e-4-.2913,-2.3e-4-.5826,-10e-4-.8738,.004-.2893,.007-.5791,.0195-.8653,.0636-.2961,.0453-.5905,.0907-.8921,.0705-.3377,-4.3e-4-.6755,-.001-1.0132,-.002-.4283,-5.4e-4-.8565,-6.3e-4-1.2848,-.003-.6398,-.003-1.2796,-.005-1.9195,-.006-.7134,-4.8e-4-1.4269,-.002-2.1402,.01l1.747,-1.2z" stroke="#000" stroke-linecap="square" stroke-linejoin="round" stroke-width=".4767"/>
<path d="m664.2173,844.1405c.5339,.0676 1.0726,.0889 1.6105,.1048 .4801,.0116 .9604,.0116 1.4405,.0103 .3964,-5e-4 .7929,-6.3e-4 1.1893,-.002 .7958,.0205 1.592,.0104 2.3879,.007 .4809,-.004 .9619,-.005 1.4428,-.007 .3835,3e-5 .767,-4.2e-4 1.1506,6e-4 .4032,10e-4 .8064,-9.5e-4 1.2096,-3.1e-4 .3638,-8.6e-4 .7277,-7.5e-4 1.0915,-6.6e-4 .3644,5.6e-4 .7288,2.2e-4 1.0931,-5.1e-4 .3481,10e-4 .6961,1.1e-4 1.0442,-4.5e-4 .3406,10e-4 .6811,4.5e-4 1.0217,-4e-5 .3008,-4.3e-4 .6016,-5.6e-4 .9024,-6.3e-4 .2516,.0585 .5047,.1006 .7628,.1209 .2799,.0172 .5606,.0173 .8409,.018 .2917,1.8e-4 .5833,-4e-4 .875,-6.9e-4 .146,-1.4e-4 .292,-2e-4 .4381,-2.6e-4l-1.7508,1.2027c-.146,9e-5-.292,1.8e-4-.438,3.4e-4-.292,3.2e-4-.584,.001-.876,-3.8e-4-.2852,-.002-.5709,-.005-.8549,-.0331-.2506,-.0294-.496,-.0897-.7478,-.105-.3002,-7e-5-.6004,-2e-4-.9006,-6.3e-4-.3405,-4.7e-4-.681,-10e-4-1.0215,-4e-5-.3476,-5.6e-4-.6953,-.002-1.0429,-4.4e-4-.3639,-7.3e-4-.7278,-10e-4-1.0916,-5.2e-4-.3632,1.2e-4-.7264,1.9e-4-1.0895,-6.6e-4-.4029,6.5e-4-.8058,-.002-1.2087,-3.1e-4-.3841,10e-4-.7682,5.8e-4-1.1523,6e-4-.4742,-.002-.9483,-.003-1.4224,-.007-.8027,-.004-1.6058,-.0132-2.4083,.007-.3958,-4.3e-4-.7915,4.7e-4-1.1873,-3.6e-4-.4785,-.003-.957,-.007-1.4353,-.0226-.5477,-.0212-1.0947,-.0538-1.64,-.107l1.7673,-1.1825z" stroke="#000" stroke-linecap="square" stroke-linejoin="round" stroke-width=".4767"/>
<path d="m625.7128,806.3272 0,18.5432" fill="none" stroke="#000" stroke-linecap="round" stroke-width="4.8046"/>
<path d="m635.2368,804.5729 0,18.5432" fill="none" stroke="#000" stroke-linecap="round" stroke-width="4.8046"/>
<path d="m644.1737,806.0372 0,18.5432" fill="none" stroke="#000" stroke-linecap="round" stroke-width="4.8046"/>
<path d="m655.8505,804.87 0,18.5432" fill="none" stroke="#000" stroke-linecap="round" stroke-width="4.8046"/>
<path d="m666.0091,807.0566 0,18.5432" fill="none" stroke="#000" stroke-linecap="round" stroke-width="4.8046"/>
<path d="m677.6384,806.8812 0,18.5432" fill="none" stroke="#000" stroke-linecap="round" stroke-width="4.8046"/>
<path d="m688.1409,805.167 0,18.5432" fill="none" stroke="#000" stroke-linecap="round" stroke-width="4.8046"/>
<path d="m698.0563,808.2039 0,18.5432" fill="none" stroke="#000" stroke-linecap="round" stroke-width="4.8046"/>
<path d="m708.7293,807.8352 0,18.5432" fill="none" stroke="#000" stroke-linecap="round" stroke-width="4.8046"/>
<path d="m617.8286,811.0575 0,18.5432" fill="none" stroke="#000" stroke-linecap="round" stroke-width="4.8046"/>
<path d="M640.4933,838.8549H660.9061A2.3409,2.3409 0 0 1 663.247,841.1957V848.1007A2.3409,2.3409 0 0 1 660.9061,850.4415H640.4933A2.3409,2.3409 0 0 1 638.1524,848.1007V841.1957A2.3409,2.3409 0 0 1 640.4933,838.8549z" stroke="#000" stroke-linecap="square" stroke-linejoin="round" stroke-width="3.7338"/>
<path d="m648.6087,880.9828 21.4286,2.8571" fill="none" stroke="#000"/>
<g transform="matrix(1.20124,0,0,1,-49.75332,1213.1049)">
<path d="M1013.7151,-530.8745H1138.6816A13.0878,13.0878 0 0 1 1151.7694,-517.7867V-495.7367A13.0878,13.0878 0 0 1 1138.6816,-482.649H1013.7151A13.0878,13.0878 0 0 1 1000.6273,-495.7367V-517.7867A13.0878,13.0878 0 0 1 1013.7151,-530.8745z" stroke="#000" stroke-linecap="round" stroke-linejoin="round" stroke-width="1.9703" transform="matrix(1,0,.84988,.52697,0,0)"/>
<path d="M602.1455,-296.3292H607.6698A4.1432,4.1432 0 0 1 611.813,-292.186V-261.8025A4.1432,4.1432 0 0 1 607.6698,-257.6593H602.1455A4.1432,4.1432 0 0 1 598.0023,-261.8025V-292.186A4.1432,4.1432 0 0 1 602.1455,-296.3292z" fill="#fff" stroke="#000" stroke-linecap="round" stroke-linejoin="round" stroke-width="3.642"/>
<path d="M707.3829,-296.3292H712.9072A4.1432,4.1432 0 0 1 717.0504,-292.186V-261.8025A4.1432,4.1432 0 0 1 712.9072,-257.6593H707.3829A4.1432,4.1432 0 0 1 703.2397,-261.8025V-292.186A4.1432,4.1432 0 0 1 707.3829,-296.3292z" fill="#fff" stroke="#000" stroke-linecap="round" stroke-linejoin="round" stroke-width="3.642"/>
<path d="M684.1809,-308.4826H689.7052A4.1432,4.1432 0 0 1 693.8484,-304.3394V-273.9559A4.1432,4.1432 0 0 1 689.7052,-269.8127H684.1809A4.1432,4.1432 0 0 1 680.0377,-273.9559V-304.3394A4.1432,4.1432 0 0 1 684.1809,-308.4826z" fill="#fff" stroke="#000" stroke-linecap="round" stroke-linejoin="round" stroke-width="3.642"/>
<path d="M576.4576,-311.7971H581.9819A4.1432,4.1432 0 0 1 586.1251,-307.6539V-277.2705A4.1432,4.1432 0 0 1 581.9819,-273.1272H576.4576A4.1432,4.1432 0 0 1 572.3144,-277.2705V-307.6539A4.1432,4.1432 0 0 1 576.4576,-311.7971z" fill="#fff" stroke="#000" stroke-linecap="round" stroke-linejoin="round" stroke-width="3.642"/>
<path d="M1076.8467,-603.2072H1201.8132A13.0878,13.0878 0 0 1 1214.901,-590.1194V-568.0694A13.0878,13.0878 0 0 1 1201.8132,-554.9817H1076.8467A13.0878,13.0878 0 0 1 1063.7589,-568.0694V-590.1194A13.0878,13.0878 0 0 1 1076.8467,-603.2072z" fill="#fff" stroke="#000" stroke-linecap="round" stroke-linejoin="round" stroke-width="1.9703" transform="matrix(1,0,.84988,.52697,0,0)"/>
<path d="M1082.5307,-610.5453H1207.4972A13.0878,13.0878 0 0 1 1220.585,-597.4575V-575.4075A13.0878,13.0878 0 0 1 1207.4972,-562.3197H1082.5307A13.0878,13.0878 0 0 1 1069.4429,-575.4075V-597.4575A13.0878,13.0878 0 0 1 1082.5307,-610.5453z" fill="#fff" stroke="#000" stroke-linecap="round" stroke-linejoin="round" stroke-width="1.9703" transform="matrix(1,0,.84988,.52697,0,0)"/>
</g>
<text font-family="Bitstream Vera Sans" font-size="19.868" transform="scale(.993,1.007)" x="725.1826" y="719.2122">
   <tspan text-align="center" text-anchor="middle" x="725.1826" y="719.2122">Clair, précis, efficace,</tspan>
   <tspan text-align="center" text-anchor="middle" x="725.1826" y="744.0469">direct... Vous êtes l'homme</tspan>
   <tspan text-align="center" text-anchor="middle" x="725.1826" y="768.8815">qu'il nous faut ! Engagé !</tspan>
  </text>
<g transform="translate(566.7473,-.6426)">
<path d="m254.2857,378.2143c0,2.9587-17.4289,5.3571-38.9286,5.3571-21.4997,0-38.9286,-2.3985-38.9286,-5.3571 0,-2.9587 17.4289,-5.3571 38.9286,-5.3571 21.4996,0 38.9286,2.3985 38.9286,5.3571z" transform="translate(-5.7143,596.6479)"/>
<path d="m255.7143,332.8571c0,26.8253-18.7081,48.5714-41.7857,48.5714-23.0776,0-41.7857,-21.7462-41.7857,-48.5714 0,-26.8253 18.7081,-48.5714 41.7857,-48.5714 23.0776,0 41.7857,21.7462 41.7857,48.5714z" fill="#fff" fill-rule="evenodd" stroke="#000" stroke-width="3.642" transform="translate(-4.2857,593.0765)"/>
<path d="m176.3639,895.3109c1.378,2.5105 2.559,5.1205 3.8668,7.6664 1.243,2.0664 2.2937,4.2349 3.3787,6.3856 1.1217,2.22 2.2168,4.4571 3.2119,6.7367 .7852,1.8125 1.5784,3.6133 2.5168,5.351 .0973,.1452 .1781,.3028 .2918,.4356 .3464,.4047 .2958,-.3399 .1213,-.2506-3.0929,1.5825-5.9734,3.5695-9.1097,5.0641-.2011,.0958-.0914,-.4363-.1507,-.651-.0738,-.2675-.1656,-.5296-.2484,-.7945-.8397,-2.4093-1.5213,-4.871-2.186,-7.3339-.9263,-3.5308-1.845,-7.0628-2.7823,-10.5906-.8349,-2.8893-1.531,-5.8179-2.3721,-8.705-.6146,-1.6111-.7923,-3.325-1.1594,-4.993-.2994,-1.1059-.5657,-2.2305-.6509,-3.3753-.0124,-4.083-.1557,-1.1537 9.6923,-5.3239 .061,-.0258 1.5953,2.1351 1.755,2.3783 .9451,1.6666 1.9169,3.3156 2.8866,4.9675 .8168,1.1289 1.4986,2.3424 2.2439,3.5183 .7847,1.3165 1.4901,2.6603 2.0034,4.1055 .4826,1.2812 1.0729,2.5157 1.5769,3.7869 .3412,1.0972 .7896,2.18 1.3992,3.1559 .5886,1.0429 1.2229,2.051 1.6211,3.1854 .3935,1.0135 .8782,1.9855 1.2825,2.9937 .6367,.954 .8482,2.0648 1.1857,3.1353 .3588,1.008 .5338,2.0636 1.0072,3.0294 .0272,.0115 .0905,.0627 .0816,.0346-1.2765,-4.0087-6.2103,3.1513-9.2873,4.6349-.2404,.1159-.1194,-.5203-.1882,-.7782-.2452,-.9196-.3099,-1.0552-.6292,-1.9963-.7603,-2.2751-1.328,-4.6079-2.0107,-6.9055-.6012,-1.7307-.8745,-3.5406-1.2154,-5.3333-.2493,-2.1205-.656,-4.2156-.9916,-6.3232-.4899,-1.5499-.7354,-3.1366-.9781,-4.7381-.3392,-2.0418-.5807,-4.0963-.7228,-6.1607-.0931,-1.5308-.1009,-3.0649-.1052,-4.598 .1202,-1.282-.1641,-2.5112-.3897,-3.7603 .0433,-.1206-.2803,-1.3698-.2234,-1.338 .0836,.0467 .0298,.3046 .116,.2628 9.7324,-4.7183 8.1472,-8.206 9.6706,-4.222 .8407,2.2571 1.876,4.4344 2.9096,6.6076 1.16,2.2559 2.2464,4.5513 3.3123,6.8533 .5828,1.6151 1.4261,3.1107 2.2003,4.6367 .8546,1.6897 1.4607,3.4865 2.2733,5.194 .7984,1.574 1.545,3.1678 2.2245,4.7969 .5362,1.3417 1.3336,2.5442 1.8355,3.8989 .5273,1.0225 .8167,2.133 1.2346,3.1991 .3771,1.0429 .493,2.1459 .9297,3.1695 .0258,.0187 .1055,.041 .0774,.0562-10.824,5.8595-8.316,7.6641-10.6043,1.2893-.9086,-2.7934-1.8167,-5.5894-2.5721,-8.4287-.4898,-2.1114-.803,-4.2635-1.1022,-6.4099-.2913,-2.2779-.5937,-4.5612-.9773,-6.826-.4169,-1.7363-.5716,-3.5167-.8681,-5.2722-.3395,-1.4448-.5496,-2.9093-.6655,-4.3875-.1194,-1.4143-.0274,-2.8371-.1512,-4.2496-.2515,-1.4287-.448,-2.8623-.5567,-4.3089-.0129,-.2413-.0279,-.4825-.0387,-.724-.0195,-.4357-.1045,-1.5464-.0777,-1.5605 9.5809,-5.0653 8.434,-8.0708 9.671,-4.2065 .5598,1.8595 1.3334,3.6386 2.0205,5.451 .9163,2.3801 1.927,4.7266 2.9618,7.0584 1.0555,2.3512 2.1473,4.6852 3.1254,7.0699 1.018,2.3479 1.9882,4.7208 3.1584,6.9989 .9371,1.7351 1.8098,3.4962 2.5855,5.3094 .7802,1.5574 1.2581,3.2385 1.8136,4.8839 .5159,1.714 1.1274,3.3994 1.553,5.1392 .2912,1.0237 .3665,2.2223 .8809,3.1726-1.7564,-3.7275 .1456,-.1409-9.3319,4.8222-.1653,.0866-.0291,-.3725-.0575,-.5569-.04,-.2604-.0968,-.5179-.1474,-.7765-.2139,-1.093-.218,-1.0845-.4679,-2.2486-.6639,-3.5414-1.4758,-7.0521-2.2239,-10.5766-.7549,-3.2094-1.4134,-6.4417-2.0064,-9.6848-.5675,-2.6799-.979,-5.3882-1.5439,-8.0687-.5259,-2.2592-1.008,-4.5484-1.6843,-6.769-.5081,-1.3275-.7754,-2.709-.913,-4.1178-.0648,-1.2661-.1748,-2.5449-.008,-3.8068 10.5281,-5.871 8.9424,-7.6973 11.2687,-.6563 1.09,3.0375 2.3036,6.0301 3.5175,9.0199 1.278,2.837 2.6564,5.6263 3.9605,8.4517 1.1906,2.4226 2.3033,4.8806 3.4295,7.3341 .9162,2.0073 1.74,4.0529 2.5385,6.1092 .6756,1.5862 1.3318,3.1858 1.8733,4.8234 .5354,1.1244 .8717,2.3197 1.3322,3.4727 .02,.0823 1.0036,3.2978 .5049,2.1942-11.9798,6.5114-8.6832,7.9967-9.3707,3.6007-.1719,-1.0992-.4203,-2.1879-.6674,-3.2717-.7516,-2.9908-1.5679,-5.9646-2.3178,-8.9557-.8636,-3.0292-1.4782,-6.1154-2.1001,-9.1998-.6284,-2.8788-.7734,-5.8243-1.1386,-8.7383-.3177,-1.8256-.561,-3.6561-.6746,-5.5054-.071,-1.7866-.0838,-3.5749-.0921,-5.3627-.002,-6.2458-1.0725,-2.6406 9.4958,-7.735 .2794,2.5199 .8585,4.9732 1.5133,7.4163 .6771,2.379 1.3907,4.7496 2.4005,7.0102 .9185,2.1603 1.9252,4.2745 3.0274,6.3465 1.1018,2.3064 2.2106,4.6069 3.1756,6.9747 .7477,1.7209 1.5258,3.4171 2.2254,5.1582 .768,2.1806 1.3797,4.4125 1.856,6.6738 .4071,2.0815 .791,4.1741 1.2738,6.2397 1.1872,3.6061 4.9097,-.0156-8.9264,5.3253-.3052,.1178-.0895,-.6483-.15,-.9698-.0712,-.378-.1633,-.7518-.245,-1.1278-.8081,-3.0733-1.6053,-6.1482-2.333,-9.2417-.7476,-3.0147-.8602,-6.1187-1.1399,-9.1955-.3116,-2.7994-.4995,-5.61-.6349,-8.4227-.0827,-1.7751-.1051,-3.5521-.1135,-5.3289 .0542,-1.4299-.0142,-2.8366-.2809,-4.2424-1.0385,-3.8032-3.8847,.9433 9.2408,-5.2059 .109,-.0511-.007,.2421 .0122,.3609 .0419,.2611 .2443,.8392 .3148,1.0549 .8064,2.0975 1.6253,4.1863 2.4954,6.2603 1.2052,2.7594 2.3263,5.5534 3.5173,8.3187 .7497,1.8561 1.5221,3.7011 2.3058,5.5431 .5248,1.2144 1.1504,2.3807 1.6831,3.5946 .6636,1.2307 1.0362,2.5768 1.5418,3.8727 .5172,1.246 .5709,2.5945 .7722,3.9085 .3494,1.3576 .4082,2.7658 .6714,4.1359 .3771,1.222 .4887,2.4948 .7111,3.7466-.2261,.2886 1.117,3.4694 .625,1.7979-13.1127,8.0716-7.6397,7.6476-9.2921,2.8216-.4133,-1.012-.7861,-2.0459-1.2064,-3.0567-.4778,-1.1734-.9434,-2.3497-1.2635,-3.5771-.2173,-1.423-.5522,-2.8233-.804,-4.2402-.2436,-1.5723-.2384,-3.1593-.4791,-4.732-.2792,-1.5242-.4267,-3.0649-.5075,-4.6108-.0598,-1.4391-.0584,-2.8798-.0594,-4.3198-.1096,-1.3374 .1368,-2.6284 .3864,-3.9316 1.2404,-5.3781 2.1705,-3.2779 10.2713,-7.7163 .958,1.1129 1.3184,2.5996 1.7213,3.9836 .4098,1.4374 .9567,2.8215 1.4584,4.2264 .3576,1.3535 .6168,2.7368 .8745,4.1141 .3649,1.5684 .8217,3.131 1.4393,4.6196 .5475,1.3046 1.2734,2.5211 1.8194,3.8262 .5183,1.0964 1.0995,2.1655 1.5733,3.282 .5795,.9356 .8909,1.9896 1.3122,2.998 .4065,1.2372 .801,2.4823 1.0834,3.755 .4402,1.2028 .7538,2.4268 .9268,3.695 .1527,1.4006 .1561,2.8114 .1639,4.2185 0,0-9.4448,4.8171-9.4448,4.8171l0,0c-.003,-1.3677 4.3e-4,-2.7379-.1138,-4.1019-.1378,-1.2462-.4199,-2.4478-.879,-3.618-.2443,-1.2174-.6478,-2.3854-1.0087,-3.5703-.4206,-1.0108-.7336,-2.0613-1.3097,-3.001-.456,-1.1256-1.0508,-2.1925-1.5544,-3.2976-.5278,-1.3129-1.2876,-2.5122-1.8164,-3.8249-.6415,-1.557-1.1043,-3.1909-1.5367,-4.8167-.2473,-1.3276-.5526,-2.6418-.8178,-3.964-.4837,-1.4334-1.0379,-2.8378-1.465,-4.2915-.1543,-.5538-.6818,-2.5847-1.0918,-2.9392-.0265,-.0229-.002,.07-.004,.105 2.9734,-1.7517 5.9464,-3.504 8.9202,-5.255 .0871,-.0513-.1984,.0757-.26,.1558-.4102,.5337-.2887,1.407-.7197,1.9464-.2049,1.2613-.6199,2.4774-.4829,3.7723-8.4e-4,1.4261-.005,2.8526 .0353,4.2782 .0579,1.5119 .1675,3.0223 .4381,4.5132 .2572,1.5675 .3225,3.1359 .4888,4.714 .2254,1.3968 .6045,2.76 .7723,4.1657 .2797,1.1838 .748,2.2956 1.2007,3.4211 .442,1.0243 .7929,2.0934 1.24,3.115 1.9187,5.3296-1.1568,4.6921-8.493,8.8234-.9865,-.8858-1.2857,-2.005-1.4941,-3.2957-.2803,-1.2365-.3099,-2.5221-.7122,-3.7365-.3137,-1.3718-.2968,-2.8046-.6801,-4.1688-.2511,-1.2383-.2133,-2.5323-.6841,-3.726-.4912,-1.2861-.8429,-2.6235-1.5142,-3.835-.5306,-1.2185-1.1669,-2.3855-1.6744,-3.6118-.784,-1.8448-1.468,-3.7302-2.2114,-5.5914-1.1878,-2.769-2.2797,-5.5769-3.5198,-8.324-.8906,-2.0868-1.7629,-4.1756-2.6429,-6.2652-.0479,-.1353-.6849,-1.628-.5467,-1.7151 5.7351,-3.6119 8.668,-8.8645 9.6373,-4.607 .2566,1.4687 .4707,2.9197 .3564,4.4171-.005,1.7753-.0108,3.551 .0321,5.326 .0817,2.8028 .2413,5.6033 .571,8.3891 .3024,3.0339 .3296,6.1053 1.0455,9.0875 .7099,3.0896 1.5112,6.1576 2.3998,9.2005 .17,.6631 .5531,2.1025 .4978,2.1465-5.7866,4.6144-8.2792,9.4963-9.7525,4.6449-.5087,-2.0751-.8048,-4.2078-1.2246,-6.3022-.452,-2.2003-1.0796,-4.3557-1.8339,-6.4716-.7048,-1.7403-1.4378,-3.4613-2.1796,-5.187-.9211,-2.3447-2.0226,-4.6072-3.1009,-6.8826-1.1253,-2.085-2.1768,-4.2074-3.0944,-6.3932-1.0426,-2.3124-1.7222,-4.7549-2.4319,-7.1858-.6494,-2.4341-1.2559,-4.8715-1.6754,-7.3578 10.9781,-6.2295 9.2462,-8.2759 9.314,-2.1336-.005,1.7719-.0155,3.5446 .0574,5.3154 .0913,1.8332 .2982,3.6534 .5935,5.4654 .3637,2.8956 .3969,5.8364 1.0508,8.6958 .6239,3.0692 1.209,6.1459 2.0822,9.1584 .7322,2.9941 1.5415,5.9696 2.3612,8.9406 .3406,1.35 .6563,2.7058 .9117,4.0739 .0383,.205 .2967,.4952 .1246,.6131-3.0003,2.055-6.2092,3.7874-9.3139,5.681-.4802,-.822-.3044,-1.854-.7211,-2.7195-.4664,-1.1794-.8029,-2.3982-1.3388,-3.5519-.5047,-1.6308-1.1604,-3.2149-1.8135,-4.7907-.7671,-2.0476-1.5892,-4.0744-2.4792,-6.0716-1.0897,-2.4673-2.2134,-4.9184-3.3963,-7.3421-1.3088,-2.8418-2.6503,-5.6678-3.9306,-8.5222-1.2287,-3.0002-2.4742,-5.9948-3.627,-9.0251-.3477,-.9673-.6445,-1.9705-1.0204,-2.9266-1.5508,-3.9441-6.1803,2.7153 8.6374,-5.9868-.7492,.8406-.1478,2.3735-.2557,3.3939 .0987,1.3455 .3103,2.6687 .7843,3.9398 .6667,2.258 1.0788,4.5991 1.6475,6.8831 .5937,2.6893 .9982,5.4123 1.5611,8.1078 .5342,3.249 1.1948,6.4788 1.9211,9.6898 .7234,3.5131 1.5703,6.9969 2.3037,10.5074 .2535,1.0144 .5093,2.0301 .7521,3.0468 .0444,.186 .2656,.4505 .1109,.5629-8.8796,6.4523-6.8721,8.7517-9.411,5.3869-.4471,-1.0757-.6585,-2.2722-.9078,-3.4021-.3762,-1.7174-.9832,-3.368-1.4773,-5.053-.5752,-1.6144-1.0265,-3.2793-1.7982,-4.8155-.7414,-1.8003-1.5848,-3.548-2.4895,-5.2717-1.1788,-2.3073-2.1544,-4.7068-3.1961,-7.0772-.9819,-2.3721-2.0446,-4.7087-3.1069,-7.0456-1.0512,-2.3448-2.0528,-4.714-3.0118,-7.0971-.6929,-1.8063-1.4859,-3.5722-2.1015,-5.409-1.6508,-3.8257-.5282,-.7164 9.1055,-5.823 .0932,-.0494-.007,.2108-.008,.3163-.006,.6532 .0171,1.306 .0474,1.9584 .0859,1.4307 .2458,2.8531 .5304,4.2594 .213,1.4219 .0752,2.8636 .1768,4.297 .0878,1.4435 .2555,2.8788 .6005,4.2864 .3487,1.7536 .3868,3.5634 .8261,5.3058 .4095,2.2709 .6711,4.5741 .9969,6.8576 .2924,2.1141 .6285,4.2242 1.0157,6.3219 .6921,2.8178 1.5876,5.5812 2.5168,8.3286 .0832,.212 1.4008,3.5949 1.3649,3.6197-8.9405,6.1776-7.2903,8.6746-9.3165,5.3334-.4041,-1.0436-.6193,-2.1176-.9169,-3.1907-.4217,-1.0787-.7131,-2.1969-1.2381,-3.2348-.459,-1.3519-1.2693,-2.5372-1.7891,-3.8665-.6557,-1.6187-1.3872,-3.1984-2.1683,-4.7599-.818,-1.697-1.4289,-3.4833-2.289,-5.1615-.7705,-1.5447-1.6414,-3.0476-2.1916,-4.692-1.0216,-2.3148-2.0794,-4.6178-3.2387,-6.8669-1.0607,-2.1847-2.126,-4.3698-3.0558,-6.6143-.0837,-.207-.4294,-.4867-.2511,-.6209 2.8567,-2.1506 7.896,-8.9585 9.1445,-5.6079 .0903,.2424 .0702,.5126 .1022,.7693 .0253,.2028 .0528,.4053 .0791,.6079 .2215,1.3074 .5936,2.5888 .4594,3.9303-.001,1.5184-.006,3.0374 .0545,4.5549 .0998,2.0335 .283,4.0637 .6536,6.0679 .2958,1.5941 .4915,3.2009 .9942,4.7518 .2942,2.0999 .7149,4.1789 .9691,6.2843 .3463,1.759 .6113,3.5372 1.1536,5.2508 .6727,2.2821 1.1837,4.6137 1.9704,6.863 .0727,.1958 1.001,2.7699 .9385,2.8228-4.6441,3.9299-6.8723,9.4048-9.4027,5.6233-.4503,-1.0221-.7177,-2.0836-1.0447,-3.147-.3588,-1.0436-.5043,-2.1532-1.1594,-3.0832-.3958,-1.0307-.9058,-2.0124-1.3045,-3.0432-.3388,-1.0696-.9657,-1.9965-1.4985,-2.9765-.6304,-1.0365-1.1636,-2.1559-1.4955,-3.3244-.4857,-1.2923-1.0853,-2.5388-1.5599,-3.8371-.4692,-1.375-1.1726,-2.6276-1.9122,-3.8747-.7582,-1.1843-1.4199,-2.4241-2.2256,-3.5779-.9472,-1.6404-1.9025,-3.2753-2.872,-4.9026-.4854,-.7187-.3463,-.5475-.8919,-1.2175-.1235,-.1517-.2405,-.3098-.3779,-.4491-.0676,-.0686-.3161,-.1212-.2333,-.1704 8.9491,-5.3166 12.0406,-3.2416 8.7435,-5.3052-.3669,.7526 .3215,2.2723 .4407,3.0807 .3957,1.6485 .4518,3.3788 1.0613,4.9842 .8163,2.9094 1.4454,5.8715 2.2968,8.7727 .9097,3.5289 1.8467,7.0507 2.8092,10.5655 .6633,2.4338 1.3985,4.8504 2.2544,7.2229 .1953,.5395 .5641,1.5196 .5115,1.5616-5.1355,4.0994-7.4156,9.2735-9.8725,5.0041-.9213,-1.7794-1.7046,-3.6161-2.4931,-5.4582-.9755,-2.2645-2.0593,-4.4849-3.1977,-6.6718-1.0943,-2.1454-2.1008,-4.3353-3.3264,-6.4123-1.2866,-2.5357-2.4281,-5.1523-3.9506,-7.561 0,0 9.1872,-5.2988 9.1872,-5.2988z"/>
</g>
<path d="m758.8902,778.8624 15,68.5714" fill="none" stroke="#000"/>
<path d="m432.8571,146.4286-15.7143,40.7143" fill="none" stroke="#000" transform="translate(0,602.3622)"/>
</g>
</svg>
