<svg version="1.0" viewBox="0 0 900 900" xmlns="http://www.w3.org/2000/svg" xmlns:svg="http://www.w3.org/2000/svg">
<path d="M97.8208,87.9054H790.9063A77.7689,77.7689 0 0 1 868.6752,165.6743V776.4645A77.7689,77.7689 0 0 1 790.9063,854.2334H97.8208A77.7689,77.7689 0 0 1 20.052,776.4645V165.6743A77.7689,77.7689 0 0 1 97.8208,87.9054z" fill="#fff" stroke="#000" stroke-linecap="round" stroke-width="11.7782"/>
<g transform="matrix(.12688,0,0,.13545,821.74172,869.11442)">
<path d="m162.9615,-66.1029c3.4935,4.0575 8.2353,4.5442 13.2828,4.8295 6.3854,-.1721 12.7816,-1.7005 18.7482,-3.9709 3.188,-1.2131 4.9498,-2.2461 7.9245,-3.8084-17.8031,10.4157-7.8919,4.8373-4.5635,1.3015 1.7244,-1.8318 2.7543,-3.7619 3.7268,-6.049 2.5265,-7.1174 2.8539,-14.7708 3.2849,-22.2438 .8398,-10.8784-1.4121,-21.5587-3.8369,-32.0902-2.9495,-11.0779-6.9553,-21.8431-11.3671,-32.4128-2.1125,-4.9937-4.5016,-9.8617-6.8287,-14.7566-3.1362,-6.0174-5.7017,-2.2804 12.0114,-9.1516 .6104,-.2368 .7311,1.087 1.1222,1.6121 .6549,.8793 1.3432,1.7331 2.0147,2.5997 6.5345,8.9671 14.393,16.8239 22.2682,24.5961 4.6332,4.5123 9.6016,8.7005 14.032,13.4186 1.6816,1.3731 2.6867,3.3087 4.04,4.9541 1.3218,1.1942 2.3559,-.063 3.524,-.88-20.4032,12.2348-13.1369,8.2804-9.2246,4.5289 1.5406,-1.4773 2.9931,-3.0561 4.4682,-4.5977 2.0935,-2.0887 4.0773,-4.3249 6.3699,-6.2061 6.0518,-4.966 14.4953,-8.9342 20.7536,-12.4943 5.7826,-2.554 11.6983,-4.7759 17.7067,-6.7339 1.2429,-.2695 6.0517,-2.1189 7.1497,-.869 .2555,.2908 .359,.686 .5385,1.029 .0249,.3507 .122,.7037 .0746,1.052-.3464,2.5421-4.2822,5.4998-5.9999,7.0812-7.8955,6.5272-15.5561,13.3165-22.8485,20.5113-6.3434,6.805-12.8959,13.5227-17.9461,21.3722-3.1182,4.9027-4.7756,10.316-5.5537,16.0199-.5154,5.1011-.4313,10.2374-.4233,15.3575 .2794,5.5658 .9893,11.1428 2.6464,16.4744 .9499,2.8397 2.6391,4.9259 5.3418,6.1729 1.7933,.6321 3.8468,1.0482 5.7562,.6876 .4443,-.0839 4.1482,-1.3389 4.4445,-1.4379 4.3672,-2.3833 14.9158,-7.9566-4.8252,2.8617-.781,.428 1.5035,-.9552 2.2436,-1.4505 1.7,-1.1377 2.1084,-1.4721 3.7035,-2.6614 1.913,-1.4312 1.0067,-.7357 2.723,-2.0808l13.6711,-5.4983c-1.7324,1.4564-.8048,.73-2.796,2.1623-8.0629,6.2254-16.9943,11.3785-26.2507,15.5961-4.0612,1.2122-7.06,1.7923-11.0152,-.0782-2.9124,-1.6424-4.8153,-4.0252-5.8395,-7.2464-1.6234,-5.4897-2.2357,-11.2047-2.7686,-16.8893-.0311,-5.1712-.1159,-10.3556 .3022,-15.5145 .7383,-5.9102 2.2958,-11.5511 5.4746,-16.6653 .6374,-1.0595 1.2164,-2.1564 1.9122,-3.1784 1.4293,-2.0993 3.5633,-4.5022 5.1926,-6.3909 3.5997,-4.173 7.2819,-8.2723 11.0846,-12.2621 7.0925,-7.1546 14.5679,-13.9155 22.3195,-20.352 2.1958,-2.0389 4.4682,-4.0268 6.363,-6.357 .3146,.1659-.6981,.139-1.0503,.1882-1.7578,.2457-3.4497,.7917-5.1425,1.3052-5.9412,1.9611-11.8224,4.1368-17.4628,6.8581 19.4412,-11.4974 7.7521,-4.9691 3.9527,-2.0455-2.3144,1.7808-4.2945,3.9798-6.3247,6.0613-7.3621,7.7662-7.7847,8.5886-20.2399,15.0176-2.0411,.9643-3.1823,.8498-4.779,-.8279-1.26,-1.6657-2.2693,-3.5234-3.8255,-4.9564-4.2421,-4.7917-8.972,-9.1394-13.4655,-13.6887-7.8003,-7.9395-15.7203,-15.7854-22.6621,-24.5085-.7459,-.8383-1.4925,-1.676-2.2377,-2.515-.414,-.4662-1.7128,-.9944-1.2397,-1.4005 11.2457,-9.654 10.609,-12.1815 13.514,-5.8078 2.1923,4.9946 4.5033,9.9394 6.4982,15.0188 4.1744,10.7594 8.0235,21.6562 11.1756,32.7627 2.5328,10.5786 5.0383,21.3246 4.3095,32.2869-.2875,7.5431-.73,15.2244-2.7778,22.5205-.6732,1.8665-.9058,2.8192-1.9806,4.5269-4.7227,7.5035-14.9088,11.0471-21.6041,15.3066-8.5205,4.1876-17.5853,7.1486-27.1755,7.1917-1.3332,-.1069-2.6764,-.126-3.9996,-.3207-3.9409,-.5799-7.6146,-2.3017-10.3419,-5.2234l12.7269,-7.6412z" stroke="#000" stroke-linecap="round" stroke-linejoin="round" stroke-width="2"/>
<path d="m285.1504,-83.2549c-5.88,1.6467-18.6251,9.5149 3.6228,-3.2161-3.0858,1.6423-4.9176,4.3146-6.3615,7.3973-.8239,2.47-1.7035,5.1777-1.5244,7.8292 .1239,1.8346 .601,2.756 1.225,4.4695 2.4426,4.8256 6.1987,8.7942 10.6559,11.8004 3.2897,2.2908 7.0292,3.3333 10.9988,3.3815 3.0629,-.6961 5.9092,-1.889 8.7139,-3.2794 1.1955,-.5927 4.6992,-2.5278 3.5526,-1.8452-13.2158,7.8669-9.9055,5.7434-5.2291,2.5405 3.8506,-2.9659 8.0361,-6.4071 9.0279,-11.451 .1385,-.7045 .1286,-1.4302 .1929,-2.1454-.2546,-6.3086-4.2409,-11.2474-8.0871,-15.9117-2.4245,-2.6982-5.17,-5.2714-8.4848,-6.8472-1.6823,-.7998-2.5447,-.9419-4.3262,-1.415-3.594,-.1953-7.3605,.1463-10.7726,1.3847-1.5775,.5726-3.9684,1.9034-5.4345,2.6786 19.9864,-11.9906 6.8908,-4.0746 2.7687,-.4895l-13.6034,5.5649c6.3305,-6.0894 14.7834,-9.6771 22.1418,-14.1306 2.1358,-1.0385 3.3967,-1.7563 5.6792,-2.4493 3.6325,-1.1029 7.5433,-1.3605 11.2846,-.8091 1.9239,.6139 2.7037,.7688 4.5106,1.7317 3.3646,1.793 6.1391,4.5163 8.621,7.3603 4.0463,4.9816 8.1538,10.1443 8.7701,16.7754-.0296,.8046 .0196,1.6161-.0889,2.4139-.7383,5.4273-4.7753,9.2853-8.8804,12.4917-7.9626,5.7154-3.8825,2.9492-19.2743,11.6675-4.0105,2.2717-8.3975,4.1951-13.0037,4.7328-4.1494,-.367-8.0102,-1.5898-11.3905,-4.108-4.5717,-3.3347-8.416,-7.5445-11.0934,-12.5605-.6247,-1.6344-1.3341,-3.1907-1.5477,-4.9537-.3345,-2.7611 .5846,-5.6627 1.2497,-8.2942 1.2789,-3.2492 2.902,-6.3291 5.9576,-8.2367 7.1822,-4.1341 13.903,-8.8778 21.9148,-11.0889l-11.7853,9.0117z" stroke="#000" stroke-linecap="round" stroke-linejoin="round" stroke-width="2"/>
<path d="m347.1504,-77.2549c-2.5469,.8146-5.1929,1.5133-7.6141,2.6735-.8131,.3896-1.5764,.8756-2.3647,1.3134 3.3457,-1.8736 6.6913,-3.7471 10.037,-5.6207-3.9716,2.6801-6.9185,5.3584-8.6955,9.85-1.1627,3.6999-.6052,6.8285 2.3247,9.5655 .7074,.6608 1.5389,1.1748 2.3083,1.7622 5.6004,3.2171 12.2296,4.3691 18.6442,3.6885 1.8388,-.1951 3.6423,-.6405 5.4634,-.9607 4.2145,-1.088 6.0512,-1.3908 10.0093,-3.0522 1.313,-.5511 5.0497,-2.628 3.8271,-1.898-17.7993,10.6288-9.7426,5.998-6.9473,3.1684 .6199,-.6275 1.1121,-1.3693 1.6682,-2.054 2.4376,-3.8135 2.5,-7.2055 .7831,-11.2688-.3152,-.7137-2.1315,-4.4568-3.4123,-3.6467-.2218,.1403-.3342,.4046-.5012,.6069 20.2171,-11.5287 12.5199,-9.601 10.5591,-3.9824-.8462,2.4247-.9939,4.7822-1.1102,7.3284 1.4046,11.8202 6.6264,22.7649 10.9162,33.7471 5.2161,14.5087 10.244,29.5646 10.8227,45.1266 .1152,3.097-.1863,6.1956-.2795,9.2933-.4626,2.9786-.7219,5.996-1.3878,8.9358-2.1724,9.5898-7.1162,18.3681-14.4574,24.947-1.2941,1.1597-2.7591,2.1134-4.1386,3.1701-5.5203,2.8839-10.7715,6.3551-16.5608,8.6516-2.3998,.952-8.1925,-1.0338-10.0914,-1.8803-7.058,-3.1465-13.1537,-8.3145-19.1496,-13.0475-10.1152,-8.659-20.0186,-17.691-29.0677,-27.4783-4.688,-5.0705-5.8469,-6.777-9.919,-12.0224-3.4654,-5.7822-7.5504,-12.4859-4.1433,-19.3016 2.0163,-4.0335 4.4499,-5.497 7.8272,-8.4338 10.1215,-6.5586 10.9501,-7.3056 25.6037,-14.7259 3.5764,-1.811 15.1096,-5.9066 18.6391,-7.138 7.0388,-2.4558 14.6082,-4.8887 21.6862,-7.2014 18.594,-5.3634 36.8056,-11.8962 54.8051,-18.9783 1.5279,-.6495 3.0578,-1.2942 4.5836,-1.9485 1.1657,-.4999 2.34,-.9808 3.4908,-1.514 2.3523,-1.0899 4.5499,-2.4389 6.9767,-3.363 3.291,-.4693 4.4452,3.4926 5.4304,5.8995 2.2687,6.1277 3.5471,12.5534 4.0987,19.0495 .1362,2.9104 .2306,5.8345-.1816,8.7279-.0421,.2958 .1108,.7559-.16,.882-4.4089,2.0533-9.0127,3.659-13.519,5.4886 .0118,-.8952-.0374,-1.7934 .0355,-2.6857 .1061,-1.2986 .3295,-2.5849 .5008,-3.8765 .9997,-7.538 2.3091,-14.9758 3.843,-22.4228 1.555,-6.4961 2.8976,-13.2994 6.61,-18.9697 4.2039,-4.4015 13.5536,-13.0794 18.1064,-8.0287 .4767,.5289 .8107,1.1708 1.2161,1.7562 .891,1.5753 1.6607,2.7718 2.2437,4.5173 1.6389,4.9078 2.3745,10.6605 3.2422,15.7652 1.1326,4.4176 .7008,9.7081 2.0412,14.0399 1.7726,-4.7616-.0179,.2205-12.7493,6.291-.2582,.1231 .3891,-.4251 .5337,-.672 .3315,-.566 .9805,-2.2274 1.2333,-2.7376 .3448,-.6961 .7385,-1.3669 1.1077,-2.0504 2.3945,-3.8376 4.4213,-7.8928 7.0597,-11.5731 4.4112,-5.5273 8.5378,-6.7337 16.174,-10.93 .2619,-.1439 .6145,-.0601 .8956,.0415 .3579,.1294 .6361,.4181 .9542,.6271 2.9864,3.1411 4.0262,7.5857 5.0346,11.6761 .8762,4.4536 1.3452,8.9967 2.9742,13.2566 .3967,.5584 .7207,1.1763 1.19,1.6753 3.4181,3.6336 9.0718,6.3498 13.7339,7.8272 1.7542,.5559 3.5616,.9276 5.3424,1.3914 7.54,1.8812 15.1058,1.9747 22.6056,-.087 1.66,-.4563 3.3273,-.9326 4.8996,-1.6338 1.4645,-.6531 2.7763,-1.6056 4.1644,-2.4083-2.8879,1.4901-5.5634,3.4967-8.6637,4.4704-1.1955,.3755 1.8602,-1.6841 2.7137,-2.6016 2.5159,-2.7049 3.9544,-5.7126 4.9671,-9.2111 .6946,-2.9134 .6823,-5.9069 .6019,-8.8795-.8123,-6.1361-6.2332,-.0969 12.5348,-7.7189 .3417,-.1388-.2006,.7117-.258,1.076-.0835,.53-.1093,1.0675-.1639,1.6012-.2665,4.8348-.377,9.6802 .1605,14.4971 .5467,3.099 1.1396,6.2653 3.5686,8.4405 1.7091,1.1249 3.5227,1.2014 5.4105,.5838 4.5429,-2.2925 11.3618,-6.2694-9.2958,5.3928-.733,.4138 1.4175,-.9086 2.114,-1.3812l13.7499,-5.4669c-1.0645,.874-.871,.7838-2.0934,1.4985-4.6452,2.7158-10.3975,7.2521-16.2755,8.9062-2.2943,.246-4.4334,-.2532-6.2278,-1.7781-2.497,-2.6033-3.3119,-5.923-3.8685,-9.4237-.5906,-4.8727-.472,-9.7673-.4084,-14.6687 .0197,-.6544 .077,-2.9288 .1232,-2.9595 9.727,-6.4603 12.8718,-12.5754 14.1061,-5.3537 .0695,3.1243 .0729,6.2667-.5797,9.341-3.2014,12.7554-11.6553,15.6615-23.2766,22.5416-1.4289,.7205-2.7977,1.5752-4.2867,2.1615-8.9506,3.524-18.7036,3.2412-27.9102,1.0341-1.8391,-.4877-3.7066,-.8788-5.5173,-1.4632-4.6315,-1.4947-11.1446,-4.692-14.5603,-8.2853-.5627,-.5919-.968,-1.3157-1.452,-1.9736-1.6237,-4.344-2.0916,-8.9473-2.927,-13.4875-.8421,-3.5179-1.6783,-7.8688-4.5851,-10.3108-.6859,.086-.3319,-.0175-1.041,.3749 3.9288,-2.3321 7.8577,-4.6642 11.7865,-6.9963 .3323,-.191-.6084,.4685-.8871,.7315-.6996,.66-1.2666,1.4531-2.0221,2.0581-2.82,3.545-4.8538,7.566-7.2091,11.4215-.8854,1.5155-1.617,2.9578-2.1805,4.6201-.1148,.3386 .0125,.8473-.2939,1.0316-13.2948,7.9967-10.3461,11.2314-14.0569,6.5713-1.1159,-4.7041-.5439,-9.6982-1.6308,-14.4245-1.0635,-6.6156-1.8817,-13.7016-5.4778,-19.4897-.6253,-.7518-.8938,-1.4407-1.8874,-1.6242-.2691,-.0497-1.0491,.2242-.8171,.0792 3.855,-2.4085 7.8581,-4.5721 11.7547,-6.9127 .3501,-.2103-.7641,.3015-1.11,.5187-.4078,.256-.7577,.5945-1.1366,.8918-4.3835,5.2272-5.7056,12.2845-7.478,18.6873-1.9969,9.2321-3.7113,18.5943-3.9931,28.0561-4.3051,2.6386-8.5232,5.4248-12.9154,7.9158-.2419,.1372 .2404,-.5043 .318,-.7714 .8042,-2.7667 .5753,-5.6949 .5747,-8.5333-.3712,-6.3501-1.5585,-12.6651-3.9842,-18.571-.4628,-1.0682-1.3134,-4.1649-2.9322,-4.2743-.3754,-.0254-1.0644,.2717-1.3633,.3791-4.7881,2.1318-9.4382,4.5785-14.4142,6.2825-17.8398,6.7098-35.8321,12.9983-54.1277,18.3644-10.6198,3.5133-21.3137,6.9086-31.715,11.0427-2.9939,1.19-5.7348,3.1473-8.8924,3.787-1.6217,.3285 5.5767,-3.5384 4.0891,-2.8139-2.1692,1.0565-4.0999,2.545-6.1498,3.8175-3.8287,3.0735-8.5236,6.2534-9.4308,11.5515-.893,5.2148 2.4282,10.0365 4.6745,14.3601 1.3891,1.8979 2.711,3.847 4.1673,5.6938 9.9457,12.6131 22.0475,23.4346 34.3683,33.6505 6.0444,4.5132 12.2092,9.5598 19.3554,12.2966 1.6491,.6316 3.3794,1.1098 5.1345,1.3053 1.4972,.1668 5.3244,-1.5002 4.5136,-.2306-1.6887,2.6441-5.176,3.5469-7.7641,5.3203 1.4485,-1.0111 2.9813,-1.911 4.3453,-3.0333 7.5773,-6.2343 12.8885,-14.8407 15.2526,-24.3515 .7183,-2.8896 .999,-5.8707 1.4986,-8.806 .1439,-3.0552 .5095,-6.108 .4316,-9.1656-.3934,-15.4369-5.6294,-30.3333-10.905,-44.6508-4.4755,-11.0691-9.9218,-21.9803-11.8707,-33.8586-.0655,-2.8117 .003,-4.952 .6842,-7.6722 .0381,-.1521 .7931,-2.8601 1.1292,-3.0916 4.3169,-2.973 8.9144,-5.5165 13.3715,-8.2747 .3389,.0271 .6889,-.0085 1.0169,.0812 2.1057,.5758 3.1151,3.1886 3.9952,4.8962 1.8742,4.4256 2.1315,8.3635-.2532,12.7108-.541,.7748-1.0086,1.6064-1.6229,2.3244-4.3907,5.131-13.1728,8.7324-17.6417,11.2191-4.2744,2.3784-9.1918,3.3952-13.8934,4.496-1.8823,.2823-3.7498,.6922-5.6468,.847-6.776,.553-13.6979,-.6632-19.4819,-4.3006-.8304,-.6627-1.7251,-1.252-2.4912,-1.9881-3.2394,-3.1123-4.2505,-6.5472-3.1788,-10.8443 1.6159,-5.1378 4.1492,-7.6245 8.4678,-10.7873 8.3338,-4.9235 15.8682,-10.3542 25.256,-12.659l-11.7853,9.0117z" stroke="#000" stroke-linecap="round" stroke-linejoin="round" stroke-width="2"/>
<path d="m549.2332,-122.1847c-1.7835,2.0929-3.2088,4.4879-3.887,7.1628-.4856,2.6751 1.1102,3.361 3.3038,4.3209 3.5488,1.2997 6.5822,1.157 10.2167,.5143 4.8602,-1.6662 12.579,-6.4142-9.0248,5.5037-.3034,.1673 .5755,-.3901 .8315,-.6236 .6095,-.5556 .6709,-.7857 1.0696,-1.4819 .7338,-1.6463 .6619,-3.1872-.2832,-4.7035-1.2573,-1.1913-3.1474,-1.0796-4.7697,-1.1586-1.6755,.1549-3.2712,.5705-4.6332,1.5753l11.5699,-9.3176c1.6475,-.6237 3.3328,-1.0178 5.1127,-.8762 2.1175,.2092 4.2007,.5097 5.5739,2.3193 1.1184,1.8815 1.5604,3.8267 .9141,5.9743-2.3437,7.0718-11.2457,9.9308-18.1332,11.6144-3.6699,.4613-7.2979,.2601-10.7482,-1.2144-2.4801,-1.2798-4.7037,-2.8813-4.3281,-5.9859 .4579,-2.8821 1.8638,-5.464 3.5526,-7.8184l13.6626,-5.8049z" stroke="#000" stroke-linecap="round" stroke-linejoin="round" stroke-width="2"/>
<path d="m359.6057,-86.1453c2.813,-1.3672 5.4973,-2.9836 8.3991,-4.1626 1.8182,-1.1808 3.8128,-1.7264 5.9399,-1.959 1.9567,-.1487 3.9211,-.1237 5.8819,-.1169 1.9461,-.207 3.5945,.325 5.304,1.1594 1.1966,.9591 2.1411,2.2333 3.05,3.4655 .7904,1.4357 1.2548,3.0464 1.7411,4.6107 .436,1.6028 1.0296,3.1343 1.3438,4.7721 .3026,1.9227 .3232,3.8738 .3468,5.8155 .009,1.0012 .007,2.0024 .007,3.0036l-13.2174,6.733c.001,-.9962 .003,-1.9924-10e-4,-2.9886-.0137,-1.8636-.0171,-3.7343-.2514,-5.5862-.2608,-1.5964-.8449,-3.0648-1.2698,-4.6141-.4125,-1.4071-.8576,-2.8405-1.4965,-4.1522-.7779,-1.02-1.5348,-2.1846-2.6529,-2.8453-1.5703,-.6821-3.2079,-.7262-4.905,-.653-1.9192,.0085-3.8508,-8.13e-4-5.7505,.3092-2.0091,.4249-3.8194,1.2893-5.6483,2.207-2.8459,1.3235-5.5987,2.8407-8.3572,4.3355l11.5367,-9.3337z" stroke="#000" stroke-linecap="round" stroke-linejoin="round" stroke-width="2"/>
</g>
<g transform="matrix(.8739,0,0,.8739,52.41873,63.3793)">
<g transform="translate(38.3858,-42.4264)">
<path d="m128.4877,769.5135 0,-679.54" fill="none" stroke="#000" stroke-width="3"/>
<path d="m114.6984,113.6911 13.7894,-24.5451 14.0757,24.3798" fill="none" stroke="#000" stroke-width="3"/>
<path d="m128.9879,768.9724 679.54,0" fill="none" stroke="#000" stroke-width="3"/>
<path d="m784.8103,755.1831 24.5451,13.7894-24.3798,14.0757" fill="none" stroke="#000" stroke-width="3"/>
<text font-family="Bitstream Vera Sans" font-size="20" x="62.4387" y="135.6128">
     <tspan text-align="center" text-anchor="middle" x="65.6223" y="135.6128">Nombre de </tspan>
     <tspan text-align="center" text-anchor="middle" x="65.6223" y="160.6128">cordes </tspan>
     <tspan text-align="center" text-anchor="middle" x="62.4387" y="185.6128">vendues</tspan>
    </text>
<text font-family="Bitstream Vera Sans" font-size="20" x="731.4286" y="807.1429">
     <tspan x="731.4286" y="807.1429">Années</tspan>
    </text>
<path d="m127.1429,638.5714 172.8571,0 80.1163,-298.9981 170.897,-45.7917 60.304,-104.4496 20.1113,533.5252 81.4286,0 94.2857,-94.2857" fill="none" stroke="#000" stroke-width="3"/>
<path d="m283.5714,566.4286 12.8571,62.8571" fill="none" stroke="#000"/>
<path d="M285.7143,623.5714 296.4286,630l5,-10.7143" fill="none" stroke="#000"/>
<text font-family="Bitstream Vera Sans" font-size="20" x="247.1429" y="523.5714">
     <tspan text-align="center" text-anchor="middle" x="247.1429" y="523.5714">Invention de</tspan>
     <tspan text-align="center" text-anchor="middle" x="247.1429" y="548.5714">la physique</tspan>
    </text>
<path d="m363.8365,270.562 12.8571,62.8571" fill="none" stroke="#000"/>
<path d="m365.9794,327.7048 10.7143,6.4286 5,-10.7143" fill="none" stroke="#000"/>
<text font-family="Bitstream Vera Sans" font-size="20" x="327.4079" y="227.7048">
     <tspan text-align="center" text-anchor="middle" x="327.4079" y="227.7048">Invention de</tspan>
     <tspan text-align="center" text-anchor="middle" x="327.4079" y="252.7048">la vaseline</tspan>
    </text>
<path d="m677.8571,664.2857-6.4286,49.2857" fill="none" stroke="#000"/>
<path d="m664.2857,703.5714 7.1429,10.7143 12.1429,-8.5714" fill="none" stroke="#000"/>
<text font-family="Bitstream Vera Sans" font-size="20" x="695.7143" y="623.5715">
     <tspan text-align="center" text-anchor="middle" x="695.7143" y="623.5715">Grêve des</tspan>
     <tspan text-align="center" text-anchor="middle" x="695.7143" y="648.5715">enseignants</tspan>
    </text>
<path d="m521.2387,266.6343 25.2538,20.2031" fill="none" stroke="#000"/>
<path d="m548.5128,274.7156-2.0203,12.1218-12.1218,2.0203" fill="none" stroke="#000"/>
<text font-family="Bitstream Vera Sans" font-size="20" x="114.1472" y="787.8731">
     <tspan x="114.1472" y="787.8731">0</tspan>
    </text>
<text font-family="Bitstream Vera Sans" font-size="20" x="504.0661" y="230.2689">
     <tspan text-align="center" text-anchor="middle" x="504.0661" y="230.2689">Invention</tspan>
     <tspan text-align="center" text-anchor="middle" x="504.0661" y="255.2689">des partiels</tspan>
    </text>
</g>
<g transform="translate(-313.1473,157.5838)">
<path d="m446.8915,78.4154c0,2.9289-27.5427,5.3033-61.5183,5.3033-33.9756,0-61.5183,-2.3744-61.5183,-5.3033 0,-2.9289 27.5427,-5.3033 61.5183,-5.3033 33.9756,0 61.5183,2.3744 61.5183,5.3033z" stroke="#000" stroke-linecap="round" stroke-width="4.862" transform="matrix(-1.07262,0,0,1.07262,885.9473,637.10669)"/>
<path d="m414.9276,628.0194 0,51.3659c0,21.4598 17.2763,38.7362 38.7362,38.7362l38.0072,0c21.4598,0 38.7362,-17.2763 38.7362,-38.7362l0,-51.3659" fill="#fff" stroke="#000" stroke-linecap="round" stroke-linejoin="round" stroke-width="3.9067"/>
<path d="M-499.2498,649.2695H-474.0068A.8369,.8369 0 0 1 -473.1698,650.1065V660.8606A.8369,.8369 0 0 1 -474.0068,661.6976H-499.2498A.8369,.8369 0 0 1 -500.0867,660.8606V650.1065A.8369,.8369 0 0 1 -499.2498,649.2695z" stroke="#000" stroke-linecap="square" stroke-linejoin="round" stroke-width="4.0049" transform="scale(-1,1)"/>
<path d="M-454.8531,649.2695H-432.9579A2.5108,2.5108 0 0 1 -430.4471,651.7804V659.1867A2.5108,2.5108 0 0 1 -432.9579,661.6976H-454.8531A2.5108,2.5108 0 0 1 -457.364,659.1867V651.7804A2.5108,2.5108 0 0 1 -454.8531,649.2695z" stroke="#000" stroke-linecap="square" stroke-linejoin="round" stroke-width="4.0049" transform="scale(-1,1)"/>
<path d="m527.9313,654.6911c-.5891,.0112-1.1783,.007-1.7675,.004-.3893,-.002-.7786,-.004-1.168,-.005-.3137,-4.6e-4-.6275,-4.3e-4-.9412,-4.3e-4-.3261,-6.7e-4-.6522,6.5e-4-.9783,10e-4-.419,-.0104-.8315,-4e-4-1.2463,.0544-.4287,.0585-.8614,.0769-1.2938,.0887-.4346,-.0169-.8612,.0631-1.2914,.1062-.4375,.0394-.8774,.0436-1.3165,.0483-.4614,.002-.9228,.002-1.3841,7e-4-.4007,-8.2e-4-.8014,-.001-1.2022,-.002-.3293,-8.2e-4-.6587,-10e-4-.988,-10e-4-.3126,-8e-5-.6253,-7e-5-.938,-6e-5-.3127,10e-6-.6254,10e-6-.9381,10e-6-.3418,-4.2e-4-.6837,5.7e-4-1.0255,.002-.4229,.003-.8458,4.7e-4-1.2687,-6.7e-4-.3978,-2.9e-4-.7956,5e-4-1.1934,.002-.4255,-1.8e-4-.8511,-8e-5-1.2766,-10e-4-.4076,2e-4-.8151,7.9e-4-1.2227,1.7e-4-.3707,-10e-4-.7414,-.002-1.112,2.7e-4-.5719,.003-1.1438,.004-1.7157,.007-.7794,.003-1.5588,.004-2.3382,10e-4-.5719,-10e-4-1.1439,-.006-1.7159,-.006-.4733,6.9e-4-.9467,-3e-5-1.42,-.002-.0655,-2.2e-4-.1311,-4.3e-4-.1966,-6.5e-4l1.8728,1.2864c.0649,-2.2e-4 .1298,-4.4e-4 .1947,-6.5e-4 .4718,-.002 .9436,-.002 1.4154,-.002 .5663,-2.4e-4 1.1326,-.004 1.6989,-.006 .7804,-.003 1.5609,-.002 2.3413,10e-4 .5783,.002 1.1565,.004 1.7347,.007 .3709,.002 .7419,.002 1.1128,2.8e-4 .4077,-6.1e-4 .8155,-4e-5 1.2232,1.6e-4 .4244,-10e-4 .8488,-9.6e-4 1.2732,-10e-4 .3994,10e-4 .7988,.002 1.1982,.002 .4222,-.001 .8445,-.003 1.2668,-6.8e-4 .3438,10e-4 .6877,.002 1.0315,.002 .3127,0 .6254,0 .9382,0 .3126,0 .6252,3e-5 .9378,-6e-5 .3282,-1.4e-4 .6564,-3.7e-4 .9847,-.001 .399,-7.4e-4 .7981,-9e-4 1.1971,-9.4e-4 .4614,-8.9e-4 .9228,7.5e-4 1.3842,-.004 .4449,-.006 .8905,-.0156 1.333,-.0638 .4256,-.0478 .8496,-.1043 1.2797,-.0933 .4374,-.0163 .874,-.0467 1.3078,-.1038 .4098,-.0434 .8209,-.0313 1.2328,-.0299 .3273,6e-4 .6546,.002 .9819,10e-4 .3133,10e-6 .6266,3e-5 .9399,-4.3e-4 .3849,-7.2e-4 .7698,-.002 1.1547,-.005 .5934,-.003 1.1869,-.007 1.7802,.004l-1.8764,-1.2889z" stroke="#000" stroke-linecap="square" stroke-linejoin="round" stroke-width=".5113"/>
<path d="m429.7924,654.9879c-.755,.0127-1.5102,.0109-2.2652,.0104-.6921,-9.5e-4-1.3842,-.003-2.0762,-.006-.4625,-.003-.925,-.003-1.3875,-.003-.3644,-8.7e-4-.7289,-.002-1.0934,-.002-.3184,.0232-.6243,-.0617-.9373,-.1026-.3139,-.0365-.6303,-.0418-.9461,-.0456-.3134,-.002-.6268,-.001-.9401,-9e-4-.313,4.3e-4-.626,5.7e-4-.9389,6.5e-4-.313,5e-5-.626,5e-5-.9389,5e-5-.313,0-.626,0-.9389,0-.336,-6.5e-4-.6721,10e-4-1.0081,10e-4-.3403,-2.7e-4-.6805,-7.4e-4-1.0208,-10e-4-.3152,-1.9e-4-.6303,-2.2e-4-.9455,-2.3e-4-.2084,-10e-6-.1042,-10e-6-.3126,-10e-6l1.8781,1.29c.2084,0 .1042,0 .3126,0 .3149,-2e-5 .6299,-4e-5 .9448,-2.4e-4 .3393,-2.4e-4 .6787,-7.3e-4 1.018,-9.9e-4 .3372,4e-5 .6744,.002 1.0116,10e-4 .313,10e-6 .626,10e-6 .939,10e-6 .313,-10e-6 .626,-10e-6 .939,-1.3e-4 .313,-1.4e-4 .626,-4e-4 .939,-7.7e-4 .3124,-2.5e-4 .6249,-10e-4 .9373,.005 .3103,.008 .6212,.0209 .9281,.0682 .3176,.0485 .6334,.0972 .9569,.0757 .3623,-4.6e-4 .7245,-10e-4 1.0868,-.002 .4594,-5.8e-4 .9187,-6.8e-4 1.378,-.003 .6863,-.003 1.3725,-.005 2.0589,-.006 .7652,-5.1e-4 1.5305,-.002 2.2956,.0104l-1.8739,-1.2872z" stroke="#000" stroke-linecap="square" stroke-linejoin="round" stroke-width=".5113"/>
<path d="m473.0112,655.163c-.5727,.0725-1.1505,.0953-1.7274,.1125-.5149,.0124-1.0301,.0124-1.5451,.0111-.4252,-5.3e-4-.8504,-6.7e-4-1.2756,-.002-.8536,.0219-1.7076,.0112-2.5614,.007-.5159,-.004-1.0317,-.005-1.5476,-.007-.4114,3e-5-.8227,-4.5e-4-1.2341,6.4e-4-.4325,10e-4-.8649,-10e-4-1.2974,-3.3e-4-.3902,-9.2e-4-.7805,-8.1e-4-1.1707,-7.1e-4-.3908,6e-4-.7817,2.4e-4-1.1725,-5.4e-4-.3733,10e-4-.7467,1.2e-4-1.12,-4.9e-4-.3653,.002-.7306,4.9e-4-1.0958,-4e-5-.3226,-4.6e-4-.6453,-6e-4-.968,-6.7e-4-.2699,.0627-.5413,.1079-.8182,.1297-.3002,.0185-.6013,.0185-.902,.0193-.3129,2.1e-4-.6257,-4.1e-4-.9386,-7.2e-4-.1566,-1.6e-4-.3132,-2.2e-4-.4699,-2.8e-4l1.878,1.2901c.1566,10e-5 .3132,2e-4 .4698,3.7e-4 .3132,3.4e-4 .6264,10e-4 .9397,-4.2e-4 .3059,-.003 .6124,-.005 .917,-.0355 .2688,-.0315 .532,-.0962 .8021,-.1126 .322,-9e-5 .644,-2.2e-4 .966,-6.8e-4 .3652,-5.2e-4 .7305,-.002 1.0957,-5e-5 .3729,-5.9e-4 .7458,-.002 1.1186,-4.8e-4 .3903,-7.8e-4 .7806,-10e-4 1.1709,-5.4e-4 .3895,1.2e-4 .7791,2e-4 1.1687,-7.1e-4 .4321,6.9e-4 .8643,-.002 1.2964,-3.3e-4 .412,.001 .824,6.2e-4 1.236,6.4e-4 .5086,-.002 1.0172,-.004 1.5257,-.007 .861,-.004 1.7224,-.0142 2.5832,.008 .4245,-4.6e-4 .849,4.9e-4 1.2735,-3.9e-4 .5132,-.003 1.0265,-.007 1.5395,-.0242 .5875,-.0227 1.1742,-.0577 1.7591,-.1147l-1.8956,-1.2683z" stroke="#000" stroke-linecap="square" stroke-linejoin="round" stroke-width=".5113"/>
<path d="m514.3118,614.6038 0,19.8898" fill="none" stroke="#000" stroke-linecap="round" stroke-width="5.1535"/>
<path d="m504.0962,612.7221 0,19.8898" fill="none" stroke="#000" stroke-linecap="round" stroke-width="5.1535"/>
<path d="m494.5103,614.2927 0,19.8898" fill="none" stroke="#000" stroke-linecap="round" stroke-width="5.1535"/>
<path d="m481.9856,613.0407 0,19.8898" fill="none" stroke="#000" stroke-linecap="round" stroke-width="5.1535"/>
<path d="m471.0893,615.3861 0,19.8898" fill="none" stroke="#000" stroke-linecap="round" stroke-width="5.1535"/>
<path d="m458.6155,615.1979 0,19.8898" fill="none" stroke="#000" stroke-linecap="round" stroke-width="5.1535"/>
<path d="m447.3503,613.3593 0,19.8898" fill="none" stroke="#000" stroke-linecap="round" stroke-width="5.1535"/>
<path d="m436.7149,616.6167 0,19.8898" fill="none" stroke="#000" stroke-linecap="round" stroke-width="5.1535"/>
<path d="m425.2669,616.2213 0,19.8898" fill="none" stroke="#000" stroke-linecap="round" stroke-width="5.1535"/>
<path d="m522.7685,619.6775 0,19.8898" fill="none" stroke="#000" stroke-linecap="round" stroke-width="5.1535"/>
<path d="m468.5714,700c2.6189,.6052 6.9858,-.4964 10.7143,-1.4286 1.2055,-.3014 3.6362,-2.9219 4.2857,-3.5714" fill="none" stroke="#000"/>
</g>
<path d="m236.3757,829.2893 60.6091,-16.1624" fill="none" stroke="#000"/>
<text font-family="Bitstream Vera Sans" font-size="20" x="307.0864" y="805.0457">
    <tspan x="307.0864" y="805.0457">Et après on va dire que j'exagère !</tspan>
   </text>
</g>
<path d="M105.5769,48.3068H291.9659A17.1383,17.1383 0 0 1 309.1042,65.4451V65.4451A17.1383,17.1383 0 0 1 291.9659,82.5835H105.5769A17.1383,17.1383 0 0 1 88.4385,65.4451V65.4451A17.1383,17.1383 0 0 1 105.5769,48.3068z" fill="#fff" stroke="#000" stroke-linecap="round" stroke-linejoin="round" stroke-width="4.1702"/>
<path d="m101.5203,44.9288a36.8706,34.8503 0 1 1 -73.7411,0 36.8706,34.8503 0 1 1 73.7411,0z" stroke="#000" stroke-linecap="round" stroke-linejoin="round" stroke-width="7.491" transform="matrix(.71851,0,0,.76708,42.74476,24.20189)"/>
<text font-family="Bitstream Vera Sans" font-size="41.702" transform="scale(.968,1.033)" x="64.67" y="71.4162">
   <tspan fill="#f9f9f9" x="64.67" y="71.4162">67</tspan>
  </text>
<text font-family="Bitstream Vera Sans" font-size="20.851" transform="scale(.968,1.033)" x="171.2582" y="69.22">
   <tspan x="171.2582" y="69.22">Cordes</tspan>
  </text>
<text font-family="Bitstream Vera Sans" font-size="20" x="-207.3847" y="552.598">
   <tspan x="-207.3847" y="552.598"></tspan>
  </text>
</svg>
