<svg version="1.1" viewBox="0 0 900 900" xmlns="http://www.w3.org/2000/svg" xmlns:svg="http://www.w3.org/2000/svg">
<g transform="translate(0,-152.3622)">
<g transform="matrix(.90037,0,0,.90037,829.37242,349.04578)">
<path d="m14.3147,739.4487c.4393,.5102 1.0355,.5714 1.6702,.6073 .8029,-.0216 1.6072,-.2138 2.3575,-.4993 .4009,-.1525 .6224,-.2824 .9965,-.4789-2.2386,1.3097-.9924,.6083-.5738,.1636 .2168,-.2303 .3463,-.473 .4686,-.7606 .3177,-.895 .3589,-1.8573 .4131,-2.797 .1056,-1.3679-.1776,-2.7109-.4825,-4.0352-.3709,-1.393-.8746,-2.7466-1.4293,-4.0757-.2656,-.6279-.5661,-1.2401-.8587,-1.8556-.3944,-.7567-.717,-.2868 1.5104,-1.1508 .0768,-.0298 .0919,.1367 .1411,.2027 .0823,.1106 .1689,.2179 .2533,.3269 .8217,1.1276 1.8098,2.1155 2.8001,3.0928 .5826,.5674 1.2073,1.094 1.7645,1.6873 .2114,.1727 .3378,.416 .508,.623 .1662,.1502 .2962,-.008 .4431,-.1107-2.5656,1.5385-1.6519,1.0412-1.1599,.5695 .1937,-.1858 .3764,-.3843 .5618,-.5781 .2632,-.2626 .5127,-.5438 .801,-.7804 .761,-.6244 1.8227,-1.1234 2.6097,-1.5711 .7271,-.3211 1.471,-.6005 2.2265,-.8468 .1563,-.0339 .761,-.2664 .899,-.1093 .0321,.0366 .0451,.0862 .0677,.1294 .0031,.0441 .0154,.0885 .0094,.1323-.0436,.3196-.5385,.6916-.7545,.8904-.9928,.8208-1.9561,1.6745-2.8731,2.5792-.7976,.8557-1.6216,1.7004-2.2566,2.6874-.3921,.6165-.6005,1.2972-.6984,2.0144-.0648,.6414-.0542,1.2873-.0532,1.9311 .0351,.6999 .1244,1.4011 .3328,2.0716 .1195,.3571 .3319,.6194 .6717,.7762 .2255,.0795 .4837,.1318 .7238,.0865 .0559,-.0105 .5216,-.1684 .5589,-.1808 .5492,-.2997 1.8756,-1.0005-.6067,.3598-.0982,.0538 .1891,-.1201 .2821,-.1824 .2138,-.1431 .2651,-.1851 .4657,-.3347 .2405,-.18 .1266,-.0925 .3424,-.2616l1.7191,-.6914c-.2178,.1831-.1012,.0918-.3516,.2719-1.0139,.7828-2.137,1.4308-3.3009,1.9611-.5107,.1524-.8878,.2254-1.3851,-.01-.3662,-.2065-.6055,-.5061-.7343,-.9112-.2041,-.6903-.2811,-1.4089-.3481,-2.1237-.0039,-.6502-.0146,-1.3022 .038,-1.9509 .0928,-.7432 .2887,-1.4525 .6884,-2.0956 .0801,-.1332 .153,-.2712 .2404,-.3997 .1797,-.264 .4481,-.5661 .6529,-.8036 .4526,-.5247 .9157,-1.0402 1.3938,-1.5419 .8918,-.8997 1.8318,-1.7498 2.8066,-2.5591 .2761,-.2564 .5618,-.5063 .8001,-.7994 .0396,.0209-.0878,.0175-.1321,.0237-.221,.0309-.4338,.0996-.6466,.1641-.7471,.2466-1.4866,.5202-2.1959,.8624 2.4446,-1.4457 .9748,-.6248 .497,-.2572-.291,.2239-.54,.5004-.7953,.7622-.9257,.9766-.9789,1.08-2.545,1.8884-.2567,.1212-.4002,.1069-.6009,-.1041-.1584,-.2095-.2854,-.443-.481,-.6232-.5334,-.6025-1.1282,-1.1492-1.6932,-1.7213-.9808,-.9983-1.9767,-1.9849-2.8496,-3.0818-.0938,-.1054-.1877,-.2107-.2814,-.3162-.0521,-.0586-.2154,-.125-.1559,-.1761 1.4141,-1.2139 1.334,-1.5318 1.6993,-.7303 .2757,.628 .5663,1.2498 .8171,1.8885 .5249,1.3529 1.0089,2.7231 1.4053,4.1197 .3185,1.3302 .6335,2.6814 .5419,4.0599-.0362,.9485-.0918,1.9144-.3493,2.8318-.0847,.2347-.1139,.3545-.249,.5692-.5938,.9435-1.8747,1.3891-2.7166,1.9247-1.0714,.5266-2.2113,.8989-3.4172,.9043-.1676,-.0134-.3365,-.0158-.5029,-.0403-.4955,-.0729-.9575,-.2894-1.3004,-.6568l1.6003,-.9608z" stroke="#000" stroke-linecap="round" stroke-linejoin="round" stroke-width=".2515"/>
<path d="m29.6793,737.292c-.7394,.2071-2.342,1.1965 .4556,-.4044-.388,.2065-.6184,.5425-.7999,.9302-.1036,.3106-.2142,.6511-.1917,.9845 .0156,.2307 .0756,.3466 .154,.562 .3071,.6068 .7794,1.1058 1.3399,1.4838 .4137,.288 .8839,.4191 1.383,.4252 .3851,-.0875 .743,-.2375 1.0957,-.4124 .1503,-.0745 .5909,-.3179 .4467,-.232-1.6618,.9892-1.2456,.7222-.6575,.3195 .4842,-.3729 1.0105,-.8056 1.1352,-1.4399 .0174,-.0886 .0162,-.1799 .0243,-.2698-.032,-.7933-.5333,-1.4143-1.0169,-2.0008-.3049,-.3393-.6501,-.6629-1.0669,-.861-.2115,-.1006-.32,-.1184-.544,-.1779-.4519,-.0246-.9255,.0184-1.3546,.1741-.1984,.072-.499,.2394-.6834,.3368 2.5132,-1.5078 .8665,-.5124 .3482,-.0616l-1.7106,.6998c.796,-.7657 1.8589,-1.2168 2.7842,-1.7769 .2686,-.1306 .4271,-.2208 .7141,-.308 .4568,-.1387 .9485,-.1711 1.419,-.1017 .2419,.0772 .34,.0967 .5672,.2177 .4231,.2255 .772,.5679 1.084,.9255 .5088,.6264 1.0253,1.2756 1.1028,2.1094-.0037,.1012 .0025,.2032-.0112,.3035-.0928,.6825-.6005,1.1676-1.1167,1.5708-1.0013,.7187-.4882,.3709-2.4236,1.4671-.5043,.2856-1.0559,.5275-1.6351,.5951-.5218,-.0461-1.0072,-.1999-1.4323,-.5165-.5749,-.4193-1.0583,-.9487-1.3949,-1.5794-.0785,-.2055-.1678,-.4012-.1946,-.6229-.0421,-.3472 .0735,-.712 .1572,-1.043 .1608,-.4086 .3649,-.7958 .7491,-1.0357 .9031,-.5198 1.7482,-1.1163 2.7557,-1.3944l-1.4819,1.1332z" stroke="#000" stroke-linecap="round" stroke-linejoin="round" stroke-width=".2515"/>
<path d="m37.4754,738.0464c-.3202,.1024-.653,.1903-.9574,.3362-.1022,.049-.1982,.1101-.2973,.1651 .4207,-.2356 .8414,-.4712 1.2621,-.7068-.4994,.337-.87,.6738-1.0934,1.2386-.1462,.4652-.0761,.8586 .2923,1.2028 .0889,.0831 .1935,.1477 .2903,.2216 .7042,.4045 1.5378,.5494 2.3444,.4638 .2312,-.0245 .458,-.0805 .687,-.1208 .53,-.1368 .7609,-.1749 1.2586,-.3838 .1651,-.0693 .635,-.3305 .4812,-.2387-2.2382,1.3365-1.2251,.7542-.8736,.3984 .078,-.0789 .1399,-.1722 .2098,-.2583 .3065,-.4795 .3144,-.9061 .0985,-1.417-.0396,-.0897-.268,-.5604-.4291,-.4586-.0279,.0176-.042,.0509-.063,.0763 2.5422,-1.4497 1.5743,-1.2073 1.3277,-.5008-.1064,.3049-.125,.6013-.1396,.9215 .1766,1.4863 .8332,2.8626 1.3726,4.2435 .6559,1.8244 1.2881,3.7176 1.3609,5.6744 .0145,.3894-.0234,.7791-.0352,1.1686-.0582,.3745-.0908,.754-.1745,1.1236-.2732,1.2059-.8948,2.3097-1.8179,3.137-.1627,.1458-.3469,.2657-.5204,.3986-.6941,.3626-1.3544,.7991-2.0824,1.0879-.3018,.1197-1.0302,-.13-1.2689,-.2364-.8875,-.3957-1.654,-1.0455-2.408,-1.6406-1.2719,-1.0888-2.5172,-2.2245-3.6551,-3.4552-.5895,-.6376-.7352,-.8522-1.2472,-1.5118-.4358,-.7271-.9494,-1.57-.521,-2.4271 .2535,-.5072 .5595,-.6912 .9842,-1.0605 1.2727,-.8247 1.3769,-.9186 3.2195,-1.8517 .4497,-.2277 1.9,-.7427 2.3438,-.8976 .8851,-.3088 1.8369,-.6147 2.7269,-.9055 2.3381,-.6744 4.6281,-1.4959 6.8914,-2.3864 .1921,-.0817 .3845,-.1627 .5764,-.245 .1466,-.0628 .2943,-.1233 .439,-.1904 .2958,-.1371 .5721,-.3067 .8773,-.4229 .4138,-.059 .559,.4392 .6828,.7418 .2853,.7705 .446,1.5785 .5154,2.3954 .0171,.366 .029,.7337-.0228,1.0975-.0053,.0372 .0139,.0951-.0201,.1109-.5544,.2582-1.1333,.4601-1.6999,.6902 .0015,-.1126-.0047,-.2255 .0045,-.3377 .0134,-.1633 .0414,-.325 .063,-.4874 .1257,-.9479 .2903,-1.8831 .4832,-2.8196 .1955,-.8168 .3644,-1.6723 .8312,-2.3853 .5286,-.5535 1.7043,-1.6447 2.2768,-1.0096 .06,.0665 .1019,.1472 .1529,.2208 .112,.1981 .2088,.3485 .2821,.568 .2061,.6171 .2986,1.3405 .4077,1.9824 .1424,.5555 .0881,1.2207 .2567,1.7654 .2229,-.5987-.0023,.0277-1.6032,.7911-.0325,.0155 .0489,-.0535 .0671,-.0845 .0417,-.0712 .1233,-.2801 .1551,-.3443 .0433,-.0875 .0929,-.1719 .1393,-.2578 .3011,-.4825 .556,-.9925 .8877,-1.4552 .5547,-.695 1.0736,-.8467 2.0338,-1.3744 .0329,-.0181 .0773,-.008 .1126,.005 .045,.0163 .08,.0526 .12,.0789 .3755,.395 .5063,.9539 .6331,1.4682 .1102,.56 .1691,1.1313 .374,1.6669 .0499,.0702 .0906,.1479 .1496,.2107 .4298,.4569 1.1407,.7985 1.727,.9842 .2206,.0699 .4479,.1166 .6718,.175 .9481,.2366 1.8995,.2483 2.8425,-.0109 .2087,-.0574 .4184,-.1173 .6161,-.2054 .1842,-.0821 .3491,-.2019 .5237,-.3028-.3631,.1874-.6996,.4397-1.0894,.5621-.1503,.0472 .2339,-.2118 .3412,-.3271 .3164,-.3401 .4973,-.7183 .6246,-1.1583 .0873,-.3664 .0858,-.7428 .0757,-1.1166-.1021,-.7716-.7838,-.0122 1.5762,-.9706 .043,-.0174-.0252,.0895-.0324,.1353-.0105,.0666-.0137,.1342-.0206,.2013-.0335,.6079-.0474,1.2172 .0202,1.8229 .0688,.3897 .1433,.7878 .4487,1.0613 .2149,.1415 .443,.1511 .6803,.0734 .5712,-.2883 1.4287,-.7883-1.1689,.6781-.0922,.052 .1782,-.1143 .2658,-.1737l1.729,-.6874c-.1339,.1099-.1095,.0986-.2632,.1884-.5841,.3415-1.3074,.9119-2.0466,1.1199-.2885,.0309-.5575,-.0318-.7831,-.2236-.314,-.3274-.4164,-.7448-.4864,-1.185-.0743,-.6127-.0594,-1.2282-.0514,-1.8445 .0025,-.0823 .0097,-.3683 .0155,-.3721 1.2231,-.8123 1.6185,-1.5813 1.7738,-.6732 .0087,.3929 .0092,.788-.0729,1.1746-.4026,1.6039-1.4656,1.9693-2.9269,2.8345-.1797,.0906-.3518,.1981-.539,.2718-1.1255,.4431-2.3519,.4076-3.5096,.13-.2313,-.0613-.4661,-.1105-.6938,-.184-.5824,-.188-1.4014,-.59-1.8309,-1.0418-.0707,-.0744-.1217,-.1654-.1826,-.2482-.2042,-.5462-.263,-1.1251-.3681,-1.696-.1059,-.4424-.211,-.9895-.5766,-1.2965-.0862,.0108-.0417,-.002-.1309,.0472 .494,-.2933 .9881,-.5865 1.4821,-.8797 .0418,-.024-.0765,.0589-.1115,.092-.088,.083-.1593,.1827-.2543,.2588-.3546,.4458-.6103,.9514-.9065,1.4362-.1113,.1906-.2033,.3719-.2742,.5809-.0144,.0426 .0016,.1066-.0369,.1297-1.6717,1.0055-1.301,1.4123-1.7676,.8263-.1403,-.5915-.0684,-1.2195-.2051,-1.8138-.1337,-.8319-.2366,-1.7229-.6888,-2.4507-.0786,-.0945-.1124,-.1812-.2373,-.2042-.0338,-.006-.1319,.0282-.1027,.01 .4848,-.3029 .9881,-.5749 1.4781,-.8692 .044,-.0264-.0961,.0379-.1396,.0652-.0513,.0322-.0953,.0748-.1429,.1121-.5512,.6573-.7174,1.5447-.9403,2.3498-.2511,1.1609-.4667,2.3381-.5021,3.5279-.5413,.3318-1.0717,.6821-1.624,.9954-.0304,.0172 .0302,-.0634 .04,-.097 .1011,-.3479 .0723,-.7161 .0723,-1.073-.0467,-.7985-.196,-1.5926-.501,-2.3352-.0582,-.1343-.1651,-.5237-.3687,-.5375-.0472,-.003-.1338,.0342-.1714,.0477-.6021,.2681-1.1868,.5757-1.8125,.79-2.2433,.8437-4.5057,1.6345-6.8063,2.3092-1.3354,.4418-2.6801,.8687-3.988,1.3886-.3765,.1496-.7211,.3958-1.1182,.4762-.2039,.0413 .7012,-.4449 .5142,-.3538-.2728,.1328-.5155,.32-.7733,.48-.4814,.3865-1.0718,.7863-1.1859,1.4525-.1123,.6557 .3053,1.262 .5878,1.8057 .1747,.2387 .3409,.4837 .524,.716 1.2506,1.586 2.7723,2.9468 4.3216,4.2314 .7601,.5675 1.5353,1.2021 2.4338,1.5462 .2074,.0794 .4249,.1396 .6456,.1641 .1883,.021 .6695,-.1887 .5676,-.029-.2123,.3325-.6509,.446-.9763,.669 .1821,-.1271 .3749,-.2403 .5464,-.3814 .9528,-.7839 1.6207,-1.8661 1.9179,-3.0621 .0903,-.3634 .1256,-.7382 .1884,-1.1073 .0181,-.3842 .0641,-.7681 .0543,-1.1525-.0495,-1.9411-.7079,-3.8142-1.3712,-5.6146-.5628,-1.3919-1.2476,-2.7639-1.4927,-4.2575-.0082,-.3535 4.4e-4,-.6227 .086,-.9647 .0048,-.0191 .0997,-.3596 .142,-.3887 .5428,-.3738 1.1209,-.6937 1.6814,-1.0405 .0426,.003 .0866,-.001 .1279,.0102 .2648,.0724 .3917,.4009 .5024,.6157 .2357,.5565 .268,1.0517-.0319,1.5983-.068,.0974-.1268,.202-.2041,.2923-.5521,.6452-1.6564,1.098-2.2184,1.4107-.5375,.2991-1.1558,.4269-1.747,.5653-.2367,.0355-.4715,.087-.71,.1065-.852,.0696-1.7224,-.0834-2.4497,-.5408-.1044,-.0833-.2169,-.1574-.3133,-.25-.4073,-.3914-.5345,-.8233-.3997,-1.3636 .2032,-.6461 .5218,-.9587 1.0648,-1.3564 1.0479,-.6191 1.9953,-1.302 3.1758,-1.5918l-1.4819,1.1332z" stroke="#000" stroke-linecap="round" stroke-linejoin="round" stroke-width=".2515"/>
<path d="m62.8862,732.3968c-.2243,.2632-.4035,.5643-.4888,.9007-.0611,.3364 .1396,.4226 .4154,.5433 .4462,.1634 .8277,.1455 1.2847,.0647 .6111,-.2095 1.5817,-.8065-1.1348,.6921-.0382,.021 .0724,-.0491 .1046,-.0784 .0766,-.0699 .0844,-.0988 .1345,-.1863 .0923,-.207 .0832,-.4008-.0356,-.5915-.1581,-.1498-.3958,-.1358-.5998,-.1457-.2107,.0195-.4113,.0717-.5826,.1981l1.4548,-1.1716c.2072,-.0784 .4191,-.128 .6429,-.1102 .2663,.0263 .5282,.0641 .7009,.2916 .1406,.2366 .1962,.4812 .1149,.7512-.2947,.8892-1.4141,1.2488-2.2801,1.4605-.4615,.058-.9177,.0327-1.3515,-.1527-.3119,-.1609-.5915,-.3623-.5442,-.7527 .0576,-.3624 .2344,-.6871 .4467,-.9831l1.718,-.7299z" stroke="#000" stroke-linecap="round" stroke-linejoin="round" stroke-width=".2515"/>
<path d="m39.0416,736.9285c.3537,-.1719 .6913,-.3752 1.0561,-.5234 .2286,-.1485 .4794,-.2171 .7469,-.2463 .246,-.0187 .4931,-.0156 .7396,-.0147 .2447,-.026 .452,.0409 .667,.1458 .1505,.1206 .2692,.2808 .3835,.4358 .0994,.1805 .1578,.3831 .2189,.5798 .0548,.2015 .1295,.3941 .169,.6001 .038,.2418 .0406,.4871 .0436,.7313 .0011,.1259 9.1e-4,.2518 8.4e-4,.3777l-1.662,.8466c1.7e-4,-.1253 4.3e-4,-.2505-1.3e-4,-.3758-.0017,-.2343-.0022,-.4696-.0316,-.7024-.0328,-.2007-.1062,-.3854-.1597,-.5802-.0519,-.1769-.1078,-.3572-.1882,-.5221-.0978,-.1283-.193,-.2747-.3336,-.3578-.1975,-.0858-.4034,-.0913-.6168,-.0821-.2413,10e-4-.4842,-1e-4-.7231,.0389-.2526,.0534-.4803,.1621-.7103,.2775-.3579,.1664-.704,.3572-1.0509,.5452l1.4507,-1.1737z" stroke="#000" stroke-linecap="round" stroke-linejoin="round" stroke-width=".2515"/>
</g>
<path d="M97.5609,242.3441H790.6464A77.7689,77.7689 0 0 1 868.4153,320.113V930.9032A77.7689,77.7689 0 0 1 790.6464,1008.6721H97.5609A77.7689,77.7689 0 0 1 19.792,930.9032V320.113A77.7689,77.7689 0 0 1 97.5609,242.3441z" fill="#fff" stroke="#000" stroke-linecap="round" stroke-width="11.7782"/>
<path d="M105.3169,202.7455H291.706A17.1383,17.1383 0 0 1 308.8443,219.8838V219.8838A17.1383,17.1383 0 0 1 291.706,237.0222H105.3169A17.1383,17.1383 0 0 1 88.1786,219.8838V219.8838A17.1383,17.1383 0 0 1 105.3169,202.7455z" fill="#fff" stroke="#000" stroke-linecap="round" stroke-linejoin="round" stroke-width="4.1702"/>
<path d="m101.5203,44.9288c0,19.2473-16.5075,34.8503-36.8706,34.8503-20.3631,0-36.8706,-15.603-36.8706,-34.8503 0,-19.2473 16.5075,-34.8503 36.8706,-34.8503 20.3631,0 36.8706,15.603 36.8706,34.8503z" stroke="#000" stroke-linecap="round" stroke-linejoin="round" stroke-width="7.491" transform="matrix(.71851,0,0,.76708,42.48486,178.6406)"/>
<text font-family="Bitstream Vera Sans" font-size="41.702" transform="scale(.968,1.033)" x="66.4679" y="220.885">
   <tspan fill="#f9f9f9" x="66.4679" y="220.885">69</tspan>
  </text>
<text font-family="Bitstream Vera Sans" font-size="20.851" transform="scale(.968,1.033)" x="164.1867" y="219.0066">
   <tspan x="164.1867" y="219.0066">Courant</tspan>
  </text>
<path d="m670.5296,743.0322 0,118.1935c0,1.7713-1.426,3.1973-3.1973,3.1973l-428.0567,0c-1.7713,0-3.1973,-1.426-3.1973,-3.1973l0,-369.491c0,-1.7713 1.426,-3.1973 3.1973,-3.1973l428.0567,0c1.7713,0 3.1973,1.426 3.1973,3.1973l0,100.0914" fill="#fff" stroke="#000" stroke-linecap="round" stroke-linejoin="round" stroke-width="4.4723"/>
<g transform="matrix(1.49076,0,0,1.49076,104.03901,511.9636)">
<path d="m137.469,76.0537 0,43.8767c0,18.331-14.7574,33.0884-33.0884,33.0884l-32.4657,0c-18.331,0-33.0884,-14.7574-33.0884,-33.0884l0,-43.8767" fill="#fff" stroke="#000" stroke-linecap="round" stroke-linejoin="round" stroke-width="3.3371"/>
<path d="M57.4411,94.2055H79.0037A.7149,.7149 0 0 1 79.7186,94.9205V104.1066A.7149,.7149 0 0 1 79.0037,104.8216H57.4411A.7149,.7149 0 0 1 56.7262,104.1066V94.9205A.7149,.7149 0 0 1 57.4411,94.2055z" stroke="#000" stroke-linecap="square" stroke-linejoin="round" stroke-width="3.421"/>
<path d="M97.3647,94.2055H116.0676A2.1448,2.1448 0 0 1 118.2123,96.3503V102.6768A2.1448,2.1448 0 0 1 116.0676,104.8216H97.3647A2.1448,2.1448 0 0 1 95.2199,102.6768V96.3503A2.1448,2.1448 0 0 1 97.3647,94.2055z" stroke="#000" stroke-linecap="square" stroke-linejoin="round" stroke-width="3.421"/>
<path d="m40.9414,98.8367c.5032,.0096 1.0065,.0062 1.5098,.0037 .3326,-.002 .6651,-.0033 .9977,-.0039 .268,-3.94e-4 .536,-3.67e-4 .804,-3.67e-4 .2786,-5.77e-4 .5571,5.5e-4 .8357,.0011 .3579,-.0089 .7103,-3.39e-4 1.0646,.0465 .3662,.05 .7358,.0657 1.1052,.0758 .3713,-.0145 .7356,.0539 1.1031,.0907 .3737,.0337 .7495,.0372 1.1246,.0413 .3941,.0021 .7882,.0019 1.1823,5.96e-4 .3423,-6.96e-4 .6846,-.0012 1.0269,-.002 .2813,-7.06e-4 .5626,-8.98e-4 .8439,-.001 .2671,-7.4e-5 .5341,-6.4e-5 .8012,-5.5e-5 .2671,9e-6 .5342,9e-6 .8013,9e-6 .292,-3.57e-4 .584,4.86e-4 .876,.0018 .3612,.0022 .7225,4.03e-4 1.0837,-5.78e-4 .3398,-2.47e-4 .6796,4.31e-4 1.0194,.0014 .3635,-1.56e-4 .727,-7.4e-5 1.0905,-9.81e-4 .3481,1.74e-4 .6963,6.78e-4 1.0444,1.47e-4 .3166,-.0012 .6333,-.0014 .9499,2.29e-4 .4885,.0024 .977,.0038 1.4656,.0056 .6658,.0026 1.3315,.0031 1.9973,9.16e-4 .4886,-.0012 .9771,-.0048 1.4657,-.005 .4043,5.95e-4 .8087,-1.9e-5 1.213,-.0014 .056,-1.83e-4 .112,-3.66e-4 .1679,-5.5e-4l-1.5997,1.0988c-.0554,-1.9e-4-.1109,-3.7e-4-.1663,-5.6e-4-.403,-10e-4-.806,-.002-1.209,-10e-4-.4837,-2e-4-.9674,-.004-1.4512,-.005-.6666,-.002-1.3333,-.002-2,9.2e-4-.4939,.002-.9879,.003-1.4818,.006-.3169,.002-.6337,.001-.9506,2.4e-4-.3483,-5.2e-4-.6966,-3e-5-1.0448,1.4e-4-.3625,-9.1e-4-.7251,-8.2e-4-1.0876,-9.8e-4-.3411,9.4e-4-.6823,.002-1.0235,.001-.3607,-9.8e-4-.7214,-.003-1.0821,-5.8e-4-.2937,.001-.5874,.002-.8811,.002-.2671,0-.5343,0-.8014,0-.267,0-.534,2e-5-.801,-5e-5-.2804,-1.2e-4-.5607,-3.2e-4-.8411,-8.8e-4-.3409,-6.4e-4-.6817,-7.7e-4-1.0226,-8.1e-4-.3941,-7.6e-4-.7882,6.4e-4-1.1823,-.004-.38,-.005-.7607,-.0133-1.1386,-.0545-.3635,-.0408-.7257,-.0891-1.0931,-.0797-.3736,-.0139-.7466,-.0399-1.1171,-.0887-.35,-.037-.7012,-.0267-1.053,-.0255-.2796,5.14e-4-.5592,.0016-.8388,.0011-.2676,9e-6-.5353,2.8e-5-.8029,-3.66e-4-.3288,-6.14e-4-.6576,-.0019-.9864,-.0039-.5069,-.0025-1.0138,-.0057-1.5207,.0037l1.6028,-1.101z" stroke="#000" stroke-linecap="square" stroke-linejoin="round" stroke-width=".4367"/>
<path d="m115.239,99.1329c1.0993,.0099 2.1988,.0085 3.2982,.0081 1.0077,-7.44e-4 2.0154,-.0022 3.0231,-.0047 .6734,-.002 1.3468,-.0021 2.0202,-.0025 .5306,-6.77e-4 1.0613,-.0014 1.592,-.0018 .4636,.0181 .909,-.0481 1.3647,-.0799 .457,-.0285 .9178,-.0326 1.3776,-.0355 .4563,-.0018 .9126,-.001 1.3688,-7.03e-4 .4557,3.34e-4 .9114,4.44e-4 1.3671,5.1e-4 .4557,4.2e-5 .9114,4.2e-5 1.3671,4.2e-5 .4557,0 .9114,0 1.3671,0 .4893,-5.1e-4 .9785,9.11e-4 1.4678,9.45e-4 .4954,-2.09e-4 .9909,-5.77e-4 1.4864,-7.78e-4 .4589,-1.5e-4 .9178,-1.67e-4 1.3766,-1.75e-4 .3035,-9e-6 .1518,-9e-6 .4552,-9e-6l-2.7345,1.0055c-.3034,0-.1517,0-.4552,0-.4585,-2e-5-.9171,-3e-5-1.3756,-1.9e-4-.4941,-1.9e-4-.9881,-5.6e-4-1.4822,-7.7e-4-.491,3e-5-.9819,10e-4-1.4729,9.5e-4-.4557,10e-6-.9114,10e-6-1.3672,10e-6-.4557,-10e-6-.9115,-10e-6-1.3672,-10e-5-.4557,-1.1e-4-.9115,-3.1e-4-1.3673,-6e-4-.4549,-1.9e-4-.9099,-8.8e-4-1.3647,.004-.4519,.006-.9044,.0163-1.3514,.0531-.4624,.0378-.9223,.0758-1.3932,.059-.5275,-3.5e-4-1.0549,-.001-1.5824,-.002-.6688,-4.5e-4-1.3377,-5.3e-4-2.0065,-.003-.9992,-.002-1.9985,-.004-2.9977,-.005-1.1141,-4e-4-2.2284,-.002-3.3424,.008l2.7284,-1.0033z" stroke="#000" stroke-linecap="square" stroke-linejoin="round" stroke-width=".5447"/>
<path d="m79.8541,99.2397c.4892,.0619 .9827,.0814 1.4756,.0961 .4399,.0106 .8799,.0106 1.3199,.0095 .3632,-4.58e-4 .7264,-5.77e-4 1.0896,-.0015 .7291,.0187 1.4586,.0095 2.1879,.0062 .4407,-.0033 .8813,-.0046 1.3219,-.0064 .3514,2.7e-5 .7028,-3.85e-4 1.0542,5.5e-4 .3694,.0012 .7388,-8.71e-4 1.1083,-2.84e-4 .3333,-7.88e-4 .6667,-6.97e-4 1,-6.05e-4 .3339,5.13e-4 .6677,2.01e-4 1.0016,-4.67e-4 .3189,.0011 .6378,10e-5 .9567,-4.13e-4 .312,.0013 .6241,4.13e-4 .9361,-3.6e-5 .2756,-3.94e-4 .5512,-5.13e-4 .8268,-5.78e-4 .2305,.0536 .4624,.0921 .6989,.1108 .2565,.0158 .5136,.0158 .7705,.0165 .2672,1.74e-4 .5345,-3.57e-4 .8017,-6.23e-4 .1338,-1.28e-4 .2676,-1.83e-4 .4014,-2.38e-4l-1.6042,1.102c-.1338,9e-5-.2675,1.8e-4-.4013,3.2e-4-.2675,3e-4-.5351,9.8e-4-.8027,-3.5e-4-.2613,-.002-.5231,-.005-.7833,-.0303-.2296,-.0269-.4544,-.0822-.6852,-.0962-.2751,-7e-5-.5501,-1.8e-4-.8251,-5.7e-4-.312,-4.4e-4-.624,-10e-4-.936,-5e-5-.3185,-5e-4-.637,-10e-4-.9555,-4e-4-.3334,-6.7e-4-.6668,-9.8e-4-1.0002,-4.7e-4-.3327,1e-4-.6655,1.7e-4-.9983,-6e-4-.3691,5.8e-4-.7383,-10e-4-1.1074,-2.9e-4-.3519,9.3e-4-.7039,5.3e-4-1.0558,5.5e-4-.4344,-.002-.8689,-.003-1.3033,-.006-.7355,-.003-1.4712,-.0121-2.2066,.007-.3626,-4e-4-.7252,4.2e-4-1.0878,-3.3e-4-.4384,-.003-.8768,-.006-1.315,-.0207-.5018,-.0194-1.003,-.0493-1.5026,-.098l1.6192,-1.0834z" stroke="#000" stroke-linecap="square" stroke-linejoin="round" stroke-width=".4367"/>
<path d="m52.5752,64.5941 0,16.9898" fill="none" stroke="#000" stroke-linecap="round" stroke-width="4.4021"/>
<path d="m61.3013,62.9867 0,16.9898" fill="none" stroke="#000" stroke-linecap="round" stroke-width="4.4021"/>
<path d="m69.4896,64.3284 0,16.9898" fill="none" stroke="#000" stroke-linecap="round" stroke-width="4.4021"/>
<path d="m80.1882,63.2589 0,16.9898" fill="none" stroke="#000" stroke-linecap="round" stroke-width="4.4021"/>
<path d="m89.4958,65.2623 0,16.9898" fill="none" stroke="#000" stroke-linecap="round" stroke-width="4.4021"/>
<path d="m100.1509,65.1016 0,16.9898" fill="none" stroke="#000" stroke-linecap="round" stroke-width="4.4021"/>
<path d="m109.7736,63.5311 0,16.9898" fill="none" stroke="#000" stroke-linecap="round" stroke-width="4.4021"/>
<path d="m118.8584,66.3136 0,16.9898" fill="none" stroke="#000" stroke-linecap="round" stroke-width="4.4021"/>
<path d="m128.6372,65.9758 0,16.9898" fill="none" stroke="#000" stroke-linecap="round" stroke-width="4.4021"/>
<path d="m80.4136,134.7611 24.8508,-4.0573" fill="none" stroke="#000" stroke-width=".71"/>
<path d="m45.3514,68.9281 0,16.9898" fill="none" stroke="#000" stroke-linecap="round" stroke-width="4.4021"/>
</g>
<path d="m439.2857,223.9286c0,36.2507-29.5812,65.6376-66.0714,65.6376-36.4902,0-66.0714,-29.387-66.0714,-65.6376 0,-36.2507 29.5812,-65.6376 66.0714,-65.6376 36.4903,0 66.0714,29.387 66.0714,65.6376z" fill="#fff" stroke="#000" stroke-linecap="round" stroke-linejoin="round" stroke-width="3" transform="matrix(1.14354,0,0,1.14354,242.11167,411.35851)"/>
<path d="m592.7968,666.8967 151.2062,0" fill="none" stroke="#000" stroke-width="1.4908"/>
<path d="M216.3945,427.2679 207.8758,552.918" fill="none" stroke="#000" stroke-width="1.4908"/>
<text font-family="Bitstream Vera Sans" font-size="29.815" x="351.2022" y="341.8683">
   <tspan text-align="center" text-anchor="middle" x="351.2022" y="341.8683">Toujours être au courant</tspan>
   <tspan text-align="center" text-anchor="middle" x="351.2022" y="379.1375">c'est important...</tspan>
   <tspan text-align="center" text-anchor="middle" x="351.2022" y="416.4066">Tout s'éclaire !</tspan>
  </text>
<path d="m170.6067,743.5229c.5543,.4435-1.4198,0 0,0z" fill="none" stroke="#000" stroke-width="1.4908"/>
<path d="m346.3039,558.2422-31.945,45.7878" fill="#ff0" fill-rule="evenodd" stroke="#000" stroke-width="1.4908"/>
<path d="m258.9877,534.8159-11.7132,53.2416" fill="none" stroke="#000" stroke-width="1.4908"/>
<path d="m165.2825,555.0477 14.9077,33.0098" fill="none" stroke="#000" stroke-width="1.4908"/>
<path d="m129.0782,595.5113 26.6208,20.2318" fill="none" stroke="#000" stroke-width="1.4908"/>
<path d="m125.8837,664.7254 26.6208,-1.0648" fill="none" stroke="#000" stroke-width="1.4908"/>
<path d="m153.5694,709.4483-30.8801,19.167" fill="none" stroke="#000" stroke-width="1.4908"/>
<path d="m185.5143,749.9119-29.8153,54.3064" fill="none" stroke="#000" stroke-width="1.4908"/>
<path d="M268.5712,759.4954 288.803,819.126" fill="none" stroke="#000" stroke-width="1.4908"/>
<path d="m322.8776,723.2911 60.6954,34.0746" fill="none" stroke="#000" stroke-width="1.4908"/>
</g>
</svg>
