<svg version="1.1" viewBox="0 0 900 450" xmlns="http://www.w3.org/2000/svg" xmlns:svg="http://www.w3.org/2000/svg">
<g transform="translate(0,-602.3622)">
<path d="M53.3882,679.3135H834.3902A31.621,31.621 0 0 1 866.0112,710.9346V959.2834A31.621,31.621 0 0 1 834.3902,990.9044H53.3882A31.621,31.621 0 0 1 21.7672,959.2834V710.9346A31.621,31.621 0 0 1 53.3882,679.3135z" fill="#fff" stroke="#000" stroke-linecap="round" stroke-width="7.4907"/>
<g transform="translate(471.8506,-12.7224)">
<path d="M54.8144,767.1525H121.4844V830.1594H54.8144z" fill="none" stroke="#000" stroke-width="2"/>
<path d="M67.8517,767.1747H73.2089V830.0319H67.8517z" stroke="#000" stroke-width="2"/>
<path d="M87.3327,767.1747H92.6898V830.0319H87.3327z" stroke="#000" stroke-width="2"/>
<path d="M105.3851,767.1747H110.7422V830.0319H105.3851z" stroke="#000" stroke-width="2"/>
<path d="m55.0533,202.0076 66.6701,0" fill="none" stroke="#000" transform="translate(0,602.3622)"/>
</g>
<path d="M583.8616,749.014H596.183V819.3712H583.8616z" fill="#fff"/>
<path d="m21.6296,925.4804 557.0236,0" fill="none" stroke="#000" stroke-width=".8118"/>
<path d="m582.1429,802.505 287.8571,0" fill="none" stroke="#000"/>
<path d="m581.0089,675.9989 0,313.8904" fill="none" stroke="#000" stroke-width="5.6784"/>
<path d="m301.2988,675.2743 0,313.8904" fill="none" stroke="#000" stroke-width="5.6784"/>
<g transform="translate(2.2323,596.4028)">
<path d="m836.4575,413.7344c.4393,.5102 1.0355,.5714 1.6702,.6073 .8029,-.0216 1.6072,-.2138 2.3575,-.4993 .4009,-.1525 .6224,-.2824 .9965,-.4789-2.2386,1.3097-.9924,.6083-.5738,.1636 .2168,-.2303 .3463,-.473 .4686,-.7606 .3177,-.895 .3589,-1.8573 .4131,-2.797 .1056,-1.3679-.1776,-2.7109-.4825,-4.0352-.3709,-1.393-.8746,-2.7466-1.4293,-4.0757-.2656,-.6279-.5661,-1.2401-.8587,-1.8556-.3944,-.7567-.717,-.2868 1.5104,-1.1508 .0768,-.0298 .0919,.1367 .1411,.2027 .0823,.1106 .1689,.2179 .2533,.3269 .8217,1.1276 1.8098,2.1155 2.8001,3.0928 .5826,.5674 1.2073,1.094 1.7645,1.6873 .2114,.1727 .3378,.416 .508,.623 .1662,.1502 .2962,-.008 .4431,-.1107-2.5656,1.5385-1.6519,1.0412-1.1599,.5695 .1937,-.1858 .3764,-.3843 .5618,-.5781 .2632,-.2626 .5127,-.5438 .801,-.7804 .761,-.6244 1.8227,-1.1234 2.6097,-1.5711 .7271,-.3211 1.471,-.6005 2.2265,-.8468 .1563,-.0339 .761,-.2664 .899,-.1093 .0321,.0366 .0451,.0863 .0677,.1294 .003,.0441 .0154,.0885 .009,.1323-.0436,.3196-.5385,.6916-.7545,.8904-.9928,.8208-1.9561,1.6745-2.8731,2.5792-.7976,.8557-1.6216,1.7004-2.2566,2.6874-.3921,.6165-.6005,1.2972-.6984,2.0144-.0648,.6414-.0542,1.2873-.0532,1.9311 .0351,.6999 .1244,1.4011 .3328,2.0716 .1195,.3571 .3319,.6194 .6717,.7762 .2255,.0795 .4837,.1318 .7238,.0865 .0559,-.0105 .5216,-.1684 .5589,-.1808 .5492,-.2997 1.8756,-1.0005-.6067,.3598-.0982,.0538 .1891,-.1201 .2821,-.1824 .2138,-.1431 .2651,-.1851 .4657,-.3347 .2405,-.18 .1266,-.0925 .3424,-.2616l1.7191,-.6914c-.2178,.1831-.1012,.0918-.3516,.2719-1.0139,.7828-2.137,1.4308-3.3009,1.9611-.5107,.1524-.8878,.2254-1.3851,-.01-.3662,-.2065-.6055,-.5061-.7343,-.9112-.2041,-.6903-.2811,-1.4089-.3481,-2.1237-.004,-.6502-.0146,-1.3022 .038,-1.9509 .0928,-.7432 .2887,-1.4525 .6884,-2.0956 .0802,-.1332 .153,-.2712 .2404,-.3997 .1797,-.264 .4481,-.5661 .6529,-.8036 .4526,-.5247 .9157,-1.0402 1.3938,-1.5419 .8918,-.8997 1.8318,-1.7498 2.8066,-2.5591 .2761,-.2564 .5618,-.5063 .8001,-.7994 .0396,.0209-.0878,.0175-.1321,.0237-.221,.0309-.4338,.0996-.6466,.1641-.7471,.2466-1.4866,.5202-2.1959,.8624 2.4446,-1.4457 .9748,-.6248 .497,-.2572-.291,.2239-.54,.5004-.7953,.7622-.9257,.9766-.9789,1.08-2.545,1.8884-.2567,.1212-.4002,.1069-.6009,-.1041-.1584,-.2095-.2854,-.443-.481,-.6232-.5334,-.6025-1.1282,-1.1492-1.6932,-1.7213-.9808,-.9983-1.9767,-1.9849-2.8496,-3.0818-.0938,-.1054-.1877,-.2107-.2814,-.3162-.0521,-.0586-.2154,-.125-.1559,-.1761 1.4141,-1.2139 1.334,-1.5318 1.6993,-.7303 .2757,.628 .5663,1.2498 .8171,1.8885 .5249,1.3529 1.0089,2.7231 1.4053,4.1197 .3185,1.3302 .6335,2.6814 .5419,4.0599-.0361,.9485-.0918,1.9144-.3493,2.8318-.0847,.2347-.1139,.3545-.249,.5692-.5938,.9435-1.8747,1.3891-2.7166,1.9247-1.0714,.5266-2.2113,.8989-3.4172,.9043-.1676,-.0134-.3365,-.0158-.5029,-.0403-.4955,-.0729-.9575,-.2894-1.3004,-.6568l1.6003,-.9608z" stroke="#000" stroke-linecap="round" stroke-linejoin="round" stroke-width=".2515"/>
<path d="m851.8221,411.5777c-.7394,.2071-2.342,1.1965 .4556,-.4044-.388,.2065-.6184,.5425-.7999,.9302-.1036,.3106-.2142,.6511-.1917,.9845 .0156,.2307 .0756,.3466 .154,.562 .3071,.6068 .7794,1.1058 1.3399,1.4838 .4137,.288 .8839,.4191 1.383,.4252 .3851,-.0875 .743,-.2375 1.0957,-.4124 .1503,-.0745 .5909,-.3179 .4467,-.232-1.6618,.9892-1.2456,.7222-.6575,.3195 .4842,-.3729 1.0105,-.8056 1.1352,-1.4399 .0174,-.0886 .0162,-.1799 .0242,-.2698-.032,-.7933-.5333,-1.4143-1.0169,-2.0008-.3049,-.3393-.6501,-.6629-1.0669,-.861-.2115,-.1006-.32,-.1184-.544,-.1779-.4519,-.0246-.9255,.0184-1.3546,.1741-.1984,.072-.499,.2394-.6834,.3368 2.5132,-1.5078 .8665,-.5124 .3482,-.0616l-1.7106,.6998c.796,-.7657 1.8589,-1.2168 2.7842,-1.7769 .2686,-.1306 .4271,-.2208 .7141,-.308 .4568,-.1387 .9485,-.1711 1.419,-.1017 .2419,.0772 .34,.0967 .5672,.2177 .4231,.2255 .772,.5679 1.084,.9255 .5088,.6264 1.0253,1.2756 1.1028,2.1094-.004,.1012 .002,.2032-.0112,.3035-.0928,.6825-.6005,1.1676-1.1167,1.5708-1.0013,.7187-.4882,.3709-2.4236,1.4671-.5043,.2856-1.0559,.5275-1.6351,.5951-.5218,-.0461-1.0072,-.1999-1.4323,-.5165-.5749,-.4193-1.0583,-.9487-1.3949,-1.5794-.0786,-.2055-.1678,-.4012-.1946,-.6229-.0421,-.3472 .0735,-.712 .1572,-1.043 .1608,-.4086 .3649,-.7958 .7491,-1.0357 .9031,-.5198 1.7482,-1.1163 2.7557,-1.3944l-1.4819,1.1332z" stroke="#000" stroke-linecap="round" stroke-linejoin="round" stroke-width=".2515"/>
<path d="m859.6183,412.3322c-.3202,.1024-.653,.1903-.9574,.3362-.1022,.049-.1982,.1101-.2973,.1651 .4207,-.2356 .8414,-.4712 1.2621,-.7068-.4994,.337-.87,.6738-1.0934,1.2386-.1462,.4652-.0761,.8586 .2923,1.2028 .0889,.0831 .1935,.1477 .2903,.2216 .7042,.4045 1.5378,.5494 2.3444,.4638 .2312,-.0245 .458,-.0805 .687,-.1208 .53,-.1368 .7609,-.1749 1.2586,-.3838 .1651,-.0693 .635,-.3305 .4812,-.2387-2.2382,1.3365-1.2251,.7542-.8736,.3984 .0779,-.0789 .1399,-.1722 .2098,-.2583 .3065,-.4795 .3144,-.9061 .0985,-1.417-.0396,-.0897-.268,-.5604-.4291,-.4586-.0279,.0176-.042,.0509-.063,.0763 2.5422,-1.4497 1.5743,-1.2073 1.3277,-.5008-.1064,.3049-.125,.6013-.1396,.9215 .1766,1.4863 .8332,2.8626 1.3726,4.2435 .6559,1.8244 1.2881,3.7176 1.3609,5.6744 .0145,.3894-.0234,.7791-.0352,1.1686-.0582,.3745-.0908,.754-.1745,1.1236-.2732,1.2059-.8948,2.3097-1.8179,3.137-.1627,.1458-.3469,.2657-.5204,.3986-.6941,.3626-1.3544,.7991-2.0824,1.0879-.3018,.1197-1.0302,-.13-1.2689,-.2364-.8875,-.3957-1.654,-1.0455-2.408,-1.6406-1.2719,-1.0888-2.5172,-2.2245-3.6551,-3.4552-.5895,-.6376-.7352,-.8522-1.2472,-1.5118-.4358,-.7271-.9494,-1.57-.521,-2.4271 .2535,-.5072 .5595,-.6912 .9842,-1.0605 1.2727,-.8247 1.3769,-.9186 3.2195,-1.8517 .4497,-.2277 1.9,-.7427 2.3438,-.8976 .8851,-.3088 1.8369,-.6147 2.7269,-.9055 2.3381,-.6744 4.6281,-1.4959 6.8914,-2.3864 .1921,-.0817 .3845,-.1627 .5764,-.245 .1466,-.0629 .2943,-.1233 .439,-.1904 .2958,-.1371 .5721,-.3067 .8773,-.4229 .4138,-.059 .559,.4392 .6828,.7418 .2853,.7705 .446,1.5785 .5154,2.3954 .0171,.366 .029,.7337-.0228,1.0975-.005,.0372 .0139,.0951-.0201,.1109-.5544,.2582-1.1333,.4601-1.6999,.6902 10e-4,-.1126-.005,-.2255 .004,-.3377 .0133,-.1633 .0414,-.325 .063,-.4874 .1257,-.9479 .2903,-1.8831 .4832,-2.8196 .1955,-.8168 .3644,-1.6723 .8312,-2.3853 .5286,-.5535 1.7043,-1.6447 2.2768,-1.0096 .06,.0665 .1019,.1472 .1529,.2208 .112,.1981 .2088,.3485 .2821,.568 .2061,.6171 .2986,1.3405 .4077,1.9824 .1424,.5555 .0881,1.2207 .2567,1.7654 .2229,-.5987-.002,.0277-1.6032,.7911-.0325,.0155 .0489,-.0535 .0671,-.0845 .0417,-.0712 .1233,-.2801 .1551,-.3443 .0434,-.0875 .0929,-.1719 .1393,-.2578 .3011,-.4825 .556,-.9925 .8877,-1.4552 .5547,-.695 1.0736,-.8467 2.0338,-1.3744 .0329,-.0181 .0773,-.008 .1126,.005 .045,.0163 .08,.0526 .12,.0789 .3755,.395 .5063,.9539 .6331,1.4682 .1102,.56 .1691,1.1313 .374,1.6669 .0499,.0702 .0906,.1479 .1496,.2107 .4298,.4569 1.1407,.7985 1.727,.9842 .2206,.0699 .4479,.1166 .6718,.175 .9481,.2366 1.8995,.2483 2.8425,-.0109 .2087,-.0574 .4184,-.1173 .6161,-.2054 .1842,-.0821 .3491,-.2019 .5237,-.3028-.3631,.1874-.6996,.4397-1.0894,.5621-.1503,.0472 .2339,-.2118 .3412,-.3271 .3164,-.3401 .4973,-.7183 .6246,-1.1583 .0873,-.3664 .0858,-.7428 .0757,-1.1166-.1021,-.7716-.7838,-.0122 1.5762,-.9706 .043,-.0174-.0252,.0895-.0325,.1353-.0105,.0666-.0137,.1342-.0206,.2013-.0335,.6079-.0474,1.2172 .0202,1.8229 .0688,.3897 .1433,.7878 .4487,1.0613 .2149,.1415 .443,.1511 .6803,.0734 .5712,-.2883 1.4287,-.7883-1.1689,.6781-.0922,.052 .1782,-.1143 .2658,-.1737l1.729,-.6874c-.1339,.1099-.1095,.0986-.2632,.1884-.5841,.3415-1.3074,.9119-2.0466,1.1199-.2885,.0309-.5575,-.0318-.7831,-.2236-.314,-.3274-.4164,-.7448-.4864,-1.185-.0743,-.6127-.0594,-1.2282-.0514,-1.8445 .002,-.0823 .01,-.3683 .0155,-.3721 1.2231,-.8123 1.6185,-1.5813 1.7738,-.6732 .009,.3929 .009,.788-.0729,1.1746-.4026,1.6039-1.4656,1.9693-2.9269,2.8345-.1797,.0906-.3518,.1981-.539,.2718-1.1255,.4431-2.3519,.4076-3.5096,.13-.2313,-.0613-.4661,-.1105-.6938,-.184-.5824,-.188-1.4014,-.59-1.8309,-1.0418-.0707,-.0744-.1217,-.1654-.1826,-.2482-.2042,-.5462-.263,-1.1251-.3681,-1.696-.1059,-.4424-.211,-.9895-.5766,-1.2965-.0862,.0108-.0417,-.002-.1309,.0471 .494,-.2933 .9881,-.5865 1.4821,-.8797 .0418,-.024-.0765,.0589-.1115,.092-.088,.083-.1593,.1827-.2543,.2588-.3546,.4458-.6103,.9514-.9065,1.4362-.1113,.1906-.2033,.3719-.2742,.5809-.0144,.0426 .002,.1066-.037,.1297-1.6717,1.0055-1.301,1.4123-1.7676,.8263-.1403,-.5915-.0684,-1.2195-.2051,-1.8138-.1337,-.8319-.2366,-1.7229-.6888,-2.4507-.0786,-.0945-.1124,-.1812-.2373,-.2042-.0338,-.006-.1319,.0282-.1027,.01 .4848,-.3029 .9881,-.5749 1.4781,-.8692 .044,-.0264-.0961,.0379-.1396,.0652-.0513,.0322-.0953,.0748-.1429,.1121-.5512,.6573-.7174,1.5447-.9403,2.3498-.2511,1.1609-.4667,2.3381-.5021,3.5279-.5413,.3318-1.0717,.6821-1.624,.9954-.0304,.0173 .0302,-.0634 .04,-.097 .1011,-.3479 .0723,-.7161 .0723,-1.073-.0467,-.7985-.196,-1.5926-.501,-2.3352-.0582,-.1343-.1651,-.5237-.3687,-.5375-.0472,-.003-.1338,.0342-.1714,.0477-.6021,.2681-1.1868,.5757-1.8125,.79-2.2433,.8437-4.5057,1.6345-6.8063,2.3092-1.3354,.4418-2.6801,.8687-3.988,1.3886-.3765,.1496-.7211,.3958-1.1182,.4762-.2039,.0413 .7012,-.4449 .5142,-.3538-.2728,.1328-.5155,.32-.7733,.48-.4814,.3865-1.0718,.7863-1.1859,1.4525-.1123,.6557 .3053,1.262 .5878,1.8057 .1747,.2387 .3409,.4837 .524,.716 1.2506,1.586 2.7723,2.9468 4.3216,4.2314 .7601,.5675 1.5353,1.2021 2.4338,1.5462 .2074,.0794 .4249,.1396 .6456,.1641 .1883,.021 .6695,-.1887 .5676,-.029-.2123,.3325-.6509,.446-.9763,.669 .1821,-.1271 .3749,-.2403 .5464,-.3814 .9528,-.7839 1.6207,-1.8661 1.9179,-3.0621 .0903,-.3634 .1256,-.7382 .1884,-1.1073 .0181,-.3842 .0641,-.7681 .0543,-1.1525-.0495,-1.9411-.7079,-3.8142-1.3712,-5.6146-.5628,-1.3919-1.2476,-2.7639-1.4927,-4.2575-.008,-.3535 4.4e-4,-.6227 .086,-.9647 .005,-.0191 .0997,-.3596 .142,-.3887 .5428,-.3738 1.1209,-.6937 1.6814,-1.0405 .0426,.003 .0866,-.001 .1279,.0102 .2648,.0724 .3917,.4009 .5024,.6157 .2357,.5565 .268,1.0517-.0318,1.5983-.068,.0974-.1268,.202-.2041,.2923-.5521,.6452-1.6564,1.098-2.2184,1.4107-.5375,.2991-1.1558,.4269-1.747,.5653-.2367,.0355-.4715,.087-.71,.1065-.852,.0695-1.7224,-.0834-2.4497,-.5408-.1044,-.0833-.2169,-.1574-.3133,-.25-.4073,-.3914-.5345,-.8233-.3997,-1.3636 .2032,-.6461 .5218,-.9587 1.0648,-1.3564 1.0479,-.6191 1.9953,-1.302 3.1758,-1.5918l-1.4819,1.1332z" stroke="#000" stroke-linecap="round" stroke-linejoin="round" stroke-width=".2515"/>
<path d="m885.0291,406.6825c-.2243,.2632-.4035,.5643-.4888,.9007-.0611,.3364 .1396,.4226 .4154,.5433 .4462,.1634 .8277,.1455 1.2847,.0647 .6111,-.2095 1.5817,-.8065-1.1348,.6921-.0382,.021 .0724,-.0491 .1046,-.0784 .0766,-.0699 .0844,-.0988 .1345,-.1863 .0923,-.207 .0832,-.4008-.0356,-.5915-.1581,-.1498-.3958,-.1358-.5998,-.1457-.2107,.0195-.4113,.0717-.5826,.1981l1.4548,-1.1716c.2072,-.0784 .4191,-.128 .6429,-.1102 .2663,.0263 .5282,.0641 .7009,.2916 .1406,.2366 .1962,.4812 .1149,.7512-.2947,.8892-1.4141,1.2488-2.2801,1.4605-.4615,.058-.9177,.0327-1.3515,-.1527-.3119,-.1609-.5915,-.3623-.5442,-.7527 .0576,-.3624 .2344,-.6871 .4467,-.9831l1.718,-.7299z" stroke="#000" stroke-linecap="round" stroke-linejoin="round" stroke-width=".2515"/>
<path d="m861.1845,411.2142c.3537,-.1719 .6913,-.3752 1.0561,-.5234 .2286,-.1485 .4794,-.2171 .7469,-.2463 .246,-.0187 .4931,-.0156 .7396,-.0147 .2447,-.026 .452,.0409 .667,.1458 .1505,.1206 .2692,.2808 .3835,.4358 .0994,.1805 .1578,.3831 .2189,.5798 .0548,.2015 .1295,.3941 .169,.6001 .038,.2418 .0406,.4871 .0436,.7313 10e-4,.1259 9.1e-4,.2518 8.4e-4,.3777l-1.662,.8466c1.7e-4,-.1253 4.3e-4,-.2505-1.3e-4,-.3758-.002,-.2343-.002,-.4696-.0316,-.7024-.0328,-.2007-.1062,-.3854-.1597,-.5802-.0519,-.1769-.1078,-.3572-.1882,-.5221-.0978,-.1283-.193,-.2747-.3336,-.3578-.1975,-.0858-.4034,-.0913-.6168,-.0821-.2413,.001-.4842,-10e-5-.7231,.0389-.2526,.0534-.4803,.1621-.7103,.2775-.3579,.1664-.704,.3572-1.0509,.5452l1.4507,-1.1737z" stroke="#000" stroke-linecap="round" stroke-linejoin="round" stroke-width=".2515"/>
</g>
<path d="M65.3154,644.0072H252.1937A15.9099,15.9099 0 0 1 268.1036,659.9171V659.9171A15.9099,15.9099 0 0 1 252.1937,675.827H65.3154A15.9099,15.9099 0 0 1 49.4055,659.9171V659.9171A15.9099,15.9099 0 0 1 65.3154,644.0072z" fill="#fff" stroke="#000" stroke-linecap="round" stroke-linejoin="round" stroke-width="4"/>
<path d="m101.5203,44.9288c0,19.2473-16.5075,34.8503-36.8706,34.8503-20.3631,0-36.8706,-15.603-36.8706,-34.8503 0,-19.2473 16.5075,-34.8503 36.8706,-34.8503 20.3631,0 36.8706,15.603 36.8706,34.8503z" stroke="#000" stroke-linecap="round" stroke-linejoin="round" stroke-width="7.491" transform="matrix(.7121,0,0,.7121,4.11918,621.63005)"/>
<text font-family="Bitstream Vera Sans" font-size="40" x="25.7684" y="667.6646">
   <tspan fill="#f9f9f9" x="25.7684" y="667.6646">70</tspan>
  </text>
<path d="m446.8915,78.4154c0,2.9289-27.5427,5.3033-61.5183,5.3033-33.9756,0-61.5183,-2.3744-61.5183,-5.3033 0,-2.9289 27.5427,-5.3033 61.5183,-5.3033 33.9756,0 61.5183,2.3744 61.5183,5.3033z" stroke="#000" stroke-linecap="round" stroke-width="4.862" transform="matrix(.83173,0,0,.83173,-164.96725,891.23255)"/>
<g transform="matrix(.83173,0,0,.83173,236.47527,643.97842)">
<path d="m-43.5297,288.8057 0,47.8884c0,20.007-16.1067,36.1137-36.1137,36.1137l-35.434,0c-20.007,0-36.1137,-16.1067-36.1137,-36.1137l0,-47.8884" fill="#fff" stroke="#000" stroke-linecap="round" stroke-linejoin="round" stroke-width="3.6422"/>
<path d="M-122.1431,308.6171H-98.6091A.7803,.7803 0 0 1 -97.8288,309.3974V319.4235A.7803,.7803 0 0 1 -98.6091,320.2038H-122.1431A.7803,.7803 0 0 1 -122.9234,319.4235V309.3974A.7803,.7803 0 0 1 -122.1431,308.6171z" stroke="#000" stroke-linecap="square" stroke-linejoin="round" stroke-width="3.7338"/>
<path d="M-80.7522,308.6171H-60.3393A2.3409,2.3409 0 0 1 -57.9985,310.958V317.8629A2.3409,2.3409 0 0 1 -60.3393,320.2038H-80.7522A2.3409,2.3409 0 0 1 -83.093,317.8629V310.958A2.3409,2.3409 0 0 1 -80.7522,308.6171z" stroke="#000" stroke-linecap="square" stroke-linejoin="round" stroke-width="3.7338"/>
<path d="m-148.8829,313.6717c.5492,.0105 1.0986,.007 1.6478,.004 .363,-.002 .7259,-.004 1.0889,-.004 .2925,-4.3e-4 .585,-4e-4 .8775,-4e-4 .304,-6.3e-4 .6081,6e-4 .9121,10e-4 .3906,-.01 .7752,-3.7e-4 1.162,.0507 .3996,.0545 .8031,.0717 1.2062,.0827 .4052,-.0158 .8029,.0589 1.204,.099 .4079,.0368 .818,.0407 1.2274,.045 .4301,.002 .8603,.002 1.2904,6.5e-4 .3736,-7.6e-4 .7472,-10e-4 1.1208,-.002 .307,-7.7e-4 .6141,-9.8e-4 .9211,-10e-4 .2915,-8e-5 .583,-7e-5 .8745,-6e-5 .2915,1e-5 .5831,1e-5 .8746,1e-5 .3187,-3.9e-4 .6374,5.3e-4 .9561,.002 .3943,.002 .7885,4.4e-4 1.1828,-6.3e-4 .3709,-2.7e-4 .7418,4.7e-4 1.1126,10e-4 .3967,-1.7e-4 .7934,-8e-5 1.1902,-10e-4 .38,1.9e-4 .7599,7.4e-4 1.1399,1.6e-4 .3456,-.001 .6912,-.002 1.0367,2.5e-4 .5332,.003 1.0664,.004 1.5996,.006 .7266,.003 1.4533,.003 2.1799,.001 .5332,-.001 1.0664,-.005 1.5997,-.005 .4413,6.5e-4 .8826,-2e-5 1.3239,-.002 .0611,-2e-4 .1222,-4e-4 .1833,-6e-4l-1.746,1.1993c-.0605,-2.1e-4-.121,-4.1e-4-.1815,-6.1e-4-.4399,-.002-.8797,-.002-1.3196,-.002-.528,-2.2e-4-1.0559,-.004-1.5839,-.005-.7276,-.002-1.4552,-.002-2.1828,9.9e-4-.5391,.002-1.0782,.003-1.6173,.006-.3458,.002-.6916,.002-1.0375,2.6e-4-.3801,-5.7e-4-.7602,-3e-5-1.1404,1.5e-4-.3957,-9.9e-4-.7914,-8.9e-4-1.187,-.001-.3723,.001-.7447,.002-1.117,.002-.3937,-10e-4-.7873,-.003-1.181,-6.3e-4-.3206,.001-.6411,.002-.9617,.002-.2915,0-.5831,0-.8747,0-.2914,0-.5829,2e-5-.8743,-6e-5-.306,-1.3e-4-.612,-3.5e-4-.918,-9.6e-4-.372,-6.9e-4-.744,-8.4e-4-1.1161,-8.8e-4-.4302,-8.3e-4-.8603,7e-4-1.2904,-.004-.4148,-.006-.8303,-.0145-1.2428,-.0595-.3968,-.0446-.792,-.0972-1.193,-.0869-.4078,-.0152-.8149,-.0435-1.2193,-.0968-.382,-.0404-.7654,-.0292-1.1493,-.0278-.3051,5.6e-4-.6103,.002-.9155,.001-.2921,10e-6-.5842,3e-5-.8763,-4e-4-.3589,-6.7e-4-.7177,-.002-1.0765,-.004-.5532,-.003-1.1065,-.006-1.6597,.004l1.7494,-1.2016z" stroke="#000" stroke-linecap="square" stroke-linejoin="round" stroke-width=".4767"/>
<path d="m-57.3881,313.9484c.7039,.0118 1.4079,.0102 2.1119,.01 .6452,-8.9e-4 1.2905,-.003 1.9357,-.006 .4312,-.002 .8624,-.002 1.2935,-.003 .3398,-8.1e-4 .6796,-.002 1.0194,-.002 .2968,.0217 .5821,-.0575 .8738,-.0956 .2926,-.0341 .5877,-.039 .8821,-.0425 .2922,-.002 .5843,-10e-4 .8765,-8.4e-4 .2918,4e-4 .5836,5.3e-4 .8754,6.1e-4 .2918,5e-5 .5836,5e-5 .8754,5e-5 .2918,0 .5836,0 .8754,0 .3133,-6.1e-4 .6266,10e-4 .9398,10e-4 .3172,-2.5e-4 .6345,-6.9e-4 .9517,-9.3e-4 .2938,-1.8e-4 .5877,-2e-4 .8815,-2.1e-4 .1943,-1e-5 .0972,-1e-5 .2915,-1e-5l-1.7509,1.2027c-.1943,0-.0971,0-.2914,0-.2936,-2e-5-.5872,-4e-5-.8808,-2.2e-4-.3164,-2.3e-4-.6327,-6.8e-4-.9491,-9.3e-4-.3144,4e-5-.6287,.002-.9431,10e-4-.2918,1e-5-.5836,1e-5-.8754,1e-5-.2918,-1e-5-.5836,-1e-5-.8754,-1.2e-4-.2918,-1.3e-4-.5837,-3.7e-4-.8755,-7.2e-4-.2913,-2.3e-4-.5826,-10e-4-.8738,.004-.2893,.007-.5791,.0195-.8653,.0636-.2961,.0453-.5905,.0907-.8921,.0705-.3377,-4.3e-4-.6755,-10e-4-1.0132,-.002-.4283,-5.4e-4-.8565,-6.3e-4-1.2848,-.003-.6398,-.003-1.2796,-.005-1.9195,-.006-.7134,-4.8e-4-1.4269,-.002-2.1402,.01l1.747,-1.2z" stroke="#000" stroke-linecap="square" stroke-linejoin="round" stroke-width=".4767"/>
<path d="m-97.681,314.1116c.5339,.0676 1.0726,.0889 1.6105,.1048 .4801,.0116 .9604,.0116 1.4405,.0103 .3964,-5e-4 .7929,-6.3e-4 1.1893,-.002 .7958,.0205 1.592,.0104 2.3879,.007 .4809,-.004 .9619,-.005 1.4428,-.007 .3835,3e-5 .767,-4.2e-4 1.1506,6e-4 .4032,.001 .8064,-9.5e-4 1.2096,-3.1e-4 .3638,-8.6e-4 .7277,-7.6e-4 1.0915,-6.6e-4 .3644,5.6e-4 .7288,2.2e-4 1.0931,-5.1e-4 .3481,.001 .6961,1.1e-4 1.0442,-4.5e-4 .3406,.001 .6811,4.5e-4 1.0217,-4e-5 .3008,-4.3e-4 .6016,-5.6e-4 .9024,-6.3e-4 .2516,.0585 .5047,.1006 .7628,.1209 .2799,.0172 .5606,.0173 .8409,.018 .2917,1.9e-4 .5833,-3.9e-4 .875,-6.8e-4 .146,-1.4e-4 .292,-2e-4 .4381,-2.6e-4l-1.7508,1.2027c-.146,10e-5-.292,1.9e-4-.438,3.5e-4-.292,3.2e-4-.584,.001-.876,-3.9e-4-.2852,-.002-.5709,-.005-.8549,-.0331-.2506,-.0294-.496,-.0897-.7478,-.105-.3002,-8e-5-.6004,-2e-4-.9006,-6.3e-4-.3405,-4.8e-4-.681,-.001-1.0215,-5e-5-.3476,-5.5e-4-.6953,-.002-1.0429,-4.4e-4-.3639,-7.3e-4-.7278,-10e-4-1.0916,-5.1e-4-.3632,1.1e-4-.7264,1.9e-4-1.0895,-6.6e-4-.4029,6.4e-4-.8058,-.002-1.2087,-3.1e-4-.3841,.001-.7682,5.8e-4-1.1523,6e-4-.4742,-.002-.9483,-.003-1.4224,-.007-.8027,-.004-1.6058,-.0132-2.4083,.007-.3958,-4.3e-4-.7915,4.6e-4-1.1873,-3.6e-4-.4785,-.003-.957,-.007-1.4353,-.0226-.5477,-.0212-1.0947,-.0538-1.64,-.107l1.7673,-1.1825z" stroke="#000" stroke-linecap="square" stroke-linejoin="round" stroke-width=".4767"/>
<path d="m-136.1855,276.2983 0,18.5432" fill="none" stroke="#000" stroke-linecap="round" stroke-width="4.8046"/>
<path d="m-126.6615,274.544 0,18.5432" fill="none" stroke="#000" stroke-linecap="round" stroke-width="4.8046"/>
<path d="m-117.7245,276.0083 0,18.5432" fill="none" stroke="#000" stroke-linecap="round" stroke-width="4.8046"/>
<path d="m-106.0478,274.841 0,18.5432" fill="none" stroke="#000" stroke-linecap="round" stroke-width="4.8046"/>
<path d="m-95.8892,277.0276 0,18.5432" fill="none" stroke="#000" stroke-linecap="round" stroke-width="4.8046"/>
<path d="m-84.2599,276.8522 0,18.5432" fill="none" stroke="#000" stroke-linecap="round" stroke-width="4.8046"/>
<path d="m-73.7574,275.1381 0,18.5432" fill="none" stroke="#000" stroke-linecap="round" stroke-width="4.8046"/>
<path d="m-63.8419,278.175 0,18.5432" fill="none" stroke="#000" stroke-linecap="round" stroke-width="4.8046"/>
<path d="m-53.169,277.8063 0,18.5432" fill="none" stroke="#000" stroke-linecap="round" stroke-width="4.8046"/>
<path d="m-105.8017,352.8807 27.1229,-4.4282" fill="none" stroke="#000" stroke-width=".7749"/>
<path d="m-144.0697,281.0285 0,18.5432" fill="none" stroke="#000" stroke-linecap="round" stroke-width="4.8046"/>
</g>
<text font-family="Bitstream Vera Sans" font-size="20" x="111.831" y="665.674">
   <tspan x="111.831" y="665.674">Exécution</tspan>
  </text>
<text font-family="Bitstream Vera Sans" font-size="20" x="185.2654" y="713.2657">
   <tspan text-align="center" text-anchor="middle" x="185.2654" y="713.2657">Vous serez exécuté</tspan>
   <tspan text-align="center" text-anchor="middle" x="185.2654" y="738.2657">demain à l'aube !</tspan>
  </text>
<path d="m216.0711,751.0916 60.6091,29.2944" fill="none" stroke="#000"/>
<path d="m446.8915,78.4154c0,2.9289-27.5427,5.3033-61.5183,5.3033-33.9756,0-61.5183,-2.3744-61.5183,-5.3033 0,-2.9289 27.5427,-5.3033 61.5183,-5.3033 33.9756,0 61.5183,2.3744 61.5183,5.3033z" stroke="#000" stroke-linecap="round" stroke-width="4.862" transform="matrix(-.83173,0,0,.83173,755.29472,894.41374)"/>
<path d="m390.057,887.3673 0,39.8301c0,16.6404 13.3964,30.0368 30.0368,30.0368l29.4715,0c16.6404,0 30.0368,-13.3964 30.0368,-30.0368l0,-39.8301" fill="#fff" stroke="#000" stroke-linecap="round" stroke-linejoin="round" stroke-width="3.0293"/>
<path d="M-455.442,903.845H-435.8681A.649,.649 0 0 1 -435.2192,904.494V912.833A.649,.649 0 0 1 -435.8681,913.482H-455.442A.649,.649 0 0 1 -456.091,912.833V904.494A.649,.649 0 0 1 -455.442,903.845z" stroke="#000" stroke-linecap="square" stroke-linejoin="round" stroke-width="3.1055" transform="scale(-1,1)"/>
<path d="M-421.016,903.845H-404.0381A1.947,1.947 0 0 1 -402.0911,905.792V911.535A1.947,1.947 0 0 1 -404.0381,913.482H-421.016A1.947,1.947 0 0 1 -422.963,911.535V905.792A1.947,1.947 0 0 1 -421.016,903.845z" stroke="#000" stroke-linecap="square" stroke-linejoin="round" stroke-width="3.1055" transform="scale(-1,1)"/>
<path d="m477.6823,908.0491c-.4568,.009-.9137,.006-1.3705,.003-.3019,-.002-.6038,-.003-.9057,-.003-.2433,-3.6e-4-.4865,-3.4e-4-.7298,-3.4e-4-.2529,-5.2e-4-.5057,5e-4-.7586,8.4e-4-.3249,-.008-.6448,-3.1e-4-.9664,.0422-.3324,.0453-.668,.0596-1.0032,.0688-.337,-.0131-.6678,.049-1.0014,.0823-.3393,.0306-.6803,.0339-1.0209,.0374-.3578,.002-.7155,.002-1.0733,5.4e-4-.3107,-6.3e-4-.6214,-8.3e-4-.9322,-.002-.2554,-6.4e-4-.5107,-8.1e-4-.7661,-8.3e-4-.2424,-6e-5-.4849,-6e-5-.7273,-5e-5-.2425,10e-6-.4849,10e-6-.7274,10e-6-.2651,-3.2e-4-.5301,4.4e-4-.7952,.002-.3279,.002-.6559,3.7e-4-.9838,-5.2e-4-.3085,-2.2e-4-.6169,3.9e-4-.9254,8.3e-4-.33,-1.4e-4-.6599,-6e-5-.9899,-8.3e-4-.316,1.6e-4-.6321,6.2e-4-.9481,1.3e-4-.2874,-8.3e-4-.5749,-.002-.8623,2.1e-4-.4435,.002-.8869,.003-1.3304,.005-.6044,.002-1.2087,.002-1.8131,8.3e-4-.4435,-8.3e-4-.887,-.004-1.3305,-.004-.367,5.5e-4-.7341,-10e-6-1.1011,-.002-.0508,-1.6e-4-.1016,-3.3e-4-.1524,-5e-4l1.4522,.9975c.0503,-1.7e-4 .1007,-3.4e-4 .151,-5e-4 .3659,-.002 .7317,-.002 1.0975,-.002 .4391,-1.8e-4 .8782,-.003 1.3174,-.004 .6051,-.002 1.2103,-.002 1.8155,8.3e-4 .4484,.002 .8968,.002 1.3451,.005 .2876,.002 .5753,.002 .8629,2.1e-4 .3162,-4.7e-4 .6323,-2e-5 .9485,1.3e-4 .3291,-8.2e-4 .6582,-7.4e-4 .9873,-8.3e-4 .3097,8.3e-4 .6194,.002 .9291,.002 .3274,-8.3e-4 .6549,-.002 .9823,-5.2e-4 .2666,8.3e-4 .5332,.002 .7999,.002 .2425,0 .485,0 .7275,0 .2424,0 .4848,2e-5 .7272,-5e-5 .2545,-1.1e-4 .509,-2.9e-4 .7635,-8e-4 .3094,-5.7e-4 .6189,-7e-4 .9283,-7.3e-4 .3578,-6.9e-4 .7156,5.8e-4 1.0733,-.003 .345,-.005 .6905,-.0121 1.0336,-.0495 .33,-.0371 .6588,-.0808 .9923,-.0723 .3392,-.0126 .6777,-.0362 1.0141,-.0805 .3177,-.0336 .6366,-.0243 .9559,-.0231 .2538,4.7e-4 .5076,.002 .7614,8.4e-4 .243,0 .4859,2e-5 .7288,-3.4e-4 .2985,-5.5e-4 .5969,-.002 .8954,-.003 .4601,-.003 .9203,-.005 1.3804,.003l-1.455,-.9994z" stroke="#000" stroke-linecap="square" stroke-linejoin="round" stroke-width=".3964"/>
<path d="m401.5835,908.2792c-.5854,.01-1.171,.008-1.7565,.008-.5367,-7.4e-4-1.0733,-.003-1.61,-.005-.3586,-.002-.7173,-.002-1.0759,-.003-.2826,-6.7e-4-.5652,-.002-.8478,-.002-.2469,.0181-.4841,-.0478-.7268,-.0795-.2434,-.0284-.4888,-.0324-.7336,-.0353-.243,-.002-.486,-8.3e-4-.729,-7e-4-.2427,3.3e-4-.4854,4.4e-4-.7281,5.1e-4-.2427,4e-5-.4854,4e-5-.7281,4e-5-.2427,0-.4854,0-.7281,0-.2606,-5.1e-4-.5211,8.3e-4-.7817,8.3e-4-.2638,-2.1e-4-.5277,-5.7e-4-.7916,-7.7e-4-.2444,-1.5e-4-.4888,-1.7e-4-.7331,-1.8e-4-.1616,-10e-6-.0808,-10e-6-.2424,-10e-6l1.4563,1.0003c.1616,0 .0808,0 .2424,0 .2442,-1e-5 .4884,-3e-5 .7326,-1.8e-4 .2631,-1.9e-4 .5262,-5.6e-4 .7894,-7.7e-4 .2615,3e-5 .5229,.002 .7844,8.3e-4 .2427,10e-6 .4854,10e-6 .7281,10e-6 .2427,-10e-6 .4854,-10e-6 .7281,-10e-5 .2427,-1.1e-4 .4854,-3.1e-4 .7281,-6e-4 .2423,-1.9e-4 .4846,-8.3e-4 .7268,.003 .2407,.006 .4817,.0162 .7197,.0529 .2462,.0377 .4912,.0754 .742,.0586 .2809,-3.6e-4 .5618,-8.3e-4 .8427,-.002 .3562,-4.5e-4 .7124,-5.3e-4 1.0686,-.002 .5322,-.002 1.0643,-.004 1.5965,-.005 .5933,-4e-4 1.1868,-.002 1.78,.008L401.5835,908.277z" stroke="#000" stroke-linecap="square" stroke-linejoin="round" stroke-width=".3964"/>
<path d="m435.0962,908.4149c-.4441,.0562-.8921,.0739-1.3395,.0872-.3993,.01-.7987,.01-1.1981,.009-.3297,-4.2e-4-.6594,-5.3e-4-.9891,-.002-.6619,.017-1.3241,.009-1.9861,.006-.4,-.003-.8,-.004-1.2,-.006-.319,2e-5-.638,-3.5e-4-.957,4.9e-4-.3353,8.4e-4-.6707,-7.9e-4-1.006,-2.5e-4-.3026,-7.2e-4-.6052,-6.4e-4-.9078,-5.5e-4-.3031,4.6e-4-.6061,1.8e-4-.9092,-4.3e-4-.2895,8.4e-4-.579,1e-4-.8685,-3.7e-4-.2832,8.3e-4-.5665,3.7e-4-.8497,-3e-5-.2502,-3.6e-4-.5004,-4.7e-4-.7506,-5.3e-4-.2092,.0487-.4197,.0836-.6344,.1006-.2328,.0143-.4662,.0144-.6994,.015-.2426,1.6e-4-.4852,-3.3e-4-.7278,-5.7e-4-.1215,-1.1e-4-.2429,-1.6e-4-.3644,-2.1e-4l1.4562,1.0004c.1214,8e-5 .2428,1.6e-4 .3643,2.9e-4 .2429,2.6e-4 .4858,8.3e-4 .7286,-3.3e-4 .2372,-.002 .4749,-.004 .711,-.0275 .2084,-.0245 .4125,-.0746 .622,-.0873 .2497,-7e-5 .4994,-1.7e-4 .749,-5.3e-4 .2832,-4e-4 .5664,-8.3e-4 .8496,-4e-5 .2892,-4.6e-4 .5783,-.002 .8674,-3.7e-4 .3026,-6e-4 .6053,-8.3e-4 .9079,-4.2e-4 .3021,9e-5 .6041,1.6e-4 .9062,-5.5e-4 .3351,5.3e-4 .6702,-.002 1.0053,-2.6e-4 .3195,8.4e-4 .639,4.9e-4 .9584,5e-4 .3944,-.002 .7887,-.002 1.1831,-.006 .6676,-.003 1.3356,-.011 2.0031,.006 .3292,-3.6e-4 .6583,3.9e-4 .9875,-3e-4 .398,-.002 .796,-.006 1.1938,-.0188 .4555,-.0176 .9105,-.0448 1.3641,-.089l-1.4699,-.9835z" stroke="#000" stroke-linecap="square" stroke-linejoin="round" stroke-width=".3964"/>
<path d="m467.1214,876.9646 0,15.4229" fill="none" stroke="#000" stroke-linecap="round" stroke-width="3.9961"/>
<path d="m459.2,875.5054 0,15.4229" fill="none" stroke="#000" stroke-linecap="round" stroke-width="3.9961"/>
<path d="m451.767,876.7233 0,15.4229" fill="none" stroke="#000" stroke-linecap="round" stroke-width="3.9961"/>
<path d="m442.0551,875.7525 0,15.4229" fill="none" stroke="#000" stroke-linecap="round" stroke-width="3.9961"/>
<path d="m433.6059,877.5712 0,15.4229" fill="none" stroke="#000" stroke-linecap="round" stroke-width="3.9961"/>
<path d="m423.9335,877.4253 0,15.4229" fill="none" stroke="#000" stroke-linecap="round" stroke-width="3.9961"/>
<path d="m415.1982,875.9995 0,15.4229" fill="none" stroke="#000" stroke-linecap="round" stroke-width="3.9961"/>
<path d="m406.9513,878.5254 0,15.4229" fill="none" stroke="#000" stroke-linecap="round" stroke-width="3.9961"/>
<path d="m398.0743,878.2188 0,15.4229" fill="none" stroke="#000" stroke-linecap="round" stroke-width="3.9961"/>
<path d="m426.3626,940.6603c8.3861,-.7945 21.4222,.7361 22.5589,-3.6831" fill="none" stroke="#000" stroke-width=".6445"/>
<path d="m473.6789,880.8988 0,15.4229" fill="none" stroke="#000" stroke-linecap="round" stroke-width="3.9961"/>
<text font-family="Bitstream Vera Sans" font-size="40" x="318.764" y="828.8734">
   <tspan font-family="Courier New" font-size="20" x="318.764" y="828.8734">sudo chmod -x me</tspan>
  </text>
<path d="m421.1321,835.9444 8.0812,28.2843" fill="none" stroke="#000"/>
<g transform="translate(10,-4.2857)">
<path d="M54.8144,767.1525H121.4844V830.1594H54.8144z" fill="none" stroke="#000" stroke-width="2"/>
<path d="M67.8517,767.1747H73.2089V830.0319H67.8517z" stroke="#000" stroke-width="2"/>
<path d="M87.3327,767.1747H92.6898V830.0319H87.3327z" stroke="#000" stroke-width="2"/>
<path d="M105.3851,767.1747H110.7422V830.0319H105.3851z" stroke="#000" stroke-width="2"/>
<path d="m55.0533,202.0076 66.6701,0" fill="none" stroke="#000" transform="translate(0,602.3622)"/>
</g>
<path d="M-736.8521,1351.7584H-658.5471V1511.521H-736.8521z" fill="#fff" stroke="#000" stroke-width="2.2635" transform="matrix(.87233,-.48892,.9268,.37556,0,0)"/>
<g fill="#fff" transform="translate(-17.2741,-38.1258)">
<path d="m662.4251,900.3939 0,-65-25,15 0,-25 25,-15 0,-25 25,-15 0,25 25,-15 0,25-25,15 0,65-25,15" fill="#fff" stroke="#000" stroke-width="2"/>
<path d="m664.1421,901.1515 0,-65-25,15 0,-25 25,-15 0,-25 25,-15 0,25 25,-15 0,25-25,15 0,65-25,15" fill="#fff" stroke="#000" stroke-width="2"/>
<path d="m665.8174,901.6946 0,-65-25,15 0,-25 25,-15 0,-25 25,-15 0,25 25,-15 0,25-25,15 0,65-25,15" fill="#fff" stroke="#000" stroke-width="2"/>
</g>
<text font-family="Bitstream Vera Sans" font-size="20" transform="skewY(331.051)" x="640.5397" y="1147.6088">
   <tspan font-size="12" x="640.5397" y="1147.6088">Hmm...</tspan>
  </text>
<text font-family="Bitstream Vera Sans" font-size="20" x="430.5698" y="722.249">
   <tspan text-align="center" text-anchor="middle" x="430.5698" y="722.249">Pff... ils ne tueront</tspan>
   <tspan text-align="center" text-anchor="middle" x="430.5698" y="747.249">pas un geek comme ça !</tspan>
  </text>
<path d="M396.4286,760.9336 410,804.505" fill="none" stroke="#000"/>
<text font-family="Bitstream Vera Sans" font-size="20" x="777.7386" y="771.0941">
   <tspan text-align="center" text-anchor="middle" x="777.7386" y="771.0941">Genre...</tspan>
  </text>
<path d="m760,785.2193-40,78.5714" fill="none" stroke="#000"/>
</g>
</svg>
