<svg version="1.1" viewBox="0 0 900 450" xmlns="http://www.w3.org/2000/svg" xmlns:svg="http://www.w3.org/2000/svg">
<g transform="translate(0,-602.362)">
<path d="M48.883,686.0699H829.8849A31.621,31.621 0 0 1 861.5059,717.6909V966.0398A31.621,31.621 0 0 1 829.8849,997.6608H48.883A31.621,31.621 0 0 1 17.2619,966.0398V717.6909A31.621,31.621 0 0 1 48.883,686.0699z" fill="#fff" stroke="#000" stroke-linecap="round" stroke-width="7.4907"/>
<path d="m302.4144,897.2037 558.7054,0m-844.2857,0 275.2158,0" fill="none" stroke="#000"/>
<g transform="translate(241.46,-55.4203)">
<path d="m446.8915,78.4154c0,2.9289-27.5427,5.3033-61.5183,5.3033-33.9756,0-61.5183,-2.3744-61.5183,-5.3033 0,-2.9289 27.5427,-5.3033 61.5183,-5.3033 33.9756,0 61.5183,2.3744 61.5183,5.3033z" stroke="#000" stroke-linecap="round" stroke-width="4.862" transform="translate(43.7774,889.01)"/>
<path d="m482.9088,880.5386 0,47.8884c0,20.007-16.1067,36.1137-36.1137,36.1137l-35.434,0c-20.007,0-36.1137,-16.1067-36.1137,-36.1137l0,-47.8884" fill="#fff" stroke="#000" stroke-linecap="round" stroke-linejoin="round" stroke-width="3.6422"/>
<path d="M404.2953,900.3501H427.8293A.7803,.7803 0 0 1 428.6096,901.1304V911.1565A.7803,.7803 0 0 1 427.8293,911.9368H404.2953A.7803,.7803 0 0 1 403.515,911.1565V901.1304A.7803,.7803 0 0 1 404.2953,900.3501z" stroke="#000" stroke-linecap="square" stroke-linejoin="round" stroke-width="3.7338"/>
<path d="M445.6863,900.3501H466.0991A2.3409,2.3409 0 0 1 468.44,902.691V909.5959A2.3409,2.3409 0 0 1 466.0991,911.9368H445.6863A2.3409,2.3409 0 0 1 443.3454,909.5959V902.691A2.3409,2.3409 0 0 1 445.6863,900.3501z" stroke="#000" stroke-linecap="square" stroke-linejoin="round" stroke-width="3.7338"/>
<path d="m377.5555,905.4047c.5492,.0105 1.0986,.007 1.6478,.004 .363,-.002 .7259,-.004 1.0889,-.004 .2925,-4.3e-4 .585,-4e-4 .8775,-4e-4 .304,-6.3e-4 .6081,6e-4 .9121,10e-4 .3906,-.01 .7752,-3.7e-4 1.162,.0507 .3996,.0545 .8031,.0717 1.2062,.0827 .4052,-.0158 .8029,.0589 1.204,.099 .4079,.0368 .818,.0407 1.2274,.045 .4301,.002 .8603,.002 1.2904,6.5e-4 .3736,-7.6e-4 .7472,-10e-4 1.1208,-.002 .307,-7.7e-4 .6141,-9.8e-4 .9211,-10e-4 .2915,-8e-5 .583,-7e-5 .8745,-6e-5 .2915,10e-6 .5831,10e-6 .8746,10e-6 .3187,-3.9e-4 .6374,5.3e-4 .9561,.002 .3943,.002 .7885,4.4e-4 1.1828,-6.3e-4 .3709,-2.7e-4 .7418,4.7e-4 1.1126,10e-4 .3967,-1.7e-4 .7934,-8e-5 1.1902,-10e-4 .38,1.9e-4 .7599,7.4e-4 1.1399,1.6e-4 .3456,-10e-4 .6912,-10e-4 1.0367,2.5e-4 .5332,.003 1.0664,.004 1.5996,.006 .7266,.003 1.4533,.003 2.1799,10e-4 .5332,-10e-4 1.0664,-.005 1.5997,-.005 .4413,6.5e-4 .8826,-2e-5 1.3239,-10e-4 .0611,-2e-4 .1222,-4e-4 .1833,-6e-4l-1.746,1.1993c-.0605,-2.1e-4-.121,-4.1e-4-.1815,-6.1e-4-.4399,-10e-4-.8797,-.002-1.3196,-.002-.528,-2.2e-4-1.0559,-.004-1.5839,-.005-.7276,-.002-1.4552,-.002-2.1828,9.9e-4-.5391,.002-1.0782,.003-1.6173,.006-.3458,.002-.6916,.002-1.0375,2.6e-4-.3801,-5.7e-4-.7602,-3e-5-1.1404,1.5e-4-.3957,-9.9e-4-.7914,-8.9e-4-1.187,-10e-4-.3723,10e-4-.7447,.002-1.117,.002-.3937,-10e-4-.7873,-.003-1.181,-6.3e-4-.3206,.001-.6411,.002-.9617,.002-.2915,0-.5831,0-.8747,0-.2914,0-.5829,2e-5-.8743,-6e-5-.306,-1.3e-4-.612,-3.5e-4-.918,-9.6e-4-.372,-6.9e-4-.744,-8.4e-4-1.1161,-8.8e-4-.4302,-8.3e-4-.8603,7e-4-1.2904,-.004-.4148,-.006-.8303,-.0145-1.2428,-.0595-.3968,-.0446-.792,-.0972-1.193,-.0869-.4078,-.0152-.8149,-.0435-1.2193,-.0968-.382,-.0404-.7654,-.0292-1.1493,-.0278-.3051,5.6e-4-.6103,.002-.9155,.001-.2921,10e-6-.5842,3e-5-.8763,-4e-4-.3589,-6.7e-4-.7177,-.002-1.0765,-.004-.5532,-.003-1.1065,-.006-1.6597,.004l1.7494,-1.2016z" stroke="#000" stroke-linecap="square" stroke-linejoin="round" stroke-width=".4767"/>
<path d="m469.0503,905.6813c.7039,.0118 1.4079,.0102 2.1119,.01 .6452,-8.9e-4 1.2905,-.003 1.9357,-.006 .4312,-.002 .8624,-.002 1.2935,-.003 .3398,-8.1e-4 .6796,-.002 1.0194,-.002 .2968,.0217 .5821,-.0575 .8738,-.0956 .2926,-.0341 .5877,-.039 .8821,-.0425 .2922,-.002 .5843,-10e-4 .8765,-8.4e-4 .2918,4e-4 .5836,5.3e-4 .8754,6.1e-4 .2918,5e-5 .5836,5e-5 .8754,5e-5 .2918,0 .5836,0 .8754,0 .3133,-6.1e-4 .6266,10e-4 .9398,10e-4 .3172,-2.5e-4 .6345,-6.9e-4 .9517,-9.3e-4 .2938,-1.8e-4 .5877,-2e-4 .8815,-2.1e-4 .1943,-10e-6 .0972,-10e-6 .2915,-10e-6l-1.7509,1.2027c-.1943,0-.0971,0-.2914,0-.2936,-2e-5-.5872,-4e-5-.8808,-2.2e-4-.3164,-2.3e-4-.6327,-6.8e-4-.9491,-9.3e-4-.3144,4e-5-.6287,.002-.9431,10e-4-.2918,10e-6-.5836,10e-6-.8754,10e-6-.2918,-10e-6-.5836,-10e-6-.8754,-1.2e-4-.2918,-1.3e-4-.5837,-3.7e-4-.8755,-7.2e-4-.2913,-2.3e-4-.5826,-10e-4-.8738,.004-.2893,.007-.5791,.0195-.8653,.0636-.2961,.0452-.5905,.0907-.8921,.0705-.3377,-4.3e-4-.6755,-10e-4-1.0132,-.002-.4283,-5.4e-4-.8565,-6.3e-4-1.2848,-.003-.6398,-.003-1.2796,-.005-1.9195,-.006-.7134,-4.8e-4-1.4269,-.002-2.1402,.01l1.747,-1.2z" stroke="#000" stroke-linecap="square" stroke-linejoin="round" stroke-width=".4767"/>
<path d="m428.7575,905.8446c.5339,.0676 1.0726,.0889 1.6105,.1048 .4801,.0116 .9604,.0116 1.4405,.0103 .3964,-5e-4 .7929,-6.3e-4 1.1893,-.002 .7958,.0205 1.592,.0104 2.3879,.007 .4809,-.004 .9619,-.005 1.4428,-.007 .3835,3e-5 .767,-4.2e-4 1.1506,6e-4 .4032,10e-4 .8064,-9.5e-4 1.2096,-3.1e-4 .3638,-8.6e-4 .7277,-7.6e-4 1.0915,-6.6e-4 .3644,5.6e-4 .7288,2.2e-4 1.0931,-5.1e-4 .3481,10e-4 .6961,1.1e-4 1.0442,-4.5e-4 .3406,10e-4 .6811,4.5e-4 1.0217,-4e-5 .3008,-4.3e-4 .6016,-5.6e-4 .9024,-6.3e-4 .2516,.0585 .5047,.1006 .7628,.1209 .2799,.0172 .5606,.0173 .8409,.018 .2917,1.9e-4 .5833,-3.9e-4 .875,-6.8e-4 .146,-1.4e-4 .292,-2e-4 .4381,-2.6e-4l-1.7508,1.2027c-.146,10e-5-.292,1.9e-4-.438,3.5e-4-.292,3.2e-4-.584,10e-4-.876,-3.9e-4-.2852,-.002-.5709,-.005-.8549,-.0331-.2506,-.0293-.496,-.0897-.7478,-.105-.3002,-8e-5-.6004,-2e-4-.9006,-6.3e-4-.3405,-4.8e-4-.681,-10e-4-1.0215,-5e-5-.3476,-5.5e-4-.6953,-.002-1.0429,-4.4e-4-.3639,-7.3e-4-.7278,-10e-4-1.0916,-5.1e-4-.3632,1.1e-4-.7264,1.9e-4-1.0895,-6.6e-4-.4029,6.4e-4-.8058,-.002-1.2087,-3.1e-4-.3841,10e-4-.7682,5.8e-4-1.1523,6e-4-.4742,-.002-.9483,-.003-1.4224,-.007-.8027,-.004-1.6058,-.0132-2.4083,.007-.3958,-4.3e-4-.7915,4.6e-4-1.1873,-3.6e-4-.4785,-.003-.957,-.007-1.4353,-.0226-.5477,-.0212-1.0947,-.0538-1.64,-.107l1.7673,-1.1825z" stroke="#000" stroke-linecap="square" stroke-linejoin="round" stroke-width=".4767"/>
<path d="m390.253,868.0313 0,18.5432" fill="none" stroke="#000" stroke-linecap="round" stroke-width="4.8046"/>
<path d="m399.777,866.2769 0,18.5432" fill="none" stroke="#000" stroke-linecap="round" stroke-width="4.8046"/>
<path d="m408.7139,867.7412 0,18.5432" fill="none" stroke="#000" stroke-linecap="round" stroke-width="4.8046"/>
<path d="m420.3907,866.574 0,18.5432" fill="none" stroke="#000" stroke-linecap="round" stroke-width="4.8046"/>
<path d="m430.5493,868.7606 0,18.5432" fill="none" stroke="#000" stroke-linecap="round" stroke-width="4.8046"/>
<path d="m442.1786,868.5852 0,18.5432" fill="none" stroke="#000" stroke-linecap="round" stroke-width="4.8046"/>
<path d="m452.6811,866.871 0,18.5432" fill="none" stroke="#000" stroke-linecap="round" stroke-width="4.8046"/>
<path d="m462.5965,869.9079 0,18.5432" fill="none" stroke="#000" stroke-linecap="round" stroke-width="4.8046"/>
<path d="m473.2695,869.5393 0,18.5432" fill="none" stroke="#000" stroke-linecap="round" stroke-width="4.8046"/>
<path d="m382.3688,872.7615 0,18.5432" fill="none" stroke="#000" stroke-linecap="round" stroke-width="4.8046"/>
<path d="m407.1429,938.0554 20.7143,5" fill="none" stroke="#000"/>
</g>
<path d="m576.5036,682.7553 0,313.8904" fill="none" stroke="#000" stroke-width="5.6784"/>
<path d="m290.7935,682.0306 0,313.8904" fill="none" stroke="#000" stroke-width="5.6784"/>
<path d="m839.7203,1016.8936c.4393,.5102 1.0355,.5714 1.6702,.6073 .8029,-.022 1.6072,-.2139 2.3575,-.4994 .4009,-.1525 .6224,-.2824 .9965,-.4788-2.2386,1.3097-.9924,.6082-.5738,.1636 .2168,-.2303 .3463,-.473 .4686,-.7606 .3177,-.895 .3589,-1.8574 .4131,-2.7971 .1056,-1.3679-.1776,-2.7108-.4825,-4.0351-.3709,-1.393-.8746,-2.7467-1.4293,-4.0757-.2656,-.628-.5661,-1.2401-.8587,-1.8556-.3944,-.7567-.717,-.2868 1.5104,-1.1508 .0768,-.03 .0919,.1367 .1411,.2027 .0823,.1106 .1689,.218 .2533,.327 .8217,1.1275 1.8098,2.1155 2.8001,3.0928 .5826,.5674 1.2073,1.094 1.7645,1.6873 .2114,.1727 .3378,.416 .508,.6229 .1662,.1502 .2962,-.01 .4431,-.1106-2.5656,1.5384-1.6519,1.0412-1.1599,.5695 .1937,-.1858 .3764,-.3843 .5618,-.5782 .2632,-.2626 .5127,-.5438 .801,-.7804 .761,-.6244 1.8227,-1.1234 2.6097,-1.5711 .7271,-.3211 1.471,-.6005 2.2265,-.8467 .1563,-.034 .761,-.2664 .899,-.1093 .0321,.037 .0451,.086 .0677,.1294 .003,.044 .0154,.088 .009,.1323-.0436,.3197-.5385,.6916-.7545,.8904-.9928,.8208-1.9561,1.6745-2.8731,2.5792-.7976,.8557-1.6216,1.7004-2.2566,2.6874-.3921,.6165-.6005,1.2972-.6984,2.0144-.0648,.6415-.0542,1.2873-.0532,1.9312 .0351,.6998 .1244,1.4011 .3328,2.0715 .1195,.3571 .3319,.6194 .6717,.7762 .2255,.08 .4837,.1318 .7238,.087 .0559,-.01 .5216,-.1683 .5589,-.1808 .5492,-.2997 1.8756,-1.0005-.6067,.3599-.0982,.054 .1891,-.1202 .2821,-.1824 .2138,-.1431 .2651,-.1851 .4657,-.3347 .2405,-.18 .1266,-.092 .3424,-.2616l1.7191,-.6914c-.2178,.1831-.1012,.092-.3516,.2719-1.0139,.7828-2.137,1.4308-3.3009,1.9611-.5107,.1525-.8878,.2254-1.3851,-.01-.3662,-.2065-.6055,-.5061-.7343,-.9112-.2041,-.6903-.2811,-1.4089-.3481,-2.1237-.004,-.6503-.0146,-1.3022 .038,-1.9509 .0928,-.7432 .2887,-1.4525 .6884,-2.0955 .0801,-.1333 .153,-.2712 .2404,-.3997 .1797,-.264 .4481,-.5661 .6529,-.8036 .4526,-.5248 .9157,-1.0402 1.3938,-1.5419 .8918,-.8997 1.8318,-1.7498 2.8066,-2.5592 .2761,-.2563 .5618,-.5063 .8001,-.7993 .0396,.021-.0878,.017-.1321,.024-.221,.031-.4338,.1-.6466,.1641-.7471,.2466-1.4866,.5202-2.1959,.8624 2.4446,-1.4458 .9748,-.6249 .497,-.2573-.291,.224-.54,.5005-.7953,.7622-.9257,.9766-.9789,1.08-2.545,1.8884-.2567,.1213-.4002,.1069-.6009,-.1041-.1584,-.2095-.2854,-.443-.481,-.6232-.5334,-.6026-1.1282,-1.1493-1.6932,-1.7213-.9808,-.9984-1.9767,-1.985-2.8496,-3.0818-.0938,-.1054-.1877,-.2108-.2814,-.3163-.0521,-.059-.2154,-.125-.1559,-.1761 1.4141,-1.2139 1.334,-1.5318 1.6993,-.7303 .2757,.6281 .5663,1.2498 .8171,1.8885 .5249,1.353 1.0089,2.7232 1.4053,4.1198 .3185,1.3302 .6335,2.6814 .5419,4.0599-.0362,.9485-.0918,1.9144-.3493,2.8318-.0847,.2347-.1139,.3545-.249,.5692-.5938,.9436-1.8747,1.3891-2.7166,1.9248-1.0714,.5265-2.2113,.8988-3.4172,.9043-.1676,-.013-.3365,-.016-.5029,-.04-.4955,-.073-.9575,-.2895-1.3004,-.6569l1.6003,-.9608z" stroke="#000" stroke-linecap="round" stroke-linejoin="round" stroke-width=".2515"/>
<path d="m855.0849,1014.7368c-.7394,.2071-2.342,1.1965 .4556,-.4044-.388,.2065-.6184,.5425-.7999,.9302-.1036,.3106-.2142,.651-.1917,.9845 .0156,.2306 .0756,.3465 .154,.562 .3071,.6067 .7794,1.1058 1.3399,1.4838 .4137,.2881 .8839,.4191 1.383,.4252 .3851,-.088 .743,-.2375 1.0957,-.4124 .1503,-.074 .5909,-.3178 .4467,-.232-1.6618,.9892-1.2456,.7222-.6575,.3195 .4842,-.373 1.0105,-.8057 1.1352,-1.4399 .0174,-.089 .0162,-.1799 .0243,-.2698-.032,-.7933-.5333,-1.4143-1.0169,-2.0008-.3049,-.3393-.6501,-.6629-1.0669,-.861-.2115,-.1006-.32,-.1184-.544,-.1779-.4519,-.025-.9255,.018-1.3546,.1741-.1984,.072-.499,.2394-.6834,.3368 2.5132,-1.5077 .8665,-.5123 .3482,-.062l-1.7106,.6998c.796,-.7657 1.8589,-1.2169 2.7842,-1.7769 .2686,-.1306 .4271,-.2208 .7141,-.308 .4568,-.1387 .9485,-.171 1.419,-.1017 .2419,.077 .34,.097 .5672,.2177 .4231,.2255 .772,.5679 1.084,.9255 .5088,.6265 1.0253,1.2756 1.1028,2.1095-.004,.1011 .002,.2032-.0112,.3035-.0928,.6825-.6005,1.1676-1.1167,1.5708-1.0013,.7186-.4882,.3708-2.4236,1.4671-.5043,.2856-1.0559,.5275-1.6351,.5951-.5218,-.046-1.0072,-.1999-1.4323,-.5165-.5749,-.4194-1.0583,-.9487-1.3949,-1.5795-.0785,-.2055-.1678,-.4012-.1946,-.6229-.0421,-.3472 .0735,-.712 .1572,-1.0429 .1608,-.4086 .3649,-.7959 .7491,-1.0357 .9031,-.5199 1.7482,-1.1164 2.7557,-1.3944l-1.4819,1.1332z" stroke="#000" stroke-linecap="round" stroke-linejoin="round" stroke-width=".2515"/>
<path d="m862.881,1015.4913c-.3202,.1024-.653,.1903-.9574,.3361-.1022,.049-.1982,.1101-.2973,.1652 .4207,-.2356 .8414,-.4712 1.2621,-.7068-.4994,.337-.87,.6738-1.0934,1.2386-.1462,.4653-.0761,.8587 .2923,1.2028 .0889,.083 .1935,.1478 .2903,.2216 .7042,.4046 1.5378,.5494 2.3444,.4638 .2312,-.024 .458,-.081 .687,-.1208 .53,-.1368 .7609,-.1749 1.2586,-.3838 .1651,-.069 .635,-.3304 .4812,-.2386-2.2382,1.3365-1.2251,.7542-.8736,.3984 .078,-.079 .1399,-.1722 .2098,-.2583 .3065,-.4796 .3144,-.9061 .0985,-1.417-.0396,-.09-.268,-.5604-.4291,-.4586-.0279,.018-.042,.051-.063,.076 2.5422,-1.4496 1.5743,-1.2072 1.3277,-.5007-.1064,.3049-.125,.6013-.1396,.9215 .1766,1.4863 .8332,2.8625 1.3726,4.2435 .6559,1.8244 1.2881,3.7176 1.3609,5.6744 .0145,.3894-.0234,.7791-.0351,1.1686-.0582,.3745-.0908,.754-.1745,1.1236-.2732,1.2059-.8948,2.3097-1.8179,3.137-.1627,.1458-.3469,.2657-.5204,.3986-.6941,.3626-1.3544,.7991-2.0824,1.0879-.3018,.1197-1.0302,-.13-1.2689,-.2365-.8875,-.3956-1.654,-1.0455-2.408,-1.6406-1.2719,-1.0888-2.5172,-2.2245-3.6551,-3.4553-.5895,-.6375-.7352,-.8521-1.2472,-1.5117-.4358,-.7271-.9494,-1.57-.521,-2.4271 .2535,-.5072 .5595,-.6912 .9842,-1.0605 1.2727,-.8247 1.3769,-.9186 3.2195,-1.8517 .4497,-.2277 1.9,-.7427 2.3438,-.8975 .8851,-.3088 1.8369,-.6148 2.7269,-.9056 2.3381,-.6744 4.6281,-1.4959 6.8914,-2.3864 .1921,-.082 .3845,-.1627 .5764,-.245 .1466,-.063 .2943,-.1233 .439,-.1904 .2958,-.137 .5721,-.3066 .8773,-.4229 .4138,-.059 .559,.4392 .6828,.7419 .2853,.7705 .446,1.5785 .5154,2.3953 .0171,.366 .029,.7337-.0228,1.0975-.005,.037 .0139,.095-.0201,.1109-.5544,.2582-1.1333,.4601-1.6999,.6902 10e-4,-.1126-.005,-.2255 .004,-.3377 .0133,-.1633 .0414,-.3251 .063,-.4875 .1257,-.9478 .2903,-1.8831 .4832,-2.8195 .1955,-.8169 .3644,-1.6723 .8312,-2.3853 .5286,-.5535 1.7043,-1.6447 2.2768,-1.0096 .0599,.067 .1019,.1472 .1529,.2208 .112,.1981 .2088,.3486 .2821,.568 .2061,.6172 .2986,1.3406 .4077,1.9824 .1424,.5555 .0881,1.2208 .2567,1.7655 .2229,-.5988-.002,.028-1.6032,.791-.0325,.015 .0489,-.053 .0671,-.085 .0417,-.071 .1233,-.28 .1551,-.3442 .0434,-.087 .0929,-.1719 .1393,-.2578 .3011,-.4826 .556,-.9925 .8877,-1.4553 .5547,-.695 1.0736,-.8467 2.0338,-1.3744 .0329,-.018 .0773,-.01 .1126,0 .045,.016 .08,.053 .12,.079 .3755,.395 .5063,.9539 .6331,1.4682 .1102,.56 .1691,1.1313 .374,1.667 .0499,.07 .0906,.1479 .1496,.2106 .4298,.4569 1.1407,.7985 1.727,.9843 .2206,.07 .4479,.1166 .6718,.1749 .9481,.2366 1.8995,.2483 2.8425,-.011 .2087,-.057 .4184,-.1172 .6161,-.2054 .1842,-.082 .3491,-.2019 .5237,-.3029-.3631,.1874-.6996,.4397-1.0894,.5622-.1503,.047 .2339,-.2118 .3412,-.3272 .3164,-.3401 .4973,-.7183 .6246,-1.1582 .0873,-.3664 .0858,-.7428 .0757,-1.1166-.1021,-.7716-.7838,-.012 1.5762,-.9706 .043,-.017-.0252,.09-.0325,.1353-.0105,.067-.0137,.1343-.0206,.2014-.0335,.6079-.0474,1.2172 .0202,1.8229 .0688,.3897 .1433,.7878 .4487,1.0613 .2149,.1415 .443,.1511 .6803,.073 .5712,-.2882 1.4287,-.7883-1.1689,.6781-.0922,.052 .1782,-.1142 .2658,-.1736l1.729,-.6875c-.1339,.1099-.1095,.099-.2632,.1885-.5841,.3415-1.3074,.9119-2.0466,1.1199-.2885,.031-.5575,-.032-.7831,-.2236-.314,-.3274-.4164,-.7448-.4864,-1.185-.0743,-.6127-.0594,-1.2282-.0514,-1.8445 .002,-.082 .01,-.3683 .0155,-.3721 1.2231,-.8124 1.6185,-1.5813 1.7738,-.6732 .009,.3928 .009,.788-.0729,1.1745-.4026,1.604-1.4656,1.9694-2.9269,2.8345-.1797,.091-.3518,.1981-.539,.2718-1.1255,.4431-2.3519,.4076-3.5096,.13-.2313,-.061-.4661,-.1105-.6938,-.1839-.5824,-.188-1.4014,-.59-1.8309,-1.0419-.0708,-.074-.1217,-.1654-.1826,-.2481-.2042,-.5463-.263,-1.1251-.3681,-1.696-.1059,-.4424-.211,-.9895-.5766,-1.2965-.0862,.011-.0417,0-.1309,.047 .494,-.2933 .9881,-.5865 1.4821,-.8798 .0418,-.024-.0765,.059-.1115,.092-.088,.083-.1593,.1827-.2543,.2588-.3546,.4458-.6103,.9514-.9065,1.4362-.1113,.1906-.2033,.3719-.2742,.581-.0144,.043 .002,.1065-.0369,.1297-1.6717,1.0055-1.301,1.4123-1.7676,.8263-.1403,-.5915-.0684,-1.2195-.2051,-1.8138-.1337,-.8319-.2366,-1.7229-.6888,-2.4507-.0786,-.094-.1124,-.1812-.2373,-.2043-.0338,-.01-.1319,.028-.1027,.01 .4848,-.3028 .9881,-.5749 1.4781,-.8692 .044,-.026-.0961,.038-.1396,.065-.0513,.032-.0953,.075-.1429,.1121-.5512,.6573-.7174,1.5447-.9403,2.3498-.2511,1.1609-.4667,2.3382-.5021,3.5279-.5413,.3318-1.0717,.6822-1.624,.9954-.0304,.017 .0302,-.063 .04,-.097 .1011,-.3479 .0723,-.7161 .0723,-1.073-.0467,-.7985-.196,-1.5926-.501,-2.3352-.0582,-.1343-.1651,-.5237-.3687,-.5375-.0472,0-.1338,.034-.1714,.048-.6021,.2681-1.1868,.5758-1.8125,.79-2.2433,.8437-4.5057,1.6345-6.8063,2.3092-1.3354,.4418-2.6801,.8688-3.988,1.3886-.3765,.1496-.7211,.3958-1.1182,.4762-.2039,.041 .7012,-.4449 .5142,-.3538-.2728,.1328-.5155,.32-.7733,.48-.4814,.3865-1.0718,.7863-1.1859,1.4525-.1123,.6558 .3053,1.2621 .5878,1.8057 .1747,.2387 .3409,.4838 .524,.716 1.2506,1.586 2.7723,2.9468 4.3216,4.2314 .7601,.5675 1.5353,1.2021 2.4338,1.5462 .2074,.079 .4249,.1396 .6456,.1641 .1883,.021 .6695,-.1886 .5676,-.029-.2123,.3325-.6509,.446-.9763,.669 .1821,-.1271 .3749,-.2403 .5464,-.3814 .9528,-.7839 1.6207,-1.8661 1.9179,-3.062 .0903,-.3634 .1256,-.7382 .1884,-1.1074 .0181,-.3841 .0641,-.768 .0543,-1.1525-.0495,-1.9411-.7079,-3.8142-1.3712,-5.6146-.5628,-1.3918-1.2476,-2.7639-1.4927,-4.2575-.008,-.3536 4.4e-4,-.6227 .086,-.9647 .005,-.019 .0997,-.3597 .142,-.3888 .5428,-.3738 1.1209,-.6937 1.6814,-1.0405 .0426,0 .0866,0 .1279,.01 .2648,.072 .3917,.401 .5024,.6157 .2357,.5565 .268,1.0516-.0318,1.5983-.068,.097-.1268,.202-.2041,.2923-.5521,.6452-1.6564,1.098-2.2184,1.4107-.5375,.2991-1.1558,.4269-1.747,.5653-.2367,.035-.4715,.087-.71,.1066-.852,.07-1.7224,-.083-2.4497,-.5408-.1044,-.083-.2169,-.1575-.3133,-.25-.4073,-.3914-.5345,-.8233-.3997,-1.3636 .2032,-.6461 .5218,-.9588 1.0648,-1.3565 1.0479,-.6191 1.9953,-1.302 3.1758,-1.5918l-1.4819,1.1332z" stroke="#000" stroke-linecap="round" stroke-linejoin="round" stroke-width=".2515"/>
<path d="m888.2918,1009.8416c-.2243,.2632-.4035,.5643-.4888,.9007-.0611,.3364 .1396,.4226 .4154,.5433 .4462,.1634 .8277,.1455 1.2847,.065 .6111,-.2095 1.5817,-.8065-1.1348,.6921-.0381,.021 .0724,-.049 .1046,-.078 .0766,-.07 .0844,-.099 .1345,-.1864 .0923,-.207 .0832,-.4007-.0356,-.5914-.1581,-.1498-.3958,-.1358-.5998,-.1457-.2107,.019-.4113,.072-.5826,.1981l1.4548,-1.1717c.2072,-.078 .4191,-.1279 .6429,-.1101 .2663,.026 .5282,.064 .7009,.2916 .1406,.2366 .1962,.4812 .1149,.7512-.2947,.8893-1.4141,1.2488-2.2801,1.4605-.4615,.058-.9177,.033-1.3515,-.1527-.3119,-.1609-.5915,-.3623-.5442,-.7527 .0576,-.3624 .2344,-.6871 .4467,-.9831l1.718,-.73z" stroke="#000" stroke-linecap="round" stroke-linejoin="round" stroke-width=".2515"/>
<path d="m864.4472,1014.3734c.3537,-.172 .6913,-.3752 1.0561,-.5235 .2286,-.1484 .4794,-.217 .7469,-.2463 .246,-.019 .4931,-.016 .7396,-.015 .2447,-.026 .452,.041 .667,.1458 .1505,.1206 .2692,.2808 .3835,.4358 .0994,.1805 .1578,.383 .2189,.5797 .0548,.2016 .1295,.3942 .169,.6001 .038,.2418 .0406,.4871 .0436,.7313 10e-4,.1259 9.1e-4,.2518 8.4e-4,.3777l-1.662,.8466c1.7e-4,-.1253 4.3e-4,-.2505-1.3e-4,-.3758-.002,-.2343-.002,-.4696-.0316,-.7024-.0328,-.2008-.1062,-.3854-.1597,-.5802-.0519,-.177-.1078,-.3572-.1882,-.5222-.0978,-.1282-.193,-.2747-.3336,-.3577-.1975,-.086-.4034,-.091-.6168,-.082-.2413,10e-4-.4842,-10e-5-.7231,.039-.2526,.053-.4803,.1621-.7103,.2775-.3579,.1664-.704,.3572-1.0509,.5451l1.4507,-1.1736z" stroke="#000" stroke-linecap="round" stroke-linejoin="round" stroke-width=".2515"/>
<path d="M58.8101,650.7636H245.6884A15.9099,15.9099 0 0 1 261.5983,666.6735V666.6735A15.9099,15.9099 0 0 1 245.6884,682.5834H58.8101A15.9099,15.9099 0 0 1 42.9002,666.6735V666.6735A15.9099,15.9099 0 0 1 58.8101,650.7636z" fill="#fff" stroke="#000" stroke-linecap="round" stroke-linejoin="round" stroke-width="4"/>
<path d="m101.5203,44.9288c0,19.2473-16.5075,34.8503-36.8706,34.8503-20.3631,0-36.8706,-15.603-36.8706,-34.8503 0,-19.2473 16.5075,-34.8503 36.8706,-34.8503 20.3631,0 36.8706,15.603 36.8706,34.8503z" stroke="#000" stroke-linecap="round" stroke-linejoin="round" stroke-width="7.491" transform="matrix(.7121,0,0,.7121,-2.3861,628.387)"/>
<text font-family="Bitstream Vera Sans" font-size="40" x="18.5489" y="675.1353">
   <tspan fill="#f9f9f9" x="18.5489" y="675.1353">90</tspan>
  </text>
<text font-family="Bitstream Vera Sans" font-size="20" x="127.316" y="673.441">
   <tspan x="127.316" y="673.441">Debug</tspan>
  </text>
<text font-family="Bitstream Vera Sans" font-size="20" x="657.609" y="761.439">
   <tspan x="657.609" y="761.439"></tspan>
  </text>
<text font-family="Bitstream Vera Sans" font-size="20" x="273.977" y="275.153">
   <tspan text-align="center" text-anchor="middle" x="273.977" y="275.153"></tspan>
  </text>
<text font-family="Bitstream Vera Sans" font-size="20" x="834.732" y="-186.795">
   <tspan text-align="center" text-anchor="middle" x="834.732" y="-186.795"></tspan>
  </text>
<text font-family="Bitstream Vera Sans" font-size="20" x="603.571" y="-3.648">
   <tspan x="603.571" y="-3.648"></tspan>
  </text>
<g transform="translate(569.979,2.8571)">
<path d="M-1012.4431,1394.14H-783.5285V1437.363H-1012.4431z" opacity=".99" stroke="#000" stroke-linecap="round" stroke-width="2.375" transform="matrix(1,0,.74329,.66897,0,0)"/>
<path d="m446.8915,78.4154c0,2.9289-27.5427,5.3033-61.5183,5.3033-33.9756,0-61.5183,-2.3744-61.5183,-5.3033 0,-2.9289 27.5427,-5.3033 61.5183,-5.3033 33.9756,0 61.5183,2.3744 61.5183,5.3033z" stroke="#000" stroke-linecap="round" stroke-width="4.862" transform="translate(-271.937,826.572)"/>
<path d="M61.8341,908.8735H66.8341A3.5714,3.5714 0 0 1 70.4055,912.4449V953.1592A3.5714,3.5714 0 0 1 66.8341,956.7306H61.8341A3.5714,3.5714 0 0 1 58.2626,953.1592V912.4449A3.5714,3.5714 0 0 1 61.8341,908.8735z" fill="#fff" opacity=".99" stroke="#000" stroke-linecap="round" stroke-width="3"/>
<path d="M37.1912,889.2306H42.1912A3.5714,3.5714 0 0 1 45.7626,892.8021V933.5164A3.5714,3.5714 0 0 1 42.1912,937.0878H37.1912A3.5714,3.5714 0 0 1 33.6198,933.5164V892.8021A3.5714,3.5714 0 0 1 37.1912,889.2306z" fill="#fff" opacity=".99" stroke="#000" stroke-linecap="round" stroke-width="3"/>
<path d="M263.7983,913.3378H268.7983A3.5714,3.5714 0 0 1 272.3698,916.9092V957.6235A3.5714,3.5714 0 0 1 268.7983,961.1949H263.7983A3.5714,3.5714 0 0 1 260.2269,957.6235V916.9092A3.5714,3.5714 0 0 1 263.7983,913.3378z" fill="#fff" opacity=".99" stroke="#000" stroke-linecap="round" stroke-width="3"/>
<path d="M239.1555,893.6949H244.1555A3.5714,3.5714 0 0 1 247.7269,897.2664V937.9807A3.5714,3.5714 0 0 1 244.1555,941.5521H239.1555A3.5714,3.5714 0 0 1 235.584,937.9807V897.2664A3.5714,3.5714 0 0 1 239.1555,893.6949z" fill="#fff" opacity=".99" stroke="#000" stroke-linecap="round" stroke-width="3"/>
<path d="M-964.07,1329.5411H-735.1554V1372.7641H-964.07z" fill="#fff" opacity=".99" stroke="#000" stroke-linecap="round" stroke-width="2.375" transform="matrix(1,0,.74329,.66897,0,0)"/>
<path d="M-962.2843,1324.7363H-733.3697V1367.9593H-962.2843z" fill="#fff" opacity=".99" stroke="#000" stroke-linecap="round" stroke-width="2.375" transform="matrix(1,0,.74329,.66897,0,0)"/>
<path d="m235.584,910.6592-25,-21.4286 0,-81.7857 37.8571,0 25.7143,20.7143" fill="#fff" opacity=".99" stroke="#000" stroke-linecap="round" stroke-width="3"/>
<path d="M-1360.6853,1700.8875H-1289.1114V1718.3628H-1360.6853z" fill="#fff" opacity=".99" stroke="#000" stroke-linecap="round" stroke-width="3.3582" transform="matrix(1,0,.85223,.52316,0,0)"/>
<path d="M236.4769,828.8735H274.3341V910.6592H236.4769z" fill="#fff" opacity=".99" stroke="#000" stroke-linecap="round" stroke-width="3"/>
<path d="M240.8453,857.8847H269.6085V881.2908H240.8453z" fill="#fff" opacity=".99" stroke="#000" stroke-linecap="round" stroke-width="1.8796"/>
<path d="m236.4769,829.2304-5.2679,-5.2679" fill="none" stroke="#000" stroke-width="3"/>
<path d="m211.8341,875.3018c1.1674,55.3978 25.5214,99.341 36.4286,-8.2143" fill="none" stroke="#000"/>
<path d="m71.8341,901.7304c47.2495,14.1525 54.0914,82.1889 191.4286,-27.8571" fill="none" stroke="#000"/>
<path d="m132.3698,900.1234c47.9124,12.2799 127.8431,95.7648 117.8572,-20.7143" fill="none" stroke="#000"/>
<path d="M247.7269,861.5521H248.7983V867.0878H247.7269z" opacity=".99" stroke="#000" stroke-linecap="round"/>
<path d="M262.9055,868.4271H263.9769V873.9628H262.9055z" opacity=".99" stroke="#000" stroke-linecap="round"/>
<path d="M250.0483,874.1414H251.1197V879.6771H250.0483z" opacity=".99" stroke="#000" stroke-linecap="round"/>
<path d="m263.2626,901.0161c-5.636,61.344-45.0104,90.8932-3.7352,68.4521 4.6602,-2.5337 25.2726,-5.0428 30.8781,-21.3093" fill="none" stroke="#000" stroke-width="2"/>
<path d="m266.25,295.8929c0,1.578-1.8788,2.8571-4.1964,2.8571-2.3176,0-4.1964,-1.2792-4.1964,-2.8571 0,-1.5779 1.8788,-2.8571 4.1964,-2.8571 2.3176,0 4.1964,1.2792 4.1964,2.8571z" opacity=".99" stroke="#000" stroke-linecap="round" stroke-width="2" transform="translate(1.2983,604.588)"/>
<path d="m72.8301,292.8571c0,4.1421-2.946,7.5-6.5801,7.5-3.6341,0-6.5801,-3.3579-6.5801,-7.5 0,-4.1421 2.946,-7.5 6.5801,-7.5 3.6341,0 6.5801,3.3579 6.5801,7.5z" fill="#fff" opacity=".99" stroke="#000" stroke-linecap="round" stroke-width="2" transform="matrix(1,0,.46219,1,-133.163,602.802)"/>
<path d="m65.0483,899.2304c2.6981,-.8843 4.2829,-2.9995 8.9286,-4.2857" fill="none" stroke="#000"/>
<path d="m70.1376,896.284c2.4362,1.4094 3.1631,3.7535 3.8393,6.1607" fill="none" stroke="#000"/>
<path d="m100.2269,892.2663 57.1429,0" fill="none" stroke="#000"/>
<path d="m103.2626,894.2306 57.1429,0" fill="none" stroke="#000"/>
<path d="m107.0126,896.1948 57.1429,0" fill="none" stroke="#000"/>
<g transform="translate(26.7907,.4398)">
<path d="M113.2143,798.4336H198.2143A5.7143,5.7143 0 0 1 203.9286,804.1479V872.3622A5.7143,5.7143 0 0 1 198.2143,878.0765H113.2143A5.7143,5.7143 0 0 1 107.5,872.3622V804.1479A5.7143,5.7143 0 0 1 113.2143,798.4336z" fill="#fff" opacity=".99" stroke="#000" stroke-linecap="round" stroke-width="3"/>
<path d="M130,815.2194H190.7143A5.7143,5.7143 0 0 1 196.4286,820.9336V867.0051A5.7143,5.7143 0 0 1 190.7143,872.7194H130A5.7143,5.7143 0 0 1 124.2857,867.0051V820.9336A5.7143,5.7143 0 0 1 130,815.2194z" fill="#fff" opacity=".99" stroke="#000" stroke-linecap="round" stroke-width="3"/>
<path d="M141.9643,903.8132H184.1071A2.6562,2.6562 0 0 1 186.7633,906.4693V906.4693A2.6562,2.6562 0 0 1 184.1071,909.1255H141.9643A2.6562,2.6562 0 0 1 139.3081,906.4693V906.4693A2.6562,2.6562 0 0 1 141.9643,903.8132z" fill="#fff" opacity=".99" stroke="#000" stroke-linecap="round" stroke-width="2.3305"/>
<path d="M156.0714,242.1429H170.3571A5.7143,5.7143 0 0 1 176.0714,247.8571V297.5A5.7143,5.7143 0 0 1 170.3571,303.2143H156.0714A5.7143,5.7143 0 0 1 150.3571,297.5V247.8571A5.7143,5.7143 0 0 1 156.0714,242.1429z" fill="#fff" opacity=".99" stroke="#000" stroke-linecap="round" stroke-width="3" transform="translate(0,602.362)"/>
</g>
</g>
<text font-family="Bitstream Vera Sans" font-size="20" x="403.632" y="332.785">
   <tspan x="403.632" y="332.785"></tspan>
  </text>
<text font-family="Bitstream Vera Sans" font-size="20" x="19.9999" y="-153.501">
   <tspan text-align="center" text-anchor="middle" x="19.9999" y="-153.501"></tspan>
  </text>
<text font-family="Bitstream Vera Sans" font-size="20" x="580.755" y="-615.449">
   <tspan text-align="center" text-anchor="middle" x="580.755" y="-615.449"></tspan>
  </text>
<text font-family="Bitstream Vera Sans" font-size="20" x="349.595" y="-432.302">
   <tspan x="349.595" y="-432.302"></tspan>
  </text>
<text font-family="Bitstream Vera Sans" font-size="20" x="494.286" y="763.791">
   <tspan text-align="center" text-anchor="middle" x="494.286" y="763.791">MEC TU FAIS</tspan>
   <tspan text-align="center" text-anchor="middle" x="494.286" y="788.791">QUOI ?</tspan>
  </text>
<text font-family="Bitstream Vera Sans" font-size="20" x="225.877" y="754.525">
   <tspan text-align="center" text-anchor="middle" x="225.877" y="754.525">C'est quoi</tspan>
   <tspan text-align="center" text-anchor="middle" x="225.877" y="779.525">ce bordel ?</tspan>
  </text>
<text font-family="Bitstream Vera Sans" font-size="20" x="50.1625" y="715.24">
   <tspan x="50.1625" y="715.24">*enter*</tspan>
  </text>
<text font-family="Bitstream Vera Sans" font-size="20" x="80.8768" y="733.811">
   <tspan x="80.8768" y="733.811">*enter*</tspan>
  </text>
<text font-family="Bitstream Vera Sans" font-size="20" x="85.1625" y="752.382">
   <tspan x="85.1625" y="752.382">*enter*</tspan>
  </text>
<text font-family="Bitstream Vera Sans" font-size="20" x="84.4482" y="773.811">
   <tspan x="84.4482" y="773.811">*enter*</tspan>
  </text>
<text font-family="Bitstream Vera Sans" font-size="20" x="80.1625" y="788.811">
   <tspan x="80.1625" y="788.811">*enter*</tspan>
  </text>
<text font-family="Bitstream Vera Sans" font-size="20" x="66.5911" y="808.097">
   <tspan x="66.5911" y="808.097">*enter*</tspan>
  </text>
<text font-family="Bitstream Vera Sans" font-size="20" x="35.1625" y="828.811">
   <tspan x="35.1625" y="828.811">*enter*</tspan>
  </text>
<path d="M31.4286,139.2857 64.2857,127.8571" fill="none" stroke="#000" transform="translate(0,602.362)"/>
<path d="M33.5714,162.8571 67.8571,155" fill="none" stroke="#000" transform="translate(0,602.362)"/>
<path d="M30.7143,181.4286 62.8571,185" fill="none" stroke="#000" transform="translate(0,602.362)"/>
<path d="m245,287.1429 26.4286,0" fill="none" stroke="#000" transform="translate(0,602.362)"/>
<path d="m243.5714,305 22.1429,.7143" fill="none" stroke="#000" transform="translate(0,602.362)"/>
<path d="m243.5714,321.4286 19.2857,2.1429" fill="none" stroke="#000" transform="translate(0,602.362)"/>
<path d="m212.1429,188.5714-13.5714,35" fill="none" stroke="#000" transform="translate(0,602.362)"/>
<text font-family="Bitstream Vera Sans" font-size="20" x="618.02" y="798.097">
   <tspan x="618.02" y="798.097">*enter*</tspan>
  </text>
<text font-family="Bitstream Vera Sans" font-size="20" x="590.163" y="785.24">
   <tspan x="590.163" y="785.24">*enter*</tspan>
  </text>
<text font-family="Bitstream Vera Sans" font-size="20" x="583.02" y="765.954">
   <tspan x="583.02" y="765.954">*enter*</tspan>
  </text>
<text font-family="Bitstream Vera Sans" font-size="20" x="579.448" y="747.382">
   <tspan x="579.448" y="747.382">*enter*</tspan>
  </text>
<text font-family="Bitstream Vera Sans" font-size="20" x="603.02" y="728.811">
   <tspan x="603.02" y="728.811">*enter*</tspan>
  </text>
<text font-family="Bitstream Vera Sans" font-size="20" x="595.163" y="711.668">
   <tspan x="595.163" y="711.668">*enter*</tspan>
  </text>
<text font-family="Bitstream Vera Sans" font-size="20" x="658.734" y="708.097">
   <tspan x="658.734" y="708.097">*enter*</tspan>
  </text>
<text font-family="Bitstream Vera Sans" font-size="20" x="665.163" y="725.24">
   <tspan x="665.163" y="725.24">*enter*</tspan>
  </text>
<text font-family="Bitstream Vera Sans" font-size="20" x="717.305" y="711.668">
   <tspan x="717.305" y="711.668">*enter*</tspan>
  </text>
<text font-family="Bitstream Vera Sans" font-size="20" x="730.877" y="726.668">
   <tspan x="730.877" y="726.668">*enter*</tspan>
  </text>
<text font-family="Bitstream Vera Sans" font-size="20" x="779.448" y="718.811">
   <tspan x="779.448" y="718.811">*enter*</tspan>
  </text>
<text font-family="Bitstream Vera Sans" font-size="20" x="783.734" y="740.24">
   <tspan x="783.734" y="740.24">*enter*</tspan>
  </text>
<text font-family="Bitstream Vera Sans" font-size="20" x="780.877" y="768.097">
   <tspan x="780.877" y="768.097">*enter*</tspan>
  </text>
<text font-family="Bitstream Vera Sans" font-size="20" x="740.163" y="777.382">
   <tspan x="740.163" y="777.382">*enter*</tspan>
  </text>
<text font-family="Bitstream Vera Sans" font-size="20" x="764.448" y="790.24">
   <tspan x="764.448" y="790.24">*enter*</tspan>
  </text>
<text font-family="Bitstream Vera Sans" font-size="20" x="769.4487" y="803.0966">
   <tspan x="769.4487" y="803.0966">*enter*</tspan>
  </text>
<text font-family="Bitstream Vera Sans" font-size="20" x="713.02" y="800.954">
   <tspan x="713.02" y="800.954">*enter*</tspan>
  </text>
<text font-family="Bitstream Vera Sans" font-size="20" x="792.305" y="755.954">
   <tspan x="792.305" y="755.954">*enter*</tspan>
  </text>
<text font-family="Bitstream Vera Sans" font-size="20" x="781.591" y="980.24">
   <tspan x="781.591" y="980.24">*enter*</tspan>
  </text>
<text font-family="Bitstream Vera Sans" font-size="20" x="629.4483" y="773.8109">
   <tspan x="629.4483" y="773.8109">*enter*</tspan>
  </text>
<text font-family="Bitstream Vera Sans" font-size="20" x="579.448" y="808.097">
   <tspan x="579.448" y="808.097">*enter*</tspan>
  </text>
<text font-family="Bitstream Vera Sans" font-size="20" x="573.02" y="918.811">
   <tspan x="573.02" y="918.811">*enter*</tspan>
  </text>
<text font-family="Bitstream Vera Sans" font-size="20" x="595.877" y="950.24">
   <tspan x="595.877" y="950.24">*enter*</tspan>
  </text>
<text font-family="Bitstream Vera Sans" font-size="20" x="643.734" y="975.954">
   <tspan x="643.734" y="975.954">*enter*</tspan>
  </text>
<text font-family="Bitstream Vera Sans" font-size="20" x="703.734" y="978.097">
   <tspan x="703.734" y="978.097">*enter*</tspan>
  </text>
<text font-family="Bitstream Vera Sans" font-size="20" x="728.734" y="973.097">
   <tspan x="728.734" y="973.097">*enter*</tspan>
  </text>
<text font-family="Bitstream Vera Sans" font-size="20" x="583.734" y="968.811">
   <tspan x="583.734" y="968.811">*enter*</tspan>
  </text>
<text font-family="Bitstream Vera Sans" font-size="20" x="580.163" y="880.954">
   <tspan x="580.163" y="880.954">*enter*</tspan>
  </text>
<text font-family="Bitstream Vera Sans" font-size="20" x="573.734" y="852.382">
   <tspan x="573.734" y="852.382">*enter*</tspan>
  </text>
<text font-family="Bitstream Vera Sans" font-size="20" x="575.163" y="839.525">
   <tspan x="575.163" y="839.525">*enter*</tspan>
  </text>
<text font-family="Bitstream Vera Sans" font-size="20" x="578.734" y="819.525">
   <tspan x="578.734" y="819.525">*enter*</tspan>
  </text>
<text font-family="Bitstream Vera Sans" font-size="20" x="649.286" y="753.791">
   <tspan x="649.286" y="753.791">DEBUG GDB !</tspan>
  </text>
<path d="m708.5714,157.1429-17.1429,40" fill="none" stroke="#000" transform="translate(0,602.362)"/>
<text font-family="Bitstream Vera Sans" font-size="20" x="650.163" y="918.811">
   <tspan x="650.163" y="918.811">*enter*</tspan>
  </text>
<text font-family="Bitstream Vera Sans" font-size="20" x="320.877" y="720.954">
   <tspan x="320.877" y="720.954">*enter*</tspan>
  </text>
<text font-family="Bitstream Vera Sans" font-size="20" x="333.02" y="758.811">
   <tspan x="333.02" y="758.811">*enter*</tspan>
  </text>
<text font-family="Bitstream Vera Sans" font-size="20" x="335.877" y="802.382">
   <tspan x="335.877" y="802.382">*enter*</tspan>
  </text>
<text font-family="Bitstream Vera Sans" font-size="20" x="355.294" y="834.158">
   <tspan x="355.294" y="834.158">*enter*</tspan>
  </text>
<text font-family="Bitstream Vera Sans" font-size="20" x="347.075" y="870.924">
   <tspan x="347.075" y="870.924">*enter*</tspan>
  </text>
<text font-family="Bitstream Vera Sans" font-size="20" x="343.662" y="848.342">
   <tspan x="343.662" y="848.342">*enter*</tspan>
  </text>
<text font-family="Bitstream Vera Sans" font-size="20" x="348.632" y="780.195">
   <tspan x="348.632" y="780.195">*enter*</tspan>
  </text>
<path d="m292.5251,944.4741 25.9359,0 32.1274,28.9147-57.6422,0" opacity=".99" stroke="#000" stroke-linecap="round" stroke-width="1.9425"/>
<path d="M329.532,925.181H334.532A3.5714,3.5714 0 0 1 338.1034,928.7525V969.4667A3.5714,3.5714 0 0 1 334.532,973.0382H329.532A3.5714,3.5714 0 0 1 325.9606,969.4667V928.7525A3.5714,3.5714 0 0 1 329.532,925.181z" fill="#fff" opacity=".99" stroke="#000" stroke-linecap="round" stroke-width="3"/>
<path d="M306.2781,905.1594H311.2781A3.5714,3.5714 0 0 1 314.8495,908.7308V949.4451A3.5714,3.5714 0 0 1 311.2781,953.0166H306.2781A3.5714,3.5714 0 0 1 302.7066,949.4451V908.7308A3.5714,3.5714 0 0 1 306.2781,905.1594z" fill="#fff" opacity=".99" stroke="#000" stroke-linecap="round" stroke-width="3"/>
<path d="m302.4656,901.2598 16.3527,0 32.1273,28.9146" fill="#fff" opacity=".99" stroke="#000" stroke-linecap="round" stroke-width="1.9425"/>
<path d="m317.0325,898.0454 32.1274,28.9147-56.3526,0" fill="#fff" opacity=".99" stroke="#000" stroke-linecap="round" stroke-width="1.9425"/>
<path d="m292.1429,819.2882 22.032,0 25.7143,20.7143m-38.5714,82.4999" fill="#fff" opacity=".99" stroke="#000" stroke-linecap="round" stroke-width="3"/>
<path d="M302.2106,840.7167H340.0677V922.5025H302.2106z" fill="#fff" opacity=".99" stroke="#000" stroke-linecap="round" stroke-width="3"/>
<path d="M306.5789,869.728H335.3422V893.1341H306.5789z" fill="#fff" opacity=".99" stroke="#000" stroke-linecap="round" stroke-width="1.8796"/>
<path d="m302.2106,841.0737-9.7963,-8.048" fill="none" stroke="#000" stroke-width="3"/>
<path d="m293.2769,944.66c7.3229,2.2679 15.5383,-14.6383 20.7194,-65.7292" fill="none" stroke="#000"/>
<path d="m293.601,912.2101c14.7742,.6788 22.4922,-16.1546 35.3953,-26.4936" fill="none" stroke="#000"/>
<path d="m293.9131,952.372c16.1862,-.7205 25.9368,-15.7533 22.0474,-61.1196" fill="none" stroke="#000"/>
<path d="M313.4605,873.3953H314.532V878.931H313.4605z" opacity=".99" stroke="#000" stroke-linecap="round"/>
<path d="M328.6391,880.2703H329.7105V885.806H328.6391z" opacity=".99" stroke="#000" stroke-linecap="round"/>
<path d="M315.782,885.9846H316.8534V891.5203H315.782z" opacity=".99" stroke="#000" stroke-linecap="round"/>
<path d="m328.9963,912.8594c-5.636,61.344-38.5818,88.3932 2.6933,65.9521 4.6602,-2.5337 5.6298,5.3143 11.2352,-10.9522" fill="none" stroke="#000" stroke-width="2"/>
<path d="m266.25,295.8929c0,1.578-1.8788,2.8571-4.1964,2.8571-2.3176,0-4.1964,-1.2792-4.1964,-2.8571 0,-1.5779 1.8788,-2.8571 4.1964,-2.8571 2.3176,0 4.1964,1.2792 4.1964,2.8571z" opacity=".99" stroke="#000" stroke-linecap="round" stroke-width="2" transform="translate(67.032,616.431)"/>
<path d="m301.6839,922.1004-9.7963,-8.048" fill="none" stroke="#000" stroke-width="3"/>
<path d="m493.0411,799.2682-10.1015,43.4366" fill="none" stroke="#000"/>
<text font-family="Bitstream Vera Sans" font-size="20" x="319.466" y="742.842">
   <tspan x="319.466" y="742.842">*enter*</tspan>
  </text>
<text font-family="Bitstream Vera Sans" font-size="20" x="385.126" y="735.771">
   <tspan x="385.126" y="735.771">*enter*</tspan>
  </text>
<text font-family="Bitstream Vera Sans" font-size="20" x="384.621" y="711.528">
   <tspan x="384.621" y="711.528">*enter*</tspan>
  </text>
<text font-family="Bitstream Vera Sans" font-size="20" x="373.004" y="818.604">
   <tspan x="373.004" y="818.604">*enter*</tspan>
  </text>
<path d="m297.4899,150.9949 26.264,-3.5355" fill="none" stroke="#000" transform="translate(0,602.362)"/>
<path d="m303.0458,171.703 32.3249,-3.5355" fill="none" stroke="#000" transform="translate(0,602.362)"/>
<path d="m301.5305,190.8959 29.7995,12.6269" fill="none" stroke="#000" transform="translate(0,602.362)"/>
<g transform="matrix(-1.22011,0,0,1.22011,538.7446,-315.84528)">
<path d="m154.2857,169.6429c0,4.5366-27.5025,8.2143-61.4286,8.2143-33.9261,0-61.4286,-3.6777-61.4286,-8.2143 0,-4.5366 27.5025,-8.2143 61.4286,-8.2143 33.9261,0 61.4286,3.6777 61.4286,8.2143z" stroke="#000" transform="matrix(-.60213,0,0,.60213,106.30564,942.26976)"/>
<path d="m58.4703,975.3336-19.4482,0c-3.161,16.9994-18.1122,12.8621-19.9523,19.9523l3.3453,30.9869c6.5967,11.6033 15.0373,18.9686 23.2977,18.7359l5.1544,0c8.355,-.4499 21.1432,-10.4744 23.2977,-21.1689l4.2577,-28.5539c-1.2995,-4.9275-12.9618,-.7979-19.9523,-19.9523z" fill="#fff" stroke="#000" stroke-linecap="round" stroke-linejoin="round" stroke-width="2.193"/>
<path d="m70.1165,1002.6337c-.9088,-.2646-1.8105,-.5151-2.7458,-.6612-.9524,-.2002-1.9124,-.3297-2.8759,-.4616-.7571,-.1334-1.5045,-.2771-2.2671,-.3705-1.1111,-.1618-2.243,-.2316-3.3659,-.257-.5641,-.042-1.121,-.024-1.6838,.014l2.9052,3.4486c.5433,-.037 1.0849,-.033 1.629,-.011 1.1185,.043 2.2413,.1056 3.3449,.3018 .7571,.1049 1.5023,.2777 2.2621,.3656 .9609,.1229 1.9121,.2903 2.8637,.4712 .9256,.1664 1.8237,.4395 2.7228,.7124l-2.7892,-3.552z" stroke="#000" stroke-linecap="round" stroke-linejoin="round" stroke-width="1.2043"/>
<path d="m40.9687,1003.1934c.9065,-.2723 1.806,-.5306 2.74,-.6846 .9507,-.2085 1.9095,-.3462 2.8719,-.4862 .7559,-.14 1.5021,-.2901 2.2639,-.39 1.1097,-.1713 2.2409,-.2509 3.3636,-.2858 .5637,-.047 1.1207,-.034 1.6839,-5e-4l-2.8756,3.4733c-.5436,-.032-1.0851,-.023-1.6291,0-1.1181,.052-2.2403,.1248-3.3422,.3305-.7561,.1113-1.4998,.2905-2.2589,.385-.9598,.1311-1.9095,.3065-2.8595,.4956-.9241,.1742-1.8199,.455-2.7166,.7356l2.7587,-3.5756z" stroke="#000" stroke-linecap="round" stroke-linejoin="round" stroke-width="1.2043"/>
<path d="m538.4195,257.9523c0,3.0469-2.4032,5.5169-5.3678,5.5169-2.9646,0-5.3678,-2.47-5.3678,-5.5169 0,-3.0469 2.4032,-5.5169 5.3678,-5.5169 2.9646,0 5.3678,2.47 5.3678,5.5169z" fill="#fff" stroke="#000" stroke-linecap="round" stroke-linejoin="round" stroke-width="2" transform="matrix(-.60213,0,0,.60213,368.75405,856.70393)"/>
<path d="m555.2684,260.4871c0,.9058-.4005,1.6402-.8946,1.6402-.4941,0-.8946,-.7343-.8946,-1.6402 0,-.9058 .4005,-1.6402 .8946,-1.6402 .4941,0 .8946,.7343 .8946,1.6402z" fill="#fff" stroke="#000" stroke-linecap="round" stroke-linejoin="round" stroke-width="2" transform="matrix(-.60213,0,0,.60213,382.9984,855.15588)"/>
<g transform="matrix(-.60213,0,0,.60213,382.61749,856.25504)">
<path d="m538.4195,257.9523c0,3.0469-2.4032,5.5169-5.3678,5.5169-2.9646,0-5.3678,-2.47-5.3678,-5.5169 0,-3.0469 2.4032,-5.5169 5.3678,-5.5169 2.9646,0 5.3678,2.47 5.3678,5.5169z" fill="#fff" stroke="#000" stroke-linecap="round" stroke-linejoin="round" stroke-width="2"/>
<path d="m555.2684,260.4871c0,.9058-.4005,1.6402-.8946,1.6402-.4941,0-.8946,-.7343-.8946,-1.6402 0,-.9058 .4005,-1.6402 .8946,-1.6402 .4941,0 .8946,.7343 .8946,1.6402z" fill="#fff" stroke="#000" stroke-linecap="round" stroke-linejoin="round" stroke-width="2" transform="translate(-23.6822,-2.4475)"/>
</g>
<path d="m56.4737,981.0793 4.2239,1.4784c2.9914,4.0832 5.3086,8.4381 15.4171,11.1932 .5429,11.1219 4.3117,11.8958 7.6029,12.8827 3.2507,-1.3481 3.6104,-6.4597 5.0686,-10.1372 6.1056,-9.1909 4.974,-16.6021-1.056,-22.8088 .5292,-.8243 .1774,.1066 .3093,-1.7108-.3841,-.068-2.5108,-1.5299-4.8574,-3.1679-1.3151,.4635-1.0331,-.1433-1.3653,1.4996 .2515,-1.6071-.5576,-2.79-1.2671,-4.0127-.9238,-.963-2.7847,-2.0821-4.8937,-3.2426 .4911,-1.4515-.6019,-2.6767-1.4421,-3.938-3.2911,-2.4311-6.4089,-3.119-9.5037,-3.3791-4.9813,-2.2436-9.1643,-3.0882-10.982,.2112-1.743,-.2323-2.9028,-1.1938-6.1246,.4224-6.9386,-1.8283-7.9574,3.284-9.2925,8.0253-1.3221,.8774-2.8372,.7167-3.9636,.224-5.3016,-2.1773-6.9683,2.5277-10.8199,6.7454-7.1017,-4.0128-6.2405,6.8142-9.2925,10.3484-5.3991,-3.8672-7.4249,25.0561 1.777,25.3175 .456,3.1441 1.3329,4.1837 2.1738,5.4035 2.9633,2.0584 3.252,1.586 4.819,2.3232 .9133,-.2109-1.4742,-6.0372-1.5892,-8.5458 2.1817,-4.1537 2.2864,-8.9997 2.1119,-13.9388l2.1119,-1.2672c5.765,3.9024 8.0662,-3.2902 12.038,-5.0686 1.7295,.9023 3.3265,.2137 4.8574,-1.2672 10.3021,4.1824 12.2258,.0346 13.9388,-3.5903z" stroke="#000" stroke-width="0"/>
</g>
<g transform="matrix(-1.22011,0,0,1.22011,251.99871,-328.15952)">
<path d="m154.2857,169.6429c0,4.5366-27.5025,8.2143-61.4286,8.2143-33.9261,0-61.4286,-3.6777-61.4286,-8.2143 0,-4.5366 27.5025,-8.2143 61.4286,-8.2143 33.9261,0 61.4286,3.6777 61.4286,8.2143z" stroke="#000" transform="matrix(-.60213,0,0,.60213,106.30564,942.26976)"/>
<path d="m58.4703,975.3336-19.4482,0c-3.161,16.9994-18.1122,12.8621-19.9523,19.9523l3.3453,30.9869c6.5967,11.6033 15.0373,18.9686 23.2977,18.7359l5.1544,0c8.355,-.4499 21.1432,-10.4744 23.2977,-21.1689l4.2577,-28.5539c-1.2995,-4.9275-12.9618,-.7979-19.9523,-19.9523z" fill="#fff" stroke="#000" stroke-linecap="round" stroke-linejoin="round" stroke-width="2.193"/>
<path d="m70.1165,1004.0755c-.9088,-.2646-1.8105,-.5151-2.7458,-.6612-.9524,-.2002-1.9124,-.3297-2.8759,-.4616-.7571,-.1334-1.5045,-.2771-2.2671,-.3705-1.1111,-.1618-2.243,-.2316-3.3659,-.257-.5641,-.042-1.121,-.024-1.6838,.014l2.9052,3.4486c.5433,-.037 1.0849,-.033 1.629,-.011 1.1185,.043 2.2413,.1056 3.3449,.3018 .7571,.1049 1.5023,.2777 2.2621,.3656 .9609,.1229 1.9121,.2903 2.8637,.4712 .9256,.1664 1.8237,.4395 2.7228,.7124l-2.7892,-3.552z" stroke="#000" stroke-linecap="round" stroke-linejoin="round" stroke-width="1.2043"/>
<path d="m40.9687,998.5075c.9065,-.2723 1.806,-.5306 2.74,-.6846 .9507,-.2085 1.9095,-.3462 2.8719,-.4862 .7559,-.14 1.5021,-.2901 2.2639,-.39 1.1097,-.1713 2.2409,-.2509 3.3636,-.2858 .5637,-.047 1.1207,-.034 1.6839,-5e-4l-2.8756,3.4733c-.5436,-.032-1.0851,-.023-1.6291,0-1.1181,.052-2.2403,.1248-3.3422,.3305-.7561,.1113-1.4998,.2905-2.2589,.385-.9598,.1311-1.9095,.3065-2.8595,.4956-.9241,.1742-1.8199,.455-2.7166,.7356l2.7587,-3.5756z" stroke="#000" stroke-linecap="round" stroke-linejoin="round" stroke-width="1.2043"/>
<path d="m538.4195,257.9523c0,3.0469-2.4032,5.5169-5.3678,5.5169-2.9646,0-5.3678,-2.47-5.3678,-5.5169 0,-3.0469 2.4032,-5.5169 5.3678,-5.5169 2.9646,0 5.3678,2.47 5.3678,5.5169z" fill="#fff" stroke="#000" stroke-linecap="round" stroke-linejoin="round" stroke-width="2" transform="matrix(-.60213,0,0,.60213,368.75405,856.70393)"/>
<path d="m555.2684,260.4871c0,.9058-.4005,1.6402-.8946,1.6402-.4941,0-.8946,-.7343-.8946,-1.6402 0,-.9058 .4005,-1.6402 .8946,-1.6402 .4941,0 .8946,.7343 .8946,1.6402z" fill="#fff" stroke="#000" stroke-linecap="round" stroke-linejoin="round" stroke-width="2" transform="matrix(-.60213,0,0,.60213,382.9984,855.15588)"/>
<g transform="matrix(-.60213,0,0,.60213,382.61749,856.25504)">
<path d="m538.4195,257.9523c0,3.0469-2.4032,5.5169-5.3678,5.5169-2.9646,0-5.3678,-2.47-5.3678,-5.5169 0,-3.0469 2.4032,-5.5169 5.3678,-5.5169 2.9646,0 5.3678,2.47 5.3678,5.5169z" fill="#fff" stroke="#000" stroke-linecap="round" stroke-linejoin="round" stroke-width="2"/>
<path d="m555.2684,260.4871c0,.9058-.4005,1.6402-.8946,1.6402-.4941,0-.8946,-.7343-.8946,-1.6402 0,-.9058 .4005,-1.6402 .8946,-1.6402 .4941,0 .8946,.7343 .8946,1.6402z" fill="#fff" stroke="#000" stroke-linecap="round" stroke-linejoin="round" stroke-width="2" transform="translate(-23.6822,-2.4475)"/>
</g>
<path d="m56.4737,981.0793 4.2239,1.4784c2.9914,4.0832 5.3086,8.4381 15.4171,11.1932 .5429,11.1219 4.3117,11.8958 7.6029,12.8827 3.2507,-1.3481 3.6104,-6.4597 5.0686,-10.1372 6.1056,-9.1909 4.974,-16.6021-1.056,-22.8088 .5292,-.8243 .1774,.1066 .3093,-1.7108-.3841,-.068-2.5108,-1.5299-4.8574,-3.1679-1.3151,.4635-1.0331,-.1433-1.3653,1.4996 .2515,-1.6071-.5576,-2.79-1.2671,-4.0127-.9238,-.963-2.7847,-2.0821-4.8937,-3.2426 .4911,-1.4515-.6019,-2.6767-1.4421,-3.938-3.2911,-2.4311-6.4089,-3.119-9.5037,-3.3791-4.9813,-2.2436-9.1643,-3.0882-10.982,.2112-1.743,-.2323-2.9028,-1.1938-6.1246,.4224-6.9386,-1.8283-7.9574,3.284-9.2925,8.0253-1.3221,.8774-2.8372,.7167-3.9636,.224-5.3016,-2.1773-6.9683,2.5277-10.8199,6.7454-7.1017,-4.0128-6.2405,6.8142-9.2925,10.3484-5.3991,-3.8672-7.4249,25.0561 1.777,25.3175 .456,3.1441 1.3329,4.1837 2.1738,5.4035 2.9633,2.0584 3.252,1.586 4.819,2.3232 .9133,-.2109-1.4742,-6.0372-1.5892,-8.5458 2.1817,-4.1537 2.2864,-8.9997 2.1119,-13.9388l2.1119,-1.2672c5.765,3.9024 8.0662,-3.2902 12.038,-5.0686 1.7295,.9023 3.3265,.2137 4.8574,-1.2672 10.3021,4.1824 12.2258,.0346 13.9388,-3.5903z" stroke="#000" stroke-width="0"/>
<path d="m53.9286,1034.505c-3.7429,-.8518-7.9422,-2.0844-10.3571,-2.5" fill="none" stroke="#000"/>
</g>
<path d="m482.4543,341.5907a3.7383,3.7383 0 1 1 -7.4765,0 3.7383,3.7383 0 1 1 7.4765,0z" stroke="#fff" stroke-linejoin="bevel" transform="translate(0,602.362)"/>
</g>
</svg>
