<svg version="1.1" viewBox="0 0 900 450" xmlns="http://www.w3.org/2000/svg" xmlns:svg="http://www.w3.org/2000/svg">
<g transform="translate(0,-602.3622)">
<path d="M52.1585,687.08H833.1604A31.621,31.621 0 0 1 864.7815,718.701V967.0499A31.621,31.621 0 0 1 833.1604,998.6709H52.1585A31.621,31.621 0 0 1 20.5375,967.0499V718.701A31.621,31.621 0 0 1 52.1585,687.08z" fill="#fff" stroke="#000" stroke-linecap="round" stroke-width="7.4907"/>
<path d="m579.6429,914.4738 282.0173,0m-559.5173,0 265.7143,0m-547.6541,0 272.2969,0" fill="none" stroke="#000" stroke-width="4"/>
<path d="m579.7791,683.7654 0,313.8905" fill="none" stroke="#000" stroke-width="5.6784"/>
<path d="m302.1503,683.0408 0,118.8036 0,195.0869" fill="none" stroke="#000" stroke-width="5.6784"/>
<path d="m842.9959,1017.9038c.4393,.5102 1.0355,.5714 1.6702,.6073 .8029,-.022 1.6072,-.2139 2.3575,-.4994 .4009,-.1525 .6224,-.2824 .9965,-.4788-2.2386,1.3097-.9924,.6082-.5738,.1636 .2168,-.2303 .3463,-.473 .4686,-.7606 .3177,-.895 .3589,-1.8574 .4131,-2.7971 .1056,-1.3679-.1776,-2.7108-.4825,-4.0351-.3709,-1.393-.8746,-2.7467-1.4293,-4.0757-.2656,-.628-.5661,-1.2401-.8587,-1.8556-.3944,-.7567-.717,-.2868 1.5104,-1.1508 .0768,-.03 .0919,.1367 .1411,.2027 .0823,.1106 .1689,.218 .2533,.327 .8217,1.1275 1.8098,2.1155 2.8001,3.0928 .5826,.5674 1.2073,1.094 1.7645,1.6873 .2114,.1727 .3378,.416 .508,.6229 .1662,.1502 .2962,-.01 .4431,-.1106-2.5656,1.5384-1.6519,1.0412-1.1599,.5695 .1937,-.1858 .3764,-.3843 .5618,-.5782 .2632,-.2626 .5127,-.5438 .801,-.7804 .761,-.6244 1.8227,-1.1234 2.6097,-1.5711 .7271,-.3211 1.471,-.6005 2.2265,-.8467 .1563,-.034 .761,-.2664 .899,-.1093 .0321,.037 .0451,.086 .0677,.1294 .003,.044 .0154,.088 .009,.1323-.0436,.3197-.5385,.6916-.7545,.8904-.9928,.8208-1.9561,1.6745-2.8731,2.5792-.7976,.8557-1.6216,1.7004-2.2566,2.6874-.3921,.6165-.6005,1.2972-.6984,2.0144-.0648,.6415-.0542,1.2873-.0532,1.9312 .0351,.6998 .1244,1.4011 .3328,2.0715 .1195,.3571 .3319,.6194 .6717,.7762 .2255,.08 .4837,.1318 .7238,.087 .0559,-.01 .5216,-.1683 .5589,-.1808 .5492,-.2997 1.8756,-1.0005-.6067,.3599-.0982,.054 .1891,-.1202 .2821,-.1824 .2138,-.1431 .2651,-.1851 .4657,-.3347 .2405,-.18 .1266,-.092 .3424,-.2616l1.7191,-.6914c-.2178,.1831-.1012,.092-.3516,.2719-1.0139,.7828-2.137,1.4308-3.3009,1.9611-.5107,.1525-.8878,.2254-1.3851,-.01-.3662,-.2065-.6055,-.5061-.7343,-.9112-.2041,-.6903-.2811,-1.4089-.3481,-2.1237-.004,-.6503-.0146,-1.3022 .038,-1.9509 .0928,-.7432 .2887,-1.4525 .6884,-2.0955 .0801,-.1333 .153,-.2712 .2404,-.3997 .1797,-.264 .4481,-.5661 .6529,-.8036 .4526,-.5248 .9157,-1.0402 1.3938,-1.5419 .8918,-.8997 1.8318,-1.7498 2.8066,-2.5592 .2761,-.2563 .5618,-.5063 .8001,-.7993 .0396,.021-.0878,.017-.1321,.024-.221,.031-.4338,.1-.6466,.1641-.7471,.2466-1.4866,.5202-2.1959,.8624 2.4446,-1.4458 .9748,-.6249 .497,-.2573-.291,.224-.54,.5005-.7953,.7622-.9257,.9766-.9789,1.08-2.545,1.8884-.2567,.1213-.4002,.1069-.6009,-.1041-.1584,-.2095-.2854,-.443-.481,-.6232-.5334,-.6026-1.1282,-1.1493-1.6932,-1.7213-.9808,-.9984-1.9767,-1.985-2.8496,-3.0818-.0938,-.1054-.1877,-.2108-.2814,-.3163-.0521,-.059-.2154,-.125-.1559,-.1761 1.4141,-1.2139 1.334,-1.5318 1.6993,-.7303 .2757,.6281 .5663,1.2498 .8171,1.8885 .5249,1.353 1.0089,2.7232 1.4053,4.1198 .3185,1.3302 .6335,2.6814 .5419,4.0599-.0362,.9485-.0918,1.9144-.3493,2.8318-.0847,.2347-.1139,.3545-.249,.5692-.5938,.9436-1.8747,1.3891-2.7166,1.9248-1.0714,.5265-2.2113,.8988-3.4172,.9043-.1676,-.013-.3365,-.016-.5029,-.04-.4955,-.073-.9575,-.2895-1.3004,-.6569l1.6003,-.9608z" stroke="#000" stroke-linecap="round" stroke-linejoin="round" stroke-width=".2515"/>
<path d="m858.3604,1015.747c-.7394,.2071-2.342,1.1965 .4556,-.4044-.388,.2065-.6184,.5425-.7999,.9302-.1036,.3106-.2142,.651-.1917,.9845 .0156,.2306 .0756,.3465 .154,.562 .3071,.6067 .7794,1.1058 1.3399,1.4838 .4137,.2881 .8839,.4191 1.383,.4252 .3851,-.088 .743,-.2375 1.0957,-.4124 .1503,-.074 .5909,-.3178 .4467,-.232-1.6618,.9892-1.2456,.7222-.6575,.3195 .4842,-.373 1.0105,-.8057 1.1352,-1.4399 .0174,-.089 .0162,-.1799 .0243,-.2698-.032,-.7933-.5333,-1.4143-1.0169,-2.0008-.3049,-.3393-.6501,-.6629-1.0669,-.861-.2115,-.1006-.32,-.1184-.544,-.1779-.4519,-.025-.9255,.018-1.3546,.1741-.1984,.072-.499,.2394-.6834,.3368 2.5132,-1.5077 .8665,-.5123 .3482,-.062l-1.7106,.6998c.796,-.7657 1.8589,-1.2169 2.7842,-1.7769 .2686,-.1306 .4271,-.2208 .7141,-.308 .4568,-.1387 .9485,-.171 1.419,-.1017 .2419,.077 .34,.097 .5672,.2177 .4231,.2255 .772,.5679 1.084,.9255 .5088,.6265 1.0253,1.2756 1.1028,2.1095-.004,.1011 .002,.2032-.0112,.3035-.0928,.6825-.6005,1.1676-1.1167,1.5708-1.0013,.7186-.4882,.3708-2.4236,1.4671-.5043,.2856-1.0559,.5275-1.6351,.5951-.5218,-.046-1.0072,-.1999-1.4323,-.5165-.5749,-.4194-1.0583,-.9487-1.3949,-1.5795-.0785,-.2055-.1678,-.4012-.1946,-.6229-.0421,-.3472 .0735,-.712 .1572,-1.0429 .1608,-.4086 .3649,-.7959 .7491,-1.0357 .9031,-.5199 1.7482,-1.1164 2.7557,-1.3944l-1.4819,1.1332z" stroke="#000" stroke-linecap="round" stroke-linejoin="round" stroke-width=".2515"/>
<path d="m866.1566,1016.5015c-.3202,.1024-.653,.1903-.9574,.3361-.1022,.049-.1982,.1101-.2973,.1652 .4207,-.2356 .8414,-.4712 1.2621,-.7068-.4994,.337-.87,.6738-1.0934,1.2386-.1462,.4653-.0761,.8587 .2923,1.2028 .0889,.083 .1935,.1478 .2903,.2216 .7042,.4046 1.5378,.5494 2.3444,.4638 .2312,-.024 .458,-.081 .687,-.1208 .53,-.1368 .7609,-.1749 1.2586,-.3838 .1651,-.069 .635,-.3304 .4812,-.2386-2.2382,1.3365-1.2251,.7542-.8736,.3984 .078,-.079 .1399,-.1722 .2098,-.2583 .3065,-.4796 .3144,-.9061 .0985,-1.417-.0396,-.09-.268,-.5604-.4291,-.4586-.0279,.018-.042,.051-.063,.076 2.5422,-1.4496 1.5743,-1.2072 1.3277,-.5007-.1064,.3049-.125,.6013-.1396,.9215 .1766,1.4863 .8332,2.8625 1.3726,4.2435 .6559,1.8244 1.2881,3.7176 1.3609,5.6744 .0145,.3894-.0234,.7791-.0351,1.1686-.0582,.3745-.0908,.754-.1745,1.1236-.2732,1.2059-.8948,2.3097-1.8179,3.137-.1627,.1458-.3469,.2657-.5204,.3986-.6941,.3626-1.3544,.7991-2.0824,1.0879-.3018,.1197-1.0302,-.13-1.2689,-.2365-.8875,-.3956-1.654,-1.0455-2.408,-1.6406-1.2719,-1.0888-2.5172,-2.2245-3.6551,-3.4553-.5895,-.6375-.7352,-.8521-1.2472,-1.5117-.4358,-.7271-.9494,-1.57-.521,-2.4271 .2535,-.5072 .5595,-.6912 .9842,-1.0605 1.2727,-.8247 1.3769,-.9186 3.2195,-1.8517 .4497,-.2277 1.9,-.7427 2.3438,-.8975 .8851,-.3088 1.8369,-.6148 2.7269,-.9056 2.3381,-.6744 4.6281,-1.4959 6.8914,-2.3864 .1921,-.082 .3845,-.1627 .5764,-.245 .1466,-.063 .2943,-.1233 .439,-.1904 .2958,-.137 .5721,-.3066 .8773,-.4229 .4138,-.059 .559,.4392 .6828,.7419 .2853,.7705 .446,1.5785 .5154,2.3953 .0171,.366 .029,.7337-.0228,1.0975-.005,.037 .0139,.095-.0201,.1109-.5544,.2582-1.1333,.4601-1.6999,.6902 10e-4,-.1126-.005,-.2255 .004,-.3377 .0133,-.1633 .0414,-.3251 .063,-.4875 .1257,-.9478 .2903,-1.8831 .4832,-2.8195 .1955,-.8169 .3644,-1.6723 .8312,-2.3853 .5286,-.5535 1.7043,-1.6447 2.2768,-1.0096 .0599,.067 .1019,.1472 .1529,.2208 .112,.1981 .2088,.3486 .2821,.568 .2061,.6172 .2986,1.3406 .4077,1.9824 .1424,.5555 .0881,1.2208 .2567,1.7655 .2229,-.5988-.002,.028-1.6032,.791-.0325,.015 .0489,-.053 .0671,-.085 .0417,-.071 .1233,-.28 .1551,-.3442 .0434,-.087 .0929,-.1719 .1393,-.2578 .3011,-.4826 .556,-.9925 .8877,-1.4553 .5547,-.695 1.0736,-.8467 2.0338,-1.3744 .0329,-.018 .0773,-.01 .1126,0 .045,.016 .08,.053 .12,.079 .3755,.395 .5063,.9539 .6331,1.4682 .1102,.56 .1691,1.1313 .374,1.667 .0499,.07 .0906,.1479 .1496,.2106 .4298,.4569 1.1407,.7985 1.727,.9843 .2206,.07 .4479,.1166 .6718,.1749 .9481,.2366 1.8995,.2483 2.8425,-.011 .2087,-.057 .4184,-.1172 .6161,-.2054 .1842,-.082 .3491,-.2019 .5237,-.3029-.3631,.1874-.6996,.4397-1.0894,.5622-.1503,.047 .2339,-.2118 .3412,-.3272 .3164,-.3401 .4973,-.7183 .6246,-1.1582 .0873,-.3664 .0858,-.7428 .0757,-1.1166-.1021,-.7716-.7838,-.012 1.5762,-.9706 .043,-.017-.0252,.09-.0325,.1353-.0105,.067-.0137,.1343-.0206,.2014-.0335,.6079-.0474,1.2172 .0202,1.8229 .0688,.3897 .1433,.7878 .4487,1.0613 .2149,.1415 .443,.1511 .6803,.073 .5712,-.2882 1.4287,-.7883-1.1689,.6781-.0922,.052 .1782,-.1142 .2658,-.1736l1.729,-.6875c-.1339,.1099-.1095,.099-.2632,.1885-.5841,.3415-1.3074,.9119-2.0466,1.1199-.2885,.031-.5575,-.032-.7831,-.2236-.314,-.3274-.4164,-.7448-.4864,-1.185-.0743,-.6127-.0594,-1.2282-.0514,-1.8445 .002,-.082 .01,-.3683 .0155,-.3721 1.2231,-.8124 1.6185,-1.5813 1.7738,-.6732 .009,.3928 .009,.788-.0729,1.1745-.4026,1.604-1.4656,1.9694-2.9269,2.8345-.1797,.091-.3518,.1981-.539,.2718-1.1255,.4431-2.3519,.4076-3.5096,.13-.2313,-.061-.4661,-.1105-.6938,-.1839-.5824,-.188-1.4014,-.59-1.8309,-1.0419-.0708,-.074-.1217,-.1654-.1826,-.2481-.2042,-.5463-.263,-1.1251-.3681,-1.696-.1059,-.4424-.211,-.9895-.5766,-1.2965-.0862,.011-.0417,0-.1309,.047 .494,-.2933 .9881,-.5865 1.4821,-.8798 .0418,-.024-.0765,.059-.1115,.092-.088,.083-.1593,.1827-.2543,.2588-.3546,.4458-.6103,.9514-.9065,1.4362-.1113,.1906-.2033,.3719-.2742,.581-.0144,.043 .002,.1065-.0369,.1297-1.6717,1.0055-1.301,1.4123-1.7676,.8263-.1403,-.5915-.0684,-1.2195-.2051,-1.8138-.1337,-.8319-.2366,-1.7229-.6888,-2.4507-.0786,-.094-.1124,-.1812-.2373,-.2043-.0338,-.01-.1319,.028-.1027,.01 .4848,-.3028 .9881,-.5749 1.4781,-.8692 .044,-.026-.0961,.038-.1396,.065-.0513,.032-.0953,.075-.1429,.1121-.5512,.6573-.7174,1.5447-.9403,2.3498-.2511,1.1609-.4667,2.3382-.5021,3.5279-.5413,.3318-1.0717,.6822-1.624,.9954-.0304,.017 .0302,-.063 .04,-.097 .1011,-.3479 .0723,-.7161 .0723,-1.073-.0467,-.7985-.196,-1.5926-.501,-2.3352-.0582,-.1343-.1651,-.5237-.3687,-.5375-.0472,0-.1338,.034-.1714,.048-.6021,.2681-1.1868,.5758-1.8125,.79-2.2433,.8437-4.5057,1.6345-6.8063,2.3092-1.3354,.4418-2.6801,.8688-3.988,1.3886-.3765,.1496-.7211,.3958-1.1182,.4762-.2039,.041 .7012,-.4449 .5142,-.3538-.2728,.1328-.5155,.32-.7733,.48-.4814,.3865-1.0718,.7863-1.1859,1.4525-.1123,.6558 .3053,1.2621 .5878,1.8057 .1747,.2387 .3409,.4838 .524,.716 1.2506,1.586 2.7723,2.9468 4.3216,4.2314 .7601,.5675 1.5353,1.2021 2.4338,1.5462 .2074,.079 .4249,.1396 .6456,.1641 .1883,.021 .6695,-.1886 .5676,-.029-.2123,.3325-.6509,.446-.9763,.669 .1821,-.1271 .3749,-.2403 .5464,-.3814 .9528,-.7839 1.6207,-1.8661 1.9179,-3.062 .0903,-.3634 .1256,-.7382 .1884,-1.1074 .0181,-.3841 .0641,-.768 .0543,-1.1525-.0495,-1.9411-.7079,-3.8142-1.3712,-5.6146-.5628,-1.3918-1.2476,-2.7639-1.4927,-4.2575-.008,-.3536 4.4e-4,-.6227 .086,-.9647 .005,-.019 .0997,-.3597 .142,-.3888 .5428,-.3738 1.1209,-.6937 1.6814,-1.0405 .0426,0 .0866,0 .1279,.01 .2648,.072 .3917,.401 .5024,.6157 .2357,.5565 .268,1.0516-.0318,1.5983-.068,.097-.1268,.202-.2041,.2923-.5521,.6452-1.6564,1.098-2.2184,1.4107-.5375,.2991-1.1558,.4269-1.747,.5653-.2367,.035-.4715,.087-.71,.1066-.852,.07-1.7224,-.083-2.4497,-.5408-.1044,-.083-.2169,-.1575-.3133,-.25-.4073,-.3914-.5345,-.8233-.3997,-1.3636 .2032,-.6461 .5218,-.9588 1.0648,-1.3565 1.0479,-.6191 1.9953,-1.302 3.1758,-1.5918l-1.4819,1.1332z" stroke="#000" stroke-linecap="round" stroke-linejoin="round" stroke-width=".2515"/>
<path d="m891.5674,1010.8518c-.2243,.2632-.4035,.5643-.4888,.9007-.0611,.3364 .1396,.4226 .4154,.5433 .4462,.1634 .8277,.1455 1.2847,.065 .6111,-.2095 1.5817,-.8065-1.1348,.6921-.0381,.021 .0724,-.049 .1046,-.078 .0766,-.07 .0844,-.099 .1345,-.1864 .0923,-.207 .0832,-.4007-.0356,-.5914-.1581,-.1498-.3958,-.1358-.5998,-.1457-.2107,.019-.4113,.072-.5826,.1981l1.4548,-1.1717c.2072,-.078 .4191,-.1279 .6429,-.1101 .2663,.026 .5282,.064 .7009,.2916 .1406,.2366 .1962,.4812 .1149,.7512-.2947,.8893-1.4141,1.2488-2.2801,1.4605-.4615,.058-.9177,.033-1.3515,-.1527-.3119,-.1609-.5915,-.3623-.5442,-.7527 .0576,-.3624 .2344,-.6871 .4467,-.9831l1.718,-.73z" stroke="#000" stroke-linecap="round" stroke-linejoin="round" stroke-width=".2515"/>
<path d="m867.7228,1015.3836c.3537,-.172 .6913,-.3752 1.0561,-.5235 .2286,-.1484 .4794,-.217 .7469,-.2463 .246,-.019 .4931,-.016 .7396,-.015 .2447,-.026 .452,.041 .667,.1458 .1505,.1206 .2692,.2808 .3835,.4358 .0994,.1805 .1578,.383 .2189,.5797 .0548,.2016 .1295,.3942 .169,.6001 .038,.2418 .0406,.4871 .0436,.7313 10e-4,.1259 9.1e-4,.2518 8.4e-4,.3777l-1.662,.8466c1.7e-4,-.1253 4.3e-4,-.2505-1.3e-4,-.3758-.002,-.2343-.002,-.4696-.0316,-.7024-.0328,-.2008-.1062,-.3854-.1597,-.5802-.0519,-.177-.1078,-.3572-.1882,-.5222-.0978,-.1282-.193,-.2747-.3336,-.3577-.1975,-.086-.4034,-.091-.6168,-.082-.2413,10e-4-.4842,-1e-4-.7231,.039-.2526,.053-.4803,.1621-.7103,.2775-.3579,.1664-.704,.3572-1.0509,.5451l1.4507,-1.1736z" stroke="#000" stroke-linecap="round" stroke-linejoin="round" stroke-width=".2515"/>
<path d="M62.0857,651.7737H248.9639A15.9099,15.9099 0 0 1 264.8738,667.6836V667.6836A15.9099,15.9099 0 0 1 248.9639,683.5935H62.0857A15.9099,15.9099 0 0 1 46.1758,667.6836V667.6836A15.9099,15.9099 0 0 1 62.0857,651.7737z" fill="#fff" stroke="#000" stroke-linecap="round" stroke-linejoin="round" stroke-width="4"/>
<path d="m101.5203,44.9288a36.8706,34.8503 0 1 1 -73.7411,0 36.8706,34.8503 0 1 1 73.7411,0z" stroke="#000" stroke-linecap="round" stroke-linejoin="round" stroke-width="7.491" transform="matrix(.7121,0,0,.7121,.88946,629.39669)"/>
<text font-family="Bitstream Vera Sans" font-size="40" x="25.5387" y="676.7164">
   <tspan fill="#f9f9f9" x="25.5387" y="676.7164">91</tspan>
  </text>
<text font-family="Bitstream Vera Sans" font-size="20" x="119.0202" y="674.4507">
   <tspan x="119.0202" y="674.4507"></tspan>
  </text>
<text font-family="Bitstream Vera Sans" font-size="20" x="672.3132" y="762.4487">
   <tspan x="672.3132" y="762.4487"></tspan>
  </text>
<text font-family="Bitstream Vera Sans" font-size="20" x="288.6809" y="276.1635">
   <tspan text-align="center" text-anchor="middle" x="288.6809" y="276.1635"></tspan>
  </text>
<text font-family="Bitstream Vera Sans" font-size="20" x="849.4362" y="-185.7851">
   <tspan text-align="center" text-anchor="middle" x="849.4362" y="-185.7851"></tspan>
  </text>
<text font-family="Bitstream Vera Sans" font-size="20" x="618.2756" y="-2.6378">
   <tspan x="618.2756" y="-2.6378"></tspan>
  </text>
<text font-family="Bitstream Vera Sans" font-size="20" x="123.5555" y="674.5651">
   <tspan x="123.5555" y="674.5651">Malloc</tspan>
  </text>
<text font-family="Bitstream Vera Sans" font-size="20" x="-246.2324" y="769.5198">
   <tspan x="-246.2324" y="769.5198"></tspan>
  </text>
<text font-family="Bitstream Vera Sans" font-size="20" x="-629.8646" y="283.2345">
   <tspan text-align="center" text-anchor="middle" x="-629.8646" y="283.2345"></tspan>
  </text>
<text font-family="Bitstream Vera Sans" font-size="20" x="-69.1094" y="-178.714">
   <tspan text-align="center" text-anchor="middle" x="-69.1094" y="-178.714"></tspan>
  </text>
<text font-family="Bitstream Vera Sans" font-size="20" x="-300.27" y="4.4332">
   <tspan x="-300.27" y="4.4332"></tspan>
  </text>
<text font-family="Bitstream Vera Sans" font-size="20" x="841.7019" y="329.0933">
   <tspan x="841.7019" y="329.0933"></tspan>
  </text>
<text font-family="Bitstream Vera Sans" font-size="20" x="458.0697" y="-157.192">
   <tspan text-align="center" text-anchor="middle" x="458.0697" y="-157.192"></tspan>
  </text>
<text font-family="Bitstream Vera Sans" font-size="20" x="1018.8249" y="-619.1406">
   <tspan text-align="center" text-anchor="middle" x="1018.8249" y="-619.1406"></tspan>
  </text>
<text font-family="Bitstream Vera Sans" font-size="20" x="787.6643" y="-435.9933">
   <tspan x="787.6643" y="-435.9933"></tspan>
  </text>
<path d="m446.8915,78.4154a61.5183,5.3033 0 1 1 -123.0366,0 61.5183,5.3033 0 1 1 123.0366,0z" stroke="#000" stroke-linecap="round" stroke-width="4.862" transform="matrix(-.92236,0,0,1,587.70519,806.0464)"/>
<path d="m182.6663,797.5747 0,47.8884c0,20.007 14.8563,36.1137 33.31,36.1137l32.6831,0c18.4537,0 33.31,-16.1067 33.31,-36.1137l0,-47.8884" fill="#fff" stroke="#000" stroke-linecap="round" stroke-linejoin="round" stroke-width="3.498"/>
<path d="M-255.116,817.3862H-233.5302A.7803,.7803 0 0 1 -232.7499,818.1665V828.1926A.7803,.7803 0 0 1 -233.5302,828.9729H-255.116A.7803,.7803 0 0 1 -255.8963,828.1926V818.1665A.7803,.7803 0 0 1 -255.116,817.3862z" stroke="#000" stroke-linecap="square" stroke-linejoin="round" stroke-width="3.5859" transform="scale(-1,1)"/>
<path d="M-216.8173,817.3862H-198.3527A2.3409,2.3409 0 0 1 -196.0118,819.7271V826.632A2.3409,2.3409 0 0 1 -198.3527,828.9729H-216.8173A2.3409,2.3409 0 0 1 -219.1582,826.632V819.7271A2.3409,2.3409 0 0 1 -216.8173,817.3862z" stroke="#000" stroke-linecap="square" stroke-linejoin="round" stroke-width="3.5859" transform="scale(-1,1)"/>
<path d="m279.8404,822.4408c-.5066,.0105-1.0133,.007-1.5199,.004-.3348,-.002-.6696,-.004-1.0043,-.004-.2698,-4.3e-4-.5396,-4e-4-.8094,-4e-4-.2804,-6.3e-4-.5608,6e-4-.8413,10e-4-.3603,-.01-.715,-3.7e-4-1.0717,.0507-.3686,.0545-.7407,.0717-1.1126,.0827-.3738,-.0158-.7406,.0589-1.1105,.099-.3762,.0368-.7545,.0407-1.1321,.045-.3967,.002-.7935,.002-1.1903,6.5e-4-.3446,-7.6e-4-.6892,-10e-4-1.0338,-.002-.2832,-7.7e-4-.5664,-9.8e-4-.8496,-10e-4-.2689,-8e-5-.5377,-7e-5-.8066,-6e-5-.2689,10e-6-.5378,10e-6-.8067,10e-6-.294,-3.9e-4-.5879,5.3e-4-.8818,.002-.3637,.002-.7273,4.4e-4-1.091,-6.3e-4-.3421,-2.7e-4-.6842,4.7e-4-1.0263,.001-.3659,-1.7e-4-.7319,-8e-5-1.0978,-.001-.3505,1.9e-4-.7009,7.4e-4-1.0514,1.6e-4-.3188,-10e-4-.6375,-10e-4-.9563,2.5e-4-.4918,.003-.9836,.004-1.4754,.006-.6702,.003-1.3404,.003-2.0107,10e-4-.4918,-10e-4-.9837,-.005-1.4755,-.005-.407,6.5e-4-.8141,-2e-5-1.2211,-10e-4-.0564,-2e-4-.1127,-4e-4-.1691,-6e-4l1.6104,1.1993c.0558,-2.1e-4 .1116,-4.1e-4 .1674,-6.1e-4 .4057,-10e-4 .8114,-.002 1.2171,-.002 .487,-2.2e-4 .9739,-.004 1.4609,-.005 .6711,-.002 1.3422,-.002 2.0133,9.9e-4 .4973,.002 .9945,.003 1.4917,.006 .319,.002 .638,.002 .9569,2.6e-4 .3506,-5.7e-4 .7012,-3e-5 1.0518,1.5e-4 .365,-9.9e-4 .7299,-8.9e-4 1.0949,-10e-4 .3434,10e-4 .6869,.002 1.0303,.002 .3631,-10e-4 .7262,-.003 1.0893,-6.3e-4 .2957,10e-4 .5914,.002 .8871,.002 .2689,0 .5378,0 .8067,0 .2688,0 .5376,2e-5 .8064,-6e-5 .2822,-1.3e-4 .5645,-3.5e-4 .8467,-9.6e-4 .3431,-6.9e-4 .6863,-8.4e-4 1.0294,-8.8e-4 .3968,-8.3e-4 .7935,7e-4 1.1903,-.004 .3826,-.006 .7658,-.0145 1.1463,-.0595 .366,-.0446 .7306,-.0972 1.1004,-.0869 .3761,-.0152 .7516,-.0435 1.1246,-.0968 .3524,-.0404 .7059,-.0292 1.0601,-.0278 .2815,5.6e-4 .5629,.002 .8444,10e-4 .2694,1e-5 .5388,3e-5 .8083,-4e-4 .331,-6.7e-4 .662,-.002 .993,-.004 .5103,-.003 1.0206,-.006 1.5308,.004l-1.6136,-1.2016z" stroke="#000" stroke-linecap="square" stroke-linejoin="round" stroke-width=".4578"/>
<path d="m195.4489,822.7175c-.6492,.0118-1.2986,.0102-1.9479,.01-.5951,-8.9e-4-1.1903,-.003-1.7854,-.006-.3977,-.002-.7954,-.002-1.1931,-.003-.3134,-8.1e-4-.6268,-.002-.9402,-.002-.2738,.0217-.5369,-.0575-.806,-.0956-.2699,-.0341-.542,-.039-.8136,-.0425-.2695,-.002-.539,-.001-.8084,-8.4e-4-.2691,4e-4-.5383,5.3e-4-.8074,6.1e-4-.2691,5e-5-.5383,5e-5-.8074,5e-5-.2691,0-.5383,0-.8074,0-.289,-6.1e-4-.5779,10e-4-.8669,10e-4-.2926,-2.5e-4-.5852,-6.9e-4-.8778,-9.3e-4-.271,-1.8e-4-.542,-2e-4-.813,-2.1e-4-.1792,-1e-5-.0897,-1e-5-.2688,-1e-5l1.615,1.2027c.1792,0 .0896,0 .2688,0 .2708,-2e-5 .5416,-4e-5 .8124,-2.2e-4 .2918,-2.3e-4 .5836,-6.8e-4 .8754,-9.3e-4 .29,4e-5 .5799,.002 .8699,10e-4 .2691,1e-5 .5383,1e-5 .8074,1e-5 .2692,-1e-5 .5383,-1e-5 .8075,-1.2e-4 .2692,-1.3e-4 .5383,-3.7e-4 .8075,-7.2e-4 .2687,-2.3e-4 .5374,-10e-4 .806,.004 .2669,.007 .5342,.0195 .7981,.0636 .2731,.0452 .5447,.0907 .8228,.0705 .3115,-4.3e-4 .623,-10e-4 .9345,-.002 .395,-5.4e-4 .79,-6.3e-4 1.185,-.003 .5901,-.003 1.1803,-.005 1.7704,-.006 .658,-4.8e-4 1.3161,-.002 1.974,.01l-1.6114,-1.2z" stroke="#000" stroke-linecap="square" stroke-linejoin="round" stroke-width=".4578"/>
<path d="m232.6135,822.8807c-.4925,.0676-.9893,.0889-1.4854,.1048-.4428,.0116-.8858,.0116-1.3287,.0103-.3656,-5e-4-.7313,-6.3e-4-1.0969,-.002-.734,.0205-1.4684,.0104-2.2026,.007-.4436,-.004-.8872,-.005-1.3308,-.007-.3537,3e-5-.7075,-4.2e-4-1.0613,6e-4-.3719,10e-4-.7438,-9.5e-4-1.1157,-3.1e-4-.3356,-8.6e-4-.6712,-7.6e-4-1.0067,-6.6e-4-.3361,5.6e-4-.6722,2.2e-4-1.0083,-5.1e-4-.321,10e-4-.6421,1.1e-4-.9631,-4.5e-4-.3141,10e-4-.6282,4.5e-4-.9424,-4e-5-.2774,-4.3e-4-.5549,-5.6e-4-.8324,-6.3e-4-.2321,.0585-.4655,.1006-.7036,.1209-.2582,.0172-.517,.0173-.7756,.018-.269,1.9e-4-.5381,-3.9e-4-.8071,-6.8e-4-.1347,-1.4e-4-.2694,-2e-4-.4041,-2.6e-4l1.6149,1.2027c.1346,1e-4 .2693,1.9e-4 .404,3.5e-4 .2693,3.2e-4 .5387,10e-4 .808,-3.9e-4 .263,-.002 .5266,-.005 .7885,-.0331 .2311,-.0293 .4575,-.0897 .6898,-.105 .2769,-8e-5 .5538,-2e-4 .8307,-6.3e-4 .3141,-4.8e-4 .6281,-.001 .9422,-5e-5 .3206,-5.5e-4 .6413,-.002 .9619,-4.4e-4 .3356,-7.3e-4 .6713,-.001 1.0069,-5.1e-4 .335,1.1e-4 .67,1.9e-4 1.005,-6.6e-4 .3716,6.4e-4 .7432,-.002 1.1148,-3.1e-4 .3543,10e-4 .7086,5.8e-4 1.0629,6e-4 .4373,-.002 .8747,-.003 1.312,-.007 .7404,-.004 1.4811,-.0132 2.2214,.007 .365,-4.3e-4 .7301,4.6e-4 1.0951,-3.6e-4 .4414,-.003 .8827,-.007 1.3238,-.0226 .5052,-.0212 1.0097,-.0538 1.5127,-.107l-1.6301,-1.1825z" stroke="#000" stroke-linecap="square" stroke-linejoin="round" stroke-width=".4578"/>
<path d="m268.1287,785.0674 0,18.5432" fill="none" stroke="#000" stroke-linecap="round" stroke-width="4.6144"/>
<path d="m259.3441,783.3131 0,18.5432" fill="none" stroke="#000" stroke-linecap="round" stroke-width="4.6144"/>
<path d="m251.101,784.7774 0,18.5432" fill="none" stroke="#000" stroke-linecap="round" stroke-width="4.6144"/>
<path d="m240.3308,783.6101 0,18.5432" fill="none" stroke="#000" stroke-linecap="round" stroke-width="4.6144"/>
<path d="m230.9608,785.7967 0,18.5432" fill="none" stroke="#000" stroke-linecap="round" stroke-width="4.6144"/>
<path d="m220.2344,785.6213 0,18.5432" fill="none" stroke="#000" stroke-linecap="round" stroke-width="4.6144"/>
<path d="m210.5473,783.9072 0,18.5432" fill="none" stroke="#000" stroke-linecap="round" stroke-width="4.6144"/>
<path d="m201.4016,786.9441 0,18.5432" fill="none" stroke="#000" stroke-linecap="round" stroke-width="4.6144"/>
<path d="m191.5573,786.5754 0,18.5432" fill="none" stroke="#000" stroke-linecap="round" stroke-width="4.6144"/>
<path d="m275.4008,789.7976 0,18.5432" fill="none" stroke="#000" stroke-linecap="round" stroke-width="4.6144"/>
<path d="m252.5501,855.0916c-3.2898,7.0548-12.4276,3.8755-19.1061,5" fill="none" stroke="#000" stroke-width=".9604"/>
<path d="m166.6252,694.6459c-3.6082,.0199-6.3989,3.0244-6.3989,7.0625l0,244.4375c0,4.3073 3.1937,8.1182 7.1483,8.5312l118.7832,12.4062c3.9546,.413 7.1483,-2.7239 7.1483,-7.0312l0,-244.4375c0,-4.3073-3.1937,-8.1182-7.1483,-8.5312L167.3746,694.6771c-.2472,-.0258-.5089,-.0326-.7494,-.0312zm21.0991,27.1562c.2405,-6.7e-4 .4735,.005 .7206,.0312l75.3168,8.0938c3.9536,.4238 7.1483,4.224 7.1483,8.5312l0,131.5938c0,4.3073-3.1947,7.4238-7.1483,7l-75.3168,-8.0625c-3.9536,-.4238-7.1483,-4.224-7.1483,-8.5312l0,-131.5938c0,-4.0381 2.8203,-7.0524 6.4277,-7.0625z" fill="#fff" stroke="#000" stroke-linejoin="round" stroke-width="3.8416"/>
<text font-family="Bitstream Vera Sans" font-size="19.208" transform="matrix(.9604,.11153,0,1.04124,0,0)" x="197.7032" y="666.2019">
   <tspan x="197.7032" y="666.2019">MALLOC</tspan>
  </text>
<path d="M2028.7791,1961.4373H2111.1801V1995.8993H2028.7791z" fill="#fff" stroke="#000" stroke-linejoin="round" stroke-width="5.8245" transform="matrix(.99617,.08747,-.93502,.35459,0,0)"/>
<path d="M2022.1007,1955.0269H2104.5017V1989.4889H2022.1007z" fill="#fff" stroke="#000" stroke-linejoin="round" stroke-width="5.8245" transform="matrix(.99617,.08747,-.93502,.35459,0,0)"/>
<path d="m288.0395,965.8825 14.4943,-5.7143" fill="none" stroke="#000" stroke-width="3.8416"/>
<path d="m291.9925,710.8825 11.2001,-5.7143" fill="none" stroke="#000" stroke-width="3.8416"/>
<path d="m164.5087,694.811 11.2001,-5.7143" fill="none" stroke="#000" stroke-width="3.8416"/>
<text font-family="Bitstream Vera Sans" font-size="19.208" transform="scale(.96,1.041)" x="203.1658" y="719.6418">
   <tspan x="203.1658" y="719.6418">Ok !</tspan>
  </text>
<path d="m216.5497,754.3672 11.1807,23.2335" fill="none" stroke="#000" stroke-width=".9604"/>
<text font-family="Bitstream Vera Sans" font-size="19.208" transform="matrix(.9604,.11608,0,1.04124,0,0)" x="233.202" y="857.0734">
   <tspan text-align="center" text-anchor="middle" x="233.202" y="857.0734">BANQUE DE</tspan>
   <tspan text-align="center" text-anchor="middle" x="233.202" y="881.0833">DONNEES</tspan>
  </text>
<path d="M325.7175,694.0084H394.5681V717.8589H325.7175z" fill="#fff" stroke="#000" stroke-linejoin="round" stroke-width="4"/>
<text font-family="Bitstream Vera Sans" font-size="20" x="347.8571" y="712.3622">
   <tspan x="347.8571" y="712.3622">LS :</tspan>
  </text>
<path d="M590.383,694.531H700.3311V717.3363H590.383z" fill="#fff" stroke="#000" stroke-linejoin="round" stroke-width="4"/>
<text font-family="Bitstream Vera Sans" font-size="20" x="597.1429" y="713.0765">
   <tspan x="597.1429" y="713.0765">FIREFOX :</tspan>
  </text>
<path d="M58.0747,695.4369H126.9253V719.2875H58.0747z" fill="#fff" stroke="#000" stroke-linejoin="round" stroke-width="4"/>
<text font-family="Bitstream Vera Sans" font-size="20" x="64.2857" y="713.7908">
   <tspan x="64.2857" y="713.7908">CAT :</tspan>
  </text>
<text font-family="Bitstream Vera Sans" font-size="20" x="90.7143" y="758.7907">
   <tspan text-align="center" text-anchor="middle" x="90.7143" y="758.7907">Bonjour il</tspan>
   <tspan text-align="center" text-anchor="middle" x="90.7143" y="783.7907">me faudrait</tspan>
   <tspan text-align="center" text-anchor="middle" x="90.7143" y="808.7907">juste un bloc</tspan>
   <tspan text-align="center" text-anchor="middle" x="90.7143" y="833.7907">memoire SVP.</tspan>
  </text>
<g transform="matrix(.92236,0,0,1,302.1626,-4.31756)">
<g transform="matrix(-1,0,0,1,655.27504,-82.96386)">
<path d="m446.8915,78.4154c0,2.9289-27.5427,5.3033-61.5183,5.3033-33.9756,0-61.5183,-2.3744-61.5183,-5.3033 0,-2.9289 27.5427,-5.3033 61.5183,-5.3033 33.9756,0 61.5183,2.3744 61.5183,5.3033z" stroke="#000" stroke-linecap="round" stroke-width="4.862" transform="translate(43.7774,889.0103)"/>
<path d="m482.9088,880.5386 0,47.8884c0,20.007-16.1067,36.1137-36.1137,36.1137l-35.434,0c-20.007,0-36.1137,-16.1067-36.1137,-36.1137l0,-47.8884" fill="#fff" stroke="#000" stroke-linecap="round" stroke-linejoin="round" stroke-width="3.6422"/>
<path d="M404.2953,900.3501H427.8293A.7803,.7803 0 0 1 428.6096,901.1304V911.1565A.7803,.7803 0 0 1 427.8293,911.9368H404.2953A.7803,.7803 0 0 1 403.515,911.1565V901.1304A.7803,.7803 0 0 1 404.2953,900.3501z" stroke="#000" stroke-linecap="square" stroke-linejoin="round" stroke-width="3.7338"/>
<path d="M445.6863,900.3501H466.0991A2.3409,2.3409 0 0 1 468.44,902.691V909.5959A2.3409,2.3409 0 0 1 466.0991,911.9368H445.6863A2.3409,2.3409 0 0 1 443.3454,909.5959V902.691A2.3409,2.3409 0 0 1 445.6863,900.3501z" stroke="#000" stroke-linecap="square" stroke-linejoin="round" stroke-width="3.7338"/>
<path d="m377.5555,905.4047c.5492,.0105 1.0986,.007 1.6478,.004 .363,-.002 .7259,-.004 1.0889,-.004 .2925,-4.3e-4 .585,-4e-4 .8775,-4e-4 .304,-6.3e-4 .6081,6e-4 .9121,10e-4 .3906,-.01 .7752,-3.7e-4 1.162,.0507 .3996,.0545 .8031,.0717 1.2062,.0827 .4052,-.0158 .8029,.0589 1.204,.099 .4079,.0368 .818,.0407 1.2274,.045 .4301,.002 .8603,.002 1.2904,6.5e-4 .3736,-7.6e-4 .7472,-10e-4 1.1208,-.002 .307,-7.7e-4 .6141,-9.8e-4 .9211,-10e-4 .2915,-8e-5 .583,-7e-5 .8745,-6e-5 .2915,10e-6 .5831,10e-6 .8746,10e-6 .3187,-3.9e-4 .6374,5.3e-4 .9561,.002 .3943,.002 .7885,4.4e-4 1.1828,-6.3e-4 .3709,-2.7e-4 .7418,4.7e-4 1.1126,10e-4 .3967,-1.7e-4 .7934,-8e-5 1.1902,-10e-4 .38,1.9e-4 .7599,7.4e-4 1.1399,1.6e-4 .3456,-10e-4 .6912,-10e-4 1.0367,2.5e-4 .5332,.003 1.0664,.004 1.5996,.006 .7266,.003 1.4533,.003 2.1799,10e-4 .5332,-10e-4 1.0664,-.005 1.5997,-.005 .4413,6.5e-4 .8826,-2e-5 1.3239,-10e-4 .0611,-2e-4 .1222,-4e-4 .1833,-6e-4l-1.746,1.1993c-.0605,-2.1e-4-.121,-4.1e-4-.1815,-6.1e-4-.4399,-10e-4-.8797,-.002-1.3196,-.002-.528,-2.2e-4-1.0559,-.004-1.5839,-.005-.7276,-.002-1.4552,-.002-2.1828,9.9e-4-.5391,.002-1.0782,.003-1.6173,.006-.3458,.002-.6916,.002-1.0375,2.6e-4-.3801,-5.7e-4-.7602,-3e-5-1.1404,1.5e-4-.3957,-9.9e-4-.7914,-8.9e-4-1.187,-10e-4-.3723,10e-4-.7447,.002-1.117,.002-.3937,-10e-4-.7873,-.003-1.181,-6.3e-4-.3206,.001-.6411,.002-.9617,.002-.2915,0-.5831,0-.8747,0-.2914,0-.5829,2e-5-.8743,-6e-5-.306,-1.3e-4-.612,-3.5e-4-.918,-9.6e-4-.372,-6.9e-4-.744,-8.4e-4-1.1161,-8.8e-4-.4302,-8.3e-4-.8603,7e-4-1.2904,-.004-.4148,-.006-.8303,-.0145-1.2428,-.0595-.3968,-.0446-.792,-.0972-1.193,-.0869-.4078,-.0152-.8149,-.0435-1.2193,-.0968-.382,-.0404-.7654,-.0292-1.1493,-.0278-.3051,5.6e-4-.6103,.002-.9155,.001-.2921,10e-6-.5842,3e-5-.8763,-4e-4-.3589,-6.7e-4-.7177,-.002-1.0765,-.004-.5532,-.003-1.1065,-.006-1.6597,.004l1.7494,-1.2016z" stroke="#000" stroke-linecap="square" stroke-linejoin="round" stroke-width=".4767"/>
<path d="m469.0503,905.6813c.7039,.0118 1.4079,.0102 2.1119,.01 .6452,-8.9e-4 1.2905,-.003 1.9357,-.006 .4312,-.002 .8624,-.002 1.2935,-.003 .3398,-8.1e-4 .6796,-.002 1.0194,-.002 .2968,.0217 .5821,-.0575 .8738,-.0956 .2926,-.0341 .5877,-.039 .8821,-.0425 .2922,-.002 .5843,-10e-4 .8765,-8.4e-4 .2918,4e-4 .5836,5.3e-4 .8754,6.1e-4 .2918,5e-5 .5836,5e-5 .8754,5e-5 .2918,0 .5836,0 .8754,0 .3133,-6.1e-4 .6266,10e-4 .9398,10e-4 .3172,-2.5e-4 .6345,-6.9e-4 .9517,-9.3e-4 .2938,-1.8e-4 .5877,-2e-4 .8815,-2.1e-4 .1943,-10e-6 .0972,-10e-6 .2915,-10e-6l-1.7509,1.2027c-.1943,0-.0971,0-.2914,0-.2936,-2e-5-.5872,-4e-5-.8808,-2.2e-4-.3164,-2.3e-4-.6327,-6.8e-4-.9491,-9.3e-4-.3144,4e-5-.6287,.002-.9431,10e-4-.2918,10e-6-.5836,10e-6-.8754,10e-6-.2918,-10e-6-.5836,-10e-6-.8754,-1.2e-4-.2918,-1.3e-4-.5837,-3.7e-4-.8755,-7.2e-4-.2913,-2.3e-4-.5826,-10e-4-.8738,.004-.2893,.007-.5791,.0195-.8653,.0636-.2961,.0452-.5905,.0907-.8921,.0705-.3377,-4.3e-4-.6755,-10e-4-1.0132,-.002-.4283,-5.4e-4-.8565,-6.3e-4-1.2848,-.003-.6398,-.003-1.2796,-.005-1.9195,-.006-.7134,-4.8e-4-1.4269,-.002-2.1402,.01l1.747,-1.2z" stroke="#000" stroke-linecap="square" stroke-linejoin="round" stroke-width=".4767"/>
<path d="m428.7575,905.8446c.5339,.0676 1.0726,.0889 1.6105,.1048 .4801,.0116 .9604,.0116 1.4405,.0103 .3964,-5e-4 .7929,-6.3e-4 1.1893,-.002 .7958,.0205 1.592,.0104 2.3879,.007 .4809,-.004 .9619,-.005 1.4428,-.007 .3835,3e-5 .767,-4.2e-4 1.1506,6e-4 .4032,10e-4 .8064,-9.5e-4 1.2096,-3.1e-4 .3638,-8.6e-4 .7277,-7.6e-4 1.0915,-6.6e-4 .3644,5.6e-4 .7288,2.2e-4 1.0931,-5.1e-4 .3481,10e-4 .6961,1.1e-4 1.0442,-4.5e-4 .3406,10e-4 .6811,4.5e-4 1.0217,-4e-5 .3008,-4.3e-4 .6016,-5.6e-4 .9024,-6.3e-4 .2516,.0585 .5047,.1006 .7628,.1209 .2799,.0172 .5606,.0173 .8409,.018 .2917,1.9e-4 .5833,-3.9e-4 .875,-6.8e-4 .146,-1.4e-4 .292,-2e-4 .4381,-2.6e-4l-1.7508,1.2027c-.146,10e-5-.292,1.9e-4-.438,3.5e-4-.292,3.2e-4-.584,10e-4-.876,-3.9e-4-.2852,-.002-.5709,-.005-.8549,-.0331-.2506,-.0293-.496,-.0897-.7478,-.105-.3002,-8e-5-.6004,-2e-4-.9006,-6.3e-4-.3405,-4.8e-4-.681,-10e-4-1.0215,-5e-5-.3476,-5.5e-4-.6953,-.002-1.0429,-4.4e-4-.3639,-7.3e-4-.7278,-10e-4-1.0916,-5.1e-4-.3632,1.1e-4-.7264,1.9e-4-1.0895,-6.6e-4-.4029,6.4e-4-.8058,-.002-1.2087,-3.1e-4-.3841,10e-4-.7682,5.8e-4-1.1523,6e-4-.4742,-.002-.9483,-.003-1.4224,-.007-.8027,-.004-1.6058,-.0132-2.4083,.007-.3958,-4.3e-4-.7915,4.6e-4-1.1873,-3.6e-4-.4785,-.003-.957,-.007-1.4353,-.0226-.5477,-.0212-1.0947,-.0538-1.64,-.107l1.7673,-1.1825z" stroke="#000" stroke-linecap="square" stroke-linejoin="round" stroke-width=".4767"/>
<path d="m390.253,868.0313 0,18.5432" fill="none" stroke="#000" stroke-linecap="round" stroke-width="4.8046"/>
<path d="m399.777,866.2769 0,18.5432" fill="none" stroke="#000" stroke-linecap="round" stroke-width="4.8046"/>
<path d="m408.7139,867.7412 0,18.5432" fill="none" stroke="#000" stroke-linecap="round" stroke-width="4.8046"/>
<path d="m420.3907,866.574 0,18.5432" fill="none" stroke="#000" stroke-linecap="round" stroke-width="4.8046"/>
<path d="m430.5493,868.7606 0,18.5432" fill="none" stroke="#000" stroke-linecap="round" stroke-width="4.8046"/>
<path d="m442.1786,868.5852 0,18.5432" fill="none" stroke="#000" stroke-linecap="round" stroke-width="4.8046"/>
<path d="m452.6811,866.871 0,18.5432" fill="none" stroke="#000" stroke-linecap="round" stroke-width="4.8046"/>
<path d="m462.5965,869.9079 0,18.5432" fill="none" stroke="#000" stroke-linecap="round" stroke-width="4.8046"/>
<path d="m473.2695,869.5393 0,18.5432" fill="none" stroke="#000" stroke-linecap="round" stroke-width="4.8046"/>
<path d="m382.3688,872.7615 0,18.5432" fill="none" stroke="#000" stroke-linecap="round" stroke-width="4.8046"/>
<path d="m407.1429,938.0554 20.7143,5" fill="none" stroke="#000"/>
</g>
<path d="m154.9749,694.6459c-3.912,.0199-6.9375,3.0244-6.9375,7.0625l0,244.4375c0,4.3073 3.4626,8.1182 7.75,8.5312l128.7812,12.4062c4.2874,.413 7.75,-2.7239 7.75,-7.0312l0,-244.4375c0,-4.3073-3.4626,-8.1182-7.75,-8.5312L155.7874,694.6771c-.268,-.0258-.5517,-.0326-.8125,-.0312zm22.875,27.1562c.2607,-6.7e-4 .5133,.005 .7812,.0312l81.6562,8.0938c4.2864,.4238 7.75,4.224 7.75,8.5312l0,131.5938c0,4.3073-3.4636,7.4238-7.75,7l-81.6562,-8.0625c-4.2864,-.4238-7.75,-4.224-7.75,-8.5312l0,-131.5938c0,-4.0381 3.0577,-7.0524 6.9688,-7.0625z" fill="#fff" stroke="#000" stroke-linejoin="round" stroke-width="4"/>
<text font-family="Bitstream Vera Sans" font-size="20" transform="skewY(6.114)" x="180.1803" y="696.4232">
    <tspan x="180.1803" y="696.4232">MALLOC</tspan>
   </text>
<path d="M2177.3708,2111.6008H2266.6565V2148.6113H2177.3708z" fill="#fff" stroke="#000" stroke-linejoin="round" stroke-width="6.2831" transform="matrix(.99674,.08072,-.94392,.33017,0,0)"/>
<path d="M2170.1345,2104.7163H2259.4202V2141.7268H2170.1345z" fill="#fff" stroke="#000" stroke-linejoin="round" stroke-width="6.2831" transform="matrix(.99674,.08072,-.94392,.33017,0,0)"/>
<path d="m286.6088,965.8825 15.7143,-5.7143" fill="none" stroke="#000" stroke-width="4"/>
<path d="m290.8945,710.8825 12.1428,-5.7143" fill="none" stroke="#000" stroke-width="4"/>
<path d="m152.6803,694.811 12.1428,-5.7143" fill="none" stroke="#000" stroke-width="4"/>
<text font-family="Bitstream Vera Sans" font-size="20" x="185.8681" y="749.3164">
    <tspan x="185.8681" y="749.3164">Ok...</tspan>
   </text>
<path d="m209.1016,152.005 12.1218,23.2335" fill="none" stroke="#000" transform="translate(0,602.3622)"/>
<text font-family="Bitstream Vera Sans" font-size="20" transform="skewY(6.361)" x="217.1429" y="895.2773">
    <tspan text-align="center" text-anchor="middle" x="217.1429" y="895.2773">BANQUE DE</tspan>
    <tspan text-align="center" text-anchor="middle" x="217.1429" y="920.2773">DONNEES</tspan>
   </text>
</g>
<g transform="matrix(.92236,0,0,1,584.30546,-2.17471)">
<g transform="matrix(-1,0,0,1,655.27504,-82.96386)">
<path d="m446.8915,78.4154c0,2.9289-27.5427,5.3033-61.5183,5.3033-33.9756,0-61.5183,-2.3744-61.5183,-5.3033 0,-2.9289 27.5427,-5.3033 61.5183,-5.3033 33.9756,0 61.5183,2.3744 61.5183,5.3033z" stroke="#000" stroke-linecap="round" stroke-width="4.862" transform="translate(43.7774,889.0103)"/>
<path d="m482.9088,880.5386 0,47.8884c0,20.007-16.1067,36.1137-36.1137,36.1137l-35.434,0c-20.007,0-36.1137,-16.1067-36.1137,-36.1137l0,-47.8884" fill="#fff" stroke="#000" stroke-linecap="round" stroke-linejoin="round" stroke-width="3.6422"/>
<path d="M404.2953,900.3501H427.8293A.7803,.7803 0 0 1 428.6096,901.1304V911.1565A.7803,.7803 0 0 1 427.8293,911.9368H404.2953A.7803,.7803 0 0 1 403.515,911.1565V901.1304A.7803,.7803 0 0 1 404.2953,900.3501z" stroke="#000" stroke-linecap="square" stroke-linejoin="round" stroke-width="3.7338"/>
<path d="M445.6863,900.3501H466.0991A2.3409,2.3409 0 0 1 468.44,902.691V909.5959A2.3409,2.3409 0 0 1 466.0991,911.9368H445.6863A2.3409,2.3409 0 0 1 443.3454,909.5959V902.691A2.3409,2.3409 0 0 1 445.6863,900.3501z" stroke="#000" stroke-linecap="square" stroke-linejoin="round" stroke-width="3.7338"/>
<path d="m377.5555,905.4047c.5492,.0105 1.0986,.007 1.6478,.004 .363,-.002 .7259,-.004 1.0889,-.004 .2925,-4.3e-4 .585,-4e-4 .8775,-4e-4 .304,-6.3e-4 .6081,6e-4 .9121,10e-4 .3906,-.01 .7752,-3.7e-4 1.162,.0507 .3996,.0545 .8031,.0717 1.2062,.0827 .4052,-.0158 .8029,.0589 1.204,.099 .4079,.0368 .818,.0407 1.2274,.045 .4301,.002 .8603,.002 1.2904,6.5e-4 .3736,-7.6e-4 .7472,-10e-4 1.1208,-.002 .307,-7.7e-4 .6141,-9.8e-4 .9211,-10e-4 .2915,-8e-5 .583,-7e-5 .8745,-6e-5 .2915,10e-6 .5831,10e-6 .8746,10e-6 .3187,-3.9e-4 .6374,5.3e-4 .9561,.002 .3943,.002 .7885,4.4e-4 1.1828,-6.3e-4 .3709,-2.7e-4 .7418,4.7e-4 1.1126,10e-4 .3967,-1.7e-4 .7934,-8e-5 1.1902,-10e-4 .38,1.9e-4 .7599,7.4e-4 1.1399,1.6e-4 .3456,-10e-4 .6912,-10e-4 1.0367,2.5e-4 .5332,.003 1.0664,.004 1.5996,.006 .7266,.003 1.4533,.003 2.1799,10e-4 .5332,-10e-4 1.0664,-.005 1.5997,-.005 .4413,6.5e-4 .8826,-2e-5 1.3239,-10e-4 .0611,-2e-4 .1222,-4e-4 .1833,-6e-4l-1.746,1.1993c-.0605,-2.1e-4-.121,-4.1e-4-.1815,-6.1e-4-.4399,-10e-4-.8797,-.002-1.3196,-.002-.528,-2.2e-4-1.0559,-.004-1.5839,-.005-.7276,-.002-1.4552,-.002-2.1828,9.9e-4-.5391,.002-1.0782,.003-1.6173,.006-.3458,.002-.6916,.002-1.0375,2.6e-4-.3801,-5.7e-4-.7602,-3e-5-1.1404,1.5e-4-.3957,-9.9e-4-.7914,-8.9e-4-1.187,-10e-4-.3723,10e-4-.7447,.002-1.117,.002-.3937,-10e-4-.7873,-.003-1.181,-6.3e-4-.3206,.001-.6411,.002-.9617,.002-.2915,0-.5831,0-.8747,0-.2914,0-.5829,2e-5-.8743,-6e-5-.306,-1.3e-4-.612,-3.5e-4-.918,-9.6e-4-.372,-6.9e-4-.744,-8.4e-4-1.1161,-8.8e-4-.4302,-8.3e-4-.8603,7e-4-1.2904,-.004-.4148,-.006-.8303,-.0145-1.2428,-.0595-.3968,-.0446-.792,-.0972-1.193,-.0869-.4078,-.0152-.8149,-.0435-1.2193,-.0968-.382,-.0404-.7654,-.0292-1.1493,-.0278-.3051,5.6e-4-.6103,.002-.9155,.001-.2921,10e-6-.5842,3e-5-.8763,-4e-4-.3589,-6.7e-4-.7177,-.002-1.0765,-.004-.5532,-.003-1.1065,-.006-1.6597,.004l1.7494,-1.2016z" stroke="#000" stroke-linecap="square" stroke-linejoin="round" stroke-width=".4767"/>
<path d="m469.0503,905.6813c.7039,.0118 1.4079,.0102 2.1119,.01 .6452,-8.9e-4 1.2905,-.003 1.9357,-.006 .4312,-.002 .8624,-.002 1.2935,-.003 .3398,-8.1e-4 .6796,-.002 1.0194,-.002 .2968,.0217 .5821,-.0575 .8738,-.0956 .2926,-.0341 .5877,-.039 .8821,-.0425 .2922,-.002 .5843,-10e-4 .8765,-8.4e-4 .2918,4e-4 .5836,5.3e-4 .8754,6.1e-4 .2918,5e-5 .5836,5e-5 .8754,5e-5 .2918,0 .5836,0 .8754,0 .3133,-6.1e-4 .6266,10e-4 .9398,10e-4 .3172,-2.5e-4 .6345,-6.9e-4 .9517,-9.3e-4 .2938,-1.8e-4 .5877,-2e-4 .8815,-2.1e-4 .1943,-10e-6 .0972,-10e-6 .2915,-10e-6l-1.7509,1.2027c-.1943,0-.0971,0-.2914,0-.2936,-2e-5-.5872,-4e-5-.8808,-2.2e-4-.3164,-2.3e-4-.6327,-6.8e-4-.9491,-9.3e-4-.3144,4e-5-.6287,.002-.9431,10e-4-.2918,10e-6-.5836,10e-6-.8754,10e-6-.2918,-10e-6-.5836,-10e-6-.8754,-1.2e-4-.2918,-1.3e-4-.5837,-3.7e-4-.8755,-7.2e-4-.2913,-2.3e-4-.5826,-10e-4-.8738,.004-.2893,.007-.5791,.0195-.8653,.0636-.2961,.0452-.5905,.0907-.8921,.0705-.3377,-4.3e-4-.6755,-10e-4-1.0132,-.002-.4283,-5.4e-4-.8565,-6.3e-4-1.2848,-.003-.6398,-.003-1.2796,-.005-1.9195,-.006-.7134,-4.8e-4-1.4269,-.002-2.1402,.01l1.747,-1.2z" stroke="#000" stroke-linecap="square" stroke-linejoin="round" stroke-width=".4767"/>
<path d="m428.7575,905.8446c.5339,.0676 1.0726,.0889 1.6105,.1048 .4801,.0116 .9604,.0116 1.4405,.0103 .3964,-5e-4 .7929,-6.3e-4 1.1893,-.002 .7958,.0205 1.592,.0104 2.3879,.007 .4809,-.004 .9619,-.005 1.4428,-.007 .3835,3e-5 .767,-4.2e-4 1.1506,6e-4 .4032,10e-4 .8064,-9.5e-4 1.2096,-3.1e-4 .3638,-8.6e-4 .7277,-7.6e-4 1.0915,-6.6e-4 .3644,5.6e-4 .7288,2.2e-4 1.0931,-5.1e-4 .3481,10e-4 .6961,1.1e-4 1.0442,-4.5e-4 .3406,10e-4 .6811,4.5e-4 1.0217,-4e-5 .3008,-4.3e-4 .6016,-5.6e-4 .9024,-6.3e-4 .2516,.0585 .5047,.1006 .7628,.1209 .2799,.0172 .5606,.0173 .8409,.018 .2917,1.9e-4 .5833,-3.9e-4 .875,-6.8e-4 .146,-1.4e-4 .292,-2e-4 .4381,-2.6e-4l-1.7508,1.2027c-.146,10e-5-.292,1.9e-4-.438,3.5e-4-.292,3.2e-4-.584,10e-4-.876,-3.9e-4-.2852,-.002-.5709,-.005-.8549,-.0331-.2506,-.0293-.496,-.0897-.7478,-.105-.3002,-8e-5-.6004,-2e-4-.9006,-6.3e-4-.3405,-4.8e-4-.681,-10e-4-1.0215,-5e-5-.3476,-5.5e-4-.6953,-.002-1.0429,-4.4e-4-.3639,-7.3e-4-.7278,-10e-4-1.0916,-5.1e-4-.3632,1.1e-4-.7264,1.9e-4-1.0895,-6.6e-4-.4029,6.4e-4-.8058,-.002-1.2087,-3.1e-4-.3841,10e-4-.7682,5.8e-4-1.1523,6e-4-.4742,-.002-.9483,-.003-1.4224,-.007-.8027,-.004-1.6058,-.0132-2.4083,.007-.3958,-4.3e-4-.7915,4.6e-4-1.1873,-3.6e-4-.4785,-.003-.957,-.007-1.4353,-.0226-.5477,-.0212-1.0947,-.0538-1.64,-.107l1.7673,-1.1825z" stroke="#000" stroke-linecap="square" stroke-linejoin="round" stroke-width=".4767"/>
<path d="m390.253,868.0313 0,18.5432" fill="none" stroke="#000" stroke-linecap="round" stroke-width="4.8046"/>
<path d="m399.777,866.2769 0,18.5432" fill="none" stroke="#000" stroke-linecap="round" stroke-width="4.8046"/>
<path d="m408.7139,867.7412 0,18.5432" fill="none" stroke="#000" stroke-linecap="round" stroke-width="4.8046"/>
<path d="m420.3907,866.574 0,18.5432" fill="none" stroke="#000" stroke-linecap="round" stroke-width="4.8046"/>
<path d="m430.5493,868.7606 0,18.5432" fill="none" stroke="#000" stroke-linecap="round" stroke-width="4.8046"/>
<path d="m442.1786,868.5852 0,18.5432" fill="none" stroke="#000" stroke-linecap="round" stroke-width="4.8046"/>
<path d="m452.6811,866.871 0,18.5432" fill="none" stroke="#000" stroke-linecap="round" stroke-width="4.8046"/>
<path d="m462.5965,869.9079 0,18.5432" fill="none" stroke="#000" stroke-linecap="round" stroke-width="4.8046"/>
<path d="m473.2695,869.5393 0,18.5432" fill="none" stroke="#000" stroke-linecap="round" stroke-width="4.8046"/>
<path d="m382.3688,872.7615 0,18.5432" fill="none" stroke="#000" stroke-linecap="round" stroke-width="4.8046"/>
<path d="m407.1429,938.0554 20.7143,5" fill="none" stroke="#000"/>
</g>
<path d="m154.9749,694.6459c-3.912,.0199-6.9375,3.0244-6.9375,7.0625l0,244.4375c0,4.3073 3.4626,8.1182 7.75,8.5312l128.7812,12.4062c4.2874,.413 7.75,-2.7239 7.75,-7.0312l0,-244.4375c0,-4.3073-3.4626,-8.1182-7.75,-8.5312L155.7874,694.6771c-.268,-.0258-.5517,-.0326-.8125,-.0312zm22.875,27.1562c.2607,-6.7e-4 .5133,.005 .7812,.0312l81.6562,8.0938c4.2864,.4238 7.75,4.224 7.75,8.5312l0,131.5938c0,4.3073-3.4636,7.4238-7.75,7l-81.6562,-8.0625c-4.2864,-.4238-7.75,-4.224-7.75,-8.5312l0,-131.5938c0,-4.0381 3.0577,-7.0524 6.9688,-7.0625z" fill="#fff" stroke="#000" stroke-linejoin="round" stroke-width="4"/>
<text font-family="Bitstream Vera Sans" font-size="20" transform="skewY(6.114)" x="180.1803" y="696.4232">
    <tspan x="180.1803" y="696.4232">MALLOC</tspan>
   </text>
<path d="M2177.3708,2111.6008H2266.6565V2148.6113H2177.3708z" fill="#fff" stroke="#000" stroke-linejoin="round" stroke-width="6.2831" transform="matrix(.99674,.08072,-.94392,.33017,0,0)"/>
<path d="M2170.1345,2104.7163H2259.4202V2141.7268H2170.1345z" fill="#fff" stroke="#000" stroke-linejoin="round" stroke-width="6.2831" transform="matrix(.99674,.08072,-.94392,.33017,0,0)"/>
<path d="m286.6088,965.8825 15.7143,-5.7143" fill="none" stroke="#000" stroke-width="4"/>
<path d="m290.8945,710.8825 12.1428,-5.7143" fill="none" stroke="#000" stroke-width="4"/>
<path d="m152.6803,694.811 12.1428,-5.7143" fill="none" stroke="#000" stroke-width="4"/>
<text font-family="Bitstream Vera Sans" font-size="20" x="185.8681" y="749.3164">
    <tspan x="185.8681" y="749.3164">Hmm...</tspan>
   </text>
<path d="m209.1016,152.005 12.1218,23.2335" fill="none" stroke="#000" transform="translate(0,602.3622)"/>
<text font-family="Bitstream Vera Sans" font-size="20" transform="skewY(6.361)" x="217.1429" y="895.2773">
    <tspan text-align="center" text-anchor="middle" x="217.1429" y="895.2773">BANQUE DE</tspan>
    <tspan text-align="center" text-anchor="middle" x="217.1429" y="920.2773">DONNEES</tspan>
   </text>
</g>
<path d="M75,241.4286 31.4286,292.1429" fill="none" stroke="#000" transform="translate(0,602.3622)"/>
<text font-family="Bitstream Vera Sans" font-size="20" x="371.4286" y="744.505">
   <tspan text-align="center" text-anchor="middle" x="371.4286" y="744.505">Il me faudrait</tspan>
   <tspan text-align="center" text-anchor="middle" x="371.4286" y="769.505">un crédit sur</tspan>
   <tspan text-align="center" text-anchor="middle" x="371.4286" y="794.505">10 ans avec</tspan>
   <tspan text-align="center" text-anchor="middle" x="374.202" y="819.505">des </tspan>
   <tspan text-align="center" text-anchor="middle" x="371.4286" y="844.505">mensualités</tspan>
   <tspan text-align="center" text-anchor="middle" x="371.4286" y="869.505">à taux</tspan>
   <tspan text-align="center" text-anchor="middle" x="371.4286" y="894.505">variables !</tspan>
  </text>
<text font-family="Bitstream Vera Sans" font-size="20" x="650.7143" y="753.0765">
   <tspan text-align="center" text-anchor="middle" x="650.7143" y="753.0765">HAUT LES</tspan>
   <tspan text-align="center" text-anchor="middle" x="650.7143" y="778.0765">MAINS !</tspan>
   <tspan text-align="center" text-anchor="middle" x="650.7143" y="803.0765">CECI EST</tspan>
   <tspan text-align="center" text-anchor="middle" x="650.7143" y="828.0765">UN</tspan>
   <tspan text-align="center" text-anchor="middle" x="650.7143" y="853.0765">HOLD UP !</tspan>
  </text>
<path d="m633.5714,867.3622-38.5714,40" fill="none" stroke="#000"/>
<path d="M334.2857,255.7143 310,277.1429" fill="none" stroke="#000" transform="translate(0,602.3622)"/>
</g>
</svg>
