<svg version="1.0" viewBox="0 0 900 450" xmlns="http://www.w3.org/2000/svg" xmlns:svg="http://www.w3.org/2000/svg">
<text font-family="Bitstream Vera Sans" font-size="20" x="157.5482" y="139.5155">
   <tspan text-align="center" text-anchor="middle" x="157.5482" y="139.5155"></tspan>
  </text>
<path d="M-337.4261,755.6886H-147.2172A7.5735,7.5735 0 0 1 -139.6436,763.2621V799.6151A7.5735,7.5735 0 0 1 -147.2172,807.1886H-337.4261A7.5735,7.5735 0 0 1 -344.9997,799.6151V763.2621A7.5735,7.5735 0 0 1 -337.4261,755.6886z" stroke="#000" stroke-linecap="round" stroke-linejoin="round" stroke-width="5.8088" transform="matrix(1,0,.87861,.47753,0,0)"/>
<path d="M48.4773,80.7678H829.4792A31.621,31.621 0 0 1 861.1003,112.3889V360.7377A31.621,31.621 0 0 1 829.4792,392.3587H48.4773A31.621,31.621 0 0 1 16.8563,360.7377V112.3889A31.621,31.621 0 0 1 48.4773,80.7678z" fill="#fff" stroke="#000" stroke-linecap="round" stroke-width="7.4907"/>
<path d="M16.8767,327.5583L862.3744,327.5583" fill="none" stroke="#000"/>
<path d="M290.3879,76.7286L290.3879,390.619" fill="none" stroke="#000" stroke-width="5.6784"/>
<g transform="matrix(.12574,0,0,.12574,818.82317,419.90368)">
<path d="M162.9615,-66.1029C166.455,-62.0454 171.1969,-61.5587 176.2443,-61.2734C182.6298,-61.4455 189.026,-62.9739 194.9925,-65.2443C198.1805,-66.4574 199.9424,-67.4904 202.9171,-69.0527C185.1139,-58.637 195.0252,-64.2154 198.3536,-67.7512C200.078,-69.5831 201.1079,-71.5131 202.0803,-73.8002C204.6069,-80.9176 204.9343,-88.5711 205.3652,-96.044C206.205,-106.9224 203.9531,-117.6028 201.5284,-128.1342C198.5789,-139.2121 194.5731,-149.9773 190.1613,-160.547C188.0488,-165.5407 185.6597,-170.4087 183.3326,-175.3036C180.1965,-181.3209 177.6309,-177.584 195.344,-184.4552C195.9544,-184.6919 196.0751,-183.3682 196.4662,-182.8431C197.1211,-181.9638 197.8094,-181.1099 198.4809,-180.2434C205.0155,-171.2763 212.8739,-163.4194 220.7492,-155.6472C225.3824,-151.1349 230.3508,-146.9467 234.7812,-142.2286C236.4627,-140.8555 237.4679,-138.92 238.8212,-137.2745C240.143,-136.0803 241.1771,-137.3375 242.3452,-138.1546C221.9421,-125.9198 229.2084,-129.8742 233.1206,-133.6257C234.6613,-135.103 236.1138,-136.6818 237.5889,-138.2234C239.6824,-140.3121 241.6662,-142.5484 243.9587,-144.4296C250.0105,-149.3955 258.4541,-153.3638 264.7123,-156.9238C270.4949,-159.4778 276.4106,-161.6997 282.419,-163.6577C283.6619,-163.9272 288.4708,-165.7766 289.5688,-164.5267C289.8243,-164.2359 289.9278,-163.8408 290.1072,-163.4978C290.1321,-163.1471 290.2293,-162.7941 290.1818,-162.4458C289.8354,-159.9037 285.8996,-156.946 284.1819,-155.3646C276.2864,-148.8374 268.6258,-142.0481 261.3333,-134.8534C254.99,-128.0483 248.4375,-121.3307 243.3873,-113.4811C240.2691,-108.5784 238.6116,-103.1651 237.8336,-97.4612C237.3182,-92.3602 237.4023,-87.2238 237.4103,-82.1038C237.6896,-76.538 238.3996,-70.961 240.0566,-65.6294C241.0066,-62.7897 242.6958,-60.7035 245.3984,-59.4565C247.1918,-58.8245 249.2452,-58.4083 251.1546,-58.7689C251.5988,-58.8529 255.3028,-60.1078 255.5991,-60.2068C259.9663,-62.5901 270.5149,-68.1635 250.7739,-57.3451C249.993,-56.9172 252.2774,-58.3004 253.0176,-58.7957C254.7175,-59.9333 255.126,-60.2677 256.721,-61.457C258.634,-62.8882 257.7277,-62.1927 259.444,-63.5378L273.1151,-69.0361C271.3827,-67.5797 272.3103,-68.3061 270.3191,-66.8738C262.2562,-60.6484 253.3247,-55.4952 244.0683,-51.2776C240.0071,-50.0654 237.0083,-49.4853 233.0532,-51.3558C230.1407,-52.9982 228.2379,-55.381 227.2136,-58.6022C225.5902,-64.0918 224.9779,-69.8068 224.4451,-75.4915C224.414,-80.6627 224.3292,-85.8471 224.7473,-91.006C225.4856,-96.9163 227.043,-102.5571 230.2219,-107.6713C230.8593,-108.7308 231.4383,-109.8277 232.1341,-110.8497C233.5635,-112.949 235.6974,-115.3519 237.3267,-117.2406C240.9264,-121.4136 244.6087,-125.5129 248.4113,-129.5027C255.5038,-136.6573 262.9793,-143.4183 270.7308,-149.8547C272.9266,-151.8936 275.199,-153.8815 277.0938,-156.2117C277.4084,-156.0458 276.3957,-156.0728 276.0435,-156.0235C274.2856,-155.7778 272.5938,-155.2318 270.901,-154.7183C264.9598,-152.7572 259.0786,-150.5816 253.4382,-147.8602C272.8794,-159.3576 261.1903,-152.8293 257.3908,-149.9058C255.0765,-148.125 253.0963,-145.926 251.0661,-143.8444C243.704,-136.0782 243.2815,-135.2558 230.8263,-128.8268C228.7851,-127.8625 227.644,-127.977 226.0472,-129.6547C224.7873,-131.3205 223.7779,-133.1781 222.2218,-134.6111C217.9797,-139.4028 213.2498,-143.7505 208.7563,-148.2998C200.956,-156.2393 193.036,-164.0853 186.0942,-172.8083C185.3483,-173.6466 184.6017,-174.4843 183.8565,-175.3233C183.4425,-175.7895 182.1438,-176.3177 182.6168,-176.7238C193.8626,-186.3779 193.2258,-188.9054 196.1308,-182.5316C198.3231,-177.537 200.6341,-172.5923 202.629,-167.5129C206.8035,-156.7535 210.6525,-145.8567 213.8046,-134.7502C216.3374,-124.1716 218.8429,-113.4256 218.1141,-102.4633C217.8266,-94.9202 217.3841,-87.2389 215.3364,-79.9427C214.6632,-78.0762 214.4306,-77.1236 213.3557,-75.4158C208.633,-67.9123 198.4469,-64.3688 191.7517,-60.1093C183.2311,-55.9217 174.1664,-52.9607 164.5762,-52.9176C163.243,-53.0245 161.8998,-53.0436 160.5765,-53.2383C156.6356,-53.8182 152.962,-55.54 150.2346,-58.4617L162.9615,-66.1029z" stroke="#000" stroke-linecap="round" stroke-linejoin="round" stroke-width="2"/>
<path d="M285.1504,-83.2549C279.2704,-81.6082 266.5253,-73.74 288.7732,-86.471C285.6873,-84.8287 283.8556,-82.1564 282.4117,-79.0736C281.5877,-76.6037 280.7082,-73.8959 280.8873,-71.2445C281.0112,-69.4099 281.4883,-68.4885 282.1122,-66.775C284.5548,-61.9495 288.3109,-57.9808 292.7681,-54.9746C296.0578,-52.6838 299.7974,-51.6413 303.7669,-51.5931C306.8299,-52.2892 309.6761,-53.4821 312.4808,-54.8725C313.6763,-55.4652 317.18,-57.4003 316.0334,-56.7177C302.8176,-48.8508 306.1278,-50.9743 310.8042,-54.1772C314.6548,-57.1431 318.8403,-60.5843 319.8322,-65.6282C319.9707,-66.3328 319.9608,-67.0585 320.0251,-67.7736C319.7705,-74.0822 315.7842,-79.021 311.938,-83.6853C309.5135,-86.3835 306.7679,-88.9566 303.4532,-90.5325C301.7709,-91.3322 300.9086,-91.4744 299.127,-91.9474C295.533,-92.1428 291.7665,-91.8011 288.3544,-90.5627C286.7769,-89.9902 284.386,-88.6593 282.9199,-87.8841C302.9062,-99.8746 289.8107,-91.9587 285.6886,-88.3736L272.0851,-82.8087C278.4156,-88.898 286.8685,-92.4857 294.2269,-96.9393C296.3627,-97.9778 297.6236,-98.6956 299.9061,-99.3886C303.5386,-100.4916 307.4494,-100.7491 311.1907,-100.1978C313.1147,-99.5839 313.8945,-99.429 315.7014,-98.4661C319.0659,-96.6731 321.8405,-93.9498 324.3224,-91.1058C328.3687,-86.1242 332.4762,-80.9616 333.0924,-74.3305C333.0628,-73.5258 333.1121,-72.7144 333.0035,-71.9165C332.2653,-66.4892 328.2283,-62.6312 324.1231,-59.4248C316.1605,-53.7094 320.2406,-56.4756 304.8488,-47.7573C300.8383,-45.4856 296.4513,-43.5622 291.8451,-43.0245C287.6957,-43.3915 283.8349,-44.6143 280.4546,-47.1325C275.8828,-50.4672 272.0386,-54.677 269.3612,-59.693C268.7366,-61.3275 268.0271,-62.8838 267.8135,-64.6468C267.4791,-67.4079 268.3981,-70.3095 269.0633,-72.941C270.3422,-76.1902 271.9653,-79.2701 275.0209,-81.1777C282.2031,-85.3118 288.9239,-90.0555 296.9357,-92.2666L285.1504,-83.2549z" stroke="#000" stroke-linecap="round" stroke-linejoin="round" stroke-width="2"/>
<path d="M347.1504,-77.2549C344.6035,-76.4403 341.9575,-75.7416 339.5363,-74.5814C338.7232,-74.1918 337.9599,-73.7059 337.1716,-73.2681C340.5173,-75.1416 343.863,-77.0152 347.2087,-78.8887C343.2371,-76.2087 340.2901,-73.5303 338.5132,-69.0387C337.3505,-65.3388 337.9081,-62.2103 340.8379,-59.4732C341.5453,-58.8124 342.3768,-58.2984 343.1462,-57.711C348.7467,-54.4938 355.3758,-53.3418 361.7904,-54.0225C363.6291,-54.2176 365.4327,-54.663 367.2538,-54.9833C371.4683,-56.0713 373.305,-56.374 377.2631,-58.0355C378.5761,-58.5866 382.3128,-60.6635 381.0902,-59.9334C363.2909,-49.3046 371.3475,-53.9354 374.1428,-56.7651C374.7627,-57.3926 375.255,-58.1344 375.8111,-58.8191C378.2486,-62.6326 378.3111,-66.0246 376.5942,-70.0879C376.279,-70.8016 374.4627,-74.5447 373.1819,-73.7346C372.9601,-73.5943 372.8477,-73.33 372.6807,-73.1277C392.8977,-84.6564 385.2006,-82.7287 383.2398,-77.11C382.3936,-74.6854 382.2459,-72.3278 382.1295,-69.7816C383.5341,-57.9615 388.7559,-47.0167 393.0457,-36.0346C398.2618,-21.5258 403.2897,-6.47 403.8684,9.092C403.9836,12.189 403.6821,15.2876 403.5889,18.3853C403.1263,21.364 402.8671,24.3813 402.2011,27.3212C400.0287,36.9109 395.0849,45.6892 387.7437,52.2682C386.4496,53.4279 384.9846,54.3816 383.6051,55.4383C378.0848,58.3221 372.8336,61.7934 367.0443,64.0899C364.6445,65.0418 358.8518,63.0561 356.9529,62.2095C349.8949,59.0631 343.7992,53.895 337.8032,49.1621C327.688,40.5031 317.7846,31.4711 308.7355,21.6837C304.0475,16.6133 302.8886,14.9067 298.8166,9.6614C295.3512,3.8792 291.2661,-2.8245 294.6732,-9.6402C296.6895,-13.6737 299.1232,-15.1372 302.5004,-18.074C312.6219,-24.6327 313.4505,-25.3796 328.104,-32.7999C331.6804,-34.6109 343.2136,-38.7065 346.7432,-39.9379C353.7819,-42.3937 361.3514,-44.8267 368.4293,-47.1393C387.0233,-52.5028 405.2349,-59.0355 423.2344,-66.1176C424.7623,-66.7671 426.2923,-67.4118 427.8181,-68.0661C428.9838,-68.566 430.1581,-69.0469 431.3089,-69.5801C433.6612,-70.67 435.8588,-72.019 438.2856,-72.9431C441.5765,-73.4124 442.7308,-69.4505 443.7159,-67.0436C445.9847,-60.9159 447.263,-54.4902 447.8147,-47.9941C447.9509,-45.0837 448.0453,-42.1595 447.6331,-39.2662C447.5909,-38.9704 447.7439,-38.5103 447.473,-38.3842C443.0642,-36.3309 438.4604,-34.7251 433.9541,-32.8956C433.9659,-33.7909 433.9166,-34.689 433.9896,-35.5814C434.0957,-36.8799 434.3191,-38.1662 434.4903,-39.4578C435.49,-46.9958 436.7994,-54.4336 438.3334,-61.8806C439.8884,-68.3767 441.231,-75.18 444.9433,-80.8503C449.1473,-85.2518 458.497,-93.9297 463.0497,-88.879C463.5264,-88.3501 463.8605,-87.7082 464.2658,-87.1228C465.1568,-85.5475 465.9266,-84.351 466.5095,-82.6055C468.1484,-77.6977 468.884,-71.9449 469.7517,-66.8403C470.8843,-62.4227 470.4525,-57.1322 471.7929,-52.8005C473.5655,-57.562 471.775,-52.58 459.0435,-46.5094C458.7853,-46.3863 459.4327,-46.9346 459.5772,-47.1814C459.9087,-47.7474 460.5577,-49.4088 460.8105,-49.919C461.1553,-50.6152 461.549,-51.286 461.9182,-51.9694C464.3127,-55.807 466.3395,-59.8622 468.9779,-63.5425C473.3892,-69.0698 477.5158,-70.2762 485.1519,-74.4725C485.4138,-74.6164 485.7664,-74.5326 486.0475,-74.431C486.4054,-74.3016 486.6836,-74.0129 487.0016,-73.8039C489.988,-70.6628 491.0279,-66.2182 492.0362,-62.1278C492.9125,-57.6742 493.3814,-53.131 495.0104,-48.8712C495.4071,-48.3128 495.7311,-47.6948 496.2004,-47.1959C499.6185,-43.5623 505.2722,-40.8461 509.9343,-39.3687C511.6885,-38.8128 513.4959,-38.4411 515.2767,-37.9773C522.8167,-36.0961 530.3825,-36.0026 537.8823,-38.0643C539.5423,-38.5206 541.2095,-38.9969 542.7819,-39.6981C544.2464,-40.3512 545.5581,-41.3036 546.9463,-42.1064C544.0584,-40.6163 541.3829,-38.6098 538.2826,-37.636C537.087,-37.2605 540.1428,-39.3201 540.9963,-40.2377C543.5122,-42.9425 544.9507,-45.9503 545.9633,-49.4488C546.6579,-52.3622 546.6456,-55.3557 546.5652,-58.3283C545.753,-64.4645 540.332,-58.4252 559.1,-66.0472C559.4417,-66.186 558.8994,-65.3356 558.842,-64.9712C558.7584,-64.4412 558.7327,-63.9037 558.678,-63.37C558.4116,-58.5352 558.3011,-53.6898 558.8385,-48.8729C559.3853,-45.774 559.9781,-42.6077 562.4072,-40.4324C564.1162,-39.3075 565.9299,-39.231 567.8176,-39.8486C572.3605,-42.1411 579.1794,-46.118 558.5218,-34.4558C557.7888,-34.042 559.9393,-35.3644 560.6358,-35.837L574.3857,-41.3039C573.3212,-40.43 573.5147,-40.5201 572.2923,-39.8054C567.6471,-37.0896 561.8948,-32.5533 556.0168,-30.8992C553.7225,-30.6532 551.5833,-31.1524 549.789,-32.6773C547.292,-35.2807 546.4771,-38.6003 545.9205,-42.101C545.3299,-46.9737 545.4484,-51.8684 545.5121,-56.7697C545.5317,-57.4241 545.5891,-59.6985 545.6353,-59.7292C555.3623,-66.1895 558.5071,-72.3046 559.7414,-65.0828C559.8109,-61.9585 559.8144,-58.8161 559.1617,-55.7418C555.9603,-42.9865 547.5064,-40.0804 535.8851,-33.2002C534.4562,-32.4798 533.0874,-31.625 531.5984,-31.0388C522.6477,-27.5147 512.8948,-27.7976 503.6881,-30.0046C501.849,-30.4923 499.9816,-30.8834 498.1708,-31.4678C493.5394,-32.9624 487.0263,-36.1598 483.6105,-39.7531C483.0478,-40.345 482.6426,-41.0688 482.1586,-41.7267C480.5349,-46.0707 480.067,-50.6739 479.2315,-55.2142C478.3895,-58.7321 477.5533,-63.083 474.6465,-65.525C473.9606,-65.439 474.3146,-65.5425 473.6055,-65.1501C477.5343,-67.4822 481.4631,-69.8142 485.392,-72.1463C485.7243,-72.3373 484.7836,-71.6778 484.5048,-71.4148C483.8053,-70.7548 483.2382,-69.9617 482.4827,-69.3567C479.6627,-65.8118 477.6289,-61.7908 475.2736,-57.9352C474.3882,-56.4197 473.6566,-54.9774 473.0931,-53.3151C472.9783,-52.9764 473.1056,-52.4677 472.7992,-52.2834C459.5044,-44.2868 462.4531,-41.0521 458.7423,-45.7121C457.6264,-50.4162 458.1984,-55.4103 457.1115,-60.1366C456.048,-66.7522 455.2298,-73.8382 451.6337,-79.6263C451.0084,-80.3781 450.7399,-81.067 449.7463,-81.2506C449.4773,-81.3003 448.6972,-81.0264 448.9293,-81.1714C452.7843,-83.5799 456.7874,-85.7435 460.684,-88.0841C461.0341,-88.2944 459.9199,-87.7826 459.574,-87.5654C459.1661,-87.3094 458.8163,-86.9709 458.4374,-86.6736C454.0539,-81.4464 452.7319,-74.3891 450.9594,-67.9864C448.9624,-58.7542 447.2481,-49.392 446.9663,-39.9303C442.6611,-37.2917 438.4431,-34.5055 434.0509,-32.0145C433.809,-31.8773 434.2913,-32.5188 434.3689,-32.7859C435.1731,-35.5526 434.9442,-38.4808 434.9437,-41.3192C434.5725,-47.6693 433.3852,-53.9844 430.9595,-59.8902C430.4967,-60.9584 429.6461,-64.0551 428.0273,-64.1645C427.6519,-64.1899 426.9629,-63.8928 426.664,-63.7855C421.876,-61.6536 417.2258,-59.2069 412.2498,-57.5029C394.41,-50.7931 376.4177,-44.5046 358.1221,-39.1385C347.5024,-35.6251 336.8084,-32.2298 326.4071,-28.0958C323.4132,-26.9058 320.6723,-24.9485 317.5147,-24.3088C315.893,-23.9803 323.0914,-27.8472 321.6038,-27.1227C319.4346,-26.0663 317.5039,-24.5777 315.454,-23.3052C311.6254,-20.2317 306.9304,-17.0518 306.0231,-11.7537C305.1302,-6.539 308.4514,-1.7173 310.6976,2.6064C312.0867,4.5044 313.4087,6.4534 314.865,8.3002C324.8107,20.9133 336.9125,31.7349 349.2333,41.9507C355.2776,46.4639 361.4425,51.5105 368.5887,54.2474C370.2378,54.879 371.9681,55.3572 373.7232,55.5527C375.2204,55.7194 379.0476,54.0524 378.2367,55.3221C376.5481,57.9662 373.0607,58.8689 370.4727,60.6424C371.9211,59.6313 373.4539,58.7314 374.818,57.609C382.3953,51.3747 387.7065,42.7683 390.0706,33.2575C390.7888,30.3679 391.0696,27.3869 391.5691,24.4516C391.713,21.3964 392.0786,18.3436 392.0007,15.286C391.6074,-.1509 386.3714,-15.0473 381.0958,-29.3649C376.6203,-40.4339 371.1739,-51.3452 369.2251,-63.2235C369.1596,-66.0352 369.2286,-68.1755 369.9092,-70.8957C369.9473,-71.0478 370.7023,-73.7558 371.0384,-73.9872C375.3553,-76.9602 379.9527,-79.5037 384.4099,-82.2619C384.7489,-82.2349 385.0988,-82.2704 385.4268,-82.1807C387.5325,-81.605 388.5419,-78.9921 389.422,-77.2845C391.2962,-72.8589 391.5534,-68.921 389.1687,-64.5737C388.6277,-63.7989 388.1602,-62.9673 387.5458,-62.2493C383.155,-57.1183 374.373,-53.5169 369.904,-51.0303C365.6297,-48.6519 360.7122,-47.6351 356.0106,-46.5342C354.1284,-46.2519 352.2609,-45.8421 350.3638,-45.6872C343.5879,-45.1342 336.6659,-46.3505 330.8819,-49.9878C330.0515,-50.6505 329.1568,-51.2399 328.3906,-51.9759C325.1513,-55.0883 324.1401,-58.5232 325.2119,-62.8203C326.8277,-67.9581 329.3611,-70.4448 333.6797,-73.6076C342.0135,-78.5311 349.5479,-83.9618 358.9357,-86.2666L347.1504,-77.2549z" stroke="#000" stroke-linecap="round" stroke-linejoin="round" stroke-width="2"/>
<path d="M549.2332,-122.1847C547.4497,-120.0919 546.0244,-117.6969 545.3462,-115.0219C544.8607,-112.3468 546.4564,-111.6609 548.6501,-110.701C552.1989,-109.4013 555.2322,-109.544 558.8667,-110.1867C563.727,-111.8529 571.4457,-116.6009 549.8419,-104.683C549.5386,-104.5156 550.4174,-105.0731 550.6735,-105.3066C551.283,-105.8622 551.3443,-106.0922 551.7431,-106.7885C552.4769,-108.4348 552.405,-109.9757 551.4599,-111.492C550.2026,-112.6833 548.3125,-112.5716 546.6902,-112.6506C545.0147,-112.4957 543.4191,-112.0801 542.057,-111.0753L553.6269,-120.3929C555.2743,-121.0166 556.9597,-121.4107 558.7396,-121.2691C560.8571,-121.0599 562.9403,-120.7594 564.3134,-118.9498C565.4318,-117.0683 565.8738,-115.1231 565.2275,-112.9755C562.8838,-105.9037 553.9818,-103.0447 547.0943,-101.3611C543.4244,-100.8997 539.7964,-101.101 536.3461,-102.5755C533.866,-103.8553 531.6424,-105.4567 532.0181,-108.5614C532.4759,-111.4436 533.8818,-114.0254 535.5706,-116.3799L549.2332,-122.1847z" stroke="#000" stroke-linecap="round" stroke-linejoin="round" stroke-width="2"/>
<path d="M359.6057,-86.1453C362.4187,-87.5125 365.103,-89.129 368.0047,-90.3079C369.8229,-91.4887 371.8175,-92.0343 373.9447,-92.2669C375.9013,-92.4156 377.8658,-92.3906 379.8266,-92.3838C381.7726,-92.5908 383.4211,-92.0588 385.1306,-91.2244C386.3272,-90.2653 387.2717,-88.9911 388.1806,-87.7589C388.971,-86.3232 389.4355,-84.7124 389.9217,-83.1481C390.3578,-81.5453 390.9514,-80.0138 391.2655,-78.376C391.5681,-76.4533 391.5887,-74.5022 391.6123,-72.5605C391.6209,-71.5593 391.6196,-70.5581 391.6191,-69.5568L378.4016,-62.8239C378.4031,-63.8201 378.4051,-64.8163 378.4006,-65.8125C378.3869,-67.6761 378.3836,-69.5468 378.1492,-71.3987C377.8884,-72.9952 377.3044,-74.4635 376.8794,-76.0128C376.4669,-77.4199 376.0218,-78.8533 375.3829,-80.165C374.6051,-81.185 373.8481,-82.3496 372.73,-83.0103C371.1597,-83.6924 369.5221,-83.7365 367.825,-83.6633C365.9059,-83.6547 363.9742,-83.6641 362.0745,-83.3541C360.0654,-82.9292 358.2552,-82.0648 356.4262,-81.1471C353.5803,-79.8236 350.8275,-78.3064 348.069,-76.8116L359.6057,-86.1453z" stroke="#000" stroke-linecap="round" stroke-linejoin="round" stroke-width="2"/>
</g>
<path d="M58.4045,45.4615H245.2827A15.9099,15.9099 0 0 1 261.1926,61.3714V61.3714A15.9099,15.9099 0 0 1 245.2827,77.2813H58.4045A15.9099,15.9099 0 0 1 42.4946,61.3714V61.3714A15.9099,15.9099 0 0 1 58.4045,45.4615z" fill="#fff" stroke="#000" stroke-linecap="round" stroke-linejoin="round" stroke-width="4"/>
<path d="M101.5203,44.9288A36.8706,34.8503 0 1 1 27.7792,44.9288A36.8706,34.8503 0 1 1 101.5203,44.9288z" stroke="#000" stroke-linecap="round" stroke-linejoin="round" stroke-width="7.491" transform="matrix(.7121,0,0,.7121,-2.79174,23.08438)"/>
<text font-family="Bitstream Vera Sans" font-size="40" x="18.8575" y="69.1189">
   <tspan fill="#f9f9f9" x="18.8575" y="69.1189">92</tspan>
  </text>
<text font-family="Bitstream Vera Sans" font-size="20" x="114.7678" y="68.1385">
   <tspan x="114.7678" y="68.1385">Horaire</tspan>
  </text>
<text font-family="Bitstream Vera Sans" font-size="20" x="159.2857" y="120.7143">
   <tspan text-align="center" text-anchor="middle" x="159.2857" y="120.7143">Bordel j'avais dis que</tspan>
   <tspan text-align="center" text-anchor="middle" x="159.2857" y="145.7143">je me couchais pas</tspan>
   <tspan text-align="center" text-anchor="middle" x="159.2857" y="170.7143">après minuit ce soir !</tspan>
  </text>
<text font-family="Bitstream Vera Sans" font-size="20" x="718.3035" y="-322.433">
   <tspan text-align="center" text-anchor="middle" x="718.3035" y="-322.433"></tspan>
  </text>
<text font-family="Bitstream Vera Sans" font-size="20" x="487.1429" y="-139.2857">
   <tspan x="487.1429" y="-139.2857"></tspan>
  </text>
<path d="m258.5714,357.1429a31.7857,6.4286 0 1 1 -63.5714,0 31.7857,6.4286 0 1 1 63.5714,0z" stroke="#000" stroke-linecap="round" stroke-linejoin="round" stroke-width="7.5" transform="matrix(1.02112,0,0,.66001,2.03519,115.58983)"/>
<path d="m220.9112,262.4538 25.0879,0c4.0777,21.9291 23.3646,16.5919 25.7383,25.7383l-4.3155,39.9728c-8.5097,14.9682-19.398,24.4693-30.0538,24.1691l-6.6492,0c-10.7779,-.5802-27.2745,-13.5118-30.0538,-27.3076l-5.4924,-36.8343c1.6763,-6.3565 16.7206,-1.0293 25.7383,-25.7383z" fill="#fff" stroke="#000" stroke-linecap="round" stroke-linejoin="round" stroke-width="2.8289"/>
<path d="m207.7259,291.2277c1.2168,-.1015 2.421,-.1871 3.6408,-.132 1.2555,-.009 2.5023,.0734 3.7542,.1537 .9913,.0254 1.9731,.0353 2.9612,.1127 1.4462,.0802 2.895,.2821 4.3213,.5379 .7239,.0915 1.4233,.2571 2.1252,.4493l-4.5569,3.6152c-.6775,-.1854-1.3633,-.3189-2.0567,-.4319-1.4251,-.2327-2.8607,-.4411-4.3062,-.4758-.984,-.0615-1.9705,-.034-2.9536,-.1177-1.2463,-.0909-2.4917,-.1232-3.7412,-.1384-1.2128,-.0269-2.4183,.088-3.625,.2025l4.4368,-3.7755z" stroke="#000" stroke-linecap="round" stroke-linejoin="round" stroke-width="1.5535"/>
<path d="m249.1717,284.683c-1.2062,-.1899-2.4009,-.363-3.6216,-.3969-1.2515,-.1006-2.501,-.1092-3.7554,-.1204-.9906,-.0469-1.9705,-.1086-2.9615,-.1034-1.4482,-.0254-2.908,.0704-4.349,.2216-.7286,.0384-1.4382,.1527-2.1523,.2932l4.2814,3.9376c.6892,-.1356 1.3828,-.2187 2.0826,-.2809 1.4382,-.1283 2.8852,-.2314 4.3294,-.1608 .9859,.0104 1.9677,.1096 2.9543,.0979 1.2496,1.3e-4 2.4941,.0586 3.7413,.1346 1.2115,.0615 2.4054,.264 3.6006,.4662l-4.1499,-4.0888z" stroke="#000" stroke-linecap="round" stroke-linejoin="round" stroke-width="1.5535"/>
<path d="m538.4195,257.9523c0,3.0469-2.4032,5.5169-5.3678,5.5169-2.9646,0-5.3678,-2.47-5.3678,-5.5169 0,-3.0469 2.4032,-5.5169 5.3678,-5.5169 2.9646,0 5.3678,2.47 5.3678,5.5169z" fill="#fff" stroke="#000" stroke-linecap="round" stroke-linejoin="round" stroke-width="2" transform="matrix(.77674,0,0,.77674,-177.03521,104.32673)"/>
<path d="m555.2684,260.4871c0,.9058-.4005,1.6402-.8946,1.6402-.4941,0-.8946,-.7343-.8946,-1.6402 0,-.9058 .4005,-1.6402 .8946,-1.6402 .4941,0 .8946,.7343 .8946,1.6402z" fill="#fff" stroke="#000" stroke-linecap="round" stroke-linejoin="round" stroke-width="2" transform="matrix(.77674,0,0,.77674,-195.41027,102.32976)"/>
<g transform="matrix(.77674,0,0,.77674,-194.9189,103.74766)">
<path d="m538.4195,257.9523c0,3.0469-2.4032,5.5169-5.3678,5.5169-2.9646,0-5.3678,-2.47-5.3678,-5.5169 0,-3.0469 2.4032,-5.5169 5.3678,-5.5169 2.9646,0 5.3678,2.47 5.3678,5.5169z" fill="#fff" stroke="#000" stroke-linecap="round" stroke-linejoin="round" stroke-width="2"/>
<path d="m555.2684,260.4871c0,.9058-.4005,1.6402-.8946,1.6402-.4941,0-.8946,-.7343-.8946,-1.6402 0,-.9058 .4005,-1.6402 .8946,-1.6402 .4941,0 .8946,.7343 .8946,1.6402z" fill="#fff" stroke="#000" stroke-linecap="round" stroke-linejoin="round" stroke-width="2" transform="translate(-23.6822,-2.4475)"/>
</g>
<path d="m231.5966,330.9498 17.5059,-6.4099" fill="none" stroke="#000" stroke-width="1.2943"/>
<path d="M163.1396,181.8045L188.8985,231.8071" fill="none" stroke="#000"/>
<path d="m258.5714,357.1429a31.7857,6.4286 0 1 1 -63.5714,0 31.7857,6.4286 0 1 1 63.5714,0z" stroke="#000" stroke-linecap="round" stroke-linejoin="round" stroke-width="7.5" transform="matrix(1.02112,0,0,.66001,286.84655,119.8089)"/>
<g transform="matrix(1.2943,0,0,1.2943,21.91755,507.8885)">
<path d="m373.7962,-186.3675 19.3834,0c3.1505,16.9428 18.0519,12.8192 19.8859,19.8859l-3.3342,30.8837c-6.5748,11.5647-14.9872,18.9054-23.2201,18.6734l-5.1373,0c-8.3272,-.4483-21.0727,-10.4394-23.2201,-21.0983l-4.2435,-28.4588c1.2951,-4.9111 12.9186,-.7953 19.8859,-19.8859z" fill="#fff" stroke="#000" stroke-linecap="round" stroke-linejoin="round" stroke-width="2.1857"/>
<path d="m363.0572,-169.103c.9401,-.0784 1.8705,-.1446 2.813,-.102 .97,-.007 1.9333,.0567 2.9006,.1187 .7659,.0196 1.5245,.0273 2.2879,.0871 1.1173,.062 2.2368,.218 3.3387,.4156 .5593,.0707 1.0997,.1986 1.642,.3471l-3.5208,2.7932c-.5234,-.1433-1.0533,-.2464-1.589,-.3337-1.101,-.1798-2.2102,-.3408-3.327,-.3676-.7603,-.0475-1.5224,-.0263-2.282,-.0909-.9629,-.0702-1.9252,-.0952-2.8905,-.1069-.937,-.0208-1.8684,.068-2.8007,.1565l3.4279,-2.917z" stroke="#000" stroke-linecap="round" stroke-linejoin="round" stroke-width="1.2002"/>
<path d="m395.6308,-166.4334c-.9319,-.1467-1.855,-.2805-2.7981,-.3067-.9669,-.0777-1.9323,-.0844-2.9015,-.093-.7653,-.0362-1.5224,-.0839-2.2881,-.0799-1.1189,-.0196-2.2467,.0544-3.3601,.1712-.563,.0297-1.1112,.118-1.6629,.2266l3.3079,3.0423c.5325,-.1047 1.0684,-.169 1.6091,-.217 1.1112,-.0991 2.2292,-.1788 3.345,-.1242 .7617,.008 1.5203,.0847 2.2826,.0756 .9655,1e-4 1.927,.0453 2.8906,.104 .9361,.0475 1.8585,.204 2.7819,.3602l-3.2062,-3.1591z" stroke="#000" stroke-linecap="round" stroke-linejoin="round" stroke-width="1.2002"/>
<path d="m538.4195,257.9523c0,3.0469-2.4032,5.5169-5.3678,5.5169-2.9646,0-5.3678,-2.47-5.3678,-5.5169 0,-3.0469 2.4032,-5.5169 5.3678,-5.5169 2.9646,0 5.3678,2.47 5.3678,5.5169z" fill="#fff" stroke="#000" stroke-linecap="round" stroke-linejoin="round" stroke-width="2" transform="matrix(.60012,0,0,.60012,66.33586,-308.53916)"/>
<path d="m555.2684,260.4871c0,.9058-.4005,1.6402-.8946,1.6402-.4941,0-.8946,-.7343-.8946,-1.6402 0,-.9058 .4005,-1.6402 .8946,-1.6402 .4941,0 .8946,.7343 .8946,1.6402z" fill="#fff" stroke="#000" stroke-linecap="round" stroke-linejoin="round" stroke-width="2" transform="matrix(.60012,0,0,.60012,52.13896,-310.08205)"/>
<g transform="matrix(.60012,0,0,.60012,52.5186,-308.98656)">
<path d="m538.4195,257.9523c0,3.0469-2.4032,5.5169-5.3678,5.5169-2.9646,0-5.3678,-2.47-5.3678,-5.5169 0,-3.0469 2.4032,-5.5169 5.3678,-5.5169 2.9646,0 5.3678,2.47 5.3678,5.5169z" fill="#fff" stroke="#000" stroke-linecap="round" stroke-linejoin="round" stroke-width="2"/>
<path d="m555.2684,260.4871c0,.9058-.4005,1.6402-.8946,1.6402-.4941,0-.8946,-.7343-.8946,-1.6402 0,-.9058 .4005,-1.6402 .8946,-1.6402 .4941,0 .8946,.7343 .8946,1.6402z" fill="#fff" stroke="#000" stroke-linecap="round" stroke-linejoin="round" stroke-width="2" transform="translate(-23.6822,-2.4475)"/>
</g>
<path d="m378.858,-135.6699 14.3947,-.5051" fill="none" stroke="#000"/>
</g>
<text font-family="Bitstream Vera Sans" font-size="20" x="432.0494" y="130.4241">
   <tspan text-align="center" text-anchor="middle" x="432.0494" y="130.4241">Ben... c'est bon</tspan>
   <tspan text-align="center" text-anchor="middle" x="432.0494" y="155.4241">il te reste encore</tspan>
   <tspan text-align="center" text-anchor="middle" x="432.0494" y="180.4241">19h avant d'aller</tspan>
   <tspan text-align="center" text-anchor="middle" x="432.0494" y="205.4241">au lit alors...</tspan>
  </text>
<path d="m258.5714,357.1429a31.7857,6.4286 0 1 1 -63.5714,0 31.7857,6.4286 0 1 1 63.5714,0z" stroke="#000" stroke-linecap="round" stroke-linejoin="round" stroke-width="7.5" transform="matrix(-1.02112,0,0,.66001,1033.3863,118.30132)"/>
<path d="m814.5103,265.1652-25.0879,0c-4.0777,21.9291-23.3646,16.5919-25.7383,25.7383l4.3155,39.9728c8.5097,14.9682 19.398,24.4693 30.0538,24.1691l6.6492,0c10.7779,-.5802 27.2745,-13.5118 30.0538,-27.3076l5.4924,-36.8343c-1.6763,-6.3565-16.7206,-1.0293-25.7383,-25.7383z" fill="#fff" stroke="#000" stroke-linecap="round" stroke-linejoin="round" stroke-width="2.8289"/>
<path d="m828.2277,294.9235c-1.0059,-.6922-2.0087,-1.3644-3.0949,-1.9222-1.0854,-.6311-2.2086,-1.1786-3.3352,-1.7305-.8732,-.4701-1.7303,-.949-2.6265,-1.3723-1.2952,-.6483-2.6531,-1.1924-4.0182,-1.6785-.6738,-.28-1.3631,-.4834-2.0678,-.6651l2.1608,5.4005c.6802,.1754 1.3417,.4 1.9997,.6462 1.3526,.5055 2.7022,1.0374 3.9742,1.7248 .8847,.4351 1.7273,.9487 2.6223,1.3642 1.127,.5399 2.2241,1.1301 3.3163,1.7373 1.0661,.5787 2.0555,1.277 3.0461,1.9755l-1.977,-5.4801z" stroke="#000" stroke-linecap="round" stroke-linejoin="round" stroke-width="1.5535"/>
<path d="m786.0177,292.7206c1.1119,-.5047 2.2172,-.9901 3.3845,-1.3483 1.1793,-.4306 2.3813,-.7722 3.5874,-1.1175 .9422,-.3094 1.8702,-.6301 2.8267,-.8894 1.389,-.4107 2.8214,-.7076 4.2506,-.9462 .7125,-.1573 1.4269,-.2364 2.1525,-.2913l-3.0763,4.9368c-.7004,.0531-1.3911,.158-2.0821,.2847-1.4204,.2599-2.8425,.5464-4.2155,.9996-.9474,.2729-1.8672,.6304-2.8213,.8821-1.2044,.3334-2.3882,.7216-3.57,1.1274-1.1513,.3824-2.2479,.8959-3.3459,1.4095l2.9092,-5.0474z" stroke="#000" stroke-linecap="round" stroke-linejoin="round" stroke-width="1.5535"/>
<path d="m538.4195,257.9523c0,3.0469-2.4032,5.5169-5.3678,5.5169-2.9646,0-5.3678,-2.47-5.3678,-5.5169 0,-3.0469 2.4032,-5.5169 5.3678,-5.5169 2.9646,0 5.3678,2.47 5.3678,5.5169z" fill="#fff" stroke="#000" stroke-linecap="round" stroke-linejoin="round" stroke-width="2" transform="matrix(-.77674,0,0,.77674,1212.45671,107.03822)"/>
<path d="m555.2684,260.4871c0,.9058-.4005,1.6402-.8946,1.6402-.4941,0-.8946,-.7343-.8946,-1.6402 0,-.9058 .4005,-1.6402 .8946,-1.6402 .4941,0 .8946,.7343 .8946,1.6402z" fill="#fff" stroke="#000" stroke-linecap="round" stroke-linejoin="round" stroke-width="2" transform="matrix(-.77674,0,0,.77674,1230.83177,105.04125)"/>
<g transform="matrix(-.77674,0,0,.77674,1230.3404,106.45915)">
<path d="m538.4195,257.9523c0,3.0469-2.4032,5.5169-5.3678,5.5169-2.9646,0-5.3678,-2.47-5.3678,-5.5169 0,-3.0469 2.4032,-5.5169 5.3678,-5.5169 2.9646,0 5.3678,2.47 5.3678,5.5169z" fill="#fff" stroke="#000" stroke-linecap="round" stroke-linejoin="round" stroke-width="2"/>
<path d="m555.2684,260.4871c0,.9058-.4005,1.6402-.8946,1.6402-.4941,0-.8946,-.7343-.8946,-1.6402 0,-.9058 .4005,-1.6402 .8946,-1.6402 .4941,0 .8946,.7343 .8946,1.6402z" fill="#fff" stroke="#000" stroke-linecap="round" stroke-linejoin="round" stroke-width="2" transform="translate(-23.6822,-2.4475)"/>
</g>
<path d="m806.4436,333.8136c-5.3444,-.8191-8.3433,1.2937-18.631,-5.7045" fill="none" stroke="#000" stroke-width="1.2943"/>
<text font-family="Bitstream Vera Sans" font-size="20" x="713.3865" y="149.9297">
   <tspan text-align="center" text-anchor="middle" x="713.3865" y="149.9297">Ah ouais. Bon on</tspan>
   <tspan text-align="center" text-anchor="middle" x="713.3865" y="174.9297">retourne coder alors !</tspan>
  </text>
<path d="M446.8915,78.4154A61.5183,5.3033 0 1 1 323.8549,78.4154A61.5183,5.3033 0 1 1 446.8915,78.4154z" stroke="#000" stroke-linecap="round" stroke-width="4.862" transform="translate(-277.9971,278.0836)"/>
<path d="M161.1342,269.6115L161.1342,317.5C161.1342,337.507 145.0275,353.6137 125.0205,353.6137L89.5864,353.6137C69.5794,353.6137 53.4727,337.507 53.4727,317.5L53.4727,269.6115" fill="#fff" stroke="#000" stroke-linecap="round" stroke-linejoin="round" stroke-width="3.6422"/>
<path d="M82.5207,289.423H106.0547A.7803,.7803 0 0 1 106.835,290.2033V300.2294A.7803,.7803 0 0 1 106.0547,301.0097H82.5207A.7803,.7803 0 0 1 81.7404,300.2294V290.2033A.7803,.7803 0 0 1 82.5207,289.423z" stroke="#000" stroke-linecap="square" stroke-linejoin="round" stroke-width="3.7338"/>
<path d="M123.9117,289.423H144.3246A2.3409,2.3409 0 0 1 146.6654,291.7639V298.6688A2.3409,2.3409 0 0 1 144.3246,301.0097H123.9117A2.3409,2.3409 0 0 1 121.5708,298.6688V291.7639A2.3409,2.3409 0 0 1 123.9117,289.423z" stroke="#000" stroke-linecap="square" stroke-linejoin="round" stroke-width="3.7338"/>
<path d="M55.7809,294.4776C56.3301,294.488 56.8795,294.4844 57.4288,294.4816C57.7917,294.4795 58.1547,294.4781 58.5176,294.4774C58.8101,294.477 59.1026,294.477 59.3951,294.477C59.6992,294.4764 60.0032,294.4776 60.3072,294.4782C60.6979,294.4685 61.0825,294.4778 61.4692,294.5289C61.8688,294.5834 62.2723,294.6006 62.6754,294.6116C63.0806,294.5958 63.4783,294.6705 63.8794,294.7106C64.2873,294.7474 64.6974,294.7513 65.1068,294.7557C65.537,294.758 65.9671,294.7578 66.3972,294.7563C66.7708,294.7556 67.1444,294.755 67.518,294.7541C67.8251,294.7533 68.1321,294.7531 68.4391,294.753C68.7306,294.7529 69.0221,294.7529 69.3136,294.7529C69.6052,294.7529 69.8967,294.7529 70.1882,294.7529C70.507,294.7525 70.8256,294.7534 71.1443,294.7549C71.5386,294.7572 71.9329,294.7553 72.3271,294.7542C72.698,294.754 73.0689,294.7547 73.4398,294.7557C73.8365,294.7556 74.2332,294.7557 74.6299,294.7547C75.0099,294.7549 75.3899,294.7554 75.7698,294.7548C76.1154,294.7536 76.461,294.7533 76.8066,294.7551C77.3398,294.7577 77.873,294.7593 78.4062,294.7612C79.1328,294.764 79.8594,294.7645 80.5861,294.7622C81.1193,294.7608 81.6525,294.7569 82.1858,294.7567C82.6271,294.7574 83.0684,294.7567 83.5097,294.7552C83.5708,294.755 83.6319,294.7548 83.693,294.7546L81.947,295.9539C81.8865,295.9537 81.826,295.9535 81.7655,295.9533C81.3256,295.9518 80.8858,295.9512 80.4459,295.9518C79.918,295.9516 79.39,295.9477 78.862,295.9464C78.1345,295.9439 77.4068,295.9446 76.6792,295.9474C76.1401,295.9493 75.6011,295.9509 75.062,295.9534C74.7161,295.9552 74.3703,295.955 74.0245,295.9537C73.6444,295.9531 73.2643,295.9537 72.8841,295.9538C72.4885,295.9529 72.0928,295.953 71.6971,295.9528C71.3247,295.9538 70.9524,295.9546 70.5801,295.9543C70.1864,295.9532 69.7927,295.9513 69.3991,295.9537C69.0785,295.9551 68.7579,295.956 68.4374,295.9556C68.1458,295.9556 67.8543,295.9556 67.5627,295.9556C67.2713,295.9556 66.9798,295.9556 66.6884,295.9555C66.3824,295.9554 66.0764,295.9552 65.7704,295.9546C65.3984,295.9539 65.0264,295.9537 64.6544,295.9537C64.2242,295.9529 63.794,295.9544 63.3639,295.9496C62.9492,295.944 62.5337,295.9351 62.1212,295.8902C61.7244,295.8456 61.3291,295.7929 60.9281,295.8032C60.5203,295.7881 60.1132,295.7597 59.7088,295.7065C59.3268,295.666 58.9435,295.6773 58.5596,295.6786C58.2544,295.6792 57.9492,295.6804 57.6441,295.6798C57.352,295.6798 57.0599,295.6798 56.7678,295.6794C56.4089,295.6787 56.0501,295.6773 55.6912,295.6751C55.138,295.6724 54.5847,295.6689 54.0316,295.6792L55.7809,294.4776z" stroke="#000" stroke-linecap="square" stroke-linejoin="round" stroke-width=".4767"/>
<path d="M147.2757,294.7543C147.9796,294.7661 148.6837,294.7645 149.3876,294.764C150.0328,294.7631 150.6781,294.7613 151.3233,294.7584C151.7545,294.756 152.1857,294.7559 152.6168,294.7554C152.9566,294.7546 153.2964,294.7537 153.6362,294.7533C153.933,294.7749 154.2183,294.6958 154.51,294.6577C154.8026,294.6236 155.0977,294.6187 155.3921,294.6152C155.6842,294.6131 155.9764,294.614 156.2686,294.6143C156.5604,294.6147 156.8521,294.6149 157.1439,294.615C157.4357,294.615 157.7275,294.615 158.0193,294.615C158.3111,294.615 158.6029,294.615 158.8947,294.615C159.208,294.6144 159.5213,294.6161 159.8345,294.6161C160.1518,294.6159 160.469,294.6154 160.7862,294.6152C161.0801,294.615 161.3739,294.615 161.6677,294.615C161.8621,294.615 161.7649,294.615 161.9592,294.615L160.2083,295.8177C160.014,295.8177 160.1111,295.8177 159.9168,295.8177C159.6232,295.8177 159.3296,295.8176 159.036,295.8175C158.7196,295.8172 158.4033,295.8168 158.0869,295.8165C157.7725,295.8166 157.4582,295.8182 157.1438,295.8177C156.852,295.8177 156.5602,295.8177 156.2684,295.8177C155.9766,295.8177 155.6848,295.8177 155.393,295.8175C155.1012,295.8174 154.8094,295.8172 154.5175,295.8168C154.2263,295.8166 153.9349,295.8158 153.6437,295.8211C153.3544,295.8285 153.0646,295.8407 152.7784,295.8847C152.4824,295.93 152.1879,295.9754 151.8863,295.9552C151.5486,295.9548 151.2109,295.954 150.8731,295.9531C150.4449,295.9526 150.0166,295.9525 149.5884,295.9501C148.9485,295.9472 148.3087,295.9454 147.6689,295.9445C146.9555,295.9441 146.242,295.9427 145.5287,295.9543L147.2757,294.7543z" stroke="#000" stroke-linecap="square" stroke-linejoin="round" stroke-width=".4767"/>
<path d="M106.9829,294.9175C107.5168,294.9851 108.0555,295.0063 108.5934,295.0223C109.0735,295.0339 109.5537,295.0339 110.0339,295.0326C110.4303,295.0321 110.8268,295.032 111.2232,295.031C112.019,295.0515 112.8152,295.0415 113.6111,295.0378C114.0921,295.0342 114.573,295.0328 115.0539,295.0308C115.4375,295.0309 115.821,295.0304 116.2045,295.0314C116.6077,295.0327 117.0109,295.0305 117.4141,295.0311C117.7779,295.0303 118.1418,295.0304 118.5055,295.0305C118.8699,295.031 119.2343,295.0307 119.5987,295.0299C119.9467,295.0312 120.2948,295.0301 120.6429,295.0295C120.9834,295.0309 121.324,295.0299 121.6645,295.0295C121.9653,295.029 122.2661,295.0289 122.567,295.0288C122.8185,295.0873 123.0716,295.1294 123.3297,295.1497C123.6096,295.167 123.8903,295.167 124.1706,295.1678C124.4623,295.168 124.754,295.1674 125.0456,295.1671C125.1917,295.1669 125.3377,295.1669 125.4837,295.1668L123.7329,296.3696C123.5869,296.3697 123.4409,296.3698 123.2949,296.3699C123.0029,296.3702 122.7109,296.371 122.4189,296.3695C122.1337,296.3671 121.8479,296.3645 121.564,296.3364C121.3134,296.3071 121.068,296.2467 120.8161,296.2314C120.516,296.2314 120.2157,296.2312 119.9156,296.2308C119.5751,296.2303 119.2345,296.2294 118.894,296.2308C118.5464,296.2302 118.1988,296.2291 117.8511,296.2303C117.4873,296.2296 117.1234,296.2292 116.7595,296.2298C116.3963,296.2299 116.0332,296.23 115.67,296.2292C115.2671,296.2298 114.8642,296.2276 114.4613,296.2288C114.0772,296.2298 113.6931,296.2294 113.309,296.2294C112.8348,296.2274 112.3607,296.226 111.8865,296.2225C111.0838,296.2188 110.2808,296.2092 109.4782,296.2298C109.0824,296.2294 108.6867,296.2303 108.2909,296.2295C107.8124,296.2266 107.3339,296.2228 106.8557,296.2069C106.308,296.1857 105.7609,296.1531 105.2156,296.0999L106.9829,294.9175z" stroke="#000" stroke-linecap="square" stroke-linejoin="round" stroke-width=".4767"/>
<path d="M68.4784,257.1042L68.4784,275.6474" fill="none" stroke="#000" stroke-linecap="round" stroke-width="4.8046"/>
<path d="M78.0024,255.3498L78.0024,273.8931" fill="none" stroke="#000" stroke-linecap="round" stroke-width="4.8046"/>
<path d="M86.9394,256.8141L86.9394,275.3574" fill="none" stroke="#000" stroke-linecap="round" stroke-width="4.8046"/>
<path d="M98.6161,255.6469L98.6161,274.1901" fill="none" stroke="#000" stroke-linecap="round" stroke-width="4.8046"/>
<path d="M108.7747,257.8335L108.7747,276.3767" fill="none" stroke="#000" stroke-linecap="round" stroke-width="4.8046"/>
<path d="M120.404,257.6581L120.404,276.2013" fill="none" stroke="#000" stroke-linecap="round" stroke-width="4.8046"/>
<path d="M130.9065,255.9439L130.9065,274.4872" fill="none" stroke="#000" stroke-linecap="round" stroke-width="4.8046"/>
<path d="M140.8219,258.9808L140.8219,277.5241" fill="none" stroke="#000" stroke-linecap="round" stroke-width="4.8046"/>
<path d="M151.4949,258.6122L151.4949,277.1554" fill="none" stroke="#000" stroke-linecap="round" stroke-width="4.8046"/>
<path d="M60.5942,261.8344L60.5942,280.3776" fill="none" stroke="#000" stroke-linecap="round" stroke-width="4.8046"/>
<path d="M85.7143,329.2857L109.2857,332.8571" fill="none" stroke="#000"/>
<path d="M576.098,77.4533L576.098,391.3437" fill="none" stroke="#000" stroke-width="5.6784"/>
<g transform="translate(272.4413,5.039)">
<path d="m446.8915,78.4154c0,2.9289-27.5427,5.3033-61.5183,5.3033-33.9756,0-61.5183,-2.3744-61.5183,-5.3033 0,-2.9289 27.5427,-5.3033 61.5183,-5.3033 33.9756,0 61.5183,2.3744 61.5183,5.3033z" stroke="#000" stroke-linecap="round" stroke-width="4.862" transform="translate(-277.9971,278.0836)"/>
<path d="m161.1342,269.6115 0,47.8884c0,20.007-16.1067,36.1137-36.1137,36.1137l-35.434,0c-20.007,0-36.1137,-16.1067-36.1137,-36.1137l0,-47.8884" fill="#fff" stroke="#000" stroke-linecap="round" stroke-linejoin="round" stroke-width="3.6422"/>
<path d="M82.5207,289.423H106.0547A.7803,.7803 0 0 1 106.835,290.2033V300.2294A.7803,.7803 0 0 1 106.0547,301.0097H82.5207A.7803,.7803 0 0 1 81.7404,300.2294V290.2033A.7803,.7803 0 0 1 82.5207,289.423z" stroke="#000" stroke-linecap="square" stroke-linejoin="round" stroke-width="3.7338"/>
<path d="M123.9117,289.423H144.3246A2.3409,2.3409 0 0 1 146.6654,291.7639V298.6688A2.3409,2.3409 0 0 1 144.3246,301.0097H123.9117A2.3409,2.3409 0 0 1 121.5708,298.6688V291.7639A2.3409,2.3409 0 0 1 123.9117,289.423z" stroke="#000" stroke-linecap="square" stroke-linejoin="round" stroke-width="3.7338"/>
<path d="m55.7809,294.4776c.5492,.0105 1.0986,.007 1.6478,.004 .363,-.002 .7259,-.004 1.0889,-.004 .2925,-4.3e-4 .585,-4e-4 .8775,-4e-4 .304,-6.3e-4 .6081,6e-4 .9121,.001 .3906,-.01 .7752,-3.7e-4 1.162,.0507 .3996,.0545 .8031,.0717 1.2062,.0827 .4052,-.0158 .8029,.0589 1.204,.099 .4079,.0368 .818,.0407 1.2274,.045 .4301,.002 .8603,.002 1.2904,6.5e-4 .3736,-7.6e-4 .7472,-.001 1.1208,-.002 .307,-7.7e-4 .6141,-9.8e-4 .9211,-.001 .2915,-8e-5 .583,-7e-5 .8745,-6e-5 .2915,10e-6 .5831,10e-6 .8746,10e-6 .3187,-3.9e-4 .6374,5.3e-4 .9561,.002 .3943,.002 .7885,4.4e-4 1.1828,-6.3e-4 .3709,-2.7e-4 .7418,4.7e-4 1.1126,.002 .3967,-1.7e-4 .7934,-8e-5 1.1902,-10e-4 .38,1.9e-4 .7599,7.4e-4 1.1399,1.6e-4 .3456,-.001 .6912,-.002 1.0367,2.5e-4 .5332,.003 1.0664,.004 1.5996,.006 .7266,.003 1.4533,.003 2.1799,.001 .5332,-.001 1.0664,-.005 1.5997,-.005 .4413,6.5e-4 .8826,-2e-5 1.3239,-.001 .0611,-2e-4 .1222,-4e-4 .1833,-6e-4l-1.746,1.1993c-.0605,-2.1e-4-.121,-4.1e-4-.1815,-6.1e-4-.4399,-.001-.8797,-.002-1.3196,-.002-.528,-2.2e-4-1.0559,-.004-1.5839,-.005-.7276,-.002-1.4552,-.002-2.1828,9.9e-4-.5391,.002-1.0782,.003-1.6173,.006-.3458,.002-.6916,.002-1.0375,2.6e-4-.3801,-5.7e-4-.7602,-3e-5-1.1404,1.5e-4-.3957,-9.9e-4-.7914,-8.9e-4-1.187,-10e-4-.3723,10e-4-.7447,.002-1.117,.002-.3937,-.001-.7873,-.003-1.181,-6.3e-4-.3206,10e-4-.6411,.002-.9617,.002-.2915,0-.5831,0-.8747,0-.2914,0-.5829,2e-5-.8743,-6e-5-.306,-1.3e-4-.612,-3.5e-4-.918,-9.6e-4-.372,-6.9e-4-.744,-8.4e-4-1.1161,-8.8e-4-.4302,-8.3e-4-.8603,7e-4-1.2904,-.004-.4148,-.006-.8303,-.0145-1.2428,-.0595-.3968,-.0446-.792,-.0972-1.193,-.0869-.4078,-.0152-.8149,-.0435-1.2193,-.0968-.382,-.0404-.7654,-.0292-1.1493,-.0278-.3051,5.6e-4-.6103,.002-.9155,10e-4-.2921,1e-5-.5842,3e-5-.8763,-4e-4-.3589,-6.7e-4-.7177,-.002-1.0765,-.004-.5532,-.003-1.1065,-.006-1.6597,.004l1.7494,-1.2016z" stroke="#000" stroke-linecap="square" stroke-linejoin="round" stroke-width=".4767"/>
<path d="m147.2757,294.7543c.7039,.0118 1.4079,.0102 2.1119,.01 .6452,-8.9e-4 1.2905,-.003 1.9357,-.006 .4312,-.002 .8624,-.002 1.2935,-.003 .3398,-8.1e-4 .6796,-.002 1.0194,-.002 .2968,.0217 .5821,-.0575 .8738,-.0956 .2926,-.0341 .5877,-.039 .8821,-.0425 .2922,-.002 .5843,-.001 .8765,-8.4e-4 .2918,4e-4 .5836,5.3e-4 .8754,6.1e-4 .2918,5e-5 .5836,5e-5 .8754,5e-5 .2918,0 .5836,0 .8754,0 .3133,-6.1e-4 .6266,10e-4 .9398,10e-4 .3172,-2.5e-4 .6345,-6.9e-4 .9517,-9.3e-4 .2938,-1.8e-4 .5877,-2e-4 .8815,-2.1e-4 .1943,-10e-6 .0972,-10e-6 .2915,-10e-6l-1.7509,1.2027c-.1943,0-.0971,0-.2914,0-.2936,-2e-5-.5872,-4e-5-.8808,-2.2e-4-.3164,-2.3e-4-.6327,-6.8e-4-.9491,-9.3e-4-.3144,4e-5-.6287,.002-.9431,.001-.2918,10e-6-.5836,10e-6-.8754,10e-6-.2918,-10e-6-.5836,-10e-6-.8754,-1.2e-4-.2918,-1.3e-4-.5837,-3.7e-4-.8755,-7.2e-4-.2913,-2.3e-4-.5826,-10e-4-.8738,.004-.2893,.007-.5791,.0195-.8653,.0636-.2961,.0453-.5905,.0907-.8921,.0705-.3377,-4.3e-4-.6755,-.001-1.0132,-.002-.4283,-5.4e-4-.8565,-6.3e-4-1.2848,-.003-.6398,-.003-1.2796,-.005-1.9195,-.006-.7134,-4.8e-4-1.4269,-.002-2.1402,.01l1.747,-1.2z" stroke="#000" stroke-linecap="square" stroke-linejoin="round" stroke-width=".4767"/>
<path d="m106.9829,294.9175c.5339,.0676 1.0726,.0889 1.6105,.1048 .4801,.0116 .9604,.0116 1.4405,.0103 .3964,-5e-4 .7929,-6.3e-4 1.1893,-.002 .7958,.0205 1.592,.0104 2.3879,.007 .4809,-.004 .9619,-.005 1.4428,-.007 .3835,3e-5 .767,-4.2e-4 1.1506,6e-4 .4032,10e-4 .8064,-9.5e-4 1.2096,-3.1e-4 .3638,-8.6e-4 .7277,-7.6e-4 1.0915,-6.6e-4 .3644,5.6e-4 .7288,2.2e-4 1.0931,-5.1e-4 .3481,10e-4 .6961,1.1e-4 1.0442,-4.5e-4 .3406,10e-4 .6811,4.5e-4 1.0217,-4e-5 .3008,-4.3e-4 .6016,-5.6e-4 .9024,-6.3e-4 .2516,.0585 .5047,.1006 .7628,.1209 .2799,.0172 .5606,.0173 .8409,.018 .2917,1.9e-4 .5833,-3.9e-4 .875,-6.8e-4 .146,-1.4e-4 .292,-2e-4 .4381,-2.6e-4l-1.7508,1.2027c-.146,1e-4-.292,1.9e-4-.438,3.5e-4-.292,3.2e-4-.584,10e-4-.876,-3.9e-4-.2852,-.002-.5709,-.005-.8549,-.0331-.2506,-.0294-.496,-.0897-.7478,-.105-.3002,-8e-5-.6004,-2e-4-.9006,-6.3e-4-.3405,-4.8e-4-.681,-10e-4-1.0215,-5e-5-.3476,-5.5e-4-.6953,-.002-1.0429,-4.4e-4-.3639,-7.3e-4-.7278,-.001-1.0916,-5.1e-4-.3632,1.1e-4-.7264,1.9e-4-1.0895,-6.6e-4-.4029,6.4e-4-.8058,-.002-1.2087,-3.1e-4-.3841,10e-4-.7682,5.8e-4-1.1523,6e-4-.4742,-.002-.9483,-.003-1.4224,-.007-.8027,-.004-1.6058,-.0132-2.4083,.007-.3958,-4.3e-4-.7915,4.6e-4-1.1873,-3.6e-4-.4785,-.003-.957,-.007-1.4353,-.0226-.5477,-.0212-1.0947,-.0538-1.64,-.107l1.7673,-1.1825z" stroke="#000" stroke-linecap="square" stroke-linejoin="round" stroke-width=".4767"/>
<path d="m68.4784,257.1042 0,18.5432" fill="none" stroke="#000" stroke-linecap="round" stroke-width="4.8046"/>
<path d="m78.0024,255.3498 0,18.5432" fill="none" stroke="#000" stroke-linecap="round" stroke-width="4.8046"/>
<path d="m86.9394,256.8141 0,18.5432" fill="none" stroke="#000" stroke-linecap="round" stroke-width="4.8046"/>
<path d="m98.6161,255.6469 0,18.5432" fill="none" stroke="#000" stroke-linecap="round" stroke-width="4.8046"/>
<path d="m108.7747,257.8335 0,18.5432" fill="none" stroke="#000" stroke-linecap="round" stroke-width="4.8046"/>
<path d="m120.404,257.6581 0,18.5432" fill="none" stroke="#000" stroke-linecap="round" stroke-width="4.8046"/>
<path d="m130.9065,255.9439 0,18.5432" fill="none" stroke="#000" stroke-linecap="round" stroke-width="4.8046"/>
<path d="m140.8219,258.9808 0,18.5432" fill="none" stroke="#000" stroke-linecap="round" stroke-width="4.8046"/>
<path d="m151.4949,258.6122 0,18.5432" fill="none" stroke="#000" stroke-linecap="round" stroke-width="4.8046"/>
<path d="m60.5942,261.8344 0,18.5432" fill="none" stroke="#000" stroke-linecap="round" stroke-width="4.8046"/>
<path d="m85.7143,329.2857 23.5714,3.5714" fill="none" stroke="#000"/>
</g>
<path d="m446.8915,78.4154a61.5183,5.3033 0 1 1 -123.0366,0 61.5183,5.3033 0 1 1 123.0366,0z" stroke="#000" stroke-linecap="round" stroke-width="4.862" transform="translate(302.5407,289.1835)"/>
<path d="m741.672,280.7114 0,47.8884c0,20.007-16.1067,36.1137-36.1137,36.1137l-35.434,0c-20.007,0-36.1137,-16.1067-36.1137,-36.1137l0,-47.8884" fill="#fff" stroke="#000" stroke-linecap="round" stroke-linejoin="round" stroke-width="3.6422"/>
<path d="M663.0585,300.5229H686.5926A.7803,.7803 0 0 1 687.3729,301.3032V311.3293A.7803,.7803 0 0 1 686.5926,312.1096H663.0585A.7803,.7803 0 0 1 662.2783,311.3293V301.3032A.7803,.7803 0 0 1 663.0585,300.5229z" stroke="#000" stroke-linecap="square" stroke-linejoin="round" stroke-width="3.7338"/>
<path d="M704.4495,300.5229H724.8624A2.3409,2.3409 0 0 1 727.2032,302.8638V309.7687A2.3409,2.3409 0 0 1 724.8624,312.1096H704.4495A2.3409,2.3409 0 0 1 702.1086,309.7687V302.8638A2.3409,2.3409 0 0 1 704.4495,300.5229z" stroke="#000" stroke-linecap="square" stroke-linejoin="round" stroke-width="3.7338"/>
<path d="m636.3188,305.5775c.5492,.0105 1.0986,.007 1.6478,.004 .363,-.002 .7259,-.004 1.0889,-.004 .2925,-4.3e-4 .585,-4e-4 .8775,-4e-4 .304,-6.3e-4 .6081,6e-4 .9121,10e-4 .3906,-.01 .7752,-3.7e-4 1.162,.0507 .3996,.0545 .8031,.0717 1.2062,.0827 .4052,-.0158 .8029,.0589 1.204,.099 .4079,.0368 .818,.0407 1.2274,.045 .4301,.002 .8603,.002 1.2904,6.5e-4 .3736,-7.6e-4 .7472,-10e-4 1.1208,-.002 .307,-7.7e-4 .6141,-9.8e-4 .9211,-10e-4 .2915,-8e-5 .583,-7e-5 .8745,-6e-5 .2915,1e-5 .5831,1e-5 .8746,1e-5 .3187,-3.9e-4 .6374,5.3e-4 .9561,.002 .3943,.002 .7885,4.4e-4 1.1828,-6.3e-4 .3709,-2.7e-4 .7418,4.7e-4 1.1126,.002 .3967,-1.7e-4 .7934,-8e-5 1.1902,-.001 .38,1.9e-4 .7599,7.4e-4 1.1399,1.6e-4 .3456,-10e-4 .6912,-.002 1.0367,2.5e-4 .5332,.003 1.0664,.004 1.5996,.006 .7266,.003 1.4533,.003 2.1799,10e-4 .5332,-10e-4 1.0664,-.005 1.5997,-.005 .4413,6.5e-4 .8826,-2e-5 1.3239,-10e-4 .0611,-2e-4 .1222,-4e-4 .1833,-6e-4l-1.746,1.1993c-.0605,-2.1e-4-.121,-4.1e-4-.1815,-6.1e-4-.4399,-10e-4-.8797,-.002-1.3196,-.002-.528,-2.2e-4-1.0559,-.004-1.5839,-.005-.7276,-.002-1.4552,-.002-2.1828,9.9e-4-.5391,.002-1.0782,.003-1.6173,.006-.3458,.002-.6916,.002-1.0375,2.6e-4-.3801,-5.7e-4-.7602,-3e-5-1.1404,1.5e-4-.3957,-9.9e-4-.7914,-8.9e-4-1.187,-.001-.3723,.001-.7447,.002-1.117,.002-.3937,-10e-4-.7873,-.003-1.181,-6.3e-4-.3206,.001-.6411,.002-.9617,.002-.2915,0-.5831,0-.8747,0-.2914,0-.5829,2e-5-.8743,-6e-5-.306,-1.3e-4-.612,-3.5e-4-.918,-9.6e-4-.372,-6.9e-4-.744,-8.4e-4-1.1161,-8.8e-4-.4302,-8.3e-4-.8603,7e-4-1.2904,-.004-.4148,-.006-.8303,-.0145-1.2428,-.0595-.3968,-.0446-.792,-.0972-1.193,-.0869-.4078,-.0152-.8149,-.0435-1.2193,-.0968-.382,-.0404-.7654,-.0292-1.1493,-.0278-.3051,5.6e-4-.6103,.002-.9155,.001-.2921,10e-6-.5842,3e-5-.8763,-4e-4-.3589,-6.7e-4-.7177,-.002-1.0765,-.004-.5532,-.003-1.1065,-.006-1.6597,.004l1.7494,-1.2016z" stroke="#000" stroke-linecap="square" stroke-linejoin="round" stroke-width=".4767"/>
<path d="m727.8136,305.8542c.7039,.0118 1.4079,.0102 2.1119,.01 .6452,-8.9e-4 1.2905,-.003 1.9357,-.006 .4312,-.002 .8624,-.002 1.2935,-.003 .3398,-8.1e-4 .6796,-.002 1.0194,-.002 .2968,.0217 .5821,-.0575 .8738,-.0956 .2926,-.0341 .5877,-.039 .8821,-.0425 .2922,-.002 .5843,-10e-4 .8765,-8.4e-4 .2918,4e-4 .5836,5.3e-4 .8754,6.1e-4 .2918,5e-5 .5836,5e-5 .8754,5e-5 .2918,0 .5836,0 .8754,0 .3133,-6.1e-4 .6266,.001 .9398,.001 .3172,-2.5e-4 .6345,-6.9e-4 .9517,-9.3e-4 .2938,-1.8e-4 .5877,-2e-4 .8815,-2.1e-4 .1943,-1e-5 .0972,-1e-5 .2915,-1e-5l-1.7509,1.2027c-.1943,0-.0971,0-.2914,0-.2936,-2e-5-.5872,-4e-5-.8808,-2.2e-4-.3164,-2.3e-4-.6327,-6.8e-4-.9491,-9.3e-4-.3144,4e-5-.6287,.002-.9431,10e-4-.2918,1e-5-.5836,1e-5-.8754,1e-5-.2918,-1e-5-.5836,-1e-5-.8754,-1.2e-4-.2918,-1.3e-4-.5837,-3.7e-4-.8755,-7.2e-4-.2913,-2.3e-4-.5826,-.001-.8738,.004-.2893,.007-.5791,.0195-.8653,.0636-.2961,.0453-.5905,.0907-.8921,.0705-.3377,-4.3e-4-.6755,-10e-4-1.0132,-.002-.4283,-5.4e-4-.8565,-6.3e-4-1.2848,-.003-.6398,-.003-1.2796,-.005-1.9195,-.006-.7134,-4.8e-4-1.4269,-.002-2.1402,.01l1.747,-1.2z" stroke="#000" stroke-linecap="square" stroke-linejoin="round" stroke-width=".4767"/>
<path d="m687.5207,306.0174c.5339,.0676 1.0726,.0889 1.6105,.1048 .4801,.0116 .9604,.0116 1.4405,.0103 .3964,-5e-4 .7929,-6.3e-4 1.1893,-.002 .7958,.0205 1.592,.0104 2.3879,.007 .4809,-.004 .9619,-.005 1.4428,-.007 .3835,3e-5 .767,-4.2e-4 1.1506,6e-4 .4032,.001 .8064,-9.5e-4 1.2096,-3.1e-4 .3638,-8.6e-4 .7277,-7.6e-4 1.0915,-6.6e-4 .3644,5.6e-4 .7288,2.2e-4 1.0931,-5.1e-4 .3481,10e-4 .6961,1.1e-4 1.0442,-4.5e-4 .3406,10e-4 .6811,4.5e-4 1.0217,-4e-5 .3008,-4.3e-4 .6016,-5.6e-4 .9024,-6.3e-4 .2516,.0585 .5047,.1006 .7628,.1209 .2799,.0172 .5606,.0173 .8409,.018 .2917,1.9e-4 .5833,-3.9e-4 .875,-6.8e-4 .146,-1.4e-4 .292,-2e-4 .4381,-2.6e-4l-1.7508,1.2027c-.146,10e-5-.292,1.9e-4-.438,3.5e-4-.292,3.2e-4-.584,.001-.876,-3.9e-4-.2852,-.002-.5709,-.005-.8549,-.0331-.2506,-.0294-.496,-.0897-.7478,-.105-.3002,-8e-5-.6004,-2e-4-.9006,-6.3e-4-.3405,-4.8e-4-.681,-10e-4-1.0215,-5e-5-.3476,-5.5e-4-.6953,-.002-1.0429,-4.4e-4-.3639,-7.3e-4-.7278,-10e-4-1.0916,-5.1e-4-.3632,1.1e-4-.7264,1.9e-4-1.0895,-6.6e-4-.4029,6.4e-4-.8058,-.002-1.2087,-3.1e-4-.3841,.001-.7682,5.8e-4-1.1523,6e-4-.4742,-.002-.9483,-.003-1.4224,-.007-.8027,-.004-1.6058,-.0132-2.4083,.007-.3958,-4.3e-4-.7915,4.6e-4-1.1873,-3.6e-4-.4785,-.003-.957,-.007-1.4353,-.0226-.5477,-.0212-1.0947,-.0538-1.64,-.107l1.7673,-1.1825z" stroke="#000" stroke-linecap="square" stroke-linejoin="round" stroke-width=".4767"/>
<path d="m649.0162,268.2041 0,18.5432" fill="none" stroke="#000" stroke-linecap="round" stroke-width="4.8046"/>
<path d="m658.5403,266.4497 0,18.5432" fill="none" stroke="#000" stroke-linecap="round" stroke-width="4.8046"/>
<path d="m667.4772,267.914 0,18.5432" fill="none" stroke="#000" stroke-linecap="round" stroke-width="4.8046"/>
<path d="m679.1539,266.7468 0,18.5432" fill="none" stroke="#000" stroke-linecap="round" stroke-width="4.8046"/>
<path d="m689.3125,268.9334 0,18.5432" fill="none" stroke="#000" stroke-linecap="round" stroke-width="4.8046"/>
<path d="m700.9418,268.758 0,18.5432" fill="none" stroke="#000" stroke-linecap="round" stroke-width="4.8046"/>
<path d="m711.4444,267.0438 0,18.5432" fill="none" stroke="#000" stroke-linecap="round" stroke-width="4.8046"/>
<path d="m721.3598,270.0808 0,18.5432" fill="none" stroke="#000" stroke-linecap="round" stroke-width="4.8046"/>
<path d="m732.0328,269.7121 0,18.5432" fill="none" stroke="#000" stroke-linecap="round" stroke-width="4.8046"/>
<path d="m641.1321,272.9343 0,18.5432" fill="none" stroke="#000" stroke-linecap="round" stroke-width="4.8046"/>
<path d="m666.2521,340.3856c7.8571,7.0508 15.7143,3.4486 23.5714,3.5714" fill="none" stroke="#000"/>
<path d="m724.2794,193.4212 35.3553,49.4975" fill="none" stroke="#000"/>
<path d="m413.7441,215.8687-16.1624,29.2944" fill="none" stroke="#000"/>
<path d="m595.4849,293.9314 29.2944,0" fill="none" stroke="#000"/>
<path d="m598.0103,315.6497 24.7487,-1.0102" fill="none" stroke="#000"/>
<path d="m600.5357,339.8934 24.2437,-2.0203" fill="none" stroke="#000"/>
<path d="m747.5129,315.1446 13.6371,1.0102" fill="none" stroke="#000"/>
<path d="m745.4926,336.8629 18.6878,-2.0203" fill="none" stroke="#000"/>
<path d="m510.8039,272.1619-5.266,1.8431c-3.7294,5.0906-6.6184,10.52-19.2209,13.9549-.6768,13.866-5.3755,14.8308-9.4788,16.0612-4.0527,-1.6807-4.5011,-8.0534-6.3192,-12.6383-7.612,-11.4585-6.2012,-20.6983 1.3165,-28.4363-.6597,-1.0276-.2212,.1329-.3856,-2.1329 .4789,-.0848 3.1303,-1.9074 6.0559,-3.9495 1.6395,.5778 1.2879,-.1787 1.7021,1.8696-.3135,-2.0036 .6951,-3.4783 1.5798,-5.0027 1.1518,-1.2006 3.4718,-2.5958 6.1011,-4.0426-.6123,-1.8096 .7504,-3.3371 1.7979,-4.9096 4.1031,-3.0309 7.9901,-3.8885 11.8485,-4.2128 6.2104,-2.7971 11.4253,-3.8501 13.6916,.2633 2.1731,-.2896 3.6189,-1.4883 7.6357,.5266 8.6505,-2.2793 9.9206,4.0942 11.5852,10.0054 1.6483,1.0939 3.5373,.8935 4.9415,.2793 6.6097,-2.7145 8.6876,3.1513 13.4894,8.4096 8.8538,-5.0029 7.7801,8.4954 11.5852,12.9017 6.7312,-4.8214 9.2567,31.2381-2.2155,31.564-.5685,3.9198-1.6618,5.2159-2.7101,6.7367-3.6945,2.5663-4.0543,1.9773-6.008,2.8964-1.1386,-.2629 1.8379,-7.5267 1.9813,-10.6542-2.7199,-5.1785-2.8505,-11.2202-2.633,-17.3778l-2.633,-1.5798c-7.1873,4.8651-10.0564,-4.102-15.0081,-6.3192-2.1562,1.1249-4.1472,.2664-6.0559,-1.5798-12.8439,5.2143-15.2422,.0431-17.3778,-4.4761z" stroke="#000" stroke-width="0"/>
<path d="m812.0142,273.8521 5.266,1.8431c3.7294,5.0906 6.6184,10.52 19.2209,13.9549 .6768,13.866 5.3755,14.8308 9.4788,16.0612 4.0527,-1.6807 4.5011,-8.0534 6.3192,-12.6383 7.612,-11.4585 6.2012,-20.6983-1.3165,-28.4363 .6597,-1.0276 .2212,.1329 .3856,-2.1329-.4789,-.0848-3.1303,-1.9074-6.0559,-3.9495-1.6395,.5778-1.2879,-.1787-1.7021,1.8696 .3135,-2.0036-.6951,-3.4783-1.5798,-5.0027-1.1518,-1.2006-3.4718,-2.5958-6.1011,-4.0426 .6123,-1.8096-.7504,-3.3371-1.7979,-4.9096-4.1031,-3.0309-7.9901,-3.8885-11.8485,-4.2128-6.2104,-2.7971-11.4253,-3.8501-13.6916,.2633-2.1731,-.2896-3.6189,-1.4883-7.6357,.5266-8.6505,-2.2793-9.9206,4.0942-11.5852,10.0054-1.6483,1.0939-3.5373,.8935-4.9415,.2793-6.6097,-2.7145-8.6876,3.1513-13.4894,8.4096-8.8538,-5.0029-7.7801,8.4954-11.5852,12.9017-6.7312,-4.8214-9.2567,31.2381 2.2155,31.564 .5685,3.9198 1.6618,5.2159 2.7101,6.7367 3.6945,2.5663 4.0543,1.9773 6.008,2.8964 1.1386,-.2629-1.8379,-7.5267-1.9813,-10.6542 2.7199,-5.1785 2.8505,-11.2202 2.633,-17.3778l2.633,-1.5798c7.1873,4.8651 10.0564,-4.102 15.0081,-6.3192 2.1562,1.1249 4.1472,.2664 6.0559,-1.5798 12.8439,5.2143 15.2422,.0431 17.3778,-4.4761z" stroke="#000" stroke-width="0"/>
<path d="m226.0069,273.007-5.266,1.8431c-3.7294,5.0906-6.6184,10.52-19.2209,13.9549-.6768,13.866-5.3755,14.8308-9.4788,16.0612-4.0527,-1.6807-4.5011,-8.0534-6.3192,-12.6383-7.612,-11.4585-6.2012,-20.6983 1.3165,-28.4363-.6597,-1.0276-.2212,.1329-.3856,-2.1329 .4789,-.0848 3.1303,-1.9074 6.0559,-3.9495 1.6395,.5778 1.2879,-.1787 1.7021,1.8696-.3135,-2.0036 .6951,-3.4783 1.5798,-5.0027 1.1518,-1.2006 3.4718,-2.5958 6.1011,-4.0426-.6123,-1.8096 .7504,-3.3371 1.7979,-4.9096 4.1031,-3.0309 7.9901,-3.8885 11.8485,-4.2128 6.2104,-2.7971 11.4253,-3.8501 13.6916,.2633 2.1731,-.2896 3.6189,-1.4883 7.6357,.5266 8.6505,-2.2793 9.9206,4.0942 11.5852,10.0054 1.6483,1.0939 3.5373,.8935 4.9415,.2793 6.6097,-2.7145 8.6876,3.1513 13.4894,8.4096 8.8538,-5.0029 7.7801,8.4954 11.5852,12.9017 6.7312,-4.8214 9.2567,31.2381-2.2155,31.564-.5685,3.9198-1.6618,5.2159-2.7101,6.7367-3.6945,2.5663-4.0543,1.9773-6.008,2.8964-1.1386,-.2629 1.8379,-7.5267 1.9813,-10.6542-2.7199,-5.1785-2.8505,-11.2202-2.633,-17.3778l-2.633,-1.5798c-7.1873,4.8651-10.0564,-4.102-15.0081,-6.3192-2.1562,1.1249-4.1472,.2664-6.0559,-1.5798-12.8439,5.2143-15.2422,.0431-17.3778,-4.4761z" stroke="#000" stroke-width="0"/>
</svg>
