<svg version="1.1" viewBox="0 0 900 450" xmlns="http://www.w3.org/2000/svg" xmlns:svg="http://www.w3.org/2000/svg">
<g transform="translate(0,-602.3622)">
<path d="M46.8626,686.0698H827.8646A31.621,31.621 0 0 1 859.4856,717.6908V966.0396A31.621,31.621 0 0 1 827.8646,997.6606H46.8626A31.621,31.621 0 0 1 15.2416,966.0396V717.6908A31.621,31.621 0 0 1 46.8626,686.0698z" fill="#fff" stroke="#000" stroke-linecap="round" stroke-width="7.4907"/>
<path d="m15.1523,912.9611 842.4672,0" fill="none" stroke="#000"/>
<path d="m582.4833,682.7552 0,313.8904" fill="none" stroke="#000" stroke-width="5.6784"/>
<path d="m294.7732,682.9066 0,313.0223" fill="none" stroke="#000" stroke-width="5.6706"/>
<path d="m837.7,1016.8935c.4393,.5103 1.0355,.5715 1.6702,.6073 .8029,-.022 1.6072,-.2138 2.3575,-.4993 .4009,-.1525 .6224,-.2824 .9965,-.4789-2.2386,1.3097-.9924,.6083-.5738,.1637 .2168,-.2304 .3463,-.4731 .4686,-.7607 .3177,-.8949 .3589,-1.8573 .4131,-2.797 .1056,-1.3679-.1776,-2.7109-.4825,-4.0352-.3709,-1.3929-.8746,-2.7466-1.4293,-4.0757-.2656,-.6279-.5661,-1.24-.8587,-1.8555-.3944,-.7567-.717,-.2868 1.5104,-1.1508 .0768,-.03 .0919,.1367 .1411,.2027 .0823,.1106 .1689,.2179 .2533,.3269 .8217,1.1276 1.8098,2.1155 2.8001,3.0928 .5826,.5674 1.2073,1.0941 1.7645,1.6873 .2114,.1727 .3378,.4161 .508,.623 .1662,.1502 .2962,-.01 .4431,-.1107-2.5656,1.5385-1.6519,1.0412-1.1599,.5695 .1937,-.1857 .3764,-.3843 .5618,-.5781 .2632,-.2627 .5127,-.5439 .801,-.7804 .761,-.6244 1.8227,-1.1234 2.6097,-1.5711 .7271,-.3211 1.471,-.6005 2.2265,-.8467 .1563,-.034 .761,-.2665 .899,-.1093 .0321,.037 .0451,.086 .0677,.1294 .003,.044 .0154,.088 .009,.1323-.0436,.3196-.5385,.6915-.7545,.8904-.9928,.8207-1.9561,1.6745-2.8731,2.5792-.7976,.8557-1.6216,1.7004-2.2566,2.6874-.3921,.6165-.6005,1.2972-.6984,2.0144-.0648,.6414-.0542,1.2873-.0532,1.9311 .0351,.6999 .1244,1.4012 .3328,2.0716 .1195,.3571 .3319,.6194 .6717,.7762 .2255,.08 .4837,.1318 .7238,.087 .0559,-.01 .5216,-.1684 .5589,-.1808 .5492,-.2997 1.8756,-1.0005-.6067,.3598-.0982,.054 .1891,-.1201 .2821,-.1824 .2138,-.143 .2651,-.1851 .4657,-.3346 .2405,-.18 .1266,-.092 .3424,-.2617l1.7191,-.6913c-.2178,.1831-.1012,.092-.3516,.2718-1.0139,.7829-2.137,1.4308-3.3009,1.9612-.5107,.1524-.8878,.2254-1.3851,-.01-.3662,-.2065-.6055,-.5062-.7343,-.9112-.2041,-.6903-.2811,-1.4089-.3481,-2.1237-.004,-.6503-.0146,-1.3022 .038,-1.9509 .0928,-.7432 .2887,-1.4525 .6884,-2.0956 .0802,-.1332 .153,-.2711 .2404,-.3996 .1797,-.264 .4481,-.5662 .6529,-.8037 .4526,-.5247 .9157,-1.0402 1.3938,-1.5419 .8918,-.8996 1.8318,-1.7498 2.8066,-2.5591 .2761,-.2564 .5618,-.5064 .8001,-.7994 .0396,.021-.0878,.018-.1321,.024-.221,.031-.4338,.1-.6466,.1641-.7471,.2466-1.4866,.5202-2.1959,.8624 2.4446,-1.4457 .9748,-.6248 .497,-.2572-.291,.2239-.54,.5004-.7953,.7622-.9257,.9765-.9789,1.0799-2.545,1.8884-.2567,.1212-.4002,.1068-.6009,-.1041-.1584,-.2095-.2854,-.4431-.481,-.6233-.5334,-.6025-1.1282,-1.1492-1.6932,-1.7213-.9808,-.9983-1.9767,-1.9849-2.8496,-3.0818-.0938,-.1054-.1877,-.2107-.2814,-.3162-.0521,-.059-.2154,-.1251-.1559,-.1761 1.4141,-1.214 1.334,-1.5318 1.6993,-.7303 .2757,.628 .5663,1.2498 .8171,1.8885 .5249,1.3529 1.0089,2.7231 1.4053,4.1197 .3185,1.3302 .6335,2.6815 .5419,4.0599-.0362,.9485-.0918,1.9144-.3493,2.8319-.0847,.2347-.1139,.3545-.249,.5692-.5938,.9435-1.8747,1.3891-2.7166,1.9247-1.0714,.5266-2.2113,.8989-3.4172,.9043-.1676,-.013-.3365,-.016-.5029,-.04-.4955,-.073-.9575,-.2894-1.3004,-.6568l1.6003,-.9608z" stroke="#000" stroke-linecap="round" stroke-linejoin="round" stroke-width=".2515"/>
<path d="m853.0646,1014.7368c-.7394,.207-2.342,1.1964 .4556,-.4044-.388,.2065-.6184,.5425-.7999,.9301-.1036,.3106-.2142,.6511-.1917,.9845 .0156,.2307 .0756,.3466 .154,.562 .3071,.6068 .7794,1.1058 1.3399,1.4839 .4137,.288 .8839,.4191 1.383,.4252 .3851,-.088 .743,-.2376 1.0957,-.4124 .1503,-.075 .5909,-.3179 .4467,-.232-1.6618,.9892-1.2456,.7222-.6575,.3194 .4842,-.3729 1.0105,-.8056 1.1352,-1.4399 .0174,-.089 .0162,-.1798 .0243,-.2697-.032,-.7933-.5333,-1.4143-1.0169,-2.0008-.3049,-.3393-.6501,-.6629-1.0669,-.861-.2115,-.1006-.32,-.1185-.544,-.178-.4519,-.025-.9255,.018-1.3546,.1742-.1984,.072-.499,.2393-.6834,.3368 2.5132,-1.5078 .8665,-.5124 .3482,-.062l-1.7106,.6997c.796,-.7657 1.8589,-1.2168 2.7842,-1.7768 .2686,-.1306 .4271,-.2209 .7141,-.308 .4568,-.1387 .9485,-.1711 1.419,-.1017 .2419,.077 .34,.097 .5672,.2177 .4231,.2255 .772,.5679 1.084,.9255 .5088,.6264 1.0253,1.2756 1.1028,2.1094-.004,.1012 .002,.2032-.0112,.3036-.0928,.6824-.6005,1.1675-1.1167,1.5707-1.0013,.7187-.4882,.3709-2.4236,1.4672-.5043,.2856-1.0559,.5275-1.6351,.5951-.5218,-.046-1.0072,-.1999-1.4323,-.5166-.5749,-.4193-1.0583,-.9487-1.3949,-1.5794-.0785,-.2055-.1678,-.4012-.1946,-.6229-.0421,-.3472 .0735,-.7121 .1572,-1.043 .1608,-.4085 .3649,-.7958 .7491,-1.0357 .9031,-.5198 1.7482,-1.1163 2.7557,-1.3944l-1.4819,1.1332z" stroke="#000" stroke-linecap="round" stroke-linejoin="round" stroke-width=".2515"/>
<path d="m860.8607,1015.4912c-.3202,.1025-.653,.1903-.9574,.3362-.1022,.049-.1982,.1101-.2973,.1652 .4207,-.2356 .8414,-.4712 1.2621,-.7068-.4994,.337-.87,.6738-1.0934,1.2386-.1462,.4652-.0761,.8586 .2923,1.2028 .0889,.083 .1935,.1477 .2903,.2216 .7042,.4045 1.5378,.5494 2.3444,.4638 .2312,-.024 .458,-.081 .687,-.1208 .53,-.1368 .7609,-.1749 1.2586,-.3838 .1651,-.069 .635,-.3305 .4812,-.2387-2.2382,1.3365-1.2251,.7542-.8736,.3984 .078,-.079 .1399,-.1722 .2098,-.2583 .3065,-.4795 .3144,-.906 .0985,-1.4169-.0396,-.09-.268,-.5605-.4291,-.4586-.0279,.018-.042,.051-.063,.076 2.5422,-1.4497 1.5743,-1.2073 1.3277,-.5008-.1064,.3049-.125,.6014-.1396,.9215 .1766,1.4864 .8332,2.8626 1.3726,4.2435 .6559,1.8244 1.2881,3.7176 1.3609,5.6745 .0145,.3894-.0234,.779-.0351,1.1686-.0582,.3745-.0908,.7539-.1745,1.1236-.2732,1.2058-.8948,2.3097-1.8179,3.1369-.1627,.1459-.3469,.2658-.5204,.3987-.6941,.3626-1.3544,.7991-2.0824,1.0878-.3018,.1198-1.0302,-.1299-1.2689,-.2364-.8875,-.3956-1.654,-1.0455-2.408,-1.6406-1.2719,-1.0889-2.5172,-2.2246-3.6551,-3.4553-.5895,-.6376-.7352,-.8522-1.2472,-1.5117-.4358,-.7271-.9494,-1.5701-.521,-2.4271 .2535,-.5072 .5595,-.6912 .9842,-1.0605 1.2727,-.8247 1.3769,-.9187 3.2195,-1.8517 .4497,-.2277 1.9,-.7427 2.3438,-.8976 .8851,-.3088 1.8369,-.6147 2.7269,-.9055 2.3381,-.6744 4.6281,-1.4959 6.8914,-2.3864 .1921,-.082 .3845,-.1628 .5764,-.245 .1466,-.063 .2943,-.1234 .439,-.1904 .2958,-.1371 .5721,-.3067 .8773,-.4229 .4138,-.059 .559,.4392 .6828,.7418 .2853,.7706 .446,1.5786 .5154,2.3954 .0171,.366 .029,.7337-.0228,1.0975-.005,.037 .0139,.095-.0201,.1109-.5544,.2582-1.1333,.4601-1.6999,.6902 10e-4,-.1126-.005,-.2255 .004,-.3378 .0134,-.1632 .0414,-.325 .063,-.4874 .1257,-.9479 .2903,-1.8831 .4832,-2.8195 .1955,-.8169 .3644,-1.6724 .8312,-2.3854 .5286,-.5534 1.7043,-1.6446 2.2768,-1.0095 .0599,.067 .1019,.1472 .1529,.2208 .112,.1981 .2088,.3485 .2821,.568 .2061,.6171 .2986,1.3405 .4077,1.9824 .1424,.5555 .0881,1.2207 .2567,1.7654 .2229,-.5987-.002,.028-1.6032,.7911-.0325,.015 .0489,-.053 .0671,-.085 .0417,-.071 .1233,-.2801 .1551,-.3443 .0434,-.087 .0929,-.1718 .1393,-.2578 .3011,-.4825 .556,-.9925 .8877,-1.4552 .5547,-.695 1.0736,-.8467 2.0338,-1.3744 .0329,-.018 .0773,-.01 .1126,0 .045,.016 .08,.053 .12,.079 .3755,.395 .5063,.9538 .6331,1.4682 .1102,.56 .1691,1.1313 .374,1.6669 .0499,.07 .0906,.148 .1496,.2107 .4298,.4569 1.1407,.7984 1.727,.9842 .2206,.07 .4479,.1167 .6718,.175 .9481,.2365 1.8995,.2483 2.8425,-.011 .2087,-.057 .4184,-.1173 .6161,-.2055 .1842,-.082 .3491,-.2019 .5237,-.3028-.3631,.1874-.6996,.4397-1.0894,.5621-.1503,.047 .2339,-.2117 .3412,-.3271 .3164,-.3401 .4973,-.7183 .6246,-1.1583 .0873,-.3663 .0858,-.7427 .0757,-1.1165-.1021,-.7716-.7838,-.012 1.5762,-.9706 .043,-.017-.0252,.09-.0325,.1353-.0105,.067-.0137,.1342-.0206,.2013-.0335,.608-.0474,1.2173 .0202,1.823 .0688,.3896 .1433,.7878 .4487,1.0613 .2149,.1415 .443,.1511 .6803,.073 .5712,-.2883 1.4287,-.7883-1.1689,.6781-.0922,.052 .1782,-.1142 .2658,-.1737l1.729,-.6874c-.1339,.1099-.1095,.099-.2632,.1884-.5841,.3415-1.3074,.9119-2.0466,1.1199-.2885,.031-.5575,-.032-.7831,-.2236-.314,-.3273-.4164,-.7447-.4864,-1.1849-.0743,-.6128-.0594,-1.2282-.0514,-1.8445 .002,-.082 .01,-.3683 .0155,-.3722 1.2231,-.8123 1.6185,-1.5813 1.7738,-.6732 .009,.3929 .009,.788-.0729,1.1746-.4026,1.6039-1.4656,1.9694-2.9269,2.8345-.1797,.091-.3518,.1981-.539,.2718-1.1255,.4431-2.3519,.4075-3.5096,.13-.2313,-.061-.4661,-.1105-.6938,-.184-.5824,-.1879-1.4014,-.59-1.8309,-1.0418-.0708,-.074-.1217,-.1654-.1826,-.2482-.2042,-.5462-.263,-1.125-.3681,-1.696-.1059,-.4423-.211,-.9894-.5766,-1.2965-.0862,.011-.0417,-0-.1309,.047 .494,-.2932 .9881,-.5865 1.4821,-.8797 .0418,-.024-.0765,.059-.1115,.092-.088,.083-.1593,.1827-.2543,.2588-.3546,.4457-.6103,.9513-.9065,1.4362-.1113,.1905-.2033,.3719-.2742,.5809-.0144,.043 .002,.1066-.0369,.1297-1.6717,1.0056-1.301,1.4123-1.7676,.8264-.1403,-.5916-.0684,-1.2195-.2051,-1.8139-.1337,-.8318-.2366,-1.7229-.6888,-2.4507-.0786,-.095-.1124,-.1811-.2373,-.2042-.0338,-.01-.1319,.028-.1027,.01 .4848,-.3029 .9881,-.5749 1.4781,-.8693 .044,-.026-.0961,.038-.1396,.065-.0513,.032-.0953,.075-.1429,.1122-.5512,.6573-.7174,1.5447-.9403,2.3498-.2511,1.1609-.4667,2.3381-.5021,3.5279-.5413,.3318-1.0717,.6821-1.624,.9954-.0304,.017 .0302,-.063 .04,-.097 .1011,-.3479 .0723,-.7161 .0723,-1.0731-.0467,-.7984-.196,-1.5925-.501,-2.3351-.0582,-.1344-.1651,-.5238-.3687,-.5375-.0472,-0-.1338,.034-.1714,.048-.6021,.268-1.1868,.5757-1.8125,.79-2.2433,.8437-4.5057,1.6344-6.8063,2.3092-1.3354,.4418-2.6801,.8687-3.988,1.3886-.3765,.1496-.7211,.3957-1.1182,.4762-.2039,.041 .7012,-.445 .5142,-.3539-.2728,.1329-.5155,.32-.7733,.4801-.4814,.3864-1.0718,.7863-1.1859,1.4525-.1123,.6557 .3053,1.262 .5878,1.8057 .1747,.2387 .3409,.4837 .524,.716 1.2506,1.586 2.7723,2.9467 4.3216,4.2313 .7601,.5675 1.5353,1.2021 2.4338,1.5463 .2074,.079 .4249,.1395 .6456,.1641 .1883,.021 .6695,-.1886 .5676,-.029-.2123,.3325-.6509,.446-.9763,.669 .1821,-.1271 .3749,-.2403 .5464,-.3814 .9528,-.7839 1.6207,-1.8662 1.9179,-3.0621 .0903,-.3633 .1256,-.7382 .1884,-1.1073 .0181,-.3842 .0641,-.768 .0543,-1.1525-.0495,-1.9411-.7079,-3.8143-1.3712,-5.6146-.5628,-1.3919-1.2476,-2.7639-1.4927,-4.2576-.008,-.3535 4.4e-4,-.6226 .086,-.9647 .005,-.019 .0997,-.3596 .142,-.3887 .5428,-.3739 1.1209,-.6937 1.6814,-1.0405 .0426,0 .0866,-10e-4 .1279,.01 .2648,.072 .3917,.4009 .5024,.6156 .2357,.5565 .268,1.0517-.0318,1.5983-.068,.097-.1268,.202-.2041,.2923-.5521,.6452-1.6564,1.0981-2.2184,1.4108-.5375,.299-1.1558,.4269-1.747,.5653-.2367,.035-.4715,.087-.71,.1065-.852,.069-1.7224,-.083-2.4497,-.5407-.1044,-.083-.2169,-.1575-.3133,-.25-.4073,-.3914-.5345,-.8233-.3997,-1.3637 .2032,-.646 .5218,-.9587 1.0648,-1.3564 1.0479,-.6191 1.9953,-1.302 3.1758,-1.5918l-1.4819,1.1332z" stroke="#000" stroke-linecap="round" stroke-linejoin="round" stroke-width=".2515"/>
<path d="m886.2715,1009.8416c-.2243,.2631-.4035,.5643-.4888,.9007-.0611,.3363 .1396,.4226 .4154,.5433 .4462,.1634 .8277,.1455 1.2847,.065 .6111,-.2095 1.5817,-.8066-1.1348,.692-.0381,.021 .0724,-.049 .1046,-.078 .0766,-.07 .0844,-.099 .1345,-.1863 .0923,-.207 .0832,-.4008-.0356,-.5915-.1581,-.1497-.3958,-.1357-.5998,-.1456-.2107,.019-.4113,.072-.5826,.1981l1.4548,-1.1717c.2072,-.078 .4191,-.128 .6429,-.1102 .2663,.026 .5282,.064 .7009,.2917 .1406,.2366 .1962,.4812 .1149,.7512-.2947,.8892-1.4141,1.2488-2.2801,1.4605-.4615,.058-.9177,.033-1.3515,-.1527-.3119,-.161-.5915,-.3623-.5442,-.7527 .0576,-.3625 .2344,-.6871 .4467,-.9832l1.718,-.7299z" stroke="#000" stroke-linecap="round" stroke-linejoin="round" stroke-width=".2515"/>
<path d="m862.4269,1014.3733c.3537,-.1719 .6913,-.3752 1.0561,-.5234 .2286,-.1485 .4794,-.2171 .7469,-.2463 .246,-.019 .4931,-.015 .7396,-.015 .2447,-.026 .452,.041 .667,.1457 .1505,.1206 .2692,.2809 .3835,.4358 .0994,.1805 .1578,.3831 .2189,.5798 .0548,.2015 .1295,.3941 .169,.6001 .038,.2417 .0406,.4871 .0436,.7312 10e-4,.1259 9.1e-4,.2518 8.4e-4,.3777l-1.662,.8467c1.7e-4,-.1253 4.3e-4,-.2506-1.3e-4,-.3759-.002,-.2343-.002,-.4695-.0316,-.7024-.0328,-.2007-.1062,-.3854-.1597,-.5802-.0519,-.1769-.1078,-.3572-.1882,-.5221-.0978,-.1283-.193,-.2747-.3336,-.3578-.1975,-.086-.4034,-.091-.6168,-.082-.2413,0-.4842,-10e-5-.7231,.039-.2526,.053-.4803,.1621-.7103,.2775-.3579,.1665-.704,.3573-1.0509,.5452l1.4507,-1.1737z" stroke="#000" stroke-linecap="round" stroke-linejoin="round" stroke-width=".2515"/>
<path d="M56.7898,650.7634H243.6681A15.9099,15.9099 0 0 1 259.578,666.6733V666.6733A15.9099,15.9099 0 0 1 243.6681,682.5832H56.7898A15.9099,15.9099 0 0 1 40.8799,666.6733V666.6733A15.9099,15.9099 0 0 1 56.7898,650.7634z" fill="#fff" stroke="#000" stroke-linecap="round" stroke-linejoin="round" stroke-width="4"/>
<path d="m101.5203,44.9288a36.8706,34.8503 0 1 1 -73.7411,0 36.8706,34.8503 0 1 1 73.7411,0z" stroke="#000" stroke-linecap="round" stroke-linejoin="round" stroke-width="7.491" transform="matrix(.7121,0,0,.7121,-4.40641,628.38632)"/>
<text font-family="Bitstream Vera Sans" font-size="40" x="17.2428" y="674.4208">
   <tspan fill="#f9f9f9" x="17.2428" y="674.4208">97</tspan>
  </text>
<text font-family="Bitstream Vera Sans" font-size="20" x="137.4577" y="673.4404">
   <tspan x="137.4577" y="673.4404">JDV</tspan>
  </text>
<text font-family="Bitstream Vera Sans" font-size="20" x="157.3621" y="741.9603">
   <tspan text-align="center" text-anchor="middle" x="157.3621" y="741.9603"></tspan>
  </text>
<g transform="translate(48.072,598.1801)">
<path d="m446.8915,78.4154c0,2.9289-27.5427,5.3033-61.5183,5.3033-33.9756,0-61.5183,-2.3744-61.5183,-5.3033 0,-2.9289 27.5427,-5.3033 61.5183,-5.3033 33.9756,0 61.5183,2.3744 61.5183,5.3033z" stroke="#000" stroke-linecap="round" stroke-width="4.862" transform="translate(-281.6053,276.7656)"/>
<path d="m157.526,268.2935 0,47.8884c0,20.007-16.1067,36.1137-36.1137,36.1137l-35.434,0c-20.007,0-36.1137,-16.1067-36.1137,-36.1137l0,-47.8884" fill="#fff" stroke="#000" stroke-linecap="round" stroke-linejoin="round" stroke-width="3.6422"/>
<path d="M120.3035,288.105H140.7164A2.3409,2.3409 0 0 1 143.0572,290.4458V297.3508A2.3409,2.3409 0 0 1 140.7164,299.6916H120.3035A2.3409,2.3409 0 0 1 117.9626,297.3508V290.4458A2.3409,2.3409 0 0 1 120.3035,288.105z" stroke="#000" stroke-linecap="square" stroke-linejoin="round" stroke-width="3.7338"/>
<path d="m52.1727,293.1596c.5492,.0105 1.0986,.007 1.6478,.004 .363,-.002 .7259,-.004 1.0889,-.004 .2925,-4.3e-4 .585,-4e-4 .8775,-4e-4 .304,-6.3e-4 .6081,6e-4 .9121,10e-4 .3906,-.01 .7752,-3.7e-4 1.162,.0507 .3996,.0545 .8031,.0717 1.2062,.0827 .4052,-.0158 .8029,.0589 1.204,.099 .4079,.0368 .818,.0407 1.2274,.045 .4301,.002 .8603,.002 1.2904,6.5e-4 .3736,-7.6e-4 .7472,-10e-4 1.1208,-.002 .307,-7.7e-4 .6141,-9.8e-4 .9211,-10e-4 .2915,-8e-5 .583,-7e-5 .8745,-6e-5 .2915,1e-5 .5831,1e-5 .8746,1e-5 .3187,-3.9e-4 .6374,5.3e-4 .9561,.002 .3943,.002 .7885,4.4e-4 1.1828,-6.3e-4 .3709,-2.7e-4 .7418,4.7e-4 1.1126,.001 .3967,-1.7e-4 .7934,-8e-5 1.1902,-.001 .38,1.9e-4 .7599,7.4e-4 1.1399,1.6e-4 .3456,-10e-4 .6912,-.002 1.0367,2.5e-4 .5332,.003 1.0664,.004 1.5996,.006 .7266,.003 1.4533,.003 2.1799,10e-4 .5332,-10e-4 1.0664,-.005 1.5997,-.005 .4413,6.5e-4 .8826,-2e-5 1.3239,-.002 .0611,-2e-4 .1222,-4e-4 .1833,-6e-4l-1.746,1.1993c-.0605,-2.1e-4-.121,-4.1e-4-.1815,-6.1e-4-.4399,-10e-4-.8797,-.002-1.3196,-.002-.528,-2.2e-4-1.0559,-.004-1.5839,-.005-.7276,-.002-1.4552,-.002-2.1828,9.9e-4-.5391,.002-1.0782,.003-1.6173,.006-.3458,.002-.6916,.002-1.0375,2.6e-4-.3801,-5.7e-4-.7602,-3e-5-1.1404,1.5e-4-.3957,-9.9e-4-.7914,-8.9e-4-1.187,-.001-.3723,.001-.7447,.002-1.117,.002-.3937,-10e-4-.7873,-.003-1.181,-6.3e-4-.3206,.001-.6411,.002-.9617,.002-.2915,0-.5831,0-.8747,0-.2914,0-.5829,2e-5-.8743,-6e-5-.306,-1.3e-4-.612,-3.5e-4-.918,-9.6e-4-.372,-6.9e-4-.744,-8.4e-4-1.1161,-8.8e-4-.4302,-8.3e-4-.8603,7e-4-1.2904,-.004-.4148,-.006-.8303,-.0145-1.2428,-.0595-.3968,-.0446-.792,-.0972-1.193,-.0869-.4078,-.0152-.8149,-.0435-1.2193,-.0968-.382,-.0404-.7654,-.0292-1.1493,-.0278-.3051,5.6e-4-.6103,.002-.9155,.001-.2921,10e-6-.5842,3e-5-.8763,-4e-4-.3589,-6.7e-4-.7177,-.002-1.0765,-.004-.5532,-.003-1.1065,-.006-1.6597,.004l1.7494,-1.2016z" stroke="#000" stroke-linecap="square" stroke-linejoin="round" stroke-width=".4767"/>
<path d="m143.6676,293.4362c.7039,.0118 1.4079,.0102 2.1119,.01 .6452,-8.9e-4 1.2905,-.003 1.9357,-.006 .4312,-.002 .8624,-.002 1.2935,-.003 .3398,-8.1e-4 .6796,-.002 1.0194,-.002 .2968,.0217 .5821,-.0575 .8738,-.0956 .2926,-.0341 .5877,-.039 .8821,-.0425 .2922,-.002 .5843,-.001 .8765,-8.4e-4 .2918,4e-4 .5836,5.3e-4 .8754,6.1e-4 .2918,5e-5 .5836,5e-5 .8754,5e-5 .2918,0 .5836,0 .8754,0 .3133,-6.1e-4 .6266,10e-4 .9398,10e-4 .3172,-2.5e-4 .6345,-6.9e-4 .9517,-9.3e-4 .2938,-1.8e-4 .5877,-2e-4 .8815,-2.1e-4 .1943,-1e-5 .0972,-1e-5 .2915,-1e-5l-1.7509,1.2027c-.1943,0-.0971,0-.2914,0-.2936,-2e-5-.5872,-4e-5-.8808,-2.2e-4-.3164,-2.3e-4-.6327,-6.8e-4-.9491,-9.3e-4-.3144,4e-5-.6287,.002-.9431,10e-4-.2918,1e-5-.5836,1e-5-.8754,1e-5-.2918,-1e-5-.5836,-1e-5-.8754,-1.2e-4-.2918,-1.3e-4-.5837,-3.7e-4-.8755,-7.2e-4-.2913,-2.3e-4-.5826,-10e-4-.8738,.004-.2893,.007-.5791,.0195-.8653,.0636-.2961,.0453-.5905,.0907-.8921,.0705-.3377,-4.3e-4-.6755,-10e-4-1.0132,-.002-.4283,-5.4e-4-.8565,-6.3e-4-1.2848,-.003-.6398,-.003-1.2796,-.005-1.9195,-.006-.7134,-4.8e-4-1.4269,-.002-2.1402,.01l1.747,-1.2z" stroke="#000" stroke-linecap="square" stroke-linejoin="round" stroke-width=".4767"/>
<path d="m103.3747,293.5995c.5339,.0676 1.0726,.0889 1.6105,.1048 .4801,.0116 .9604,.0116 1.4405,.0103 .3964,-5e-4 .7929,-6.3e-4 1.1893,-.002 .7958,.0205 1.592,.0104 2.3879,.007 .4809,-.004 .9619,-.005 1.4428,-.007 .3835,3e-5 .767,-4.2e-4 1.1506,6e-4 .4032,10e-4 .8064,-9.5e-4 1.2096,-3.1e-4 .3638,-8.6e-4 .7277,-7.6e-4 1.0915,-6.6e-4 .3644,5.6e-4 .7288,2.2e-4 1.0931,-5.1e-4 .3481,.001 .6961,1.1e-4 1.0442,-4.5e-4 .3406,.001 .6811,4.5e-4 1.0217,-4e-5 .3008,-4.3e-4 .6016,-5.6e-4 .9024,-6.3e-4 .2516,.0585 .5047,.1006 .7628,.1209 .2799,.0172 .5606,.0173 .8409,.018 .2917,1.9e-4 .5833,-3.9e-4 .875,-6.8e-4 .146,-1.4e-4 .292,-2e-4 .4381,-2.6e-4l-1.7508,1.2027c-.146,1e-4-.292,1.9e-4-.438,3.5e-4-.292,3.2e-4-.584,10e-4-.876,-3.9e-4-.2852,-.002-.5709,-.005-.8549,-.0331-.2506,-.0294-.496,-.0897-.7478,-.105-.3002,-8e-5-.6004,-2e-4-.9006,-6.3e-4-.3405,-4.8e-4-.681,-.001-1.0215,-5e-5-.3476,-5.5e-4-.6953,-.002-1.0429,-4.4e-4-.3639,-7.3e-4-.7278,-.001-1.0916,-5.1e-4-.3632,1.1e-4-.7264,1.9e-4-1.0895,-6.6e-4-.4029,6.4e-4-.8058,-.002-1.2087,-3.1e-4-.3841,.001-.7682,5.8e-4-1.1523,6e-4-.4742,-.002-.9483,-.003-1.4224,-.007-.8027,-.004-1.6058,-.0132-2.4083,.007-.3958,-4.3e-4-.7915,4.6e-4-1.1873,-3.6e-4-.4785,-.003-.957,-.007-1.4353,-.0226-.5477,-.0212-1.0947,-.0538-1.64,-.107l1.7673,-1.1825z" stroke="#000" stroke-linecap="square" stroke-linejoin="round" stroke-width=".4767"/>
<path d="m64.8702,255.7862 0,18.5432" fill="none" stroke="#000" stroke-linecap="round" stroke-width="4.8046"/>
<path d="m74.3942,254.0318 0,18.5432" fill="none" stroke="#000" stroke-linecap="round" stroke-width="4.8046"/>
<path d="m83.3312,255.4961 0,18.5432" fill="none" stroke="#000" stroke-linecap="round" stroke-width="4.8046"/>
<path d="m95.0079,254.3289 0,18.5432" fill="none" stroke="#000" stroke-linecap="round" stroke-width="4.8046"/>
<path d="m105.1665,256.5155 0,18.5432" fill="none" stroke="#000" stroke-linecap="round" stroke-width="4.8046"/>
<path d="m116.7958,256.3401 0,18.5432" fill="none" stroke="#000" stroke-linecap="round" stroke-width="4.8046"/>
<path d="m127.2983,254.6259 0,18.5432" fill="none" stroke="#000" stroke-linecap="round" stroke-width="4.8046"/>
<path d="m137.2138,257.6628 0,18.5432" fill="none" stroke="#000" stroke-linecap="round" stroke-width="4.8046"/>
<path d="m147.8867,257.2942 0,18.5432" fill="none" stroke="#000" stroke-linecap="round" stroke-width="4.8046"/>
<path d="m56.986,260.5164 0,18.5432" fill="none" stroke="#000" stroke-linecap="round" stroke-width="4.8046"/>
<path d="M79.6507,288.3138H100.0636A2.3409,2.3409 0 0 1 102.4044,290.6547V297.5596A2.3409,2.3409 0 0 1 100.0636,299.9005H79.6507A2.3409,2.3409 0 0 1 77.3099,297.5596V290.6547A2.3409,2.3409 0 0 1 79.6507,288.3138z" stroke="#000" stroke-linecap="square" stroke-linejoin="round" stroke-width="3.7338"/>
<path d="M108.9643,332.5 86.1072,329.6429" fill="none" stroke="#000"/>
</g>
<text font-family="Bitstream Vera Sans" font-size="20" x="155.3965" y="732.0003">
   <tspan text-align="center" text-anchor="middle" x="155.3965" y="732.0003">Votre projet de la</tspan>
   <tspan text-align="center" text-anchor="middle" x="155.3965" y="757.0003">semaine sera un</tspan>
   <tspan text-align="center" text-anchor="middle" x="155.3965" y="782.0003">Jeu de la Vie !</tspan>
  </text>
<text font-family="Bitstream Vera Sans" font-size="20" x="910.1506" y="327.9088">
   <tspan text-align="center" text-anchor="middle" x="910.1506" y="327.9088"></tspan>
  </text>
<text font-family="Bitstream Vera Sans" font-size="20" x="678.99" y="511.0562">
   <tspan x="678.99" y="511.0562"></tspan>
  </text>
<text font-family="Bitstream Vera Sans" font-size="20" x="59.0996" y="851.7305">
   <tspan x="59.0996" y="851.7305"></tspan>
  </text>
<g transform="translate(336.426,597.6322)">
<path d="m446.8915,78.4154c0,2.9289-27.5427,5.3033-61.5183,5.3033-33.9756,0-61.5183,-2.3744-61.5183,-5.3033 0,-2.9289 27.5427,-5.3033 61.5183,-5.3033 33.9756,0 61.5183,2.3744 61.5183,5.3033z" stroke="#000" stroke-linecap="round" stroke-width="4.862" transform="translate(-281.6053,276.7656)"/>
<path d="m157.526,268.2935 0,47.8884c0,20.007-16.1067,36.1137-36.1137,36.1137l-35.434,0c-20.007,0-36.1137,-16.1067-36.1137,-36.1137l0,-47.8884" fill="#fff" stroke="#000" stroke-linecap="round" stroke-linejoin="round" stroke-width="3.6422"/>
<path d="M120.3035,288.105H140.7164A2.3409,2.3409 0 0 1 143.0572,290.4458V297.3508A2.3409,2.3409 0 0 1 140.7164,299.6916H120.3035A2.3409,2.3409 0 0 1 117.9626,297.3508V290.4458A2.3409,2.3409 0 0 1 120.3035,288.105z" stroke="#000" stroke-linecap="square" stroke-linejoin="round" stroke-width="3.7338"/>
<path d="m52.1727,293.1596c.5492,.0105 1.0986,.007 1.6478,.004 .363,-.002 .7259,-.004 1.0889,-.004 .2925,-4.3e-4 .585,-4e-4 .8775,-4e-4 .304,-6.3e-4 .6081,6e-4 .9121,10e-4 .3906,-.01 .7752,-3.7e-4 1.162,.0507 .3996,.0545 .8031,.0717 1.2062,.0827 .4052,-.0158 .8029,.0589 1.204,.099 .4079,.0368 .818,.0407 1.2274,.045 .4301,.002 .8603,.002 1.2904,6.5e-4 .3736,-7.6e-4 .7472,-10e-4 1.1208,-.002 .307,-7.7e-4 .6141,-9.8e-4 .9211,-10e-4 .2915,-8e-5 .583,-7e-5 .8745,-6e-5 .2915,1e-5 .5831,1e-5 .8746,1e-5 .3187,-3.9e-4 .6374,5.3e-4 .9561,.002 .3943,.002 .7885,4.4e-4 1.1828,-6.3e-4 .3709,-2.7e-4 .7418,4.7e-4 1.1126,.001 .3967,-1.7e-4 .7934,-8e-5 1.1902,-.001 .38,1.9e-4 .7599,7.4e-4 1.1399,1.6e-4 .3456,-10e-4 .6912,-.002 1.0367,2.5e-4 .5332,.003 1.0664,.004 1.5996,.006 .7266,.003 1.4533,.003 2.1799,10e-4 .5332,-10e-4 1.0664,-.005 1.5997,-.005 .4413,6.5e-4 .8826,-2e-5 1.3239,-.002 .0611,-2e-4 .1222,-4e-4 .1833,-6e-4l-1.746,1.1993c-.0605,-2.1e-4-.121,-4.1e-4-.1815,-6.1e-4-.4399,-10e-4-.8797,-.002-1.3196,-.002-.528,-2.2e-4-1.0559,-.004-1.5839,-.005-.7276,-.002-1.4552,-.002-2.1828,9.9e-4-.5391,.002-1.0782,.003-1.6173,.006-.3458,.002-.6916,.002-1.0375,2.6e-4-.3801,-5.7e-4-.7602,-3e-5-1.1404,1.5e-4-.3957,-9.9e-4-.7914,-8.9e-4-1.187,-.001-.3723,.001-.7447,.002-1.117,.002-.3937,-10e-4-.7873,-.003-1.181,-6.3e-4-.3206,.001-.6411,.002-.9617,.002-.2915,0-.5831,0-.8747,0-.2914,0-.5829,2e-5-.8743,-6e-5-.306,-1.3e-4-.612,-3.5e-4-.918,-9.6e-4-.372,-6.9e-4-.744,-8.4e-4-1.1161,-8.8e-4-.4302,-8.3e-4-.8603,7e-4-1.2904,-.004-.4148,-.006-.8303,-.0145-1.2428,-.0595-.3968,-.0446-.792,-.0972-1.193,-.0869-.4078,-.0152-.8149,-.0435-1.2193,-.0968-.382,-.0404-.7654,-.0292-1.1493,-.0278-.3051,5.6e-4-.6103,.002-.9155,.001-.2921,10e-6-.5842,3e-5-.8763,-4e-4-.3589,-6.7e-4-.7177,-.002-1.0765,-.004-.5532,-.003-1.1065,-.006-1.6597,.004l1.7494,-1.2016z" stroke="#000" stroke-linecap="square" stroke-linejoin="round" stroke-width=".4767"/>
<path d="m143.6676,293.4362c.7039,.0118 1.4079,.0102 2.1119,.01 .6452,-8.9e-4 1.2905,-.003 1.9357,-.006 .4312,-.002 .8624,-.002 1.2935,-.003 .3398,-8.1e-4 .6796,-.002 1.0194,-.002 .2968,.0217 .5821,-.0575 .8738,-.0956 .2926,-.0341 .5877,-.039 .8821,-.0425 .2922,-.002 .5843,-.001 .8765,-8.4e-4 .2918,4e-4 .5836,5.3e-4 .8754,6.1e-4 .2918,5e-5 .5836,5e-5 .8754,5e-5 .2918,0 .5836,0 .8754,0 .3133,-6.1e-4 .6266,10e-4 .9398,10e-4 .3172,-2.5e-4 .6345,-6.9e-4 .9517,-9.3e-4 .2938,-1.8e-4 .5877,-2e-4 .8815,-2.1e-4 .1943,-1e-5 .0972,-1e-5 .2915,-1e-5l-1.7509,1.2027c-.1943,0-.0971,0-.2914,0-.2936,-2e-5-.5872,-4e-5-.8808,-2.2e-4-.3164,-2.3e-4-.6327,-6.8e-4-.9491,-9.3e-4-.3144,4e-5-.6287,.002-.9431,10e-4-.2918,1e-5-.5836,1e-5-.8754,1e-5-.2918,-1e-5-.5836,-1e-5-.8754,-1.2e-4-.2918,-1.3e-4-.5837,-3.7e-4-.8755,-7.2e-4-.2913,-2.3e-4-.5826,-10e-4-.8738,.004-.2893,.007-.5791,.0195-.8653,.0636-.2961,.0453-.5905,.0907-.8921,.0705-.3377,-4.3e-4-.6755,-10e-4-1.0132,-.002-.4283,-5.4e-4-.8565,-6.3e-4-1.2848,-.003-.6398,-.003-1.2796,-.005-1.9195,-.006-.7134,-4.8e-4-1.4269,-.002-2.1402,.01l1.747,-1.2z" stroke="#000" stroke-linecap="square" stroke-linejoin="round" stroke-width=".4767"/>
<path d="m103.3747,293.5995c.5339,.0676 1.0726,.0889 1.6105,.1048 .4801,.0116 .9604,.0116 1.4405,.0103 .3964,-5e-4 .7929,-6.3e-4 1.1893,-.002 .7958,.0205 1.592,.0104 2.3879,.007 .4809,-.004 .9619,-.005 1.4428,-.007 .3835,3e-5 .767,-4.2e-4 1.1506,6e-4 .4032,10e-4 .8064,-9.5e-4 1.2096,-3.1e-4 .3638,-8.6e-4 .7277,-7.6e-4 1.0915,-6.6e-4 .3644,5.6e-4 .7288,2.2e-4 1.0931,-5.1e-4 .3481,.001 .6961,1.1e-4 1.0442,-4.5e-4 .3406,.001 .6811,4.5e-4 1.0217,-4e-5 .3008,-4.3e-4 .6016,-5.6e-4 .9024,-6.3e-4 .2516,.0585 .5047,.1006 .7628,.1209 .2799,.0172 .5606,.0173 .8409,.018 .2917,1.9e-4 .5833,-3.9e-4 .875,-6.8e-4 .146,-1.4e-4 .292,-2e-4 .4381,-2.6e-4l-1.7508,1.2027c-.146,1e-4-.292,1.9e-4-.438,3.5e-4-.292,3.2e-4-.584,10e-4-.876,-3.9e-4-.2852,-.002-.5709,-.005-.8549,-.0331-.2506,-.0294-.496,-.0897-.7478,-.105-.3002,-8e-5-.6004,-2e-4-.9006,-6.3e-4-.3405,-4.8e-4-.681,-.001-1.0215,-5e-5-.3476,-5.5e-4-.6953,-.002-1.0429,-4.4e-4-.3639,-7.3e-4-.7278,-.001-1.0916,-5.1e-4-.3632,1.1e-4-.7264,1.9e-4-1.0895,-6.6e-4-.4029,6.4e-4-.8058,-.002-1.2087,-3.1e-4-.3841,.001-.7682,5.8e-4-1.1523,6e-4-.4742,-.002-.9483,-.003-1.4224,-.007-.8027,-.004-1.6058,-.0132-2.4083,.007-.3958,-4.3e-4-.7915,4.6e-4-1.1873,-3.6e-4-.4785,-.003-.957,-.007-1.4353,-.0226-.5477,-.0212-1.0947,-.0538-1.64,-.107l1.7673,-1.1825z" stroke="#000" stroke-linecap="square" stroke-linejoin="round" stroke-width=".4767"/>
<path d="m64.8702,255.7862 0,18.5432" fill="none" stroke="#000" stroke-linecap="round" stroke-width="4.8046"/>
<path d="m74.3942,254.0318 0,18.5432" fill="none" stroke="#000" stroke-linecap="round" stroke-width="4.8046"/>
<path d="m83.3312,255.4961 0,18.5432" fill="none" stroke="#000" stroke-linecap="round" stroke-width="4.8046"/>
<path d="m95.0079,254.3289 0,18.5432" fill="none" stroke="#000" stroke-linecap="round" stroke-width="4.8046"/>
<path d="m105.1665,256.5155 0,18.5432" fill="none" stroke="#000" stroke-linecap="round" stroke-width="4.8046"/>
<path d="m116.7958,256.3401 0,18.5432" fill="none" stroke="#000" stroke-linecap="round" stroke-width="4.8046"/>
<path d="m127.2983,254.6259 0,18.5432" fill="none" stroke="#000" stroke-linecap="round" stroke-width="4.8046"/>
<path d="m137.2138,257.6628 0,18.5432" fill="none" stroke="#000" stroke-linecap="round" stroke-width="4.8046"/>
<path d="m147.8867,257.2942 0,18.5432" fill="none" stroke="#000" stroke-linecap="round" stroke-width="4.8046"/>
<path d="m56.986,260.5164 0,18.5432" fill="none" stroke="#000" stroke-linecap="round" stroke-width="4.8046"/>
<path d="M79.6507,288.3138H100.0636A2.3409,2.3409 0 0 1 102.4044,290.6547V297.5596A2.3409,2.3409 0 0 1 100.0636,299.9005H79.6507A2.3409,2.3409 0 0 1 77.3099,297.5596V290.6547A2.3409,2.3409 0 0 1 79.6507,288.3138z" stroke="#000" stroke-linecap="square" stroke-linejoin="round" stroke-width="3.7338"/>
<path d="M108.9643,332.5 86.1072,329.6429" fill="none" stroke="#000"/>
</g>
<path d="m226.2742,789.7225 48.4873,21.2132" fill="none" stroke="#000"/>
<text font-family="Bitstream Vera Sans" font-size="40" x="430.325" y="740.2251">
   <tspan font-size="20" text-align="center" text-anchor="middle" x="430.325" y="740.2251">Comme vous ne savez</tspan>
   <tspan font-size="20" text-align="center" text-anchor="middle" x="430.325" y="765.2251">surement pas en quoi</tspan>
   <tspan font-size="20" text-align="center" text-anchor="middle" x="430.325" y="790.2251">cela consiste...</tspan>
  </text>
<text font-family="Bitstream Vera Sans" font-size="40" x="713.2703" y="736.5695">
   <tspan font-size="20" text-align="center" text-anchor="middle" x="713.2703" y="736.5695">... nous allons vous</tspan>
   <tspan font-size="20" text-align="center" text-anchor="middle" x="713.2703" y="761.5695">faire une presentation</tspan>
   <tspan font-size="20" text-align="center" text-anchor="middle" x="713.2703" y="786.5695">de la Vie.</tspan>
  </text>
<g transform="translate(603.3389,606.6989)">
<path d="m446.8915,78.4154c0,2.9289-27.5427,5.3033-61.5183,5.3033-33.9756,0-61.5183,-2.3744-61.5183,-5.3033 0,-2.9289 27.5427,-5.3033 61.5183,-5.3033 33.9756,0 61.5183,2.3744 61.5183,5.3033z" stroke="#000" stroke-linecap="round" stroke-width="4.862" transform="translate(-281.6053,276.7656)"/>
<path d="m157.526,268.2935 0,47.8884c0,20.007-16.1067,36.1137-36.1137,36.1137l-35.434,0c-20.007,0-36.1137,-16.1067-36.1137,-36.1137l0,-47.8884" fill="#fff" stroke="#000" stroke-linecap="round" stroke-linejoin="round" stroke-width="3.6422"/>
<path d="M120.3035,288.105H140.7164A2.3409,2.3409 0 0 1 143.0572,290.4458V297.3508A2.3409,2.3409 0 0 1 140.7164,299.6916H120.3035A2.3409,2.3409 0 0 1 117.9626,297.3508V290.4458A2.3409,2.3409 0 0 1 120.3035,288.105z" stroke="#000" stroke-linecap="square" stroke-linejoin="round" stroke-width="3.7338"/>
<path d="m52.1727,293.1596c.5492,.0105 1.0986,.007 1.6478,.004 .363,-.002 .7259,-.004 1.0889,-.004 .2925,-4.3e-4 .585,-4e-4 .8775,-4e-4 .304,-6.3e-4 .6081,6e-4 .9121,10e-4 .3906,-.01 .7752,-3.7e-4 1.162,.0507 .3996,.0545 .8031,.0717 1.2062,.0827 .4052,-.0158 .8029,.0589 1.204,.099 .4079,.0368 .818,.0407 1.2274,.045 .4301,.002 .8603,.002 1.2904,6.5e-4 .3736,-7.6e-4 .7472,-10e-4 1.1208,-.002 .307,-7.7e-4 .6141,-9.8e-4 .9211,-10e-4 .2915,-8e-5 .583,-7e-5 .8745,-6e-5 .2915,1e-5 .5831,1e-5 .8746,1e-5 .3187,-3.9e-4 .6374,5.3e-4 .9561,.002 .3943,.002 .7885,4.4e-4 1.1828,-6.3e-4 .3709,-2.7e-4 .7418,4.7e-4 1.1126,.001 .3967,-1.7e-4 .7934,-8e-5 1.1902,-.001 .38,1.9e-4 .7599,7.4e-4 1.1399,1.6e-4 .3456,-10e-4 .6912,-.002 1.0367,2.5e-4 .5332,.003 1.0664,.004 1.5996,.006 .7266,.003 1.4533,.003 2.1799,10e-4 .5332,-10e-4 1.0664,-.005 1.5997,-.005 .4413,6.5e-4 .8826,-2e-5 1.3239,-.002 .0611,-2e-4 .1222,-4e-4 .1833,-6e-4l-1.746,1.1993c-.0605,-2.1e-4-.121,-4.1e-4-.1815,-6.1e-4-.4399,-10e-4-.8797,-.002-1.3196,-.002-.528,-2.2e-4-1.0559,-.004-1.5839,-.005-.7276,-.002-1.4552,-.002-2.1828,9.9e-4-.5391,.002-1.0782,.003-1.6173,.006-.3458,.002-.6916,.002-1.0375,2.6e-4-.3801,-5.7e-4-.7602,-3e-5-1.1404,1.5e-4-.3957,-9.9e-4-.7914,-8.9e-4-1.187,-.001-.3723,.001-.7447,.002-1.117,.002-.3937,-10e-4-.7873,-.003-1.181,-6.3e-4-.3206,.001-.6411,.002-.9617,.002-.2915,0-.5831,0-.8747,0-.2914,0-.5829,2e-5-.8743,-6e-5-.306,-1.3e-4-.612,-3.5e-4-.918,-9.6e-4-.372,-6.9e-4-.744,-8.4e-4-1.1161,-8.8e-4-.4302,-8.3e-4-.8603,7e-4-1.2904,-.004-.4148,-.006-.8303,-.0145-1.2428,-.0595-.3968,-.0446-.792,-.0972-1.193,-.0869-.4078,-.0152-.8149,-.0435-1.2193,-.0968-.382,-.0404-.7654,-.0292-1.1493,-.0278-.3051,5.6e-4-.6103,.002-.9155,.001-.2921,10e-6-.5842,3e-5-.8763,-4e-4-.3589,-6.7e-4-.7177,-.002-1.0765,-.004-.5532,-.003-1.1065,-.006-1.6597,.004l1.7494,-1.2016z" stroke="#000" stroke-linecap="square" stroke-linejoin="round" stroke-width=".4767"/>
<path d="m143.6676,293.4362c.7039,.0118 1.4079,.0102 2.1119,.01 .6452,-8.9e-4 1.2905,-.003 1.9357,-.006 .4312,-.002 .8624,-.002 1.2935,-.003 .3398,-8.1e-4 .6796,-.002 1.0194,-.002 .2968,.0217 .5821,-.0575 .8738,-.0956 .2926,-.0341 .5877,-.039 .8821,-.0425 .2922,-.002 .5843,-.001 .8765,-8.4e-4 .2918,4e-4 .5836,5.3e-4 .8754,6.1e-4 .2918,5e-5 .5836,5e-5 .8754,5e-5 .2918,0 .5836,0 .8754,0 .3133,-6.1e-4 .6266,10e-4 .9398,10e-4 .3172,-2.5e-4 .6345,-6.9e-4 .9517,-9.3e-4 .2938,-1.8e-4 .5877,-2e-4 .8815,-2.1e-4 .1943,-1e-5 .0972,-1e-5 .2915,-1e-5l-1.7509,1.2027c-.1943,0-.0971,0-.2914,0-.2936,-2e-5-.5872,-4e-5-.8808,-2.2e-4-.3164,-2.3e-4-.6327,-6.8e-4-.9491,-9.3e-4-.3144,4e-5-.6287,.002-.9431,10e-4-.2918,1e-5-.5836,1e-5-.8754,1e-5-.2918,-1e-5-.5836,-1e-5-.8754,-1.2e-4-.2918,-1.3e-4-.5837,-3.7e-4-.8755,-7.2e-4-.2913,-2.3e-4-.5826,-10e-4-.8738,.004-.2893,.007-.5791,.0195-.8653,.0636-.2961,.0453-.5905,.0907-.8921,.0705-.3377,-4.3e-4-.6755,-10e-4-1.0132,-.002-.4283,-5.4e-4-.8565,-6.3e-4-1.2848,-.003-.6398,-.003-1.2796,-.005-1.9195,-.006-.7134,-4.8e-4-1.4269,-.002-2.1402,.01l1.747,-1.2z" stroke="#000" stroke-linecap="square" stroke-linejoin="round" stroke-width=".4767"/>
<path d="m103.3747,293.5995c.5339,.0676 1.0726,.0889 1.6105,.1048 .4801,.0116 .9604,.0116 1.4405,.0103 .3964,-5e-4 .7929,-6.3e-4 1.1893,-.002 .7958,.0205 1.592,.0104 2.3879,.007 .4809,-.004 .9619,-.005 1.4428,-.007 .3835,3e-5 .767,-4.2e-4 1.1506,6e-4 .4032,10e-4 .8064,-9.5e-4 1.2096,-3.1e-4 .3638,-8.6e-4 .7277,-7.6e-4 1.0915,-6.6e-4 .3644,5.6e-4 .7288,2.2e-4 1.0931,-5.1e-4 .3481,.001 .6961,1.1e-4 1.0442,-4.5e-4 .3406,.001 .6811,4.5e-4 1.0217,-4e-5 .3008,-4.3e-4 .6016,-5.6e-4 .9024,-6.3e-4 .2516,.0585 .5047,.1006 .7628,.1209 .2799,.0172 .5606,.0173 .8409,.018 .2917,1.9e-4 .5833,-3.9e-4 .875,-6.8e-4 .146,-1.4e-4 .292,-2e-4 .4381,-2.6e-4l-1.7508,1.2027c-.146,1e-4-.292,1.9e-4-.438,3.5e-4-.292,3.2e-4-.584,10e-4-.876,-3.9e-4-.2852,-.002-.5709,-.005-.8549,-.0331-.2506,-.0294-.496,-.0897-.7478,-.105-.3002,-8e-5-.6004,-2e-4-.9006,-6.3e-4-.3405,-4.8e-4-.681,-.001-1.0215,-5e-5-.3476,-5.5e-4-.6953,-.002-1.0429,-4.4e-4-.3639,-7.3e-4-.7278,-.001-1.0916,-5.1e-4-.3632,1.1e-4-.7264,1.9e-4-1.0895,-6.6e-4-.4029,6.4e-4-.8058,-.002-1.2087,-3.1e-4-.3841,.001-.7682,5.8e-4-1.1523,6e-4-.4742,-.002-.9483,-.003-1.4224,-.007-.8027,-.004-1.6058,-.0132-2.4083,.007-.3958,-4.3e-4-.7915,4.6e-4-1.1873,-3.6e-4-.4785,-.003-.957,-.007-1.4353,-.0226-.5477,-.0212-1.0947,-.0538-1.64,-.107l1.7673,-1.1825z" stroke="#000" stroke-linecap="square" stroke-linejoin="round" stroke-width=".4767"/>
<path d="m64.8702,255.7862 0,18.5432" fill="none" stroke="#000" stroke-linecap="round" stroke-width="4.8046"/>
<path d="m74.3942,254.0318 0,18.5432" fill="none" stroke="#000" stroke-linecap="round" stroke-width="4.8046"/>
<path d="m83.3312,255.4961 0,18.5432" fill="none" stroke="#000" stroke-linecap="round" stroke-width="4.8046"/>
<path d="m95.0079,254.3289 0,18.5432" fill="none" stroke="#000" stroke-linecap="round" stroke-width="4.8046"/>
<path d="m105.1665,256.5155 0,18.5432" fill="none" stroke="#000" stroke-linecap="round" stroke-width="4.8046"/>
<path d="m116.7958,256.3401 0,18.5432" fill="none" stroke="#000" stroke-linecap="round" stroke-width="4.8046"/>
<path d="m127.2983,254.6259 0,18.5432" fill="none" stroke="#000" stroke-linecap="round" stroke-width="4.8046"/>
<path d="m137.2138,257.6628 0,18.5432" fill="none" stroke="#000" stroke-linecap="round" stroke-width="4.8046"/>
<path d="m147.8867,257.2942 0,18.5432" fill="none" stroke="#000" stroke-linecap="round" stroke-width="4.8046"/>
<path d="m56.986,260.5164 0,18.5432" fill="none" stroke="#000" stroke-linecap="round" stroke-width="4.8046"/>
<path d="M79.6507,288.3138H100.0636A2.3409,2.3409 0 0 1 102.4044,290.6547V297.5596A2.3409,2.3409 0 0 1 100.0636,299.9005H79.6507A2.3409,2.3409 0 0 1 77.3099,297.5596V290.6547A2.3409,2.3409 0 0 1 79.6507,288.3138z" stroke="#000" stroke-linecap="square" stroke-linejoin="round" stroke-width="3.7338"/>
<path d="M108.9643,332.5 86.1072,329.6429" fill="none" stroke="#000"/>
</g>
<path d="m519.2184,793.2581 48.4873,21.2132" fill="none" stroke="#000"/>
<path d="m783.8784,790.2276 48.4873,21.2132" fill="none" stroke="#000"/>
<text font-family="Bitstream Vera Sans" font-size="40" x="637.4063" y="829.1185">
   <tspan font-size="20" text-align="center" text-anchor="middle" x="637.4063" y="829.1185">Hmm...</tspan>
  </text>
<path d="m642.457,832.1489 14.1421,24.2437" fill="none" stroke="#000"/>
</g>
</svg>
