<svg version="1.1" viewBox="0 0 900 450" xmlns="http://www.w3.org/2000/svg" xmlns:svg="http://www.w3.org/2000/svg">
<g transform="translate(0,-602.3622)">
<path d="M52.0487,680.9872H833.0507A31.621,31.621 0 0 1 864.6717,712.6082V960.957A31.621,31.621 0 0 1 833.0507,992.5781H52.0487A31.621,31.621 0 0 1 20.4277,960.957V712.6082A31.621,31.621 0 0 1 52.0487,680.9872z" fill="#fff" stroke="#000" stroke-linecap="round" stroke-width="7.4907"/>
<path d="m17.1429,896.6479 847.1429,0" fill="none" stroke="#000"/>
<path d="m597.6694,677.6726 0,313.8905" fill="none" stroke="#000" stroke-width="5.6784"/>
<path d="m293.9593,676.9479 0,313.8905" fill="none" stroke="#000" stroke-width="5.6784"/>
<g transform="matrix(.12574,0,0,.12574,822.39461,1020.123)">
<path d="m162.9615,-66.1029c3.4935,4.0575 8.2353,4.5442 13.2828,4.8295 6.3854,-.1721 12.7816,-1.7005 18.7482,-3.9709 3.188,-1.2131 4.9498,-2.2461 7.9245,-3.8084-17.8031,10.4157-7.8919,4.8373-4.5635,1.3015 1.7244,-1.8318 2.7543,-3.7619 3.7268,-6.049 2.5265,-7.1174 2.8539,-14.7708 3.2849,-22.2438 .8398,-10.8784-1.4121,-21.5587-3.8369,-32.0902-2.9495,-11.0779-6.9553,-21.8431-11.3671,-32.4128-2.1125,-4.9937-4.5016,-9.8617-6.8287,-14.7566-3.1362,-6.0174-5.7017,-2.2804 12.0114,-9.1516 .6104,-.2368 .7311,1.087 1.1222,1.6121 .6549,.8793 1.3432,1.7331 2.0147,2.5997 6.5345,8.9671 14.393,16.8239 22.2682,24.5961 4.6332,4.5123 9.6016,8.7005 14.032,13.4186 1.6816,1.3731 2.6867,3.3087 4.04,4.9541 1.3218,1.1942 2.3559,-.063 3.524,-.88-20.4032,12.2348-13.1369,8.2804-9.2246,4.5289 1.5406,-1.4773 2.9931,-3.0561 4.4682,-4.5977 2.0935,-2.0887 4.0773,-4.3249 6.3699,-6.2061 6.0518,-4.966 14.4953,-8.9342 20.7536,-12.4943 5.7826,-2.554 11.6983,-4.7759 17.7067,-6.7339 1.2429,-.2695 6.0517,-2.1189 7.1497,-.869 .2555,.2908 .359,.686 .5385,1.029 .0249,.3507 .122,.7037 .0746,1.052-.3464,2.5421-4.2822,5.4998-5.9999,7.0812-7.8955,6.5272-15.5561,13.3165-22.8485,20.5113-6.3434,6.805-12.8959,13.5227-17.9461,21.3722-3.1182,4.9027-4.7756,10.316-5.5537,16.0199-.5154,5.1011-.4313,10.2374-.4233,15.3575 .2794,5.5658 .9893,11.1428 2.6464,16.4744 .9499,2.8397 2.6391,4.9259 5.3418,6.1729 1.7933,.6321 3.8468,1.0482 5.7562,.6876 .4443,-.0839 4.1482,-1.3389 4.4445,-1.4379 4.3672,-2.3833 14.9158,-7.9566-4.8252,2.8617-.781,.428 1.5035,-.9552 2.2436,-1.4505 1.7,-1.1377 2.1084,-1.4721 3.7035,-2.6614 1.913,-1.4312 1.0067,-.7357 2.723,-2.0808l13.6711,-5.4983c-1.7324,1.4564-.8048,.73-2.796,2.1623-8.0629,6.2254-16.9943,11.3785-26.2507,15.5961-4.0612,1.2122-7.06,1.7923-11.0152,-.0782-2.9124,-1.6424-4.8153,-4.0252-5.8395,-7.2464-1.6234,-5.4897-2.2357,-11.2047-2.7686,-16.8893-.0311,-5.1712-.1159,-10.3556 .3022,-15.5145 .7383,-5.9102 2.2958,-11.5511 5.4746,-16.6653 .6374,-1.0595 1.2164,-2.1564 1.9122,-3.1784 1.4293,-2.0993 3.5633,-4.5022 5.1926,-6.3909 3.5997,-4.173 7.2819,-8.2723 11.0846,-12.2621 7.0925,-7.1546 14.5679,-13.9155 22.3195,-20.352 2.1958,-2.0389 4.4682,-4.0268 6.363,-6.357 .3146,.1659-.6981,.139-1.0503,.1882-1.7578,.2457-3.4497,.7917-5.1425,1.3052-5.9412,1.9611-11.8224,4.1368-17.4628,6.8581 19.4412,-11.4974 7.7521,-4.9691 3.9527,-2.0455-2.3144,1.7808-4.2945,3.9798-6.3247,6.0613-7.3621,7.7662-7.7847,8.5886-20.2399,15.0176-2.0411,.9643-3.1823,.8498-4.779,-.8279-1.26,-1.6657-2.2693,-3.5234-3.8255,-4.9564-4.2421,-4.7917-8.972,-9.1394-13.4655,-13.6887-7.8003,-7.9395-15.7203,-15.7854-22.6621,-24.5085-.7459,-.8383-1.4925,-1.676-2.2377,-2.515-.414,-.4662-1.7128,-.9944-1.2397,-1.4005 11.2457,-9.654 10.609,-12.1815 13.514,-5.8078 2.1923,4.9946 4.5033,9.9394 6.4982,15.0188 4.1744,10.7594 8.0235,21.6562 11.1756,32.7627 2.5328,10.5786 5.0383,21.3246 4.3095,32.2869-.2875,7.5431-.73,15.2244-2.7778,22.5205-.6732,1.8665-.9058,2.8192-1.9806,4.5269-4.7227,7.5035-14.9088,11.0471-21.6041,15.3066-8.5205,4.1876-17.5853,7.1486-27.1755,7.1917-1.3332,-.1069-2.6764,-.126-3.9996,-.3207-3.9409,-.5799-7.6146,-2.3017-10.3419,-5.2234l12.7269,-7.6412z" stroke="#000" stroke-linecap="round" stroke-linejoin="round" stroke-width="2"/>
<path d="m285.1504,-83.2549c-5.88,1.6467-18.6251,9.5149 3.6228,-3.2161-3.0858,1.6423-4.9176,4.3146-6.3615,7.3973-.8239,2.47-1.7035,5.1777-1.5244,7.8292 .1239,1.8346 .601,2.756 1.225,4.4695 2.4426,4.8256 6.1987,8.7942 10.6559,11.8004 3.2897,2.2908 7.0292,3.3333 10.9988,3.3815 3.0629,-.6961 5.9092,-1.889 8.7139,-3.2794 1.1955,-.5927 4.6992,-2.5278 3.5526,-1.8452-13.2158,7.8669-9.9055,5.7434-5.2291,2.5405 3.8506,-2.9659 8.0361,-6.4071 9.0279,-11.451 .1385,-.7045 .1286,-1.4302 .1929,-2.1454-.2546,-6.3086-4.2409,-11.2474-8.0871,-15.9117-2.4245,-2.6982-5.17,-5.2714-8.4848,-6.8472-1.6823,-.7998-2.5447,-.9419-4.3262,-1.415-3.594,-.1953-7.3605,.1463-10.7726,1.3847-1.5775,.5726-3.9684,1.9034-5.4345,2.6786 19.9864,-11.9906 6.8908,-4.0746 2.7687,-.4895l-13.6034,5.5649c6.3305,-6.0894 14.7834,-9.6771 22.1418,-14.1306 2.1358,-1.0385 3.3967,-1.7563 5.6792,-2.4493 3.6325,-1.1029 7.5433,-1.3605 11.2846,-.8091 1.9239,.6139 2.7037,.7688 4.5106,1.7317 3.3646,1.793 6.1391,4.5163 8.621,7.3603 4.0463,4.9816 8.1538,10.1443 8.7701,16.7754-.0296,.8046 .0196,1.6161-.0889,2.4139-.7383,5.4273-4.7753,9.2853-8.8804,12.4917-7.9626,5.7154-3.8825,2.9492-19.2743,11.6675-4.0105,2.2717-8.3975,4.1951-13.0037,4.7328-4.1494,-.367-8.0102,-1.5898-11.3905,-4.108-4.5717,-3.3347-8.416,-7.5445-11.0934,-12.5605-.6247,-1.6344-1.3341,-3.1907-1.5477,-4.9537-.3345,-2.7611 .5846,-5.6627 1.2497,-8.2942 1.2789,-3.2492 2.902,-6.3291 5.9576,-8.2367 7.1822,-4.1341 13.903,-8.8778 21.9148,-11.0889l-11.7853,9.0117z" stroke="#000" stroke-linecap="round" stroke-linejoin="round" stroke-width="2"/>
<path d="m347.1504,-77.2549c-2.5469,.8146-5.1929,1.5133-7.6141,2.6735-.8131,.3896-1.5764,.8756-2.3647,1.3134 3.3457,-1.8736 6.6913,-3.7471 10.037,-5.6207-3.9716,2.6801-6.9185,5.3584-8.6955,9.85-1.1627,3.6999-.6052,6.8285 2.3247,9.5655 .7074,.6608 1.5389,1.1748 2.3083,1.7622 5.6004,3.2171 12.2296,4.3691 18.6442,3.6885 1.8388,-.1951 3.6423,-.6405 5.4634,-.9607 4.2145,-1.088 6.0512,-1.3908 10.0093,-3.0522 1.313,-.5511 5.0497,-2.628 3.8271,-1.898-17.7993,10.6288-9.7426,5.998-6.9473,3.1684 .6199,-.6275 1.1121,-1.3693 1.6682,-2.054 2.4376,-3.8135 2.5,-7.2055 .7831,-11.2688-.3152,-.7137-2.1315,-4.4568-3.4123,-3.6467-.2218,.1403-.3342,.4046-.5012,.6069 20.2171,-11.5287 12.5199,-9.601 10.5591,-3.9824-.8462,2.4247-.9939,4.7822-1.1102,7.3284 1.4046,11.8202 6.6264,22.7649 10.9162,33.7471 5.2161,14.5087 10.244,29.5646 10.8227,45.1266 .1152,3.097-.1863,6.1956-.2795,9.2933-.4626,2.9786-.7219,5.996-1.3878,8.9358-2.1724,9.5898-7.1162,18.3681-14.4574,24.947-1.2941,1.1597-2.7591,2.1134-4.1386,3.1701-5.5203,2.8839-10.7715,6.3551-16.5608,8.6516-2.3998,.952-8.1925,-1.0338-10.0914,-1.8803-7.058,-3.1465-13.1537,-8.3145-19.1496,-13.0475-10.1152,-8.659-20.0186,-17.691-29.0677,-27.4783-4.688,-5.0705-5.8469,-6.777-9.919,-12.0224-3.4654,-5.7822-7.5504,-12.4859-4.1433,-19.3016 2.0163,-4.0335 4.4499,-5.497 7.8272,-8.4338 10.1215,-6.5586 10.9501,-7.3056 25.6037,-14.7259 3.5764,-1.811 15.1096,-5.9066 18.6391,-7.138 7.0388,-2.4558 14.6082,-4.8887 21.6862,-7.2014 18.594,-5.3634 36.8056,-11.8962 54.8051,-18.9783 1.5279,-.6495 3.0578,-1.2942 4.5836,-1.9485 1.1657,-.4999 2.34,-.9808 3.4908,-1.514 2.3523,-1.0899 4.5499,-2.4389 6.9767,-3.363 3.291,-.4693 4.4452,3.4926 5.4304,5.8995 2.2687,6.1277 3.5471,12.5534 4.0987,19.0495 .1362,2.9104 .2306,5.8345-.1816,8.7279-.0421,.2958 .1108,.7559-.16,.882-4.4089,2.0533-9.0127,3.659-13.519,5.4886 .0118,-.8952-.0374,-1.7934 .0355,-2.6857 .1061,-1.2986 .3295,-2.5849 .5008,-3.8765 .9997,-7.538 2.3091,-14.9758 3.843,-22.4228 1.555,-6.4961 2.8976,-13.2994 6.61,-18.9697 4.2039,-4.4015 13.5536,-13.0794 18.1064,-8.0287 .4767,.5289 .8107,1.1708 1.2161,1.7562 .891,1.5753 1.6607,2.7718 2.2437,4.5173 1.6389,4.9078 2.3745,10.6605 3.2422,15.7652 1.1326,4.4176 .7008,9.7081 2.0412,14.0399 1.7726,-4.7616-.0179,.2205-12.7493,6.291-.2582,.1231 .3891,-.4251 .5337,-.672 .3315,-.566 .9805,-2.2274 1.2333,-2.7376 .3448,-.6961 .7385,-1.3669 1.1077,-2.0504 2.3945,-3.8376 4.4213,-7.8928 7.0597,-11.5731 4.4112,-5.5273 8.5378,-6.7337 16.174,-10.93 .2619,-.1439 .6145,-.0601 .8956,.0415 .3579,.1294 .6361,.4181 .9542,.6271 2.9864,3.1411 4.0262,7.5857 5.0346,11.6761 .8762,4.4536 1.3452,8.9967 2.9742,13.2566 .3967,.5584 .7207,1.1763 1.19,1.6753 3.4181,3.6336 9.0718,6.3498 13.7339,7.8272 1.7542,.5559 3.5616,.9276 5.3424,1.3914 7.54,1.8812 15.1058,1.9747 22.6056,-.087 1.66,-.4563 3.3273,-.9326 4.8996,-1.6338 1.4645,-.6531 2.7763,-1.6056 4.1644,-2.4083-2.8879,1.4901-5.5634,3.4967-8.6637,4.4704-1.1955,.3755 1.8602,-1.6841 2.7137,-2.6016 2.5159,-2.7049 3.9544,-5.7126 4.9671,-9.2111 .6946,-2.9134 .6823,-5.9069 .6019,-8.8795-.8123,-6.1361-6.2332,-.0969 12.5348,-7.7189 .3417,-.1388-.2006,.7117-.258,1.076-.0835,.53-.1093,1.0675-.1639,1.6012-.2665,4.8348-.377,9.6802 .1605,14.4971 .5467,3.099 1.1396,6.2653 3.5686,8.4405 1.7091,1.1249 3.5227,1.2014 5.4105,.5838 4.5429,-2.2925 11.3618,-6.2694-9.2958,5.3928-.733,.4138 1.4175,-.9086 2.114,-1.3812l13.7499,-5.4669c-1.0645,.874-.871,.7838-2.0934,1.4985-4.6452,2.7158-10.3975,7.2521-16.2755,8.9062-2.2943,.246-4.4334,-.2532-6.2278,-1.7781-2.497,-2.6033-3.3119,-5.923-3.8685,-9.4237-.5906,-4.8727-.472,-9.7673-.4084,-14.6687 .0197,-.6544 .077,-2.9288 .1232,-2.9595 9.727,-6.4603 12.8718,-12.5754 14.1061,-5.3537 .0695,3.1243 .0729,6.2667-.5797,9.341-3.2014,12.7554-11.6553,15.6615-23.2766,22.5416-1.4289,.7205-2.7977,1.5752-4.2867,2.1615-8.9506,3.524-18.7036,3.2412-27.9102,1.0341-1.8391,-.4877-3.7066,-.8788-5.5173,-1.4632-4.6315,-1.4947-11.1446,-4.692-14.5603,-8.2853-.5627,-.5919-.968,-1.3157-1.452,-1.9736-1.6237,-4.344-2.0916,-8.9473-2.927,-13.4875-.8421,-3.5179-1.6783,-7.8688-4.5851,-10.3108-.6859,.086-.3319,-.0175-1.041,.3749 3.9288,-2.3321 7.8577,-4.6642 11.7865,-6.9963 .3323,-.191-.6084,.4685-.8871,.7315-.6996,.66-1.2666,1.4531-2.0221,2.0581-2.82,3.545-4.8538,7.566-7.2091,11.4215-.8854,1.5155-1.617,2.9578-2.1805,4.6201-.1148,.3386 .0125,.8473-.2939,1.0316-13.2948,7.9967-10.3461,11.2314-14.0569,6.5713-1.1159,-4.7041-.5439,-9.6982-1.6308,-14.4245-1.0635,-6.6156-1.8817,-13.7016-5.4778,-19.4897-.6253,-.7518-.8938,-1.4407-1.8874,-1.6242-.2691,-.0497-1.0491,.2242-.8171,.0792 3.855,-2.4085 7.8581,-4.5721 11.7547,-6.9127 .3501,-.2103-.7641,.3015-1.11,.5187-.4078,.256-.7577,.5945-1.1366,.8918-4.3835,5.2272-5.7056,12.2845-7.478,18.6873-1.9969,9.2321-3.7113,18.5943-3.9931,28.0561-4.3051,2.6386-8.5232,5.4248-12.9154,7.9158-.2419,.1372 .2404,-.5043 .318,-.7714 .8042,-2.7667 .5753,-5.6949 .5747,-8.5333-.3712,-6.3501-1.5585,-12.6651-3.9842,-18.571-.4628,-1.0682-1.3134,-4.1649-2.9322,-4.2743-.3754,-.0254-1.0644,.2717-1.3633,.3791-4.7881,2.1318-9.4382,4.5785-14.4142,6.2825-17.8398,6.7098-35.8321,12.9983-54.1277,18.3644-10.6198,3.5133-21.3137,6.9086-31.715,11.0427-2.9939,1.19-5.7348,3.1473-8.8924,3.787-1.6217,.3285 5.5767,-3.5384 4.0891,-2.8139-2.1692,1.0565-4.0999,2.545-6.1498,3.8175-3.8287,3.0735-8.5236,6.2534-9.4308,11.5515-.893,5.2148 2.4282,10.0365 4.6745,14.3601 1.3891,1.8979 2.711,3.847 4.1673,5.6938 9.9457,12.6131 22.0475,23.4346 34.3683,33.6505 6.0444,4.5132 12.2092,9.5598 19.3554,12.2966 1.6491,.6316 3.3794,1.1098 5.1345,1.3053 1.4972,.1668 5.3244,-1.5002 4.5136,-.2306-1.6887,2.6441-5.176,3.5469-7.7641,5.3203 1.4485,-1.0111 2.9813,-1.911 4.3453,-3.0333 7.5773,-6.2343 12.8885,-14.8407 15.2526,-24.3515 .7183,-2.8896 .999,-5.8707 1.4986,-8.806 .1439,-3.0552 .5095,-6.108 .4316,-9.1656-.3934,-15.4369-5.6294,-30.3333-10.905,-44.6508-4.4755,-11.0691-9.9218,-21.9803-11.8707,-33.8586-.0655,-2.8117 .003,-4.952 .6842,-7.6722 .0381,-.1521 .7931,-2.8601 1.1292,-3.0916 4.3169,-2.973 8.9144,-5.5165 13.3715,-8.2747 .3389,.0271 .6889,-.0085 1.0169,.0812 2.1057,.5758 3.1151,3.1886 3.9952,4.8962 1.8742,4.4256 2.1315,8.3635-.2532,12.7108-.541,.7748-1.0086,1.6064-1.6229,2.3244-4.3907,5.131-13.1728,8.7324-17.6417,11.2191-4.2744,2.3784-9.1918,3.3952-13.8934,4.496-1.8823,.2823-3.7498,.6922-5.6468,.847-6.776,.553-13.6979,-.6632-19.4819,-4.3006-.8304,-.6627-1.7251,-1.252-2.4912,-1.9881-3.2394,-3.1123-4.2505,-6.5472-3.1788,-10.8443 1.6159,-5.1378 4.1492,-7.6245 8.4678,-10.7873 8.3338,-4.9235 15.8682,-10.3542 25.256,-12.659l-11.7853,9.0117z" stroke="#000" stroke-linecap="round" stroke-linejoin="round" stroke-width="2"/>
<path d="m549.2332,-122.1847c-1.7835,2.0929-3.2088,4.4879-3.887,7.1628-.4856,2.6751 1.1102,3.361 3.3038,4.3209 3.5488,1.2997 6.5822,1.157 10.2167,.5143 4.8602,-1.6662 12.579,-6.4142-9.0248,5.5037-.3034,.1673 .5755,-.3901 .8315,-.6236 .6095,-.5556 .6709,-.7857 1.0696,-1.4819 .7338,-1.6463 .6619,-3.1872-.2832,-4.7035-1.2573,-1.1913-3.1474,-1.0796-4.7697,-1.1586-1.6755,.1549-3.2712,.5705-4.6332,1.5753l11.5699,-9.3176c1.6475,-.6237 3.3328,-1.0178 5.1127,-.8762 2.1175,.2092 4.2007,.5097 5.5739,2.3193 1.1184,1.8815 1.5604,3.8267 .9141,5.9743-2.3437,7.0718-11.2457,9.9308-18.1332,11.6144-3.6699,.4613-7.2979,.2601-10.7482,-1.2144-2.4801,-1.2798-4.7037,-2.8813-4.3281,-5.9859 .4579,-2.8821 1.8638,-5.464 3.5526,-7.8184l13.6626,-5.8049z" stroke="#000" stroke-linecap="round" stroke-linejoin="round" stroke-width="2"/>
<path d="m359.6057,-86.1453c2.813,-1.3672 5.4973,-2.9836 8.3991,-4.1626 1.8182,-1.1808 3.8128,-1.7264 5.9399,-1.959 1.9567,-.1487 3.9211,-.1237 5.8819,-.1169 1.9461,-.207 3.5945,.325 5.304,1.1594 1.1966,.9591 2.1411,2.2333 3.05,3.4655 .7904,1.4357 1.2548,3.0464 1.7411,4.6107 .436,1.6028 1.0296,3.1343 1.3438,4.7721 .3026,1.9227 .3232,3.8738 .3468,5.8155 .009,1.0012 .007,2.0024 .007,3.0036l-13.2174,6.733c.001,-.9962 .003,-1.9924-10e-4,-2.9886-.0137,-1.8636-.0171,-3.7343-.2514,-5.5862-.2608,-1.5964-.8449,-3.0648-1.2698,-4.6141-.4125,-1.4071-.8576,-2.8405-1.4965,-4.1522-.7779,-1.02-1.5348,-2.1846-2.6529,-2.8453-1.5703,-.6821-3.2079,-.7262-4.905,-.653-1.9192,.0085-3.8508,-8.13e-4-5.7505,.3092-2.0091,.4249-3.8194,1.2893-5.6483,2.207-2.8459,1.3235-5.5987,2.8407-8.3572,4.3355l11.5367,-9.3337z" stroke="#000" stroke-linecap="round" stroke-linejoin="round" stroke-width="2"/>
</g>
<path d="M61.9759,645.6808H248.8542A15.9099,15.9099 0 0 1 264.7641,661.5907V661.5907A15.9099,15.9099 0 0 1 248.8542,677.5006H61.9759A15.9099,15.9099 0 0 1 46.066,661.5907V661.5907A15.9099,15.9099 0 0 1 61.9759,645.6808z" fill="#fff" stroke="#000" stroke-linecap="round" stroke-linejoin="round" stroke-width="4"/>
<path d="m101.5203,44.9288a36.8706,34.8503 0 1 1 -73.7411,0 36.8706,34.8503 0 1 1 73.7411,0z" stroke="#000" stroke-linecap="round" stroke-linejoin="round" stroke-width="7.491" transform="matrix(.7121,0,0,.7121,.77972,623.30369)"/>
<text font-family="Bitstream Vera Sans" font-size="40" x="22.429" y="669.3383">
   <tspan fill="#f9f9f9" x="22.429" y="669.3383">98</tspan>
  </text>
<text font-family="Bitstream Vera Sans" font-size="20" x="113.2189" y="669.4627">
   <tspan x="113.2189" y="669.4627">Présence</tspan>
  </text>
<path d="m446.8915,78.4154a61.5183,5.3033 0 1 1 -123.0366,0 61.5183,5.3033 0 1 1 123.0366,0z" stroke="#000" stroke-linecap="round" stroke-width="4.862" transform="matrix(-1,0,0,1,522.92745,847.2881)"/>
<path d="m83.7961,838.816 0,47.8884c0,20.007 16.1067,36.1137 36.1137,36.1137l35.434,0c20.007,0 36.1137,-16.1067 36.1137,-36.1137l0,-47.8884" fill="#fff" stroke="#000" stroke-linecap="round" stroke-linejoin="round" stroke-width="3.642"/>
<path d="M-177.8684,858.6275H-158.131A2.6786,2.6786 0 0 1 -155.4524,861.3061V867.5356A2.6786,2.6786 0 0 1 -158.131,870.2142H-177.8684A2.6786,2.6786 0 0 1 -180.547,867.5356V861.3061A2.6786,2.6786 0 0 1 -177.8684,858.6275z" stroke="#000" stroke-linecap="square" stroke-linejoin="round" stroke-width="3.7338" transform="scale(-1,1)"/>
<path d="M-133.3043,858.6275H-112.8915A2.3409,2.3409 0 0 1 -110.5506,860.9684V867.8733A2.3409,2.3409 0 0 1 -112.8915,870.2142H-133.3043A2.3409,2.3409 0 0 1 -135.6452,867.8733V860.9684A2.3409,2.3409 0 0 1 -133.3043,858.6275z" stroke="#000" stroke-linecap="square" stroke-linejoin="round" stroke-width="3.7338" transform="scale(-1,1)"/>
<path d="m189.1494,863.6821c-.5492,.0105-1.0986,.007-1.6478,.004-.363,-.002-.7259,-.004-1.0889,-.004-.2925,-4.3e-4-.585,-4e-4-.8775,-4e-4-.304,-6.3e-4-.6081,6e-4-.9121,10e-4-.3906,-.01-.7752,-3.7e-4-1.162,.0507-.3996,.0545-.8031,.0717-1.2062,.0827-.4052,-.0158-.8029,.0589-1.204,.099-.4079,.0368-.818,.0407-1.2274,.045-.4301,.002-.8603,.002-1.2904,6.5e-4-.3736,-7.6e-4-.7472,-.001-1.1208,-.002-.307,-7.7e-4-.6141,-9.8e-4-.9211,-10e-4-.2915,-8e-5-.583,-7e-5-.8745,-6e-5-.2915,10e-6-.5831,10e-6-.8746,10e-6-.3187,-3.9e-4-.6374,5.3e-4-.9561,.002-.3943,.002-.7885,4.4e-4-1.1828,-6.3e-4-.3709,-2.7e-4-.7418,4.7e-4-1.1126,.001-.3967,-1.7e-4-.7934,-8e-5-1.1902,-.001-.38,1.9e-4-.7599,7.4e-4-1.1399,1.6e-4-.3456,-10e-4-.6912,-.002-1.0367,2.5e-4-.5332,.003-1.0664,.004-1.5996,.006-.7266,.003-1.4533,.003-2.1799,10e-4-.5332,-10e-4-1.0664,-.005-1.5997,-.005-.4413,6.5e-4-.8826,-2e-5-1.3239,-.002-.0611,-2e-4-.1222,-4e-4-.1833,-6e-4l1.746,1.1993c.0605,-2.1e-4 .121,-4.1e-4 .1815,-6.1e-4 .4399,-.002 .8797,-.002 1.3196,-.002 .528,-2.2e-4 1.0559,-.004 1.5839,-.005 .7276,-.002 1.4552,-.002 2.1828,9.9e-4 .5391,.002 1.0782,.003 1.6173,.006 .3458,.002 .6916,.002 1.0375,2.6e-4 .3801,-5.7e-4 .7602,-3e-5 1.1404,1.5e-4 .3957,-9.9e-4 .7914,-8.9e-4 1.187,-.001 .3723,.001 .7447,.002 1.117,.002 .3937,-10e-4 .7873,-.003 1.181,-6.3e-4 .3206,10e-4 .6411,.002 .9617,.002 .2915,0 .5831,0 .8747,0 .2914,0 .5829,2e-5 .8743,-6e-5 .306,-1.3e-4 .612,-3.5e-4 .918,-9.6e-4 .372,-6.9e-4 .744,-8.4e-4 1.1161,-8.8e-4 .4302,-8.3e-4 .8603,7e-4 1.2904,-.004 .4148,-.006 .8303,-.0145 1.2428,-.0595 .3968,-.0446 .792,-.0972 1.193,-.0869 .4078,-.0152 .8149,-.0435 1.2193,-.0968 .382,-.0404 .7654,-.0292 1.1493,-.0278 .3051,5.6e-4 .6103,.002 .9155,10e-4 .2921,10e-6 .5842,3e-5 .8763,-4e-4 .3589,-6.7e-4 .7177,-.002 1.0765,-.004 .5532,-.003 1.1065,-.006 1.6597,.004l-1.7494,-1.2016z" stroke="#000" stroke-linecap="square" stroke-linejoin="round" stroke-width=".4767"/>
<path d="m113.6445,864.0249c-1.4664,.0103-2.9331,.009-4.3996,.008-1.3442,-7.8e-4-2.6884,-.003-4.0326,-.005-.8982,-.002-1.7966,-.002-2.6948,-.003-.7078,-7.2e-4-1.4158,-.002-2.1236,-.002-.6184,.0189-1.2126,-.0503-1.8204,-.0837-.6096,-.0298-1.2242,-.0341-1.8376,-.0371-.6086,-.002-1.2173,-9.2e-4-1.826,-7.4e-4-.6079,3.6e-4-1.2158,4.7e-4-1.8236,5.4e-4-.6079,4e-5-1.2158,4e-5-1.8236,4e-5-.6079,0-1.2158,0-1.8237,0-.6527,-5.3e-4-1.3053,9.2e-4-1.9579,9.2e-4-.6609,-2.2e-4-1.3218,-6.1e-4-1.9827,-8.2e-4-.6121,-1.5e-4-1.2243,-1.7e-4-1.8364,-1.8e-4-.4048,-1e-5-.2024,-1e-5-.6072,-1e-5l3.6477,1.0533c.4048,0 .2024,0 .6072,0 .6117,-2e-5 1.2234,-4e-5 1.835,-2e-4 .6591,-2e-4 1.3181,-5.9e-4 1.9772,-8.1e-4 .6549,3e-5 1.3098,.002 1.9648,9.2e-4 .6079,0 1.2158,0 1.8237,0 .6079,0 1.2158,0 1.8237,-1.1e-4 .6079,-1.1e-4 1.2159,-3.2e-4 1.8238,-6.2e-4 .6068,-2e-4 1.2137,-9.2e-4 1.8205,.004 .6028,.006 1.2065,.0171 1.8026,.0556 .6168,.0396 1.2303,.0794 1.8585,.0618 .7036,-3.8e-4 1.4072,-9.2e-4 2.1108,-.002 .8922,-4.8e-4 1.7843,-5.5e-4 2.6765,-.003 1.3329,-.003 2.6658,-.004 3.9988,-.005 1.4862,-4.2e-4 11.2231,-.002 12.7091,.008l-11.89,-1.051 0,2.9e-4z" stroke="#000" stroke-linecap="square" stroke-linejoin="round" stroke-width=".6438"/>
<path d="m156.2901,864.1938c-1.0035,.0609-2.0159,.0801-3.0269,.0945-.9023,.0104-1.8049,.0105-2.7074,.009-.7451,-4.5e-4-1.4901,-5.6e-4-2.2352,-10e-4-1.4956,.0184-2.9921,.009-4.4881,.006-.9039,-.003-1.8078,-.005-2.7117,-.006-.7208,3e-5-1.4416,-3.8e-4-2.1625,5.4e-4-.7578,10e-4-1.5156,-8.5e-4-2.2734,-2.8e-4-.6838,-7.7e-4-1.3676,-6.8e-4-2.0513,-5.9e-4-.6848,5e-4-1.3697,2e-4-2.0545,-4.6e-4-.6542,.001-1.3083,1e-4-1.9625,-4.1e-4-.6401,.001-1.2801,4.1e-4-1.9202,-3e-5-.5654,-3.9e-4-1.1307,-5.1e-4-1.6961,-5.7e-4-.4728,.0527-.9485,.0906-1.4336,.109-.5261,.0155-1.0535,.0156-1.5805,.0162-.5482,1.7e-4-1.0964,-3.5e-4-1.6446,-6.1e-4-.2744,-1.3e-4-.5489,-1.8e-4-.8233,-2.3e-4l3.2906,1.0838c.2744,9e-5 .5487,1.7e-4 .8232,3.2e-4 .5488,2.8e-4 1.0977,9.5e-4 1.6465,-3.6e-4 .536,-.002 1.0731,-.004 1.6067,-.0298 .471,-.0265 .9321,-.0808 1.4055,-.0946 .5642,-7e-5 1.1284,-1.8e-4 1.6926,-5.7e-4 .64,-4.3e-4 1.2799,-10e-4 1.9199,-4e-5 .6534,-5e-4 1.3067,-10e-4 1.9601,-4e-4 .6839,-6.6e-4 1.3678,-9.7e-4 2.0517,-4.6e-4 .6826,10e-5 1.3651,1.7e-4 2.0478,-6e-4 .7572,5.8e-4 1.5144,-10e-4 2.2716,-2.8e-4 .7219,9.2e-4 1.4439,5.3e-4 2.1658,5.5e-4 .8911,-.002 1.7823,-.003 2.6734,-.006 1.5087,-.003 3.0179,-.0119 4.5264,.007 .7438,-3.9e-4 1.4876,4.1e-4 2.2314,-3.3e-4 .8993,-.003 1.7987,-.006 2.6975,-.0203 1.0293,-.0191 2.0575,-.0485 3.0824,-.0964l-3.3215,-1.0655z" stroke="#000" stroke-linecap="square" stroke-linejoin="round" stroke-width=".6203"/>
<path d="m176.4519,826.3087 0,18.5432" fill="none" stroke="#000" stroke-linecap="round" stroke-width="4.8046"/>
<path d="m166.9279,824.5543 0,18.5432" fill="none" stroke="#000" stroke-linecap="round" stroke-width="4.8046"/>
<path d="m157.9909,826.0186 0,18.5432" fill="none" stroke="#000" stroke-linecap="round" stroke-width="4.8046"/>
<path d="m146.3142,824.8514 0,18.5432" fill="none" stroke="#000" stroke-linecap="round" stroke-width="4.8046"/>
<path d="m136.1556,827.038 0,18.5432" fill="none" stroke="#000" stroke-linecap="round" stroke-width="4.8046"/>
<path d="m124.5263,826.8626 0,18.5432" fill="none" stroke="#000" stroke-linecap="round" stroke-width="4.8046"/>
<path d="m114.0238,825.1484 0,18.5432" fill="none" stroke="#000" stroke-linecap="round" stroke-width="4.8046"/>
<path d="m104.1084,828.1853 0,18.5432" fill="none" stroke="#000" stroke-linecap="round" stroke-width="4.8046"/>
<path d="m93.4354,827.8166 0,18.5432" fill="none" stroke="#000" stroke-linecap="round" stroke-width="4.8046"/>
<path d="m146.0682,902.8911-27.1229,-4.4282" fill="none" stroke="#000" stroke-width=".7749"/>
<path d="m184.3361,831.0389 0,18.5432" fill="none" stroke="#000" stroke-linecap="round" stroke-width="4.8046"/>
<g transform="matrix(1.20124,0,0,1,-615.78637,1226.6046)">
<path d="M1013.7151,-530.8745H1138.6816A13.0878,13.0878 0 0 1 1151.7694,-517.7867V-495.7367A13.0878,13.0878 0 0 1 1138.6816,-482.649H1013.7151A13.0878,13.0878 0 0 1 1000.6273,-495.7367V-517.7867A13.0878,13.0878 0 0 1 1013.7151,-530.8745z" stroke="#000" stroke-linecap="round" stroke-linejoin="round" stroke-width="1.9703" transform="matrix(1,0,.84988,.52697,0,0)"/>
<path d="M602.1455,-296.3292H607.6698A4.1432,4.1432 0 0 1 611.813,-292.186V-261.8025A4.1432,4.1432 0 0 1 607.6698,-257.6593H602.1455A4.1432,4.1432 0 0 1 598.0023,-261.8025V-292.186A4.1432,4.1432 0 0 1 602.1455,-296.3292z" fill="#fff" stroke="#000" stroke-linecap="round" stroke-linejoin="round" stroke-width="3.642"/>
<path d="M707.3829,-296.3292H712.9072A4.1432,4.1432 0 0 1 717.0504,-292.186V-261.8025A4.1432,4.1432 0 0 1 712.9072,-257.6593H707.3829A4.1432,4.1432 0 0 1 703.2397,-261.8025V-292.186A4.1432,4.1432 0 0 1 707.3829,-296.3292z" fill="#fff" stroke="#000" stroke-linecap="round" stroke-linejoin="round" stroke-width="3.642"/>
<path d="M684.1809,-308.4826H689.7052A4.1432,4.1432 0 0 1 693.8484,-304.3394V-273.9559A4.1432,4.1432 0 0 1 689.7052,-269.8127H684.1809A4.1432,4.1432 0 0 1 680.0377,-273.9559V-304.3394A4.1432,4.1432 0 0 1 684.1809,-308.4826z" fill="#fff" stroke="#000" stroke-linecap="round" stroke-linejoin="round" stroke-width="3.642"/>
<path d="M576.4576,-311.7971H581.9819A4.1432,4.1432 0 0 1 586.1251,-307.6539V-277.2705A4.1432,4.1432 0 0 1 581.9819,-273.1272H576.4576A4.1432,4.1432 0 0 1 572.3144,-277.2705V-307.6539A4.1432,4.1432 0 0 1 576.4576,-311.7971z" fill="#fff" stroke="#000" stroke-linecap="round" stroke-linejoin="round" stroke-width="3.642"/>
<path d="M1076.8467,-603.2072H1201.8132A13.0878,13.0878 0 0 1 1214.901,-590.1194V-568.0694A13.0878,13.0878 0 0 1 1201.8132,-554.9817H1076.8467A13.0878,13.0878 0 0 1 1063.7589,-568.0694V-590.1194A13.0878,13.0878 0 0 1 1076.8467,-603.2072z" fill="#fff" stroke="#000" stroke-linecap="round" stroke-linejoin="round" stroke-width="1.9703" transform="matrix(1,0,.84988,.52697,0,0)"/>
<path d="M1082.5307,-610.5453H1207.4972A13.0878,13.0878 0 0 1 1220.585,-597.4575V-575.4075A13.0878,13.0878 0 0 1 1207.4972,-562.3197H1082.5307A13.0878,13.0878 0 0 1 1069.4429,-575.4075V-597.4575A13.0878,13.0878 0 0 1 1082.5307,-610.5453z" fill="#fff" stroke="#000" stroke-linecap="round" stroke-linejoin="round" stroke-width="1.9703" transform="matrix(1,0,.84988,.52697,0,0)"/>
</g>
<text font-family="Bitstream Vera Sans" font-size="20" x="158.5085" y="716.4862">
   <tspan text-align="center" text-anchor="middle" x="158.5085" y="716.4862">Vous n'avez pas validé</tspan>
   <tspan text-align="center" text-anchor="middle" x="158.5085" y="741.4862">vos maths cette année,</tspan>
   <tspan text-align="center" text-anchor="middle" x="158.5085" y="766.4862">mais nous vous donnons</tspan>
   <tspan text-align="center" text-anchor="middle" x="158.5085" y="791.4862">une chance !</tspan>
  </text>
<path d="m98.9286,314.6429 30.8298,0 0,26.4286-30.8298,0 0,-26.4286z" fill="#fff" stroke="#000" stroke-width="2" transform="matrix(.74332,0,-1.02719,-.68593,362.97866,1142.28289)"/>
<path d="m107.6406,341.1161 5.9375,-5.0489c-15.1563,-8.6637-12.7102,-17.6249-1.8031,-16.1785 10.8165,1.4343 18.0496,15.1096 8.4298,17.3463l5.381,3.7472" stroke="#000" transform="matrix(.74332,0,-1.02719,-.68593,362.97866,1142.28289)"/>
<path d="m98.9286,314.6429 30.8298,0 0,26.4286-30.8298,0 0,-26.4286z" fill="#fff" stroke="#000" stroke-width="2" transform="matrix(.74332,0,-1.02719,-.68593,399.4327,1142.28289)"/>
<path d="m107.6406,341.1161 5.9375,-5.0489c-15.1563,-8.6637-12.7102,-17.6249-1.8031,-16.1785 10.8165,1.4343 18.0496,15.1096 8.4298,17.3463l5.381,3.7472" stroke="#000" transform="matrix(.74332,0,-1.02719,-.68593,399.4327,1142.28289)"/>
<path d="m98.9286,314.6429 30.8298,0 0,26.4286-30.8298,0 0,-26.4286z" fill="#fff" stroke="#000" stroke-width="2" transform="matrix(.74332,0,-1.02719,-.68593,434.5355,1142.28289)"/>
<path d="m107.6406,341.1161 5.9375,-5.0489c-15.1563,-8.6637-12.7102,-17.6249-1.8031,-16.1785 10.8165,1.4343 18.0496,15.1096 8.4298,17.3463l5.381,3.7472" stroke="#000" transform="matrix(.74332,0,-1.02719,-.68593,434.5355,1142.28289)"/>
<path d="m98.9286,314.6429 30.8298,0 0,26.4286-30.8298,0 0,-26.4286z" fill="#fff" stroke="#000" stroke-width="2" transform="matrix(.74332,0,-1.02719,-.68593,468.62815,1142.28289)"/>
<path d="m107.6406,341.1161 5.9375,-5.0489c-15.1563,-8.6637-12.7102,-17.6249-1.8031,-16.1785 10.8165,1.4343 18.0496,15.1096 8.4298,17.3463l5.381,3.7472" stroke="#000" transform="matrix(.74332,0,-1.02719,-.68593,468.62815,1142.28289)"/>
<path d="m233.8503,800.2994 42.9315,20.7081" fill="none" stroke="#000"/>
<path d="m446.8915,78.4154a61.5183,5.3033 0 1 1 -123.0366,0 61.5183,5.3033 0 1 1 123.0366,0z" stroke="#000" stroke-linecap="round" stroke-width="4.862" transform="matrix(-1,0,0,1,815.04074,847.41189)"/>
<path d="m375.9094,838.9398 0,47.8884c0,20.007 16.1067,36.1137 36.1137,36.1137l35.434,0c20.007,0 36.1137,-16.1067 36.1137,-36.1137l0,-47.8884" fill="#fff" stroke="#000" stroke-linecap="round" stroke-linejoin="round" stroke-width="3.642"/>
<path d="M-467.8389,858.7513H-448.1014A2.6786,2.6786 0 0 1 -445.4229,861.4299V867.6594A2.6786,2.6786 0 0 1 -448.1014,870.3379H-467.8389A2.6786,2.6786 0 0 1 -470.5175,867.6594V861.4299A2.6786,2.6786 0 0 1 -467.8389,858.7513z" stroke="#000" stroke-linecap="square" stroke-linejoin="round" stroke-width="3.7338" transform="scale(-1,1)"/>
<path d="M-425.7747,858.7513H-405.3619A2.3409,2.3409 0 0 1 -403.021,861.0921V867.9971A2.3409,2.3409 0 0 1 -405.3619,870.3379H-425.7747A2.3409,2.3409 0 0 1 -428.1156,867.9971V861.0921A2.3409,2.3409 0 0 1 -425.7747,858.7513z" stroke="#000" stroke-linecap="square" stroke-linejoin="round" stroke-width="3.7338" transform="scale(-1,1)"/>
<path d="m481.2627,863.8059c-.5492,.0105-1.0986,.007-1.6478,.004-.363,-.002-.7259,-.004-1.0889,-.004-.2925,-4.3e-4-.585,-4e-4-.8775,-4e-4-.304,-6.3e-4-.6081,6e-4-.9121,10e-4-.3906,-.01-.7752,-3.7e-4-1.162,.0507-.3996,.0545-.8031,.0717-1.2062,.0827-.4052,-.0158-.8029,.0589-1.204,.099-.4079,.0368-.818,.0407-1.2274,.045-.4301,.002-.8603,.002-1.2904,6.5e-4-.3736,-7.6e-4-.7472,-10e-4-1.1208,-.002-.307,-7.7e-4-.6141,-9.8e-4-.9211,-10e-4-.2915,-8e-5-.583,-7e-5-.8745,-6e-5-.2915,10e-6-.5831,10e-6-.8746,10e-6-.3187,-3.9e-4-.6374,5.3e-4-.9561,.002-.3943,.002-.7885,4.4e-4-1.1828,-6.3e-4-.3709,-2.7e-4-.7418,4.7e-4-1.1126,.001-.3967,-1.7e-4-.7934,-8e-5-1.1902,-.001-.38,1.9e-4-.7599,7.4e-4-1.1399,1.6e-4-.3456,-10e-4-.6912,-.002-1.0367,2.5e-4-.5332,.003-1.0664,.004-1.5996,.006-.7266,.003-1.4533,.003-2.1799,10e-4-.5332,-10e-4-1.0664,-.005-1.5997,-.005-.4413,6.5e-4-.8826,-2e-5-1.3239,-.002-.0611,-2e-4-.1222,-4e-4-.1833,-6e-4l1.746,1.1993c.0605,-2.1e-4 .121,-4.1e-4 .1815,-6.1e-4 .4399,-.002 .8797,-.002 1.3196,-.002 .528,-2.2e-4 1.0559,-.004 1.5839,-.005 .7276,-.002 1.4552,-.002 2.1828,9.9e-4 .5391,.002 1.0782,.003 1.6173,.006 .3458,.002 .6916,.002 1.0375,2.6e-4 .3801,-5.7e-4 .7602,-3e-5 1.1404,1.5e-4 .3957,-9.9e-4 .7914,-8.9e-4 1.187,-.001 .3723,.001 .7447,.002 1.117,.002 .3937,-10e-4 .7873,-.003 1.181,-6.3e-4 .3206,10e-4 .6411,.002 .9617,.002 .2915,0 .5831,0 .8747,0 .2914,0 .5829,2e-5 .8743,-6e-5 .306,-1.3e-4 .612,-3.5e-4 .918,-9.6e-4 .372,-6.9e-4 .744,-8.4e-4 1.1161,-8.8e-4 .4302,-8.3e-4 .8603,7e-4 1.2904,-.004 .4148,-.006 .8303,-.0145 1.2428,-.0595 .3968,-.0446 .792,-.0972 1.193,-.0869 .4078,-.0152 .8149,-.0435 1.2193,-.0968 .382,-.0404 .7654,-.0292 1.1493,-.0278 .3051,5.6e-4 .6103,.002 .9155,10e-4 .2921,10e-6 .5842,3e-5 .8763,-4e-4 .3589,-6.7e-4 .7177,-.002 1.0765,-.004 .5532,-.003 1.1065,-.006 1.6597,.004l-1.7494,-1.2016z" stroke="#000" stroke-linecap="square" stroke-linejoin="round" stroke-width=".4767"/>
<path d="m400.3675,864.1299c-1.2091,.0107-2.4185,.01-3.6278,.009-1.1084,-8.1e-4-2.2168,-.003-3.3251,-.005-.7407,-.002-1.4814,-.002-2.222,-.003-.5837,-7.5e-4-1.1674,-.002-1.7511,-.002-.5099,.0197-.9999,-.0523-1.501,-.0871-.5026,-.031-1.0095,-.0355-1.5152,-.0386-.5019,-.002-1.0037,-9.6e-4-1.5056,-7.7e-4-.5012,3.8e-4-1.0025,4.9e-4-1.5037,5.7e-4-.5012,4e-5-1.0025,4e-5-1.5037,4e-5-.5012,0-1.0025,0-1.5037,0-.5382,-5.6e-4-1.0763,9.5e-4-1.6144,9.5e-4-.545,-2.3e-4-1.0899,-6.3e-4-1.6349,-8.5e-4-.5047,-1.6e-4-1.0095,-1.8e-4-1.5142,-1.9e-4-.3338,-10e-6-.1669,-10e-6-.5007,-10e-6l3.0077,1.0958c.3338,0 .1669,0 .5007,0 .5043,-2e-5 1.0087,-4e-5 1.5131,-2e-4 .5434,-2.1e-4 1.0869,-6.2e-4 1.6303,-8.5e-4 .54,3e-5 1.08,.002 1.6201,9.5e-4 .5012,10e-6 1.0025,10e-6 1.5038,10e-6 .5013,-10e-6 1.0025,-10e-6 1.5038,-1.1e-4 .5013,-1.2e-4 1.0026,-3.4e-4 1.5039,-6.5e-4 .5004,-2.1e-4 1.0008,-9.6e-4 1.5011,.004 .497,.007 .9948,.0178 1.4864,.0579 .5086,.0412 1.0144,.0826 1.5324,.0643 .5802,-3.9e-4 1.1603,-9.6e-4 1.7405,-.002 .7357,-5e-4 1.4713,-5.8e-4 2.207,-.003 1.0991,-.003 2.1981,-.004 3.2972,-.005 1.2255,-4.4e-4 9.2541,-.002 10.4794,.009l-9.8041,-1.0934 0,3e-4z" stroke="#000" stroke-linecap="square" stroke-linejoin="round" stroke-width=".5963"/>
<path d="m448.4033,864.3176c-1.0035,.0609-2.0159,.0801-3.0269,.0945-.9023,.0104-1.8049,.0105-2.7074,.009-.745,-4.5e-4-1.4901,-5.6e-4-2.2352,-10e-4-1.4956,.0184-2.9921,.009-4.4881,.006-.9039,-.003-1.8078,-.005-2.7117,-.006-.7208,3e-5-1.4416,-3.8e-4-2.1625,5.4e-4-.7578,10e-4-1.5156,-8.5e-4-2.2734,-2.8e-4-.6838,-7.7e-4-1.3676,-6.8e-4-2.0513,-5.9e-4-.6848,5e-4-1.3697,2e-4-2.0545,-4.6e-4-.6542,10e-4-1.3083,10e-5-1.9625,-4.1e-4-.6401,.001-1.2801,4.1e-4-1.9202,-3e-5-.5654,-3.9e-4-1.1307,-5.1e-4-1.6961,-5.7e-4-.4729,.0527-.9485,.0906-1.4336,.109-.5261,.0155-1.0535,.0156-1.5805,.0162-.5482,1.7e-4-1.0964,-3.5e-4-1.6446,-6.1e-4-.2744,-1.3e-4-.5489,-1.8e-4-.8233,-2.3e-4l3.2906,1.0838c.2744,9e-5 .5487,1.7e-4 .8232,3.2e-4 .5488,2.8e-4 1.0977,9.5e-4 1.6465,-3.6e-4 .536,-.002 1.0731,-.004 1.6067,-.0298 .471,-.0265 .9321,-.0808 1.4055,-.0946 .5642,-7e-5 1.1284,-1.8e-4 1.6926,-5.7e-4 .64,-4.3e-4 1.2799,-10e-4 1.9199,-4e-5 .6534,-5e-4 1.3067,-10e-4 1.9601,-4e-4 .6839,-6.6e-4 1.3678,-9.7e-4 2.0517,-4.6e-4 .6826,10e-5 1.3651,1.7e-4 2.0478,-6e-4 .7572,5.8e-4 1.5144,-.001 2.2716,-2.8e-4 .7219,9.2e-4 1.4439,5.3e-4 2.1658,5.5e-4 .8911,-.002 1.7823,-.003 2.6734,-.006 1.5087,-.003 3.0179,-.0119 4.5264,.007 .7438,-3.9e-4 1.4876,4.1e-4 2.2314,-3.3e-4 .8993,-.003 1.7987,-.006 2.6975,-.0203 1.0293,-.0191 2.0575,-.0485 3.0824,-.0964l-3.3215,-1.0655z" stroke="#000" stroke-linecap="square" stroke-linejoin="round" stroke-width=".6203"/>
<path d="m468.5652,826.4325 0,18.5432" fill="none" stroke="#000" stroke-linecap="round" stroke-width="4.8046"/>
<path d="m459.0412,824.6781 0,18.5432" fill="none" stroke="#000" stroke-linecap="round" stroke-width="4.8046"/>
<path d="m450.1042,826.1424 0,18.5432" fill="none" stroke="#000" stroke-linecap="round" stroke-width="4.8046"/>
<path d="m438.4275,824.9752 0,18.5432" fill="none" stroke="#000" stroke-linecap="round" stroke-width="4.8046"/>
<path d="m428.2689,827.1618 0,18.5432" fill="none" stroke="#000" stroke-linecap="round" stroke-width="4.8046"/>
<path d="m416.6396,826.9864 0,18.5432" fill="none" stroke="#000" stroke-linecap="round" stroke-width="4.8046"/>
<path d="m406.1371,825.2722 0,18.5432" fill="none" stroke="#000" stroke-linecap="round" stroke-width="4.8046"/>
<path d="m396.2216,828.3091 0,18.5432" fill="none" stroke="#000" stroke-linecap="round" stroke-width="4.8046"/>
<path d="m385.5487,827.9404 0,18.5432" fill="none" stroke="#000" stroke-linecap="round" stroke-width="4.8046"/>
<path d="M438.1814,903.0149 411.0585,898.5867" fill="none" stroke="#000" stroke-width=".7749"/>
<path d="m476.4494,831.1627 0,18.5432" fill="none" stroke="#000" stroke-linecap="round" stroke-width="4.8046"/>
<g transform="matrix(1.20124,0,0,1,-323.67308,1226.7284)">
<path d="M1013.7151,-530.8745H1138.6816A13.0878,13.0878 0 0 1 1151.7694,-517.7867V-495.7367A13.0878,13.0878 0 0 1 1138.6816,-482.649H1013.7151A13.0878,13.0878 0 0 1 1000.6273,-495.7367V-517.7867A13.0878,13.0878 0 0 1 1013.7151,-530.8745z" stroke="#000" stroke-linecap="round" stroke-linejoin="round" stroke-width="1.9703" transform="matrix(1,0,.84988,.52697,0,0)"/>
<path d="M602.1455,-296.3292H607.6698A4.1432,4.1432 0 0 1 611.813,-292.186V-261.8025A4.1432,4.1432 0 0 1 607.6698,-257.6593H602.1455A4.1432,4.1432 0 0 1 598.0023,-261.8025V-292.186A4.1432,4.1432 0 0 1 602.1455,-296.3292z" fill="#fff" stroke="#000" stroke-linecap="round" stroke-linejoin="round" stroke-width="3.642"/>
<path d="M707.3829,-296.3292H712.9072A4.1432,4.1432 0 0 1 717.0504,-292.186V-261.8025A4.1432,4.1432 0 0 1 712.9072,-257.6593H707.3829A4.1432,4.1432 0 0 1 703.2397,-261.8025V-292.186A4.1432,4.1432 0 0 1 707.3829,-296.3292z" fill="#fff" stroke="#000" stroke-linecap="round" stroke-linejoin="round" stroke-width="3.642"/>
<path d="M684.1809,-308.4826H689.7052A4.1432,4.1432 0 0 1 693.8484,-304.3394V-273.9559A4.1432,4.1432 0 0 1 689.7052,-269.8127H684.1809A4.1432,4.1432 0 0 1 680.0377,-273.9559V-304.3394A4.1432,4.1432 0 0 1 684.1809,-308.4826z" fill="#fff" stroke="#000" stroke-linecap="round" stroke-linejoin="round" stroke-width="3.642"/>
<path d="M576.4576,-311.7971H581.9819A4.1432,4.1432 0 0 1 586.1251,-307.6539V-277.2705A4.1432,4.1432 0 0 1 581.9819,-273.1272H576.4576A4.1432,4.1432 0 0 1 572.3144,-277.2705V-307.6539A4.1432,4.1432 0 0 1 576.4576,-311.7971z" fill="#fff" stroke="#000" stroke-linecap="round" stroke-linejoin="round" stroke-width="3.642"/>
<path d="M1076.8467,-603.2072H1201.8132A13.0878,13.0878 0 0 1 1214.901,-590.1194V-568.0694A13.0878,13.0878 0 0 1 1201.8132,-554.9817H1076.8467A13.0878,13.0878 0 0 1 1063.7589,-568.0694V-590.1194A13.0878,13.0878 0 0 1 1076.8467,-603.2072z" fill="#fff" stroke="#000" stroke-linecap="round" stroke-linejoin="round" stroke-width="1.9703" transform="matrix(1,0,.84988,.52697,0,0)"/>
<path d="M1082.5307,-610.5453H1207.4972A13.0878,13.0878 0 0 1 1220.585,-597.4575V-575.4075A13.0878,13.0878 0 0 1 1207.4972,-562.3197H1082.5307A13.0878,13.0878 0 0 1 1069.4429,-575.4075V-597.4575A13.0878,13.0878 0 0 1 1082.5307,-610.5453z" fill="#fff" stroke="#000" stroke-linecap="round" stroke-linejoin="round" stroke-width="1.9703" transform="matrix(1,0,.84988,.52697,0,0)"/>
</g>
<path d="m98.9286,314.6429 30.8298,0 0,26.4286-30.8298,0 0,-26.4286z" fill="#fff" stroke="#000" stroke-width="2" transform="matrix(.74332,0,-1.02719,-.68593,655.09195,1142.40669)"/>
<path d="m107.6406,341.1161 5.9375,-5.0489c-15.1563,-8.6637-12.7102,-17.6249-1.8031,-16.1785 10.8165,1.4343 18.0496,15.1096 8.4298,17.3463l5.381,3.7472" stroke="#000" transform="matrix(.74332,0,-1.02719,-.68593,655.09195,1142.40669)"/>
<path d="m98.9286,314.6429 30.8298,0 0,26.4286-30.8298,0 0,-26.4286z" fill="#fff" stroke="#000" stroke-width="2" transform="matrix(.74332,0,-1.02719,-.68593,691.54599,1142.40669)"/>
<path d="m107.6406,341.1161 5.9375,-5.0489c-15.1563,-8.6637-12.7102,-17.6249-1.8031,-16.1785 10.8165,1.4343 18.0496,15.1096 8.4298,17.3463l5.381,3.7472" stroke="#000" transform="matrix(.74332,0,-1.02719,-.68593,691.54599,1142.40669)"/>
<path d="m98.9286,314.6429 30.8298,0 0,26.4286-30.8298,0 0,-26.4286z" fill="#fff" stroke="#000" stroke-width="2" transform="matrix(.74332,0,-1.02719,-.68593,726.64879,1142.40669)"/>
<path d="m107.6406,341.1161 5.9375,-5.0489c-15.1563,-8.6637-12.7102,-17.6249-1.8031,-16.1785 10.8165,1.4343 18.0496,15.1096 8.4298,17.3463l5.381,3.7472" stroke="#000" transform="matrix(.74332,0,-1.02719,-.68593,726.64879,1142.40669)"/>
<path d="m98.9286,314.6429 30.8298,0 0,26.4286-30.8298,0 0,-26.4286z" fill="#fff" stroke="#000" stroke-width="2" transform="matrix(.74332,0,-1.02719,-.68593,760.74144,1142.40669)"/>
<path d="m107.6406,341.1161 5.9375,-5.0489c-15.1563,-8.6637-12.7102,-17.6249-1.8031,-16.1785 10.8165,1.4343 18.0496,15.1096 8.4298,17.3463l5.381,3.7472" stroke="#000" transform="matrix(.74332,0,-1.02719,-.68593,760.74144,1142.40669)"/>
<path d="m446.8915,78.4154a61.5183,5.3033 0 1 1 -123.0366,0 61.5183,5.3033 0 1 1 123.0366,0z" stroke="#000" stroke-linecap="round" stroke-width="4.862" transform="matrix(-1,0,0,1,1099.0372,846.99347)"/>
<path d="m659.9058,838.5214 0,47.8884c0,20.007 16.1067,36.1137 36.1137,36.1137l35.434,0c20.007,0 36.1137,-16.1067 36.1137,-36.1137l0,-47.8884" fill="#fff" stroke="#000" stroke-linecap="round" stroke-linejoin="round" stroke-width="3.642"/>
<path d="M-748.621,858.3328H-728.8835A2.6786,2.6786 0 0 1 -726.205,861.0114V867.2409A2.6786,2.6786 0 0 1 -728.8835,869.9195H-748.621A2.6786,2.6786 0 0 1 -751.2996,867.2409V861.0114A2.6786,2.6786 0 0 1 -748.621,858.3328z" stroke="#000" stroke-linecap="square" stroke-linejoin="round" stroke-width="3.7338" transform="scale(-1,1)"/>
<path d="M-705.1283,858.3328H-684.7154A2.3409,2.3409 0 0 1 -682.3745,860.6737V867.5786A2.3409,2.3409 0 0 1 -684.7154,869.9195H-705.1283A2.3409,2.3409 0 0 1 -707.4691,867.5786V860.6737A2.3409,2.3409 0 0 1 -705.1283,858.3328z" stroke="#000" stroke-linecap="square" stroke-linejoin="round" stroke-width="3.7338" transform="scale(-1,1)"/>
<path d="m765.2591,863.3874c-.5492,.0105-1.0986,.007-1.6478,.004-.363,-.002-.7259,-.004-1.0889,-.004-.2925,-4.3e-4-.585,-4e-4-.8775,-4e-4-.304,-6.3e-4-.6081,6e-4-.9121,.001-.3906,-.01-.7752,-3.7e-4-1.162,.0507-.3996,.0545-.8031,.0717-1.2062,.0827-.4052,-.0158-.8029,.0589-1.204,.099-.4079,.0368-.818,.0407-1.2274,.045-.4301,.002-.8603,.002-1.2904,6.5e-4-.3736,-7.6e-4-.7472,-.001-1.1208,-.002-.307,-7.7e-4-.6141,-9.8e-4-.9211,-10e-4-.2915,-8e-5-.583,-7e-5-.8745,-6e-5-.2915,10e-6-.5831,10e-6-.8746,10e-6-.3187,-3.9e-4-.6374,5.3e-4-.9561,.002-.3943,.002-.7885,4.4e-4-1.1828,-6.3e-4-.3709,-2.7e-4-.7418,4.7e-4-1.1126,10e-4-.3967,-1.7e-4-.7934,-8e-5-1.1902,-10e-4-.38,1.9e-4-.7599,7.4e-4-1.1399,1.6e-4-.3456,-10e-4-.6912,-.002-1.0367,2.5e-4-.5332,.003-1.0664,.004-1.5996,.006-.7266,.003-1.4533,.003-2.1799,10e-4-.5332,-10e-4-1.0664,-.005-1.5997,-.005-.4413,6.5e-4-.8826,-2e-5-1.3239,-.002-.0611,-2e-4-.1222,-4e-4-.1833,-6e-4l1.746,1.1993c.0605,-2.1e-4 .121,-4.1e-4 .1815,-6.1e-4 .4399,-.002 .8797,-.002 1.3196,-.002 .528,-2.2e-4 1.0559,-.004 1.5839,-.005 .7276,-.002 1.4552,-.002 2.1828,9.9e-4 .5391,.002 1.0782,.003 1.6173,.006 .3458,.002 .6916,.002 1.0375,2.6e-4 .3801,-5.7e-4 .7602,-3e-5 1.1404,1.5e-4 .3957,-9.9e-4 .7914,-8.9e-4 1.187,-10e-4 .3723,10e-4 .7447,.002 1.117,.002 .3937,-.001 .7873,-.003 1.181,-6.3e-4 .3206,10e-4 .6411,.002 .9617,.002 .2915,0 .5831,0 .8747,0 .2914,0 .5829,2e-5 .8743,-6e-5 .306,-1.3e-4 .612,-3.5e-4 .918,-9.6e-4 .372,-6.9e-4 .744,-8.4e-4 1.1161,-8.8e-4 .4302,-8.3e-4 .8603,7e-4 1.2904,-.004 .4148,-.006 .8303,-.0145 1.2428,-.0595 .3968,-.0446 .792,-.0972 1.193,-.0869 .4078,-.0152 .8149,-.0435 1.2193,-.0968 .382,-.0404 .7654,-.0292 1.1493,-.0278 .3051,5.6e-4 .6103,.002 .9155,10e-4 .2921,10e-6 .5842,3e-5 .8763,-4e-4 .3589,-6.7e-4 .7177,-.002 1.0765,-.004 .5532,-.003 1.1065,-.006 1.6597,.004l-1.7494,-1.2016z" stroke="#000" stroke-linecap="square" stroke-linejoin="round" stroke-width=".4767"/>
<path d="m678.9753,863.6896c-.9521,.0112-1.9045,.01-2.8567,.009-.8728,-8.5e-4-1.7456,-.003-2.6184,-.005-.5832,-.002-1.1665,-.002-1.7498,-.003-.4596,-7.8e-4-.9193,-.002-1.3789,-.002-.4015,.0206-.7873,-.0547-1.182,-.091-.3958,-.0324-.7949,-.0371-1.1932,-.0404-.3952,-.002-.7904,-10e-4-1.1856,-8e-4-.3947,3.9e-4-.7894,5.1e-4-1.1841,5.9e-4-.3947,4e-5-.7894,4e-5-1.1841,4e-5-.3947,0-.7894,0-1.1841,0-.4238,-5.8e-4-.8476,10e-4-1.2713,10e-4-.4291,-2.4e-4-.8583,-6.6e-4-1.2874,-8.9e-4-.3975,-1.7e-4-.7949,-1.9e-4-1.1924,-2e-4-.2629,-1e-5-.1314,-1e-5-.3943,-1e-5l2.3685,1.1452c.2628,0 .1314,0 .3942,0 .3972,-2e-5 .7943,-4e-5 1.1915,-2.1e-4 .4279,-2.2e-4 .8559,-6.5e-4 1.2838,-8.9e-4 .4253,4e-5 .8505,.002 1.2757,.001 .3947,10e-6 .7894,10e-6 1.1842,10e-6 .3947,-10e-6 .7895,-10e-6 1.1842,-1.2e-4 .3947,-1.2e-4 .7895,-3.5e-4 1.1842,-6.8e-4 .394,-2.2e-4 .7881,-10e-4 1.1821,.004 .3914,.007 .7834,.0186 1.1705,.0605 .4005,.0431 .7988,.0863 1.2067,.0672 .4569,-4.1e-4 .9137,-10e-4 1.3706,-.002 .5793,-5.2e-4 1.1586,-6e-4 1.7379,-.003 .8655,-.003 1.7309,-.004 2.5964,-.005 .965,-4.6e-4 7.2873,-.002 8.2522,.009l-7.7203,-1.1427 0,3.1e-4z" stroke="#000" stroke-linecap="square" stroke-linejoin="round" stroke-width=".541"/>
<path d="m732.3998,863.8992c-1.0035,.0609-2.0159,.0801-3.0269,.0945-.9023,.0104-1.8049,.0105-2.7074,.009-.745,-4.5e-4-1.4901,-5.6e-4-2.2352,-10e-4-1.4956,.0184-2.9921,.009-4.4881,.006-.9039,-.003-1.8078,-.005-2.7117,-.006-.7208,3e-5-1.4416,-3.8e-4-2.1625,5.4e-4-.7578,10e-4-1.5156,-8.5e-4-2.2734,-2.8e-4-.6838,-7.7e-4-1.3676,-6.8e-4-2.0513,-5.9e-4-.6848,5e-4-1.3697,2e-4-2.0545,-4.6e-4-.6542,.001-1.3083,1e-4-1.9625,-4.1e-4-.6401,10e-4-1.2801,4.1e-4-1.9202,-3e-5-.5654,-3.9e-4-1.1307,-5.1e-4-1.6961,-5.7e-4-.4728,.0527-.9485,.0906-1.4336,.109-.5261,.0155-1.0535,.0156-1.5805,.0162-.5482,1.7e-4-1.0964,-3.5e-4-1.6446,-6.1e-4-.2744,-1.3e-4-.5489,-1.8e-4-.8233,-2.3e-4l3.2906,1.0838c.2744,9e-5 .5487,1.7e-4 .8232,3.2e-4 .5488,2.8e-4 1.0977,9.5e-4 1.6465,-3.6e-4 .536,-.002 1.0731,-.004 1.6067,-.0298 .471,-.0265 .9321,-.0808 1.4055,-.0946 .5642,-7e-5 1.1284,-1.8e-4 1.6926,-5.7e-4 .64,-4.3e-4 1.2799,-.001 1.9199,-4e-5 .6534,-5e-4 1.3067,-10e-4 1.9601,-4e-4 .6839,-6.6e-4 1.3678,-9.7e-4 2.0517,-4.6e-4 .6826,10e-5 1.3651,1.7e-4 2.0478,-6e-4 .7572,5.8e-4 1.5144,-10e-4 2.2716,-2.8e-4 .7219,9.2e-4 1.4439,5.3e-4 2.1658,5.5e-4 .8911,-.002 1.7823,-.003 2.6734,-.006 1.5087,-.003 3.0179,-.0119 4.5264,.007 .7438,-3.9e-4 1.4876,4.1e-4 2.2314,-3.3e-4 .8993,-.003 1.7987,-.006 2.6975,-.0203 1.0293,-.0191 2.0575,-.0485 3.0824,-.0964l-3.3215,-1.0655z" stroke="#000" stroke-linecap="square" stroke-linejoin="round" stroke-width=".6203"/>
<path d="m752.5616,826.014 0,18.5432" fill="none" stroke="#000" stroke-linecap="round" stroke-width="4.8046"/>
<path d="m743.0376,824.2597 0,18.5432" fill="none" stroke="#000" stroke-linecap="round" stroke-width="4.8046"/>
<path d="m734.1007,825.724 0,18.5432" fill="none" stroke="#000" stroke-linecap="round" stroke-width="4.8046"/>
<path d="m722.4239,824.5568 0,18.5432" fill="none" stroke="#000" stroke-linecap="round" stroke-width="4.8046"/>
<path d="m712.2653,826.7434 0,18.5432" fill="none" stroke="#000" stroke-linecap="round" stroke-width="4.8046"/>
<path d="m700.636,826.568 0,18.5432" fill="none" stroke="#000" stroke-linecap="round" stroke-width="4.8046"/>
<path d="m690.1335,824.8538 0,18.5432" fill="none" stroke="#000" stroke-linecap="round" stroke-width="4.8046"/>
<path d="m680.2181,827.8907 0,18.5432" fill="none" stroke="#000" stroke-linecap="round" stroke-width="4.8046"/>
<path d="m669.5451,827.522 0,18.5432" fill="none" stroke="#000" stroke-linecap="round" stroke-width="4.8046"/>
<path d="m722.1779,902.5965-27.1229,-4.4282" fill="none" stroke="#000" stroke-width=".7749"/>
<path d="m760.4458,830.7442 0,18.5432" fill="none" stroke="#000" stroke-linecap="round" stroke-width="4.8046"/>
<g transform="matrix(1.20124,0,0,1,-39.67664,1226.31)">
<path d="M1013.7151,-530.8745H1138.6816A13.0878,13.0878 0 0 1 1151.7694,-517.7867V-495.7367A13.0878,13.0878 0 0 1 1138.6816,-482.649H1013.7151A13.0878,13.0878 0 0 1 1000.6273,-495.7367V-517.7867A13.0878,13.0878 0 0 1 1013.7151,-530.8745z" stroke="#000" stroke-linecap="round" stroke-linejoin="round" stroke-width="1.9703" transform="matrix(1,0,.84988,.52697,0,0)"/>
<path d="M602.1455,-296.3292H607.6698A4.1432,4.1432 0 0 1 611.813,-292.186V-261.8025A4.1432,4.1432 0 0 1 607.6698,-257.6593H602.1455A4.1432,4.1432 0 0 1 598.0023,-261.8025V-292.186A4.1432,4.1432 0 0 1 602.1455,-296.3292z" fill="#fff" stroke="#000" stroke-linecap="round" stroke-linejoin="round" stroke-width="3.642"/>
<path d="M707.3829,-296.3292H712.9072A4.1432,4.1432 0 0 1 717.0504,-292.186V-261.8025A4.1432,4.1432 0 0 1 712.9072,-257.6593H707.3829A4.1432,4.1432 0 0 1 703.2397,-261.8025V-292.186A4.1432,4.1432 0 0 1 707.3829,-296.3292z" fill="#fff" stroke="#000" stroke-linecap="round" stroke-linejoin="round" stroke-width="3.642"/>
<path d="M684.1809,-308.4826H689.7052A4.1432,4.1432 0 0 1 693.8484,-304.3394V-273.9559A4.1432,4.1432 0 0 1 689.7052,-269.8127H684.1809A4.1432,4.1432 0 0 1 680.0377,-273.9559V-304.3394A4.1432,4.1432 0 0 1 684.1809,-308.4826z" fill="#fff" stroke="#000" stroke-linecap="round" stroke-linejoin="round" stroke-width="3.642"/>
<path d="M576.4576,-311.7971H581.9819A4.1432,4.1432 0 0 1 586.1251,-307.6539V-277.2705A4.1432,4.1432 0 0 1 581.9819,-273.1272H576.4576A4.1432,4.1432 0 0 1 572.3144,-277.2705V-307.6539A4.1432,4.1432 0 0 1 576.4576,-311.7971z" fill="#fff" stroke="#000" stroke-linecap="round" stroke-linejoin="round" stroke-width="3.642"/>
<path d="M1076.8467,-603.2072H1201.8132A13.0878,13.0878 0 0 1 1214.901,-590.1194V-568.0694A13.0878,13.0878 0 0 1 1201.8132,-554.9817H1076.8467A13.0878,13.0878 0 0 1 1063.7589,-568.0694V-590.1194A13.0878,13.0878 0 0 1 1076.8467,-603.2072z" fill="#fff" stroke="#000" stroke-linecap="round" stroke-linejoin="round" stroke-width="1.9703" transform="matrix(1,0,.84988,.52697,0,0)"/>
<path d="M1082.5307,-610.5453H1207.4972A13.0878,13.0878 0 0 1 1220.585,-597.4575V-575.4075A13.0878,13.0878 0 0 1 1207.4972,-562.3197H1082.5307A13.0878,13.0878 0 0 1 1069.4429,-575.4075V-597.4575A13.0878,13.0878 0 0 1 1082.5307,-610.5453z" fill="#fff" stroke="#000" stroke-linecap="round" stroke-linejoin="round" stroke-width="1.9703" transform="matrix(1,0,.84988,.52697,0,0)"/>
</g>
<path d="m98.9286,314.6429 30.8298,0 0,26.4286-30.8298,0 0,-26.4286z" fill="#fff" stroke="#000" stroke-width="2" transform="matrix(.74332,0,-1.02719,-.68593,939.08839,1141.98829)"/>
<path d="m107.6406,341.1161 5.9375,-5.0489c-15.1563,-8.6637-12.7102,-17.6249-1.8031,-16.1785 10.8165,1.4343 18.0496,15.1096 8.4298,17.3463l5.381,3.7472" stroke="#000" transform="matrix(.74332,0,-1.02719,-.68593,939.08839,1141.98829)"/>
<path d="m98.9286,314.6429 30.8298,0 0,26.4286-30.8298,0 0,-26.4286z" fill="#fff" stroke="#000" stroke-width="2" transform="matrix(.74332,0,-1.02719,-.68593,975.54243,1141.98829)"/>
<path d="m107.6406,341.1161 5.9375,-5.0489c-15.1563,-8.6637-12.7102,-17.6249-1.8031,-16.1785 10.8165,1.4343 18.0496,15.1096 8.4298,17.3463l5.381,3.7472" stroke="#000" transform="matrix(.74332,0,-1.02719,-.68593,975.54243,1141.98829)"/>
<path d="m98.9286,314.6429 30.8298,0 0,26.4286-30.8298,0 0,-26.4286z" fill="#fff" stroke="#000" stroke-width="2" transform="matrix(.74332,0,-1.02719,-.68593,1010.64523,1141.98829)"/>
<path d="m107.6406,341.1161 5.9375,-5.0489c-15.1563,-8.6637-12.7102,-17.6249-1.8031,-16.1785 10.8165,1.4343 18.0496,15.1096 8.4298,17.3463l5.381,3.7472" stroke="#000" transform="matrix(.74332,0,-1.02719,-.68593,1010.64523,1141.98829)"/>
<path d="m98.9286,314.6429 30.8298,0 0,26.4286-30.8298,0 0,-26.4286z" fill="#fff" stroke="#000" stroke-width="2" transform="matrix(.74332,0,-1.02719,-.68593,1044.73785,1141.98829)"/>
<path d="m107.6406,341.1161 5.9375,-5.0489c-15.1563,-8.6637-12.7102,-17.6249-1.8031,-16.1785 10.8165,1.4343 18.0496,15.1096 8.4298,17.3463l5.381,3.7472" stroke="#000" transform="matrix(.74332,0,-1.02719,-.68593,1044.73785,1141.98829)"/>
<text font-family="Bitstream Vera Sans" font-size="20" x="719.2286" y="753.8621">
   <tspan x="719.2286" y="753.8621">Hmm...</tspan>
  </text>
<path d="m744.4824,765.4789-14.1421,44.9518" fill="none" stroke="#000"/>
<text font-family="Bitstream Vera Sans" font-size="20" x="444.9722" y="714.4662">
   <tspan text-align="center" text-anchor="middle" x="444.9722" y="714.4662">Si vous reconnaissez votre</tspan>
   <tspan text-align="center" text-anchor="middle" x="444.9722" y="739.4662">prof de maths parmi ces</tspan>
   <tspan text-align="center" text-anchor="middle" x="444.9722" y="764.4662">portraits, nous vous validons</tspan>
   <tspan text-align="center" text-anchor="middle" x="444.9722" y="789.4662">votre module !</tspan>
  </text>
<path d="m528.4831,793.1565 52.5279,23.2335" fill="none" stroke="#000"/>
</g>
</svg>
