<svg version="1.1" viewBox="0 0 900 900" xmlns="http://www.w3.org/2000/svg" xmlns:svg="http://www.w3.org/2000/svg">
<g transform="translate(0,-152.3622)">
<path d="M57.5655,213.6313H831.9748A29.4839,29.4839 0 0 1 861.4588,243.1152V1017.5246A29.4839,29.4839 0 0 1 831.9748,1047.0086H57.5655A29.4839,29.4839 0 0 1 28.0815,1017.5246V243.1152A29.4839,29.4839 0 0 1 57.5655,213.6313z" fill="#fff" opacity=".99" stroke="#000" stroke-linecap="round" stroke-width="5.5945"/>
<path d="m860.0944,900.314-682.257,0c0,0-11.0911,-.1307-15.3561,-4.2426-4.8618,-4.6874-5.0381,-13.7684-5.0381,-13.7684l0,-528.5623c0,0-.8833,-11.1468 3.5355,-15.5656 4.557,-4.557 15.798,-3.182 15.798,-3.182l537.9315,0c0,0 11.915,-.0799 17.1055,5.1265 4.9946,5.0099 4.885,16.0962 4.885,16.0962L735.515,748.7376c0,0 .7329,13.0315-4.8349,18.5792-5.2373,5.2185-17.4302,5-17.4302,5l-380.75,0c0,0-20.0653,.328-28.6432,-8.25-9.1817,-9.1817-7.75,-30.7046-7.75,-30.7046l0,-242.75c0,0 .4322,-12.0542 6,-17.622 5.8674,-5.8674 18.8932,-6 18.8932,-6l256.7062,0c0,0 13.6526,.3001 19.7165,6.364 5.8068,5.8068 6.0104,18.2723 6.0104,18.2723l0,103.5911c0,0-.133,14.1944-6.364,20.4254-6.0639,6.0639-19.3629,6.0104-19.3629,6.0104l-124.2696,0" fill="none" stroke="#000" stroke-linecap="round" stroke-width="4.714"/>
<path d="m165.1329,897.7028-136.3536,0" fill="none" stroke="#000" stroke-width=".9428"/>
<path d="m159.329,338.1855 0,-123.6232" fill="none" stroke="#000" stroke-width=".9428"/>
<path d="m731.6271,338.598 128.9007,0" fill="none" stroke="#000" stroke-width=".9428"/>
<path d="m730.8359,766.2705 0,132.736" fill="none" stroke="#000" stroke-width=".9628"/>
<path d="m303.2975,765.7503-145.1471,0" fill="none" stroke="#000" stroke-width=".9428"/>
<path d="m304.2975,471.7673 0,-137.4514" fill="none" stroke="#000" stroke-width=".9621"/>
<path d="m597.0961,471.2366 138.0716,0" fill="none" stroke="#000" stroke-width=".9951"/>
<path d="m597.5606,617.3795 0,155.3026" fill="none" stroke="#000" stroke-width=".9536"/>
<path d="m456.0716,620.9041-156.5029,0" fill="none" stroke="#000" stroke-width=".9428"/>
<path d="m446.8915,78.4154c0,2.9289-27.5427,5.3033-61.5183,5.3033-33.9756,0-61.5183,-2.3744-61.5183,-5.3033 0,-2.9289 27.5427,-5.3033 61.5183,-5.3033 33.9756,0 61.5183,2.3744 61.5183,5.3033z" stroke="#000" stroke-linecap="round" stroke-width="4.862" transform="matrix(-.87811,0,0,.87811,1065.18303,946.85742)"/>
<g transform="matrix(-.87811,0,0,.87811,641.3538,685.81502)">
<path d="m-43.5297,288.8057 0,47.8884c0,20.007-16.1067,36.1137-36.1137,36.1137l-35.434,0c-20.007,0-36.1137,-16.1067-36.1137,-36.1137l0,-47.8884" fill="#fff" stroke="#000" stroke-linecap="round" stroke-linejoin="round" stroke-width="3.6422"/>
<path d="M-122.1431,308.6171H-98.6091A.7803,.7803 0 0 1 -97.8288,309.3974V319.4235A.7803,.7803 0 0 1 -98.6091,320.2038H-122.1431A.7803,.7803 0 0 1 -122.9234,319.4235V309.3974A.7803,.7803 0 0 1 -122.1431,308.6171z" stroke="#000" stroke-linecap="square" stroke-linejoin="round" stroke-width="3.7338"/>
<path d="M-80.7522,308.6171H-60.3393A2.3409,2.3409 0 0 1 -57.9985,310.958V317.8629A2.3409,2.3409 0 0 1 -60.3393,320.2038H-80.7522A2.3409,2.3409 0 0 1 -83.093,317.8629V310.958A2.3409,2.3409 0 0 1 -80.7522,308.6171z" stroke="#000" stroke-linecap="square" stroke-linejoin="round" stroke-width="3.7338"/>
<path d="m-148.8829,313.6717c.5492,.0105 1.0986,.007 1.6478,.004 .363,-.002 .7259,-.004 1.0889,-.004 .2925,-4.3e-4 .585,-4e-4 .8775,-4e-4 .304,-6.3e-4 .6081,6e-4 .9121,10e-4 .3906,-.01 .7752,-3.7e-4 1.162,.0507 .3996,.0545 .8031,.0717 1.2062,.0827 .4052,-.0158 .8029,.0589 1.204,.099 .4079,.0368 .818,.0407 1.2274,.045 .4301,.002 .8603,.002 1.2904,6.5e-4 .3736,-7.6e-4 .7472,-10e-4 1.1208,-.002 .307,-7.7e-4 .6141,-9.8e-4 .9211,-10e-4 .2915,-8e-5 .583,-7e-5 .8745,-6e-5 .2915,1e-5 .5831,1e-5 .8746,1e-5 .3187,-3.9e-4 .6374,5.3e-4 .9561,.002 .3943,.002 .7885,4.4e-4 1.1828,-6.3e-4 .3709,-2.7e-4 .7418,4.7e-4 1.1126,10e-4 .3967,-1.7e-4 .7934,-8e-5 1.1902,-10e-4 .38,1.9e-4 .7599,7.4e-4 1.1399,1.6e-4 .3456,-.001 .6912,-.002 1.0367,2.5e-4 .5332,.003 1.0664,.004 1.5996,.006 .7266,.003 1.4533,.003 2.1799,.001 .5332,-.001 1.0664,-.005 1.5997,-.005 .4413,6.5e-4 .8826,-2e-5 1.3239,-.002 .0611,-2e-4 .1222,-4e-4 .1833,-6e-4l-1.746,1.1993c-.0605,-2.1e-4-.121,-4.1e-4-.1815,-6.1e-4-.4399,-.002-.8797,-.002-1.3196,-.002-.528,-2.2e-4-1.0559,-.004-1.5839,-.005-.7276,-.002-1.4552,-.002-2.1828,9.9e-4-.5391,.002-1.0782,.003-1.6173,.006-.3458,.002-.6916,.002-1.0375,2.6e-4-.3801,-5.7e-4-.7602,-3e-5-1.1404,1.5e-4-.3957,-9.9e-4-.7914,-8.9e-4-1.187,-.001-.3723,.001-.7447,.002-1.117,.002-.3937,-10e-4-.7873,-.003-1.181,-6.3e-4-.3206,.001-.6411,.002-.9617,.002-.2915,0-.5831,0-.8747,0-.2914,0-.5829,2e-5-.8743,-6e-5-.306,-1.3e-4-.612,-3.5e-4-.918,-9.6e-4-.372,-6.9e-4-.744,-8.4e-4-1.1161,-8.8e-4-.4302,-8.3e-4-.8603,7e-4-1.2904,-.004-.4148,-.006-.8303,-.0145-1.2428,-.0595-.3968,-.0446-.792,-.0972-1.193,-.0869-.4078,-.0152-.8149,-.0435-1.2193,-.0968-.382,-.0404-.7654,-.0292-1.1493,-.0278-.3051,5.6e-4-.6103,.002-.9155,.001-.2921,10e-6-.5842,3e-5-.8763,-4e-4-.3589,-6.7e-4-.7177,-.002-1.0765,-.004-.5532,-.003-1.1065,-.006-1.6597,.004l1.7494,-1.2016z" stroke="#000" stroke-linecap="square" stroke-linejoin="round" stroke-width=".4767"/>
<path d="m-57.3881,313.9484c.7039,.0118 1.4079,.0102 2.1119,.01 .6452,-8.9e-4 1.2905,-.003 1.9357,-.006 .4312,-.002 .8624,-.002 1.2935,-.003 .3398,-8.1e-4 .6796,-.002 1.0194,-.002 .2968,.0217 .5821,-.0575 .8738,-.0956 .2926,-.0341 .5877,-.039 .8821,-.0425 .2922,-.002 .5843,-10e-4 .8765,-8.4e-4 .2918,4e-4 .5836,5.3e-4 .8754,6.1e-4 .2918,5e-5 .5836,5e-5 .8754,5e-5 .2918,0 .5836,0 .8754,0 .3133,-6.1e-4 .6266,10e-4 .9398,10e-4 .3172,-2.5e-4 .6345,-6.9e-4 .9517,-9.3e-4 .2938,-1.8e-4 .5877,-2e-4 .8815,-2.1e-4 .1943,-1e-5 .0972,-1e-5 .2915,-1e-5l-1.7509,1.2027c-.1943,0-.0971,0-.2914,0-.2936,-2e-5-.5872,-4e-5-.8808,-2.2e-4-.3164,-2.3e-4-.6327,-6.8e-4-.9491,-9.3e-4-.3144,4e-5-.6287,.002-.9431,10e-4-.2918,1e-5-.5836,1e-5-.8754,1e-5-.2918,-1e-5-.5836,-1e-5-.8754,-1.2e-4-.2918,-1.3e-4-.5837,-3.7e-4-.8755,-7.2e-4-.2913,-2.3e-4-.5826,-10e-4-.8738,.004-.2893,.007-.5791,.0195-.8653,.0636-.2961,.0453-.5905,.0907-.8921,.0705-.3377,-4.3e-4-.6755,-10e-4-1.0132,-.002-.4283,-5.4e-4-.8565,-6.3e-4-1.2848,-.003-.6398,-.003-1.2796,-.005-1.9195,-.006-.7134,-4.8e-4-1.4269,-.002-2.1402,.01l1.747,-1.2z" stroke="#000" stroke-linecap="square" stroke-linejoin="round" stroke-width=".4767"/>
<path d="m-97.681,314.1116c.5339,.0676 1.0726,.0889 1.6105,.1048 .4801,.0116 .9604,.0116 1.4405,.0103 .3964,-5e-4 .7929,-6.3e-4 1.1893,-.002 .7958,.0205 1.592,.0104 2.3879,.007 .4809,-.004 .9619,-.005 1.4428,-.007 .3835,3e-5 .767,-4.2e-4 1.1506,6e-4 .4032,.001 .8064,-9.5e-4 1.2096,-3.1e-4 .3638,-8.6e-4 .7277,-7.6e-4 1.0915,-6.6e-4 .3644,5.6e-4 .7288,2.2e-4 1.0931,-5.1e-4 .3481,.001 .6961,1.1e-4 1.0442,-4.5e-4 .3406,.001 .6811,4.5e-4 1.0217,-4e-5 .3008,-4.3e-4 .6016,-5.6e-4 .9024,-6.3e-4 .2516,.0585 .5047,.1006 .7628,.1209 .2799,.0172 .5606,.0173 .8409,.018 .2917,1.9e-4 .5833,-3.9e-4 .875,-6.8e-4 .146,-1.4e-4 .292,-2e-4 .4381,-2.6e-4l-1.7508,1.2027c-.146,10e-5-.292,1.9e-4-.438,3.5e-4-.292,3.2e-4-.584,.001-.876,-3.9e-4-.2852,-.002-.5709,-.005-.8549,-.0331-.2506,-.0294-.496,-.0897-.7478,-.105-.3002,-8e-5-.6004,-2e-4-.9006,-6.3e-4-.3405,-4.8e-4-.681,-.001-1.0215,-5e-5-.3476,-5.5e-4-.6953,-.002-1.0429,-4.4e-4-.3639,-7.3e-4-.7278,-10e-4-1.0916,-5.1e-4-.3632,1.1e-4-.7264,1.9e-4-1.0895,-6.6e-4-.4029,6.4e-4-.8058,-.002-1.2087,-3.1e-4-.3841,.001-.7682,5.8e-4-1.1523,6e-4-.4742,-.002-.9483,-.003-1.4224,-.007-.8027,-.004-1.6058,-.0132-2.4083,.007-.3958,-4.3e-4-.7915,4.6e-4-1.1873,-3.6e-4-.4785,-.003-.957,-.007-1.4353,-.0226-.5477,-.0212-1.0947,-.0538-1.64,-.107l1.7673,-1.1825z" stroke="#000" stroke-linecap="square" stroke-linejoin="round" stroke-width=".4767"/>
<path d="m-136.1855,276.2983 0,18.5432" fill="none" stroke="#000" stroke-linecap="round" stroke-width="4.8046"/>
<path d="m-126.6615,274.544 0,18.5432" fill="none" stroke="#000" stroke-linecap="round" stroke-width="4.8046"/>
<path d="m-117.7245,276.0083 0,18.5432" fill="none" stroke="#000" stroke-linecap="round" stroke-width="4.8046"/>
<path d="m-106.0478,274.841 0,18.5432" fill="none" stroke="#000" stroke-linecap="round" stroke-width="4.8046"/>
<path d="m-95.8892,277.0276 0,18.5432" fill="none" stroke="#000" stroke-linecap="round" stroke-width="4.8046"/>
<path d="m-84.2599,276.8522 0,18.5432" fill="none" stroke="#000" stroke-linecap="round" stroke-width="4.8046"/>
<path d="m-73.7574,275.1381 0,18.5432" fill="none" stroke="#000" stroke-linecap="round" stroke-width="4.8046"/>
<path d="m-63.8419,278.175 0,18.5432" fill="none" stroke="#000" stroke-linecap="round" stroke-width="4.8046"/>
<path d="m-53.169,277.8063 0,18.5432" fill="none" stroke="#000" stroke-linecap="round" stroke-width="4.8046"/>
<path d="m-105.8017,352.8807 27.1229,-4.4282" fill="none" stroke="#000" stroke-width=".7749"/>
<path d="m-144.0697,281.0285 0,18.5432" fill="none" stroke="#000" stroke-linecap="round" stroke-width="4.8046"/>
</g>
<path d="m532.7682,899.6473 0,146.6635" fill="none" stroke="#000" stroke-width=".9428"/>
<text font-family="Bitstream Vera Sans" font-size="18.856" x="571.434" y="983.6455">
   <tspan x="571.434" y="983.6455">DEPART</tspan>
  </text>
<path d="m560.9343,992.312 85.4981,0" fill="none" stroke="#000" stroke-width="2.8284"/>
<path d="m568.3508,984.0622-8.4165,8.4165 7.9165,7.9165" fill="none" stroke="#000" stroke-miterlimit="2" stroke-width="1.8856"/>
<path d="m784.7627,961.646 31.9993,0" fill="none" stroke="#000" stroke-width=".9428"/>
<path d="m785.4294,975.6457 27.3327,0" fill="none" stroke="#000" stroke-width=".9428"/>
<path d="m784.7627,985.6455 23.3328,0" fill="none" stroke="#000" stroke-width=".9428"/>
<g transform="matrix(.94279,0,0,.94279,32.11255,61.48917)">
<path d="m446.8915,78.4154c0,2.9289-27.5427,5.3033-61.5183,5.3033-33.9756,0-61.5183,-2.3744-61.5183,-5.3033 0,-2.9289 27.5427,-5.3033 61.5183,-5.3033 33.9756,0 61.5183,2.3744 61.5183,5.3033z" stroke="#000" stroke-linecap="round" stroke-width="4.862" transform="matrix(-.9314,0,0,.9314,757.93514,497.94826)"/>
<path d="m348.9299,490.0574 0,44.6031c0,18.6345 15.0017,33.6362 33.6362,33.6362l33.0031,0c18.6344,0 33.6362,-15.0017 33.6362,-33.6362l0,-44.6031" fill="#fff" stroke="#000" stroke-linecap="round" stroke-linejoin="round" stroke-width="3.3924"/>
<path d="m435.2291,478.4081 0,17.2711" fill="none" stroke="#000" stroke-linecap="round" stroke-width="4.475"/>
<path d="m426.3585,476.7741 0,17.2711" fill="none" stroke="#000" stroke-linecap="round" stroke-width="4.475"/>
<path d="m418.0347,478.138 0,17.2711" fill="none" stroke="#000" stroke-linecap="round" stroke-width="4.475"/>
<path d="m407.159,477.0508 0,17.2711" fill="none" stroke="#000" stroke-linecap="round" stroke-width="4.475"/>
<path d="m397.6973,479.0874 0,17.2711" fill="none" stroke="#000" stroke-linecap="round" stroke-width="4.475"/>
<path d="m386.8658,478.924 0,17.2711" fill="none" stroke="#000" stroke-linecap="round" stroke-width="4.475"/>
<path d="m377.0838,477.3274 0,17.2711" fill="none" stroke="#000" stroke-linecap="round" stroke-width="4.475"/>
<path d="m367.8486,480.156 0,17.2711" fill="none" stroke="#000" stroke-linecap="round" stroke-width="4.475"/>
<path d="m357.9078,479.8126 0,17.2711" fill="none" stroke="#000" stroke-linecap="round" stroke-width="4.475"/>
<path d="m442.5724,482.8138 0,17.2711" fill="none" stroke="#000" stroke-linecap="round" stroke-width="4.475"/>
</g>
<path d="m539,405.25a14.25,2.25 0 1 1 -28.5,0 14.25,2.25 0 1 1 28.5,0z" opacity=".99" stroke="#000" stroke-linecap="round" transform="matrix(.94279,0,0,.94279,31.81679,204.66306)"/>
<path d="M522.1798,538.8815H531.853A.5844,.5844 0 0 1 532.4374,539.4659V587.3221A.5844,.5844 0 0 1 531.853,587.9065H522.1798A.5844,.5844 0 0 1 521.5953,587.3221V539.4659A.5844,.5844 0 0 1 522.1798,538.8815z" fill="#fff" opacity=".99" stroke="#000" stroke-linecap="round" stroke-width="2.8284"/>
<path d="M472.4754,500.0193H583.0825A.5844,.5844 0 0 1 583.6669,500.6037V551.7042A.5844,.5844 0 0 1 583.0825,552.2886H472.4754A.5844,.5844 0 0 1 471.891,551.7042V500.6037A.5844,.5844 0 0 1 472.4754,500.0193z" fill="#fff" opacity=".99" stroke="#000" stroke-linecap="round" stroke-width="2.4124"/>
<text font-family="Bitstream Vera Sans" font-size="18.856" x="498.0256" y="531.8106">
   <tspan x="498.0256" y="531.8106">Perdu</tspan>
  </text>
<text font-family="Bitstream Vera Sans" font-size="18.856" x="310.7731" y="492.323">
   <tspan x="310.7731" y="492.323">Hmm...</tspan>
  </text>
<path d="m334.7726,500.3228 17.3329,18.6663" fill="none" stroke="#000" stroke-width=".9428"/>
<path d="m327.7735,902.9806 0,146.6634" fill="none" stroke="#000" stroke-width=".9428"/>
<text font-family="Bitstream Vera Sans" font-size="20" x="447.4877" y="666.1102">
   <tspan text-align="center" text-anchor="middle" x="447.4877" y="666.1102">Tu échoues à 20 cm</tspan>
   <tspan text-align="center" text-anchor="middle" x="447.4877" y="691.1102">du bar après avoir</tspan>
   <tspan text-align="center" text-anchor="middle" x="447.4877" y="716.1102">traversé tout Paris.</tspan>
   <tspan text-align="center" text-anchor="middle" x="447.4877" y="741.1102">Retourne case Départ.</tspan>
  </text>
<g transform="matrix(.12574,0,0,.12574,524.50454,607.13222)">
<path d="m162.9615,-66.1029c3.4935,4.0575 8.2353,4.5442 13.2828,4.8295 6.3854,-.1721 12.7816,-1.7005 18.7482,-3.9709 3.188,-1.2131 4.9498,-2.2461 7.9245,-3.8084-17.8031,10.4157-7.8919,4.8373-4.5635,1.3015 1.7244,-1.8318 2.7543,-3.7619 3.7268,-6.049 2.5265,-7.1174 2.8539,-14.7708 3.2849,-22.2438 .8398,-10.8784-1.4121,-21.5587-3.8369,-32.0902-2.9495,-11.0779-6.9553,-21.8431-11.3671,-32.4128-2.1125,-4.9937-4.5016,-9.8617-6.8287,-14.7566-3.1362,-6.0174-5.7017,-2.2804 12.0114,-9.1516 .6104,-.2368 .7311,1.087 1.1222,1.6121 .6549,.8793 1.3432,1.7331 2.0147,2.5997 6.5345,8.9671 14.393,16.8239 22.2682,24.5961 4.6332,4.5123 9.6016,8.7005 14.032,13.4186 1.6816,1.3731 2.6867,3.3087 4.04,4.9541 1.3218,1.1942 2.3559,-.063 3.524,-.88-20.4032,12.2348-13.1369,8.2804-9.2246,4.5289 1.5406,-1.4773 2.9931,-3.0561 4.4682,-4.5977 2.0935,-2.0887 4.0773,-4.3249 6.3699,-6.2061 6.0518,-4.966 14.4953,-8.9342 20.7536,-12.4943 5.7826,-2.554 11.6983,-4.7759 17.7067,-6.7339 1.2429,-.2695 6.0517,-2.1189 7.1497,-.869 .2555,.2908 .359,.686 .5385,1.029 .0249,.3507 .122,.7037 .0746,1.052-.3464,2.5421-4.2822,5.4998-5.9999,7.0812-7.8955,6.5272-15.5561,13.3165-22.8485,20.5113-6.3434,6.805-12.8959,13.5227-17.9461,21.3722-3.1182,4.9027-4.7756,10.316-5.5537,16.0199-.5154,5.1011-.4313,10.2374-.4233,15.3575 .2794,5.5658 .9893,11.1428 2.6464,16.4744 .9499,2.8397 2.6391,4.9259 5.3418,6.1729 1.7933,.6321 3.8468,1.0482 5.7562,.6876 .4443,-.0839 4.1482,-1.3389 4.4445,-1.4379 4.3672,-2.3833 14.9158,-7.9566-4.8252,2.8617-.781,.428 1.5035,-.9552 2.2436,-1.4505 1.7,-1.1377 2.1084,-1.4721 3.7035,-2.6614 1.913,-1.4312 1.0067,-.7357 2.723,-2.0808l13.6711,-5.4983c-1.7324,1.4564-.8048,.73-2.796,2.1623-8.0629,6.2254-16.9943,11.3785-26.2507,15.5961-4.0612,1.2122-7.06,1.7923-11.0152,-.0782-2.9124,-1.6424-4.8153,-4.0252-5.8395,-7.2464-1.6234,-5.4897-2.2357,-11.2047-2.7686,-16.8893-.0311,-5.1712-.1159,-10.3556 .3022,-15.5145 .7383,-5.9102 2.2958,-11.5511 5.4746,-16.6653 .6374,-1.0595 1.2164,-2.1564 1.9122,-3.1784 1.4293,-2.0993 3.5633,-4.5022 5.1926,-6.3909 3.5997,-4.173 7.2819,-8.2723 11.0846,-12.2621 7.0925,-7.1546 14.5679,-13.9155 22.3195,-20.352 2.1958,-2.0389 4.4682,-4.0268 6.363,-6.357 .3146,.1659-.6981,.139-1.0503,.1882-1.7578,.2457-3.4497,.7917-5.1425,1.3052-5.9412,1.9611-11.8224,4.1368-17.4628,6.8581 19.4412,-11.4974 7.7521,-4.9691 3.9527,-2.0455-2.3144,1.7808-4.2945,3.9798-6.3247,6.0613-7.3621,7.7662-7.7847,8.5886-20.2399,15.0176-2.0411,.9643-3.1823,.8498-4.779,-.8279-1.26,-1.6657-2.2693,-3.5234-3.8255,-4.9564-4.2421,-4.7917-8.972,-9.1394-13.4655,-13.6887-7.8003,-7.9395-15.7203,-15.7854-22.6621,-24.5085-.7459,-.8383-1.4925,-1.676-2.2377,-2.515-.414,-.4662-1.7128,-.9944-1.2397,-1.4005 11.2457,-9.654 10.609,-12.1815 13.514,-5.8078 2.1923,4.9946 4.5033,9.9394 6.4982,15.0188 4.1744,10.7594 8.0235,21.6562 11.1756,32.7627 2.5328,10.5786 5.0383,21.3246 4.3095,32.2869-.2875,7.5431-.73,15.2244-2.7778,22.5205-.6732,1.8665-.9058,2.8192-1.9806,4.5269-4.7227,7.5035-14.9088,11.0471-21.6041,15.3066-8.5205,4.1876-17.5853,7.1486-27.1755,7.1917-1.3332,-.1069-2.6764,-.126-3.9996,-.3207-3.9409,-.5799-7.6146,-2.3017-10.3419,-5.2234l12.7269,-7.6412z" stroke="#000" stroke-linecap="round" stroke-linejoin="round" stroke-width="2"/>
<path d="m285.1504,-83.2549c-5.88,1.6467-18.6251,9.5149 3.6228,-3.2161-3.0858,1.6423-4.9176,4.3146-6.3615,7.3973-.8239,2.47-1.7035,5.1777-1.5244,7.8292 .1239,1.8346 .601,2.756 1.225,4.4695 2.4426,4.8256 6.1987,8.7942 10.6559,11.8004 3.2897,2.2908 7.0292,3.3333 10.9988,3.3815 3.0629,-.6961 5.9092,-1.889 8.7139,-3.2794 1.1955,-.5927 4.6992,-2.5278 3.5526,-1.8452-13.2158,7.8669-9.9055,5.7434-5.2291,2.5405 3.8506,-2.9659 8.0361,-6.4071 9.0279,-11.451 .1385,-.7045 .1286,-1.4302 .1929,-2.1454-.2546,-6.3086-4.2409,-11.2474-8.0871,-15.9117-2.4245,-2.6982-5.17,-5.2714-8.4848,-6.8472-1.6823,-.7998-2.5447,-.9419-4.3262,-1.415-3.594,-.1953-7.3605,.1463-10.7726,1.3847-1.5775,.5726-3.9684,1.9034-5.4345,2.6786 19.9864,-11.9906 6.8908,-4.0746 2.7687,-.4895l-13.6034,5.5649c6.3305,-6.0894 14.7834,-9.6771 22.1418,-14.1306 2.1358,-1.0385 3.3967,-1.7563 5.6792,-2.4493 3.6325,-1.1029 7.5433,-1.3605 11.2846,-.8091 1.9239,.6139 2.7037,.7688 4.5106,1.7317 3.3646,1.793 6.1391,4.5163 8.621,7.3603 4.0463,4.9816 8.1538,10.1443 8.7701,16.7754-.0296,.8046 .0196,1.6161-.0889,2.4139-.7383,5.4273-4.7753,9.2853-8.8804,12.4917-7.9626,5.7154-3.8825,2.9492-19.2743,11.6675-4.0105,2.2717-8.3975,4.1951-13.0037,4.7328-4.1494,-.367-8.0102,-1.5898-11.3905,-4.108-4.5717,-3.3347-8.416,-7.5445-11.0934,-12.5605-.6247,-1.6344-1.3341,-3.1907-1.5477,-4.9537-.3345,-2.7611 .5846,-5.6627 1.2497,-8.2942 1.2789,-3.2492 2.902,-6.3291 5.9576,-8.2367 7.1822,-4.1341 13.903,-8.8778 21.9148,-11.0889l-11.7853,9.0117z" stroke="#000" stroke-linecap="round" stroke-linejoin="round" stroke-width="2"/>
<path d="m347.1504,-77.2549c-2.5469,.8146-5.1929,1.5133-7.6141,2.6735-.8131,.3896-1.5764,.8756-2.3647,1.3134 3.3457,-1.8736 6.6913,-3.7471 10.037,-5.6207-3.9716,2.6801-6.9185,5.3584-8.6955,9.85-1.1627,3.6999-.6052,6.8285 2.3247,9.5655 .7074,.6608 1.5389,1.1748 2.3083,1.7622 5.6004,3.2171 12.2296,4.3691 18.6442,3.6885 1.8388,-.1951 3.6423,-.6405 5.4634,-.9607 4.2145,-1.088 6.0512,-1.3908 10.0093,-3.0522 1.313,-.5511 5.0497,-2.628 3.8271,-1.898-17.7993,10.6288-9.7426,5.998-6.9473,3.1684 .6199,-.6275 1.1121,-1.3693 1.6682,-2.054 2.4376,-3.8135 2.5,-7.2055 .7831,-11.2688-.3152,-.7137-2.1315,-4.4568-3.4123,-3.6467-.2218,.1403-.3342,.4046-.5012,.6069 20.2171,-11.5287 12.5199,-9.601 10.5591,-3.9824-.8462,2.4247-.9939,4.7822-1.1102,7.3284 1.4046,11.8202 6.6264,22.7649 10.9162,33.7471 5.2161,14.5087 10.244,29.5646 10.8227,45.1266 .1152,3.097-.1863,6.1956-.2795,9.2933-.4626,2.9786-.7219,5.996-1.3878,8.9358-2.1724,9.5898-7.1162,18.3681-14.4574,24.947-1.2941,1.1597-2.7591,2.1134-4.1386,3.1701-5.5203,2.8839-10.7715,6.3551-16.5608,8.6516-2.3998,.952-8.1925,-1.0338-10.0914,-1.8803-7.058,-3.1465-13.1537,-8.3145-19.1496,-13.0475-10.1152,-8.659-20.0186,-17.691-29.0677,-27.4783-4.688,-5.0705-5.8469,-6.777-9.919,-12.0224-3.4654,-5.7822-7.5504,-12.4859-4.1433,-19.3016 2.0163,-4.0335 4.4499,-5.497 7.8272,-8.4338 10.1215,-6.5586 10.9501,-7.3056 25.6037,-14.7259 3.5764,-1.811 15.1096,-5.9066 18.6391,-7.138 7.0388,-2.4558 14.6082,-4.8887 21.6862,-7.2014 18.594,-5.3634 36.8056,-11.8962 54.8051,-18.9783 1.5279,-.6495 3.0578,-1.2942 4.5836,-1.9485 1.1657,-.4999 2.34,-.9808 3.4908,-1.514 2.3523,-1.0899 4.5499,-2.4389 6.9767,-3.363 3.291,-.4693 4.4452,3.4926 5.4304,5.8995 2.2687,6.1277 3.5471,12.5534 4.0987,19.0495 .1362,2.9104 .2306,5.8345-.1816,8.7279-.0421,.2958 .1108,.7559-.16,.882-4.4089,2.0533-9.0127,3.659-13.519,5.4886 .0118,-.8952-.0374,-1.7934 .0355,-2.6857 .1061,-1.2986 .3295,-2.5849 .5008,-3.8765 .9997,-7.538 2.3091,-14.9758 3.843,-22.4228 1.555,-6.4961 2.8976,-13.2994 6.61,-18.9697 4.2039,-4.4015 13.5536,-13.0794 18.1064,-8.0287 .4767,.5289 .8107,1.1708 1.2161,1.7562 .891,1.5753 1.6607,2.7718 2.2437,4.5173 1.6389,4.9078 2.3745,10.6605 3.2422,15.7652 1.1326,4.4176 .7008,9.7081 2.0412,14.0399 1.7726,-4.7616-.0179,.2205-12.7493,6.291-.2582,.1231 .3891,-.4251 .5337,-.672 .3315,-.566 .9805,-2.2274 1.2333,-2.7376 .3448,-.6961 .7385,-1.3669 1.1077,-2.0504 2.3945,-3.8376 4.4213,-7.8928 7.0597,-11.5731 4.4112,-5.5273 8.5378,-6.7337 16.174,-10.93 .2619,-.1439 .6145,-.0601 .8956,.0415 .3579,.1294 .6361,.4181 .9542,.6271 2.9864,3.1411 4.0262,7.5857 5.0346,11.6761 .8762,4.4536 1.3452,8.9967 2.9742,13.2566 .3967,.5584 .7207,1.1763 1.19,1.6753 3.4181,3.6336 9.0718,6.3498 13.7339,7.8272 1.7542,.5559 3.5616,.9276 5.3424,1.3914 7.54,1.8812 15.1058,1.9747 22.6056,-.087 1.66,-.4563 3.3273,-.9326 4.8996,-1.6338 1.4645,-.6531 2.7763,-1.6056 4.1644,-2.4083-2.8879,1.4901-5.5634,3.4967-8.6637,4.4704-1.1955,.3755 1.8602,-1.6841 2.7137,-2.6016 2.5159,-2.7049 3.9544,-5.7126 4.9671,-9.2111 .6946,-2.9134 .6823,-5.9069 .6019,-8.8795-.8123,-6.1361-6.2332,-.0969 12.5348,-7.7189 .3417,-.1388-.2006,.7117-.258,1.076-.0835,.53-.1093,1.0675-.1639,1.6012-.2665,4.8348-.377,9.6802 .1605,14.4971 .5467,3.099 1.1396,6.2653 3.5686,8.4405 1.7091,1.1249 3.5227,1.2014 5.4105,.5838 4.5429,-2.2925 11.3618,-6.2694-9.2958,5.3928-.733,.4138 1.4175,-.9086 2.114,-1.3812l13.7499,-5.4669c-1.0645,.874-.871,.7838-2.0934,1.4985-4.6452,2.7158-10.3975,7.2521-16.2755,8.9062-2.2943,.246-4.4334,-.2532-6.2278,-1.7781-2.497,-2.6033-3.3119,-5.923-3.8685,-9.4237-.5906,-4.8727-.472,-9.7673-.4084,-14.6687 .0197,-.6544 .077,-2.9288 .1232,-2.9595 9.727,-6.4603 12.8718,-12.5754 14.1061,-5.3537 .0695,3.1243 .0729,6.2667-.5797,9.341-3.2014,12.7554-11.6553,15.6615-23.2766,22.5416-1.4289,.7205-2.7977,1.5752-4.2867,2.1615-8.9506,3.524-18.7036,3.2412-27.9102,1.0341-1.8391,-.4877-3.7066,-.8788-5.5173,-1.4632-4.6315,-1.4947-11.1446,-4.692-14.5603,-8.2853-.5627,-.5919-.968,-1.3157-1.452,-1.9736-1.6237,-4.344-2.0916,-8.9473-2.927,-13.4875-.8421,-3.5179-1.6783,-7.8688-4.5851,-10.3108-.6859,.086-.3319,-.0175-1.041,.3749 3.9288,-2.3321 7.8577,-4.6642 11.7865,-6.9963 .3323,-.191-.6084,.4685-.8871,.7315-.6996,.66-1.2666,1.4531-2.0221,2.0581-2.82,3.545-4.8538,7.566-7.2091,11.4215-.8854,1.5155-1.617,2.9578-2.1805,4.6201-.1148,.3386 .0125,.8473-.2939,1.0316-13.2948,7.9967-10.3461,11.2314-14.0569,6.5713-1.1159,-4.7041-.5439,-9.6982-1.6308,-14.4245-1.0635,-6.6156-1.8817,-13.7016-5.4778,-19.4897-.6253,-.7518-.8938,-1.4407-1.8874,-1.6242-.2691,-.0497-1.0491,.2242-.8171,.0792 3.855,-2.4085 7.8581,-4.5721 11.7547,-6.9127 .3501,-.2103-.7641,.3015-1.11,.5187-.4078,.256-.7577,.5945-1.1366,.8918-4.3835,5.2272-5.7056,12.2845-7.478,18.6873-1.9969,9.2321-3.7113,18.5943-3.9931,28.0561-4.3051,2.6386-8.5232,5.4248-12.9154,7.9158-.2419,.1372 .2404,-.5043 .318,-.7714 .8042,-2.7667 .5753,-5.6949 .5747,-8.5333-.3712,-6.3501-1.5585,-12.6651-3.9842,-18.571-.4628,-1.0682-1.3134,-4.1649-2.9322,-4.2743-.3754,-.0254-1.0644,.2717-1.3633,.3791-4.7881,2.1318-9.4382,4.5785-14.4142,6.2825-17.8398,6.7098-35.8321,12.9983-54.1277,18.3644-10.6198,3.5133-21.3137,6.9086-31.715,11.0427-2.9939,1.19-5.7348,3.1473-8.8924,3.787-1.6217,.3285 5.5767,-3.5384 4.0891,-2.8139-2.1692,1.0565-4.0999,2.545-6.1498,3.8175-3.8287,3.0735-8.5236,6.2534-9.4308,11.5515-.893,5.2148 2.4282,10.0365 4.6745,14.3601 1.3891,1.8979 2.711,3.847 4.1673,5.6938 9.9457,12.6131 22.0475,23.4346 34.3683,33.6505 6.0444,4.5132 12.2092,9.5598 19.3554,12.2966 1.6491,.6316 3.3794,1.1098 5.1345,1.3053 1.4972,.1668 5.3244,-1.5002 4.5136,-.2306-1.6887,2.6441-5.176,3.5469-7.7641,5.3203 1.4485,-1.0111 2.9813,-1.911 4.3453,-3.0333 7.5773,-6.2343 12.8885,-14.8407 15.2526,-24.3515 .7183,-2.8896 .999,-5.8707 1.4986,-8.806 .1439,-3.0552 .5095,-6.108 .4316,-9.1656-.3934,-15.4369-5.6294,-30.3333-10.905,-44.6508-4.4755,-11.0691-9.9218,-21.9803-11.8707,-33.8586-.0655,-2.8117 .003,-4.952 .6842,-7.6722 .0381,-.1521 .7931,-2.8601 1.1292,-3.0916 4.3169,-2.973 8.9144,-5.5165 13.3715,-8.2747 .3389,.0271 .6889,-.0085 1.0169,.0812 2.1057,.5758 3.1151,3.1886 3.9952,4.8962 1.8742,4.4256 2.1315,8.3635-.2532,12.7108-.541,.7748-1.0086,1.6064-1.6229,2.3244-4.3907,5.131-13.1728,8.7324-17.6417,11.2191-4.2744,2.3784-9.1918,3.3952-13.8934,4.496-1.8823,.2823-3.7498,.6922-5.6468,.847-6.776,.553-13.6979,-.6632-19.4819,-4.3006-.8304,-.6627-1.7251,-1.252-2.4912,-1.9881-3.2394,-3.1123-4.2505,-6.5472-3.1788,-10.8443 1.6159,-5.1378 4.1492,-7.6245 8.4678,-10.7873 8.3338,-4.9235 15.8682,-10.3542 25.256,-12.659l-11.7853,9.0117z" stroke="#000" stroke-linecap="round" stroke-linejoin="round" stroke-width="2"/>
<path d="m549.2332,-122.1847c-1.7835,2.0929-3.2088,4.4879-3.887,7.1628-.4856,2.6751 1.1102,3.361 3.3038,4.3209 3.5488,1.2997 6.5822,1.157 10.2167,.5143 4.8602,-1.6662 12.579,-6.4142-9.0248,5.5037-.3034,.1673 .5755,-.3901 .8315,-.6236 .6095,-.5556 .6709,-.7857 1.0696,-1.4819 .7338,-1.6463 .6619,-3.1872-.2832,-4.7035-1.2573,-1.1913-3.1474,-1.0796-4.7697,-1.1586-1.6755,.1549-3.2712,.5705-4.6332,1.5753l11.5699,-9.3176c1.6475,-.6237 3.3328,-1.0178 5.1127,-.8762 2.1175,.2092 4.2007,.5097 5.5739,2.3193 1.1184,1.8815 1.5604,3.8267 .9141,5.9743-2.3437,7.0718-11.2457,9.9308-18.1332,11.6144-3.6699,.4613-7.2979,.2601-10.7482,-1.2144-2.4801,-1.2798-4.7037,-2.8813-4.3281,-5.9859 .4579,-2.8821 1.8638,-5.464 3.5526,-7.8184l13.6626,-5.8049z" stroke="#000" stroke-linecap="round" stroke-linejoin="round" stroke-width="2"/>
<path d="m359.6057,-86.1453c2.813,-1.3672 5.4973,-2.9836 8.3991,-4.1626 1.8182,-1.1808 3.8128,-1.7264 5.9399,-1.959 1.9567,-.1487 3.9211,-.1237 5.8819,-.1169 1.9461,-.207 3.5945,.325 5.304,1.1594 1.1966,.9591 2.1411,2.2333 3.05,3.4655 .7904,1.4357 1.2548,3.0464 1.7411,4.6107 .436,1.6028 1.0296,3.1343 1.3438,4.7721 .3026,1.9227 .3232,3.8738 .3468,5.8155 .009,1.0012 .007,2.0024 .007,3.0036l-13.2174,6.733c.001,-.9962 .003,-1.9924-10e-4,-2.9886-.0137,-1.8636-.0171,-3.7343-.2514,-5.5862-.2608,-1.5964-.8449,-3.0648-1.2698,-4.6141-.4125,-1.4071-.8576,-2.8405-1.4965,-4.1522-.7779,-1.02-1.5348,-2.1846-2.6529,-2.8453-1.5703,-.6821-3.2079,-.7262-4.905,-.653-1.9192,.0085-3.8508,-8.13e-4-5.7505,.3092-2.0091,.4249-3.8194,1.2893-5.6483,2.207-2.8459,1.3235-5.5987,2.8407-8.3572,4.3355l11.5367,-9.3337z" stroke="#000" stroke-linecap="round" stroke-linejoin="round" stroke-width="2"/>
</g>
<text font-family="Bitstream Vera Sans" font-size="20" x="1215.9658" y="134.3103">
   <tspan text-align="center" text-anchor="middle" x="1215.9658" y="134.3103"></tspan>
  </text>
<text font-family="Bitstream Vera Sans" font-size="20" x="1968.7548" y="-279.741">
   <tspan text-align="center" text-anchor="middle" x="1968.7548" y="-279.741"></tspan>
  </text>
<text font-family="Bitstream Vera Sans" font-size="20" x="1737.5938" y="-96.5937">
   <tspan x="1737.5938" y="-96.5937"></tspan>
  </text>
<text font-family="Bitstream Vera Sans" font-size="20" x="1117.7035" y="244.0813">
   <tspan x="1117.7035" y="244.0813"></tspan>
  </text>
<path d="M59.0395,180.4051H310.2034A15.6552,15.6552 0 0 1 325.8586,196.0603V196.0603A15.6552,15.6552 0 0 1 310.2034,211.7155H59.0395A15.6552,15.6552 0 0 1 43.3843,196.0603V196.0603A15.6552,15.6552 0 0 1 59.0395,180.4051z" fill="#fff" stroke="#000" stroke-linecap="round" stroke-linejoin="round" stroke-width="4.5094" transform="matrix(1,-.00315,.00315,1,0,0)"/>
<path d="m101.5203,44.9288a36.8706,34.8503 0 1 1 -73.7411,0 36.8706,34.8503 0 1 1 73.7411,0z" stroke="#000" stroke-linecap="round" stroke-linejoin="round" stroke-width="7.491" transform="matrix(1.24255,-.00391,.00217,.68917,-14.1692,157.41977)"/>
<text font-family="Bitstream Vera Sans" font-size="40" transform="matrix(1,-.00315,.00315,1,0,0)" x="27.9414" y="202.3861">
   <tspan fill="#f9f9f9" x="27.9414" y="202.3861">111</tspan>
  </text>
<text font-family="Bitstream Vera Sans" font-size="20" transform="matrix(1,-.00315,.00315,1,0,0)" x="140.235" y="202.399">
   <tspan x="140.235" y="202.399">Hmm-le-jeu</tspan>
  </text>
<text font-family="Bitstream Vera Sans" font-size="20" x="1108.34" y="-244.324">
   <tspan text-align="center" text-anchor="middle" x="1108.34" y="-244.324"></tspan>
  </text>
<text font-family="Bitstream Vera Sans" font-size="20" x="1669.0947" y="-706.2727">
   <tspan text-align="center" text-anchor="middle" x="1669.0947" y="-706.2727"></tspan>
  </text>
<text font-family="Bitstream Vera Sans" font-size="20" x="1437.9348" y="-523.1247">
   <tspan x="1437.9348" y="-523.1247"></tspan>
  </text>
<path d="m28,518 129,0" fill="none" stroke="#000" transform="translate(0,152.3622)"/>
<path d="m28,285 128,0" fill="none" stroke="#000" transform="translate(0,152.3622)"/>
<path d="m157,398 137,0" fill="none" stroke="#000" transform="translate(0,152.3622)"/>
<path d="m438,620 0,126" fill="none" stroke="#000" transform="translate(0,152.3622)"/>
<path d="m736,460 124,0" fill="none" stroke="#000" transform="translate(0,152.3622)"/>
<text font-family="Bitstream Vera Sans" font-size="20" x="317" y="816.3622">
   <tspan text-align="center" text-anchor="middle" x="317" y="816.3622">Ta corde vient de</tspan>
   <tspan text-align="center" text-anchor="middle" x="317" y="841.3622">casser.</tspan>
   <tspan text-align="center" text-anchor="middle" x="317" y="866.3622">Passe 2 tour.</tspan>
  </text>
<path d="m404,61 0,122" fill="none" stroke="#000" transform="translate(0,152.3622)"/>
<path d="m638,63 0,119" fill="none" stroke="#000" transform="translate(0,152.3622)"/>
<g transform="translate(-723.1093,-98.0202)">
<path d="M936.3278,1061.843H952.4234V1067.3988H936.3278z" fill="#fff" opacity=".99" stroke="#000" stroke-linecap="round" stroke-width="1.6925" transform="matrix(.98494,-.17289,0,1,0,0)"/>
<path d="m924.0084,899.6452 3.5625,4.678" fill="none" stroke="#000" stroke-width=".8398"/>
<path d="m928.8178,898.8009 3.0281,4.5192" fill="none" stroke="#000" stroke-width=".8398"/>
<path d="m933.4491,898.2405 2.4938,4.1079" fill="none" stroke="#000" stroke-width=".8398"/>
<path d="M936.4182,1067.667H952.5138V1073.2228H936.4182z" fill="#fff" opacity=".99" stroke="#000" stroke-linecap="round" stroke-width="1.6925" transform="matrix(.98494,-.17289,0,1,0,0)"/>
<path d="m924.0975,905.4535 3.5625,4.678" fill="none" stroke="#000" stroke-width=".8398"/>
<path d="m928.9069,904.6093 3.0281,4.5192" fill="none" stroke="#000" stroke-width=".8398"/>
<path d="m933.5382,904.0489 2.4938,4.1079" fill="none" stroke="#000" stroke-width=".8398"/>
<path d="M936.5991,1074.0117H952.6947V1079.5675H936.5991z" fill="#fff" opacity=".99" stroke="#000" stroke-linecap="round" stroke-width="1.6925" transform="matrix(.98494,-.17289,0,1,0,0)"/>
<path d="m924.2756,911.767 3.5625,4.678" fill="none" stroke="#000" stroke-width=".8398"/>
<path d="m929.085,910.9228 3.0281,4.5192" fill="none" stroke="#000" stroke-width=".8398"/>
<path d="m933.7163,910.3623 2.4938,4.1079" fill="none" stroke="#000" stroke-width=".8398"/>
<path d="M936.5991,1080.3252H952.6947V1085.881H936.5991z" fill="#fff" opacity=".99" stroke="#000" stroke-linecap="round" stroke-width="1.6925" transform="matrix(.98494,-.17289,0,1,0,0)"/>
<path d="m924.2756,918.0805 3.5625,4.678" fill="none" stroke="#000" stroke-width=".8398"/>
<path d="m929.085,917.2362 3.0281,4.5192" fill="none" stroke="#000" stroke-width=".8398"/>
<path d="m933.7163,916.6758 2.4938,4.1079" fill="none" stroke="#000" stroke-width=".8398"/>
<path d="M936.5991,1086.8911H952.6947V1092.4469H936.5991z" fill="#fff" opacity=".99" stroke="#000" stroke-linecap="round" stroke-width="1.6925" transform="matrix(.98494,-.17289,0,1,0,0)"/>
<path d="m924.2756,924.6464 3.5625,4.678" fill="none" stroke="#000" stroke-width=".8398"/>
<path d="m929.085,923.8022 3.0281,4.5192" fill="none" stroke="#000" stroke-width=".8398"/>
<path d="m933.7163,923.2418 2.4938,4.1079" fill="none" stroke="#000" stroke-width=".8398"/>
<path d="m925.8049,933.4167 3.7882,.5051c0,0-14.3945,16.7895-12.3818,26.2535 1.2712,5.9775 7.7866,12.2464 13.8912,11.9645 6.0095,-.2775 11.4342,-7.0729 12.5313,-12.9879 1.7156,-9.2502-11.0102,-25.9878-11.0102,-25.9878l4.0405,-1.0102c0,0 13.4829,17.1572 11.852,26.7826-1.4799,8.7335-9.3012,19.343-18.159,19.4019-8.6311,.0574-16.6801,-10.13-17.944,-18.6682-1.4386,-9.7181 13.392,-26.2535 13.392,-26.2535z" fill="#fff" opacity=".99" stroke="#000" stroke-linecap="round" stroke-width="2"/>
<path d="M936.5275,1092.4346H952.6231V1097.9904H936.5275z" fill="#fff" opacity=".99" stroke="#000" stroke-linecap="round" stroke-width="1.6925" transform="matrix(.98494,-.17289,0,1,0,0)"/>
<path d="m924.2052,930.2023 3.5625,4.678" fill="none" stroke="#000" stroke-width=".8398"/>
<path d="m929.0146,929.3581 3.0281,4.5192" fill="none" stroke="#000" stroke-width=".8398"/>
<path d="m933.6458,928.7976 2.4938,4.1079" fill="none" stroke="#000" stroke-width=".8398"/>
<g transform="matrix(-.17284,.70985,-1,.2377,1966.6073,15.52783)">
<path d="M949.0911,1035.7654H965.1867V1041.3212H949.0911z" fill="#fff" opacity=".99" stroke="#000" stroke-linecap="round" stroke-width="1.6925" transform="matrix(.98494,-.17289,0,1,0,0)"/>
<path d="m936.5795,871.3609 3.5625,4.678" fill="none" stroke="#000" stroke-width=".8398"/>
<path d="m941.3889,870.5167 3.0281,4.5192" fill="none" stroke="#000" stroke-width=".8398"/>
<path d="m946.0202,869.9562 2.4938,4.1079" fill="none" stroke="#000" stroke-width=".8398"/>
</g>
<path d="m919.8214,338.75 5,-1.25" fill="none" stroke="#000" transform="translate(0,602.3622)"/>
<path d="m917.3214,341.9643 4.8214,-.8929" fill="none" stroke="#000" transform="translate(0,602.3622)"/>
<path d="m915.1786,346.4286 4.2857,-1.0714" fill="none" stroke="#000" transform="translate(0,602.3622)"/>
<path d="m912.8571,351.0714 5.3571,-1.7857" fill="none" stroke="#000" transform="translate(0,602.3622)"/>
<path d="m912.5,356.4286 4.8214,-1.9643" fill="none" stroke="#000" transform="translate(0,602.3622)"/>
<path d="m913.9286,361.7857 3.2143,-2.1429" fill="none" stroke="#000" transform="translate(0,602.3622)"/>
<path d="m919.6429,363.2143-3.5714,3.2143" fill="none" stroke="#000" transform="translate(0,602.3622)"/>
<path d="m921.4286,365.5357-1.6071,5.1786" fill="none" stroke="#000" transform="translate(0,602.3622)"/>
<path d="m924.4643,368.0357-.1786,6.0714" fill="none" stroke="#000" transform="translate(0,602.3622)"/>
<path d="m927.8571,369.8214 3.3929,5.3571" fill="none" stroke="#000" transform="translate(0,602.3622)"/>
<path d="m933.75,370 2.8571,3.0357" fill="none" stroke="#000" transform="translate(0,602.3622)"/>
<path d="m937.5,366.6071 4.8214,2.1429" fill="none" stroke="#000" transform="translate(0,602.3622)"/>
<path d="m940.3571,364.2857 5.3571,-.1786" fill="none" stroke="#000" transform="translate(0,602.3622)"/>
<path d="m943.2143,359.6429 4.6429,-1.0714" fill="none" stroke="#000" transform="translate(0,602.3622)"/>
<path d="m944.1071,354.6429 3.75,-3.9286" fill="none" stroke="#000" transform="translate(0,602.3622)"/>
<path d="m942.8571,349.4643 3.5714,-2.8571" fill="none" stroke="#000" transform="translate(0,602.3622)"/>
<path d="m941.0714,345.1786 3.5714,-3.3929" fill="none" stroke="#000" transform="translate(0,602.3622)"/>
<path d="m939.4643,341.7857 3.2143,-3.5714" fill="none" stroke="#000" transform="translate(0,602.3622)"/>
<path d="m940.5357,335.3571-3.2143,1.25" fill="none" stroke="#000" transform="translate(0,602.3622)"/>
</g>
<text font-family="Bitstream Vera Sans" font-size="20" x="799" y="427.3622">
   <tspan text-align="center" text-anchor="middle" x="799" y="427.3622">Tu échoues</tspan>
   <tspan text-align="center" text-anchor="middle" x="799" y="452.3622">ton partiel</tspan>
   <tspan text-align="center" text-anchor="middle" x="799" y="477.3622">de physique</tspan>
   <tspan text-align="center" text-anchor="middle" x="799" y="502.3622"></tspan>
   <tspan text-align="center" text-anchor="middle" x="799" y="527.3622">Avance</tspan>
   <tspan text-align="center" text-anchor="middle" x="799" y="552.3622">d'une case.</tspan>
  </text>
<text font-family="Bitstream Vera Sans" font-size="20" x="182.0061" y="939.6919">
   <tspan text-align="center" text-anchor="middle" x="182.0061" y="939.6919">Tu tentes de reculer de 4</tspan>
   <tspan text-align="center" text-anchor="middle" x="182.0061" y="964.6919">cases et tu segfault.</tspan>
   <tspan text-align="center" text-anchor="middle" x="182.0061" y="989.6919">Tu perds.</tspan>
  </text>
<text font-family="Bitstream Vera Sans" font-size="20" x="93" y="286.3622">
   <tspan text-align="center" text-anchor="middle" x="93" y="286.3622">Tu lis</tspan>
   <tspan text-align="center" text-anchor="middle" x="93" y="311.3622">hmm-la-bd.</tspan>
   <tspan text-align="center" text-anchor="middle" x="93" y="336.3622"></tspan>
   <tspan text-align="center" text-anchor="middle" x="93" y="361.3622">Tu gagnes.</tspan>
  </text>
<text font-family="Bitstream Vera Sans" font-size="20" x="798" y="682.3622">
   <tspan text-align="center" text-anchor="middle" x="798" y="682.3622">Tu décides</tspan>
   <tspan text-align="center" text-anchor="middle" x="798" y="707.3622">de fêter</tspan>
   <tspan text-align="center" text-anchor="middle" x="798" y="732.3622">dignement</tspan>
   <tspan text-align="center" text-anchor="middle" x="798" y="757.3622">tes partiels.</tspan>
   <tspan text-align="center" text-anchor="middle" x="798" y="782.3622"></tspan>
   <tspan text-align="center" text-anchor="middle" x="798" y="807.3622">Avance de</tspan>
   <tspan text-align="center" text-anchor="middle" x="798" y="832.3622">deux cases.</tspan>
  </text>
<text font-family="Bitstream Vera Sans" font-size="20" x="587" y="819.3622">
   <tspan text-align="center" text-anchor="middle" x="587" y="819.3622">Tu dois attendre un mail</tspan>
   <tspan text-align="center" text-anchor="middle" x="587" y="844.3622">de ton administration.</tspan>
   <tspan text-align="center" text-anchor="middle" x="587" y="869.3622">Passe 42 tours.</tspan>
  </text>
<text font-family="Bitstream Vera Sans" font-size="20" x="92" y="546.3622">
   <tspan text-align="center" text-anchor="middle" x="92" y="546.3622">Case</tspan>
   <tspan text-align="center" text-anchor="middle" x="92" y="571.3622">catapulte.</tspan>
   <tspan text-align="center" text-anchor="middle" x="92" y="596.3622"></tspan>
   <tspan text-align="center" text-anchor="middle" x="92" y="621.3622">Tue un</tspan>
   <tspan text-align="center" text-anchor="middle" x="92" y="646.3622">cochon.</tspan>
  </text>
<text font-family="Bitstream Vera Sans" font-size="20" x="906.0482" y="-408.591">
   <tspan text-align="center" text-anchor="middle" x="906.0482" y="-408.591"></tspan>
  </text>
<text font-family="Bitstream Vera Sans" font-size="40" x="1536.3573" y="-356.678">
   <tspan x="1536.3573" y="-356.678"></tspan>
  </text>
<g transform="matrix(.2509,0,0,.2509,-233.12709,329.9091)">
<path d="m1477.2138,545.6538c-4.6893,1.8675-9.3544,3.8023-14.0285,5.7145-3.3535,1.2604-6.6987,2.5214-10.0848,3.69-3.1907,.9054-6.2593,2.172-9.4597,3.0636-3.4348,.9814-6.8255,2.1268-10.2892,3.0045-2.9799,.5528-5.956,.7678-8.9174,1.404-2.8941,.5702-5.6825,1.5879-8.48,2.514-1.7596,1.0998-3.8256,1.3702-5.7427,2.0166-.824,.2778-1.5918,.702-2.403,1.0151-2.5905,.9431-5.0231,2.344-7.5966,3.3985-4.5844,2.0816-9.2192,3.9934-14.0308,5.4855-4.6956,1.8032-9.6703,2.6783-14.4242,4.293-3.9266,1.0152-7.7228,2.3644-11.4507,3.962-3.9252,1.5186-7.8355,3.0584-11.7431,4.6323-3.6325,1.707-7.3297,3.3198-11.104,4.7016-3.6783,1.5579-7.2142,3.4417-10.9778,4.7878-3.2133,1.3742-6.4298,2.7108-9.7067,3.9297-3.209,1.2859-6.2173,3.0417-9.4546,4.2432-3.5098,1.7632-7.1066,3.3254-10.7221,4.8684-3.5593,1.2303-6.8733,3.0451-10.4377,4.2538-2.4198,1.3596-5.0861,2.1381-7.5519,3.4027-3.0509,1.4373-6.194,2.6489-9.3238,3.9201-3.822,1.2471-7.6193,2.558-11.434,3.828-2.8395,.5493-5.4297,1.7921-8.2655,2.3467-3.0578,1.0406-6.1011,2.1297-9.1812,3.1083-3.5752,.9273-7.108,1.9199-10.7621,2.5002-3.3525,.3746-6.6098,1.4327-9.74,2.6591-4.2808,1.136-8.3633,2.8334-12.5289,4.2973-4.2043,1.1136-8.2122,2.858-12.426,3.9148-3.59,1.2649-7.3384,1.9812-10.9048,3.31-3.3464,.9698-6.5613,2.3083-9.8633,3.4136-3.4479,1.4093-6.9008,2.8058-10.3708,4.1578-2.9725,1.0905-6.2107,1.5516-9.0804,2.8912-2.4995,1.2187-5.091,2.1957-7.5947,3.4181-3.2307,1.3015-6.2461,3.0576-9.5331,4.2212-2.5293,1.2361-5.3152,2.1479-7.6552,3.7215-2.2045,1.0405-4.5206,1.6529-6.7429,2.668-.4605,.1698-.9393,.2964-1.3814,.5093-4.2446,2.0446 1.8507,-.544-2.3843,1.3359-1.2142,.539-2.419,.763-3.5927,1.3958-2.0024,.9229-4.2522,1.5354-6.0706,2.7961-.3181,.157-.6361,.314-.9542,.4711 0,0 16.5906,-13.3017 16.5906,-13.3017l0,0c.3107,-.1663 .6214,-.3326 .9322,-.499 2.0744,-.8306 4.0645,-1.8527 6.1525,-2.6567 2.5331,-.8967 4.8507,-2.2341 7.3625,-3.1865 2.2509,-.854 4.5465,-1.6292 6.621,-2.8719 2.5903,-1.1599 5.0911,-2.5138 7.7763,-3.4609 3.177,-1.3776 6.2699,-2.9442 9.4455,-4.3269 2.5548,-1.1541 5.1262,-2.2814 7.7305,-3.3162 3.0188,-.8959 6.052,-1.7705 9.0012,-2.8761 3.4584,-1.4085 6.9422,-2.7568 10.4306,-4.0885 3.2699,-1.1889 6.5495,-2.3412 9.8672,-3.3908 3.6399,-1.1113 7.3238,-2.071 10.956,-3.2092 4.1119,-1.2818 8.1879,-2.684 12.2864,-4.0091 4.1601,-1.5714 8.3798,-2.9475 12.6031,-4.3385 3.2575,-1.0576 6.5369,-2.0092 9.9568,-2.3817 3.5666,-.7102 7.0782,-1.6868 10.5619,-2.7238 3.1057,-1.0607 6.1935,-2.2014 9.3691,-3.0373 2.7039,-.7895 5.3693,-1.7027 8.0881,-2.4444 3.7828,-1.2923 7.6106,-2.455 11.3354,-3.9136 3.1397,-1.2761 6.2574,-2.6002 9.3196,-4.0542 2.5455,-1.0785 5.0822,-2.1757 7.63,-3.2456 3.4527,-1.4011 6.8449,-2.9515 10.3211,-4.2976 3.6189,-1.5683 7.1676,-3.2848 10.7743,-4.8774 3.1378,-1.4525 6.2649,-2.9339 9.4856,-4.1973 3.2413,-1.2955 6.4685,-2.6237 9.7048,-3.9315 3.6738,-1.5355 7.2442,-3.3131 10.955,-4.7621 3.7302,-1.4988 7.402,-3.1336 11.1002,-4.7084 3.9416,-1.4713 7.7622,-3.2228 11.7192,-4.655 3.7908,-1.4542 7.6196,-2.7344 11.5357,-3.8119 4.7867,-1.3866 9.6487,-2.5265 14.331,-4.2556 4.7816,-1.6639 9.4217,-3.6532 14.0333,-5.739 2.5499,-1.1833 5.04,-2.511 7.724,-3.3709 2.7084,-1.0199 5.5103,-1.788 8.1735,-2.9388 2.828,-.9484 5.7094,-1.775 8.6465,-2.307 2.9303,-.5373 5.9378,-.6296 8.8055,-1.5038 3.4207,-.9981 6.8478,-1.9745 10.2469,-3.0446 3.1467,-1.025 6.2632,-2.1418 9.4131,-3.1581 3.3172,-1.2164 6.6588,-2.3642 9.9311,-3.702 4.7072,-1.9573 9.4607,-3.7979 14.1735,-5.7412 0,0-16.6954,13.07-16.6954,13.07z" opacity=".99" stroke="#000" stroke-linecap="round" stroke-width="6"/>
<path d="m1428.9189,651.7683c26.1124,-54.5903 57.6846,-107.3019 54.6428,-171.9241 0,0 37.755,.5216 37.755,.5216-9.8797,50.8114-15.9186,96.8398-77.5135,212.0529l1.7102,171.4363-33.7575,-.7907-2.9452,-171.307c-45.039,-66.4275-54.3236,-139.4167-61.9845,-212.7038 0,-.5435 44.226,.1667 44.226,.1667-16.4262,-6.2803 7.9401,161.606 37.8667,172.5481z" fill="#fff" opacity=".99" stroke="#000" stroke-linecap="round" stroke-width="4.7952"/>
<g transform="translate(711.2809,-286.1663)">
<path d="m505.1927,888.7642 0,47.8884c0,20.007-16.1067,36.1137-36.1137,36.1137l-35.434,0c-20.007,0-36.1137,-16.1067-36.1137,-36.1137l0,-47.8884" fill="#fff" stroke="#000" stroke-linecap="round" stroke-linejoin="round" stroke-width="3.6422"/>
<path d="M467.9703,908.5757H488.3832A2.3409,2.3409 0 0 1 490.724,910.9165V917.8215A2.3409,2.3409 0 0 1 488.3832,920.1623H467.9703A2.3409,2.3409 0 0 1 465.6294,917.8215V910.9165A2.3409,2.3409 0 0 1 467.9703,908.5757z" stroke="#000" stroke-linecap="square" stroke-linejoin="round" stroke-width="3.7338"/>
<path d="m399.8395,913.6303c.5492,.0105 1.0986,.007 1.6478,.004 .363,-.002 .7259,-.004 1.0889,-.004 .2925,-4.4e-4 .585,-4e-4 .8775,-4e-4 .304,-6.3e-4 .6081,5.9e-4 .9121,9.9e-4 .3906,-.01 .7752,-3.6e-4 1.162,.0507 .3996,.0545 .8031,.0717 1.2062,.0827 .4052,-.0158 .8029,.0589 1.204,.099 .4079,.0368 .818,.0407 1.2274,.045 .4301,.002 .8603,.002 1.2904,6.4e-4 .3736,-7.6e-4 .7472,-9.9e-4 1.1208,-.002 .307,-7.7e-4 .6141,-9.8e-4 .9211,-.001 .2915,-8e-5 .583,-7e-5 .8745,-6e-5 .2915,10e-6 .5831,10e-6 .8746,10e-6 .3187,-3.9e-4 .6374,5.3e-4 .9561,.002 .3943,.002 .7885,4.4e-4 1.1828,-6.3e-4 .3709,-2.7e-4 .7418,4.6e-4 1.1126,.002 .3967,-1.7e-4 .7934,-8e-5 1.1902,-9.9e-4 .38,1.8e-4 .7599,7.3e-4 1.1399,1.6e-4 .3456,-10e-4 .6912,-.002 1.0367,2.5e-4 .5332,.003 1.0664,.004 1.5996,.006 .7266,.003 1.4533,.003 2.1799,10e-4 .5332,-10e-4 1.0664,-.005 1.5997,-.005 .4413,6.5e-4 .8826,-2e-5 1.3239,-.002 .0611,-2e-4 .1222,-4e-4 .1833,-6e-4l-1.746,1.1993c-.0605,-2.1e-4-.121,-4.1e-4-.1815,-6.1e-4-.4399,-10e-4-.8797,-.002-1.3196,-.002-.528,-2.2e-4-1.0559,-.004-1.5839,-.005-.7276,-.002-1.4552,-.002-2.1828,9.8e-4-.5391,.002-1.0782,.003-1.6173,.006-.3458,.002-.6916,.002-1.0375,2.6e-4-.3801,-5.7e-4-.7602,-3e-5-1.1404,1.5e-4-.3957,-9.9e-4-.7914,-8.9e-4-1.187,-10e-4-.3723,10e-4-.7447,.002-1.117,.002-.3937,-10e-4-.7873,-.003-1.181,-6.3e-4-.3206,.001-.6411,.002-.9617,.002-.2915,0-.5831,0-.8747,0-.2914,0-.5829,2e-5-.8743,-6e-5-.306,-1.3e-4-.612,-3.5e-4-.918,-9.6e-4-.372,-6.9e-4-.744,-8.4e-4-1.1161,-8.8e-4-.4302,-8.3e-4-.8603,7e-4-1.2904,-.004-.4148,-.006-.8303,-.0145-1.2428,-.0594-.3968,-.0446-.792,-.0972-1.193,-.087-.4078,-.0151-.8149,-.0435-1.2193,-.0968-.382,-.0404-.7654,-.0292-1.1493,-.0278-.3051,5.7e-4-.6103,.002-.9155,.001-.2921,2e-5-.5842,3e-5-.8763,-4e-4-.3589,-6.7e-4-.7177,-.002-1.0765,-.004-.5532,-.003-1.1065,-.006-1.6597,.004l1.7494,-1.2016z" stroke="#000" stroke-linecap="square" stroke-linejoin="round" stroke-width=".4767"/>
<path d="m491.3343,913.9069c.7039,.0118 1.4079,.0102 2.1119,.01 .6452,-8.9e-4 1.2905,-.003 1.9357,-.006 .4312,-.002 .8624,-.002 1.2935,-.003 .3398,-8.1e-4 .6796,-.002 1.0194,-.002 .2968,.0217 .5821,-.0575 .8738,-.0956 .2926,-.0341 .5877,-.039 .8821,-.0425 .2922,-.002 .5843,-10e-4 .8765,-8.5e-4 .2918,4e-4 .5836,5.3e-4 .8754,6e-4 .2918,5e-5 .5836,5e-5 .8754,5e-5 .2918,0 .5836,0 .8754,0 .3133,-6.1e-4 .6266,10e-4 .9398,10e-4 .3172,-2.5e-4 .6345,-6.8e-4 .9517,-9.3e-4 .2938,-1.8e-4 .5877,-2e-4 .8815,-2e-4 .1943,-10e-6 .0972,-10e-6 .2915,-10e-6l-1.7509,1.2027c-.1943,0-.0971,0-.2914,0-.2936,-2e-5-.5872,-4e-5-.8808,-2.2e-4-.3164,-2.3e-4-.6327,-6.8e-4-.9491,-9.3e-4-.3144,4e-5-.6287,.002-.9431,10e-4-.2918,1e-5-.5836,1e-5-.8754,1e-5-.2918,-1e-5-.5836,-1e-5-.8754,-1.2e-4-.2918,-1.3e-4-.5837,-3.7e-4-.8755,-7.2e-4-.2913,-2.3e-4-.5826,-10e-4-.8738,.004-.2893,.007-.5791,.0195-.8653,.0636-.2961,.0453-.5905,.0907-.8921,.0705-.3377,-4.3e-4-.6755,-10e-4-1.0132,-.002-.4283,-5.4e-4-.8565,-6.3e-4-1.2848,-.003-.6398,-.003-1.2796,-.005-1.9195,-.006-.7134,-4.8e-4-1.4269,-.002-2.1402,.01l1.747,-1.2z" stroke="#000" stroke-linecap="square" stroke-linejoin="round" stroke-width=".4767"/>
<path d="m451.0414,914.0702c.5339,.0676 1.0726,.0889 1.6105,.1048 .4801,.0116 .9604,.0116 1.4405,.0103 .3964,-5e-4 .7929,-6.3e-4 1.1893,-.002 .7958,.0205 1.592,.0104 2.3879,.007 .4809,-.004 .9619,-.005 1.4428,-.007 .3835,3e-5 .767,-4.2e-4 1.1506,6e-4 .4032,.001 .8064,-9.5e-4 1.2096,-3.1e-4 .3638,-8.6e-4 .7277,-7.5e-4 1.0915,-6.6e-4 .3644,5.6e-4 .7288,2.2e-4 1.0931,-5.1e-4 .3481,10e-4 .6961,1.1e-4 1.0442,-4.5e-4 .3406,10e-4 .6811,4.5e-4 1.0217,-4e-5 .3008,-4.3e-4 .6016,-5.6e-4 .9024,-6.3e-4 .2516,.0585 .5047,.1006 .7628,.1209 .2799,.0172 .5606,.0173 .8409,.018 .2917,1.8e-4 .5833,-4e-4 .875,-6.9e-4 .146,-1.4e-4 .292,-2e-4 .4381,-2.6e-4l-1.7508,1.2027c-.146,9e-5-.292,1.8e-4-.438,3.4e-4-.292,3.2e-4-.584,10e-4-.876,-3.8e-4-.2852,-.002-.5709,-.005-.8549,-.0331-.2506,-.0294-.496,-.0897-.7478,-.105-.3002,-7e-5-.6004,-2e-4-.9006,-6.3e-4-.3405,-4.7e-4-.681,-.001-1.0215,-4e-5-.3476,-5.6e-4-.6953,-.002-1.0429,-4.4e-4-.3639,-7.3e-4-.7278,-10e-4-1.0916,-5.2e-4-.3632,1.2e-4-.7264,1.9e-4-1.0895,-6.6e-4-.4029,6.5e-4-.8058,-.002-1.2087,-3.1e-4-.3841,10e-4-.7682,5.8e-4-1.1523,6e-4-.4742,-.002-.9483,-.003-1.4224,-.007-.8027,-.004-1.6058,-.0132-2.4083,.007-.3958,-4.4e-4-.7915,4.6e-4-1.1873,-3.6e-4-.4785,-.003-.957,-.007-1.4353,-.0226-.5477,-.0212-1.0947,-.0538-1.64,-.107l1.7673,-1.1825z" stroke="#000" stroke-linecap="square" stroke-linejoin="round" stroke-width=".4767"/>
<path d="m412.5369,876.2569 0,18.5432" fill="none" stroke="#000" stroke-linecap="round" stroke-width="4.8046"/>
<path d="m422.061,874.5025 0,18.5432" fill="none" stroke="#000" stroke-linecap="round" stroke-width="4.8046"/>
<path d="m430.9979,875.9668 0,18.5432" fill="none" stroke="#000" stroke-linecap="round" stroke-width="4.8046"/>
<path d="m442.6746,874.7996 0,18.5432" fill="none" stroke="#000" stroke-linecap="round" stroke-width="4.8046"/>
<path d="m452.8333,876.9862 0,18.5432" fill="none" stroke="#000" stroke-linecap="round" stroke-width="4.8046"/>
<path d="m464.4625,876.8108 0,18.5432" fill="none" stroke="#000" stroke-linecap="round" stroke-width="4.8046"/>
<path d="m474.9651,875.0966 0,18.5432" fill="none" stroke="#000" stroke-linecap="round" stroke-width="4.8046"/>
<path d="m484.8805,878.1335 0,18.5432" fill="none" stroke="#000" stroke-linecap="round" stroke-width="4.8046"/>
<path d="m495.5535,877.7649 0,18.5432" fill="none" stroke="#000" stroke-linecap="round" stroke-width="4.8046"/>
<path d="m404.6528,880.9871 0,18.5432" fill="none" stroke="#000" stroke-linecap="round" stroke-width="4.8046"/>
<path d="M427.3174,908.7845H447.7303A2.3409,2.3409 0 0 1 450.0712,911.1254V918.0303A2.3409,2.3409 0 0 1 447.7303,920.3712H427.3174A2.3409,2.3409 0 0 1 424.9766,918.0303V911.1254A2.3409,2.3409 0 0 1 427.3174,908.7845z" stroke="#000" stroke-linecap="square" stroke-linejoin="round" stroke-width="3.7338"/>
<path d="m435.4329,950.9125 21.4286,2.8571" fill="none" stroke="#000"/>
</g>
<path d="M1296.9174,661.8552H1314.1932A11.3621,11.3621 0 0 1 1325.5553,673.2173V713.3503A11.3621,11.3621 0 0 1 1314.1932,724.7124H1296.9174A11.3621,11.3621 0 0 1 1285.5553,713.3503V673.2173A11.3621,11.3621 0 0 1 1296.9174,661.8552z" opacity=".99" stroke="#000" stroke-linecap="round" stroke-width="6" transform="matrix(.99418,-.10773,.10773,.99418,0,0)"/>
<path d="M-1570.0239,250.6159H-1553.5147A11.7454,11.7454 0 0 1 -1541.7693,262.3613V301.7276A11.7454,11.7454 0 0 1 -1553.5147,313.473H-1570.0239A11.7454,11.7454 0 0 1 -1581.7693,301.7276V262.3613A11.7454,11.7454 0 0 1 -1570.0239,250.6159z" opacity=".99" stroke="#000" stroke-linecap="round" stroke-width="6" transform="matrix(-.98592,-.1672,-.1672,.98592,0,0)"/>
<path d="M521.3379,1172.7233H521.3379A10,10 0 0 1 531.3379,1182.7233V1205.5804A10,10 0 0 1 521.3379,1215.5804H521.3379A10,10 0 0 1 511.3379,1205.5804V1182.7233A10,10 0 0 1 521.3379,1172.7233z" opacity=".99" stroke="#000" stroke-linecap="round" stroke-width="6" transform="matrix(.81739,-.57609,.57609,.81739,0,0)"/>
<path d="m1358.7155,553.0514c-5.2385,2.5394-10.309,5.3938-15.6245,7.7746-3.0996,2.0319-6.7895,2.9452-9.8976,4.9219-6.8611,3.6277-3.0152,1.6119 15.8353,-9.1554 .4134,-.2361-.8149,.4931-1.2135,.7534-1.6899,1.1034-3.3529,2.2241-5.0729,3.2829-11.2112,7.5343-22.6432,13.4484-35.1632,18.0022-5.3946,1.7746-10.5375,4.1407-15.7773,6.3032-.7297,.3482-1.4411,.7375-2.189,1.0447-2.4014,.9864-4.9087,1.6932-7.2628,2.812-1.7643,.8385-3.4577,1.8191-5.1984,2.7056-6.1653,3.3166-12.5692,6.137-18.9817,8.9312-6.2711,2.7755-12.5471,5.5601-18.616,8.7586-4.4099,2.0611-8.6235,4.5078-12.9992,6.6321-4.1469,2.0457-8.1845,4.3123-12.2856,6.4523-5.6293,3.0079-11.4766,5.5732-17.2542,8.2775-1.0093,.4784-2.0427,.9089-3.0278,1.4353-.9538,.5097-1.8432,1.1321-2.7818,1.6691-3.5754,2.0461-7.2901,3.8091-10.8339,5.9121-5.0287,2.7938-10.3551,4.9843-15.4236,7.6903 1.4092,-.9751-5.1651,2.7587-3.8965,2.0276 35.9788,-20.7339 4.9595,-2.4761-7.1975,3.9051-.6288,.37-1.2562,.7422-1.8862,1.1099-1.5494,.9043-2.6101,1.5145-4.1904,2.3923-.7774,.4318-3.1083,1.7286-2.3393,1.2821 7.2118,-4.1867 40.4448,-23.2269-4.518,2.5546 5.3839,-3.084 10.7563,-6.1882 16.1516,-9.252 .5559,-.3156-1.078,.6878-1.6319,1.0069-6.532,3.7623-13.0644,7.5245-19.6251,11.2366-5.6396,3.191 22.3821,-13.0664 16.8618,-9.6731-16.4839,10.1327-12.5669,8.5223-20.5033,11.645 45.3907,-26.0003-1.2854,.7927-1.9433,1.1631-5.7537,3.2394 11.4421,-6.5935 17.1695,-9.8792 .4304,-.2469-.8465,.5183-1.2783,.7626-19.8595,11.2347-12.9452,7.926-21.4418,11.9299-3.2974,1.6967-6.8587,2.9872-10.0185,4.9291-1.1755,.5455-2.276,1.0661-3.3855,1.7171-.325,.1906-1.3351,.698-1.0091,.5092 6.0587,-3.5078 42.5741,-24.4247-2.123,1.1907-1.3477,.3432-2.5132,1.0553-3.6859,1.7693 0,0 16.5094,-13.3005 16.5094,-13.3005l0,0c1.24,-.6011 2.5095,-1.1301 3.7282,-1.7735-37.3491,21.6105-5.9163,2.923 6.4816,-3.4087 3.3572,-1.5771 6.6567,-3.2726 10.04,-4.7957 7.5023,-3.5209 2.4441,-1.209-14.8782,8.8593-.4163,.242 .8242,-.4986 1.2409,-.74 6.3988,-3.7065 12.816,-7.3813 19.2056,-11.1036 .6512,-.3794-49.9962,28.8523 2.001,-1.0525 .3617,-.2011 1.4429,-.8111 1.085,-.6032-5.6512,3.2826-22.6343,13.0793-16.9654,9.8274 64.63,-37.0738-12.0301,7.0453 4.5038,-2.5943 6.6276,-3.864 13.2607,-7.7184 19.891,-11.5777-37.6466,21.8327 1.36,-.8817 12.9994,-7.3436 .6374,-.3371 1.2744,-.6753 1.9124,-1.0114 .5942,-.313 2.3632,-1.2767 1.7843,-.936-5.4151,3.1875-21.771,12.5595-16.2952,9.4774 7.9157,-4.4554 15.5009,-9.4446 23.6647,-13.4127 5.1152,-2.5271 10.3229,-4.8754 15.2843,-7.7059 5.5068,-3.0715 11.056,-6.1005 16.726,-8.8546 5.8038,-2.7065 11.6384,-5.356 17.2689,-8.4149 4.1249,-2.1839 8.1992,-4.4673 12.4047,-6.4947 4.2685,-2.205 8.5357,-4.412 12.8453,-6.5361 6.119,-3.0597 12.3569,-5.8721 18.6286,-8.6034 6.4235,-2.8238 12.7825,-5.7846 18.9789,-9.083 4.8282,-2.4488 9.8347,-4.4074 14.8251,-6.4937 5.1969,-2.1613 10.3744,-4.3495 15.7136,-6.1486 2.2885,-.8569 4.1388,-1.5159 6.3811,-2.4909 7.3606,-3.2009 23.6982,-12.8129-7.3417,4.949 8.8982,-5.2137 16.954,-11.8238 26.6282,-15.7736 3.2971,-1.5169 6.5982,-3.0205 9.8257,-4.683 5.311,-2.5146 10.4702,-5.3279 15.7303,-7.9455 0,0-16.5491,13.2377-16.5491,13.2377z" opacity=".99" stroke="#000" stroke-linecap="round" stroke-width="6"/>
</g>
<text font-family="Bitstream Vera Sans" font-size="20" x="94" y="727.7347">
   <tspan text-align="center" text-anchor="middle" x="94" y="727.7347">Passe ton</tspan>
   <tspan text-align="center" text-anchor="middle" x="94" y="752.7347">tour sans</tspan>
   <tspan text-align="center" text-anchor="middle" x="94" y="777.7347">raison.</tspan>
   <tspan text-align="center" text-anchor="middle" x="94" y="802.7347"></tspan>
   <tspan text-align="center" text-anchor="middle" x="94" y="827.7347">(tu rages,</tspan>
   <tspan text-align="center" text-anchor="middle" x="94" y="852.7347">tu bois)</tspan>
  </text>
<text font-family="Bitstream Vera Sans" font-size="20" x="840" y="922.3622">
   <tspan x="840" y="922.3622">0</tspan>
  </text>
<text font-family="Bitstream Vera Sans" font-size="20" x="515" y="922.3622">
   <tspan x="515" y="922.3622">1</tspan>
  </text>
<text font-family="Bitstream Vera Sans" font-size="20" x="309" y="922.3622">
   <tspan x="309" y="922.3622">2</tspan>
  </text>
<text font-family="Bitstream Vera Sans" font-size="20" x="137" y="890.3622">
   <tspan x="137" y="890.3622">3</tspan>
  </text>
<text font-family="Bitstream Vera Sans" font-size="20" x="139" y="662.3622">
   <tspan x="139" y="662.3622">4</tspan>
  </text>
<text font-family="Bitstream Vera Sans" font-size="20" x="139" y="429.3622">
   <tspan x="139" y="429.3622">5</tspan>
  </text>
<text font-family="Bitstream Vera Sans" font-size="20" x="165" y="323.3622">
   <tspan x="165" y="323.3622">6</tspan>
  </text>
<text font-family="Bitstream Vera Sans" font-size="20" x="412" y="326.3622">
   <tspan x="412" y="326.3622">7</tspan>
  </text>
<text font-family="Bitstream Vera Sans" font-size="20" x="646" y="325.3622">
   <tspan x="646" y="325.3622">8</tspan>
  </text>
<text font-family="Bitstream Vera Sans" font-size="20" x="742.0555" y="356.6603">
   <tspan x="742.0555" y="356.6603">9</tspan>
  </text>
<text font-family="Bitstream Vera Sans" font-size="20" x="740" y="632.3622">
   <tspan x="740" y="632.3622">10</tspan>
  </text>
<text font-family="Bitstream Vera Sans" font-size="20" x="697.5" y="793.3622">
   <tspan x="697.5" y="793.3622">11</tspan>
  </text>
<text font-family="Bitstream Vera Sans" font-size="20" x="410" y="793.3622">
   <tspan x="410" y="793.3622">12</tspan>
  </text>
<text font-family="Bitstream Vera Sans" font-size="20" x="267" y="761.3622">
   <tspan x="267" y="761.3622">13</tspan>
  </text>
<text font-family="Bitstream Vera Sans" font-size="20" x="267" y="545.3622">
   <tspan x="267" y="545.3622">14</tspan>
  </text>
<text font-family="Bitstream Vera Sans" font-size="20" x="320.75" y="460.3622">
   <tspan x="320.75" y="460.3622">15</tspan>
  </text>
<text font-family="Bitstream Vera Sans" font-size="20" x="607.0399" y="491.3119">
   <tspan x="607.0399" y="491.3119">16</tspan>
  </text>
<text font-family="Bitstream Vera Sans" font-size="20" x="565.5399" y="643.7158">
   <tspan x="565.5399" y="643.7158">17</tspan>
  </text>
<text font-family="Bitstream Vera Sans" font-size="20" x="568.8431" y="491.6048">
   <tspan x="568.8431" y="491.6048">42</tspan>
  </text>
<text font-family="Bitstream Vera Sans" font-size="20" x="227.5" y="611.9896">
   <tspan text-align="center" text-anchor="middle" x="227.5" y="611.9896">Tu viens</tspan>
   <tspan text-align="center" text-anchor="middle" x="227.5" y="636.9896">de te</tspan>
   <tspan text-align="center" text-anchor="middle" x="227.5" y="661.9896">réveiller.</tspan>
   <tspan text-align="center" text-anchor="middle" x="227.5" y="686.9896"></tspan>
   <tspan text-align="center" text-anchor="middle" x="227.5" y="711.9896">Retourne</tspan>
   <tspan text-align="center" text-anchor="middle" x="227.5" y="736.9896">case Départ.</tspan>
  </text>
<path d="m108.0029,1021.9764 0,.8445 4.8646,6.7764-7.079,5.6579 2.2144,4.6257 0,.8445 .8446,0 92.0898,0 .8446,0 0,-.8445 0,-17.06 0,-.8445-.8446,0-92.0898,0-.8446,0zm1.6891,1.6891 90.4007,0 0,15.3708-90.4007,0-2.5174,-3.567 7.382,-5.7369-4.8646,-6.0669z" opacity=".99"/>
<path d="m137.641,1023.0517 0,16.4316" fill="none" stroke="#000" stroke-width="2.162"/>
<path d="m168.27,1023.0517 0,16.4316" fill="none" stroke="#000" stroke-width="2.162"/>
<text font-family="Bitstream Vera Sans" font-size="10.889" x="240.5946" y="1025.6677">
   <tspan x="240.5946" y="1025.6677">le fu-</tspan>
  </text>
<path d="M864.8536,568.5205H866.764V580.4304H864.8536z" fill="#fff" opacity=".99" stroke="#000" stroke-linecap="round" stroke-width="1.0624" transform="rotate(45.047)"/>
<path d="m201.4629,1013.8323 2.407,-2.403 6.4163,6.427 1.5886,-1.586 3.5761,9.2625-9.4492,-3.3992 1.7812,-1.7782-6.3201,-6.5231z" stroke="#000" stroke-width=".6196"/>
<text font-family="Bitstream Vera Sans" font-size="15.126" x="180.4521" y="1036.7275">
   <tspan x="180.4521" y="1036.7275">0</tspan>
  </text>
<text font-family="Bitstream Vera Sans" font-size="15.126" x="148.4864" y="1036.9418">
   <tspan x="148.4864" y="1036.9418">1</tspan>
  </text>
<text font-family="Bitstream Vera Sans" font-size="15.126" x="115.9825" y="1036.9418">
   <tspan x="115.9825" y="1036.9418">2</tspan>
  </text>
<path d="m243.7746,1030.8622-8,10.5" fill="none" stroke="#000"/>
<text font-family="Bitstream Vera Sans" font-size="20" x="430" y="932.8622">
   <tspan text-align="center" text-anchor="middle" x="430" y="932.8622">T'es sur iPhone,</tspan>
   <tspan text-align="center" text-anchor="middle" x="430" y="957.8622">tu n'as pas de</tspan>
   <tspan text-align="center" text-anchor="middle" x="430" y="982.8622">réseau pour voir</tspan>
   <tspan text-align="center" text-anchor="middle" x="430" y="1007.8622">cette image.</tspan>
   <tspan text-align="center" text-anchor="middle" x="430" y="1032.8622">Tu perds.</tspan>
  </text>
<text font-family="Bitstream Vera Sans" font-size="20" x="516.188" y="370.0041">
   <tspan text-align="center" text-anchor="middle" x="516.188" y="370.0041">Ton projet est maintenant bien</tspan>
   <tspan text-align="center" text-anchor="middle" x="516.188" y="395.0041">avancé. Il est temps de supprimer</tspan>
   <tspan text-align="center" text-anchor="middle" x="516.188" y="420.0041">toutes tes sources.</tspan>
   <tspan text-align="center" text-anchor="middle" x="516.188" y="445.0041">Retourne case départ.</tspan>
  </text>
<text font-family="Bitstream Vera Sans" font-size="19.518" x="669.0825" y="518.2067">
   <tspan text-align="center" text-anchor="middle" x="669.0825" y="518.2067">Tu t'es</tspan>
   <tspan text-align="center" text-anchor="middle" x="669.0825" y="542.6042">vraiment</tspan>
   <tspan text-align="center" text-anchor="middle" x="669.0825" y="567.0019">fais chier</tspan>
   <tspan text-align="center" text-anchor="middle" x="669.0825" y="591.3995">à lire toutes</tspan>
   <tspan text-align="center" text-anchor="middle" x="669.0825" y="615.7971">les cases</tspan>
   <tspan text-align="center" text-anchor="middle" x="669.0825" y="640.1947">dans le bon</tspan>
   <tspan text-align="center" text-anchor="middle" x="669.0825" y="664.5923">ordre.</tspan>
   <tspan text-align="center" text-anchor="middle" x="669.0825" y="688.9899"></tspan>
   <tspan text-align="center" text-anchor="middle" x="669.0825" y="713.3875">Avance de</tspan>
   <tspan text-align="center" text-anchor="middle" x="669.0825" y="737.7852">deux cases.</tspan>
  </text>
<g transform="matrix(.26499,0,0,.26499,71.38925,545.48101)">
<path d="M956.3612,449.2148H1109.8711A9.0319,9.0319 0 0 1 1118.903,458.2467V503.484A9.0319,9.0319 0 0 1 1109.8711,512.5159H956.3612A9.0319,9.0319 0 0 1 947.3293,503.484V458.2467A9.0319,9.0319 0 0 1 956.3612,449.2148z" stroke="#000" stroke-linecap="round" stroke-linejoin="round" stroke-width="2.7076" transform="matrix(1,0,-.93627,.35128,0,0)"/>
<path d="M949.8665,444.9962H1117.6268A6.1895,9.0319 0 0 1 1123.8163,454.0281V511.4655A6.1895,9.0319 0 0 1 1117.6268,520.4974H949.8665A6.1895,9.0319 0 0 1 943.6771,511.4655V454.0281A6.1895,9.0319 0 0 1 949.8665,444.9962z" stroke="#000" stroke-linecap="round" stroke-linejoin="round" stroke-width="2.7076" transform="matrix(1,0,-.93627,.35128,0,0)"/>
<path d="M494.6171,155.667H494.6171A5.1786,5.1786 0 0 1 499.7957,160.8456V174.417A5.1786,5.1786 0 0 1 494.6171,179.5956H494.6171A5.1786,5.1786 0 0 1 489.4385,174.417V160.8456A5.1786,5.1786 0 0 1 494.6171,155.667z" fill="#fff" stroke="#000" stroke-linecap="round" stroke-linejoin="round" stroke-width="3"/>
<path d="M629.6528,156.0599H629.6528A5.1786,5.1786 0 0 1 634.8314,161.2384V174.8099A5.1786,5.1786 0 0 1 629.6528,179.9884H629.6528A5.1786,5.1786 0 0 1 624.4742,174.8099V161.2384A5.1786,5.1786 0 0 1 629.6528,156.0599z" fill="#fff" stroke="#000" stroke-linecap="round" stroke-linejoin="round" stroke-width="3"/>
<path d="M675.1886,137.667H675.1886A5.1786,5.1786 0 0 1 680.3672,142.8456V156.417A5.1786,5.1786 0 0 1 675.1886,161.5956H675.1886A5.1786,5.1786 0 0 1 670.01,156.417V142.8456A5.1786,5.1786 0 0 1 675.1886,137.667z" fill="#fff" stroke="#000" stroke-linecap="round" stroke-linejoin="round" stroke-width="3"/>
<path d="M538.1885,138.7384H538.1885A5.1786,5.1786 0 0 1 543.3671,143.917V157.4884A5.1786,5.1786 0 0 1 538.1885,162.667H538.1885A5.1786,5.1786 0 0 1 533.01,157.4884V143.917A5.1786,5.1786 0 0 1 538.1885,138.7384z" fill="#fff" stroke="#000" stroke-linecap="round" stroke-linejoin="round" stroke-width="3"/>
<path d="M897.0268,848.7417H1081.2599A10.8396,10.8396 0 0 1 1092.0995,859.5813V913.8722A10.8396,10.8396 0 0 1 1081.2599,924.7118H897.0268A10.8396,10.8396 0 0 1 886.1872,913.8722V859.5813A10.8396,10.8396 0 0 1 897.0268,848.7417z" fill="#fff" stroke="#000" stroke-linecap="round" stroke-linejoin="round" stroke-width="3.2495" transform="matrix(.78777,0,-.73757,.27673,457.4012,-94.08161)"/>
<path d="M892.6436,843.6788H1076.8768A10.8396,10.8396 0 0 1 1087.7164,854.5183V908.8093A10.8396,10.8396 0 0 1 1076.8768,919.6488H892.6436A10.8396,10.8396 0 0 1 881.8041,908.8093V854.5183A10.8396,10.8396 0 0 1 892.6436,843.6788z" fill="#fff" stroke="#000" stroke-linecap="round" stroke-linejoin="round" stroke-width="3.2495" transform="matrix(.78777,0,-.73757,.27673,457.4012,-94.08161)"/>
<path d="M897.0268,848.7417H1081.2599A10.8396,10.8396 0 0 1 1092.0995,859.5813V913.8722A10.8396,10.8396 0 0 1 1081.2599,924.7118H897.0268A10.8396,10.8396 0 0 1 886.1872,913.8722V859.5813A10.8396,10.8396 0 0 1 897.0268,848.7417z" fill="#fff" stroke="#000" stroke-linecap="round" stroke-linejoin="round" stroke-width="3.2495" transform="matrix(.78777,0,-.73757,.27673,457.68254,-96.52651)"/>
<path d="M892.6436,843.6788H1076.8768A10.8396,10.8396 0 0 1 1087.7164,854.5183V908.8093A10.8396,10.8396 0 0 1 1076.8768,919.6488H892.6436A10.8396,10.8396 0 0 1 881.8041,908.8093V854.5183A10.8396,10.8396 0 0 1 892.6436,843.6788z" fill="#fff" stroke="#000" stroke-linecap="round" stroke-linejoin="round" stroke-width="3.2495" transform="matrix(.78777,0,-.73757,.27673,457.68254,-96.52651)"/>
<path d="M897.0268,848.7417H1081.2599A10.8396,10.8396 0 0 1 1092.0995,859.5813V913.8722A10.8396,10.8396 0 0 1 1081.2599,924.7118H897.0268A10.8396,10.8396 0 0 1 886.1872,913.8722V859.5813A10.8396,10.8396 0 0 1 897.0268,848.7417z" fill="#fff" stroke="#000" stroke-linecap="round" stroke-linejoin="round" stroke-width="3.2495" transform="matrix(.78777,0,-.73757,.27673,457.89355,-99.30481)"/>
<path d="M892.6436,843.6788H1076.8768A10.8396,10.8396 0 0 1 1087.7164,854.5183V908.8093A10.8396,10.8396 0 0 1 1076.8768,919.6488H892.6436A10.8396,10.8396 0 0 1 881.8041,908.8093V854.5183A10.8396,10.8396 0 0 1 892.6436,843.6788z" fill="#fff" stroke="#000" stroke-linecap="round" stroke-linejoin="round" stroke-width="3.2495" transform="matrix(.78777,0,-.73757,.27673,457.89355,-99.30481)"/>
<path d="M518.4902,297.3797H570.6435A3.0109,3.0109 0 0 1 573.6544,300.3906V342.0985A3.0109,3.0109 0 0 1 570.6435,345.1094H518.4902A3.0109,3.0109 0 0 1 515.4793,342.0985V300.3906A3.0109,3.0109 0 0 1 518.4902,297.3797z" fill="#fff" stroke="#000" stroke-linecap="round" stroke-linejoin="round" stroke-width="3.1126" transform="matrix(.92897,-.37014,0,1,0,0)"/>
<path d="M521.4805,299.1178H573.6338A3.0109,3.0109 0 0 1 576.6447,302.1287V343.8367A3.0109,3.0109 0 0 1 573.6338,346.8475H521.4805A3.0109,3.0109 0 0 1 518.4696,343.8367V302.1287A3.0109,3.0109 0 0 1 521.4805,299.1178z" fill="#fff" stroke="#000" stroke-linecap="round" stroke-linejoin="round" stroke-width="3.1126" transform="matrix(.92897,-.37014,0,1,0,0)"/>
<path d="m119.198,282.6935c0,8.996-23.4045,16.2887-52.2754,16.2887-28.8709,0-52.2754,-7.2927-52.2754,-16.2887 0,-8.996 23.4045,-16.2887 52.2754,-16.2887 28.8709,0 52.2754,7.2927 52.2754,16.2887z" fill="#fff" stroke="#000" stroke-linecap="round" stroke-linejoin="round" stroke-width="3" transform="matrix(.59838,-.3161,.28511,.66342,397.74556,-32.0655)"/>
<path d="m548.5248,66.4186 22.3184,24.4939c9.3242,10.2332 8.5925,25.9779-1.6406,35.3022l-18.1238,16.514c-10.2332,9.3242-25.9779,8.5925-35.3022,-1.6406l-22.3184,-24.4939" fill="#fff" stroke="#000" stroke-linecap="round" stroke-linejoin="round" stroke-width="2.5203"/>
<path d="M306.322,432.2448H322.6066A.5399,.5399 0 0 1 323.1466,432.7847V439.7224A.5399,.5399 0 0 1 322.6066,440.2623H306.322A.5399,.5399 0 0 1 305.782,439.7224V432.7847A.5399,.5399 0 0 1 306.322,432.2448z" stroke="#000" stroke-linecap="square" stroke-linejoin="round" stroke-width="2.5837" transform="matrix(.73917,-.67352,.67352,.73917,0,0)"/>
<path d="M334.963,432.2448H349.0879A1.6198,1.6198 0 0 1 350.7077,433.8645V438.6425A1.6198,1.6198 0 0 1 349.0879,440.2623H334.963A1.6198,1.6198 0 0 1 333.3432,438.6425V433.8645A1.6198,1.6198 0 0 1 334.963,432.2448z" stroke="#000" stroke-linecap="square" stroke-linejoin="round" stroke-width="2.5837" transform="matrix(.73917,-.67352,.67352,.73917,0,0)"/>
<path d="m506.2277,128.2369c.2858,-.2506 .5651,-.5085 .8447,-.7659 .1847,-.1703 .3696,-.3401 .555,-.5096 .1494,-.1365 .299,-.2728 .4486,-.4092 .1552,-.142 .3113,-.2831 .4671,-.4245 .1953,-.187 .3963,-.3615 .6179,-.5156 .2298,-.1584 .4442,-.3376 .6555,-.5199 .1999,-.1969 .4381,-.3441 .662,-.5105 .2258,-.1713 .4373,-.3604 .6488,-.549 .2211,-.1993 .441,-.3999 .6603,-.6011 .1907,-.1745 .3816,-.3489 .5722,-.5235 .1567,-.1435 .3136,-.2867 .4706,-.4299 .149,-.1359 .2981,-.2717 .4472,-.4076 .1491,-.1359 .2982,-.2717 .4474,-.4076 .1628,-.1487 .3262,-.2968 .4899,-.4446 .2028,-.1825 .4035,-.3673 .6047,-.5516 .1896,-.173 .3796,-.3455 .5698,-.5178 .2028,-.185 .4058,-.3698 .6082,-.5552 .1944,-.177 .389,-.3538 .5831,-.5312 .1762,-.1617 .3528,-.3229 .5304,-.483 .2739,-.2472 .5474,-.4948 .821,-.7424 .373,-.3372 .7449,-.6756 1.1154,-1.0154 .2721,-.2492 .543,-.4997 .8157,-.7483 .226,-.2053 .4514,-.4113 .6764,-.6178 .0312,-.0286 .0623,-.0572 .0935,-.0857l-.3341,1.4271c-.0311,.0281-.0621,.0562-.0931,.0843-.2257,.2042-.451,.4089-.6756,.6142-.2702,.2459-.542,.49-.8126,.7354-.3733,.3378-.7451,.6773-1.116,1.0178-.2749,.2522-.5498,.5043-.8244,.7568-.1761,.162-.353,.3231-.5305,.4836-.1947,.1769-.3889,.3543-.5832,.5315-.2028,.1839-.4052,.3684-.6077,.5527-.19,.1741-.3801,.348-.5706,.5214-.2019,.1829-.4041,.3654-.6044,.5501-.1633,.1501-.3268,.3-.491,.4492-.1491,.1359-.2982,.2717-.4474,.4076-.149,.1358-.2981,.2717-.4472,.4074-.1566,.1426-.3132,.2851-.47,.4273-.1906,.173-.381,.3463-.5713,.5197-.2204,.2001-.4397,.4013-.662,.5993-.2147,.1904-.4314,.3795-.6633,.5488-.2237,.1621-.4504,.3194-.6507,.5116-.2156,.1823-.4371,.3575-.6687,.5187-.2142,.1574-.4051,.3418-.6008,.5214-.1558,.1425-.3113,.2853-.4677,.4272-.1494,.1361-.2988,.2723-.4484,.4082-.1839,.1669-.3681,.3334-.5526,.4996-.2843,.2564-.5689,.5125-.847,.7756l.3347,-1.4299z" stroke="#000" stroke-linecap="square" stroke-linejoin="round" stroke-width=".3298"/>
<path d="m553.1543,85.7373c.3655,-.322 .7249,-.651 1.0847,-.9793 .3296,-.3012 .6588,-.6028 .9875,-.905 .2194,-.2022 .4399,-.4032 .6602,-.6044 .1734,-.1588 .3468,-.3176 .5204,-.4762 .1619,-.1273 .2709,-.3007 .4024,-.4561 .1338,-.1538 .2824,-.2938 .4314,-.4328 .1484,-.1372 .2983,-.2729 .4479,-.4089 .1494,-.1358 .2987,-.2717 .448,-.4077 .1493,-.136 .2985,-.272 .4478,-.4079 .1492,-.136 .2985,-.272 .4477,-.408 .16,-.1463 .321,-.2914 .4812,-.4374 .1621,-.148 .3242,-.296 .4864,-.444 .1502,-.137 .3005,-.274 .4508,-.4109 .0994,-.0906 .0497,-.0453 .1491,-.1358l-.3351,1.4312c-.0994,.0906-.0497,.0453-.1491,.1358-.1502,.1368-.3004,.2737-.4506,.4104-.1619,.1473-.3239,.2945-.4859,.4418-.1608,.1465-.3208,.2939-.4819,.4401-.1492,.136-.2985,.272-.4477,.408-.1493,.136-.2985,.272-.4478,.4079-.1493,.1359-.2987,.2718-.4481,.4076-.1491,.1356-.2985,.271-.4449,.4095-.1445,.1386-.2871,.2799-.4129,.4358-.1303,.1611-.2598,.3216-.4234,.4518-.1729,.1572-.3461,.3141-.5192,.4711-.2193,.1993-.4384,.3989-.6585,.5972-.3286,.2967-.6567,.594-.9844,.8917-.3651,.3322-.7307,.664-1.0901,1.0024l.3343,-1.428z" stroke="#000" stroke-linecap="square" stroke-linejoin="round" stroke-width=".3298"/>
<path d="m532.6214,104.5992c.3046,-.2143 .59,-.4544 .8726,-.6969 .2509,-.2178 .4966,-.4416 .7416,-.6661 .2025,-.185 .4052,-.3698 .6075,-.5551 .4165,-.3604 .8191,-.7366 1.2245,-1.1094 .2443,-.226 .4896,-.4508 .7347,-.676 .1962,-.1787 .3921,-.3577 .5888,-.5359 .2068,-.1872 .412,-.3763 .6185,-.5639 .1857,-.17 .3718,-.3395 .5579,-.509 .1866,-.1695 .3729,-.3395 .5589,-.5097 .1786,-.1616 .3561,-.3244 .5339,-.4869 .1748,-.158 .3486,-.3172 .5225,-.4762 .1537,-.1404 .3075,-.2807 .4613,-.4209 .156,-.0873 .305,-.1837 .4465,-.2936 .1512,-.1216 .2948,-.2524 .4385,-.3827 .1493,-.1358 .2982,-.2721 .4472,-.4082 .0746,-.0681 .1493,-.1362 .2239,-.2043l-.335,1.4311c-.0746,.0681-.1492,.1362-.2238,.2043-.1492,.1363-.2982,.2727-.4483,.4081-.147,.1317-.2944,.2635-.4527,.3815-.1418,.1018-.2955,.1853-.4314,.2948-.1536,.1399-.3072,.2797-.4609,.4194-.1744,.1585-.349,.3166-.5225,.4761-.1781,.1617-.3564,.3232-.5336,.4858-.1865,.1692-.3727,.3386-.5586,.5085-.1857,.1693-.3714,.3386-.5576,.5074-.2058,.1881-.4129,.3747-.6183,.5631-.196,.1795-.3927,.3583-.5891,.5374-.2434,.22-.4866,.4402-.7308,.6594-.4123,.3722-.8275,.7416-1.2284,1.1262-.2026,.1842-.4046,.3691-.6074,.5531-.2461,.2215-.4926,.4426-.7446,.6574-.29,.2444-.585,.4827-.8887,.7096l.3528,-1.4284z" stroke="#000" stroke-linecap="square" stroke-linejoin="round" stroke-width=".3298"/>
<path d="m495.3043,103.2035 8.642,9.4845" fill="none" stroke="#000" stroke-linecap="round" stroke-width="3.3246"/>
<path d="m499.3581,97.8676 8.642,9.4845" fill="none" stroke="#000" stroke-linecap="round" stroke-width="3.3246"/>
<path d="m504.6116,94.4515 8.642,9.4845" fill="none" stroke="#000" stroke-linecap="round" stroke-width="3.3246"/>
<path d="m510.04,88.4125 8.6421,9.4845" fill="none" stroke="#000" stroke-linecap="round" stroke-width="3.3246"/>
<path d="m516.2549,84.7965 8.6421,9.4845" fill="none" stroke="#000" stroke-linecap="round" stroke-width="3.3246"/>
<path d="m522.1213,79.287 8.6421,9.4845" fill="none" stroke="#000" stroke-linecap="round" stroke-width="3.3246"/>
<path d="m526.6943,73.5155 8.6421,9.4845" fill="none" stroke="#000" stroke-linecap="round" stroke-width="3.3246"/>
<path d="m533.1811,70.4478 8.6421,9.4845" fill="none" stroke="#000" stroke-linecap="round" stroke-width="3.3246"/>
<path d="m538.4683,65.2851 8.6421,9.4845" fill="none" stroke="#000" stroke-linecap="round" stroke-width="3.3246"/>
<path d="m546.5362,128.2135 11.809,-14.9056" fill="none" stroke="#000" stroke-width=".5362"/>
<path d="m493.4763,109.2974 8.642,9.4845" fill="none" stroke="#000" stroke-linecap="round" stroke-width="3.3246"/>
<path d="m577.5428,119.4841 108.7375,13.5714c4.4206,0 1.1527,6.7083-2.4471,9.274l-11.5628,4.4446-14.9112,5.1794c-3.5998,2.5656-24.6996,7.8454-29.1201,7.8454l-94.0947,-.3572c-4.4206,0-7.2241,-9.5655-3.6243,-12.1311l32.5454,-23.1954c3.5998,-2.5656 10.0567,-4.6311 14.4773,-4.6311z" fill="#fff" stroke="#000" stroke-linecap="round" stroke-linejoin="round" stroke-width="1.6996"/>
<path d="M587.4111,60.2449 573.1254,83.8163" fill="none" stroke="#000"/>
</g>
<text font-family="Bitstream Vera Sans" font-size="9.469" x="228.0336" y="564.8622">
   <tspan x="228.0336" y="564.8622">Hmm...</tspan>
  </text>
<text font-family="Bitstream Vera Sans" font-size="20" x="281" y="255.3622">
   <tspan text-align="center" text-anchor="middle" x="281" y="255.3622">Ah c'est l'heure de</tspan>
   <tspan text-align="center" text-anchor="middle" x="281" y="280.3622">Dora l'exploratrice.</tspan>
   <tspan text-align="center" text-anchor="middle" x="281" y="305.3622">Passe 2 tours.</tspan>
  </text>
<text font-family="Bitstream Vera Sans" font-size="20" x="521.1716" y="270.1906">
   <tspan text-align="center" text-anchor="middle" x="521.1716" y="270.1906">C'EST UNE TRAPPE !</tspan>
   <tspan text-align="center" text-anchor="middle" x="521.1716" y="295.1906">Tu perds !</tspan>
  </text>
<text font-family="Bitstream Vera Sans" font-size="20" x="231.0833" y="369.3292">
   <tspan text-align="center" text-anchor="middle" x="231.0833" y="369.3292">Tu n'utilises</tspan>
   <tspan text-align="center" text-anchor="middle" x="231.0833" y="394.3292">pas Vim et tu</tspan>
   <tspan text-align="center" text-anchor="middle" x="231.0833" y="419.3292">dois attendre</tspan>
   <tspan text-align="center" text-anchor="middle" x="231.0833" y="444.3292">que Emacs se</tspan>
   <tspan text-align="center" text-anchor="middle" x="231.0833" y="469.3292">lance.</tspan>
   <tspan text-align="center" text-anchor="middle" x="231.0833" y="494.3292">Passe</tspan>
   <tspan text-align="center" text-anchor="middle" x="231.0833" y="519.3292">12 tours.</tspan>
  </text>
<text font-family="Bitstream Vera Sans" font-size="20" x="749" y="253.3622">
   <tspan text-align="center" text-anchor="middle" x="749" y="253.3622">Début des révisions</tspan>
   <tspan text-align="center" text-anchor="middle" x="749" y="278.3622">sur Facebook.</tspan>
   <tspan text-align="center" text-anchor="middle" x="749" y="303.3622">Avance d'une case.</tspan>
  </text>
</g>
</svg>
