<svg version="1.1" viewBox="0 0 900 450" xmlns="http://www.w3.org/2000/svg" xmlns:svg="http://www.w3.org/2000/svg">
<g transform="translate(1.9485,-599.5064)">
<path d="M48.4863,687.9713H829.4883A31.621,31.621 0 0 1 861.1093,719.5923V967.9412A31.621,31.621 0 0 1 829.4883,999.5622H48.4863A31.621,31.621 0 0 1 16.8653,967.9412V719.5923A31.621,31.621 0 0 1 48.4863,687.9713z" fill="#fff" stroke="#000" stroke-linecap="round" stroke-width="7.4907"/>
<path d="m16.8857,934.7618 845.4977,0" fill="none" stroke="#000"/>
<path d="m576.107,684.6567 0,303.442 0,10.4485" fill="none" stroke="#000" stroke-width="5.6784"/>
<path d="m290.3969,684.5578 0,313.2703" fill="none" stroke="#000" stroke-width="5.6728"/>
<g transform="matrix(.12574,0,0,.12574,818.832,1027.11)">
<path d="m162.9615,-66.1029c3.4935,4.0575 8.2353,4.5442 13.2828,4.8295 6.3854,-.1721 12.7816,-1.7005 18.7482,-3.9709 3.188,-1.2131 4.9498,-2.2461 7.9245,-3.8084-17.8031,10.4157-7.8919,4.8373-4.5635,1.3015 1.7244,-1.8318 2.7543,-3.7619 3.7268,-6.049 2.5265,-7.1174 2.8539,-14.7708 3.2849,-22.2438 .8398,-10.8784-1.4121,-21.5587-3.8369,-32.0902-2.9495,-11.0779-6.9553,-21.8431-11.3671,-32.4128-2.1125,-4.9937-4.5016,-9.8617-6.8287,-14.7566-3.1362,-6.0174-5.7017,-2.2804 12.0114,-9.1516 .6104,-.2368 .7311,1.087 1.1222,1.6121 .6549,.8793 1.3432,1.7331 2.0147,2.5997 6.5345,8.9671 14.393,16.8239 22.2682,24.5961 4.6332,4.5123 9.6016,8.7005 14.032,13.4186 1.6816,1.3731 2.6867,3.3087 4.04,4.9541 1.3218,1.1942 2.3559,-.063 3.524,-.88-20.4032,12.2348-13.1369,8.2804-9.2246,4.5289 1.5406,-1.4773 2.9931,-3.0561 4.4682,-4.5977 2.0935,-2.0887 4.0773,-4.3249 6.3699,-6.2061 6.0518,-4.966 14.4953,-8.9342 20.7536,-12.4943 5.7826,-2.554 11.6983,-4.7759 17.7067,-6.7339 1.2429,-.2695 6.0517,-2.1189 7.1497,-.869 .2555,.2908 .359,.686 .5385,1.029 .0249,.3507 .122,.7037 .0746,1.052-.3464,2.5421-4.2822,5.4998-5.9999,7.0812-7.8955,6.5272-15.5561,13.3165-22.8485,20.5113-6.3434,6.805-12.8959,13.5227-17.9461,21.3722-3.1182,4.9027-4.7756,10.316-5.5537,16.0199-.5154,5.1011-.4313,10.2374-.4233,15.3575 .2794,5.5658 .9893,11.1428 2.6464,16.4744 .9499,2.8397 2.6391,4.9259 5.3418,6.1729 1.7933,.6321 3.8468,1.0482 5.7562,.6876 .4443,-.0839 4.1482,-1.3389 4.4445,-1.4379 4.3672,-2.3833 14.9158,-7.9566-4.8252,2.8617-.781,.428 1.5035,-.9552 2.2436,-1.4505 1.7,-1.1377 2.1084,-1.4721 3.7035,-2.6614 1.913,-1.4312 1.0067,-.7357 2.723,-2.0808l13.6711,-5.4983c-1.7324,1.4564-.8048,.73-2.796,2.1623-8.0629,6.2254-16.9943,11.3785-26.2507,15.5961-4.0612,1.2122-7.06,1.7923-11.0152,-.0782-2.9124,-1.6424-4.8153,-4.0252-5.8395,-7.2464-1.6234,-5.4897-2.2357,-11.2047-2.7686,-16.8893-.0311,-5.1712-.1159,-10.3556 .3022,-15.5145 .7383,-5.9102 2.2958,-11.5511 5.4746,-16.6653 .6374,-1.0595 1.2164,-2.1564 1.9122,-3.1784 1.4293,-2.0993 3.5633,-4.5022 5.1926,-6.3909 3.5997,-4.173 7.2819,-8.2723 11.0846,-12.2621 7.0925,-7.1546 14.5679,-13.9155 22.3195,-20.352 2.1958,-2.0389 4.4682,-4.0268 6.363,-6.357 .3146,.1659-.6981,.139-1.0503,.1882-1.7578,.2457-3.4497,.7917-5.1425,1.3052-5.9412,1.9611-11.8224,4.1368-17.4628,6.8581 19.4412,-11.4974 7.7521,-4.9691 3.9527,-2.0455-2.3144,1.7808-4.2945,3.9798-6.3247,6.0613-7.3621,7.7662-7.7847,8.5886-20.2399,15.0176-2.0411,.9643-3.1823,.8498-4.779,-.8279-1.26,-1.6657-2.2693,-3.5234-3.8255,-4.9564-4.2421,-4.7917-8.972,-9.1394-13.4655,-13.6887-7.8003,-7.9395-15.7203,-15.7854-22.6621,-24.5085-.7459,-.8383-1.4925,-1.676-2.2377,-2.515-.414,-.4662-1.7128,-.9944-1.2397,-1.4005 11.2457,-9.654 10.609,-12.1815 13.514,-5.8078 2.1923,4.9946 4.5033,9.9394 6.4982,15.0188 4.1744,10.7594 8.0235,21.6562 11.1756,32.7627 2.5328,10.5786 5.0383,21.3246 4.3095,32.2869-.2875,7.5431-.73,15.2244-2.7778,22.5205-.6732,1.8665-.9058,2.8192-1.9806,4.5269-4.7227,7.5035-14.9088,11.0471-21.6041,15.3066-8.5205,4.1876-17.5853,7.1486-27.1755,7.1917-1.3332,-.1069-2.6764,-.126-3.9996,-.3207-3.9409,-.5799-7.6146,-2.3017-10.3419,-5.2234l12.7269,-7.6412z" stroke="#000" stroke-linecap="round" stroke-linejoin="round" stroke-width="2"/>
<path d="m285.1504,-83.2549c-5.88,1.6467-18.6251,9.5149 3.6228,-3.2161-3.0858,1.6423-4.9176,4.3146-6.3615,7.3973-.8239,2.47-1.7035,5.1777-1.5244,7.8292 .1239,1.8346 .601,2.756 1.225,4.4695 2.4426,4.8256 6.1987,8.7942 10.6559,11.8004 3.2897,2.2908 7.0292,3.3333 10.9988,3.3815 3.0629,-.6961 5.9092,-1.889 8.7139,-3.2794 1.1955,-.5927 4.6992,-2.5278 3.5526,-1.8452-13.2158,7.8669-9.9055,5.7434-5.2291,2.5405 3.8506,-2.9659 8.0361,-6.4071 9.0279,-11.451 .1385,-.7045 .1286,-1.4302 .1929,-2.1454-.2546,-6.3086-4.2409,-11.2474-8.0871,-15.9117-2.4245,-2.6982-5.17,-5.2714-8.4848,-6.8472-1.6823,-.7998-2.5447,-.9419-4.3262,-1.415-3.594,-.1953-7.3605,.1463-10.7726,1.3847-1.5775,.5726-3.9684,1.9034-5.4345,2.6786 19.9864,-11.9906 6.8908,-4.0746 2.7687,-.4895l-13.6034,5.5649c6.3305,-6.0894 14.7834,-9.6771 22.1418,-14.1306 2.1358,-1.0385 3.3967,-1.7563 5.6792,-2.4493 3.6325,-1.1029 7.5433,-1.3605 11.2846,-.8091 1.9239,.6139 2.7037,.7688 4.5106,1.7317 3.3646,1.793 6.1391,4.5163 8.621,7.3603 4.0463,4.9816 8.1538,10.1443 8.7701,16.7754-.0296,.8046 .0196,1.6161-.0889,2.4139-.7383,5.4273-4.7753,9.2853-8.8804,12.4917-7.9626,5.7154-3.8825,2.9492-19.2743,11.6675-4.0105,2.2717-8.3975,4.1951-13.0037,4.7328-4.1494,-.367-8.0102,-1.5898-11.3905,-4.108-4.5717,-3.3347-8.416,-7.5445-11.0934,-12.5605-.6247,-1.6344-1.3341,-3.1907-1.5477,-4.9537-.3345,-2.7611 .5846,-5.6627 1.2497,-8.2942 1.2789,-3.2492 2.902,-6.3291 5.9576,-8.2367 7.1822,-4.1341 13.903,-8.8778 21.9148,-11.0889l-11.7853,9.0117z" stroke="#000" stroke-linecap="round" stroke-linejoin="round" stroke-width="2"/>
<path d="m347.1504,-77.2549c-2.5469,.8146-5.1929,1.5133-7.6141,2.6735-.8131,.3896-1.5764,.8756-2.3647,1.3134 3.3457,-1.8736 6.6913,-3.7471 10.037,-5.6207-3.9716,2.6801-6.9185,5.3584-8.6955,9.85-1.1627,3.6999-.6052,6.8285 2.3247,9.5655 .7074,.6608 1.5389,1.1748 2.3083,1.7622 5.6004,3.2171 12.2296,4.3691 18.6442,3.6885 1.8388,-.1951 3.6423,-.6405 5.4634,-.9607 4.2145,-1.088 6.0512,-1.3908 10.0093,-3.0522 1.313,-.5511 5.0497,-2.628 3.8271,-1.898-17.7993,10.6288-9.7426,5.998-6.9473,3.1684 .6199,-.6275 1.1121,-1.3693 1.6682,-2.054 2.4376,-3.8135 2.5,-7.2055 .7831,-11.2688-.3152,-.7137-2.1315,-4.4568-3.4123,-3.6467-.2218,.1403-.3342,.4046-.5012,.6069 20.2171,-11.5287 12.5199,-9.601 10.5591,-3.9824-.8462,2.4247-.9939,4.7822-1.1102,7.3284 1.4046,11.8202 6.6264,22.7649 10.9162,33.7471 5.2161,14.5087 10.244,29.5646 10.8227,45.1266 .1152,3.097-.1863,6.1956-.2795,9.2933-.4626,2.9786-.7219,5.996-1.3878,8.9358-2.1724,9.5898-7.1162,18.3681-14.4574,24.947-1.2941,1.1597-2.7591,2.1134-4.1386,3.1701-5.5203,2.8839-10.7715,6.3551-16.5608,8.6516-2.3998,.952-8.1925,-1.0338-10.0914,-1.8803-7.058,-3.1465-13.1537,-8.3145-19.1496,-13.0475-10.1152,-8.659-20.0186,-17.691-29.0677,-27.4783-4.688,-5.0705-5.8469,-6.777-9.919,-12.0224-3.4654,-5.7822-7.5504,-12.4859-4.1433,-19.3016 2.0163,-4.0335 4.4499,-5.497 7.8272,-8.4338 10.1215,-6.5586 10.9501,-7.3056 25.6037,-14.7259 3.5764,-1.811 15.1096,-5.9066 18.6391,-7.138 7.0388,-2.4558 14.6082,-4.8887 21.6862,-7.2014 18.594,-5.3634 36.8056,-11.8962 54.8051,-18.9783 1.5279,-.6495 3.0578,-1.2942 4.5836,-1.9485 1.1657,-.4999 2.34,-.9808 3.4908,-1.514 2.3523,-1.0899 4.5499,-2.4389 6.9767,-3.363 3.291,-.4693 4.4452,3.4926 5.4304,5.8995 2.2687,6.1277 3.5471,12.5534 4.0987,19.0495 .1362,2.9104 .2306,5.8345-.1816,8.7279-.0421,.2958 .1108,.7559-.16,.882-4.4089,2.0533-9.0127,3.659-13.519,5.4886 .0118,-.8952-.0374,-1.7934 .0355,-2.6857 .1061,-1.2986 .3295,-2.5849 .5008,-3.8765 .9997,-7.538 2.3091,-14.9758 3.843,-22.4228 1.555,-6.4961 2.8976,-13.2994 6.61,-18.9697 4.2039,-4.4015 13.5536,-13.0794 18.1064,-8.0287 .4767,.5289 .8107,1.1708 1.2161,1.7562 .891,1.5753 1.6607,2.7718 2.2437,4.5173 1.6389,4.9078 2.3745,10.6605 3.2422,15.7652 1.1326,4.4176 .7008,9.7081 2.0412,14.0399 1.7726,-4.7616-.0179,.2205-12.7493,6.291-.2582,.1231 .3891,-.4251 .5337,-.672 .3315,-.566 .9805,-2.2274 1.2333,-2.7376 .3448,-.6961 .7385,-1.3669 1.1077,-2.0504 2.3945,-3.8376 4.4213,-7.8928 7.0597,-11.5731 4.4112,-5.5273 8.5378,-6.7337 16.174,-10.93 .2619,-.1439 .6145,-.0601 .8956,.0415 .3579,.1294 .6361,.4181 .9542,.6271 2.9864,3.1411 4.0262,7.5857 5.0346,11.6761 .8762,4.4536 1.3452,8.9967 2.9742,13.2566 .3967,.5584 .7207,1.1763 1.19,1.6753 3.4181,3.6336 9.0718,6.3498 13.7339,7.8272 1.7542,.5559 3.5616,.9276 5.3424,1.3914 7.54,1.8812 15.1058,1.9747 22.6056,-.087 1.66,-.4563 3.3273,-.9326 4.8996,-1.6338 1.4645,-.6531 2.7763,-1.6056 4.1644,-2.4083-2.8879,1.4901-5.5634,3.4967-8.6637,4.4704-1.1955,.3755 1.8602,-1.6841 2.7137,-2.6016 2.5159,-2.7049 3.9544,-5.7126 4.9671,-9.2111 .6946,-2.9134 .6823,-5.9069 .6019,-8.8795-.8123,-6.1361-6.2332,-.0969 12.5348,-7.7189 .3417,-.1388-.2006,.7117-.258,1.076-.0835,.53-.1093,1.0675-.1639,1.6012-.2665,4.8348-.377,9.6802 .1605,14.4971 .5467,3.099 1.1396,6.2653 3.5686,8.4405 1.7091,1.1249 3.5227,1.2014 5.4105,.5838 4.5429,-2.2925 11.3618,-6.2694-9.2958,5.3928-.733,.4138 1.4175,-.9086 2.114,-1.3812l13.7499,-5.4669c-1.0645,.874-.871,.7838-2.0934,1.4985-4.6452,2.7158-10.3975,7.2521-16.2755,8.9062-2.2943,.246-4.4334,-.2532-6.2278,-1.7781-2.497,-2.6033-3.3119,-5.923-3.8685,-9.4237-.5906,-4.8727-.472,-9.7673-.4084,-14.6687 .0197,-.6544 .077,-2.9288 .1232,-2.9595 9.727,-6.4603 12.8718,-12.5754 14.1061,-5.3537 .0695,3.1243 .0729,6.2667-.5797,9.341-3.2014,12.7554-11.6553,15.6615-23.2766,22.5416-1.4289,.7205-2.7977,1.5752-4.2867,2.1615-8.9506,3.524-18.7036,3.2412-27.9102,1.0341-1.8391,-.4877-3.7066,-.8788-5.5173,-1.4632-4.6315,-1.4947-11.1446,-4.692-14.5603,-8.2853-.5627,-.5919-.968,-1.3157-1.452,-1.9736-1.6237,-4.344-2.0916,-8.9473-2.927,-13.4875-.8421,-3.5179-1.6783,-7.8688-4.5851,-10.3108-.6859,.086-.3319,-.0175-1.041,.3749 3.9288,-2.3321 7.8577,-4.6642 11.7865,-6.9963 .3323,-.191-.6084,.4685-.8871,.7315-.6996,.66-1.2666,1.4531-2.0221,2.0581-2.82,3.545-4.8538,7.566-7.2091,11.4215-.8854,1.5155-1.617,2.9578-2.1805,4.6201-.1148,.3386 .0125,.8473-.2939,1.0316-13.2948,7.9967-10.3461,11.2314-14.0569,6.5713-1.1159,-4.7041-.5439,-9.6982-1.6308,-14.4245-1.0635,-6.6156-1.8817,-13.7016-5.4778,-19.4897-.6253,-.7518-.8938,-1.4407-1.8874,-1.6242-.2691,-.0497-1.0491,.2242-.8171,.0792 3.855,-2.4085 7.8581,-4.5721 11.7547,-6.9127 .3501,-.2103-.7641,.3015-1.11,.5187-.4078,.256-.7577,.5945-1.1366,.8918-4.3835,5.2272-5.7056,12.2845-7.478,18.6873-1.9969,9.2321-3.7113,18.5943-3.9931,28.0561-4.3051,2.6386-8.5232,5.4248-12.9154,7.9158-.2419,.1372 .2404,-.5043 .318,-.7714 .8042,-2.7667 .5753,-5.6949 .5747,-8.5333-.3712,-6.3501-1.5585,-12.6651-3.9842,-18.571-.4628,-1.0682-1.3134,-4.1649-2.9322,-4.2743-.3754,-.0254-1.0644,.2717-1.3633,.3791-4.7881,2.1318-9.4382,4.5785-14.4142,6.2825-17.8398,6.7098-35.8321,12.9983-54.1277,18.3644-10.6198,3.5133-21.3137,6.9086-31.715,11.0427-2.9939,1.19-5.7348,3.1473-8.8924,3.787-1.6217,.3285 5.5767,-3.5384 4.0891,-2.8139-2.1692,1.0565-4.0999,2.545-6.1498,3.8175-3.8287,3.0735-8.5236,6.2534-9.4308,11.5515-.893,5.2148 2.4282,10.0365 4.6745,14.3601 1.3891,1.8979 2.711,3.847 4.1673,5.6938 9.9457,12.6131 22.0475,23.4346 34.3683,33.6505 6.0444,4.5132 12.2092,9.5598 19.3554,12.2966 1.6491,.6316 3.3794,1.1098 5.1345,1.3053 1.4972,.1668 5.3244,-1.5002 4.5136,-.2306-1.6887,2.6441-5.176,3.5469-7.7641,5.3203 1.4485,-1.0111 2.9813,-1.911 4.3453,-3.0333 7.5773,-6.2343 12.8885,-14.8407 15.2526,-24.3515 .7183,-2.8896 .999,-5.8707 1.4986,-8.806 .1439,-3.0552 .5095,-6.108 .4316,-9.1656-.3934,-15.4369-5.6294,-30.3333-10.905,-44.6508-4.4755,-11.0691-9.9218,-21.9803-11.8707,-33.8586-.0655,-2.8117 .003,-4.952 .6842,-7.6722 .0381,-.1521 .7931,-2.8601 1.1292,-3.0916 4.3169,-2.973 8.9144,-5.5165 13.3715,-8.2747 .3389,.0271 .6889,-.0085 1.0169,.0812 2.1057,.5758 3.1151,3.1886 3.9952,4.8962 1.8742,4.4256 2.1315,8.3635-.2532,12.7108-.541,.7748-1.0086,1.6064-1.6229,2.3244-4.3907,5.131-13.1728,8.7324-17.6417,11.2191-4.2744,2.3784-9.1918,3.3952-13.8934,4.496-1.8823,.2823-3.7498,.6922-5.6468,.847-6.776,.553-13.6979,-.6632-19.4819,-4.3006-.8304,-.6627-1.7251,-1.252-2.4912,-1.9881-3.2394,-3.1123-4.2505,-6.5472-3.1788,-10.8443 1.6159,-5.1378 4.1492,-7.6245 8.4678,-10.7873 8.3338,-4.9235 15.8682,-10.3542 25.256,-12.659l-11.7853,9.0117z" stroke="#000" stroke-linecap="round" stroke-linejoin="round" stroke-width="2"/>
<path d="m549.2332,-122.1847c-1.7835,2.0929-3.2088,4.4879-3.887,7.1628-.4856,2.6751 1.1102,3.361 3.3038,4.3209 3.5488,1.2997 6.5822,1.157 10.2167,.5143 4.8602,-1.6662 12.579,-6.4142-9.0248,5.5037-.3034,.1673 .5755,-.3901 .8315,-.6236 .6095,-.5556 .6709,-.7857 1.0696,-1.4819 .7338,-1.6463 .6619,-3.1872-.2832,-4.7035-1.2573,-1.1913-3.1474,-1.0796-4.7697,-1.1586-1.6755,.1549-3.2712,.5705-4.6332,1.5753l11.5699,-9.3176c1.6475,-.6237 3.3328,-1.0178 5.1127,-.8762 2.1175,.2092 4.2007,.5097 5.5739,2.3193 1.1184,1.8815 1.5604,3.8267 .9141,5.9743-2.3437,7.0718-11.2457,9.9308-18.1332,11.6144-3.6699,.4613-7.2979,.2601-10.7482,-1.2144-2.4801,-1.2798-4.7037,-2.8813-4.3281,-5.9859 .4579,-2.8821 1.8638,-5.464 3.5526,-7.8184l13.6626,-5.8049z" stroke="#000" stroke-linecap="round" stroke-linejoin="round" stroke-width="2"/>
<path d="m359.6057,-86.1453c2.813,-1.3672 5.4973,-2.9836 8.3991,-4.1626 1.8182,-1.1808 3.8128,-1.7264 5.9399,-1.959 1.9567,-.1487 3.9211,-.1237 5.8819,-.1169 1.9461,-.207 3.5945,.325 5.304,1.1594 1.1966,.9591 2.1411,2.2333 3.05,3.4655 .7904,1.4357 1.2548,3.0464 1.7411,4.6107 .436,1.6028 1.0296,3.1343 1.3438,4.7721 .3026,1.9227 .3232,3.8738 .3468,5.8155 .009,1.0012 .007,2.0024 .007,3.0036l-13.2174,6.733c.001,-.9962 .003,-1.9924-10e-4,-2.9886-.0137,-1.8636-.0171,-3.7343-.2514,-5.5862-.2608,-1.5964-.8449,-3.0648-1.2698,-4.6141-.4125,-1.4071-.8576,-2.8405-1.4965,-4.1522-.7779,-1.02-1.5348,-2.1846-2.6529,-2.8453-1.5703,-.6821-3.2079,-.7262-4.905,-.653-1.9192,.0085-3.8508,-8.13e-4-5.7505,.3092-2.0091,.4249-3.8194,1.2893-5.6483,2.207-2.8459,1.3235-5.5987,2.8407-8.3572,4.3355l11.5367,-9.3337z" stroke="#000" stroke-linecap="round" stroke-linejoin="round" stroke-width="2"/>
</g>
<path d="m446.8915,78.4154c0,2.9289-27.5427,5.3033-61.5183,5.3033-33.9756,0-61.5183,-2.3744-61.5183,-5.3033 0,-2.9289 27.5427,-5.3033 61.5183,-5.3033 33.9756,0 61.5183,2.3744 61.5183,5.3033z" stroke="#000" stroke-linecap="round" stroke-width="4.862" transform="matrix(-.90522,0,0,.90522,1144.811,894.61927)"/>
<g transform="matrix(-.90522,0,0,.90522,707.89516,625.51639)">
<path d="m-43.5297,288.8057 0,47.8884c0,20.007-16.1067,36.1137-36.1137,36.1137l-35.434,0c-20.007,0-36.1137,-16.1067-36.1137,-36.1137l0,-47.8884" fill="#fff" stroke="#000" stroke-linecap="round" stroke-linejoin="round" stroke-width="3.6422"/>
<path d="M-122.1431,308.6171H-98.6091A.7803,.7803 0 0 1 -97.8288,309.3974V319.4235A.7803,.7803 0 0 1 -98.6091,320.2038H-122.1431A.7803,.7803 0 0 1 -122.9234,319.4235V309.3974A.7803,.7803 0 0 1 -122.1431,308.6171z" stroke="#000" stroke-linecap="square" stroke-linejoin="round" stroke-width="3.7338"/>
<path d="M-80.7522,308.6171H-60.3393A2.3409,2.3409 0 0 1 -57.9985,310.958V317.8629A2.3409,2.3409 0 0 1 -60.3393,320.2038H-80.7522A2.3409,2.3409 0 0 1 -83.093,317.8629V310.958A2.3409,2.3409 0 0 1 -80.7522,308.6171z" stroke="#000" stroke-linecap="square" stroke-linejoin="round" stroke-width="3.7338"/>
<path d="m-148.8829,313.6717c.5492,.0105 1.0986,.007 1.6478,.004 .363,-.002 .7259,-.004 1.0889,-.004 .2925,-4.3e-4 .585,-4e-4 .8775,-4e-4 .304,-6.3e-4 .6081,6e-4 .9121,10e-4 .3906,-.01 .7752,-3.7e-4 1.162,.0507 .3996,.0545 .8031,.0717 1.2062,.0827 .4052,-.0158 .8029,.0589 1.204,.099 .4079,.0368 .818,.0407 1.2274,.045 .4301,.002 .8603,.002 1.2904,6.5e-4 .3736,-7.6e-4 .7472,-10e-4 1.1208,-.002 .307,-7.7e-4 .6141,-9.8e-4 .9211,-10e-4 .2915,-8e-5 .583,-7e-5 .8745,-6e-5 .2915,1e-5 .5831,1e-5 .8746,1e-5 .3187,-3.9e-4 .6374,5.3e-4 .9561,.002 .3943,.002 .7885,4.4e-4 1.1828,-6.3e-4 .3709,-2.7e-4 .7418,4.7e-4 1.1126,10e-4 .3967,-1.7e-4 .7934,-8e-5 1.1902,-10e-4 .38,1.9e-4 .7599,7.4e-4 1.1399,1.6e-4 .3456,-.001 .6912,-.002 1.0367,2.5e-4 .5332,.003 1.0664,.004 1.5996,.006 .7266,.003 1.4533,.003 2.1799,.001 .5332,-.001 1.0664,-.005 1.5997,-.005 .4413,6.5e-4 .8826,-2e-5 1.3239,-.002 .0611,-2e-4 .1222,-4e-4 .1833,-6e-4l-1.746,1.1993c-.0605,-2.1e-4-.121,-4.1e-4-.1815,-6.1e-4-.4399,-.002-.8797,-.002-1.3196,-.002-.528,-2.2e-4-1.0559,-.004-1.5839,-.005-.7276,-.002-1.4552,-.002-2.1828,9.9e-4-.5391,.002-1.0782,.003-1.6173,.006-.3458,.002-.6916,.002-1.0375,2.6e-4-.3801,-5.7e-4-.7602,-3e-5-1.1404,1.5e-4-.3957,-9.9e-4-.7914,-8.9e-4-1.187,-.001-.3723,.001-.7447,.002-1.117,.002-.3937,-10e-4-.7873,-.003-1.181,-6.3e-4-.3206,.001-.6411,.002-.9617,.002-.2915,0-.5831,0-.8747,0-.2914,0-.5829,2e-5-.8743,-6e-5-.306,-1.3e-4-.612,-3.5e-4-.918,-9.6e-4-.372,-6.9e-4-.744,-8.4e-4-1.1161,-8.8e-4-.4302,-8.3e-4-.8603,7e-4-1.2904,-.004-.4148,-.006-.8303,-.0145-1.2428,-.0595-.3968,-.0446-.792,-.0972-1.193,-.0869-.4078,-.0152-.8149,-.0435-1.2193,-.0968-.382,-.0404-.7654,-.0292-1.1493,-.0278-.3051,5.6e-4-.6103,.002-.9155,.001-.2921,10e-6-.5842,3e-5-.8763,-4e-4-.3589,-6.7e-4-.7177,-.002-1.0765,-.004-.5532,-.003-1.1065,-.006-1.6597,.004l1.7494,-1.2016z" stroke="#000" stroke-linecap="square" stroke-linejoin="round" stroke-width=".4767"/>
<path d="m-57.3881,313.9484c.7039,.0118 1.4079,.0102 2.1119,.01 .6452,-8.9e-4 1.2905,-.003 1.9357,-.006 .4312,-.002 .8624,-.002 1.2935,-.003 .3398,-8.1e-4 .6796,-.002 1.0194,-.002 .2968,.0217 .5821,-.0575 .8738,-.0956 .2926,-.0341 .5877,-.039 .8821,-.0425 .2922,-.002 .5843,-10e-4 .8765,-8.4e-4 .2918,4e-4 .5836,5.3e-4 .8754,6.1e-4 .2918,5e-5 .5836,5e-5 .8754,5e-5 .2918,0 .5836,0 .8754,0 .3133,-6.1e-4 .6266,10e-4 .9398,10e-4 .3172,-2.5e-4 .6345,-6.9e-4 .9517,-9.3e-4 .2938,-1.8e-4 .5877,-2e-4 .8815,-2.1e-4 .1943,-1e-5 .0972,-1e-5 .2915,-1e-5l-1.7509,1.2027c-.1943,0-.0971,0-.2914,0-.2936,-2e-5-.5872,-4e-5-.8808,-2.2e-4-.3164,-2.3e-4-.6327,-6.8e-4-.9491,-9.3e-4-.3144,4e-5-.6287,.002-.9431,10e-4-.2918,1e-5-.5836,1e-5-.8754,1e-5-.2918,-1e-5-.5836,-1e-5-.8754,-1.2e-4-.2918,-1.3e-4-.5837,-3.7e-4-.8755,-7.2e-4-.2913,-2.3e-4-.5826,-10e-4-.8738,.004-.2893,.007-.5791,.0195-.8653,.0636-.2961,.0453-.5905,.0907-.8921,.0705-.3377,-4.3e-4-.6755,-10e-4-1.0132,-.002-.4283,-5.4e-4-.8565,-6.3e-4-1.2848,-.003-.6398,-.003-1.2796,-.005-1.9195,-.006-.7134,-4.8e-4-1.4269,-.002-2.1402,.01l1.747,-1.2z" stroke="#000" stroke-linecap="square" stroke-linejoin="round" stroke-width=".4767"/>
<path d="m-97.681,314.1116c.5339,.0676 1.0726,.0889 1.6105,.1048 .4801,.0116 .9604,.0116 1.4405,.0103 .3964,-5e-4 .7929,-6.3e-4 1.1893,-.002 .7958,.0205 1.592,.0104 2.3879,.007 .4809,-.004 .9619,-.005 1.4428,-.007 .3835,3e-5 .767,-4.2e-4 1.1506,6e-4 .4032,.001 .8064,-9.5e-4 1.2096,-3.1e-4 .3638,-8.6e-4 .7277,-7.6e-4 1.0915,-6.6e-4 .3644,5.6e-4 .7288,2.2e-4 1.0931,-5.1e-4 .3481,.001 .6961,1.1e-4 1.0442,-4.5e-4 .3406,.001 .6811,4.5e-4 1.0217,-4e-5 .3008,-4.3e-4 .6016,-5.6e-4 .9024,-6.3e-4 .2516,.0585 .5047,.1006 .7628,.1209 .2799,.0172 .5606,.0173 .8409,.018 .2917,1.9e-4 .5833,-3.9e-4 .875,-6.8e-4 .146,-1.4e-4 .292,-2e-4 .4381,-2.6e-4l-1.7508,1.2027c-.146,10e-5-.292,1.9e-4-.438,3.5e-4-.292,3.2e-4-.584,.001-.876,-3.9e-4-.2852,-.002-.5709,-.005-.8549,-.0331-.2506,-.0294-.496,-.0897-.7478,-.105-.3002,-8e-5-.6004,-2e-4-.9006,-6.3e-4-.3405,-4.8e-4-.681,-.001-1.0215,-5e-5-.3476,-5.5e-4-.6953,-.002-1.0429,-4.4e-4-.3639,-7.3e-4-.7278,-10e-4-1.0916,-5.1e-4-.3632,1.1e-4-.7264,1.9e-4-1.0895,-6.6e-4-.4029,6.4e-4-.8058,-.002-1.2087,-3.1e-4-.3841,.001-.7682,5.8e-4-1.1523,6e-4-.4742,-.002-.9483,-.003-1.4224,-.007-.8027,-.004-1.6058,-.0132-2.4083,.007-.3958,-4.3e-4-.7915,4.6e-4-1.1873,-3.6e-4-.4785,-.003-.957,-.007-1.4353,-.0226-.5477,-.0212-1.0947,-.0538-1.64,-.107l1.7673,-1.1825z" stroke="#000" stroke-linecap="square" stroke-linejoin="round" stroke-width=".4767"/>
<path d="m-136.1855,276.2983 0,18.5432" fill="none" stroke="#000" stroke-linecap="round" stroke-width="4.8046"/>
<path d="m-126.6615,274.544 0,18.5432" fill="none" stroke="#000" stroke-linecap="round" stroke-width="4.8046"/>
<path d="m-117.7245,276.0083 0,18.5432" fill="none" stroke="#000" stroke-linecap="round" stroke-width="4.8046"/>
<path d="m-106.0478,274.841 0,18.5432" fill="none" stroke="#000" stroke-linecap="round" stroke-width="4.8046"/>
<path d="m-95.8892,277.0276 0,18.5432" fill="none" stroke="#000" stroke-linecap="round" stroke-width="4.8046"/>
<path d="m-84.2599,276.8522 0,18.5432" fill="none" stroke="#000" stroke-linecap="round" stroke-width="4.8046"/>
<path d="m-73.7574,275.1381 0,18.5432" fill="none" stroke="#000" stroke-linecap="round" stroke-width="4.8046"/>
<path d="m-63.8419,278.175 0,18.5432" fill="none" stroke="#000" stroke-linecap="round" stroke-width="4.8046"/>
<path d="m-53.169,277.8063 0,18.5432" fill="none" stroke="#000" stroke-linecap="round" stroke-width="4.8046"/>
<path d="m-105.8017,352.8807 27.1229,-4.4282" fill="none" stroke="#000" stroke-width=".7749"/>
<path d="m-144.0697,281.0285 0,18.5432" fill="none" stroke="#000" stroke-linecap="round" stroke-width="4.8046"/>
</g>
<text font-family="Bitstream Vera Sans" font-size="20" x="155.6425" y="738.9523">
    <tspan text-align="center" text-anchor="middle" x="155.6425" y="738.9523">Ma gestion de base de</tspan>
    <tspan text-align="center" text-anchor="middle" x="155.6425" y="763.9523">données permet d'éviter</tspan>
    <tspan text-align="center" text-anchor="middle" x="155.6425" y="788.9523">les pertes de données !</tspan>
   </text>
<text font-family="Bitstream Vera Sans" font-size="20" x="458.0691" y="733.1838">
    <tspan text-align="center" text-anchor="middle" x="458.0691" y="733.1838">Ok... voyons...</tspan>
   </text>
<path d="m446.8915,78.4154c0,2.9289-27.5427,5.3033-61.5183,5.3033-33.9756,0-61.5183,-2.3744-61.5183,-5.3033 0,-2.9289 27.5427,-5.3033 61.5183,-5.3033 33.9756,0 61.5183,2.3744 61.5183,5.3033z" stroke="#000" stroke-linecap="round" stroke-width="4.862" transform="matrix(-.90522,0,0,.90522,842.93832,896.55877)"/>
<g transform="matrix(-.90522,0,0,.90522,406.02248,627.45589)">
<path d="m-43.5297,288.8057 0,47.8884c0,20.007-16.1067,36.1137-36.1137,36.1137l-35.434,0c-20.007,0-36.1137,-16.1067-36.1137,-36.1137l0,-47.8884" fill="#fff" stroke="#000" stroke-linecap="round" stroke-linejoin="round" stroke-width="3.6422"/>
<path d="M-122.1431,308.6171H-98.6091A.7803,.7803 0 0 1 -97.8288,309.3974V319.4235A.7803,.7803 0 0 1 -98.6091,320.2038H-122.1431A.7803,.7803 0 0 1 -122.9234,319.4235V309.3974A.7803,.7803 0 0 1 -122.1431,308.6171z" stroke="#000" stroke-linecap="square" stroke-linejoin="round" stroke-width="3.7338"/>
<path d="M-80.7522,308.6171H-60.3393A2.3409,2.3409 0 0 1 -57.9985,310.958V317.8629A2.3409,2.3409 0 0 1 -60.3393,320.2038H-80.7522A2.3409,2.3409 0 0 1 -83.093,317.8629V310.958A2.3409,2.3409 0 0 1 -80.7522,308.6171z" stroke="#000" stroke-linecap="square" stroke-linejoin="round" stroke-width="3.7338"/>
<path d="m-148.8829,313.6717c.5492,.0105 1.0986,.007 1.6478,.004 .363,-.002 .7259,-.004 1.0889,-.004 .2925,-4.3e-4 .585,-4e-4 .8775,-4e-4 .304,-6.3e-4 .6081,6e-4 .9121,10e-4 .3906,-.01 .7752,-3.7e-4 1.162,.0507 .3996,.0545 .8031,.0717 1.2062,.0827 .4052,-.0158 .8029,.0589 1.204,.099 .4079,.0368 .818,.0407 1.2274,.045 .4301,.002 .8603,.002 1.2904,6.5e-4 .3736,-7.6e-4 .7472,-10e-4 1.1208,-.002 .307,-7.7e-4 .6141,-9.8e-4 .9211,-10e-4 .2915,-8e-5 .583,-7e-5 .8745,-6e-5 .2915,1e-5 .5831,1e-5 .8746,1e-5 .3187,-3.9e-4 .6374,5.3e-4 .9561,.002 .3943,.002 .7885,4.4e-4 1.1828,-6.3e-4 .3709,-2.7e-4 .7418,4.7e-4 1.1126,10e-4 .3967,-1.7e-4 .7934,-8e-5 1.1902,-10e-4 .38,1.9e-4 .7599,7.4e-4 1.1399,1.6e-4 .3456,-.001 .6912,-.002 1.0367,2.5e-4 .5332,.003 1.0664,.004 1.5996,.006 .7266,.003 1.4533,.003 2.1799,.001 .5332,-.001 1.0664,-.005 1.5997,-.005 .4413,6.5e-4 .8826,-2e-5 1.3239,-.002 .0611,-2e-4 .1222,-4e-4 .1833,-6e-4l-1.746,1.1993c-.0605,-2.1e-4-.121,-4.1e-4-.1815,-6.1e-4-.4399,-.002-.8797,-.002-1.3196,-.002-.528,-2.2e-4-1.0559,-.004-1.5839,-.005-.7276,-.002-1.4552,-.002-2.1828,9.9e-4-.5391,.002-1.0782,.003-1.6173,.006-.3458,.002-.6916,.002-1.0375,2.6e-4-.3801,-5.7e-4-.7602,-3e-5-1.1404,1.5e-4-.3957,-9.9e-4-.7914,-8.9e-4-1.187,-.001-.3723,.001-.7447,.002-1.117,.002-.3937,-10e-4-.7873,-.003-1.181,-6.3e-4-.3206,.001-.6411,.002-.9617,.002-.2915,0-.5831,0-.8747,0-.2914,0-.5829,2e-5-.8743,-6e-5-.306,-1.3e-4-.612,-3.5e-4-.918,-9.6e-4-.372,-6.9e-4-.744,-8.4e-4-1.1161,-8.8e-4-.4302,-8.3e-4-.8603,7e-4-1.2904,-.004-.4148,-.006-.8303,-.0145-1.2428,-.0595-.3968,-.0446-.792,-.0972-1.193,-.0869-.4078,-.0152-.8149,-.0435-1.2193,-.0968-.382,-.0404-.7654,-.0292-1.1493,-.0278-.3051,5.6e-4-.6103,.002-.9155,.001-.2921,10e-6-.5842,3e-5-.8763,-4e-4-.3589,-6.7e-4-.7177,-.002-1.0765,-.004-.5532,-.003-1.1065,-.006-1.6597,.004l1.7494,-1.2016z" stroke="#000" stroke-linecap="square" stroke-linejoin="round" stroke-width=".4767"/>
<path d="m-57.3881,313.9484c.7039,.0118 1.4079,.0102 2.1119,.01 .6452,-8.9e-4 1.2905,-.003 1.9357,-.006 .4312,-.002 .8624,-.002 1.2935,-.003 .3398,-8.1e-4 .6796,-.002 1.0194,-.002 .2968,.0217 .5821,-.0575 .8738,-.0956 .2926,-.0341 .5877,-.039 .8821,-.0425 .2922,-.002 .5843,-10e-4 .8765,-8.4e-4 .2918,4e-4 .5836,5.3e-4 .8754,6.1e-4 .2918,5e-5 .5836,5e-5 .8754,5e-5 .2918,0 .5836,0 .8754,0 .3133,-6.1e-4 .6266,10e-4 .9398,10e-4 .3172,-2.5e-4 .6345,-6.9e-4 .9517,-9.3e-4 .2938,-1.8e-4 .5877,-2e-4 .8815,-2.1e-4 .1943,-1e-5 .0972,-1e-5 .2915,-1e-5l-1.7509,1.2027c-.1943,0-.0971,0-.2914,0-.2936,-2e-5-.5872,-4e-5-.8808,-2.2e-4-.3164,-2.3e-4-.6327,-6.8e-4-.9491,-9.3e-4-.3144,4e-5-.6287,.002-.9431,10e-4-.2918,1e-5-.5836,1e-5-.8754,1e-5-.2918,-1e-5-.5836,-1e-5-.8754,-1.2e-4-.2918,-1.3e-4-.5837,-3.7e-4-.8755,-7.2e-4-.2913,-2.3e-4-.5826,-10e-4-.8738,.004-.2893,.007-.5791,.0195-.8653,.0636-.2961,.0453-.5905,.0907-.8921,.0705-.3377,-4.3e-4-.6755,-10e-4-1.0132,-.002-.4283,-5.4e-4-.8565,-6.3e-4-1.2848,-.003-.6398,-.003-1.2796,-.005-1.9195,-.006-.7134,-4.8e-4-1.4269,-.002-2.1402,.01l1.747,-1.2z" stroke="#000" stroke-linecap="square" stroke-linejoin="round" stroke-width=".4767"/>
<path d="m-97.681,314.1116c.5339,.0676 1.0726,.0889 1.6105,.1048 .4801,.0116 .9604,.0116 1.4405,.0103 .3964,-5e-4 .7929,-6.3e-4 1.1893,-.002 .7958,.0205 1.592,.0104 2.3879,.007 .4809,-.004 .9619,-.005 1.4428,-.007 .3835,3e-5 .767,-4.2e-4 1.1506,6e-4 .4032,.001 .8064,-9.5e-4 1.2096,-3.1e-4 .3638,-8.6e-4 .7277,-7.6e-4 1.0915,-6.6e-4 .3644,5.6e-4 .7288,2.2e-4 1.0931,-5.1e-4 .3481,.001 .6961,1.1e-4 1.0442,-4.5e-4 .3406,.001 .6811,4.5e-4 1.0217,-4e-5 .3008,-4.3e-4 .6016,-5.6e-4 .9024,-6.3e-4 .2516,.0585 .5047,.1006 .7628,.1209 .2799,.0172 .5606,.0173 .8409,.018 .2917,1.9e-4 .5833,-3.9e-4 .875,-6.8e-4 .146,-1.4e-4 .292,-2e-4 .4381,-2.6e-4l-1.7508,1.2027c-.146,10e-5-.292,1.9e-4-.438,3.5e-4-.292,3.2e-4-.584,.001-.876,-3.9e-4-.2852,-.002-.5709,-.005-.8549,-.0331-.2506,-.0294-.496,-.0897-.7478,-.105-.3002,-8e-5-.6004,-2e-4-.9006,-6.3e-4-.3405,-4.8e-4-.681,-.001-1.0215,-5e-5-.3476,-5.5e-4-.6953,-.002-1.0429,-4.4e-4-.3639,-7.3e-4-.7278,-10e-4-1.0916,-5.1e-4-.3632,1.1e-4-.7264,1.9e-4-1.0895,-6.6e-4-.4029,6.4e-4-.8058,-.002-1.2087,-3.1e-4-.3841,.001-.7682,5.8e-4-1.1523,6e-4-.4742,-.002-.9483,-.003-1.4224,-.007-.8027,-.004-1.6058,-.0132-2.4083,.007-.3958,-4.3e-4-.7915,4.6e-4-1.1873,-3.6e-4-.4785,-.003-.957,-.007-1.4353,-.0226-.5477,-.0212-1.0947,-.0538-1.64,-.107l1.7673,-1.1825z" stroke="#000" stroke-linecap="square" stroke-linejoin="round" stroke-width=".4767"/>
<path d="m-136.1855,276.2983 0,18.5432" fill="none" stroke="#000" stroke-linecap="round" stroke-width="4.8046"/>
<path d="m-126.6615,274.544 0,18.5432" fill="none" stroke="#000" stroke-linecap="round" stroke-width="4.8046"/>
<path d="m-117.7245,276.0083 0,18.5432" fill="none" stroke="#000" stroke-linecap="round" stroke-width="4.8046"/>
<path d="m-106.0478,274.841 0,18.5432" fill="none" stroke="#000" stroke-linecap="round" stroke-width="4.8046"/>
<path d="m-95.8892,277.0276 0,18.5432" fill="none" stroke="#000" stroke-linecap="round" stroke-width="4.8046"/>
<path d="m-84.2599,276.8522 0,18.5432" fill="none" stroke="#000" stroke-linecap="round" stroke-width="4.8046"/>
<path d="m-73.7574,275.1381 0,18.5432" fill="none" stroke="#000" stroke-linecap="round" stroke-width="4.8046"/>
<path d="m-63.8419,278.175 0,18.5432" fill="none" stroke="#000" stroke-linecap="round" stroke-width="4.8046"/>
<path d="m-53.169,277.8063 0,18.5432" fill="none" stroke="#000" stroke-linecap="round" stroke-width="4.8046"/>
<path d="m-105.8017,352.8807 27.1229,-4.4282" fill="none" stroke="#000" stroke-width=".7749"/>
<path d="m-144.0697,281.0285 0,18.5432" fill="none" stroke="#000" stroke-linecap="round" stroke-width="4.8046"/>
</g>
<text font-family="Bitstream Vera Sans" font-size="20" x="774.4858" y="830.6735">
    <tspan text-align="center" text-anchor="middle" x="774.4858" y="830.6735">Hmm...</tspan>
   </text>
<g transform="matrix(-1,0,0,1,871.35651,-.11875)">
<path d="m446.8915,78.4154c0,2.9289-27.5427,5.3033-61.5183,5.3033-33.9756,0-61.5183,-2.3744-61.5183,-5.3033 0,-2.9289 27.5427,-5.3033 61.5183,-5.3033 33.9756,0 61.5183,2.3744 61.5183,5.3033z" stroke="#000" stroke-linecap="round" stroke-width="4.862" transform="matrix(.90522,0,0,.90522,307.746,894.997)"/>
<path d="m705.2577,887.3276 0,43.3497c0,18.1108-14.5802,32.691-32.691,32.691l-32.0757,0c-18.1108,0-32.691,-14.5802-32.691,-32.691l0,-43.3497" fill="#fff" stroke="#000" stroke-linecap="round" stroke-linejoin="round" stroke-width="3.297"/>
<path d="M634.095,905.2615H655.3985A.7063,.7063 0 0 1 656.1049,905.9678V915.0436A.7063,.7063 0 0 1 655.3985,915.75H634.095A.7063,.7063 0 0 1 633.3887,915.0436V905.9678A.7063,.7063 0 0 1 634.095,905.2615z" stroke="#000" stroke-linecap="square" stroke-linejoin="round" stroke-width="3.3799"/>
<path d="M671.563,905.2615H690.0412A2.119,2.119 0 0 1 692.1602,907.3805V913.631A2.119,2.119 0 0 1 690.0412,915.75H671.563A2.119,2.119 0 0 1 669.444,913.631V907.3805A2.119,2.119 0 0 1 671.563,905.2615z" stroke="#000" stroke-linecap="square" stroke-linejoin="round" stroke-width="3.3799"/>
<path d="m609.8895,909.837c.4971,.01 .9944,.006 1.4917,.004 .3286,-.002 .6571,-.004 .9857,-.004 .2648,-3.9e-4 .5295,-3.6e-4 .7943,-3.6e-4 .2752,-5.7e-4 .5504,5.4e-4 .8256,9e-4 .3536,-.009 .7017,-3.3e-4 1.0518,.0459 .3618,.0493 .727,.0649 1.0919,.0749 .3668,-.0143 .7268,.0533 1.0899,.0896 .3693,.0333 .7405,.0368 1.1111,.0407 .3894,.002 .7788,.002 1.1681,5.9e-4 .3382,-6.9e-4 .6764,-9e-4 1.0146,-.002 .2779,-7e-4 .5559,-8.9e-4 .8338,-9e-4 .2639,-8e-5 .5277,-7e-5 .7916,-6e-5 .2639,1e-5 .5278,1e-5 .7917,1e-5 .2885,-3.5e-4 .577,4.8e-4 .8655,.002 .3569,.002 .7138,4e-4 1.0707,-5.7e-4 .3357,-2.4e-4 .6714,4.3e-4 1.0072,9.1e-4 .3591,-1.6e-4 .7183,-8e-5 1.0774,-9.1e-4 .344,1.7e-4 .6879,6.7e-4 1.0319,1.5e-4 .3128,-9.1e-4 .6257,-.002 .9385,2.2e-4 .4827,.003 .9653,.004 1.448,.005 .6578,.003 1.3155,.003 1.9733,9.1e-4 .4827,-9.1e-4 .9654,-.005 1.4481,-.005 .3995,5.9e-4 .799,-2e-5 1.1984,-.002 .0553,-1.8e-4 .1106,-3.6e-4 .1659,-5.4e-4l-1.5805,1.0856c-.0548,-1.9e-4-.1095,-3.7e-4-.1643,-5.5e-4-.3982,-.002-.7963,-.002-1.1945,-.002-.4779,-2e-4-.9558,-.004-1.4338,-.005-.6586,-.002-1.3173,-.002-1.9759,9e-4-.488,.002-.976,.003-1.464,.005-.313,.002-.6261,.002-.9391,2.4e-4-.3441,-5.2e-4-.6882,-3e-5-1.0323,1.3e-4-.3582,-8.9e-4-.7164,-8e-4-1.0745,-9e-4-.3371,9e-4-.6741,.002-1.0112,.002-.3564,-9.1e-4-.7127,-.003-1.0691,-5.7e-4-.2902,9e-4-.5804,.002-.8706,.002-.2639,0-.5278,0-.7918,0-.2638,0-.5276,2e-5-.7914,-6e-5-.277,-1.1e-4-.554,-3.1e-4-.831,-8.7e-4-.3368,-6.2e-4-.6735,-7.6e-4-1.0103,-7.9e-4-.3894,-7.5e-4-.7788,6.3e-4-1.1682,-.004-.3755,-.005-.7516,-.0131-1.125,-.0539-.3592,-.0404-.717,-.088-1.08,-.0787-.3691,-.0138-.7376,-.0394-1.1037,-.0876-.3458,-.0366-.6928,-.0264-1.0404,-.0252-.2762,5.1e-4-.5524,.002-.8287,9.1e-4-.2644,10e-6-.5288,2e-5-.7933,-3.7e-4-.3248,-6e-4-.6497,-.002-.9745,-.004-.5008,-.003-1.0017,-.005-1.5024,.004l1.5836,-1.0877z" stroke="#000" stroke-linecap="square" stroke-linejoin="round" stroke-width=".4315"/>
<path d="m692.7127,910.0874c.6372,.0107 1.2745,.009 1.9117,.009 .5841,-8e-4 1.1682,-.003 1.7522,-.005 .3903,-.002 .7806,-.002 1.1709,-.003 .3076,-7.3e-4 .6152,-.002 .9228,-.002 .2687,.0196 .5269,-.0521 .791,-.0865 .2649,-.0309 .532,-.0353 .7985,-.0385 .2645,-.002 .5289,-9e-4 .7934,-7.6e-4 .2641,3.6e-4 .5283,4.8e-4 .7924,5.5e-4 .2641,5e-5 .5283,5e-5 .7924,5e-5 .2641,0 .5283,0 .7924,0 .2836,-5.5e-4 .5672,9e-4 .8508,9e-4 .2872,-2.2e-4 .5744,-6.2e-4 .8615,-8.4e-4 .266,-1.6e-4 .532,-1.8e-4 .7979,-1.9e-4 .1759,-10e-6 .088,-10e-6 .2638,-10e-6l-1.585,1.0887c-.1759,0-.0879,0-.2638,0-.2658,-2e-5-.5316,-4e-5-.7974,-2e-4-.2864,-2.1e-4-.5727,-6.2e-4-.8591,-8.4e-4-.2846,3e-5-.5692,.002-.8537,9e-4-.2641,10e-6-.5283,10e-6-.7924,10e-6-.2641,-10e-6-.5283,-10e-6-.7924,-1.1e-4-.2642,-1.2e-4-.5283,-3.3e-4-.7925,-6.5e-4-.2637,-2.1e-4-.5274,-9.1e-4-.791,.004-.2619,.006-.5242,.0177-.7833,.0576-.268,.041-.5346,.0821-.8075,.0638-.3057,-3.9e-4-.6115,-9e-4-.9172,-.002-.3877,-4.9e-4-.7753,-5.8e-4-1.163,-.003-.5792,-.003-1.1583,-.005-1.7375,-.005-.6458,-4.3e-4-1.2916,-.002-1.9373,.009l1.5814,-1.0863z" stroke="#000" stroke-linecap="square" stroke-linejoin="round" stroke-width=".4315"/>
<path d="m656.2387,910.2352c.4833,.0612 .9709,.0805 1.4579,.0949 .4346,.0105 .8693,.0105 1.304,.009 .3589,-4.6e-4 .7177,-5.7e-4 1.0766,-.002 .7203,.0186 1.4411,.009 2.1616,.006 .4354,-.004 .8707,-.005 1.3061,-.006 .3472,2e-5 .6943,-3.8e-4 1.0415,5.4e-4 .365,9e-4 .73,-8.6e-4 1.0949,-2.8e-4 .3293,-7.8e-4 .6587,-6.9e-4 .988,-6e-4 .3298,5.1e-4 .6597,2e-4 .9895,-4.6e-4 .3151,9e-4 .6301,10e-5 .9452,-4.1e-4 .3083,9.1e-4 .6166,4.1e-4 .9248,-3e-5 .2723,-3.9e-4 .5446,-5.1e-4 .8169,-5.8e-4 .2277,.053 .4568,.091 .6905,.1095 .2534,.0156 .5074,.0157 .7612,.0163 .264,1.7e-4 .5281,-3.5e-4 .7921,-6.2e-4 .1322,-1.2e-4 .2644,-1.8e-4 .3966,-2.3e-4l-1.5849,1.0888c-.1321,9e-5-.2643,1.7e-4-.3965,3.1e-4-.2643,2.9e-4-.5287,9.1e-4-.793,-3.5e-4-.2581,-.002-.5168,-.005-.7739,-.03-.2268,-.0266-.449,-.0812-.677,-.095-.2717,-8e-5-.5435,-1.9e-4-.8152,-5.7e-4-.3082,-4.4e-4-.6165,-9.1e-4-.9247,-5e-5-.3147,-5e-4-.6294,-.002-.9441,-4e-4-.3294,-6.6e-4-.6588,-9e-4-.9882,-4.6e-4-.3287,10e-5-.6575,1.7e-4-.9863,-6e-4-.3647,5.8e-4-.7294,-.002-1.0941,-2.8e-4-.3477,9.1e-4-.6954,5.3e-4-1.0431,5.4e-4-.4292,-.002-.8584,-.003-1.2876,-.006-.7267,-.004-1.4536,-.0119-2.1801,.006-.3583,-3.8e-4-.7165,4.2e-4-1.0747,-3.2e-4-.4331,-.003-.8663,-.006-1.2992,-.0205-.4958,-.0192-.991,-.0487-1.4846,-.0968l1.5998,-1.0704z" stroke="#000" stroke-linecap="square" stroke-linejoin="round" stroke-width=".4315"/>
<path d="m621.3836,876.0057 0,16.7858" fill="none" stroke="#000" stroke-linecap="round" stroke-width="4.3493"/>
<path d="m630.0049,874.4176 0,16.7858" fill="none" stroke="#000" stroke-linecap="round" stroke-width="4.3493"/>
<path d="m638.0948,875.7432 0,16.7858" fill="none" stroke="#000" stroke-linecap="round" stroke-width="4.3493"/>
<path d="m648.6649,874.6866 0,16.7858" fill="none" stroke="#000" stroke-linecap="round" stroke-width="4.3493"/>
<path d="m657.8607,876.6659 0,16.7858" fill="none" stroke="#000" stroke-linecap="round" stroke-width="4.3493"/>
<path d="m668.3878,876.5072 0,16.7858" fill="none" stroke="#000" stroke-linecap="round" stroke-width="4.3493"/>
<path d="m677.8949,874.9554 0,16.7858" fill="none" stroke="#000" stroke-linecap="round" stroke-width="4.3493"/>
<path d="m686.8706,877.7045 0,16.7858" fill="none" stroke="#000" stroke-linecap="round" stroke-width="4.3493"/>
<path d="m696.532,877.3708 0,16.7858" fill="none" stroke="#000" stroke-linecap="round" stroke-width="4.3493"/>
<path d="m614.2466,880.2876 0,16.7858" fill="none" stroke="#000" stroke-linecap="round" stroke-width="4.3493"/>
<path d="m635.1096,940.2301c9.4652,5.3614 15.6635,2.77 22.1429,4.2857" fill="none" stroke="#000"/>
</g>
<text font-family="Bitstream Vera Sans" font-size="20" x="191.129" y="357.659">
    <tspan text-align="center" text-anchor="middle" x="191.129" y="357.659"></tspan>
   </text>
<text font-family="Bitstream Vera Sans" font-size="20" x="943.918" y="-56.3923">
    <tspan text-align="center" text-anchor="middle" x="943.918" y="-56.3923"></tspan>
   </text>
<text font-family="Bitstream Vera Sans" font-size="20" x="712.757" y="126.755">
    <tspan x="712.757" y="126.755"></tspan>
   </text>
<text font-family="Bitstream Vera Sans" font-size="20" x="92.8667" y="467.43">
    <tspan x="92.8667" y="467.43"></tspan>
   </text>
<path d="M47.7052,655.821H298.8691A15.6552,15.6552 0 0 1 314.5243,671.4762V671.4762A15.6552,15.6552 0 0 1 298.8691,687.1313H47.7052A15.6552,15.6552 0 0 1 32.05,671.4762V671.4762A15.6552,15.6552 0 0 1 47.7052,655.821z" fill="#fff" stroke="#000" stroke-linecap="round" stroke-linejoin="round" stroke-width="4.5094" transform="matrix(.99999,-.00315,.00315,.99999,0,0)"/>
<path d="m101.5203,44.9288c0,19.2473-16.5075,34.8503-36.8706,34.8503-20.3631,0-36.8706,-15.603-36.8706,-34.8503 0,-19.2473 16.5075,-34.8503 36.8706,-34.8503 20.3631,0 36.8706,15.603 36.8706,34.8503z" stroke="#000" stroke-linecap="round" stroke-linejoin="round" stroke-width="7.491" transform="matrix(1.24255,-.00391,.00217,.68917,-24.006,632.869)"/>
<text font-family="Bitstream Vera Sans" font-size="40" transform="matrix(.99999,-.00315,.00315,.99999,0,0)" x="16.6071" y="677.802">
    <tspan fill="#f9f9f9" x="16.6071" y="677.802">116</tspan>
   </text>
<text font-family="Bitstream Vera Sans" font-size="20" transform="matrix(1,-.00315,.00315,1,0,0)" x="132.9515" y="677.8276">
    <tspan x="132.9515" y="677.8276">Restauration</tspan>
   </text>
<text font-family="Bitstream Vera Sans" font-size="20" x="83.5032" y="-20.9753">
    <tspan text-align="center" text-anchor="middle" x="83.5032" y="-20.9753"></tspan>
   </text>
<text font-family="Bitstream Vera Sans" font-size="20" x="644.258" y="-482.924">
    <tspan text-align="center" text-anchor="middle" x="644.258" y="-482.924"></tspan>
   </text>
<text font-family="Bitstream Vera Sans" font-size="20" x="413.098" y="-299.776">
    <tspan x="413.098" y="-299.776"></tspan>
   </text>
<path d="m185.4716,806.7763 18.1827,42.4264" fill="none" stroke="#000"/>
<path d="m768.3296,839.1012 8.0812,30.3046" fill="none" stroke="#000"/>
<g transform="translate(157.5838,456.589)">
<path d="m-22.2234,373.7335c0,2.371-17.0728,4.2931-38.1333,4.2931-21.0604,0-38.1333,-1.9221-38.1333,-4.2931 0,-2.371 17.0728,-4.2931 38.1333,-4.2931 19.4107,0 35.7241,1.6416 37.8942,3.8132" opacity=".99" stroke="#000" stroke-linecap="round" stroke-width="2" transform="matrix(-1.18208,0,0,1.05864,-138.82706,110.52713)"/>
<path d="m-103.7969,456.4695c3.3668,22.3932 13.2902,39.5685 32.912,48.2252 19.3184,8.5228 38.5542,-21.8659 38.1953,-46.0635-.3949,-26.6262-22.7481,-33.0841-44.1838,-33.0841-21.4357,0-26.9235,4.2935-26.9235,30.9224z" fill="#fff" opacity=".99" stroke="#000" stroke-linecap="round" stroke-width="3.8896"/>
<path d="m-97.4179,431.5622c-.5535,.9761-.8715,2.0612-1.0749,3.2175-.1718,1.2589-.2013,2.5379-.2233,3.8117-.0092,.85-.0106,1.7002-.0063,2.5503 .0132,.9439 .3362,1.8035 .6464,2.6452 .28,.7664 .6714,1.4568 1.0442,2.156 .4995,.8337 1.0059,1.6615 1.5154,2.486 .5152,.7829 .9323,1.6514 1.4034,2.4734 .2992,.4778 .4238,1.0215 .4807,1.6107 .1158,1.0901-.2142,2.0507-.6191,2.9892-.7182,1.5344-1.8158,2.6631-2.9307,3.7311-.6824,.6829-1.4534,1.2172-2.1113,1.9373-.4907,.5677-.9035,1.2317-1.314,1.8881-.6313,.9486-1.1694,1.9816-1.6521,3.0543-.4378,.9751-.8009,1.9784-.9385,3.0856-.002,1.6444 .9715,2.743 1.9432,3.6757 1.4045,1.239 2.944,2.2175 4.4415,3.2666 .2196,.1538 .4622,.3548 .7204,.3093 .0484,-.1646 .1425,-.3186 .1452,-.4939 .0025,-.1614-.3448,-.7784-.377,-.8371-.3265,-.5946-.695,-1.1416-1.0653,-1.6941-.7247,-1.0213-1.4434,-2.0433-2.0396,-3.1881-.4034,-.758-.561,-1.6019-.6285,-2.4911-.001,-1.1145 .3244,-2.1301 .6927,-3.1246 .4149,-.9245 1.0323,-1.6652 1.6254,-2.4115 .7596,-.9825 1.4241,-2.0671 2.0793,-3.1568 .5575,-.9596 1.0897,-1.9413 1.6428,-2.9046 .4566,-.7021 .9119,-1.3951 1.3168,-2.1459 .7509,-1.2754 1.193,-2.751 1.6729,-4.1981 .435,-1.3065 .7984,-2.6444 1.1472,-3.9891 .2425,-.9321 .3985,-1.896 .5549,-2.8551 .1642,-.7793 .3189,-1.524 .1814,-2.3236-.1337,-.4728-.355,-.9419-.7133,-1.2075-2.9955,-2.2209-2.1361,-1.7478-3.6171,-2.5248-1.1314,-.4555-2.3085,-.6776-3.4845,-.8656-.6578,-.0424-1.85,-.3893-2.4081,.2497-.0672,.0769-.104,.1866-.156,.2799-.0174,.1357-.0527,.2698-.0522,.4072 .004,.9518 .6898,2.0202 1.1046,2.758 .7513,1.2297 1.517,2.4478 2.1163,3.8036 .4272,1.1068 .4839,2.3512 .0681,3.4834-.0975,.2654-.2314,.5078-.347,.7616-.9931,1.8094-2.4596,3.0146-3.9457,4.1209-.8405,.6187-1.7693,1.0043-2.6547,1.5033-.7506,.4149-1.4479,.9317-2.0913,1.5635-.5983,.6094-1.1024,1.3419-1.6125,2.0603-.4994,.7122-.905,1.5083-1.2217,2.3652-.3061,.73-.426,1.5303-.493,2.34-.0603,.6818-.0674,1.3584 .1152,2.0109 .1331,.4075 .3605,.7518 .6131,1.0547 .2343,.2939 .4651,.5945 .7133,.8709 1.1957,.8875 2.6153,2.5887 4.1895,2.2582 .6004,-.2 .9573,-.7406 1.2417,-1.3921 .2756,-.8648 .5885,-1.705 .9611,-2.5125 .4963,-1.0562 1.1441,-1.9843 1.7085,-2.9835 .6127,-1.1435 1.0376,-2.3961 1.3189,-3.719 .2182,-1.0273 .2067,-2.0924 .3021,-3.1392 .1023,-.9154 .6246,-1.664 1.0268,-2.4121 .7137,-1.2134 1.3397,-2.501 1.9983,-3.7604 .3459,-.7682 .7184,-1.5154 1.1144,-2.245 .2437,-.4831 .4356,-.9927 .5965,-1.525 .1605,-.5969 .2926,-1.2026 .5198,-1.7673 .2398,-.5693 .4862,-1.1333 .7197,-1.7067 .0158,-.0293 .1103,-.2424 .1756,-.2563 .0194,-.004 .0561,.0671 .0389,.0554-.9985,-.681-1.9399,-1.504-2.9856,-2.0651-.1049,-.0564-.1006,.2552-.1571,.3786-.125,.2729-.2581,.5399-.3871,.8098-1.5084,2.7767-3.0322,5.5664-4.8637,8.0367-.4618,.6229-.9555,1.2082-1.4332,1.8123-.4971,.5651-.9865,1.1409-1.4913,1.6954-1.1767,1.2929-1.6696,1.7932-2.9229,2.9201-1.1105,.9986-2.2708,1.9094-3.4147,2.8469-.9084,.6858-1.8126,1.3775-2.4806,2.4188-.3182,.5213-.6051,1.1047-1.0376,1.4928-.2318,.1162-.4623,.2312-.6968,.342 0,0 2.869,2.387 2.869,2.387l0,0c.2555,-.1333 .5231,-.2436 .748,-.4508 .4208,-.4533 .738,-1.0283 1.0622,-1.5865 .6329,-.9921 1.4941,-1.6784 2.3249,-2.3914 1.1091,-.9801 2.2414,-1.9236 3.3301,-2.9388 1.2284,-1.1455 1.7476,-1.6825 2.9086,-2.9731 .5057,-.5622 .9974,-1.1434 1.4961,-1.7151 .4828,-.6097 .9798,-1.2025 1.4484,-1.8291 1.8553,-2.481 3.4242,-5.2583 5.057,-7.9615 .1474,-.2627 .2973,-.5234 .4423,-.7882 .0883,-.1612 .3766,-.3629 .2575,-.4898-1.7197,-1.8306-2.452,-3.5368-3.2861,-1.8682-.2249,.5785-.4648,1.1433-.7105,1.7085-.2373,.5749-.3856,1.1876-.5404,1.8025-.1585,.4987-.3302,.9863-.5576,1.4444-.3902,.7374-.7343,1.5084-1.0791,2.2795-.6426,1.2667-1.2592,2.5579-1.9906,3.7506-.4464,.7894-1.0258,1.5883-1.1408,2.5702-.0938,1.0336-.0452,2.0885-.2499,3.1075-.2545,1.282-.6618,2.4863-1.2643,3.5814-.5713,1.0078-1.217,1.9521-1.7254,3.0128-.3832,.8041-.717,1.6379-.9925,2.5069-.2335,.5451-.5391,.9711-1.0639,1.0277-1.4083,-.0339-3.1953,-1.7667 1.8352,1.7929-.3084,-.1739-.4828,-.5206-.745,-.7724-.2093,-.3208-.4836,-.5645-.6685,-.9149-.2368,-.6533-.2725,-1.1151-.2063,-1.8411 .0553,-.7667 .1512,-1.5258 .4414,-2.2177 .2887,-.8272 .68,-1.5844 1.1626,-2.2595 .4947,-.6996 .9913,-1.4058 1.5733,-1.9968 .6318,-.6013 1.3243,-1.0759 2.0535,-1.4724 .89,-.49 1.7952,-.9472 2.6226,-1.594 1.5106,-1.1764 2.999,-2.4559 4.0404,-4.2924 .1292,-.2732 .2771,-.5341 .3877,-.8196 .4655,-1.2017 .4762,-2.5655 .0673,-3.787-.5593,-1.3974-1.3375,-2.6264-2.1036,-3.8573-.4714,-.8248-1.0088,-1.6556-1.1805,-2.6685 .3367,-.6304 1.8079,-.2178 2.2878,-.1954 1.173,.2076 2.3578,.4467 3.4624,1.0005 1.2404,.7556 .659,.4154-2.2497,-1.6873-.0935,-.0676 .1845,.1404 .2731,.2176 .2246,.1957 .4054,.416 .5211,.7302 .2377,.7574 .0558,1.388-.0988,2.1484-.1402,.9491-.2965,1.8988-.5153,2.8249-.3396,1.338-.6781,2.6764-1.1075,3.9758-.4765,1.4172-.8976,2.8736-1.6689,4.0989-.4194,.7353-.8851,1.42-1.3255,2.1351-.539,.9691-1.0483,1.9635-1.607,2.9161-.6481,1.0747-1.3146,2.134-2.0751,3.0915-.6239,.7784-1.2582,1.5679-1.6857,2.5404-.3877,1.058-.726,2.1311-.7864,3.3056 .0449,.9474 .1653,1.8648 .576,2.688 .5803,1.1782 1.2865,2.2317 2.0374,3.2484 .3622,.5384 .7361,1.0588 1.0582,1.6363 .065,.1166 .342,.6731 .3813,.6758 .0875,.005 .1318,-.1434 .1977,-.215-.1501,-.1336-.9761,-.666-.5929,-.3815 .8125,.6033 1.6334,1.1889 2.4501,1.7831 .1763,.1282-.3554,-.2506-.5286,-.3852-.1979,-.1538-.3895,-.3198-.5843,-.4797-.9373,-.8014-1.9013,-1.7345-2.0421,-3.2368 .0872,-1.0668 .4566,-2.02 .8641,-2.9549 .464,-1.0605 1.0034,-2.0666 1.6338,-2.9872 .4061,-.6307 .8184,-1.2625 1.2995,-1.8083 .6476,-.7058 1.3778,-1.2824 2.0421,-1.9632 1.1338,-1.1241 2.2701,-2.2922 3.021,-3.8627 .4413,-.9887 .8279,-2.0165 .7581,-3.1782-.028,-.6462-.1115,-1.2748-.4123,-1.8219-.4754,-.8319-.9222,-1.6868-1.422,-2.4975-.4947,-.8217-.9882,-1.6458-1.5043,-2.4465-.359,-.701-.7666,-1.3651-1.0727,-2.1055-.2986,-.7924-.6414,-1.5857-.6993,-2.474-.0017,-.8517-.0145,-1.7033-.014,-2.555 .0041,-1.2509 .0182,-2.5079 .1804,-3.7455 .1837,-1.1034 .4751,-2.1414 1.0445,-3.0385 0,0-2.9667,-2.1751-2.9667,-2.1751z" opacity=".99" stroke="#000" stroke-linecap="round" stroke-width="2.0492"/>
<path d="m-104.8964,437.3272c.0104,.9487 .264,1.8127 .5075,2.6587 .2198,.7703 .5271,1.4643 .8198,2.167 .3921,.838 .7897,1.6699 1.1897,2.4987 .4045,.7869 .7319,1.6598 1.1018,2.4861 .2349,.4802 .3327,1.0267 .3774,1.6189 .0909,1.0957-.1681,2.0612-.486,3.0045-.5638,1.5422-1.4255,2.6767-2.3008,3.7502-.5357,.6863-1.141,1.2234-1.6575,1.9471-.3852,.5706-.7093,1.238-1.0316,1.8978-.4956,.9534-.9181,1.9917-1.297,3.0699-.3437,.9801-.6287,1.9885-.7368,3.1014-.002,1.6528 .7627,2.757 1.5256,3.6945 1.1026,1.2453 2.3112,2.2288 3.4869,3.2832 .1724,.1547 .3628,.3566 .5656,.3108 .038,-.1655 .1119,-.3202 .114,-.4964 .002,-.1622-.2707,-.7824-.296,-.8414-.2563,-.5977-.5456,-1.1474-.8363,-1.7027-.569,-1.0265-1.1332,-2.0537-1.6012,-3.2043-.3167,-.7619-.4404,-1.6101-.4934,-2.5038-.001,-1.1202 .2546,-2.141 .5438,-3.1405 .3257,-.9292 .8104,-1.6737 1.276,-2.4238 .5963,-.9875 1.118,-2.0776 1.6323,-3.173 .4377,-.9645 .8555,-1.9512 1.2897,-2.9194 .3585,-.7056 .7159,-1.4022 1.0337,-2.1568 .5895,-1.2819 .9366,-2.765 1.3133,-4.2195 .3415,-1.3132 .6268,-2.6579 .9006,-4.0095 .1904,-.9369 .3129,-1.9057 .4357,-2.8697 .1289,-.7833 .2504,-1.5317 .1424,-2.3354-.105,-.4752-.2787,-.9467-.56,-1.2137-2.3516,-2.2322-1.677,-1.7567-2.8397,-2.5376-7.3663,-3.2952-3.8254,2.6722-2.2609,6.6667 .3354,1.1125 .3799,2.3632 .0534,3.5012-.0765,.2668-.1816,.5103-.2724,.7655-.7797,1.8186-1.931,3.0299-3.0976,4.1419-.6598,.6219-1.389,1.0094-2.0841,1.5109-.5893,.417-1.1367,.9364-1.6418,1.5715-.4697,.6125-.8655,1.3487-1.2659,2.0708-.3921,.7158-.7104,1.516-.9591,2.3773-.2403,.7337-.3344,1.538-.387,2.352-.0473,.6853-.0529,1.3653 .0904,2.0211 .1045,.4096 .283,.7556 .4813,1.0601 .184,.2954 .3652,.5976 .56,.8753 .9387,.8921 2.0532,2.6019 3.2891,2.2697 .4713,-.201 .7516,-.7444 .9748,-1.3992 .2163,-.8693 .462,-1.7137 .7545,-2.5253 .3896,-1.0616 .8982,-1.9944 1.3413,-2.9987 .481,-1.1493 .8146,-2.4083 1.0354,-3.738 .1713,-1.0325 .1623,-2.1031 .2372,-3.1552 .0803,-.9201 .4903,-1.6724 .8061,-2.4244 .5603,-1.2196 1.0518,-2.5137 1.5688,-3.7795 .2715,-.7721 .564,-1.5232 .8749,-2.2564 .1913,-.4856 .3419,-.9977 .4683,-1.5327 .126,-.5999 .2297,-1.2088 .4081,-1.7763 .1883,-.5721 .3817,-1.139 .565,-1.7153 .0124,-.0294 .0866,-.2437 .1378,-.2576 .0152,-.004 .0441,.0674 .0305,.0557-.7839,-.6845-1.523,-1.5116-2.3439,-2.0757-.0824,-.0566-.079,.2565-.1233,.3805-1.1611,3.0566-2.5522,6.025-4.1222,8.8917-.3626,.6261-.7501,1.2144-1.1252,1.8216-.3902,.568-.7745,1.1467-1.1707,1.7041-.9238,1.2995-1.3107,1.8023-2.2947,2.935-.8718,1.0036-1.7827,1.9192-2.6807,2.8614-.7132,.6894-1.423,1.3845-1.9474,2.4312 .8311,1.875-.4751,1.1103-.8145,1.5004-.1819,.1168 1.5285,2.6643-.547,.3437 0,0 2.2524,2.3992 2.2524,2.3992l0,0c.2006,-.134 .4107,-.2449 .5872,-.4531 .3304,-.4556 .5794,-1.0335 .8339,-1.5946 .4968,-.9972 1.173,-1.687 1.8252,-2.4036 .8707,-.9851 1.7597,-1.9334 2.6144,-2.9538 .9644,-1.1513 1.372,-1.6911 2.2834,-2.9882 .397,-.565 .783,-1.1492 1.1745,-1.7239 .379,-.6128 .7692,-1.2087 1.1371,-1.8384 1.4565,-2.4936 2.6883,-5.2851 3.9701,-8.0021 .1157,-.2641 .2334,-.526 .3472,-.7922 .0693,-.162 .2957,-.3647 .2021,-.4923-1.3501,-1.8399-1.925,-3.5549-2.5798,-1.8778-.1766,.5814-.3649,1.1492-.5578,1.7172-.1863,.5779-.3027,1.1937-.4243,1.8117-.1244,.5013-.2592,.9913-.4377,1.4518-.3064,.7411-.5764,1.5161-.8471,2.2911-.5045,1.2732-.9885,2.571-1.5627,3.7697-.3505,.7935-.8053,1.5964-.8956,2.5833-.0736,1.0389-.0355,2.0992-.1962,3.1234-.1998,1.2885-.5196,2.499-.9926,3.5996-.4485,1.0129-.9554,1.9621-1.3546,3.0282-.3009,.8082-.5629,1.6462-.7792,2.5197-.1833,.5478-.4232,.976-.8352,1.0329-1.1056,-.0341-2.5085,-1.7757 1.4408,1.802-.2421,-.1748-.379,-.5233-.5849,-.7763-.1643,-.3225-.3797,-.5674-.5248,-.9195-.1859,-.6566-.2139,-1.1208-.162,-1.8505 .0434,-.7706 .1187,-1.5336 .3465,-2.229 .2266,-.8315 .5339,-1.5925 .9127,-2.271 .3884,-.7032 .7782,-1.413 1.2352,-2.007 .496,-.6044 1.0397,-1.0814 1.6122,-1.4799 .6987,-.4924 1.4093,-.952 2.0589,-1.6021 1.1859,-1.1824 2.3544,-2.4684 3.172,-4.3143 .1015,-.2746 .2175,-.5368 .3044,-.8238 .3655,-1.2078 .3738,-2.5785 .0528,-3.8063-.4391,-1.4045-1.05,-2.6398-1.6515,-3.877-.7758,-1.7486-1.6077,-3.2056 .8694,-2.8786 .9208,.2087 1.8511,.449 2.7182,1.0056 .9738,.7594 .5173,.4175-1.7662,-1.6959-.0734,-.0679 .1449,.1412 .2144,.2187 .1763,.1967 .3183,.4181 .4091,.7339 .1866,.7613 .0439,1.3951-.0776,2.1594-.1101,.954-.2328,1.9085-.4045,2.8393-.2666,1.3448-.5323,2.6901-.8694,3.996-.3741,1.4244-.7047,2.8882-1.3102,4.1198-.3293,.7391-.6948,1.4272-1.0406,2.146-.4232,.974-.823,1.9736-1.2616,2.931-.5088,1.0802-1.032,2.1449-1.6291,3.1072-.4898,.7823-.9878,1.5759-1.3234,2.5534-.3044,1.0634-.57,2.142-.6174,3.3225 .0352,.9522 .1298,1.8743 .4522,2.7017 .4555,1.1842 1.01,2.2431 1.5995,3.265 .2843,.5411 .5779,1.0642 .8308,1.6446 .0511,.1172 .2685,.6765 .2993,.6793 .0687,.005 .1035,-.1441 .1552,-.2162-.1178,-.1343-.7663,-.6694-.4655,-.3834 .6378,.6064 1.2823,1.195 1.9235,1.7922 .1384,.1289-.279,-.2519-.415,-.3871-.1554,-.1546-.3058,-.3214-.4587,-.4821-.7359,-.8055-1.4927,-1.7433-1.6032,-3.2533 .0685,-1.0722 .3584,-2.0303 .6784,-2.97 .3643,-1.0659 .7878,-2.0772 1.2827,-3.0025 .3188,-.6339 .6425,-1.2689 1.0202,-1.8175 .5084,-.7094 1.0816,-1.289 1.6031,-1.9732 .8901,-1.1299 1.7821,-2.3039 2.3717,-3.8824 .3465,-.9937 .6499,-2.0267 .5951,-3.1944-.022,-.6495-.0875,-1.2813-.3237,-1.8313-.3733,-.8361-.724,-1.6954-1.1163,-2.5102-.3884,-.8259-.7758,-1.6541-1.181,-2.459-.2819,-.7045-.6018,-1.372-.8421,-2.1162-.2344,-.7964-.5036,-1.5938-.549,-2.4866-.001,-.856-.0114,-1.712-.011,-2.568-.0844,-2.3479 .1185,-4.6254 .9616,-6.8186 4.0692,1.0857-1.626,6.0632-3.3533,7.4419z" opacity=".99" stroke="#000" stroke-linecap="round" stroke-width="1.8203"/>
<g transform="matrix(-.98014,-.10124,-.06111,1.18984,-68.40386,-646.06187)">
<path d="m11.9643,305.3571c0,3.4518-28.5818,6.25-63.8393,6.25-35.2575,0-63.8393,-2.7982-63.8393,-6.25 0,-3.4518 28.5818,-6.25 63.8393,-6.25 32.4957,0 59.806,2.3898 63.4391,5.5512" opacity=".99" stroke="#fff" stroke-linecap="round" stroke-width="2" transform="translate(-6.25,603.434)"/>
<path d="m-94.1071,906.6479 11.0019,-21.9243c-.1808,1.2085 50.3175,-5.7813 51.5895,-2.9l10.8014,24.4672" opacity=".99" stroke="#000" stroke-linecap="round" stroke-width="3.9"/>
<path d="m-116.367,898.2356c34.2957,2.5626 54.0053,2.6762 63.9072,1.293l.9834,2.3201c-17.7324,1.021-41.8983,-.6159-65.3933,-1.8164l.5027,-1.7967z" fill="#fff" opacity=".99" stroke="#fff" stroke-linecap="round" stroke-width="3.9" transform="matrix(.99955,-.03008,.03008,.99955,0,0)"/>
</g>
<path d="m-60.7255,489.9646c-5.0924,-1.6012-8.56,-3.7707-15.6643,-6.346" fill="none" stroke="#000" stroke-width="1.07"/>
<path d="m-69.9531,326.6351c0,2.0224-3.1093,3.6618-6.9448,3.6618-3.8355,0-6.9448,-1.6394-6.9448,-3.6618 0,-2.0224 3.1093,-3.6618 6.9448,-3.6618 3.5351,0 6.506,1.4002 6.9013,3.2524" fill="#fff" opacity=".99" stroke="#000" stroke-linecap="round" stroke-width="1.6823" transform="matrix(-1.06998,0,0,1.06998,-127.46756,110.28713)"/>
<path d="m-65.0356,325.2462c0,.2789-.3659,.5051-.8172,.5051-.4513,0-.8172,-.2261-.8172,-.5051 0,-.2789 .3659,-.5051 .8172,-.5051 .416,0 .7656,.1931 .8121,.4486" opacity=".99" stroke="#000" stroke-linecap="round" stroke-width="2" transform="matrix(1.06998,0,0,1.06998,26.97194,111.61413)"/>
<path d="m-69.9531,326.6351c0,2.0224-3.1093,3.6618-6.9448,3.6618-3.8355,0-6.9448,-1.6394-6.9448,-3.6618 0,-2.0224 3.1093,-3.6618 6.9448,-3.6618 3.5351,0 6.506,1.4002 6.9013,3.2524" fill="#fff" opacity=".99" stroke="#000" stroke-linecap="round" stroke-width="1.6823" transform="matrix(-1.06998,0,0,1.06998,-148.63806,110.33513)"/>
<path d="m-65.0356,325.2462c0,.2789-.3659,.5051-.8172,.5051-.4513,0-.8172,-.2261-.8172,-.5051 0,-.2789 .3659,-.5051 .8172,-.5051 .416,0 .7656,.1931 .8121,.4486" opacity=".99" stroke="#000" stroke-linecap="round" stroke-width="2" transform="matrix(1.06998,0,0,1.06998,5.80094,111.66213)"/>
</g>
<path d="m-22.2234,373.7335a38.1333,4.2931 0 1 1 -.2391,-.48" opacity=".99" stroke="#000" stroke-linecap="round" stroke-width="2" transform="matrix(-1.18208,0,0,1.05864,588.51408,569.41278)"/>
<path d="m623.5447,915.3551c3.3668,22.3932 13.2902,39.5685 32.912,48.2252 19.3184,8.5228 38.5542,-21.8659 38.1953,-46.0635-.3949,-26.6262-22.7481,-33.0841-44.1838,-33.0841-21.4357,0-26.9235,4.2935-26.9235,30.9224z" fill="#fff" opacity=".99" stroke="#000" stroke-linecap="round" stroke-width="3.8896"/>
<path d="m629.9236,890.4478c-.5535,.9761-.8714,2.0612-1.0749,3.2175-.1718,1.2589-.2013,2.5379-.2233,3.8117-.009,.85-.0106,1.7002-.006,2.5503 .0132,.9439 .3362,1.8035 .6464,2.6452 .28,.7664 .6714,1.4568 1.0442,2.156 .4995,.8337 1.0058,1.6615 1.5154,2.486 .5152,.7829 .9323,1.6514 1.4034,2.4734 .2992,.4778 .4238,1.0215 .4807,1.6107 .1158,1.0901-.2142,2.0507-.6191,2.9892-.7182,1.5344-1.8158,2.6631-2.9307,3.7311-.6824,.6829-1.4534,1.2172-2.1113,1.9373-.4907,.5677-.9034,1.2317-1.314,1.8881-.6313,.9486-1.1694,1.9816-1.6521,3.0543-.4378,.9751-.8009,1.9784-.9385,3.0856-.002,1.6444 .9715,2.743 1.9432,3.6757 1.4044,1.239 2.944,2.2175 4.4415,3.2666 .2196,.1538 .4622,.3548 .7204,.3093 .0484,-.1646 .1425,-.3186 .1452,-.4939 .002,-.1614-.3448,-.7784-.377,-.8371-.3265,-.5946-.695,-1.1416-1.0653,-1.6941-.7247,-1.0213-1.4434,-2.0433-2.0396,-3.1881-.4034,-.758-.561,-1.6019-.6285,-2.4911-.001,-1.1145 .3244,-2.1301 .6927,-3.1246 .4149,-.9245 1.0323,-1.6652 1.6254,-2.4115 .7596,-.9825 1.4241,-2.0671 2.0793,-3.1568 .5575,-.9596 1.0897,-1.9413 1.6428,-2.9046 .4566,-.7021 .9119,-1.3951 1.3168,-2.1459 .7509,-1.2754 1.193,-2.751 1.6729,-4.1981 .435,-1.3065 .7984,-2.6444 1.1472,-3.9891 .2425,-.9321 .3985,-1.896 .5549,-2.8551 .1642,-.7793 .3189,-1.524 .1814,-2.3236-.1337,-.4728-.355,-.9419-.7133,-1.2075-2.9954,-2.2209-2.1361,-1.7478-3.6171,-2.5248-1.1314,-.4555-2.3085,-.6776-3.4845,-.8656-.6578,-.0424-1.85,-.3893-2.4081,.2497-.0672,.0769-.104,.1866-.156,.2799-.0174,.1357-.0527,.2698-.0522,.4072 .004,.9518 .6898,2.0202 1.1046,2.758 .7513,1.2297 1.517,2.4478 2.1163,3.8036 .4273,1.1068 .4839,2.3512 .0681,3.4834-.0975,.2654-.2314,.5078-.347,.7616-.9931,1.8094-2.4596,3.0146-3.9457,4.1209-.8405,.6187-1.7693,1.0043-2.6547,1.5033-.7506,.4149-1.4479,.9317-2.0913,1.5635-.5983,.6094-1.1024,1.3419-1.6125,2.0603-.4994,.7122-.905,1.5083-1.2217,2.3652-.3061,.73-.426,1.5303-.493,2.34-.0603,.6818-.0674,1.3584 .1152,2.0109 .1331,.4075 .3605,.7518 .6131,1.0547 .2343,.2939 .4651,.5945 .7133,.8709 1.1957,.8875 2.6153,2.5887 4.1895,2.2582 .6004,-.2 .9573,-.7406 1.2417,-1.3921 .2756,-.8648 .5885,-1.705 .9611,-2.5125 .4963,-1.0562 1.1441,-1.9843 1.7085,-2.9835 .6127,-1.1435 1.0376,-2.3961 1.3189,-3.719 .2182,-1.0273 .2067,-2.0924 .3021,-3.1392 .1023,-.9154 .6246,-1.664 1.0268,-2.4121 .7137,-1.2134 1.3397,-2.501 1.9983,-3.7604 .3459,-.7682 .7184,-1.5154 1.1144,-2.245 .2437,-.4831 .4355,-.9927 .5965,-1.525 .1605,-.5969 .2926,-1.2026 .5198,-1.7673 .2398,-.5693 .4862,-1.1333 .7197,-1.7067 .0159,-.0293 .1103,-.2424 .1756,-.2563 .0194,-.004 .0561,.0671 .0388,.0554-.9985,-.681-1.9399,-1.504-2.9856,-2.0651-.1049,-.0564-.1006,.2552-.1571,.3786-.125,.2729-.2581,.5399-.3871,.8098-1.5084,2.7767-3.0322,5.5664-4.8637,8.0367-.4618,.6229-.9555,1.2082-1.4332,1.8123-.4971,.5651-.9865,1.1409-1.4913,1.6954-1.1767,1.2929-1.6696,1.7932-2.9229,2.9201-1.1105,.9986-2.2708,1.9094-3.4147,2.8469-.9084,.6858-1.8126,1.3775-2.4806,2.4188-.3182,.5213-.6051,1.1047-1.0376,1.4928-.2318,.1162-.4623,.2312-.6968,.342 0,0 2.869,2.387 2.869,2.387l0,0c.2555,-.1333 .5231,-.2436 .748,-.4508 .4208,-.4533 .738,-1.0283 1.0622,-1.5865 .6329,-.9921 1.4941,-1.6784 2.3249,-2.3914 1.1091,-.9801 2.2414,-1.9236 3.3301,-2.9388 1.2284,-1.1455 1.7476,-1.6825 2.9086,-2.9731 .5057,-.5622 .9974,-1.1434 1.4961,-1.7151 .4828,-.6097 .9798,-1.2025 1.4484,-1.8291 1.8553,-2.481 3.4242,-5.2583 5.057,-7.9615 .1474,-.2627 .2973,-.5234 .4423,-.7882 .0883,-.1612 .3766,-.3629 .2575,-.4898-1.7197,-1.8306-2.452,-3.5368-3.286,-1.8682-.2249,.5785-.4648,1.1433-.7105,1.7085-.2373,.5749-.3856,1.1876-.5404,1.8025-.1585,.4987-.3302,.9863-.5576,1.4444-.3902,.7374-.7343,1.5084-1.0791,2.2795-.6426,1.2667-1.2592,2.5579-1.9906,3.7506-.4464,.7894-1.0258,1.5883-1.1408,2.5702-.0938,1.0336-.0452,2.0885-.2499,3.1075-.2545,1.282-.6618,2.4863-1.2643,3.5814-.5713,1.0078-1.217,1.9521-1.7254,3.0128-.3832,.8041-.717,1.6379-.9925,2.5069-.2335,.5451-.5391,.9711-1.0639,1.0277-1.4083,-.0339-3.1953,-1.7667 1.8352,1.7929-.3084,-.1739-.4828,-.5206-.745,-.7724-.2093,-.3208-.4836,-.5645-.6685,-.9149-.2368,-.6533-.2725,-1.1151-.2063,-1.8411 .0553,-.7667 .1512,-1.5258 .4414,-2.2177 .2887,-.8272 .68,-1.5844 1.1626,-2.2595 .4947,-.6996 .9913,-1.4058 1.5733,-1.9968 .6318,-.6013 1.3243,-1.0759 2.0535,-1.4724 .89,-.49 1.7952,-.9472 2.6226,-1.594 1.5106,-1.1764 2.999,-2.4559 4.0404,-4.2924 .1292,-.2732 .2771,-.5341 .3877,-.8196 .4655,-1.2017 .4762,-2.5655 .0673,-3.787-.5593,-1.3974-1.3375,-2.6264-2.1036,-3.8573-.4713,-.8248-1.0088,-1.6556-1.1805,-2.6685 .3367,-.6304 1.8079,-.2178 2.2878,-.1954 1.173,.2076 2.3578,.4467 3.4624,1.0005 1.2404,.7556 .659,.4154-2.2497,-1.6873-.0935,-.0676 .1845,.1404 .2731,.2176 .2246,.1957 .4054,.416 .5211,.7302 .2377,.7574 .0559,1.388-.0988,2.1484-.1402,.9491-.2965,1.8988-.5153,2.8249-.3396,1.338-.6781,2.6764-1.1075,3.9758-.4765,1.4172-.8976,2.8736-1.6689,4.0989-.4194,.7353-.8851,1.42-1.3255,2.1351-.5391,.9691-1.0483,1.9635-1.607,2.9161-.6481,1.0747-1.3146,2.134-2.0751,3.0915-.6239,.7784-1.2582,1.5679-1.6857,2.5404-.3877,1.058-.726,2.1311-.7864,3.3056 .0449,.9474 .1653,1.8648 .576,2.688 .5803,1.1782 1.2865,2.2317 2.0374,3.2484 .3622,.5384 .7361,1.0588 1.0582,1.6363 .065,.1166 .342,.6731 .3813,.6758 .0875,.005 .1318,-.1434 .1977,-.215-.1501,-.1336-.9761,-.666-.5929,-.3815 .8125,.6033 1.6334,1.1889 2.4501,1.7831 .1763,.1282-.3554,-.2506-.5286,-.3852-.1979,-.1538-.3895,-.3198-.5843,-.4797-.9373,-.8014-1.9013,-1.7345-2.0421,-3.2368 .0872,-1.0668 .4566,-2.02 .8641,-2.9549 .464,-1.0605 1.0034,-2.0666 1.6338,-2.9872 .4061,-.6307 .8184,-1.2625 1.2995,-1.8083 .6476,-.7058 1.3778,-1.2824 2.0421,-1.9632 1.1338,-1.1241 2.27,-2.2922 3.021,-3.8627 .4413,-.9887 .8279,-2.0165 .7581,-3.1782-.028,-.6462-.1115,-1.2748-.4123,-1.8219-.4754,-.8319-.9222,-1.6868-1.422,-2.4975-.4947,-.8217-.9881,-1.6458-1.5043,-2.4465-.359,-.701-.7666,-1.3651-1.0727,-2.1055-.2986,-.7924-.6414,-1.5857-.6993,-2.474-.002,-.8517-.0145,-1.7033-.014,-2.555 .004,-1.2509 .0182,-2.5079 .1804,-3.7455 .1837,-1.1034 .4751,-2.1414 1.0445,-3.0385 0,0-2.9667,-2.1751-2.9667,-2.1751z" opacity=".99" stroke="#000" stroke-linecap="round" stroke-width="2.0492"/>
<path d="m622.4452,896.2128c.0104,.9487 .264,1.8127 .5075,2.6587 .2198,.7703 .5271,1.4643 .8198,2.167 .3921,.838 .7897,1.6699 1.1897,2.4987 .4045,.7869 .7319,1.6598 1.1018,2.4861 .2349,.4802 .3327,1.0267 .3774,1.6189 .0909,1.0957-.1681,2.0612-.486,3.0045-.5638,1.5422-1.4255,2.6767-2.3008,3.7502-.5357,.6863-1.141,1.2234-1.6575,1.9471-.3852,.5706-.7093,1.238-1.0316,1.8978-.4956,.9534-.9181,1.9917-1.297,3.0699-.3437,.9801-.6287,1.9885-.7368,3.1014-.002,1.6528 .7627,2.757 1.5256,3.6945 1.1026,1.2453 2.3112,2.2288 3.4869,3.2832 .1724,.1547 .3628,.3566 .5656,.3108 .038,-.1655 .1119,-.3202 .114,-.4964 .002,-.1622-.2707,-.7824-.296,-.8414-.2563,-.5977-.5456,-1.1474-.8363,-1.7027-.569,-1.0265-1.1332,-2.0537-1.6012,-3.2043-.3167,-.7619-.4404,-1.6101-.4934,-2.5038-10e-4,-1.1202 .2546,-2.141 .5438,-3.1405 .3257,-.9292 .8104,-1.6737 1.276,-2.4238 .5963,-.9875 1.118,-2.0776 1.6323,-3.173 .4377,-.9645 .8555,-1.9512 1.2897,-2.9194 .3585,-.7056 .7159,-1.4022 1.0337,-2.1568 .5895,-1.2819 .9366,-2.765 1.3133,-4.2195 .3415,-1.3132 .6268,-2.6579 .9006,-4.0095 .1904,-.9369 .3129,-1.9057 .4357,-2.8697 .1289,-.7833 .2504,-1.5317 .1424,-2.3354-.105,-.4752-.2787,-.9467-.56,-1.2137-2.3516,-2.2322-1.677,-1.7567-2.8397,-2.5376-7.3663,-3.2952-3.8254,2.6722-2.2609,6.6667 .3354,1.1125 .3799,2.3632 .0534,3.5012-.0765,.2668-.1816,.5103-.2724,.7655-.7797,1.8186-1.931,3.0299-3.0976,4.1419-.6598,.6219-1.389,1.0094-2.0841,1.5109-.5893,.417-1.1367,.9364-1.6418,1.5715-.4697,.6125-.8655,1.3487-1.2659,2.0708-.3921,.7158-.7104,1.516-.9591,2.3773-.2403,.7337-.3344,1.538-.387,2.352-.0473,.6853-.0529,1.3653 .0904,2.0211 .1045,.4096 .283,.7556 .4813,1.0601 .184,.2954 .3652,.5976 .56,.8753 .9387,.8921 2.0532,2.6019 3.2891,2.2697 .4713,-.201 .7516,-.7444 .9748,-1.3992 .2163,-.8693 .462,-1.7137 .7545,-2.5253 .3896,-1.0616 .8982,-1.9944 1.3413,-2.9987 .481,-1.1493 .8146,-2.4083 1.0354,-3.738 .1713,-1.0325 .1623,-2.1031 .2372,-3.1552 .0803,-.9201 .4903,-1.6724 .8061,-2.4244 .5603,-1.2196 1.0518,-2.5137 1.5688,-3.7795 .2715,-.7721 .564,-1.5232 .8749,-2.2564 .1913,-.4856 .3419,-.9977 .4683,-1.5327 .126,-.5999 .2297,-1.2088 .4081,-1.7763 .1883,-.5721 .3817,-1.139 .565,-1.7153 .0124,-.0294 .0866,-.2437 .1378,-.2576 .0153,-.004 .0441,.0674 .0305,.0557-.7839,-.6845-1.523,-1.5116-2.3439,-2.0757-.0824,-.0566-.079,.2565-.1233,.3805-1.1611,3.0566-2.5522,6.025-4.1222,8.8917-.3626,.6261-.7501,1.2144-1.1252,1.8216-.3902,.568-.7745,1.1467-1.1707,1.7041-.9238,1.2995-1.3107,1.8023-2.2947,2.935-.8718,1.0036-1.7827,1.9192-2.6807,2.8614-.7132,.6894-1.423,1.3845-1.9474,2.4312 .8311,1.875-.4751,1.1103-.8145,1.5004-.1819,.1168 1.5285,2.6643-.547,.3437 0,0 2.2524,2.3992 2.2524,2.3992l0,0c.2006,-.134 .4107,-.2449 .5872,-.4531 .3304,-.4556 .5794,-1.0335 .8339,-1.5946 .4968,-.9972 1.173,-1.687 1.8252,-2.4036 .8707,-.9851 1.7597,-1.9334 2.6144,-2.9538 .9644,-1.1513 1.372,-1.6911 2.2834,-2.9882 .397,-.565 .783,-1.1492 1.1745,-1.7239 .379,-.6128 .7692,-1.2087 1.1371,-1.8384 1.4565,-2.4936 2.6883,-5.2851 3.9701,-8.0021 .1157,-.2641 .2334,-.526 .3472,-.7922 .0693,-.162 .2957,-.3647 .2021,-.4923-1.3501,-1.8399-1.925,-3.5549-2.5798,-1.8778-.1766,.5814-.3649,1.1492-.5578,1.7172-.1863,.5779-.3027,1.1937-.4243,1.8117-.1244,.5013-.2592,.9913-.4377,1.4518-.3064,.7411-.5764,1.5161-.8471,2.2911-.5045,1.2732-.9885,2.571-1.5627,3.7697-.3505,.7935-.8053,1.5964-.8956,2.5833-.0736,1.0389-.0355,2.0992-.1962,3.1234-.1998,1.2885-.5196,2.499-.9926,3.5996-.4485,1.0129-.9554,1.9621-1.3546,3.0282-.3009,.8082-.5629,1.6462-.7792,2.5197-.1833,.5478-.4232,.976-.8352,1.0329-1.1056,-.0341-2.5085,-1.7757 1.4408,1.802-.2421,-.1748-.379,-.5233-.5849,-.7763-.1643,-.3225-.3797,-.5674-.5248,-.9195-.1859,-.6566-.2139,-1.1208-.162,-1.8505 .0434,-.7706 .1187,-1.5336 .3465,-2.229 .2266,-.8315 .5339,-1.5925 .9127,-2.271 .3884,-.7032 .7782,-1.413 1.2352,-2.007 .496,-.6044 1.0397,-1.0814 1.6122,-1.4799 .6987,-.4924 1.4093,-.952 2.0589,-1.6021 1.1859,-1.1824 2.3544,-2.4684 3.172,-4.3143 .1015,-.2746 .2175,-.5368 .3044,-.8238 .3655,-1.2078 .3738,-2.5785 .0528,-3.8063-.4391,-1.4045-1.05,-2.6398-1.6515,-3.877-.7758,-1.7486-1.6077,-3.2056 .8694,-2.8786 .9208,.2087 1.8511,.449 2.7182,1.0056 .9738,.7594 .5173,.4175-1.7662,-1.6959-.0734,-.0679 .1449,.1412 .2144,.2187 .1763,.1967 .3183,.4181 .4091,.7339 .1866,.7613 .0438,1.3951-.0776,2.1594-.1101,.954-.2328,1.9085-.4045,2.8393-.2666,1.3448-.5323,2.6901-.8694,3.996-.3741,1.4244-.7047,2.8882-1.3102,4.1198-.3293,.7391-.6948,1.4272-1.0406,2.146-.4232,.974-.823,1.9736-1.2616,2.931-.5088,1.0802-1.032,2.1449-1.6291,3.1072-.4898,.7823-.9878,1.5759-1.3234,2.5534-.3044,1.0634-.57,2.142-.6174,3.3225 .0352,.9522 .1298,1.8743 .4522,2.7017 .4555,1.1842 1.01,2.2431 1.5995,3.265 .2843,.5411 .5779,1.0642 .8308,1.6446 .0511,.1172 .2685,.6765 .2993,.6793 .0687,.005 .1035,-.1441 .1552,-.2162-.1178,-.1343-.7663,-.6694-.4655,-.3834 .6378,.6064 1.2823,1.195 1.9235,1.7922 .1384,.1289-.279,-.2519-.415,-.3871-.1554,-.1546-.3058,-.3214-.4587,-.4821-.7359,-.8055-1.4927,-1.7433-1.6032,-3.2533 .0685,-1.0722 .3584,-2.0303 .6784,-2.97 .3643,-1.0659 .7878,-2.0772 1.2827,-3.0025 .3188,-.6339 .6425,-1.2689 1.0202,-1.8175 .5084,-.7094 1.0816,-1.289 1.6031,-1.9732 .8901,-1.1299 1.7821,-2.3039 2.3717,-3.8824 .3465,-.9937 .65,-2.0267 .5951,-3.1944-.022,-.6495-.0875,-1.2813-.3237,-1.8313-.3733,-.8361-.724,-1.6954-1.1163,-2.5102-.3884,-.8259-.7758,-1.6541-1.181,-2.459-.2819,-.7045-.6018,-1.372-.8421,-2.1162-.2344,-.7964-.5036,-1.5938-.549,-2.4866-10e-4,-.856-.0114,-1.712-.011,-2.568-.0843,-2.3479 .1185,-4.6254 .9616,-6.8186 4.0692,1.0857-1.626,6.0632-3.3533,7.4419z" opacity=".99" stroke="#000" stroke-linecap="round" stroke-width="1.8203"/>
<g transform="matrix(-.98014,-.10124,-.06111,1.18984,658.93808,-187.17622)">
<path d="m7.121,305.3571c0,3.4518-26.4134,6.25-58.996,6.25-32.5826,0-58.996,-2.7982-58.996,-6.25 0,-3.4518 26.4134,-6.25 58.996,-6.25 30.0303,0 55.2687,2.3898 58.6261,5.5512" opacity=".99" stroke="#fff" stroke-linecap="round" stroke-width="2" transform="translate(-6.25,603.434)"/>
<path d="m-94.1071,906.6479 11.0019,-21.9243c-.1808,1.2085 50.3175,-5.7813 51.5895,-2.9l10.8014,24.4672" opacity=".99" stroke="#000" stroke-linecap="round" stroke-width="3.9"/>
<path d="m-116.367,898.2356c34.2957,2.5626 54.0053,2.6762 63.9072,1.293l.9834,2.3201c-17.7324,1.021-41.8983,-.6159-65.3933,-1.8164l.5027,-1.7967z" fill="#fff" opacity=".99" stroke="#fff" stroke-linecap="round" stroke-width="3.9" transform="matrix(.99955,-.03008,.03008,.99955,0,0)"/>
</g>
<path d="m667.1212,946.8299c-6.4386,3.7889-16.4435,4.9957-15.6643,-6.346l15.6643,6.346z" fill="none" stroke="#000" stroke-width="2"/>
<path d="m-69.9531,326.6351a6.9448,3.6618 0 1 1 -.0435,-.4094" fill="#fff" opacity=".99" stroke="#000" stroke-linecap="round" stroke-width="1.6823" transform="matrix(-1.06998,0,0,1.06998,601.05408,570.93978)"/>
<path d="m-65.0356,325.2462a.8172,.5051 0 1 1 -.0051,-.0565" opacity=".99" stroke="#000" stroke-linecap="round" stroke-width="2" transform="matrix(1.06998,0,0,1.06998,755.49308,572.26778)"/>
<path d="m-69.9531,326.6351a6.9448,3.6618 0 1 1 -.0435,-.4094" fill="#fff" opacity=".99" stroke="#000" stroke-linecap="round" stroke-width="1.6823" transform="matrix(-1.06998,0,0,1.06998,579.88308,570.98778)"/>
<path d="m-65.0356,325.2462a.8172,.5051 0 1 1 -.0051,-.0565" opacity=".99" stroke="#000" stroke-linecap="round" stroke-width="2" transform="matrix(1.06998,0,0,1.06998,734.32308,572.31578)"/>
<text font-family="Bitstream Vera Sans" font-size="20" x="718.2903" y="740.3997">
    <tspan font-size="20" text-align="center" text-anchor="middle" x="718.2903" y="740.3997">Visiblement t'as pas prévu</tspan>
    <tspan font-size="20" text-align="center" text-anchor="middle" x="718.2903" y="765.3997">le cas d'une explosion</tspan>
    <tspan font-size="20" text-align="center" text-anchor="middle" x="721.4739" y="790.3997">totale du serveur... nul !</tspan>
   </text>
<path d="m302.1074,784.8465 72.731,-41.4162" fill="none" stroke="#000"/>
<text font-family="Bitstream Vera Sans" font-size="62.709" x="341.3524" y="848.8915">
    <tspan x="341.3524" y="848.8915">BOOM</tspan>
   </text>
<path d="m299.0052,220.6954 26.264,-13.132" fill="none" stroke="#000" transform="translate(-1.9485,599.5064)"/>
<path d="m301.0255,246.9593 25.2538,-5.0508" fill="none" stroke="#000" transform="translate(-1.9485,599.5064)"/>
<path d="m305.0661,272.2131 39.3959,-6.0609" fill="none" stroke="#000" transform="translate(-1.9485,599.5064)"/>
<path d="m685.8936,205.5431-15.1523,48.4873" fill="none" stroke="#000" transform="translate(-1.9485,599.5064)"/>
</g>
</svg>
