<svg version="1.1" viewBox="0 0 900 450" xmlns="http://www.w3.org/2000/svg" xmlns:svg="http://www.w3.org/2000/svg">
<g transform="translate(0,-602.3622)">
<path d="M49.3232,676.0512H830.3251A31.621,31.621 0 0 1 861.9461,707.6722V956.0211A31.621,31.621 0 0 1 830.3251,987.6421H49.3232A31.621,31.621 0 0 1 17.7021,956.0211V707.6722A31.621,31.621 0 0 1 49.3232,676.0512z" fill="#fff" stroke="#000" stroke-linecap="round" stroke-width="7.4907"/>
<path d="m17.7226,911.1592 845.4977,0" fill="none" stroke="#000"/>
<path d="m576.9438,672.7365 0,303.442 0,10.4485" fill="none" stroke="#000" stroke-width="5.6784"/>
<path d="m291.2337,672.6376 0,313.2703" fill="none" stroke="#000" stroke-width="5.6728"/>
<g transform="matrix(.12574,0,0,.12574,819.66883,1015.1898)">
<path d="m162.9615,-66.1029c3.4935,4.0575 8.2353,4.5442 13.2828,4.8295 6.3854,-.1721 12.7816,-1.7005 18.7482,-3.9709 3.188,-1.2131 4.9498,-2.2461 7.9245,-3.8084-17.8031,10.4157-7.8919,4.8373-4.5635,1.3015 1.7244,-1.8318 2.7543,-3.7619 3.7268,-6.049 2.5265,-7.1174 2.8539,-14.7708 3.2849,-22.2438 .8398,-10.8784-1.4121,-21.5587-3.8369,-32.0902-2.9495,-11.0779-6.9553,-21.8431-11.3671,-32.4128-2.1125,-4.9937-4.5016,-9.8617-6.8287,-14.7566-3.1362,-6.0174-5.7017,-2.2804 12.0114,-9.1516 .6104,-.2368 .7311,1.087 1.1222,1.6121 .6549,.8793 1.3432,1.7331 2.0147,2.5997 6.5345,8.9671 14.393,16.8239 22.2682,24.5961 4.6332,4.5123 9.6016,8.7005 14.032,13.4186 1.6816,1.3731 2.6867,3.3087 4.04,4.9541 1.3218,1.1942 2.3559,-.063 3.524,-.88-20.4032,12.2348-13.1369,8.2804-9.2246,4.5289 1.5406,-1.4773 2.9931,-3.0561 4.4682,-4.5977 2.0935,-2.0887 4.0773,-4.3249 6.3699,-6.2061 6.0518,-4.966 14.4953,-8.9342 20.7536,-12.4943 5.7826,-2.554 11.6983,-4.7759 17.7067,-6.7339 1.2429,-.2695 6.0517,-2.1189 7.1497,-.869 .2555,.2908 .359,.686 .5385,1.029 .0249,.3507 .122,.7037 .0746,1.052-.3464,2.5421-4.2822,5.4998-5.9999,7.0812-7.8955,6.5272-15.5561,13.3165-22.8485,20.5113-6.3434,6.805-12.8959,13.5227-17.9461,21.3722-3.1182,4.9027-4.7756,10.316-5.5537,16.0199-.5154,5.1011-.4313,10.2374-.4233,15.3575 .2794,5.5658 .9893,11.1428 2.6464,16.4744 .9499,2.8397 2.6391,4.9259 5.3418,6.1729 1.7933,.6321 3.8468,1.0482 5.7562,.6876 .4443,-.0839 4.1482,-1.3389 4.4445,-1.4379 4.3672,-2.3833 14.9158,-7.9566-4.8252,2.8617-.781,.428 1.5035,-.9552 2.2436,-1.4505 1.7,-1.1377 2.1084,-1.4721 3.7035,-2.6614 1.913,-1.4312 1.0067,-.7357 2.723,-2.0808l13.6711,-5.4983c-1.7324,1.4564-.8048,.73-2.796,2.1623-8.0629,6.2254-16.9943,11.3785-26.2507,15.5961-4.0612,1.2122-7.06,1.7923-11.0152,-.0782-2.9124,-1.6424-4.8153,-4.0252-5.8395,-7.2464-1.6234,-5.4897-2.2357,-11.2047-2.7686,-16.8893-.0311,-5.1712-.1159,-10.3556 .3022,-15.5145 .7383,-5.9102 2.2958,-11.5511 5.4746,-16.6653 .6374,-1.0595 1.2164,-2.1564 1.9122,-3.1784 1.4293,-2.0993 3.5633,-4.5022 5.1926,-6.3909 3.5997,-4.173 7.2819,-8.2723 11.0846,-12.2621 7.0925,-7.1546 14.5679,-13.9155 22.3195,-20.352 2.1958,-2.0389 4.4682,-4.0268 6.363,-6.357 .3146,.1659-.6981,.139-1.0503,.1882-1.7578,.2457-3.4497,.7917-5.1425,1.3052-5.9412,1.9611-11.8224,4.1368-17.4628,6.8581 19.4412,-11.4974 7.7521,-4.9691 3.9527,-2.0455-2.3144,1.7808-4.2945,3.9798-6.3247,6.0613-7.3621,7.7662-7.7847,8.5886-20.2399,15.0176-2.0411,.9643-3.1823,.8498-4.779,-.8279-1.26,-1.6657-2.2693,-3.5234-3.8255,-4.9564-4.2421,-4.7917-8.972,-9.1394-13.4655,-13.6887-7.8003,-7.9395-15.7203,-15.7854-22.6621,-24.5085-.7459,-.8383-1.4925,-1.676-2.2377,-2.515-.414,-.4662-1.7128,-.9944-1.2397,-1.4005 11.2457,-9.654 10.609,-12.1815 13.514,-5.8078 2.1923,4.9946 4.5033,9.9394 6.4982,15.0188 4.1744,10.7594 8.0235,21.6562 11.1756,32.7627 2.5328,10.5786 5.0383,21.3246 4.3095,32.2869-.2875,7.5431-.73,15.2244-2.7778,22.5205-.6732,1.8665-.9058,2.8192-1.9806,4.5269-4.7227,7.5035-14.9088,11.0471-21.6041,15.3066-8.5205,4.1876-17.5853,7.1486-27.1755,7.1917-1.3332,-.1069-2.6764,-.126-3.9996,-.3207-3.9409,-.5799-7.6146,-2.3017-10.3419,-5.2234l12.7269,-7.6412z" stroke="#000" stroke-linecap="round" stroke-linejoin="round" stroke-width="2"/>
<path d="m285.1504,-83.2549c-5.88,1.6467-18.6251,9.5149 3.6228,-3.2161-3.0858,1.6423-4.9176,4.3146-6.3615,7.3973-.8239,2.47-1.7035,5.1777-1.5244,7.8292 .1239,1.8346 .601,2.756 1.225,4.4695 2.4426,4.8256 6.1987,8.7942 10.6559,11.8004 3.2897,2.2908 7.0292,3.3333 10.9988,3.3815 3.0629,-.6961 5.9092,-1.889 8.7139,-3.2794 1.1955,-.5927 4.6992,-2.5278 3.5526,-1.8452-13.2158,7.8669-9.9055,5.7434-5.2291,2.5405 3.8506,-2.9659 8.0361,-6.4071 9.0279,-11.451 .1385,-.7045 .1286,-1.4302 .1929,-2.1454-.2546,-6.3086-4.2409,-11.2474-8.0871,-15.9117-2.4245,-2.6982-5.17,-5.2714-8.4848,-6.8472-1.6823,-.7998-2.5447,-.9419-4.3262,-1.415-3.594,-.1953-7.3605,.1463-10.7726,1.3847-1.5775,.5726-3.9684,1.9034-5.4345,2.6786 19.9864,-11.9906 6.8908,-4.0746 2.7687,-.4895l-13.6034,5.5649c6.3305,-6.0894 14.7834,-9.6771 22.1418,-14.1306 2.1358,-1.0385 3.3967,-1.7563 5.6792,-2.4493 3.6325,-1.1029 7.5433,-1.3605 11.2846,-.8091 1.9239,.6139 2.7037,.7688 4.5106,1.7317 3.3646,1.793 6.1391,4.5163 8.621,7.3603 4.0463,4.9816 8.1538,10.1443 8.7701,16.7754-.0296,.8046 .0196,1.6161-.0889,2.4139-.7383,5.4273-4.7753,9.2853-8.8804,12.4917-7.9626,5.7154-3.8825,2.9492-19.2743,11.6675-4.0105,2.2717-8.3975,4.1951-13.0037,4.7328-4.1494,-.367-8.0102,-1.5898-11.3905,-4.108-4.5717,-3.3347-8.416,-7.5445-11.0934,-12.5605-.6247,-1.6344-1.3341,-3.1907-1.5477,-4.9537-.3345,-2.7611 .5846,-5.6627 1.2497,-8.2942 1.2789,-3.2492 2.902,-6.3291 5.9576,-8.2367 7.1822,-4.1341 13.903,-8.8778 21.9148,-11.0889l-11.7853,9.0117z" stroke="#000" stroke-linecap="round" stroke-linejoin="round" stroke-width="2"/>
<path d="m347.1504,-77.2549c-2.5469,.8146-5.1929,1.5133-7.6141,2.6735-.8131,.3896-1.5764,.8756-2.3647,1.3134 3.3457,-1.8736 6.6913,-3.7471 10.037,-5.6207-3.9716,2.6801-6.9185,5.3584-8.6955,9.85-1.1627,3.6999-.6052,6.8285 2.3247,9.5655 .7074,.6608 1.5389,1.1748 2.3083,1.7622 5.6004,3.2171 12.2296,4.3691 18.6442,3.6885 1.8388,-.1951 3.6423,-.6405 5.4634,-.9607 4.2145,-1.088 6.0512,-1.3908 10.0093,-3.0522 1.313,-.5511 5.0497,-2.628 3.8271,-1.898-17.7993,10.6288-9.7426,5.998-6.9473,3.1684 .6199,-.6275 1.1121,-1.3693 1.6682,-2.054 2.4376,-3.8135 2.5,-7.2055 .7831,-11.2688-.3152,-.7137-2.1315,-4.4568-3.4123,-3.6467-.2218,.1403-.3342,.4046-.5012,.6069 20.2171,-11.5287 12.5199,-9.601 10.5591,-3.9824-.8462,2.4247-.9939,4.7822-1.1102,7.3284 1.4046,11.8202 6.6264,22.7649 10.9162,33.7471 5.2161,14.5087 10.244,29.5646 10.8227,45.1266 .1152,3.097-.1863,6.1956-.2795,9.2933-.4626,2.9786-.7219,5.996-1.3878,8.9358-2.1724,9.5898-7.1162,18.3681-14.4574,24.947-1.2941,1.1597-2.7591,2.1134-4.1386,3.1701-5.5203,2.8839-10.7715,6.3551-16.5608,8.6516-2.3998,.952-8.1925,-1.0338-10.0914,-1.8803-7.058,-3.1465-13.1537,-8.3145-19.1496,-13.0475-10.1152,-8.659-20.0186,-17.691-29.0677,-27.4783-4.688,-5.0705-5.8469,-6.777-9.919,-12.0224-3.4654,-5.7822-7.5504,-12.4859-4.1433,-19.3016 2.0163,-4.0335 4.4499,-5.497 7.8272,-8.4338 10.1215,-6.5586 10.9501,-7.3056 25.6037,-14.7259 3.5764,-1.811 15.1096,-5.9066 18.6391,-7.138 7.0388,-2.4558 14.6082,-4.8887 21.6862,-7.2014 18.594,-5.3634 36.8056,-11.8962 54.8051,-18.9783 1.5279,-.6495 3.0578,-1.2942 4.5836,-1.9485 1.1657,-.4999 2.34,-.9808 3.4908,-1.514 2.3523,-1.0899 4.5499,-2.4389 6.9767,-3.363 3.291,-.4693 4.4452,3.4926 5.4304,5.8995 2.2687,6.1277 3.5471,12.5534 4.0987,19.0495 .1362,2.9104 .2306,5.8345-.1816,8.7279-.0421,.2958 .1108,.7559-.16,.882-4.4089,2.0533-9.0127,3.659-13.519,5.4886 .0118,-.8952-.0374,-1.7934 .0355,-2.6857 .1061,-1.2986 .3295,-2.5849 .5008,-3.8765 .9997,-7.538 2.3091,-14.9758 3.843,-22.4228 1.555,-6.4961 2.8976,-13.2994 6.61,-18.9697 4.2039,-4.4015 13.5536,-13.0794 18.1064,-8.0287 .4767,.5289 .8107,1.1708 1.2161,1.7562 .891,1.5753 1.6607,2.7718 2.2437,4.5173 1.6389,4.9078 2.3745,10.6605 3.2422,15.7652 1.1326,4.4176 .7008,9.7081 2.0412,14.0399 1.7726,-4.7616-.0179,.2205-12.7493,6.291-.2582,.1231 .3891,-.4251 .5337,-.672 .3315,-.566 .9805,-2.2274 1.2333,-2.7376 .3448,-.6961 .7385,-1.3669 1.1077,-2.0504 2.3945,-3.8376 4.4213,-7.8928 7.0597,-11.5731 4.4112,-5.5273 8.5378,-6.7337 16.174,-10.93 .2619,-.1439 .6145,-.0601 .8956,.0415 .3579,.1294 .6361,.4181 .9542,.6271 2.9864,3.1411 4.0262,7.5857 5.0346,11.6761 .8762,4.4536 1.3452,8.9967 2.9742,13.2566 .3967,.5584 .7207,1.1763 1.19,1.6753 3.4181,3.6336 9.0718,6.3498 13.7339,7.8272 1.7542,.5559 3.5616,.9276 5.3424,1.3914 7.54,1.8812 15.1058,1.9747 22.6056,-.087 1.66,-.4563 3.3273,-.9326 4.8996,-1.6338 1.4645,-.6531 2.7763,-1.6056 4.1644,-2.4083-2.8879,1.4901-5.5634,3.4967-8.6637,4.4704-1.1955,.3755 1.8602,-1.6841 2.7137,-2.6016 2.5159,-2.7049 3.9544,-5.7126 4.9671,-9.2111 .6946,-2.9134 .6823,-5.9069 .6019,-8.8795-.8123,-6.1361-6.2332,-.0969 12.5348,-7.7189 .3417,-.1388-.2006,.7117-.258,1.076-.0835,.53-.1093,1.0675-.1639,1.6012-.2665,4.8348-.377,9.6802 .1605,14.4971 .5467,3.099 1.1396,6.2653 3.5686,8.4405 1.7091,1.1249 3.5227,1.2014 5.4105,.5838 4.5429,-2.2925 11.3618,-6.2694-9.2958,5.3928-.733,.4138 1.4175,-.9086 2.114,-1.3812l13.7499,-5.4669c-1.0645,.874-.871,.7838-2.0934,1.4985-4.6452,2.7158-10.3975,7.2521-16.2755,8.9062-2.2943,.246-4.4334,-.2532-6.2278,-1.7781-2.497,-2.6033-3.3119,-5.923-3.8685,-9.4237-.5906,-4.8727-.472,-9.7673-.4084,-14.6687 .0197,-.6544 .077,-2.9288 .1232,-2.9595 9.727,-6.4603 12.8718,-12.5754 14.1061,-5.3537 .0695,3.1243 .0729,6.2667-.5797,9.341-3.2014,12.7554-11.6553,15.6615-23.2766,22.5416-1.4289,.7205-2.7977,1.5752-4.2867,2.1615-8.9506,3.524-18.7036,3.2412-27.9102,1.0341-1.8391,-.4877-3.7066,-.8788-5.5173,-1.4632-4.6315,-1.4947-11.1446,-4.692-14.5603,-8.2853-.5627,-.5919-.968,-1.3157-1.452,-1.9736-1.6237,-4.344-2.0916,-8.9473-2.927,-13.4875-.8421,-3.5179-1.6783,-7.8688-4.5851,-10.3108-.6859,.086-.3319,-.0175-1.041,.3749 3.9288,-2.3321 7.8577,-4.6642 11.7865,-6.9963 .3323,-.191-.6084,.4685-.8871,.7315-.6996,.66-1.2666,1.4531-2.0221,2.0581-2.82,3.545-4.8538,7.566-7.2091,11.4215-.8854,1.5155-1.617,2.9578-2.1805,4.6201-.1148,.3386 .0125,.8473-.2939,1.0316-13.2948,7.9967-10.3461,11.2314-14.0569,6.5713-1.1159,-4.7041-.5439,-9.6982-1.6308,-14.4245-1.0635,-6.6156-1.8817,-13.7016-5.4778,-19.4897-.6253,-.7518-.8938,-1.4407-1.8874,-1.6242-.2691,-.0497-1.0491,.2242-.8171,.0792 3.855,-2.4085 7.8581,-4.5721 11.7547,-6.9127 .3501,-.2103-.7641,.3015-1.11,.5187-.4078,.256-.7577,.5945-1.1366,.8918-4.3835,5.2272-5.7056,12.2845-7.478,18.6873-1.9969,9.2321-3.7113,18.5943-3.9931,28.0561-4.3051,2.6386-8.5232,5.4248-12.9154,7.9158-.2419,.1372 .2404,-.5043 .318,-.7714 .8042,-2.7667 .5753,-5.6949 .5747,-8.5333-.3712,-6.3501-1.5585,-12.6651-3.9842,-18.571-.4628,-1.0682-1.3134,-4.1649-2.9322,-4.2743-.3754,-.0254-1.0644,.2717-1.3633,.3791-4.7881,2.1318-9.4382,4.5785-14.4142,6.2825-17.8398,6.7098-35.8321,12.9983-54.1277,18.3644-10.6198,3.5133-21.3137,6.9086-31.715,11.0427-2.9939,1.19-5.7348,3.1473-8.8924,3.787-1.6217,.3285 5.5767,-3.5384 4.0891,-2.8139-2.1692,1.0565-4.0999,2.545-6.1498,3.8175-3.8287,3.0735-8.5236,6.2534-9.4308,11.5515-.893,5.2148 2.4282,10.0365 4.6745,14.3601 1.3891,1.8979 2.711,3.847 4.1673,5.6938 9.9457,12.6131 22.0475,23.4346 34.3683,33.6505 6.0444,4.5132 12.2092,9.5598 19.3554,12.2966 1.6491,.6316 3.3794,1.1098 5.1345,1.3053 1.4972,.1668 5.3244,-1.5002 4.5136,-.2306-1.6887,2.6441-5.176,3.5469-7.7641,5.3203 1.4485,-1.0111 2.9813,-1.911 4.3453,-3.0333 7.5773,-6.2343 12.8885,-14.8407 15.2526,-24.3515 .7183,-2.8896 .999,-5.8707 1.4986,-8.806 .1439,-3.0552 .5095,-6.108 .4316,-9.1656-.3934,-15.4369-5.6294,-30.3333-10.905,-44.6508-4.4755,-11.0691-9.9218,-21.9803-11.8707,-33.8586-.0655,-2.8117 .003,-4.952 .6842,-7.6722 .0381,-.1521 .7931,-2.8601 1.1292,-3.0916 4.3169,-2.973 8.9144,-5.5165 13.3715,-8.2747 .3389,.0271 .6889,-.0085 1.0169,.0812 2.1057,.5758 3.1151,3.1886 3.9952,4.8962 1.8742,4.4256 2.1315,8.3635-.2532,12.7108-.541,.7748-1.0086,1.6064-1.6229,2.3244-4.3907,5.131-13.1728,8.7324-17.6417,11.2191-4.2744,2.3784-9.1918,3.3952-13.8934,4.496-1.8823,.2823-3.7498,.6922-5.6468,.847-6.776,.553-13.6979,-.6632-19.4819,-4.3006-.8304,-.6627-1.7251,-1.252-2.4912,-1.9881-3.2394,-3.1123-4.2505,-6.5472-3.1788,-10.8443 1.6159,-5.1378 4.1492,-7.6245 8.4678,-10.7873 8.3338,-4.9235 15.8682,-10.3542 25.256,-12.659l-11.7853,9.0117z" stroke="#000" stroke-linecap="round" stroke-linejoin="round" stroke-width="2"/>
<path d="m549.2332,-122.1847c-1.7835,2.0929-3.2088,4.4879-3.887,7.1628-.4856,2.6751 1.1102,3.361 3.3038,4.3209 3.5488,1.2997 6.5822,1.157 10.2167,.5143 4.8602,-1.6662 12.579,-6.4142-9.0248,5.5037-.3034,.1673 .5755,-.3901 .8315,-.6236 .6095,-.5556 .6709,-.7857 1.0696,-1.4819 .7338,-1.6463 .6619,-3.1872-.2832,-4.7035-1.2573,-1.1913-3.1474,-1.0796-4.7697,-1.1586-1.6755,.1549-3.2712,.5705-4.6332,1.5753l11.5699,-9.3176c1.6475,-.6237 3.3328,-1.0178 5.1127,-.8762 2.1175,.2092 4.2007,.5097 5.5739,2.3193 1.1184,1.8815 1.5604,3.8267 .9141,5.9743-2.3437,7.0718-11.2457,9.9308-18.1332,11.6144-3.6699,.4613-7.2979,.2601-10.7482,-1.2144-2.4801,-1.2798-4.7037,-2.8813-4.3281,-5.9859 .4579,-2.8821 1.8638,-5.464 3.5526,-7.8184l13.6626,-5.8049z" stroke="#000" stroke-linecap="round" stroke-linejoin="round" stroke-width="2"/>
<path d="m359.6057,-86.1453c2.813,-1.3672 5.4973,-2.9836 8.3991,-4.1626 1.8182,-1.1808 3.8128,-1.7264 5.9399,-1.959 1.9567,-.1487 3.9211,-.1237 5.8819,-.1169 1.9461,-.207 3.5945,.325 5.304,1.1594 1.1966,.9591 2.1411,2.2333 3.05,3.4655 .7904,1.4357 1.2548,3.0464 1.7411,4.6107 .436,1.6028 1.0296,3.1343 1.3438,4.7721 .3026,1.9227 .3232,3.8738 .3468,5.8155 .009,1.0012 .007,2.0024 .007,3.0036l-13.2174,6.733c.001,-.9962 .003,-1.9924-10e-4,-2.9886-.0137,-1.8636-.0171,-3.7343-.2514,-5.5862-.2608,-1.5964-.8449,-3.0648-1.2698,-4.6141-.4125,-1.4071-.8576,-2.8405-1.4965,-4.1522-.7779,-1.02-1.5348,-2.1846-2.6529,-2.8453-1.5703,-.6821-3.2079,-.7262-4.905,-.653-1.9192,.0085-3.8508,-8.13e-4-5.7505,.3092-2.0091,.4249-3.8194,1.2893-5.6483,2.207-2.8459,1.3235-5.5987,2.8407-8.3572,4.3355l11.5367,-9.3337z" stroke="#000" stroke-linecap="round" stroke-linejoin="round" stroke-width="2"/>
</g>
<path d="m446.8915,78.4154c0,2.9289-27.5427,5.3033-61.5183,5.3033-33.9756,0-61.5183,-2.3744-61.5183,-5.3033 0,-2.9289 27.5427,-5.3033 61.5183,-5.3033 33.9756,0 61.5183,2.3744 61.5183,5.3033z" stroke="#000" stroke-linecap="round" stroke-width="4.862" transform="matrix(-.90522,0,0,.90522,787.65645,878.55697)"/>
<g transform="matrix(-.90522,0,0,.90522,350.74061,609.45409)">
<path d="m-43.5297,288.8057 0,47.8884c0,20.007-16.1067,36.1137-36.1137,36.1137l-35.434,0c-20.007,0-36.1137,-16.1067-36.1137,-36.1137l0,-47.8884" fill="#fff" stroke="#000" stroke-linecap="round" stroke-linejoin="round" stroke-width="3.6422"/>
<path d="M-122.1431,308.6171H-98.6091A.7803,.7803 0 0 1 -97.8288,309.3974V319.4235A.7803,.7803 0 0 1 -98.6091,320.2038H-122.1431A.7803,.7803 0 0 1 -122.9234,319.4235V309.3974A.7803,.7803 0 0 1 -122.1431,308.6171z" stroke="#000" stroke-linecap="square" stroke-linejoin="round" stroke-width="3.7338"/>
<path d="M-80.7522,308.6171H-60.3393A2.3409,2.3409 0 0 1 -57.9985,310.958V317.8629A2.3409,2.3409 0 0 1 -60.3393,320.2038H-80.7522A2.3409,2.3409 0 0 1 -83.093,317.8629V310.958A2.3409,2.3409 0 0 1 -80.7522,308.6171z" stroke="#000" stroke-linecap="square" stroke-linejoin="round" stroke-width="3.7338"/>
<path d="m-148.8829,313.6717c.5492,.0105 1.0986,.007 1.6478,.004 .363,-.002 .7259,-.004 1.0889,-.004 .2925,-4.3e-4 .585,-4e-4 .8775,-4e-4 .304,-6.3e-4 .6081,6e-4 .9121,10e-4 .3906,-.01 .7752,-3.7e-4 1.162,.0507 .3996,.0545 .8031,.0717 1.2062,.0827 .4052,-.0158 .8029,.0589 1.204,.099 .4079,.0368 .818,.0407 1.2274,.045 .4301,.002 .8603,.002 1.2904,6.5e-4 .3736,-7.6e-4 .7472,-10e-4 1.1208,-.002 .307,-7.7e-4 .6141,-9.8e-4 .9211,-10e-4 .2915,-8e-5 .583,-7e-5 .8745,-6e-5 .2915,1e-5 .5831,1e-5 .8746,1e-5 .3187,-3.9e-4 .6374,5.3e-4 .9561,.002 .3943,.002 .7885,4.4e-4 1.1828,-6.3e-4 .3709,-2.7e-4 .7418,4.7e-4 1.1126,10e-4 .3967,-1.7e-4 .7934,-8e-5 1.1902,-10e-4 .38,1.9e-4 .7599,7.4e-4 1.1399,1.6e-4 .3456,-.001 .6912,-.002 1.0367,2.5e-4 .5332,.003 1.0664,.004 1.5996,.006 .7266,.003 1.4533,.003 2.1799,.001 .5332,-.001 1.0664,-.005 1.5997,-.005 .4413,6.5e-4 .8826,-2e-5 1.3239,-.002 .0611,-2e-4 .1222,-4e-4 .1833,-6e-4l-1.746,1.1993c-.0605,-2.1e-4-.121,-4.1e-4-.1815,-6.1e-4-.4399,-.002-.8797,-.002-1.3196,-.002-.528,-2.2e-4-1.0559,-.004-1.5839,-.005-.7276,-.002-1.4552,-.002-2.1828,9.9e-4-.5391,.002-1.0782,.003-1.6173,.006-.3458,.002-.6916,.002-1.0375,2.6e-4-.3801,-5.7e-4-.7602,-3e-5-1.1404,1.5e-4-.3957,-9.9e-4-.7914,-8.9e-4-1.187,-.001-.3723,.001-.7447,.002-1.117,.002-.3937,-10e-4-.7873,-.003-1.181,-6.3e-4-.3206,.001-.6411,.002-.9617,.002-.2915,0-.5831,0-.8747,0-.2914,0-.5829,2e-5-.8743,-6e-5-.306,-1.3e-4-.612,-3.5e-4-.918,-9.6e-4-.372,-6.9e-4-.744,-8.4e-4-1.1161,-8.8e-4-.4302,-8.3e-4-.8603,7e-4-1.2904,-.004-.4148,-.006-.8303,-.0145-1.2428,-.0595-.3968,-.0446-.792,-.0972-1.193,-.0869-.4078,-.0152-.8149,-.0435-1.2193,-.0968-.382,-.0404-.7654,-.0292-1.1493,-.0278-.3051,5.6e-4-.6103,.002-.9155,.001-.2921,10e-6-.5842,3e-5-.8763,-4e-4-.3589,-6.7e-4-.7177,-.002-1.0765,-.004-.5532,-.003-1.1065,-.006-1.6597,.004l1.7494,-1.2016z" stroke="#000" stroke-linecap="square" stroke-linejoin="round" stroke-width=".4767"/>
<path d="m-57.3881,313.9484c.7039,.0118 1.4079,.0102 2.1119,.01 .6452,-8.9e-4 1.2905,-.003 1.9357,-.006 .4312,-.002 .8624,-.002 1.2935,-.003 .3398,-8.1e-4 .6796,-.002 1.0194,-.002 .2968,.0217 .5821,-.0575 .8738,-.0956 .2926,-.0341 .5877,-.039 .8821,-.0425 .2922,-.002 .5843,-10e-4 .8765,-8.4e-4 .2918,4e-4 .5836,5.3e-4 .8754,6.1e-4 .2918,5e-5 .5836,5e-5 .8754,5e-5 .2918,0 .5836,0 .8754,0 .3133,-6.1e-4 .6266,10e-4 .9398,10e-4 .3172,-2.5e-4 .6345,-6.9e-4 .9517,-9.3e-4 .2938,-1.8e-4 .5877,-2e-4 .8815,-2.1e-4 .1943,-1e-5 .0972,-1e-5 .2915,-1e-5l-1.7509,1.2027c-.1943,0-.0971,0-.2914,0-.2936,-2e-5-.5872,-4e-5-.8808,-2.2e-4-.3164,-2.3e-4-.6327,-6.8e-4-.9491,-9.3e-4-.3144,4e-5-.6287,.002-.9431,10e-4-.2918,1e-5-.5836,1e-5-.8754,1e-5-.2918,-1e-5-.5836,-1e-5-.8754,-1.2e-4-.2918,-1.3e-4-.5837,-3.7e-4-.8755,-7.2e-4-.2913,-2.3e-4-.5826,-10e-4-.8738,.004-.2893,.007-.5791,.0195-.8653,.0636-.2961,.0453-.5905,.0907-.8921,.0705-.3377,-4.3e-4-.6755,-10e-4-1.0132,-.002-.4283,-5.4e-4-.8565,-6.3e-4-1.2848,-.003-.6398,-.003-1.2796,-.005-1.9195,-.006-.7134,-4.8e-4-1.4269,-.002-2.1402,.01l1.747,-1.2z" stroke="#000" stroke-linecap="square" stroke-linejoin="round" stroke-width=".4767"/>
<path d="m-97.681,314.1116c.5339,.0676 1.0726,.0889 1.6105,.1048 .4801,.0116 .9604,.0116 1.4405,.0103 .3964,-5e-4 .7929,-6.3e-4 1.1893,-.002 .7958,.0205 1.592,.0104 2.3879,.007 .4809,-.004 .9619,-.005 1.4428,-.007 .3835,3e-5 .767,-4.2e-4 1.1506,6e-4 .4032,.001 .8064,-9.5e-4 1.2096,-3.1e-4 .3638,-8.6e-4 .7277,-7.6e-4 1.0915,-6.6e-4 .3644,5.6e-4 .7288,2.2e-4 1.0931,-5.1e-4 .3481,.001 .6961,1.1e-4 1.0442,-4.5e-4 .3406,.001 .6811,4.5e-4 1.0217,-4e-5 .3008,-4.3e-4 .6016,-5.6e-4 .9024,-6.3e-4 .2516,.0585 .5047,.1006 .7628,.1209 .2799,.0172 .5606,.0173 .8409,.018 .2917,1.9e-4 .5833,-3.9e-4 .875,-6.8e-4 .146,-1.4e-4 .292,-2e-4 .4381,-2.6e-4l-1.7508,1.2027c-.146,10e-5-.292,1.9e-4-.438,3.5e-4-.292,3.2e-4-.584,.001-.876,-3.9e-4-.2852,-.002-.5709,-.005-.8549,-.0331-.2506,-.0294-.496,-.0897-.7478,-.105-.3002,-8e-5-.6004,-2e-4-.9006,-6.3e-4-.3405,-4.8e-4-.681,-.001-1.0215,-5e-5-.3476,-5.5e-4-.6953,-.002-1.0429,-4.4e-4-.3639,-7.3e-4-.7278,-10e-4-1.0916,-5.1e-4-.3632,1.1e-4-.7264,1.9e-4-1.0895,-6.6e-4-.4029,6.4e-4-.8058,-.002-1.2087,-3.1e-4-.3841,.001-.7682,5.8e-4-1.1523,6e-4-.4742,-.002-.9483,-.003-1.4224,-.007-.8027,-.004-1.6058,-.0132-2.4083,.007-.3958,-4.3e-4-.7915,4.6e-4-1.1873,-3.6e-4-.4785,-.003-.957,-.007-1.4353,-.0226-.5477,-.0212-1.0947,-.0538-1.64,-.107l1.7673,-1.1825z" stroke="#000" stroke-linecap="square" stroke-linejoin="round" stroke-width=".4767"/>
<path d="m-136.1855,276.2983 0,18.5432" fill="none" stroke="#000" stroke-linecap="round" stroke-width="4.8046"/>
<path d="m-126.6615,274.544 0,18.5432" fill="none" stroke="#000" stroke-linecap="round" stroke-width="4.8046"/>
<path d="m-117.7245,276.0083 0,18.5432" fill="none" stroke="#000" stroke-linecap="round" stroke-width="4.8046"/>
<path d="m-106.0478,274.841 0,18.5432" fill="none" stroke="#000" stroke-linecap="round" stroke-width="4.8046"/>
<path d="m-95.8892,277.0276 0,18.5432" fill="none" stroke="#000" stroke-linecap="round" stroke-width="4.8046"/>
<path d="m-84.2599,276.8522 0,18.5432" fill="none" stroke="#000" stroke-linecap="round" stroke-width="4.8046"/>
<path d="m-73.7574,275.1381 0,18.5432" fill="none" stroke="#000" stroke-linecap="round" stroke-width="4.8046"/>
<path d="m-63.8419,278.175 0,18.5432" fill="none" stroke="#000" stroke-linecap="round" stroke-width="4.8046"/>
<path d="m-53.169,277.8063 0,18.5432" fill="none" stroke="#000" stroke-linecap="round" stroke-width="4.8046"/>
<path d="m-105.8017,352.8807 27.1229,-4.4282" fill="none" stroke="#000" stroke-width=".7749"/>
<path d="m-144.0697,281.0285 0,18.5432" fill="none" stroke="#000" stroke-linecap="round" stroke-width="4.8046"/>
</g>
<text font-family="Bitstream Vera Sans" font-size="20" x="416.8707" y="777.0325">
   <tspan text-align="center" text-anchor="middle" x="416.8707" y="777.0325">Hmm...</tspan>
  </text>
<text font-family="Bitstream Vera Sans" font-size="20" x="191.9658" y="345.7389">
   <tspan text-align="center" text-anchor="middle" x="191.9658" y="345.7389"></tspan>
  </text>
<text font-family="Bitstream Vera Sans" font-size="20" x="944.7548" y="-68.3124">
   <tspan text-align="center" text-anchor="middle" x="944.7548" y="-68.3124"></tspan>
  </text>
<text font-family="Bitstream Vera Sans" font-size="20" x="713.5938" y="114.8349">
   <tspan x="713.5938" y="114.8349"></tspan>
  </text>
<text font-family="Bitstream Vera Sans" font-size="20" x="93.7035" y="455.5099">
   <tspan x="93.7035" y="455.5099"></tspan>
  </text>
<path d="M48.5796,643.9036H299.7435A15.6552,15.6552 0 0 1 315.3987,659.5587V659.5587A15.6552,15.6552 0 0 1 299.7435,675.2139H48.5796A15.6552,15.6552 0 0 1 32.9244,659.5587V659.5587A15.6552,15.6552 0 0 1 48.5796,643.9036z" fill="#fff" stroke="#000" stroke-linecap="round" stroke-linejoin="round" stroke-width="4.5094" transform="matrix(1,-.00315,.00315,1,0,0)"/>
<path d="m101.5203,44.9288a36.8706,34.8503 0 1 1 -73.7411,0 36.8706,34.8503 0 1 1 73.7411,0z" stroke="#000" stroke-linecap="round" stroke-linejoin="round" stroke-width="7.491" transform="matrix(1.24255,-.00391,.00217,.68917,-23.16917,620.94886)"/>
<text font-family="Bitstream Vera Sans" font-size="40" transform="matrix(1,-.00315,.00315,1,0,0)" x="17.4815" y="665.8846">
   <tspan fill="#f9f9f9" x="17.4815" y="665.8846">118</tspan>
  </text>
<text font-family="Bitstream Vera Sans" font-size="20" transform="matrix(1,-.00315,.00315,1,0,0)" x="128.7751" y="665.8944">
   <tspan x="128.7751" y="665.8944">Saint Valentin</tspan>
  </text>
<text font-family="Bitstream Vera Sans" font-size="20" x="84.34" y="-32.8954">
   <tspan text-align="center" text-anchor="middle" x="84.34" y="-32.8954"></tspan>
  </text>
<text font-family="Bitstream Vera Sans" font-size="20" x="645.0948" y="-494.8441">
   <tspan text-align="center" text-anchor="middle" x="645.0948" y="-494.8441"></tspan>
  </text>
<text font-family="Bitstream Vera Sans" font-size="20" x="413.9348" y="-311.6961">
   <tspan x="413.9348" y="-311.6961"></tspan>
  </text>
<path d="m446.8915,78.4154c0,2.9289-27.5427,5.3033-61.5183,5.3033-33.9756,0-61.5183,-2.3744-61.5183,-5.3033 0,-2.9289 27.5427,-5.3033 61.5183,-5.3033 33.9756,0 61.5183,2.3744 61.5183,5.3033z" stroke="#000" stroke-linecap="round" stroke-width="4.862" transform="matrix(.90522,0,0,.90522,-204.2824,876.41697)"/>
<g transform="matrix(.90522,0,0,.90522,232.63344,607.31409)">
<path d="m-43.5297,288.8057 0,47.8884c0,20.007-16.1067,36.1137-36.1137,36.1137l-35.434,0c-20.007,0-36.1137,-16.1067-36.1137,-36.1137l0,-47.8884" fill="#fff" stroke="#000" stroke-linecap="round" stroke-linejoin="round" stroke-width="3.6422"/>
<path d="M-122.1431,308.6171H-98.6091A.7803,.7803 0 0 1 -97.8288,309.3974V319.4235A.7803,.7803 0 0 1 -98.6091,320.2038H-122.1431A.7803,.7803 0 0 1 -122.9234,319.4235V309.3974A.7803,.7803 0 0 1 -122.1431,308.6171z" stroke="#000" stroke-linecap="square" stroke-linejoin="round" stroke-width="3.7338"/>
<path d="M-80.7522,308.6171H-60.3393A2.3409,2.3409 0 0 1 -57.9985,310.958V317.8629A2.3409,2.3409 0 0 1 -60.3393,320.2038H-80.7522A2.3409,2.3409 0 0 1 -83.093,317.8629V310.958A2.3409,2.3409 0 0 1 -80.7522,308.6171z" stroke="#000" stroke-linecap="square" stroke-linejoin="round" stroke-width="3.7338"/>
<path d="m-148.8829,313.6717c.5492,.0105 1.0986,.007 1.6478,.004 .363,-.002 .7259,-.004 1.0889,-.004 .2925,-4.3e-4 .585,-4e-4 .8775,-4e-4 .304,-6.3e-4 .6081,6e-4 .9121,10e-4 .3906,-.01 .7752,-3.7e-4 1.162,.0507 .3996,.0545 .8031,.0717 1.2062,.0827 .4052,-.0158 .8029,.0589 1.204,.099 .4079,.0368 .818,.0407 1.2274,.045 .4301,.002 .8603,.002 1.2904,6.5e-4 .3736,-7.6e-4 .7472,-10e-4 1.1208,-.002 .307,-7.7e-4 .6141,-9.8e-4 .9211,-10e-4 .2915,-8e-5 .583,-7e-5 .8745,-6e-5 .2915,1e-5 .5831,1e-5 .8746,1e-5 .3187,-3.9e-4 .6374,5.3e-4 .9561,.002 .3943,.002 .7885,4.4e-4 1.1828,-6.3e-4 .3709,-2.7e-4 .7418,4.7e-4 1.1126,10e-4 .3967,-1.7e-4 .7934,-8e-5 1.1902,-10e-4 .38,1.9e-4 .7599,7.4e-4 1.1399,1.6e-4 .3456,-.001 .6912,-.002 1.0367,2.5e-4 .5332,.003 1.0664,.004 1.5996,.006 .7266,.003 1.4533,.003 2.1799,.001 .5332,-.001 1.0664,-.005 1.5997,-.005 .4413,6.5e-4 .8826,-2e-5 1.3239,-.002 .0611,-2e-4 .1222,-4e-4 .1833,-6e-4l-1.746,1.1993c-.0605,-2.1e-4-.121,-4.1e-4-.1815,-6.1e-4-.4399,-.002-.8797,-.002-1.3196,-.002-.528,-2.2e-4-1.0559,-.004-1.5839,-.005-.7276,-.002-1.4552,-.002-2.1828,9.9e-4-.5391,.002-1.0782,.003-1.6173,.006-.3458,.002-.6916,.002-1.0375,2.6e-4-.3801,-5.7e-4-.7602,-3e-5-1.1404,1.5e-4-.3957,-9.9e-4-.7914,-8.9e-4-1.187,-.001-.3723,.001-.7447,.002-1.117,.002-.3937,-10e-4-.7873,-.003-1.181,-6.3e-4-.3206,.001-.6411,.002-.9617,.002-.2915,0-.5831,0-.8747,0-.2914,0-.5829,2e-5-.8743,-6e-5-.306,-1.3e-4-.612,-3.5e-4-.918,-9.6e-4-.372,-6.9e-4-.744,-8.4e-4-1.1161,-8.8e-4-.4302,-8.3e-4-.8603,7e-4-1.2904,-.004-.4148,-.006-.8303,-.0145-1.2428,-.0595-.3968,-.0446-.792,-.0972-1.193,-.0869-.4078,-.0152-.8149,-.0435-1.2193,-.0968-.382,-.0404-.7654,-.0292-1.1493,-.0278-.3051,5.6e-4-.6103,.002-.9155,.001-.2921,10e-6-.5842,3e-5-.8763,-4e-4-.3589,-6.7e-4-.7177,-.002-1.0765,-.004-.5532,-.003-1.1065,-.006-1.6597,.004l1.7494,-1.2016z" stroke="#000" stroke-linecap="square" stroke-linejoin="round" stroke-width=".4767"/>
<path d="m-57.3881,313.9484c.7039,.0118 1.4079,.0102 2.1119,.01 .6452,-8.9e-4 1.2905,-.003 1.9357,-.006 .4312,-.002 .8624,-.002 1.2935,-.003 .3398,-8.1e-4 .6796,-.002 1.0194,-.002 .2968,.0217 .5821,-.0575 .8738,-.0956 .2926,-.0341 .5877,-.039 .8821,-.0425 .2922,-.002 .5843,-10e-4 .8765,-8.4e-4 .2918,4e-4 .5836,5.3e-4 .8754,6.1e-4 .2918,5e-5 .5836,5e-5 .8754,5e-5 .2918,0 .5836,0 .8754,0 .3133,-6.1e-4 .6266,10e-4 .9398,10e-4 .3172,-2.5e-4 .6345,-6.9e-4 .9517,-9.3e-4 .2938,-1.8e-4 .5877,-2e-4 .8815,-2.1e-4 .1943,-1e-5 .0972,-1e-5 .2915,-1e-5l-1.7509,1.2027c-.1943,0-.0971,0-.2914,0-.2936,-2e-5-.5872,-4e-5-.8808,-2.2e-4-.3164,-2.3e-4-.6327,-6.8e-4-.9491,-9.3e-4-.3144,4e-5-.6287,.002-.9431,10e-4-.2918,1e-5-.5836,1e-5-.8754,1e-5-.2918,-1e-5-.5836,-1e-5-.8754,-1.2e-4-.2918,-1.3e-4-.5837,-3.7e-4-.8755,-7.2e-4-.2913,-2.3e-4-.5826,-10e-4-.8738,.004-.2893,.007-.5791,.0195-.8653,.0636-.2961,.0453-.5905,.0907-.8921,.0705-.3377,-4.3e-4-.6755,-10e-4-1.0132,-.002-.4283,-5.4e-4-.8565,-6.3e-4-1.2848,-.003-.6398,-.003-1.2796,-.005-1.9195,-.006-.7134,-4.8e-4-1.4269,-.002-2.1402,.01l1.747,-1.2z" stroke="#000" stroke-linecap="square" stroke-linejoin="round" stroke-width=".4767"/>
<path d="m-97.681,314.1116c.5339,.0676 1.0726,.0889 1.6105,.1048 .4801,.0116 .9604,.0116 1.4405,.0103 .3964,-5e-4 .7929,-6.3e-4 1.1893,-.002 .7958,.0205 1.592,.0104 2.3879,.007 .4809,-.004 .9619,-.005 1.4428,-.007 .3835,3e-5 .767,-4.2e-4 1.1506,6e-4 .4032,.001 .8064,-9.5e-4 1.2096,-3.1e-4 .3638,-8.6e-4 .7277,-7.6e-4 1.0915,-6.6e-4 .3644,5.6e-4 .7288,2.2e-4 1.0931,-5.1e-4 .3481,.001 .6961,1.1e-4 1.0442,-4.5e-4 .3406,.001 .6811,4.5e-4 1.0217,-4e-5 .3008,-4.3e-4 .6016,-5.6e-4 .9024,-6.3e-4 .2516,.0585 .5047,.1006 .7628,.1209 .2799,.0172 .5606,.0173 .8409,.018 .2917,1.9e-4 .5833,-3.9e-4 .875,-6.8e-4 .146,-1.4e-4 .292,-2e-4 .4381,-2.6e-4l-1.7508,1.2027c-.146,10e-5-.292,1.9e-4-.438,3.5e-4-.292,3.2e-4-.584,.001-.876,-3.9e-4-.2852,-.002-.5709,-.005-.8549,-.0331-.2506,-.0294-.496,-.0897-.7478,-.105-.3002,-8e-5-.6004,-2e-4-.9006,-6.3e-4-.3405,-4.8e-4-.681,-.001-1.0215,-5e-5-.3476,-5.5e-4-.6953,-.002-1.0429,-4.4e-4-.3639,-7.3e-4-.7278,-10e-4-1.0916,-5.1e-4-.3632,1.1e-4-.7264,1.9e-4-1.0895,-6.6e-4-.4029,6.4e-4-.8058,-.002-1.2087,-3.1e-4-.3841,.001-.7682,5.8e-4-1.1523,6e-4-.4742,-.002-.9483,-.003-1.4224,-.007-.8027,-.004-1.6058,-.0132-2.4083,.007-.3958,-4.3e-4-.7915,4.6e-4-1.1873,-3.6e-4-.4785,-.003-.957,-.007-1.4353,-.0226-.5477,-.0212-1.0947,-.0538-1.64,-.107l1.7673,-1.1825z" stroke="#000" stroke-linecap="square" stroke-linejoin="round" stroke-width=".4767"/>
<path d="m-136.1855,276.2983 0,18.5432" fill="none" stroke="#000" stroke-linecap="round" stroke-width="4.8046"/>
<path d="m-126.6615,274.544 0,18.5432" fill="none" stroke="#000" stroke-linecap="round" stroke-width="4.8046"/>
<path d="m-117.7245,276.0083 0,18.5432" fill="none" stroke="#000" stroke-linecap="round" stroke-width="4.8046"/>
<path d="m-106.0478,274.841 0,18.5432" fill="none" stroke="#000" stroke-linecap="round" stroke-width="4.8046"/>
<path d="m-95.8892,277.0276 0,18.5432" fill="none" stroke="#000" stroke-linecap="round" stroke-width="4.8046"/>
<path d="m-84.2599,276.8522 0,18.5432" fill="none" stroke="#000" stroke-linecap="round" stroke-width="4.8046"/>
<path d="m-73.7574,275.1381 0,18.5432" fill="none" stroke="#000" stroke-linecap="round" stroke-width="4.8046"/>
<path d="m-63.8419,278.175 0,18.5432" fill="none" stroke="#000" stroke-linecap="round" stroke-width="4.8046"/>
<path d="m-53.169,277.8063 0,18.5432" fill="none" stroke="#000" stroke-linecap="round" stroke-width="4.8046"/>
<path d="m-105.8017,352.8807 27.1229,-4.4282" fill="none" stroke="#000" stroke-width=".7749"/>
<path d="m-144.0697,281.0285 0,18.5432" fill="none" stroke="#000" stroke-linecap="round" stroke-width="4.8046"/>
</g>
<text font-family="Bitstream Vera Sans" font-size="20" x="161.3404" y="731.794">
   <tspan text-align="center" text-anchor="middle" x="161.3404" y="731.794">Pff... La saint Valentin...</tspan>
   <tspan text-align="center" text-anchor="middle" x="161.3404" y="756.794">si je trouve pas un truc</tspan>
   <tspan text-align="center" text-anchor="middle" x="161.3404" y="781.794">à faire ce soir je vais</tspan>
   <tspan text-align="center" text-anchor="middle" x="161.3404" y="806.794">déprimer...</tspan>
  </text>
<path d="m410.5025,792.476 18.1827,46.467" fill="none" stroke="#000"/>
<path d="m147.1429,843.0765 12.1429,-27.8572" fill="none" stroke="#000"/>
<g transform="translate(555.2722,-5.2143)">
<path d="M1557.2137,1764.1848H1595.639V1789.8149H1557.2137z" opacity=".99" stroke="#000" stroke-linecap="round" stroke-width="2.6697" transform="matrix(1,0,-.85146,.52442,0,0)"/>
<path d="M38.3858,906.1426H46.467V938.4675H38.3858z" fill="#fff" opacity=".99" stroke="#000" stroke-linecap="round" stroke-width="3"/>
<path d="M40.3132,882.6401H66.6947V929.1071H40.3132z" fill="#fff" opacity=".99" stroke="#000" stroke-linecap="round" stroke-width="3.2502" transform="matrix(.85196,-.52361,0,1,0,0)"/>
<path d="M76.7716,897.5563H84.8528V929.8812H76.7716z" fill="#fff" opacity=".99" stroke="#000" stroke-linecap="round" stroke-width="3"/>
<path d="M52.5279,898.819H60.6092V931.1439H52.5279z" fill="#fff" opacity=".99" stroke="#000" stroke-linecap="round" stroke-width="3"/>
<path d="M60.6092,906.1426H68.6904V938.4675H60.6092z" fill="#fff" opacity=".99" stroke="#000" stroke-linecap="round" stroke-width="3"/>
<path d="M1453.4839,1659.6866H1490.4872V1684.6498H1453.4839z" fill="#fff" opacity=".99" stroke="#000" stroke-linecap="round" stroke-width="2.5855" transform="matrix(1,0,-.84185,.53971,0,0)"/>
<path d="M1451.8588,1658.045H1488.8621V1683.0082H1451.8588z" fill="#fff" opacity=".99" stroke="#000" stroke-linecap="round" stroke-width="2.5855" transform="matrix(1,0,-.84185,.53971,0,0)"/>
</g>
<path d="m446.8915,78.4154a61.5183,5.3033 0 1 1 -123.0366,0 61.5183,5.3033 0 1 1 123.0366,0z" stroke="#000" stroke-linecap="round" stroke-width="4.862" transform="matrix(.30922,0,0,.62016,502.30986,846.53614)"/>
<path d="m649.958,846.3199 0,27.4785c0,11.4801-8.156,20.7221-18.2869,20.7221l-17.9427,0c-10.131,0-18.2869,-9.2421-18.2869,-20.7221l0,-27.4785" fill="#fff" stroke="#000" stroke-linecap="round" stroke-linejoin="round" stroke-width="1.9633"/>
<path d="M610.2032,857.6878H622.0149A.4477,.4477 0 0 1 622.4626,858.1355V863.8885A.4477,.4477 0 0 1 622.0149,864.3363H610.2032A.4477,.4477 0 0 1 609.7554,863.8885V858.1355A.4477,.4477 0 0 1 610.2032,857.6878z" stroke="#000" stroke-linecap="square" stroke-linejoin="round" stroke-width="2.0126"/>
<path d="M631.2675,857.6878H641.2883A1.3432,1.3432 0 0 1 642.6315,859.031V862.9931A1.3432,1.3432 0 0 1 641.2883,864.3363H631.2675A1.3432,1.3432 0 0 1 629.9243,862.9931V859.031A1.3432,1.3432 0 0 1 631.2675,857.6878z" stroke="#000" stroke-linecap="square" stroke-linejoin="round" stroke-width="2.0126"/>
<path d="m596.6103,860.5882c.2781,.006 .5563,.004 .8344,.002 .1838,-10e-4 .3676,-.002 .5514,-.002 .1481,-2.5e-4 .2962,-2.3e-4 .4443,-2.3e-4 .154,-3.7e-4 .3079,3.4e-4 .4619,5.7e-4 .1978,-.006 .3926,-2.1e-4 .5884,.0291 .2024,.0313 .4067,.0411 .6108,.0475 .2052,-.009 .4066,.0338 .6097,.0568 .2066,.0211 .4142,.0234 .6215,.0258 .2178,10e-4 .4356,10e-4 .6534,3.8e-4 .1892,-4.4e-4 .3784,-5.8e-4 .5675,-10e-4 .1555,-4.4e-4 .311,-5.6e-4 .4664,-5.8e-4 .1476,-4e-5 .2952,-4e-5 .4428,-3e-5 .1476,1e-5 .2953,1e-5 .4429,1e-5 .1614,-2.3e-4 .3227,3e-4 .4841,10e-4 .1996,10e-4 .3993,2.6e-4 .5989,-3.6e-4 .1878,-1.5e-4 .3756,2.7e-4 .5634,5.8e-4 .2009,-1e-4 .4018,-5e-5 .6027,-5.8e-4 .1924,1.1e-4 .3848,4.3e-4 .5772,9e-5 .175,-5.7e-4 .35,-10e-4 .525,1.5e-4 .27,.002 .54,.002 .81,.003 .3679,.002 .7359,.002 1.1038,5.7e-4 .27,-5.7e-4 .54,-.003 .81,-.003 .2235,3.8e-4 .4469,-10e-6 .6704,-10e-4 .0309,-1.2e-4 .0619,-2.3e-4 .0928,-3.5e-4l-.8841,.6882c-.0306,-1.2e-4-.0613,-2.3e-4-.0919,-3.5e-4-.2227,-10e-4-.4455,-10e-4-.6682,-10e-4-.2673,-1.3e-4-.5347,-.002-.802,-.003-.3684,-10e-4-.7369,-10e-4-1.1053,5.7e-4-.273,10e-4-.546,.002-.8189,.003-.1751,10e-4-.3502,10e-4-.5253,1.5e-4-.1925,-3.3e-4-.385,-2e-5-.5775,8e-5-.2004,-5.6e-4-.4007,-5.1e-4-.6011,-5.7e-4-.1885,5.7e-4-.3771,10e-4-.5656,10e-4-.1993,-5.8e-4-.3987,-.002-.598,-3.6e-4-.1623,5.7e-4-.3246,10e-4-.487,10e-4-.1476,0-.2953,0-.4429,0-.1476,0-.2952,10e-6-.4427,-3e-5-.155,-8e-5-.3099,-2e-4-.4648,-5.5e-4-.1884,-4e-4-.3768,-4.8e-4-.5652,-5.1e-4-.2178,-4.7e-4-.4356,4e-4-.6534,-.002-.21,-.003-.4204,-.008-.6293,-.0341-.2009,-.0256-.4011,-.0558-.6041,-.0499-.2065,-.009-.4126,-.025-.6174,-.0555-.1935,-.0232-.3876,-.0168-.582,-.0159-.1545,3.2e-4-.309,10e-4-.4636,5.7e-4-.1479,10e-6-.2958,2e-5-.4437,-2.3e-4-.1817,-3.8e-4-.3634,-10e-4-.5451,-.002-.2801,-.002-.5603,-.003-.8404,.002l.8858,-.6895z" stroke="#000" stroke-linecap="square" stroke-linejoin="round" stroke-width=".2569"/>
<path d="m642.9405,860.7469c.3564,.007 .7129,.006 1.0694,.006 .3267,-5.1e-4 .6534,-.002 .9802,-.003 .2183,-10e-4 .4367,-10e-4 .655,-.002 .1721,-4.6e-4 .3441,-10e-4 .5162,-10e-4 .1503,.0125 .2947,-.033 .4425,-.0549 .1482,-.0196 .2976,-.0224 .4466,-.0244 .1479,-10e-4 .2959,-5.7e-4 .4438,-4.8e-4 .1478,2.3e-4 .2955,3.1e-4 .4433,3.5e-4 .1477,3e-5 .2955,3e-5 .4433,3e-5 .1478,0 .2955,0 .4433,0 .1586,-3.5e-4 .3173,5.7e-4 .4759,5.7e-4 .1606,-1.4e-4 .3213,-3.9e-4 .4819,-5.3e-4 .1488,-10e-5 .2976,-1.1e-4 .4464,-1.2e-4 .0984,-10e-6 .0492,-10e-6 .1476,-10e-6l-.8866,.6901c-.0984,0-.0492,0-.1476,0-.1487,-10e-6-.2974,-2e-5-.446,-1.3e-4-.1602,-1.3e-4-.3204,-3.9e-4-.4806,-5.3e-4-.1592,2e-5-.3184,10e-4-.4776,5.7e-4-.1478,10e-6-.2955,10e-6-.4433,10e-6-.1478,-10e-6-.2955,-10e-6-.4433,-7e-5-.1478,-7e-5-.2955,-2.1e-4-.4433,-4.1e-4-.1475,-1.3e-4-.295,-5.8e-4-.4425,.002-.1465,.004-.2933,.0112-.4382,.0365-.1499,.026-.299,.052-.4517,.0405-.171,-2.5e-4-.342,-5.7e-4-.5131,-10e-4-.2169,-3.1e-4-.4337,-3.6e-4-.6506,-.002-.324,-.002-.648,-.003-.972,-.003-.3612,-2.8e-4-.7225,-.001-1.0837,.006l.8846,-.6886z" stroke="#000" stroke-linecap="square" stroke-linejoin="round" stroke-width=".2569"/>
<path d="m622.5374,860.8406c.2704,.0388 .5431,.051 .8155,.0602 .2431,.007 .4863,.007 .7294,.006 .2007,-2.9e-4 .4015,-3.6e-4 .6022,-10e-4 .4029,.0118 .8061,.006 1.2092,.004 .2435,-.002 .4871,-.003 .7306,-.004 .1942,2e-5 .3884,-2.4e-4 .5826,3.5e-4 .2042,5.7e-4 .4083,-5.5e-4 .6125,-1.8e-4 .1842,-5e-4 .3685,-4.4e-4 .5527,-3.8e-4 .1845,3.2e-4 .369,1.3e-4 .5535,-2.9e-4 .1762,5.7e-4 .3525,6e-5 .5287,-2.6e-4 .1724,5.7e-4 .3449,2.6e-4 .5173,-2e-5 .1523,-2.5e-4 .3046,-3.3e-4 .457,-3.7e-4 .1274,.0336 .2555,.0577 .3862,.0694 .1417,.01 .2838,.01 .4258,.0103 .1477,1.1e-4 .2954,-2.2e-4 .4431,-3.9e-4 .0739,-8e-5 .1479,-1.1e-4 .2218,-1.5e-4l-.8866,.6901c-.0739,5e-5-.1479,1.1e-4-.2218,2e-4-.1479,1.8e-4-.2957,5.7e-4-.4436,-2.3e-4-.1444,-.001-.2891,-.003-.4329,-.019-.1269,-.0169-.2511,-.0515-.3787,-.0602-.152,-4e-5-.304,-1.1e-4-.456,-3.6e-4-.1724,-2.7e-4-.3448,-5.7e-4-.5173,-3e-5-.176,-3.1e-4-.3521,-10e-4-.5281,-2.5e-4-.1843,-4.2e-4-.3685,-5.7e-4-.5528,-2.9e-4-.1839,6e-5-.3678,1.1e-4-.5517,-3.8e-4-.204,3.7e-4-.408,-.001-.612,-1.8e-4-.1945,5.8e-4-.389,3.3e-4-.5835,3.5e-4-.2401,-10e-4-.4802,-.002-.7203,-.004-.4065,-.002-.8131,-.008-1.2195,.004-.2004,-2.5e-4-.4008,2.6e-4-.6012,-2.1e-4-.2423,-.002-.4846,-.004-.7268,-.013-.2773,-.0122-.5543,-.0309-.8305,-.0614l.8949,-.6785z" stroke="#000" stroke-linecap="square" stroke-linejoin="round" stroke-width=".2569"/>
<path d="m603.0399,839.1432 0,10.6402" fill="none" stroke="#000" stroke-linecap="round" stroke-width="2.5899"/>
<path d="m607.8626,838.1366 0,10.6401" fill="none" stroke="#000" stroke-linecap="round" stroke-width="2.5899"/>
<path d="m612.388,838.9768 0,10.6402" fill="none" stroke="#000" stroke-linecap="round" stroke-width="2.5899"/>
<path d="m618.3007,838.307 0,10.6402" fill="none" stroke="#000" stroke-linecap="round" stroke-width="2.5899"/>
<path d="m623.4448,839.5617 0,10.6402" fill="none" stroke="#000" stroke-linecap="round" stroke-width="2.5899"/>
<path d="m629.3335,839.4611 0,10.6402" fill="none" stroke="#000" stroke-linecap="round" stroke-width="2.5899"/>
<path d="m634.6517,838.4774 0,10.6402" fill="none" stroke="#000" stroke-linecap="round" stroke-width="2.5899"/>
<path d="m639.6725,840.22 0,10.6402" fill="none" stroke="#000" stroke-linecap="round" stroke-width="2.5899"/>
<path d="m645.077,840.0085 0,10.6401" fill="none" stroke="#000" stroke-linecap="round" stroke-width="2.5899"/>
<path d="m622.8739,882.0149c-4.5781,-.4821-9.1562,1.3446-13.7342,-2.5409" fill="none" stroke="#000" stroke-width=".4177"/>
<path d="m599.0476,841.8574 0,10.6401" fill="none" stroke="#000" stroke-linecap="round" stroke-width="2.5899"/>
<path d="m275.2666,261.6065a106.5711,23.2335 0 1 1 -213.1422,0 106.5711,23.2335 0 1 1 213.1422,0z" opacity=".99" stroke="#000" stroke-linecap="round" stroke-width="3" transform="matrix(.77491,0,0,.77491,589.57391,738.47431)"/>
<path d="m199.0001,336.6104a32.5774,9.3439 0 1 1 -65.1548,0 32.5774,9.3439 0 1 1 65.1548,0z" fill="#fff" opacity=".99" stroke="#000" stroke-linecap="round" stroke-width="3" transform="matrix(.77491,0,0,.77491,589.18253,675.85207)"/>
<path d="m179.3021,313.3769a15.9099,39.6485 0 1 1 -31.8198,0 15.9099,39.6485 0 1 1 31.8198,0z" fill="#fff" opacity=".99" stroke="#000" stroke-linecap="round" stroke-width="3" transform="matrix(.77491,0,0,.77491,591.13947,663.71902)"/>
<path d="m275.2666,261.6065a106.5711,23.2335 0 1 1 -213.1422,0 106.5711,23.2335 0 1 1 213.1422,0z" fill="#fff" opacity=".99" stroke="#000" stroke-linecap="round" stroke-width="3" transform="matrix(.77491,0,0,.77491,588.39975,675.0693)"/>
<path d="m275.2666,261.6065a106.5711,23.2335 0 1 1 -213.1422,0 106.5711,23.2335 0 1 1 213.1422,0z" fill="#fff" opacity=".99" stroke="#000" stroke-linecap="round" stroke-width="3" transform="matrix(.77491,0,0,.77491,588.39975,671.54681)"/>
<path d="m183.8478,251.8838a16.0362,6.6923 0 1 1 -32.0724,0 16.0362,6.6923 0 1 1 32.0724,0z" fill="#fff" opacity=".99" stroke="#000" stroke-linecap="round" stroke-width="3" transform="matrix(.77491,0,0,.77491,587.61697,676.43916)"/>
<path d="m712.9593,827.4975 9.7847,0c.271,0 .4892,.2182 .4892,.4892l0,42.27c0,.271-.2182,.4892-.4892,.4892-2.8417,1.3646-5.9073,2.0015-9.7847,0-.271,0-.4892,-.2182-.4892,-.4892l0,-42.27c0,-.271 .2182,-.4892 .4892,-.4892z" fill="#fff" opacity=".99" stroke="#000" stroke-linecap="round" stroke-width="2.3247"/>
<path d="m173.4937,194.1789a7.7024,2.0203 0 1 1 -15.4048,0 7.7024,2.0203 0 1 1 15.4048,0z" fill="#fff" opacity=".99" stroke="#000" stroke-linecap="round" stroke-width="3" transform="matrix(.69884,0,0,.65442,601.94036,700.61844)"/>
<path d="m720.7871,820.2079c0,3.3234-1.1828,6.0176-2.6419,6.0176-1.4591,0-4.9872,-3.6629-2.6419,-6.0176 3.817,-3.8324 1.1907,-6.0187 2.6419,-6.0176 1.4591,7.7e-4 2.6419,2.6942 2.6419,6.0176z" fill="#fff" opacity=".99" stroke="#000" stroke-linecap="round" stroke-width="2.3247"/>
<path d="m125.5115,257.1871c0,3.4171-9.6105,6.1872-21.4657,6.1872-11.8552,0-21.4657,-2.7701-21.4657,-6.1872 0,-3.4171 9.6105,-6.1872 21.4657,-6.1872 11.8552,0 21.4657,2.7701 21.4657,6.1872z" fill="#fff" opacity=".99" stroke="#000" stroke-linecap="round" stroke-width="3" transform="matrix(.77491,0,0,.77491,593.09642,672.72097)"/>
<path d="m127.7843,254.9143c0,3.5566-11.7588,6.4397-26.264,6.4397-14.5052,0-26.264,-2.8832-26.264,-6.4397 0,-3.5566 11.7588,-6.4397 26.264,-6.4397 14.5052,0 26.264,2.8832 26.264,6.4397z" fill="#fff" opacity=".99" stroke="#000" stroke-linecap="round" stroke-width="3" transform="matrix(.77491,0,0,.77491,594.85767,673.11236)"/>
<path d="m125.5115,257.1871c0,3.4171-9.6105,6.1872-21.4657,6.1872-11.8552,0-21.4657,-2.7701-21.4657,-6.1872 0,-3.4171 9.6105,-6.1872 21.4657,-6.1872 11.8552,0 21.4657,2.7701 21.4657,6.1872z" fill="#fff" opacity=".99" stroke="#000" stroke-linecap="round" stroke-width="3" transform="matrix(.78207,0,0,.57833,592.25417,723.08343)"/>
<g transform="translate(4.5457,4.5457)">
<path d="m839.4135,877.2912 0,57.781-6.8849,8.9027-.8839,-58.8638" fill="#fff" stroke="#000" stroke-width="2"/>
<path d="m810.1893,884.6683 0,61.0761 21.1525,0 0,-61.2663" fill="#fff" stroke="#000" stroke-width="2"/>
<path d="m1545.0313,1139.3744 20.9218,0-2.1623,9.3626-20.9218,0 2.1623,-9.3626z" fill="#fff" opacity=".99" stroke="#000" stroke-linecap="round" stroke-width="2.2787" transform="matrix(1,0,-.63763,.77034,0,0)"/>
</g>
<g transform="translate(58.0838,16.6675)">
<path d="m-888.3209,439.5459 22.3223,4.5504 .6011,27.5213-20.1184,.2882-2.8049,-32.3599z" fill="#fff" opacity=".99" stroke="#000" stroke-linecap="round" stroke-width="2.6052" transform="matrix(-.89129,-.45344,0,1,0,0)"/>
<path d="m859.0445,1845.4097 25.8431,0 0,21.4379-26.8105,-1.0952 .9674,-20.3427z" fill="#fff" opacity=".99" stroke="#000" stroke-linecap="round" stroke-width="2.2744" transform="matrix(-1,0,.88332,.46876,0,0)"/>
<path d="m770.864,863.9447-26.5574,0 18.9366,10.0493 26.6467,-.1786-19.0259,-9.8707z" fill="#fff" opacity=".99" stroke="#000" stroke-linecap="round" stroke-width="1.5572"/>
</g>
<path d="m125.5115,257.1871c0,3.4171-9.6105,6.1872-21.4657,6.1872-11.8552,0-21.4657,-2.7701-21.4657,-6.1872 0,-3.4171 9.6105,-6.1872 21.4657,-6.1872 11.8552,0 21.4657,2.7701 21.4657,6.1872z" fill="#fff" opacity=".99" stroke="#000" stroke-linecap="round" stroke-width="3" transform="matrix(.77491,0,0,.77491,684.56958,673.84795)"/>
<path d="m127.7843,254.9143c0,3.5566-11.7588,6.4397-26.264,6.4397-14.5052,0-26.264,-2.8832-26.264,-6.4397 0,-3.5566 11.7588,-6.4397 26.264,-6.4397 14.5052,0 26.264,2.8832 26.264,6.4397z" fill="#fff" opacity=".99" stroke="#000" stroke-linecap="round" stroke-width="3" transform="matrix(.77491,0,0,.77491,686.33083,674.23934)"/>
<path d="m125.5115,257.1871c0,3.4171-9.6105,6.1872-21.4657,6.1872-11.8552,0-21.4657,-2.7701-21.4657,-6.1872 0,-3.4171 9.6105,-6.1872 21.4657,-6.1872 11.8552,0 21.4657,2.7701 21.4657,6.1872z" fill="#fff" opacity=".99" stroke="#000" stroke-linecap="round" stroke-width="3" transform="matrix(.78207,0,0,.57833,683.72733,724.21041)"/>
<path d="m807.3644,278.5897 16.7307,9.2176" fill="none" stroke="#000" transform="translate(0,602.3622)"/>
<path d="m810.8526,880.9519 16.7307,9.2176" fill="none" stroke="#000"/>
<path d="m814.3408,880.9519 16.7307,9.2176" fill="none" stroke="#000"/>
<path d="m817.829,880.9519 16.7307,9.2176" fill="none" stroke="#000"/>
<path d="m821.3171,880.9519 16.7307,9.2176" fill="none" stroke="#000"/>
<path d="m824.8053,880.9519 16.7307,9.2176" fill="none" stroke="#000"/>
<path d="m828.2935,880.9519 16.7307,9.2176" fill="none" stroke="#000"/>
<path d="m806.5629,882.5934 24.5208,0" fill="none" stroke="#000" stroke-width="1.0191"/>
<path d="m810.2055,884.2349 23.6123,0" fill="none" stroke="#000"/>
<path d="m814.4355,886.1921 23.6123,0" fill="none" stroke="#000"/>
<path d="m817.2766,888.1493 23.6123,0" fill="none" stroke="#000"/>
<path d="m831.6072,879.0586 .5357,-22.5893 14.8214,4.0179-1.6071,26.0714-13.75,-7.5z" stroke="#000"/>
<text fill="#fff" font-family="Bitstream Vera Sans" font-size="1.387" transform="matrix(.5359,.16697,0,1.86601,0,0)" x="1552.2979" y="321.0218">
   <tspan x="1552.2979" y="321.0218">hmm@hmm-laptop $</tspan>
   <tspan x="1552.2979" y="322.7559">hmm@hmm-laptop $  cat lefu</tspan>
   <tspan x="1552.2979" y="324.4899">The Game</tspan>
   <tspan x="1552.2979" y="326.2239">hmm@hmm-laptop $ vim mylife.txt</tspan>
  </text>
<text font-family="Bitstream Vera Sans" font-size="20" x="716.4286" y="746.2908">
   <tspan text-align="center" text-anchor="middle" x="716.4286" y="746.2908">C'est à vous ces</tspan>
   <tspan text-align="center" text-anchor="middle" x="716.4286" y="771.2908">beaux pixels ?</tspan>
  </text>
<path d="M678.5714,783.0765 645,827.3622" fill="none" stroke="#000"/>
</g>
</svg>
