<svg version="1.1" viewBox="0 0 900 450" xmlns="http://www.w3.org/2000/svg" xmlns:svg="http://www.w3.org/2000/svg">
<g transform="translate(0,-602.3622)">
<text font-family="Bitstream Vera Sans" font-size="20" x="189.3535" y="799.0209">
   <tspan text-align="center" text-anchor="middle" x="189.3535" y="799.0209"></tspan>
  </text>
<text font-family="Bitstream Vera Sans" font-size="20" x="942.1425" y="384.97">
   <tspan text-align="center" text-anchor="middle" x="942.1425" y="384.97"></tspan>
  </text>
<text font-family="Bitstream Vera Sans" font-size="20" x="710.9815" y="568.1169">
   <tspan x="710.9815" y="568.1169"></tspan>
  </text>
<text font-family="Bitstream Vera Sans" font-size="20" x="91.0913" y="908.7919">
   <tspan x="91.0913" y="908.7919"></tspan>
  </text>
<text font-family="Bitstream Vera Sans" font-size="20" x="81.7278" y="420.387">
   <tspan text-align="center" text-anchor="middle" x="81.7278" y="420.387"></tspan>
  </text>
<text font-family="Bitstream Vera Sans" font-size="20" x="642.4825" y="-41.5618">
   <tspan text-align="center" text-anchor="middle" x="642.4825" y="-41.5618"></tspan>
  </text>
<text font-family="Bitstream Vera Sans" font-size="20" x="411.3225" y="141.5859">
   <tspan x="411.3225" y="141.5859"></tspan>
  </text>
<text font-family="Bitstream Vera Sans" font-size="20" x="-.721" y="268.846">
   <tspan text-align="center" text-anchor="middle" x="-.721" y="268.846"></tspan>
  </text>
<text font-family="Bitstream Vera Sans" font-size="20" x="359.0595" y="311.117">
   <tspan text-align="center" text-anchor="middle" x="359.0595" y="311.117"></tspan>
  </text>
<text font-family="Bitstream Vera Sans" font-size="20" x="1111.8505" y="-102.934">
   <tspan text-align="center" text-anchor="middle" x="1111.8505" y="-102.934"></tspan>
  </text>
<text font-family="Bitstream Vera Sans" font-size="20" x="880.6875" y="80.2135">
   <tspan x="880.6875" y="80.2135"></tspan>
  </text>
<text font-family="Bitstream Vera Sans" font-size="20" x="260.7965" y="420.888">
   <tspan x="260.7965" y="420.888"></tspan>
  </text>
<text font-family="Bitstream Vera Sans" font-size="20" x="251.4335" y="-67.5168">
   <tspan text-align="center" text-anchor="middle" x="251.4335" y="-67.5168"></tspan>
  </text>
<text font-family="Bitstream Vera Sans" font-size="20" x="812.1885" y="-529.4661">
   <tspan text-align="center" text-anchor="middle" x="812.1885" y="-529.4661"></tspan>
  </text>
<text font-family="Bitstream Vera Sans" font-size="20" x="581.0285" y="-346.318">
   <tspan x="581.0285" y="-346.318"></tspan>
  </text>
<text font-family="Bitstream Vera Sans" font-size="20" x="168.9845" y="-219.058">
   <tspan text-align="center" text-anchor="middle" x="168.9845" y="-219.058"></tspan>
  </text>
<path d="M51.5724,689.4751H832.5743A31.621,31.621 0 0 1 864.1953,721.0961V969.445A31.621,31.621 0 0 1 832.5743,1001.066H51.5724A31.621,31.621 0 0 1 19.9513,969.445V721.0961A31.621,31.621 0 0 1 51.5724,689.4751z" fill="#fff" stroke="#000" stroke-linecap="round" stroke-width="7.4907"/>
<path d="m21.1034,936.4907 840.4469,0" fill="none" stroke="#000"/>
<path d="m582.4129,685.5924 0,303.442 0,10.4485" fill="none" stroke="#000" stroke-width="5.6784"/>
<path d="m298.7231,685.4934 0,313.2703" fill="none" stroke="#000" stroke-width="5.6728"/>
<g transform="matrix(.12574,0,0,.12574,821.09754,1028.048)">
<path d="m162.9615,-66.1029c3.4935,4.0575 8.2353,4.5442 13.2828,4.8295 6.3854,-.1721 12.7816,-1.7005 18.7482,-3.9709 3.188,-1.2131 4.9498,-2.2461 7.9245,-3.8084-17.8031,10.4157-7.8919,4.8373-4.5635,1.3015 1.7244,-1.8318 2.7543,-3.7619 3.7268,-6.049 2.5265,-7.1174 2.8539,-14.7708 3.2849,-22.2438 .8398,-10.8784-1.4121,-21.5587-3.8369,-32.0902-2.9495,-11.0779-6.9553,-21.8431-11.3671,-32.4128-2.1125,-4.9937-4.5016,-9.8617-6.8287,-14.7566-3.1362,-6.0174-5.7017,-2.2804 12.0114,-9.1516 .6104,-.2368 .7311,1.087 1.1222,1.6121 .6549,.8793 1.3432,1.7331 2.0147,2.5997 6.5345,8.9671 14.393,16.8239 22.2682,24.5961 4.6332,4.5123 9.6016,8.7005 14.032,13.4186 1.6816,1.3731 2.6867,3.3087 4.04,4.9541 1.3218,1.1942 2.3559,-.063 3.524,-.88-20.4032,12.2348-13.1369,8.2804-9.2246,4.5289 1.5406,-1.4773 2.9931,-3.0561 4.4682,-4.5977 2.0935,-2.0887 4.0773,-4.3249 6.3699,-6.2061 6.0518,-4.966 14.4953,-8.9342 20.7536,-12.4943 5.7826,-2.554 11.6983,-4.7759 17.7067,-6.7339 1.2429,-.2695 6.0517,-2.1189 7.1497,-.869 .2555,.2908 .359,.686 .5385,1.029 .0249,.3507 .122,.7037 .0746,1.052-.3464,2.5421-4.2822,5.4998-5.9999,7.0812-7.8955,6.5272-15.5561,13.3165-22.8485,20.5113-6.3434,6.805-12.8959,13.5227-17.9461,21.3722-3.1182,4.9027-4.7756,10.316-5.5537,16.0199-.5154,5.1011-.4313,10.2374-.4233,15.3575 .2794,5.5658 .9893,11.1428 2.6464,16.4744 .9499,2.8397 2.6391,4.9259 5.3418,6.1729 1.7933,.6321 3.8468,1.0482 5.7562,.6876 .4443,-.0839 4.1482,-1.3389 4.4445,-1.4379 4.3672,-2.3833 14.9158,-7.9566-4.8252,2.8617-.781,.428 1.5035,-.9552 2.2436,-1.4505 1.7,-1.1377 2.1084,-1.4721 3.7035,-2.6614 1.913,-1.4312 1.0067,-.7357 2.723,-2.0808l13.6711,-5.4983c-1.7324,1.4564-.8048,.73-2.796,2.1623-8.0629,6.2254-16.9943,11.3785-26.2507,15.5961-4.0612,1.2122-7.06,1.7923-11.0152,-.0782-2.9124,-1.6424-4.8153,-4.0252-5.8395,-7.2464-1.6234,-5.4897-2.2357,-11.2047-2.7686,-16.8893-.0311,-5.1712-.1159,-10.3556 .3022,-15.5145 .7383,-5.9102 2.2958,-11.5511 5.4746,-16.6653 .6374,-1.0595 1.2164,-2.1564 1.9122,-3.1784 1.4293,-2.0993 3.5633,-4.5022 5.1926,-6.3909 3.5997,-4.173 7.2819,-8.2723 11.0846,-12.2621 7.0925,-7.1546 14.5679,-13.9155 22.3195,-20.352 2.1958,-2.0389 4.4682,-4.0268 6.363,-6.357 .3146,.1659-.6981,.139-1.0503,.1882-1.7578,.2457-3.4497,.7917-5.1425,1.3052-5.9412,1.9611-11.8224,4.1368-17.4628,6.8581 19.4412,-11.4974 7.7521,-4.9691 3.9527,-2.0455-2.3144,1.7808-4.2945,3.9798-6.3247,6.0613-7.3621,7.7662-7.7847,8.5886-20.2399,15.0176-2.0411,.9643-3.1823,.8498-4.779,-.8279-1.26,-1.6657-2.2693,-3.5234-3.8255,-4.9564-4.2421,-4.7917-8.972,-9.1394-13.4655,-13.6887-7.8003,-7.9395-15.7203,-15.7854-22.6621,-24.5085-.7459,-.8383-1.4925,-1.676-2.2377,-2.515-.414,-.4662-1.7128,-.9944-1.2397,-1.4005 11.2457,-9.654 10.609,-12.1815 13.514,-5.8078 2.1923,4.9946 4.5033,9.9394 6.4982,15.0188 4.1744,10.7594 8.0235,21.6562 11.1756,32.7627 2.5328,10.5786 5.0383,21.3246 4.3095,32.2869-.2875,7.5431-.73,15.2244-2.7778,22.5205-.6732,1.8665-.9058,2.8192-1.9806,4.5269-4.7227,7.5035-14.9088,11.0471-21.6041,15.3066-8.5205,4.1876-17.5853,7.1486-27.1755,7.1917-1.3332,-.1069-2.6764,-.126-3.9996,-.3207-3.9409,-.5799-7.6146,-2.3017-10.3419,-5.2234l12.7269,-7.6412z" stroke="#000" stroke-linecap="round" stroke-linejoin="round" stroke-width="2"/>
<path d="m285.1504,-83.2549c-5.88,1.6467-18.6251,9.5149 3.6228,-3.2161-3.0858,1.6423-4.9176,4.3146-6.3615,7.3973-.8239,2.47-1.7035,5.1777-1.5244,7.8292 .1239,1.8346 .601,2.756 1.225,4.4695 2.4426,4.8256 6.1987,8.7942 10.6559,11.8004 3.2897,2.2908 7.0292,3.3333 10.9988,3.3815 3.0629,-.6961 5.9092,-1.889 8.7139,-3.2794 1.1955,-.5927 4.6992,-2.5278 3.5526,-1.8452-13.2158,7.8669-9.9055,5.7434-5.2291,2.5405 3.8506,-2.9659 8.0361,-6.4071 9.0279,-11.451 .1385,-.7045 .1286,-1.4302 .1929,-2.1454-.2546,-6.3086-4.2409,-11.2474-8.0871,-15.9117-2.4245,-2.6982-5.17,-5.2714-8.4848,-6.8472-1.6823,-.7998-2.5447,-.9419-4.3262,-1.415-3.594,-.1953-7.3605,.1463-10.7726,1.3847-1.5775,.5726-3.9684,1.9034-5.4345,2.6786 19.9864,-11.9906 6.8908,-4.0746 2.7687,-.4895l-13.6034,5.5649c6.3305,-6.0894 14.7834,-9.6771 22.1418,-14.1306 2.1358,-1.0385 3.3967,-1.7563 5.6792,-2.4493 3.6325,-1.1029 7.5433,-1.3605 11.2846,-.8091 1.9239,.6139 2.7037,.7688 4.5106,1.7317 3.3646,1.793 6.1391,4.5163 8.621,7.3603 4.0463,4.9816 8.1538,10.1443 8.7701,16.7754-.0296,.8046 .0196,1.6161-.0889,2.4139-.7383,5.4273-4.7753,9.2853-8.8804,12.4917-7.9626,5.7154-3.8825,2.9492-19.2743,11.6675-4.0105,2.2717-8.3975,4.1951-13.0037,4.7328-4.1494,-.367-8.0102,-1.5898-11.3905,-4.108-4.5717,-3.3347-8.416,-7.5445-11.0934,-12.5605-.6247,-1.6344-1.3341,-3.1907-1.5477,-4.9537-.3345,-2.7611 .5846,-5.6627 1.2497,-8.2942 1.2789,-3.2492 2.902,-6.3291 5.9576,-8.2367 7.1822,-4.1341 13.903,-8.8778 21.9148,-11.0889l-11.7853,9.0117z" stroke="#000" stroke-linecap="round" stroke-linejoin="round" stroke-width="2"/>
<path d="m347.1504,-77.2549c-2.5469,.8146-5.1929,1.5133-7.6141,2.6735-.8131,.3896-1.5764,.8756-2.3647,1.3134 3.3457,-1.8736 6.6913,-3.7471 10.037,-5.6207-3.9716,2.6801-6.9185,5.3584-8.6955,9.85-1.1627,3.6999-.6052,6.8285 2.3247,9.5655 .7074,.6608 1.5389,1.1748 2.3083,1.7622 5.6004,3.2171 12.2296,4.3691 18.6442,3.6885 1.8388,-.1951 3.6423,-.6405 5.4634,-.9607 4.2145,-1.088 6.0512,-1.3908 10.0093,-3.0522 1.313,-.5511 5.0497,-2.628 3.8271,-1.898-17.7993,10.6288-9.7426,5.998-6.9473,3.1684 .6199,-.6275 1.1121,-1.3693 1.6682,-2.054 2.4376,-3.8135 2.5,-7.2055 .7831,-11.2688-.3152,-.7137-2.1315,-4.4568-3.4123,-3.6467-.2218,.1403-.3342,.4046-.5012,.6069 20.2171,-11.5287 12.5199,-9.601 10.5591,-3.9824-.8462,2.4247-.9939,4.7822-1.1102,7.3284 1.4046,11.8202 6.6264,22.7649 10.9162,33.7471 5.2161,14.5087 10.244,29.5646 10.8227,45.1266 .1152,3.097-.1863,6.1956-.2795,9.2933-.4626,2.9786-.7219,5.996-1.3878,8.9358-2.1724,9.5898-7.1162,18.3681-14.4574,24.947-1.2941,1.1597-2.7591,2.1134-4.1386,3.1701-5.5203,2.8839-10.7715,6.3551-16.5608,8.6516-2.3998,.952-8.1925,-1.0338-10.0914,-1.8803-7.058,-3.1465-13.1537,-8.3145-19.1496,-13.0475-10.1152,-8.659-20.0186,-17.691-29.0677,-27.4783-4.688,-5.0705-5.8469,-6.777-9.919,-12.0224-3.4654,-5.7822-7.5504,-12.4859-4.1433,-19.3016 2.0163,-4.0335 4.4499,-5.497 7.8272,-8.4338 10.1215,-6.5586 10.9501,-7.3056 25.6037,-14.7259 3.5764,-1.811 15.1096,-5.9066 18.6391,-7.138 7.0388,-2.4558 14.6082,-4.8887 21.6862,-7.2014 18.594,-5.3634 36.8056,-11.8962 54.8051,-18.9783 1.5279,-.6495 3.0578,-1.2942 4.5836,-1.9485 1.1657,-.4999 2.34,-.9808 3.4908,-1.514 2.3523,-1.0899 4.5499,-2.4389 6.9767,-3.363 3.291,-.4693 4.4452,3.4926 5.4304,5.8995 2.2687,6.1277 3.5471,12.5534 4.0987,19.0495 .1362,2.9104 .2306,5.8345-.1816,8.7279-.0421,.2958 .1108,.7559-.16,.882-4.4089,2.0533-9.0127,3.659-13.519,5.4886 .0118,-.8952-.0374,-1.7934 .0355,-2.6857 .1061,-1.2986 .3295,-2.5849 .5008,-3.8765 .9997,-7.538 2.3091,-14.9758 3.843,-22.4228 1.555,-6.4961 2.8976,-13.2994 6.61,-18.9697 4.2039,-4.4015 13.5536,-13.0794 18.1064,-8.0287 .4767,.5289 .8107,1.1708 1.2161,1.7562 .891,1.5753 1.6607,2.7718 2.2437,4.5173 1.6389,4.9078 2.3745,10.6605 3.2422,15.7652 1.1326,4.4176 .7008,9.7081 2.0412,14.0399 1.7726,-4.7616-.0179,.2205-12.7493,6.291-.2582,.1231 .3891,-.4251 .5337,-.672 .3315,-.566 .9805,-2.2274 1.2333,-2.7376 .3448,-.6961 .7385,-1.3669 1.1077,-2.0504 2.3945,-3.8376 4.4213,-7.8928 7.0597,-11.5731 4.4112,-5.5273 8.5378,-6.7337 16.174,-10.93 .2619,-.1439 .6145,-.0601 .8956,.0415 .3579,.1294 .6361,.4181 .9542,.6271 2.9864,3.1411 4.0262,7.5857 5.0346,11.6761 .8762,4.4536 1.3452,8.9967 2.9742,13.2566 .3967,.5584 .7207,1.1763 1.19,1.6753 3.4181,3.6336 9.0718,6.3498 13.7339,7.8272 1.7542,.5559 3.5616,.9276 5.3424,1.3914 7.54,1.8812 15.1058,1.9747 22.6056,-.087 1.66,-.4563 3.3273,-.9326 4.8996,-1.6338 1.4645,-.6531 2.7763,-1.6056 4.1644,-2.4083-2.8879,1.4901-5.5634,3.4967-8.6637,4.4704-1.1955,.3755 1.8602,-1.6841 2.7137,-2.6016 2.5159,-2.7049 3.9544,-5.7126 4.9671,-9.2111 .6946,-2.9134 .6823,-5.9069 .6019,-8.8795-.8123,-6.1361-6.2332,-.0969 12.5348,-7.7189 .3417,-.1388-.2006,.7117-.258,1.076-.0835,.53-.1093,1.0675-.1639,1.6012-.2665,4.8348-.377,9.6802 .1605,14.4971 .5467,3.099 1.1396,6.2653 3.5686,8.4405 1.7091,1.1249 3.5227,1.2014 5.4105,.5838 4.5429,-2.2925 11.3618,-6.2694-9.2958,5.3928-.733,.4138 1.4175,-.9086 2.114,-1.3812l13.7499,-5.4669c-1.0645,.874-.871,.7838-2.0934,1.4985-4.6452,2.7158-10.3975,7.2521-16.2755,8.9062-2.2943,.246-4.4334,-.2532-6.2278,-1.7781-2.497,-2.6033-3.3119,-5.923-3.8685,-9.4237-.5906,-4.8727-.472,-9.7673-.4084,-14.6687 .0197,-.6544 .077,-2.9288 .1232,-2.9595 9.727,-6.4603 12.8718,-12.5754 14.1061,-5.3537 .0695,3.1243 .0729,6.2667-.5797,9.341-3.2014,12.7554-11.6553,15.6615-23.2766,22.5416-1.4289,.7205-2.7977,1.5752-4.2867,2.1615-8.9506,3.524-18.7036,3.2412-27.9102,1.0341-1.8391,-.4877-3.7066,-.8788-5.5173,-1.4632-4.6315,-1.4947-11.1446,-4.692-14.5603,-8.2853-.5627,-.5919-.968,-1.3157-1.452,-1.9736-1.6237,-4.344-2.0916,-8.9473-2.927,-13.4875-.8421,-3.5179-1.6783,-7.8688-4.5851,-10.3108-.6859,.086-.3319,-.0175-1.041,.3749 3.9288,-2.3321 7.8577,-4.6642 11.7865,-6.9963 .3323,-.191-.6084,.4685-.8871,.7315-.6996,.66-1.2666,1.4531-2.0221,2.0581-2.82,3.545-4.8538,7.566-7.2091,11.4215-.8854,1.5155-1.617,2.9578-2.1805,4.6201-.1148,.3386 .0125,.8473-.2939,1.0316-13.2948,7.9967-10.3461,11.2314-14.0569,6.5713-1.1159,-4.7041-.5439,-9.6982-1.6308,-14.4245-1.0635,-6.6156-1.8817,-13.7016-5.4778,-19.4897-.6253,-.7518-.8938,-1.4407-1.8874,-1.6242-.2691,-.0497-1.0491,.2242-.8171,.0792 3.855,-2.4085 7.8581,-4.5721 11.7547,-6.9127 .3501,-.2103-.7641,.3015-1.11,.5187-.4078,.256-.7577,.5945-1.1366,.8918-4.3835,5.2272-5.7056,12.2845-7.478,18.6873-1.9969,9.2321-3.7113,18.5943-3.9931,28.0561-4.3051,2.6386-8.5232,5.4248-12.9154,7.9158-.2419,.1372 .2404,-.5043 .318,-.7714 .8042,-2.7667 .5753,-5.6949 .5747,-8.5333-.3712,-6.3501-1.5585,-12.6651-3.9842,-18.571-.4628,-1.0682-1.3134,-4.1649-2.9322,-4.2743-.3754,-.0254-1.0644,.2717-1.3633,.3791-4.7881,2.1318-9.4382,4.5785-14.4142,6.2825-17.8398,6.7098-35.8321,12.9983-54.1277,18.3644-10.6198,3.5133-21.3137,6.9086-31.715,11.0427-2.9939,1.19-5.7348,3.1473-8.8924,3.787-1.6217,.3285 5.5767,-3.5384 4.0891,-2.8139-2.1692,1.0565-4.0999,2.545-6.1498,3.8175-3.8287,3.0735-8.5236,6.2534-9.4308,11.5515-.893,5.2148 2.4282,10.0365 4.6745,14.3601 1.3891,1.8979 2.711,3.847 4.1673,5.6938 9.9457,12.6131 22.0475,23.4346 34.3683,33.6505 6.0444,4.5132 12.2092,9.5598 19.3554,12.2966 1.6491,.6316 3.3794,1.1098 5.1345,1.3053 1.4972,.1668 5.3244,-1.5002 4.5136,-.2306-1.6887,2.6441-5.176,3.5469-7.7641,5.3203 1.4485,-1.0111 2.9813,-1.911 4.3453,-3.0333 7.5773,-6.2343 12.8885,-14.8407 15.2526,-24.3515 .7183,-2.8896 .999,-5.8707 1.4986,-8.806 .1439,-3.0552 .5095,-6.108 .4316,-9.1656-.3934,-15.4369-5.6294,-30.3333-10.905,-44.6508-4.4755,-11.0691-9.9218,-21.9803-11.8707,-33.8586-.0655,-2.8117 .003,-4.952 .6842,-7.6722 .0381,-.1521 .7931,-2.8601 1.1292,-3.0916 4.3169,-2.973 8.9144,-5.5165 13.3715,-8.2747 .3389,.0271 .6889,-.0085 1.0169,.0812 2.1057,.5758 3.1151,3.1886 3.9952,4.8962 1.8742,4.4256 2.1315,8.3635-.2532,12.7108-.541,.7748-1.0086,1.6064-1.6229,2.3244-4.3907,5.131-13.1728,8.7324-17.6417,11.2191-4.2744,2.3784-9.1918,3.3952-13.8934,4.496-1.8823,.2823-3.7498,.6922-5.6468,.847-6.776,.553-13.6979,-.6632-19.4819,-4.3006-.8304,-.6627-1.7251,-1.252-2.4912,-1.9881-3.2394,-3.1123-4.2505,-6.5472-3.1788,-10.8443 1.6159,-5.1378 4.1492,-7.6245 8.4678,-10.7873 8.3338,-4.9235 15.8682,-10.3542 25.256,-12.659l-11.7853,9.0117z" stroke="#000" stroke-linecap="round" stroke-linejoin="round" stroke-width="2"/>
<path d="m549.2332,-122.1847c-1.7835,2.0929-3.2088,4.4879-3.887,7.1628-.4856,2.6751 1.1102,3.361 3.3038,4.3209 3.5488,1.2997 6.5822,1.157 10.2167,.5143 4.8602,-1.6662 12.579,-6.4142-9.0248,5.5037-.3034,.1673 .5755,-.3901 .8315,-.6236 .6095,-.5556 .6709,-.7857 1.0696,-1.4819 .7338,-1.6463 .6619,-3.1872-.2832,-4.7035-1.2573,-1.1913-3.1474,-1.0796-4.7697,-1.1586-1.6755,.1549-3.2712,.5705-4.6332,1.5753l11.5699,-9.3176c1.6475,-.6237 3.3328,-1.0178 5.1127,-.8762 2.1175,.2092 4.2007,.5097 5.5739,2.3193 1.1184,1.8815 1.5604,3.8267 .9141,5.9743-2.3437,7.0718-11.2457,9.9308-18.1332,11.6144-3.6699,.4613-7.2979,.2601-10.7482,-1.2144-2.4801,-1.2798-4.7037,-2.8813-4.3281,-5.9859 .4579,-2.8821 1.8638,-5.464 3.5526,-7.8184l13.6626,-5.8049z" stroke="#000" stroke-linecap="round" stroke-linejoin="round" stroke-width="2"/>
<path d="m359.6057,-86.1453c2.813,-1.3672 5.4973,-2.9836 8.3991,-4.1626 1.8182,-1.1808 3.8128,-1.7264 5.9399,-1.959 1.9567,-.1487 3.9211,-.1237 5.8819,-.1169 1.9461,-.207 3.5945,.325 5.304,1.1594 1.1966,.9591 2.1411,2.2333 3.05,3.4655 .7904,1.4357 1.2548,3.0464 1.7411,4.6107 .436,1.6028 1.0296,3.1343 1.3438,4.7721 .3026,1.9227 .3232,3.8738 .3468,5.8155 .009,1.0012 .007,2.0024 .007,3.0036l-13.2174,6.733c.001,-.9962 .003,-1.9924-10e-4,-2.9886-.0137,-1.8636-.0171,-3.7343-.2514,-5.5862-.2608,-1.5964-.8449,-3.0648-1.2698,-4.6141-.4125,-1.4071-.8576,-2.8405-1.4965,-4.1522-.7779,-1.02-1.5348,-2.1846-2.6529,-2.8453-1.5703,-.6821-3.2079,-.7262-4.905,-.653-1.9192,.0085-3.8508,-8.13e-4-5.7505,.3092-2.0091,.4249-3.8194,1.2893-5.6483,2.207-2.8459,1.3235-5.5987,2.8407-8.3572,4.3355l11.5367,-9.3337z" stroke="#000" stroke-linecap="round" stroke-linejoin="round" stroke-width="2"/>
</g>
<path d="M49.9675,656.7638H301.1314A15.6552,15.6552 0 0 1 316.7866,672.419V672.419A15.6552,15.6552 0 0 1 301.1314,688.0742H49.9675A15.6552,15.6552 0 0 1 34.3123,672.419V672.419A15.6552,15.6552 0 0 1 49.9675,656.7638z" fill="#fff" stroke="#000" stroke-linecap="round" stroke-linejoin="round" stroke-width="4.5094" transform="matrix(1,-.00315,.00315,1,0,0)"/>
<path d="m101.5203,44.9288a36.8706,34.8503 0 1 1 -73.7411,0 36.8706,34.8503 0 1 1 73.7411,0z" stroke="#000" stroke-linecap="round" stroke-linejoin="round" stroke-width="7.491" transform="matrix(1.24255,-.00391,.00217,.68917,-21.74075,633.80497)"/>
<text font-family="Bitstream Vera Sans" font-size="40" transform="matrix(1,-.00315,.00315,1,0,0)" x="22.2953" y="679.6128">
   <tspan fill="#f9f9f9" x="22.2953" y="679.6128">146</tspan>
  </text>
<text font-family="Bitstream Vera Sans" font-size="20" transform="matrix(1,-.00315,.00315,1,0,0)" x="161.2963" y="678.8528">
   <tspan x="161.2963" y="678.8528">Soutien</tspan>
  </text>
<text font-family="Bitstream Vera Sans" font-size="20" x="642.3475" y="243.687">
   <tspan x="642.3475" y="243.687"></tspan>
  </text>
<g transform="matrix(-.54816,0,0,.54816,-224.40286,347.67522)">
<path d="m154.2857,169.6429c0,4.5366-27.5025,8.2143-61.4286,8.2143-33.9261,0-61.4286,-3.6777-61.4286,-8.2143 0,-4.5366 27.5025,-8.2143 61.4286,-8.2143 33.9261,0 61.4286,3.6777 61.4286,8.2143z" stroke="#000" transform="matrix(.72001,0,0,.72001,-847.00138,983.47906)"/>
<path d="m-789.8013,1023.0158 23.2555,0c3.7798,20.3274 21.658,15.3801 23.8584,23.8584l-4.0003,37.0532c-7.8882,13.8749-17.9811,22.6821-27.8587,22.4038l-6.1635,0c-9.9907,-.5379-25.2824,-12.5249-27.8587,-25.3131l-5.0912,-34.1439c1.5539,-5.8922 15.4993,-.9541 23.8584,-23.8584z" fill="#fff" stroke="#000" stroke-linecap="round" stroke-linejoin="round" stroke-width="2.6223"/>
<path d="m-803.7275,1055.6604c1.0867,-.3164 2.165,-.6159 3.2833,-.7906 1.1389,-.2395 2.2868,-.3943 3.4389,-.552 .9053,-.1595 1.7991,-.3314 2.7109,-.4431 1.3286,-.1934 2.6821,-.2769 4.0248,-.3073 .6745,-.05 1.3404,-.029 2.0134,.017l-3.4739,4.1237c-.6496,-.044-1.2972,-.039-1.948,-.013-1.3375,.051-2.6801,.1263-3.9997,.361-.9053,.1254-1.7964,.332-2.7049,.4371-1.149,.147-2.2864,.3471-3.4243,.5635-1.1067,.1989-2.1807,.5255-3.2559,.8518l3.3352,-4.2473z" stroke="#000" stroke-linecap="round" stroke-linejoin="round" stroke-width="1.44"/>
<path d="m-768.7949,1057.0366c-1.0393,-.4483-2.0722,-.879-3.1603,-1.1906-1.1005,-.3786-2.2205,-.6742-3.3442,-.9732-.8786,-.2703-1.7443,-.5514-2.6353,-.775-1.2945,-.3563-2.6272,-.6066-3.9559,-.8028-.6631,-.1333-1.3266,-.1942-2,-.2325l2.9372,4.5217c.6501,.037 1.292,.1222 1.9347,.2276 1.3209,.2161 2.6439,.4568 3.9243,.8529 .8828,.2365 1.7415,.5517 2.6301,.7685 1.122,.2879 2.2259,.6271 3.3283,.9826 1.0736,.3343 2.099,.7912 3.1255,1.248l-2.7842,-4.6272z" stroke="#000" stroke-linecap="round" stroke-linejoin="round" stroke-width="1.44"/>
<path d="m538.4195,257.9523c0,3.0469-2.4032,5.5169-5.3678,5.5169-2.9646,0-5.3678,-2.47-5.3678,-5.5169 0,-3.0469 2.4032,-5.5169 5.3678,-5.5169 2.9646,0 5.3678,2.47 5.3678,5.5169z" fill="#fff" stroke="#000" stroke-linecap="round" stroke-linejoin="round" stroke-width="2" transform="matrix(.72001,0,0,.72001,-1160.82907,881.16208)"/>
<path d="m555.2684,260.4871c0,.9058-.4005,1.6402-.8946,1.6402-.4941,0-.8946,-.7343-.8946,-1.6402 0,-.9058 .4005,-1.6402 .8946,-1.6402 .4941,0 .8946,.7343 .8946,1.6402z" fill="#fff" stroke="#000" stroke-linecap="round" stroke-linejoin="round" stroke-width="2" transform="matrix(.72001,0,0,.72001,-1177.86202,879.31097)"/>
<g transform="matrix(.72001,0,0,.72001,-1177.40655,880.62531)">
<path d="m538.4195,257.9523c0,3.0469-2.4032,5.5169-5.3678,5.5169-2.9646,0-5.3678,-2.47-5.3678,-5.5169 0,-3.0469 2.4032,-5.5169 5.3678,-5.5169 2.9646,0 5.3678,2.47 5.3678,5.5169z" fill="#fff" stroke="#000" stroke-linecap="round" stroke-linejoin="round" stroke-width="2"/>
<path d="m555.2684,260.4871c0,.9058-.4005,1.6402-.8946,1.6402-.4941,0-.8946,-.7343-.8946,-1.6402 0,-.9058 .4005,-1.6402 .8946,-1.6402 .4941,0 .8946,.7343 .8946,1.6402z" fill="#fff" stroke="#000" stroke-linecap="round" stroke-linejoin="round" stroke-width="2" transform="translate(-23.6822,-2.4475)"/>
</g>
<path d="m-775,1090.9336 11.4286,-4.2857" fill="none" stroke="#000"/>
<path d="m-787.4139,427.5241-5.0508,1.7678c-3.577,4.8826-6.3479,10.09-18.4353,13.3845-.6492,13.2993-5.1558,14.2246-9.0914,15.4048-3.8871,-1.6121-4.3172,-7.7243-6.0609,-12.1218-7.3009,-10.9902-5.9478,-19.8523 1.2627,-27.2741-.6327,-.9856-.2121,.1275-.3698,-2.0457 .4594,-.0813 3.0023,-1.8295 5.8084,-3.7881 1.5725,.5542 1.2353,-.1714 1.6325,1.7932-.3007,-1.9217 .6667,-3.3362 1.5152,-4.7982 1.1047,-1.1515 3.3299,-2.4897 5.8517,-3.8774-.5873,-1.7357 .7198,-3.2007 1.7245,-4.7089 3.9354,-2.907 7.6635,-3.7296 11.3642,-4.0406 5.9565,-2.6828 10.9583,-3.6928 13.132,.2525 2.0843,-.2778 3.471,-1.4275 7.3236,.5051 8.297,-2.1862 9.5152,3.9269 11.1117,9.5965 1.5809,1.0492 3.3927,.857 4.7396,.2679 6.3395,-2.6036 8.3325,3.0225 12.9381,8.0659 8.4919,-4.7984 7.4622,8.1482 11.1117,12.3744 6.4561,-4.6243 8.8784,29.9614-2.1249,30.2739-.5453,3.7597-1.5939,5.0027-2.5994,6.4614-3.5434,2.4613-3.8886,1.8964-5.7624,2.7779-1.092,-.2522 1.7628,-7.2191 1.9004,-10.2188-2.6088,-4.9668-2.734,-10.7615-2.5254,-16.6675l-2.5254,-1.5152c-6.8936,4.6663-9.6454,-3.9343-14.3947,-6.0609-2.0681,1.0789-3.9777,.2555-5.8084,-1.5152-12.3189,5.0011-14.6192,.0414-16.6675,-4.2931z" stroke="#000" stroke-width="0" transform="translate(0,602.3622)"/>
</g>
<g transform="matrix(.46677,0,0,.46677,-217.38095,765.90634)">
<path d="M99.569,639.5223H328.4837V682.7453H99.569z" opacity=".99" stroke="#000" stroke-linecap="round" stroke-width="2.375" transform="matrix(1,0,.74329,.66897,0,0)"/>
<g transform="translate(270.801,-512.587)">
<path d="m446.8915,78.4154c0,2.9289-27.5427,5.3033-61.5183,5.3033-33.9756,0-61.5183,-2.3744-61.5183,-5.3033 0,-2.9289 27.5427,-5.3033 61.5183,-5.3033 33.9756,0 61.5183,2.3744 61.5183,5.3033z" stroke="#000" stroke-linecap="round" stroke-width="4.862" transform="translate(8.3721,834.346)"/>
<path d="m447.5034,825.8744 0,47.8884c0,20.007-16.1067,36.1137-36.1137,36.1137l-35.434,0c-20.007,0-36.1137,-16.1067-36.1137,-36.1137l0,-47.8884" fill="#fff" stroke="#000" stroke-linecap="round" stroke-linejoin="round" stroke-width="3.6422"/>
<path d="M368.89,845.6858H392.424A.7803,.7803 0 0 1 393.2043,846.4661V856.4922A.7803,.7803 0 0 1 392.424,857.2724H368.89A.7803,.7803 0 0 1 368.1097,856.4922V846.4661A.7803,.7803 0 0 1 368.89,845.6858z" stroke="#000" stroke-linecap="square" stroke-linejoin="round" stroke-width="3.7338"/>
<path d="M410.2809,845.6858H430.6938A2.3409,2.3409 0 0 1 433.0347,848.0266V854.9316A2.3409,2.3409 0 0 1 430.6938,857.2724H410.2809A2.3409,2.3409 0 0 1 407.9401,854.9316V848.0266A2.3409,2.3409 0 0 1 410.2809,845.6858z" stroke="#000" stroke-linecap="square" stroke-linejoin="round" stroke-width="3.7338"/>
<path d="m342.1502,850.7404c.5492,.0105 1.0986,.007 1.6478,.004 .363,-.002 .7259,-.004 1.0889,-.004 .2925,-4.3e-4 .585,-4e-4 .8775,-4e-4 .304,-6.3e-4 .6081,6e-4 .9121,10e-4 .3906,-.01 .7752,-3.7e-4 1.162,.0507 .3996,.0545 .8031,.0717 1.2062,.0827 .4052,-.0158 .8029,.0589 1.204,.099 .4079,.0368 .818,.0407 1.2274,.045 .4301,.002 .8603,.002 1.2904,6.5e-4 .3736,-7.6e-4 .7472,-10e-4 1.1208,-.002 .307,-7.7e-4 .6141,-9.8e-4 .9211,-10e-4 .2915,-8e-5 .583,-7e-5 .8745,-6e-5 .2915,1e-5 .5831,1e-5 .8746,1e-5 .3187,-3.9e-4 .6374,5.3e-4 .9561,.002 .3943,.002 .7885,4.4e-4 1.1828,-6.3e-4 .3709,-2.7e-4 .7418,4.7e-4 1.1126,10e-4 .3967,-1.7e-4 .7934,-8e-5 1.1902,-10e-4 .38,1.9e-4 .7599,7.4e-4 1.1399,1.6e-4 .3456,-.001 .6912,-.001 1.0367,2.5e-4 .5332,.003 1.0664,.004 1.5996,.006 .7266,.003 1.4533,.003 2.1799,.001 .5332,-.001 1.0664,-.005 1.5997,-.005 .4413,6.5e-4 .8826,-2e-5 1.3239,-10e-4 .0611,-2e-4 .1222,-4e-4 .1833,-6e-4l-1.746,1.1993c-.0605,-2.1e-4-.121,-4.1e-4-.1815,-6.1e-4-.4399,-10e-4-.8797,-.002-1.3196,-.002-.528,-2.2e-4-1.0559,-.004-1.5839,-.005-.7276,-.002-1.4552,-.002-2.1828,9.9e-4-.5391,.002-1.0782,.003-1.6173,.006-.3458,.002-.6916,.002-1.0375,2.6e-4-.3801,-5.7e-4-.7602,-3e-5-1.1404,1.5e-4-.3957,-9.9e-4-.7914,-8.9e-4-1.187,-10e-4-.3723,10e-4-.7447,.002-1.117,.002-.3937,-.001-.7873,-.003-1.181,-6.3e-4-.3206,10e-4-.6411,.002-.9617,.002-.2915,0-.5831,0-.8747,0-.2914,0-.5829,2e-5-.8743,-6e-5-.306,-1.3e-4-.612,-3.5e-4-.918,-9.6e-4-.372,-6.9e-4-.744,-8.4e-4-1.1161,-8.8e-4-.4302,-8.3e-4-.8603,7e-4-1.2904,-.004-.4148,-.006-.8303,-.0145-1.2428,-.0595-.3968,-.0446-.792,-.0972-1.193,-.0869-.4078,-.0152-.8149,-.0435-1.2193,-.0968-.382,-.0404-.7654,-.0292-1.1493,-.0278-.3051,5.6e-4-.6103,.002-.9155,10e-4-.2921,10e-6-.5842,3e-5-.8763,-4e-4-.3589,-6.7e-4-.7177,-.002-1.0765,-.004-.5532,-.003-1.1065,-.006-1.6597,.004l1.7494,-1.2016z" stroke="#000" stroke-linecap="square" stroke-linejoin="round" stroke-width=".4767"/>
<path d="m433.645,851.0171c.7039,.0118 1.4079,.0102 2.1119,.01 .6452,-8.9e-4 1.2905,-.003 1.9357,-.006 .4312,-.002 .8624,-.002 1.2935,-.003 .3398,-8.1e-4 .6796,-.002 1.0194,-.002 .2968,.0217 .5821,-.0575 .8738,-.0956 .2926,-.0341 .5877,-.039 .8821,-.0425 .2922,-.002 .5843,-10e-4 .8765,-8.4e-4 .2918,4e-4 .5836,5.3e-4 .8754,6.1e-4 .2918,5e-5 .5836,5e-5 .8754,5e-5 .2918,0 .5836,0 .8754,0 .3133,-6.1e-4 .6266,10e-4 .9398,10e-4 .3172,-2.5e-4 .6345,-6.9e-4 .9517,-9.3e-4 .2938,-1.8e-4 .5877,-2e-4 .8815,-2.1e-4 .1943,-10e-6 .0972,-10e-6 .2915,-10e-6l-1.7509,1.2027c-.1943,0-.0971,0-.2914,0-.2936,-2e-5-.5872,-4e-5-.8808,-2.2e-4-.3164,-2.3e-4-.6327,-6.8e-4-.9491,-9.3e-4-.3144,4e-5-.6287,.002-.9431,10e-4-.2918,10e-6-.5836,10e-6-.8754,10e-6-.2918,-10e-6-.5836,-10e-6-.8754,-1.2e-4-.2918,-1.3e-4-.5837,-3.7e-4-.8755,-7.2e-4-.2913,-2.3e-4-.5826,-10e-4-.8738,.004-.2893,.007-.5791,.0195-.8653,.0636-.2961,.0452-.5905,.0907-.8921,.0705-.3377,-4.3e-4-.6755,-10e-4-1.0132,-.002-.4283,-5.4e-4-.8565,-6.3e-4-1.2848,-.003-.6398,-.003-1.2796,-.005-1.9195,-.006-.7134,-4.8e-4-1.4269,-.002-2.1402,.01l1.747,-1.2z" stroke="#000" stroke-linecap="square" stroke-linejoin="round" stroke-width=".4767"/>
<path d="m393.3521,851.1803c.5339,.0676 1.0726,.0889 1.6105,.1048 .4801,.0116 .9604,.0116 1.4405,.0103 .3964,-5e-4 .7929,-6.3e-4 1.1893,-.002 .7958,.0205 1.592,.0104 2.3879,.007 .4809,-.004 .9619,-.005 1.4428,-.007 .3835,3e-5 .767,-4.2e-4 1.1506,6e-4 .4032,10e-4 .8064,-9.5e-4 1.2096,-3.1e-4 .3638,-8.6e-4 .7277,-7.6e-4 1.0915,-6.6e-4 .3644,5.6e-4 .7288,2.2e-4 1.0931,-5.1e-4 .3481,.001 .6961,1.1e-4 1.0442,-4.5e-4 .3406,.001 .6811,4.5e-4 1.0217,-4e-5 .3008,-4.3e-4 .6016,-5.6e-4 .9024,-6.3e-4 .2516,.0585 .5047,.1006 .7628,.1209 .2799,.0172 .5606,.0173 .8409,.018 .2917,1.9e-4 .5833,-3.9e-4 .875,-6.8e-4 .146,-1.4e-4 .292,-2e-4 .4381,-2.6e-4l-1.7508,1.2027c-.146,10e-5-.292,1.9e-4-.438,3.5e-4-.292,3.2e-4-.584,10e-4-.876,-3.9e-4-.2852,-.002-.5709,-.005-.8549,-.0331-.2506,-.0293-.496,-.0897-.7478,-.105-.3002,-8e-5-.6004,-2e-4-.9006,-6.3e-4-.3405,-4.8e-4-.681,-10e-4-1.0215,-5e-5-.3476,-5.5e-4-.6953,-.002-1.0429,-4.4e-4-.3639,-7.3e-4-.7278,-10e-4-1.0916,-5.1e-4-.3632,1.1e-4-.7264,1.9e-4-1.0895,-6.6e-4-.4029,6.4e-4-.8058,-.002-1.2087,-3.1e-4-.3841,.001-.7682,5.8e-4-1.1523,6e-4-.4742,-.002-.9483,-.003-1.4224,-.007-.8027,-.004-1.6058,-.0132-2.4083,.007-.3958,-4.3e-4-.7915,4.6e-4-1.1873,-3.6e-4-.4785,-.003-.957,-.007-1.4353,-.0226-.5477,-.0212-1.0947,-.0538-1.64,-.107l1.7673,-1.1825z" stroke="#000" stroke-linecap="square" stroke-linejoin="round" stroke-width=".4767"/>
<path d="m354.8476,813.367 0,18.5432" fill="none" stroke="#000" stroke-linecap="round" stroke-width="4.8046"/>
<path d="m364.3717,811.6127 0,18.5432" fill="none" stroke="#000" stroke-linecap="round" stroke-width="4.8046"/>
<path d="m373.3086,813.077 0,18.5432" fill="none" stroke="#000" stroke-linecap="round" stroke-width="4.8046"/>
<path d="m384.9853,811.9097 0,18.5432" fill="none" stroke="#000" stroke-linecap="round" stroke-width="4.8046"/>
<path d="m395.144,814.0963 0,18.5432" fill="none" stroke="#000" stroke-linecap="round" stroke-width="4.8046"/>
<path d="m406.7732,813.9209 0,18.5432" fill="none" stroke="#000" stroke-linecap="round" stroke-width="4.8046"/>
<path d="m417.2758,812.2068 0,18.5432" fill="none" stroke="#000" stroke-linecap="round" stroke-width="4.8046"/>
<path d="m427.1912,815.2437 0,18.5432" fill="none" stroke="#000" stroke-linecap="round" stroke-width="4.8046"/>
<path d="m437.8642,814.875 0,18.5432" fill="none" stroke="#000" stroke-linecap="round" stroke-width="4.8046"/>
<path d="m385.2314,889.9494 27.1229,-4.4282" fill="none" stroke="#000" stroke-width=".7749"/>
<path d="m346.9635,818.0972 0,18.5432" fill="none" stroke="#000" stroke-linecap="round" stroke-width="4.8046"/>
</g>
<path d="M612.9433,404.0606H617.9433A3.5714,3.5714 0 0 1 621.5147,407.632V448.3463A3.5714,3.5714 0 0 1 617.9433,451.9177H612.9433A3.5714,3.5714 0 0 1 609.3719,448.3463V407.632A3.5714,3.5714 0 0 1 612.9433,404.0606z" fill="#fff" opacity=".99" stroke="#000" stroke-linecap="round" stroke-width="3"/>
<path d="M588.3004,384.4178H593.3004A3.5714,3.5714 0 0 1 596.8719,387.9892V428.7035A3.5714,3.5714 0 0 1 593.3004,432.2749H588.3004A3.5714,3.5714 0 0 1 584.729,428.7035V387.9892A3.5714,3.5714 0 0 1 588.3004,384.4178z" fill="#fff" opacity=".99" stroke="#000" stroke-linecap="round" stroke-width="3"/>
<path d="M814.9075,408.5249H819.9075A3.5714,3.5714 0 0 1 823.479,412.0963V452.8106A3.5714,3.5714 0 0 1 819.9075,456.382H814.9075A3.5714,3.5714 0 0 1 811.3361,452.8106V412.0963A3.5714,3.5714 0 0 1 814.9075,408.5249z" fill="#fff" opacity=".99" stroke="#000" stroke-linecap="round" stroke-width="3"/>
<path d="M790.2647,388.882H795.2647A3.5714,3.5714 0 0 1 798.8362,392.4535V433.1678A3.5714,3.5714 0 0 1 795.2647,436.7392H790.2647A3.5714,3.5714 0 0 1 786.6933,433.1678V392.4535A3.5714,3.5714 0 0 1 790.2647,388.882z" fill="#fff" opacity=".99" stroke="#000" stroke-linecap="round" stroke-width="3"/>
<path d="M147.9421,574.9234H376.8568V618.1464H147.9421z" fill="#fff" opacity=".99" stroke="#000" stroke-linecap="round" stroke-width="2.375" transform="matrix(1,0,.74329,.66897,0,0)"/>
<path d="M149.7278,570.1186H378.6425V613.3415H149.7278z" fill="#fff" opacity=".99" stroke="#000" stroke-linecap="round" stroke-width="2.375" transform="matrix(1,0,.74329,.66897,0,0)"/>
<path d="m786.6933,405.8463-25,-21.4286 0,-81.7857 37.8571,0 25.7143,20.7143" fill="#fff" opacity=".99" stroke="#000" stroke-linecap="round" stroke-width="3"/>
<g transform="translate(578.658,-504.373)">
<path d="M113.2143,798.4336H198.2143A5.7143,5.7143 0 0 1 203.9286,804.1479V872.3622A5.7143,5.7143 0 0 1 198.2143,878.0765H113.2143A5.7143,5.7143 0 0 1 107.5,872.3622V804.1479A5.7143,5.7143 0 0 1 113.2143,798.4336z" fill="#fff" opacity=".99" stroke="#000" stroke-linecap="round" stroke-width="3"/>
<path d="M130,815.2194H190.7143A5.7143,5.7143 0 0 1 196.4286,820.9336V867.0051A5.7143,5.7143 0 0 1 190.7143,872.7194H130A5.7143,5.7143 0 0 1 124.2857,867.0051V820.9336A5.7143,5.7143 0 0 1 130,815.2194z" fill="#fff" opacity=".99" stroke="#000" stroke-linecap="round" stroke-width="3"/>
<path d="M141.9643,903.8132H184.1071A2.6562,2.6562 0 0 1 186.7633,906.4693V906.4693A2.6562,2.6562 0 0 1 184.1071,909.1255H141.9643A2.6562,2.6562 0 0 1 139.3081,906.4693V906.4693A2.6562,2.6562 0 0 1 141.9643,903.8132z" fill="#fff" opacity=".99" stroke="#000" stroke-linecap="round" stroke-width="2.3305"/>
<path d="M156.0714,242.1429H170.3571A5.7143,5.7143 0 0 1 176.0714,247.8571V297.5A5.7143,5.7143 0 0 1 170.3571,303.2143H156.0714A5.7143,5.7143 0 0 1 150.3571,297.5V247.8571A5.7143,5.7143 0 0 1 156.0714,242.1429z" fill="#fff" opacity=".99" stroke="#000" stroke-linecap="round" stroke-width="3" transform="translate(0,602.362)"/>
</g>
<path d="M12.7687,735.9591H84.3426V753.4344H12.7687z" fill="#fff" opacity=".99" stroke="#000" stroke-linecap="round" stroke-width="3.3582" transform="matrix(1,0,.85223,.52316,0,0)"/>
<path d="M787.5862,324.0606H825.4433V405.8463H787.5862z" fill="#fff" opacity=".99" stroke="#000" stroke-linecap="round" stroke-width="3"/>
<path d="M791.9545,353.0718H820.7178V376.4779H791.9545z" fill="#fff" opacity=".99" stroke="#000" stroke-linecap="round" stroke-width="1.8796"/>
<path d="m787.5862,324.4177-5.2679,-5.2679" fill="none" stroke="#000" stroke-width="3"/>
<path d="m762.9433,370.4891c1.1674,55.3978 25.5214,99.341 36.4286,-8.2143" fill="none" stroke="#000"/>
<path d="m622.9433,396.9177c47.2495,14.1525 54.0914,82.1889 191.4286,-27.8571" fill="none" stroke="#000"/>
<path d="m683.479,395.3106c47.9124,12.2799 127.8431,95.7648 117.8572,-20.7143" fill="none" stroke="#000"/>
<path d="M798.8361,356.7392H799.9075V362.2749H798.8361z" opacity=".99" stroke="#000" stroke-linecap="round"/>
<path d="M814.0147,363.6142H815.0861V369.1499H814.0147z" opacity=".99" stroke="#000" stroke-linecap="round"/>
<path d="M801.1576,369.3285H802.229V374.8642H801.1576z" opacity=".99" stroke="#000" stroke-linecap="round"/>
<path d="m814.3719,396.2034c-5.636,61.344-60.3132,74.0601-1.4398,73.0429 5.3037,-.0916 286.9506,-.452 292.556,-16.7184" fill="none" stroke="#000" stroke-width="2"/>
<path d="m266.25,295.8929c0,1.578-1.8788,2.8571-4.1964,2.8571-2.3176,0-4.1964,-1.2792-4.1964,-2.8571 0,-1.5779 1.8788,-2.8571 4.1964,-2.8571 2.3176,0 4.1964,1.2792 4.1964,2.8571z" opacity=".99" stroke="#000" stroke-linecap="round" stroke-width="2" transform="translate(552.408,99.7744)"/>
<path d="m72.8301,292.8571c0,4.1421-2.946,7.5-6.5801,7.5-3.6341,0-6.5801,-3.3579-6.5801,-7.5 0,-4.1421 2.946,-7.5 6.5801,-7.5 3.6341,0 6.5801,3.3579 6.5801,7.5z" fill="#fff" opacity=".99" stroke="#000" stroke-linecap="round" stroke-width="2" transform="matrix(1,0,.46219,1,417.946,97.9894)"/>
<path d="m616.1576,394.4177c2.6981,-.8843 4.2829,-2.9995 8.9286,-4.2857" fill="none" stroke="#000"/>
<path d="m621.2469,391.4713c2.4362,1.4094 3.1631,3.7535 3.8393,6.1607" fill="none" stroke="#000"/>
<path d="m651.3362,387.4534 57.1429,0" fill="none" stroke="#000"/>
<path d="m654.3719,389.4177 57.1428,0" fill="none" stroke="#000"/>
<path d="m658.1219,391.382 57.1428,0" fill="none" stroke="#000"/>
</g>
<path d="M-903.1962,1444.4346H-796.3462V1464.6097H-903.1962z" opacity=".99" stroke="#000" stroke-linecap="round" stroke-width="1.1086" transform="matrix(1,0,.74329,.66896,0,0)"/>
<path d="M188.1904,955.1869H190.5243A1.667,1.667 0 0 1 192.1913,956.8539V975.858A1.667,1.667 0 0 1 190.5243,977.5251H188.1904A1.667,1.667 0 0 1 186.5234,975.858V956.8539A1.667,1.667 0 0 1 188.1904,955.1869z" fill="#fff" opacity=".99" stroke="#000" stroke-linecap="round" stroke-width="1.4003"/>
<path d="M176.6879,946.0182H179.0218A1.667,1.667 0 0 1 180.6888,947.6853V966.6894A1.667,1.667 0 0 1 179.0218,968.3564H176.6879A1.667,1.667 0 0 1 175.0209,966.6894V947.6853A1.667,1.667 0 0 1 176.6879,946.0182z" fill="#fff" opacity=".99" stroke="#000" stroke-linecap="round" stroke-width="1.4003"/>
<path d="M282.4608,957.2707H284.7947A1.667,1.667 0 0 1 286.4617,958.9377V977.9418A1.667,1.667 0 0 1 284.7947,979.6089H282.4608A1.667,1.667 0 0 1 280.7938,977.9418V958.9377A1.667,1.667 0 0 1 282.4608,957.2707z" fill="#fff" opacity=".99" stroke="#000" stroke-linecap="round" stroke-width="1.4003"/>
<path d="M270.9583,948.102H273.2922A1.667,1.667 0 0 1 274.9592,949.7691V968.7732A1.667,1.667 0 0 1 273.2922,970.4402H270.9583A1.667,1.667 0 0 1 269.2913,968.7732V949.7691A1.667,1.667 0 0 1 270.9583,948.102z" fill="#fff" opacity=".99" stroke="#000" stroke-linecap="round" stroke-width="1.4003"/>
<path d="M-880.6171,1414.2819H-773.7671V1434.457H-880.6171z" fill="#fff" opacity=".99" stroke="#000" stroke-linecap="round" stroke-width="1.1086" transform="matrix(1,0,.74329,.66896,0,0)"/>
<path d="M-879.7836,1412.0392H-772.9336V1432.2143H-879.7836z" fill="#fff" opacity=".99" stroke="#000" stroke-linecap="round" stroke-width="1.1086" transform="matrix(1,0,.74329,.66896,0,0)"/>
<path d="m269.2913,956.0204-11.6692,-10.0022 0,-38.1749 17.6705,0 12.0026,9.6688" fill="#fff" opacity=".99" stroke="#000" stroke-linecap="round" stroke-width="1.4003"/>
<g transform="matrix(.46677,0,0,.46677,172.18714,531.15933)">
<path d="M113.2143,798.4336H198.2143A5.7143,5.7143 0 0 1 203.9286,804.1479V872.3622A5.7143,5.7143 0 0 1 198.2143,878.0765H113.2143A5.7143,5.7143 0 0 1 107.5,872.3622V804.1479A5.7143,5.7143 0 0 1 113.2143,798.4336z" fill="#fff" opacity=".99" stroke="#000" stroke-linecap="round" stroke-width="3"/>
<path d="M130,815.2194H190.7143A5.7143,5.7143 0 0 1 196.4286,820.9336V867.0051A5.7143,5.7143 0 0 1 190.7143,872.7194H130A5.7143,5.7143 0 0 1 124.2857,867.0051V820.9336A5.7143,5.7143 0 0 1 130,815.2194z" fill="#fff" opacity=".99" stroke="#000" stroke-linecap="round" stroke-width="3"/>
<path d="M141.9643,903.8132H184.1071A2.6562,2.6562 0 0 1 186.7633,906.4693V906.4693A2.6562,2.6562 0 0 1 184.1071,909.1255H141.9643A2.6562,2.6562 0 0 1 139.3081,906.4693V906.4693A2.6562,2.6562 0 0 1 141.9643,903.8132z" fill="#fff" opacity=".99" stroke="#000" stroke-linecap="round" stroke-width="2.3305"/>
<path d="M156.0714,242.1429H170.3571A5.7143,5.7143 0 0 1 176.0714,247.8571V297.5A5.7143,5.7143 0 0 1 170.3571,303.2143H156.0714A5.7143,5.7143 0 0 1 150.3571,297.5V247.8571A5.7143,5.7143 0 0 1 156.0714,242.1429z" fill="#fff" opacity=".99" stroke="#000" stroke-linecap="round" stroke-width="3" transform="translate(0,602.362)"/>
</g>
<path d="M-1340.7247,1808.8158H-1307.3163V1816.9727H-1340.7247z" fill="#fff" opacity=".99" stroke="#000" stroke-linecap="round" stroke-width="1.5675" transform="matrix(1,0,.85223,.52316,0,0)"/>
<path d="M269.7081,917.8455H287.3786V956.0204H269.7081z" fill="#fff" opacity=".99" stroke="#000" stroke-linecap="round" stroke-width="1.4003"/>
<path d="M271.7471,931.387H285.1729V942.3122H271.7471z" fill="#fff" opacity=".99" stroke="#000" stroke-linecap="round" stroke-width=".8773"/>
<path d="m269.7081,918.0122-2.4589,-2.4589" fill="none" stroke="#000" stroke-width="1.4003"/>
<path d="m258.2056,939.5168c.5449,25.8579 11.9126,46.3692 17.0037,-3.8342" fill="none" stroke="#000" stroke-width=".4668"/>
<path d="m192.8581,951.8528c22.0546,6.6059 25.2481,38.3631 89.3527,-13.0028" fill="none" stroke="#000" stroke-width=".4668"/>
<path d="m221.1142,951.1027c22.3639,5.7319 59.6731,44.6999 55.0119,-9.6688" fill="none" stroke="#000" stroke-width=".4668"/>
<path d="M274.9592,933.0987H275.4593V935.6826H274.9592z" opacity=".99" stroke="#000" stroke-linecap="round" stroke-width=".4668"/>
<path d="M282.0441,936.3078H282.5442V938.8917H282.0441z" opacity=".99" stroke="#000" stroke-linecap="round" stroke-width=".4668"/>
<path d="M276.0428,938.975H276.5429V941.5589H276.0428z" opacity=".99" stroke="#000" stroke-linecap="round" stroke-width=".4668"/>
<path d="m282.2108,951.5194c-2.6307,28.6334-31.0094,37.0689-11.7435,36.5941 2.4752,-.061 26.4393,-.5681 29.0558,-8.1607" fill="none" stroke="#000" stroke-width=".9335"/>
<path d="m266.25,295.8929a4.1964,2.8571 0 1 1 -8.3929,0 4.1964,2.8571 0 1 1 8.3929,0z" opacity=".99" stroke="#000" stroke-linecap="round" stroke-width="2" transform="matrix(.46677,0,0,.46677,159.93448,813.1559)"/>
<path d="m72.8301,292.8571a6.5801,7.5 0 1 1 -13.1603,0 6.5801,7.5 0 1 1 13.1603,0z" fill="#fff" opacity=".99" stroke="#000" stroke-linecap="round" stroke-width="2" transform="matrix(.46677,0,.21573,.46677,97.17195,812.32272)"/>
<path d="m189.6907,950.6859c1.2594,-.4128 1.9991,-1.4001 4.1676,-2.0004" fill="none" stroke="#000" stroke-width=".4668"/>
<path d="m192.0663,949.3106c1.1372,.6579 1.4765,1.752 1.7921,2.8756" fill="none" stroke="#000" stroke-width=".4668"/>
<path d="m206.111,947.4352 26.6725,0" fill="none" stroke="#000" stroke-width=".4668"/>
<path d="m207.528,948.3521 26.6724,0" fill="none" stroke="#000" stroke-width=".4668"/>
<path d="m209.2783,949.2689 26.6724,0" fill="none" stroke="#000" stroke-width=".4668"/>
<text font-family="Bitstream Vera Sans" font-size="20" x="-782.3199" y="317.1674">
   <tspan text-align="center" text-anchor="middle" x="-782.3199" y="317.1674"></tspan>
  </text>
<text font-family="Bitstream Vera Sans" font-size="20" x="-29.5309" y="-96.8839">
   <tspan text-align="center" text-anchor="middle" x="-29.5309" y="-96.8839"></tspan>
  </text>
<text font-family="Bitstream Vera Sans" font-size="20" x="-260.6919" y="86.2634">
   <tspan x="-260.6919" y="86.2634"></tspan>
  </text>
<text font-family="Bitstream Vera Sans" font-size="20" x="-880.5821" y="426.9384">
   <tspan x="-880.5821" y="426.9384"></tspan>
  </text>
<text font-family="Bitstream Vera Sans" font-size="20" x="-889.9457" y="-61.4669">
   <tspan text-align="center" text-anchor="middle" x="-889.9457" y="-61.4669"></tspan>
  </text>
<text font-family="Bitstream Vera Sans" font-size="20" x="-329.1909" y="-523.4157">
   <tspan text-align="center" text-anchor="middle" x="-329.1909" y="-523.4157"></tspan>
  </text>
<text font-family="Bitstream Vera Sans" font-size="20" x="-560.3509" y="-340.2676">
   <tspan x="-560.3509" y="-340.2676"></tspan>
  </text>
<text font-family="Bitstream Vera Sans" font-size="12" letter-spacing="0" line-height="562.5" word-spacing="0" x="166.4094" y="766.489">
   <tspan font-size="20" text-align="center" text-anchor="middle" x="166.4094" y="766.489">L'important avec les potes,</tspan>
   <tspan font-size="20" text-align="center" text-anchor="middle" x="166.4094" y="791.489">c'est l'entraide pendant les</tspan>
   <tspan font-size="20" text-align="center" text-anchor="middle" x="166.4094" y="816.489">projets.</tspan>
  </text>
<path d="M148.9975,228.7766 113.1371,290.3959" fill="none" stroke="#000" transform="translate(0,602.3622)"/>
<g transform="translate(280.6569,1.8131)">
<g transform="matrix(-.54816,0,0,.54816,-224.40286,347.67522)">
<path d="m154.2857,169.6429c0,4.5366-27.5025,8.2143-61.4286,8.2143-33.9261,0-61.4286,-3.6777-61.4286,-8.2143 0,-4.5366 27.5025,-8.2143 61.4286,-8.2143 33.9261,0 61.4286,3.6777 61.4286,8.2143z" stroke="#000" transform="matrix(.72001,0,0,.72001,-847.00138,983.47906)"/>
<path d="m-789.8013,1023.0158 23.2555,0c3.7798,20.3274 21.658,15.3801 23.8584,23.8584l-4.0003,37.0532c-7.8882,13.8749-17.9811,22.6821-27.8587,22.4038l-6.1635,0c-9.9907,-.5379-25.2824,-12.5249-27.8587,-25.3131l-5.0912,-34.1439c1.5539,-5.8922 15.4993,-.9541 23.8584,-23.8584z" fill="#fff" stroke="#000" stroke-linecap="round" stroke-linejoin="round" stroke-width="2.6223"/>
<path d="m-803.7275,1055.6604c1.0867,-.3164 2.165,-.6159 3.2833,-.7906 1.1389,-.2395 2.2868,-.3943 3.4389,-.552 .9053,-.1595 1.7991,-.3314 2.7109,-.4431 1.3286,-.1934 2.6821,-.2769 4.0248,-.3073 .6745,-.05 1.3404,-.029 2.0134,.017l-3.4739,4.1237c-.6496,-.044-1.2972,-.039-1.948,-.013-1.3375,.051-2.6801,.1263-3.9997,.361-.9053,.1254-1.7964,.332-2.7049,.4371-1.149,.147-2.2864,.3471-3.4243,.5635-1.1067,.1989-2.1807,.5255-3.2559,.8518l3.3352,-4.2473z" stroke="#000" stroke-linecap="round" stroke-linejoin="round" stroke-width="1.44"/>
<path d="m-768.7949,1057.0366c-1.0393,-.4483-2.0722,-.879-3.1603,-1.1906-1.1005,-.3786-2.2205,-.6742-3.3442,-.9732-.8786,-.2703-1.7443,-.5514-2.6353,-.775-1.2945,-.3563-2.6272,-.6066-3.9559,-.8028-.6631,-.1333-1.3266,-.1942-2,-.2325l2.9372,4.5217c.6501,.037 1.292,.1222 1.9347,.2276 1.3209,.2161 2.6439,.4568 3.9243,.8529 .8828,.2365 1.7415,.5517 2.6301,.7685 1.122,.2879 2.2259,.6271 3.3283,.9826 1.0736,.3343 2.099,.7912 3.1255,1.248l-2.7842,-4.6272z" stroke="#000" stroke-linecap="round" stroke-linejoin="round" stroke-width="1.44"/>
<path d="m538.4195,257.9523c0,3.0469-2.4032,5.5169-5.3678,5.5169-2.9646,0-5.3678,-2.47-5.3678,-5.5169 0,-3.0469 2.4032,-5.5169 5.3678,-5.5169 2.9646,0 5.3678,2.47 5.3678,5.5169z" fill="#fff" stroke="#000" stroke-linecap="round" stroke-linejoin="round" stroke-width="2" transform="matrix(.72001,0,0,.72001,-1160.82907,881.16208)"/>
<path d="m555.2684,260.4871c0,.9058-.4005,1.6402-.8946,1.6402-.4941,0-.8946,-.7343-.8946,-1.6402 0,-.9058 .4005,-1.6402 .8946,-1.6402 .4941,0 .8946,.7343 .8946,1.6402z" fill="#fff" stroke="#000" stroke-linecap="round" stroke-linejoin="round" stroke-width="2" transform="matrix(.72001,0,0,.72001,-1177.86202,879.31097)"/>
<g transform="matrix(.72001,0,0,.72001,-1177.40655,880.62531)">
<path d="m538.4195,257.9523c0,3.0469-2.4032,5.5169-5.3678,5.5169-2.9646,0-5.3678,-2.47-5.3678,-5.5169 0,-3.0469 2.4032,-5.5169 5.3678,-5.5169 2.9646,0 5.3678,2.47 5.3678,5.5169z" fill="#fff" stroke="#000" stroke-linecap="round" stroke-linejoin="round" stroke-width="2"/>
<path d="m555.2684,260.4871c0,.9058-.4005,1.6402-.8946,1.6402-.4941,0-.8946,-.7343-.8946,-1.6402 0,-.9058 .4005,-1.6402 .8946,-1.6402 .4941,0 .8946,.7343 .8946,1.6402z" fill="#fff" stroke="#000" stroke-linecap="round" stroke-linejoin="round" stroke-width="2" transform="translate(-23.6822,-2.4475)"/>
</g>
<path d="m-775,1090.9336 11.4286,-4.2857" fill="none" stroke="#000"/>
<path d="m-787.4139,427.5241-5.0508,1.7678c-3.577,4.8826-6.3479,10.09-18.4353,13.3845-.6492,13.2993-5.1558,14.2246-9.0914,15.4048-3.8871,-1.6121-4.3172,-7.7243-6.0609,-12.1218-7.3009,-10.9902-5.9478,-19.8523 1.2627,-27.2741-.6327,-.9856-.2121,.1275-.3698,-2.0457 .4594,-.0813 3.0023,-1.8295 5.8084,-3.7881 1.5725,.5542 1.2353,-.1714 1.6325,1.7932-.3007,-1.9217 .6667,-3.3362 1.5152,-4.7982 1.1047,-1.1515 3.3299,-2.4897 5.8517,-3.8774-.5873,-1.7357 .7198,-3.2007 1.7245,-4.7089 3.9354,-2.907 7.6635,-3.7296 11.3642,-4.0406 5.9565,-2.6828 10.9583,-3.6928 13.132,.2525 2.0843,-.2778 3.471,-1.4275 7.3236,.5051 8.297,-2.1862 9.5152,3.9269 11.1117,9.5965 1.5809,1.0492 3.3927,.857 4.7396,.2679 6.3395,-2.6036 8.3325,3.0225 12.9381,8.0659 8.4919,-4.7984 7.4622,8.1482 11.1117,12.3744 6.4561,-4.6243 8.8784,29.9614-2.1249,30.2739-.5453,3.7597-1.5939,5.0027-2.5994,6.4614-3.5434,2.4613-3.8886,1.8964-5.7624,2.7779-1.092,-.2522 1.7628,-7.2191 1.9004,-10.2188-2.6088,-4.9668-2.734,-10.7615-2.5254,-16.6675l-2.5254,-1.5152c-6.8936,4.6663-9.6454,-3.9343-14.3947,-6.0609-2.0681,1.0789-3.9777,.2555-5.8084,-1.5152-12.3189,5.0011-14.6192,.0414-16.6675,-4.2931z" stroke="#000" stroke-width="0" transform="translate(0,602.3622)"/>
</g>
<g transform="matrix(.46677,0,0,.46677,-217.38095,765.90634)">
<path d="M99.569,639.5223H328.4837V682.7453H99.569z" opacity=".99" stroke="#000" stroke-linecap="round" stroke-width="2.375" transform="matrix(1,0,.74329,.66897,0,0)"/>
<g transform="translate(270.801,-512.587)">
<path d="m446.8915,78.4154c0,2.9289-27.5427,5.3033-61.5183,5.3033-33.9756,0-61.5183,-2.3744-61.5183,-5.3033 0,-2.9289 27.5427,-5.3033 61.5183,-5.3033 33.9756,0 61.5183,2.3744 61.5183,5.3033z" stroke="#000" stroke-linecap="round" stroke-width="4.862" transform="translate(8.3721,834.346)"/>
<path d="m447.5034,825.8744 0,47.8884c0,20.007-16.1067,36.1137-36.1137,36.1137l-35.434,0c-20.007,0-36.1137,-16.1067-36.1137,-36.1137l0,-47.8884" fill="#fff" stroke="#000" stroke-linecap="round" stroke-linejoin="round" stroke-width="3.6422"/>
<path d="M368.89,845.6858H392.424A.7803,.7803 0 0 1 393.2043,846.4661V856.4922A.7803,.7803 0 0 1 392.424,857.2724H368.89A.7803,.7803 0 0 1 368.1097,856.4922V846.4661A.7803,.7803 0 0 1 368.89,845.6858z" stroke="#000" stroke-linecap="square" stroke-linejoin="round" stroke-width="3.7338"/>
<path d="M410.2809,845.6858H430.6938A2.3409,2.3409 0 0 1 433.0347,848.0266V854.9316A2.3409,2.3409 0 0 1 430.6938,857.2724H410.2809A2.3409,2.3409 0 0 1 407.9401,854.9316V848.0266A2.3409,2.3409 0 0 1 410.2809,845.6858z" stroke="#000" stroke-linecap="square" stroke-linejoin="round" stroke-width="3.7338"/>
<path d="m342.1502,850.7404c.5492,.0105 1.0986,.007 1.6478,.004 .363,-.002 .7259,-.004 1.0889,-.004 .2925,-4.3e-4 .585,-4e-4 .8775,-4e-4 .304,-6.3e-4 .6081,6e-4 .9121,10e-4 .3906,-.01 .7752,-3.7e-4 1.162,.0507 .3996,.0545 .8031,.0717 1.2062,.0827 .4052,-.0158 .8029,.0589 1.204,.099 .4079,.0368 .818,.0407 1.2274,.045 .4301,.002 .8603,.002 1.2904,6.5e-4 .3736,-7.6e-4 .7472,-10e-4 1.1208,-.002 .307,-7.7e-4 .6141,-9.8e-4 .9211,-10e-4 .2915,-8e-5 .583,-7e-5 .8745,-6e-5 .2915,1e-5 .5831,1e-5 .8746,1e-5 .3187,-3.9e-4 .6374,5.3e-4 .9561,.002 .3943,.002 .7885,4.4e-4 1.1828,-6.3e-4 .3709,-2.7e-4 .7418,4.7e-4 1.1126,10e-4 .3967,-1.7e-4 .7934,-8e-5 1.1902,-10e-4 .38,1.9e-4 .7599,7.4e-4 1.1399,1.6e-4 .3456,-.001 .6912,-.001 1.0367,2.5e-4 .5332,.003 1.0664,.004 1.5996,.006 .7266,.003 1.4533,.003 2.1799,.001 .5332,-.001 1.0664,-.005 1.5997,-.005 .4413,6.5e-4 .8826,-2e-5 1.3239,-10e-4 .0611,-2e-4 .1222,-4e-4 .1833,-6e-4l-1.746,1.1993c-.0605,-2.1e-4-.121,-4.1e-4-.1815,-6.1e-4-.4399,-10e-4-.8797,-.002-1.3196,-.002-.528,-2.2e-4-1.0559,-.004-1.5839,-.005-.7276,-.002-1.4552,-.002-2.1828,9.9e-4-.5391,.002-1.0782,.003-1.6173,.006-.3458,.002-.6916,.002-1.0375,2.6e-4-.3801,-5.7e-4-.7602,-3e-5-1.1404,1.5e-4-.3957,-9.9e-4-.7914,-8.9e-4-1.187,-10e-4-.3723,10e-4-.7447,.002-1.117,.002-.3937,-.001-.7873,-.003-1.181,-6.3e-4-.3206,10e-4-.6411,.002-.9617,.002-.2915,0-.5831,0-.8747,0-.2914,0-.5829,2e-5-.8743,-6e-5-.306,-1.3e-4-.612,-3.5e-4-.918,-9.6e-4-.372,-6.9e-4-.744,-8.4e-4-1.1161,-8.8e-4-.4302,-8.3e-4-.8603,7e-4-1.2904,-.004-.4148,-.006-.8303,-.0145-1.2428,-.0595-.3968,-.0446-.792,-.0972-1.193,-.0869-.4078,-.0152-.8149,-.0435-1.2193,-.0968-.382,-.0404-.7654,-.0292-1.1493,-.0278-.3051,5.6e-4-.6103,.002-.9155,10e-4-.2921,10e-6-.5842,3e-5-.8763,-4e-4-.3589,-6.7e-4-.7177,-.002-1.0765,-.004-.5532,-.003-1.1065,-.006-1.6597,.004l1.7494,-1.2016z" stroke="#000" stroke-linecap="square" stroke-linejoin="round" stroke-width=".4767"/>
<path d="m433.645,851.0171c.7039,.0118 1.4079,.0102 2.1119,.01 .6452,-8.9e-4 1.2905,-.003 1.9357,-.006 .4312,-.002 .8624,-.002 1.2935,-.003 .3398,-8.1e-4 .6796,-.002 1.0194,-.002 .2968,.0217 .5821,-.0575 .8738,-.0956 .2926,-.0341 .5877,-.039 .8821,-.0425 .2922,-.002 .5843,-10e-4 .8765,-8.4e-4 .2918,4e-4 .5836,5.3e-4 .8754,6.1e-4 .2918,5e-5 .5836,5e-5 .8754,5e-5 .2918,0 .5836,0 .8754,0 .3133,-6.1e-4 .6266,10e-4 .9398,10e-4 .3172,-2.5e-4 .6345,-6.9e-4 .9517,-9.3e-4 .2938,-1.8e-4 .5877,-2e-4 .8815,-2.1e-4 .1943,-10e-6 .0972,-10e-6 .2915,-10e-6l-1.7509,1.2027c-.1943,0-.0971,0-.2914,0-.2936,-2e-5-.5872,-4e-5-.8808,-2.2e-4-.3164,-2.3e-4-.6327,-6.8e-4-.9491,-9.3e-4-.3144,4e-5-.6287,.002-.9431,10e-4-.2918,10e-6-.5836,10e-6-.8754,10e-6-.2918,-10e-6-.5836,-10e-6-.8754,-1.2e-4-.2918,-1.3e-4-.5837,-3.7e-4-.8755,-7.2e-4-.2913,-2.3e-4-.5826,-10e-4-.8738,.004-.2893,.007-.5791,.0195-.8653,.0636-.2961,.0452-.5905,.0907-.8921,.0705-.3377,-4.3e-4-.6755,-10e-4-1.0132,-.002-.4283,-5.4e-4-.8565,-6.3e-4-1.2848,-.003-.6398,-.003-1.2796,-.005-1.9195,-.006-.7134,-4.8e-4-1.4269,-.002-2.1402,.01l1.747,-1.2z" stroke="#000" stroke-linecap="square" stroke-linejoin="round" stroke-width=".4767"/>
<path d="m393.3521,851.1803c.5339,.0676 1.0726,.0889 1.6105,.1048 .4801,.0116 .9604,.0116 1.4405,.0103 .3964,-5e-4 .7929,-6.3e-4 1.1893,-.002 .7958,.0205 1.592,.0104 2.3879,.007 .4809,-.004 .9619,-.005 1.4428,-.007 .3835,3e-5 .767,-4.2e-4 1.1506,6e-4 .4032,10e-4 .8064,-9.5e-4 1.2096,-3.1e-4 .3638,-8.6e-4 .7277,-7.6e-4 1.0915,-6.6e-4 .3644,5.6e-4 .7288,2.2e-4 1.0931,-5.1e-4 .3481,.001 .6961,1.1e-4 1.0442,-4.5e-4 .3406,.001 .6811,4.5e-4 1.0217,-4e-5 .3008,-4.3e-4 .6016,-5.6e-4 .9024,-6.3e-4 .2516,.0585 .5047,.1006 .7628,.1209 .2799,.0172 .5606,.0173 .8409,.018 .2917,1.9e-4 .5833,-3.9e-4 .875,-6.8e-4 .146,-1.4e-4 .292,-2e-4 .4381,-2.6e-4l-1.7508,1.2027c-.146,10e-5-.292,1.9e-4-.438,3.5e-4-.292,3.2e-4-.584,10e-4-.876,-3.9e-4-.2852,-.002-.5709,-.005-.8549,-.0331-.2506,-.0293-.496,-.0897-.7478,-.105-.3002,-8e-5-.6004,-2e-4-.9006,-6.3e-4-.3405,-4.8e-4-.681,-10e-4-1.0215,-5e-5-.3476,-5.5e-4-.6953,-.002-1.0429,-4.4e-4-.3639,-7.3e-4-.7278,-10e-4-1.0916,-5.1e-4-.3632,1.1e-4-.7264,1.9e-4-1.0895,-6.6e-4-.4029,6.4e-4-.8058,-.002-1.2087,-3.1e-4-.3841,.001-.7682,5.8e-4-1.1523,6e-4-.4742,-.002-.9483,-.003-1.4224,-.007-.8027,-.004-1.6058,-.0132-2.4083,.007-.3958,-4.3e-4-.7915,4.6e-4-1.1873,-3.6e-4-.4785,-.003-.957,-.007-1.4353,-.0226-.5477,-.0212-1.0947,-.0538-1.64,-.107l1.7673,-1.1825z" stroke="#000" stroke-linecap="square" stroke-linejoin="round" stroke-width=".4767"/>
<path d="m354.8476,813.367 0,18.5432" fill="none" stroke="#000" stroke-linecap="round" stroke-width="4.8046"/>
<path d="m364.3717,811.6127 0,18.5432" fill="none" stroke="#000" stroke-linecap="round" stroke-width="4.8046"/>
<path d="m373.3086,813.077 0,18.5432" fill="none" stroke="#000" stroke-linecap="round" stroke-width="4.8046"/>
<path d="m384.9853,811.9097 0,18.5432" fill="none" stroke="#000" stroke-linecap="round" stroke-width="4.8046"/>
<path d="m395.144,814.0963 0,18.5432" fill="none" stroke="#000" stroke-linecap="round" stroke-width="4.8046"/>
<path d="m406.7732,813.9209 0,18.5432" fill="none" stroke="#000" stroke-linecap="round" stroke-width="4.8046"/>
<path d="m417.2758,812.2068 0,18.5432" fill="none" stroke="#000" stroke-linecap="round" stroke-width="4.8046"/>
<path d="m427.1912,815.2437 0,18.5432" fill="none" stroke="#000" stroke-linecap="round" stroke-width="4.8046"/>
<path d="m437.8642,814.875 0,18.5432" fill="none" stroke="#000" stroke-linecap="round" stroke-width="4.8046"/>
<path d="m385.2314,889.9494 27.1229,-4.4282" fill="none" stroke="#000" stroke-width=".7749"/>
<path d="m346.9635,818.0972 0,18.5432" fill="none" stroke="#000" stroke-linecap="round" stroke-width="4.8046"/>
</g>
<path d="M612.9433,404.0606H617.9433A3.5714,3.5714 0 0 1 621.5147,407.632V448.3463A3.5714,3.5714 0 0 1 617.9433,451.9177H612.9433A3.5714,3.5714 0 0 1 609.3719,448.3463V407.632A3.5714,3.5714 0 0 1 612.9433,404.0606z" fill="#fff" opacity=".99" stroke="#000" stroke-linecap="round" stroke-width="3"/>
<path d="M588.3004,384.4178H593.3004A3.5714,3.5714 0 0 1 596.8719,387.9892V428.7035A3.5714,3.5714 0 0 1 593.3004,432.2749H588.3004A3.5714,3.5714 0 0 1 584.729,428.7035V387.9892A3.5714,3.5714 0 0 1 588.3004,384.4178z" fill="#fff" opacity=".99" stroke="#000" stroke-linecap="round" stroke-width="3"/>
<path d="M814.9075,408.5249H819.9075A3.5714,3.5714 0 0 1 823.479,412.0963V452.8106A3.5714,3.5714 0 0 1 819.9075,456.382H814.9075A3.5714,3.5714 0 0 1 811.3361,452.8106V412.0963A3.5714,3.5714 0 0 1 814.9075,408.5249z" fill="#fff" opacity=".99" stroke="#000" stroke-linecap="round" stroke-width="3"/>
<path d="M790.2647,388.882H795.2647A3.5714,3.5714 0 0 1 798.8362,392.4535V433.1678A3.5714,3.5714 0 0 1 795.2647,436.7392H790.2647A3.5714,3.5714 0 0 1 786.6933,433.1678V392.4535A3.5714,3.5714 0 0 1 790.2647,388.882z" fill="#fff" opacity=".99" stroke="#000" stroke-linecap="round" stroke-width="3"/>
<path d="M147.9421,574.9234H376.8568V618.1464H147.9421z" fill="#fff" opacity=".99" stroke="#000" stroke-linecap="round" stroke-width="2.375" transform="matrix(1,0,.74329,.66897,0,0)"/>
<path d="M149.7278,570.1186H378.6425V613.3415H149.7278z" fill="#fff" opacity=".99" stroke="#000" stroke-linecap="round" stroke-width="2.375" transform="matrix(1,0,.74329,.66897,0,0)"/>
<path d="m786.6933,405.8463-25,-21.4286 0,-81.7857 37.8571,0 25.7143,20.7143" fill="#fff" opacity=".99" stroke="#000" stroke-linecap="round" stroke-width="3"/>
<g transform="translate(578.658,-504.373)">
<path d="M113.2143,798.4336H198.2143A5.7143,5.7143 0 0 1 203.9286,804.1479V872.3622A5.7143,5.7143 0 0 1 198.2143,878.0765H113.2143A5.7143,5.7143 0 0 1 107.5,872.3622V804.1479A5.7143,5.7143 0 0 1 113.2143,798.4336z" fill="#fff" opacity=".99" stroke="#000" stroke-linecap="round" stroke-width="3"/>
<path d="M130,815.2194H190.7143A5.7143,5.7143 0 0 1 196.4286,820.9336V867.0051A5.7143,5.7143 0 0 1 190.7143,872.7194H130A5.7143,5.7143 0 0 1 124.2857,867.0051V820.9336A5.7143,5.7143 0 0 1 130,815.2194z" fill="#fff" opacity=".99" stroke="#000" stroke-linecap="round" stroke-width="3"/>
<path d="M141.9643,903.8132H184.1071A2.6562,2.6562 0 0 1 186.7633,906.4693V906.4693A2.6562,2.6562 0 0 1 184.1071,909.1255H141.9643A2.6562,2.6562 0 0 1 139.3081,906.4693V906.4693A2.6562,2.6562 0 0 1 141.9643,903.8132z" fill="#fff" opacity=".99" stroke="#000" stroke-linecap="round" stroke-width="2.3305"/>
<path d="M156.0714,242.1429H170.3571A5.7143,5.7143 0 0 1 176.0714,247.8571V297.5A5.7143,5.7143 0 0 1 170.3571,303.2143H156.0714A5.7143,5.7143 0 0 1 150.3571,297.5V247.8571A5.7143,5.7143 0 0 1 156.0714,242.1429z" fill="#fff" opacity=".99" stroke="#000" stroke-linecap="round" stroke-width="3" transform="translate(0,602.362)"/>
</g>
<path d="M12.7687,735.9591H84.3426V753.4344H12.7687z" fill="#fff" opacity=".99" stroke="#000" stroke-linecap="round" stroke-width="3.3582" transform="matrix(1,0,.85223,.52316,0,0)"/>
<path d="M787.5862,324.0606H825.4433V405.8463H787.5862z" fill="#fff" opacity=".99" stroke="#000" stroke-linecap="round" stroke-width="3"/>
<path d="M791.9545,353.0718H820.7178V376.4779H791.9545z" fill="#fff" opacity=".99" stroke="#000" stroke-linecap="round" stroke-width="1.8796"/>
<path d="m787.5862,324.4177-5.2679,-5.2679" fill="none" stroke="#000" stroke-width="3"/>
<path d="m762.9433,370.4891c1.1674,55.3978 25.5214,99.341 36.4286,-8.2143" fill="none" stroke="#000"/>
<path d="m622.9433,396.9177c47.2495,14.1525 54.0914,82.1889 191.4286,-27.8571" fill="none" stroke="#000"/>
<path d="m683.479,395.3106c47.9124,12.2799 127.8431,95.7648 117.8572,-20.7143" fill="none" stroke="#000"/>
<path d="M798.8361,356.7392H799.9075V362.2749H798.8361z" opacity=".99" stroke="#000" stroke-linecap="round"/>
<path d="M814.0147,363.6142H815.0861V369.1499H814.0147z" opacity=".99" stroke="#000" stroke-linecap="round"/>
<path d="M801.1576,369.3285H802.229V374.8642H801.1576z" opacity=".99" stroke="#000" stroke-linecap="round"/>
<path d="m814.3719,396.2034c-5.636,61.344-60.3132,74.0601-1.4398,73.0429 5.3037,-.0916 286.9506,-.452 292.556,-16.7184" fill="none" stroke="#000" stroke-width="2"/>
<path d="m266.25,295.8929c0,1.578-1.8788,2.8571-4.1964,2.8571-2.3176,0-4.1964,-1.2792-4.1964,-2.8571 0,-1.5779 1.8788,-2.8571 4.1964,-2.8571 2.3176,0 4.1964,1.2792 4.1964,2.8571z" opacity=".99" stroke="#000" stroke-linecap="round" stroke-width="2" transform="translate(552.408,99.7744)"/>
<path d="m72.8301,292.8571c0,4.1421-2.946,7.5-6.5801,7.5-3.6341,0-6.5801,-3.3579-6.5801,-7.5 0,-4.1421 2.946,-7.5 6.5801,-7.5 3.6341,0 6.5801,3.3579 6.5801,7.5z" fill="#fff" opacity=".99" stroke="#000" stroke-linecap="round" stroke-width="2" transform="matrix(1,0,.46219,1,417.946,97.9894)"/>
<path d="m616.1576,394.4177c2.6981,-.8843 4.2829,-2.9995 8.9286,-4.2857" fill="none" stroke="#000"/>
<path d="m621.2469,391.4713c2.4362,1.4094 3.1631,3.7535 3.8393,6.1607" fill="none" stroke="#000"/>
<path d="m651.3362,387.4534 57.1429,0" fill="none" stroke="#000"/>
<path d="m654.3719,389.4177 57.1428,0" fill="none" stroke="#000"/>
<path d="m658.1219,391.382 57.1428,0" fill="none" stroke="#000"/>
</g>
<path d="M-903.1962,1444.4346H-796.3462V1464.6097H-903.1962z" opacity=".99" stroke="#000" stroke-linecap="round" stroke-width="1.1086" transform="matrix(1,0,.74329,.66896,0,0)"/>
<path d="M188.1904,955.1869H190.5243A1.667,1.667 0 0 1 192.1913,956.8539V975.858A1.667,1.667 0 0 1 190.5243,977.5251H188.1904A1.667,1.667 0 0 1 186.5234,975.858V956.8539A1.667,1.667 0 0 1 188.1904,955.1869z" fill="#fff" opacity=".99" stroke="#000" stroke-linecap="round" stroke-width="1.4003"/>
<path d="M176.6879,946.0182H179.0218A1.667,1.667 0 0 1 180.6888,947.6853V966.6894A1.667,1.667 0 0 1 179.0218,968.3564H176.6879A1.667,1.667 0 0 1 175.0209,966.6894V947.6853A1.667,1.667 0 0 1 176.6879,946.0182z" fill="#fff" opacity=".99" stroke="#000" stroke-linecap="round" stroke-width="1.4003"/>
<path d="M282.4608,957.2707H284.7947A1.667,1.667 0 0 1 286.4617,958.9377V977.9418A1.667,1.667 0 0 1 284.7947,979.6089H282.4608A1.667,1.667 0 0 1 280.7938,977.9418V958.9377A1.667,1.667 0 0 1 282.4608,957.2707z" fill="#fff" opacity=".99" stroke="#000" stroke-linecap="round" stroke-width="1.4003"/>
<path d="M270.9583,948.102H273.2922A1.667,1.667 0 0 1 274.9592,949.7691V968.7732A1.667,1.667 0 0 1 273.2922,970.4402H270.9583A1.667,1.667 0 0 1 269.2913,968.7732V949.7691A1.667,1.667 0 0 1 270.9583,948.102z" fill="#fff" opacity=".99" stroke="#000" stroke-linecap="round" stroke-width="1.4003"/>
<path d="M-880.6171,1414.2819H-773.7671V1434.457H-880.6171z" fill="#fff" opacity=".99" stroke="#000" stroke-linecap="round" stroke-width="1.1086" transform="matrix(1,0,.74329,.66896,0,0)"/>
<path d="M-879.7836,1412.0392H-772.9336V1432.2143H-879.7836z" fill="#fff" opacity=".99" stroke="#000" stroke-linecap="round" stroke-width="1.1086" transform="matrix(1,0,.74329,.66896,0,0)"/>
<path d="m269.2913,956.0204-11.6692,-10.0022 0,-38.1749 17.6705,0 12.0026,9.6688" fill="#fff" opacity=".99" stroke="#000" stroke-linecap="round" stroke-width="1.4003"/>
<g transform="matrix(.46677,0,0,.46677,172.18714,531.15933)">
<path d="M113.2143,798.4336H198.2143A5.7143,5.7143 0 0 1 203.9286,804.1479V872.3622A5.7143,5.7143 0 0 1 198.2143,878.0765H113.2143A5.7143,5.7143 0 0 1 107.5,872.3622V804.1479A5.7143,5.7143 0 0 1 113.2143,798.4336z" fill="#fff" opacity=".99" stroke="#000" stroke-linecap="round" stroke-width="3"/>
<path d="M130,815.2194H190.7143A5.7143,5.7143 0 0 1 196.4286,820.9336V867.0051A5.7143,5.7143 0 0 1 190.7143,872.7194H130A5.7143,5.7143 0 0 1 124.2857,867.0051V820.9336A5.7143,5.7143 0 0 1 130,815.2194z" fill="#fff" opacity=".99" stroke="#000" stroke-linecap="round" stroke-width="3"/>
<path d="M141.9643,903.8132H184.1071A2.6562,2.6562 0 0 1 186.7633,906.4693V906.4693A2.6562,2.6562 0 0 1 184.1071,909.1255H141.9643A2.6562,2.6562 0 0 1 139.3081,906.4693V906.4693A2.6562,2.6562 0 0 1 141.9643,903.8132z" fill="#fff" opacity=".99" stroke="#000" stroke-linecap="round" stroke-width="2.3305"/>
<path d="M156.0714,242.1429H170.3571A5.7143,5.7143 0 0 1 176.0714,247.8571V297.5A5.7143,5.7143 0 0 1 170.3571,303.2143H156.0714A5.7143,5.7143 0 0 1 150.3571,297.5V247.8571A5.7143,5.7143 0 0 1 156.0714,242.1429z" fill="#fff" opacity=".99" stroke="#000" stroke-linecap="round" stroke-width="3" transform="translate(0,602.362)"/>
</g>
<path d="M-1340.7247,1808.8158H-1307.3163V1816.9727H-1340.7247z" fill="#fff" opacity=".99" stroke="#000" stroke-linecap="round" stroke-width="1.5675" transform="matrix(1,0,.85223,.52316,0,0)"/>
<path d="M269.7081,917.8455H287.3786V956.0204H269.7081z" fill="#fff" opacity=".99" stroke="#000" stroke-linecap="round" stroke-width="1.4003"/>
<path d="M271.7471,931.387H285.1729V942.3122H271.7471z" fill="#fff" opacity=".99" stroke="#000" stroke-linecap="round" stroke-width=".8773"/>
<path d="m269.7081,918.0122-2.4589,-2.4589" fill="none" stroke="#000" stroke-width="1.4003"/>
<path d="m258.2056,939.5168c.5449,25.8579 11.9126,46.3692 17.0037,-3.8342" fill="none" stroke="#000" stroke-width=".4668"/>
<path d="m192.8581,951.8528c22.0546,6.6059 25.2481,38.3631 89.3527,-13.0028" fill="none" stroke="#000" stroke-width=".4668"/>
<path d="m221.1142,951.1027c22.3639,5.7319 59.6731,44.6999 55.0119,-9.6688" fill="none" stroke="#000" stroke-width=".4668"/>
<path d="M274.9592,933.0987H275.4593V935.6826H274.9592z" opacity=".99" stroke="#000" stroke-linecap="round" stroke-width=".4668"/>
<path d="M282.0441,936.3078H282.5442V938.8917H282.0441z" opacity=".99" stroke="#000" stroke-linecap="round" stroke-width=".4668"/>
<path d="M276.0428,938.975H276.5429V941.5589H276.0428z" opacity=".99" stroke="#000" stroke-linecap="round" stroke-width=".4668"/>
<path d="m282.2108,951.5194c-2.6307,28.6334-31.0094,37.0689-11.7435,36.5941 2.4752,-.061 26.4393,-.5681 29.0558,-8.1607" fill="none" stroke="#000" stroke-width=".9335"/>
<path d="m266.25,295.8929c0,1.578-1.8788,2.8571-4.1964,2.8571-2.3176,0-4.1964,-1.2792-4.1964,-2.8571 0,-1.5779 1.8788,-2.8571 4.1964,-2.8571 2.3176,0 4.1964,1.2792 4.1964,2.8571z" opacity=".99" stroke="#000" stroke-linecap="round" stroke-width="2" transform="matrix(.46677,0,0,.46677,159.93448,813.1559)"/>
<path d="m72.8301,292.8571c0,4.1421-2.946,7.5-6.5801,7.5-3.6341,0-6.5801,-3.3579-6.5801,-7.5 0,-4.1421 2.946,-7.5 6.5801,-7.5 3.6341,0 6.5801,3.3579 6.5801,7.5z" fill="#fff" opacity=".99" stroke="#000" stroke-linecap="round" stroke-width="2" transform="matrix(.46677,0,.21573,.46677,97.17195,812.32272)"/>
<path d="m189.6907,950.6859c1.2594,-.4128 1.9991,-1.4001 4.1676,-2.0004" fill="none" stroke="#000" stroke-width=".4668"/>
<path d="m192.0663,949.3106c1.1372,.6579 1.4765,1.752 1.7921,2.8756" fill="none" stroke="#000" stroke-width=".4668"/>
<path d="m206.111,947.4352 26.6725,0" fill="none" stroke="#000" stroke-width=".4668"/>
<path d="m207.528,948.3521 26.6724,0" fill="none" stroke="#000" stroke-width=".4668"/>
<path d="m209.2783,949.2689 26.6724,0" fill="none" stroke="#000" stroke-width=".4668"/>
</g>
<g transform="translate(561.4793,1.8131)">
<g transform="matrix(-.54816,0,0,.54816,-224.40286,347.67522)">
<path d="m154.2857,169.6429c0,4.5366-27.5025,8.2143-61.4286,8.2143-33.9261,0-61.4286,-3.6777-61.4286,-8.2143 0,-4.5366 27.5025,-8.2143 61.4286,-8.2143 33.9261,0 61.4286,3.6777 61.4286,8.2143z" stroke="#000" transform="matrix(.72001,0,0,.72001,-847.00138,983.47906)"/>
<path d="m-789.8013,1023.0158 23.2555,0c3.7798,20.3274 21.658,15.3801 23.8584,23.8584l-4.0003,37.0532c-7.8882,13.8749-17.9811,22.6821-27.8587,22.4038l-6.1635,0c-9.9907,-.5379-25.2824,-12.5249-27.8587,-25.3131l-5.0912,-34.1439c1.5539,-5.8922 15.4993,-.9541 23.8584,-23.8584z" fill="#fff" stroke="#000" stroke-linecap="round" stroke-linejoin="round" stroke-width="2.6223"/>
<path d="m-803.7275,1055.6604c1.0867,-.3164 2.165,-.6159 3.2833,-.7906 1.1389,-.2395 2.2868,-.3943 3.4389,-.552 .9053,-.1595 1.7991,-.3314 2.7109,-.4431 1.3286,-.1934 2.6821,-.2769 4.0248,-.3073 .6745,-.05 1.3404,-.029 2.0134,.017l-3.4739,4.1237c-.6496,-.044-1.2972,-.039-1.948,-.013-1.3375,.051-2.6801,.1263-3.9997,.361-.9053,.1254-1.7964,.332-2.7049,.4371-1.149,.147-2.2864,.3471-3.4243,.5635-1.1067,.1989-2.1807,.5255-3.2559,.8518l3.3352,-4.2473z" stroke="#000" stroke-linecap="round" stroke-linejoin="round" stroke-width="1.44"/>
<path d="m-768.7949,1057.0366c-1.0393,-.4483-2.0722,-.879-3.1603,-1.1906-1.1005,-.3786-2.2205,-.6742-3.3442,-.9732-.8786,-.2703-1.7443,-.5514-2.6353,-.775-1.2945,-.3563-2.6272,-.6066-3.9559,-.8028-.6631,-.1333-1.3266,-.1942-2,-.2325l2.9372,4.5217c.6501,.037 1.292,.1222 1.9347,.2276 1.3209,.2161 2.6439,.4568 3.9243,.8529 .8828,.2365 1.7415,.5517 2.6301,.7685 1.122,.2879 2.2259,.6271 3.3283,.9826 1.0736,.3343 2.099,.7912 3.1255,1.248l-2.7842,-4.6272z" stroke="#000" stroke-linecap="round" stroke-linejoin="round" stroke-width="1.44"/>
<path d="m538.4195,257.9523c0,3.0469-2.4032,5.5169-5.3678,5.5169-2.9646,0-5.3678,-2.47-5.3678,-5.5169 0,-3.0469 2.4032,-5.5169 5.3678,-5.5169 2.9646,0 5.3678,2.47 5.3678,5.5169z" fill="#fff" stroke="#000" stroke-linecap="round" stroke-linejoin="round" stroke-width="2" transform="matrix(.72001,0,0,.72001,-1160.82907,881.16208)"/>
<path d="m555.2684,260.4871c0,.9058-.4005,1.6402-.8946,1.6402-.4941,0-.8946,-.7343-.8946,-1.6402 0,-.9058 .4005,-1.6402 .8946,-1.6402 .4941,0 .8946,.7343 .8946,1.6402z" fill="#fff" stroke="#000" stroke-linecap="round" stroke-linejoin="round" stroke-width="2" transform="matrix(.72001,0,0,.72001,-1177.86202,879.31097)"/>
<g transform="matrix(.72001,0,0,.72001,-1177.40655,880.62531)">
<path d="m538.4195,257.9523c0,3.0469-2.4032,5.5169-5.3678,5.5169-2.9646,0-5.3678,-2.47-5.3678,-5.5169 0,-3.0469 2.4032,-5.5169 5.3678,-5.5169 2.9646,0 5.3678,2.47 5.3678,5.5169z" fill="#fff" stroke="#000" stroke-linecap="round" stroke-linejoin="round" stroke-width="2"/>
<path d="m555.2684,260.4871c0,.9058-.4005,1.6402-.8946,1.6402-.4941,0-.8946,-.7343-.8946,-1.6402 0,-.9058 .4005,-1.6402 .8946,-1.6402 .4941,0 .8946,.7343 .8946,1.6402z" fill="#fff" stroke="#000" stroke-linecap="round" stroke-linejoin="round" stroke-width="2" transform="translate(-23.6822,-2.4475)"/>
</g>
<path d="m-775,1090.9336 11.4286,-4.2857" fill="none" stroke="#000"/>
<path d="m-787.4139,427.5241-5.0508,1.7678c-3.577,4.8826-6.3479,10.09-18.4353,13.3845-.6492,13.2993-5.1558,14.2246-9.0914,15.4048-3.8871,-1.6121-4.3172,-7.7243-6.0609,-12.1218-7.3009,-10.9902-5.9478,-19.8523 1.2627,-27.2741-.6327,-.9856-.2121,.1275-.3698,-2.0457 .4594,-.0813 3.0023,-1.8295 5.8084,-3.7881 1.5725,.5542 1.2353,-.1714 1.6325,1.7932-.3007,-1.9217 .6667,-3.3362 1.5152,-4.7982 1.1047,-1.1515 3.3299,-2.4897 5.8517,-3.8774-.5873,-1.7357 .7198,-3.2007 1.7245,-4.7089 3.9354,-2.907 7.6635,-3.7296 11.3642,-4.0406 5.9565,-2.6828 10.9583,-3.6928 13.132,.2525 2.0843,-.2778 3.471,-1.4275 7.3236,.5051 8.297,-2.1862 9.5152,3.9269 11.1117,9.5965 1.5809,1.0492 3.3927,.857 4.7396,.2679 6.3395,-2.6036 8.3325,3.0225 12.9381,8.0659 8.4919,-4.7984 7.4622,8.1482 11.1117,12.3744 6.4561,-4.6243 8.8784,29.9614-2.1249,30.2739-.5453,3.7597-1.5939,5.0027-2.5994,6.4614-3.5434,2.4613-3.8886,1.8964-5.7624,2.7779-1.092,-.2522 1.7628,-7.2191 1.9004,-10.2188-2.6088,-4.9668-2.734,-10.7615-2.5254,-16.6675l-2.5254,-1.5152c-6.8936,4.6663-9.6454,-3.9343-14.3947,-6.0609-2.0681,1.0789-3.9777,.2555-5.8084,-1.5152-12.3189,5.0011-14.6192,.0414-16.6675,-4.2931z" stroke="#000" stroke-width="0" transform="translate(0,602.3622)"/>
</g>
<g transform="matrix(.46677,0,0,.46677,-217.38095,765.90634)">
<path d="M99.569,639.5223H328.4837V682.7453H99.569z" opacity=".99" stroke="#000" stroke-linecap="round" stroke-width="2.375" transform="matrix(1,0,.74329,.66897,0,0)"/>
<g transform="translate(270.801,-512.587)">
<path d="m446.8915,78.4154c0,2.9289-27.5427,5.3033-61.5183,5.3033-33.9756,0-61.5183,-2.3744-61.5183,-5.3033 0,-2.9289 27.5427,-5.3033 61.5183,-5.3033 33.9756,0 61.5183,2.3744 61.5183,5.3033z" stroke="#000" stroke-linecap="round" stroke-width="4.862" transform="translate(8.3721,834.346)"/>
<path d="m447.5034,825.8744 0,47.8884c0,20.007-16.1067,36.1137-36.1137,36.1137l-35.434,0c-20.007,0-36.1137,-16.1067-36.1137,-36.1137l0,-47.8884" fill="#fff" stroke="#000" stroke-linecap="round" stroke-linejoin="round" stroke-width="3.6422"/>
<path d="M368.89,845.6858H392.424A.7803,.7803 0 0 1 393.2043,846.4661V856.4922A.7803,.7803 0 0 1 392.424,857.2724H368.89A.7803,.7803 0 0 1 368.1097,856.4922V846.4661A.7803,.7803 0 0 1 368.89,845.6858z" stroke="#000" stroke-linecap="square" stroke-linejoin="round" stroke-width="3.7338"/>
<path d="M410.2809,845.6858H430.6938A2.3409,2.3409 0 0 1 433.0347,848.0266V854.9316A2.3409,2.3409 0 0 1 430.6938,857.2724H410.2809A2.3409,2.3409 0 0 1 407.9401,854.9316V848.0266A2.3409,2.3409 0 0 1 410.2809,845.6858z" stroke="#000" stroke-linecap="square" stroke-linejoin="round" stroke-width="3.7338"/>
<path d="m342.1502,850.7404c.5492,.0105 1.0986,.007 1.6478,.004 .363,-.002 .7259,-.004 1.0889,-.004 .2925,-4.3e-4 .585,-4e-4 .8775,-4e-4 .304,-6.3e-4 .6081,6e-4 .9121,10e-4 .3906,-.01 .7752,-3.7e-4 1.162,.0507 .3996,.0545 .8031,.0717 1.2062,.0827 .4052,-.0158 .8029,.0589 1.204,.099 .4079,.0368 .818,.0407 1.2274,.045 .4301,.002 .8603,.002 1.2904,6.5e-4 .3736,-7.6e-4 .7472,-10e-4 1.1208,-.002 .307,-7.7e-4 .6141,-9.8e-4 .9211,-10e-4 .2915,-8e-5 .583,-7e-5 .8745,-6e-5 .2915,1e-5 .5831,1e-5 .8746,1e-5 .3187,-3.9e-4 .6374,5.3e-4 .9561,.002 .3943,.002 .7885,4.4e-4 1.1828,-6.3e-4 .3709,-2.7e-4 .7418,4.7e-4 1.1126,10e-4 .3967,-1.7e-4 .7934,-8e-5 1.1902,-10e-4 .38,1.9e-4 .7599,7.4e-4 1.1399,1.6e-4 .3456,-.001 .6912,-.001 1.0367,2.5e-4 .5332,.003 1.0664,.004 1.5996,.006 .7266,.003 1.4533,.003 2.1799,.001 .5332,-.001 1.0664,-.005 1.5997,-.005 .4413,6.5e-4 .8826,-2e-5 1.3239,-10e-4 .0611,-2e-4 .1222,-4e-4 .1833,-6e-4l-1.746,1.1993c-.0605,-2.1e-4-.121,-4.1e-4-.1815,-6.1e-4-.4399,-10e-4-.8797,-.002-1.3196,-.002-.528,-2.2e-4-1.0559,-.004-1.5839,-.005-.7276,-.002-1.4552,-.002-2.1828,9.9e-4-.5391,.002-1.0782,.003-1.6173,.006-.3458,.002-.6916,.002-1.0375,2.6e-4-.3801,-5.7e-4-.7602,-3e-5-1.1404,1.5e-4-.3957,-9.9e-4-.7914,-8.9e-4-1.187,-10e-4-.3723,10e-4-.7447,.002-1.117,.002-.3937,-.001-.7873,-.003-1.181,-6.3e-4-.3206,10e-4-.6411,.002-.9617,.002-.2915,0-.5831,0-.8747,0-.2914,0-.5829,2e-5-.8743,-6e-5-.306,-1.3e-4-.612,-3.5e-4-.918,-9.6e-4-.372,-6.9e-4-.744,-8.4e-4-1.1161,-8.8e-4-.4302,-8.3e-4-.8603,7e-4-1.2904,-.004-.4148,-.006-.8303,-.0145-1.2428,-.0595-.3968,-.0446-.792,-.0972-1.193,-.0869-.4078,-.0152-.8149,-.0435-1.2193,-.0968-.382,-.0404-.7654,-.0292-1.1493,-.0278-.3051,5.6e-4-.6103,.002-.9155,10e-4-.2921,10e-6-.5842,3e-5-.8763,-4e-4-.3589,-6.7e-4-.7177,-.002-1.0765,-.004-.5532,-.003-1.1065,-.006-1.6597,.004l1.7494,-1.2016z" stroke="#000" stroke-linecap="square" stroke-linejoin="round" stroke-width=".4767"/>
<path d="m433.645,851.0171c.7039,.0118 1.4079,.0102 2.1119,.01 .6452,-8.9e-4 1.2905,-.003 1.9357,-.006 .4312,-.002 .8624,-.002 1.2935,-.003 .3398,-8.1e-4 .6796,-.002 1.0194,-.002 .2968,.0217 .5821,-.0575 .8738,-.0956 .2926,-.0341 .5877,-.039 .8821,-.0425 .2922,-.002 .5843,-10e-4 .8765,-8.4e-4 .2918,4e-4 .5836,5.3e-4 .8754,6.1e-4 .2918,5e-5 .5836,5e-5 .8754,5e-5 .2918,0 .5836,0 .8754,0 .3133,-6.1e-4 .6266,10e-4 .9398,10e-4 .3172,-2.5e-4 .6345,-6.9e-4 .9517,-9.3e-4 .2938,-1.8e-4 .5877,-2e-4 .8815,-2.1e-4 .1943,-10e-6 .0972,-10e-6 .2915,-10e-6l-1.7509,1.2027c-.1943,0-.0971,0-.2914,0-.2936,-2e-5-.5872,-4e-5-.8808,-2.2e-4-.3164,-2.3e-4-.6327,-6.8e-4-.9491,-9.3e-4-.3144,4e-5-.6287,.002-.9431,10e-4-.2918,10e-6-.5836,10e-6-.8754,10e-6-.2918,-10e-6-.5836,-10e-6-.8754,-1.2e-4-.2918,-1.3e-4-.5837,-3.7e-4-.8755,-7.2e-4-.2913,-2.3e-4-.5826,-10e-4-.8738,.004-.2893,.007-.5791,.0195-.8653,.0636-.2961,.0452-.5905,.0907-.8921,.0705-.3377,-4.3e-4-.6755,-10e-4-1.0132,-.002-.4283,-5.4e-4-.8565,-6.3e-4-1.2848,-.003-.6398,-.003-1.2796,-.005-1.9195,-.006-.7134,-4.8e-4-1.4269,-.002-2.1402,.01l1.747,-1.2z" stroke="#000" stroke-linecap="square" stroke-linejoin="round" stroke-width=".4767"/>
<path d="m393.3521,851.1803c.5339,.0676 1.0726,.0889 1.6105,.1048 .4801,.0116 .9604,.0116 1.4405,.0103 .3964,-5e-4 .7929,-6.3e-4 1.1893,-.002 .7958,.0205 1.592,.0104 2.3879,.007 .4809,-.004 .9619,-.005 1.4428,-.007 .3835,3e-5 .767,-4.2e-4 1.1506,6e-4 .4032,10e-4 .8064,-9.5e-4 1.2096,-3.1e-4 .3638,-8.6e-4 .7277,-7.6e-4 1.0915,-6.6e-4 .3644,5.6e-4 .7288,2.2e-4 1.0931,-5.1e-4 .3481,.001 .6961,1.1e-4 1.0442,-4.5e-4 .3406,.001 .6811,4.5e-4 1.0217,-4e-5 .3008,-4.3e-4 .6016,-5.6e-4 .9024,-6.3e-4 .2516,.0585 .5047,.1006 .7628,.1209 .2799,.0172 .5606,.0173 .8409,.018 .2917,1.9e-4 .5833,-3.9e-4 .875,-6.8e-4 .146,-1.4e-4 .292,-2e-4 .4381,-2.6e-4l-1.7508,1.2027c-.146,10e-5-.292,1.9e-4-.438,3.5e-4-.292,3.2e-4-.584,10e-4-.876,-3.9e-4-.2852,-.002-.5709,-.005-.8549,-.0331-.2506,-.0293-.496,-.0897-.7478,-.105-.3002,-8e-5-.6004,-2e-4-.9006,-6.3e-4-.3405,-4.8e-4-.681,-10e-4-1.0215,-5e-5-.3476,-5.5e-4-.6953,-.002-1.0429,-4.4e-4-.3639,-7.3e-4-.7278,-10e-4-1.0916,-5.1e-4-.3632,1.1e-4-.7264,1.9e-4-1.0895,-6.6e-4-.4029,6.4e-4-.8058,-.002-1.2087,-3.1e-4-.3841,.001-.7682,5.8e-4-1.1523,6e-4-.4742,-.002-.9483,-.003-1.4224,-.007-.8027,-.004-1.6058,-.0132-2.4083,.007-.3958,-4.3e-4-.7915,4.6e-4-1.1873,-3.6e-4-.4785,-.003-.957,-.007-1.4353,-.0226-.5477,-.0212-1.0947,-.0538-1.64,-.107l1.7673,-1.1825z" stroke="#000" stroke-linecap="square" stroke-linejoin="round" stroke-width=".4767"/>
<path d="m354.8476,813.367 0,18.5432" fill="none" stroke="#000" stroke-linecap="round" stroke-width="4.8046"/>
<path d="m364.3717,811.6127 0,18.5432" fill="none" stroke="#000" stroke-linecap="round" stroke-width="4.8046"/>
<path d="m373.3086,813.077 0,18.5432" fill="none" stroke="#000" stroke-linecap="round" stroke-width="4.8046"/>
<path d="m384.9853,811.9097 0,18.5432" fill="none" stroke="#000" stroke-linecap="round" stroke-width="4.8046"/>
<path d="m395.144,814.0963 0,18.5432" fill="none" stroke="#000" stroke-linecap="round" stroke-width="4.8046"/>
<path d="m406.7732,813.9209 0,18.5432" fill="none" stroke="#000" stroke-linecap="round" stroke-width="4.8046"/>
<path d="m417.2758,812.2068 0,18.5432" fill="none" stroke="#000" stroke-linecap="round" stroke-width="4.8046"/>
<path d="m427.1912,815.2437 0,18.5432" fill="none" stroke="#000" stroke-linecap="round" stroke-width="4.8046"/>
<path d="m437.8642,814.875 0,18.5432" fill="none" stroke="#000" stroke-linecap="round" stroke-width="4.8046"/>
<path d="m385.2314,889.9494 27.1229,-4.4282" fill="none" stroke="#000" stroke-width=".7749"/>
<path d="m346.9635,818.0972 0,18.5432" fill="none" stroke="#000" stroke-linecap="round" stroke-width="4.8046"/>
</g>
<path d="M612.9433,404.0606H617.9433A3.5714,3.5714 0 0 1 621.5147,407.632V448.3463A3.5714,3.5714 0 0 1 617.9433,451.9177H612.9433A3.5714,3.5714 0 0 1 609.3719,448.3463V407.632A3.5714,3.5714 0 0 1 612.9433,404.0606z" fill="#fff" opacity=".99" stroke="#000" stroke-linecap="round" stroke-width="3"/>
<path d="M588.3004,384.4178H593.3004A3.5714,3.5714 0 0 1 596.8719,387.9892V428.7035A3.5714,3.5714 0 0 1 593.3004,432.2749H588.3004A3.5714,3.5714 0 0 1 584.729,428.7035V387.9892A3.5714,3.5714 0 0 1 588.3004,384.4178z" fill="#fff" opacity=".99" stroke="#000" stroke-linecap="round" stroke-width="3"/>
<path d="M814.9075,408.5249H819.9075A3.5714,3.5714 0 0 1 823.479,412.0963V452.8106A3.5714,3.5714 0 0 1 819.9075,456.382H814.9075A3.5714,3.5714 0 0 1 811.3361,452.8106V412.0963A3.5714,3.5714 0 0 1 814.9075,408.5249z" fill="#fff" opacity=".99" stroke="#000" stroke-linecap="round" stroke-width="3"/>
<path d="M790.2647,388.882H795.2647A3.5714,3.5714 0 0 1 798.8362,392.4535V433.1678A3.5714,3.5714 0 0 1 795.2647,436.7392H790.2647A3.5714,3.5714 0 0 1 786.6933,433.1678V392.4535A3.5714,3.5714 0 0 1 790.2647,388.882z" fill="#fff" opacity=".99" stroke="#000" stroke-linecap="round" stroke-width="3"/>
<path d="M147.9421,574.9234H376.8568V618.1464H147.9421z" fill="#fff" opacity=".99" stroke="#000" stroke-linecap="round" stroke-width="2.375" transform="matrix(1,0,.74329,.66897,0,0)"/>
<path d="M149.7278,570.1186H378.6425V613.3415H149.7278z" fill="#fff" opacity=".99" stroke="#000" stroke-linecap="round" stroke-width="2.375" transform="matrix(1,0,.74329,.66897,0,0)"/>
<path d="m786.6933,405.8463-25,-21.4286 0,-81.7857 37.8571,0 25.7143,20.7143" fill="#fff" opacity=".99" stroke="#000" stroke-linecap="round" stroke-width="3"/>
<g transform="translate(578.658,-504.373)">
<path d="M113.2143,798.4336H198.2143A5.7143,5.7143 0 0 1 203.9286,804.1479V872.3622A5.7143,5.7143 0 0 1 198.2143,878.0765H113.2143A5.7143,5.7143 0 0 1 107.5,872.3622V804.1479A5.7143,5.7143 0 0 1 113.2143,798.4336z" fill="#fff" opacity=".99" stroke="#000" stroke-linecap="round" stroke-width="3"/>
<path d="M130,815.2194H190.7143A5.7143,5.7143 0 0 1 196.4286,820.9336V867.0051A5.7143,5.7143 0 0 1 190.7143,872.7194H130A5.7143,5.7143 0 0 1 124.2857,867.0051V820.9336A5.7143,5.7143 0 0 1 130,815.2194z" fill="#fff" opacity=".99" stroke="#000" stroke-linecap="round" stroke-width="3"/>
<path d="M141.9643,903.8132H184.1071A2.6562,2.6562 0 0 1 186.7633,906.4693V906.4693A2.6562,2.6562 0 0 1 184.1071,909.1255H141.9643A2.6562,2.6562 0 0 1 139.3081,906.4693V906.4693A2.6562,2.6562 0 0 1 141.9643,903.8132z" fill="#fff" opacity=".99" stroke="#000" stroke-linecap="round" stroke-width="2.3305"/>
<path d="M156.0714,242.1429H170.3571A5.7143,5.7143 0 0 1 176.0714,247.8571V297.5A5.7143,5.7143 0 0 1 170.3571,303.2143H156.0714A5.7143,5.7143 0 0 1 150.3571,297.5V247.8571A5.7143,5.7143 0 0 1 156.0714,242.1429z" fill="#fff" opacity=".99" stroke="#000" stroke-linecap="round" stroke-width="3" transform="translate(0,602.362)"/>
</g>
<path d="M12.7687,735.9591H84.3426V753.4344H12.7687z" fill="#fff" opacity=".99" stroke="#000" stroke-linecap="round" stroke-width="3.3582" transform="matrix(1,0,.85223,.52316,0,0)"/>
<path d="M787.5862,324.0606H825.4433V405.8463H787.5862z" fill="#fff" opacity=".99" stroke="#000" stroke-linecap="round" stroke-width="3"/>
<path d="M791.9545,353.0718H820.7178V376.4779H791.9545z" fill="#fff" opacity=".99" stroke="#000" stroke-linecap="round" stroke-width="1.8796"/>
<path d="m787.5862,324.4177-5.2679,-5.2679" fill="none" stroke="#000" stroke-width="3"/>
<path d="m762.9433,370.4891c1.1674,55.3978 25.5214,99.341 36.4286,-8.2143" fill="none" stroke="#000"/>
<path d="m622.9433,396.9177c47.2495,14.1525 54.0914,82.1889 191.4286,-27.8571" fill="none" stroke="#000"/>
<path d="m683.479,395.3106c47.9124,12.2799 127.8431,95.7648 117.8572,-20.7143" fill="none" stroke="#000"/>
<path d="M798.8361,356.7392H799.9075V362.2749H798.8361z" opacity=".99" stroke="#000" stroke-linecap="round"/>
<path d="M814.0147,363.6142H815.0861V369.1499H814.0147z" opacity=".99" stroke="#000" stroke-linecap="round"/>
<path d="M801.1576,369.3285H802.229V374.8642H801.1576z" opacity=".99" stroke="#000" stroke-linecap="round"/>
<path d="m814.3719,396.2034c-5.636,61.344-60.3132,74.0601-1.4398,73.0429 5.3037,-.0916 286.9506,-.452 292.556,-16.7184" fill="none" stroke="#000" stroke-width="2"/>
<path d="m266.25,295.8929c0,1.578-1.8788,2.8571-4.1964,2.8571-2.3176,0-4.1964,-1.2792-4.1964,-2.8571 0,-1.5779 1.8788,-2.8571 4.1964,-2.8571 2.3176,0 4.1964,1.2792 4.1964,2.8571z" opacity=".99" stroke="#000" stroke-linecap="round" stroke-width="2" transform="translate(552.408,99.7744)"/>
<path d="m72.8301,292.8571c0,4.1421-2.946,7.5-6.5801,7.5-3.6341,0-6.5801,-3.3579-6.5801,-7.5 0,-4.1421 2.946,-7.5 6.5801,-7.5 3.6341,0 6.5801,3.3579 6.5801,7.5z" fill="#fff" opacity=".99" stroke="#000" stroke-linecap="round" stroke-width="2" transform="matrix(1,0,.46219,1,417.946,97.9894)"/>
<path d="m616.1576,394.4177c2.6981,-.8843 4.2829,-2.9995 8.9286,-4.2857" fill="none" stroke="#000"/>
<path d="m621.2469,391.4713c2.4362,1.4094 3.1631,3.7535 3.8393,6.1607" fill="none" stroke="#000"/>
<path d="m651.3362,387.4534 57.1429,0" fill="none" stroke="#000"/>
<path d="m654.3719,389.4177 57.1428,0" fill="none" stroke="#000"/>
<path d="m658.1219,391.382 57.1428,0" fill="none" stroke="#000"/>
</g>
<path d="M-903.1962,1444.4346H-796.3462V1464.6097H-903.1962z" opacity=".99" stroke="#000" stroke-linecap="round" stroke-width="1.1086" transform="matrix(1,0,.74329,.66896,0,0)"/>
<path d="M188.1904,955.1869H190.5243A1.667,1.667 0 0 1 192.1913,956.8539V975.858A1.667,1.667 0 0 1 190.5243,977.5251H188.1904A1.667,1.667 0 0 1 186.5234,975.858V956.8539A1.667,1.667 0 0 1 188.1904,955.1869z" fill="#fff" opacity=".99" stroke="#000" stroke-linecap="round" stroke-width="1.4003"/>
<path d="M176.6879,946.0182H179.0218A1.667,1.667 0 0 1 180.6888,947.6853V966.6894A1.667,1.667 0 0 1 179.0218,968.3564H176.6879A1.667,1.667 0 0 1 175.0209,966.6894V947.6853A1.667,1.667 0 0 1 176.6879,946.0182z" fill="#fff" opacity=".99" stroke="#000" stroke-linecap="round" stroke-width="1.4003"/>
<path d="M282.4608,957.2707H284.7947A1.667,1.667 0 0 1 286.4617,958.9377V977.9418A1.667,1.667 0 0 1 284.7947,979.6089H282.4608A1.667,1.667 0 0 1 280.7938,977.9418V958.9377A1.667,1.667 0 0 1 282.4608,957.2707z" fill="#fff" opacity=".99" stroke="#000" stroke-linecap="round" stroke-width="1.4003"/>
<path d="M270.9583,948.102H273.2922A1.667,1.667 0 0 1 274.9592,949.7691V968.7732A1.667,1.667 0 0 1 273.2922,970.4402H270.9583A1.667,1.667 0 0 1 269.2913,968.7732V949.7691A1.667,1.667 0 0 1 270.9583,948.102z" fill="#fff" opacity=".99" stroke="#000" stroke-linecap="round" stroke-width="1.4003"/>
<path d="M-880.6171,1414.2819H-773.7671V1434.457H-880.6171z" fill="#fff" opacity=".99" stroke="#000" stroke-linecap="round" stroke-width="1.1086" transform="matrix(1,0,.74329,.66896,0,0)"/>
<path d="M-879.7836,1412.0392H-772.9336V1432.2143H-879.7836z" fill="#fff" opacity=".99" stroke="#000" stroke-linecap="round" stroke-width="1.1086" transform="matrix(1,0,.74329,.66896,0,0)"/>
<path d="m269.2913,956.0204-11.6692,-10.0022 0,-38.1749 17.6705,0 12.0026,9.6688" fill="#fff" opacity=".99" stroke="#000" stroke-linecap="round" stroke-width="1.4003"/>
<g transform="matrix(.46677,0,0,.46677,172.18714,531.15933)">
<path d="M113.2143,798.4336H198.2143A5.7143,5.7143 0 0 1 203.9286,804.1479V872.3622A5.7143,5.7143 0 0 1 198.2143,878.0765H113.2143A5.7143,5.7143 0 0 1 107.5,872.3622V804.1479A5.7143,5.7143 0 0 1 113.2143,798.4336z" fill="#fff" opacity=".99" stroke="#000" stroke-linecap="round" stroke-width="3"/>
<path d="M130,815.2194H190.7143A5.7143,5.7143 0 0 1 196.4286,820.9336V867.0051A5.7143,5.7143 0 0 1 190.7143,872.7194H130A5.7143,5.7143 0 0 1 124.2857,867.0051V820.9336A5.7143,5.7143 0 0 1 130,815.2194z" fill="#fff" opacity=".99" stroke="#000" stroke-linecap="round" stroke-width="3"/>
<path d="M141.9643,903.8132H184.1071A2.6562,2.6562 0 0 1 186.7633,906.4693V906.4693A2.6562,2.6562 0 0 1 184.1071,909.1255H141.9643A2.6562,2.6562 0 0 1 139.3081,906.4693V906.4693A2.6562,2.6562 0 0 1 141.9643,903.8132z" fill="#fff" opacity=".99" stroke="#000" stroke-linecap="round" stroke-width="2.3305"/>
<path d="M156.0714,242.1429H170.3571A5.7143,5.7143 0 0 1 176.0714,247.8571V297.5A5.7143,5.7143 0 0 1 170.3571,303.2143H156.0714A5.7143,5.7143 0 0 1 150.3571,297.5V247.8571A5.7143,5.7143 0 0 1 156.0714,242.1429z" fill="#fff" opacity=".99" stroke="#000" stroke-linecap="round" stroke-width="3" transform="translate(0,602.362)"/>
</g>
<path d="M-1340.7247,1808.8158H-1307.3163V1816.9727H-1340.7247z" fill="#fff" opacity=".99" stroke="#000" stroke-linecap="round" stroke-width="1.5675" transform="matrix(1,0,.85223,.52316,0,0)"/>
<path d="M269.7081,917.8455H287.3786V956.0204H269.7081z" fill="#fff" opacity=".99" stroke="#000" stroke-linecap="round" stroke-width="1.4003"/>
<path d="M271.7471,931.387H285.1729V942.3122H271.7471z" fill="#fff" opacity=".99" stroke="#000" stroke-linecap="round" stroke-width=".8773"/>
<path d="m269.7081,918.0122-2.4589,-2.4589" fill="none" stroke="#000" stroke-width="1.4003"/>
<path d="m258.2056,939.5168c.5449,25.8579 11.9126,46.3692 17.0037,-3.8342" fill="none" stroke="#000" stroke-width=".4668"/>
<path d="m192.8581,951.8528c22.0546,6.6059 25.2481,38.3631 89.3527,-13.0028" fill="none" stroke="#000" stroke-width=".4668"/>
<path d="m221.1142,951.1027c22.3639,5.7319 59.6731,44.6999 55.0119,-9.6688" fill="none" stroke="#000" stroke-width=".4668"/>
<path d="M274.9592,933.0987H275.4593V935.6826H274.9592z" opacity=".99" stroke="#000" stroke-linecap="round" stroke-width=".4668"/>
<path d="M282.0441,936.3078H282.5442V938.8917H282.0441z" opacity=".99" stroke="#000" stroke-linecap="round" stroke-width=".4668"/>
<path d="M276.0428,938.975H276.5429V941.5589H276.0428z" opacity=".99" stroke="#000" stroke-linecap="round" stroke-width=".4668"/>
<path d="m282.2108,951.5194c-2.6307,28.6334-31.0094,37.0689-11.7435,36.5941 2.4752,-.061 26.4393,-.5681 29.0558,-8.1607" fill="none" stroke="#000" stroke-width=".9335"/>
<path d="m266.25,295.8929c0,1.578-1.8788,2.8571-4.1964,2.8571-2.3176,0-4.1964,-1.2792-4.1964,-2.8571 0,-1.5779 1.8788,-2.8571 4.1964,-2.8571 2.3176,0 4.1964,1.2792 4.1964,2.8571z" opacity=".99" stroke="#000" stroke-linecap="round" stroke-width="2" transform="matrix(.46677,0,0,.46677,159.93448,813.1559)"/>
<path d="m72.8301,292.8571c0,4.1421-2.946,7.5-6.5801,7.5-3.6341,0-6.5801,-3.3579-6.5801,-7.5 0,-4.1421 2.946,-7.5 6.5801,-7.5 3.6341,0 6.5801,3.3579 6.5801,7.5z" fill="#fff" opacity=".99" stroke="#000" stroke-linecap="round" stroke-width="2" transform="matrix(.46677,0,.21573,.46677,97.17195,812.32272)"/>
<path d="m189.6907,950.6859c1.2594,-.4128 1.9991,-1.4001 4.1676,-2.0004" fill="none" stroke="#000" stroke-width=".4668"/>
<path d="m192.0663,949.3106c1.1372,.6579 1.4765,1.752 1.7921,2.8756" fill="none" stroke="#000" stroke-width=".4668"/>
<path d="m206.111,947.4352 26.6725,0" fill="none" stroke="#000" stroke-width=".4668"/>
<path d="m207.528,948.3521 26.6724,0" fill="none" stroke="#000" stroke-width=".4668"/>
<path d="m209.2783,949.2689 26.6724,0" fill="none" stroke="#000" stroke-width=".4668"/>
</g>
<text font-family="Bitstream Vera Sans" font-size="12" letter-spacing="0" line-height="562.5" word-spacing="0" x="461.0346" y="749.3164">
   <tspan font-size="20" text-align="center" text-anchor="middle" x="461.0346" y="749.3164">Bon... faut commencer</tspan>
   <tspan font-size="20" text-align="center" text-anchor="middle" x="461.0346" y="774.3164"> coder le projet l...</tspan>
  </text>
<text font-family="Bitstream Vera Sans" font-size="12" letter-spacing="0" line-height="562.5" word-spacing="0" x="392.2616" y="825.0779">
   <tspan font-size="20" text-align="center" text-anchor="middle" x="392.2616" y="825.0779">Hey t'as test</tspan>
   <tspan font-size="20" text-align="center" text-anchor="middle" x="392.2616" y="850.0779">ce jeu flash ?</tspan>
  </text>
<text font-family="Bitstream Vera Sans" font-size="12" letter-spacing="0" line-height="562.5" transform="rotate(27.77)" word-spacing="0" x="789.4522" y="595.826">
   <tspan x="789.4522" y="595.826">*envoi*</tspan>
  </text>
<path d="m390.929,260.0913-13.132,35.8604" fill="none" stroke="#000" transform="translate(0,602.3622)"/>
<path d="m475.7819,192.4111 19.698,92.429" fill="none" stroke="#000" transform="translate(0,602.3622)"/>
<text font-family="Bitstream Vera Sans" font-size="20" letter-spacing="0" line-height="562.5" word-spacing="0" x="723.1283" y="757.3976">
   <tspan text-align="center" text-anchor="middle" x="723.1283" y="757.3976">Ah tiens non. Bon</tspan>
   <tspan text-align="center" text-anchor="middle" x="723.1283" y="782.3976">ben, testons a alors !</tspan>
  </text>
<text font-family="Bitstream Vera Sans" font-size="20" letter-spacing="0" line-height="562.5" word-spacing="0" x="645.4875" y="841.2404">
   <tspan x="645.4875" y="841.2404">De rien.</tspan>
  </text>
<path d="m675.7921,860.4332-13.132,35.3553" fill="none" stroke="#000"/>
<path d="m733.3708,202.5126 27.2741,79.802" fill="none" stroke="#000" transform="translate(0,602.3622)"/>
</g>
</svg>
