<svg version="1.1" viewBox="0 0 900 900" xmlns="http://www.w3.org/2000/svg" xmlns:svg="http://www.w3.org/2000/svg">
<g transform="translate(0,-152.3622)">
<path d="M148.3081,302.7466H726.056A64.9058,64.9058 0 0 1 790.9619,367.6524V877.4174A64.9058,64.9058 0 0 1 726.056,942.3232H148.3081A64.9058,64.9058 0 0 1 83.4023,877.4174V367.6524A64.9058,64.9058 0 0 1 148.3081,302.7466z" fill="#fff" stroke="#000" stroke-linecap="round" stroke-width="9.8248"/>
<g transform="matrix(.12574,0,0,.12574,737.72996,965.98446)">
<path d="m162.9615,-66.1029c3.4935,4.0575 8.2353,4.5442 13.2828,4.8295 6.3854,-.1721 12.7816,-1.7005 18.7482,-3.9709 3.188,-1.2131 4.9498,-2.2461 7.9245,-3.8084-17.8031,10.4157-7.8919,4.8373-4.5635,1.3015 1.7244,-1.8318 2.7543,-3.7619 3.7268,-6.049 2.5265,-7.1174 2.8539,-14.7708 3.2849,-22.2438 .8398,-10.8784-1.4121,-21.5587-3.8369,-32.0902-2.9495,-11.0779-6.9553,-21.8431-11.3671,-32.4128-2.1125,-4.9937-4.5016,-9.8617-6.8287,-14.7566-3.1362,-6.0174-5.7017,-2.2804 12.0114,-9.1516 .6104,-.2368 .7311,1.087 1.1222,1.6121 .6549,.8793 1.3432,1.7331 2.0147,2.5997 6.5345,8.9671 14.393,16.8239 22.2682,24.5961 4.6332,4.5123 9.6016,8.7005 14.032,13.4186 1.6816,1.3731 2.6867,3.3087 4.04,4.9541 1.3218,1.1942 2.3559,-.063 3.524,-.88-20.4032,12.2348-13.1369,8.2804-9.2246,4.5289 1.5406,-1.4773 2.9931,-3.0561 4.4682,-4.5977 2.0935,-2.0887 4.0773,-4.3249 6.3699,-6.2061 6.0518,-4.966 14.4953,-8.9342 20.7536,-12.4943 5.7826,-2.554 11.6983,-4.7759 17.7067,-6.7339 1.2429,-.2695 6.0517,-2.1189 7.1497,-.869 .2555,.2908 .359,.686 .5385,1.029 .0249,.3507 .122,.7037 .0746,1.052-.3464,2.5421-4.2822,5.4998-5.9999,7.0812-7.8955,6.5272-15.5561,13.3165-22.8485,20.5113-6.3434,6.805-12.8959,13.5227-17.9461,21.3722-3.1182,4.9027-4.7756,10.316-5.5537,16.0199-.5154,5.1011-.4313,10.2374-.4233,15.3575 .2794,5.5658 .9893,11.1428 2.6464,16.4744 .9499,2.8397 2.6391,4.9259 5.3418,6.1729 1.7933,.6321 3.8468,1.0482 5.7562,.6876 .4443,-.0839 4.1482,-1.3389 4.4445,-1.4379 4.3672,-2.3833 14.9158,-7.9566-4.8252,2.8617-.781,.428 1.5035,-.9552 2.2436,-1.4505 1.7,-1.1377 2.1084,-1.4721 3.7035,-2.6614 1.913,-1.4312 1.0067,-.7357 2.723,-2.0808l13.6711,-5.4983c-1.7324,1.4564-.8048,.73-2.796,2.1623-8.0629,6.2254-16.9943,11.3785-26.2507,15.5961-4.0612,1.2122-7.06,1.7923-11.0152,-.0782-2.9124,-1.6424-4.8153,-4.0252-5.8395,-7.2464-1.6234,-5.4897-2.2357,-11.2047-2.7686,-16.8893-.0311,-5.1712-.1159,-10.3556 .3022,-15.5145 .7383,-5.9102 2.2958,-11.5511 5.4746,-16.6653 .6374,-1.0595 1.2164,-2.1564 1.9122,-3.1784 1.4293,-2.0993 3.5633,-4.5022 5.1926,-6.3909 3.5997,-4.173 7.2819,-8.2723 11.0846,-12.2621 7.0925,-7.1546 14.5679,-13.9155 22.3195,-20.352 2.1958,-2.0389 4.4682,-4.0268 6.363,-6.357 .3146,.1659-.6981,.139-1.0503,.1882-1.7578,.2457-3.4497,.7917-5.1425,1.3052-5.9412,1.9611-11.8224,4.1368-17.4628,6.8581 19.4412,-11.4974 7.7521,-4.9691 3.9527,-2.0455-2.3144,1.7808-4.2945,3.9798-6.3247,6.0613-7.3621,7.7662-7.7847,8.5886-20.2399,15.0176-2.0411,.9643-3.1823,.8498-4.779,-.8279-1.26,-1.6657-2.2693,-3.5234-3.8255,-4.9564-4.2421,-4.7917-8.972,-9.1394-13.4655,-13.6887-7.8003,-7.9395-15.7203,-15.7854-22.6621,-24.5085-.7459,-.8383-1.4925,-1.676-2.2377,-2.515-.414,-.4662-1.7128,-.9944-1.2397,-1.4005 11.2457,-9.654 10.609,-12.1815 13.514,-5.8078 2.1923,4.9946 4.5033,9.9394 6.4982,15.0188 4.1744,10.7594 8.0235,21.6562 11.1756,32.7627 2.5328,10.5786 5.0383,21.3246 4.3095,32.2869-.2875,7.5431-.73,15.2244-2.7778,22.5205-.6732,1.8665-.9058,2.8192-1.9806,4.5269-4.7227,7.5035-14.9088,11.0471-21.6041,15.3066-8.5205,4.1876-17.5853,7.1486-27.1755,7.1917-1.3332,-.1069-2.6764,-.126-3.9996,-.3207-3.9409,-.5799-7.6146,-2.3017-10.3419,-5.2234l12.7269,-7.6412z" stroke="#000" stroke-linecap="round" stroke-linejoin="round" stroke-width="2"/>
<path d="m285.1504,-83.2549c-5.88,1.6467-18.6251,9.5149 3.6228,-3.2161-3.0858,1.6423-4.9176,4.3146-6.3615,7.3973-.8239,2.47-1.7035,5.1777-1.5244,7.8292 .1239,1.8346 .601,2.756 1.225,4.4695 2.4426,4.8256 6.1987,8.7942 10.6559,11.8004 3.2897,2.2908 7.0292,3.3333 10.9988,3.3815 3.0629,-.6961 5.9092,-1.889 8.7139,-3.2794 1.1955,-.5927 4.6992,-2.5278 3.5526,-1.8452-13.2158,7.8669-9.9055,5.7434-5.2291,2.5405 3.8506,-2.9659 8.0361,-6.4071 9.0279,-11.451 .1385,-.7045 .1286,-1.4302 .1929,-2.1454-.2546,-6.3086-4.2409,-11.2474-8.0871,-15.9117-2.4245,-2.6982-5.17,-5.2714-8.4848,-6.8472-1.6823,-.7998-2.5447,-.9419-4.3262,-1.415-3.594,-.1953-7.3605,.1463-10.7726,1.3847-1.5775,.5726-3.9684,1.9034-5.4345,2.6786 19.9864,-11.9906 6.8908,-4.0746 2.7687,-.4895l-13.6034,5.5649c6.3305,-6.0894 14.7834,-9.6771 22.1418,-14.1306 2.1358,-1.0385 3.3967,-1.7563 5.6792,-2.4493 3.6325,-1.1029 7.5433,-1.3605 11.2846,-.8091 1.9239,.6139 2.7037,.7688 4.5106,1.7317 3.3646,1.793 6.1391,4.5163 8.621,7.3603 4.0463,4.9816 8.1538,10.1443 8.7701,16.7754-.0296,.8046 .0196,1.6161-.0889,2.4139-.7383,5.4273-4.7753,9.2853-8.8804,12.4917-7.9626,5.7154-3.8825,2.9492-19.2743,11.6675-4.0105,2.2717-8.3975,4.1951-13.0037,4.7328-4.1494,-.367-8.0102,-1.5898-11.3905,-4.108-4.5717,-3.3347-8.416,-7.5445-11.0934,-12.5605-.6247,-1.6344-1.3341,-3.1907-1.5477,-4.9537-.3345,-2.7611 .5846,-5.6627 1.2497,-8.2942 1.2789,-3.2492 2.902,-6.3291 5.9576,-8.2367 7.1822,-4.1341 13.903,-8.8778 21.9148,-11.0889l-11.7853,9.0117z" stroke="#000" stroke-linecap="round" stroke-linejoin="round" stroke-width="2"/>
<path d="m347.1504,-77.2549c-2.5469,.8146-5.1929,1.5133-7.6141,2.6735-.8131,.3896-1.5764,.8756-2.3647,1.3134 3.3457,-1.8736 6.6913,-3.7471 10.037,-5.6207-3.9716,2.6801-6.9185,5.3584-8.6955,9.85-1.1627,3.6999-.6052,6.8285 2.3247,9.5655 .7074,.6608 1.5389,1.1748 2.3083,1.7622 5.6004,3.2171 12.2296,4.3691 18.6442,3.6885 1.8388,-.1951 3.6423,-.6405 5.4634,-.9607 4.2145,-1.088 6.0512,-1.3908 10.0093,-3.0522 1.313,-.5511 5.0497,-2.628 3.8271,-1.898-17.7993,10.6288-9.7426,5.998-6.9473,3.1684 .6199,-.6275 1.1121,-1.3693 1.6682,-2.054 2.4376,-3.8135 2.5,-7.2055 .7831,-11.2688-.3152,-.7137-2.1315,-4.4568-3.4123,-3.6467-.2218,.1403-.3342,.4046-.5012,.6069 20.2171,-11.5287 12.5199,-9.601 10.5591,-3.9824-.8462,2.4247-.9939,4.7822-1.1102,7.3284 1.4046,11.8202 6.6264,22.7649 10.9162,33.7471 5.2161,14.5087 10.244,29.5646 10.8227,45.1266 .1152,3.097-.1863,6.1956-.2795,9.2933-.4626,2.9786-.7219,5.996-1.3878,8.9358-2.1724,9.5898-7.1162,18.3681-14.4574,24.947-1.2941,1.1597-2.7591,2.1134-4.1386,3.1701-5.5203,2.8839-10.7715,6.3551-16.5608,8.6516-2.3998,.952-8.1925,-1.0338-10.0914,-1.8803-7.058,-3.1465-13.1537,-8.3145-19.1496,-13.0475-10.1152,-8.659-20.0186,-17.691-29.0677,-27.4783-4.688,-5.0705-5.8469,-6.777-9.919,-12.0224-3.4654,-5.7822-7.5504,-12.4859-4.1433,-19.3016 2.0163,-4.0335 4.4499,-5.497 7.8272,-8.4338 10.1215,-6.5586 10.9501,-7.3056 25.6037,-14.7259 3.5764,-1.811 15.1096,-5.9066 18.6391,-7.138 7.0388,-2.4558 14.6082,-4.8887 21.6862,-7.2014 18.594,-5.3634 36.8056,-11.8962 54.8051,-18.9783 1.5279,-.6495 3.0578,-1.2942 4.5836,-1.9485 1.1657,-.4999 2.34,-.9808 3.4908,-1.514 2.3523,-1.0899 4.5499,-2.4389 6.9767,-3.363 3.291,-.4693 4.4452,3.4926 5.4304,5.8995 2.2687,6.1277 3.5471,12.5534 4.0987,19.0495 .1362,2.9104 .2306,5.8345-.1816,8.7279-.0421,.2958 .1108,.7559-.16,.882-4.4089,2.0533-9.0127,3.659-13.519,5.4886 .0118,-.8952-.0374,-1.7934 .0355,-2.6857 .1061,-1.2986 .3295,-2.5849 .5008,-3.8765 .9997,-7.538 2.3091,-14.9758 3.843,-22.4228 1.555,-6.4961 2.8976,-13.2994 6.61,-18.9697 4.2039,-4.4015 13.5536,-13.0794 18.1064,-8.0287 .4767,.5289 .8107,1.1708 1.2161,1.7562 .891,1.5753 1.6607,2.7718 2.2437,4.5173 1.6389,4.9078 2.3745,10.6605 3.2422,15.7652 1.1326,4.4176 .7008,9.7081 2.0412,14.0399 1.7726,-4.7616-.0179,.2205-12.7493,6.291-.2582,.1231 .3891,-.4251 .5337,-.672 .3315,-.566 .9805,-2.2274 1.2333,-2.7376 .3448,-.6961 .7385,-1.3669 1.1077,-2.0504 2.3945,-3.8376 4.4213,-7.8928 7.0597,-11.5731 4.4112,-5.5273 8.5378,-6.7337 16.174,-10.93 .2619,-.1439 .6145,-.0601 .8956,.0415 .3579,.1294 .6361,.4181 .9542,.6271 2.9864,3.1411 4.0262,7.5857 5.0346,11.6761 .8762,4.4536 1.3452,8.9967 2.9742,13.2566 .3967,.5584 .7207,1.1763 1.19,1.6753 3.4181,3.6336 9.0718,6.3498 13.7339,7.8272 1.7542,.5559 3.5616,.9276 5.3424,1.3914 7.54,1.8812 15.1058,1.9747 22.6056,-.087 1.66,-.4563 3.3273,-.9326 4.8996,-1.6338 1.4645,-.6531 2.7763,-1.6056 4.1644,-2.4083-2.8879,1.4901-5.5634,3.4967-8.6637,4.4704-1.1955,.3755 1.8602,-1.6841 2.7137,-2.6016 2.5159,-2.7049 3.9544,-5.7126 4.9671,-9.2111 .6946,-2.9134 .6823,-5.9069 .6019,-8.8795-.8123,-6.1361-6.2332,-.0969 12.5348,-7.7189 .3417,-.1388-.2006,.7117-.258,1.076-.0835,.53-.1093,1.0675-.1639,1.6012-.2665,4.8348-.377,9.6802 .1605,14.4971 .5467,3.099 1.1396,6.2653 3.5686,8.4405 1.7091,1.1249 3.5227,1.2014 5.4105,.5838 4.5429,-2.2925 11.3618,-6.2694-9.2958,5.3928-.733,.4138 1.4175,-.9086 2.114,-1.3812l13.7499,-5.4669c-1.0645,.874-.871,.7838-2.0934,1.4985-4.6452,2.7158-10.3975,7.2521-16.2755,8.9062-2.2943,.246-4.4334,-.2532-6.2278,-1.7781-2.497,-2.6033-3.3119,-5.923-3.8685,-9.4237-.5906,-4.8727-.472,-9.7673-.4084,-14.6687 .0197,-.6544 .077,-2.9288 .1232,-2.9595 9.727,-6.4603 12.8718,-12.5754 14.1061,-5.3537 .0695,3.1243 .0729,6.2667-.5797,9.341-3.2014,12.7554-11.6553,15.6615-23.2766,22.5416-1.4289,.7205-2.7977,1.5752-4.2867,2.1615-8.9506,3.524-18.7036,3.2412-27.9102,1.0341-1.8391,-.4877-3.7066,-.8788-5.5173,-1.4632-4.6315,-1.4947-11.1446,-4.692-14.5603,-8.2853-.5627,-.5919-.968,-1.3157-1.452,-1.9736-1.6237,-4.344-2.0916,-8.9473-2.927,-13.4875-.8421,-3.5179-1.6783,-7.8688-4.5851,-10.3108-.6859,.086-.3319,-.0175-1.041,.3749 3.9288,-2.3321 7.8577,-4.6642 11.7865,-6.9963 .3323,-.191-.6084,.4685-.8871,.7315-.6996,.66-1.2666,1.4531-2.0221,2.0581-2.82,3.545-4.8538,7.566-7.2091,11.4215-.8854,1.5155-1.617,2.9578-2.1805,4.6201-.1148,.3386 .0125,.8473-.2939,1.0316-13.2948,7.9967-10.3461,11.2314-14.0569,6.5713-1.1159,-4.7041-.5439,-9.6982-1.6308,-14.4245-1.0635,-6.6156-1.8817,-13.7016-5.4778,-19.4897-.6253,-.7518-.8938,-1.4407-1.8874,-1.6242-.2691,-.0497-1.0491,.2242-.8171,.0792 3.855,-2.4085 7.8581,-4.5721 11.7547,-6.9127 .3501,-.2103-.7641,.3015-1.11,.5187-.4078,.256-.7577,.5945-1.1366,.8918-4.3835,5.2272-5.7056,12.2845-7.478,18.6873-1.9969,9.2321-3.7113,18.5943-3.9931,28.0561-4.3051,2.6386-8.5232,5.4248-12.9154,7.9158-.2419,.1372 .2404,-.5043 .318,-.7714 .8042,-2.7667 .5753,-5.6949 .5747,-8.5333-.3712,-6.3501-1.5585,-12.6651-3.9842,-18.571-.4628,-1.0682-1.3134,-4.1649-2.9322,-4.2743-.3754,-.0254-1.0644,.2717-1.3633,.3791-4.7881,2.1318-9.4382,4.5785-14.4142,6.2825-17.8398,6.7098-35.8321,12.9983-54.1277,18.3644-10.6198,3.5133-21.3137,6.9086-31.715,11.0427-2.9939,1.19-5.7348,3.1473-8.8924,3.787-1.6217,.3285 5.5767,-3.5384 4.0891,-2.8139-2.1692,1.0565-4.0999,2.545-6.1498,3.8175-3.8287,3.0735-8.5236,6.2534-9.4308,11.5515-.893,5.2148 2.4282,10.0365 4.6745,14.3601 1.3891,1.8979 2.711,3.847 4.1673,5.6938 9.9457,12.6131 22.0475,23.4346 34.3683,33.6505 6.0444,4.5132 12.2092,9.5598 19.3554,12.2966 1.6491,.6316 3.3794,1.1098 5.1345,1.3053 1.4972,.1668 5.3244,-1.5002 4.5136,-.2306-1.6887,2.6441-5.176,3.5469-7.7641,5.3203 1.4485,-1.0111 2.9813,-1.911 4.3453,-3.0333 7.5773,-6.2343 12.8885,-14.8407 15.2526,-24.3515 .7183,-2.8896 .999,-5.8707 1.4986,-8.806 .1439,-3.0552 .5095,-6.108 .4316,-9.1656-.3934,-15.4369-5.6294,-30.3333-10.905,-44.6508-4.4755,-11.0691-9.9218,-21.9803-11.8707,-33.8586-.0655,-2.8117 .003,-4.952 .6842,-7.6722 .0381,-.1521 .7931,-2.8601 1.1292,-3.0916 4.3169,-2.973 8.9144,-5.5165 13.3715,-8.2747 .3389,.0271 .6889,-.0085 1.0169,.0812 2.1057,.5758 3.1151,3.1886 3.9952,4.8962 1.8742,4.4256 2.1315,8.3635-.2532,12.7108-.541,.7748-1.0086,1.6064-1.6229,2.3244-4.3907,5.131-13.1728,8.7324-17.6417,11.2191-4.2744,2.3784-9.1918,3.3952-13.8934,4.496-1.8823,.2823-3.7498,.6922-5.6468,.847-6.776,.553-13.6979,-.6632-19.4819,-4.3006-.8304,-.6627-1.7251,-1.252-2.4912,-1.9881-3.2394,-3.1123-4.2505,-6.5472-3.1788,-10.8443 1.6159,-5.1378 4.1492,-7.6245 8.4678,-10.7873 8.3338,-4.9235 15.8682,-10.3542 25.256,-12.659l-11.7853,9.0117z" stroke="#000" stroke-linecap="round" stroke-linejoin="round" stroke-width="2"/>
<path d="m549.2332,-122.1847c-1.7835,2.0929-3.2088,4.4879-3.887,7.1628-.4856,2.6751 1.1102,3.361 3.3038,4.3209 3.5488,1.2997 6.5822,1.157 10.2167,.5143 4.8602,-1.6662 12.579,-6.4142-9.0248,5.5037-.3034,.1673 .5755,-.3901 .8315,-.6236 .6095,-.5556 .6709,-.7857 1.0696,-1.4819 .7338,-1.6463 .6619,-3.1872-.2832,-4.7035-1.2573,-1.1913-3.1474,-1.0796-4.7697,-1.1586-1.6755,.1549-3.2712,.5705-4.6332,1.5753l11.5699,-9.3176c1.6475,-.6237 3.3328,-1.0178 5.1127,-.8762 2.1175,.2092 4.2007,.5097 5.5739,2.3193 1.1184,1.8815 1.5604,3.8267 .9141,5.9743-2.3437,7.0718-11.2457,9.9308-18.1332,11.6144-3.6699,.4613-7.2979,.2601-10.7482,-1.2144-2.4801,-1.2798-4.7037,-2.8813-4.3281,-5.9859 .4579,-2.8821 1.8638,-5.464 3.5526,-7.8184l13.6626,-5.8049z" stroke="#000" stroke-linecap="round" stroke-linejoin="round" stroke-width="2"/>
<path d="m359.6057,-86.1453c2.813,-1.3672 5.4973,-2.9836 8.3991,-4.1626 1.8182,-1.1808 3.8128,-1.7264 5.9399,-1.959 1.9567,-.1487 3.9211,-.1237 5.8819,-.1169 1.9461,-.207 3.5945,.325 5.304,1.1594 1.1966,.9591 2.1411,2.2333 3.05,3.4655 .7904,1.4357 1.2548,3.0464 1.7411,4.6107 .436,1.6028 1.0296,3.1343 1.3438,4.7721 .3026,1.9227 .3232,3.8738 .3468,5.8155 .009,1.0012 .007,2.0024 .007,3.0036l-13.2174,6.733c.001,-.9962 .003,-1.9924-10e-4,-2.9886-.0137,-1.8636-.0171,-3.7343-.2514,-5.5862-.2608,-1.5964-.8449,-3.0648-1.2698,-4.6141-.4125,-1.4071-.8576,-2.8405-1.4965,-4.1522-.7779,-1.02-1.5348,-2.1846-2.6529,-2.8453-1.5703,-.6821-3.2079,-.7262-4.905,-.653-1.9192,.0085-3.8508,-8.13e-4-5.7505,.3092-2.0091,.4249-3.8194,1.2893-5.6483,2.207-2.8459,1.3235-5.5987,2.8407-8.3572,4.3355l11.5367,-9.3337z" stroke="#000" stroke-linecap="round" stroke-linejoin="round" stroke-width="2"/>
</g>
<path d="M120.7187,270.4771H371.8826A15.6552,15.6552 0 0 1 387.5378,286.1323V286.1323A15.6552,15.6552 0 0 1 371.8826,301.7875H120.7187A15.6552,15.6552 0 0 1 105.0635,286.1323V286.1323A15.6552,15.6552 0 0 1 120.7187,270.4771z" fill="#fff" stroke="#000" stroke-linecap="round" stroke-linejoin="round" stroke-width="4.5094" transform="matrix(1,-.00315,.00315,1,0,0)"/>
<path d="m101.5203,44.9288a36.8706,34.8503 0 1 1 -73.7411,0 36.8706,34.8503 0 1 1 73.7411,0z" stroke="#000" stroke-linecap="round" stroke-linejoin="round" stroke-width="7.491" transform="matrix(1.24255,-.00391,.00217,.68917,47.79334,247.29704)"/>
<text font-family="Bitstream Vera Sans" font-size="40" transform="matrix(1,-.00315,.00315,1,0,0)" x="89.6174" y="293.4683">
   <tspan fill="#f9f9f9" x="89.6174" y="293.4683">157</tspan>
  </text>
<text font-family="Bitstream Vera Sans" font-size="23.205" transform="matrix(1,-.00315,.00315,1,0,0)" x="258.9459" y="478.7146">
   <tspan x="258.9459" y="478.7146">Facebox</tspan>
  </text>
<path d="M171.0047,384.9137H700.2979A52.1639,52.1639 0 0 1 752.4618,437.0775V865.1266A52.1639,52.1639 0 0 1 700.2979,917.2904H171.0047A52.1639,52.1639 0 0 1 118.8408,865.1266V437.0775A52.1639,52.1639 0 0 1 171.0047,384.9137z" fill="#fff" stroke="#000" stroke-linecap="round" stroke-width="5.4959"/>
<path d="M181.3237,395.706H689.0275A50.0361,50.0361 0 0 1 739.0636,445.7422V856.3314A50.0361,50.0361 0 0 1 689.0275,906.3676H181.3237A50.0361,50.0361 0 0 1 131.2876,856.3314V445.7422A50.0361,50.0361 0 0 1 181.3237,395.706z" fill="#fff" stroke="#000" stroke-linecap="round" stroke-width="5.2717"/>
<path d="M399.3197,411.9427H471.4209A2.9006,2.9006 0 0 1 474.3216,414.8433V414.8433A2.9006,2.9006 0 0 1 471.4209,417.7439H399.3197A2.9006,2.9006 0 0 1 396.419,414.8433V414.8433A2.9006,2.9006 0 0 1 399.3197,411.9427z" fill="#fff" stroke="#000" stroke-linecap="round" stroke-width="3.4808"/>
<g transform="matrix(1.23366,0,0,1.23366,-170.30614,98.46344)">
<path d="M254.0534,509.4052H270.7209V526.0727H254.0534z" fill="#fff" stroke="#000" stroke-linecap="round" stroke-width="2"/>
<path d="m270.812,508.8121 2.9042,6.1872" fill="none" stroke="#000" stroke-width="2"/>
<path d="m270.8047,526.2904 2.9042,6.1872" fill="none" stroke="#000" stroke-width="2"/>
<path d="m253.9657,526.6361 2.9042,6.1872" fill="none" stroke="#000" stroke-width="2"/>
<text font-family="Bitstream Vera Sans" font-size="12.439" x="259.5241" y="522.032">
    <tspan x="259.5241" y="522.032">²</tspan>
   </text>
</g>
<g transform="matrix(1.23366,0,0,1.23366,-144.55007,129.64878)">
<path d="M254.0534,509.4052H270.7209V526.0727H254.0534z" fill="#fff" stroke="#000" stroke-linecap="round" stroke-width="2"/>
<path d="m270.812,508.8121 2.9042,6.1872" fill="none" stroke="#000" stroke-width="2"/>
<path d="m270.8047,526.2904 2.9042,6.1872" fill="none" stroke="#000" stroke-width="2"/>
<path d="m253.9657,526.6361 2.9042,6.1872" fill="none" stroke="#000" stroke-width="2"/>
<text font-family="Bitstream Vera Sans" font-size="12.439" x="257.9005" y="522.032">
    <tspan x="257.9005" y="522.032">A</tspan>
   </text>
</g>
<g transform="matrix(1.23366,0,0,1.23366,-143.72979,98.46344)">
<path d="M254.0534,509.4052H270.7209V526.0727H254.0534z" fill="#fff" stroke="#000" stroke-linecap="round" stroke-width="2"/>
<path d="m270.812,508.8121 2.9042,6.1872" fill="none" stroke="#000" stroke-width="2"/>
<path d="m270.8047,526.2904 2.9042,6.1872" fill="none" stroke="#000" stroke-width="2"/>
<path d="m253.9657,526.6361 2.9042,6.1872" fill="none" stroke="#000" stroke-width="2"/>
<text font-family="Bitstream Vera Sans" font-size="12.439" x="257.9005" y="522.032">
    <tspan x="257.9005" y="522.032">&amp;</tspan>
   </text>
</g>
<g transform="matrix(1.23366,0,0,1.23366,-119.42641,129.64878)">
<path d="M254.0534,509.4052H270.7209V526.0727H254.0534z" fill="#fff" stroke="#000" stroke-linecap="round" stroke-width="2"/>
<path d="m270.812,508.8121 2.9042,6.1872" fill="none" stroke="#000" stroke-width="2"/>
<path d="m270.8047,526.2904 2.9042,6.1872" fill="none" stroke="#000" stroke-width="2"/>
<path d="m253.9657,526.6361 2.9042,6.1872" fill="none" stroke="#000" stroke-width="2"/>
<text font-family="Bitstream Vera Sans" font-size="12.439" x="257.9005" y="522.032">
    <tspan x="257.9005" y="522.032">Z</tspan>
   </text>
</g>
<g transform="matrix(1.23366,0,0,1.23366,-117.15344,98.46344)">
<path d="M254.0534,509.4052H270.7209V526.0727H254.0534z" fill="#fff" stroke="#000" stroke-linecap="round" stroke-width="2"/>
<path d="m270.812,508.8121 2.9042,6.1872" fill="none" stroke="#000" stroke-width="2"/>
<path d="m270.8047,526.2904 2.9042,6.1872" fill="none" stroke="#000" stroke-width="2"/>
<path d="m253.9657,526.6361 2.9042,6.1872" fill="none" stroke="#000" stroke-width="2"/>
<text font-family="Bitstream Vera Sans" font-size="12.439" x="257.9005" y="522.032">
    <tspan x="257.9005" y="522.032">é</tspan>
   </text>
</g>
<g transform="matrix(1.23366,0,0,1.23366,-94.30271,129.64878)">
<path d="M254.0534,509.4052H270.7209V526.0727H254.0534z" fill="#fff" stroke="#000" stroke-linecap="round" stroke-width="2"/>
<path d="m270.812,508.8121 2.9042,6.1872" fill="none" stroke="#000" stroke-width="2"/>
<path d="m270.8047,526.2904 2.9042,6.1872" fill="none" stroke="#000" stroke-width="2"/>
<path d="m253.9657,526.6361 2.9042,6.1872" fill="none" stroke="#000" stroke-width="2"/>
<text font-family="Bitstream Vera Sans" font-size="12.439" x="257.9005" y="522.032">
    <tspan x="257.9005" y="522.032">E</tspan>
   </text>
</g>
<g transform="matrix(1.23366,0,0,1.23366,-90.57713,98.46344)">
<path d="M254.0534,509.4052H270.7209V526.0727H254.0534z" fill="#fff" stroke="#000" stroke-linecap="round" stroke-width="2"/>
<path d="m270.812,508.8121 2.9042,6.1872" fill="none" stroke="#000" stroke-width="2"/>
<path d="m270.8047,526.2904 2.9042,6.1872" fill="none" stroke="#000" stroke-width="2"/>
<path d="m253.9657,526.6361 2.9042,6.1872" fill="none" stroke="#000" stroke-width="2"/>
</g>
<text font-family="Bitstream Vera Sans" font-size="15.345" x="229.0017" y="742.475">
   <tspan x="229.0017" y="742.475">"</tspan>
  </text>
<g transform="matrix(1.23366,0,0,1.23366,-69.17901,129.64878)">
<path d="M254.0534,509.4052H270.7209V526.0727H254.0534z" fill="#fff" stroke="#000" stroke-linecap="round" stroke-width="2"/>
<path d="m270.812,508.8121 2.9042,6.1872" fill="none" stroke="#000" stroke-width="2"/>
<path d="m270.8047,526.2904 2.9042,6.1872" fill="none" stroke="#000" stroke-width="2"/>
<path d="m253.9657,526.6361 2.9042,6.1872" fill="none" stroke="#000" stroke-width="2"/>
<text font-family="Bitstream Vera Sans" font-size="12.439" x="257.9005" y="522.032">
    <tspan x="257.9005" y="522.032">R</tspan>
   </text>
</g>
<g transform="matrix(1.23366,0,0,1.23366,-64.00075,98.46344)">
<path d="M254.0534,509.4052H270.7209V526.0727H254.0534z" fill="#fff" stroke="#000" stroke-linecap="round" stroke-width="2"/>
<path d="m270.812,508.8121 2.9042,6.1872" fill="none" stroke="#000" stroke-width="2"/>
<path d="m270.8047,526.2904 2.9042,6.1872" fill="none" stroke="#000" stroke-width="2"/>
<path d="m253.9657,526.6361 2.9042,6.1872" fill="none" stroke="#000" stroke-width="2"/>
</g>
<text font-family="Bitstream Vera Sans" font-size="15.345" x="256.8173" y="742.475">
   <tspan x="256.8173" y="742.475">'</tspan>
  </text>
<g transform="matrix(1.23366,0,0,1.23366,-44.05534,129.64878)">
<path d="M254.0534,509.4052H270.7209V526.0727H254.0534z" fill="#fff" stroke="#000" stroke-linecap="round" stroke-width="2"/>
<path d="m270.812,508.8121 2.9042,6.1872" fill="none" stroke="#000" stroke-width="2"/>
<path d="m270.8047,526.2904 2.9042,6.1872" fill="none" stroke="#000" stroke-width="2"/>
<path d="m253.9657,526.6361 2.9042,6.1872" fill="none" stroke="#000" stroke-width="2"/>
<text font-family="Bitstream Vera Sans" font-size="12.439" x="257.9005" y="522.032">
    <tspan x="257.9005" y="522.032">T</tspan>
   </text>
</g>
<g transform="matrix(1.23366,0,0,1.23366,-37.42445,98.46344)">
<path d="M254.0534,509.4052H270.7209V526.0727H254.0534z" fill="#fff" stroke="#000" stroke-linecap="round" stroke-width="2"/>
<path d="m270.812,508.8121 2.9042,6.1872" fill="none" stroke="#000" stroke-width="2"/>
<path d="m270.8047,526.2904 2.9042,6.1872" fill="none" stroke="#000" stroke-width="2"/>
<path d="m253.9657,526.6361 2.9042,6.1872" fill="none" stroke="#000" stroke-width="2"/>
</g>
<text font-family="Bitstream Vera Sans" font-size="15.345" x="281.9772" y="742.475">
   <tspan x="281.9772" y="742.475">(</tspan>
  </text>
<g transform="matrix(1.23366,0,0,1.23366,-18.93165,129.64878)">
<path d="M254.0534,509.4052H270.7209V526.0727H254.0534z" fill="#fff" stroke="#000" stroke-linecap="round" stroke-width="2"/>
<path d="m270.812,508.8121 2.9042,6.1872" fill="none" stroke="#000" stroke-width="2"/>
<path d="m270.8047,526.2904 2.9042,6.1872" fill="none" stroke="#000" stroke-width="2"/>
<path d="m253.9657,526.6361 2.9042,6.1872" fill="none" stroke="#000" stroke-width="2"/>
</g>
<text font-family="Bitstream Vera Sans" font-size="15.345" x="299.7315" y="773.6603">
   <tspan x="299.7315" y="773.6603">Y</tspan>
  </text>
<g transform="matrix(1.23366,0,0,1.23366,-10.8481,98.46344)">
<path d="M254.0534,509.4052H270.7209V526.0727H254.0534z" fill="#fff" stroke="#000" stroke-linecap="round" stroke-width="2"/>
<path d="m270.812,508.8121 2.9042,6.1872" fill="none" stroke="#000" stroke-width="2"/>
<path d="m270.8047,526.2904 2.9042,6.1872" fill="none" stroke="#000" stroke-width="2"/>
<path d="m253.9657,526.6361 2.9042,6.1872" fill="none" stroke="#000" stroke-width="2"/>
<text font-family="Bitstream Vera Sans" font-size="12.439" x="257.9005" y="522.032">
    <tspan x="257.9005" y="522.032">-</tspan>
   </text>
</g>
<g transform="matrix(1.23366,0,0,1.23366,6.19201,129.64878)">
<path d="M254.0534,509.4052H270.7209V526.0727H254.0534z" fill="#fff" stroke="#000" stroke-linecap="round" stroke-width="2"/>
<path d="m270.812,508.8121 2.9042,6.1872" fill="none" stroke="#000" stroke-width="2"/>
<path d="m270.8047,526.2904 2.9042,6.1872" fill="none" stroke="#000" stroke-width="2"/>
<path d="m253.9657,526.6361 2.9042,6.1872" fill="none" stroke="#000" stroke-width="2"/>
<text font-family="Bitstream Vera Sans" font-size="12.439" x="257.9005" y="522.032">
    <tspan x="257.9005" y="522.032">U</tspan>
   </text>
</g>
<g transform="matrix(1.23366,0,0,1.23366,15.72822,98.46344)">
<path d="M254.0534,509.4052H270.7209V526.0727H254.0534z" fill="#fff" stroke="#000" stroke-linecap="round" stroke-width="2"/>
<path d="m270.812,508.8121 2.9042,6.1872" fill="none" stroke="#000" stroke-width="2"/>
<path d="m270.8047,526.2904 2.9042,6.1872" fill="none" stroke="#000" stroke-width="2"/>
<path d="m253.9657,526.6361 2.9042,6.1872" fill="none" stroke="#000" stroke-width="2"/>
<text font-family="Bitstream Vera Sans" font-size="12.439" x="257.9005" y="522.032">
    <tspan x="257.9005" y="522.032">è</tspan>
   </text>
</g>
<g transform="matrix(1.23366,0,0,1.23366,31.31571,129.64878)">
<path d="M254.0534,509.4052H270.7209V526.0727H254.0534z" fill="#fff" stroke="#000" stroke-linecap="round" stroke-width="2"/>
<path d="m270.812,508.8121 2.9042,6.1872" fill="none" stroke="#000" stroke-width="2"/>
<path d="m270.8047,526.2904 2.9042,6.1872" fill="none" stroke="#000" stroke-width="2"/>
<path d="m253.9657,526.6361 2.9042,6.1872" fill="none" stroke="#000" stroke-width="2"/>
</g>
<text font-family="Bitstream Vera Sans" font-size="15.345" x="352.4826" y="773.6603">
   <tspan x="352.4826" y="773.6603">I</tspan>
  </text>
<path d="M355.7208,726.8978H376.2829V747.4599H355.7208z" fill="#fff" stroke="#000" stroke-linecap="round" stroke-width="2.4673"/>
<path d="m376.3954,726.1663 3.5828,7.6329" fill="none" stroke="#000" stroke-width="2.4673"/>
<path d="m376.3864,747.7286 3.5828,7.6329" fill="none" stroke="#000" stroke-width="2.4673"/>
<path d="m355.6128,748.1551 3.5828,7.6329" fill="none" stroke="#000" stroke-width="2.4673"/>
<text font-family="Bitstream Vera Sans" font-size="15.345" x="361.8833" y="739.9965">
   <tspan x="361.8833" y="739.9965">_</tspan>
  </text>
<g transform="matrix(1.23366,0,0,1.23366,56.43942,129.64878)">
<path d="M254.0534,509.4052H270.7209V526.0727H254.0534z" fill="#fff" stroke="#000" stroke-linecap="round" stroke-width="2"/>
<path d="m270.812,508.8121 2.9042,6.1872" fill="none" stroke="#000" stroke-width="2"/>
<path d="m270.8047,526.2904 2.9042,6.1872" fill="none" stroke="#000" stroke-width="2"/>
<path d="m253.9657,526.6361 2.9042,6.1872" fill="none" stroke="#000" stroke-width="2"/>
<text font-family="Bitstream Vera Sans" font-size="12.439" x="257.9005" y="522.032">
    <tspan x="257.9005" y="522.032">O</tspan>
   </text>
</g>
<g transform="matrix(1.23366,0,0,1.23366,68.88093,98.46344)">
<path d="M254.0534,509.4052H270.7209V526.0727H254.0534z" fill="#fff" stroke="#000" stroke-linecap="round" stroke-width="2"/>
<path d="m270.812,508.8121 2.9042,6.1872" fill="none" stroke="#000" stroke-width="2"/>
<path d="m270.8047,526.2904 2.9042,6.1872" fill="none" stroke="#000" stroke-width="2"/>
<path d="m253.9657,526.6361 2.9042,6.1872" fill="none" stroke="#000" stroke-width="2"/>
</g>
<text font-family="Bitstream Vera Sans" font-size="15.345" x="387.3974" y="740.7047">
   <tspan x="387.3974" y="740.7047">ç</tspan>
  </text>
<g transform="matrix(1.23366,0,0,1.23366,81.56305,129.64878)">
<path d="M254.0534,509.4052H270.7209V526.0727H254.0534z" fill="#fff" stroke="#000" stroke-linecap="round" stroke-width="2"/>
<path d="m270.812,508.8121 2.9042,6.1872" fill="none" stroke="#000" stroke-width="2"/>
<path d="m270.8047,526.2904 2.9042,6.1872" fill="none" stroke="#000" stroke-width="2"/>
<path d="m253.9657,526.6361 2.9042,6.1872" fill="none" stroke="#000" stroke-width="2"/>
<text font-family="Bitstream Vera Sans" font-size="12.439" x="257.9005" y="522.032">
    <tspan x="257.9005" y="522.032">P</tspan>
   </text>
</g>
<g transform="matrix(1.23366,0,0,1.23366,95.45724,98.46344)">
<path d="M254.0534,509.4052H270.7209V526.0727H254.0534z" fill="#fff" stroke="#000" stroke-linecap="round" stroke-width="2"/>
<path d="m270.812,508.8121 2.9042,6.1872" fill="none" stroke="#000" stroke-width="2"/>
<path d="m270.8047,526.2904 2.9042,6.1872" fill="none" stroke="#000" stroke-width="2"/>
<path d="m253.9657,526.6361 2.9042,6.1872" fill="none" stroke="#000" stroke-width="2"/>
</g>
<text font-family="Bitstream Vera Sans" font-size="15.345" x="414.1507" y="742.6522">
   <tspan x="414.1507" y="742.6522">à </tspan>
  </text>
<g transform="matrix(1.23366,0,0,1.23366,106.68673,129.64878)">
<path d="M254.0534,509.4052H270.7209V526.0727H254.0534z" fill="#fff" stroke="#000" stroke-linecap="round" stroke-width="2"/>
<path d="m270.812,508.8121 2.9042,6.1872" fill="none" stroke="#000" stroke-width="2"/>
<path d="m270.8047,526.2904 2.9042,6.1872" fill="none" stroke="#000" stroke-width="2"/>
<path d="m253.9657,526.6361 2.9042,6.1872" fill="none" stroke="#000" stroke-width="2"/>
</g>
<text font-family="Bitstream Vera Sans" font-size="15.345" x="423.5972" y="773.6603">
   <tspan x="423.5972" y="773.6603">^ </tspan>
  </text>
<g transform="matrix(1.23366,0,0,1.23366,122.03363,98.46344)">
<path d="M254.0534,509.4052H270.7209V526.0727H254.0534z" fill="#fff" stroke="#000" stroke-linecap="round" stroke-width="2"/>
<path d="m270.812,508.8121 2.9042,6.1872" fill="none" stroke="#000" stroke-width="2"/>
<path d="m270.8047,526.2904 2.9042,6.1872" fill="none" stroke="#000" stroke-width="2"/>
<path d="m253.9657,526.6361 2.9042,6.1872" fill="none" stroke="#000" stroke-width="2"/>
</g>
<text font-family="Bitstream Vera Sans" font-size="15.345" x="442.4975" y="742.475">
   <tspan x="442.4975" y="742.475">)</tspan>
  </text>
<g transform="matrix(1.23366,0,0,1.23366,131.81046,129.64878)">
<path d="M254.0534,509.4052H270.7209V526.0727H254.0534z" fill="#fff" stroke="#000" stroke-linecap="round" stroke-width="2"/>
<path d="m270.812,508.8121 2.9042,6.1872" fill="none" stroke="#000" stroke-width="2"/>
<path d="m270.8047,526.2904 2.9042,6.1872" fill="none" stroke="#000" stroke-width="2"/>
<path d="m253.9657,526.6361 2.9042,6.1872" fill="none" stroke="#000" stroke-width="2"/>
<text font-family="Bitstream Vera Sans" font-size="12.439" x="257.9005" y="522.032">
    <tspan x="257.9005" y="522.032">$</tspan>
   </text>
</g>
<g transform="matrix(1.23366,0,0,1.23366,-139.87873,162.61896)">
<path d="M254.0534,509.4052H270.7209V526.0727H254.0534z" fill="#fff" stroke="#000" stroke-linecap="round" stroke-width="2"/>
<path d="m270.812,508.8121 2.9042,6.1872" fill="none" stroke="#000" stroke-width="2"/>
<path d="m270.8047,526.2904 2.9042,6.1872" fill="none" stroke="#000" stroke-width="2"/>
<path d="m253.9657,526.6361 2.9042,6.1872" fill="none" stroke="#000" stroke-width="2"/>
<text font-family="Bitstream Vera Sans" font-size="12.439" x="257.9005" y="522.032">
    <tspan x="257.9005" y="522.032">Q</tspan>
   </text>
</g>
<g transform="matrix(1.23366,0,0,1.23366,-114.75508,162.61896)">
<path d="M254.0534,509.4052H270.7209V526.0727H254.0534z" fill="#fff" stroke="#000" stroke-linecap="round" stroke-width="2"/>
<path d="m270.812,508.8121 2.9042,6.1872" fill="none" stroke="#000" stroke-width="2"/>
<path d="m270.8047,526.2904 2.9042,6.1872" fill="none" stroke="#000" stroke-width="2"/>
<path d="m253.9657,526.6361 2.9042,6.1872" fill="none" stroke="#000" stroke-width="2"/>
<text font-family="Bitstream Vera Sans" font-size="12.439" x="257.9005" y="522.032">
    <tspan x="257.9005" y="522.032">S</tspan>
   </text>
</g>
<g transform="matrix(1.23366,0,0,1.23366,-89.63138,162.61896)">
<path d="M254.0534,509.4052H270.7209V526.0727H254.0534z" fill="#fff" stroke="#000" stroke-linecap="round" stroke-width="2"/>
<path d="m270.812,508.8121 2.9042,6.1872" fill="none" stroke="#000" stroke-width="2"/>
<path d="m270.8047,526.2904 2.9042,6.1872" fill="none" stroke="#000" stroke-width="2"/>
<path d="m253.9657,526.6361 2.9042,6.1872" fill="none" stroke="#000" stroke-width="2"/>
<text font-family="Bitstream Vera Sans" font-size="12.439" x="257.9005" y="522.032">
    <tspan x="257.9005" y="522.032">D</tspan>
   </text>
</g>
<g transform="matrix(1.23366,0,0,1.23366,-64.50767,162.61896)">
<path d="M254.0534,509.4052H270.7209V526.0727H254.0534z" fill="#fff" stroke="#000" stroke-linecap="round" stroke-width="2"/>
<path d="m270.812,508.8121 2.9042,6.1872" fill="none" stroke="#000" stroke-width="2"/>
<path d="m270.8047,526.2904 2.9042,6.1872" fill="none" stroke="#000" stroke-width="2"/>
<path d="m253.9657,526.6361 2.9042,6.1872" fill="none" stroke="#000" stroke-width="2"/>
<text font-family="Bitstream Vera Sans" font-size="12.439" x="257.9005" y="522.032">
    <tspan x="257.9005" y="522.032">F</tspan>
   </text>
</g>
<g transform="matrix(1.23366,0,0,1.23366,-39.38401,162.61896)">
<path d="M254.0534,509.4052H270.7209V526.0727H254.0534z" fill="#fff" stroke="#000" stroke-linecap="round" stroke-width="2"/>
<path d="m270.812,508.8121 2.9042,6.1872" fill="none" stroke="#000" stroke-width="2"/>
<path d="m270.8047,526.2904 2.9042,6.1872" fill="none" stroke="#000" stroke-width="2"/>
<path d="m253.9657,526.6361 2.9042,6.1872" fill="none" stroke="#000" stroke-width="2"/>
<text font-family="Bitstream Vera Sans" font-size="12.439" x="257.9005" y="522.032">
    <tspan x="257.9005" y="522.032">G</tspan>
   </text>
</g>
<g transform="matrix(1.23366,0,0,1.23366,-14.26031,162.61896)">
<path d="M254.0534,509.4052H270.7209V526.0727H254.0534z" fill="#fff" stroke="#000" stroke-linecap="round" stroke-width="2"/>
<path d="m270.812,508.8121 2.9042,6.1872" fill="none" stroke="#000" stroke-width="2"/>
<path d="m270.8047,526.2904 2.9042,6.1872" fill="none" stroke="#000" stroke-width="2"/>
<path d="m253.9657,526.6361 2.9042,6.1872" fill="none" stroke="#000" stroke-width="2"/>
<text font-family="Bitstream Vera Sans" font-size="12.439" x="257.9005" y="522.032">
    <tspan x="257.9005" y="522.032">H</tspan>
   </text>
</g>
<g transform="matrix(1.23366,0,0,1.23366,10.86334,162.61896)">
<path d="M254.0534,509.4052H270.7209V526.0727H254.0534z" fill="#fff" stroke="#000" stroke-linecap="round" stroke-width="2"/>
<path d="m270.812,508.8121 2.9042,6.1872" fill="none" stroke="#000" stroke-width="2"/>
<path d="m270.8047,526.2904 2.9042,6.1872" fill="none" stroke="#000" stroke-width="2"/>
<path d="m253.9657,526.6361 2.9042,6.1872" fill="none" stroke="#000" stroke-width="2"/>
<text font-family="Bitstream Vera Sans" font-size="12.439" x="257.9005" y="522.032">
    <tspan x="257.9005" y="522.032">J</tspan>
   </text>
</g>
<g transform="matrix(1.23366,0,0,1.23366,35.98705,162.61896)">
<path d="M254.0534,509.4052H270.7209V526.0727H254.0534z" fill="#fff" stroke="#000" stroke-linecap="round" stroke-width="2"/>
<path d="m270.812,508.8121 2.9042,6.1872" fill="none" stroke="#000" stroke-width="2"/>
<path d="m270.8047,526.2904 2.9042,6.1872" fill="none" stroke="#000" stroke-width="2"/>
<path d="m253.9657,526.6361 2.9042,6.1872" fill="none" stroke="#000" stroke-width="2"/>
<text font-family="Bitstream Vera Sans" font-size="12.439" x="257.9005" y="522.032">
    <tspan x="257.9005" y="522.032">K</tspan>
   </text>
</g>
<g transform="matrix(1.23366,0,0,1.23366,61.11075,162.61896)">
<path d="M254.0534,509.4052H270.7209V526.0727H254.0534z" fill="#fff" stroke="#000" stroke-linecap="round" stroke-width="2"/>
<path d="m270.812,508.8121 2.9042,6.1872" fill="none" stroke="#000" stroke-width="2"/>
<path d="m270.8047,526.2904 2.9042,6.1872" fill="none" stroke="#000" stroke-width="2"/>
<path d="m253.9657,526.6361 2.9042,6.1872" fill="none" stroke="#000" stroke-width="2"/>
<text font-family="Bitstream Vera Sans" font-size="12.439" x="257.9005" y="522.032">
    <tspan x="257.9005" y="522.032">L</tspan>
   </text>
</g>
<g transform="matrix(1.23366,0,0,1.23366,86.23439,162.61896)">
<path d="M254.0534,509.4052H270.7209V526.0727H254.0534z" fill="#fff" stroke="#000" stroke-linecap="round" stroke-width="2"/>
<path d="m270.812,508.8121 2.9042,6.1872" fill="none" stroke="#000" stroke-width="2"/>
<path d="m270.8047,526.2904 2.9042,6.1872" fill="none" stroke="#000" stroke-width="2"/>
<path d="m253.9657,526.6361 2.9042,6.1872" fill="none" stroke="#000" stroke-width="2"/>
<text font-family="Bitstream Vera Sans" font-size="12.439" x="257.9005" y="522.032">
    <tspan x="257.9005" y="522.032">M</tspan>
   </text>
</g>
<g transform="matrix(1.23366,0,0,1.23366,111.35808,162.61896)">
<path d="M254.0534,509.4052H270.7209V526.0727H254.0534z" fill="#fff" stroke="#000" stroke-linecap="round" stroke-width="2"/>
<path d="m270.812,508.8121 2.9042,6.1872" fill="none" stroke="#000" stroke-width="2"/>
<path d="m270.8047,526.2904 2.9042,6.1872" fill="none" stroke="#000" stroke-width="2"/>
<path d="m253.9657,526.6361 2.9042,6.1872" fill="none" stroke="#000" stroke-width="2"/>
</g>
<text font-family="Bitstream Vera Sans" font-size="15.345" x="429.5205" y="807.8826">
   <tspan x="429.5205" y="807.8826">Ù</tspan>
  </text>
<g transform="matrix(1.23366,0,0,1.23366,136.48178,162.61896)">
<path d="M254.0534,509.4052H270.7209V526.0727H254.0534z" fill="#fff" stroke="#000" stroke-linecap="round" stroke-width="2"/>
<path d="m270.812,508.8121 2.9042,6.1872" fill="none" stroke="#000" stroke-width="2"/>
<path d="m270.8047,526.2904 2.9042,6.1872" fill="none" stroke="#000" stroke-width="2"/>
<path d="m253.9657,526.6361 2.9042,6.1872" fill="none" stroke="#000" stroke-width="2"/>
</g>
<text font-family="Bitstream Vera Sans" font-size="15.345" x="456.3968" y="806.6305">
   <tspan x="456.3968" y="806.6305">*</tspan>
  </text>
<g transform="matrix(1.23366,0,0,1.23366,-132.90034,195.2229)">
<path d="M254.0534,509.4052H270.7209V526.0727H254.0534z" fill="#fff" stroke="#000" stroke-linecap="round" stroke-width="2"/>
<path d="m270.812,508.8121 2.9042,6.1872" fill="none" stroke="#000" stroke-width="2"/>
<path d="m270.8047,526.2904 2.9042,6.1872" fill="none" stroke="#000" stroke-width="2"/>
<path d="m253.9657,526.6361 2.9042,6.1872" fill="none" stroke="#000" stroke-width="2"/>
<text font-family="Bitstream Vera Sans" font-size="12.439" x="257.9005" y="522.032">
    <tspan x="257.9005" y="522.032">&lt;</tspan>
   </text>
</g>
<g transform="matrix(1.23366,0,0,1.23366,-105.77366,195.2229)">
<path d="M254.0534,509.4052H270.7209V526.0727H254.0534z" fill="#fff" stroke="#000" stroke-linecap="round" stroke-width="2"/>
<path d="m270.812,508.8121 2.9042,6.1872" fill="none" stroke="#000" stroke-width="2"/>
<path d="m270.8047,526.2904 2.9042,6.1872" fill="none" stroke="#000" stroke-width="2"/>
<path d="m253.9657,526.6361 2.9042,6.1872" fill="none" stroke="#000" stroke-width="2"/>
<text font-family="Bitstream Vera Sans" font-size="12.439" x="257.9005" y="522.032">
    <tspan x="257.9005" y="522.032">W</tspan>
   </text>
</g>
<g transform="matrix(1.23366,0,0,1.23366,-80.64997,195.2229)">
<path d="M254.0534,509.4052H270.7209V526.0727H254.0534z" fill="#fff" stroke="#000" stroke-linecap="round" stroke-width="2"/>
<path d="m270.812,508.8121 2.9042,6.1872" fill="none" stroke="#000" stroke-width="2"/>
<path d="m270.8047,526.2904 2.9042,6.1872" fill="none" stroke="#000" stroke-width="2"/>
<path d="m253.9657,526.6361 2.9042,6.1872" fill="none" stroke="#000" stroke-width="2"/>
<text font-family="Bitstream Vera Sans" font-size="12.439" x="257.9005" y="522.032">
    <tspan x="257.9005" y="522.032">X</tspan>
   </text>
</g>
<g transform="matrix(1.23366,0,0,1.23366,-55.52624,195.2229)">
<path d="M254.0534,509.4052H270.7209V526.0727H254.0534z" fill="#fff" stroke="#000" stroke-linecap="round" stroke-width="2"/>
<path d="m270.812,508.8121 2.9042,6.1872" fill="none" stroke="#000" stroke-width="2"/>
<path d="m270.8047,526.2904 2.9042,6.1872" fill="none" stroke="#000" stroke-width="2"/>
<path d="m253.9657,526.6361 2.9042,6.1872" fill="none" stroke="#000" stroke-width="2"/>
<text font-family="Bitstream Vera Sans" font-size="12.439" x="257.9005" y="522.032">
    <tspan x="257.9005" y="522.032">C</tspan>
   </text>
</g>
<g transform="matrix(1.23366,0,0,1.23366,-30.40259,195.2229)">
<path d="M254.0534,509.4052H270.7209V526.0727H254.0534z" fill="#fff" stroke="#000" stroke-linecap="round" stroke-width="2"/>
<path d="m270.812,508.8121 2.9042,6.1872" fill="none" stroke="#000" stroke-width="2"/>
<path d="m270.8047,526.2904 2.9042,6.1872" fill="none" stroke="#000" stroke-width="2"/>
<path d="m253.9657,526.6361 2.9042,6.1872" fill="none" stroke="#000" stroke-width="2"/>
<text font-family="Bitstream Vera Sans" font-size="12.439" x="257.9005" y="522.032">
    <tspan x="257.9005" y="522.032">V</tspan>
   </text>
</g>
<g transform="matrix(1.23366,0,0,1.23366,-5.27891,195.2229)">
<path d="M254.0534,509.4052H270.7209V526.0727H254.0534z" fill="#fff" stroke="#000" stroke-linecap="round" stroke-width="2"/>
<path d="m270.812,508.8121 2.9042,6.1872" fill="none" stroke="#000" stroke-width="2"/>
<path d="m270.8047,526.2904 2.9042,6.1872" fill="none" stroke="#000" stroke-width="2"/>
<path d="m253.9657,526.6361 2.9042,6.1872" fill="none" stroke="#000" stroke-width="2"/>
<text font-family="Bitstream Vera Sans" font-size="12.439" x="257.9005" y="522.032">
    <tspan x="257.9005" y="522.032">B</tspan>
   </text>
</g>
<g transform="matrix(1.23366,0,0,1.23366,19.84476,195.2229)">
<path d="M254.0534,509.4052H270.7209V526.0727H254.0534z" fill="#fff" stroke="#000" stroke-linecap="round" stroke-width="2"/>
<path d="m270.812,508.8121 2.9042,6.1872" fill="none" stroke="#000" stroke-width="2"/>
<path d="m270.8047,526.2904 2.9042,6.1872" fill="none" stroke="#000" stroke-width="2"/>
<path d="m253.9657,526.6361 2.9042,6.1872" fill="none" stroke="#000" stroke-width="2"/>
<text font-family="Bitstream Vera Sans" font-size="12.439" x="257.9005" y="522.032">
    <tspan x="257.9005" y="522.032">N</tspan>
   </text>
</g>
<g transform="matrix(1.23366,0,0,1.23366,44.96847,195.2229)">
<path d="M254.0534,509.4052H270.7209V526.0727H254.0534z" fill="#fff" stroke="#000" stroke-linecap="round" stroke-width="2"/>
<path d="m270.812,508.8121 2.9042,6.1872" fill="none" stroke="#000" stroke-width="2"/>
<path d="m270.8047,526.2904 2.9042,6.1872" fill="none" stroke="#000" stroke-width="2"/>
<path d="m253.9657,526.6361 2.9042,6.1872" fill="none" stroke="#000" stroke-width="2"/>
<text font-family="Bitstream Vera Sans" font-size="12.439" x="257.9005" y="522.032">
    <tspan x="257.9005" y="522.032">,</tspan>
   </text>
</g>
<g transform="matrix(1.23366,0,0,1.23366,70.09217,195.2229)">
<path d="M254.0534,509.4052H270.7209V526.0727H254.0534z" fill="#fff" stroke="#000" stroke-linecap="round" stroke-width="2"/>
<path d="m270.812,508.8121 2.9042,6.1872" fill="none" stroke="#000" stroke-width="2"/>
<path d="m270.8047,526.2904 2.9042,6.1872" fill="none" stroke="#000" stroke-width="2"/>
<path d="m253.9657,526.6361 2.9042,6.1872" fill="none" stroke="#000" stroke-width="2"/>
<text font-family="Bitstream Vera Sans" font-size="12.439" x="257.9005" y="522.032">
    <tspan x="257.9005" y="522.032">;</tspan>
   </text>
</g>
<g transform="matrix(1.23366,0,0,1.23366,95.21581,195.2229)">
<path d="M254.0534,509.4052H270.7209V526.0727H254.0534z" fill="#fff" stroke="#000" stroke-linecap="round" stroke-width="2"/>
<path d="m270.812,508.8121 2.9042,6.1872" fill="none" stroke="#000" stroke-width="2"/>
<path d="m270.8047,526.2904 2.9042,6.1872" fill="none" stroke="#000" stroke-width="2"/>
<path d="m253.9657,526.6361 2.9042,6.1872" fill="none" stroke="#000" stroke-width="2"/>
<text font-family="Bitstream Vera Sans" font-size="12.439" x="257.9005" y="522.032">
    <tspan x="257.9005" y="522.032">:</tspan>
   </text>
</g>
<g transform="matrix(1.23366,0,0,1.23366,120.33948,195.2229)">
<path d="M254.0534,509.4052H270.7209V526.0727H254.0534z" fill="#fff" stroke="#000" stroke-linecap="round" stroke-width="2"/>
<path d="m270.812,508.8121 2.9042,6.1872" fill="none" stroke="#000" stroke-width="2"/>
<path d="m270.8047,526.2904 2.9042,6.1872" fill="none" stroke="#000" stroke-width="2"/>
<path d="m253.9657,526.6361 2.9042,6.1872" fill="none" stroke="#000" stroke-width="2"/>
<text font-family="Bitstream Vera Sans" font-size="12.439" x="257.9005" y="522.032">
    <tspan x="257.9005" y="522.032">!</tspan>
   </text>
</g>
<g transform="matrix(1.98288,0,0,1.98288,-338.34956,-302.91137)">
<path d="m258.3749,583.3195 1.8068,3.8494" fill="#fff" stroke="#000" stroke-width="1.2443"/>
<path d="M244.0198,583.6885H258.239V594.0583H244.0198z" fill="#fff" stroke="#000" stroke-linecap="round" stroke-width="1.2443"/>
<path d="m258.3703,594.1937 1.8068,3.8494" fill="#fff" stroke="#000" stroke-width="1.2443"/>
<path d="m243.9653,594.4088 1.8069,3.8494" fill="#fff" stroke="#000" stroke-width="1.2443"/>
<text font-family="Bitstream Vera Sans" font-size="4.162" x="247.1499" y="590.0771">
    <tspan x="247.1499" y="590.0771">Ctrl</tspan>
   </text>
</g>
<path d="M258.9197,854.3425H366.9411V874.9046H258.9197z" fill="#fff" stroke="#000" stroke-linecap="round" stroke-width="2.4673"/>
<path d="m367.0536,853.6109 3.5828,7.6329" fill="none" stroke="#000" stroke-width="2.4673"/>
<path d="m367.0445,875.1733 3.5828,7.6329" fill="none" stroke="#000" stroke-width="2.4673"/>
<path d="m258.8116,875.5997 3.5828,7.6329" fill="none" stroke="#000" stroke-width="2.4673"/>
<g transform="matrix(1.23366,0,0,1.23366,-169.89794,64.06155)">
<path d="M254.0534,509.4052H270.7209V526.0727H254.0534z" fill="#fff" stroke="#000" stroke-linecap="round" stroke-width="2"/>
<path d="m270.812,508.8121 2.9042,6.1872" fill="none" stroke="#000" stroke-width="2"/>
<path d="m270.8047,526.2904 2.9042,6.1872" fill="none" stroke="#000" stroke-width="2"/>
<path d="m253.9657,526.6361 2.9042,6.1872" fill="none" stroke="#000" stroke-width="2"/>
</g>
<text font-family="Bitstream Vera Sans" font-size="9.628" x="145.6388" y="706.0295">
   <tspan x="145.6388" y="706.0295">Esc</tspan>
  </text>
<path d="m211.251,853.7438 3.5828,7.6329" fill="#fff" stroke="#000" stroke-width="2.4673"/>
<path d="M182.7866,854.4754H210.9816V875.0375H182.7866z" fill="#fff" stroke="#000" stroke-linecap="round" stroke-width="2.4673"/>
<path d="m211.242,875.3061 3.5828,7.6329" fill="#fff" stroke="#000" stroke-width="2.4673"/>
<path d="m182.6784,875.7325 3.5828,7.6329" fill="#fff" stroke="#000" stroke-width="2.4673"/>
<g transform="matrix(1.98288,0,0,1.98288,-264.80512,-302.91137)">
<path d="m258.3749,583.3195 1.8068,3.8494" fill="#fff" stroke="#000" stroke-width="1.2443"/>
<path d="M244.0198,583.6885H258.239V594.0583H244.0198z" fill="#fff" stroke="#000" stroke-linecap="round" stroke-width="1.2443"/>
<path d="m258.3703,594.1937 1.8068,3.8494" fill="#fff" stroke="#000" stroke-width="1.2443"/>
<path d="m243.9653,594.4088 1.8069,3.8494" fill="#fff" stroke="#000" stroke-width="1.2443"/>
<text font-family="Bitstream Vera Sans" font-size="4.162" x="248.0338" y="590.2034">
    <tspan x="248.0338" y="590.2034">Alt</tspan>
   </text>
</g>
<g transform="matrix(1.98288,0,0,1.98288,-107.94477,-303.16066)">
<path d="m258.3749,583.3195 1.8068,3.8494" fill="#fff" stroke="#000" stroke-width="1.2443"/>
<path d="M244.0198,583.6885H258.239V594.0583H244.0198z" fill="#fff" stroke="#000" stroke-linecap="round" stroke-width="1.2443"/>
<path d="m258.3703,594.1937 1.8068,3.8494" fill="#fff" stroke="#000" stroke-width="1.2443"/>
<path d="m243.9653,594.4088 1.8069,3.8494" fill="#fff" stroke="#000" stroke-width="1.2443"/>
<text font-family="Bitstream Vera Sans" font-size="4.162" x="245.1296" y="590.0771">
    <tspan x="245.1296" y="590.0771">Alt Gr</tspan>
   </text>
</g>
<path d="m439.9095,853.4945 3.5828,7.6329" fill="#fff" stroke="#000" stroke-width="2.4673"/>
<path d="M411.4451,854.2262H439.6401V874.7883H411.4451z" fill="#fff" stroke="#000" stroke-linecap="round" stroke-width="2.4673"/>
<path d="m439.9005,875.0568 3.5828,7.6329" fill="#fff" stroke="#000" stroke-width="2.4673"/>
<path d="m411.337,875.4832 3.5828,7.6329" fill="#fff" stroke="#000" stroke-width="2.4673"/>
<g transform="matrix(1.98288,0,0,1.98288,-36.89144,-303.16066)">
<path d="m258.3749,583.3195 1.8068,3.8494" fill="#fff" stroke="#000" stroke-width="1.2443"/>
<path d="M244.0198,583.6885H258.239V594.0583H244.0198z" fill="#fff" stroke="#000" stroke-linecap="round" stroke-width="1.2443"/>
<path d="m258.3703,594.1937 1.8068,3.8494" fill="#fff" stroke="#000" stroke-width="1.2443"/>
<path d="m243.9653,594.4088 1.8069,3.8494" fill="#fff" stroke="#000" stroke-width="1.2443"/>
</g>
<g transform="matrix(1.98288,0,0,1.98288,-1.36474,-303.16066)">
<path d="m258.3749,583.3195 1.8068,3.8494" fill="#fff" stroke="#000" stroke-width="1.2443"/>
<path d="M244.0198,583.6885H258.239V594.0583H244.0198z" fill="#fff" stroke="#000" stroke-linecap="round" stroke-width="1.2443"/>
<path d="m258.3703,594.1937 1.8068,3.8494" fill="#fff" stroke="#000" stroke-width="1.2443"/>
<path d="m243.9653,594.4088 1.8069,3.8494" fill="#fff" stroke="#000" stroke-width="1.2443"/>
<text font-family="Bitstream Vera Sans" font-size="4.162" x="247.1499" y="590.0771">
    <tspan x="247.1499" y="590.0771">Ctrl</tspan>
   </text>
</g>
<g transform="matrix(1.23366,0,0,1.23366,148.60994,98.71386)">
<path d="M254.0534,509.4052H270.7209V526.0727H254.0534z" fill="#fff" stroke="#000" stroke-linecap="round" stroke-width="2"/>
<path d="m270.812,508.8121 2.9042,6.1872" fill="none" stroke="#000" stroke-width="2"/>
<path d="m270.8047,526.2904 2.9042,6.1872" fill="none" stroke="#000" stroke-width="2"/>
<path d="m253.9657,526.6361 2.9042,6.1872" fill="none" stroke="#000" stroke-width="2"/>
</g>
<text font-family="Bitstream Vera Sans" font-size="15.345" x="465.5204" y="742.7255">
   <tspan x="465.5204" y="742.7255">=</tspan>
  </text>
<g transform="matrix(1.23366,0,0,1.23366,175.18626,98.96421)">
<path d="M254.0534,509.4052H270.7209V526.0727H254.0534z" fill="#fff" stroke="#000" stroke-linecap="round" stroke-width="2"/>
<path d="m270.812,508.8121 2.9042,6.1872" fill="none" stroke="#000" stroke-width="2"/>
<path d="m270.8047,526.2904 2.9042,6.1872" fill="none" stroke="#000" stroke-width="2"/>
<path d="m253.9657,526.6361 2.9042,6.1872" fill="none" stroke="#000" stroke-width="2"/>
</g>
<g transform="matrix(1.98288,0,0,1.98288,-323.06309,-346.73137)">
<path d="m412.016,546.9702 4.9876,0" fill="none" stroke="#000"/>
<path d="m414.2888,544.9499-2.6517,1.9572 2.2729,2.2097" fill="none" stroke="#000"/>
</g>
<g transform="matrix(1.98288,0,0,1.98288,-319.29486,-346.90842)">
<path d="m398.6427,557.4047 20.9055,0 0,28.2269-14.2577,-.1927-.1605,-17.6721-6.4872,.008 0,-10.3698z" fill="#fff" stroke="#000" stroke-linecap="round" stroke-width="1.2443"/>
<path d="m419.5156,557.0357 1.8069,3.8494" fill="none" stroke="#000" stroke-width="1.2443"/>
<path d="m419.5111,585.4099 1.8069,3.8494" fill="none" stroke="#000" stroke-width="1.2443"/>
<path d="m398.856,568.125 1.8069,3.8494" fill="none" stroke="#000" stroke-width="1.2443"/>
<path d="m405.4359,585.6161 1.8069,3.8494" fill="none" stroke="#000" stroke-width="1.2443"/>
</g>
<g transform="matrix(1.98288,0,0,1.98288,-325.62943,-298.72158)">
<path d="m412.016,546.9702 6.3766,0 0,-3.2514" fill="none" stroke="#000"/>
<path d="m414.2888,544.9499-2.6517,1.9572 2.2729,2.2097" fill="none" stroke="#000"/>
</g>
<path d="m512.5461,823.3126 3.5828,7.6329" fill="#fff" stroke="#000" stroke-width="2.4673"/>
<path d="M461.1722,824.0439H512.4019V844.6061H461.1722z" fill="#fff" stroke="#000" stroke-linecap="round" stroke-width="2.4673"/>
<path d="m512.5371,844.8749 3.5828,7.6329" fill="#fff" stroke="#000" stroke-width="2.4673"/>
<path d="m461.0641,845.3013 3.5828,7.6329" fill="#fff" stroke="#000" stroke-width="2.4673"/>
<path d="m173.1601,822.8118 3.5828,7.6329" fill="#fff" stroke="#000" stroke-width="2.4673"/>
<path d="M144.6957,823.5433H172.8907V844.1054H144.6957z" fill="#fff" stroke="#000" stroke-linecap="round" stroke-width="2.4673"/>
<path d="m173.1511,844.3742 3.5828,7.6329" fill="#fff" stroke="#000" stroke-width="2.4673"/>
<path d="m144.5876,844.8006 3.5828,7.6329" fill="#fff" stroke="#000" stroke-width="2.4673"/>
<path d="m486.8596,830.5646-8.0128,3.9407 5.3419,0 .0874,3.4153 5.3419,0-.0874,-3.4153 5.3419,0-8.0128,-3.9407z" fill="none" stroke="#000" stroke-width="1.3871"/>
<path d="m158.6622,829.9386-8.0128,3.9407 5.3419,0 .0875,3.4153 5.3419,0-.0874,-3.4153 5.3419,0-8.0129,-3.9407z" fill="none" stroke="#000" stroke-width="1.3871"/>
<g transform="matrix(1.23366,0,0,1.23366,-168.41268,162.32512)">
<path d="M254.0534,509.4052H270.7209V526.0727H254.0534z" fill="#fff" stroke="#000" stroke-linecap="round" stroke-width="2"/>
<path d="m270.812,508.8121 2.9042,6.1872" fill="none" stroke="#000" stroke-width="2"/>
<path d="m270.8047,526.2904 2.9042,6.1872" fill="none" stroke="#000" stroke-width="2"/>
<path d="m253.9657,526.6361 2.9042,6.1872" fill="none" stroke="#000" stroke-width="2"/>
</g>
<g transform="matrix(1.23366,0,0,1.23366,-170.00607,129.9262)">
<path d="M254.0534,509.4052H270.7209V526.0727H254.0534z" fill="#fff" stroke="#000" stroke-linecap="round" stroke-width="2"/>
<path d="m270.812,508.8121 2.9042,6.1872" fill="none" stroke="#000" stroke-width="2"/>
<path d="m270.8047,526.2904 2.9042,6.1872" fill="none" stroke="#000" stroke-width="2"/>
<path d="m253.9657,526.6361 2.9042,6.1872" fill="none" stroke="#000" stroke-width="2"/>
</g>
<g transform="matrix(1.98288,0,0,1.98288,-322.49973,-346.60617)">
<g transform="matrix(.63686,0,0,.63686,-24.61476,212.39054)">
<path d="m412.016,546.9702 8.6179,0" fill="none" stroke="#000"/>
<path d="m414.2888,544.9499-2.6517,1.9572 2.2729,2.2097" fill="none" stroke="#000"/>
</g>
<path d="m236.8176,559.1459 0,3.2699" fill="none" stroke="#000" stroke-width=".5036"/>
</g>
<g transform="matrix(-1.98288,0,0,1.98288,629.1975,-341.12918)">
<g transform="matrix(.63686,0,0,.63686,-24.61476,212.39054)">
<path d="m412.016,546.9702 8.6179,0" fill="none" stroke="#000"/>
<path d="m414.2888,544.9499-2.6517,1.9572 2.2729,2.2097" fill="none" stroke="#000"/>
</g>
<path d="m236.8176,559.1459 0,3.2699" fill="none" stroke="#000" stroke-width=".5036"/>
</g>
<path d="m150.0868,799.8783 9.3892,0c0,0 .854,8.2651-4.8198,8.1998-5.5181,-.0634-4.5694,-8.1998-4.5694,-8.1998z" fill="none" stroke="#000" stroke-width="1.9829"/>
<path d="m152.8409,800.0035c-3.0552,-7.3895 6.9531,-7.5237 3.8809,0" fill="none" stroke="#000" stroke-width="1.9829"/>
<path d="m154.5936,800.6294 0,3.8182" fill="none" stroke="#000" stroke-width=".9762"/>
<g transform="matrix(1.98288,0,0,1.98288,-322.00082,-343.73755)">
<g transform="matrix(.62216,0,0,.62216,96.25489,204.54105)">
<path d="M254.0534,509.4052H270.7209V526.0727H254.0534z" fill="#fff" stroke="#000" stroke-linecap="round" stroke-width="2"/>
<path d="m270.812,508.8121 2.9042,6.1872" fill="none" stroke="#000" stroke-width="2"/>
<path d="m270.8047,526.2904 2.9042,6.1872" fill="none" stroke="#000" stroke-width="2"/>
<path d="m253.9657,526.6361 2.9042,6.1872" fill="none" stroke="#000" stroke-width="2"/>
</g>
<text font-family="Bitstream Vera Sans" font-size="5.293" x="256.235" y="528.6144">
     <tspan x="256.235" y="528.6144">F1</tspan>
    </text>
</g>
<g transform="matrix(1.98288,0,0,1.98288,-296.77439,-343.73755)">
<g transform="matrix(.62216,0,0,.62216,96.25489,204.54105)">
<path d="M254.0534,509.4052H270.7209V526.0727H254.0534z" fill="#fff" stroke="#000" stroke-linecap="round" stroke-width="2"/>
<path d="m270.812,508.8121 2.9042,6.1872" fill="none" stroke="#000" stroke-width="2"/>
<path d="m270.8047,526.2904 2.9042,6.1872" fill="none" stroke="#000" stroke-width="2"/>
<path d="m253.9657,526.6361 2.9042,6.1872" fill="none" stroke="#000" stroke-width="2"/>
</g>
<text font-family="Bitstream Vera Sans" font-size="5.293" x="256.235" y="528.6144">
     <tspan x="256.235" y="528.6144">F2</tspan>
    </text>
</g>
<g transform="matrix(1.98288,0,0,1.98288,-271.54792,-343.73755)">
<g transform="matrix(.62216,0,0,.62216,96.25489,204.54105)">
<path d="M254.0534,509.4052H270.7209V526.0727H254.0534z" fill="#fff" stroke="#000" stroke-linecap="round" stroke-width="2"/>
<path d="m270.812,508.8121 2.9042,6.1872" fill="none" stroke="#000" stroke-width="2"/>
<path d="m270.8047,526.2904 2.9042,6.1872" fill="none" stroke="#000" stroke-width="2"/>
<path d="m253.9657,526.6361 2.9042,6.1872" fill="none" stroke="#000" stroke-width="2"/>
</g>
<text font-family="Bitstream Vera Sans" font-size="5.293" x="256.235" y="528.6144">
     <tspan x="256.235" y="528.6144">F3</tspan>
    </text>
</g>
<g transform="matrix(1.98288,0,0,1.98288,-246.32142,-343.73755)">
<g transform="matrix(.62216,0,0,.62216,96.25489,204.54105)">
<path d="M254.0534,509.4052H270.7209V526.0727H254.0534z" fill="#fff" stroke="#000" stroke-linecap="round" stroke-width="2"/>
<path d="m270.812,508.8121 2.9042,6.1872" fill="none" stroke="#000" stroke-width="2"/>
<path d="m270.8047,526.2904 2.9042,6.1872" fill="none" stroke="#000" stroke-width="2"/>
<path d="m253.9657,526.6361 2.9042,6.1872" fill="none" stroke="#000" stroke-width="2"/>
</g>
<text font-family="Bitstream Vera Sans" font-size="5.293" x="256.235" y="528.6144">
     <tspan x="256.235" y="528.6144">F4</tspan>
    </text>
</g>
<g transform="matrix(1.98288,0,0,1.98288,-206.2621,-341.66397)">
<g transform="matrix(.62216,0,0,.62216,96.25489,204.54105)">
<path d="M254.0534,509.4052H270.7209V526.0727H254.0534z" fill="#fff" stroke="#000" stroke-linecap="round" stroke-width="2"/>
<path d="m270.812,508.8121 2.9042,6.1872" fill="none" stroke="#000" stroke-width="2"/>
<path d="m270.8047,526.2904 2.9042,6.1872" fill="none" stroke="#000" stroke-width="2"/>
<path d="m253.9657,526.6361 2.9042,6.1872" fill="none" stroke="#000" stroke-width="2"/>
</g>
<text font-family="Bitstream Vera Sans" font-size="5.293" x="256.235" y="528.6144">
     <tspan x="256.235" y="528.6144">F5</tspan>
    </text>
</g>
<g transform="matrix(1.98288,0,0,1.98288,-181.03567,-341.66397)">
<g transform="matrix(.62216,0,0,.62216,96.25489,204.54105)">
<path d="M254.0534,509.4052H270.7209V526.0727H254.0534z" fill="#fff" stroke="#000" stroke-linecap="round" stroke-width="2"/>
<path d="m270.812,508.8121 2.9042,6.1872" fill="none" stroke="#000" stroke-width="2"/>
<path d="m270.8047,526.2904 2.9042,6.1872" fill="none" stroke="#000" stroke-width="2"/>
<path d="m253.9657,526.6361 2.9042,6.1872" fill="none" stroke="#000" stroke-width="2"/>
</g>
<text font-family="Bitstream Vera Sans" font-size="5.293" x="256.235" y="528.6144">
     <tspan x="256.235" y="528.6144">F6</tspan>
    </text>
</g>
<g transform="matrix(1.98288,0,0,1.98288,-155.8092,-341.66397)">
<g transform="matrix(.62216,0,0,.62216,96.25489,204.54105)">
<path d="M254.0534,509.4052H270.7209V526.0727H254.0534z" fill="#fff" stroke="#000" stroke-linecap="round" stroke-width="2"/>
<path d="m270.812,508.8121 2.9042,6.1872" fill="none" stroke="#000" stroke-width="2"/>
<path d="m270.8047,526.2904 2.9042,6.1872" fill="none" stroke="#000" stroke-width="2"/>
<path d="m253.9657,526.6361 2.9042,6.1872" fill="none" stroke="#000" stroke-width="2"/>
</g>
<text font-family="Bitstream Vera Sans" font-size="5.293" x="256.235" y="528.6144">
     <tspan x="256.235" y="528.6144">F7</tspan>
    </text>
</g>
<g transform="matrix(1.98288,0,0,1.98288,-130.5827,-341.66397)">
<g transform="matrix(.62216,0,0,.62216,96.25489,204.54105)">
<path d="M254.0534,509.4052H270.7209V526.0727H254.0534z" fill="#fff" stroke="#000" stroke-linecap="round" stroke-width="2"/>
<path d="m270.812,508.8121 2.9042,6.1872" fill="none" stroke="#000" stroke-width="2"/>
<path d="m270.8047,526.2904 2.9042,6.1872" fill="none" stroke="#000" stroke-width="2"/>
<path d="m253.9657,526.6361 2.9042,6.1872" fill="none" stroke="#000" stroke-width="2"/>
</g>
<text font-family="Bitstream Vera Sans" font-size="5.293" x="256.235" y="528.6144">
     <tspan x="256.235" y="528.6144">F8</tspan>
    </text>
</g>
<g transform="matrix(1.98288,0,0,1.98288,-93.66258,-342.37214)">
<g transform="matrix(.62216,0,0,.62216,96.25489,204.54105)">
<path d="M254.0534,509.4052H270.7209V526.0727H254.0534z" fill="#fff" stroke="#000" stroke-linecap="round" stroke-width="2"/>
<path d="m270.812,508.8121 2.9042,6.1872" fill="none" stroke="#000" stroke-width="2"/>
<path d="m270.8047,526.2904 2.9042,6.1872" fill="none" stroke="#000" stroke-width="2"/>
<path d="m253.9657,526.6361 2.9042,6.1872" fill="none" stroke="#000" stroke-width="2"/>
</g>
<text font-family="Bitstream Vera Sans" font-size="5.293" x="256.235" y="528.6144">
    <tspan x="256.235" y="528.6144">F9</tspan>
   </text>
</g>
<g transform="matrix(1.23366,0,0,1.23366,122.42617,63.20915)">
<path d="M254.0534,509.4052H270.7209V526.0727H254.0534z" fill="#fff" stroke="#000" stroke-linecap="round" stroke-width="2"/>
<path d="m270.812,508.8121 2.9042,6.1872" fill="none" stroke="#000" stroke-width="2"/>
<path d="m270.8047,526.2904 2.9042,6.1872" fill="none" stroke="#000" stroke-width="2"/>
<path d="m253.9657,526.6361 2.9042,6.1872" fill="none" stroke="#000" stroke-width="2"/>
</g>
<text font-family="Bitstream Vera Sans" font-size="8.813" x="438.0428" y="705.2693">
   <tspan x="438.0428" y="705.2693">F10</tspan>
  </text>
<g transform="matrix(1.23366,0,0,1.23366,147.65265,63.20915)">
<path d="M254.0534,509.4052H270.7209V526.0727H254.0534z" fill="#fff" stroke="#000" stroke-linecap="round" stroke-width="2"/>
<path d="m270.812,508.8121 2.9042,6.1872" fill="none" stroke="#000" stroke-width="2"/>
<path d="m270.8047,526.2904 2.9042,6.1872" fill="none" stroke="#000" stroke-width="2"/>
<path d="m253.9657,526.6361 2.9042,6.1872" fill="none" stroke="#000" stroke-width="2"/>
</g>
<text font-family="Bitstream Vera Sans" font-size="8.146" x="464.7512" y="705.1594">
   <tspan x="464.7512" y="705.1594">F11</tspan>
  </text>
<g transform="matrix(1.23366,0,0,1.23366,172.87915,63.20915)">
<path d="M254.0534,509.4052H270.7209V526.0727H254.0534z" fill="#fff" stroke="#000" stroke-linecap="round" stroke-width="2"/>
<path d="m270.812,508.8121 2.9042,6.1872" fill="none" stroke="#000" stroke-width="2"/>
<path d="m270.8047,526.2904 2.9042,6.1872" fill="none" stroke="#000" stroke-width="2"/>
<path d="m253.9657,526.6361 2.9042,6.1872" fill="none" stroke="#000" stroke-width="2"/>
</g>
<text font-family="Bitstream Vera Sans" font-size="8.135" x="489.6246" y="705.4746">
   <tspan x="489.6246" y="705.4746">F12</tspan>
  </text>
<g transform="matrix(1.23366,0,0,1.23366,210.23905,62.13897)">
<path d="M254.0534,509.4052H270.7209V526.0727H254.0534z" fill="#fff" stroke="#000" stroke-linecap="round" stroke-width="2"/>
<path d="m270.812,508.8121 2.9042,6.1872" fill="none" stroke="#000" stroke-width="2"/>
<path d="m270.8047,526.2904 2.9042,6.1872" fill="none" stroke="#000" stroke-width="2"/>
<path d="m253.9657,526.6361 2.9042,6.1872" fill="none" stroke="#000" stroke-width="2"/>
</g>
<text font-family="Bitstream Vera Sans" font-size="5.663" x="533.608" y="699.8434">
   <tspan text-align="center" text-anchor="middle" x="533.608" y="699.8434">Impr</tspan>
   <tspan text-align="center" text-anchor="middle" x="533.608" y="706.9221">ecr</tspan>
  </text>
<g transform="matrix(1.23366,0,0,1.23366,235.27676,62.13897)">
<path d="M254.0534,509.4052H270.7209V526.0727H254.0534z" fill="#fff" stroke="#000" stroke-linecap="round" stroke-width="2"/>
<path d="m270.812,508.8121 2.9042,6.1872" fill="none" stroke="#000" stroke-width="2"/>
<path d="m270.8047,526.2904 2.9042,6.1872" fill="none" stroke="#000" stroke-width="2"/>
<path d="m253.9657,526.6361 2.9042,6.1872" fill="none" stroke="#000" stroke-width="2"/>
</g>
<text font-family="Bitstream Vera Sans" font-size="8.585" x="552.7409" y="703.726">
   <tspan x="552.7409" y="703.726">Arr</tspan>
  </text>
<g transform="matrix(1.23366,0,0,1.23366,260.31441,62.13897)">
<path d="M254.0534,509.4052H270.7209V526.0727H254.0534z" fill="#fff" stroke="#000" stroke-linecap="round" stroke-width="2"/>
<path d="m270.812,508.8121 2.9042,6.1872" fill="none" stroke="#000" stroke-width="2"/>
<path d="m270.8047,526.2904 2.9042,6.1872" fill="none" stroke="#000" stroke-width="2"/>
<path d="m253.9657,526.6361 2.9042,6.1872" fill="none" stroke="#000" stroke-width="2"/>
</g>
<text font-family="Bitstream Vera Sans" font-size="5.59" x="575.6786" y="702.5439">
   <tspan x="575.6786" y="702.5439">Pause</tspan>
  </text>
<g transform="matrix(1.23366,0,0,1.23366,211.24055,95.9597)">
<path d="M254.0534,509.4052H270.7209V526.0727H254.0534z" fill="#fff" stroke="#000" stroke-linecap="round" stroke-width="2"/>
<path d="m270.812,508.8121 2.9042,6.1872" fill="none" stroke="#000" stroke-width="2"/>
<path d="m270.8047,526.2904 2.9042,6.1872" fill="none" stroke="#000" stroke-width="2"/>
<path d="m253.9657,526.6361 2.9042,6.1872" fill="none" stroke="#000" stroke-width="2"/>
</g>
<text font-family="Bitstream Vera Sans" font-size="7.243" x="526.1922" y="737.3194">
   <tspan x="526.1922" y="737.3194">Inser</tspan>
  </text>
<g transform="matrix(1.23366,0,0,1.23366,236.27826,95.9597)">
<path d="M254.0534,509.4052H270.7209V526.0727H254.0534z" fill="#fff" stroke="#000" stroke-linecap="round" stroke-width="2"/>
<path d="m270.812,508.8121 2.9042,6.1872" fill="none" stroke="#000" stroke-width="2"/>
<path d="m270.8047,526.2904 2.9042,6.1872" fill="none" stroke="#000" stroke-width="2"/>
<path d="m253.9657,526.6361 2.9042,6.1872" fill="none" stroke="#000" stroke-width="2"/>
</g>
<g transform="matrix(1.23366,0,0,1.23366,261.31592,95.9597)">
<path d="M254.0534,509.4052H270.7209V526.0727H254.0534z" fill="#fff" stroke="#000" stroke-linecap="round" stroke-width="2"/>
<path d="m270.812,508.8121 2.9042,6.1872" fill="none" stroke="#000" stroke-width="2"/>
<path d="m270.8047,526.2904 2.9042,6.1872" fill="none" stroke="#000" stroke-width="2"/>
<path d="m253.9657,526.6361 2.9042,6.1872" fill="none" stroke="#000" stroke-width="2"/>
</g>
<text font-family="Bitstream Vera Sans" font-size="7.698" x="578.4764" y="736.3998">
   <tspan x="578.4764" y="736.3998">Pup</tspan>
  </text>
<g transform="matrix(1.23366,0,0,1.23366,211.74132,127.5072)">
<path d="M254.0534,509.4052H270.7209V526.0727H254.0534z" fill="#fff" stroke="#000" stroke-linecap="round" stroke-width="2"/>
<path d="m270.812,508.8121 2.9042,6.1872" fill="none" stroke="#000" stroke-width="2"/>
<path d="m270.8047,526.2904 2.9042,6.1872" fill="none" stroke="#000" stroke-width="2"/>
<path d="m253.9657,526.6361 2.9042,6.1872" fill="none" stroke="#000" stroke-width="2"/>
<text font-family="Bitstream Vera Sans" font-size="4.749" x="255.566" y="518.9636">
    <tspan x="255.566" y="518.9636">Suppr</tspan>
   </text>
</g>
<g transform="matrix(1.23366,0,0,1.23366,236.77901,127.5072)">
<path d="M254.0534,509.4052H270.7209V526.0727H254.0534z" fill="#fff" stroke="#000" stroke-linecap="round" stroke-width="2"/>
<path d="m270.812,508.8121 2.9042,6.1872" fill="none" stroke="#000" stroke-width="2"/>
<path d="m270.8047,526.2904 2.9042,6.1872" fill="none" stroke="#000" stroke-width="2"/>
<path d="m253.9657,526.6361 2.9042,6.1872" fill="none" stroke="#000" stroke-width="2"/>
</g>
<text font-family="Bitstream Vera Sans" font-size="8.232" x="554.8885" y="769.6196">
   <tspan x="554.8885" y="769.6196">Fin</tspan>
  </text>
<g transform="matrix(1.23366,0,0,1.23366,261.81668,127.5072)">
<path d="M254.0534,509.4052H270.7209V526.0727H254.0534z" fill="#fff" stroke="#000" stroke-linecap="round" stroke-width="2"/>
<path d="m270.812,508.8121 2.9042,6.1872" fill="none" stroke="#000" stroke-width="2"/>
<path d="m270.8047,526.2904 2.9042,6.1872" fill="none" stroke="#000" stroke-width="2"/>
<path d="m253.9657,526.6361 2.9042,6.1872" fill="none" stroke="#000" stroke-width="2"/>
</g>
<text font-family="Bitstream Vera Sans" font-size="7.379" x="579.2587" y="768.7214">
   <tspan x="579.2587" y="768.7214">Pdo</tspan>
  </text>
<g transform="matrix(1.23366,0,0,1.23366,208.73678,225.65496)">
<path d="M254.0534,509.4052H270.7209V526.0727H254.0534z" fill="#fff" stroke="#000" stroke-linecap="round" stroke-width="2"/>
<path d="m270.812,508.8121 2.9042,6.1872" fill="none" stroke="#000" stroke-width="2"/>
<path d="m270.8047,526.2904 2.9042,6.1872" fill="none" stroke="#000" stroke-width="2"/>
<path d="m253.9657,526.6361 2.9042,6.1872" fill="none" stroke="#000" stroke-width="2"/>
</g>
<g transform="matrix(1.23366,0,0,1.23366,233.77452,225.65496)">
<path d="M254.0534,509.4052H270.7209V526.0727H254.0534z" fill="#fff" stroke="#000" stroke-linecap="round" stroke-width="2"/>
<path d="m270.812,508.8121 2.9042,6.1872" fill="none" stroke="#000" stroke-width="2"/>
<path d="m270.8047,526.2904 2.9042,6.1872" fill="none" stroke="#000" stroke-width="2"/>
<path d="m253.9657,526.6361 2.9042,6.1872" fill="none" stroke="#000" stroke-width="2"/>
</g>
<g transform="matrix(1.23366,0,0,1.23366,258.81219,225.65496)">
<path d="M254.0534,509.4052H270.7209V526.0727H254.0534z" fill="#fff" stroke="#000" stroke-linecap="round" stroke-width="2"/>
<path d="m270.812,508.8121 2.9042,6.1872" fill="none" stroke="#000" stroke-width="2"/>
<path d="m270.8047,526.2904 2.9042,6.1872" fill="none" stroke="#000" stroke-width="2"/>
<path d="m253.9657,526.6361 2.9042,6.1872" fill="none" stroke="#000" stroke-width="2"/>
</g>
<g transform="matrix(1.23366,0,0,1.23366,232.27221,196.11046)">
<path d="M254.0534,509.4052H270.7209V526.0727H254.0534z" fill="#fff" stroke="#000" stroke-linecap="round" stroke-width="2"/>
<path d="m270.812,508.8121 2.9042,6.1872" fill="none" stroke="#000" stroke-width="2"/>
<path d="m270.8047,526.2904 2.9042,6.1872" fill="none" stroke="#000" stroke-width="2"/>
<path d="m253.9657,526.6361 2.9042,6.1872" fill="none" stroke="#000" stroke-width="2"/>
</g>
<g transform="matrix(1.05509,.96864,-.96864,1.05509,649.74329,-246.70344)">
<path d="m412.016,546.9702 4.9876,0" fill="none" stroke="#000"/>
<path d="m414.2888,544.9499-2.6517,1.9572 2.2729,2.2097" fill="none" stroke="#000"/>
</g>
<g transform="matrix(1.98288,0,0,1.98288,-289.57515,-220.04062)">
<path d="m412.016,546.9702 4.9876,0" fill="none" stroke="#000"/>
<path d="m414.2888,544.9499-2.6517,1.9572 2.2729,2.2097" fill="none" stroke="#000"/>
</g>
<g transform="matrix(-1.98288,0,0,1.98288,1403.599,-220.29101)">
<path d="m412.016,546.9702 4.9876,0" fill="none" stroke="#000"/>
<path d="m414.2888,544.9499-2.6517,1.9572 2.2729,2.2097" fill="none" stroke="#000"/>
</g>
<g transform="matrix(0,-1.98288,1.98288,0,-527.44164,1686.2128)">
<path d="m412.016,546.9702 4.9876,0" fill="none" stroke="#000"/>
<path d="m413.9731,544.6974-2.336,2.2097 2.2729,2.2097" fill="none" stroke="#000"/>
</g>
<g transform="matrix(0,1.98288,1.98288,0,-528.94387,13.3191)">
<path d="m412.016,546.9702 4.9876,0" fill="none" stroke="#000"/>
<path d="m414.2888,544.9499-2.6517,1.9572 2.7148,2.0834" fill="none" stroke="#000"/>
</g>
<g transform="matrix(1.23366,0,0,1.23366,308.24603,94.45745)">
<path d="M254.0534,509.4052H270.7209V526.0727H254.0534z" fill="#fff" stroke="#000" stroke-linecap="round" stroke-width="2"/>
<path d="m270.812,508.8121 2.9042,6.1872" fill="none" stroke="#000" stroke-width="2"/>
<path d="m270.8047,526.2904 2.9042,6.1872" fill="none" stroke="#000" stroke-width="2"/>
<path d="m253.9657,526.6361 2.9042,6.1872" fill="none" stroke="#000" stroke-width="2"/>
</g>
<text font-family="Bitstream Vera Sans" font-size="6.137" x="631.4711" y="731.2253">
   <tspan text-align="center" text-anchor="middle" x="631.4711" y="731.2253">Verr</tspan>
   <tspan text-align="center" text-anchor="middle" x="631.4711" y="738.8969">Num</tspan>
  </text>
<g transform="matrix(1.23366,0,0,1.23366,333.47244,94.45745)">
<path d="M254.0534,509.4052H270.7209V526.0727H254.0534z" fill="#fff" stroke="#000" stroke-linecap="round" stroke-width="2"/>
<path d="m270.812,508.8121 2.9042,6.1872" fill="none" stroke="#000" stroke-width="2"/>
<path d="m270.8047,526.2904 2.9042,6.1872" fill="none" stroke="#000" stroke-width="2"/>
<path d="m253.9657,526.6361 2.9042,6.1872" fill="none" stroke="#000" stroke-width="2"/>
</g>
<text font-family="Bitstream Vera Sans" font-size="10.494" x="655.3863" y="736.6149">
   <tspan x="655.3863" y="736.6149">/</tspan>
  </text>
<g transform="matrix(1.23366,0,0,1.23366,358.69891,94.45745)">
<path d="M254.0534,509.4052H270.7209V526.0727H254.0534z" fill="#fff" stroke="#000" stroke-linecap="round" stroke-width="2"/>
<path d="m270.812,508.8121 2.9042,6.1872" fill="none" stroke="#000" stroke-width="2"/>
<path d="m270.8047,526.2904 2.9042,6.1872" fill="none" stroke="#000" stroke-width="2"/>
<path d="m253.9657,526.6361 2.9042,6.1872" fill="none" stroke="#000" stroke-width="2"/>
</g>
<text font-family="Bitstream Vera Sans" font-size="10.494" x="679.285" y="737.0574">
   <tspan x="679.285" y="737.0574">*</tspan>
  </text>
<g transform="matrix(1.23366,0,0,1.23366,383.9254,94.45745)">
<path d="M254.0534,509.4052H270.7209V526.0727H254.0534z" fill="#fff" stroke="#000" stroke-linecap="round" stroke-width="2"/>
<path d="m270.812,508.8121 2.9042,6.1872" fill="none" stroke="#000" stroke-width="2"/>
<path d="m270.8047,526.2904 2.9042,6.1872" fill="none" stroke="#000" stroke-width="2"/>
<path d="m253.9657,526.6361 2.9042,6.1872" fill="none" stroke="#000" stroke-width="2"/>
</g>
<text font-family="Bitstream Vera Sans" font-size="10.494" x="705.2197" y="735.5526">
   <tspan x="705.2197" y="735.5526">-</tspan>
  </text>
<g transform="matrix(1.23366,0,0,1.23366,308.24603,127.63242)">
<path d="M254.0534,509.4052H270.7209V526.0727H254.0534z" fill="#fff" stroke="#000" stroke-linecap="round" stroke-width="2"/>
<path d="m270.812,508.8121 2.9042,6.1872" fill="none" stroke="#000" stroke-width="2"/>
<path d="m270.8047,526.2904 2.9042,6.1872" fill="none" stroke="#000" stroke-width="2"/>
<path d="m253.9657,526.6361 2.9042,6.1872" fill="none" stroke="#000" stroke-width="2"/>
</g>
<text font-family="Bitstream Vera Sans" font-size="10.494" x="628.6551" y="770.2324">
   <tspan x="628.6551" y="770.2324">7</tspan>
  </text>
<g transform="matrix(1.23366,0,0,1.23366,333.47244,127.63242)">
<path d="M254.0534,509.4052H270.7209V526.0727H254.0534z" fill="#fff" stroke="#000" stroke-linecap="round" stroke-width="2"/>
<path d="m270.812,508.8121 2.9042,6.1872" fill="none" stroke="#000" stroke-width="2"/>
<path d="m270.8047,526.2904 2.9042,6.1872" fill="none" stroke="#000" stroke-width="2"/>
<path d="m253.9657,526.6361 2.9042,6.1872" fill="none" stroke="#000" stroke-width="2"/>
</g>
<text font-family="Bitstream Vera Sans" font-size="10.494" x="652.8193" y="770.2324">
   <tspan x="652.8193" y="770.2324">8</tspan>
  </text>
<g transform="matrix(1.23366,0,0,1.23366,358.69891,127.63242)">
<path d="M254.0534,509.4052H270.7209V526.0727H254.0534z" fill="#fff" stroke="#000" stroke-linecap="round" stroke-width="2"/>
<path d="m270.812,508.8121 2.9042,6.1872" fill="none" stroke="#000" stroke-width="2"/>
<path d="m270.8047,526.2904 2.9042,6.1872" fill="none" stroke="#000" stroke-width="2"/>
<path d="m253.9657,526.6361 2.9042,6.1872" fill="none" stroke="#000" stroke-width="2"/>
</g>
<text font-family="Bitstream Vera Sans" font-size="10.494" x="678.0457" y="770.2324">
   <tspan x="678.0457" y="770.2324">9</tspan>
  </text>
<path d="M697.3419,756.067H717.904V809.6788H697.3419z" fill="#fff" stroke="#000" stroke-linecap="round" stroke-width="2.4673"/>
<path d="m718.0162,755.3353 3.5828,7.6329" fill="none" stroke="#000" stroke-width="2.4673"/>
<path d="m718.0072,809.5718 3.5828,7.6329" fill="none" stroke="#000" stroke-width="2.4673"/>
<path d="m697.2336,809.9982 3.5828,7.6329" fill="none" stroke="#000" stroke-width="2.4673"/>
<text font-family="Bitstream Vera Sans" font-size="10.494" x="702.9181" y="784.5103">
   <tspan x="702.9181" y="784.5103">+</tspan>
  </text>
<g transform="matrix(1.23366,0,0,1.23366,308.24603,160.80736)">
<path d="M254.0534,509.4052H270.7209V526.0727H254.0534z" fill="#fff" stroke="#000" stroke-linecap="round" stroke-width="2"/>
<path d="m270.812,508.8121 2.9042,6.1872" fill="none" stroke="#000" stroke-width="2"/>
<path d="m270.8047,526.2904 2.9042,6.1872" fill="none" stroke="#000" stroke-width="2"/>
<path d="m253.9657,526.6361 2.9042,6.1872" fill="none" stroke="#000" stroke-width="2"/>
</g>
<text font-family="Bitstream Vera Sans" font-size="10.494" x="628.6551" y="803.4072">
   <tspan x="628.6551" y="803.4072">4</tspan>
  </text>
<g transform="matrix(1.23366,0,0,1.23366,333.47244,160.80736)">
<path d="M254.0534,509.4052H270.7209V526.0727H254.0534z" fill="#fff" stroke="#000" stroke-linecap="round" stroke-width="2"/>
<path d="m270.812,508.8121 2.9042,6.1872" fill="none" stroke="#000" stroke-width="2"/>
<path d="m270.8047,526.2904 2.9042,6.1872" fill="none" stroke="#000" stroke-width="2"/>
<path d="m253.9657,526.6361 2.9042,6.1872" fill="none" stroke="#000" stroke-width="2"/>
</g>
<text font-family="Bitstream Vera Sans" font-size="10.494" x="652.8193" y="803.4072">
   <tspan x="652.8193" y="803.4072">5</tspan>
  </text>
<g transform="matrix(1.23366,0,0,1.23366,358.69891,160.80736)">
<path d="M254.0534,509.4052H270.7209V526.0727H254.0534z" fill="#fff" stroke="#000" stroke-linecap="round" stroke-width="2"/>
<path d="m270.812,508.8121 2.9042,6.1872" fill="none" stroke="#000" stroke-width="2"/>
<path d="m270.8047,526.2904 2.9042,6.1872" fill="none" stroke="#000" stroke-width="2"/>
<path d="m253.9657,526.6361 2.9042,6.1872" fill="none" stroke="#000" stroke-width="2"/>
</g>
<text font-family="Bitstream Vera Sans" font-size="10.494" x="678.0457" y="803.4072">
   <tspan x="678.0457" y="803.4072">6</tspan>
  </text>
<g transform="matrix(1.23366,0,0,1.23366,308.24603,193.98232)">
<path d="M254.0534,509.4052H270.7209V526.0727H254.0534z" fill="#fff" stroke="#000" stroke-linecap="round" stroke-width="2"/>
<path d="m270.812,508.8121 2.9042,6.1872" fill="none" stroke="#000" stroke-width="2"/>
<path d="m270.8047,526.2904 2.9042,6.1872" fill="none" stroke="#000" stroke-width="2"/>
<path d="m253.9657,526.6361 2.9042,6.1872" fill="none" stroke="#000" stroke-width="2"/>
</g>
<text font-family="Bitstream Vera Sans" font-size="10.494" x="628.6551" y="836.5823">
   <tspan x="628.6551" y="836.5823">1</tspan>
  </text>
<g transform="matrix(1.23366,0,0,1.23366,333.47244,193.98232)">
<path d="M254.0534,509.4052H270.7209V526.0727H254.0534z" fill="#fff" stroke="#000" stroke-linecap="round" stroke-width="2"/>
<path d="m270.812,508.8121 2.9042,6.1872" fill="none" stroke="#000" stroke-width="2"/>
<path d="m270.8047,526.2904 2.9042,6.1872" fill="none" stroke="#000" stroke-width="2"/>
<path d="m253.9657,526.6361 2.9042,6.1872" fill="none" stroke="#000" stroke-width="2"/>
</g>
<text font-family="Bitstream Vera Sans" font-size="10.494" x="652.8193" y="836.5823">
   <tspan x="652.8193" y="836.5823">2</tspan>
  </text>
<path d="M672.1154,822.4168H692.6775V842.9789H672.1154z" fill="#fff" stroke="#000" stroke-linecap="round" stroke-width="2.4673"/>
<path d="m692.7897,821.6852 3.5828,7.6329" fill="none" stroke="#000" stroke-width="2.4673"/>
<path d="m692.7807,843.2475 3.5828,7.6329" fill="none" stroke="#000" stroke-width="2.4673"/>
<path d="m672.0071,843.674 3.5828,7.6329" fill="none" stroke="#000" stroke-width="2.4673"/>
<text font-family="Bitstream Vera Sans" font-size="10.494" x="678.0457" y="836.5823">
   <tspan x="678.0457" y="836.5823">3</tspan>
  </text>
<path d="M697.3419,822.4168H717.904V875.6531H697.3419z" fill="#fff" stroke="#000" stroke-linecap="round" stroke-width="2.4673"/>
<path d="m718.0162,821.6852 3.5828,7.6329" fill="none" stroke="#000" stroke-width="2.4673"/>
<path d="m718.0072,875.9217 3.5828,7.6329" fill="none" stroke="#000" stroke-width="2.4673"/>
<path d="m697.2336,876.3481 3.5828,7.6329" fill="none" stroke="#000" stroke-width="2.4673"/>
<text font-family="Bitstream Vera Sans" font-size="6.545" x="700.7842" y="849.6019">
   <tspan x="700.7842" y="849.6019">Entr</tspan>
  </text>
<path d="M621.6625,855.5915H661.5036V876.1536H621.6625z" fill="#fff" stroke="#000" stroke-linecap="round" stroke-width="2.4673"/>
<path d="m661.6159,854.8601 3.5828,7.6329" fill="none" stroke="#000" stroke-width="2.4673"/>
<path d="m661.6068,876.4224 3.5828,7.6329" fill="none" stroke="#000" stroke-width="2.4673"/>
<path d="m621.5542,876.8488 3.5828,7.6329" fill="none" stroke="#000" stroke-width="2.4673"/>
<text font-family="Bitstream Vera Sans" font-size="10.494" x="637.919" y="869.7572">
   <tspan x="637.919" y="869.7572">0</tspan>
  </text>
<path d="M672.1154,855.5915H692.6775V876.1536H672.1154z" fill="#fff" stroke="#000" stroke-linecap="round" stroke-width="2.4673"/>
<path d="m692.7897,854.8601 3.5828,7.6329" fill="none" stroke="#000" stroke-width="2.4673"/>
<path d="m692.7807,876.4224 3.5828,7.6329" fill="none" stroke="#000" stroke-width="2.4673"/>
<path d="m672.0071,876.8488 3.5828,7.6329" fill="none" stroke="#000" stroke-width="2.4673"/>
<text font-family="Bitstream Vera Sans" font-size="10.494" x="680.2587" y="867.0131">
   <tspan x="680.2587" y="867.0131">.</tspan>
  </text>
<text font-family="Bitstream Vera Sans" font-size="20" x="-207.1351" y="1030.0259">
   <tspan text-align="center" text-anchor="middle" x="-207.1351" y="1030.0259"></tspan>
  </text>
<text font-family="Bitstream Vera Sans" font-size="20" x="545.6539" y="615.9746">
   <tspan text-align="center" text-anchor="middle" x="545.6539" y="615.9746"></tspan>
  </text>
<text font-family="Bitstream Vera Sans" font-size="20" x="314.4929" y="799.1219">
   <tspan x="314.4929" y="799.1219"></tspan>
  </text>
<text font-family="Bitstream Vera Sans" font-size="20" x="-305.3974" y="1139.7969">
   <tspan x="-305.3974" y="1139.7969"></tspan>
  </text>
<text font-family="Bitstream Vera Sans" font-size="20" x="-314.7609" y="651.3916">
   <tspan text-align="center" text-anchor="middle" x="-314.7609" y="651.3916"></tspan>
  </text>
<text font-family="Bitstream Vera Sans" font-size="20" x="245.9939" y="189.4429">
   <tspan text-align="center" text-anchor="middle" x="245.9939" y="189.4429"></tspan>
  </text>
<text font-family="Bitstream Vera Sans" font-size="20" x="14.8339" y="372.5909">
   <tspan x="14.8339" y="372.5909"></tspan>
  </text>
<text font-family="Bitstream Vera Sans" font-size="20" x="-397.2097" y="499.8503">
   <tspan text-align="center" text-anchor="middle" x="-397.2097" y="499.8503"></tspan>
  </text>
<text font-family="Bitstream Vera Sans" font-size="20" x="-37.4295" y="542.1222">
   <tspan text-align="center" text-anchor="middle" x="-37.4295" y="542.1222"></tspan>
  </text>
<text font-family="Bitstream Vera Sans" font-size="20" x="715.3596" y="128.071">
   <tspan text-align="center" text-anchor="middle" x="715.3596" y="128.071"></tspan>
  </text>
<text font-family="Bitstream Vera Sans" font-size="20" x="484.1985" y="311.2183">
   <tspan x="484.1985" y="311.2183"></tspan>
  </text>
<text font-family="Bitstream Vera Sans" font-size="20" x="-135.6918" y="651.8932">
   <tspan x="-135.6918" y="651.8932"></tspan>
  </text>
<text font-family="Bitstream Vera Sans" font-size="20" x="-145.0553" y="163.488">
   <tspan text-align="center" text-anchor="middle" x="-145.0553" y="163.488"></tspan>
  </text>
<text font-family="Bitstream Vera Sans" font-size="20" x="415.6995" y="-298.4608">
   <tspan text-align="center" text-anchor="middle" x="415.6995" y="-298.4608"></tspan>
  </text>
<text font-family="Bitstream Vera Sans" font-size="20" x="184.5395" y="-115.3127">
   <tspan x="184.5395" y="-115.3127"></tspan>
  </text>
<text font-family="Bitstream Vera Sans" font-size="20" x="-227.5041" y="11.9466">
   <tspan text-align="center" text-anchor="middle" x="-227.5041" y="11.9466"></tspan>
  </text>
<text font-family="Bitstream Vera Sans" font-size="20" x="-147.0729" y="830.3272">
   <tspan text-align="center" text-anchor="middle" x="-147.0729" y="830.3272"></tspan>
  </text>
<text font-family="Bitstream Vera Sans" font-size="20" x="-281.5393" y="429.9939">
   <tspan text-align="center" text-anchor="middle" x="-281.5393" y="429.9939"></tspan>
  </text>
<text font-family="Bitstream Vera Sans" font-size="20" x="471.2497" y="15.9426">
   <tspan text-align="center" text-anchor="middle" x="471.2497" y="15.9426"></tspan>
  </text>
<text font-family="Bitstream Vera Sans" font-size="20" x="240.0886" y="199.0899">
   <tspan x="240.0886" y="199.0899"></tspan>
  </text>
<text font-family="Bitstream Vera Sans" font-size="20" x="-379.8017" y="539.7649">
   <tspan x="-379.8017" y="539.7649"></tspan>
  </text>
<text font-family="Bitstream Vera Sans" font-size="20" x="-389.1652" y="51.3596">
   <tspan text-align="center" text-anchor="middle" x="-389.1652" y="51.3596"></tspan>
  </text>
<text font-family="Bitstream Vera Sans" font-size="20" x="171.5896" y="-410.5891">
   <tspan text-align="center" text-anchor="middle" x="171.5896" y="-410.5891"></tspan>
  </text>
<text font-family="Bitstream Vera Sans" font-size="20" x="-59.5704" y="-227.4411">
   <tspan x="-59.5704" y="-227.4411"></tspan>
  </text>
<text font-family="Bitstream Vera Sans" font-size="20" x="-471.614" y="-100.1817">
   <tspan text-align="center" text-anchor="middle" x="-471.614" y="-100.1817"></tspan>
  </text>
<text font-family="Bitstream Vera Sans" font-size="20" x="-111.8337" y="-57.9099">
   <tspan text-align="center" text-anchor="middle" x="-111.8337" y="-57.9099"></tspan>
  </text>
<text font-family="Bitstream Vera Sans" font-size="20" x="640.9552" y="-471.9611">
   <tspan text-align="center" text-anchor="middle" x="640.9552" y="-471.9611"></tspan>
  </text>
<text font-family="Bitstream Vera Sans" font-size="20" x="409.7943" y="-288.8138">
   <tspan x="409.7943" y="-288.8138"></tspan>
  </text>
<text font-family="Bitstream Vera Sans" font-size="20" x="-210.096" y="51.8612">
   <tspan x="-210.096" y="51.8612"></tspan>
  </text>
<text font-family="Bitstream Vera Sans" font-size="20" x="-219.4595" y="-436.5441">
   <tspan text-align="center" text-anchor="middle" x="-219.4595" y="-436.5441"></tspan>
  </text>
<text font-family="Bitstream Vera Sans" font-size="20" x="341.2953" y="-898.4929">
   <tspan text-align="center" text-anchor="middle" x="341.2953" y="-898.4929"></tspan>
  </text>
<text font-family="Bitstream Vera Sans" font-size="20" x="110.1353" y="-715.3448">
   <tspan x="110.1353" y="-715.3448"></tspan>
  </text>
<text font-family="Bitstream Vera Sans" font-size="20" x="-301.9083" y="-588.0854">
   <tspan text-align="center" text-anchor="middle" x="-301.9083" y="-588.0854"></tspan>
  </text>
<text font-family="Bitstream Vera Sans" font-size="20" x="171.4545" y="-125.3399">
   <tspan x="171.4545" y="-125.3399"></tspan>
  </text>
<text font-family="Bitstream Vera Sans" font-size="27.279" x="153.8389" y="353.9145">
   <tspan x="153.8389" y="353.9145">Blackberry présente sa nouvelle tablette :</tspan>
  </text>
<path d="m169.7056,367.5505 527.2996,0" fill="none" stroke="#000"/>
<text font-family="Bitstream Vera Sans" font-size="20" x="225.264" y="291.7173">
   <tspan x="225.264" y="291.7173">Tablette</tspan>
  </text>
<g transform="translate(0,-5.7143)">
<path d="M150.6187,435.0184H718.1016V688.5017H150.6187z" stroke="#000" stroke-linecap="round" stroke-width="4.9379"/>
<text fill="#fff" font-family="Bitstream Vera Sans" font-size="38.278" x="348.6812" y="579.5292">
    <tspan x="348.6812" y="579.5292">BlackBerry</tspan>
   </text>
<path d="m366.7355,591.7808 162.435,0" fill="#fff" stroke="#fff" stroke-width="1.1603"/>
<g fill="#fff" stroke="#fff">
<path d="m326.9643,498.9693c3.0573,0 5.5357,1.2392 5.5357,2.7679 0,1.5286-2.4784,2.7679-5.5357,2.7679-3.0573,0-5.5357,-1.2392-5.5357,-2.7679 0,-1.5286 2.4784,-2.7679 5.5357,-2.7679" fill="#fff" stroke="#fff" stroke-linecap="round" stroke-width="2" transform="matrix(1.32188,0,0,1.32188,-119.07175,-99.07456)"/>
<path d="m326.9643,498.9693c3.0573,0 5.5357,1.2392 5.5357,2.7679 0,1.5286-2.4784,2.7679-5.5357,2.7679-3.0573,0-5.5357,-1.2392-5.5357,-2.7679 0,-1.5286 2.4784,-2.7679 5.5357,-2.7679" fill="#fff" stroke="#fff" stroke-linecap="round" stroke-width="2" transform="matrix(1.32188,0,0,1.32188,-134.02205,-110.36607)"/>
<path d="m326.9643,498.9693c3.0573,0 5.5357,1.2392 5.5357,2.7679 0,1.5286-2.4784,2.7679-5.5357,2.7679-3.0573,0-5.5357,-1.2392-5.5357,-2.7679 0,-1.5286 2.4784,-2.7679 5.5357,-2.7679" fill="#fff" stroke="#fff" stroke-linecap="round" stroke-width="2" transform="matrix(1.32188,0,0,1.32188,-114.22322,-110.36607)"/>
<path d="m326.9643,498.9693c3.0573,0 5.5357,1.2392 5.5357,2.7679 0,1.5286-2.4784,2.7679-5.5357,2.7679-3.0573,0-5.5357,-1.2392-5.5357,-2.7679 0,-1.5286 2.4784,-2.7679 5.5357,-2.7679" fill="#fff" stroke="#fff" stroke-linecap="round" stroke-width="2" transform="matrix(1.32188,0,0,1.32188,-138.97176,-99.22923)"/>
<path d="m326.9643,498.9693c3.0573,0 5.5357,1.2392 5.5357,2.7679 0,1.5286-2.4784,2.7679-5.5357,2.7679-3.0573,0-5.5357,-1.2392-5.5357,-2.7679 0,-1.5286 2.4784,-2.7679 5.5357,-2.7679" fill="#fff" stroke="#fff" stroke-linecap="round" stroke-width="2" transform="matrix(1.32188,0,0,1.32188,-98.13667,-99.22923)"/>
<path d="m326.9643,498.9693c3.0573,0 5.5357,1.2392 5.5357,2.7679 0,1.5286-2.4784,2.7679-5.5357,2.7679-3.0573,0-5.5357,-1.2392-5.5357,-2.7679 0,-1.5286 2.4784,-2.7679 5.5357,-2.7679" fill="#fff" stroke="#fff" stroke-linecap="round" stroke-width="2" transform="matrix(1.32188,0,0,1.32188,-125.66942,-85.9269)"/>
<path d="m326.9643,498.9693c3.0573,0 5.5357,1.2392 5.5357,2.7679 0,1.5286-2.4784,2.7679-5.5357,2.7679-3.0573,0-5.5357,-1.2392-5.5357,-2.7679 0,-1.5286 2.4784,-2.7679 5.5357,-2.7679" fill="#fff" stroke="#fff" stroke-linecap="round" stroke-width="2" transform="matrix(1.32188,0,0,1.32188,-105.87059,-86.5456)"/>
</g>
</g>
<path d="m326.9643,498.9693c3.0573,0 5.5357,1.2392 5.5357,2.7679 0,1.5286-2.4784,2.7679-5.5357,2.7679-3.0573,0-5.5357,-1.2392-5.5357,-2.7679 0,-1.5286 2.4784,-2.7679 5.5357,-2.7679" stroke="#000" stroke-linecap="round" stroke-width="2" transform="matrix(.38382,0,0,.38382,70.96053,672.34245)"/>
<path d="m326.9643,498.9693c3.0573,0 5.5357,1.2392 5.5357,2.7679 0,1.5286-2.4784,2.7679-5.5357,2.7679-3.0573,0-5.5357,-1.2392-5.5357,-2.7679 0,-1.5286 2.4784,-2.7679 5.5357,-2.7679" stroke="#000" stroke-linecap="round" stroke-width="2" transform="matrix(.38382,0,0,.38382,66.61961,669.06389)"/>
<path d="m326.9643,498.9693c3.0573,0 5.5357,1.2392 5.5357,2.7679 0,1.5286-2.4784,2.7679-5.5357,2.7679-3.0573,0-5.5357,-1.2392-5.5357,-2.7679 0,-1.5286 2.4784,-2.7679 5.5357,-2.7679" stroke="#000" stroke-linecap="round" stroke-width="2" transform="matrix(.38382,0,0,.38382,72.36833,669.06389)"/>
<path d="m326.9643,498.9693c3.0573,0 5.5357,1.2392 5.5357,2.7679 0,1.5286-2.4784,2.7679-5.5357,2.7679-3.0573,0-5.5357,-1.2392-5.5357,-2.7679 0,-1.5286 2.4784,-2.7679 5.5357,-2.7679" stroke="#000" stroke-linecap="round" stroke-width="2" transform="matrix(.38382,0,0,.38382,65.18242,672.29754)"/>
<path d="m326.9643,498.9693c3.0573,0 5.5357,1.2392 5.5357,2.7679 0,1.5286-2.4784,2.7679-5.5357,2.7679-3.0573,0-5.5357,-1.2392-5.5357,-2.7679 0,-1.5286 2.4784,-2.7679 5.5357,-2.7679" stroke="#000" stroke-linecap="round" stroke-width="2" transform="matrix(.38382,0,0,.38382,77.03917,672.29754)"/>
<path d="m326.9643,498.9693c3.0573,0 5.5357,1.2392 5.5357,2.7679 0,1.5286-2.4784,2.7679-5.5357,2.7679-3.0573,0-5.5357,-1.2392-5.5357,-2.7679 0,-1.5286 2.4784,-2.7679 5.5357,-2.7679" stroke="#000" stroke-linecap="round" stroke-width="2" transform="matrix(.38382,0,0,.38382,69.04485,676.15997)"/>
<path d="m326.9643,498.9693c3.0573,0 5.5357,1.2392 5.5357,2.7679 0,1.5286-2.4784,2.7679-5.5357,2.7679-3.0573,0-5.5357,-1.2392-5.5357,-2.7679 0,-1.5286 2.4784,-2.7679 5.5357,-2.7679" stroke="#000" stroke-linecap="round" stroke-width="2" transform="matrix(.38382,0,0,.38382,74.79357,675.98032)"/>
<path d="m326.9643,498.9693c3.0573,0 5.5357,1.2392 5.5357,2.7679 0,1.5286-2.4784,2.7679-5.5357,2.7679-3.0573,0-5.5357,-1.2392-5.5357,-2.7679 0,-1.5286 2.4784,-2.7679 5.5357,-2.7679" stroke="#000" stroke-linecap="round" stroke-width="2" transform="matrix(.38382,0,0,.38382,299.12771,671.79007)"/>
<path d="m326.9643,498.9693c3.0573,0 5.5357,1.2392 5.5357,2.7679 0,1.5286-2.4784,2.7679-5.5357,2.7679-3.0573,0-5.5357,-1.2392-5.5357,-2.7679 0,-1.5286 2.4784,-2.7679 5.5357,-2.7679" stroke="#000" stroke-linecap="round" stroke-width="2" transform="matrix(.38382,0,0,.38382,294.78678,668.51151)"/>
<path d="m326.9643,498.9693c3.0573,0 5.5357,1.2392 5.5357,2.7679 0,1.5286-2.4784,2.7679-5.5357,2.7679-3.0573,0-5.5357,-1.2392-5.5357,-2.7679 0,-1.5286 2.4784,-2.7679 5.5357,-2.7679" stroke="#000" stroke-linecap="round" stroke-width="2" transform="matrix(.38382,0,0,.38382,300.53551,668.51151)"/>
<path d="m326.9643,498.9693c3.0573,0 5.5357,1.2392 5.5357,2.7679 0,1.5286-2.4784,2.7679-5.5357,2.7679-3.0573,0-5.5357,-1.2392-5.5357,-2.7679 0,-1.5286 2.4784,-2.7679 5.5357,-2.7679" stroke="#000" stroke-linecap="round" stroke-width="2" transform="matrix(.38382,0,0,.38382,293.3496,671.74516)"/>
<path d="m326.9643,498.9693c3.0573,0 5.5357,1.2392 5.5357,2.7679 0,1.5286-2.4784,2.7679-5.5357,2.7679-3.0573,0-5.5357,-1.2392-5.5357,-2.7679 0,-1.5286 2.4784,-2.7679 5.5357,-2.7679" stroke="#000" stroke-linecap="round" stroke-width="2" transform="matrix(.38382,0,0,.38382,305.20635,671.74516)"/>
<path d="m326.9643,498.9693c3.0573,0 5.5357,1.2392 5.5357,2.7679 0,1.5286-2.4784,2.7679-5.5357,2.7679-3.0573,0-5.5357,-1.2392-5.5357,-2.7679 0,-1.5286 2.4784,-2.7679 5.5357,-2.7679" stroke="#000" stroke-linecap="round" stroke-width="2" transform="matrix(.38382,0,0,.38382,297.21203,675.60759)"/>
<path d="m326.9643,498.9693c3.0573,0 5.5357,1.2392 5.5357,2.7679 0,1.5286-2.4784,2.7679-5.5357,2.7679-3.0573,0-5.5357,-1.2392-5.5357,-2.7679 0,-1.5286 2.4784,-2.7679 5.5357,-2.7679" stroke="#000" stroke-linecap="round" stroke-width="2" transform="matrix(.38382,0,0,.38382,302.96075,675.42794)"/>
<g transform="matrix(1.58823,0,0,-1.58823,-198.55345,1730.7364)">
<path d="m412.016,546.9702c0,0 6.5182,.5528 6.8696,-1.787 .4686,-3.1202-5.7923,-3.2514-5.7923,-3.2514" fill="none" stroke="#000"/>
<path d="m414.2888,544.9499-2.6517,1.9572 2.2729,2.2097" fill="none" stroke="#000"/>
</g>
</g>
</svg>
