<svg version="1.0" viewBox="0 0 900 450" xmlns="http://www.w3.org/2000/svg" xmlns:svg="http://www.w3.org/2000/svg">
<path d="M-323.9241,741.0441H-133.7151A7.5735,7.5735 0 0 1 -126.1416,748.6177V784.9706A7.5735,7.5735 0 0 1 -133.7151,792.5441H-323.9241A7.5735,7.5735 0 0 1 -331.4976,784.9706V748.6177A7.5735,7.5735 0 0 1 -323.9241,741.0441z" stroke="#000" stroke-linecap="round" stroke-linejoin="round" stroke-width="5.8088" transform="matrix(1,0,.87861,.47753,0,0)"/>
<path d="M49.1126,73.7746H830.1145A31.621,31.621 0 0 1 861.7355,105.3957V353.7445A31.621,31.621 0 0 1 830.1145,385.3655H49.1126A31.621,31.621 0 0 1 17.4916,353.7445V105.3957A31.621,31.621 0 0 1 49.1126,73.7746z" fill="#fff" stroke="#000" stroke-linecap="round" stroke-width="7.4907"/>
<path d="M594.7332,70.4601L594.7332,384.3505" fill="none" stroke="#000" stroke-width="5.6784"/>
<path d="M291.0231,69.7354L291.0231,383.6258" fill="none" stroke="#000" stroke-width="5.6784"/>
<path d="M839.95,404.5984C840.3893,405.1086 840.9855,405.1698 841.6202,405.2057C842.4231,405.184 843.2274,404.9918 843.9777,404.7064C844.3786,404.5538 844.6001,404.4239 844.9742,404.2275C842.7355,405.5372 843.9818,404.8357 844.4003,404.3911C844.6172,404.1608 844.7467,403.9181 844.8689,403.6305C845.1866,402.7355 845.2278,401.7731 845.282,400.8335C845.3876,399.4656 845.1044,398.1226 844.7995,396.7983C844.4287,395.4053 843.9249,394.0516 843.3702,392.7226C843.1046,392.0946 842.8041,391.4825 842.5115,390.867C842.1172,390.1104 841.7946,390.5803 844.0219,389.7163C844.0986,389.6865 844.1138,389.8529 844.163,389.919C844.2453,390.0295 844.3319,390.1369 844.4163,390.2459C845.238,391.3734 846.2262,392.3614 847.2164,393.3387C847.799,393.9061 848.4238,394.4327 848.9809,395.026C849.1923,395.1987 849.3187,395.442 849.4889,395.649C849.6551,395.7991 849.7851,395.641 849.932,395.5383C847.3664,397.0768 848.2801,396.5795 848.7721,396.1078C848.9658,395.922 849.1485,395.7235 849.3339,395.5296C849.5972,395.267 849.8466,394.9858 850.1349,394.7493C850.8959,394.1248 851.9576,393.6258 852.7446,393.1782C853.4717,392.857 854.2156,392.5776 854.9711,392.3314C855.1274,392.2975 855.7321,392.065 855.8701,392.2221C855.9023,392.2587 855.9153,392.3084 855.9378,392.3515C855.941,392.3956 855.9532,392.44 855.9472,392.4838C855.9037,392.8035 855.4088,393.1754 855.1928,393.3742C854.1999,394.195 853.2367,395.0487 852.3197,395.9534C851.522,396.8091 850.6981,397.6538 850.0631,398.6408C849.671,399.2573 849.4625,399.938 849.3647,400.6553C849.2999,401.2967 849.3105,401.9426 849.3115,402.5864C849.3466,403.2862 849.4359,403.9875 849.6443,404.6579C849.7637,405.015 849.9761,405.2773 850.316,405.4341C850.5415,405.5136 850.7997,405.5659 851.0398,405.5206C851.0956,405.51 851.5614,405.3522 851.5986,405.3398C852.1478,405.0401 853.4742,404.3393 850.9919,405.6996C850.8937,405.7534 851.181,405.5795 851.274,405.5172C851.4878,405.3742 851.5391,405.3321 851.7397,405.1826C851.9802,405.0026 851.8663,405.0901 852.0821,404.9209L853.8012,404.2296C853.5833,404.4127 853.7,404.3213 853.4496,404.5015C852.4357,405.2843 851.3126,405.9323 850.1487,406.4626C849.638,406.615 849.2609,406.688 848.7636,406.4528C848.3974,406.2462 848.1581,405.9466 848.0293,405.5416C847.8252,404.8513 847.7482,404.1326 847.6812,403.4178C847.6773,402.7676 847.6666,402.1157 847.7192,401.467C847.812,400.7238 848.0079,400.0145 848.4076,399.3714C848.4877,399.2382 848.5605,399.1002 848.648,398.9717C848.8278,398.7078 849.0961,398.4056 849.301,398.1681C849.7536,397.6434 850.2166,397.1279 850.6948,396.6262C851.5866,395.7266 852.5267,394.8764 853.5014,394.0671C853.7775,393.8107 854.0632,393.5607 854.3015,393.2677C854.341,393.2886 854.2137,393.2852 854.1694,393.2914C853.9484,393.3223 853.7356,393.3909 853.5228,393.4555C852.7757,393.7021 852.0362,393.9757 851.3269,394.3179C853.7715,392.8721 852.3017,393.693 851.8239,394.0607C851.5329,394.2846 851.2839,394.5611 851.0286,394.8228C850.1029,395.7994 850.0498,395.9028 848.4836,396.7112C848.2269,396.8325 848.0834,396.8181 847.8827,396.6071C847.7242,396.3976 847.5973,396.1641 847.4016,395.9839C846.8682,395.3813 846.2734,394.8346 845.7084,394.2626C844.7276,393.2642 843.7317,392.2776 842.8588,391.1808C842.765,391.0754 842.6711,390.97 842.5774,390.8645C842.5253,390.8059 842.362,390.7395 842.4215,390.6884C843.8356,389.4745 843.7555,389.1567 844.1208,389.9581C844.3965,390.5862 844.6871,391.2079 844.9379,391.8467C845.4629,393.1996 845.9469,394.5698 846.3432,395.9664C846.6617,397.2966 846.9767,398.6478 846.8851,400.0263C846.8489,400.9748 846.7933,401.9407 846.5358,402.8581C846.4512,403.0928 846.4219,403.2126 846.2868,403.4273C845.6929,404.3709 844.4121,404.8164 843.5702,405.3521C842.4988,405.8786 841.3589,406.2509 840.153,406.2564C839.9854,406.2429 839.8165,406.2405 839.6501,406.216C839.1545,406.1431 838.6926,405.9266 838.3496,405.5592L839.95,404.5984z" stroke="#000" stroke-linecap="round" stroke-linejoin="round" stroke-width=".2515"/>
<path d="M855.3145,402.4416C854.5752,402.6487 852.9725,403.6381 855.7701,402.0372C855.3821,402.2437 855.1517,402.5798 854.9702,402.9674C854.8666,403.278 854.756,403.6185 854.7785,403.9519C854.7941,404.1825 854.8541,404.2984 854.9325,404.5139C855.2396,405.1207 855.712,405.6197 856.2724,405.9977C856.6861,406.2858 857.1563,406.4169 857.6555,406.4229C858.0406,406.3354 858.3985,406.1854 858.7512,406.0106C858.9015,405.936 859.3421,405.6927 859.1979,405.7785C857.5361,406.7677 857.9523,406.5007 858.5404,406.098C859.0246,405.725 859.5509,405.2923 859.6756,404.6581C859.693,404.5695 859.6918,404.4782 859.6998,404.3883C859.6678,403.595 859.1666,402.974 858.6829,402.3875C858.3781,402.0482 858.0328,401.7247 857.616,401.5265C857.4045,401.426 857.2961,401.4081 857.072,401.3486C856.6201,401.324 856.1465,401.367 855.7174,401.5227C855.5191,401.5947 855.2184,401.7621 855.0341,401.8595C857.5472,400.3518 855.9005,401.3472 855.3822,401.798L853.6717,402.4977C854.4677,401.732 855.5306,401.2809 856.4559,400.7209C856.7244,400.5903 856.883,400.5 857.17,400.4129C857.6268,400.2742 858.1185,400.2418 858.589,400.3111C858.8309,400.3883 858.9289,400.4078 859.1562,400.5289C859.5792,400.7544 859.9281,401.0968 860.2402,401.4544C860.749,402.0808 861.2655,402.73 861.343,403.5638C861.3393,403.665 861.3455,403.767 861.3318,403.8674C861.239,404.5498 860.7314,405.0349 860.2151,405.4381C859.2139,406.1568 859.7269,405.809 857.7915,406.9053C857.2872,407.1909 856.7356,407.4328 856.1564,407.5004C855.6346,407.4542 855.1491,407.3005 854.7241,406.9838C854.1492,406.5645 853.6658,406.0351 853.3291,405.4044C853.2506,405.1989 853.1614,405.0032 853.1345,404.7815C853.0925,404.4343 853.208,404.0694 853.2917,403.7385C853.4525,403.33 853.6566,402.9427 854.0408,402.7028C854.9439,402.183 855.789,401.5865 856.7965,401.3084L855.3145,402.4416z" stroke="#000" stroke-linecap="round" stroke-linejoin="round" stroke-width=".2515"/>
<path d="M863.1107,403.1961C862.7904,403.2985 862.4577,403.3864 862.1533,403.5323C862.051,403.5813 861.955,403.6424 861.8559,403.6974C862.2766,403.4618 862.6973,403.2262 863.118,402.9907C862.6186,403.3277 862.2481,403.6644 862.0246,404.2292C861.8784,404.6945 861.9485,405.0879 862.317,405.432C862.4059,405.5151 862.5104,405.5798 862.6072,405.6536C863.3114,406.0582 864.145,406.203 864.9516,406.1174C865.1828,406.0929 865.4096,406.0369 865.6386,405.9966C866.1685,405.8598 866.3995,405.8217 866.8972,405.6128C867.0623,405.5435 867.5322,405.2824 867.3784,405.3742C865.1403,406.7107 866.1534,406.1284 866.5049,405.7726C866.5828,405.6937 866.6447,405.6004 866.7146,405.5143C867.0211,405.0348 867.029,404.6082 866.8131,404.0973C866.7735,404.0076 866.5451,403.5369 866.384,403.6388C866.3561,403.6564 866.342,403.6896 866.321,403.7151C868.8632,402.2654 867.8953,402.5078 867.6487,403.2143C867.5423,403.5192 867.5238,403.8156 867.5091,404.1358C867.6857,405.6221 868.3424,406.9984 868.8818,408.3793C869.5377,410.2037 870.1699,412.0969 870.2427,414.0537C870.2572,414.4432 870.2193,414.8328 870.2075,415.2223C870.1494,415.5969 870.1168,415.9763 870.033,416.346C869.7599,417.5518 869.1382,418.6556 868.2151,419.4829C868.0524,419.6287 867.8682,419.7486 867.6947,419.8815C867.0005,420.2442 866.3402,420.6807 865.6123,420.9694C865.3105,421.0891 864.5821,420.8394 864.3433,420.733C863.4558,420.3373 862.6893,419.6875 861.9353,419.0923C860.6634,418.0035 859.4181,416.8678 858.2802,415.6371C857.6907,414.9995 857.545,414.7849 857.033,414.1253C856.5972,413.3983 856.0836,412.5553 856.512,411.6983C856.7655,411.1911 857.0715,411.007 857.4962,410.6378C858.7689,409.813 858.8731,409.7191 860.7157,408.7861C861.1654,408.5583 862.6157,408.0433 863.0595,407.8885C863.9446,407.5797 864.8964,407.2738 865.7864,406.983C868.1245,406.3085 870.4145,405.4871 872.6779,404.5965C872.87,404.5149 873.0624,404.4338 873.2542,404.3515C873.4008,404.2887 873.5485,404.2282 873.6932,404.1612C873.989,404.0241 874.2653,403.8545 874.5705,403.7383C874.9843,403.6793 875.1294,404.1775 875.2533,404.4801C875.5386,405.2506 875.6993,406.0586 875.7687,406.8755C875.7858,407.2414 875.7977,407.6091 875.7459,407.973C875.7405,408.0102 875.7598,408.068 875.7257,408.0839C875.1713,408.3421 874.5924,408.544 874.0258,408.774C874.0273,408.6615 874.0211,408.5485 874.0303,408.4363C874.0436,408.273 874.0717,408.1113 874.0932,407.9489C874.2189,407.001 874.3836,406.0657 874.5765,405.1293C874.772,404.3125 874.9408,403.457 875.4076,402.744C875.9362,402.1905 877.1119,401.0993 877.6844,401.7344C877.7444,401.8009 877.7863,401.8816 877.8373,401.9552C877.9494,402.1533 878.0462,402.3038 878.1195,402.5233C878.3255,403.1404 878.418,403.8638 878.5272,404.5057C878.6696,405.0612 878.6153,405.7264 878.7838,406.2711C879.0067,405.6724 878.7816,406.2988 877.1807,407.0622C877.1482,407.0777 877.2296,407.0087 877.2478,406.9777C877.2894,406.9065 877.371,406.6976 877.4028,406.6334C877.4462,406.5459 877.4957,406.4615 877.5421,406.3756C877.8432,405.8931 878.0981,405.3831 878.4298,404.9203C878.9845,404.2253 879.5034,404.0736 880.4636,403.546C880.4966,403.5279 880.5409,403.5384 880.5762,403.5512C880.6213,403.5675 880.6562,403.6037 880.6962,403.63C881.0717,404.025 881.2025,404.5839 881.3293,405.0982C881.4395,405.6583 881.4985,406.2295 881.7033,406.7652C881.7532,406.8354 881.7939,406.9131 881.8529,406.9758C882.2827,407.4327 882.9937,407.7743 883.5799,407.9601C883.8005,408.03 884.0277,408.0767 884.2517,408.135C885.1998,408.3716 886.1511,408.3833 887.0942,408.1241C887.3029,408.0667 887.5126,408.0068 887.7103,407.9187C887.8944,407.8365 888.0594,407.7168 888.2339,407.6158C887.8708,407.8032 887.5344,408.0555 887.1445,408.178C886.9942,408.2252 887.3784,407.9662 887.4858,407.8508C887.8021,407.5107 887.983,407.1325 888.1103,406.6926C888.1977,406.3262 888.1961,405.9498 888.186,405.576C888.0839,404.8044 887.4022,405.5638 889.7622,404.6054C889.8052,404.5879 889.737,404.6949 889.7297,404.7407C889.7192,404.8073 889.716,404.8749 889.7091,404.942C889.6756,405.55 889.6617,406.1593 889.7293,406.765C889.7981,407.1547 889.8726,407.5528 890.1781,407.8263C890.393,407.9678 890.621,407.9774 890.8584,407.8997C891.4296,407.6115 892.2871,407.1114 889.6895,408.5778C889.5973,408.6299 889.8677,408.4636 889.9553,408.4042L891.6843,407.7167C891.5504,407.8266 891.5748,407.8153 891.4211,407.9052C890.837,408.2467 890.1136,408.8171 889.3745,409.0251C889.086,409.056 888.817,408.9932 888.5914,408.8015C888.2774,408.4741 888.1749,408.0567 888.105,407.6165C888.0307,407.0038 888.0456,406.3883 888.0536,405.772C888.0561,405.6897 888.0633,405.4037 888.0691,405.3999C889.2922,404.5875 889.6876,403.8186 889.8429,404.7267C889.8516,405.1195 889.852,405.5147 889.77,405.9012C889.3674,407.5052 888.3044,407.8706 886.8431,408.7357C886.6634,408.8263 886.4913,408.9338 886.304,409.0075C885.1785,409.4506 883.9521,409.4151 882.7945,409.1375C882.5632,409.0762 882.3284,409.027 882.1007,408.9536C881.5183,408.7656 880.6993,408.3636 880.2698,407.9117C880.1991,407.8373 880.1481,407.7463 880.0872,407.6636C879.8831,407.1173 879.8242,406.5385 879.7192,405.9676C879.6133,405.5252 879.5082,404.9781 879.1426,404.6711C879.0564,404.6819 879.1009,404.6689 879.0117,404.7182C879.5058,404.425 879.9998,404.1317 880.4938,403.8385C880.5356,403.8145 880.4173,403.8974 880.3823,403.9305C880.2943,404.0134 880.223,404.1132 880.128,404.1892C879.7734,404.635 879.5177,405.1406 879.2215,405.6254C879.1101,405.816 879.0182,405.9974 878.9473,406.2064C878.9329,406.249 878.9489,406.3129 878.9103,406.3361C877.2386,407.3417 877.6094,407.7484 877.1428,407.1624C877.0025,406.5709 877.0744,405.9429 876.9377,405.3486C876.804,404.5167 876.7011,403.6257 876.2489,402.8979C876.1703,402.8034 876.1365,402.7167 876.0116,402.6937C875.9777,402.6874 875.8797,402.7219 875.9088,402.7036C876.3936,402.4008 876.8969,402.1287 877.3869,401.8344C877.431,401.8079 877.2908,401.8723 877.2473,401.8996C877.1961,401.9318 877.1521,401.9744 877.1044,402.0117C876.5532,402.669 876.387,403.5564 876.1641,404.3616C875.913,405.5224 875.6974,406.6997 875.662,407.8895C875.1206,408.2212 874.5902,408.5716 874.038,408.8848C874.0075,408.9021 874.0682,408.8214 874.0779,408.7878C874.1791,408.4399 874.1503,408.0717 874.1502,407.7148C874.1036,406.9163 873.9543,406.1222 873.6492,405.3796C873.591,405.2453 873.4841,404.8559 873.2805,404.8421C873.2333,404.839 873.1467,404.8763 873.1091,404.8898C872.507,405.1579 871.9223,405.4655 871.2966,405.6798C869.0533,406.5235 866.7909,407.3143 864.4903,407.989C863.155,408.4308 861.8103,408.8578 860.5023,409.3776C860.1259,409.5272 859.7812,409.7733 859.3842,409.8538C859.1803,409.8951 860.0854,409.4088 859.8984,409.4999C859.6256,409.6328 859.3828,409.82 859.1251,409.98C858.6436,410.3664 858.0533,410.7663 857.9392,411.4325C857.8269,412.0882 858.2445,412.6945 858.527,413.2382C858.7016,413.4769 858.8679,413.7219 859.051,413.9542C860.3016,415.5402 861.8233,416.901 863.3726,418.1855C864.1327,418.753 864.9079,419.3876 865.8065,419.7318C866.0138,419.8112 866.2314,419.8713 866.4521,419.8959C866.6404,419.9169 867.1216,419.7073 867.0196,419.8669C866.8073,420.1994 866.3688,420.3129 866.0434,420.5359C866.2255,420.4088 866.4182,420.2956 866.5897,420.1545C867.5426,419.3706 868.2104,418.2883 868.5077,417.0924C868.598,416.7291 868.6333,416.3542 868.6961,415.9851C868.7142,415.6009 868.7602,415.2171 868.7504,414.8326C868.7009,412.8915 868.0425,411.0183 867.3791,409.218C866.8164,407.8261 866.1315,406.4541 865.8865,404.9605C865.8782,404.6069 865.8869,404.3378 865.9725,403.9957C865.9773,403.9766 866.0722,403.6361 866.1145,403.607C866.6573,403.2331 867.2354,402.9133 867.7959,402.5665C867.8385,402.5699 867.8825,402.5654 867.9238,402.5767C868.1885,402.6491 868.3155,402.9776 868.4261,403.1924C868.6618,403.7489 868.6941,404.244 868.3943,404.7907C868.3262,404.8881 868.2675,404.9927 868.1902,405.083C867.6381,405.7282 866.5338,406.181 865.9719,406.4937C865.4344,406.7928 864.816,406.9206 864.2248,407.059C863.9882,407.0946 863.7533,407.1461 863.5148,407.1655C862.6627,407.2351 861.7923,407.0822 861.065,406.6248C860.9606,406.5414 860.8481,406.4673 860.7518,406.3748C860.3444,405.9834 860.2173,405.5515 860.352,405.0112C860.5552,404.3651 860.8738,404.0524 861.4168,403.6547C862.4648,403.0356 863.4122,402.3527 864.5926,402.0629L863.1107,403.1961z" stroke="#000" stroke-linecap="round" stroke-linejoin="round" stroke-width=".2515"/>
<path d="M888.5215,397.5464C888.2972,397.8096 888.118,398.1107 888.0327,398.4471C887.9717,398.7835 888.1723,398.8697 888.4482,398.9904C888.8944,399.1539 889.2758,399.1359 889.7329,399.0551C890.344,398.8456 891.3146,398.2486 888.598,399.7472C888.5599,399.7682 888.6704,399.6981 888.7026,399.6687C888.7793,399.5989 888.787,399.57 888.8371,399.4824C888.9294,399.2754 888.9203,399.0816 888.8015,398.891C888.6434,398.7412 888.4057,398.7552 888.2017,398.7453C887.991,398.7647 887.7904,398.817 887.6191,398.9434L889.074,397.7717C889.2811,397.6933 889.4931,397.6437 889.7169,397.6615C889.9831,397.6879 890.2451,397.7256 890.4178,397.9532C890.5584,398.1898 890.614,398.4344 890.5327,398.7044C890.238,399.5937 889.1186,399.9532 888.2526,400.1649C887.7911,400.2229 887.3349,400.1976 886.901,400.0122C886.5892,399.8512 886.3096,399.6499 886.3568,399.2595C886.4144,398.8971 886.5912,398.5724 886.8035,398.2763L888.5215,397.5464z" stroke="#000" stroke-linecap="round" stroke-linejoin="round" stroke-width=".2515"/>
<path d="M864.6769,402.0782C865.0306,401.9062 865.3681,401.703 865.733,401.5548C865.9616,401.4063 866.2125,401.3377 866.4799,401.3084C866.726,401.2897 866.973,401.2929 867.2196,401.2937C867.4643,401.2677 867.6716,401.3346 867.8865,401.4395C868.037,401.5601 868.1557,401.7203 868.27,401.8753C868.3694,402.0558 868.4278,402.2584 868.489,402.4551C868.5438,402.6566 868.6184,402.8492 868.6579,403.0551C868.696,403.2969 868.6986,403.5422 868.7015,403.7864C868.7026,403.9123 868.7025,404.0382 868.7024,404.1641L867.0404,405.0107C867.0406,404.8854 867.0408,404.7602 867.0403,404.6349C867.0385,404.4006 867.0381,404.1653 867.0086,403.9325C866.9758,403.7317 866.9024,403.5471 866.849,403.3523C866.7971,403.1753 866.7411,402.9951 866.6608,402.8302C866.563,402.7019 866.4678,402.5555 866.3272,402.4724C866.1297,402.3866 865.9238,402.3811 865.7104,402.3903C865.4691,402.3913 865.2262,402.3902 864.9873,402.4291C864.7347,402.4826 864.5071,402.5913 864.2771,402.7067C863.9192,402.8731 863.5731,403.0639 863.2262,403.2518L864.6769,402.0782z" stroke="#000" stroke-linecap="round" stroke-linejoin="round" stroke-width=".2515"/>
<path d="M59.0398,38.4683H245.918A15.9099,15.9099 0 0 1 261.8279,54.3782V54.3782A15.9099,15.9099 0 0 1 245.918,70.2881H59.0398A15.9099,15.9099 0 0 1 43.1299,54.3782V54.3782A15.9099,15.9099 0 0 1 59.0398,38.4683z" fill="#fff" stroke="#000" stroke-linecap="round" stroke-linejoin="round" stroke-width="4"/>
<path d="M101.5203,44.9288A36.8706,34.8503 0 1 1 27.7792,44.9288A36.8706,34.8503 0 1 1 101.5203,44.9288z" stroke="#000" stroke-linecap="round" stroke-linejoin="round" stroke-width="7.491" transform="matrix(.7121,0,0,.7121,-2.15644,16.09118)"/>
<text font-family="Bitstream Vera Sans" font-size="40" x="19.4928" y="62.1257">
   <tspan fill="#f9f9f9" x="19.4928" y="62.1257">17</tspan>
  </text>
<text font-family="Bitstream Vera Sans" font-size="20" x="124.2827" y="62.2501">
   <tspan x="124.2827" y="62.2501">QCM</tspan>
  </text>
<path d="M446.8915,78.4154A61.5183,5.3033 0 1 1 323.8549,78.4154A61.5183,5.3033 0 1 1 446.8915,78.4154z" stroke="#000" stroke-linecap="round" stroke-width="4.862" transform="matrix(-1,0,0,1,518.84843,240.07559)"/>
<path d="M79.7171,231.6035L79.7171,279.4919C79.7171,299.4989 95.8238,315.6057 115.8308,315.6057L151.2648,315.6057C171.2718,315.6057 187.3786,299.4989 187.3786,279.4919L187.3786,231.6035" fill="#fff" stroke="#000" stroke-linecap="round" stroke-linejoin="round" stroke-width="3.642"/>
<path d="M-166.3306,251.415H-142.7966A.7803,.7803 0 0 1 -142.0163,252.1952V262.2213A.7803,.7803 0 0 1 -142.7966,263.0016H-166.3306A.7803,.7803 0 0 1 -167.1109,262.2213V252.1952A.7803,.7803 0 0 1 -166.3306,251.415z" stroke="#000" stroke-linecap="square" stroke-linejoin="round" stroke-width="3.7338" transform="scale(-1,1)"/>
<path d="M-124.9396,251.415H-104.5267A2.3409,2.3409 0 0 1 -102.1859,253.7558V260.6608A2.3409,2.3409 0 0 1 -104.5267,263.0016H-124.9396A2.3409,2.3409 0 0 1 -127.2805,260.6608V253.7558A2.3409,2.3409 0 0 1 -124.9396,251.415z" stroke="#000" stroke-linecap="square" stroke-linejoin="round" stroke-width="3.7338" transform="scale(-1,1)"/>
<path d="M185.0703,256.4696C184.5212,256.48 183.9718,256.4763 183.4225,256.4736C183.0596,256.4715 182.6966,256.4701 182.3336,256.4694C182.0411,256.469 181.7486,256.469 181.4562,256.469C181.1521,256.4684 180.8481,256.4696 180.544,256.4701C180.1534,256.4605 179.7688,256.4698 179.3821,256.5209C178.9825,256.5754 178.579,256.5926 178.1759,256.6036C177.7707,256.5878 177.373,256.6624 176.9719,256.7026C176.564,256.7394 176.1539,256.7433 175.7445,256.7476C175.3143,256.7499 174.8842,256.7498 174.454,256.7483C174.0804,256.7475 173.7068,256.747 173.3332,256.7461C173.0262,256.7453 172.7192,256.7451 172.4121,256.745C172.1206,256.7449 171.8291,256.7449 171.5376,256.7449C171.2461,256.7449 170.9546,256.7449 170.663,256.7449C170.3443,256.7445 170.0257,256.7454 169.707,256.7468C169.3127,256.7492 168.9184,256.7473 168.5241,256.7462C168.1533,256.7459 167.7824,256.7467 167.4115,256.7477C167.0148,256.7475 166.6181,256.7476 166.2213,256.7466C165.8414,256.7468 165.4614,256.7474 165.0814,256.7468C164.7358,256.7455 164.3903,256.7453 164.0447,256.7471C163.5115,256.7497 162.9783,256.7513 162.4451,256.7531C161.7185,256.7559 160.9918,256.7565 160.2652,256.7541C159.732,256.7528 159.1987,256.7489 158.6655,256.7487C158.2242,256.7493 157.7829,256.7487 157.3416,256.7472C157.2805,256.747 157.2194,256.7468 157.1583,256.7466L158.9043,257.9459C158.9648,257.9457 159.0253,257.9455 159.0858,257.9453C159.5257,257.9438 159.9655,257.9431 160.4054,257.9438C160.9333,257.9436 161.4613,257.9397 161.9892,257.9384C162.7168,257.9359 163.4444,257.9366 164.172,257.9393C164.7112,257.9412 165.2502,257.9428 165.7893,257.9454C166.1351,257.9471 166.481,257.947 166.8268,257.9457C167.2069,257.9451 167.587,257.9457 167.9671,257.9458C168.3628,257.9448 168.7585,257.9449 169.1542,257.9448C169.5265,257.9458 169.8989,257.9465 170.2712,257.9463C170.6649,257.9452 171.0586,257.9433 171.4522,257.9456C171.7728,257.947 172.0933,257.948 172.4139,257.9476C172.7055,257.9476 172.997,257.9476 173.2886,257.9476C173.58,257.9476 173.8714,257.9476 174.1629,257.9475C174.4689,257.9474 174.7749,257.9472 175.0808,257.9466C175.4529,257.9459 175.8249,257.9457 176.1969,257.9457C176.6271,257.9448 177.0572,257.9464 177.4874,257.9416C177.9021,257.936 178.3176,257.9271 178.7301,257.8821C179.1269,257.8376 179.5222,257.7849 179.9232,257.7952C180.331,257.78 180.738,257.7517 181.1424,257.6984C181.5245,257.658 181.9078,257.6692 182.2917,257.6706C182.5969,257.6712 182.902,257.6724 183.2072,257.6717C183.4993,257.6718 183.7914,257.6718 184.0835,257.6714C184.4424,257.6707 184.8012,257.6693 185.16,257.6671C185.7133,257.6643 186.2666,257.6609 186.8197,257.6712L185.0703,256.4696z" stroke="#000" stroke-linecap="square" stroke-linejoin="round" stroke-width=".4767"/>
<path d="M98.7866,256.7717C97.8344,256.7829 96.8821,256.7814 95.9299,256.781C95.0571,256.7801 94.1842,256.7784 93.3114,256.7756C92.7282,256.7734 92.1449,256.7733 91.5617,256.7728C91.1021,256.772 90.6424,256.7712 90.1828,256.7708C89.7812,256.7914 89.3954,256.716 89.0007,256.6797C88.6049,256.6473 88.2058,256.6426 87.8076,256.6393C87.4124,256.6372 87.0172,256.6381 86.622,256.6384C86.2272,256.6388 85.8325,256.639 85.4378,256.639C85.0431,256.6391 84.6484,256.6391 84.2537,256.6391C83.859,256.6391 83.4643,256.6391 83.0696,256.6391C82.6458,256.6385 82.2221,256.6401 81.7983,256.6402C81.3692,256.6399 80.94,256.6395 80.5109,256.6393C80.1134,256.6391 79.716,256.6391 79.3185,256.6391C79.0556,256.6391 79.1871,256.6391 78.9242,256.6391L81.2927,257.7843C81.5555,257.7843 81.4241,257.7843 81.687,257.7843C82.0841,257.7843 82.4813,257.7843 82.8785,257.7841C83.3064,257.7839 83.7343,257.7834 84.1623,257.7832C84.5875,257.7832 85.0128,257.7849 85.438,257.7843C85.8327,257.7843 86.2275,257.7843 86.6222,257.7843C87.0169,257.7843 87.4116,257.7843 87.8063,257.7842C88.2011,257.7841 88.5958,257.7838 88.9906,257.7835C89.3846,257.7833 89.7787,257.7825 90.1726,257.7876C90.564,257.7946 90.956,257.8062 91.3431,257.8481C91.7436,257.8912 92.1419,257.9345 92.5498,257.9153C93.0067,257.9149 93.4635,257.9141 93.9204,257.9133C94.4997,257.9128 95.079,257.9127 95.6583,257.9104C96.5238,257.9076 97.3893,257.9059 98.2548,257.9051C99.2198,257.9047 100.1849,257.9033 101.1498,257.9144L98.7866,256.7717z" stroke="#000" stroke-linecap="square" stroke-linejoin="round" stroke-width=".541"/>
<path d="M150.211,256.9813C149.2076,257.0422 148.1952,257.0614 147.1842,257.0758C146.2819,257.0862 145.3792,257.0862 144.4768,257.0851C143.7317,257.0846 142.9866,257.0845 142.2416,257.0836C140.746,257.1021 139.2494,257.093 137.7535,257.0897C136.8496,257.0865 135.9457,257.0852 135.0418,257.0834C134.321,257.0835 133.6002,257.0831 132.8793,257.084C132.1215,257.0851 131.3637,257.0831 130.606,257.0837C129.9222,257.0829 129.2384,257.083 128.5546,257.0831C127.8698,257.0836 127.185,257.0833 126.5001,257.0826C125.846,257.0837 125.1918,257.0827 124.5376,257.0822C123.8976,257.0835 123.2575,257.0826 122.6174,257.0822C122.0521,257.0818 121.4867,257.0817 120.9214,257.0816C120.4485,257.1343 119.9729,257.1723 119.4878,257.1906C118.9617,257.2061 118.4342,257.2061 117.9073,257.2068C117.3591,257.207 116.8109,257.2065 116.2627,257.2062C115.9883,257.2061 115.7138,257.206 115.4394,257.206L118.73,258.2898C119.0044,258.2899 119.2788,258.29 119.5532,258.2901C120.102,258.2904 120.6508,258.2911 121.1997,258.2898C121.7357,258.2876 122.2728,258.2853 122.8064,258.2599C123.2774,258.2335 123.7386,258.1791 124.2119,258.1653C124.7761,258.1653 125.3404,258.1651 125.9045,258.1648C126.5445,258.1643 127.1845,258.1635 127.8245,258.1647C128.4778,258.1642 129.1312,258.1633 129.7846,258.1643C130.4685,258.1637 131.1524,258.1633 131.8363,258.1639C132.5188,258.164 133.2014,258.164 133.884,258.1633C134.6412,258.1638 135.3984,258.1618 136.1557,258.163C136.8776,258.1639 137.5995,258.1635 138.3214,258.1635C139.2126,258.1617 140.1037,258.1605 140.9949,258.1572C142.5036,258.1539 144.0128,258.1453 145.5213,258.1639C146.2651,258.1635 147.0089,258.1643 147.7527,258.1635C148.652,258.161 149.5514,258.1576 150.4502,258.1432C151.4795,258.1241 152.5077,258.0947 153.5326,258.0468L150.211,256.9813z" stroke="#000" stroke-linecap="square" stroke-linejoin="round" stroke-width=".6203"/>
<path d="M172.3729,219.0961L172.3729,237.6394" fill="none" stroke="#000" stroke-linecap="round" stroke-width="4.8046"/>
<path d="M162.8488,217.3418L162.8488,235.885" fill="none" stroke="#000" stroke-linecap="round" stroke-width="4.8046"/>
<path d="M153.9119,218.8061L153.9119,237.3493" fill="none" stroke="#000" stroke-linecap="round" stroke-width="4.8046"/>
<path d="M142.2352,217.6389L142.2352,236.1821" fill="none" stroke="#000" stroke-linecap="round" stroke-width="4.8046"/>
<path d="M132.0766,219.8255L132.0766,238.3687" fill="none" stroke="#000" stroke-linecap="round" stroke-width="4.8046"/>
<path d="M120.4473,219.6501L120.4473,238.1933" fill="none" stroke="#000" stroke-linecap="round" stroke-width="4.8046"/>
<path d="M109.9447,217.9359L109.9447,236.4792" fill="none" stroke="#000" stroke-linecap="round" stroke-width="4.8046"/>
<path d="M100.0293,220.9728L100.0293,239.5161" fill="none" stroke="#000" stroke-linecap="round" stroke-width="4.8046"/>
<path d="M89.3564,220.6041L89.3564,239.1474" fill="none" stroke="#000" stroke-linecap="round" stroke-width="4.8046"/>
<path d="M180.2571,223.8264L180.2571,242.3696" fill="none" stroke="#000" stroke-linecap="round" stroke-width="4.8046"/>
<path d="M-598.7879,740.4632H-447.3029A15.0365,15.0365 0 0 1 -432.2664,755.4997V780.8329A15.0365,15.0365 0 0 1 -447.3029,795.8693H-598.7879A15.0365,15.0365 0 0 1 -613.8244,780.8329V755.4997A15.0365,15.0365 0 0 1 -598.7879,740.4632z" stroke="#000" stroke-linecap="round" stroke-linejoin="round" stroke-width="2.3147" transform="matrix(1,0,.8886,.45868,0,0)"/>
<path d="M106.6224,323.0629H114.926A4.1432,4.1432 0 0 1 119.0692,327.2061V357.5896A4.1432,4.1432 0 0 1 114.926,361.7328H106.6224A4.1432,4.1432 0 0 1 102.4792,357.5896V327.2061A4.1432,4.1432 0 0 1 106.6224,323.0629z" fill="#fff" stroke="#000" stroke-linecap="round" stroke-linejoin="round" stroke-width="3.9917"/>
<path d="M233.0378,323.0629H241.3414A4.1432,4.1432 0 0 1 245.4846,327.2061V357.5896A4.1432,4.1432 0 0 1 241.3414,361.7328H233.0378A4.1432,4.1432 0 0 1 228.8946,357.5896V327.2061A4.1432,4.1432 0 0 1 233.0378,323.0629z" fill="#fff" stroke="#000" stroke-linecap="round" stroke-linejoin="round" stroke-width="3.9917"/>
<path d="M205.1667,310.9095H213.4702A4.1432,4.1432 0 0 1 217.6134,315.0527V345.4362A4.1432,4.1432 0 0 1 213.4702,349.5794H205.1667A4.1432,4.1432 0 0 1 201.0235,345.4362V315.0527A4.1432,4.1432 0 0 1 205.1667,310.9095z" fill="#fff" stroke="#000" stroke-linecap="round" stroke-linejoin="round" stroke-width="3.9917"/>
<path d="M75.765,307.5949H84.0686A4.1432,4.1432 0 0 1 88.2118,311.7381V342.1216A4.1432,4.1432 0 0 1 84.0686,346.2648H75.765A4.1432,4.1432 0 0 1 71.6218,342.1216V311.7381A4.1432,4.1432 0 0 1 75.765,307.5949z" fill="#fff" stroke="#000" stroke-linecap="round" stroke-linejoin="round" stroke-width="3.9917"/>
<path d="M-522.9517,657.3604H-371.4667A15.0365,15.0365 0 0 1 -356.4302,672.3969V697.7301A15.0365,15.0365 0 0 1 -371.4667,712.7666H-522.9517A15.0365,15.0365 0 0 1 -537.9882,697.7301V672.3969A15.0365,15.0365 0 0 1 -522.9517,657.3604z" fill="#fff" stroke="#000" stroke-linecap="round" stroke-linejoin="round" stroke-width="2.3147" transform="matrix(1,0,.8886,.45868,0,0)"/>
<path d="M-516.1239,648.9298H-364.6389A15.0365,15.0365 0 0 1 -349.6024,663.9662V689.2994A15.0365,15.0365 0 0 1 -364.6389,704.3359H-516.1239A15.0365,15.0365 0 0 1 -531.1604,689.2994V663.9662A15.0365,15.0365 0 0 1 -516.1239,648.9298z" fill="#fff" stroke="#000" stroke-linecap="round" stroke-linejoin="round" stroke-width="2.3147" transform="matrix(1,0,.8886,.45868,0,0)"/>
<text font-family="Bitstream Vera Sans" font-size="20" x="151.5723" y="110.8451">
   <tspan text-align="center" text-anchor="middle" x="151.5723" y="110.8451">C'est bon j'ai tout</tspan>
   <tspan text-align="center" text-anchor="middle" x="151.5723" y="135.8451">révisé pour les QCMs.</tspan>
   <tspan text-align="center" text-anchor="middle" x="151.5723" y="160.8451">C'est parti !</tspan>
  </text>
<path d="M446.8915,78.4154A61.5183,5.3033 0 1 1 323.8549,78.4154A61.5183,5.3033 0 1 1 446.8915,78.4154z" stroke="#000" stroke-linecap="round" stroke-width="4.862" transform="matrix(-1,0,0,1,811.08235,241.81676)"/>
<path d="M371.951,233.3447L371.951,281.2331C371.951,301.2401 388.0577,317.3468 408.0647,317.3468L443.4988,317.3468C463.5058,317.3468 479.6125,301.2401 479.6125,281.2331L479.6125,233.3447" fill="#fff" stroke="#000" stroke-linecap="round" stroke-linejoin="round" stroke-width="3.642"/>
<path d="M-458.5645,253.1561H-435.0305A.7803,.7803 0 0 1 -434.2502,253.9364V263.9625A.7803,.7803 0 0 1 -435.0305,264.7428H-458.5645A.7803,.7803 0 0 1 -459.3448,263.9625V253.9364A.7803,.7803 0 0 1 -458.5645,253.1561z" stroke="#000" stroke-linecap="square" stroke-linejoin="round" stroke-width="3.7338" transform="scale(-1,1)"/>
<path d="M-417.1735,253.1561H-396.7606A2.3409,2.3409 0 0 1 -394.4198,255.497V262.4019A2.3409,2.3409 0 0 1 -396.7606,264.7428H-417.1735A2.3409,2.3409 0 0 1 -419.5144,262.4019V255.497A2.3409,2.3409 0 0 1 -417.1735,253.1561z" stroke="#000" stroke-linecap="square" stroke-linejoin="round" stroke-width="3.7338" transform="scale(-1,1)"/>
<path d="M477.3043,258.2107C476.7551,258.2212 476.2057,258.2175 475.6564,258.2148C475.2935,258.2126 474.9305,258.2112 474.5676,258.2106C474.2751,258.2101 473.9826,258.2102 473.6901,258.2102C473.3861,258.2095 473.082,258.2108 472.778,258.2113C472.3873,258.2016 472.0027,258.2109 471.616,258.262C471.2164,258.3166 470.8129,258.3337 470.4098,258.3447C470.0046,258.329 469.6069,258.4036 469.2058,258.4438C468.7979,258.4805 468.3878,258.4844 467.9784,258.4888C467.5482,258.4911 467.1181,258.4909 466.688,258.4895C466.3143,258.4887 465.9408,258.4882 465.5672,258.4872C465.2601,258.4865 464.9531,258.4862 464.6461,258.4861C464.3546,258.486 464.0631,258.486 463.7716,258.4861C463.48,258.4861 463.1885,258.4861 462.897,258.4861C462.5783,258.4857 462.2596,258.4866 461.9409,258.488C461.5466,258.4904 461.1523,258.4885 460.7581,258.4874C460.3872,258.4871 460.0163,258.4879 459.6454,258.4889C459.2487,258.4887 458.852,258.4888 458.4553,258.4878C458.0753,258.488 457.6953,258.4886 457.3154,258.488C456.9698,258.4867 456.6242,258.4865 456.2786,258.4882C455.7454,258.4908 455.2122,258.4924 454.679,258.4943C453.9524,258.4971 453.2258,258.4977 452.4991,258.4953C451.9659,258.4939 451.4327,258.4901 450.8994,258.4899C450.4581,258.4905 450.0168,258.4898 449.5755,258.4884C449.5144,258.4882 449.4533,258.488 449.3922,258.4878L451.1382,259.6871C451.1987,259.6869 451.2592,259.6867 451.3197,259.6865C451.7596,259.685 452.1994,259.6843 452.6393,259.685C453.1672,259.6847 453.6952,259.6809 454.2231,259.6795C454.9507,259.6771 455.6784,259.6777 456.406,259.6805C456.9451,259.6824 457.4841,259.684 458.0232,259.6866C458.3691,259.6883 458.7149,259.6881 459.0607,259.6868C459.4408,259.6863 459.8209,259.6868 460.2011,259.687C460.5967,259.686 460.9924,259.6861 461.3881,259.6859C461.7604,259.687 462.1328,259.6877 462.5051,259.6874C462.8988,259.6864 463.2925,259.6844 463.6861,259.6868C464.0067,259.6882 464.3273,259.6891 464.6478,259.6888C464.9394,259.6888 465.2309,259.6888 465.5225,259.6888C465.8139,259.6888 466.1054,259.6888 466.3968,259.6887C466.7028,259.6886 467.0088,259.6883 467.3148,259.6877C467.6868,259.687 468.0588,259.6869 468.4308,259.6868C468.861,259.686 469.2912,259.6875 469.7213,259.6828C470.1361,259.6771 470.5515,259.6682 470.964,259.6233C471.3608,259.5787 471.7561,259.5261 472.1571,259.5364C472.5649,259.5212 472.972,259.4929 473.3764,259.4396C473.7584,259.3992 474.1417,259.4104 474.5256,259.4118C474.8308,259.4123 475.1359,259.4135 475.4411,259.4129C475.7332,259.4129 476.0253,259.413 476.3174,259.4125C476.6763,259.4119 477.0351,259.4104 477.394,259.4083C477.9472,259.4055 478.5005,259.4021 479.0537,259.4124L477.3043,258.2107z" stroke="#000" stroke-linecap="square" stroke-linejoin="round" stroke-width=".4767"/>
<path d="M391.0205,258.5129C390.0684,258.5241 389.116,258.5226 388.1638,258.5221C387.291,258.5213 386.4182,258.5196 385.5454,258.5168C384.9621,258.5145 384.3788,258.5145 383.7956,258.5139C383.336,258.5132 382.8763,258.5124 382.4167,258.5119C382.0152,258.5325 381.6293,258.4572 381.2347,258.4209C380.8389,258.3884 380.4398,258.3838 380.0415,258.3804C379.6463,258.3784 379.2511,258.3793 378.8559,258.3796C378.4612,258.38 378.0665,258.3801 377.6718,258.3802C377.2771,258.3802 376.8824,258.3802 376.4877,258.3802C376.0929,258.3802 375.6982,258.3802 375.3035,258.3802C374.8797,258.3797 374.456,258.3813 374.0322,258.3813C373.6031,258.3811 373.174,258.3807 372.7448,258.3804C372.3474,258.3803 371.9499,258.3802 371.5524,258.3802C371.2896,258.3802 371.421,258.3802 371.1582,258.3802L373.5266,259.5255C373.7894,259.5255 373.658,259.5255 373.9209,259.5255C374.318,259.5254 374.7152,259.5254 375.1124,259.5253C375.5403,259.525 375.9682,259.5246 376.3962,259.5244C376.8215,259.5244 377.2467,259.526 377.6719,259.5255C378.0666,259.5255 378.4614,259.5255 378.8561,259.5255C379.2508,259.5255 379.6456,259.5255 380.0403,259.5254C380.435,259.5252 380.8298,259.525 381.2245,259.5247C381.6185,259.5245 382.0126,259.5237 382.4065,259.5288C382.7979,259.5358 383.1899,259.5474 383.577,259.5893C383.9775,259.6324 384.3758,259.6756 384.7837,259.6565C385.2406,259.6561 385.6975,259.6552 386.1543,259.6545C386.7336,259.654 387.3129,259.6539 387.8922,259.6516C388.7577,259.6488 389.6232,259.6471 390.4887,259.6463C391.4537,259.6458 392.4188,259.6445 393.3837,259.6555L391.0205,258.5129z" stroke="#000" stroke-linecap="square" stroke-linejoin="round" stroke-width=".541"/>
<path d="M442.445,258.7224C441.4415,258.7833 440.4291,258.8025 439.4181,258.8169C438.5158,258.8274 437.6132,258.8274 436.7107,258.8262C435.9656,258.8258 435.2205,258.8257 434.4755,258.8248C432.9799,258.8432 431.4834,258.8342 429.9874,258.8309C429.0835,258.8277 428.1796,258.8264 427.2757,258.8246C426.5549,258.8246 425.8341,258.8242 425.1132,258.8251C424.3555,258.8263 423.5977,258.8243 422.8399,258.8249C422.1561,258.8241 421.4723,258.8242 420.7885,258.8243C420.1037,258.8248 419.4189,258.8245 418.734,258.8238C418.0799,258.8249 417.4257,258.8239 416.7715,258.8234C416.1315,258.8247 415.4914,258.8238 414.8514,258.8234C414.286,258.823 413.7206,258.8229 413.1553,258.8228C412.6824,258.8755 412.2068,258.9134 411.7217,258.9318C411.1956,258.9473 410.6681,258.9473 410.1412,258.948C409.593,258.9482 409.0448,258.9476 408.4966,258.9474C408.2222,258.9472 407.9478,258.9472 407.6733,258.9472L410.964,260.031C411.2383,260.031 411.5127,260.0311 411.7871,260.0313C412.3359,260.0316 412.8848,260.0322 413.4336,260.0309C413.9696,260.0287 414.5067,260.0264 415.0403,260.0011C415.5113,259.9746 415.9725,259.9203 416.4458,259.9065C417.0101,259.9064 417.5743,259.9063 418.1384,259.9059C418.7784,259.9055 419.4184,259.9046 420.0584,259.9059C420.7118,259.9054 421.3651,259.9044 422.0185,259.9055C422.7024,259.9048 423.3863,259.9045 424.0702,259.905C424.7527,259.9051 425.4353,259.9052 426.1179,259.9044C426.8751,259.905 427.6323,259.903 428.3896,259.9042C429.1115,259.9051 429.8335,259.9047 430.5553,259.9047C431.4465,259.9029 432.3377,259.9016 433.2288,259.8984C434.7375,259.8951 436.2468,259.8865 437.7552,259.9051C438.499,259.9047 439.2428,259.9055 439.9866,259.9047C440.8859,259.9021 441.7853,259.8988 442.6841,259.8844C443.7135,259.8653 444.7416,259.8359 445.7665,259.788L442.445,258.7224z" stroke="#000" stroke-linecap="square" stroke-linejoin="round" stroke-width=".6203"/>
<path d="M464.6068,220.8373L464.6068,239.3805" fill="none" stroke="#000" stroke-linecap="round" stroke-width="4.8046"/>
<path d="M455.0828,219.083L455.0828,237.6262" fill="none" stroke="#000" stroke-linecap="round" stroke-width="4.8046"/>
<path d="M446.1458,220.5473L446.1458,239.0905" fill="none" stroke="#000" stroke-linecap="round" stroke-width="4.8046"/>
<path d="M434.4691,219.3801L434.4691,237.9233" fill="none" stroke="#000" stroke-linecap="round" stroke-width="4.8046"/>
<path d="M424.3105,221.5667L424.3105,240.1099" fill="none" stroke="#000" stroke-linecap="round" stroke-width="4.8046"/>
<path d="M412.6812,221.3913L412.6812,239.9345" fill="none" stroke="#000" stroke-linecap="round" stroke-width="4.8046"/>
<path d="M402.1787,219.6771L402.1787,238.2203" fill="none" stroke="#000" stroke-linecap="round" stroke-width="4.8046"/>
<path d="M392.2633,222.714L392.2633,241.2572" fill="none" stroke="#000" stroke-linecap="round" stroke-width="4.8046"/>
<path d="M381.5903,222.3453L381.5903,240.8885" fill="none" stroke="#000" stroke-linecap="round" stroke-width="4.8046"/>
<path d="M434.2231,297.4198L407.1001,292.9915" fill="none" stroke="#000" stroke-width=".7749"/>
<path d="M472.491,225.5675L472.491,244.1108" fill="none" stroke="#000" stroke-linecap="round" stroke-width="4.8046"/>
<path d="M-321.045,741.8505H-169.56A15.0365,15.0365 0 0 1 -154.5235,756.8869V782.2201A15.0365,15.0365 0 0 1 -169.56,797.2566H-321.045A15.0365,15.0365 0 0 1 -336.0815,782.2201V756.8869A15.0365,15.0365 0 0 1 -321.045,741.8505z" stroke="#000" stroke-linecap="round" stroke-linejoin="round" stroke-width="2.3147" transform="matrix(1,0,.8886,.45868,0,0)"/>
<path d="M385.5981,323.6992H393.9016A4.1432,4.1432 0 0 1 398.0448,327.8424V358.2259A4.1432,4.1432 0 0 1 393.9016,362.3691H385.5981A4.1432,4.1432 0 0 1 381.4549,358.2259V327.8424A4.1432,4.1432 0 0 1 385.5981,323.6992z" fill="#fff" stroke="#000" stroke-linecap="round" stroke-linejoin="round" stroke-width="3.9917"/>
<path d="M512.0135,323.6992H520.317A4.1432,4.1432 0 0 1 524.4602,327.8424V358.2259A4.1432,4.1432 0 0 1 520.317,362.3691H512.0135A4.1432,4.1432 0 0 1 507.8703,358.2259V327.8424A4.1432,4.1432 0 0 1 512.0135,323.6992z" fill="#fff" stroke="#000" stroke-linecap="round" stroke-linejoin="round" stroke-width="3.9917"/>
<path d="M484.1424,311.5458H492.4459A4.1432,4.1432 0 0 1 496.5891,315.689V346.0725A4.1432,4.1432 0 0 1 492.4459,350.2157H484.1424A4.1432,4.1432 0 0 1 479.9991,346.0725V315.689A4.1432,4.1432 0 0 1 484.1424,311.5458z" fill="#fff" stroke="#000" stroke-linecap="round" stroke-linejoin="round" stroke-width="3.9917"/>
<path d="M354.7407,308.2313H363.0442A4.1432,4.1432 0 0 1 367.1874,312.3745V342.758A4.1432,4.1432 0 0 1 363.0442,346.9012H354.7407A4.1432,4.1432 0 0 1 350.5975,342.758V312.3745A4.1432,4.1432 0 0 1 354.7407,308.2313z" fill="#fff" stroke="#000" stroke-linecap="round" stroke-linejoin="round" stroke-width="3.9917"/>
<path d="M-245.2088,658.7477H-93.7237A15.0365,15.0365 0 0 1 -78.6873,673.7842V699.1174A15.0365,15.0365 0 0 1 -93.7237,714.1538H-245.2088A15.0365,15.0365 0 0 1 -260.2453,699.1174V673.7842A15.0365,15.0365 0 0 1 -245.2088,658.7477z" fill="#fff" stroke="#000" stroke-linecap="round" stroke-linejoin="round" stroke-width="2.3147" transform="matrix(1,0,.8886,.45868,0,0)"/>
<path d="M-238.381,650.317H-86.8959A15.0365,15.0365 0 0 1 -71.8595,665.3535V690.6867A15.0365,15.0365 0 0 1 -86.8959,705.7232H-238.381A15.0365,15.0365 0 0 1 -253.4175,690.6867V665.3535A15.0365,15.0365 0 0 1 -238.381,650.317z" fill="#fff" stroke="#000" stroke-linecap="round" stroke-linejoin="round" stroke-width="2.3147" transform="matrix(1,0,.8886,.45868,0,0)"/>
<path d="M446.8915,78.4154A61.5183,5.3033 0 1 1 323.8549,78.4154A61.5183,5.3033 0 1 1 446.8915,78.4154z" stroke="#000" stroke-linecap="round" stroke-width="4.862" transform="matrix(-1,0,0,1,1109.393,248.44588)"/>
<path d="M670.2617,239.9738L670.2617,287.8622C670.2617,307.8692 686.3684,323.976 706.3754,323.976L741.8094,323.976C761.8164,323.976 777.9232,307.8692 777.9232,287.8622L777.9232,239.9738" fill="#fff" stroke="#000" stroke-linecap="round" stroke-linejoin="round" stroke-width="3.642"/>
<path d="M727.8472,303.6427L700.7242,299.2145" fill="none" stroke="#000" stroke-width=".7749"/>
<path d="M-756.8752,259.7853H-733.3412A.7803,.7803 0 0 1 -732.5609,260.5655V270.5916A.7803,.7803 0 0 1 -733.3412,271.3719H-756.8752A.7803,.7803 0 0 1 -757.6555,270.5916V260.5655A.7803,.7803 0 0 1 -756.8752,259.7853z" stroke="#000" stroke-linecap="square" stroke-linejoin="round" stroke-width="3.7338" transform="scale(-1,1)"/>
<path d="M-715.4842,259.7853H-695.0713A2.3409,2.3409 0 0 1 -692.7305,262.1261V269.031A2.3409,2.3409 0 0 1 -695.0713,271.3719H-715.4842A2.3409,2.3409 0 0 1 -717.8251,269.031V262.1261A2.3409,2.3409 0 0 1 -715.4842,259.7853z" stroke="#000" stroke-linecap="square" stroke-linejoin="round" stroke-width="3.7338" transform="scale(-1,1)"/>
<path d="M775.615,264.8399C775.0657,264.8503 774.5164,264.8466 773.9671,264.8439C773.6042,264.8418 773.2412,264.8404 772.8782,264.8397C772.5857,264.8392 772.2932,264.8393 772.0008,264.8393C771.6967,264.8386 771.3927,264.8399 771.0887,264.8404C770.698,264.8308 770.3134,264.8401 769.9267,264.8911C769.5271,264.9457 769.1236,264.9629 768.7205,264.9739C768.3153,264.9581 767.9176,265.0327 767.5165,265.0729C767.1086,265.1097 766.6985,265.1136 766.2891,265.1179C765.8589,265.1202 765.4288,265.12 764.9986,265.1186C764.625,265.1178 764.2514,265.1173 763.8778,265.1164C763.5708,265.1156 763.2638,265.1154 762.9567,265.1152C762.6652,265.1152 762.3737,265.1152 762.0822,265.1152C761.7907,265.1152 761.4992,265.1152 761.2076,265.1152C760.8889,265.1148 760.5702,265.1157 760.2516,265.1171C759.8573,265.1195 759.463,265.1176 759.0688,265.1165C758.6979,265.1162 758.327,265.117 757.9561,265.118C757.5594,265.1178 757.1627,265.1179 756.7659,265.1169C756.386,265.1171 756.006,265.1177 755.626,265.1171C755.2804,265.1158 754.9349,265.1156 754.5893,265.1173C754.0561,265.12 753.5229,265.1215 752.9897,265.1234C752.2631,265.1262 751.5364,265.1268 750.8098,265.1244C750.2766,265.1231 749.7433,265.1192 749.2101,265.119C748.7688,265.1196 748.3275,265.119 747.8862,265.1175C747.8251,265.1173 747.764,265.1171 747.7029,265.1169L749.4489,266.3162C749.5094,266.316 749.5699,266.3158 749.6304,266.3156C750.0703,266.3141 750.5101,266.3134 750.95,266.3141C751.4779,266.3139 752.0059,266.31 752.5338,266.3087C753.2614,266.3062 753.9891,266.3068 754.7166,266.3096C755.2558,266.3115 755.7948,266.3131 756.3339,266.3157C756.6797,266.3174 757.0256,266.3173 757.3714,266.316C757.7515,266.3154 758.1316,266.3159 758.5117,266.3161C758.9074,266.3151 759.3031,266.3152 759.6988,266.315C760.0711,266.3161 760.4435,266.3168 760.8158,266.3166C761.2095,266.3155 761.6032,266.3136 761.9968,266.3159C762.3174,266.3173 762.6379,266.3182 762.9585,266.3179C763.2501,266.3179 763.5416,266.3179 763.8332,266.3179C764.1246,266.3179 764.416,266.3179 764.7075,266.3178C765.0135,266.3177 765.3195,266.3175 765.6255,266.3168C765.9975,266.3162 766.3695,266.316 766.7415,266.316C767.1717,266.3151 767.6018,266.3167 768.032,266.3119C768.4467,266.3063 768.8622,266.2973 769.2747,266.2524C769.6715,266.2079 770.0668,266.1552 770.4678,266.1655C770.8756,266.1503 771.2826,266.122 771.687,266.0687C772.0691,266.0283 772.4524,266.0395 772.8363,266.0409C773.1415,266.0414 773.4466,266.0427 773.7518,266.042C774.0439,266.0421 774.336,266.0421 774.6281,266.0416C774.9869,266.041 775.3458,266.0396 775.7046,266.0374C776.2579,266.0346 776.8112,266.0312 777.3643,266.0415L775.615,264.8399z" stroke="#000" stroke-linecap="square" stroke-linejoin="round" stroke-width=".4767"/>
<path d="M689.3312,265.142C688.379,265.1532 687.4267,265.1517 686.4745,265.1512C685.6016,265.1504 684.7288,265.1487 683.856,265.1459C683.2728,265.1437 682.6895,265.1436 682.1063,265.1431C681.6467,265.1423 681.187,265.1415 680.7274,265.141C680.3258,265.1617 679.94,265.0863 679.5453,265.05C679.1495,265.0176 678.7504,265.0129 678.3522,265.0095C677.957,265.0075 677.5618,265.0084 677.1666,265.0087C676.7718,265.0091 676.3772,265.0093 675.9824,265.0093C675.5878,265.0094 675.193,265.0094 674.7983,265.0094C674.4036,265.0094 674.0089,265.0094 673.6142,265.0094C673.1904,265.0088 672.7667,265.0104 672.3429,265.0104C671.9138,265.0102 671.4846,265.0098 671.0555,265.0096C670.658,265.0094 670.2606,265.0094 669.8631,265.0094C669.6002,265.0093 669.7317,265.0093 669.4688,265.0093L671.8373,266.1546C672.1001,266.1546 671.9687,266.1546 672.2316,266.1546C672.6287,266.1546 673.0259,266.1545 673.4231,266.1544C673.851,266.1542 674.2789,266.1537 674.7069,266.1535C675.1321,266.1535 675.5574,266.1551 675.9826,266.1546C676.3773,266.1546 676.7721,266.1546 677.1668,266.1546C677.5615,266.1546 677.9562,266.1546 678.3509,266.1545C678.7457,266.1544 679.1404,266.1541 679.5352,266.1538C679.9292,266.1536 680.3233,266.1528 680.7172,266.1579C681.1086,266.1649 681.5006,266.1765 681.8877,266.2184C682.2882,266.2615 682.6865,266.3047 683.0944,266.2856C683.5513,266.2852 684.0081,266.2844 684.465,266.2836C685.0443,266.2831 685.6236,266.283 686.2029,266.2807C687.0684,266.2779 687.9339,266.2762 688.7994,266.2754C689.7644,266.2749 690.7295,266.2736 691.6944,266.2847L689.3312,265.142z" stroke="#000" stroke-linecap="square" stroke-linejoin="round" stroke-width=".541"/>
<path d="M740.7556,265.3516C739.7522,265.4125 738.7397,265.4316 737.7288,265.4461C736.8265,265.4565 735.9238,265.4565 735.0214,265.4554C734.2763,265.4549 733.5312,265.4548 732.7862,265.4539C731.2906,265.4724 729.794,265.4633 728.2981,265.46C727.3942,265.4568 726.4903,265.4555 725.5864,265.4537C724.8656,265.4538 724.1448,265.4533 723.4239,265.4543C722.6661,265.4554 721.9083,265.4534 721.1506,265.454C720.4668,265.4532 719.783,265.4533 719.0992,265.4534C718.4144,265.4539 717.7296,265.4536 717.0447,265.4529C716.3905,265.454 715.7364,265.453 715.0822,265.4525C714.4422,265.4538 713.8021,265.4529 713.162,265.4525C712.5967,265.4521 712.0313,265.452 711.466,265.4519C710.9931,265.5046 710.5175,265.5426 710.0323,265.5609C709.5063,265.5764 708.9788,265.5764 708.4519,265.5771C707.9037,265.5773 707.3555,265.5768 706.8073,265.5765C706.5329,265.5764 706.2584,265.5763 705.984,265.5763L709.2746,266.6601C709.549,266.6602 709.8234,266.6603 710.0978,266.6604C710.6466,266.6607 711.1954,266.6614 711.7443,266.66C712.2803,266.6578 712.8174,266.6556 713.351,266.6302C713.822,266.6037 714.2832,266.5494 714.7565,266.5356C715.3207,266.5356 715.885,266.5354 716.4491,266.5351C717.0891,266.5346 717.7291,266.5337 718.3691,266.535C719.0224,266.5345 719.6758,266.5335 720.3292,266.5346C721.0131,266.534 721.697,266.5336 722.3809,266.5342C723.0634,266.5342 723.746,266.5343 724.4286,266.5335C725.1858,266.5341 725.943,266.5321 726.7002,266.5333C727.4222,266.5342 728.1441,266.5338 728.866,266.5338C729.7572,266.532 730.6484,266.5307 731.5395,266.5275C733.0482,266.5242 734.5574,266.5156 736.0658,266.5342C736.8097,266.5338 737.5535,266.5346 738.2973,266.5338C739.1966,266.5312 740.096,266.5279 740.9948,266.5135C742.0241,266.4944 743.0523,266.465 744.0772,266.4171L740.7556,265.3516z" stroke="#000" stroke-linecap="square" stroke-linejoin="round" stroke-width=".6203"/>
<path d="M762.9175,227.4664L762.9175,246.0097" fill="none" stroke="#000" stroke-linecap="round" stroke-width="4.8046"/>
<path d="M753.3935,225.7121L753.3935,244.2553" fill="none" stroke="#000" stroke-linecap="round" stroke-width="4.8046"/>
<path d="M744.4565,227.1764L744.4565,245.7196" fill="none" stroke="#000" stroke-linecap="round" stroke-width="4.8046"/>
<path d="M732.7798,226.0092L732.7798,244.5524" fill="none" stroke="#000" stroke-linecap="round" stroke-width="4.8046"/>
<path d="M722.6212,228.1958L722.6212,246.739" fill="none" stroke="#000" stroke-linecap="round" stroke-width="4.8046"/>
<path d="M710.9919,228.0204L710.9919,246.5636" fill="none" stroke="#000" stroke-linecap="round" stroke-width="4.8046"/>
<path d="M700.4893,226.3062L700.4893,244.8494" fill="none" stroke="#000" stroke-linecap="round" stroke-width="4.8046"/>
<path d="M690.5739,229.3431L690.5739,247.8863" fill="none" stroke="#000" stroke-linecap="round" stroke-width="4.8046"/>
<path d="M679.9009,228.9744L679.9009,247.5177" fill="none" stroke="#000" stroke-linecap="round" stroke-width="4.8046"/>
<path d="M770.8017,232.1967L770.8017,250.7399" fill="none" stroke="#000" stroke-linecap="round" stroke-width="4.8046"/>
<path d="M-35.577,756.3031H115.9081A15.0365,15.0365 0 0 1 130.9445,771.3396V796.6728A15.0365,15.0365 0 0 1 115.9081,811.7092H-35.577A15.0365,15.0365 0 0 1 -50.6135,796.6728V771.3396A15.0365,15.0365 0 0 1 -35.577,756.3031z" stroke="#000" stroke-linecap="round" stroke-linejoin="round" stroke-width="2.3147" transform="matrix(1,0,.8886,.45868,0,0)"/>
<path d="M683.9088,330.3283H692.2123A4.1432,4.1432 0 0 1 696.3555,334.4715V364.855A4.1432,4.1432 0 0 1 692.2123,368.9982H683.9088A4.1432,4.1432 0 0 1 679.7656,364.855V334.4715A4.1432,4.1432 0 0 1 683.9088,330.3283z" fill="#fff" stroke="#000" stroke-linecap="round" stroke-linejoin="round" stroke-width="3.9917"/>
<path d="M810.3242,330.3283H818.6277A4.1432,4.1432 0 0 1 822.7709,334.4715V364.855A4.1432,4.1432 0 0 1 818.6277,368.9982H810.3242A4.1432,4.1432 0 0 1 806.181,364.855V334.4715A4.1432,4.1432 0 0 1 810.3242,330.3283z" fill="#fff" stroke="#000" stroke-linecap="round" stroke-linejoin="round" stroke-width="3.9917"/>
<path d="M782.453,318.1749H790.7566A4.1432,4.1432 0 0 1 794.8998,322.3181V352.7016A4.1432,4.1432 0 0 1 790.7566,356.8448H782.453A4.1432,4.1432 0 0 1 778.3098,352.7016V322.3181A4.1432,4.1432 0 0 1 782.453,318.1749z" fill="#fff" stroke="#000" stroke-linecap="round" stroke-linejoin="round" stroke-width="3.9917"/>
<path d="M653.0514,314.8604H661.3549A4.1432,4.1432 0 0 1 665.4981,319.0036V349.3871A4.1432,4.1432 0 0 1 661.3549,353.5303H653.0514A4.1432,4.1432 0 0 1 648.9082,349.3871V319.0036A4.1432,4.1432 0 0 1 653.0514,314.8604z" fill="#fff" stroke="#000" stroke-linecap="round" stroke-linejoin="round" stroke-width="3.9917"/>
<path d="M40.2592,673.2004H191.7443A15.0365,15.0365 0 0 1 206.7808,688.2369V713.5701A15.0365,15.0365 0 0 1 191.7443,728.6065H40.2592A15.0365,15.0365 0 0 1 25.2228,713.5701V688.2369A15.0365,15.0365 0 0 1 40.2592,673.2004z" fill="#fff" stroke="#000" stroke-linecap="round" stroke-linejoin="round" stroke-width="2.3147" transform="matrix(1,0,.8886,.45868,0,0)"/>
<path d="M47.087,664.7696H198.5721A15.0365,15.0365 0 0 1 213.6086,679.8061V705.1393A15.0365,15.0365 0 0 1 198.5721,720.1758H47.087A15.0365,15.0365 0 0 1 32.0506,705.1393V679.8061A15.0365,15.0365 0 0 1 47.087,664.7696z" fill="#fff" stroke="#000" stroke-linecap="round" stroke-linejoin="round" stroke-width="2.3147" transform="matrix(1,0,.8886,.45868,0,0)"/>
<text font-family="Bitstream Vera Sans" font-size="20" x="436.2053" y="138.5882">
   <tspan text-align="center" text-anchor="middle" x="436.2053" y="138.5882">Hmm...</tspan>
  </text>
<text font-family="Bitstream Vera Sans" font-size="20" x="618.5168" y="145.6459">
   <tspan x="618.5168" y="145.6459">Am... Stram... Gram...</tspan>
  </text>
<g transform="matrix(-.28554,-4.1353986e-4,-.21762,-.17735,197.6575,352.81071)">
<path d="M-108.1385,175.2385H-21.161A.958,.958 0 0 1 -20.203,176.1965V301.5597A.958,.958 0 0 1 -21.161,302.5177H-108.1385A.958,.958 0 0 1 -109.0965,301.5597V176.1965A.958,.958 0 0 1 -108.1385,175.2385z" fill="#fff" stroke="#000" stroke-linecap="round" stroke-linejoin="round"/>
<text font-family="Bitstream Vera Sans" font-size="20" x="-87.8833" y="192.4111">
    <tspan font-size="6" x="-87.8833" y="192.4111">- blablabla bla</tspan>
    <tspan font-size="6" x="-87.8833" y="199.9111">- blablabla bla</tspan>
    <tspan font-size="6" x="-87.8833" y="207.4111">- blablabla bla</tspan>
    <tspan font-size="6" x="-87.8833" y="214.9111">- blablabla bla</tspan>
    <tspan font-size="6" x="-87.8833" y="222.4111"></tspan>
    <tspan font-size="6" x="-87.8833" y="229.9111">- blablabla bla</tspan>
    <tspan font-size="6" x="-87.8833" y="237.4111">- blablabla bla</tspan>
    <tspan font-size="6" x="-87.8833" y="244.9111">- blablabla bla</tspan>
    <tspan font-size="6" x="-87.8833" y="252.4111">- blablabla bla</tspan>
    <tspan font-size="6" x="-87.8833" y="259.9111"></tspan>
    <tspan font-size="6" x="-87.8833" y="267.4111">- blablabla bla</tspan>
    <tspan font-size="6" x="-87.8833" y="274.9111">- blablabla bla</tspan>
    <tspan font-size="6" x="-87.8833" y="282.4111">- blablabla bla</tspan>
    <tspan font-size="6" x="-87.8833" y="289.9111">- blablabla bla</tspan>
    <tspan font-size="6" x="-87.8833" y="297.4111"></tspan>
   </text>
</g>
<g transform="matrix(-.28554,-4.1353986e-4,-.21762,-.17735,476.32736,353.2941)">
<path d="M-108.1385,175.2385H-21.161A.958,.958 0 0 1 -20.203,176.1965V301.5597A.958,.958 0 0 1 -21.161,302.5177H-108.1385A.958,.958 0 0 1 -109.0965,301.5597V176.1965A.958,.958 0 0 1 -108.1385,175.2385z" fill="#fff" stroke="#000" stroke-linecap="round" stroke-linejoin="round"/>
<text font-family="Bitstream Vera Sans" font-size="20" x="-87.8833" y="192.4111">
    <tspan font-size="6" x="-87.8833" y="192.4111">- blablabla bla</tspan>
    <tspan font-size="6" x="-87.8833" y="199.9111">- blablabla bla</tspan>
    <tspan font-size="6" x="-87.8833" y="207.4111">- blablabla bla</tspan>
    <tspan font-size="6" x="-87.8833" y="214.9111">- blablabla bla</tspan>
    <tspan font-size="6" x="-87.8833" y="222.4111"></tspan>
    <tspan font-size="6" x="-87.8833" y="229.9111">- blablabla bla</tspan>
    <tspan font-size="6" x="-87.8833" y="237.4111">- blablabla bla</tspan>
    <tspan font-size="6" x="-87.8833" y="244.9111">- blablabla bla</tspan>
    <tspan font-size="6" x="-87.8833" y="252.4111">- blablabla bla</tspan>
    <tspan font-size="6" x="-87.8833" y="259.9111"></tspan>
    <tspan font-size="6" x="-87.8833" y="267.4111">- blablabla bla</tspan>
    <tspan font-size="6" x="-87.8833" y="274.9111">- blablabla bla</tspan>
    <tspan font-size="6" x="-87.8833" y="282.4111">- blablabla bla</tspan>
    <tspan font-size="6" x="-87.8833" y="289.9111">- blablabla bla</tspan>
    <tspan font-size="6" x="-87.8833" y="297.4111"></tspan>
   </text>
</g>
<g transform="matrix(-.28554,-4.1353986e-4,-.21762,-.17735,778.06711,359.71217)">
<path d="M-108.1385,175.2385H-21.161A.958,.958 0 0 1 -20.203,176.1965V301.5597A.958,.958 0 0 1 -21.161,302.5177H-108.1385A.958,.958 0 0 1 -109.0965,301.5597V176.1965A.958,.958 0 0 1 -108.1385,175.2385z" fill="#fff" stroke="#000" stroke-linecap="round" stroke-linejoin="round"/>
<text font-family="Bitstream Vera Sans" font-size="20" x="-87.8833" y="192.4111">
    <tspan font-size="6" x="-87.8833" y="192.4111">- blablabla bla</tspan>
    <tspan font-size="6" x="-87.8833" y="199.9111">- blablabla bla</tspan>
    <tspan font-size="6" x="-87.8833" y="207.4111">- blablabla bla</tspan>
    <tspan font-size="6" x="-87.8833" y="214.9111">- blablabla bla</tspan>
    <tspan font-size="6" x="-87.8833" y="222.4111"></tspan>
    <tspan font-size="6" x="-87.8833" y="229.9111">- blablabla bla</tspan>
    <tspan font-size="6" x="-87.8833" y="237.4111">- blablabla bla</tspan>
    <tspan font-size="6" x="-87.8833" y="244.9111">- blablabla bla</tspan>
    <tspan font-size="6" x="-87.8833" y="252.4111">- blablabla bla</tspan>
    <tspan font-size="6" x="-87.8833" y="259.9111"></tspan>
    <tspan font-size="6" x="-87.8833" y="267.4111">- blablabla bla</tspan>
    <tspan font-size="6" x="-87.8833" y="274.9111">- blablabla bla</tspan>
    <tspan font-size="6" x="-87.8833" y="282.4111">- blablabla bla</tspan>
    <tspan font-size="6" x="-87.8833" y="289.9111">- blablabla bla</tspan>
    <tspan font-size="6" x="-87.8833" y="297.4111"></tspan>
   </text>
</g>
<path d="M140,167.8571L129.2857,205.7143" fill="none" stroke="#000"/>
<path d="M424.2857,157.1429L417.1429,207.1429" fill="none" stroke="#000"/>
<path d="M721.4286,167.1429L712.1429,210" fill="none" stroke="#000"/>
<text font-family="Bitstream Vera Sans" font-size="20" transform="matrix(.76055,-.64928,.64928,.76055,0,0)" x="134.4218" y="405.29">
   <tspan x="134.4218" y="405.29">?</tspan>
  </text>
<text font-family="Bitstream Vera Sans" font-size="20" transform="rotate(32.623)" x="518.5593" y="-77.7345">
   <tspan x="518.5593" y="-77.7345">?</tspan>
  </text>
<path d="M107.8571,288.5714C109.2404,291.3032 111.4893,294.1223 115,295C116.5446,295.3861 117.9514,296.095 119.2857,296.4286" fill="none" stroke="#000"/>
</svg>
