<svg version="1.1" viewBox="0 0 900 450" xmlns="http://www.w3.org/2000/svg" xmlns:svg="http://www.w3.org/2000/svg">
<g transform="translate(0,-602.3622)">
<path d="M50.7517,683.194H831.7537A31.621,31.621 0 0 1 863.3747,714.815V963.1638A31.621,31.621 0 0 1 831.7537,994.7849H50.7517A31.621,31.621 0 0 1 19.1307,963.1638V714.815A31.621,31.621 0 0 1 50.7517,683.194z" fill="#fff" stroke="#000" stroke-linecap="round" stroke-width="7.4907"/>
<path d="m102.8571,337.1429 189.6429,0m32.5,0 253.2143,0m31.7857,0 252.1429,0" fill="none" stroke="#000" transform="translate(0,602.3622)"/>
<path d="m578.3724,679.8794 0,303.442 0,10.4485" fill="none" stroke="#000" stroke-width="5.6784"/>
<path d="m292.6623,679.7804 0,313.2703" fill="none" stroke="#000" stroke-width="5.6728"/>
<g transform="matrix(.12574,0,0,.12574,821.0974,1022.3327)">
<path d="m162.9615,-66.1029c3.4935,4.0575 8.2353,4.5442 13.2828,4.8295 6.3854,-.1721 12.7816,-1.7005 18.7482,-3.9709 3.188,-1.2131 4.9498,-2.2461 7.9245,-3.8084-17.8031,10.4157-7.8919,4.8373-4.5635,1.3015 1.7244,-1.8318 2.7543,-3.7619 3.7268,-6.049 2.5265,-7.1174 2.8539,-14.7708 3.2849,-22.2438 .8398,-10.8784-1.4121,-21.5587-3.8369,-32.0902-2.9495,-11.0779-6.9553,-21.8431-11.3671,-32.4128-2.1125,-4.9937-4.5016,-9.8617-6.8287,-14.7566-3.1362,-6.0174-5.7017,-2.2804 12.0114,-9.1516 .6104,-.2368 .7311,1.087 1.1222,1.6121 .6549,.8793 1.3432,1.7331 2.0147,2.5997 6.5345,8.9671 14.393,16.8239 22.2682,24.5961 4.6332,4.5123 9.6016,8.7005 14.032,13.4186 1.6816,1.3731 2.6867,3.3087 4.04,4.9541 1.3218,1.1942 2.3559,-.063 3.524,-.88-20.4032,12.2348-13.1369,8.2804-9.2246,4.5289 1.5406,-1.4773 2.9931,-3.0561 4.4682,-4.5977 2.0935,-2.0887 4.0773,-4.3249 6.3699,-6.2061 6.0518,-4.966 14.4953,-8.9342 20.7536,-12.4943 5.7826,-2.554 11.6983,-4.7759 17.7067,-6.7339 1.2429,-.2695 6.0517,-2.1189 7.1497,-.869 .2555,.2908 .359,.686 .5385,1.029 .0249,.3507 .122,.7037 .0746,1.052-.3464,2.5421-4.2822,5.4998-5.9999,7.0812-7.8955,6.5272-15.5561,13.3165-22.8485,20.5113-6.3434,6.805-12.8959,13.5227-17.9461,21.3722-3.1182,4.9027-4.7756,10.316-5.5537,16.0199-.5154,5.1011-.4313,10.2374-.4233,15.3575 .2794,5.5658 .9893,11.1428 2.6464,16.4744 .9499,2.8397 2.6391,4.9259 5.3418,6.1729 1.7933,.6321 3.8468,1.0482 5.7562,.6876 .4443,-.0839 4.1482,-1.3389 4.4445,-1.4379 4.3672,-2.3833 14.9158,-7.9566-4.8252,2.8617-.781,.428 1.5035,-.9552 2.2436,-1.4505 1.7,-1.1377 2.1084,-1.4721 3.7035,-2.6614 1.913,-1.4312 1.0067,-.7357 2.723,-2.0808l13.6711,-5.4983c-1.7324,1.4564-.8048,.73-2.796,2.1623-8.0629,6.2254-16.9943,11.3785-26.2507,15.5961-4.0612,1.2122-7.06,1.7923-11.0152,-.0782-2.9124,-1.6424-4.8153,-4.0252-5.8395,-7.2464-1.6234,-5.4897-2.2357,-11.2047-2.7686,-16.8893-.0311,-5.1712-.1159,-10.3556 .3022,-15.5145 .7383,-5.9102 2.2958,-11.5511 5.4746,-16.6653 .6374,-1.0595 1.2164,-2.1564 1.9122,-3.1784 1.4293,-2.0993 3.5633,-4.5022 5.1926,-6.3909 3.5997,-4.173 7.2819,-8.2723 11.0846,-12.2621 7.0925,-7.1546 14.5679,-13.9155 22.3195,-20.352 2.1958,-2.0389 4.4682,-4.0268 6.363,-6.357 .3146,.1659-.6981,.139-1.0503,.1882-1.7578,.2457-3.4497,.7917-5.1425,1.3052-5.9412,1.9611-11.8224,4.1368-17.4628,6.8581 19.4412,-11.4974 7.7521,-4.9691 3.9527,-2.0455-2.3144,1.7808-4.2945,3.9798-6.3247,6.0613-7.3621,7.7662-7.7847,8.5886-20.2399,15.0176-2.0411,.9643-3.1823,.8498-4.779,-.8279-1.26,-1.6657-2.2693,-3.5234-3.8255,-4.9564-4.2421,-4.7917-8.972,-9.1394-13.4655,-13.6887-7.8003,-7.9395-15.7203,-15.7854-22.6621,-24.5085-.7459,-.8383-1.4925,-1.676-2.2377,-2.515-.414,-.4662-1.7128,-.9944-1.2397,-1.4005 11.2457,-9.654 10.609,-12.1815 13.514,-5.8078 2.1923,4.9946 4.5033,9.9394 6.4982,15.0188 4.1744,10.7594 8.0235,21.6562 11.1756,32.7627 2.5328,10.5786 5.0383,21.3246 4.3095,32.2869-.2875,7.5431-.73,15.2244-2.7778,22.5205-.6732,1.8665-.9058,2.8192-1.9806,4.5269-4.7227,7.5035-14.9088,11.0471-21.6041,15.3066-8.5205,4.1876-17.5853,7.1486-27.1755,7.1917-1.3332,-.1069-2.6764,-.126-3.9996,-.3207-3.9409,-.5799-7.6146,-2.3017-10.3419,-5.2234l12.7269,-7.6412z" stroke="#000" stroke-linecap="round" stroke-linejoin="round" stroke-width="2"/>
<path d="m285.1504,-83.2549c-5.88,1.6467-18.6251,9.5149 3.6228,-3.2161-3.0858,1.6423-4.9176,4.3146-6.3615,7.3973-.8239,2.47-1.7035,5.1777-1.5244,7.8292 .1239,1.8346 .601,2.756 1.225,4.4695 2.4426,4.8256 6.1987,8.7942 10.6559,11.8004 3.2897,2.2908 7.0292,3.3333 10.9988,3.3815 3.0629,-.6961 5.9092,-1.889 8.7139,-3.2794 1.1955,-.5927 4.6992,-2.5278 3.5526,-1.8452-13.2158,7.8669-9.9055,5.7434-5.2291,2.5405 3.8506,-2.9659 8.0361,-6.4071 9.0279,-11.451 .1385,-.7045 .1286,-1.4302 .1929,-2.1454-.2546,-6.3086-4.2409,-11.2474-8.0871,-15.9117-2.4245,-2.6982-5.17,-5.2714-8.4848,-6.8472-1.6823,-.7998-2.5447,-.9419-4.3262,-1.415-3.594,-.1953-7.3605,.1463-10.7726,1.3847-1.5775,.5726-3.9684,1.9034-5.4345,2.6786 19.9864,-11.9906 6.8908,-4.0746 2.7687,-.4895l-13.6034,5.5649c6.3305,-6.0894 14.7834,-9.6771 22.1418,-14.1306 2.1358,-1.0385 3.3967,-1.7563 5.6792,-2.4493 3.6325,-1.1029 7.5433,-1.3605 11.2846,-.8091 1.9239,.6139 2.7037,.7688 4.5106,1.7317 3.3646,1.793 6.1391,4.5163 8.621,7.3603 4.0463,4.9816 8.1538,10.1443 8.7701,16.7754-.0296,.8046 .0196,1.6161-.0889,2.4139-.7383,5.4273-4.7753,9.2853-8.8804,12.4917-7.9626,5.7154-3.8825,2.9492-19.2743,11.6675-4.0105,2.2717-8.3975,4.1951-13.0037,4.7328-4.1494,-.367-8.0102,-1.5898-11.3905,-4.108-4.5717,-3.3347-8.416,-7.5445-11.0934,-12.5605-.6247,-1.6344-1.3341,-3.1907-1.5477,-4.9537-.3345,-2.7611 .5846,-5.6627 1.2497,-8.2942 1.2789,-3.2492 2.902,-6.3291 5.9576,-8.2367 7.1822,-4.1341 13.903,-8.8778 21.9148,-11.0889l-11.7853,9.0117z" stroke="#000" stroke-linecap="round" stroke-linejoin="round" stroke-width="2"/>
<path d="m347.1504,-77.2549c-2.5469,.8146-5.1929,1.5133-7.6141,2.6735-.8131,.3896-1.5764,.8756-2.3647,1.3134 3.3457,-1.8736 6.6913,-3.7471 10.037,-5.6207-3.9716,2.6801-6.9185,5.3584-8.6955,9.85-1.1627,3.6999-.6052,6.8285 2.3247,9.5655 .7074,.6608 1.5389,1.1748 2.3083,1.7622 5.6004,3.2171 12.2296,4.3691 18.6442,3.6885 1.8388,-.1951 3.6423,-.6405 5.4634,-.9607 4.2145,-1.088 6.0512,-1.3908 10.0093,-3.0522 1.313,-.5511 5.0497,-2.628 3.8271,-1.898-17.7993,10.6288-9.7426,5.998-6.9473,3.1684 .6199,-.6275 1.1121,-1.3693 1.6682,-2.054 2.4376,-3.8135 2.5,-7.2055 .7831,-11.2688-.3152,-.7137-2.1315,-4.4568-3.4123,-3.6467-.2218,.1403-.3342,.4046-.5012,.6069 20.2171,-11.5287 12.5199,-9.601 10.5591,-3.9824-.8462,2.4247-.9939,4.7822-1.1102,7.3284 1.4046,11.8202 6.6264,22.7649 10.9162,33.7471 5.2161,14.5087 10.244,29.5646 10.8227,45.1266 .1152,3.097-.1863,6.1956-.2795,9.2933-.4626,2.9786-.7219,5.996-1.3878,8.9358-2.1724,9.5898-7.1162,18.3681-14.4574,24.947-1.2941,1.1597-2.7591,2.1134-4.1386,3.1701-5.5203,2.8839-10.7715,6.3551-16.5608,8.6516-2.3998,.952-8.1925,-1.0338-10.0914,-1.8803-7.058,-3.1465-13.1537,-8.3145-19.1496,-13.0475-10.1152,-8.659-20.0186,-17.691-29.0677,-27.4783-4.688,-5.0705-5.8469,-6.777-9.919,-12.0224-3.4654,-5.7822-7.5504,-12.4859-4.1433,-19.3016 2.0163,-4.0335 4.4499,-5.497 7.8272,-8.4338 10.1215,-6.5586 10.9501,-7.3056 25.6037,-14.7259 3.5764,-1.811 15.1096,-5.9066 18.6391,-7.138 7.0388,-2.4558 14.6082,-4.8887 21.6862,-7.2014 18.594,-5.3634 36.8056,-11.8962 54.8051,-18.9783 1.5279,-.6495 3.0578,-1.2942 4.5836,-1.9485 1.1657,-.4999 2.34,-.9808 3.4908,-1.514 2.3523,-1.0899 4.5499,-2.4389 6.9767,-3.363 3.291,-.4693 4.4452,3.4926 5.4304,5.8995 2.2687,6.1277 3.5471,12.5534 4.0987,19.0495 .1362,2.9104 .2306,5.8345-.1816,8.7279-.0421,.2958 .1108,.7559-.16,.882-4.4089,2.0533-9.0127,3.659-13.519,5.4886 .0118,-.8952-.0374,-1.7934 .0355,-2.6857 .1061,-1.2986 .3295,-2.5849 .5008,-3.8765 .9997,-7.538 2.3091,-14.9758 3.843,-22.4228 1.555,-6.4961 2.8976,-13.2994 6.61,-18.9697 4.2039,-4.4015 13.5536,-13.0794 18.1064,-8.0287 .4767,.5289 .8107,1.1708 1.2161,1.7562 .891,1.5753 1.6607,2.7718 2.2437,4.5173 1.6389,4.9078 2.3745,10.6605 3.2422,15.7652 1.1326,4.4176 .7008,9.7081 2.0412,14.0399 1.7726,-4.7616-.0179,.2205-12.7493,6.291-.2582,.1231 .3891,-.4251 .5337,-.672 .3315,-.566 .9805,-2.2274 1.2333,-2.7376 .3448,-.6961 .7385,-1.3669 1.1077,-2.0504 2.3945,-3.8376 4.4213,-7.8928 7.0597,-11.5731 4.4112,-5.5273 8.5378,-6.7337 16.174,-10.93 .2619,-.1439 .6145,-.0601 .8956,.0415 .3579,.1294 .6361,.4181 .9542,.6271 2.9864,3.1411 4.0262,7.5857 5.0346,11.6761 .8762,4.4536 1.3452,8.9967 2.9742,13.2566 .3967,.5584 .7207,1.1763 1.19,1.6753 3.4181,3.6336 9.0718,6.3498 13.7339,7.8272 1.7542,.5559 3.5616,.9276 5.3424,1.3914 7.54,1.8812 15.1058,1.9747 22.6056,-.087 1.66,-.4563 3.3273,-.9326 4.8996,-1.6338 1.4645,-.6531 2.7763,-1.6056 4.1644,-2.4083-2.8879,1.4901-5.5634,3.4967-8.6637,4.4704-1.1955,.3755 1.8602,-1.6841 2.7137,-2.6016 2.5159,-2.7049 3.9544,-5.7126 4.9671,-9.2111 .6946,-2.9134 .6823,-5.9069 .6019,-8.8795-.8123,-6.1361-6.2332,-.0969 12.5348,-7.7189 .3417,-.1388-.2006,.7117-.258,1.076-.0835,.53-.1093,1.0675-.1639,1.6012-.2665,4.8348-.377,9.6802 .1605,14.4971 .5467,3.099 1.1396,6.2653 3.5686,8.4405 1.7091,1.1249 3.5227,1.2014 5.4105,.5838 4.5429,-2.2925 11.3618,-6.2694-9.2958,5.3928-.733,.4138 1.4175,-.9086 2.114,-1.3812l13.7499,-5.4669c-1.0645,.874-.871,.7838-2.0934,1.4985-4.6452,2.7158-10.3975,7.2521-16.2755,8.9062-2.2943,.246-4.4334,-.2532-6.2278,-1.7781-2.497,-2.6033-3.3119,-5.923-3.8685,-9.4237-.5906,-4.8727-.472,-9.7673-.4084,-14.6687 .0197,-.6544 .077,-2.9288 .1232,-2.9595 9.727,-6.4603 12.8718,-12.5754 14.1061,-5.3537 .0695,3.1243 .0729,6.2667-.5797,9.341-3.2014,12.7554-11.6553,15.6615-23.2766,22.5416-1.4289,.7205-2.7977,1.5752-4.2867,2.1615-8.9506,3.524-18.7036,3.2412-27.9102,1.0341-1.8391,-.4877-3.7066,-.8788-5.5173,-1.4632-4.6315,-1.4947-11.1446,-4.692-14.5603,-8.2853-.5627,-.5919-.968,-1.3157-1.452,-1.9736-1.6237,-4.344-2.0916,-8.9473-2.927,-13.4875-.8421,-3.5179-1.6783,-7.8688-4.5851,-10.3108-.6859,.086-.3319,-.0175-1.041,.3749 3.9288,-2.3321 7.8577,-4.6642 11.7865,-6.9963 .3323,-.191-.6084,.4685-.8871,.7315-.6996,.66-1.2666,1.4531-2.0221,2.0581-2.82,3.545-4.8538,7.566-7.2091,11.4215-.8854,1.5155-1.617,2.9578-2.1805,4.6201-.1148,.3386 .0125,.8473-.2939,1.0316-13.2948,7.9967-10.3461,11.2314-14.0569,6.5713-1.1159,-4.7041-.5439,-9.6982-1.6308,-14.4245-1.0635,-6.6156-1.8817,-13.7016-5.4778,-19.4897-.6253,-.7518-.8938,-1.4407-1.8874,-1.6242-.2691,-.0497-1.0491,.2242-.8171,.0792 3.855,-2.4085 7.8581,-4.5721 11.7547,-6.9127 .3501,-.2103-.7641,.3015-1.11,.5187-.4078,.256-.7577,.5945-1.1366,.8918-4.3835,5.2272-5.7056,12.2845-7.478,18.6873-1.9969,9.2321-3.7113,18.5943-3.9931,28.0561-4.3051,2.6386-8.5232,5.4248-12.9154,7.9158-.2419,.1372 .2404,-.5043 .318,-.7714 .8042,-2.7667 .5753,-5.6949 .5747,-8.5333-.3712,-6.3501-1.5585,-12.6651-3.9842,-18.571-.4628,-1.0682-1.3134,-4.1649-2.9322,-4.2743-.3754,-.0254-1.0644,.2717-1.3633,.3791-4.7881,2.1318-9.4382,4.5785-14.4142,6.2825-17.8398,6.7098-35.8321,12.9983-54.1277,18.3644-10.6198,3.5133-21.3137,6.9086-31.715,11.0427-2.9939,1.19-5.7348,3.1473-8.8924,3.787-1.6217,.3285 5.5767,-3.5384 4.0891,-2.8139-2.1692,1.0565-4.0999,2.545-6.1498,3.8175-3.8287,3.0735-8.5236,6.2534-9.4308,11.5515-.893,5.2148 2.4282,10.0365 4.6745,14.3601 1.3891,1.8979 2.711,3.847 4.1673,5.6938 9.9457,12.6131 22.0475,23.4346 34.3683,33.6505 6.0444,4.5132 12.2092,9.5598 19.3554,12.2966 1.6491,.6316 3.3794,1.1098 5.1345,1.3053 1.4972,.1668 5.3244,-1.5002 4.5136,-.2306-1.6887,2.6441-5.176,3.5469-7.7641,5.3203 1.4485,-1.0111 2.9813,-1.911 4.3453,-3.0333 7.5773,-6.2343 12.8885,-14.8407 15.2526,-24.3515 .7183,-2.8896 .999,-5.8707 1.4986,-8.806 .1439,-3.0552 .5095,-6.108 .4316,-9.1656-.3934,-15.4369-5.6294,-30.3333-10.905,-44.6508-4.4755,-11.0691-9.9218,-21.9803-11.8707,-33.8586-.0655,-2.8117 .003,-4.952 .6842,-7.6722 .0381,-.1521 .7931,-2.8601 1.1292,-3.0916 4.3169,-2.973 8.9144,-5.5165 13.3715,-8.2747 .3389,.0271 .6889,-.0085 1.0169,.0812 2.1057,.5758 3.1151,3.1886 3.9952,4.8962 1.8742,4.4256 2.1315,8.3635-.2532,12.7108-.541,.7748-1.0086,1.6064-1.6229,2.3244-4.3907,5.131-13.1728,8.7324-17.6417,11.2191-4.2744,2.3784-9.1918,3.3952-13.8934,4.496-1.8823,.2823-3.7498,.6922-5.6468,.847-6.776,.553-13.6979,-.6632-19.4819,-4.3006-.8304,-.6627-1.7251,-1.252-2.4912,-1.9881-3.2394,-3.1123-4.2505,-6.5472-3.1788,-10.8443 1.6159,-5.1378 4.1492,-7.6245 8.4678,-10.7873 8.3338,-4.9235 15.8682,-10.3542 25.256,-12.659l-11.7853,9.0117z" stroke="#000" stroke-linecap="round" stroke-linejoin="round" stroke-width="2"/>
<path d="m549.2332,-122.1847c-1.7835,2.0929-3.2088,4.4879-3.887,7.1628-.4856,2.6751 1.1102,3.361 3.3038,4.3209 3.5488,1.2997 6.5822,1.157 10.2167,.5143 4.8602,-1.6662 12.579,-6.4142-9.0248,5.5037-.3034,.1673 .5755,-.3901 .8315,-.6236 .6095,-.5556 .6709,-.7857 1.0696,-1.4819 .7338,-1.6463 .6619,-3.1872-.2832,-4.7035-1.2573,-1.1913-3.1474,-1.0796-4.7697,-1.1586-1.6755,.1549-3.2712,.5705-4.6332,1.5753l11.5699,-9.3176c1.6475,-.6237 3.3328,-1.0178 5.1127,-.8762 2.1175,.2092 4.2007,.5097 5.5739,2.3193 1.1184,1.8815 1.5604,3.8267 .9141,5.9743-2.3437,7.0718-11.2457,9.9308-18.1332,11.6144-3.6699,.4613-7.2979,.2601-10.7482,-1.2144-2.4801,-1.2798-4.7037,-2.8813-4.3281,-5.9859 .4579,-2.8821 1.8638,-5.464 3.5526,-7.8184l13.6626,-5.8049z" stroke="#000" stroke-linecap="round" stroke-linejoin="round" stroke-width="2"/>
<path d="m359.6057,-86.1453c2.813,-1.3672 5.4973,-2.9836 8.3991,-4.1626 1.8182,-1.1808 3.8128,-1.7264 5.9399,-1.959 1.9567,-.1487 3.9211,-.1237 5.8819,-.1169 1.9461,-.207 3.5945,.325 5.304,1.1594 1.1966,.9591 2.1411,2.2333 3.05,3.4655 .7904,1.4357 1.2548,3.0464 1.7411,4.6107 .436,1.6028 1.0296,3.1343 1.3438,4.7721 .3026,1.9227 .3232,3.8738 .3468,5.8155 .009,1.0012 .007,2.0024 .007,3.0036l-13.2174,6.733c.001,-.9962 .003,-1.9924-10e-4,-2.9886-.0137,-1.8636-.0171,-3.7343-.2514,-5.5862-.2608,-1.5964-.8449,-3.0648-1.2698,-4.6141-.4125,-1.4071-.8576,-2.8405-1.4965,-4.1522-.7779,-1.02-1.5348,-2.1846-2.6529,-2.8453-1.5703,-.6821-3.2079,-.7262-4.905,-.653-1.9192,.0085-3.8508,-8.13e-4-5.7505,.3092-2.0091,.4249-3.8194,1.2893-5.6483,2.207-2.8459,1.3235-5.5987,2.8407-8.3572,4.3355l11.5367,-9.3337z" stroke="#000" stroke-linecap="round" stroke-linejoin="round" stroke-width="2"/>
</g>
<text font-family="Bitstream Vera Sans" font-size="20" x="193.3944" y="352.8817">
   <tspan text-align="center" text-anchor="middle" x="193.3944" y="352.8817"></tspan>
  </text>
<text font-family="Bitstream Vera Sans" font-size="20" x="946.1835" y="-61.1696">
   <tspan text-align="center" text-anchor="middle" x="946.1835" y="-61.1696"></tspan>
  </text>
<text font-family="Bitstream Vera Sans" font-size="20" x="715.0225" y="121.9777">
   <tspan x="715.0225" y="121.9777"></tspan>
  </text>
<text font-family="Bitstream Vera Sans" font-size="20" x="95.1321" y="462.6527">
   <tspan x="95.1321" y="462.6527"></tspan>
  </text>
<path d="M49.9856,651.0508H301.1496A15.6552,15.6552 0 0 1 316.8047,666.706V666.706A15.6552,15.6552 0 0 1 301.1496,682.3611H49.9856A15.6552,15.6552 0 0 1 34.3304,666.706V666.706A15.6552,15.6552 0 0 1 49.9856,651.0508z" fill="#fff" stroke="#000" stroke-linecap="round" stroke-linejoin="round" stroke-width="4.5094" transform="matrix(1,-.00315,.00315,1,0,0)"/>
<path d="m101.5203,44.9288a36.8706,34.8503 0 1 1 -73.7411,0 36.8706,34.8503 0 1 1 73.7411,0z" stroke="#000" stroke-linecap="round" stroke-linejoin="round" stroke-width="7.491" transform="matrix(1.24255,-.00391,.00217,.68917,-21.7406,628.09167)"/>
<text font-family="Bitstream Vera Sans" font-size="40" transform="matrix(1,-.00315,.00315,1,0,0)" x="20.3161" y="673.0363">
   <tspan fill="#f9f9f9" x="20.3161" y="673.0363">172</tspan>
  </text>
<text font-family="Bitstream Vera Sans" font-size="20" transform="matrix(1,-.00315,.00315,1,0,0)" x="165.9266" y="673.1541">
   <tspan x="165.9266" y="673.1541">Heure</tspan>
  </text>
<text font-family="Bitstream Vera Sans" font-size="20" x="85.7686" y="-25.7526">
   <tspan text-align="center" text-anchor="middle" x="85.7686" y="-25.7526"></tspan>
  </text>
<text font-family="Bitstream Vera Sans" font-size="20" x="646.5234" y="-487.7013">
   <tspan text-align="center" text-anchor="middle" x="646.5234" y="-487.7013"></tspan>
  </text>
<text font-family="Bitstream Vera Sans" font-size="20" x="415.3634" y="-304.5533">
   <tspan x="415.3634" y="-304.5533"></tspan>
  </text>
<text font-family="Bitstream Vera Sans" font-size="20" x="163.8499" y="253.378">
   <tspan text-align="center" text-anchor="middle" x="163.8499" y="253.378"></tspan>
  </text>
<flowRoot transform="translate(4.8731,118.8624)">
   <flowRegion>
    <path d="M192.8571,-55.7143H469.2857V26.4286H192.8571z"></path>
   </flowRegion>
   <flowPara></flowPara>
  </flowRoot>
<text font-family="Bitstream Vera Sans" font-size="20" x="173.8499" y="-197.3363">
   <tspan text-align="center" text-anchor="middle" x="173.8499" y="-197.3363"></tspan>
  </text>
<text font-family="Bitstream Vera Sans" font-size="20" x="198.2313" y="743.0544">
   <tspan text-align="center" text-anchor="middle" x="198.2313" y="743.0544"></tspan>
  </text>
<text font-family="Bitstream Vera Sans" font-size="20" x="951.0203" y="329.0031">
   <tspan text-align="center" text-anchor="middle" x="951.0203" y="329.0031"></tspan>
  </text>
<text font-family="Bitstream Vera Sans" font-size="20" x="719.8593" y="512.1504">
   <tspan x="719.8593" y="512.1504"></tspan>
  </text>
<text font-family="Bitstream Vera Sans" font-size="20" x="99.969" y="852.8254">
   <tspan x="99.969" y="852.8254"></tspan>
  </text>
<text font-family="Bitstream Vera Sans" font-size="20" x="90.6055" y="364.4201">
   <tspan text-align="center" text-anchor="middle" x="90.6055" y="364.4201"></tspan>
  </text>
<text font-family="Bitstream Vera Sans" font-size="20" x="651.3603" y="-97.5286">
   <tspan text-align="center" text-anchor="middle" x="651.3603" y="-97.5286"></tspan>
  </text>
<text font-family="Bitstream Vera Sans" font-size="20" x="420.2003" y="85.6194">
   <tspan x="420.2003" y="85.6194"></tspan>
  </text>
<text font-family="Bitstream Vera Sans" font-size="20" x="168.6868" y="643.5507">
   <tspan text-align="center" text-anchor="middle" x="168.6868" y="643.5507"></tspan>
  </text>
<flowRoot transform="translate(9.71,509.0352)">
   <flowRegion>
    <path d="M192.8571,-55.7143H469.2857V26.4286H192.8571z"></path>
   </flowRegion>
   <flowPara></flowPara>
  </flowRoot>
<text font-family="Bitstream Vera Sans" font-size="20" x="178.6868" y="192.8364">
   <tspan text-align="center" text-anchor="middle" x="178.6868" y="192.8364"></tspan>
  </text>
<path d="m129.9267,685.0829 0,242.8572-108.5714,50.7143" fill="none" stroke="#000"/>
<path d="M2638.5732,2701.6963H2792.0831A9.0319,9.0319 0 0 1 2801.115,2710.7282V2755.9655A9.0319,9.0319 0 0 1 2792.0831,2764.9974H2638.5732A9.0319,9.0319 0 0 1 2629.5413,2755.9655V2710.7282A9.0319,9.0319 0 0 1 2638.5732,2701.6963z" stroke="#000" stroke-linecap="round" stroke-linejoin="round" stroke-width="2.7076" transform="matrix(1,0,-.93627,.35128,0,0)"/>
<path d="M2632.0784,2697.4775H2799.8386A6.1895,9.0319 0 0 1 2806.0281,2706.5094V2763.9468A6.1895,9.0319 0 0 1 2799.8386,2772.9787H2632.0784A6.1895,9.0319 0 0 1 2625.8889,2763.9468V2706.5094A6.1895,9.0319 0 0 1 2632.0784,2697.4775z" stroke="#000" stroke-linecap="round" stroke-linejoin="round" stroke-width="2.7076" transform="matrix(1,0,-.93627,.35128,0,0)"/>
<path d="M67.9005,946.9272H67.9005A5.1786,5.1786 0 0 1 73.079,952.1058V965.6773A5.1786,5.1786 0 0 1 67.9005,970.8558H67.9005A5.1786,5.1786 0 0 1 62.7219,965.6773V952.1058A5.1786,5.1786 0 0 1 67.9005,946.9272z" fill="#fff" stroke="#000" stroke-linecap="round" stroke-linejoin="round" stroke-width="3"/>
<path d="M202.9362,947.3201H202.9362A5.1786,5.1786 0 0 1 208.1147,952.4986V966.0701A5.1786,5.1786 0 0 1 202.9362,971.2486H202.9362A5.1786,5.1786 0 0 1 197.7576,966.0701V952.4986A5.1786,5.1786 0 0 1 202.9362,947.3201z" fill="#fff" stroke="#000" stroke-linecap="round" stroke-linejoin="round" stroke-width="3"/>
<path d="M248.4719,928.9272H248.4719A5.1786,5.1786 0 0 1 253.6505,934.1058V947.6773A5.1786,5.1786 0 0 1 248.4719,952.8558H248.4719A5.1786,5.1786 0 0 1 243.2934,947.6773V934.1058A5.1786,5.1786 0 0 1 248.4719,928.9272z" fill="#fff" stroke="#000" stroke-linecap="round" stroke-linejoin="round" stroke-width="3"/>
<path d="M111.4719,929.9987H111.4719A5.1786,5.1786 0 0 1 116.6505,935.1772V948.7487A5.1786,5.1786 0 0 1 111.4719,953.9272H111.4719A5.1786,5.1786 0 0 1 106.2933,948.7487V935.1772A5.1786,5.1786 0 0 1 111.4719,929.9987z" fill="#fff" stroke="#000" stroke-linecap="round" stroke-linejoin="round" stroke-width="3"/>
<path d="M897.0268,848.7417H1081.2599A10.8396,10.8396 0 0 1 1092.0995,859.5813V913.8722A10.8396,10.8396 0 0 1 1081.2599,924.7118H897.0268A10.8396,10.8396 0 0 1 886.1872,913.8722V859.5813A10.8396,10.8396 0 0 1 897.0268,848.7417z" fill="#fff" stroke="#000" stroke-linecap="round" stroke-linejoin="round" stroke-width="3.2495" transform="matrix(.78777,0,-.73757,.27673,30.68457,697.17862)"/>
<path d="M892.6436,843.6788H1076.8768A10.8396,10.8396 0 0 1 1087.7164,854.5183V908.8093A10.8396,10.8396 0 0 1 1076.8768,919.6488H892.6436A10.8396,10.8396 0 0 1 881.8041,908.8093V854.5183A10.8396,10.8396 0 0 1 892.6436,843.6788z" fill="#fff" stroke="#000" stroke-linecap="round" stroke-linejoin="round" stroke-width="3.2495" transform="matrix(.78777,0,-.73757,.27673,30.68457,697.17862)"/>
<path d="M897.0268,848.7417H1081.2599A10.8396,10.8396 0 0 1 1092.0995,859.5813V913.8722A10.8396,10.8396 0 0 1 1081.2599,924.7118H897.0268A10.8396,10.8396 0 0 1 886.1872,913.8722V859.5813A10.8396,10.8396 0 0 1 897.0268,848.7417z" fill="#fff" stroke="#000" stroke-linecap="round" stroke-linejoin="round" stroke-width="3.2495" transform="matrix(.78777,0,-.73757,.27673,30.96591,694.73372)"/>
<path d="M892.6436,843.6788H1076.8768A10.8396,10.8396 0 0 1 1087.7164,854.5183V908.8093A10.8396,10.8396 0 0 1 1076.8768,919.6488H892.6436A10.8396,10.8396 0 0 1 881.8041,908.8093V854.5183A10.8396,10.8396 0 0 1 892.6436,843.6788z" fill="#fff" stroke="#000" stroke-linecap="round" stroke-linejoin="round" stroke-width="3.2495" transform="matrix(.78777,0,-.73757,.27673,30.96591,694.73372)"/>
<path d="M897.0268,848.7417H1081.2599A10.8396,10.8396 0 0 1 1092.0995,859.5813V913.8722A10.8396,10.8396 0 0 1 1081.2599,924.7118H897.0268A10.8396,10.8396 0 0 1 886.1872,913.8722V859.5813A10.8396,10.8396 0 0 1 897.0268,848.7417z" fill="#fff" stroke="#000" stroke-linecap="round" stroke-linejoin="round" stroke-width="3.2495" transform="matrix(.78777,0,-.73757,.27673,31.17692,691.95542)"/>
<path d="M892.6436,843.6788H1076.8768A10.8396,10.8396 0 0 1 1087.7164,854.5183V908.8093A10.8396,10.8396 0 0 1 1076.8768,919.6488H892.6436A10.8396,10.8396 0 0 1 881.8041,908.8093V854.5183A10.8396,10.8396 0 0 1 892.6436,843.6788z" fill="#fff" stroke="#000" stroke-linecap="round" stroke-linejoin="round" stroke-width="3.2495" transform="matrix(.78777,0,-.73757,.27673,31.17692,691.95542)"/>
<path d="M59.1487,918.6176H111.3019A3.0109,3.0109 0 0 1 114.3128,921.6285V963.3364A3.0109,3.0109 0 0 1 111.3019,966.3473H59.1487A3.0109,3.0109 0 0 1 56.1378,963.3364V921.6285A3.0109,3.0109 0 0 1 59.1487,918.6176z" fill="#fff" stroke="#000" stroke-linecap="round" stroke-linejoin="round" stroke-width="3.1126" transform="matrix(.92897,-.37014,0,1,0,0)"/>
<path d="M62.139,920.3558H114.2922A3.0109,3.0109 0 0 1 117.3031,923.3667V965.0746A3.0109,3.0109 0 0 1 114.2922,968.0855H62.139A3.0109,3.0109 0 0 1 59.1281,965.0746V923.3667A3.0109,3.0109 0 0 1 62.139,920.3558z" fill="#fff" stroke="#000" stroke-linecap="round" stroke-linejoin="round" stroke-width="3.1126" transform="matrix(.92897,-.37014,0,1,0,0)"/>
<path d="m119.198,282.6935a52.2754,16.2887 0 1 1 -104.5508,0 52.2754,16.2887 0 1 1 104.5508,0z" fill="#fff" stroke="#000" stroke-linecap="round" stroke-linejoin="round" stroke-width="3" transform="matrix(.59838,-.3161,.28511,.66342,-28.97107,759.19472)"/>
<path d="m121.8082,857.6788 22.3184,24.4939c9.3242,10.2332 8.5925,25.978-1.6406,35.3022l-18.1238,16.514c-10.2332,9.3242-25.9779,8.5925-35.3022,-1.6406l-22.3184,-24.494" fill="#fff" stroke="#000" stroke-linecap="round" stroke-linejoin="round" stroke-width="2.5203"/>
<path d="M-542.0224,729.7201H-525.7377A.5399,.5399 0 0 1 -525.1978,730.2601V737.1978A.5399,.5399 0 0 1 -525.7377,737.7377H-542.0224A.5399,.5399 0 0 1 -542.5623,737.1978V730.2601A.5399,.5399 0 0 1 -542.0224,729.7201z" stroke="#000" stroke-linecap="square" stroke-linejoin="round" stroke-width="2.5837" transform="matrix(.73917,-.67352,.67352,.73917,0,0)"/>
<path d="M-513.3814,729.7201H-499.2564A1.6198,1.6198 0 0 1 -497.6366,731.3399V736.1179A1.6198,1.6198 0 0 1 -499.2564,737.7377H-513.3814A1.6198,1.6198 0 0 1 -515.0012,736.1179V731.3399A1.6198,1.6198 0 0 1 -513.3814,729.7201z" stroke="#000" stroke-linecap="square" stroke-linejoin="round" stroke-width="2.5837" transform="matrix(.73917,-.67352,.67352,.73917,0,0)"/>
<path d="m79.5111,919.4971c.2858,-.2506 .5651,-.5086 .8447,-.7659 .1847,-.1703 .3696,-.3402 .555,-.5097 .1494,-.1365 .299,-.2728 .4486,-.4091 .1552,-.142 .3113,-.2831 .4671,-.4245 .1953,-.187 .3963,-.3615 .6179,-.5156 .2298,-.1584 .4442,-.3376 .6555,-.5199 .1999,-.1969 .4381,-.344 .662,-.5104 .2258,-.1713 .4373,-.3605 .6488,-.549 .2211,-.1993 .441,-.3999 .6603,-.6011 .1907,-.1745 .3816,-.3489 .5722,-.5235 .1567,-.1435 .3136,-.2867 .4706,-.4298 .149,-.1359 .2981,-.2718 .4472,-.4076 .1491,-.1359 .2982,-.2718 .4474,-.4076 .1628,-.1487 .3263,-.2968 .4899,-.4446 .2028,-.1825 .4035,-.3673 .6047,-.5516 .1896,-.173 .3796,-.3454 .5698,-.5178 .2028,-.1849 .4058,-.3698 .6082,-.5552 .1944,-.177 .389,-.3538 .5831,-.5311 .1762,-.1618 .3528,-.3229 .5304,-.4831 .2739,-.2472 .5474,-.4948 .821,-.7424 .373,-.3372 .7449,-.6755 1.1154,-1.0154 .2721,-.2492 .543,-.4997 .8157,-.7483 .226,-.2054 .4514,-.4114 .6764,-.6178 .0312,-.029 .0623,-.057 .0935,-.086l-.3341,1.4271c-.0311,.028-.0621,.056-.0931,.084-.2257,.2043-.451,.4089-.6756,.6142-.2702,.246-.542,.4901-.8126,.7354-.3733,.3379-.7451,.6773-1.116,1.0178-.2749,.2523-.5498,.5043-.8244,.7569-.1761,.162-.353,.3231-.5305,.4836-.1947,.1769-.3889,.3543-.5832,.5316-.2028,.1839-.4052,.3683-.6077,.5526-.19,.1741-.3801,.348-.5706,.5214-.2019,.1829-.4041,.3654-.6044,.5501-.1633,.1501-.3268,.3-.491,.4492-.1491,.1358-.2982,.2717-.4474,.4076-.149,.1358-.2981,.2717-.4472,.4074-.1566,.1426-.3132,.2851-.47,.4274-.1906,.173-.381,.3463-.5713,.5197-.2204,.2-.4397,.4013-.662,.5993-.2147,.1904-.4314,.3795-.6633,.5487-.2237,.1622-.4504,.3195-.6507,.5116-.2156,.1823-.4371,.3575-.6687,.5187-.2142,.1574-.4051,.3418-.6008,.5214-.1558,.1425-.3113,.2854-.4677,.4273-.1494,.1361-.2988,.2723-.4484,.4082-.1839,.1669-.3681,.3334-.5526,.4995-.2843,.2564-.5689,.5126-.847,.7756l.3347,-1.4299z" stroke="#000" stroke-linecap="square" stroke-linejoin="round" stroke-width=".3298"/>
<path d="m126.4377,876.9975c.3655,-.322 .7249,-.651 1.0847,-.9793 .3296,-.3011 .6588,-.6027 .9875,-.9049 .2194,-.2022 .4399,-.4032 .6602,-.6044 .1734,-.1588 .3468,-.3176 .5204,-.4762 .1619,-.1273 .2709,-.3007 .4024,-.4561 .1338,-.1538 .2824,-.2938 .4314,-.4329 .1484,-.1372 .2983,-.2729 .4479,-.4089 .1494,-.1358 .2987,-.2717 .448,-.4076 .1493,-.136 .2985,-.272 .4478,-.4079 .1492,-.136 .2985,-.272 .4477,-.408 .16,-.1463 .321,-.2915 .4812,-.4375 .1621,-.1479 .3242,-.296 .4864,-.444 .1502,-.137 .3005,-.274 .4508,-.4109 .0994,-.091 .0497,-.045 .1491,-.1359l-.3351,1.4312c-.0994,.091-.0497,.045-.1491,.1358-.1502,.1369-.3004,.2737-.4506,.4105-.1619,.1473-.3239,.2945-.4859,.4418-.1608,.1465-.3208,.2939-.4819,.4401-.1492,.136-.2985,.272-.4477,.408-.1493,.136-.2985,.272-.4478,.4079-.1493,.136-.2987,.2718-.4481,.4077-.1491,.1356-.2985,.2709-.4449,.4094-.1445,.1386-.2871,.2799-.4129,.4358-.1303,.1611-.2598,.3216-.4234,.4518-.1729,.1572-.3461,.3142-.5192,.4712-.2193,.1993-.4384,.3988-.6585,.5972-.3286,.2967-.6567,.5939-.9844,.8917-.3651,.3322-.7307,.664-1.0901,1.0024l.3343,-1.428z" stroke="#000" stroke-linecap="square" stroke-linejoin="round" stroke-width=".3298"/>
<path d="m105.9048,895.8594c.3046,-.2142 .59,-.4544 .8726,-.6969 .2509,-.2178 .4966,-.4417 .7416,-.6661 .2025,-.185 .4052,-.3698 .6075,-.5551 .4165,-.3604 .8191,-.7366 1.2245,-1.1094 .2443,-.226 .4896,-.4508 .7347,-.676 .1962,-.1787 .3921,-.3577 .5888,-.5359 .2068,-.1873 .412,-.3763 .6185,-.5639 .1857,-.17 .3718,-.3395 .5579,-.509 .1866,-.1695 .3729,-.3395 .5589,-.5097 .1786,-.1616 .3561,-.3244 .5339,-.4869 .1748,-.158 .3486,-.3172 .5225,-.4761 .1537,-.1405 .3075,-.2807 .4613,-.421 .156,-.087 .305,-.1837 .4465,-.2936 .1512,-.1216 .2948,-.2524 .4385,-.3827 .1493,-.1358 .2982,-.2721 .4472,-.4081 .0746,-.068 .1493,-.1362 .2239,-.2043l-.335,1.4311c-.0746,.068-.1492,.1362-.2238,.2043-.1492,.1363-.2982,.2728-.4483,.4081-.147,.1317-.2944,.2635-.4527,.3815-.1418,.1018-.2955,.1853-.4314,.2948-.1536,.1399-.3072,.2797-.4609,.4194-.1744,.1585-.349,.3167-.5225,.4761-.1781,.1617-.3564,.3232-.5336,.4858-.1865,.1692-.3727,.3386-.5586,.5085-.1857,.1693-.3714,.3386-.5576,.5074-.2058,.1881-.4129,.3747-.6183,.5632-.196,.1795-.3927,.3583-.5891,.5373-.2434,.22-.4866,.4402-.7308,.6594-.4123,.3722-.8275,.7416-1.2284,1.1262-.2026,.1842-.4046,.3691-.6074,.5531-.2461,.2215-.4926,.4426-.7446,.6573-.29,.2445-.585,.4827-.8887,.7097l.3528,-1.4285z" stroke="#000" stroke-linecap="square" stroke-linejoin="round" stroke-width=".3298"/>
<path d="m68.5877,894.4637 8.642,9.4845" fill="none" stroke="#000" stroke-linecap="round" stroke-width="3.3246"/>
<path d="m72.6414,889.1278 8.642,9.4844" fill="none" stroke="#000" stroke-linecap="round" stroke-width="3.3246"/>
<path d="m77.8949,885.7117 8.642,9.4844" fill="none" stroke="#000" stroke-linecap="round" stroke-width="3.3246"/>
<path d="m83.3233,879.6727 8.6421,9.4845" fill="none" stroke="#000" stroke-linecap="round" stroke-width="3.3246"/>
<path d="m89.5383,876.0567 8.6421,9.4845" fill="none" stroke="#000" stroke-linecap="round" stroke-width="3.3246"/>
<path d="m95.4047,870.5472 8.6421,9.4844" fill="none" stroke="#000" stroke-linecap="round" stroke-width="3.3246"/>
<path d="m99.9776,864.7757 8.6421,9.4845" fill="none" stroke="#000" stroke-linecap="round" stroke-width="3.3246"/>
<path d="m106.4645,861.7079 8.6421,9.4845" fill="none" stroke="#000" stroke-linecap="round" stroke-width="3.3246"/>
<path d="m111.7517,856.5452 8.6421,9.4845" fill="none" stroke="#000" stroke-linecap="round" stroke-width="3.3246"/>
<path d="m119.8195,919.4737 11.809,-14.9056" fill="none" stroke="#000" stroke-width=".5362"/>
<path d="m66.7596,900.5575 8.642,9.4845" fill="none" stroke="#000" stroke-linecap="round" stroke-width="3.3246"/>
<path d="m150.8262,910.7443 108.7375,13.5714c4.4206,0 1.1527,6.7083-2.4471,9.274l-11.5628,4.4446-14.9112,5.1794c-3.5998,2.5656-24.6996,7.8454-29.1201,7.8454l-94.0947,-.3571c-4.4206,0-7.2241,-9.5655-3.6243,-12.1312l32.5454,-23.1954c3.5998,-2.5656 10.0567,-4.6311 14.4773,-4.6311z" fill="#fff" stroke="#000" stroke-linecap="round" stroke-linejoin="round" stroke-width="1.6996"/>
<path d="M48.2729,827.4791H119.7765A.3121,.3121 0 0 1 120.0887,827.7912V874.433A.3121,.3121 0 0 1 119.7765,874.7451H48.2729A.3121,.3121 0 0 1 47.9608,874.433V827.7912A.3121,.3121 0 0 1 48.2729,827.4791z" fill="#fff" stroke="#000" stroke-linecap="round" stroke-linejoin="round" stroke-width="3.1321" transform="matrix(.91743,-.39789,0,1,0,0)"/>
<path d="M59.4649,833.4226H108.1787A2.893,2.893 0 0 1 111.0718,836.3156V866.2438A2.893,2.893 0 0 1 108.1787,869.1368H59.4649A2.893,2.893 0 0 1 56.5719,866.2438V836.3156A2.893,2.893 0 0 1 59.4649,833.4226z" fill="#fff" stroke="#000" stroke-linecap="round" stroke-linejoin="round" stroke-width="3.1321" transform="matrix(.91743,-.39789,0,1,0,0)"/>
<path d="m77.3014,752.3969-21.0714,50.9244" fill="none" stroke="#000"/>
<path d="m77.423,752.307 21.0714,32.647" fill="none" stroke="#000"/>
<path d="m381.4286,150.8929a1.6071,1.25 0 1 1 -3.2143,0 1.6071,1.25 0 1 1 3.2143,0z" fill="#fff" stroke="#000" stroke-linecap="round" stroke-linejoin="round" stroke-width="3" transform="matrix(1,-.4337,0,1,-302.34143,766.69032)"/>
<path d="m45.4673,809.1957 7.5,2.8187" fill="none" stroke="#000"/>
<path d="m45.1714,854.1275 7.1429,-8.6335" fill="none" stroke="#000"/>
<path d="m102.6049,789.803 6.6071,-8.7583" fill="none" stroke="#000"/>
<path d="m102.457,823.0202 5.8929,3.5157" fill="none" stroke="#000"/>
<path d="m400.2303,686.2907 0,242.8572-108.5714,50.7143" fill="none" stroke="#000"/>
<path d="M2912.0959,2705.1345H3065.6058A9.0319,9.0319 0 0 1 3074.6377,2714.1664V2759.4037A9.0319,9.0319 0 0 1 3065.6058,2768.4356H2912.0959A9.0319,9.0319 0 0 1 2903.064,2759.4037V2714.1664A9.0319,9.0319 0 0 1 2912.0959,2705.1345z" stroke="#000" stroke-linecap="round" stroke-linejoin="round" stroke-width="2.7076" transform="matrix(1,0,-.93627,.35128,0,0)"/>
<path d="M2905.6011,2700.9158H3073.3613A6.1895,9.0319 0 0 1 3079.5508,2709.9477V2767.3851A6.1895,9.0319 0 0 1 3073.3613,2776.417H2905.6011A6.1895,9.0319 0 0 1 2899.4116,2767.3851V2709.9477A6.1895,9.0319 0 0 1 2905.6011,2700.9158z" stroke="#000" stroke-linecap="round" stroke-linejoin="round" stroke-width="2.7076" transform="matrix(1,0,-.93627,.35128,0,0)"/>
<path d="M338.2041,948.135H338.2041A5.1786,5.1786 0 0 1 343.3826,953.3136V966.885A5.1786,5.1786 0 0 1 338.2041,972.0636H338.2041A5.1786,5.1786 0 0 1 333.0255,966.885V953.3136A5.1786,5.1786 0 0 1 338.2041,948.135z" fill="#fff" stroke="#000" stroke-linecap="round" stroke-linejoin="round" stroke-width="3"/>
<path d="M473.2398,948.5278H473.2398A5.1786,5.1786 0 0 1 478.4183,953.7064V967.2778A5.1786,5.1786 0 0 1 473.2398,972.4564H473.2398A5.1786,5.1786 0 0 1 468.0612,967.2778V953.7064A5.1786,5.1786 0 0 1 473.2398,948.5278z" fill="#fff" stroke="#000" stroke-linecap="round" stroke-linejoin="round" stroke-width="3"/>
<path d="M518.7756,930.135H518.7756A5.1786,5.1786 0 0 1 523.9541,935.3136V948.885A5.1786,5.1786 0 0 1 518.7756,954.0636H518.7756A5.1786,5.1786 0 0 1 513.597,948.885V935.3136A5.1786,5.1786 0 0 1 518.7756,930.135z" fill="#fff" stroke="#000" stroke-linecap="round" stroke-linejoin="round" stroke-width="3"/>
<path d="M381.7755,931.2064H381.7755A5.1786,5.1786 0 0 1 386.954,936.385V949.9564A5.1786,5.1786 0 0 1 381.7755,955.135H381.7755A5.1786,5.1786 0 0 1 376.5969,949.9564V936.385A5.1786,5.1786 0 0 1 381.7755,931.2064z" fill="#fff" stroke="#000" stroke-linecap="round" stroke-linejoin="round" stroke-width="3"/>
<path d="M897.0268,848.7417H1081.2599A10.8396,10.8396 0 0 1 1092.0995,859.5813V913.8722A10.8396,10.8396 0 0 1 1081.2599,924.7118H897.0268A10.8396,10.8396 0 0 1 886.1872,913.8722V859.5813A10.8396,10.8396 0 0 1 897.0268,848.7417z" fill="#fff" stroke="#000" stroke-linecap="round" stroke-linejoin="round" stroke-width="3.2495" transform="matrix(.78777,0,-.73757,.27673,300.98816,698.38641)"/>
<path d="M892.6436,843.6788H1076.8768A10.8396,10.8396 0 0 1 1087.7164,854.5183V908.8093A10.8396,10.8396 0 0 1 1076.8768,919.6488H892.6436A10.8396,10.8396 0 0 1 881.8041,908.8093V854.5183A10.8396,10.8396 0 0 1 892.6436,843.6788z" fill="#fff" stroke="#000" stroke-linecap="round" stroke-linejoin="round" stroke-width="3.2495" transform="matrix(.78777,0,-.73757,.27673,300.98816,698.38641)"/>
<path d="M897.0268,848.7417H1081.2599A10.8396,10.8396 0 0 1 1092.0995,859.5813V913.8722A10.8396,10.8396 0 0 1 1081.2599,924.7118H897.0268A10.8396,10.8396 0 0 1 886.1872,913.8722V859.5813A10.8396,10.8396 0 0 1 897.0268,848.7417z" fill="#fff" stroke="#000" stroke-linecap="round" stroke-linejoin="round" stroke-width="3.2495" transform="matrix(.78777,0,-.73757,.27673,301.2695,695.94151)"/>
<path d="M892.6436,843.6788H1076.8768A10.8396,10.8396 0 0 1 1087.7164,854.5183V908.8093A10.8396,10.8396 0 0 1 1076.8768,919.6488H892.6436A10.8396,10.8396 0 0 1 881.8041,908.8093V854.5183A10.8396,10.8396 0 0 1 892.6436,843.6788z" fill="#fff" stroke="#000" stroke-linecap="round" stroke-linejoin="round" stroke-width="3.2495" transform="matrix(.78777,0,-.73757,.27673,301.2695,695.94151)"/>
<path d="M897.0268,848.7417H1081.2599A10.8396,10.8396 0 0 1 1092.0995,859.5813V913.8722A10.8396,10.8396 0 0 1 1081.2599,924.7118H897.0268A10.8396,10.8396 0 0 1 886.1872,913.8722V859.5813A10.8396,10.8396 0 0 1 897.0268,848.7417z" fill="#fff" stroke="#000" stroke-linecap="round" stroke-linejoin="round" stroke-width="3.2495" transform="matrix(.78777,0,-.73757,.27673,301.48051,693.16321)"/>
<path d="M892.6436,843.6788H1076.8768A10.8396,10.8396 0 0 1 1087.7164,854.5183V908.8093A10.8396,10.8396 0 0 1 1076.8768,919.6488H892.6436A10.8396,10.8396 0 0 1 881.8041,908.8093V854.5183A10.8396,10.8396 0 0 1 892.6436,843.6788z" fill="#fff" stroke="#000" stroke-linecap="round" stroke-linejoin="round" stroke-width="3.2495" transform="matrix(.78777,0,-.73757,.27673,301.48051,693.16321)"/>
<path d="M350.1185,1027.5259H402.2718A3.0109,3.0109 0 0 1 405.2827,1030.5368V1072.2447A3.0109,3.0109 0 0 1 402.2718,1075.2556H350.1185A3.0109,3.0109 0 0 1 347.1076,1072.2447V1030.5368A3.0109,3.0109 0 0 1 350.1185,1027.5259z" fill="#fff" stroke="#000" stroke-linecap="round" stroke-linejoin="round" stroke-width="3.1126" transform="matrix(.92897,-.37014,0,1,0,0)"/>
<path d="M353.1088,1029.264H405.2621A3.0109,3.0109 0 0 1 408.273,1032.2749V1073.9828A3.0109,3.0109 0 0 1 405.2621,1076.9937H353.1088A3.0109,3.0109 0 0 1 350.0979,1073.9828V1032.2749A3.0109,3.0109 0 0 1 353.1088,1029.264z" fill="#fff" stroke="#000" stroke-linecap="round" stroke-linejoin="round" stroke-width="3.1126" transform="matrix(.92897,-.37014,0,1,0,0)"/>
<path d="m119.198,282.6935a52.2754,16.2887 0 1 1 -104.5508,0 52.2754,16.2887 0 1 1 104.5508,0z" fill="#fff" stroke="#000" stroke-linecap="round" stroke-linejoin="round" stroke-width="3" transform="matrix(.59838,-.3161,.28511,.66342,241.33252,760.40251)"/>
<path d="m392.1118,858.8866 22.3184,24.4939c9.3242,10.2332 8.5925,25.978-1.6406,35.3022l-18.1238,16.514c-10.2332,9.3242-25.9779,8.5925-35.3022,-1.6406l-22.3184,-24.494" fill="#fff" stroke="#000" stroke-linecap="round" stroke-linejoin="round" stroke-width="2.5203"/>
<path d="M-343.0353,912.6672H-326.7506A.5399,.5399 0 0 1 -326.2107,913.2071V920.1448A.5399,.5399 0 0 1 -326.7506,920.6847H-343.0353A.5399,.5399 0 0 1 -343.5752,920.1448V913.2071A.5399,.5399 0 0 1 -343.0353,912.6672z" stroke="#000" stroke-linecap="square" stroke-linejoin="round" stroke-width="2.5837" transform="matrix(.73917,-.67352,.67352,.73917,0,0)"/>
<path d="M-314.3943,912.6672H-300.2693A1.6198,1.6198 0 0 1 -298.6495,914.287V919.0649A1.6198,1.6198 0 0 1 -300.2693,920.6847H-314.3943A1.6198,1.6198 0 0 1 -316.014,919.0649V914.287A1.6198,1.6198 0 0 1 -314.3943,912.6672z" stroke="#000" stroke-linecap="square" stroke-linejoin="round" stroke-width="2.5837" transform="matrix(.73917,-.67352,.67352,.73917,0,0)"/>
<path d="m349.8146,920.7049c.2858,-.2506 .5651,-.5086 .8447,-.7659 .1847,-.1703 .3696,-.3402 .555,-.5097 .1494,-.1365 .299,-.2728 .4486,-.4091 .1552,-.142 .3113,-.2831 .4671,-.4245 .1953,-.187 .3963,-.3615 .6179,-.5156 .2298,-.1584 .4442,-.3376 .6555,-.5199 .1999,-.1969 .4381,-.344 .662,-.5104 .2258,-.1713 .4373,-.3605 .6488,-.549 .2211,-.1993 .441,-.3999 .6603,-.6011 .1907,-.1745 .3816,-.3489 .5722,-.5235 .1567,-.1435 .3136,-.2867 .4706,-.4298 .149,-.1359 .2981,-.2718 .4472,-.4076 .1491,-.1359 .2982,-.2718 .4474,-.4076 .1628,-.1487 .3263,-.2968 .4899,-.4446 .2028,-.1825 .4035,-.3673 .6047,-.5516 .1896,-.173 .3796,-.3454 .5698,-.5178 .2028,-.1849 .4058,-.3698 .6082,-.5552 .1944,-.177 .389,-.3538 .5831,-.5311 .1762,-.1618 .3528,-.3229 .5304,-.4831 .2739,-.2472 .5474,-.4948 .821,-.7424 .373,-.3372 .7449,-.6755 1.1154,-1.0154 .2721,-.2492 .543,-.4997 .8157,-.7483 .226,-.2054 .4514,-.4114 .6764,-.6178 .0312,-.029 .0623,-.057 .0935,-.086l-.3341,1.4271c-.0311,.028-.0621,.056-.0931,.084-.2257,.2043-.451,.4089-.6756,.6142-.2702,.246-.542,.4901-.8126,.7354-.3733,.3379-.7451,.6773-1.116,1.0178-.2749,.2523-.5498,.5043-.8244,.7569-.1761,.162-.353,.3231-.5305,.4836-.1947,.1769-.3889,.3543-.5832,.5316-.2028,.1839-.4052,.3683-.6077,.5526-.19,.1741-.3801,.348-.5706,.5214-.2019,.1829-.4041,.3654-.6044,.5501-.1633,.1501-.3268,.3-.491,.4492-.1491,.1358-.2982,.2717-.4474,.4076-.149,.1358-.2981,.2717-.4472,.4074-.1566,.1426-.3132,.2851-.47,.4274-.1906,.173-.381,.3463-.5713,.5197-.2204,.2-.4397,.4013-.662,.5993-.2147,.1904-.4314,.3795-.6633,.5487-.2237,.1622-.4504,.3195-.6507,.5116-.2156,.1823-.4371,.3575-.6687,.5187-.2142,.1574-.4051,.3418-.6008,.5214-.1558,.1425-.3113,.2854-.4677,.4273-.1494,.1361-.2988,.2723-.4484,.4082-.1839,.1669-.3681,.3334-.5526,.4995-.2843,.2564-.5689,.5126-.847,.7756l.3347,-1.4299z" stroke="#000" stroke-linecap="square" stroke-linejoin="round" stroke-width=".3298"/>
<path d="m396.7412,878.2053c.3655,-.322 .7249,-.651 1.0847,-.9793 .3296,-.3011 .6588,-.6027 .9875,-.9049 .2194,-.2022 .4399,-.4032 .6602,-.6044 .1734,-.1588 .3468,-.3176 .5204,-.4762 .1619,-.1273 .2709,-.3007 .4024,-.4561 .1338,-.1538 .2824,-.2938 .4314,-.4329 .1484,-.1372 .2983,-.2729 .4479,-.4089 .1494,-.1358 .2987,-.2717 .448,-.4076 .1493,-.136 .2985,-.272 .4478,-.4079 .1492,-.136 .2985,-.272 .4477,-.408 .16,-.1463 .321,-.2915 .4812,-.4375 .1621,-.1479 .3242,-.296 .4864,-.444 .1502,-.137 .3005,-.274 .4508,-.4109 .0994,-.091 .0497,-.045 .1491,-.1359l-.3351,1.4312c-.0994,.091-.0497,.045-.1491,.1358-.1502,.1369-.3004,.2737-.4506,.4105-.1619,.1473-.3239,.2945-.4859,.4418-.1608,.1465-.3208,.2939-.4819,.4401-.1492,.136-.2985,.272-.4477,.408-.1493,.136-.2985,.272-.4478,.4079-.1493,.136-.2987,.2718-.4481,.4077-.1491,.1356-.2985,.2709-.4449,.4094-.1445,.1386-.2871,.2799-.4129,.4358-.1303,.1611-.2598,.3216-.4234,.4518-.1729,.1572-.3461,.3142-.5192,.4712-.2193,.1993-.4384,.3988-.6585,.5972-.3286,.2967-.6567,.5939-.9844,.8917-.3651,.3322-.7307,.664-1.0901,1.0024l.3343,-1.428z" stroke="#000" stroke-linecap="square" stroke-linejoin="round" stroke-width=".3298"/>
<path d="m376.2084,897.0672c.3046,-.2142 .59,-.4544 .8726,-.6969 .2509,-.2178 .4966,-.4417 .7416,-.6661 .2025,-.185 .4052,-.3698 .6075,-.5551 .4165,-.3604 .8191,-.7366 1.2245,-1.1094 .2443,-.226 .4896,-.4508 .7347,-.676 .1962,-.1787 .3921,-.3577 .5888,-.5359 .2068,-.1873 .412,-.3763 .6185,-.5639 .1857,-.17 .3718,-.3395 .5579,-.509 .1866,-.1695 .3729,-.3395 .5589,-.5097 .1786,-.1616 .3561,-.3244 .5339,-.4869 .1748,-.158 .3486,-.3172 .5225,-.4761 .1537,-.1405 .3075,-.2807 .4613,-.421 .156,-.087 .305,-.1837 .4465,-.2936 .1512,-.1216 .2948,-.2524 .4385,-.3827 .1493,-.1358 .2982,-.2721 .4472,-.4081 .0746,-.068 .1493,-.1362 .2239,-.2043l-.335,1.4311c-.0746,.068-.1492,.1362-.2238,.2043-.1492,.1363-.2982,.2728-.4483,.4081-.147,.1317-.2944,.2635-.4527,.3815-.1418,.1018-.2955,.1853-.4314,.2948-.1536,.1399-.3072,.2797-.4609,.4194-.1744,.1585-.349,.3167-.5225,.4761-.1781,.1617-.3564,.3232-.5336,.4858-.1865,.1692-.3727,.3386-.5586,.5085-.1857,.1693-.3714,.3386-.5576,.5074-.2058,.1881-.4129,.3747-.6183,.5632-.196,.1795-.3927,.3583-.5891,.5373-.2434,.22-.4866,.4402-.7308,.6594-.4123,.3722-.8275,.7416-1.2284,1.1262-.2026,.1842-.4046,.3691-.6074,.5531-.2461,.2215-.4926,.4426-.7446,.6573-.29,.2445-.585,.4827-.8887,.7097l.3528,-1.4285z" stroke="#000" stroke-linecap="square" stroke-linejoin="round" stroke-width=".3298"/>
<path d="m338.8913,895.6715 8.642,9.4845" fill="none" stroke="#000" stroke-linecap="round" stroke-width="3.3246"/>
<path d="m342.945,890.3356 8.642,9.4844" fill="none" stroke="#000" stroke-linecap="round" stroke-width="3.3246"/>
<path d="m348.1985,886.9195 8.642,9.4844" fill="none" stroke="#000" stroke-linecap="round" stroke-width="3.3246"/>
<path d="m353.6269,880.8805 8.6421,9.4845" fill="none" stroke="#000" stroke-linecap="round" stroke-width="3.3246"/>
<path d="m359.8419,877.2645 8.6421,9.4845" fill="none" stroke="#000" stroke-linecap="round" stroke-width="3.3246"/>
<path d="m365.7083,871.755 8.6421,9.4844" fill="none" stroke="#000" stroke-linecap="round" stroke-width="3.3246"/>
<path d="m370.2812,865.9835 8.6421,9.4845" fill="none" stroke="#000" stroke-linecap="round" stroke-width="3.3246"/>
<path d="m376.7681,862.9157 8.6421,9.4845" fill="none" stroke="#000" stroke-linecap="round" stroke-width="3.3246"/>
<path d="m382.0553,857.753 8.6421,9.4845" fill="none" stroke="#000" stroke-linecap="round" stroke-width="3.3246"/>
<path d="m390.1231,920.6815 11.809,-14.9056" fill="none" stroke="#000" stroke-width=".5362"/>
<path d="m337.0632,901.7653 8.642,9.4845" fill="none" stroke="#000" stroke-linecap="round" stroke-width="3.3246"/>
<path d="m421.1298,911.9521 108.7375,13.5714c4.4206,0 1.1527,6.7083-2.4471,9.274l-11.5628,4.4446-14.9112,5.1794c-3.5998,2.5656-24.6996,7.8454-29.1201,7.8454l-94.0947,-.3571c-4.4206,0-7.2241,-9.5655-3.6243,-12.1312l32.5454,-23.1954c3.5998,-2.5656 10.0567,-4.6311 14.4773,-4.6311z" fill="#fff" stroke="#000" stroke-linecap="round" stroke-linejoin="round" stroke-width="1.6996"/>
<path d="M342.9031,945.9171H414.4067A.3121,.3121 0 0 1 414.7189,946.2292V992.871A.3121,.3121 0 0 1 414.4067,993.1831H342.9031A.3121,.3121 0 0 1 342.591,992.871V946.2292A.3121,.3121 0 0 1 342.9031,945.9171z" fill="#fff" stroke="#000" stroke-linecap="round" stroke-linejoin="round" stroke-width="3.1321" transform="matrix(.91743,-.39789,0,1,0,0)"/>
<path d="M354.0951,951.8605H402.8089A2.893,2.893 0 0 1 405.702,954.7536V984.6818A2.893,2.893 0 0 1 402.8089,987.5748H354.0951A2.893,2.893 0 0 1 351.2021,984.6818V954.7536A2.893,2.893 0 0 1 354.0951,951.8605z" fill="#fff" stroke="#000" stroke-linecap="round" stroke-linejoin="round" stroke-width="3.1321" transform="matrix(.91743,-.39789,0,1,0,0)"/>
<path d="m347.605,753.6047-21.0714,50.9244" fill="none" stroke="#000"/>
<path d="m347.7265,753.5148 21.0714,32.647" fill="none" stroke="#000"/>
<path d="m381.4286,150.8929a1.6071,1.25 0 1 1 -3.2143,0 1.6071,1.25 0 1 1 3.2143,0z" fill="#fff" stroke="#000" stroke-linecap="round" stroke-linejoin="round" stroke-width="3" transform="matrix(1,-.4337,0,1,-32.03784,767.89811)"/>
<path d="m315.7709,810.4035 7.5,2.8187" fill="none" stroke="#000"/>
<path d="m315.475,855.3353 7.1429,-8.6335" fill="none" stroke="#000"/>
<path d="m372.9085,791.0108 6.6071,-8.7583" fill="none" stroke="#000"/>
<path d="m372.7606,824.228 5.8929,3.5157" fill="none" stroke="#000"/>
<path d="m685.2303,684.8622 0,242.8572-108.5714,50.7143" fill="none" stroke="#000"/>
<path d="M3193.2882,2701.0679H3346.7981A9.0319,9.0319 0 0 1 3355.83,2710.0998V2755.3371A9.0319,9.0319 0 0 1 3346.7981,2764.369H3193.2882A9.0319,9.0319 0 0 1 3184.2563,2755.3371V2710.0998A9.0319,9.0319 0 0 1 3193.2882,2701.0679z" stroke="#000" stroke-linecap="round" stroke-linejoin="round" stroke-width="2.7076" transform="matrix(1,0,-.93627,.35128,0,0)"/>
<path d="M3186.7935,2696.8491H3354.5537A6.1895,9.0319 0 0 1 3360.7432,2705.881V2763.3184A6.1895,9.0319 0 0 1 3354.5537,2772.3503H3186.7935A6.1895,9.0319 0 0 1 3180.604,2763.3184V2705.881A6.1895,9.0319 0 0 1 3186.7935,2696.8491z" stroke="#000" stroke-linecap="round" stroke-linejoin="round" stroke-width="2.7076" transform="matrix(1,0,-.93627,.35128,0,0)"/>
<path d="M623.2041,946.7065H623.2041A5.1786,5.1786 0 0 1 628.3827,951.8851V965.4565A5.1786,5.1786 0 0 1 623.2041,970.6351H623.2041A5.1786,5.1786 0 0 1 618.0255,965.4565V951.8851A5.1786,5.1786 0 0 1 623.2041,946.7065z" fill="#fff" stroke="#000" stroke-linecap="round" stroke-linejoin="round" stroke-width="3"/>
<path d="M758.2398,947.0993H758.2398A5.1786,5.1786 0 0 1 763.4184,952.2779V965.8493A5.1786,5.1786 0 0 1 758.2398,971.0279H758.2398A5.1786,5.1786 0 0 1 753.0612,965.8493V952.2779A5.1786,5.1786 0 0 1 758.2398,947.0993z" fill="#fff" stroke="#000" stroke-linecap="round" stroke-linejoin="round" stroke-width="3"/>
<path d="M803.7756,928.7065H803.7756A5.1786,5.1786 0 0 1 808.9541,933.8851V947.4565A5.1786,5.1786 0 0 1 803.7756,952.6351H803.7756A5.1786,5.1786 0 0 1 798.597,947.4565V933.8851A5.1786,5.1786 0 0 1 803.7756,928.7065z" fill="#fff" stroke="#000" stroke-linecap="round" stroke-linejoin="round" stroke-width="3"/>
<path d="M666.7755,929.7779H666.7755A5.1786,5.1786 0 0 1 671.9541,934.9565V948.5279A5.1786,5.1786 0 0 1 666.7755,953.7065H666.7755A5.1786,5.1786 0 0 1 661.5969,948.5279V934.9565A5.1786,5.1786 0 0 1 666.7755,929.7779z" fill="#fff" stroke="#000" stroke-linecap="round" stroke-linejoin="round" stroke-width="3"/>
<path d="M897.0268,848.7417H1081.2599A10.8396,10.8396 0 0 1 1092.0995,859.5813V913.8722A10.8396,10.8396 0 0 1 1081.2599,924.7118H897.0268A10.8396,10.8396 0 0 1 886.1872,913.8722V859.5813A10.8396,10.8396 0 0 1 897.0268,848.7417z" fill="#fff" stroke="#000" stroke-linecap="round" stroke-linejoin="round" stroke-width="3.2495" transform="matrix(.78777,0,-.73757,.27673,585.98816,696.95784)"/>
<path d="M892.6436,843.6788H1076.8768A10.8396,10.8396 0 0 1 1087.7164,854.5183V908.8093A10.8396,10.8396 0 0 1 1076.8768,919.6488H892.6436A10.8396,10.8396 0 0 1 881.8041,908.8093V854.5183A10.8396,10.8396 0 0 1 892.6436,843.6788z" fill="#fff" stroke="#000" stroke-linecap="round" stroke-linejoin="round" stroke-width="3.2495" transform="matrix(.78777,0,-.73757,.27673,585.98816,696.95784)"/>
<path d="M897.0268,848.7417H1081.2599A10.8396,10.8396 0 0 1 1092.0995,859.5813V913.8722A10.8396,10.8396 0 0 1 1081.2599,924.7118H897.0268A10.8396,10.8396 0 0 1 886.1872,913.8722V859.5813A10.8396,10.8396 0 0 1 897.0268,848.7417z" fill="#fff" stroke="#000" stroke-linecap="round" stroke-linejoin="round" stroke-width="3.2495" transform="matrix(.78777,0,-.73757,.27673,586.2695,694.51294)"/>
<path d="M892.6436,843.6788H1076.8768A10.8396,10.8396 0 0 1 1087.7164,854.5183V908.8093A10.8396,10.8396 0 0 1 1076.8768,919.6488H892.6436A10.8396,10.8396 0 0 1 881.8041,908.8093V854.5183A10.8396,10.8396 0 0 1 892.6436,843.6788z" fill="#fff" stroke="#000" stroke-linecap="round" stroke-linejoin="round" stroke-width="3.2495" transform="matrix(.78777,0,-.73757,.27673,586.2695,694.51294)"/>
<path d="M897.0268,848.7417H1081.2599A10.8396,10.8396 0 0 1 1092.0995,859.5813V913.8722A10.8396,10.8396 0 0 1 1081.2599,924.7118H897.0268A10.8396,10.8396 0 0 1 886.1872,913.8722V859.5813A10.8396,10.8396 0 0 1 897.0268,848.7417z" fill="#fff" stroke="#000" stroke-linecap="round" stroke-linejoin="round" stroke-width="3.2495" transform="matrix(.78777,0,-.73757,.27673,586.48051,691.73464)"/>
<path d="M892.6436,843.6788H1076.8768A10.8396,10.8396 0 0 1 1087.7164,854.5183V908.8093A10.8396,10.8396 0 0 1 1076.8768,919.6488H892.6436A10.8396,10.8396 0 0 1 881.8041,908.8093V854.5183A10.8396,10.8396 0 0 1 892.6436,843.6788z" fill="#fff" stroke="#000" stroke-linecap="round" stroke-linejoin="round" stroke-width="3.2495" transform="matrix(.78777,0,-.73757,.27673,586.48051,691.73464)"/>
<path d="M656.9083,1139.6536H709.0616A3.0109,3.0109 0 0 1 712.0725,1142.6645V1184.3724A3.0109,3.0109 0 0 1 709.0616,1187.3833H656.9083A3.0109,3.0109 0 0 1 653.8975,1184.3724V1142.6645A3.0109,3.0109 0 0 1 656.9083,1139.6536z" fill="#fff" stroke="#000" stroke-linecap="round" stroke-linejoin="round" stroke-width="3.1126" transform="matrix(.92897,-.37014,0,1,0,0)"/>
<path d="M659.8986,1141.3917H712.0519A3.0109,3.0109 0 0 1 715.0628,1144.4026V1186.1105A3.0109,3.0109 0 0 1 712.0519,1189.1214H659.8986A3.0109,3.0109 0 0 1 656.8878,1186.1105V1144.4026A3.0109,3.0109 0 0 1 659.8986,1141.3917z" fill="#fff" stroke="#000" stroke-linecap="round" stroke-linejoin="round" stroke-width="3.1126" transform="matrix(.92897,-.37014,0,1,0,0)"/>
<path d="m119.198,282.6935a52.2754,16.2887 0 1 1 -104.5508,0 52.2754,16.2887 0 1 1 104.5508,0z" fill="#fff" stroke="#000" stroke-linecap="round" stroke-linejoin="round" stroke-width="3" transform="matrix(.59838,-.3161,.28511,.66342,526.33252,758.97394)"/>
<path d="m677.1118,857.458 22.3184,24.4939c9.3242,10.2332 8.5925,25.978-1.6406,35.3022l-18.1238,16.514c-10.2332,9.3242-25.9779,8.5925-35.3022,-1.6406l-22.3184,-24.494" fill="#fff" stroke="#000" stroke-linecap="round" stroke-linejoin="round" stroke-width="2.5203"/>
<path d="M-131.4094,1103.5638H-115.1247A.5399,.5399 0 0 1 -114.5848,1104.1037V1111.0414A.5399,.5399 0 0 1 -115.1247,1111.5813H-131.4094A.5399,.5399 0 0 1 -131.9493,1111.0414V1104.1037A.5399,.5399 0 0 1 -131.4094,1103.5638z" stroke="#000" stroke-linecap="square" stroke-linejoin="round" stroke-width="2.5837" transform="matrix(.73917,-.67352,.67352,.73917,0,0)"/>
<path d="M-102.7684,1103.5638H-88.6434A1.6198,1.6198 0 0 1 -87.0236,1105.1836V1109.9615A1.6198,1.6198 0 0 1 -88.6434,1111.5813H-102.7684A1.6198,1.6198 0 0 1 -104.3881,1109.9615V1105.1836A1.6198,1.6198 0 0 1 -102.7684,1103.5638z" stroke="#000" stroke-linecap="square" stroke-linejoin="round" stroke-width="2.5837" transform="matrix(.73917,-.67352,.67352,.73917,0,0)"/>
<path d="m634.8147,919.2763c.2858,-.2506 .5651,-.5086 .8447,-.7659 .1847,-.1703 .3696,-.3402 .555,-.5097 .1494,-.1365 .299,-.2728 .4486,-.4091 .1552,-.142 .3113,-.2831 .4671,-.4245 .1953,-.187 .3963,-.3615 .6179,-.5156 .2298,-.1584 .4442,-.3376 .6555,-.5199 .1999,-.1969 .4381,-.344 .662,-.5104 .2258,-.1713 .4373,-.3605 .6488,-.549 .2211,-.1993 .441,-.3999 .6603,-.6011 .1907,-.1745 .3816,-.3489 .5722,-.5235 .1567,-.1435 .3136,-.2867 .4706,-.4298 .149,-.1359 .2981,-.2718 .4472,-.4076 .1491,-.1359 .2982,-.2718 .4474,-.4076 .1628,-.1487 .3263,-.2968 .4899,-.4446 .2028,-.1825 .4035,-.3673 .6047,-.5516 .1896,-.173 .3796,-.3454 .5698,-.5178 .2028,-.1849 .4058,-.3698 .6082,-.5552 .1944,-.177 .389,-.3538 .5831,-.5311 .1762,-.1618 .3528,-.3229 .5304,-.4831 .2739,-.2472 .5474,-.4948 .821,-.7424 .373,-.3372 .7449,-.6755 1.1154,-1.0154 .2721,-.2492 .543,-.4997 .8157,-.7483 .226,-.2054 .4514,-.4114 .6764,-.6178 .0312,-.029 .0623,-.057 .0935,-.086l-.3341,1.4271c-.0311,.028-.0621,.056-.0931,.084-.2257,.2043-.451,.4089-.6756,.6142-.2702,.246-.542,.4901-.8126,.7354-.3733,.3379-.7451,.6773-1.116,1.0178-.2749,.2523-.5498,.5043-.8244,.7569-.1761,.162-.353,.3231-.5305,.4836-.1947,.1769-.3889,.3543-.5832,.5316-.2028,.1839-.4052,.3683-.6077,.5526-.19,.1741-.3801,.348-.5706,.5214-.2019,.1829-.4041,.3654-.6044,.5501-.1633,.1501-.3268,.3-.491,.4492-.1491,.1358-.2982,.2717-.4474,.4076-.149,.1358-.2981,.2717-.4472,.4074-.1566,.1426-.3132,.2851-.47,.4274-.1906,.173-.381,.3463-.5713,.5197-.2204,.2-.4397,.4013-.662,.5993-.2147,.1904-.4314,.3795-.6633,.5487-.2237,.1622-.4504,.3195-.6507,.5116-.2156,.1823-.4371,.3575-.6687,.5187-.2142,.1574-.4051,.3418-.6008,.5214-.1558,.1425-.3113,.2854-.4677,.4273-.1494,.1361-.2988,.2723-.4484,.4082-.1839,.1669-.3681,.3334-.5526,.4995-.2843,.2564-.5689,.5126-.847,.7756l.3347,-1.4299z" stroke="#000" stroke-linecap="square" stroke-linejoin="round" stroke-width=".3298"/>
<path d="m681.7413,876.7767c.3655,-.322 .7249,-.651 1.0847,-.9793 .3296,-.3011 .6588,-.6027 .9875,-.9049 .2194,-.2022 .4399,-.4032 .6602,-.6044 .1734,-.1588 .3468,-.3176 .5204,-.4762 .1619,-.1273 .2709,-.3007 .4024,-.4561 .1338,-.1538 .2824,-.2938 .4314,-.4329 .1484,-.1372 .2983,-.2729 .4479,-.4089 .1494,-.1358 .2987,-.2717 .448,-.4076 .1493,-.136 .2985,-.272 .4478,-.4079 .1492,-.136 .2985,-.272 .4477,-.408 .16,-.1463 .321,-.2915 .4812,-.4375 .1621,-.1479 .3242,-.296 .4864,-.444 .1502,-.137 .3005,-.274 .4508,-.4109 .0994,-.091 .0497,-.045 .1491,-.1359l-.3351,1.4312c-.0994,.091-.0497,.045-.1491,.1358-.1502,.1369-.3004,.2737-.4506,.4105-.1619,.1473-.3239,.2945-.4859,.4418-.1608,.1465-.3208,.2939-.4819,.4401-.1492,.136-.2985,.272-.4477,.408-.1493,.136-.2985,.272-.4478,.4079-.1493,.136-.2987,.2718-.4481,.4077-.1491,.1356-.2985,.2709-.4449,.4094-.1445,.1386-.2871,.2799-.4129,.4358-.1303,.1611-.2598,.3216-.4234,.4518-.1729,.1572-.3461,.3142-.5192,.4712-.2193,.1993-.4384,.3988-.6585,.5972-.3286,.2967-.6567,.5939-.9844,.8917-.3651,.3322-.7307,.664-1.0901,1.0024l.3343,-1.428z" stroke="#000" stroke-linecap="square" stroke-linejoin="round" stroke-width=".3298"/>
<path d="m661.2084,895.6386c.3046,-.2142 .59,-.4544 .8726,-.6969 .2509,-.2178 .4966,-.4417 .7416,-.6661 .2025,-.185 .4052,-.3698 .6075,-.5551 .4165,-.3604 .8191,-.7366 1.2245,-1.1094 .2443,-.226 .4896,-.4508 .7347,-.676 .1962,-.1787 .3921,-.3577 .5888,-.5359 .2068,-.1873 .412,-.3763 .6185,-.5639 .1857,-.17 .3718,-.3395 .5579,-.509 .1866,-.1695 .3729,-.3395 .5589,-.5097 .1786,-.1616 .3561,-.3244 .5339,-.4869 .1748,-.158 .3486,-.3172 .5225,-.4761 .1537,-.1405 .3075,-.2807 .4613,-.421 .156,-.087 .305,-.1837 .4465,-.2936 .1512,-.1216 .2948,-.2524 .4385,-.3827 .1493,-.1358 .2982,-.2721 .4472,-.4081 .0746,-.068 .1493,-.1362 .2239,-.2043l-.335,1.4311c-.0746,.068-.1492,.1362-.2238,.2043-.1492,.1363-.2982,.2728-.4483,.4081-.147,.1317-.2944,.2635-.4527,.3815-.1418,.1018-.2955,.1853-.4314,.2948-.1536,.1399-.3072,.2797-.4609,.4194-.1744,.1585-.349,.3167-.5225,.4761-.1781,.1617-.3564,.3232-.5336,.4858-.1865,.1692-.3727,.3386-.5586,.5085-.1857,.1693-.3714,.3386-.5576,.5074-.2058,.1881-.4129,.3747-.6183,.5632-.196,.1795-.3927,.3583-.5891,.5373-.2434,.22-.4866,.4402-.7308,.6594-.4123,.3722-.8275,.7416-1.2284,1.1262-.2026,.1842-.4046,.3691-.6074,.5531-.2461,.2215-.4926,.4426-.7446,.6573-.29,.2445-.585,.4827-.8887,.7097l.3528,-1.4285z" stroke="#000" stroke-linecap="square" stroke-linejoin="round" stroke-width=".3298"/>
<path d="m623.8913,894.2429 8.642,9.4845" fill="none" stroke="#000" stroke-linecap="round" stroke-width="3.3246"/>
<path d="m627.945,888.907 8.642,9.4844" fill="none" stroke="#000" stroke-linecap="round" stroke-width="3.3246"/>
<path d="m633.1985,885.4909 8.642,9.4844" fill="none" stroke="#000" stroke-linecap="round" stroke-width="3.3246"/>
<path d="m638.6269,879.4519 8.6421,9.4845" fill="none" stroke="#000" stroke-linecap="round" stroke-width="3.3246"/>
<path d="m644.8419,875.8359 8.6421,9.4845" fill="none" stroke="#000" stroke-linecap="round" stroke-width="3.3246"/>
<path d="m650.7083,870.3264 8.6421,9.4844" fill="none" stroke="#000" stroke-linecap="round" stroke-width="3.3246"/>
<path d="m655.2812,864.5549 8.6421,9.4845" fill="none" stroke="#000" stroke-linecap="round" stroke-width="3.3246"/>
<path d="m661.7681,861.4871 8.6421,9.4845" fill="none" stroke="#000" stroke-linecap="round" stroke-width="3.3246"/>
<path d="m667.0553,856.3244 8.6421,9.4845" fill="none" stroke="#000" stroke-linecap="round" stroke-width="3.3246"/>
<path d="m675.1231,919.2529 11.809,-14.9056" fill="none" stroke="#000" stroke-width=".5362"/>
<path d="m622.0632,900.3367 8.642,9.4845" fill="none" stroke="#000" stroke-linecap="round" stroke-width="3.3246"/>
<path d="m706.1297,910.5235 108.7375,13.5714c4.4206,0 1.1527,6.7083-2.4471,9.274l-11.5628,4.4446-14.9112,5.1794c-3.5998,2.5656-24.6996,7.8454-29.1201,7.8454l-94.0947,-.3571c-4.4206,0-7.2241,-9.5655-3.6243,-12.1312l32.5454,-23.1954c3.5998,-2.5656 10.0567,-4.6311 14.4773,-4.6311z" fill="#fff" stroke="#000" stroke-linecap="round" stroke-linejoin="round" stroke-width="1.6996"/>
<path d="M653.5524,1068.0925H725.056A.3121,.3121 0 0 1 725.3681,1068.4046V1115.0465A.3121,.3121 0 0 1 725.056,1115.3586H653.5524A.3121,.3121 0 0 1 653.2402,1115.0465V1068.4046A.3121,.3121 0 0 1 653.5524,1068.0925z" fill="#fff" stroke="#000" stroke-linecap="round" stroke-linejoin="round" stroke-width="3.1321" transform="matrix(.91743,-.39789,0,1,0,0)"/>
<path d="M664.7444,1074.036H713.4581A2.893,2.893 0 0 1 716.3512,1076.929V1106.8572A2.893,2.893 0 0 1 713.4581,1109.7503H664.7444A2.893,2.893 0 0 1 661.8513,1106.8572V1076.929A2.893,2.893 0 0 1 664.7444,1074.036z" fill="#fff" stroke="#000" stroke-linecap="round" stroke-linejoin="round" stroke-width="3.1321" transform="matrix(.91743,-.39789,0,1,0,0)"/>
<path d="m632.605,752.1761-21.0714,50.9244" fill="none" stroke="#000"/>
<path d="m632.7265,752.0862 21.0714,32.647" fill="none" stroke="#000"/>
<path d="m381.4286,150.8929a1.6071,1.25 0 1 1 -3.2143,0 1.6071,1.25 0 1 1 3.2143,0z" fill="#fff" stroke="#000" stroke-linecap="round" stroke-linejoin="round" stroke-width="3" transform="matrix(1,-.4337,0,1,252.96216,766.46954)"/>
<path d="m600.7709,808.9749 7.5,2.8187" fill="none" stroke="#000"/>
<path d="m600.475,853.9067 7.1429,-8.6335" fill="none" stroke="#000"/>
<path d="m657.9085,789.5822 6.6071,-8.7583" fill="none" stroke="#000"/>
<path d="m657.7606,822.7994 5.8929,3.5157" fill="none" stroke="#000"/>
<path d="M293.75,684.1602H575.7812V992.754H293.75z" opacity=".34" stroke="#000" stroke-width="1.5"/>
<path d="m606.271,686.8946 231.208,0c14.078,0 25.4116,11.3336 25.4116,25.4117l0,257.7704c0,14.078-11.3336,25.4117-25.4116,25.4117l-231.208,0c-14.078,0-25.4117,6.3441-25.4117,-7.734l0,-293.1258c0,-14.0781 11.3336,-7.734 25.4117,-7.734z" opacity=".34" stroke="#000" stroke-width="1.5"/>
<text font-family="Sans" font-size="20" letter-spacing="0" line-height="562.5" word-spacing="0" x="208.8135" y="757.0497">
   <tspan text-align="center" text-anchor="middle" x="208.8135" y="757.0497">Bon, faut</tspan>
   <tspan text-align="center" text-anchor="middle" x="208.8135" y="782.0497">vraiment</tspan>
   <tspan text-align="center" text-anchor="middle" x="208.8135" y="807.0497">que je</tspan>
   <tspan text-align="center" text-anchor="middle" x="208.8135" y="832.0497">dorme l...</tspan>
  </text>
<path d="M178.9062,242.1875 151.5625,275.7812" fill="none" stroke="#000" transform="translate(0,602.3622)"/>
<text font-family="Sans" font-size="20" letter-spacing="0" line-height="562.5" word-spacing="0" x="771.626" y="784.037">
   <tspan text-align="center" text-anchor="middle" x="771.626" y="784.037">4:04</tspan>
   <tspan text-align="center" text-anchor="middle" x="771.626" y="809.037">sommeil</tspan>
   <tspan text-align="center" text-anchor="middle" x="771.626" y="834.037">not found.</tspan>
  </text>
<path d="m733.5938,244.5312-25.7812,34.375" fill="none" stroke="#000" transform="translate(0,602.3622)"/>
<text font-family="Sans" font-size="6.956" letter-spacing="0" line-height="562.5" transform="matrix(1.0219,-.41798,0,.97857,0,0)" word-spacing="0" x="54.9874" y="870.7204">
   <tspan font-weight="bold" x="54.9874" y="870.7204">:(){ :|:&amp;};:</tspan>
  </text>
<text font-family="Sans" font-size="6.956" letter-spacing="0" line-height="562.5" transform="matrix(1.0219,-.41798,0,.97857,0,0)" word-spacing="0" x="319.4144" y="984.8835">
   <tspan font-weight="bold" x="319.4144" y="984.8835">:(){ :|:&amp;};:</tspan>
  </text>
<text font-family="Sans" font-size="6.956" letter-spacing="0" line-height="562.5" transform="matrix(1.0219,-.41798,0,.97857,0,0)" word-spacing="0" x="598.8988" y="1102.567">
   <tspan font-weight="bold" x="598.8988" y="1102.567">:(){ :|:&amp;};:</tspan>
  </text>
</g>
</svg>
