<svg version="1.1" viewBox="0 0 900 450" xmlns="http://www.w3.org/2000/svg" xmlns:svg="http://www.w3.org/2000/svg">
<g transform="translate(0,-602.3622)">
<path d="M49.9348,681.4919H830.9367A31.621,31.621 0 0 1 862.5577,713.1129V961.4617A31.621,31.621 0 0 1 830.9367,993.0828H49.9348A31.621,31.621 0 0 1 18.3137,961.4617V713.1129A31.621,31.621 0 0 1 49.9348,681.4919z" fill="#fff" stroke="#000" stroke-linecap="round" stroke-width="7.4907"/>
<path d="m859.4579,862.6938-138.1117,0 43.8177,22.768 94.294,0z" fill="#fff" stroke="#000" stroke-linejoin="bevel" stroke-width="2"/>
<path d="m18.9608,919.3481 840.4469,0" fill="none" stroke="#000"/>
<path d="m296.5804,677.6365 0,313.2703" fill="none" stroke="#000" stroke-width="5.6728"/>
<path d="m839.4465,1011.8789c.4393,.5102 1.0355,.5714 1.6702,.6073 .8029,-.022 1.6072,-.2138 2.3575,-.4993 .4009,-.1526 .6224,-.2825 .9965,-.4789-2.2387,1.3097-.9924,.6082-.5738,.1636 .2168,-.2303 .3463,-.473 .4686,-.7606 .3177,-.895 .3589,-1.8574 .4131,-2.7971 .1056,-1.3679-.1776,-2.7109-.4825,-4.0351-.3709,-1.393-.8746,-2.7467-1.4294,-4.0758-.2656,-.6279-.5661,-1.24-.8587,-1.8555-.3944,-.7567-.717,-.2868 1.5104,-1.1508 .0768,-.03 .0919,.1367 .1411,.2027 .0824,.1106 .1689,.2179 .2534,.3269 .8217,1.1276 1.8098,2.1155 2.8001,3.0928 .5826,.5674 1.2074,1.0941 1.7645,1.6874 .2114,.1726 .3378,.416 .508,.6229 .1662,.1502 .2962,-.01 .4431,-.1106-2.5656,1.5384-1.6519,1.0412-1.16,.5694 .1937,-.1857 .3764,-.3843 .5619,-.5781 .2632,-.2626 .5127,-.5438 .801,-.7804 .761,-.6244 1.8227,-1.1234 2.6097,-1.5711 .7271,-.3211 1.471,-.6005 2.2265,-.8467 .1563,-.034 .761,-.2665 .899,-.1093 .0321,.037 .0451,.086 .0677,.1294 .003,.044 .0154,.089 .009,.1323-.0436,.3196-.5385,.6915-.7545,.8904-.9928,.8207-1.9561,1.6745-2.8731,2.5792-.7976,.8557-1.6216,1.7004-2.2566,2.6874-.3921,.6165-.6005,1.2972-.6984,2.0144-.0648,.6415-.0542,1.2873-.0532,1.9312 .0351,.6998 .1244,1.4011 .3328,2.0715 .1195,.3571 .3319,.6194 .6717,.7762 .2255,.08 .4837,.1318 .7238,.087 .0559,-.011 .5216,-.1684 .5589,-.1808 .5492,-.2997 1.8756,-1.0005-.6067,.3598-.0982,.054 .1891,-.1201 .2821,-.1824 .2138,-.143 .2651,-.1851 .4657,-.3346 .2405,-.18 .1266,-.092 .3424,-.2617l1.7191,-.6913c-.2178,.1831-.1012,.092-.3516,.2719-1.0139,.7828-2.137,1.4308-3.3009,1.9611-.5107,.1524-.8878,.2254-1.3851,-.01-.3662,-.2066-.6055,-.5062-.7343,-.9112-.2041,-.6903-.2811,-1.409-.3481,-2.1238-.004,-.6502-.0146,-1.3021 .038,-1.9509 .0928,-.7431 .2887,-1.4524 .6884,-2.0955 .0802,-.1333 .153,-.2712 .2404,-.3997 .1797,-.264 .4481,-.5661 .6529,-.8036 .4526,-.5248 .9157,-1.0402 1.3938,-1.5419 .8918,-.8997 1.8318,-1.7498 2.8066,-2.5592 .2761,-.2564 .5618,-.5063 .8001,-.7993 .0396,.021-.0878,.017-.1321,.024-.221,.031-.4338,.1-.6466,.1641-.7471,.2466-1.4866,.5202-2.1959,.8624 2.4446,-1.4457 .9748,-.6248 .497,-.2572-.291,.2239-.54,.5004-.7953,.7622-.9257,.9765-.9789,1.08-2.5451,1.8884-.2567,.1212-.4002,.1068-.6009,-.1041-.1584,-.2095-.2853,-.4431-.481,-.6233-.5334,-.6025-1.1282,-1.1492-1.6932,-1.7213-.9808,-.9983-1.9768,-1.9849-2.8496,-3.0818-.0938,-.1054-.1877,-.2107-.2814,-.3162-.0521,-.059-.2154,-.1251-.1559,-.1761 1.4141,-1.214 1.334,-1.5318 1.6993,-.7303 .2757,.628 .5663,1.2498 .8171,1.8885 .5249,1.3529 1.0089,2.7231 1.4053,4.1197 .3185,1.3302 .6335,2.6815 .5419,4.06-.0362,.9485-.0918,1.9144-.3493,2.8318-.0847,.2347-.1139,.3545-.249,.5692-.5939,.9436-1.8747,1.3891-2.7166,1.9248-1.0714,.5265-2.2113,.8989-3.4172,.9043-.1676,-.014-.3365,-.016-.5029,-.04-.4955,-.073-.9575,-.2895-1.3004,-.6569l1.6003,-.9608z" stroke="#000" stroke-linecap="round" stroke-linejoin="round" stroke-width=".2515"/>
<path d="m854.8111,1009.7221c-.7394,.2071-2.342,1.1965 .4555,-.4044-.388,.2065-.6184,.5425-.7999,.9302-.1036,.3106-.2142,.6511-.1917,.9845 .0156,.2306 .0756,.3465 .154,.562 .3071,.6068 .7795,1.1058 1.3399,1.4838 .4137,.2881 .8839,.4192 1.383,.4252 .3851,-.087 .7431,-.2375 1.0957,-.4123 .1503,-.075 .5909,-.3179 .4467,-.2321-1.6618,.9893-1.2456,.7222-.6575,.3195 .4842,-.373 1.0105,-.8057 1.1352,-1.4399 .0174,-.089 .0162,-.1799 .0243,-.2698-.032,-.7933-.5333,-1.4143-1.0169,-2.0008-.3049,-.3393-.6501,-.6629-1.0669,-.861-.2115,-.1006-.32,-.1184-.544,-.1779-.4519,-.025-.9255,.018-1.3546,.1741-.1984,.072-.499,.2393-.6834,.3368 2.5132,-1.5077 .8665,-.5123 .3482,-.062l-1.7106,.6997c.796,-.7657 1.8589,-1.2168 2.7842,-1.7768 .2686,-.1306 .4271,-.2209 .7141,-.308 .4568,-.1387 .9485,-.1711 1.419,-.1018 .2419,.077 .34,.097 .5672,.2178 .4231,.2254 .772,.5679 1.084,.9255 .5088,.6264 1.0253,1.2756 1.1028,2.1094-.004,.1012 .002,.2032-.0112,.3036-.0928,.6824-.6005,1.1675-1.1167,1.5707-1.0013,.7187-.4882,.3709-2.4236,1.4672-.5043,.2856-1.0559,.5275-1.6351,.5951-.5218,-.046-1.0072,-.1999-1.4323,-.5166-.5749,-.4193-1.0583,-.9487-1.3949,-1.5794-.0786,-.2055-.1678,-.4012-.1946,-.6229-.0421,-.3472 .0735,-.7121 .1572,-1.043 .1608,-.4085 .3649,-.7958 .7491,-1.0357 .9031,-.5198 1.7482,-1.1163 2.7557,-1.3944l-1.4819,1.1332z" stroke="#000" stroke-linecap="round" stroke-linejoin="round" stroke-width=".2515"/>
<path d="m862.6073,1010.4766c-.3203,.1024-.653,.1903-.9574,.3362-.1022,.049-.1982,.1101-.2973,.1651 .4207,-.2356 .8414,-.4712 1.2621,-.7068-.4994,.337-.87,.6738-1.0934,1.2386-.1462,.4653-.0761,.8587 .2923,1.2028 .0889,.083 .1935,.1478 .2903,.2216 .7042,.4046 1.5378,.5494 2.3444,.4638 .2312,-.024 .458,-.081 .687,-.1208 .53,-.1368 .7609,-.1749 1.2586,-.3838 .1651,-.069 .635,-.3304 .4812,-.2386-2.2382,1.3365-1.2251,.7542-.8736,.3984 .0779,-.079 .1399,-.1722 .2098,-.2583 .3065,-.4795 .3144,-.9061 .0985,-1.417-.0396,-.09-.268,-.5604-.4291,-.4586-.0279,.018-.042,.051-.063,.076 2.5422,-1.4497 1.5743,-1.2073 1.3278,-.5008-.1064,.3049-.125,.6013-.1396,.9215 .1766,1.4863 .8332,2.8626 1.3726,4.2435 .6559,1.8244 1.2881,3.7176 1.3609,5.6745 .0145,.3894-.0234,.779-.0352,1.1686-.0582,.3745-.0908,.7539-.1745,1.1236-.2732,1.2059-.8948,2.3097-1.8179,3.137-.1627,.1458-.3469,.2657-.5204,.3986-.6941,.3626-1.3545,.7991-2.0824,1.0879-.3018,.1197-1.0302,-.13-1.269,-.2365-.8875,-.3956-1.654,-1.0455-2.408,-1.6406-1.2719,-1.0888-2.5172,-2.2246-3.6551,-3.4553-.5895,-.6376-.7352,-.8522-1.2473,-1.5117-.4358,-.7271-.9494,-1.5701-.521,-2.4271 .2535,-.5072 .5596,-.6912 .9842,-1.0605 1.2727,-.8247 1.3769,-.9187 3.2195,-1.8517 .4497,-.2278 1.9,-.7427 2.3438,-.8976 .8851,-.3088 1.8369,-.6147 2.7269,-.9055 2.3381,-.6745 4.6281,-1.4959 6.8915,-2.3865 .1921,-.082 .3845,-.1627 .5764,-.245 .1466,-.063 .2943,-.1233 .439,-.1903 .2958,-.1371 .5721,-.3067 .8773,-.4229 .4138,-.059 .559,.4391 .6828,.7418 .2853,.7705 .446,1.5785 .5154,2.3954 .0171,.366 .029,.7336-.0228,1.0975-.005,.037 .0139,.095-.0201,.1109-.5544,.2582-1.1333,.4601-1.6999,.6901 10e-4,-.1125-.005,-.2255 .004,-.3377 .0133,-.1633 .0414,-.325 .063,-.4874 .1257,-.9479 .2903,-1.8832 .4832,-2.8196 .1955,-.8168 .3644,-1.6723 .8312,-2.3853 .5286,-.5535 1.7043,-1.6447 2.2768,-1.0096 .06,.066 .1019,.1472 .1529,.2208 .112,.1981 .2088,.3486 .2821,.5681 .2061,.6171 .2986,1.3405 .4077,1.9824 .1424,.5555 .0881,1.2207 .2567,1.7654 .2229,-.5987-.002,.028-1.6032,.7911-.0325,.016 .0489,-.053 .0671,-.084 .0417,-.071 .1233,-.2801 .1551,-.3443 .0434,-.088 .0929,-.1719 .1393,-.2578 .3011,-.4825 .556,-.9925 .8877,-1.4553 .5547,-.695 1.0736,-.8467 2.0338,-1.3743 .0329,-.018 .0773,-.01 .1126,.01 .045,.016 .08,.053 .12,.079 .3755,.395 .5063,.9539 .6331,1.4682 .1102,.5601 .1692,1.1313 .374,1.667 .0499,.07 .0906,.1479 .1496,.2106 .4298,.457 1.1407,.7985 1.727,.9843 .2206,.07 .4479,.1166 .6718,.1749 .9481,.2366 1.8995,.2484 2.8425,-.011 .2087,-.057 .4184,-.1173 .6161,-.2054 .1842,-.082 .3491,-.2019 .5237,-.3029-.3631,.1874-.6996,.4397-1.0894,.5622-.1503,.047 .2339,-.2118 .3412,-.3272 .3164,-.3401 .4973,-.7183 .6246,-1.1582 .0873,-.3664 .0858,-.7428 .0757,-1.1166-.1021,-.7716-.7838,-.012 1.5762,-.9706 .043,-.018-.0252,.089-.0325,.1353-.0105,.067-.0137,.1342-.0206,.2013-.0335,.608-.0474,1.2173 .0202,1.823 .0688,.3897 .1433,.7878 .4487,1.0613 .2149,.1415 .443,.1511 .6803,.073 .5712,-.2882 1.4287,-.7883-1.1689,.6782-.0922,.052 .1782,-.1143 .2658,-.1737l1.729,-.6875c-.1338,.1099-.1095,.099-.2632,.1885-.5841,.3415-1.3074,.9119-2.0466,1.1199-.2885,.031-.5575,-.032-.7831,-.2236-.314,-.3274-.4165,-.7448-.4864,-1.185-.0743,-.6127-.0594,-1.2282-.0514,-1.8445 .002,-.082 .01,-.3683 .0155,-.3721 1.2231,-.8124 1.6186,-1.5813 1.7738,-.6732 .009,.3928 .009,.788-.0729,1.1745-.4026,1.604-1.4656,1.9694-2.9269,2.8345-.1797,.091-.3518,.1981-.539,.2718-1.1255,.4432-2.3519,.4076-3.5096,.1301-.2313,-.061-.4661,-.1105-.6938,-.184-.5824,-.188-1.4014,-.59-1.8309,-1.0418-.0707,-.074-.1217,-.1655-.1826,-.2482-.2042,-.5463-.263,-1.1251-.3681,-1.696-.1059,-.4424-.211,-.9895-.5766,-1.2965-.0863,.011-.0417,0-.1309,.047 .494,-.2932 .9881,-.5865 1.4821,-.8797 .0418,-.024-.0765,.059-.1115,.092-.088,.083-.1593,.1828-.2543,.2588-.3546,.4458-.6103,.9514-.9065,1.4362-.1113,.1906-.2033,.372-.2742,.581-.0144,.043 .002,.1065-.037,.1297-1.6718,1.0056-1.301,1.4123-1.7676,.8263-.1403,-.5915-.0684,-1.2195-.2051,-1.8138-.1337,-.8319-.2366,-1.7229-.6888,-2.4507-.0786,-.095-.1124,-.1812-.2373,-.2043-.0338,-.01-.1319,.028-.1027,.01 .4848,-.3029 .9881,-.5749 1.4781,-.8692 .044,-.026-.0961,.038-.1396,.065-.0513,.032-.0953,.075-.1429,.1121-.5512,.6573-.7174,1.5447-.9403,2.3499-.2511,1.1608-.4667,2.3381-.5021,3.5279-.5413,.3318-1.0717,.6821-1.624,.9953-.0304,.017 .0302,-.063 .04,-.097 .1011,-.3479 .0723,-.7161 .0723,-1.073-.0467,-.7985-.196,-1.5926-.501,-2.3352-.0582,-.1343-.1651,-.5237-.3687,-.5375-.0472,0-.1338,.034-.1714,.048-.6021,.2681-1.1868,.5757-1.8125,.79-2.2433,.8437-4.5057,1.6345-6.8063,2.3092-1.3354,.4418-2.6801,.8688-3.988,1.3886-.3765,.1496-.7211,.3958-1.1182,.4762-.2039,.041 .7012,-.4449 .5142,-.3538-.2728,.1328-.5155,.32-.7733,.48-.4814,.3865-1.0718,.7863-1.1859,1.4525-.1123,.6558 .3053,1.2621 .5878,1.8057 .1747,.2387 .3409,.4838 .524,.716 1.2506,1.586 2.7724,2.9468 4.3216,4.2314 .7601,.5675 1.5353,1.2021 2.4338,1.5462 .2074,.08 .4249,.1396 .6456,.1642 .1883,.021 .6695,-.1887 .5676,-.029-.2124,.3325-.6509,.446-.9763,.669 .1821,-.1272 .3749,-.2403 .5464,-.3815 .9528,-.7839 1.6207,-1.8661 1.9179,-3.062 .0903,-.3634 .1256,-.7382 .1884,-1.1073 .0181,-.3842 .0641,-.7681 .0543,-1.1526-.0495,-1.9411-.7079,-3.8142-1.3712,-5.6146-.5628,-1.3919-1.2476,-2.7639-1.4927,-4.2575-.008,-.3536 3.7e-4,-.6227 .086,-.9648 .005,-.019 .0997,-.3596 .142,-.3887 .5428,-.3739 1.1209,-.6937 1.6814,-1.0405 .0426,0 .0866,0 .1279,.01 .2648,.072 .3917,.4009 .5024,.6157 .2357,.5565 .268,1.0516-.0318,1.5983-.068,.097-.1268,.202-.2041,.2923-.5521,.6452-1.6564,1.098-2.2184,1.4107-.5375,.2991-1.1558,.4269-1.747,.5654-.2367,.036-.4715,.087-.7101,.1065-.852,.069-1.7224,-.083-2.4498,-.5408-.1044,-.083-.2169,-.1575-.3133,-.25-.4073,-.3914-.5345,-.8233-.3997,-1.3636 .2032,-.6461 .5218,-.9588 1.0648,-1.3565 1.0479,-.6191 1.9953,-1.302 3.1758,-1.5918l-1.4819,1.1332z" stroke="#000" stroke-linecap="round" stroke-linejoin="round" stroke-width=".2515"/>
<path d="m864.1735,1009.3587c.3537,-.172 .6913,-.3752 1.0561,-.5235 .2286,-.1485 .4794,-.217 .7469,-.2463 .246,-.019 .4931,-.016 .7396,-.015 .2447,-.026 .452,.041 .667,.1458 .1505,.1206 .2692,.2808 .3835,.4358 .0994,.1805 .1578,.383 .2189,.5797 .0548,.2016 .1295,.3942 .169,.6001 .038,.2418 .0406,.4871 .0436,.7313 10e-4,.1259 8.9e-4,.2518 8.9e-4,.3777l-1.662,.8466c1.3e-4,-.1253 3.8e-4,-.2505-1.3e-4,-.3758-.002,-.2343-.002,-.4696-.0316,-.7024-.0328,-.2008-.1062,-.3854-.1597,-.5802-.0519,-.177-.1078,-.3572-.1882,-.5221-.0978,-.1283-.193,-.2748-.3336,-.3578-.1975,-.086-.4034,-.091-.6168,-.082-.2413,0-.4842,-1e-4-.7231,.039-.2526,.054-.4803,.1622-.7103,.2776-.3579,.1664-.704,.3572-1.0509,.5451l1.4507,-1.1736z" stroke="#000" stroke-linecap="round" stroke-linejoin="round" stroke-width=".2515"/>
<path d="M47.8496,648.9002H299.0135A15.6552,15.6552 0 0 1 314.6687,664.5554V664.5554A15.6552,15.6552 0 0 1 299.0135,680.2106H47.8496A15.6552,15.6552 0 0 1 32.1944,664.5554V664.5554A15.6552,15.6552 0 0 1 47.8496,648.9002z" fill="#fff" stroke="#000" stroke-linecap="round" stroke-linejoin="round" stroke-width="4.5094" transform="matrix(1,-.00315,.00315,1,0,0)"/>
<path d="m101.5203,44.9288a36.8706,34.8503 0 1 1 -73.7411,0 36.8706,34.8503 0 1 1 73.7411,0z" stroke="#000" stroke-linecap="round" stroke-linejoin="round" stroke-width="7.491" transform="matrix(1.24255,-.00391,.00217,.68917,-23.88342,625.94806)"/>
<text font-family="Bitstream Vera Sans" font-size="40" transform="matrix(1,-.00315,.00315,1,0,0)" x="15.4507" y="671.7344">
   <tspan fill="#f9f9f9" x="15.4507" y="671.7344">188</tspan>
  </text>
<text font-family="Bitstream Vera Sans" font-size="20" transform="matrix(1,-.00315,.00315,1,0,0)" x="153.1472" y="670.9702">
   <tspan x="153.1472" y="670.9702">Spatial</tspan>
  </text>
<path d="m210.3571,349.8214c0,1.578-18.1485,2.8571-40.5357,2.8571-22.3873,0-40.5357,-1.2792-40.5357,-2.8571 0,-1.5779 18.1485,-2.8571 40.5357,-2.8571 22.3873,0 40.5357,1.2792 40.5357,2.8571z" stroke="#000" stroke-width="4" transform="matrix(-1.21804,0,0,1.21804,379.80573,534.70286)"/>
<g transform="matrix(-.92337,0,0,.92337,82.50829,615.25657)">
<path d="m-43.5297,288.8057 0,47.8884c0,20.007-16.1067,36.1137-36.1137,36.1137l-35.434,0c-20.007,0-36.1137,-16.1067-36.1137,-36.1137l0,-47.8884" fill="#fff" stroke="#000" stroke-linecap="round" stroke-linejoin="round" stroke-width="3.6422"/>
<path d="M-122.1431,308.6171H-98.6091A.7803,.7803 0 0 1 -97.8288,309.3974V319.4235A.7803,.7803 0 0 1 -98.6091,320.2038H-122.1431A.7803,.7803 0 0 1 -122.9234,319.4235V309.3974A.7803,.7803 0 0 1 -122.1431,308.6171z" stroke="#000" stroke-linecap="square" stroke-linejoin="round" stroke-width="3.7338"/>
<path d="M-80.7522,308.6171H-60.3393A2.3409,2.3409 0 0 1 -57.9985,310.958V317.8629A2.3409,2.3409 0 0 1 -60.3393,320.2038H-80.7522A2.3409,2.3409 0 0 1 -83.093,317.8629V310.958A2.3409,2.3409 0 0 1 -80.7522,308.6171z" stroke="#000" stroke-linecap="square" stroke-linejoin="round" stroke-width="3.7338"/>
<path d="m-148.8829,313.6717c.5492,.0105 1.0986,.007 1.6478,.004 .363,-.002 .7259,-.004 1.0889,-.004 .2925,-4.3e-4 .585,-4e-4 .8775,-4e-4 .304,-6.3e-4 .6081,6e-4 .9121,10e-4 .3906,-.01 .7752,-3.7e-4 1.162,.0507 .3996,.0545 .8031,.0717 1.2062,.0827 .4052,-.0158 .8029,.0589 1.204,.099 .4079,.0368 .818,.0407 1.2274,.045 .4301,.002 .8603,.002 1.2904,6.5e-4 .3736,-7.6e-4 .7472,-10e-4 1.1208,-.002 .307,-7.7e-4 .6141,-9.8e-4 .9211,-10e-4 .2915,-8e-5 .583,-7e-5 .8745,-6e-5 .2915,1e-5 .5831,1e-5 .8746,1e-5 .3187,-3.9e-4 .6374,5.3e-4 .9561,.002 .3943,.002 .7885,4.4e-4 1.1828,-6.3e-4 .3709,-2.7e-4 .7418,4.7e-4 1.1126,10e-4 .3967,-1.7e-4 .7934,-8e-5 1.1902,-10e-4 .38,1.9e-4 .7599,7.4e-4 1.1399,1.6e-4 .3456,-.001 .6912,-.002 1.0367,2.5e-4 .5332,.003 1.0664,.004 1.5996,.006 .7266,.003 1.4533,.003 2.1799,.001 .5332,-.001 1.0664,-.005 1.5997,-.005 .4413,6.5e-4 .8826,-2e-5 1.3239,-.002 .0611,-2e-4 .1222,-4e-4 .1833,-6e-4l-1.746,1.1993c-.0605,-2.1e-4-.121,-4.1e-4-.1815,-6.1e-4-.4399,-.002-.8797,-.002-1.3196,-.002-.528,-2.2e-4-1.0559,-.004-1.5839,-.005-.7276,-.002-1.4552,-.002-2.1828,9.9e-4-.5391,.002-1.0782,.003-1.6173,.006-.3458,.002-.6916,.002-1.0375,2.6e-4-.3801,-5.7e-4-.7602,-3e-5-1.1404,1.5e-4-.3957,-9.9e-4-.7914,-8.9e-4-1.187,-.001-.3723,.001-.7447,.002-1.117,.002-.3937,-10e-4-.7873,-.003-1.181,-6.3e-4-.3206,.001-.6411,.002-.9617,.002-.2915,0-.5831,0-.8747,0-.2914,0-.5829,2e-5-.8743,-6e-5-.306,-1.3e-4-.612,-3.5e-4-.918,-9.6e-4-.372,-6.9e-4-.744,-8.4e-4-1.1161,-8.8e-4-.4302,-8.3e-4-.8603,7e-4-1.2904,-.004-.4148,-.006-.8303,-.0145-1.2428,-.0595-.3968,-.0446-.792,-.0972-1.193,-.0869-.4078,-.0152-.8149,-.0435-1.2193,-.0968-.382,-.0404-.7654,-.0292-1.1493,-.0278-.3051,5.6e-4-.6103,.002-.9155,.001-.2921,10e-6-.5842,3e-5-.8763,-4e-4-.3589,-6.7e-4-.7177,-.002-1.0765,-.004-.5532,-.003-1.1065,-.006-1.6597,.004l1.7494,-1.2016z" stroke="#000" stroke-linecap="square" stroke-linejoin="round" stroke-width=".4767"/>
<path d="m-57.3881,313.9484c.7039,.0118 1.4079,.0102 2.1119,.01 .6452,-8.9e-4 1.2905,-.003 1.9357,-.006 .4312,-.002 .8624,-.002 1.2935,-.003 .3398,-8.1e-4 .6796,-.002 1.0194,-.002 .2968,.0217 .5821,-.0575 .8738,-.0956 .2926,-.0341 .5877,-.039 .8821,-.0425 .2922,-.002 .5843,-10e-4 .8765,-8.4e-4 .2918,4e-4 .5836,5.3e-4 .8754,6.1e-4 .2918,5e-5 .5836,5e-5 .8754,5e-5 .2918,0 .5836,0 .8754,0 .3133,-6.1e-4 .6266,10e-4 .9398,10e-4 .3172,-2.5e-4 .6345,-6.9e-4 .9517,-9.3e-4 .2938,-1.8e-4 .5877,-2e-4 .8815,-2.1e-4 .1943,-1e-5 .0972,-1e-5 .2915,-1e-5l-1.7509,1.2027c-.1943,0-.0971,0-.2914,0-.2936,-2e-5-.5872,-4e-5-.8808,-2.2e-4-.3164,-2.3e-4-.6327,-6.8e-4-.9491,-9.3e-4-.3144,4e-5-.6287,.002-.9431,10e-4-.2918,1e-5-.5836,1e-5-.8754,1e-5-.2918,-1e-5-.5836,-1e-5-.8754,-1.2e-4-.2918,-1.3e-4-.5837,-3.7e-4-.8755,-7.2e-4-.2913,-2.3e-4-.5826,-10e-4-.8738,.004-.2893,.007-.5791,.0195-.8653,.0636-.2961,.0453-.5905,.0907-.8921,.0705-.3377,-4.3e-4-.6755,-10e-4-1.0132,-.002-.4283,-5.4e-4-.8565,-6.3e-4-1.2848,-.003-.6398,-.003-1.2796,-.005-1.9195,-.006-.7134,-4.8e-4-1.4269,-.002-2.1402,.01l1.747,-1.2z" stroke="#000" stroke-linecap="square" stroke-linejoin="round" stroke-width=".4767"/>
<path d="m-97.681,314.1116c.5339,.0676 1.0726,.0889 1.6105,.1048 .4801,.0116 .9604,.0116 1.4405,.0103 .3964,-5e-4 .7929,-6.3e-4 1.1893,-.002 .7958,.0205 1.592,.0104 2.3879,.007 .4809,-.004 .9619,-.005 1.4428,-.007 .3835,3e-5 .767,-4.2e-4 1.1506,6e-4 .4032,.001 .8064,-9.5e-4 1.2096,-3.1e-4 .3638,-8.6e-4 .7277,-7.6e-4 1.0915,-6.6e-4 .3644,5.6e-4 .7288,2.2e-4 1.0931,-5.1e-4 .3481,.001 .6961,1.1e-4 1.0442,-4.5e-4 .3406,.001 .6811,4.5e-4 1.0217,-4e-5 .3008,-4.3e-4 .6016,-5.6e-4 .9024,-6.3e-4 .2516,.0585 .5047,.1006 .7628,.1209 .2799,.0172 .5606,.0173 .8409,.018 .2917,1.9e-4 .5833,-3.9e-4 .875,-6.8e-4 .146,-1.4e-4 .292,-2e-4 .4381,-2.6e-4l-1.7508,1.2027c-.146,10e-5-.292,1.9e-4-.438,3.5e-4-.292,3.2e-4-.584,.001-.876,-3.9e-4-.2852,-.002-.5709,-.005-.8549,-.0331-.2506,-.0294-.496,-.0897-.7478,-.105-.3002,-8e-5-.6004,-2e-4-.9006,-6.3e-4-.3405,-4.8e-4-.681,-.001-1.0215,-5e-5-.3476,-5.5e-4-.6953,-.002-1.0429,-4.4e-4-.3639,-7.3e-4-.7278,-10e-4-1.0916,-5.1e-4-.3632,1.1e-4-.7264,1.9e-4-1.0895,-6.6e-4-.4029,6.4e-4-.8058,-.002-1.2087,-3.1e-4-.3841,.001-.7682,5.8e-4-1.1523,6e-4-.4742,-.002-.9483,-.003-1.4224,-.007-.8027,-.004-1.6058,-.0132-2.4083,.007-.3958,-4.3e-4-.7915,4.6e-4-1.1873,-3.6e-4-.4785,-.003-.957,-.007-1.4353,-.0226-.5477,-.0212-1.0947,-.0538-1.64,-.107l1.7673,-1.1825z" stroke="#000" stroke-linecap="square" stroke-linejoin="round" stroke-width=".4767"/>
<path d="m-136.1855,276.2983 0,18.5432" fill="none" stroke="#000" stroke-linecap="round" stroke-width="4.8046"/>
<path d="m-126.6615,274.544 0,18.5432" fill="none" stroke="#000" stroke-linecap="round" stroke-width="4.8046"/>
<path d="m-117.7245,276.0083 0,18.5432" fill="none" stroke="#000" stroke-linecap="round" stroke-width="4.8046"/>
<path d="m-106.0478,274.841 0,18.5432" fill="none" stroke="#000" stroke-linecap="round" stroke-width="4.8046"/>
<path d="m-95.8892,277.0276 0,18.5432" fill="none" stroke="#000" stroke-linecap="round" stroke-width="4.8046"/>
<path d="m-84.2599,276.8522 0,18.5432" fill="none" stroke="#000" stroke-linecap="round" stroke-width="4.8046"/>
<path d="m-73.7574,275.1381 0,18.5432" fill="none" stroke="#000" stroke-linecap="round" stroke-width="4.8046"/>
<path d="m-63.8419,278.175 0,18.5432" fill="none" stroke="#000" stroke-linecap="round" stroke-width="4.8046"/>
<path d="m-53.169,277.8063 0,18.5432" fill="none" stroke="#000" stroke-linecap="round" stroke-width="4.8046"/>
<path d="m-105.8017,352.8807 27.1229,-4.4282" fill="none" stroke="#000" stroke-width=".7749"/>
<path d="m-144.0697,281.0285 0,18.5432" fill="none" stroke="#000" stroke-linecap="round" stroke-width="4.8046"/>
</g>
<path d="m580.2702,677.7355 0,303.442 0,10.4485" fill="none" stroke="#000" stroke-width="5.6784"/>
<path d="m210.3571,349.8214c0,1.578-18.1485,2.8571-40.5357,2.8571-22.3873,0-40.5357,-1.2792-40.5357,-2.8571 0,-1.5779 18.1485,-2.8571 40.5357,-2.8571 22.3873,0 40.5357,1.2792 40.5357,2.8571z" stroke="#000" stroke-width="4" transform="matrix(-1.21804,0,0,1.21804,651.19777,535.43571)"/>
<g transform="matrix(-.92337,0,0,.92337,353.90033,615.98942)">
<path d="m-43.5297,288.8057 0,47.8884c0,20.007-16.1067,36.1137-36.1137,36.1137l-35.434,0c-20.007,0-36.1137,-16.1067-36.1137,-36.1137l0,-47.8884" fill="#fff" stroke="#000" stroke-linecap="round" stroke-linejoin="round" stroke-width="3.6422"/>
<path d="M-122.1431,308.6171H-98.6091A.7803,.7803 0 0 1 -97.8288,309.3974V319.4235A.7803,.7803 0 0 1 -98.6091,320.2038H-122.1431A.7803,.7803 0 0 1 -122.9234,319.4235V309.3974A.7803,.7803 0 0 1 -122.1431,308.6171z" stroke="#000" stroke-linecap="square" stroke-linejoin="round" stroke-width="3.7338"/>
<path d="M-80.7522,308.6171H-60.3393A2.3409,2.3409 0 0 1 -57.9985,310.958V317.8629A2.3409,2.3409 0 0 1 -60.3393,320.2038H-80.7522A2.3409,2.3409 0 0 1 -83.093,317.8629V310.958A2.3409,2.3409 0 0 1 -80.7522,308.6171z" stroke="#000" stroke-linecap="square" stroke-linejoin="round" stroke-width="3.7338"/>
<path d="m-148.8829,313.6717c.5492,.0105 1.0986,.007 1.6478,.004 .363,-.002 .7259,-.004 1.0889,-.004 .2925,-4.3e-4 .585,-4e-4 .8775,-4e-4 .304,-6.3e-4 .6081,6e-4 .9121,10e-4 .3906,-.01 .7752,-3.7e-4 1.162,.0507 .3996,.0545 .8031,.0717 1.2062,.0827 .4052,-.0158 .8029,.0589 1.204,.099 .4079,.0368 .818,.0407 1.2274,.045 .4301,.002 .8603,.002 1.2904,6.5e-4 .3736,-7.6e-4 .7472,-10e-4 1.1208,-.002 .307,-7.7e-4 .6141,-9.8e-4 .9211,-10e-4 .2915,-8e-5 .583,-7e-5 .8745,-6e-5 .2915,1e-5 .5831,1e-5 .8746,1e-5 .3187,-3.9e-4 .6374,5.3e-4 .9561,.002 .3943,.002 .7885,4.4e-4 1.1828,-6.3e-4 .3709,-2.7e-4 .7418,4.7e-4 1.1126,10e-4 .3967,-1.7e-4 .7934,-8e-5 1.1902,-10e-4 .38,1.9e-4 .7599,7.4e-4 1.1399,1.6e-4 .3456,-.001 .6912,-.002 1.0367,2.5e-4 .5332,.003 1.0664,.004 1.5996,.006 .7266,.003 1.4533,.003 2.1799,.001 .5332,-.001 1.0664,-.005 1.5997,-.005 .4413,6.5e-4 .8826,-2e-5 1.3239,-.002 .0611,-2e-4 .1222,-4e-4 .1833,-6e-4l-1.746,1.1993c-.0605,-2.1e-4-.121,-4.1e-4-.1815,-6.1e-4-.4399,-.002-.8797,-.002-1.3196,-.002-.528,-2.2e-4-1.0559,-.004-1.5839,-.005-.7276,-.002-1.4552,-.002-2.1828,9.9e-4-.5391,.002-1.0782,.003-1.6173,.006-.3458,.002-.6916,.002-1.0375,2.6e-4-.3801,-5.7e-4-.7602,-3e-5-1.1404,1.5e-4-.3957,-9.9e-4-.7914,-8.9e-4-1.187,-.001-.3723,.001-.7447,.002-1.117,.002-.3937,-10e-4-.7873,-.003-1.181,-6.3e-4-.3206,.001-.6411,.002-.9617,.002-.2915,0-.5831,0-.8747,0-.2914,0-.5829,2e-5-.8743,-6e-5-.306,-1.3e-4-.612,-3.5e-4-.918,-9.6e-4-.372,-6.9e-4-.744,-8.4e-4-1.1161,-8.8e-4-.4302,-8.3e-4-.8603,7e-4-1.2904,-.004-.4148,-.006-.8303,-.0145-1.2428,-.0595-.3968,-.0446-.792,-.0972-1.193,-.0869-.4078,-.0152-.8149,-.0435-1.2193,-.0968-.382,-.0404-.7654,-.0292-1.1493,-.0278-.3051,5.6e-4-.6103,.002-.9155,.001-.2921,10e-6-.5842,3e-5-.8763,-4e-4-.3589,-6.7e-4-.7177,-.002-1.0765,-.004-.5532,-.003-1.1065,-.006-1.6597,.004l1.7494,-1.2016z" stroke="#000" stroke-linecap="square" stroke-linejoin="round" stroke-width=".4767"/>
<path d="m-57.3881,313.9484c.7039,.0118 1.4079,.0102 2.1119,.01 .6452,-8.9e-4 1.2905,-.003 1.9357,-.006 .4312,-.002 .8624,-.002 1.2935,-.003 .3398,-8.1e-4 .6796,-.002 1.0194,-.002 .2968,.0217 .5821,-.0575 .8738,-.0956 .2926,-.0341 .5877,-.039 .8821,-.0425 .2922,-.002 .5843,-10e-4 .8765,-8.4e-4 .2918,4e-4 .5836,5.3e-4 .8754,6.1e-4 .2918,5e-5 .5836,5e-5 .8754,5e-5 .2918,0 .5836,0 .8754,0 .3133,-6.1e-4 .6266,10e-4 .9398,10e-4 .3172,-2.5e-4 .6345,-6.9e-4 .9517,-9.3e-4 .2938,-1.8e-4 .5877,-2e-4 .8815,-2.1e-4 .1943,-1e-5 .0972,-1e-5 .2915,-1e-5l-1.7509,1.2027c-.1943,0-.0971,0-.2914,0-.2936,-2e-5-.5872,-4e-5-.8808,-2.2e-4-.3164,-2.3e-4-.6327,-6.8e-4-.9491,-9.3e-4-.3144,4e-5-.6287,.002-.9431,10e-4-.2918,1e-5-.5836,1e-5-.8754,1e-5-.2918,-1e-5-.5836,-1e-5-.8754,-1.2e-4-.2918,-1.3e-4-.5837,-3.7e-4-.8755,-7.2e-4-.2913,-2.3e-4-.5826,-10e-4-.8738,.004-.2893,.007-.5791,.0195-.8653,.0636-.2961,.0453-.5905,.0907-.8921,.0705-.3377,-4.3e-4-.6755,-10e-4-1.0132,-.002-.4283,-5.4e-4-.8565,-6.3e-4-1.2848,-.003-.6398,-.003-1.2796,-.005-1.9195,-.006-.7134,-4.8e-4-1.4269,-.002-2.1402,.01l1.747,-1.2z" stroke="#000" stroke-linecap="square" stroke-linejoin="round" stroke-width=".4767"/>
<path d="m-97.681,314.1116c.5339,.0676 1.0726,.0889 1.6105,.1048 .4801,.0116 .9604,.0116 1.4405,.0103 .3964,-5e-4 .7929,-6.3e-4 1.1893,-.002 .7958,.0205 1.592,.0104 2.3879,.007 .4809,-.004 .9619,-.005 1.4428,-.007 .3835,3e-5 .767,-4.2e-4 1.1506,6e-4 .4032,.001 .8064,-9.5e-4 1.2096,-3.1e-4 .3638,-8.6e-4 .7277,-7.6e-4 1.0915,-6.6e-4 .3644,5.6e-4 .7288,2.2e-4 1.0931,-5.1e-4 .3481,.001 .6961,1.1e-4 1.0442,-4.5e-4 .3406,.001 .6811,4.5e-4 1.0217,-4e-5 .3008,-4.3e-4 .6016,-5.6e-4 .9024,-6.3e-4 .2516,.0585 .5047,.1006 .7628,.1209 .2799,.0172 .5606,.0173 .8409,.018 .2917,1.9e-4 .5833,-3.9e-4 .875,-6.8e-4 .146,-1.4e-4 .292,-2e-4 .4381,-2.6e-4l-1.7508,1.2027c-.146,10e-5-.292,1.9e-4-.438,3.5e-4-.292,3.2e-4-.584,.001-.876,-3.9e-4-.2852,-.002-.5709,-.005-.8549,-.0331-.2506,-.0294-.496,-.0897-.7478,-.105-.3002,-8e-5-.6004,-2e-4-.9006,-6.3e-4-.3405,-4.8e-4-.681,-.001-1.0215,-5e-5-.3476,-5.5e-4-.6953,-.002-1.0429,-4.4e-4-.3639,-7.3e-4-.7278,-10e-4-1.0916,-5.1e-4-.3632,1.1e-4-.7264,1.9e-4-1.0895,-6.6e-4-.4029,6.4e-4-.8058,-.002-1.2087,-3.1e-4-.3841,.001-.7682,5.8e-4-1.1523,6e-4-.4742,-.002-.9483,-.003-1.4224,-.007-.8027,-.004-1.6058,-.0132-2.4083,.007-.3958,-4.3e-4-.7915,4.6e-4-1.1873,-3.6e-4-.4785,-.003-.957,-.007-1.4353,-.0226-.5477,-.0212-1.0947,-.0538-1.64,-.107l1.7673,-1.1825z" stroke="#000" stroke-linecap="square" stroke-linejoin="round" stroke-width=".4767"/>
<path d="m-136.1855,276.2983 0,18.5432" fill="none" stroke="#000" stroke-linecap="round" stroke-width="4.8046"/>
<path d="m-126.6615,274.544 0,18.5432" fill="none" stroke="#000" stroke-linecap="round" stroke-width="4.8046"/>
<path d="m-117.7245,276.0083 0,18.5432" fill="none" stroke="#000" stroke-linecap="round" stroke-width="4.8046"/>
<path d="m-106.0478,274.841 0,18.5432" fill="none" stroke="#000" stroke-linecap="round" stroke-width="4.8046"/>
<path d="m-95.8892,277.0276 0,18.5432" fill="none" stroke="#000" stroke-linecap="round" stroke-width="4.8046"/>
<path d="m-84.2599,276.8522 0,18.5432" fill="none" stroke="#000" stroke-linecap="round" stroke-width="4.8046"/>
<path d="m-73.7574,275.1381 0,18.5432" fill="none" stroke="#000" stroke-linecap="round" stroke-width="4.8046"/>
<path d="m-63.8419,278.175 0,18.5432" fill="none" stroke="#000" stroke-linecap="round" stroke-width="4.8046"/>
<path d="m-53.169,277.8063 0,18.5432" fill="none" stroke="#000" stroke-linecap="round" stroke-width="4.8046"/>
<path d="m-105.8017,352.8807 27.1229,-4.4282" fill="none" stroke="#000" stroke-width=".7749"/>
<path d="m-144.0697,281.0285 0,18.5432" fill="none" stroke="#000" stroke-linecap="round" stroke-width="4.8046"/>
</g>
<text font-family="Sans" font-size="20" letter-spacing="0" line-height="562.5" word-spacing="0" x="383.5714" y="800.9336">
   <tspan x="383.5714" y="800.9336">Hmm ?</tspan>
  </text>
<text font-family="Sans" font-size="20" letter-spacing="0" line-height="562.5" word-spacing="0" x="164.1727" y="733.7907">
   <tspan text-align="center" text-anchor="middle" x="164.1727" y="733.7907">Hey tu te souviens quand</tspan>
   <tspan text-align="center" text-anchor="middle" x="164.1727" y="758.7907">on disait pour rire que</tspan>
   <tspan text-align="center" text-anchor="middle" x="164.1727" y="783.7907">t'avais créé la vie dans</tspan>
   <tspan text-align="center" text-anchor="middle" x="164.1727" y="808.7907">ton évier, comme</tspan>
   <tspan text-align="center" text-anchor="middle" x="164.1727" y="833.7907">dans Spore ?</tspan>
  </text>
<path d="m31.4286,828.0765 35,-14.2857" fill="none" stroke="#000"/>
<path d="m421.4286,213.5714 14.2857,42.1429" fill="none" stroke="#000" transform="translate(0,602.3622)"/>
<path d="m154.2857,169.6429a61.4286,8.2143 0 1 1 -122.8571,0 61.4286,8.2143 0 1 1 122.8571,0z" stroke="#000" transform="matrix(-.70976,0,0,.70976,725.19287,837.29715)"/>
<path d="m668.8073,876.2709-22.9244,0c-3.726,20.038-21.3497,15.1611-23.5187,23.5187l3.9433,36.5256c7.7759,13.6774 17.7251,22.3591 27.462,22.0848l6.0758,0c9.8484,-.5302 24.9224,-12.3466 27.462,-24.9527l5.0187,-33.6578c-1.5317,-5.8083-15.2786,-.9405-23.5187,-23.5187z" fill="#fff" stroke="#000" stroke-linecap="round" stroke-linejoin="round" stroke-width="2.5849"/>
<path d="m682.5352,905.9254c-1.0713,-.3119-2.1342,-.6071-3.2365,-.7793-1.1227,-.2361-2.2543,-.3887-3.39,-.5441-.8924,-.1572-1.7734,-.3267-2.6723,-.4368-1.3097,-.1906-2.6439,-.273-3.9676,-.3029-.6649,-.0493-1.3213,-.0286-1.9848,.0167l3.4245,4.065c.6404,-.0434 1.2788,-.0384 1.9202,-.0127 1.3185,.0503 2.642,.1245 3.9427,.3558 .8924,.1236 1.7708,.3273 2.6664,.4309 1.1327,.1449 2.2538,.3422 3.3755,.5555 1.091,.1961 2.1497,.518 3.2095,.8397l-3.2877,-4.1868z" stroke="#000" stroke-linecap="round" stroke-linejoin="round" stroke-width="1.4195"/>
<path d="m648.0999,907.0294c1.0245,-.4419 2.0426,-.8665 3.1153,-1.1737 1.0848,-.3732 2.1889,-.6646 3.2966,-.9593 .8661,-.2665 1.7194,-.5436 2.5978,-.764 1.276,-.3512 2.5898,-.598 3.8996,-.7914 .6536,-.1314 1.3077,-.1914 1.9716,-.2292l-2.8953,4.4573c-.6408,.0365-1.2736,.1205-1.9071,.2244-1.3021,.213-2.6063,.4503-3.8685,.8408-.8702,.2331-1.7167,.5438-2.5926,.7576-1.106,.2838-2.1942,.6182-3.2809,.9686-1.0583,.3295-2.0691,.7799-3.081,1.2302l2.7446,-4.5613z" stroke="#000" stroke-linecap="round" stroke-linejoin="round" stroke-width="1.4195"/>
<path d="m538.4195,257.9523c0,3.0469-2.4032,5.5169-5.3678,5.5169-2.9646,0-5.3678,-2.47-5.3678,-5.5169 0,-3.0469 2.4032,-5.5169 5.3678,-5.5169 2.9646,0 5.3678,2.47 5.3678,5.5169z" fill="#fff" stroke="#000" stroke-linecap="round" stroke-linejoin="round" stroke-width="2" transform="matrix(-.70976,0,0,.70976,1034.55221,736.43699)"/>
<path d="m555.2684,260.4871c0,.9058-.4005,1.6402-.8946,1.6402-.4941,0-.8946,-.7343-.8946,-1.6402 0,-.9058 .4005,-1.6402 .8946,-1.6402 .4941,0 .8946,.7343 .8946,1.6402z" fill="#fff" stroke="#000" stroke-linecap="round" stroke-linejoin="round" stroke-width="2" transform="matrix(-.70976,0,0,.70976,1051.34264,734.61224)"/>
<g transform="matrix(-.70976,0,0,.70976,1050.89365,735.90786)">
<path d="m538.4195,257.9523c0,3.0469-2.4032,5.5169-5.3678,5.5169-2.9646,0-5.3678,-2.47-5.3678,-5.5169 0,-3.0469 2.4032,-5.5169 5.3678,-5.5169 2.9646,0 5.3678,2.47 5.3678,5.5169z" fill="#fff" stroke="#000" stroke-linecap="round" stroke-linejoin="round" stroke-width="2"/>
<path d="m555.2684,260.4871c0,.9058-.4005,1.6402-.8946,1.6402-.4941,0-.8946,-.7343-.8946,-1.6402 0,-.9058 .4005,-1.6402 .8946,-1.6402 .4941,0 .8946,.7343 .8946,1.6402z" fill="#fff" stroke="#000" stroke-linecap="round" stroke-linejoin="round" stroke-width="2" transform="translate(-23.6822,-2.4475)"/>
</g>
<path d="m666.4538,883.0436 4.9788,1.7426c3.5261,4.8131 6.2575,9.9464 18.1728,13.1939 .6399,13.1099 5.0823,14.0221 8.9619,15.1855 3.8317,-1.5892 4.2557,-7.6143 5.9746,-11.9492 7.1969,-10.8337 5.8631,-19.5696-1.2447,-26.8858 .6237,-.9716 .2091,.1257 .3646,-2.0166-.4528,-.0802-2.9596,-1.8034-5.7257,-3.7341-1.5501,.5463-1.2177,-.169-1.6093,1.7676 .2964,-1.8944-.6572,-3.2887-1.4936,-4.7299-1.089,-1.1351-3.2825,-2.4543-5.7684,-3.8222 .5789,-1.7109-.7095,-3.1551-1.6999,-4.6419-3.8794,-2.8656-7.5544,-3.6765-11.2024,-3.9831-5.8717,-2.6446-10.8023,-3.6402-12.945,.2489-2.0546,-.2738-3.4216,-1.4072-7.2193,.4979-8.1788,-2.155-9.3797,3.871-10.9535,9.4598-1.5584,1.0343-3.3444,.8448-4.6721,.264-6.2493,-2.5665-8.2139,2.9795-12.7539,7.9511-8.371,-4.7301-7.3559,8.0322-10.9535,12.1982-6.3642,-4.5585-8.752,29.5348 2.0947,29.8429 .5375,3.7061 1.5712,4.9315 2.5623,6.3694 3.493,2.4263 3.8332,1.8694 5.6804,2.7384 1.0765,-.2486-1.7377,-7.1163-1.8733,-10.0733 2.5716,-4.8961 2.695,-10.6083 2.4894,-16.4302l2.4894,-1.4937c6.7954,4.5999 9.508,-3.8783 14.1897,-5.9746 2.0387,1.0635 3.9211,.2519 5.7257,-1.4937 12.1435,4.9299 14.411,.0408 16.4302,-4.232z" stroke="#000" stroke-width="0"/>
<path d="M765.5934,884.6027H859.243V940.6635H765.5934z" fill="#fff" stroke="#000" stroke-width="2"/>
<path d="m722.635,864.3048 42.0994,20.6201 0,56.0609-42.0994,-20.6201z" fill="#fff" stroke="#000" stroke-linejoin="bevel" stroke-width="2"/>
<path d="M-1002.8565,1944.7443H-934.5524V1973.6524H-1002.8565z" fill="#fff" stroke="#000" stroke-linejoin="bevel" stroke-width="2.9954" transform="matrix(1,0,.89513,.44581,0,0)"/>
<path d="m806.1017,264.8895 0,12.9426" fill="none" stroke="#000" stroke-width="2" transform="translate(0,602.3622)"/>
<path d="m817.1353,866.8115 42.3606,0 0,12.8876-16.4843,0z" fill="#fff" stroke="#000" stroke-linejoin="bevel" stroke-width="2"/>
<path d="m663.1652,339.8934a4.1669,2.2728 0 1 1 -8.3338,0 4.1669,2.2728 0 1 1 8.3338,0z" stroke="#000" stroke-linejoin="bevel" stroke-width="2" transform="translate(-5.5558,601.0995)"/>
<text font-family="Bitstream Vera Sans" font-size="20" x="342.9031" y="-126.0422">
   <tspan text-align="center" text-anchor="middle" x="342.9031" y="-126.0422"></tspan>
  </text>
<text font-family="Bitstream Vera Sans" font-size="40" x="973.212" y="-74.1294">
   <tspan x="973.212" y="-74.1294"></tspan>
  </text>
<text font-family="Bitstream Vera Sans" font-size="20" x="418.9746" y="-150.328">
   <tspan text-align="center" text-anchor="middle" x="418.9746" y="-150.328"></tspan>
  </text>
<text font-family="Bitstream Vera Sans" font-size="40" x="1049.2834" y="-98.4151">
   <tspan x="1049.2834" y="-98.4151"></tspan>
  </text>
<text font-family="Bitstream Vera Sans" font-size="20" x="440.4031" y="-80.6851">
   <tspan text-align="center" text-anchor="middle" x="440.4031" y="-80.6851"></tspan>
  </text>
<text font-family="Bitstream Vera Sans" font-size="40" x="1070.712" y="-28.7722">
   <tspan x="1070.712" y="-28.7722"></tspan>
  </text>
<text font-family="Bitstream Vera Sans" font-size="20" x="284.2207" y="670.0218">
   <tspan text-align="center" text-anchor="middle" x="284.2207" y="670.0218"></tspan>
  </text>
<text font-family="Bitstream Vera Sans" font-size="20" x="844.9759" y="208.0734">
   <tspan text-align="center" text-anchor="middle" x="844.9759" y="208.0734"></tspan>
  </text>
<text font-family="Bitstream Vera Sans" font-size="20" x="613.8152" y="391.2206">
   <tspan x="613.8152" y="391.2206"></tspan>
  </text>
<text font-family="Bitstream Vera Sans" font-size="20" x="1564.0341" y="379.1198">
   <tspan text-align="center" text-anchor="middle" x="1564.0341" y="379.1198"></tspan>
  </text>
<text font-family="Bitstream Vera Sans" font-size="20" x="2316.823" y="-34.9315">
   <tspan text-align="center" text-anchor="middle" x="2316.823" y="-34.9315"></tspan>
  </text>
<text font-family="Bitstream Vera Sans" font-size="20" x="2085.6621" y="148.2158">
   <tspan x="2085.6621" y="148.2158"></tspan>
  </text>
<text font-family="Bitstream Vera Sans" font-size="20" x="1465.7717" y="488.8908">
   <tspan x="1465.7717" y="488.8908"></tspan>
  </text>
<text font-family="Bitstream Vera Sans" font-size="20" x="1456.4082" y=".4855">
   <tspan text-align="center" text-anchor="middle" x="1456.4082" y=".4855"></tspan>
  </text>
<text font-family="Bitstream Vera Sans" font-size="20" x="2017.1631" y="-461.4632">
   <tspan text-align="center" text-anchor="middle" x="2017.1631" y="-461.4632"></tspan>
  </text>
<text font-family="Bitstream Vera Sans" font-size="20" x="1786.0032" y="-278.3152">
   <tspan x="1786.0032" y="-278.3152"></tspan>
  </text>
<text font-family="Bitstream Vera Sans" font-size="20" x="1254.1165" y="-163.7815">
   <tspan text-align="center" text-anchor="middle" x="1254.1165" y="-163.7815"></tspan>
  </text>
<text font-family="Bitstream Vera Sans" font-size="40" x="1884.4257" y="-111.8684">
   <tspan x="1884.4257" y="-111.8684"></tspan>
  </text>
<text font-family="Bitstream Vera Sans" font-size="20" x="343.2905" y="-123.3809">
   <tspan text-align="center" text-anchor="middle" x="343.2905" y="-123.3809"></tspan>
  </text>
<text font-family="Bitstream Vera Sans" font-size="40" x="973.5994" y="-71.468">
   <tspan x="973.5994" y="-71.468"></tspan>
  </text>
<text font-family="Bitstream Vera Sans" font-size="20" x="419.3619" y="-147.6666">
   <tspan text-align="center" text-anchor="middle" x="419.3619" y="-147.6666"></tspan>
  </text>
<text font-family="Bitstream Vera Sans" font-size="40" x="1049.6708" y="-95.7537">
   <tspan x="1049.6708" y="-95.7537"></tspan>
  </text>
<text font-family="Bitstream Vera Sans" font-size="20" x="378.4457" y="532.0206">
   <tspan text-align="center" text-anchor="middle" x="378.4457" y="532.0206"></tspan>
  </text>
<text font-family="Bitstream Vera Sans" font-size="20" x="1131.2346" y="117.9693">
   <tspan text-align="center" text-anchor="middle" x="1131.2346" y="117.9693"></tspan>
  </text>
<text font-family="Bitstream Vera Sans" font-size="20" x="900.0736" y="301.1166">
   <tspan x="900.0736" y="301.1166"></tspan>
  </text>
<text font-family="Bitstream Vera Sans" font-size="20" x="280.1834" y="641.7916">
   <tspan x="280.1834" y="641.7916"></tspan>
  </text>
<text font-family="Bitstream Vera Sans" font-size="20" x="270.8198" y="153.3863">
   <tspan text-align="center" text-anchor="middle" x="270.8198" y="153.3863"></tspan>
  </text>
<text font-family="Bitstream Vera Sans" font-size="20" x="831.5746" y="-308.5624">
   <tspan text-align="center" text-anchor="middle" x="831.5746" y="-308.5624"></tspan>
  </text>
<text font-family="Bitstream Vera Sans" font-size="20" x="600.4147" y="-125.4144">
   <tspan x="600.4147" y="-125.4144"></tspan>
  </text>
<text font-family="Bitstream Vera Sans" font-size="20" x="582.0729" y="538.7696">
   <tspan text-align="center" text-anchor="middle" x="582.0729" y="538.7696"></tspan>
  </text>
<text font-family="Bitstream Vera Sans" font-size="20" x="1334.8619" y="124.7184">
   <tspan text-align="center" text-anchor="middle" x="1334.8619" y="124.7184"></tspan>
  </text>
<text font-family="Bitstream Vera Sans" font-size="20" x="1103.7009" y="307.8657">
   <tspan x="1103.7009" y="307.8657"></tspan>
  </text>
<text font-family="Bitstream Vera Sans" font-size="20" x="483.8107" y="648.5407">
   <tspan x="483.8107" y="648.5407"></tspan>
  </text>
<text font-family="Bitstream Vera Sans" font-size="20" x="474.4472" y="160.1354">
   <tspan text-align="center" text-anchor="middle" x="474.4472" y="160.1354"></tspan>
  </text>
<text font-family="Bitstream Vera Sans" font-size="20" x="1035.2019" y="-301.8133">
   <tspan text-align="center" text-anchor="middle" x="1035.2019" y="-301.8133"></tspan>
  </text>
<text font-family="Bitstream Vera Sans" font-size="20" x="804.042" y="-118.6653">
   <tspan x="804.042" y="-118.6653"></tspan>
  </text>
<path d="m-379.6875,160.1562c0,4.3147-29.7311,7.8125-66.4062,7.8125-36.6752,0-66.4062,-3.4978-66.4062,-7.8125 0,-4.3147 29.7311,-7.8125 66.4062,-7.8125 36.6752,0 66.4062,3.4978 66.4062,7.8125z" fill="#fff" stroke="#000" stroke-linecap="round" stroke-linejoin="round" stroke-width="1.8336" transform="matrix(.30001,0,0,.30001,918.93763,828.88998)"/>
<path d="m-367.9688,156.6406c0,4.099-34.2782,7.4219-76.5625,7.4219-42.2843,0-76.5625,-3.3229-76.5625,-7.4219 0,-4.099 34.2782,-7.4219 76.5625,-7.4219 42.2843,0 76.5625,3.3229 76.5625,7.4219z" fill="#fff" stroke="#000" stroke-linecap="round" stroke-linejoin="round" stroke-width="1.8336" transform="matrix(.30001,0,0,.30001,918.93763,828.88998)"/>
<path d="m-410.1562,160.1562c0,1.2944-16.4395,2.3438-36.7188,2.3438-20.2792,0-36.7188,-1.0493-36.7188,-2.3438 0,-1.2944 16.4395,-2.3438 36.7188,-2.3438 20.2792,0 36.7188,1.0493 36.7188,2.3438z" fill="#fff" stroke="#000" stroke-linecap="round" stroke-linejoin="round" stroke-width="1.8336" transform="matrix(.30001,0,0,.30001,918.93763,829.44565)"/>
<path d="m-379.6875,160.1562c0,4.3147-29.7311,7.8125-66.4062,7.8125-36.6752,0-66.4062,-3.4978-66.4062,-7.8125 0,-4.3147 29.7311,-7.8125 66.4062,-7.8125 36.6752,0 66.4062,3.4978 66.4062,7.8125z" fill="#fff" stroke="#000" stroke-linecap="round" stroke-linejoin="round" stroke-width="1.8336" transform="matrix(.30001,0,0,.30001,919.89294,827.12222)"/>
<path d="m-367.9688,156.6406c0,4.099-34.2782,7.4219-76.5625,7.4219-42.2843,0-76.5625,-3.3229-76.5625,-7.4219 0,-4.099 34.2782,-7.4219 76.5625,-7.4219 42.2843,0 76.5625,3.3229 76.5625,7.4219z" fill="#fff" stroke="#000" stroke-linecap="round" stroke-linejoin="round" stroke-width="1.8336" transform="matrix(.30001,0,0,.30001,919.89294,827.12222)"/>
<path d="m-410.1562,160.1562c0,1.2944-16.4395,2.3438-36.7188,2.3438-20.2792,0-36.7188,-1.0493-36.7188,-2.3438 0,-1.2944 16.4395,-2.3438 36.7188,-2.3438 20.2792,0 36.7188,1.0493 36.7188,2.3438z" fill="#fff" stroke="#000" stroke-linecap="round" stroke-linejoin="round" stroke-width="1.8336" transform="matrix(.30001,0,0,.30001,919.89294,827.67789)"/>
<path d="m-379.6875,160.1562c0,4.3147-29.7311,7.8125-66.4062,7.8125-36.6752,0-66.4062,-3.4978-66.4062,-7.8125 0,-4.3147 29.7311,-7.8125 66.4062,-7.8125 36.6752,0 66.4062,3.4978 66.4062,7.8125z" fill="#fff" stroke="#000" stroke-linecap="round" stroke-linejoin="round" stroke-width="1.8336" transform="matrix(.30001,0,0,.30001,918.37771,824.97564)"/>
<path d="m-367.9688,156.6406c0,4.099-34.2782,7.4219-76.5625,7.4219-42.2843,0-76.5625,-3.3229-76.5625,-7.4219 0,-4.099 34.2782,-7.4219 76.5625,-7.4219 42.2843,0 76.5625,3.3229 76.5625,7.4219z" fill="#fff" stroke="#000" stroke-linecap="round" stroke-linejoin="round" stroke-width="1.8336" transform="matrix(.30001,0,0,.30001,918.37771,824.97564)"/>
<path d="m-410.1562,160.1562c0,1.2944-16.4395,2.3438-36.7188,2.3438-20.2792,0-36.7188,-1.0493-36.7188,-2.3438 0,-1.2944 16.4395,-2.3438 36.7188,-2.3438 20.2792,0 36.7188,1.0493 36.7188,2.3438z" fill="#fff" stroke="#000" stroke-linecap="round" stroke-linejoin="round" stroke-width="1.8336" transform="matrix(.30001,0,0,.30001,918.37771,825.53131)"/>
<path d="m-379.6875,160.1562c0,4.3147-29.7311,7.8125-66.4062,7.8125-36.6752,0-66.4062,-3.4978-66.4062,-7.8125 0,-4.3147 29.7311,-7.8125 66.4062,-7.8125 36.6752,0 66.4062,3.4978 66.4062,7.8125z" fill="#fff" stroke="#000" stroke-linecap="round" stroke-linejoin="round" stroke-width="1.8336" transform="matrix(.30001,0,0,.30001,916.73621,822.57653)"/>
<path d="m-367.9688,156.6406c0,4.099-34.2782,7.4219-76.5625,7.4219-42.2843,0-76.5625,-3.3229-76.5625,-7.4219 0,-4.099 34.2782,-7.4219 76.5625,-7.4219 42.2843,0 76.5625,3.3229 76.5625,7.4219z" fill="#fff" stroke="#000" stroke-linecap="round" stroke-linejoin="round" stroke-width="1.8336" transform="matrix(.30001,0,0,.30001,916.73621,822.57653)"/>
<path d="m-410.1562,160.1562c0,1.2944-16.4395,2.3438-36.7188,2.3438-20.2792,0-36.7188,-1.0493-36.7188,-2.3438 0,-1.2944 16.4395,-2.3438 36.7188,-2.3438 20.2792,0 36.7188,1.0493 36.7188,2.3438z" fill="#fff" stroke="#000" stroke-linecap="round" stroke-linejoin="round" stroke-width="1.8336" transform="matrix(.30001,0,0,.30001,916.73621,823.1322)"/>
<path d="M807.0759,852.2729H814.5759V864.505H807.0759z" fill="#fff" stroke="#000" stroke-linejoin="bevel" stroke-width="2"/>
<g transform="translate(0,3.3036)">
<path d="M800.7143,252.6786H806.1607V257.9464H800.7143z" fill="#fff" stroke="#000" stroke-linejoin="bevel" stroke-width="2" transform="translate(0,602.3622)"/>
<path d="M815.491,855.0408H820.9375V860.3086H815.491z" fill="#fff" stroke="#000" stroke-linejoin="bevel" stroke-width="2"/>
</g>
<path d="m809.1964,250c0,0-2.0538,-6.2806-4.6655,-7.8366-2.9897,-1.7812-7.4368,-.4993-10.4314,-.4262-2.9014,.0708-3.3429,-.4079-3.3429,-.4079 0,0 1.071,-1.7017 2.1453,-2.3115 3.0878,-1.7527 9.4871,-2.3185 13.5268,0 4.0048,2.2985 6.9875,10.9788 6.9875,10.9788z" fill="none" stroke="#000" stroke-width="2" transform="translate(0,602.3622)"/>
<path d="M788.6607,842.9426H793.3036V847.5408H788.6607z" fill="#fff" stroke="#000" stroke-linejoin="bevel" stroke-width="2"/>
<text font-family="Sans" font-size="20" letter-spacing="0" line-height="562.5" word-spacing="0" x="710.3243" y="728.6083">
   <tspan text-align="center" text-anchor="middle" x="710.3243" y="728.6083">Je pense qu'ils</tspan>
   <tspan text-align="center" text-anchor="middle" x="710.3243" y="753.6083">viennent de passer</tspan>
   <tspan text-align="center" text-anchor="middle" x="710.3243" y="778.6083">à la phase spatiale...</tspan>
  </text>
<path d="m687.8571,190-14.2857,45.7143" fill="none" stroke="#000" transform="translate(0,602.3622)"/>
<g transform="matrix(1.1619,0,0,1.1619,-139.11253,-144.22627)">
<g transform="matrix(.54641,0,0,.54641,361.208,389.70687)">
<path d="m764.1173,846.8593-.8523,1.9256 .9154,-.7576-.6313,2.4623 1.1996,-2.3044 .5051,2.7148 .1263,-2.6201 1.168,1.7362-.6945,-3.283z" fill="none" stroke="#000" stroke-width=".4"/>
<path d="M758.4036,842.3136H761.1499V846.6383H758.4036z" fill="#fff" stroke="#000" stroke-linejoin="bevel"/>
<path d="M763.5648,842.3136H766.3112V846.6383H763.5648z" fill="#fff" stroke="#000" stroke-linejoin="bevel"/>
<path d="m757.8669,241.5298 9.2176,0c.5654,-19.1789-8.8996,-20.955-9.2176,0z" fill="#fff" stroke="#000" transform="translate(0,602.3622)"/>
<path d="m763.4543,233.0744c0,1.1707-.5865,2.1197-1.31,2.1197-.7235,0-1.31,-.949-1.31,-2.1197 0,-1.1707 .5865,-2.1197 1.31,-2.1197 .7235,0 1.31,.949 1.31,2.1197z" fill="#fff" stroke="#000" stroke-linejoin="bevel" transform="translate(1.0733,602.3622)"/>
<path d="m758.7508,244.5918-.8523,1.9256 .9154,-.7576-.6313,2.4623 1.1996,-2.3044 .5051,2.7148 .1263,-2.6201 1.168,1.7362-.6945,-3.283z" fill="none" stroke="#000" stroke-width=".4" transform="translate(0,602.3622)"/>
</g>
<g transform="matrix(.54641,0,0,.54641,372.49769,393.61528)">
<path d="m764.1173,846.8593-.8523,1.9256 .9154,-.7576-.6313,2.4623 1.1996,-2.3044 .5051,2.7148 .1263,-2.6201 1.168,1.7362-.6945,-3.283z" fill="none" stroke="#000" stroke-width=".4"/>
<path d="M758.4036,842.3136H761.1499V846.6383H758.4036z" fill="#fff" stroke="#000" stroke-linejoin="bevel"/>
<path d="M763.5648,842.3136H766.3112V846.6383H763.5648z" fill="#fff" stroke="#000" stroke-linejoin="bevel"/>
<path d="m757.8669,241.5298 9.2176,0c.5654,-19.1789-8.8996,-20.955-9.2176,0z" fill="#fff" stroke="#000" transform="translate(0,602.3622)"/>
<path d="m763.4543,233.0744c0,1.1707-.5865,2.1197-1.31,2.1197-.7235,0-1.31,-.949-1.31,-2.1197 0,-1.1707 .5865,-2.1197 1.31,-2.1197 .7235,0 1.31,.949 1.31,2.1197z" fill="#fff" stroke="#000" stroke-linejoin="bevel" transform="translate(1.0733,602.3622)"/>
<path d="m758.7508,244.5918-.8523,1.9256 .9154,-.7576-.6313,2.4623 1.1996,-2.3044 .5051,2.7148 .1263,-2.6201 1.168,1.7362-.6945,-3.283z" fill="none" stroke="#000" stroke-width=".4" transform="translate(0,602.3622)"/>
</g>
<g transform="matrix(.54641,0,0,.54641,349.24685,395.18919)">
<path d="m764.1173,846.8593-.8523,1.9256 .9154,-.7576-.6313,2.4623 1.1996,-2.3044 .5051,2.7148 .1263,-2.6201 1.168,1.7362-.6945,-3.283z" fill="none" stroke="#000" stroke-width=".4"/>
<path d="M758.4036,842.3136H761.1499V846.6383H758.4036z" fill="#fff" stroke="#000" stroke-linejoin="bevel"/>
<path d="M763.5648,842.3136H766.3112V846.6383H763.5648z" fill="#fff" stroke="#000" stroke-linejoin="bevel"/>
<path d="m757.8669,241.5298 9.2176,0c.5654,-19.1789-8.8996,-20.955-9.2176,0z" fill="#fff" stroke="#000" transform="translate(0,602.3622)"/>
<path d="m763.4543,233.0744c0,1.1707-.5865,2.1197-1.31,2.1197-.7235,0-1.31,-.949-1.31,-2.1197 0,-1.1707 .5865,-2.1197 1.31,-2.1197 .7235,0 1.31,.949 1.31,2.1197z" fill="#fff" stroke="#000" stroke-linejoin="bevel" transform="translate(1.0733,602.3622)"/>
<path d="m758.7508,244.5918-.8523,1.9256 .9154,-.7576-.6313,2.4623 1.1996,-2.3044 .5051,2.7148 .1263,-2.6201 1.168,1.7362-.6945,-3.283z" fill="none" stroke="#000" stroke-width=".4" transform="translate(0,602.3622)"/>
</g>
<path d="m775.748,855.3298-.3577,2.3609" fill="none" stroke="#000" stroke-width="1.1332"/>
<path d="m777.7512,856.1168 .0715,2.7186" fill="none" stroke="#000" stroke-width="1.1332"/>
<path d="m779.6828,855.616 .6439,3.3624" fill="none" stroke="#000" stroke-width="1.1332"/>
<path d="m787.445,858.7996-.3577,2.3609" fill="none" stroke="#000" stroke-width="1.1332"/>
<path d="m789.4482,859.5865 .0715,2.7186" fill="none" stroke="#000" stroke-width="1.1332"/>
<path d="m791.3797,859.0857 .6439,3.3624" fill="none" stroke="#000" stroke-width="1.1332"/>
<path d="m763.121,860.1589-.3577,2.3609" fill="none" stroke="#000" stroke-width="1.1332"/>
<path d="m765.1242,860.9458 .0715,2.7186" fill="none" stroke="#000" stroke-width="1.1332"/>
<path d="m767.0558,860.445 .6439,3.3624" fill="none" stroke="#000" stroke-width="1.1332"/>
</g>
<text font-family="Sans" font-size="9.451" letter-spacing="0" line-height="562.5" word-spacing="0" x="765.126" y="817.9036">
   <tspan x="765.126" y="817.9036">*lancement réussi*</tspan>
  </text>
<path d="m772.1354,822.1737-4.4194,8.5863" fill="none" stroke="#000"/>
</g>
</svg>
