<svg version="1.1" viewBox="0 0 900 450" xmlns="http://www.w3.org/2000/svg" xmlns:svg="http://www.w3.org/2000/svg">
<g transform="translate(0,-602.3622)">
<path d="M52.619,691.6525H833.6209A31.621,31.621 0 0 1 865.242,723.2735V971.6224A31.621,31.621 0 0 1 833.6209,1003.2434H52.619A31.621,31.621 0 0 1 20.998,971.6224V723.2735A31.621,31.621 0 0 1 52.619,691.6525z" fill="#fff" stroke="#000" stroke-linecap="round" stroke-width="7.4907"/>
<path d="m207.05,951.8773 93.1815,0" fill="none" stroke="#000"/>
<path d="m299.2647,687.7971 0,313.2704" fill="none" stroke="#000" stroke-width="5.6728"/>
<path d="M50.5018,659.0692H301.6658A15.6552,15.6552 0 0 1 317.3209,674.7244V674.7244A15.6552,15.6552 0 0 1 301.6658,690.3796H50.5018A15.6552,15.6552 0 0 1 34.8466,674.7244V674.7244A15.6552,15.6552 0 0 1 50.5018,659.0692z" fill="#fff" stroke="#000" stroke-linecap="round" stroke-linejoin="round" stroke-width="4.5094" transform="matrix(1,-.00315,.00315,1,0,0)"/>
<path d="m101.5203,44.9288a36.8706,34.8503 0 1 1 -73.7411,0 36.8706,34.8503 0 1 1 73.7411,0z" stroke="#000" stroke-linecap="round" stroke-linejoin="round" stroke-width="7.491" transform="matrix(1.24255,-.00391,.00217,.68917,-21.19917,636.10868)"/>
<text font-family="Bitstream Vera Sans" font-size="40" transform="matrix(1,-.00315,.00315,1,0,0)" x="20.2458" y="681.9102">
   <tspan fill="#f9f9f9" x="20.2458" y="681.9102">190</tspan>
  </text>
<text font-family="Bitstream Vera Sans" font-size="20" transform="matrix(1,-.00315,.00315,1,0,0)" x="150.0829" y="681.8355">
   <tspan x="150.0829" y="681.8355">Semaine</tspan>
  </text>
<path d="m582.9544,687.8961 0,303.442 0,10.4485" fill="none" stroke="#000" stroke-width="5.6784"/>
<g transform="translate(1.6015,-.1606)">
<path d="m839.4465,1023.3074c.4393,.5102 1.0355,.5714 1.6702,.6073 .8029,-.022 1.6072,-.2138 2.3575,-.4993 .4009,-.1526 .6224,-.2825 .9965,-.4789-2.2387,1.3097-.9924,.6082-.5738,.1636 .2168,-.2303 .3463,-.473 .4686,-.7606 .3177,-.895 .3589,-1.8574 .4131,-2.7971 .1056,-1.3679-.1776,-2.7109-.4825,-4.0351-.3709,-1.393-.8746,-2.7467-1.4294,-4.0758-.2656,-.6279-.5661,-1.24-.8587,-1.8555-.3944,-.7567-.717,-.2868 1.5104,-1.1508 .0768,-.03 .0919,.1367 .1411,.2027 .0824,.1106 .1689,.2179 .2534,.3269 .8217,1.1276 1.8098,2.1155 2.8001,3.0928 .5826,.5674 1.2074,1.0941 1.7645,1.6874 .2114,.1726 .3378,.416 .508,.6229 .1662,.1502 .2962,-.01 .4431,-.1106-2.5656,1.5384-1.6519,1.0412-1.16,.5694 .1937,-.1857 .3764,-.3843 .5619,-.5781 .2632,-.2626 .5127,-.5438 .801,-.7804 .761,-.6244 1.8227,-1.1234 2.6097,-1.5711 .7271,-.3211 1.471,-.6005 2.2265,-.8467 .1563,-.034 .761,-.2665 .899,-.1093 .0321,.037 .0451,.086 .0677,.1294 .003,.044 .0154,.089 .009,.1323-.0436,.3196-.5385,.6915-.7545,.8904-.9928,.8207-1.9561,1.6745-2.8731,2.5792-.7976,.8557-1.6216,1.7004-2.2566,2.6874-.3921,.6165-.6005,1.2972-.6984,2.0144-.0648,.6415-.0542,1.2873-.0532,1.9312 .0351,.6998 .1244,1.4011 .3328,2.0715 .1195,.3571 .3319,.6194 .6717,.7762 .2255,.08 .4837,.1318 .7238,.087 .0559,-.011 .5216,-.1684 .5589,-.1808 .5492,-.2997 1.8756,-1.0005-.6067,.3598-.0982,.054 .1891,-.1201 .2821,-.1824 .2138,-.143 .2651,-.1851 .4657,-.3346 .2405,-.18 .1266,-.092 .3424,-.2617l1.7191,-.6913c-.2178,.1831-.1012,.092-.3516,.2719-1.0139,.7828-2.137,1.4308-3.3009,1.9611-.5107,.1524-.8878,.2254-1.3851,-.01-.3662,-.2066-.6055,-.5062-.7343,-.9112-.2041,-.6903-.2811,-1.409-.3481,-2.1238-.004,-.6502-.0146,-1.3021 .038,-1.9509 .0928,-.7431 .2887,-1.4524 .6884,-2.0955 .0802,-.1333 .153,-.2712 .2404,-.3997 .1797,-.264 .4481,-.5661 .6529,-.8036 .4526,-.5248 .9157,-1.0402 1.3938,-1.5419 .8918,-.8997 1.8318,-1.7498 2.8066,-2.5592 .2761,-.2564 .5618,-.5063 .8001,-.7993 .0396,.021-.0878,.017-.1321,.024-.221,.031-.4338,.1-.6466,.1641-.7471,.2466-1.4866,.5202-2.1959,.8624 2.4446,-1.4457 .9748,-.6248 .497,-.2572-.291,.2239-.54,.5004-.7953,.7622-.9257,.9765-.9789,1.08-2.5451,1.8884-.2567,.1212-.4002,.1068-.6009,-.1041-.1584,-.2095-.2853,-.4431-.481,-.6233-.5334,-.6025-1.1282,-1.1492-1.6932,-1.7213-.9808,-.9983-1.9768,-1.9849-2.8496,-3.0818-.0938,-.1054-.1877,-.2107-.2814,-.3162-.0521,-.059-.2154,-.1251-.1559,-.1761 1.4141,-1.214 1.334,-1.5318 1.6993,-.7303 .2757,.628 .5663,1.2498 .8171,1.8885 .5249,1.3529 1.0089,2.7231 1.4053,4.1197 .3185,1.3302 .6335,2.6815 .5419,4.06-.0362,.9485-.0918,1.9144-.3493,2.8318-.0847,.2347-.1139,.3545-.249,.5692-.5939,.9436-1.8747,1.3891-2.7166,1.9248-1.0714,.5265-2.2113,.8989-3.4172,.9043-.1676,-.014-.3365,-.016-.5029,-.04-.4955,-.073-.9575,-.2895-1.3004,-.6569l1.6003,-.9608z" stroke="#000" stroke-linecap="round" stroke-linejoin="round" stroke-width=".2515"/>
<path d="m854.8111,1021.1506c-.7394,.2071-2.342,1.1965 .4555,-.4044-.388,.2065-.6184,.5425-.7999,.9302-.1036,.3106-.2142,.6511-.1917,.9845 .0156,.2306 .0756,.3465 .154,.562 .3071,.6068 .7795,1.1058 1.3399,1.4838 .4137,.2881 .8839,.4192 1.383,.4252 .3851,-.087 .7431,-.2375 1.0957,-.4123 .1503,-.075 .5909,-.3179 .4467,-.2321-1.6618,.9893-1.2456,.7222-.6575,.3195 .4842,-.373 1.0105,-.8057 1.1352,-1.4399 .0174,-.089 .0162,-.1799 .0243,-.2698-.032,-.7933-.5333,-1.4143-1.0169,-2.0008-.3049,-.3393-.6501,-.6629-1.0669,-.861-.2115,-.1006-.32,-.1184-.544,-.1779-.4519,-.025-.9255,.018-1.3546,.1741-.1984,.072-.499,.2393-.6834,.3368 2.5132,-1.5077 .8665,-.5123 .3482,-.062l-1.7106,.6997c.796,-.7657 1.8589,-1.2168 2.7842,-1.7768 .2686,-.1306 .4271,-.2209 .7141,-.308 .4568,-.1387 .9485,-.1711 1.419,-.1018 .2419,.077 .34,.097 .5672,.2178 .4231,.2254 .772,.5679 1.084,.9255 .5088,.6264 1.0253,1.2756 1.1028,2.1094-.004,.1012 .002,.2032-.0112,.3036-.0928,.6824-.6005,1.1675-1.1167,1.5707-1.0013,.7187-.4882,.3709-2.4236,1.4672-.5043,.2856-1.0559,.5275-1.6351,.5951-.5218,-.046-1.0072,-.1999-1.4323,-.5166-.5749,-.4193-1.0583,-.9487-1.3949,-1.5794-.0786,-.2055-.1678,-.4012-.1946,-.6229-.0421,-.3472 .0735,-.7121 .1572,-1.043 .1608,-.4085 .3649,-.7958 .7491,-1.0357 .9031,-.5198 1.7482,-1.1163 2.7557,-1.3944l-1.4819,1.1332z" stroke="#000" stroke-linecap="round" stroke-linejoin="round" stroke-width=".2515"/>
<path d="m862.6073,1021.9051c-.3203,.1024-.653,.1903-.9574,.3362-.1022,.049-.1982,.1101-.2973,.1651 .4207,-.2356 .8414,-.4712 1.2621,-.7068-.4994,.337-.87,.6738-1.0934,1.2386-.1462,.4653-.0761,.8587 .2923,1.2028 .0889,.083 .1935,.1478 .2903,.2216 .7042,.4046 1.5378,.5494 2.3444,.4638 .2312,-.024 .458,-.081 .687,-.1208 .53,-.1368 .7609,-.1749 1.2586,-.3838 .1651,-.069 .635,-.3304 .4812,-.2386-2.2382,1.3365-1.2251,.7542-.8736,.3984 .0779,-.079 .1399,-.1722 .2098,-.2583 .3065,-.4795 .3144,-.9061 .0985,-1.417-.0396,-.09-.268,-.5604-.4291,-.4586-.0279,.018-.042,.051-.063,.076 2.5422,-1.4497 1.5743,-1.2073 1.3278,-.5008-.1064,.3049-.125,.6013-.1396,.9215 .1766,1.4863 .8332,2.8626 1.3726,4.2435 .6559,1.8244 1.2881,3.7176 1.3609,5.6745 .0145,.3894-.0234,.779-.0352,1.1686-.0582,.3745-.0908,.7539-.1745,1.1236-.2732,1.2059-.8948,2.3097-1.8179,3.137-.1627,.1458-.3469,.2657-.5204,.3986-.6941,.3626-1.3545,.7991-2.0824,1.0879-.3018,.1197-1.0302,-.13-1.269,-.2365-.8875,-.3956-1.654,-1.0455-2.408,-1.6406-1.2719,-1.0888-2.5172,-2.2246-3.6551,-3.4553-.5895,-.6376-.7352,-.8522-1.2473,-1.5117-.4358,-.7271-.9494,-1.5701-.521,-2.4271 .2535,-.5072 .5596,-.6912 .9842,-1.0605 1.2727,-.8247 1.3769,-.9187 3.2195,-1.8517 .4497,-.2278 1.9,-.7427 2.3438,-.8976 .8851,-.3088 1.8369,-.6147 2.7269,-.9055 2.3381,-.6745 4.6281,-1.4959 6.8915,-2.3865 .1921,-.082 .3845,-.1627 .5764,-.245 .1466,-.063 .2943,-.1233 .439,-.1903 .2958,-.1371 .5721,-.3067 .8773,-.4229 .4138,-.059 .559,.4391 .6828,.7418 .2853,.7705 .446,1.5785 .5154,2.3954 .0171,.366 .029,.7336-.0228,1.0975-.005,.037 .0139,.095-.0201,.1109-.5544,.2582-1.1333,.4601-1.6999,.6901 10e-4,-.1125-.005,-.2255 .004,-.3377 .0133,-.1633 .0414,-.325 .063,-.4874 .1257,-.9479 .2903,-1.8832 .4832,-2.8196 .1955,-.8168 .3644,-1.6723 .8312,-2.3853 .5286,-.5535 1.7043,-1.6447 2.2768,-1.0096 .06,.066 .1019,.1472 .1529,.2208 .112,.1981 .2088,.3486 .2821,.5681 .2061,.6171 .2986,1.3405 .4077,1.9824 .1424,.5555 .0881,1.2207 .2567,1.7654 .2229,-.5987-.002,.028-1.6032,.7911-.0325,.016 .0489,-.053 .0671,-.084 .0417,-.071 .1233,-.2801 .1551,-.3443 .0434,-.088 .0929,-.1719 .1393,-.2578 .3011,-.4825 .556,-.9925 .8877,-1.4553 .5547,-.695 1.0736,-.8467 2.0338,-1.3743 .0329,-.018 .0773,-.01 .1126,.01 .045,.016 .08,.053 .12,.079 .3755,.395 .5063,.9539 .6331,1.4682 .1102,.5601 .1692,1.1313 .374,1.667 .0499,.07 .0906,.1479 .1496,.2106 .4298,.457 1.1407,.7985 1.727,.9843 .2206,.07 .4479,.1166 .6718,.1749 .9481,.2366 1.8995,.2484 2.8425,-.011 .2087,-.057 .4184,-.1173 .6161,-.2054 .1842,-.082 .3491,-.2019 .5237,-.3029-.3631,.1874-.6996,.4397-1.0894,.5622-.1503,.047 .2339,-.2118 .3412,-.3272 .3164,-.3401 .4973,-.7183 .6246,-1.1582 .0873,-.3664 .0858,-.7428 .0757,-1.1166-.1021,-.7716-.7838,-.012 1.5762,-.9706 .043,-.018-.0252,.089-.0325,.1353-.0105,.067-.0137,.1342-.0206,.2013-.0335,.608-.0474,1.2173 .0202,1.823 .0688,.3897 .1433,.7878 .4487,1.0613 .2149,.1415 .443,.1511 .6803,.073 .5712,-.2882 1.4287,-.7883-1.1689,.6782-.0922,.052 .1782,-.1143 .2658,-.1737l1.729,-.6875c-.1338,.1099-.1095,.099-.2632,.1885-.5841,.3415-1.3074,.9119-2.0466,1.1199-.2885,.031-.5575,-.032-.7831,-.2236-.314,-.3274-.4165,-.7448-.4864,-1.185-.0743,-.6127-.0594,-1.2282-.0514,-1.8445 .002,-.082 .01,-.3683 .0155,-.3721 1.2231,-.8124 1.6186,-1.5813 1.7738,-.6732 .009,.3928 .009,.788-.0729,1.1745-.4026,1.604-1.4656,1.9694-2.9269,2.8345-.1797,.091-.3518,.1981-.539,.2718-1.1255,.4432-2.3519,.4076-3.5096,.1301-.2313,-.061-.4661,-.1105-.6938,-.184-.5824,-.188-1.4014,-.59-1.8309,-1.0418-.0707,-.074-.1217,-.1655-.1826,-.2482-.2042,-.5463-.263,-1.1251-.3681,-1.696-.1059,-.4424-.211,-.9895-.5766,-1.2965-.0863,.011-.0417,0-.1309,.047 .494,-.2932 .9881,-.5865 1.4821,-.8797 .0418,-.024-.0765,.059-.1115,.092-.088,.083-.1593,.1828-.2543,.2588-.3546,.4458-.6103,.9514-.9065,1.4362-.1113,.1906-.2033,.372-.2742,.581-.0144,.043 .002,.1065-.037,.1297-1.6718,1.0056-1.301,1.4123-1.7676,.8263-.1403,-.5915-.0684,-1.2195-.2051,-1.8138-.1337,-.8319-.2366,-1.7229-.6888,-2.4507-.0786,-.095-.1124,-.1812-.2373,-.2043-.0338,-.01-.1319,.028-.1027,.01 .4848,-.3029 .9881,-.5749 1.4781,-.8692 .044,-.026-.0961,.038-.1396,.065-.0513,.032-.0953,.075-.1429,.1121-.5512,.6573-.7174,1.5447-.9403,2.3499-.2511,1.1608-.4667,2.3381-.5021,3.5279-.5413,.3318-1.0717,.6821-1.624,.9953-.0304,.017 .0302,-.063 .04,-.097 .1011,-.3479 .0723,-.7161 .0723,-1.073-.0467,-.7985-.196,-1.5926-.501,-2.3352-.0582,-.1343-.1651,-.5237-.3687,-.5375-.0472,0-.1338,.034-.1714,.048-.6021,.2681-1.1868,.5757-1.8125,.79-2.2433,.8437-4.5057,1.6345-6.8063,2.3092-1.3354,.4418-2.6801,.8688-3.988,1.3886-.3765,.1496-.7211,.3958-1.1182,.4762-.2039,.041 .7012,-.4449 .5142,-.3538-.2728,.1328-.5155,.32-.7733,.48-.4814,.3865-1.0718,.7863-1.1859,1.4525-.1123,.6558 .3053,1.2621 .5878,1.8057 .1747,.2387 .3409,.4838 .524,.716 1.2506,1.586 2.7724,2.9468 4.3216,4.2314 .7601,.5675 1.5353,1.2021 2.4338,1.5462 .2074,.08 .4249,.1396 .6456,.1642 .1883,.021 .6695,-.1887 .5676,-.029-.2124,.3325-.6509,.446-.9763,.669 .1821,-.1272 .3749,-.2403 .5464,-.3815 .9528,-.7839 1.6207,-1.8661 1.9179,-3.062 .0903,-.3634 .1256,-.7382 .1884,-1.1073 .0181,-.3842 .0641,-.7681 .0543,-1.1526-.0495,-1.9411-.7079,-3.8142-1.3712,-5.6146-.5628,-1.3919-1.2476,-2.7639-1.4927,-4.2575-.008,-.3536 3.7e-4,-.6227 .086,-.9648 .005,-.019 .0997,-.3596 .142,-.3887 .5428,-.3739 1.1209,-.6937 1.6814,-1.0405 .0426,0 .0866,0 .1279,.01 .2648,.072 .3917,.4009 .5024,.6157 .2357,.5565 .268,1.0516-.0318,1.5983-.068,.097-.1268,.202-.2041,.2923-.5521,.6452-1.6564,1.098-2.2184,1.4107-.5375,.2991-1.1558,.4269-1.747,.5654-.2367,.036-.4715,.087-.7101,.1065-.852,.069-1.7224,-.083-2.4498,-.5408-.1044,-.083-.2169,-.1575-.3133,-.25-.4073,-.3914-.5345,-.8233-.3997,-1.3636 .2032,-.6461 .5218,-.9588 1.0648,-1.3565 1.0479,-.6191 1.9953,-1.302 3.1758,-1.5918l-1.4819,1.1332z" stroke="#000" stroke-linecap="round" stroke-linejoin="round" stroke-width=".2515"/>
<path d="m888.0182,1016.2554c-.2243,.2631-.4035,.5643-.4888,.9007-.0611,.3364 .1396,.4226 .4154,.5433 .4462,.1634 .8277,.1455 1.2847,.065 .6111,-.2095 1.5817,-.8066-1.1348,.692-.0381,.021 .0724,-.049 .1046,-.078 .0766,-.07 .0844,-.099 .1345,-.1863 .0923,-.207 .0832,-.4008-.0356,-.5915-.1581,-.1498-.3958,-.1357-.5998,-.1457-.2107,.019-.4113,.072-.5826,.1981l1.4548,-1.1716c.2072,-.078 .4191,-.128 .6429,-.1102 .2663,.026 .5282,.064 .7009,.2917 .1406,.2365 .1962,.4811 .1149,.7512-.2947,.8892-1.4141,1.2487-2.2802,1.4605-.4615,.058-.9177,.033-1.3515,-.1528-.3119,-.1609-.5915,-.3623-.5442,-.7527 .0576,-.3624 .2344,-.687 .4467,-.9831l1.718,-.7299z" stroke="#000" stroke-linecap="round" stroke-linejoin="round" stroke-width=".2515"/>
<path d="m864.1735,1020.7872c.3537,-.172 .6913,-.3752 1.0561,-.5235 .2286,-.1485 .4794,-.217 .7469,-.2463 .246,-.019 .4931,-.016 .7396,-.015 .2447,-.026 .452,.041 .667,.1458 .1505,.1206 .2692,.2808 .3835,.4358 .0994,.1805 .1578,.383 .2189,.5797 .0548,.2016 .1295,.3942 .169,.6001 .038,.2418 .0406,.4871 .0436,.7313 10e-4,.1259 8.9e-4,.2518 8.9e-4,.3777l-1.662,.8466c1.3e-4,-.1253 3.8e-4,-.2505-1.3e-4,-.3758-.002,-.2343-.002,-.4696-.0316,-.7024-.0328,-.2008-.1062,-.3854-.1597,-.5802-.0519,-.177-.1078,-.3572-.1882,-.5221-.0978,-.1283-.193,-.2748-.3336,-.3578-.1975,-.086-.4034,-.091-.6168,-.082-.2413,0-.4842,-10e-5-.7231,.039-.2526,.054-.4803,.1622-.7103,.2776-.3579,.1664-.704,.3572-1.0509,.5451l1.4507,-1.1736z" stroke="#000" stroke-linecap="round" stroke-linejoin="round" stroke-width=".2515"/>
</g>
<path d="m135.3989,692.1108 0,245.7143-108.5714,50.7143" fill="none" stroke="#000"/>
<path d="M897.0268,848.7417H1081.2599A10.8396,10.8396 0 0 1 1092.0995,859.5813V913.8722A10.8396,10.8396 0 0 1 1081.2599,924.7118H897.0268A10.8396,10.8396 0 0 1 886.1872,913.8722V859.5813A10.8396,10.8396 0 0 1 897.0268,848.7417z" stroke="#000" stroke-linecap="round" stroke-linejoin="round" stroke-width="3.2495" transform="matrix(.83324,0,-.78013,.2927,37.92914,708.5486)"/>
<path d="M889.2323,843.6788H1090.5679A7.4282,10.8396 0 0 1 1097.9961,854.5183V923.4512A7.4282,10.8396 0 0 1 1090.5679,934.2907H889.2323A7.4282,10.8396 0 0 1 881.8041,923.4512V854.5183A7.4282,10.8396 0 0 1 889.2323,843.6788z" stroke="#000" stroke-linecap="round" stroke-linejoin="round" stroke-width="3.2495" transform="matrix(.83324,0,-.78013,.2927,37.92914,708.5486)"/>
<path d="M82.0745,954.8427H82.0745A5.1786,5.1786 0 0 1 87.2531,960.0212V973.5927A5.1786,5.1786 0 0 1 82.0745,978.7712H82.0745A5.1786,5.1786 0 0 1 76.896,973.5927V960.0212A5.1786,5.1786 0 0 1 82.0745,954.8427z" fill="#fff" stroke="#000" stroke-linecap="round" stroke-linejoin="round" stroke-width="3"/>
<path d="M217.1102,955.2355H217.1102A5.1786,5.1786 0 0 1 222.2888,960.4141V973.9855A5.1786,5.1786 0 0 1 217.1102,979.1641H217.1102A5.1786,5.1786 0 0 1 211.9317,973.9855V960.4141A5.1786,5.1786 0 0 1 217.1102,955.2355z" fill="#fff" stroke="#000" stroke-linecap="round" stroke-linejoin="round" stroke-width="3"/>
<path d="M262.646,936.8427H262.646A5.1786,5.1786 0 0 1 267.8246,942.0212V955.5927A5.1786,5.1786 0 0 1 262.646,960.7712H262.646A5.1786,5.1786 0 0 1 257.4674,955.5927V942.0212A5.1786,5.1786 0 0 1 262.646,936.8427z" fill="#fff" stroke="#000" stroke-linecap="round" stroke-linejoin="round" stroke-width="3"/>
<path d="M125.646,937.9141H125.646A5.1786,5.1786 0 0 1 130.8245,943.0926V956.6641A5.1786,5.1786 0 0 1 125.646,961.8426H125.646A5.1786,5.1786 0 0 1 120.4674,956.6641V943.0926A5.1786,5.1786 0 0 1 125.646,937.9141z" fill="#fff" stroke="#000" stroke-linecap="round" stroke-linejoin="round" stroke-width="3"/>
<g transform="matrix(.78777,0,0,.78777,44.8586,705.09405)">
<path d="M897.0268,848.7417H1081.2599A10.8396,10.8396 0 0 1 1092.0995,859.5813V913.8722A10.8396,10.8396 0 0 1 1081.2599,924.7118H897.0268A10.8396,10.8396 0 0 1 886.1872,913.8722V859.5813A10.8396,10.8396 0 0 1 897.0268,848.7417z" fill="#fff" stroke="#000" stroke-linecap="round" stroke-linejoin="round" stroke-width="3.2495" transform="matrix(1,0,-.93627,.35128,0,0)"/>
<path d="M892.6436,843.6788H1076.8768A10.8396,10.8396 0 0 1 1087.7164,854.5183V908.8093A10.8396,10.8396 0 0 1 1076.8768,919.6488H892.6436A10.8396,10.8396 0 0 1 881.8041,908.8093V854.5183A10.8396,10.8396 0 0 1 892.6436,843.6788z" fill="#fff" stroke="#000" stroke-linecap="round" stroke-linejoin="round" stroke-width="3.2495" transform="matrix(1,0,-.93627,.35128,0,0)"/>
<path d="M897.0268,848.7417H1081.2599A10.8396,10.8396 0 0 1 1092.0995,859.5813V913.8722A10.8396,10.8396 0 0 1 1081.2599,924.7118H897.0268A10.8396,10.8396 0 0 1 886.1872,913.8722V859.5813A10.8396,10.8396 0 0 1 897.0268,848.7417z" fill="#fff" stroke="#000" stroke-linecap="round" stroke-linejoin="round" stroke-width="3.2495" transform="matrix(1,0,-.93627,.35128,.35714,-3.10356)"/>
<path d="M892.6436,843.6788H1076.8768A10.8396,10.8396 0 0 1 1087.7164,854.5183V908.8093A10.8396,10.8396 0 0 1 1076.8768,919.6488H892.6436A10.8396,10.8396 0 0 1 881.8041,908.8093V854.5183A10.8396,10.8396 0 0 1 892.6436,843.6788z" fill="#fff" stroke="#000" stroke-linecap="round" stroke-linejoin="round" stroke-width="3.2495" transform="matrix(1,0,-.93627,.35128,.35714,-3.10356)"/>
<path d="M897.0268,848.7417H1081.2599A10.8396,10.8396 0 0 1 1092.0995,859.5813V913.8722A10.8396,10.8396 0 0 1 1081.2599,924.7118H897.0268A10.8396,10.8396 0 0 1 886.1872,913.8722V859.5813A10.8396,10.8396 0 0 1 897.0268,848.7417z" fill="#fff" stroke="#000" stroke-linecap="round" stroke-linejoin="round" stroke-width="3.2495" transform="matrix(1,0,-.93627,.35128,.62499,-6.63035)"/>
<path d="M892.6436,843.6788H1076.8768A10.8396,10.8396 0 0 1 1087.7164,854.5183V908.8093A10.8396,10.8396 0 0 1 1076.8768,919.6488H892.6436A10.8396,10.8396 0 0 1 881.8041,908.8093V854.5183A10.8396,10.8396 0 0 1 892.6436,843.6788z" fill="#fff" stroke="#000" stroke-linecap="round" stroke-linejoin="round" stroke-width="3.2495" transform="matrix(1,0,-.93627,.35128,.62499,-6.63035)"/>
</g>
<path d="M74.4063,932.1807H126.5596A3.0109,3.0109 0 0 1 129.5705,935.1916V976.8996A3.0109,3.0109 0 0 1 126.5596,979.9104H74.4063A3.0109,3.0109 0 0 1 71.3954,976.8996V935.1916A3.0109,3.0109 0 0 1 74.4063,932.1807z" fill="#fff" stroke="#000" stroke-linecap="round" stroke-linejoin="round" stroke-width="3.1126" transform="matrix(.92897,-.37014,0,1,0,0)"/>
<path d="M77.3966,933.9189H129.5499A3.0109,3.0109 0 0 1 132.5608,936.9298V978.6377A3.0109,3.0109 0 0 1 129.5499,981.6486H77.3966A3.0109,3.0109 0 0 1 74.3857,978.6377V936.9298A3.0109,3.0109 0 0 1 77.3966,933.9189z" fill="#fff" stroke="#000" stroke-linecap="round" stroke-linejoin="round" stroke-width="3.1126" transform="matrix(.92897,-.37014,0,1,0,0)"/>
<path d="m119.198,282.6935a52.2754,16.2887 0 1 1 -104.5508,0 52.2754,16.2887 0 1 1 104.5508,0z" fill="#fff" stroke="#000" stroke-linecap="round" stroke-linejoin="round" stroke-width="3" transform="matrix(.59838,-.3161,.28511,.66342,-14.79705,767.11017)"/>
<g transform="matrix(.51148,-.46605,.46605,.51148,23.64912,697.58939)">
<path d="m-43.5297,288.8057 0,47.8884c0,20.007-16.1067,36.1137-36.1137,36.1137l-35.434,0c-20.007,0-36.1137,-16.1067-36.1137,-36.1137l0,-47.8884" fill="#fff" stroke="#000" stroke-linecap="round" stroke-linejoin="round" stroke-width="3.6422"/>
<path d="M-122.1431,308.6171H-98.6091A.7803,.7803 0 0 1 -97.8288,309.3974V319.4235A.7803,.7803 0 0 1 -98.6091,320.2038H-122.1431A.7803,.7803 0 0 1 -122.9234,319.4235V309.3974A.7803,.7803 0 0 1 -122.1431,308.6171z" stroke="#000" stroke-linecap="square" stroke-linejoin="round" stroke-width="3.7338"/>
<path d="M-80.7522,308.6171H-60.3393A2.3409,2.3409 0 0 1 -57.9985,310.958V317.8629A2.3409,2.3409 0 0 1 -60.3393,320.2038H-80.7522A2.3409,2.3409 0 0 1 -83.093,317.8629V310.958A2.3409,2.3409 0 0 1 -80.7522,308.6171z" stroke="#000" stroke-linecap="square" stroke-linejoin="round" stroke-width="3.7338"/>
<path d="m-148.8829,313.6717c.5492,.0105 1.0986,.007 1.6478,.004 .363,-.002 .7259,-.004 1.0889,-.004 .2925,-4.3e-4 .585,-4e-4 .8775,-4e-4 .304,-6.3e-4 .6081,6e-4 .9121,10e-4 .3906,-.01 .7752,-3.7e-4 1.162,.0507 .3996,.0545 .8031,.0717 1.2062,.0827 .4052,-.0158 .8029,.0589 1.204,.099 .4079,.0368 .818,.0407 1.2274,.045 .4301,.002 .8603,.002 1.2904,6.5e-4 .3736,-7.6e-4 .7472,-10e-4 1.1208,-.002 .307,-7.7e-4 .6141,-9.8e-4 .9211,-10e-4 .2915,-8e-5 .583,-7e-5 .8745,-6e-5 .2915,1e-5 .5831,1e-5 .8746,1e-5 .3187,-3.9e-4 .6374,5.3e-4 .9561,.002 .3943,.002 .7885,4.4e-4 1.1828,-6.3e-4 .3709,-2.7e-4 .7418,4.7e-4 1.1126,10e-4 .3967,-1.7e-4 .7934,-8e-5 1.1902,-10e-4 .38,1.9e-4 .7599,7.4e-4 1.1399,1.6e-4 .3456,-.001 .6912,-.002 1.0367,2.5e-4 .5332,.003 1.0664,.004 1.5996,.006 .7266,.003 1.4533,.003 2.1799,.001 .5332,-.001 1.0664,-.005 1.5997,-.005 .4413,6.5e-4 .8826,-2e-5 1.3239,-.002 .0611,-2e-4 .1222,-4e-4 .1833,-6e-4l-1.746,1.1993c-.0605,-2.1e-4-.121,-4.1e-4-.1815,-6.1e-4-.4399,-.002-.8797,-.002-1.3196,-.002-.528,-2.2e-4-1.0559,-.004-1.5839,-.005-.7276,-.002-1.4552,-.002-2.1828,9.9e-4-.5391,.002-1.0782,.003-1.6173,.006-.3458,.002-.6916,.002-1.0375,2.6e-4-.3801,-5.7e-4-.7602,-3e-5-1.1404,1.5e-4-.3957,-9.9e-4-.7914,-8.9e-4-1.187,-.001-.3723,.001-.7447,.002-1.117,.002-.3937,-10e-4-.7873,-.003-1.181,-6.3e-4-.3206,.001-.6411,.002-.9617,.002-.2915,0-.5831,0-.8747,0-.2914,0-.5829,2e-5-.8743,-6e-5-.306,-1.3e-4-.612,-3.5e-4-.918,-9.6e-4-.372,-6.9e-4-.744,-8.4e-4-1.1161,-8.8e-4-.4302,-8.3e-4-.8603,7e-4-1.2904,-.004-.4148,-.006-.8303,-.0145-1.2428,-.0595-.3968,-.0446-.792,-.0972-1.193,-.0869-.4078,-.0152-.8149,-.0435-1.2193,-.0968-.382,-.0404-.7654,-.0292-1.1493,-.0278-.3051,5.6e-4-.6103,.002-.9155,.001-.2921,10e-6-.5842,3e-5-.8763,-4e-4-.3589,-6.7e-4-.7177,-.002-1.0765,-.004-.5532,-.003-1.1065,-.006-1.6597,.004l1.7494,-1.2016z" stroke="#000" stroke-linecap="square" stroke-linejoin="round" stroke-width=".4767"/>
<path d="m-57.3881,313.9484c.7039,.0118 1.4079,.0102 2.1119,.01 .6452,-8.9e-4 1.2905,-.003 1.9357,-.006 .4312,-.002 .8624,-.002 1.2935,-.003 .3398,-8.1e-4 .6796,-.002 1.0194,-.002 .2968,.0217 .5821,-.0575 .8738,-.0956 .2926,-.0341 .5877,-.039 .8821,-.0425 .2922,-.002 .5843,-10e-4 .8765,-8.4e-4 .2918,4e-4 .5836,5.3e-4 .8754,6.1e-4 .2918,5e-5 .5836,5e-5 .8754,5e-5 .2918,0 .5836,0 .8754,0 .3133,-6.1e-4 .6266,10e-4 .9398,10e-4 .3172,-2.5e-4 .6345,-6.9e-4 .9517,-9.3e-4 .2938,-1.8e-4 .5877,-2e-4 .8815,-2.1e-4 .1943,-1e-5 .0972,-1e-5 .2915,-1e-5l-1.7509,1.2027c-.1943,0-.0971,0-.2914,0-.2936,-2e-5-.5872,-4e-5-.8808,-2.2e-4-.3164,-2.3e-4-.6327,-6.8e-4-.9491,-9.3e-4-.3144,4e-5-.6287,.002-.9431,10e-4-.2918,1e-5-.5836,1e-5-.8754,1e-5-.2918,-1e-5-.5836,-1e-5-.8754,-1.2e-4-.2918,-1.3e-4-.5837,-3.7e-4-.8755,-7.2e-4-.2913,-2.3e-4-.5826,-10e-4-.8738,.004-.2893,.007-.5791,.0195-.8653,.0636-.2961,.0453-.5905,.0907-.8921,.0705-.3377,-4.3e-4-.6755,-10e-4-1.0132,-.002-.4283,-5.4e-4-.8565,-6.3e-4-1.2848,-.003-.6398,-.003-1.2796,-.005-1.9195,-.006-.7134,-4.8e-4-1.4269,-.002-2.1402,.01l1.747,-1.2z" stroke="#000" stroke-linecap="square" stroke-linejoin="round" stroke-width=".4767"/>
<path d="m-97.681,314.1116c.5339,.0676 1.0726,.0889 1.6105,.1048 .4801,.0116 .9604,.0116 1.4405,.0103 .3964,-5e-4 .7929,-6.3e-4 1.1893,-.002 .7958,.0205 1.592,.0104 2.3879,.007 .4809,-.004 .9619,-.005 1.4428,-.007 .3835,3e-5 .767,-4.2e-4 1.1506,6e-4 .4032,.001 .8064,-9.5e-4 1.2096,-3.1e-4 .3638,-8.6e-4 .7277,-7.6e-4 1.0915,-6.6e-4 .3644,5.6e-4 .7288,2.2e-4 1.0931,-5.1e-4 .3481,.001 .6961,1.1e-4 1.0442,-4.5e-4 .3406,.001 .6811,4.5e-4 1.0217,-4e-5 .3008,-4.3e-4 .6016,-5.6e-4 .9024,-6.3e-4 .2516,.0585 .5047,.1006 .7628,.1209 .2799,.0172 .5606,.0173 .8409,.018 .2917,1.9e-4 .5833,-3.9e-4 .875,-6.8e-4 .146,-1.4e-4 .292,-2e-4 .4381,-2.6e-4l-1.7508,1.2027c-.146,10e-5-.292,1.9e-4-.438,3.5e-4-.292,3.2e-4-.584,.001-.876,-3.9e-4-.2852,-.002-.5709,-.005-.8549,-.0331-.2506,-.0294-.496,-.0897-.7478,-.105-.3002,-8e-5-.6004,-2e-4-.9006,-6.3e-4-.3405,-4.8e-4-.681,-.001-1.0215,-5e-5-.3476,-5.5e-4-.6953,-.002-1.0429,-4.4e-4-.3639,-7.3e-4-.7278,-10e-4-1.0916,-5.1e-4-.3632,1.1e-4-.7264,1.9e-4-1.0895,-6.6e-4-.4029,6.4e-4-.8058,-.002-1.2087,-3.1e-4-.3841,.001-.7682,5.8e-4-1.1523,6e-4-.4742,-.002-.9483,-.003-1.4224,-.007-.8027,-.004-1.6058,-.0132-2.4083,.007-.3958,-4.3e-4-.7915,4.6e-4-1.1873,-3.6e-4-.4785,-.003-.957,-.007-1.4353,-.0226-.5477,-.0212-1.0947,-.0538-1.64,-.107l1.7673,-1.1825z" stroke="#000" stroke-linecap="square" stroke-linejoin="round" stroke-width=".4767"/>
<path d="m-136.1855,276.2983 0,18.5432" fill="none" stroke="#000" stroke-linecap="round" stroke-width="4.8046"/>
<path d="m-126.6615,274.544 0,18.5432" fill="none" stroke="#000" stroke-linecap="round" stroke-width="4.8046"/>
<path d="m-117.7245,276.0083 0,18.5432" fill="none" stroke="#000" stroke-linecap="round" stroke-width="4.8046"/>
<path d="m-106.0478,274.841 0,18.5432" fill="none" stroke="#000" stroke-linecap="round" stroke-width="4.8046"/>
<path d="m-95.8892,277.0276 0,18.5432" fill="none" stroke="#000" stroke-linecap="round" stroke-width="4.8046"/>
<path d="m-84.2599,276.8522 0,18.5432" fill="none" stroke="#000" stroke-linecap="round" stroke-width="4.8046"/>
<path d="m-73.7574,275.1381 0,18.5432" fill="none" stroke="#000" stroke-linecap="round" stroke-width="4.8046"/>
<path d="m-63.8419,278.175 0,18.5432" fill="none" stroke="#000" stroke-linecap="round" stroke-width="4.8046"/>
<path d="m-53.169,277.8063 0,18.5432" fill="none" stroke="#000" stroke-linecap="round" stroke-width="4.8046"/>
<path d="m-105.8017,352.8807 27.1229,-4.4282" fill="none" stroke="#000" stroke-width=".7749"/>
<path d="m-144.0697,281.0285 0,18.5432" fill="none" stroke="#000" stroke-linecap="round" stroke-width="4.8046"/>
</g>
<path d="m165.0002,918.6598 108.7375,13.5714c4.4206,0 1.1527,6.7083-2.4471,9.274l-11.5628,4.4446-14.9112,5.1794c-3.5998,2.5656-24.6996,7.8454-29.1201,7.8454l-94.0947,-.3571c-4.4206,0-7.2242,-9.5655-3.6243,-12.1311l32.5455,-23.1954c3.5998,-2.5656 10.0567,-4.6311 14.4773,-4.6311z" fill="#fff" stroke="#000" stroke-linecap="round" stroke-linejoin="round" stroke-width="1.6996"/>
<text font-family="Bitstream Vera Sans" font-size="20" x="214.3375" y="780.9498">
   <tspan text-align="center" text-anchor="middle" x="214.3375" y="780.9498">AH ! 15h ! Bon,</tspan>
   <tspan text-align="center" text-anchor="middle" x="214.3375" y="805.9498">heureusement</tspan>
   <tspan text-align="center" text-anchor="middle" x="214.3375" y="830.9498">qu'on est...</tspan>
  </text>
<g transform="matrix(1.20001,0,0,1.20001,-17.58438,-165.39192)">
<path d="M56.9044,831.1302H128.408A.3121,.3121 0 0 1 128.7202,831.4423V878.0841A.3121,.3121 0 0 1 128.408,878.3963H56.9044A.3121,.3121 0 0 1 56.5923,878.0841V831.4423A.3121,.3121 0 0 1 56.9044,831.1302z" fill="#fff" stroke="#000" stroke-linecap="round" stroke-linejoin="round" stroke-width="3.1321" transform="matrix(.91743,-.39789,0,1,0,0)"/>
<path d="M68.0964,837.0736H116.8102A2.893,2.893 0 0 1 119.7032,839.9666V869.8949A2.893,2.893 0 0 1 116.8102,872.7879H68.0964A2.893,2.893 0 0 1 65.2034,869.8949V839.9666A2.893,2.893 0 0 1 68.0964,837.0736z" fill="#fff" stroke="#000" stroke-linecap="round" stroke-linejoin="round" stroke-width="3.1321" transform="matrix(.91743,-.39789,0,1,0,0)"/>
<g transform="matrix(1,-.4337,0,1,-272.2798,726.58947)">
<path d="m357.5,181.0714-21.0714,41.7857" fill="none" stroke="#000"/>
<path d="m357.6215,181.0342 21.0714,41.7857" fill="none" stroke="#000"/>
<path d="m381.4286,150.8929c0,.6904-.7195,1.25-1.6071,1.25-.8876,0-1.6071,-.5596-1.6071,-1.25 0,-.6904 .7195,-1.25 1.6071,-1.25 .8876,0 1.6071,.5596 1.6071,1.25z" fill="#fff" stroke="#000" stroke-linecap="round" stroke-linejoin="round" stroke-width="3" transform="translate(-22.1429,30.7143)"/>
</g>
<path d="m53.3861,809.4126 7.5,2.8187" fill="none" stroke="#000"/>
<path d="m53.0902,854.3443 7.1429,-8.6335" fill="none" stroke="#000"/>
<path d="m110.5237,790.0199 6.6071,-8.7584" fill="none" stroke="#000"/>
<path d="m110.3757,823.237 5.8929,3.5157" fill="none" stroke="#000"/>
</g>
<text font-family="Sans" font-size="10.713" letter-spacing="0" line-height="562.5" transform="skewY(336.333)" word-spacing="0" x="86.3025" y="844.2651">
   <tspan font-weight="bold" text-align="center" text-anchor="middle" x="86.3025" y="844.2651">~</tspan>
   <tspan font-weight="bold" text-align="center" text-anchor="middle" x="86.3025" y="857.6566">sweet</tspan>
   <tspan font-weight="bold" text-align="center" text-anchor="middle" x="86.3025" y="871.0482">~</tspan>
  </text>
<path d="m479.9491,951.7715 103.1815,0" fill="none" stroke="#000"/>
<path d="m408.2979,692.005 0,245.7143-108.5714,50.7143" fill="none" stroke="#000"/>
<path d="M897.0268,848.7417H1081.2599A10.8396,10.8396 0 0 1 1092.0995,859.5813V913.8722A10.8396,10.8396 0 0 1 1081.2599,924.7118H897.0268A10.8396,10.8396 0 0 1 886.1872,913.8722V859.5813A10.8396,10.8396 0 0 1 897.0268,848.7417z" stroke="#000" stroke-linecap="round" stroke-linejoin="round" stroke-width="3.2495" transform="matrix(.83324,0,-.78013,.2927,310.82823,708.44274)"/>
<path d="M889.2323,843.6788H1090.5679A7.4282,10.8396 0 0 1 1097.9961,854.5183V923.4512A7.4282,10.8396 0 0 1 1090.5679,934.2907H889.2323A7.4282,10.8396 0 0 1 881.8041,923.4512V854.5183A7.4282,10.8396 0 0 1 889.2323,843.6788z" stroke="#000" stroke-linecap="round" stroke-linejoin="round" stroke-width="3.2495" transform="matrix(.83324,0,-.78013,.2927,310.82823,708.44274)"/>
<path d="M354.9736,954.7368H354.9736A5.1786,5.1786 0 0 1 360.1522,959.9154V973.4868A5.1786,5.1786 0 0 1 354.9736,978.6654H354.9736A5.1786,5.1786 0 0 1 349.795,973.4868V959.9154A5.1786,5.1786 0 0 1 354.9736,954.7368z" fill="#fff" stroke="#000" stroke-linecap="round" stroke-linejoin="round" stroke-width="3"/>
<path d="M490.0093,955.1296H490.0093A5.1786,5.1786 0 0 1 495.1879,960.3082V973.8796A5.1786,5.1786 0 0 1 490.0093,979.0582H490.0093A5.1786,5.1786 0 0 1 484.8308,973.8796V960.3082A5.1786,5.1786 0 0 1 490.0093,955.1296z" fill="#fff" stroke="#000" stroke-linecap="round" stroke-linejoin="round" stroke-width="3"/>
<path d="M535.545,936.7368H535.545A5.1786,5.1786 0 0 1 540.7236,941.9153V955.4868A5.1786,5.1786 0 0 1 535.545,960.6653H535.545A5.1786,5.1786 0 0 1 530.3665,955.4868V941.9153A5.1786,5.1786 0 0 1 535.545,936.7368z" fill="#fff" stroke="#000" stroke-linecap="round" stroke-linejoin="round" stroke-width="3"/>
<path d="M398.5451,937.8082H398.5451A5.1786,5.1786 0 0 1 403.7236,942.9868V956.5582A5.1786,5.1786 0 0 1 398.5451,961.7368H398.5451A5.1786,5.1786 0 0 1 393.3665,956.5582V942.9868A5.1786,5.1786 0 0 1 398.5451,937.8082z" fill="#fff" stroke="#000" stroke-linecap="round" stroke-linejoin="round" stroke-width="3"/>
<g transform="matrix(.78777,0,0,.78777,317.75768,704.98819)">
<path d="M897.0268,848.7417H1081.2599A10.8396,10.8396 0 0 1 1092.0995,859.5813V913.8722A10.8396,10.8396 0 0 1 1081.2599,924.7118H897.0268A10.8396,10.8396 0 0 1 886.1872,913.8722V859.5813A10.8396,10.8396 0 0 1 897.0268,848.7417z" fill="#fff" stroke="#000" stroke-linecap="round" stroke-linejoin="round" stroke-width="3.2495" transform="matrix(1,0,-.93627,.35128,0,0)"/>
<path d="M892.6436,843.6788H1076.8768A10.8396,10.8396 0 0 1 1087.7164,854.5183V908.8093A10.8396,10.8396 0 0 1 1076.8768,919.6488H892.6436A10.8396,10.8396 0 0 1 881.8041,908.8093V854.5183A10.8396,10.8396 0 0 1 892.6436,843.6788z" fill="#fff" stroke="#000" stroke-linecap="round" stroke-linejoin="round" stroke-width="3.2495" transform="matrix(1,0,-.93627,.35128,0,0)"/>
<path d="M897.0268,848.7417H1081.2599A10.8396,10.8396 0 0 1 1092.0995,859.5813V913.8722A10.8396,10.8396 0 0 1 1081.2599,924.7118H897.0268A10.8396,10.8396 0 0 1 886.1872,913.8722V859.5813A10.8396,10.8396 0 0 1 897.0268,848.7417z" fill="#fff" stroke="#000" stroke-linecap="round" stroke-linejoin="round" stroke-width="3.2495" transform="matrix(1,0,-.93627,.35128,.35714,-3.10356)"/>
<path d="M892.6436,843.6788H1076.8768A10.8396,10.8396 0 0 1 1087.7164,854.5183V908.8093A10.8396,10.8396 0 0 1 1076.8768,919.6488H892.6436A10.8396,10.8396 0 0 1 881.8041,908.8093V854.5183A10.8396,10.8396 0 0 1 892.6436,843.6788z" fill="#fff" stroke="#000" stroke-linecap="round" stroke-linejoin="round" stroke-width="3.2495" transform="matrix(1,0,-.93627,.35128,.35714,-3.10356)"/>
<path d="M897.0268,848.7417H1081.2599A10.8396,10.8396 0 0 1 1092.0995,859.5813V913.8722A10.8396,10.8396 0 0 1 1081.2599,924.7118H897.0268A10.8396,10.8396 0 0 1 886.1872,913.8722V859.5813A10.8396,10.8396 0 0 1 897.0268,848.7417z" fill="#fff" stroke="#000" stroke-linecap="round" stroke-linejoin="round" stroke-width="3.2495" transform="matrix(1,0,-.93627,.35128,.62499,-6.63035)"/>
<path d="M892.6436,843.6788H1076.8768A10.8396,10.8396 0 0 1 1087.7164,854.5183V908.8093A10.8396,10.8396 0 0 1 1076.8768,919.6488H892.6436A10.8396,10.8396 0 0 1 881.8041,908.8093V854.5183A10.8396,10.8396 0 0 1 892.6436,843.6788z" fill="#fff" stroke="#000" stroke-linecap="round" stroke-linejoin="round" stroke-width="3.2495" transform="matrix(1,0,-.93627,.35128,.62499,-6.63035)"/>
</g>
<path d="M368.1701,1040.8096H420.3234A3.0109,3.0109 0 0 1 423.3342,1043.8205V1085.5284A3.0109,3.0109 0 0 1 420.3234,1088.5393H368.1701A3.0109,3.0109 0 0 1 365.1592,1085.5284V1043.8205A3.0109,3.0109 0 0 1 368.1701,1040.8096z" fill="#fff" stroke="#000" stroke-linecap="round" stroke-linejoin="round" stroke-width="3.1126" transform="matrix(.92897,-.37014,0,1,0,0)"/>
<path d="M371.1604,1042.5477H423.3137A3.0109,3.0109 0 0 1 426.3245,1045.5586V1087.2665A3.0109,3.0109 0 0 1 423.3137,1090.2774H371.1604A3.0109,3.0109 0 0 1 368.1495,1087.2665V1045.5586A3.0109,3.0109 0 0 1 371.1604,1042.5477z" fill="#fff" stroke="#000" stroke-linecap="round" stroke-linejoin="round" stroke-width="3.1126" transform="matrix(.92897,-.37014,0,1,0,0)"/>
<path d="m119.198,282.6935a52.2754,16.2887 0 1 1 -104.5508,0 52.2754,16.2887 0 1 1 104.5508,0z" fill="#fff" stroke="#000" stroke-linecap="round" stroke-linejoin="round" stroke-width="3" transform="matrix(.59838,-.3161,.28511,.66342,258.10204,767.00431)"/>
<g transform="matrix(.51148,-.46605,.46605,.51148,296.54821,697.48353)">
<path d="m-43.5297,288.8057 0,47.8884c0,20.007-16.1067,36.1137-36.1137,36.1137l-35.434,0c-20.007,0-36.1137,-16.1067-36.1137,-36.1137l0,-47.8884" fill="#fff" stroke="#000" stroke-linecap="round" stroke-linejoin="round" stroke-width="3.6422"/>
<path d="M-122.1431,308.6171H-98.6091A.7803,.7803 0 0 1 -97.8288,309.3974V319.4235A.7803,.7803 0 0 1 -98.6091,320.2038H-122.1431A.7803,.7803 0 0 1 -122.9234,319.4235V309.3974A.7803,.7803 0 0 1 -122.1431,308.6171z" stroke="#000" stroke-linecap="square" stroke-linejoin="round" stroke-width="3.7338"/>
<path d="M-80.7522,308.6171H-60.3393A2.3409,2.3409 0 0 1 -57.9985,310.958V317.8629A2.3409,2.3409 0 0 1 -60.3393,320.2038H-80.7522A2.3409,2.3409 0 0 1 -83.093,317.8629V310.958A2.3409,2.3409 0 0 1 -80.7522,308.6171z" stroke="#000" stroke-linecap="square" stroke-linejoin="round" stroke-width="3.7338"/>
<path d="m-148.8829,313.6717c.5492,.0105 1.0986,.007 1.6478,.004 .363,-.002 .7259,-.004 1.0889,-.004 .2925,-4.3e-4 .585,-4e-4 .8775,-4e-4 .304,-6.3e-4 .6081,6e-4 .9121,10e-4 .3906,-.01 .7752,-3.7e-4 1.162,.0507 .3996,.0545 .8031,.0717 1.2062,.0827 .4052,-.0158 .8029,.0589 1.204,.099 .4079,.0368 .818,.0407 1.2274,.045 .4301,.002 .8603,.002 1.2904,6.5e-4 .3736,-7.6e-4 .7472,-10e-4 1.1208,-.002 .307,-7.7e-4 .6141,-9.8e-4 .9211,-10e-4 .2915,-8e-5 .583,-7e-5 .8745,-6e-5 .2915,1e-5 .5831,1e-5 .8746,1e-5 .3187,-3.9e-4 .6374,5.3e-4 .9561,.002 .3943,.002 .7885,4.4e-4 1.1828,-6.3e-4 .3709,-2.7e-4 .7418,4.7e-4 1.1126,10e-4 .3967,-1.7e-4 .7934,-8e-5 1.1902,-10e-4 .38,1.9e-4 .7599,7.4e-4 1.1399,1.6e-4 .3456,-.001 .6912,-.002 1.0367,2.5e-4 .5332,.003 1.0664,.004 1.5996,.006 .7266,.003 1.4533,.003 2.1799,.001 .5332,-.001 1.0664,-.005 1.5997,-.005 .4413,6.5e-4 .8826,-2e-5 1.3239,-.002 .0611,-2e-4 .1222,-4e-4 .1833,-6e-4l-1.746,1.1993c-.0605,-2.1e-4-.121,-4.1e-4-.1815,-6.1e-4-.4399,-.002-.8797,-.002-1.3196,-.002-.528,-2.2e-4-1.0559,-.004-1.5839,-.005-.7276,-.002-1.4552,-.002-2.1828,9.9e-4-.5391,.002-1.0782,.003-1.6173,.006-.3458,.002-.6916,.002-1.0375,2.6e-4-.3801,-5.7e-4-.7602,-3e-5-1.1404,1.5e-4-.3957,-9.9e-4-.7914,-8.9e-4-1.187,-.001-.3723,.001-.7447,.002-1.117,.002-.3937,-10e-4-.7873,-.003-1.181,-6.3e-4-.3206,.001-.6411,.002-.9617,.002-.2915,0-.5831,0-.8747,0-.2914,0-.5829,2e-5-.8743,-6e-5-.306,-1.3e-4-.612,-3.5e-4-.918,-9.6e-4-.372,-6.9e-4-.744,-8.4e-4-1.1161,-8.8e-4-.4302,-8.3e-4-.8603,7e-4-1.2904,-.004-.4148,-.006-.8303,-.0145-1.2428,-.0595-.3968,-.0446-.792,-.0972-1.193,-.0869-.4078,-.0152-.8149,-.0435-1.2193,-.0968-.382,-.0404-.7654,-.0292-1.1493,-.0278-.3051,5.6e-4-.6103,.002-.9155,.001-.2921,10e-6-.5842,3e-5-.8763,-4e-4-.3589,-6.7e-4-.7177,-.002-1.0765,-.004-.5532,-.003-1.1065,-.006-1.6597,.004l1.7494,-1.2016z" stroke="#000" stroke-linecap="square" stroke-linejoin="round" stroke-width=".4767"/>
<path d="m-57.3881,313.9484c.7039,.0118 1.4079,.0102 2.1119,.01 .6452,-8.9e-4 1.2905,-.003 1.9357,-.006 .4312,-.002 .8624,-.002 1.2935,-.003 .3398,-8.1e-4 .6796,-.002 1.0194,-.002 .2968,.0217 .5821,-.0575 .8738,-.0956 .2926,-.0341 .5877,-.039 .8821,-.0425 .2922,-.002 .5843,-10e-4 .8765,-8.4e-4 .2918,4e-4 .5836,5.3e-4 .8754,6.1e-4 .2918,5e-5 .5836,5e-5 .8754,5e-5 .2918,0 .5836,0 .8754,0 .3133,-6.1e-4 .6266,10e-4 .9398,10e-4 .3172,-2.5e-4 .6345,-6.9e-4 .9517,-9.3e-4 .2938,-1.8e-4 .5877,-2e-4 .8815,-2.1e-4 .1943,-1e-5 .0972,-1e-5 .2915,-1e-5l-1.7509,1.2027c-.1943,0-.0971,0-.2914,0-.2936,-2e-5-.5872,-4e-5-.8808,-2.2e-4-.3164,-2.3e-4-.6327,-6.8e-4-.9491,-9.3e-4-.3144,4e-5-.6287,.002-.9431,10e-4-.2918,1e-5-.5836,1e-5-.8754,1e-5-.2918,-1e-5-.5836,-1e-5-.8754,-1.2e-4-.2918,-1.3e-4-.5837,-3.7e-4-.8755,-7.2e-4-.2913,-2.3e-4-.5826,-10e-4-.8738,.004-.2893,.007-.5791,.0195-.8653,.0636-.2961,.0453-.5905,.0907-.8921,.0705-.3377,-4.3e-4-.6755,-10e-4-1.0132,-.002-.4283,-5.4e-4-.8565,-6.3e-4-1.2848,-.003-.6398,-.003-1.2796,-.005-1.9195,-.006-.7134,-4.8e-4-1.4269,-.002-2.1402,.01l1.747,-1.2z" stroke="#000" stroke-linecap="square" stroke-linejoin="round" stroke-width=".4767"/>
<path d="m-97.681,314.1116c.5339,.0676 1.0726,.0889 1.6105,.1048 .4801,.0116 .9604,.0116 1.4405,.0103 .3964,-5e-4 .7929,-6.3e-4 1.1893,-.002 .7958,.0205 1.592,.0104 2.3879,.007 .4809,-.004 .9619,-.005 1.4428,-.007 .3835,3e-5 .767,-4.2e-4 1.1506,6e-4 .4032,.001 .8064,-9.5e-4 1.2096,-3.1e-4 .3638,-8.6e-4 .7277,-7.6e-4 1.0915,-6.6e-4 .3644,5.6e-4 .7288,2.2e-4 1.0931,-5.1e-4 .3481,.001 .6961,1.1e-4 1.0442,-4.5e-4 .3406,.001 .6811,4.5e-4 1.0217,-4e-5 .3008,-4.3e-4 .6016,-5.6e-4 .9024,-6.3e-4 .2516,.0585 .5047,.1006 .7628,.1209 .2799,.0172 .5606,.0173 .8409,.018 .2917,1.9e-4 .5833,-3.9e-4 .875,-6.8e-4 .146,-1.4e-4 .292,-2e-4 .4381,-2.6e-4l-1.7508,1.2027c-.146,10e-5-.292,1.9e-4-.438,3.5e-4-.292,3.2e-4-.584,.001-.876,-3.9e-4-.2852,-.002-.5709,-.005-.8549,-.0331-.2506,-.0294-.496,-.0897-.7478,-.105-.3002,-8e-5-.6004,-2e-4-.9006,-6.3e-4-.3405,-4.8e-4-.681,-.001-1.0215,-5e-5-.3476,-5.5e-4-.6953,-.002-1.0429,-4.4e-4-.3639,-7.3e-4-.7278,-10e-4-1.0916,-5.1e-4-.3632,1.1e-4-.7264,1.9e-4-1.0895,-6.6e-4-.4029,6.4e-4-.8058,-.002-1.2087,-3.1e-4-.3841,.001-.7682,5.8e-4-1.1523,6e-4-.4742,-.002-.9483,-.003-1.4224,-.007-.8027,-.004-1.6058,-.0132-2.4083,.007-.3958,-4.3e-4-.7915,4.6e-4-1.1873,-3.6e-4-.4785,-.003-.957,-.007-1.4353,-.0226-.5477,-.0212-1.0947,-.0538-1.64,-.107l1.7673,-1.1825z" stroke="#000" stroke-linecap="square" stroke-linejoin="round" stroke-width=".4767"/>
<path d="m-136.1855,276.2983 0,18.5432" fill="none" stroke="#000" stroke-linecap="round" stroke-width="4.8046"/>
<path d="m-126.6615,274.544 0,18.5432" fill="none" stroke="#000" stroke-linecap="round" stroke-width="4.8046"/>
<path d="m-117.7245,276.0083 0,18.5432" fill="none" stroke="#000" stroke-linecap="round" stroke-width="4.8046"/>
<path d="m-106.0478,274.841 0,18.5432" fill="none" stroke="#000" stroke-linecap="round" stroke-width="4.8046"/>
<path d="m-95.8892,277.0276 0,18.5432" fill="none" stroke="#000" stroke-linecap="round" stroke-width="4.8046"/>
<path d="m-84.2599,276.8522 0,18.5432" fill="none" stroke="#000" stroke-linecap="round" stroke-width="4.8046"/>
<path d="m-73.7574,275.1381 0,18.5432" fill="none" stroke="#000" stroke-linecap="round" stroke-width="4.8046"/>
<path d="m-63.8419,278.175 0,18.5432" fill="none" stroke="#000" stroke-linecap="round" stroke-width="4.8046"/>
<path d="m-53.169,277.8063 0,18.5432" fill="none" stroke="#000" stroke-linecap="round" stroke-width="4.8046"/>
<path d="m-105.8017,352.8807 27.1229,-4.4282" fill="none" stroke="#000" stroke-width=".7749"/>
<path d="m-144.0697,281.0285 0,18.5432" fill="none" stroke="#000" stroke-linecap="round" stroke-width="4.8046"/>
</g>
<path d="m437.8993,918.5539 108.7375,13.5714c4.4206,0 1.1527,6.7083-2.4471,9.274l-11.5628,4.4446-14.9112,5.1794c-3.5998,2.5656-24.6996,7.8454-29.1201,7.8454l-94.0947,-.3571c-4.4206,0-7.2241,-9.5655-3.6243,-12.1311l32.5454,-23.1954c3.5998,-2.5656 10.0567,-4.6311 14.4773,-4.6311z" fill="#fff" stroke="#000" stroke-linecap="round" stroke-linejoin="round" stroke-width="1.6996"/>
<text font-family="Bitstream Vera Sans" font-size="20" x="465.1879" y="833.7011">
   <tspan x="465.1879" y="833.7011">Jeudi.</tspan>
  </text>
<path d="M462.905,848.6004 444.3336,875.029" fill="none" stroke="#000"/>
<g transform="matrix(1.20001,0,0,1.20001,255.3147,-165.49778)">
<path d="M56.9044,831.1302H128.408A.3121,.3121 0 0 1 128.7202,831.4423V878.0841A.3121,.3121 0 0 1 128.408,878.3963H56.9044A.3121,.3121 0 0 1 56.5923,878.0841V831.4423A.3121,.3121 0 0 1 56.9044,831.1302z" fill="#fff" stroke="#000" stroke-linecap="round" stroke-linejoin="round" stroke-width="3.1321" transform="matrix(.91743,-.39789,0,1,0,0)"/>
<path d="M68.0964,837.0736H116.8102A2.893,2.893 0 0 1 119.7032,839.9666V869.8949A2.893,2.893 0 0 1 116.8102,872.7879H68.0964A2.893,2.893 0 0 1 65.2034,869.8949V839.9666A2.893,2.893 0 0 1 68.0964,837.0736z" fill="#fff" stroke="#000" stroke-linecap="round" stroke-linejoin="round" stroke-width="3.1321" transform="matrix(.91743,-.39789,0,1,0,0)"/>
<g transform="matrix(1,-.4337,0,1,-272.2798,726.58947)">
<path d="m357.5,181.0714-21.0714,41.7857" fill="none" stroke="#000"/>
<path d="m357.6215,181.0342 21.0714,41.7857" fill="none" stroke="#000"/>
<path d="m381.4286,150.8929c0,.6904-.7195,1.25-1.6071,1.25-.8876,0-1.6071,-.5596-1.6071,-1.25 0,-.6904 .7195,-1.25 1.6071,-1.25 .8876,0 1.6071,.5596 1.6071,1.25z" fill="#fff" stroke="#000" stroke-linecap="round" stroke-linejoin="round" stroke-width="3" transform="translate(-22.1429,30.7143)"/>
</g>
<path d="m53.3861,809.4126 7.5,2.8187" fill="none" stroke="#000"/>
<path d="m53.0902,854.3443 7.1429,-8.6335" fill="none" stroke="#000"/>
<path d="m110.5237,790.0199 6.6071,-8.7584" fill="none" stroke="#000"/>
<path d="m110.3757,823.237 5.8929,3.5157" fill="none" stroke="#000"/>
</g>
<text font-family="Sans" font-size="10.713" letter-spacing="0" line-height="562.5" transform="skewY(336.333)" word-spacing="0" x="359.2016" y="963.7649">
   <tspan font-weight="bold" text-align="center" text-anchor="middle" x="359.2016" y="963.7649">~</tspan>
   <tspan font-weight="bold" text-align="center" text-anchor="middle" x="359.2016" y="977.1564">sweet</tspan>
   <tspan font-weight="bold" text-align="center" text-anchor="middle" x="359.2016" y="990.5479">~</tspan>
  </text>
<path d="m761.3777,954.6286 103.1815,0" fill="none" stroke="#000"/>
<path d="m689.7265,694.8621 0,245.7143-108.5714,50.7143" fill="none" stroke="#000"/>
<path d="M897.0268,848.7417H1081.2599A10.8396,10.8396 0 0 1 1092.0995,859.5813V913.8722A10.8396,10.8396 0 0 1 1081.2599,924.7118H897.0268A10.8396,10.8396 0 0 1 886.1872,913.8722V859.5813A10.8396,10.8396 0 0 1 897.0268,848.7417z" stroke="#000" stroke-linecap="round" stroke-linejoin="round" stroke-width="3.2495" transform="matrix(.83324,0,-.78013,.2927,592.2568,711.29988)"/>
<path d="M889.2323,843.6788H1090.5679A7.4282,10.8396 0 0 1 1097.9961,854.5183V923.4512A7.4282,10.8396 0 0 1 1090.5679,934.2907H889.2323A7.4282,10.8396 0 0 1 881.8041,923.4512V854.5183A7.4282,10.8396 0 0 1 889.2323,843.6788z" stroke="#000" stroke-linecap="round" stroke-linejoin="round" stroke-width="3.2495" transform="matrix(.83324,0,-.78013,.2927,592.2568,711.29988)"/>
<path d="M636.4022,957.5939H636.4022A5.1786,5.1786 0 0 1 641.5808,962.7725V976.3439A5.1786,5.1786 0 0 1 636.4022,981.5225H636.4022A5.1786,5.1786 0 0 1 631.2236,976.3439V962.7725A5.1786,5.1786 0 0 1 636.4022,957.5939z" fill="#fff" stroke="#000" stroke-linecap="round" stroke-linejoin="round" stroke-width="3"/>
<path d="M771.4379,957.9868H771.4379A5.1786,5.1786 0 0 1 776.6165,963.1654V976.7368A5.1786,5.1786 0 0 1 771.4379,981.9154H771.4379A5.1786,5.1786 0 0 1 766.2593,976.7368V963.1654A5.1786,5.1786 0 0 1 771.4379,957.9868z" fill="#fff" stroke="#000" stroke-linecap="round" stroke-linejoin="round" stroke-width="3"/>
<path d="M816.9736,939.5939H816.9736A5.1786,5.1786 0 0 1 822.1522,944.7725V958.3439A5.1786,5.1786 0 0 1 816.9736,963.5225H816.9736A5.1786,5.1786 0 0 1 811.795,958.3439V944.7725A5.1786,5.1786 0 0 1 816.9736,939.5939z" fill="#fff" stroke="#000" stroke-linecap="round" stroke-linejoin="round" stroke-width="3"/>
<path d="M679.9736,940.6653H679.9736A5.1786,5.1786 0 0 1 685.1522,945.8439V959.4153A5.1786,5.1786 0 0 1 679.9736,964.5939H679.9736A5.1786,5.1786 0 0 1 674.795,959.4153V945.8439A5.1786,5.1786 0 0 1 679.9736,940.6653z" fill="#fff" stroke="#000" stroke-linecap="round" stroke-linejoin="round" stroke-width="3"/>
<g transform="matrix(.78777,0,0,.78777,599.18625,707.84533)">
<path d="M897.0268,848.7417H1081.2599A10.8396,10.8396 0 0 1 1092.0995,859.5813V913.8722A10.8396,10.8396 0 0 1 1081.2599,924.7118H897.0268A10.8396,10.8396 0 0 1 886.1872,913.8722V859.5813A10.8396,10.8396 0 0 1 897.0268,848.7417z" fill="#fff" stroke="#000" stroke-linecap="round" stroke-linejoin="round" stroke-width="3.2495" transform="matrix(1,0,-.93627,.35128,0,0)"/>
<path d="M892.6436,843.6788H1076.8768A10.8396,10.8396 0 0 1 1087.7164,854.5183V908.8093A10.8396,10.8396 0 0 1 1076.8768,919.6488H892.6436A10.8396,10.8396 0 0 1 881.8041,908.8093V854.5183A10.8396,10.8396 0 0 1 892.6436,843.6788z" fill="#fff" stroke="#000" stroke-linecap="round" stroke-linejoin="round" stroke-width="3.2495" transform="matrix(1,0,-.93627,.35128,0,0)"/>
<path d="M897.0268,848.7417H1081.2599A10.8396,10.8396 0 0 1 1092.0995,859.5813V913.8722A10.8396,10.8396 0 0 1 1081.2599,924.7118H897.0268A10.8396,10.8396 0 0 1 886.1872,913.8722V859.5813A10.8396,10.8396 0 0 1 897.0268,848.7417z" fill="#fff" stroke="#000" stroke-linecap="round" stroke-linejoin="round" stroke-width="3.2495" transform="matrix(1,0,-.93627,.35128,.35714,-3.10356)"/>
<path d="M892.6436,843.6788H1076.8768A10.8396,10.8396 0 0 1 1087.7164,854.5183V908.8093A10.8396,10.8396 0 0 1 1076.8768,919.6488H892.6436A10.8396,10.8396 0 0 1 881.8041,908.8093V854.5183A10.8396,10.8396 0 0 1 892.6436,843.6788z" fill="#fff" stroke="#000" stroke-linecap="round" stroke-linejoin="round" stroke-width="3.2495" transform="matrix(1,0,-.93627,.35128,.35714,-3.10356)"/>
<path d="M897.0268,848.7417H1081.2599A10.8396,10.8396 0 0 1 1092.0995,859.5813V913.8722A10.8396,10.8396 0 0 1 1081.2599,924.7118H897.0268A10.8396,10.8396 0 0 1 886.1872,913.8722V859.5813A10.8396,10.8396 0 0 1 897.0268,848.7417z" fill="#fff" stroke="#000" stroke-linecap="round" stroke-linejoin="round" stroke-width="3.2495" transform="matrix(1,0,-.93627,.35128,.62499,-6.63035)"/>
<path d="M892.6436,843.6788H1076.8768A10.8396,10.8396 0 0 1 1087.7164,854.5183V908.8093A10.8396,10.8396 0 0 1 1076.8768,919.6488H892.6436A10.8396,10.8396 0 0 1 881.8041,908.8093V854.5183A10.8396,10.8396 0 0 1 892.6436,843.6788z" fill="#fff" stroke="#000" stroke-linecap="round" stroke-linejoin="round" stroke-width="3.2495" transform="matrix(1,0,-.93627,.35128,.62499,-6.63035)"/>
</g>
<path d="M671.1154,1155.7998H723.2687A3.0109,3.0109 0 0 1 726.2796,1158.8107V1200.5186A3.0109,3.0109 0 0 1 723.2687,1203.5295H671.1154A3.0109,3.0109 0 0 1 668.1046,1200.5186V1158.8107A3.0109,3.0109 0 0 1 671.1154,1155.7998z" fill="#fff" stroke="#000" stroke-linecap="round" stroke-linejoin="round" stroke-width="3.1126" transform="matrix(.92897,-.37014,0,1,0,0)"/>
<path d="M674.1057,1157.5381H726.259A3.0109,3.0109 0 0 1 729.2699,1160.549V1202.2569A3.0109,3.0109 0 0 1 726.259,1205.2678H674.1057A3.0109,3.0109 0 0 1 671.0948,1202.2569V1160.549A3.0109,3.0109 0 0 1 674.1057,1157.5381z" fill="#fff" stroke="#000" stroke-linecap="round" stroke-linejoin="round" stroke-width="3.1126" transform="matrix(.92897,-.37014,0,1,0,0)"/>
<path d="m119.198,282.6935a52.2754,16.2887 0 1 1 -104.5508,0 52.2754,16.2887 0 1 1 104.5508,0z" fill="#fff" stroke="#000" stroke-linecap="round" stroke-linejoin="round" stroke-width="3" transform="matrix(.59838,-.3161,.28511,.66342,539.53061,769.86145)"/>
<g transform="matrix(.51148,-.46605,.46605,.51148,577.97678,700.34067)">
<path d="m-43.5297,288.8057 0,47.8884c0,20.007-16.1067,36.1137-36.1137,36.1137l-35.434,0c-20.007,0-36.1137,-16.1067-36.1137,-36.1137l0,-47.8884" fill="#fff" stroke="#000" stroke-linecap="round" stroke-linejoin="round" stroke-width="3.6422"/>
<path d="M-122.1431,308.6171H-98.6091A.7803,.7803 0 0 1 -97.8288,309.3974V319.4235A.7803,.7803 0 0 1 -98.6091,320.2038H-122.1431A.7803,.7803 0 0 1 -122.9234,319.4235V309.3974A.7803,.7803 0 0 1 -122.1431,308.6171z" stroke="#000" stroke-linecap="square" stroke-linejoin="round" stroke-width="3.7338"/>
<path d="M-80.7522,308.6171H-60.3393A2.3409,2.3409 0 0 1 -57.9985,310.958V317.8629A2.3409,2.3409 0 0 1 -60.3393,320.2038H-80.7522A2.3409,2.3409 0 0 1 -83.093,317.8629V310.958A2.3409,2.3409 0 0 1 -80.7522,308.6171z" stroke="#000" stroke-linecap="square" stroke-linejoin="round" stroke-width="3.7338"/>
<path d="m-148.8829,313.6717c.5492,.0105 1.0986,.007 1.6478,.004 .363,-.002 .7259,-.004 1.0889,-.004 .2925,-4.3e-4 .585,-4e-4 .8775,-4e-4 .304,-6.3e-4 .6081,6e-4 .9121,10e-4 .3906,-.01 .7752,-3.7e-4 1.162,.0507 .3996,.0545 .8031,.0717 1.2062,.0827 .4052,-.0158 .8029,.0589 1.204,.099 .4079,.0368 .818,.0407 1.2274,.045 .4301,.002 .8603,.002 1.2904,6.5e-4 .3736,-7.6e-4 .7472,-10e-4 1.1208,-.002 .307,-7.7e-4 .6141,-9.8e-4 .9211,-10e-4 .2915,-8e-5 .583,-7e-5 .8745,-6e-5 .2915,1e-5 .5831,1e-5 .8746,1e-5 .3187,-3.9e-4 .6374,5.3e-4 .9561,.002 .3943,.002 .7885,4.4e-4 1.1828,-6.3e-4 .3709,-2.7e-4 .7418,4.7e-4 1.1126,10e-4 .3967,-1.7e-4 .7934,-8e-5 1.1902,-10e-4 .38,1.9e-4 .7599,7.4e-4 1.1399,1.6e-4 .3456,-.001 .6912,-.002 1.0367,2.5e-4 .5332,.003 1.0664,.004 1.5996,.006 .7266,.003 1.4533,.003 2.1799,.001 .5332,-.001 1.0664,-.005 1.5997,-.005 .4413,6.5e-4 .8826,-2e-5 1.3239,-.002 .0611,-2e-4 .1222,-4e-4 .1833,-6e-4l-1.746,1.1993c-.0605,-2.1e-4-.121,-4.1e-4-.1815,-6.1e-4-.4399,-.002-.8797,-.002-1.3196,-.002-.528,-2.2e-4-1.0559,-.004-1.5839,-.005-.7276,-.002-1.4552,-.002-2.1828,9.9e-4-.5391,.002-1.0782,.003-1.6173,.006-.3458,.002-.6916,.002-1.0375,2.6e-4-.3801,-5.7e-4-.7602,-3e-5-1.1404,1.5e-4-.3957,-9.9e-4-.7914,-8.9e-4-1.187,-.001-.3723,.001-.7447,.002-1.117,.002-.3937,-10e-4-.7873,-.003-1.181,-6.3e-4-.3206,.001-.6411,.002-.9617,.002-.2915,0-.5831,0-.8747,0-.2914,0-.5829,2e-5-.8743,-6e-5-.306,-1.3e-4-.612,-3.5e-4-.918,-9.6e-4-.372,-6.9e-4-.744,-8.4e-4-1.1161,-8.8e-4-.4302,-8.3e-4-.8603,7e-4-1.2904,-.004-.4148,-.006-.8303,-.0145-1.2428,-.0595-.3968,-.0446-.792,-.0972-1.193,-.0869-.4078,-.0152-.8149,-.0435-1.2193,-.0968-.382,-.0404-.7654,-.0292-1.1493,-.0278-.3051,5.6e-4-.6103,.002-.9155,.001-.2921,10e-6-.5842,3e-5-.8763,-4e-4-.3589,-6.7e-4-.7177,-.002-1.0765,-.004-.5532,-.003-1.1065,-.006-1.6597,.004l1.7494,-1.2016z" stroke="#000" stroke-linecap="square" stroke-linejoin="round" stroke-width=".4767"/>
<path d="m-57.3881,313.9484c.7039,.0118 1.4079,.0102 2.1119,.01 .6452,-8.9e-4 1.2905,-.003 1.9357,-.006 .4312,-.002 .8624,-.002 1.2935,-.003 .3398,-8.1e-4 .6796,-.002 1.0194,-.002 .2968,.0217 .5821,-.0575 .8738,-.0956 .2926,-.0341 .5877,-.039 .8821,-.0425 .2922,-.002 .5843,-10e-4 .8765,-8.4e-4 .2918,4e-4 .5836,5.3e-4 .8754,6.1e-4 .2918,5e-5 .5836,5e-5 .8754,5e-5 .2918,0 .5836,0 .8754,0 .3133,-6.1e-4 .6266,10e-4 .9398,10e-4 .3172,-2.5e-4 .6345,-6.9e-4 .9517,-9.3e-4 .2938,-1.8e-4 .5877,-2e-4 .8815,-2.1e-4 .1943,-1e-5 .0972,-1e-5 .2915,-1e-5l-1.7509,1.2027c-.1943,0-.0971,0-.2914,0-.2936,-2e-5-.5872,-4e-5-.8808,-2.2e-4-.3164,-2.3e-4-.6327,-6.8e-4-.9491,-9.3e-4-.3144,4e-5-.6287,.002-.9431,10e-4-.2918,1e-5-.5836,1e-5-.8754,1e-5-.2918,-1e-5-.5836,-1e-5-.8754,-1.2e-4-.2918,-1.3e-4-.5837,-3.7e-4-.8755,-7.2e-4-.2913,-2.3e-4-.5826,-10e-4-.8738,.004-.2893,.007-.5791,.0195-.8653,.0636-.2961,.0453-.5905,.0907-.8921,.0705-.3377,-4.3e-4-.6755,-10e-4-1.0132,-.002-.4283,-5.4e-4-.8565,-6.3e-4-1.2848,-.003-.6398,-.003-1.2796,-.005-1.9195,-.006-.7134,-4.8e-4-1.4269,-.002-2.1402,.01l1.747,-1.2z" stroke="#000" stroke-linecap="square" stroke-linejoin="round" stroke-width=".4767"/>
<path d="m-97.681,314.1116c.5339,.0676 1.0726,.0889 1.6105,.1048 .4801,.0116 .9604,.0116 1.4405,.0103 .3964,-5e-4 .7929,-6.3e-4 1.1893,-.002 .7958,.0205 1.592,.0104 2.3879,.007 .4809,-.004 .9619,-.005 1.4428,-.007 .3835,3e-5 .767,-4.2e-4 1.1506,6e-4 .4032,.001 .8064,-9.5e-4 1.2096,-3.1e-4 .3638,-8.6e-4 .7277,-7.6e-4 1.0915,-6.6e-4 .3644,5.6e-4 .7288,2.2e-4 1.0931,-5.1e-4 .3481,.001 .6961,1.1e-4 1.0442,-4.5e-4 .3406,.001 .6811,4.5e-4 1.0217,-4e-5 .3008,-4.3e-4 .6016,-5.6e-4 .9024,-6.3e-4 .2516,.0585 .5047,.1006 .7628,.1209 .2799,.0172 .5606,.0173 .8409,.018 .2917,1.9e-4 .5833,-3.9e-4 .875,-6.8e-4 .146,-1.4e-4 .292,-2e-4 .4381,-2.6e-4l-1.7508,1.2027c-.146,10e-5-.292,1.9e-4-.438,3.5e-4-.292,3.2e-4-.584,.001-.876,-3.9e-4-.2852,-.002-.5709,-.005-.8549,-.0331-.2506,-.0294-.496,-.0897-.7478,-.105-.3002,-8e-5-.6004,-2e-4-.9006,-6.3e-4-.3405,-4.8e-4-.681,-.001-1.0215,-5e-5-.3476,-5.5e-4-.6953,-.002-1.0429,-4.4e-4-.3639,-7.3e-4-.7278,-10e-4-1.0916,-5.1e-4-.3632,1.1e-4-.7264,1.9e-4-1.0895,-6.6e-4-.4029,6.4e-4-.8058,-.002-1.2087,-3.1e-4-.3841,.001-.7682,5.8e-4-1.1523,6e-4-.4742,-.002-.9483,-.003-1.4224,-.007-.8027,-.004-1.6058,-.0132-2.4083,.007-.3958,-4.3e-4-.7915,4.6e-4-1.1873,-3.6e-4-.4785,-.003-.957,-.007-1.4353,-.0226-.5477,-.0212-1.0947,-.0538-1.64,-.107l1.7673,-1.1825z" stroke="#000" stroke-linecap="square" stroke-linejoin="round" stroke-width=".4767"/>
<path d="m-136.1855,276.2983 0,18.5432" fill="none" stroke="#000" stroke-linecap="round" stroke-width="4.8046"/>
<path d="m-126.6615,274.544 0,18.5432" fill="none" stroke="#000" stroke-linecap="round" stroke-width="4.8046"/>
<path d="m-117.7245,276.0083 0,18.5432" fill="none" stroke="#000" stroke-linecap="round" stroke-width="4.8046"/>
<path d="m-106.0478,274.841 0,18.5432" fill="none" stroke="#000" stroke-linecap="round" stroke-width="4.8046"/>
<path d="m-95.8892,277.0276 0,18.5432" fill="none" stroke="#000" stroke-linecap="round" stroke-width="4.8046"/>
<path d="m-84.2599,276.8522 0,18.5432" fill="none" stroke="#000" stroke-linecap="round" stroke-width="4.8046"/>
<path d="m-73.7574,275.1381 0,18.5432" fill="none" stroke="#000" stroke-linecap="round" stroke-width="4.8046"/>
<path d="m-63.8419,278.175 0,18.5432" fill="none" stroke="#000" stroke-linecap="round" stroke-width="4.8046"/>
<path d="m-53.169,277.8063 0,18.5432" fill="none" stroke="#000" stroke-linecap="round" stroke-width="4.8046"/>
<path d="m-105.8017,352.8807 27.1229,-4.4282" fill="none" stroke="#000" stroke-width=".7749"/>
<path d="m-144.0697,281.0285 0,18.5432" fill="none" stroke="#000" stroke-linecap="round" stroke-width="4.8046"/>
</g>
<path d="m719.3278,921.4111 108.7375,13.5714c4.4206,0 1.1527,6.7083-2.4471,9.274l-11.5628,4.4446-14.9112,5.1794c-3.5998,2.5656-24.6996,7.8454-29.1201,7.8454l-94.0947,-.3571c-4.4206,0-7.2241,-9.5655-3.6243,-12.1311l32.5454,-23.1954c3.5998,-2.5656 10.0567,-4.6311 14.4773,-4.6311z" fill="#fff" stroke="#000" stroke-linecap="round" stroke-linejoin="round" stroke-width="1.6996"/>
<text font-family="Bitstream Vera Sans" font-size="20" x="738.045" y="847.2725">
   <tspan x="738.045" y="847.2725">Hmm...</tspan>
  </text>
<path d="m740.0479,857.8862-18.5714,26.4286" fill="none" stroke="#000"/>
<g transform="matrix(1.20001,0,0,1.20001,536.74327,-162.64064)">
<path d="M56.9044,831.1302H128.408A.3121,.3121 0 0 1 128.7202,831.4423V878.0841A.3121,.3121 0 0 1 128.408,878.3963H56.9044A.3121,.3121 0 0 1 56.5923,878.0841V831.4423A.3121,.3121 0 0 1 56.9044,831.1302z" fill="#fff" stroke="#000" stroke-linecap="round" stroke-linejoin="round" stroke-width="3.1321" transform="matrix(.91743,-.39789,0,1,0,0)"/>
<path d="M68.0964,837.0736H116.8102A2.893,2.893 0 0 1 119.7032,839.9666V869.8949A2.893,2.893 0 0 1 116.8102,872.7879H68.0964A2.893,2.893 0 0 1 65.2034,869.8949V839.9666A2.893,2.893 0 0 1 68.0964,837.0736z" fill="#fff" stroke="#000" stroke-linecap="round" stroke-linejoin="round" stroke-width="3.1321" transform="matrix(.91743,-.39789,0,1,0,0)"/>
<g transform="matrix(1,-.4337,0,1,-272.2798,726.58947)">
<path d="m357.5,181.0714-21.0714,41.7857" fill="none" stroke="#000"/>
<path d="m357.6215,181.0342 21.0714,41.7857" fill="none" stroke="#000"/>
<path d="m381.4286,150.8929c0,.6904-.7195,1.25-1.6071,1.25-.8876,0-1.6071,-.5596-1.6071,-1.25 0,-.6904 .7195,-1.25 1.6071,-1.25 .8876,0 1.6071,.5596 1.6071,1.25z" fill="#fff" stroke="#000" stroke-linecap="round" stroke-linejoin="round" stroke-width="3" transform="translate(-22.1429,30.7143)"/>
</g>
<path d="m53.3861,809.4126 7.5,2.8187" fill="none" stroke="#000"/>
<path d="m53.0902,854.3443 7.1429,-8.6335" fill="none" stroke="#000"/>
<path d="m110.5237,790.0199 6.6071,-8.7584" fill="none" stroke="#000"/>
<path d="m110.3757,823.237 5.8929,3.5157" fill="none" stroke="#000"/>
</g>
<text font-family="Sans" font-size="10.713" letter-spacing="0" line-height="562.5" transform="skewY(336.333)" word-spacing="0" x="640.6302" y="1089.9661">
   <tspan font-weight="bold" text-align="center" text-anchor="middle" x="640.6302" y="1089.9661">~</tspan>
   <tspan font-weight="bold" text-align="center" text-anchor="middle" x="640.6302" y="1103.3575">sweet</tspan>
   <tspan font-weight="bold" text-align="center" text-anchor="middle" x="640.6302" y="1116.749">~</tspan>
  </text>
<path d="M180.7143,243.5714 160,275" fill="none" stroke="#000" transform="translate(0,602.3622)"/>
<g transform="matrix(.79468,-.60703,.60703,.79468,-459.1603,432.41861)">
<path d="M425.7143,895.9336H432.1428A4.2857,4.2857 0 0 1 436.4286,900.2193V917.7193A4.2857,4.2857 0 0 1 432.1428,922.005H425.7143A4.2857,4.2857 0 0 1 421.4286,917.7193V900.2193A4.2857,4.2857 0 0 1 425.7143,895.9336z" stroke="#000" stroke-width="3"/>
<path d="m441.0714,312.8571c0,4.1421-3.3579,7.5-7.5,7.5-4.1421,0-7.5,-3.3579-7.5,-7.5 0,-4.1421 3.3579,-7.5 7.5,-7.5 4.1421,0 7.5,3.3579 7.5,7.5z" fill="#fff" stroke="#000" stroke-width="3" transform="translate(0,602.3622)"/>
</g>
</g>
</svg>
