<svg version="1.1" viewBox="0 0 900 450" xmlns="http://www.w3.org/2000/svg" xmlns:svg="http://www.w3.org/2000/svg">
<g transform="translate(0,-602.3622)">
<path d="M51.5725,683.761H832.5745A31.621,31.621 0 0 1 864.1955,715.382V963.7309A31.621,31.621 0 0 1 832.5745,995.3519H51.5725A31.621,31.621 0 0 1 19.9515,963.7309V715.382A31.621,31.621 0 0 1 51.5725,683.761z" fill="#fff" stroke="#000" stroke-linecap="round" stroke-width="7.4907"/>
<path d="m21.1036,921.4909 840.4469,0" fill="none" stroke="#000"/>
<path d="m298.7233,679.7794 0,313.2703" fill="none" stroke="#000" stroke-width="5.6728"/>
<path d="m841.5893,1014.0217c.4393,.5102 1.0355,.5714 1.6702,.6073 .8029,-.022 1.6072,-.2138 2.3575,-.4993 .4009,-.1526 .6224,-.2825 .9965,-.4789-2.2387,1.3097-.9924,.6082-.5738,.1636 .2168,-.2303 .3463,-.473 .4686,-.7606 .3177,-.895 .3589,-1.8574 .4131,-2.7971 .1056,-1.3679-.1776,-2.7109-.4825,-4.0351-.3709,-1.393-.8746,-2.7467-1.4294,-4.0758-.2656,-.6279-.5661,-1.24-.8587,-1.8555-.3944,-.7567-.717,-.2868 1.5104,-1.1508 .0768,-.03 .0919,.1367 .1411,.2027 .0824,.1106 .1689,.2179 .2534,.3269 .8217,1.1276 1.8098,2.1155 2.8001,3.0928 .5826,.5674 1.2074,1.0941 1.7645,1.6874 .2114,.1726 .3378,.416 .508,.6229 .1662,.1502 .2962,-.01 .4431,-.1106-2.5656,1.5384-1.6519,1.0412-1.16,.5694 .1937,-.1857 .3764,-.3843 .5619,-.5781 .2632,-.2626 .5127,-.5438 .801,-.7804 .761,-.6244 1.8227,-1.1234 2.6097,-1.5711 .7271,-.3211 1.471,-.6005 2.2265,-.8467 .1563,-.034 .761,-.2665 .899,-.1093 .0321,.037 .0451,.086 .0677,.1294 .003,.044 .0154,.089 .009,.1323-.0436,.3196-.5385,.6915-.7545,.8904-.9928,.8207-1.9561,1.6745-2.8731,2.5792-.7976,.8557-1.6216,1.7004-2.2566,2.6874-.3921,.6165-.6005,1.2972-.6984,2.0144-.0648,.6415-.0542,1.2873-.0532,1.9312 .0351,.6998 .1244,1.4011 .3328,2.0715 .1195,.3571 .3319,.6194 .6717,.7762 .2255,.08 .4837,.1318 .7238,.087 .0559,-.011 .5216,-.1684 .5589,-.1808 .5492,-.2997 1.8756,-1.0005-.6067,.3598-.0982,.054 .1891,-.1201 .2821,-.1824 .2138,-.143 .2651,-.1851 .4657,-.3346 .2405,-.18 .1266,-.092 .3424,-.2617l1.7191,-.6913c-.2178,.1831-.1012,.092-.3516,.2719-1.0139,.7828-2.137,1.4308-3.3009,1.9611-.5107,.1524-.8878,.2254-1.3851,-.01-.3662,-.2066-.6055,-.5062-.7343,-.9112-.2041,-.6903-.2811,-1.409-.3481,-2.1238-.004,-.6502-.0146,-1.3021 .038,-1.9509 .0928,-.7431 .2887,-1.4524 .6884,-2.0955 .0802,-.1333 .153,-.2712 .2404,-.3997 .1797,-.264 .4481,-.5661 .6529,-.8036 .4526,-.5248 .9157,-1.0402 1.3938,-1.5419 .8918,-.8997 1.8318,-1.7498 2.8066,-2.5592 .2761,-.2564 .5618,-.5063 .8001,-.7993 .0396,.021-.0878,.017-.1321,.024-.221,.031-.4338,.1-.6466,.1641-.7471,.2466-1.4866,.5202-2.1959,.8624 2.4446,-1.4457 .9748,-.6248 .497,-.2572-.291,.2239-.54,.5004-.7953,.7622-.9257,.9765-.9789,1.08-2.5451,1.8884-.2567,.1212-.4002,.1068-.6009,-.1041-.1584,-.2095-.2853,-.4431-.481,-.6233-.5334,-.6025-1.1282,-1.1492-1.6932,-1.7213-.9808,-.9983-1.9768,-1.9849-2.8496,-3.0818-.0938,-.1054-.1877,-.2107-.2814,-.3162-.0521,-.059-.2154,-.1251-.1559,-.1761 1.4141,-1.214 1.334,-1.5318 1.6993,-.7303 .2757,.628 .5663,1.2498 .8171,1.8885 .5249,1.3529 1.0089,2.7231 1.4053,4.1197 .3185,1.3302 .6335,2.6815 .5419,4.06-.0362,.9485-.0918,1.9144-.3493,2.8318-.0847,.2347-.1139,.3545-.249,.5692-.5939,.9436-1.8747,1.3891-2.7166,1.9248-1.0714,.5265-2.2113,.8989-3.4172,.9043-.1676,-.014-.3365,-.016-.5029,-.04-.4955,-.073-.9575,-.2895-1.3004,-.6569l1.6003,-.9608z" stroke="#000" stroke-linecap="round" stroke-linejoin="round" stroke-width=".2515"/>
<path d="m856.954,1011.8649c-.7394,.2071-2.342,1.1965 .4555,-.4044-.388,.2065-.6184,.5425-.7999,.9302-.1036,.3106-.2142,.6511-.1917,.9845 .0156,.2306 .0756,.3465 .154,.562 .3071,.6068 .7795,1.1058 1.3399,1.4838 .4137,.2881 .8839,.4192 1.383,.4252 .3851,-.087 .7431,-.2375 1.0957,-.4123 .1503,-.075 .5909,-.3179 .4467,-.2321-1.6618,.9893-1.2456,.7222-.6575,.3195 .4842,-.373 1.0105,-.8057 1.1352,-1.4399 .0174,-.089 .0162,-.1799 .0243,-.2698-.032,-.7933-.5333,-1.4143-1.0169,-2.0008-.3049,-.3393-.6501,-.6629-1.0669,-.861-.2115,-.1006-.32,-.1184-.544,-.1779-.4519,-.025-.9255,.018-1.3546,.1741-.1984,.072-.499,.2393-.6834,.3368 2.5132,-1.5077 .8665,-.5123 .3482,-.062l-1.7106,.6997c.796,-.7657 1.8589,-1.2168 2.7842,-1.7768 .2686,-.1306 .4271,-.2209 .7141,-.308 .4568,-.1387 .9485,-.1711 1.419,-.1018 .2419,.077 .34,.097 .5672,.2178 .4231,.2254 .772,.5679 1.084,.9255 .5088,.6264 1.0253,1.2756 1.1028,2.1094-.004,.1012 .002,.2032-.0112,.3036-.0928,.6824-.6005,1.1675-1.1167,1.5707-1.0013,.7187-.4882,.3709-2.4236,1.4672-.5043,.2856-1.0559,.5275-1.6351,.5951-.5218,-.046-1.0072,-.1999-1.4323,-.5166-.5749,-.4193-1.0583,-.9487-1.3949,-1.5794-.0786,-.2055-.1678,-.4012-.1946,-.6229-.0421,-.3472 .0735,-.7121 .1572,-1.043 .1608,-.4085 .3649,-.7958 .7491,-1.0357 .9031,-.5198 1.7482,-1.1163 2.7557,-1.3944l-1.4819,1.1332z" stroke="#000" stroke-linecap="round" stroke-linejoin="round" stroke-width=".2515"/>
<path d="m864.7502,1012.6194c-.3203,.1024-.653,.1903-.9574,.3362-.1022,.049-.1982,.1101-.2973,.1651 .4207,-.2356 .8414,-.4712 1.2621,-.7068-.4994,.337-.87,.6738-1.0934,1.2386-.1462,.4653-.0761,.8587 .2923,1.2028 .0889,.083 .1935,.1478 .2903,.2216 .7042,.4046 1.5378,.5494 2.3444,.4638 .2312,-.024 .458,-.081 .687,-.1208 .53,-.1368 .7609,-.1749 1.2586,-.3838 .1651,-.069 .635,-.3304 .4812,-.2386-2.2382,1.3365-1.2251,.7542-.8736,.3984 .0779,-.079 .1399,-.1722 .2098,-.2583 .3065,-.4795 .3144,-.9061 .0985,-1.417-.0396,-.09-.268,-.5604-.4291,-.4586-.0279,.018-.042,.051-.063,.076 2.5422,-1.4497 1.5743,-1.2073 1.3278,-.5008-.1064,.3049-.125,.6013-.1396,.9215 .1766,1.4863 .8332,2.8626 1.3726,4.2435 .6559,1.8244 1.2881,3.7176 1.3609,5.6745 .0145,.3894-.0234,.779-.0352,1.1686-.0582,.3745-.0908,.7539-.1745,1.1236-.2732,1.2059-.8948,2.3097-1.8179,3.137-.1627,.1458-.3469,.2657-.5204,.3986-.6941,.3626-1.3545,.7991-2.0824,1.0879-.3018,.1197-1.0302,-.13-1.269,-.2365-.8875,-.3956-1.654,-1.0455-2.408,-1.6406-1.2719,-1.0888-2.5172,-2.2246-3.6551,-3.4553-.5895,-.6376-.7352,-.8522-1.2473,-1.5117-.4358,-.7271-.9494,-1.5701-.521,-2.4271 .2535,-.5072 .5596,-.6912 .9842,-1.0605 1.2727,-.8247 1.3769,-.9187 3.2195,-1.8517 .4497,-.2278 1.9,-.7427 2.3438,-.8976 .8851,-.3088 1.8369,-.6147 2.7269,-.9055 2.3381,-.6745 4.6281,-1.4959 6.8915,-2.3865 .1921,-.082 .3845,-.1627 .5764,-.245 .1466,-.063 .2943,-.1233 .439,-.1903 .2958,-.1371 .5721,-.3067 .8773,-.4229 .4138,-.059 .559,.4391 .6828,.7418 .2853,.7705 .446,1.5785 .5154,2.3954 .0171,.366 .029,.7336-.0228,1.0975-.005,.037 .0139,.095-.0201,.1109-.5544,.2582-1.1333,.4601-1.6999,.6901 .001,-.1125-.005,-.2255 .004,-.3377 .0133,-.1633 .0414,-.325 .063,-.4874 .1257,-.9479 .2903,-1.8832 .4832,-2.8196 .1955,-.8168 .3644,-1.6723 .8312,-2.3853 .5286,-.5535 1.7043,-1.6447 2.2768,-1.0096 .06,.066 .1019,.1472 .1529,.2208 .112,.1981 .2088,.3486 .2821,.5681 .2061,.6171 .2986,1.3405 .4077,1.9824 .1424,.5555 .0881,1.2207 .2567,1.7654 .2229,-.5987-.002,.028-1.6032,.7911-.0325,.016 .0489,-.053 .0671,-.084 .0417,-.071 .1233,-.2801 .1551,-.3443 .0434,-.088 .0929,-.1719 .1393,-.2578 .3011,-.4825 .556,-.9925 .8877,-1.4553 .5547,-.695 1.0736,-.8467 2.0338,-1.3743 .0329,-.018 .0773,-.01 .1126,.01 .045,.016 .08,.053 .12,.079 .3755,.395 .5063,.9539 .6331,1.4682 .1102,.5601 .1692,1.1313 .374,1.667 .0499,.07 .0906,.1479 .1496,.2106 .4298,.457 1.1407,.7985 1.727,.9843 .2206,.07 .4479,.1166 .6718,.1749 .9481,.2366 1.8995,.2484 2.8425,-.011 .2087,-.057 .4184,-.1173 .6161,-.2054 .1842,-.082 .3491,-.2019 .5237,-.3029-.3631,.1874-.6996,.4397-1.0894,.5622-.1503,.047 .2339,-.2118 .3412,-.3272 .3164,-.3401 .4973,-.7183 .6246,-1.1582 .0873,-.3664 .0858,-.7428 .0757,-1.1166-.1021,-.7716-.7838,-.012 1.5762,-.9706 .043,-.018-.0252,.089-.0325,.1353-.0105,.067-.0137,.1342-.0206,.2013-.0335,.608-.0474,1.2173 .0202,1.823 .0688,.3897 .1433,.7878 .4487,1.0613 .2149,.1415 .443,.1511 .6803,.073 .5712,-.2882 1.4287,-.7883-1.1689,.6782-.0922,.052 .1782,-.1143 .2658,-.1737l1.729,-.6875c-.1338,.1099-.1095,.099-.2632,.1885-.5841,.3415-1.3074,.9119-2.0466,1.1199-.2885,.031-.5575,-.032-.7831,-.2236-.314,-.3274-.4165,-.7448-.4864,-1.185-.0743,-.6127-.0594,-1.2282-.0514,-1.8445 .002,-.082 .01,-.3683 .0155,-.3721 1.2231,-.8124 1.6186,-1.5813 1.7738,-.6732 .009,.3928 .009,.788-.0729,1.1745-.4026,1.604-1.4656,1.9694-2.9269,2.8345-.1797,.091-.3518,.1981-.539,.2718-1.1255,.4432-2.3519,.4076-3.5096,.1301-.2313,-.061-.4661,-.1105-.6938,-.184-.5824,-.188-1.4014,-.59-1.8309,-1.0418-.0707,-.074-.1217,-.1655-.1826,-.2482-.2042,-.5463-.263,-1.1251-.3681,-1.696-.1059,-.4424-.211,-.9895-.5766,-1.2965-.0863,.011-.0417,0-.1309,.047 .494,-.2932 .9881,-.5865 1.4821,-.8797 .0418,-.024-.0765,.059-.1115,.092-.088,.083-.1593,.1828-.2543,.2588-.3546,.4458-.6103,.9514-.9065,1.4362-.1113,.1906-.2033,.372-.2742,.581-.0144,.043 .002,.1065-.037,.1297-1.6718,1.0056-1.301,1.4123-1.7676,.8263-.1403,-.5915-.0684,-1.2195-.2051,-1.8138-.1337,-.8319-.2366,-1.7229-.6888,-2.4507-.0786,-.095-.1124,-.1812-.2373,-.2043-.0338,-.01-.1319,.028-.1027,.01 .4848,-.3029 .9881,-.5749 1.4781,-.8692 .044,-.026-.0961,.038-.1396,.065-.0513,.032-.0953,.075-.1429,.1121-.5512,.6573-.7174,1.5447-.9403,2.3499-.2511,1.1608-.4667,2.3381-.5021,3.5279-.5413,.3318-1.0717,.6821-1.624,.9953-.0304,.017 .0302,-.063 .04,-.097 .1011,-.3479 .0723,-.7161 .0723,-1.073-.0467,-.7985-.196,-1.5926-.501,-2.3352-.0582,-.1343-.1651,-.5237-.3687,-.5375-.0472,0-.1338,.034-.1714,.048-.6021,.2681-1.1868,.5757-1.8125,.79-2.2433,.8437-4.5057,1.6345-6.8063,2.3092-1.3354,.4418-2.6801,.8688-3.988,1.3886-.3765,.1496-.7211,.3958-1.1182,.4762-.2039,.041 .7012,-.4449 .5142,-.3538-.2728,.1328-.5155,.32-.7733,.48-.4814,.3865-1.0718,.7863-1.1859,1.4525-.1123,.6558 .3053,1.2621 .5878,1.8057 .1747,.2387 .3409,.4838 .524,.716 1.2506,1.586 2.7724,2.9468 4.3216,4.2314 .7601,.5675 1.5353,1.2021 2.4338,1.5462 .2074,.08 .4249,.1396 .6456,.1642 .1883,.021 .6695,-.1887 .5676,-.029-.2124,.3325-.6509,.446-.9763,.669 .1821,-.1272 .3749,-.2403 .5464,-.3815 .9528,-.7839 1.6207,-1.8661 1.9179,-3.062 .0903,-.3634 .1256,-.7382 .1884,-1.1073 .0181,-.3842 .0641,-.7681 .0543,-1.1526-.0495,-1.9411-.7079,-3.8142-1.3712,-5.6146-.5628,-1.3919-1.2476,-2.7639-1.4927,-4.2575-.008,-.3536 3.7e-4,-.6227 .086,-.9648 .005,-.019 .0997,-.3596 .142,-.3887 .5428,-.3739 1.1209,-.6937 1.6814,-1.0405 .0426,0 .0866,0 .1279,.01 .2648,.072 .3917,.4009 .5024,.6157 .2357,.5565 .268,1.0516-.0318,1.5983-.068,.097-.1268,.202-.2041,.2923-.5521,.6452-1.6564,1.098-2.2184,1.4107-.5375,.2991-1.1558,.4269-1.747,.5654-.2367,.036-.4715,.087-.7101,.1065-.852,.069-1.7224,-.083-2.4498,-.5408-.1044,-.083-.2169,-.1575-.3133,-.25-.4073,-.3914-.5345,-.8233-.3997,-1.3636 .2032,-.6461 .5218,-.9588 1.0648,-1.3565 1.0479,-.6191 1.9953,-1.302 3.1758,-1.5918l-1.4819,1.1332z" stroke="#000" stroke-linecap="round" stroke-linejoin="round" stroke-width=".2515"/>
<path d="m866.3164,1011.5015c.3537,-.172 .6913,-.3752 1.0561,-.5235 .2286,-.1485 .4794,-.217 .7469,-.2463 .246,-.019 .4931,-.016 .7396,-.015 .2447,-.026 .452,.041 .667,.1458 .1505,.1206 .2692,.2808 .3835,.4358 .0994,.1805 .1578,.383 .2189,.5797 .0548,.2016 .1295,.3942 .169,.6001 .038,.2418 .0406,.4871 .0436,.7313 10e-4,.1259 8.9e-4,.2518 8.9e-4,.3777l-1.662,.8466c1.3e-4,-.1253 3.8e-4,-.2505-1.3e-4,-.3758-.002,-.2343-.002,-.4696-.0316,-.7024-.0328,-.2008-.1062,-.3854-.1597,-.5802-.0519,-.177-.1078,-.3572-.1882,-.5221-.0978,-.1283-.193,-.2748-.3336,-.3578-.1975,-.086-.4034,-.091-.6168,-.082-.2413,0-.4842,-10e-5-.7231,.039-.2526,.054-.4803,.1622-.7103,.2776-.3579,.1664-.704,.3572-1.0509,.5451l1.4507,-1.1736z" stroke="#000" stroke-linecap="round" stroke-linejoin="round" stroke-width=".2515"/>
<path d="M49.9857,651.0498H301.1496A15.6552,15.6552 0 0 1 316.8048,666.705V666.705A15.6552,15.6552 0 0 1 301.1496,682.3602H49.9857A15.6552,15.6552 0 0 1 34.3305,666.705V666.705A15.6552,15.6552 0 0 1 49.9857,651.0498z" fill="#fff" stroke="#000" stroke-linecap="round" stroke-linejoin="round" stroke-width="4.5094" transform="matrix(1,-.00315,.00315,1,0,0)"/>
<path d="m101.5203,44.9288a36.8706,34.8503 0 1 1 -73.7411,0 36.8706,34.8503 0 1 1 73.7411,0z" stroke="#000" stroke-linecap="round" stroke-linejoin="round" stroke-width="7.491" transform="matrix(1.24255,-.00391,.00217,.68917,-21.74056,628.09092)"/>
<text font-family="Bitstream Vera Sans" font-size="40" transform="matrix(1,-.00315,.00315,1,0,0)" x="22.0108" y="673.898">
   <tspan fill="#f9f9f9" x="22.0108" y="673.898">194</tspan>
  </text>
<text font-family="Bitstream Vera Sans" font-size="20" transform="matrix(1,-.00315,.00315,1,0,0)" x="142.0288" y="673.0781">
   <tspan x="142.0288" y="673.0781">Bibliothèque</tspan>
  </text>
<path d="m210.3571,349.8214a40.5357,2.8571 0 1 1 -81.0714,0 40.5357,2.8571 0 1 1 81.0714,0z" stroke="#000" stroke-width="4" transform="matrix(1.21804,0,0,1.21804,150.52385,526.24276)"/>
<path d="m407.6274,873.4702 0,44.2186c0,18.4738-14.8724,33.3462-33.3462,33.3462l-32.7186,0c-18.4738,0-33.3462,-14.8724-33.3462,-33.3462l0,-44.2186" fill="#fff" stroke="#000" stroke-linecap="round" stroke-linejoin="round" stroke-width="3.3631"/>
<path d="M335.0383,891.7635H356.7688A.7205,.7205 0 0 1 357.4893,892.484V901.7417A.7205,.7205 0 0 1 356.7688,902.4622H335.0383A.7205,.7205 0 0 1 334.3178,901.7417V892.484A.7205,.7205 0 0 1 335.0383,891.7635z" stroke="#000" stroke-linecap="square" stroke-linejoin="round" stroke-width="3.4477"/>
<path d="M373.2574,891.7635H392.1059A2.1615,2.1615 0 0 1 394.2674,893.925V900.3008A2.1615,2.1615 0 0 1 392.1059,902.4622H373.2574A2.1615,2.1615 0 0 1 371.0959,900.3008V893.925A2.1615,2.1615 0 0 1 373.2574,891.7635z" stroke="#000" stroke-linecap="square" stroke-linejoin="round" stroke-width="3.4477"/>
<path d="m310.3476,896.4307c.5071,.01 1.0144,.006 1.5215,.004 .3352,-.002 .6703,-.004 1.0054,-.004 .2701,-4e-4 .5402,-3.7e-4 .8102,-3.7e-4 .2807,-5.8e-4 .5615,5.5e-4 .8422,9.2e-4 .3607,-.009 .7158,-3.4e-4 1.0729,.0468 .369,.0503 .7416,.0662 1.1138,.0764 .3741,-.0146 .7413,.0544 1.1117,.0914 .3767,.034 .7553,.0376 1.1333,.0416 .3972,.002 .7944,.002 1.1915,6e-4 .345,-7e-4 .6899,-9.2e-4 1.0349,-.002 .2835,-7.1e-4 .567,-9.1e-4 .8505,-9.3e-4 .2692,-7e-5 .5383,-6e-5 .8075,-5e-5 .2692,10e-6 .5384,10e-6 .8076,10e-6 .2943,-3.6e-4 .5885,4.9e-4 .8828,.002 .3641,.002 .7281,4.1e-4 1.0922,-5.8e-4 .3425,-2.5e-4 .6849,4.4e-4 1.0274,9.3e-4 .3663,-1.6e-4 .7326,-8e-5 1.099,-9.3e-4 .3508,1.8e-4 .7017,6.9e-4 1.0526,1.5e-4 .3191,-9.2e-4 .6382,-.002 .9573,2.3e-4 .4923,.003 .9847,.004 1.477,.006 .671,.003 1.3419,.003 2.0129,9.3e-4 .4924,-9.3e-4 .9847,-.005 1.4771,-.005 .4075,6e-4 .815,-2e-5 1.2224,-.002 .0564,-1.8e-4 .1128,-3.7e-4 .1693,-5.5e-4l-1.6122,1.1074c-.0559,-1.9e-4-.1118,-3.8e-4-.1676,-5.6e-4-.4062,-.002-.8123,-.002-1.2184,-.002-.4875,-2e-4-.975,-.004-1.4625,-.005-.6718,-.002-1.3437,-.002-2.0155,9.1e-4-.4978,.002-.9956,.003-1.4933,.006-.3193,.002-.6386,.002-.9579,2.4e-4-.351,-5.3e-4-.702,-3e-5-1.053,1.4e-4-.3654,-9.2e-4-.7307,-8.2e-4-1.0961,-9.2e-4-.3438,9.2e-4-.6876,.002-1.0314,.002-.3635,-9.2e-4-.727,-.003-1.0905,-5.8e-4-.296,9.2e-4-.592,.002-.888,.002-.2692,0-.5384,0-.8076,0-.2691,0-.5382,2e-5-.8073,-6e-5-.2826,-1.2e-4-.5651,-3.2e-4-.8476,-8.9e-4-.3435,-6.3e-4-.687,-7.7e-4-1.0306,-8.1e-4-.3972,-7.6e-4-.7944,6.5e-4-1.1915,-.004-.383,-.006-.7666,-.0134-1.1475,-.0549-.3664,-.0412-.7313,-.0897-1.1016,-.0802-.3765,-.014-.7524,-.0402-1.1258,-.0894-.3528,-.0373-.7067,-.027-1.0612,-.0257-.2818,5.1e-4-.5635,.002-.8453,9.2e-4-.2697,10e-6-.5394,3e-5-.8092,-3.7e-4-.3313,-6.2e-4-.6627,-.002-.994,-.004-.5108,-.003-1.0217,-.006-1.5325,.004l1.6153,-1.1096z" stroke="#000" stroke-linecap="square" stroke-linejoin="round" stroke-width=".4401"/>
<path d="m394.831,896.6862c.6499,.0109 1.3,.009 1.95,.009 .5958,-8.2e-4 1.1916,-.003 1.7873,-.006 .3981,-.002 .7963,-.002 1.1944,-.003 .3137,-7.5e-4 .6275,-.002 .9413,-.002 .2741,.02 .5375,-.0531 .8069,-.0883 .2702,-.0315 .5426,-.036 .8145,-.0392 .2698,-.002 .5395,-9.3e-4 .8093,-7.8e-4 .2694,3.7e-4 .5389,4.9e-4 .8083,5.6e-4 .2694,5e-5 .5389,5e-5 .8083,5e-5 .2694,0 .5389,0 .8083,0 .2893,-5.6e-4 .5785,9.2e-4 .8678,9.2e-4 .2929,-2.3e-4 .5859,-6.3e-4 .8788,-8.6e-4 .2713,-1.6e-4 .5426,-1.8e-4 .8139,-1.9e-4 .1794,-10e-6 .0897,-10e-6 .2692,-10e-6l-1.6168,1.1105c-.1794,0-.0897,0-.2691,0-.2711,-2e-5-.5422,-4e-5-.8133,-2.1e-4-.2921,-2.1e-4-.5842,-6.3e-4-.8763,-8.6e-4-.2903,4e-5-.5806,.002-.8708,9.3e-4-.2694,10e-6-.5389,10e-6-.8083,10e-6-.2694,-10e-6-.5389,-10e-6-.8083,-1.1e-4-.2695,-1.2e-4-.5389,-3.5e-4-.8084,-6.7e-4-.269,-2.1e-4-.538,-9.2e-4-.8069,.004-.2672,.006-.5347,.018-.799,.0587-.2734,.0418-.5453,.0838-.8237,.0651-.3119,-4e-4-.6237,-9.3e-4-.9356,-.002-.3954,-5e-4-.7909,-5.8e-4-1.1863,-.003-.5908,-.003-1.1816,-.005-1.7724,-.006-.6587,-4.4e-4-1.3175,-.002-1.9762,.009l1.6131,-1.108z" stroke="#000" stroke-linecap="square" stroke-linejoin="round" stroke-width=".4401"/>
<path d="m357.6259,896.8369c.493,.0624 .9904,.0821 1.4871,.0968 .4433,.0107 .8868,.0107 1.3301,.01 .366,-4.6e-4 .7321,-5.8e-4 1.0981,-.002 .7348,.0189 1.47,.01 2.205,.006 .4441,-.004 .8882,-.005 1.3322,-.006 .3541,2e-5 .7083,-3.9e-4 1.0624,5.5e-4 .3723,9.2e-4 .7446,-8.8e-4 1.1169,-2.8e-4 .3359,-8e-4 .6719,-7.1e-4 1.0078,-6.1e-4 .3365,5.1e-4 .6729,2e-4 1.0094,-4.8e-4 .3214,9.3e-4 .6428,1.1e-4 .9642,-4.1e-4 .3145,9.2e-4 .6289,4.1e-4 .9434,-4e-5 .2778,-3.9e-4 .5555,-5.1e-4 .8333,-5.8e-4 .2323,.054 .466,.0929 .7043,.1116 .2585,.0159 .5176,.016 .7765,.0166 .2693,1.7e-4 .5386,-3.6e-4 .808,-6.3e-4 .1348,-1.3e-4 .2697,-1.9e-4 .4045,-2.4e-4l-1.6167,1.1106c-.1348,9e-5-.2696,1.7e-4-.4044,3.2e-4-.2696,3e-4-.5393,9.2e-4-.8089,-3.6e-4-.2633,-.002-.5272,-.005-.7894,-.0306-.2314,-.0272-.458,-.0828-.6905,-.0969-.2772,-7e-5-.5544,-1.8e-4-.8316,-5.8e-4-.3144,-4.4e-4-.6288,-9.2e-4-.9433,-5e-5-.321,-5e-4-.642,-.002-.963,-4e-4-.336,-6.8e-4-.672,-9.3e-4-1.008,-4.7e-4-.3353,10e-5-.6707,1.7e-4-1.0061,-6.1e-4-.372,5.9e-4-.744,-.002-1.116,-2.9e-4-.3547,9.2e-4-.7094,5.4e-4-1.064,5.5e-4-.4378,-.002-.8756,-.003-1.3134,-.006-.7412,-.004-1.4827,-.0122-2.2238,.006-.3654,-3.9e-4-.7308,4.3e-4-1.0963,-3.3e-4-.4418,-.003-.8837,-.006-1.3253,-.0209-.5057,-.0196-1.0108,-.0497-1.5143,-.0988l1.6318,-1.0918z" stroke="#000" stroke-linecap="square" stroke-linejoin="round" stroke-width=".4401"/>
<path d="m322.0721,861.9213 0,17.1222" fill="none" stroke="#000" stroke-linecap="round" stroke-width="4.4364"/>
<path d="m330.8662,860.3014 0,17.1222" fill="none" stroke="#000" stroke-linecap="round" stroke-width="4.4364"/>
<path d="m339.1183,861.6535 0,17.1222" fill="none" stroke="#000" stroke-linecap="round" stroke-width="4.4364"/>
<path d="m349.9002,860.5757 0,17.1222" fill="none" stroke="#000" stroke-linecap="round" stroke-width="4.4364"/>
<path d="m359.2804,862.5947 0,17.1222" fill="none" stroke="#000" stroke-linecap="round" stroke-width="4.4364"/>
<path d="m370.0184,862.4328 0,17.1222" fill="none" stroke="#000" stroke-linecap="round" stroke-width="4.4364"/>
<path d="m379.7162,860.85 0,17.1222" fill="none" stroke="#000" stroke-linecap="round" stroke-width="4.4364"/>
<path d="m388.8717,863.6542 0,17.1222" fill="none" stroke="#000" stroke-linecap="round" stroke-width="4.4364"/>
<path d="m398.7268,863.3137 0,17.1222" fill="none" stroke="#000" stroke-linecap="round" stroke-width="4.4364"/>
<path d="m314.7921,866.289 0,17.1222" fill="none" stroke="#000" stroke-linecap="round" stroke-width="4.4364"/>
<path d="m210.3571,349.8214c0,1.578-18.1485,2.8571-40.5357,2.8571-22.3873,0-40.5357,-1.2792-40.5357,-2.8571 0,-1.5779 18.1485,-2.8571 40.5357,-2.8571 22.3873,0 40.5357,1.2792 40.5357,2.8571z" stroke="#000" stroke-width="4" transform="matrix(-1.21804,0,0,1.21804,842.08914,543.14052)"/>
<g transform="matrix(-.92337,0,0,.92337,544.7917,623.69423)">
<path d="m-43.5297,288.8057 0,47.8884c0,20.007-16.1067,36.1137-36.1137,36.1137l-35.434,0c-20.007,0-36.1137,-16.1067-36.1137,-36.1137l0,-47.8884" fill="#fff" stroke="#000" stroke-linecap="round" stroke-linejoin="round" stroke-width="3.6422"/>
<path d="M-122.1431,308.6171H-98.6091A.7803,.7803 0 0 1 -97.8288,309.3974V319.4235A.7803,.7803 0 0 1 -98.6091,320.2038H-122.1431A.7803,.7803 0 0 1 -122.9234,319.4235V309.3974A.7803,.7803 0 0 1 -122.1431,308.6171z" stroke="#000" stroke-linecap="square" stroke-linejoin="round" stroke-width="3.7338"/>
<path d="M-80.7522,308.6171H-60.3393A2.3409,2.3409 0 0 1 -57.9985,310.958V317.8629A2.3409,2.3409 0 0 1 -60.3393,320.2038H-80.7522A2.3409,2.3409 0 0 1 -83.093,317.8629V310.958A2.3409,2.3409 0 0 1 -80.7522,308.6171z" stroke="#000" stroke-linecap="square" stroke-linejoin="round" stroke-width="3.7338"/>
<path d="m-148.8829,313.6717c.5492,.0105 1.0986,.007 1.6478,.004 .363,-.002 .7259,-.004 1.0889,-.004 .2925,-4.3e-4 .585,-4e-4 .8775,-4e-4 .304,-6.3e-4 .6081,6e-4 .9121,10e-4 .3906,-.01 .7752,-3.7e-4 1.162,.0507 .3996,.0545 .8031,.0717 1.2062,.0827 .4052,-.0158 .8029,.0589 1.204,.099 .4079,.0368 .818,.0407 1.2274,.045 .4301,.002 .8603,.002 1.2904,6.5e-4 .3736,-7.6e-4 .7472,-10e-4 1.1208,-.002 .307,-7.7e-4 .6141,-9.8e-4 .9211,-10e-4 .2915,-8e-5 .583,-7e-5 .8745,-6e-5 .2915,1e-5 .5831,1e-5 .8746,1e-5 .3187,-3.9e-4 .6374,5.3e-4 .9561,.002 .3943,.002 .7885,4.4e-4 1.1828,-6.3e-4 .3709,-2.7e-4 .7418,4.7e-4 1.1126,10e-4 .3967,-1.7e-4 .7934,-8e-5 1.1902,-10e-4 .38,1.9e-4 .7599,7.4e-4 1.1399,1.6e-4 .3456,-.001 .6912,-.002 1.0367,2.5e-4 .5332,.003 1.0664,.004 1.5996,.006 .7266,.003 1.4533,.003 2.1799,.001 .5332,-.001 1.0664,-.005 1.5997,-.005 .4413,6.5e-4 .8826,-2e-5 1.3239,-.002 .0611,-2e-4 .1222,-4e-4 .1833,-6e-4l-1.746,1.1993c-.0605,-2.1e-4-.121,-4.1e-4-.1815,-6.1e-4-.4399,-.002-.8797,-.002-1.3196,-.002-.528,-2.2e-4-1.0559,-.004-1.5839,-.005-.7276,-.002-1.4552,-.002-2.1828,9.9e-4-.5391,.002-1.0782,.003-1.6173,.006-.3458,.002-.6916,.002-1.0375,2.6e-4-.3801,-5.7e-4-.7602,-3e-5-1.1404,1.5e-4-.3957,-9.9e-4-.7914,-8.9e-4-1.187,-.001-.3723,.001-.7447,.002-1.117,.002-.3937,-10e-4-.7873,-.003-1.181,-6.3e-4-.3206,.001-.6411,.002-.9617,.002-.2915,0-.5831,0-.8747,0-.2914,0-.5829,2e-5-.8743,-6e-5-.306,-1.3e-4-.612,-3.5e-4-.918,-9.6e-4-.372,-6.9e-4-.744,-8.4e-4-1.1161,-8.8e-4-.4302,-8.3e-4-.8603,7e-4-1.2904,-.004-.4148,-.006-.8303,-.0145-1.2428,-.0595-.3968,-.0446-.792,-.0972-1.193,-.0869-.4078,-.0152-.8149,-.0435-1.2193,-.0968-.382,-.0404-.7654,-.0292-1.1493,-.0278-.3051,5.6e-4-.6103,.002-.9155,.001-.2921,10e-6-.5842,3e-5-.8763,-4e-4-.3589,-6.7e-4-.7177,-.002-1.0765,-.004-.5532,-.003-1.1065,-.006-1.6597,.004l1.7494,-1.2016z" stroke="#000" stroke-linecap="square" stroke-linejoin="round" stroke-width=".4767"/>
<path d="m-57.3881,313.9484c.7039,.0118 1.4079,.0102 2.1119,.01 .6452,-8.9e-4 1.2905,-.003 1.9357,-.006 .4312,-.002 .8624,-.002 1.2935,-.003 .3398,-8.1e-4 .6796,-.002 1.0194,-.002 .2968,.0217 .5821,-.0575 .8738,-.0956 .2926,-.0341 .5877,-.039 .8821,-.0425 .2922,-.002 .5843,-10e-4 .8765,-8.4e-4 .2918,4e-4 .5836,5.3e-4 .8754,6.1e-4 .2918,5e-5 .5836,5e-5 .8754,5e-5 .2918,0 .5836,0 .8754,0 .3133,-6.1e-4 .6266,10e-4 .9398,10e-4 .3172,-2.5e-4 .6345,-6.9e-4 .9517,-9.3e-4 .2938,-1.8e-4 .5877,-2e-4 .8815,-2.1e-4 .1943,-1e-5 .0972,-1e-5 .2915,-1e-5l-1.7509,1.2027c-.1943,0-.0971,0-.2914,0-.2936,-2e-5-.5872,-4e-5-.8808,-2.2e-4-.3164,-2.3e-4-.6327,-6.8e-4-.9491,-9.3e-4-.3144,4e-5-.6287,.002-.9431,10e-4-.2918,1e-5-.5836,1e-5-.8754,1e-5-.2918,-1e-5-.5836,-1e-5-.8754,-1.2e-4-.2918,-1.3e-4-.5837,-3.7e-4-.8755,-7.2e-4-.2913,-2.3e-4-.5826,-10e-4-.8738,.004-.2893,.007-.5791,.0195-.8653,.0636-.2961,.0453-.5905,.0907-.8921,.0705-.3377,-4.3e-4-.6755,-10e-4-1.0132,-.002-.4283,-5.4e-4-.8565,-6.3e-4-1.2848,-.003-.6398,-.003-1.2796,-.005-1.9195,-.006-.7134,-4.8e-4-1.4269,-.002-2.1402,.01l1.747,-1.2z" stroke="#000" stroke-linecap="square" stroke-linejoin="round" stroke-width=".4767"/>
<path d="m-97.681,314.1116c.5339,.0676 1.0726,.0889 1.6105,.1048 .4801,.0116 .9604,.0116 1.4405,.0103 .3964,-5e-4 .7929,-6.3e-4 1.1893,-.002 .7958,.0205 1.592,.0104 2.3879,.007 .4809,-.004 .9619,-.005 1.4428,-.007 .3835,3e-5 .767,-4.2e-4 1.1506,6e-4 .4032,.001 .8064,-9.5e-4 1.2096,-3.1e-4 .3638,-8.6e-4 .7277,-7.6e-4 1.0915,-6.6e-4 .3644,5.6e-4 .7288,2.2e-4 1.0931,-5.1e-4 .3481,.001 .6961,1.1e-4 1.0442,-4.5e-4 .3406,.001 .6811,4.5e-4 1.0217,-4e-5 .3008,-4.3e-4 .6016,-5.6e-4 .9024,-6.3e-4 .2516,.0585 .5047,.1006 .7628,.1209 .2799,.0172 .5606,.0173 .8409,.018 .2917,1.9e-4 .5833,-3.9e-4 .875,-6.8e-4 .146,-1.4e-4 .292,-2e-4 .4381,-2.6e-4l-1.7508,1.2027c-.146,10e-5-.292,1.9e-4-.438,3.5e-4-.292,3.2e-4-.584,.001-.876,-3.9e-4-.2852,-.002-.5709,-.005-.8549,-.0331-.2506,-.0294-.496,-.0897-.7478,-.105-.3002,-8e-5-.6004,-2e-4-.9006,-6.3e-4-.3405,-4.8e-4-.681,-.001-1.0215,-5e-5-.3476,-5.5e-4-.6953,-.002-1.0429,-4.4e-4-.3639,-7.3e-4-.7278,-10e-4-1.0916,-5.1e-4-.3632,1.1e-4-.7264,1.9e-4-1.0895,-6.6e-4-.4029,6.4e-4-.8058,-.002-1.2087,-3.1e-4-.3841,.001-.7682,5.8e-4-1.1523,6e-4-.4742,-.002-.9483,-.003-1.4224,-.007-.8027,-.004-1.6058,-.0132-2.4083,.007-.3958,-4.3e-4-.7915,4.6e-4-1.1873,-3.6e-4-.4785,-.003-.957,-.007-1.4353,-.0226-.5477,-.0212-1.0947,-.0538-1.64,-.107l1.7673,-1.1825z" stroke="#000" stroke-linecap="square" stroke-linejoin="round" stroke-width=".4767"/>
<path d="m-136.1855,276.2983 0,18.5432" fill="none" stroke="#000" stroke-linecap="round" stroke-width="4.8046"/>
<path d="m-126.6615,274.544 0,18.5432" fill="none" stroke="#000" stroke-linecap="round" stroke-width="4.8046"/>
<path d="m-117.7245,276.0083 0,18.5432" fill="none" stroke="#000" stroke-linecap="round" stroke-width="4.8046"/>
<path d="m-106.0478,274.841 0,18.5432" fill="none" stroke="#000" stroke-linecap="round" stroke-width="4.8046"/>
<path d="m-95.8892,277.0276 0,18.5432" fill="none" stroke="#000" stroke-linecap="round" stroke-width="4.8046"/>
<path d="m-84.2599,276.8522 0,18.5432" fill="none" stroke="#000" stroke-linecap="round" stroke-width="4.8046"/>
<path d="m-73.7574,275.1381 0,18.5432" fill="none" stroke="#000" stroke-linecap="round" stroke-width="4.8046"/>
<path d="m-63.8419,278.175 0,18.5432" fill="none" stroke="#000" stroke-linecap="round" stroke-width="4.8046"/>
<path d="m-53.169,277.8063 0,18.5432" fill="none" stroke="#000" stroke-linecap="round" stroke-width="4.8046"/>
<path d="m-105.8017,352.8807 27.1229,-4.4282" fill="none" stroke="#000" stroke-width=".7749"/>
<path d="m-144.0697,281.0285 0,18.5432" fill="none" stroke="#000" stroke-linecap="round" stroke-width="4.8046"/>
</g>
<path d="m582.4131,679.8783 0,303.442 0,10.4485" fill="none" stroke="#000" stroke-width="5.6784"/>
<g transform="matrix(1.16312,0,0,1.16312,78.60794,-254.14275)">
<path d="m154.2857,169.6429c0,4.5366-27.5025,8.2143-61.4286,8.2143-33.9261,0-61.4286,-3.6777-61.4286,-8.2143 0,-4.5366 27.5025,-8.2143 61.4286,-8.2143 33.9261,0 61.4286,3.6777 61.4286,8.2143z" stroke="#000" transform="matrix(-.60213,0,0,.60213,106.30564,942.26976)"/>
<path d="m58.4703,975.3336-19.4482,0c-3.161,16.9994-18.1122,12.8621-19.9523,19.9523l3.3453,30.9869c6.5967,11.6033 15.0373,18.9686 23.2977,18.7359l5.1544,0c8.355,-.4499 21.1432,-10.4744 23.2977,-21.1689l4.2577,-28.5539c-1.2995,-4.9275-12.9618,-.7979-19.9523,-19.9523z" fill="#fff" stroke="#000" stroke-linecap="round" stroke-linejoin="round" stroke-width="2.193"/>
<path d="m70.1165,1002.6337c-.9088,-.2646-1.8105,-.5151-2.7458,-.6612-.9524,-.2002-1.9124,-.3297-2.8759,-.4616-.7571,-.1334-1.5045,-.2771-2.2671,-.3705-1.1111,-.1618-2.243,-.2316-3.3659,-.257-.5641,-.042-1.121,-.024-1.6838,.014l2.9052,3.4486c.5433,-.037 1.0849,-.033 1.629,-.011 1.1185,.043 2.2413,.1056 3.3449,.3018 .7571,.1049 1.5023,.2777 2.2621,.3656 .9609,.1229 1.9121,.2903 2.8637,.4712 .9256,.1664 1.8237,.4395 2.7228,.7124l-2.7892,-3.552z" stroke="#000" stroke-linecap="round" stroke-linejoin="round" stroke-width="1.2043"/>
<path d="m40.9687,1003.1934c.9065,-.2723 1.806,-.5306 2.74,-.6846 .9507,-.2085 1.9095,-.3462 2.8719,-.4862 .7559,-.14 1.5021,-.2901 2.2639,-.39 1.1097,-.1713 2.2409,-.2509 3.3636,-.2858 .5637,-.047 1.1207,-.034 1.6839,-5e-4l-2.8756,3.4733c-.5436,-.032-1.0851,-.023-1.6291,0-1.1181,.052-2.2403,.1248-3.3422,.3305-.7561,.1113-1.4998,.2905-2.2589,.385-.9598,.1311-1.9095,.3065-2.8595,.4956-.9241,.1742-1.8199,.455-2.7166,.7356l2.7587,-3.5756z" stroke="#000" stroke-linecap="round" stroke-linejoin="round" stroke-width="1.2043"/>
<path d="m538.4195,257.9523c0,3.0469-2.4032,5.5169-5.3678,5.5169-2.9646,0-5.3678,-2.47-5.3678,-5.5169 0,-3.0469 2.4032,-5.5169 5.3678,-5.5169 2.9646,0 5.3678,2.47 5.3678,5.5169z" fill="#fff" stroke="#000" stroke-linecap="round" stroke-linejoin="round" stroke-width="2" transform="matrix(-.60213,0,0,.60213,368.75405,856.70393)"/>
<path d="m555.2684,260.4871c0,.9058-.4005,1.6402-.8946,1.6402-.4941,0-.8946,-.7343-.8946,-1.6402 0,-.9058 .4005,-1.6402 .8946,-1.6402 .4941,0 .8946,.7343 .8946,1.6402z" fill="#fff" stroke="#000" stroke-linecap="round" stroke-linejoin="round" stroke-width="2" transform="matrix(-.60213,0,0,.60213,382.9984,855.15588)"/>
<g transform="matrix(-.60213,0,0,.60213,382.61749,856.25504)">
<path d="m538.4195,257.9523c0,3.0469-2.4032,5.5169-5.3678,5.5169-2.9646,0-5.3678,-2.47-5.3678,-5.5169 0,-3.0469 2.4032,-5.5169 5.3678,-5.5169 2.9646,0 5.3678,2.47 5.3678,5.5169z" fill="#fff" stroke="#000" stroke-linecap="round" stroke-linejoin="round" stroke-width="2"/>
<path d="m555.2684,260.4871c0,.9058-.4005,1.6402-.8946,1.6402-.4941,0-.8946,-.7343-.8946,-1.6402 0,-.9058 .4005,-1.6402 .8946,-1.6402 .4941,0 .8946,.7343 .8946,1.6402z" fill="#fff" stroke="#000" stroke-linecap="round" stroke-linejoin="round" stroke-width="2" transform="translate(-23.6822,-2.4475)"/>
</g>
<path d="m56.4737,981.0793 4.2239,1.4784c2.9914,4.0832 5.3086,8.4381 15.4171,11.1932 .5429,11.1219 4.3117,11.8958 7.6029,12.8827 3.2507,-1.3481 3.6104,-6.4597 5.0686,-10.1372 6.1056,-9.1909 4.974,-16.6021-1.056,-22.8088 .5292,-.8243 .1774,.1066 .3093,-1.7108-.3841,-.068-2.5108,-1.5299-4.8574,-3.1679-1.3151,.4635-1.0331,-.1433-1.3653,1.4996 .2515,-1.6071-.5576,-2.79-1.2671,-4.0127-.9238,-.963-2.7847,-2.0821-4.8937,-3.2426 .4911,-1.4515-.6019,-2.6767-1.4421,-3.938-3.2911,-2.4311-6.4089,-3.119-9.5037,-3.3791-4.9813,-2.2436-9.1643,-3.0882-10.982,.2112-1.743,-.2323-2.9028,-1.1938-6.1246,.4224-6.9386,-1.8283-7.9574,3.284-9.2925,8.0253-1.3221,.8774-2.8372,.7167-3.9636,.224-5.3016,-2.1773-6.9683,2.5277-10.8199,6.7454-7.1017,-4.0128-6.2405,6.8142-9.2925,10.3484-5.3991,-3.8672-7.4249,25.0561 1.777,25.3175 .456,3.1441 1.3329,4.1837 2.1738,5.4035 2.9633,2.0584 3.252,1.586 4.819,2.3232 .9133,-.2109-1.4742,-6.0372-1.5892,-8.5458 2.1817,-4.1537 2.2864,-8.9997 2.1119,-13.9388l2.1119,-1.2672c5.765,3.9024 8.0662,-3.2902 12.038,-5.0686 1.7295,.9023 3.3265,.2137 4.8574,-1.2672 10.3021,4.1824 12.2258,.0346 13.9388,-3.5903z" stroke="#000" stroke-width="0"/>
<path d="m53.9286,1034.505c-3.8973,-.3884-8.6697,.098-10.3571,-2.5" fill="none" stroke="#000"/>
</g>
<path d="m334.2857,229.2857a10.7143,10.7143 0 1 1 -21.4286,0 10.7143,10.7143 0 1 1 21.4286,0z" fill="#fff" stroke="#000" stroke-linecap="square" stroke-linejoin="bevel" stroke-width="4" transform="translate(-2.8571,608.0765)"/>
<path d="m334.2857,229.2857a10.7143,10.7143 0 1 1 -21.4286,0 10.7143,10.7143 0 1 1 21.4286,0z" fill="#fff" stroke="#000" stroke-linecap="square" stroke-linejoin="bevel" stroke-width="4" transform="translate(82.1428,608.0765)"/>
<path d="m162.1295,173.4835a66.9226,9.3439 0 1 1 -133.8452,0 66.9226,9.3439 0 1 1 133.8452,0z" opacity=".99" stroke="#000" stroke-width="1.5" transform="matrix(.61107,0,0,.61107,473.21002,843.64296)"/>
<path d="m572.2908,907.6492c0,24.1061-15.0999,32.1296-38.9215,39.6511-29.2091,9.2226-40.1311,-15.2479-43.1366,-39.6511-2.9466,-23.9253 18.3693,-43.6479 41.029,-43.6479 22.6597,0 41.029,19.5418 41.029,43.6479z" fill="#fff" opacity=".99" stroke="#000" stroke-width="1.8332"/>
<path d="m487.6978,897.3919 23.0494,0 0,9.6025-23.0494,0 0,-9.6025z" fill="#fff" opacity=".99" stroke="#000" stroke-width=".9166"/>
<path d="m519.4556,899.6189c-3.2795,.8903-5.3397,1.3038-8.4455,0l0,2.8025c3.0999,-1.8411 5.255,-1.4848 8.4455,0l0,-2.8025z" opacity=".99" stroke="#000" stroke-width=".3511"/>
<path d="m543.2933,899.636 28.1406,-4.2967 0,1.6975-28.1406,4.2967 0,-1.6975z" opacity=".99" stroke="#000" stroke-width=".9166"/>
<path d="m557.014,951.5154c9.0565,-20.6523 1.272,-35.6909 1.8729,-53.5246l-18.0923,-17.9878c-7.34,.9824-14.1546,6.0361-21.5308,-1.4566-8.9667,-9.1085-13.619,-3.7599-18.1048,-1.2249l-9.0573,14.5394c-.005,-.004-3.1525,-16.4941 3.5943,-19.774 14.4317,-7.016 30.5658,-16.921 46.2286,-13.4316 13.5609,3.0211 25.6254,14.8396 31.3032,27.5198 7.8081,17.4381-.4381,57.3173-.4381,57.3173l-15.7756,8.023z" opacity=".99" stroke="#000" stroke-width=".9166"/>
<path d="m552.8145,926.3681-1.0912,13.7491" fill="none" stroke="#000" stroke-width=".6111"/>
<path d="m558.3796,922.3306-1.0912,13.7491" fill="none" stroke="#000" stroke-width=".6111"/>
<path d="m555.8699,924.1857-1.0912,13.7491" fill="none" stroke="#000" stroke-width=".6111"/>
<path d="m520.0178,897.6309 23.0494,0 0,9.6025-23.0494,0 0,-9.6025z" fill="#fff" opacity=".99" stroke="#000" stroke-width=".9166"/>
<path d="m544.7975,932.7558-1.0946,12.8303" fill="none" stroke="#000" stroke-width=".5912"/>
<path d="m549.8595,929.4874-1.1145,12.4539" fill="none" stroke="#000" stroke-width=".5878"/>
<path d="m547.348,931.1977-1.0946,12.8303" fill="none" stroke="#000" stroke-width=".5912"/>
<path d="m536.4448,937.5653-1.0912,13.7491" fill="none" stroke="#000" stroke-width=".6111"/>
<path d="m542.0033,934.4566-1.0946,12.8303" fill="none" stroke="#000" stroke-width=".5912"/>
<path d="m539.3769,936.2387-.9913,12.9167" fill="none" stroke="#000" stroke-width=".5645"/>
<path d="m528.3213,942.727-1.0952,10.6299" fill="none" stroke="#000" stroke-width=".5383"/>
<path d="m533.9067,939.6055-1.0952,10.6299" fill="none" stroke="#000" stroke-width=".5383"/>
<path d="m531.3878,941.0397-1.0952,10.6299" fill="none" stroke="#000" stroke-width=".5383"/>
<path d="m521.0769,943.8976-1.0952,9.9891" fill="none" stroke="#000" stroke-width=".5383"/>
<path d="m525.9298,943.7511-1.0952,9.9891" fill="none" stroke="#000" stroke-width=".5383"/>
<path d="m523.7039,943.9312-1.0952,9.9891" fill="none" stroke="#000" stroke-width=".5383"/>
<path d="m518.3563,943.5024-1.0952,9.9891" fill="none" stroke="#000" stroke-width=".5383"/>
<path d="m515.8374,943.4628-1.0952,9.9891" fill="none" stroke="#000" stroke-width=".5383"/>
<path d="m513.4448,942.9937-1.0952,9.9891" fill="none" stroke="#000" stroke-width=".5383"/>
<path d="m511.0705,942.3522-1.0952,9.9891" fill="none" stroke="#000" stroke-width=".5383"/>
<path d="m508.7264,941.7573-1.0952,9.9891" fill="none" stroke="#000" stroke-width=".5383"/>
<path d="m506.4127,941.0159-1.0952,9.9891" fill="none" stroke="#000" stroke-width=".5383"/>
<path d="m560.7633,920.9696-1.0912,13.7491" fill="none" stroke="#000" stroke-width=".6111"/>
<path d="m559.4447,908.7366-1.0912,13.7491" fill="none" stroke="#000" stroke-width=".6111"/>
<path d="m556.9267,910.7785-1.0912,13.7491" fill="none" stroke="#000" stroke-width=".6111"/>
<path d="m553.8868,912.8936-1.0912,13.7491" fill="none" stroke="#000" stroke-width=".6111"/>
<path d="m504.8923,939.9853-.2653,2.4203" fill="none" stroke="#000" stroke-width=".5801"/>
<path d="m503.1803,938.7422-.2654,2.4203" fill="none" stroke="#000" stroke-width=".5801"/>
<path d="m501.7818,937.7062-.2653,2.4203" fill="none" stroke="#000" stroke-width=".5801"/>
<path d="m154.2857,169.6429a61.4286,8.2143 0 1 1 -122.8571,0 61.4286,8.2143 0 1 1 122.8571,0z" stroke="#000" transform="matrix(.70035,0,0,.70035,399.53134,855.36855)"/>
<path d="m455.1697,893.8258 22.6206,0c3.6766,19.7724 21.0667,14.9602 23.207,23.207l-3.891,36.0416c-7.6728,13.4961-17.4902,22.0628-27.0981,21.7921l-5.9952,0c-9.7179,-.5233-24.5921,-12.183-27.0981,-24.622l-4.9522,-33.2117c1.5114,-5.7313 15.0762,-.9281 23.207,-23.207z" fill="#fff" stroke="#000" stroke-linecap="round" stroke-linejoin="round" stroke-width="2.5507"/>
<path d="m441.6237,920.2759c1.0571,-.3078 2.1059,-.5991 3.1937,-.7691 1.1078,-.2329 2.2244,-.3835 3.345,-.5369 .8806,-.1552 1.7499,-.3223 2.6369,-.4309 1.2923,-.1882 2.6088,-.2694 3.915,-.2989 .6561,-.0489 1.3038,-.0279 1.9585,.0163l-3.3791,4.0111c-.6319,-.043-1.2618,-.0384-1.8948,-.0128-1.301,.05-2.607,.1228-3.8905,.351-.8805,.122-1.7473,.323-2.6311,.4252-1.1176,.1429-2.224,.3377-3.3308,.5481-1.0765,.1935-2.1212,.5112-3.167,.8286l3.2441,-4.1314z" stroke="#000" stroke-linecap="round" stroke-linejoin="round" stroke-width="1.4007"/>
<path d="m475.5262,920.9269c-1.0544,-.3167-2.1006,-.6171-3.1869,-.7963-1.1058,-.2425-2.221,-.4027-3.3403,-.5655-.8792,-.1628-1.7471,-.3374-2.6332,-.4536-1.2907,-.1992-2.6065,-.2918-3.9123,-.3324-.6556,-.0547-1.3035,-.0395-1.9585,-5.8e-4l3.3446,4.0399c.6322,-.0372 1.2621,-.0267 1.8948,0 1.3005,.0605 2.6058,.1452 3.8873,.3844 .8795,.1295 1.7445,.3379 2.6273,.4478 1.1164,.1525 2.221,.3565 3.326,.5764 1.0748,.2026 2.1167,.5292 3.1598,.8556l-3.2087,-4.1589z" stroke="#000" stroke-linecap="round" stroke-linejoin="round" stroke-width="1.4007"/>
<path d="m538.4195,257.9523c0,3.0469-2.4032,5.5169-5.3678,5.5169-2.9646,0-5.3678,-2.47-5.3678,-5.5169 0,-3.0469 2.4032,-5.5169 5.3678,-5.5169 2.9646,0 5.3678,2.47 5.3678,5.5169z" fill="#fff" stroke="#000" stroke-linecap="round" stroke-linejoin="round" stroke-width="2" transform="matrix(.70035,0,0,.70035,94.27182,753.57221)"/>
<path d="m555.2684,260.4871c0,.9058-.4005,1.6402-.8946,1.6402-.4941,0-.8946,-.7343-.8946,-1.6402 0,-.9058 .4005,-1.6402 .8946,-1.6402 .4941,0 .8946,.7343 .8946,1.6402z" fill="#fff" stroke="#000" stroke-linecap="round" stroke-linejoin="round" stroke-width="2" transform="matrix(.70035,0,0,.70035,77.7039,751.77164)"/>
<g transform="matrix(.70035,0,0,.70035,78.14695,753.05009)">
<path d="m538.4195,257.9523c0,3.0469-2.4032,5.5169-5.3678,5.5169-2.9646,0-5.3678,-2.47-5.3678,-5.5169 0,-3.0469 2.4032,-5.5169 5.3678,-5.5169 2.9646,0 5.3678,2.47 5.3678,5.5169z" fill="#fff" stroke="#000" stroke-linecap="round" stroke-linejoin="round" stroke-width="2"/>
<path d="m555.2684,260.4871c0,.9058-.4005,1.6402-.8946,1.6402-.4941,0-.8946,-.7343-.8946,-1.6402 0,-.9058 .4005,-1.6402 .8946,-1.6402 .4941,0 .8946,.7343 .8946,1.6402z" fill="#fff" stroke="#000" stroke-linecap="round" stroke-linejoin="round" stroke-width="2" transform="translate(-23.6822,-2.4475)"/>
</g>
<path d="m457.4919,900.5087-4.9129,1.7195c-3.4793,4.7493-6.1746,9.8146-17.932,13.0191-.6315,12.9362-5.015,13.8363-8.8431,14.9842-3.781,-1.568-4.1993,-7.5134-5.8954,-11.7908-7.1015,-10.6901-5.7854,-19.3103 1.2282,-26.5295-.6155,-.9587-.2063,.124-.3597,-1.9898 .4468,-.0791 2.9204,-1.7795 5.6498,-3.6846 1.5296,.5391 1.2016,-.1667 1.588,1.7442-.2925,-1.8693 .6485,-3.2451 1.4739,-4.6672 1.0745,-1.12 3.239,-2.4217 5.6919,-3.7715-.5712,-1.6883 .7001,-3.1133 1.6774,-4.5804 3.828,-2.8276 7.4543,-3.6278 11.0539,-3.9303 5.7939,-2.6096 10.6592,-3.5919 12.7735,.2456 2.0274,-.2702 3.3763,-1.3885 7.1236,.4913 8.0704,-2.1265 9.2554,3.8197 10.8083,9.3344 1.5378,1.0206 3.3001,.8336 4.6102,.2605 6.1664,-2.5325 8.105,2.94 12.5849,7.8457 8.2601,-4.6674 7.2584,7.9257 10.8083,12.0365 6.2798,-4.4981 8.636,29.1433-2.0669,29.4474-.5304,3.657-1.5504,4.8662-2.5284,6.2849-3.4467,2.3942-3.7824,1.8447-5.6051,2.7022-1.0622,-.2453 1.7146,-7.022 1.8485,-9.9398-2.5375,-4.8313-2.6593,-10.4678-2.4564,-16.2125l-2.4564,-1.4739c-6.7054,4.5389-9.382,-3.8269-14.0017,-5.8955-2.0117,1.0494-3.8691,.2485-5.6498,-1.4739-11.9826,4.8646-14.2201,.0402-16.2125,-4.1759z" stroke="#000" stroke-width="0"/>
<path d="m162.1295,173.4835a66.9226,9.3439 0 1 1 -133.8452,0 66.9226,9.3439 0 1 1 133.8452,0z" opacity=".99" stroke="#000" stroke-width="1.5" transform="matrix(.61107,0,0,.61107,753.21002,842.92866)"/>
<path d="m852.2908,906.9349c0,24.1061-15.0999,32.1296-38.9215,39.6511-29.2091,9.2226-40.1311,-15.2479-43.1366,-39.6511-2.9466,-23.9253 18.3693,-43.6479 41.029,-43.6479 22.6597,0 41.029,19.5418 41.029,43.6479z" fill="#fff" opacity=".99" stroke="#000" stroke-width="1.8332"/>
<path d="m767.6978,896.6776 23.0494,0 0,9.6025-23.0494,0 0,-9.6025z" fill="#fff" opacity=".99" stroke="#000" stroke-width=".9166"/>
<path d="m799.4556,898.9046c-3.2795,.8903-5.3397,1.3038-8.4455,0l0,2.8025c3.0999,-1.8411 5.255,-1.4848 8.4455,0l0,-2.8025z" opacity=".99" stroke="#000" stroke-width=".3511"/>
<path d="m823.2933,898.9217 28.1406,-4.2967 0,1.6975-28.1406,4.2967 0,-1.6975z" opacity=".99" stroke="#000" stroke-width=".9166"/>
<path d="m837.014,950.8011c9.0565,-20.6523 1.272,-35.6909 1.8729,-53.5246l-18.0923,-17.9878c-7.34,.9824-14.1546,6.0361-21.5308,-1.4566-8.9667,-9.1085-13.619,-3.7599-18.1048,-1.2249l-9.0573,14.5394c-.005,-.004-3.1525,-16.4941 3.5943,-19.774 14.4317,-7.016 30.5658,-16.921 46.2286,-13.4316 13.5609,3.0211 25.6254,14.8396 31.3032,27.5198 7.8081,17.4381-.4381,57.3173-.4381,57.3173l-15.7756,8.023z" opacity=".99" stroke="#000" stroke-width=".9166"/>
<path d="m832.8145,925.6538-1.0912,13.7491" fill="none" stroke="#000" stroke-width=".6111"/>
<path d="m838.3796,921.6163-1.0912,13.7491" fill="none" stroke="#000" stroke-width=".6111"/>
<path d="m835.8699,923.4714-1.0912,13.7491" fill="none" stroke="#000" stroke-width=".6111"/>
<path d="m800.0178,896.9166 23.0494,0 0,9.6025-23.0494,0 0,-9.6025z" fill="#fff" opacity=".99" stroke="#000" stroke-width=".9166"/>
<path d="m824.7975,932.0415-1.0946,12.8303" fill="none" stroke="#000" stroke-width=".5912"/>
<path d="m829.8595,928.7731-1.1145,12.4539" fill="none" stroke="#000" stroke-width=".5878"/>
<path d="m827.348,930.4834-1.0946,12.8303" fill="none" stroke="#000" stroke-width=".5912"/>
<path d="m816.4448,936.851-1.0912,13.7491" fill="none" stroke="#000" stroke-width=".6111"/>
<path d="m822.0033,933.7423-1.0946,12.8303" fill="none" stroke="#000" stroke-width=".5912"/>
<path d="m819.3769,935.5244-.9913,12.9167" fill="none" stroke="#000" stroke-width=".5645"/>
<path d="m808.3213,942.0127-1.0952,10.6299" fill="none" stroke="#000" stroke-width=".5383"/>
<path d="m813.9067,938.8912-1.0952,10.6299" fill="none" stroke="#000" stroke-width=".5383"/>
<path d="m811.3878,940.3254-1.0952,10.6299" fill="none" stroke="#000" stroke-width=".5383"/>
<path d="m801.0769,943.1833-1.0952,9.9891" fill="none" stroke="#000" stroke-width=".5383"/>
<path d="m805.9298,943.0368-1.0952,9.9891" fill="none" stroke="#000" stroke-width=".5383"/>
<path d="m803.7039,943.2169-1.0952,9.9891" fill="none" stroke="#000" stroke-width=".5383"/>
<path d="m798.3563,942.7881-1.0952,9.9891" fill="none" stroke="#000" stroke-width=".5383"/>
<path d="m795.8374,942.7485-1.0952,9.9891" fill="none" stroke="#000" stroke-width=".5383"/>
<path d="m793.4448,942.2794-1.0952,9.9891" fill="none" stroke="#000" stroke-width=".5383"/>
<path d="m791.0705,941.6379-1.0952,9.9891" fill="none" stroke="#000" stroke-width=".5383"/>
<path d="m788.7264,941.043-1.0952,9.9891" fill="none" stroke="#000" stroke-width=".5383"/>
<path d="m786.4127,940.3016-1.0952,9.9891" fill="none" stroke="#000" stroke-width=".5383"/>
<path d="m840.7633,920.2553-1.0912,13.7491" fill="none" stroke="#000" stroke-width=".6111"/>
<path d="m839.4447,908.0223-1.0912,13.7491" fill="none" stroke="#000" stroke-width=".6111"/>
<path d="m836.9267,910.0642-1.0912,13.7491" fill="none" stroke="#000" stroke-width=".6111"/>
<path d="m833.8868,912.1793-1.0912,13.7491" fill="none" stroke="#000" stroke-width=".6111"/>
<path d="m784.8923,939.271-.2653,2.4203" fill="none" stroke="#000" stroke-width=".5801"/>
<path d="m783.1803,938.0278-.2654,2.4203" fill="none" stroke="#000" stroke-width=".5801"/>
<path d="m781.7818,936.9919-.2653,2.4203" fill="none" stroke="#000" stroke-width=".5801"/>
<path d="m154.2857,169.6429a61.4286,8.2143 0 1 1 -122.8571,0 61.4286,8.2143 0 1 1 122.8571,0z" stroke="#000" transform="matrix(.70035,0,0,.70035,681.6742,851.79711)"/>
<path d="m737.3126,890.2544 22.6206,0c3.6766,19.7724 21.0667,14.9602 23.207,23.207l-3.891,36.0416c-7.6728,13.4961-17.4902,22.0628-27.0981,21.7921l-5.9952,0c-9.7179,-.5233-24.5921,-12.183-27.0981,-24.622l-4.9522,-33.2117c1.5114,-5.7313 15.0762,-.9281 23.207,-23.207z" fill="#fff" stroke="#000" stroke-linecap="round" stroke-linejoin="round" stroke-width="2.5507"/>
<path d="m538.4195,257.9523c0,3.0469-2.4032,5.5169-5.3678,5.5169-2.9646,0-5.3678,-2.47-5.3678,-5.5169 0,-3.0469 2.4032,-5.5169 5.3678,-5.5169 2.9646,0 5.3678,2.47 5.3678,5.5169z" fill="#fff" stroke="#000" stroke-linecap="round" stroke-linejoin="round" stroke-width="2" transform="matrix(.70035,0,0,.70035,376.41468,752.27361)"/>
<path d="m555.2684,260.4871c0,.9058-.4005,1.6402-.8946,1.6402-.4941,0-.8946,-.7343-.8946,-1.6402 0,-.9058 .4005,-1.6402 .8946,-1.6402 .4941,0 .8946,.7343 .8946,1.6402z" fill="#fff" stroke="#000" stroke-linecap="round" stroke-linejoin="round" stroke-width="2" transform="matrix(.70035,0,0,.70035,359.84676,750.47304)"/>
<g transform="matrix(.70035,0,0,.70035,360.28981,751.75149)">
<path d="m538.4195,257.9523c0,3.0469-2.4032,5.5169-5.3678,5.5169-2.9646,0-5.3678,-2.47-5.3678,-5.5169 0,-3.0469 2.4032,-5.5169 5.3678,-5.5169 2.9646,0 5.3678,2.47 5.3678,5.5169z" fill="#fff" stroke="#000" stroke-linecap="round" stroke-linejoin="round" stroke-width="2"/>
<path d="m555.2684,260.4871c0,.9058-.4005,1.6402-.8946,1.6402-.4941,0-.8946,-.7343-.8946,-1.6402 0,-.9058 .4005,-1.6402 .8946,-1.6402 .4941,0 .8946,.7343 .8946,1.6402z" fill="#fff" stroke="#000" stroke-linecap="round" stroke-linejoin="round" stroke-width="2" transform="translate(-23.6822,-2.4475)"/>
</g>
<path d="m739.6348,896.9373-4.9129,1.7195c-3.4793,4.7493-6.1746,9.8146-17.932,13.0191-.6315,12.9362-5.015,13.8363-8.8431,14.9842-3.781,-1.568-4.1993,-7.5134-5.8954,-11.7908-7.1015,-10.6901-5.7854,-19.3103 1.2282,-26.5295-.6155,-.9587-.2063,.124-.3597,-1.9898 .4468,-.0791 2.9204,-1.7795 5.6498,-3.6846 1.5296,.5391 1.2016,-.1667 1.588,1.7442-.2925,-1.8693 .6485,-3.2451 1.4739,-4.6672 1.0745,-1.12 3.239,-2.4217 5.6919,-3.7715-.5712,-1.6883 .7001,-3.1133 1.6774,-4.5804 3.828,-2.8276 7.4543,-3.6278 11.0539,-3.9303 5.7939,-2.6096 10.6592,-3.5919 12.7735,.2456 2.0274,-.2702 3.3763,-1.3885 7.1236,.4913 8.0704,-2.1265 9.2554,3.8197 10.8083,9.3344 1.5378,1.0206 3.3001,.8336 4.6102,.2605 6.1664,-2.5325 8.105,2.94 12.5849,7.8457 8.2601,-4.6674 7.2584,7.9257 10.8083,12.0365 6.2798,-4.4981 8.636,29.1433-2.0669,29.4474-.5304,3.657-1.5504,4.8662-2.5284,6.2849-3.4467,2.3942-3.7824,1.8447-5.6051,2.7022-1.0622,-.2453 1.7146,-7.022 1.8485,-9.9398-2.5375,-4.8313-2.6593,-10.4678-2.4564,-16.2125l-2.4564,-1.4739c-6.7054,4.5389-9.382,-3.8269-14.0017,-5.8955-2.0117,1.0494-3.8691,.2485-5.6498,-1.4739-11.9826,4.8646-14.2201,.0402-16.2125,-4.1759z" stroke="#000" stroke-width="0"/>
<g transform="matrix(.58012,0,0,.58012,182.54484,882.62122)">
<path d="m162.1295,173.4835c0,5.1605-29.9623,9.3439-66.9226,9.3439-36.9603,0-66.9226,-4.1834-66.9226,-9.3439 0,-5.1605 29.9623,-9.3439 66.9226,-9.3439 36.9603,0 66.9226,4.1834 66.9226,9.3439z" opacity=".99" stroke="#000" stroke-width="1.5" transform="matrix(1.05335,0,0,1.05335,.53098,-58.78367)"/>
<path d="m171.3241,51.5488c0,41.5535-26.0289,55.3843-67.092,68.3497C53.882,135.7962 35.055,93.6145 29.8743,51.5488 24.795,10.3069 61.5389,-23.6905 100.5992,-23.6905c39.0603,0 70.7249,33.6858 70.7249,75.2393z" fill="#fff" opacity=".99" stroke="#000" stroke-width="3.16"/>
<path d="m25.5047,33.8676 39.7321,0 0,16.5526-39.7321,0 0,-16.5526z" fill="#fff" opacity=".99" stroke="#000" stroke-width="1.58"/>
<path d="m80.2479,37.7064c-5.6532,1.5347-9.2044,2.2474-14.5581,0l0,4.8309c5.3435,-3.1737 9.0585,-2.5595 14.5581,0l0,-4.8309z" opacity=".99" stroke="#000" stroke-width=".6052"/>
<path d="m121.3389,37.7358 48.508,-7.4065 0,2.9261-48.508,7.4065 0,-2.9261z" opacity=".99" stroke="#000" stroke-width="1.58"/>
<path d="M86.3037,94.4352C96.1666,91.172 112.6016,90.3187 118.8392,81.6178" fill="none" stroke="#000" stroke-width="1.0533"/>
<path d="m144.9904,127.1643c15.6114,-35.5999 2.1927,-61.5231 3.2284,-92.2645L117.0316,3.8928C104.3791,5.5862 92.6322,14.2977 79.9174,1.3819 64.4607,-14.3191 56.4412,-5.0994 48.7087,-.7295L33.0959,24.3332c-.0093,-.007-5.4341,-28.4322 6.1957,-34.086 24.8771,-12.094 52.6886,-29.168 79.6878,-23.1531 23.376,5.2078 44.1725,25.5801 53.9597,47.438 13.4594,30.0593-.7552,98.8023-.7552,98.8023l-27.1935,13.8299z" opacity=".99" stroke="#000" stroke-width="1.58"/>
<path d="m137.7514,83.816-1.881,23.7004" fill="none" stroke="#000" stroke-width="1.0533"/>
<path d="m147.3444,76.8563-1.881,23.7004" fill="none" stroke="#000" stroke-width="1.0533"/>
<path d="m143.0181,80.054-1.881,23.7004" fill="none" stroke="#000" stroke-width="1.0533"/>
<path d="m81.2171,34.2794 39.7321,0 0,16.5526-39.7321,0 0,-16.5526z" fill="#fff" opacity=".99" stroke="#000" stroke-width="1.58"/>
<path d="m123.9318,94.8269-1.8868,22.1166" fill="none" stroke="#000" stroke-width="1.0191"/>
<path d="m132.6575,89.193-1.9212,21.4677" fill="none" stroke="#000" stroke-width="1.0132"/>
<path d="m128.3283,92.1411-1.8868,22.1166" fill="none" stroke="#000" stroke-width="1.0191"/>
<path d="m109.5336,103.1176-1.881,23.7004" fill="none" stroke="#000" stroke-width="1.0533"/>
<path d="m119.1153,97.7588-1.8868,22.1166" fill="none" stroke="#000" stroke-width="1.0191"/>
<path d="m114.588,100.8307-1.7087,22.2654" fill="none" stroke="#000" stroke-width=".9731"/>
<path d="m95.5305,112.0151-1.8878,18.3236" fill="none" stroke="#000" stroke-width=".9279"/>
<path d="m105.1585,106.6344-1.8878,18.3236" fill="none" stroke="#000" stroke-width=".9279"/>
<path d="m100.8165,109.1066-1.8878,18.3236" fill="none" stroke="#000" stroke-width=".9279"/>
<path d="m83.0428,114.0329-1.8878,17.219" fill="none" stroke="#000" stroke-width=".9279"/>
<path d="m91.4081,113.7804-1.8878,17.219" fill="none" stroke="#000" stroke-width=".9279"/>
<path d="m87.5711,114.0909-1.8878,17.219" fill="none" stroke="#000" stroke-width=".9279"/>
<path d="m78.3531,113.3518-1.8878,17.219" fill="none" stroke="#000" stroke-width=".9279"/>
<path d="m74.0111,113.2835-1.8878,17.219" fill="none" stroke="#000" stroke-width=".9279"/>
<path d="m69.8868,112.4749-1.8878,17.219" fill="none" stroke="#000" stroke-width=".9279"/>
<path d="M65.7939,111.3691 63.9061,128.5881" fill="none" stroke="#000" stroke-width=".9279"/>
<path d="m61.7533,110.3436-1.8878,17.219" fill="none" stroke="#000" stroke-width=".9279"/>
<path d="m57.765,109.0656-1.8878,17.219" fill="none" stroke="#000" stroke-width=".9279"/>
<path d="m151.4532,74.5102-1.881,23.7004" fill="none" stroke="#000" stroke-width="1.0533"/>
<path d="m149.1804,53.4233-1.881,23.7004" fill="none" stroke="#000" stroke-width="1.0533"/>
<path d="M144.8399,56.943 142.9589,80.6434" fill="none" stroke="#000" stroke-width="1.0533"/>
<path d="m139.5997,60.589-1.881,23.7004" fill="none" stroke="#000" stroke-width="1.0533"/>
<path d="m55.1441,107.289-.4574,4.1721" fill="none" stroke="#000"/>
<path d="m52.193,105.1461-.4574,4.1721" fill="none" stroke="#000"/>
<path d="m49.7823,103.3604-.4574,4.1721" fill="none" stroke="#000"/>
</g>
<text font-family="Sans" font-size="20" letter-spacing="0" line-height="562.5" transform="translate(0,602.3622)" word-spacing="0" x="335.7143" y="174.2857">
   <tspan x="335.7143" y="174.2857">BIBLIOTHEQUE !</tspan>
  </text>
<text font-family="Sans" font-size="20" letter-spacing="0" line-height="562.5" word-spacing="0" x="683.8491" y="776.6479">
   <tspan text-align="center" text-anchor="middle" x="683.8491" y="776.6479">Ah non pardon...</tspan>
   <tspan text-align="center" text-anchor="middle" x="683.8491" y="801.6479">Réflexe...</tspan>
  </text>
<path d="m672.8571,212.1429-19.2857,50.7143" fill="none" stroke="#000" transform="translate(0,602.3622)"/>
<path d="m688.2143,304.2857 6.7857,0" fill="none" stroke="#000" transform="translate(0,602.3622)"/>
<path d="m690,325.7143 8.9286,0" fill="none" stroke="#000" transform="translate(0,602.3622)"/>
<path d="m689.2857,343.9286 8.9286,.7143" fill="none" stroke="#000" transform="translate(0,602.3622)"/>
<path d="m319.2857,255-14.6428,-2.1429" fill="none" stroke="#000" transform="translate(0,602.3622)"/>
<path d="m298.5714,298.9286 5.7143,1.7857" fill="none" stroke="#000" transform="translate(0,602.3622)"/>
<path d="m299.6429,339.2857 8.5714,-1.4286" fill="none" stroke="#000" transform="translate(0,602.3622)"/>
<path d="M388.5714,187.8571 361.4286,240" fill="none" stroke="#000" transform="translate(0,602.3622)"/>
<text font-family="Sans" font-size="20" letter-spacing="0" line-height="562.5" word-spacing="0" x="180.3355" y="762.3622">
   <tspan text-align="center" text-anchor="middle" x="180.3355" y="762.3622">J'ai enfin trouvé mon</tspan>
   <tspan text-align="center" text-anchor="middle" x="180.3355" y="787.3622">bouquin dans une</tspan>
   <tspan text-align="center" text-anchor="middle" x="180.3355" y="812.3622">librairie !</tspan>
  </text>
<path d="m192.1429,222.8571 16.4286,38.5714" fill="none" stroke="#000" transform="translate(0,602.3622)"/>
<path d="m516.7857,327.3214a1.9643,1.9643 0 1 1 -3.9286,0 1.9643,1.9643 0 1 1 3.9286,0z" fill="#fff" stroke="#000" stroke-linecap="square" stroke-linejoin="bevel" stroke-width="4" transform="matrix(1.42321,0,0,.65182,-216.10835,717.59232)"/>
<path d="m795.7143,331.0714 12.8571,-2.5" fill="none" stroke="#000" transform="translate(0,602.3622)"/>
<path d="m464.6702,359.3388a3.1567,2.0203 0 1 1 -6.3134,0 3.1567,2.0203 0 1 1 6.3134,0z" fill="#fff" stroke="#000" stroke-linecap="square" stroke-linejoin="bevel" stroke-width="4" transform="translate(0,598.8266)"/>
<path d="m723.7666,924.028c1.0571,-.3078 2.1059,-.5991 3.1937,-.7691 1.1078,-.2329 2.2244,-.3835 3.345,-.5369 .8806,-.1552 1.7499,-.3223 2.6369,-.4309 1.2923,-.1882 2.6088,-.2694 3.915,-.2989 .6561,-.0488 1.3038,-.0279 1.9585,.0163l-3.3791,4.0111c-.6319,-.043-1.2618,-.0384-1.8948,-.0128-1.301,.05-2.607,.1228-3.8905,.351-.8805,.122-1.7473,.323-2.6311,.4252-1.1176,.1429-2.224,.3377-3.3308,.5481-1.0765,.1935-2.1212,.5112-3.167,.8286l3.2441,-4.1314z" stroke="#000" stroke-linecap="round" stroke-linejoin="round" stroke-width="1.4007"/>
<path d="m757.669,919.6283c-1.0544,-.3167-2.1006,-.6171-3.1869,-.7963-1.1058,-.2425-2.221,-.4027-3.3403,-.5655-.8792,-.1628-1.7471,-.3374-2.6332,-.4536-1.2907,-.1992-2.6065,-.2918-3.9123,-.3324-.6556,-.0547-1.3035,-.0395-1.9585,-5.8e-4l3.3446,4.0399c.6322,-.0372 1.2621,-.0267 1.8948,0 1.3005,.0605 2.6058,.1452 3.8873,.3844 .8795,.1295 1.7445,.3379 2.6273,.4478 1.1164,.1525 2.221,.3565 3.326,.5764 1.0748,.2026 2.1167,.5292 3.1598,.8556l-3.2087,-4.1589z" stroke="#000" stroke-linecap="round" stroke-linejoin="round" stroke-width="1.4007"/>
<path d="m749.2807,957.9129 8.3338,-3.0305" fill="none" stroke="#000"/>
<path d="m341.8216,332.3267c14.4933,-23.5277 25.5412,3.0547 21.9337,4.9028z" stroke="#000" transform="translate(0,602.3622)"/>
</g>
</svg>
