<svg version="1.1" viewBox="0 0 900 450" xmlns="http://www.w3.org/2000/svg" xmlns:svg="http://www.w3.org/2000/svg">
<g transform="translate(0,-602.3622)">
<path d="M50.144,692.3324H831.1459A31.621,31.621 0 0 1 862.7669,723.9534V972.3023A31.621,31.621 0 0 1 831.1459,1003.9233H50.144A31.621,31.621 0 0 1 18.523,972.3023V723.9534A31.621,31.621 0 0 1 50.144,692.3324z" fill="#fff" stroke="#000" stroke-linecap="round" stroke-width="7.4907"/>
<path d="m19.6751,930.0624 840.4469,0" fill="none" stroke="#000"/>
<path d="m565.3572,345a28.8393,1.7857 0 1 1 -57.6786,0 28.8393,1.7857 0 1 1 57.6786,0z" stroke="#000" stroke-linecap="square" stroke-linejoin="bevel" transform="translate(-.5357,599.3265)"/>
<path d="m545.7997,876.0659-18.954,0c-3.0807,16.5675-17.652,12.5353-19.4454,19.4453l3.2603,30.1996c6.4291,11.3085 14.6552,18.4866 22.7057,18.2598l5.0235,0c8.1427,-.4384 20.6059,-10.2082 22.7057,-20.631l4.1495,-27.8284c-1.2665,-4.8023-12.6324,-.7776-19.4454,-19.4453z" fill="#fff" stroke="#000" stroke-linecap="round" stroke-linejoin="round" stroke-width="2.1372"/>
<path d="m538.4195,257.9523c0,3.0469-2.4032,5.5169-5.3678,5.5169-2.9646,0-5.3678,-2.47-5.3678,-5.5169 0,-3.0469 2.4032,-5.5169 5.3678,-5.5169 2.9646,0 5.3678,2.47 5.3678,5.5169z" fill="#fff" stroke="#000" stroke-linecap="round" stroke-linejoin="round" stroke-width="2" transform="matrix(-.58049,.086,.086,.58049,822.63678,716.24095)"/>
<path d="m555.2684,260.4871c0,.9058-.4005,1.6402-.8946,1.6402-.4941,0-.8946,-.7343-.8946,-1.6402 0,-.9058 .4005,-1.6402 .8946,-1.6402 .4941,0 .8946,.7343 .8946,1.6402z" fill="#fff" stroke="#000" stroke-linecap="round" stroke-linejoin="round" stroke-width="2" transform="matrix(-.58049,.086,.086,.58049,836.14817,712.71399)"/>
<g transform="matrix(-.58393,-.0583,-.0583,.58393,875.20195,791.84057)">
<path d="m538.4195,257.9523c0,3.0469-2.4032,5.5169-5.3678,5.5169-2.9646,0-5.3678,-2.47-5.3678,-5.5169 0,-3.0469 2.4032,-5.5169 5.3678,-5.5169 2.9646,0 5.3678,2.47 5.3678,5.5169z" fill="#fff" stroke="#000" stroke-linecap="round" stroke-linejoin="round" stroke-width="2"/>
<path d="m555.2684,260.4871c0,.9058-.4005,1.6402-.8946,1.6402-.4941,0-.8946,-.7343-.8946,-1.6402 0,-.9058 .4005,-1.6402 .8946,-1.6402 .4941,0 .8946,.7343 .8946,1.6402z" fill="#fff" stroke="#000" stroke-linecap="round" stroke-linejoin="round" stroke-width="2" transform="translate(-23.6822,-2.4475)"/>
</g>
<path d="m542.0584,881.6656 4.1165,1.4408c2.9154,3.9795 5.1738,8.2237 15.0253,10.9088 .5291,10.8393 4.2021,11.5936 7.4097,12.5554 3.1681,-1.3138 3.5186,-6.2956 4.9398,-9.8796 5.9504,-8.9573 4.8476,-16.1803-1.0291,-22.2293 .5157,-.8033 .1729,.1039 .3014,-1.6673-.3744,-.0662-2.447,-1.4911-4.734,-3.0874-1.2816,.4517-1.0068,-.1397-1.3306,1.4615 .2451,-1.5662-.5434,-2.7191-1.235,-3.9107-.9003,-.9385-2.714,-2.0293-4.7693,-3.1602 .4787,-1.4146-.5866,-2.6087-1.4055,-3.838-3.2075,-2.3693-6.246,-3.0398-9.2622,-3.2932-4.8548,-2.1865-8.9314,-3.0097-10.703,.2059-1.6987,-.2265-2.829,-1.1634-5.969,.4117-6.7623,-1.7818-7.7552,3.2005-9.0564,7.8214-1.2885,.8552-2.7652,.6985-3.8629,.2183-5.1669,-2.1219-6.7913,2.4634-10.545,6.574-6.9212,-3.9109-6.0819,6.6411-9.0564,10.0855-5.2619,-3.7689-7.2362,24.4195 1.7319,24.6742 .4444,3.0642 1.2991,4.0774 2.1186,5.2663 2.888,2.006 3.1693,1.5457 4.6966,2.2641 .8901,-.2055-1.4367,-5.8838-1.5489,-8.3286 2.1262,-4.0481 2.2283,-8.7711 2.0583,-13.5846l2.0583,-1.2349c5.6185,3.8032 7.8613,-3.2067 11.7321,-4.9399 1.6856,.8793 3.242,.2082 4.734,-1.235 10.0403,4.0761 11.9151,.0335 13.5846,-3.499z" stroke="#000" stroke-width="0"/>
<path d="m557.15,900.1967c-.8857,-.2578-1.7645,-.502-2.676,-.6444-.9282,-.1951-1.8638,-.3213-2.8028,-.4499-.7379,-.13-1.4663,-.2701-2.2095,-.3611-1.0828,-.1577-2.186,-.2256-3.2804,-.2505-.5497,-.0411-1.0925,-.0235-1.641,.0134l2.8314,3.361c.5295,-.036 1.0573,-.0318 1.5877,-.0109 1.0901,.0419 2.1844,.1029 3.2599,.2941 .7378,.1022 1.4641,.2706 2.2046,.3563 .9365,.1198 1.8635,.283 2.7909,.4593 .9021,.1621 1.7774,.4283 2.6536,.6943l-2.7183,-3.4617z" stroke="#000" stroke-linecap="round" stroke-linejoin="round" stroke-width="1.1737"/>
<path d="m528.7428,900.6786c.8835,-.2654 1.7601,-.5172 2.6704,-.6672 .9265,-.2032 1.861,-.3374 2.7989,-.4738 .7367,-.1365 1.464,-.2827 2.2064,-.3801 1.0815,-.167 2.184,-.2446 3.2781,-.2786 .5494,-.0461 1.0922,-.0335 1.6411,-4.2e-4l-2.8025,3.385c-.5298,-.031-1.0575,-.0226-1.5877,0-1.0897,.0511-2.1834,.1217-3.2572,.3221-.7369,.1085-1.4617,.2831-2.2015,.3753-.9354,.1277-1.861,.2986-2.7869,.483-.9006,.1698-1.7736,.4434-2.6476,.7169l2.6886,-3.4848z" stroke="#000" stroke-linecap="round" stroke-linejoin="round" stroke-width="1.1737"/>
<path d="m297.2947,688.3508 0,313.2704" fill="none" stroke="#000" stroke-width="5.6728"/>
<path d="M48.5301,659.6167H299.694A15.6552,15.6552 0 0 1 315.3492,675.2719V675.2719A15.6552,15.6552 0 0 1 299.694,690.9271H48.5301A15.6552,15.6552 0 0 1 32.8749,675.2719V675.2719A15.6552,15.6552 0 0 1 48.5301,659.6167z" fill="#fff" stroke="#000" stroke-linecap="round" stroke-linejoin="round" stroke-width="4.5094" transform="matrix(1,-.00315,.00315,1,0,0)"/>
<path d="m101.5203,44.9288a36.8706,34.8503 0 1 1 -73.7411,0 36.8706,34.8503 0 1 1 73.7411,0z" stroke="#000" stroke-linecap="round" stroke-linejoin="round" stroke-width="7.491" transform="matrix(1.24255,-.00391,.00217,.68917,-23.16913,636.66236)"/>
<text font-family="Bitstream Vera Sans" font-size="40" transform="matrix(1,-.00315,.00315,1,0,0)" x="20.5553" y="682.4648">
   <tspan fill="#f9f9f9" x="20.5553" y="682.4648">195</tspan>
  </text>
<text font-family="Bitstream Vera Sans" font-size="20" transform="matrix(1,-.00315,.00315,1,0,0)" x="169.8588" y="681.7372">
   <tspan x="169.8588" y="681.7372">Steak</tspan>
  </text>
<g transform="matrix(.83791,0,0,.83791,35.95759,124.76335)">
<path d="m210.3571,349.8214c0,1.578-18.1485,2.8571-40.5357,2.8571-22.3873,0-40.5357,-1.2792-40.5357,-2.8571 0,-1.5779 18.1485,-2.8571 40.5357,-2.8571 22.3873,0 40.5357,1.2792 40.5357,2.8571z" stroke="#000" stroke-width="4" transform="matrix(1.21804,0,0,1.21804,-113.87782,535.99768)"/>
<path d="m143.2257,883.2251 0,44.2186c0,18.4738-14.8724,33.3462-33.3462,33.3462l-32.7186,0c-18.4738,0-33.3462,-14.8724-33.3462,-33.3462l0,-44.2186" fill="#fff" stroke="#000" stroke-linecap="round" stroke-linejoin="round" stroke-width="3.3631"/>
<path d="M70.6366,901.5184H92.3672A.7205,.7205 0 0 1 93.0877,902.2389V911.4966A.7205,.7205 0 0 1 92.3672,912.2171H70.6366A.7205,.7205 0 0 1 69.9161,911.4966V902.2389A.7205,.7205 0 0 1 70.6366,901.5184z" stroke="#000" stroke-linecap="square" stroke-linejoin="round" stroke-width="3.4477"/>
<path d="M108.8557,901.5184H127.7043A2.1615,2.1615 0 0 1 129.8657,903.6798V910.0556A2.1615,2.1615 0 0 1 127.7043,912.2171H108.8557A2.1615,2.1615 0 0 1 106.6942,910.0556V903.6798A2.1615,2.1615 0 0 1 108.8557,901.5184z" stroke="#000" stroke-linecap="square" stroke-linejoin="round" stroke-width="3.4477"/>
<path d="m45.946,906.1856c.5071,.01 1.0144,.006 1.5216,.004 .3351,-.002 .6703,-.004 1.0054,-.004 .2701,-4e-4 .5402,-3.7e-4 .8102,-3.7e-4 .2807,-5.8e-4 .5615,5.5e-4 .8422,9.2e-4 .3607,-.009 .7158,-3.4e-4 1.0729,.0468 .369,.0503 .7415,.0662 1.1138,.0764 .3742,-.0146 .7414,.0544 1.1117,.0914 .3767,.034 .7553,.0376 1.1333,.0416 .3972,.002 .7944,.002 1.1915,6e-4 .345,-7e-4 .6899,-9.2e-4 1.0349,-.002 .2835,-7.1e-4 .567,-9.1e-4 .8505,-9.3e-4 .2692,-7e-5 .5383,-6e-5 .8075,-5e-5 .2692,1e-5 .5384,1e-5 .8076,1e-5 .2943,-3.6e-4 .5885,4.9e-4 .8828,.002 .3641,.002 .7281,4.1e-4 1.0922,-5.8e-4 .3425,-2.5e-4 .6849,4.4e-4 1.0274,9.3e-4 .3663,-1.6e-4 .7326,-8e-5 1.099,-9.3e-4 .3509,1.8e-4 .7017,6.9e-4 1.0525,1.5e-4 .3191,-9.2e-4 .6382,-.002 .9573,2.3e-4 .4923,.003 .9847,.004 1.477,.006 .6709,.003 1.3419,.003 2.0129,9.3e-4 .4924,-9.3e-4 .9847,-.005 1.4771,-.005 .4075,6e-4 .815,-2e-5 1.2224,-.002 .0564,-1.8e-4 .1128,-3.7e-4 .1692,-5.5e-4l-1.6122,1.1074c-.0559,-1.9e-4-.1118,-3.8e-4-.1676,-5.6e-4-.4062,-.002-.8123,-.002-1.2184,-.002-.4875,-2e-4-.975,-.004-1.4625,-.005-.6718,-.002-1.3437,-.002-2.0155,9.1e-4-.4978,.002-.9956,.003-1.4933,.006-.3193,.002-.6386,.002-.958,2.4e-4-.351,-5.3e-4-.702,-3e-5-1.053,1.4e-4-.3654,-9.2e-4-.7307,-8.2e-4-1.0961,-9.2e-4-.3438,9.2e-4-.6876,.002-1.0314,.002-.3635,-9.2e-4-.727,-.003-1.0905,-5.8e-4-.296,9.2e-4-.592,.002-.888,.002-.2692,0-.5384,0-.8076,0-.2691,0-.5382,2e-5-.8073,-6e-5-.2826,-1.2e-4-.5651,-3.2e-4-.8476,-8.9e-4-.3435,-6.3e-4-.687,-7.7e-4-1.0305,-8.1e-4-.3972,-7.6e-4-.7944,6.5e-4-1.1916,-.004-.383,-.006-.7666,-.0134-1.1475,-.0549-.3664,-.0412-.7313,-.0897-1.1016,-.0802-.3765,-.014-.7524,-.0402-1.1258,-.0894-.3528,-.0373-.7067,-.027-1.0612,-.0257-.2818,5.1e-4-.5635,.002-.8453,9.2e-4-.2697,10e-6-.5394,3e-5-.8092,-3.7e-4-.3313,-6.2e-4-.6627,-.002-.994,-.004-.5108,-.003-1.0217,-.006-1.5325,.004l1.6153,-1.1096z" stroke="#000" stroke-linecap="square" stroke-linejoin="round" stroke-width=".4401"/>
<path d="m130.4293,906.4411c.6499,.0109 1.3,.009 1.95,.009 .5958,-8.2e-4 1.1916,-.003 1.7873,-.006 .3981,-.002 .7963,-.002 1.1944,-.003 .3137,-7.5e-4 .6275,-.002 .9413,-.002 .2741,.02 .5375,-.0531 .8069,-.0883 .2702,-.0315 .5426,-.036 .8145,-.0392 .2698,-.002 .5395,-9.3e-4 .8093,-7.8e-4 .2694,3.7e-4 .5389,4.9e-4 .8083,5.6e-4 .2694,5e-5 .5389,5e-5 .8083,5e-5 .2694,0 .5389,0 .8083,0 .2893,-5.6e-4 .5785,9.2e-4 .8678,9.2e-4 .2929,-2.3e-4 .5859,-6.3e-4 .8788,-8.6e-4 .2713,-1.6e-4 .5426,-1.8e-4 .8139,-1.9e-4 .1794,-10e-6 .0897,-10e-6 .2692,-10e-6l-1.6168,1.1105c-.1794,0-.0897,0-.2691,0-.2711,-2e-5-.5422,-4e-5-.8133,-2.1e-4-.2921,-2.1e-4-.5842,-6.3e-4-.8763,-8.6e-4-.2903,4e-5-.5806,.002-.8708,9.3e-4-.2694,1e-5-.5389,1e-5-.8083,1e-5-.2694,-1e-5-.5389,-1e-5-.8083,-1.1e-4-.2695,-1.2e-4-.5389,-3.5e-4-.8084,-6.7e-4-.269,-2.1e-4-.538,-9.2e-4-.8069,.004-.2672,.006-.5347,.018-.799,.0587-.2734,.0418-.5453,.0838-.8237,.0651-.3119,-4e-4-.6237,-9.3e-4-.9356,-.002-.3954,-5e-4-.7909,-5.8e-4-1.1863,-.003-.5908,-.003-1.1816,-.005-1.7724,-.006-.6587,-4.4e-4-1.3175,-.002-1.9762,.009l1.6131,-1.108z" stroke="#000" stroke-linecap="square" stroke-linejoin="round" stroke-width=".4401"/>
<path d="m93.2242,906.5918c.493,.0624 .9904,.0821 1.4871,.0968 .4433,.0107 .8868,.0107 1.3301,.01 .366,-4.6e-4 .7321,-5.8e-4 1.0981,-.002 .7348,.0189 1.47,.01 2.2049,.006 .4441,-.004 .8882,-.005 1.3322,-.006 .3541,2e-5 .7083,-3.9e-4 1.0624,5.5e-4 .3723,9.2e-4 .7446,-8.8e-4 1.1169,-2.8e-4 .3359,-8e-4 .6719,-7.1e-4 1.0078,-6.1e-4 .3365,5.1e-4 .6729,2e-4 1.0094,-4.8e-4 .3214,9.3e-4 .6428,1.1e-4 .9642,-4.1e-4 .3145,9.2e-4 .6289,4.1e-4 .9434,-4e-5 .2778,-3.9e-4 .5555,-5.1e-4 .8333,-5.8e-4 .2323,.054 .466,.0929 .7043,.1116 .2585,.0159 .5176,.016 .7765,.0166 .2693,1.7e-4 .5386,-3.6e-4 .808,-6.3e-4 .1348,-1.3e-4 .2697,-1.9e-4 .4045,-2.4e-4l-1.6167,1.1106c-.1348,9e-5-.2696,1.7e-4-.4044,3.2e-4-.2696,3e-4-.5393,9.2e-4-.8089,-3.6e-4-.2633,-.002-.5272,-.005-.7894,-.0306-.2314,-.0272-.458,-.0828-.6905,-.0969-.2772,-7e-5-.5544,-1.8e-4-.8316,-5.8e-4-.3144,-4.4e-4-.6288,-9.2e-4-.9433,-5e-5-.321,-5e-4-.642,-.002-.963,-4e-4-.336,-6.8e-4-.672,-9.3e-4-1.008,-4.7e-4-.3353,1e-4-.6707,1.7e-4-1.0061,-6.1e-4-.372,5.9e-4-.744,-.002-1.116,-2.9e-4-.3547,9.2e-4-.7094,5.4e-4-1.064,5.5e-4-.4378,-.002-.8756,-.003-1.3134,-.006-.7412,-.004-1.4827,-.0122-2.2238,.006-.3654,-3.9e-4-.7309,4.3e-4-1.0963,-3.3e-4-.4418,-.003-.8837,-.006-1.3253,-.0209-.5057,-.0196-1.0108,-.0497-1.5143,-.0988l1.6318,-1.0918z" stroke="#000" stroke-linecap="square" stroke-linejoin="round" stroke-width=".4401"/>
<path d="m57.6704,871.6762 0,17.1222" fill="none" stroke="#000" stroke-linecap="round" stroke-width="4.4364"/>
<path d="m66.4646,870.0563 0,17.1222" fill="none" stroke="#000" stroke-linecap="round" stroke-width="4.4364"/>
<path d="m74.7166,871.4084 0,17.1222" fill="none" stroke="#000" stroke-linecap="round" stroke-width="4.4364"/>
<path d="m85.4985,870.3306 0,17.1222" fill="none" stroke="#000" stroke-linecap="round" stroke-width="4.4364"/>
<path d="m94.8787,872.3497 0,17.1222" fill="none" stroke="#000" stroke-linecap="round" stroke-width="4.4364"/>
<path d="m105.6168,872.1877 0,17.1222" fill="none" stroke="#000" stroke-linecap="round" stroke-width="4.4364"/>
<path d="m115.3145,870.6049 0,17.1222" fill="none" stroke="#000" stroke-linecap="round" stroke-width="4.4364"/>
<path d="m124.4701,873.4091 0,17.1222" fill="none" stroke="#000" stroke-linecap="round" stroke-width="4.4364"/>
<path d="m134.3251,873.0687 0,17.1222" fill="none" stroke="#000" stroke-linecap="round" stroke-width="4.4364"/>
<path d="m70.0115,938.1043c4.5608,4.905 13.6838,6.1602 22.9016,7.3397-7.4977,2.0426-22.9803,6.7726-22.9016,-7.3397z" stroke="#000" stroke-width=".7156"/>
<path d="m50.3904,876.044 0,17.1222" fill="none" stroke="#000" stroke-linecap="round" stroke-width="4.4364"/>
</g>
<path d="m580.9845,688.4497 0,303.442 0,10.4485" fill="none" stroke="#000" stroke-width="5.6784"/>
<text font-family="Sans" font-size="20" letter-spacing="0" line-height="562.5" word-spacing="0" x="198.1926" y="760.2193">
   <tspan text-align="center" text-anchor="middle" x="198.1926" y="760.2193">C'est quoi ce truc ?</tspan>
  </text>
<path d="m154.2857,169.6429a61.4286,8.2143 0 1 1 -122.8571,0 61.4286,8.2143 0 1 1 122.8571,0z" stroke="#000" transform="matrix(-.58683,0,0,.58683,251.86943,832.60251)"/>
<path d="m205.2496,864.8262-18.954,0c-3.0807,16.5675-17.652,12.5353-19.4454,19.4453l3.2603,30.1996c6.4291,11.3085 14.6552,18.4866 22.7057,18.2598l5.0235,0c8.1427,-.4384 20.6059,-10.2082 22.7057,-20.631l4.1495,-27.8284c-1.2665,-4.8023-12.6324,-.7776-19.4454,-19.4453z" fill="#fff" stroke="#000" stroke-linecap="round" stroke-linejoin="round" stroke-width="2.1372"/>
<path d="m538.4195,257.9523c0,3.0469-2.4032,5.5169-5.3678,5.5169-2.9646,0-5.3678,-2.47-5.3678,-5.5169 0,-3.0469 2.4032,-5.5169 5.3678,-5.5169 2.9646,0 5.3678,2.47 5.3678,5.5169z" fill="#fff" stroke="#000" stroke-linecap="round" stroke-linejoin="round" stroke-width="2" transform="matrix(-.34953,-.47138,-.47138,.34953,502.74816,1061.6944)"/>
<path d="m555.2684,260.4871c0,.9058-.4005,1.6402-.8946,1.6402-.4941,0-.8946,-.7343-.8946,-1.6402 0,-.9058 .4005,-1.6402 .8946,-1.6402 .4941,0 .8946,.7343 .8946,1.6402z" fill="#fff" stroke="#000" stroke-linecap="round" stroke-linejoin="round" stroke-width="2" transform="matrix(-.34953,-.47138,-.47138,.34953,512.22868,1071.94705)"/>
<g transform="matrix(-.41858,-.41129,-.41129,.41858,537.5669,1011.4156)">
<path d="m538.4195,257.9523c0,3.0469-2.4032,5.5169-5.3678,5.5169-2.9646,0-5.3678,-2.47-5.3678,-5.5169 0,-3.0469 2.4032,-5.5169 5.3678,-5.5169 2.9646,0 5.3678,2.47 5.3678,5.5169z" fill="#fff" stroke="#000" stroke-linecap="round" stroke-linejoin="round" stroke-width="2"/>
<path d="m555.2684,260.4871c0,.9058-.4005,1.6402-.8946,1.6402-.4941,0-.8946,-.7343-.8946,-1.6402 0,-.9058 .4005,-1.6402 .8946,-1.6402 .4941,0 .8946,.7343 .8946,1.6402z" fill="#fff" stroke="#000" stroke-linecap="round" stroke-linejoin="round" stroke-width="2" transform="translate(-23.6822,-2.4475)"/>
</g>
<path d="m201.5082,870.4259 4.1165,1.4408c2.9154,3.9795 5.1738,8.2237 15.0253,10.9088 .5291,10.8393 4.2021,11.5936 7.4097,12.5554 3.1681,-1.3138 3.5186,-6.2956 4.9398,-9.8796 5.9504,-8.9573 4.8476,-16.1803-1.0291,-22.2293 .5157,-.8033 .1729,.1039 .3014,-1.6673-.3744,-.0662-2.447,-1.4911-4.734,-3.0874-1.2816,.4517-1.0068,-.1397-1.3306,1.4615 .2451,-1.5662-.5434,-2.7191-1.235,-3.9107-.9003,-.9385-2.714,-2.0293-4.7693,-3.1602 .4787,-1.4146-.5866,-2.6087-1.4055,-3.838-3.2075,-2.3693-6.246,-3.0398-9.2622,-3.2932-4.8548,-2.1865-8.9314,-3.0097-10.703,.2059-1.6987,-.2265-2.829,-1.1634-5.969,.4117-6.7623,-1.7818-7.7552,3.2005-9.0564,7.8214-1.2885,.8552-2.7652,.6985-3.8629,.2183-5.1669,-2.1219-6.7913,2.4634-10.545,6.574-6.9212,-3.9109-6.0819,6.6411-9.0564,10.0855-5.2619,-3.7689-7.2362,24.4195 1.7319,24.6742 .4444,3.0642 1.2991,4.0774 2.1186,5.2663 2.888,2.006 3.1693,1.5457 4.6966,2.2641 .8901,-.2055-1.4367,-5.8838-1.5489,-8.3286 2.1262,-4.0481 2.2283,-8.7711 2.0583,-13.5846l2.0583,-1.2349c5.6185,3.8032 7.8613,-3.2067 11.7321,-4.9399 1.6856,.8793 3.242,.2082 4.734,-1.235 10.0403,4.0761 11.9151,.0335 13.5846,-3.499z" stroke="#000" stroke-width="0"/>
<path d="m216.5999,893.1254c-.8857,-.2578-1.7645,-.502-2.676,-.6444-.9282,-.1951-1.8638,-.3213-2.8028,-.4499-.7379,-.13-1.4663,-.2701-2.2095,-.3611-1.0828,-.1577-2.186,-.2256-3.2804,-.2505-.5497,-.0411-1.0925,-.0235-1.641,.0134l2.8314,3.361c.5295,-.036 1.0573,-.0318 1.5877,-.0109 1.0901,.0419 2.1844,.1029 3.2599,.2941 .7378,.1022 1.4641,.2706 2.2046,.3563 .9365,.1198 1.8635,.283 2.7909,.4593 .9021,.1621 1.7774,.4283 2.6536,.6943l-2.7183,-3.4617z" stroke="#000" stroke-linecap="round" stroke-linejoin="round" stroke-width="1.1737"/>
<path d="m188.1927,889.4389c.8835,-.2654 1.7601,-.5172 2.6704,-.6672 .9265,-.2032 1.861,-.3374 2.7989,-.4738 .7367,-.1365 1.464,-.2827 2.2064,-.3801 1.0815,-.167 2.184,-.2446 3.2781,-.2786 .5494,-.0461 1.0922,-.0335 1.6411,-4.2e-4l-2.8025,3.385c-.5298,-.031-1.0575,-.0226-1.5877,0-1.0897,.0511-2.1834,.1217-3.2572,.3221-.7369,.1085-1.4617,.2831-2.2015,.3753-.9354,.1277-1.861,.2986-2.7869,.483-.9006,.1698-1.7736,.4434-2.6476,.7169l2.6886,-3.4848z" stroke="#000" stroke-linecap="round" stroke-linejoin="round" stroke-width="1.1737"/>
<path d="m195.2214,921.5178-6.9829,-2.5393" fill="none" stroke="#000" stroke-width=".8379"/>
<g transform="matrix(.12574,0,0,.12574,823.44423,1032.413)">
<path d="m162.9615,-66.1029c3.4935,4.0575 8.2353,4.5442 13.2828,4.8295 6.3854,-.1721 12.7816,-1.7005 18.7482,-3.9709 3.188,-1.2131 4.9498,-2.2461 7.9245,-3.8084-17.8031,10.4157-7.8919,4.8373-4.5635,1.3015 1.7244,-1.8318 2.7543,-3.7619 3.7268,-6.049 2.5265,-7.1174 2.8539,-14.7708 3.2849,-22.2438 .8398,-10.8784-1.4121,-21.5587-3.8369,-32.0902-2.9495,-11.0779-6.9553,-21.8431-11.3671,-32.4128-2.1125,-4.9937-4.5016,-9.8617-6.8287,-14.7566-3.1362,-6.0174-5.7017,-2.2804 12.0114,-9.1516 .6104,-.2368 .7311,1.087 1.1222,1.6121 .6549,.8793 1.3432,1.7331 2.0147,2.5997 6.5345,8.9671 14.393,16.8239 22.2682,24.5961 4.6332,4.5123 9.6016,8.7005 14.032,13.4186 1.6816,1.3731 2.6867,3.3087 4.04,4.9541 1.3218,1.1942 2.3559,-.063 3.524,-.88-20.4032,12.2348-13.1369,8.2804-9.2246,4.5289 1.5406,-1.4773 2.9931,-3.0561 4.4682,-4.5977 2.0935,-2.0887 4.0773,-4.3249 6.3699,-6.2061 6.0518,-4.966 14.4953,-8.9342 20.7536,-12.4943 5.7826,-2.554 11.6983,-4.7759 17.7067,-6.7339 1.2429,-.2695 6.0517,-2.1189 7.1497,-.869 .2555,.2908 .359,.686 .5385,1.029 .0249,.3507 .122,.7037 .0746,1.052-.3464,2.5421-4.2822,5.4998-5.9999,7.0812-7.8955,6.5272-15.5561,13.3165-22.8485,20.5113-6.3434,6.805-12.8959,13.5227-17.9461,21.3722-3.1182,4.9027-4.7756,10.316-5.5537,16.0199-.5154,5.1011-.4313,10.2374-.4233,15.3575 .2794,5.5658 .9893,11.1428 2.6464,16.4744 .9499,2.8397 2.6391,4.9259 5.3418,6.1729 1.7933,.6321 3.8468,1.0482 5.7562,.6876 .4443,-.0839 4.1482,-1.3389 4.4445,-1.4379 4.3672,-2.3833 14.9158,-7.9566-4.8252,2.8617-.781,.428 1.5035,-.9552 2.2436,-1.4505 1.7,-1.1377 2.1084,-1.4721 3.7035,-2.6614 1.913,-1.4312 1.0067,-.7357 2.723,-2.0808l13.6711,-5.4983c-1.7324,1.4564-.8048,.73-2.796,2.1623-8.0629,6.2254-16.9943,11.3785-26.2507,15.5961-4.0612,1.2122-7.06,1.7923-11.0152,-.0782-2.9124,-1.6424-4.8153,-4.0252-5.8395,-7.2464-1.6234,-5.4897-2.2357,-11.2047-2.7686,-16.8893-.0311,-5.1712-.1159,-10.3556 .3022,-15.5145 .7383,-5.9102 2.2958,-11.5511 5.4746,-16.6653 .6374,-1.0595 1.2164,-2.1564 1.9122,-3.1784 1.4293,-2.0993 3.5633,-4.5022 5.1926,-6.3909 3.5997,-4.173 7.2819,-8.2723 11.0846,-12.2621 7.0925,-7.1546 14.5679,-13.9155 22.3195,-20.352 2.1958,-2.0389 4.4682,-4.0268 6.363,-6.357 .3146,.1659-.6981,.139-1.0503,.1882-1.7578,.2457-3.4497,.7917-5.1425,1.3052-5.9412,1.9611-11.8224,4.1368-17.4628,6.8581 19.4412,-11.4974 7.7521,-4.9691 3.9527,-2.0455-2.3144,1.7808-4.2945,3.9798-6.3247,6.0613-7.3621,7.7662-7.7847,8.5886-20.2399,15.0176-2.0411,.9643-3.1823,.8498-4.779,-.8279-1.26,-1.6657-2.2693,-3.5234-3.8255,-4.9564-4.2421,-4.7917-8.972,-9.1394-13.4655,-13.6887-7.8003,-7.9395-15.7203,-15.7854-22.6621,-24.5085-.7459,-.8383-1.4925,-1.676-2.2377,-2.515-.414,-.4662-1.7128,-.9944-1.2397,-1.4005 11.2457,-9.654 10.609,-12.1815 13.514,-5.8078 2.1923,4.9946 4.5033,9.9394 6.4982,15.0188 4.1744,10.7594 8.0235,21.6562 11.1756,32.7627 2.5328,10.5786 5.0383,21.3246 4.3095,32.2869-.2875,7.5431-.73,15.2244-2.7778,22.5205-.6732,1.8665-.9058,2.8192-1.9806,4.5269-4.7227,7.5035-14.9088,11.0471-21.6041,15.3066-8.5205,4.1876-17.5853,7.1486-27.1755,7.1917-1.3332,-.1069-2.6764,-.126-3.9996,-.3207-3.9409,-.5799-7.6146,-2.3017-10.3419,-5.2234l12.7269,-7.6412z" stroke="#000" stroke-linecap="round" stroke-linejoin="round" stroke-width="2"/>
<path d="m285.1504,-83.2549c-5.88,1.6467-18.6251,9.5149 3.6228,-3.2161-3.0858,1.6423-4.9176,4.3146-6.3615,7.3973-.8239,2.47-1.7035,5.1777-1.5244,7.8292 .1239,1.8346 .601,2.756 1.225,4.4695 2.4426,4.8256 6.1987,8.7942 10.6559,11.8004 3.2897,2.2908 7.0292,3.3333 10.9988,3.3815 3.0629,-.6961 5.9092,-1.889 8.7139,-3.2794 1.1955,-.5927 4.6992,-2.5278 3.5526,-1.8452-13.2158,7.8669-9.9055,5.7434-5.2291,2.5405 3.8506,-2.9659 8.0361,-6.4071 9.0279,-11.451 .1385,-.7045 .1286,-1.4302 .1929,-2.1454-.2546,-6.3086-4.2409,-11.2474-8.0871,-15.9117-2.4245,-2.6982-5.17,-5.2714-8.4848,-6.8472-1.6823,-.7998-2.5447,-.9419-4.3262,-1.415-3.594,-.1953-7.3605,.1463-10.7726,1.3847-1.5775,.5726-3.9684,1.9034-5.4345,2.6786 19.9864,-11.9906 6.8908,-4.0746 2.7687,-.4895l-13.6034,5.5649c6.3305,-6.0894 14.7834,-9.6771 22.1418,-14.1306 2.1358,-1.0385 3.3967,-1.7563 5.6792,-2.4493 3.6325,-1.1029 7.5433,-1.3605 11.2846,-.8091 1.9239,.6139 2.7037,.7688 4.5106,1.7317 3.3646,1.793 6.1391,4.5163 8.621,7.3603 4.0463,4.9816 8.1538,10.1443 8.7701,16.7754-.0296,.8046 .0196,1.6161-.0889,2.4139-.7383,5.4273-4.7753,9.2853-8.8804,12.4917-7.9626,5.7154-3.8825,2.9492-19.2743,11.6675-4.0105,2.2717-8.3975,4.1951-13.0037,4.7328-4.1494,-.367-8.0102,-1.5898-11.3905,-4.108-4.5717,-3.3347-8.416,-7.5445-11.0934,-12.5605-.6247,-1.6344-1.3341,-3.1907-1.5477,-4.9537-.3345,-2.7611 .5846,-5.6627 1.2497,-8.2942 1.2789,-3.2492 2.902,-6.3291 5.9576,-8.2367 7.1822,-4.1341 13.903,-8.8778 21.9148,-11.0889l-11.7853,9.0117z" stroke="#000" stroke-linecap="round" stroke-linejoin="round" stroke-width="2"/>
<path d="m347.1504,-77.2549c-2.5469,.8146-5.1929,1.5133-7.6141,2.6735-.8131,.3896-1.5764,.8756-2.3647,1.3134 3.3457,-1.8736 6.6913,-3.7471 10.037,-5.6207-3.9716,2.6801-6.9185,5.3584-8.6955,9.85-1.1627,3.6999-.6052,6.8285 2.3247,9.5655 .7074,.6608 1.5389,1.1748 2.3083,1.7622 5.6004,3.2171 12.2296,4.3691 18.6442,3.6885 1.8388,-.1951 3.6423,-.6405 5.4634,-.9607 4.2145,-1.088 6.0512,-1.3908 10.0093,-3.0522 1.313,-.5511 5.0497,-2.628 3.8271,-1.898-17.7993,10.6288-9.7426,5.998-6.9473,3.1684 .6199,-.6275 1.1121,-1.3693 1.6682,-2.054 2.4376,-3.8135 2.5,-7.2055 .7831,-11.2688-.3152,-.7137-2.1315,-4.4568-3.4123,-3.6467-.2218,.1403-.3342,.4046-.5012,.6069 20.2171,-11.5287 12.5199,-9.601 10.5591,-3.9824-.8462,2.4247-.9939,4.7822-1.1102,7.3284 1.4046,11.8202 6.6264,22.7649 10.9162,33.7471 5.2161,14.5087 10.244,29.5646 10.8227,45.1266 .1152,3.097-.1863,6.1956-.2795,9.2933-.4626,2.9786-.7219,5.996-1.3878,8.9358-2.1724,9.5898-7.1162,18.3681-14.4574,24.947-1.2941,1.1597-2.7591,2.1134-4.1386,3.1701-5.5203,2.8839-10.7715,6.3551-16.5608,8.6516-2.3998,.952-8.1925,-1.0338-10.0914,-1.8803-7.058,-3.1465-13.1537,-8.3145-19.1496,-13.0475-10.1152,-8.659-20.0186,-17.691-29.0677,-27.4783-4.688,-5.0705-5.8469,-6.777-9.919,-12.0224-3.4654,-5.7822-7.5504,-12.4859-4.1433,-19.3016 2.0163,-4.0335 4.4499,-5.497 7.8272,-8.4338 10.1215,-6.5586 10.9501,-7.3056 25.6037,-14.7259 3.5764,-1.811 15.1096,-5.9066 18.6391,-7.138 7.0388,-2.4558 14.6082,-4.8887 21.6862,-7.2014 18.594,-5.3634 36.8056,-11.8962 54.8051,-18.9783 1.5279,-.6495 3.0578,-1.2942 4.5836,-1.9485 1.1657,-.4999 2.34,-.9808 3.4908,-1.514 2.3523,-1.0899 4.5499,-2.4389 6.9767,-3.363 3.291,-.4693 4.4452,3.4926 5.4304,5.8995 2.2687,6.1277 3.5471,12.5534 4.0987,19.0495 .1362,2.9104 .2306,5.8345-.1816,8.7279-.0421,.2958 .1108,.7559-.16,.882-4.4089,2.0533-9.0127,3.659-13.519,5.4886 .0118,-.8952-.0374,-1.7934 .0355,-2.6857 .1061,-1.2986 .3295,-2.5849 .5008,-3.8765 .9997,-7.538 2.3091,-14.9758 3.843,-22.4228 1.555,-6.4961 2.8976,-13.2994 6.61,-18.9697 4.2039,-4.4015 13.5536,-13.0794 18.1064,-8.0287 .4767,.5289 .8107,1.1708 1.2161,1.7562 .891,1.5753 1.6607,2.7718 2.2437,4.5173 1.6389,4.9078 2.3745,10.6605 3.2422,15.7652 1.1326,4.4176 .7008,9.7081 2.0412,14.0399 1.7726,-4.7616-.0179,.2205-12.7493,6.291-.2582,.1231 .3891,-.4251 .5337,-.672 .3315,-.566 .9805,-2.2274 1.2333,-2.7376 .3448,-.6961 .7385,-1.3669 1.1077,-2.0504 2.3945,-3.8376 4.4213,-7.8928 7.0597,-11.5731 4.4112,-5.5273 8.5378,-6.7337 16.174,-10.93 .2619,-.1439 .6145,-.0601 .8956,.0415 .3579,.1294 .6361,.4181 .9542,.6271 2.9864,3.1411 4.0262,7.5857 5.0346,11.6761 .8762,4.4536 1.3452,8.9967 2.9742,13.2566 .3967,.5584 .7207,1.1763 1.19,1.6753 3.4181,3.6336 9.0718,6.3498 13.7339,7.8272 1.7542,.5559 3.5616,.9276 5.3424,1.3914 7.54,1.8812 15.1058,1.9747 22.6056,-.087 1.66,-.4563 3.3273,-.9326 4.8996,-1.6338 1.4645,-.6531 2.7763,-1.6056 4.1644,-2.4083-2.8879,1.4901-5.5634,3.4967-8.6637,4.4704-1.1955,.3755 1.8602,-1.6841 2.7137,-2.6016 2.5159,-2.7049 3.9544,-5.7126 4.9671,-9.2111 .6946,-2.9134 .6823,-5.9069 .6019,-8.8795-.8123,-6.1361-6.2332,-.0969 12.5348,-7.7189 .3417,-.1388-.2006,.7117-.258,1.076-.0835,.53-.1093,1.0675-.1639,1.6012-.2665,4.8348-.377,9.6802 .1605,14.4971 .5467,3.099 1.1396,6.2653 3.5686,8.4405 1.7091,1.1249 3.5227,1.2014 5.4105,.5838 4.5429,-2.2925 11.3618,-6.2694-9.2958,5.3928-.733,.4138 1.4175,-.9086 2.114,-1.3812l13.7499,-5.4669c-1.0645,.874-.871,.7838-2.0934,1.4985-4.6452,2.7158-10.3975,7.2521-16.2755,8.9062-2.2943,.246-4.4334,-.2532-6.2278,-1.7781-2.497,-2.6033-3.3119,-5.923-3.8685,-9.4237-.5906,-4.8727-.472,-9.7673-.4084,-14.6687 .0197,-.6544 .077,-2.9288 .1232,-2.9595 9.727,-6.4603 12.8718,-12.5754 14.1061,-5.3537 .0695,3.1243 .0729,6.2667-.5797,9.341-3.2014,12.7554-11.6553,15.6615-23.2766,22.5416-1.4289,.7205-2.7977,1.5752-4.2867,2.1615-8.9506,3.524-18.7036,3.2412-27.9102,1.0341-1.8391,-.4877-3.7066,-.8788-5.5173,-1.4632-4.6315,-1.4947-11.1446,-4.692-14.5603,-8.2853-.5627,-.5919-.968,-1.3157-1.452,-1.9736-1.6237,-4.344-2.0916,-8.9473-2.927,-13.4875-.8421,-3.5179-1.6783,-7.8688-4.5851,-10.3108-.6859,.086-.3319,-.0175-1.041,.3749 3.9288,-2.3321 7.8577,-4.6642 11.7865,-6.9963 .3323,-.191-.6084,.4685-.8871,.7315-.6996,.66-1.2666,1.4531-2.0221,2.0581-2.82,3.545-4.8538,7.566-7.2091,11.4215-.8854,1.5155-1.617,2.9578-2.1805,4.6201-.1148,.3386 .0125,.8473-.2939,1.0316-13.2948,7.9967-10.3461,11.2314-14.0569,6.5713-1.1159,-4.7041-.5439,-9.6982-1.6308,-14.4245-1.0635,-6.6156-1.8817,-13.7016-5.4778,-19.4897-.6253,-.7518-.8938,-1.4407-1.8874,-1.6242-.2691,-.0497-1.0491,.2242-.8171,.0792 3.855,-2.4085 7.8581,-4.5721 11.7547,-6.9127 .3501,-.2103-.7641,.3015-1.11,.5187-.4078,.256-.7577,.5945-1.1366,.8918-4.3835,5.2272-5.7056,12.2845-7.478,18.6873-1.9969,9.2321-3.7113,18.5943-3.9931,28.0561-4.3051,2.6386-8.5232,5.4248-12.9154,7.9158-.2419,.1372 .2404,-.5043 .318,-.7714 .8042,-2.7667 .5753,-5.6949 .5747,-8.5333-.3712,-6.3501-1.5585,-12.6651-3.9842,-18.571-.4628,-1.0682-1.3134,-4.1649-2.9322,-4.2743-.3754,-.0254-1.0644,.2717-1.3633,.3791-4.7881,2.1318-9.4382,4.5785-14.4142,6.2825-17.8398,6.7098-35.8321,12.9983-54.1277,18.3644-10.6198,3.5133-21.3137,6.9086-31.715,11.0427-2.9939,1.19-5.7348,3.1473-8.8924,3.787-1.6217,.3285 5.5767,-3.5384 4.0891,-2.8139-2.1692,1.0565-4.0999,2.545-6.1498,3.8175-3.8287,3.0735-8.5236,6.2534-9.4308,11.5515-.893,5.2148 2.4282,10.0365 4.6745,14.3601 1.3891,1.8979 2.711,3.847 4.1673,5.6938 9.9457,12.6131 22.0475,23.4346 34.3683,33.6505 6.0444,4.5132 12.2092,9.5598 19.3554,12.2966 1.6491,.6316 3.3794,1.1098 5.1345,1.3053 1.4972,.1668 5.3244,-1.5002 4.5136,-.2306-1.6887,2.6441-5.176,3.5469-7.7641,5.3203 1.4485,-1.0111 2.9813,-1.911 4.3453,-3.0333 7.5773,-6.2343 12.8885,-14.8407 15.2526,-24.3515 .7183,-2.8896 .999,-5.8707 1.4986,-8.806 .1439,-3.0552 .5095,-6.108 .4316,-9.1656-.3934,-15.4369-5.6294,-30.3333-10.905,-44.6508-4.4755,-11.0691-9.9218,-21.9803-11.8707,-33.8586-.0655,-2.8117 .003,-4.952 .6842,-7.6722 .0381,-.1521 .7931,-2.8601 1.1292,-3.0916 4.3169,-2.973 8.9144,-5.5165 13.3715,-8.2747 .3389,.0271 .6889,-.0085 1.0169,.0812 2.1057,.5758 3.1151,3.1886 3.9952,4.8962 1.8742,4.4256 2.1315,8.3635-.2532,12.7108-.541,.7748-1.0086,1.6064-1.6229,2.3244-4.3907,5.131-13.1728,8.7324-17.6417,11.2191-4.2744,2.3784-9.1918,3.3952-13.8934,4.496-1.8823,.2823-3.7498,.6922-5.6468,.847-6.776,.553-13.6979,-.6632-19.4819,-4.3006-.8304,-.6627-1.7251,-1.252-2.4912,-1.9881-3.2394,-3.1123-4.2505,-6.5472-3.1788,-10.8443 1.6159,-5.1378 4.1492,-7.6245 8.4678,-10.7873 8.3338,-4.9235 15.8682,-10.3542 25.256,-12.659l-11.7853,9.0117z" stroke="#000" stroke-linecap="round" stroke-linejoin="round" stroke-width="2"/>
<path d="m549.2332,-122.1847c-1.7835,2.0929-3.2088,4.4879-3.887,7.1628-.4856,2.6751 1.1102,3.361 3.3038,4.3209 3.5488,1.2997 6.5822,1.157 10.2167,.5143 4.8602,-1.6662 12.579,-6.4142-9.0248,5.5037-.3034,.1673 .5755,-.3901 .8315,-.6236 .6095,-.5556 .6709,-.7857 1.0696,-1.4819 .7338,-1.6463 .6619,-3.1872-.2832,-4.7035-1.2573,-1.1913-3.1474,-1.0796-4.7697,-1.1586-1.6755,.1549-3.2712,.5705-4.6332,1.5753l11.5699,-9.3176c1.6475,-.6237 3.3328,-1.0178 5.1127,-.8762 2.1175,.2092 4.2007,.5097 5.5739,2.3193 1.1184,1.8815 1.5604,3.8267 .9141,5.9743-2.3437,7.0718-11.2457,9.9308-18.1332,11.6144-3.6699,.4613-7.2979,.2601-10.7482,-1.2144-2.4801,-1.2798-4.7037,-2.8813-4.3281,-5.9859 .4579,-2.8821 1.8638,-5.464 3.5526,-7.8184l13.6626,-5.8049z" stroke="#000" stroke-linecap="round" stroke-linejoin="round" stroke-width="2"/>
<path d="m359.6057,-86.1453c2.813,-1.3672 5.4973,-2.9836 8.3991,-4.1626 1.8182,-1.1808 3.8128,-1.7264 5.9399,-1.959 1.9567,-.1487 3.9211,-.1237 5.8819,-.1169 1.9461,-.207 3.5945,.325 5.304,1.1594 1.1966,.9591 2.1411,2.2333 3.05,3.4655 .7904,1.4357 1.2548,3.0464 1.7411,4.6107 .436,1.6028 1.0296,3.1343 1.3438,4.7721 .3026,1.9227 .3232,3.8738 .3468,5.8155 .009,1.0012 .007,2.0024 .007,3.0036l-13.2174,6.733c.001,-.9962 .003,-1.9924-10e-4,-2.9886-.0137,-1.8636-.0171,-3.7343-.2514,-5.5862-.2608,-1.5964-.8449,-3.0648-1.2698,-4.6141-.4125,-1.4071-.8576,-2.8405-1.4965,-4.1522-.7779,-1.02-1.5348,-2.1846-2.6529,-2.8453-1.5703,-.6821-3.2079,-.7262-4.905,-.653-1.9192,.0085-3.8508,-8.13e-4-5.7505,.3092-2.0091,.4249-3.8194,1.2893-5.6483,2.207-2.8459,1.3235-5.5987,2.8407-8.3572,4.3355l11.5367,-9.3337z" stroke="#000" stroke-linecap="round" stroke-linejoin="round" stroke-width="2"/>
</g>
<text font-family="Sans" font-size="20" letter-spacing="0" line-height="562.5" word-spacing="0" x="37.1429" y="813.7907">
   <tspan x="37.1429" y="813.7907">Un steak hashé !</tspan>
  </text>
<g transform="matrix(1.09898,0,0,1.09898,-276.34467,-114.80168)">
<path d="M-1863.4878,2388.7017H-1714.4099A5.6396,5.6396 0 0 1 -1708.7703,2394.3413V2420.3704A5.6396,5.6396 0 0 1 -1714.4099,2426.0101H-1863.4878A5.6396,5.6396 0 0 1 -1869.1274,2420.3704V2394.3413A5.6396,5.6396 0 0 1 -1863.4878,2388.7017z" stroke="#000" stroke-linecap="square" stroke-linejoin="bevel" stroke-width="4.6759" transform="matrix(1,0,.91135,.41163,0,0)"/>
<path d="M348.0357,961.2015H353.0357A1.3393,1.3393 0 0 1 354.375,962.5408V998.2551A1.3393,1.3393 0 0 1 353.0357,999.5943H348.0357A1.3393,1.3393 0 0 1 346.6964,998.2551V962.5408A1.3393,1.3393 0 0 1 348.0357,961.2015z" fill="#fff" stroke="#000" stroke-linecap="square" stroke-linejoin="bevel" stroke-width="3"/>
<path d="M321.1607,950.6658H326.1607A1.3393,1.3393 0 0 1 327.5,952.0051V987.7193A1.3393,1.3393 0 0 1 326.1607,989.0586H321.1607A1.3393,1.3393 0 0 1 319.8214,987.7193V952.0051A1.3393,1.3393 0 0 1 321.1607,950.6658z" fill="#fff" stroke="#000" stroke-linecap="square" stroke-linejoin="bevel" stroke-width="3"/>
<path d="M484.6429,961.2015H489.6429A1.3393,1.3393 0 0 1 490.9822,962.5408V998.2551A1.3393,1.3393 0 0 1 489.6429,999.5943H484.6429A1.3393,1.3393 0 0 1 483.3036,998.2551V962.5408A1.3393,1.3393 0 0 1 484.6429,961.2015z" fill="#fff" stroke="#000" stroke-linecap="square" stroke-linejoin="bevel" stroke-width="3"/>
<path d="M460,950.6658H465A1.3393,1.3393 0 0 1 466.3393,952.0051V987.7193A1.3393,1.3393 0 0 1 465,989.0586H460A1.3393,1.3393 0 0 1 458.6607,987.7193V952.0051A1.3393,1.3393 0 0 1 460,950.6658z" fill="#fff" stroke="#000" stroke-linecap="square" stroke-linejoin="bevel" stroke-width="3"/>
<path d="M-1785.9333,2304.9746H-1636.8554A5.6396,5.6396 0 0 1 -1631.2158,2310.6142V2336.6433A5.6396,5.6396 0 0 1 -1636.8554,2342.283H-1785.9333A5.6396,5.6396 0 0 1 -1791.5729,2336.6433V2310.6142A5.6396,5.6396 0 0 1 -1785.9333,2304.9746z" fill="#fff" stroke="#000" stroke-linecap="square" stroke-linejoin="bevel" stroke-width="4.6759" transform="matrix(1,0,.91135,.41163,0,0)"/>
<path d="M-1777.9498,2295.4304H-1628.8719A5.6396,5.6396 0 0 1 -1623.2323,2301.07V2327.0991A5.6396,5.6396 0 0 1 -1628.8719,2332.7388H-1777.9498A5.6396,5.6396 0 0 1 -1783.5894,2327.0991V2301.07A5.6396,5.6396 0 0 1 -1777.9498,2295.4304z" fill="#fff" stroke="#000" stroke-linecap="square" stroke-linejoin="bevel" stroke-width="4.6759" transform="matrix(1,0,.91135,.41163,0,0)"/>
</g>
<path d="m219.6429,166.7857-12.5,66.0714" fill="none" stroke="#000" transform="translate(0,602.3622)"/>
<path d="m94.2857,223.2143 11.4286,21.4286" fill="none" stroke="#000" transform="translate(0,602.3622)"/>
<path d="m-5.7143,366.7857c0,1.9724-13.4315,3.5714-30,3.5714-16.5685,0-30,-1.599-30,-3.5714 0,-1.9725 13.4315,-3.5714 30,-3.5714 16.5685,0 30,1.599 30,3.5714z" fill="#fff" stroke="#000" stroke-linecap="square" stroke-linejoin="bevel" stroke-width="2" transform="translate(168.4821,562.7193)"/>
<path d="m-5.7143,366.7857c0,1.9724-13.4315,3.5714-30,3.5714-16.5685,0-30,-1.599-30,-3.5714 0,-1.9725 13.4315,-3.5714 30,-3.5714 16.5685,0 30,1.599 30,3.5714z" fill="#fff" stroke="#000" stroke-linecap="square" stroke-linejoin="bevel" stroke-width="2" transform="matrix(1.12507,0,0,1.05059,172.94892,541.03988)"/>
<path d="m-5.7143,366.7857c0,1.9724-13.4315,3.5714-30,3.5714-16.5685,0-30,-1.599-30,-3.5714 0,-1.9725 13.4315,-3.5714 30,-3.5714 16.5685,0 30,1.599 30,3.5714z" fill="#fff" stroke="#000" stroke-linecap="square" stroke-linejoin="bevel" stroke-width="2" transform="translate(248.75,564.2372)"/>
<path d="m-5.7143,366.7857c0,1.9724-13.4315,3.5714-30,3.5714-16.5685,0-30,-1.599-30,-3.5714 0,-1.9725 13.4315,-3.5714 30,-3.5714 16.5685,0 30,1.599 30,3.5714z" fill="#fff" stroke="#000" stroke-linecap="square" stroke-linejoin="bevel" stroke-width="2" transform="matrix(1.12507,0,0,1.05059,253.21677,542.55775)"/>
<text font-family="Sans" font-size="7.325" letter-spacing="0" line-height="562.5" word-spacing="0" x="134.0606" y="908.3126">
    <tspan font-weight="bold" text-align="center" text-anchor="middle" x="134.0606" y="908.3126">30274391d9f</tspan>
    <tspan font-weight="bold" text-align="center" text-anchor="middle" x="134.0606" y="917.4683">9a5d7f1331e</tspan>
    <tspan font-weight="bold" text-align="center" text-anchor="middle" x="134.0606" y="926.624">a46be4418b</tspan>
   </text>
<text font-family="Sans" font-size="7.325" letter-spacing="0" line-height="562.5" word-spacing="0" x="213.6478" y="910.4708">
    <tspan font-weight="bold" text-align="center" text-anchor="middle" x="213.6478" y="910.4708">30274391d9f</tspan>
    <tspan font-weight="bold" text-align="center" text-anchor="middle" x="213.6478" y="919.6265">9a5d7f1331e</tspan>
    <tspan font-weight="bold" text-align="center" text-anchor="middle" x="213.6478" y="928.7822">a46be4418b</tspan>
   </text>
<g transform="translate(8.5714,44.2857)">
<path d="m210.3571,349.8214c0,1.578-18.1485,2.8571-40.5357,2.8571-22.3873,0-40.5357,-1.2792-40.5357,-2.8571 0,-1.5779 18.1485,-2.8571 40.5357,-2.8571 22.3873,0 40.5357,1.2792 40.5357,2.8571z" stroke="#000" stroke-width="4" transform="matrix(1.02061,0,0,1.02061,203.76949,528.05703)"/>
<path d="m419.1987,819.0018 0,37.0511c0,15.4794-12.4617,27.9411-27.9411,27.9411l-27.4152,0c-15.4794,0-27.9411,-12.4617-27.9411,-27.9411l0,-37.0511" fill="#fff" stroke="#000" stroke-linecap="round" stroke-linejoin="round" stroke-width="2.818"/>
<path d="M358.3757,834.33H376.5839A.6037,.6037 0 0 1 377.1876,834.9337V842.6908A.6037,.6037 0 0 1 376.5839,843.2945H358.3757A.6037,.6037 0 0 1 357.772,842.6908V834.9337A.6037,.6037 0 0 1 358.3757,834.33z" stroke="#000" stroke-linecap="square" stroke-linejoin="round" stroke-width="2.8888"/>
<path d="M390.3998,834.33H406.1932A1.8111,1.8111 0 0 1 408.0043,836.1411V841.4834A1.8111,1.8111 0 0 1 406.1932,843.2945H390.3998A1.8111,1.8111 0 0 1 388.5886,841.4834V836.1411A1.8111,1.8111 0 0 1 390.3998,834.33z" stroke="#000" stroke-linecap="square" stroke-linejoin="round" stroke-width="2.8888"/>
<path d="m337.6872,838.2406c.4249,.008 .85,.005 1.2749,.003 .2808,-.002 .5616,-.003 .8425,-.003 .2263,-3.3e-4 .4526,-3.1e-4 .6789,-3.1e-4 .2352,-4.8e-4 .4704,4.6e-4 .7057,7.7e-4 .3022,-.008 .5998,-2.8e-4 .899,.0392 .3092,.0421 .6213,.0555 .9333,.064 .3135,-.0122 .6212,.0456 .9315,.0766 .3156,.0285 .6329,.0315 .9496,.0349 .3328,.002 .6656,.002 .9984,5e-4 .289,-5.9e-4 .5781,-7.7e-4 .8671,-.002 .2376,-5.9e-4 .4751,-7.6e-4 .7127,-7.8e-4 .2255,-6e-5 .4511,-5e-5 .6766,-4e-5 .2256,10e-6 .4511,10e-6 .6767,10e-6 .2466,-3e-4 .4931,4.1e-4 .7397,.002 .305,.002 .6101,3.4e-4 .9151,-4.9e-4 .287,-2.1e-4 .5739,3.7e-4 .8609,7.8e-4 .307,-1.4e-4 .6139,-7e-5 .9208,-7.8e-4 .294,1.5e-4 .588,5.8e-4 .8819,1.3e-4 .2674,-7.8e-4 .5347,-.002 .8021,1.9e-4 .4125,.003 .8251,.003 1.2376,.005 .5622,.003 1.1244,.003 1.6866,7.7e-4 .4125,-7.7e-4 .8251,-.004 1.2377,-.004 .3414,5e-4 .6829,-2e-5 1.0243,-.002 .0473,-1.5e-4 .0946,-3.1e-4 .1418,-4.6e-4l-1.3508,.9279c-.0468,-1.6e-4-.0936,-3.2e-4-.1404,-4.7e-4-.3403,-.002-.6806,-.002-1.0209,-.002-.4085,-1.6e-4-.8169,-.003-1.2254,-.004-.5629,-.002-1.1259,-.002-1.6888,7.6e-4-.4171,.002-.8342,.003-1.2513,.005-.2676,.002-.5351,.002-.8027,2e-4-.2941,-4.5e-4-.5882,-3e-5-.8823,1.1e-4-.3061,-7.7e-4-.6123,-6.8e-4-.9184,-7.7e-4-.2881,7.7e-4-.5762,.002-.8642,.002-.3046,-7.7e-4-.6092,-.003-.9137,-4.9e-4-.248,7.7e-4-.496,.002-.7441,.002-.2256,0-.4511,0-.6767,0-.2255,0-.451,2e-5-.6764,-5e-5-.2367,-10e-5-.4735,-2.7e-4-.7103,-7.5e-4-.2878,-5.3e-4-.5757,-6.4e-4-.8635,-6.8e-4-.3328,-6.3e-4-.6656,5.5e-4-.9984,-.003-.3209,-.005-.6424,-.0112-.9615,-.046-.307,-.0345-.6128,-.0752-.9231,-.0672-.3155,-.0117-.6305,-.0337-.9434,-.0749-.2956,-.0312-.5921,-.0226-.8892,-.0215-.2361,4.2e-4-.4722,.002-.7083,7.7e-4-.226,10e-6-.452,2e-5-.678,-3.1e-4-.2776,-5.2e-4-.5553,-.002-.8329,-.003-.428,-.003-.8561,-.005-1.2841,.003l1.3535,-.9297z" stroke="#000" stroke-linecap="square" stroke-linejoin="round" stroke-width=".3688"/>
<path d="m408.4765,838.4547c.5446,.009 1.0893,.008 1.6339,.008 .4992,-6.8e-4 .9984,-.003 1.4976,-.005 .3336,-.002 .6672,-.002 1.0008,-.003 .2629,-6.3e-4 .5258,-.002 .7887,-.002 .2296,.0168 .4503,-.0445 .6761,-.074 .2264,-.0264 .4546,-.0302 .6824,-.0328 .226,-.002 .4521,-7.8e-4 .6781,-6.5e-4 .2258,3.1e-4 .4515,4.1e-4 .6773,4.7e-4 .2258,4e-5 .4515,4e-5 .6773,4e-5 .2258,0 .4515,0 .6773,0 .2424,-4.7e-4 .4848,7.7e-4 .7271,7.7e-4 .2455,-1.9e-4 .4909,-5.3e-4 .7363,-7.2e-4 .2273,-1.3e-4 .4547,-1.5e-4 .682,-1.6e-4 .1504,-10e-6 .0752,-10e-6 .2255,-10e-6l-1.3547,.9305c-.1503,0-.0752,0-.2255,0-.2272,-2e-5-.4543,-4e-5-.6815,-1.8e-4-.2448,-1.8e-4-.4895,-5.3e-4-.7343,-7.2e-4-.2432,3e-5-.4864,.002-.7297,7.8e-4-.2258,10e-6-.4515,10e-6-.6773,10e-6-.2258,-10e-6-.4516,-10e-6-.6773,-9e-5-.2258,-10e-5-.4516,-3e-4-.6773,-5.7e-4-.2254,-1.7e-4-.4507,-7.7e-4-.6761,.003-.2239,.005-.4481,.0151-.6695,.0492-.2291,.035-.4569,.0702-.6902,.0545-.2613,-3.4e-4-.5226,-7.8e-4-.7839,-.002-.3313,-4.2e-4-.6627,-4.8e-4-.994,-.003-.495,-.003-.99,-.004-1.4851,-.005-.552,-3.7e-4-1.104,-.002-1.6558,.008l1.3517,-.9284z" stroke="#000" stroke-linecap="square" stroke-linejoin="round" stroke-width=".3688"/>
<path d="m377.302,838.581c.4131,.0523 .8298,.0688 1.246,.0811 .3714,.009 .743,.009 1.1145,.008 .3067,-3.8e-4 .6134,-4.8e-4 .9201,-.002 .6157,.0158 1.2317,.008 1.8475,.005 .3721,-.003 .7442,-.004 1.1163,-.005 .2967,10e-6 .5935,-3.3e-4 .8902,4.6e-4 .312,7.7e-4 .6239,-7.4e-4 .9358,-2.4e-4 .2815,-6.7e-4 .563,-5.9e-4 .8445,-5.1e-4 .2819,4.3e-4 .5638,1.7e-4 .8458,-4e-4 .2693,7.8e-4 .5386,9e-5 .8079,-3.4e-4 .2635,7.7e-4 .527,3.4e-4 .7904,-4e-5 .2327,-3.2e-4 .4655,-4.2e-4 .6982,-4.8e-4 .1946,.0452 .3905,.0778 .5901,.0935 .2166,.0133 .4337,.0134 .6506,.0139 .2257,1.4e-4 .4513,-3e-4 .677,-5.3e-4 .113,-1.1e-4 .226,-1.6e-4 .3389,-2e-4l-1.3546,.9306c-.1129,7e-5-.2259,1.4e-4-.3389,2.7e-4-.2259,2.5e-4-.4518,7.7e-4-.6778,-3.1e-4-.2206,-.002-.4417,-.004-.6614,-.0256-.1939,-.0228-.3837,-.0694-.5786,-.0812-.2323,-6e-5-.4645,-1.5e-4-.6968,-4.9e-4-.2635,-3.6e-4-.5269,-7.7e-4-.7904,-4e-5-.269,-4.2e-4-.5379,-.002-.8069,-3.3e-4-.2815,-5.7e-4-.5631,-7.8e-4-.8446,-4e-4-.281,9e-5-.562,1.5e-4-.843,-5.1e-4-.3117,5e-4-.6234,-.002-.9351,-2.4e-4-.2972,7.7e-4-.5944,4.5e-4-.8916,4.6e-4-.3668,-.002-.7337,-.003-1.1005,-.005-.6211,-.003-1.2424,-.0102-1.8633,.005-.3062,-3.3e-4-.6124,3.6e-4-.9186,-2.8e-4-.3702,-.003-.7404,-.005-1.1105,-.0175-.4237,-.0164-.847,-.0416-1.2689,-.0828l1.3673,-.9149z" stroke="#000" stroke-linecap="square" stroke-linejoin="round" stroke-width=".3688"/>
<path d="m347.5112,809.3249 0,14.3468" fill="none" stroke="#000" stroke-linecap="round" stroke-width="3.7173"/>
<path d="m354.8799,807.9676 0,14.3468" fill="none" stroke="#000" stroke-linecap="round" stroke-width="3.7173"/>
<path d="m361.7944,809.1005 0,14.3468" fill="none" stroke="#000" stroke-linecap="round" stroke-width="3.7173"/>
<path d="m370.8286,808.1975 0,14.3468" fill="none" stroke="#000" stroke-linecap="round" stroke-width="3.7173"/>
<path d="m378.6883,809.8892 0,14.3468" fill="none" stroke="#000" stroke-linecap="round" stroke-width="3.7173"/>
<path d="m387.6859,809.7535 0,14.3469" fill="none" stroke="#000" stroke-linecap="round" stroke-width="3.7173"/>
<path d="m395.8117,808.4273 0,14.3469" fill="none" stroke="#000" stroke-linecap="round" stroke-width="3.7173"/>
<path d="m403.4832,810.7769 0,14.3468" fill="none" stroke="#000" stroke-linecap="round" stroke-width="3.7173"/>
<path d="m411.7409,810.4917 0,14.3468" fill="none" stroke="#000" stroke-linecap="round" stroke-width="3.7173"/>
<path d="m341.4112,812.9847 0,14.3468" fill="none" stroke="#000" stroke-linecap="round" stroke-width="3.7173"/>
<path d="m359.2857,866.6479 17.8571,3.5714" fill="none" stroke="#000"/>
</g>
<g transform="matrix(1.09898,0,0,1.09898,-12.20206,-116.0963)">
<path d="M-1863.4878,2388.7017H-1714.4099A5.6396,5.6396 0 0 1 -1708.7703,2394.3413V2420.3704A5.6396,5.6396 0 0 1 -1714.4099,2426.0101H-1863.4878A5.6396,5.6396 0 0 1 -1869.1274,2420.3704V2394.3413A5.6396,5.6396 0 0 1 -1863.4878,2388.7017z" stroke="#000" stroke-linecap="square" stroke-linejoin="bevel" stroke-width="4.6759" transform="matrix(1,0,.91135,.41163,0,0)"/>
<path d="M348.0357,961.2015H353.0357A1.3393,1.3393 0 0 1 354.375,962.5408V998.2551A1.3393,1.3393 0 0 1 353.0357,999.5943H348.0357A1.3393,1.3393 0 0 1 346.6964,998.2551V962.5408A1.3393,1.3393 0 0 1 348.0357,961.2015z" fill="#fff" stroke="#000" stroke-linecap="square" stroke-linejoin="bevel" stroke-width="3"/>
<path d="M321.1607,950.6658H326.1607A1.3393,1.3393 0 0 1 327.5,952.0051V987.7193A1.3393,1.3393 0 0 1 326.1607,989.0586H321.1607A1.3393,1.3393 0 0 1 319.8214,987.7193V952.0051A1.3393,1.3393 0 0 1 321.1607,950.6658z" fill="#fff" stroke="#000" stroke-linecap="square" stroke-linejoin="bevel" stroke-width="3"/>
<path d="M484.6429,961.2015H489.6429A1.3393,1.3393 0 0 1 490.9822,962.5408V998.2551A1.3393,1.3393 0 0 1 489.6429,999.5943H484.6429A1.3393,1.3393 0 0 1 483.3036,998.2551V962.5408A1.3393,1.3393 0 0 1 484.6429,961.2015z" fill="#fff" stroke="#000" stroke-linecap="square" stroke-linejoin="bevel" stroke-width="3"/>
<path d="M460,950.6658H465A1.3393,1.3393 0 0 1 466.3393,952.0051V987.7193A1.3393,1.3393 0 0 1 465,989.0586H460A1.3393,1.3393 0 0 1 458.6607,987.7193V952.0051A1.3393,1.3393 0 0 1 460,950.6658z" fill="#fff" stroke="#000" stroke-linecap="square" stroke-linejoin="bevel" stroke-width="3"/>
<path d="M-1785.9333,2304.9746H-1636.8554A5.6396,5.6396 0 0 1 -1631.2158,2310.6142V2336.6433A5.6396,5.6396 0 0 1 -1636.8554,2342.283H-1785.9333A5.6396,5.6396 0 0 1 -1791.5729,2336.6433V2310.6142A5.6396,5.6396 0 0 1 -1785.9333,2304.9746z" fill="#fff" stroke="#000" stroke-linecap="square" stroke-linejoin="bevel" stroke-width="4.6759" transform="matrix(1,0,.91135,.41163,0,0)"/>
<path d="M-1777.9498,2295.4304H-1628.8719A5.6396,5.6396 0 0 1 -1623.2323,2301.07V2327.0991A5.6396,5.6396 0 0 1 -1628.8719,2332.7388H-1777.9498A5.6396,5.6396 0 0 1 -1783.5894,2327.0991V2301.07A5.6396,5.6396 0 0 1 -1777.9498,2295.4304z" fill="#fff" stroke="#000" stroke-linecap="square" stroke-linejoin="bevel" stroke-width="4.6759" transform="matrix(1,0,.91135,.41163,0,0)"/>
</g>
<path d="m-5.7143,366.7857c0,1.9724-13.4315,3.5714-30,3.5714-16.5685,0-30,-1.599-30,-3.5714 0,-1.9725 13.4315,-3.5714 30,-3.5714 16.5685,0 30,1.599 30,3.5714z" fill="#fff" stroke="#000" stroke-linecap="square" stroke-linejoin="bevel" stroke-width="2" transform="translate(431.6518,564.0086)"/>
<path d="m-5.7143,366.7857c0,1.9724-13.4315,3.5714-30,3.5714-16.5685,0-30,-1.599-30,-3.5714 0,-1.9725 13.4315,-3.5714 30,-3.5714 16.5685,0 30,1.599 30,3.5714z" fill="#fff" stroke="#000" stroke-linecap="square" stroke-linejoin="bevel" stroke-width="2" transform="matrix(1.12507,0,0,1.05059,436.11856,542.32911)"/>
<path d="m-5.7143,366.7857c0,1.9724-13.4315,3.5714-30,3.5714-16.5685,0-30,-1.599-30,-3.5714 0,-1.9725 13.4315,-3.5714 30,-3.5714 16.5685,0 30,1.599 30,3.5714z" fill="#fff" stroke="#000" stroke-linecap="square" stroke-linejoin="bevel" stroke-width="2" transform="translate(511.9196,565.5264)"/>
<path d="m-5.7143,366.7857c0,1.9724-13.4315,3.5714-30,3.5714-16.5685,0-30,-1.599-30,-3.5714 0,-1.9725 13.4315,-3.5714 30,-3.5714 16.5685,0 30,1.599 30,3.5714z" fill="#fff" stroke="#000" stroke-linecap="square" stroke-linejoin="bevel" stroke-width="2" transform="matrix(1.12507,0,0,1.05059,516.38641,543.84698)"/>
<text font-family="Sans" font-size="7.325" letter-spacing="0" line-height="562.5" word-spacing="0" x="397.2303" y="909.6019">
   <tspan font-weight="bold" text-align="center" text-anchor="middle" x="397.2303" y="909.6019">       4391d9f</tspan>
   <tspan font-weight="bold" text-align="center" text-anchor="middle" x="397.2303" y="918.7576">9a5d7f1331e</tspan>
   <tspan font-weight="bold" text-align="center" text-anchor="middle" x="397.2303" y="927.9133">a46be4418b</tspan>
  </text>
<text font-family="Sans" font-size="7.325" letter-spacing="0" line-height="562.5" word-spacing="0" x="476.8175" y="911.7601">
   <tspan font-weight="bold" text-align="center" text-anchor="middle" x="476.8175" y="911.7601">         391d9f</tspan>
   <tspan font-weight="bold" text-align="center" text-anchor="middle" x="476.8175" y="920.9158">9a5d7f1331e</tspan>
   <tspan font-weight="bold" text-align="center" text-anchor="middle" x="476.8175" y="930.0715">a46be4418b</tspan>
  </text>
<g transform="matrix(-.40076,.65801,-.65801,-.40076,1070.9157,1054.2756)">
<path d="M329.8214,883.6122H329.8214A1.9643,1.9643 0 0 1 331.7857,885.5765V907.005A1.9643,1.9643 0 0 1 329.8214,908.9693H329.8214A1.9643,1.9643 0 0 1 327.8571,907.005V885.5765A1.9643,1.9643 0 0 1 329.8214,883.6122z" fill="#fff" stroke="#000" stroke-linecap="square" stroke-linejoin="bevel" stroke-width="2"/>
<path d="M325.1339,867.0944H325.1339A.5804,.5804 0 0 1 325.7143,867.6747V877.2283A.5804,.5804 0 0 1 325.1339,877.8086H325.1339A.5804,.5804 0 0 1 324.5536,877.2283V867.6747A.5804,.5804 0 0 1 325.1339,867.0944z" fill="#fff" stroke="#000" stroke-linecap="square" stroke-linejoin="bevel" stroke-width="2"/>
<path d="M329.7768,867.0944H329.7768A.5804,.5804 0 0 1 330.3571,867.6747V877.2283A.5804,.5804 0 0 1 329.7768,877.8086H329.7768A.5804,.5804 0 0 1 329.1964,877.2283V867.6747A.5804,.5804 0 0 1 329.7768,867.0944z" fill="#fff" stroke="#000" stroke-linecap="square" stroke-linejoin="bevel" stroke-width="2"/>
<path d="M334.4196,867.0944H334.4196A.5804,.5804 0 0 1 335,867.6747V877.2283A.5804,.5804 0 0 1 334.4196,877.8086H334.4196A.5804,.5804 0 0 1 333.8393,877.2283V867.6747A.5804,.5804 0 0 1 334.4196,867.0944z" fill="#fff" stroke="#000" stroke-linecap="square" stroke-linejoin="bevel" stroke-width="2"/>
<path d="M326.5178,875.8443H333.0357A1.9643,1.9643 0 0 1 335,877.8086V885.13A1.9643,1.9643 0 0 1 333.0357,887.0943H326.5178A1.9643,1.9643 0 0 1 324.5536,885.13V877.8086A1.9643,1.9643 0 0 1 326.5178,875.8443z" fill="#fff" stroke="#000" stroke-linecap="square" stroke-linejoin="bevel" stroke-width="2"/>
</g>
<path d="m353.9286,310.625a7.4107,7.4107 0 1 1 -14.8214,0 7.4107,7.4107 0 1 1 14.8214,0z" fill="#fff" stroke="#000" stroke-linecap="square" stroke-linejoin="bevel" stroke-width="2" transform="translate(-2.5,597.3622)"/>
<path d="m468.0357,267.3214 30.1786,3.3929" fill="none" stroke="#000" transform="translate(0,602.3622)"/>
<path d="M467.1429,286.6071 491.25,288.5714" fill="none" stroke="#000" transform="translate(0,602.3622)"/>
<path d="m469.1071,303.3929 24.1072,-2.6786" fill="none" stroke="#000" transform="translate(0,602.3622)"/>
<path d="m538.75,928.7908 7.3214,2.3214" fill="none" stroke="#000"/>
<path d="m545,927.3622-5.5357,5" fill="none" stroke="#000"/>
<path d="m531.9643,320c9.6564,7.0775-3.5483,14.9028-2.3214,12.1429" fill="#fff" stroke="#000" transform="translate(0,602.3622)"/>
<path d="m551.5766,919.6457c-8.3017,9.0055-1.1468,13.4875 2.3214,12.1429" fill="#fff" stroke="#000"/>
<text font-family="Sans" font-size="20" letter-spacing="0" line-height="562.5" word-spacing="0" x="429.8199" y="809.4205">
   <tspan x="429.8199" y="809.4205">Hrrrggh...</tspan>
  </text>
<path d="m485.8834,823.0575 26.769,31.3147" fill="none" stroke="#000"/>
<text font-family="Sans" font-size="20" letter-spacing="0" line-height="562.5" word-spacing="0" x="642.9621" y="758.9128">
   <tspan x="642.9621" y="758.9128">Bwaaaaaaaaargh...</tspan>
  </text>
<g transform="translate(283.6875,43.5423)">
<path d="m210.3571,349.8214c0,1.578-18.1485,2.8571-40.5357,2.8571-22.3873,0-40.5357,-1.2792-40.5357,-2.8571 0,-1.5779 18.1485,-2.8571 40.5357,-2.8571 22.3873,0 40.5357,1.2792 40.5357,2.8571z" stroke="#000" stroke-width="4" transform="matrix(1.02061,0,0,1.02061,203.76949,528.05703)"/>
<path d="m419.1987,819.0018 0,37.0511c0,15.4794-12.4617,27.9411-27.9411,27.9411l-27.4152,0c-15.4794,0-27.9411,-12.4617-27.9411,-27.9411l0,-37.0511" fill="#fff" stroke="#000" stroke-linecap="round" stroke-linejoin="round" stroke-width="2.818"/>
<path d="M358.3757,834.33H376.5839A.6037,.6037 0 0 1 377.1876,834.9337V842.6908A.6037,.6037 0 0 1 376.5839,843.2945H358.3757A.6037,.6037 0 0 1 357.772,842.6908V834.9337A.6037,.6037 0 0 1 358.3757,834.33z" stroke="#000" stroke-linecap="square" stroke-linejoin="round" stroke-width="2.8888"/>
<path d="M390.3998,834.33H406.1932A1.8111,1.8111 0 0 1 408.0043,836.1411V841.4834A1.8111,1.8111 0 0 1 406.1932,843.2945H390.3998A1.8111,1.8111 0 0 1 388.5886,841.4834V836.1411A1.8111,1.8111 0 0 1 390.3998,834.33z" stroke="#000" stroke-linecap="square" stroke-linejoin="round" stroke-width="2.8888"/>
<path d="m337.6872,838.2406c.4249,.008 .85,.005 1.2749,.003 .2808,-.002 .5616,-.003 .8425,-.003 .2263,-3.3e-4 .4526,-3.1e-4 .6789,-3.1e-4 .2352,-4.8e-4 .4704,4.6e-4 .7057,7.7e-4 .3022,-.008 .5998,-2.8e-4 .899,.0392 .3092,.0421 .6213,.0555 .9333,.064 .3135,-.0122 .6212,.0456 .9315,.0766 .3156,.0285 .6329,.0315 .9496,.0349 .3328,.002 .6656,.002 .9984,5e-4 .289,-5.9e-4 .5781,-7.7e-4 .8671,-.002 .2376,-5.9e-4 .4751,-7.6e-4 .7127,-7.8e-4 .2255,-6e-5 .4511,-5e-5 .6766,-4e-5 .2256,10e-6 .4511,10e-6 .6767,10e-6 .2466,-3e-4 .4931,4.1e-4 .7397,.002 .305,.002 .6101,3.4e-4 .9151,-4.9e-4 .287,-2.1e-4 .5739,3.7e-4 .8609,7.8e-4 .307,-1.4e-4 .6139,-7e-5 .9208,-7.8e-4 .294,1.5e-4 .588,5.8e-4 .8819,1.3e-4 .2674,-7.8e-4 .5347,-.002 .8021,1.9e-4 .4125,.003 .8251,.003 1.2376,.005 .5622,.003 1.1244,.003 1.6866,7.7e-4 .4125,-7.7e-4 .8251,-.004 1.2377,-.004 .3414,5e-4 .6829,-2e-5 1.0243,-.002 .0473,-1.5e-4 .0946,-3.1e-4 .1418,-4.6e-4l-1.3508,.9279c-.0468,-1.6e-4-.0936,-3.2e-4-.1404,-4.7e-4-.3403,-.002-.6806,-.002-1.0209,-.002-.4085,-1.6e-4-.8169,-.003-1.2254,-.004-.5629,-.002-1.1259,-.002-1.6888,7.6e-4-.4171,.002-.8342,.003-1.2513,.005-.2676,.002-.5351,.002-.8027,2e-4-.2941,-4.5e-4-.5882,-3e-5-.8823,1.1e-4-.3061,-7.7e-4-.6123,-6.8e-4-.9184,-7.7e-4-.2881,7.7e-4-.5762,.002-.8642,.002-.3046,-7.7e-4-.6092,-.003-.9137,-4.9e-4-.248,7.7e-4-.496,.002-.7441,.002-.2256,0-.4511,0-.6767,0-.2255,0-.451,2e-5-.6764,-5e-5-.2367,-10e-5-.4735,-2.7e-4-.7103,-7.5e-4-.2878,-5.3e-4-.5757,-6.4e-4-.8635,-6.8e-4-.3328,-6.3e-4-.6656,5.5e-4-.9984,-.003-.3209,-.005-.6424,-.0112-.9615,-.046-.307,-.0345-.6128,-.0752-.9231,-.0672-.3155,-.0117-.6305,-.0337-.9434,-.0749-.2956,-.0312-.5921,-.0226-.8892,-.0215-.2361,4.2e-4-.4722,.002-.7083,7.7e-4-.226,10e-6-.452,2e-5-.678,-3.1e-4-.2776,-5.2e-4-.5553,-.002-.8329,-.003-.428,-.003-.8561,-.005-1.2841,.003l1.3535,-.9297z" stroke="#000" stroke-linecap="square" stroke-linejoin="round" stroke-width=".3688"/>
<path d="m408.4765,838.4547c.5446,.009 1.0893,.008 1.6339,.008 .4992,-6.8e-4 .9984,-.003 1.4976,-.005 .3336,-.002 .6672,-.002 1.0008,-.003 .2629,-6.3e-4 .5258,-.002 .7887,-.002 .2296,.0168 .4503,-.0445 .6761,-.074 .2264,-.0264 .4546,-.0302 .6824,-.0328 .226,-.002 .4521,-7.8e-4 .6781,-6.5e-4 .2258,3.1e-4 .4515,4.1e-4 .6773,4.7e-4 .2258,4e-5 .4515,4e-5 .6773,4e-5 .2258,0 .4515,0 .6773,0 .2424,-4.7e-4 .4848,7.7e-4 .7271,7.7e-4 .2455,-1.9e-4 .4909,-5.3e-4 .7363,-7.2e-4 .2273,-1.3e-4 .4547,-1.5e-4 .682,-1.6e-4 .1504,-10e-6 .0752,-10e-6 .2255,-10e-6l-1.3547,.9305c-.1503,0-.0752,0-.2255,0-.2272,-2e-5-.4543,-4e-5-.6815,-1.8e-4-.2448,-1.8e-4-.4895,-5.3e-4-.7343,-7.2e-4-.2432,3e-5-.4864,.002-.7297,7.8e-4-.2258,10e-6-.4515,10e-6-.6773,10e-6-.2258,-10e-6-.4516,-10e-6-.6773,-9e-5-.2258,-10e-5-.4516,-3e-4-.6773,-5.7e-4-.2254,-1.7e-4-.4507,-7.7e-4-.6761,.003-.2239,.005-.4481,.0151-.6695,.0492-.2291,.035-.4569,.0702-.6902,.0545-.2613,-3.4e-4-.5226,-7.8e-4-.7839,-.002-.3313,-4.2e-4-.6627,-4.8e-4-.994,-.003-.495,-.003-.99,-.004-1.4851,-.005-.552,-3.7e-4-1.104,-.002-1.6558,.008l1.3517,-.9284z" stroke="#000" stroke-linecap="square" stroke-linejoin="round" stroke-width=".3688"/>
<path d="m377.302,838.581c.4131,.0523 .8298,.0688 1.246,.0811 .3714,.009 .743,.009 1.1145,.008 .3067,-3.8e-4 .6134,-4.8e-4 .9201,-.002 .6157,.0158 1.2317,.008 1.8475,.005 .3721,-.003 .7442,-.004 1.1163,-.005 .2967,10e-6 .5935,-3.3e-4 .8902,4.6e-4 .312,7.7e-4 .6239,-7.4e-4 .9358,-2.4e-4 .2815,-6.7e-4 .563,-5.9e-4 .8445,-5.1e-4 .2819,4.3e-4 .5638,1.7e-4 .8458,-4e-4 .2693,7.8e-4 .5386,9e-5 .8079,-3.4e-4 .2635,7.7e-4 .527,3.4e-4 .7904,-4e-5 .2327,-3.2e-4 .4655,-4.2e-4 .6982,-4.8e-4 .1946,.0452 .3905,.0778 .5901,.0935 .2166,.0133 .4337,.0134 .6506,.0139 .2257,1.4e-4 .4513,-3e-4 .677,-5.3e-4 .113,-1.1e-4 .226,-1.6e-4 .3389,-2e-4l-1.3546,.9306c-.1129,7e-5-.2259,1.4e-4-.3389,2.7e-4-.2259,2.5e-4-.4518,7.7e-4-.6778,-3.1e-4-.2206,-.002-.4417,-.004-.6614,-.0256-.1939,-.0228-.3837,-.0694-.5786,-.0812-.2323,-6e-5-.4645,-1.5e-4-.6968,-4.9e-4-.2635,-3.6e-4-.5269,-7.7e-4-.7904,-4e-5-.269,-4.2e-4-.5379,-.002-.8069,-3.3e-4-.2815,-5.7e-4-.5631,-7.8e-4-.8446,-4e-4-.281,9e-5-.562,1.5e-4-.843,-5.1e-4-.3117,5e-4-.6234,-.002-.9351,-2.4e-4-.2972,7.7e-4-.5944,4.5e-4-.8916,4.6e-4-.3668,-.002-.7337,-.003-1.1005,-.005-.6211,-.003-1.2424,-.0102-1.8633,.005-.3062,-3.3e-4-.6124,3.6e-4-.9186,-2.8e-4-.3702,-.003-.7404,-.005-1.1105,-.0175-.4237,-.0164-.847,-.0416-1.2689,-.0828l1.3673,-.9149z" stroke="#000" stroke-linecap="square" stroke-linejoin="round" stroke-width=".3688"/>
<path d="m347.5112,809.3249 0,14.3468" fill="none" stroke="#000" stroke-linecap="round" stroke-width="3.7173"/>
<path d="m354.8799,807.9676 0,14.3468" fill="none" stroke="#000" stroke-linecap="round" stroke-width="3.7173"/>
<path d="m361.7944,809.1005 0,14.3468" fill="none" stroke="#000" stroke-linecap="round" stroke-width="3.7173"/>
<path d="m370.8286,808.1975 0,14.3468" fill="none" stroke="#000" stroke-linecap="round" stroke-width="3.7173"/>
<path d="m378.6883,809.8892 0,14.3468" fill="none" stroke="#000" stroke-linecap="round" stroke-width="3.7173"/>
<path d="m387.6859,809.7535 0,14.3469" fill="none" stroke="#000" stroke-linecap="round" stroke-width="3.7173"/>
<path d="m395.8117,808.4273 0,14.3469" fill="none" stroke="#000" stroke-linecap="round" stroke-width="3.7173"/>
<path d="m403.4832,810.7769 0,14.3468" fill="none" stroke="#000" stroke-linecap="round" stroke-width="3.7173"/>
<path d="m411.7409,810.4917 0,14.3468" fill="none" stroke="#000" stroke-linecap="round" stroke-width="3.7173"/>
<path d="m341.4112,812.9847 0,14.3468" fill="none" stroke="#000" stroke-linecap="round" stroke-width="3.7173"/>
<path d="m359.2857,866.6479 17.8571,3.5714" fill="none" stroke="#000"/>
</g>
<g transform="matrix(1.09898,0,0,1.09898,262.91397,-116.83969)">
<path d="M-1863.4878,2388.7017H-1714.4099A5.6396,5.6396 0 0 1 -1708.7703,2394.3413V2420.3704A5.6396,5.6396 0 0 1 -1714.4099,2426.0101H-1863.4878A5.6396,5.6396 0 0 1 -1869.1274,2420.3704V2394.3413A5.6396,5.6396 0 0 1 -1863.4878,2388.7017z" stroke="#000" stroke-linecap="square" stroke-linejoin="bevel" stroke-width="4.6759" transform="matrix(1,0,.91135,.41163,0,0)"/>
<path d="M348.0357,961.2015H353.0357A1.3393,1.3393 0 0 1 354.375,962.5408V998.2551A1.3393,1.3393 0 0 1 353.0357,999.5943H348.0357A1.3393,1.3393 0 0 1 346.6964,998.2551V962.5408A1.3393,1.3393 0 0 1 348.0357,961.2015z" fill="#fff" stroke="#000" stroke-linecap="square" stroke-linejoin="bevel" stroke-width="3"/>
<path d="M321.1607,950.6658H326.1607A1.3393,1.3393 0 0 1 327.5,952.0051V987.7193A1.3393,1.3393 0 0 1 326.1607,989.0586H321.1607A1.3393,1.3393 0 0 1 319.8214,987.7193V952.0051A1.3393,1.3393 0 0 1 321.1607,950.6658z" fill="#fff" stroke="#000" stroke-linecap="square" stroke-linejoin="bevel" stroke-width="3"/>
<path d="M484.6429,961.2015H489.6429A1.3393,1.3393 0 0 1 490.9822,962.5408V998.2551A1.3393,1.3393 0 0 1 489.6429,999.5943H484.6429A1.3393,1.3393 0 0 1 483.3036,998.2551V962.5408A1.3393,1.3393 0 0 1 484.6429,961.2015z" fill="#fff" stroke="#000" stroke-linecap="square" stroke-linejoin="bevel" stroke-width="3"/>
<path d="M460,950.6658H465A1.3393,1.3393 0 0 1 466.3393,952.0051V987.7193A1.3393,1.3393 0 0 1 465,989.0586H460A1.3393,1.3393 0 0 1 458.6607,987.7193V952.0051A1.3393,1.3393 0 0 1 460,950.6658z" fill="#fff" stroke="#000" stroke-linecap="square" stroke-linejoin="bevel" stroke-width="3"/>
<path d="M-1785.9333,2304.9746H-1636.8554A5.6396,5.6396 0 0 1 -1631.2158,2310.6142V2336.6433A5.6396,5.6396 0 0 1 -1636.8554,2342.283H-1785.9333A5.6396,5.6396 0 0 1 -1791.5729,2336.6433V2310.6142A5.6396,5.6396 0 0 1 -1785.9333,2304.9746z" fill="#fff" stroke="#000" stroke-linecap="square" stroke-linejoin="bevel" stroke-width="4.6759" transform="matrix(1,0,.91135,.41163,0,0)"/>
<path d="M-1777.9498,2295.4304H-1628.8719A5.6396,5.6396 0 0 1 -1623.2323,2301.07V2327.0991A5.6396,5.6396 0 0 1 -1628.8719,2332.7388H-1777.9498A5.6396,5.6396 0 0 1 -1783.5894,2327.0991V2301.07A5.6396,5.6396 0 0 1 -1777.9498,2295.4304z" fill="#fff" stroke="#000" stroke-linecap="square" stroke-linejoin="bevel" stroke-width="4.6759" transform="matrix(1,0,.91135,.41163,0,0)"/>
</g>
<path d="m-5.7143,366.7857c0,1.9724-13.4315,3.5714-30,3.5714-16.5685,0-30,-1.599-30,-3.5714 0,-1.9725 13.4315,-3.5714 30,-3.5714 16.5685,0 30,1.599 30,3.5714z" fill="#fff" stroke="#000" stroke-linecap="square" stroke-linejoin="bevel" stroke-width="2" transform="translate(706.7678,563.2652)"/>
<path d="m-5.7143,366.7857c0,1.9724-13.4315,3.5714-30,3.5714-16.5685,0-30,-1.599-30,-3.5714 0,-1.9725 13.4315,-3.5714 30,-3.5714 16.5685,0 30,1.599 30,3.5714z" fill="#fff" stroke="#000" stroke-linecap="square" stroke-linejoin="bevel" stroke-width="2" transform="matrix(1.12507,0,0,1.05059,711.23459,541.58572)"/>
<path d="m-5.7143,366.7857c0,1.9724-13.4315,3.5714-30,3.5714-16.5685,0-30,-1.599-30,-3.5714 0,-1.9725 13.4315,-3.5714 30,-3.5714 16.5685,0 30,1.599 30,3.5714z" fill="#fff" stroke="#000" stroke-linecap="square" stroke-linejoin="bevel" stroke-width="2" transform="translate(787.0357,564.783)"/>
<path d="m-5.7143,366.7857c0,1.9724-13.4315,3.5714-30,3.5714-16.5685,0-30,-1.599-30,-3.5714 0,-1.9725 13.4315,-3.5714 30,-3.5714 16.5685,0 30,1.599 30,3.5714z" fill="#fff" stroke="#000" stroke-linecap="square" stroke-linejoin="bevel" stroke-width="2" transform="matrix(1.12507,0,0,1.05059,791.50244,543.10359)"/>
<text font-family="Sans" font-size="7.325" letter-spacing="0" line-height="562.5" word-spacing="0" x="672.3463" y="908.8585">
   <tspan font-weight="bold" text-align="center" text-anchor="middle" x="672.3463" y="908.8585">       4391d9f</tspan>
   <tspan font-weight="bold" text-align="center" text-anchor="middle" x="672.3463" y="918.0142">9a5d7f1331e</tspan>
   <tspan font-weight="bold" text-align="center" text-anchor="middle" x="672.3463" y="927.1699">a46be4418b</tspan>
  </text>
<text font-family="Sans" font-size="7.325" letter-spacing="0" line-height="562.5" word-spacing="0" x="751.9335" y="911.0167">
   <tspan font-weight="bold" text-align="center" text-anchor="middle" x="751.9335" y="911.0167">         391d9f</tspan>
   <tspan font-weight="bold" text-align="center" text-anchor="middle" x="751.9335" y="920.1724">9a5d7f1331e</tspan>
   <tspan font-weight="bold" text-align="center" text-anchor="middle" x="751.9335" y="929.3281">a46be4418b</tspan>
  </text>
<g transform="matrix(-.40076,.65801,-.65801,-.40076,1346.0317,1053.5322)">
<path d="M329.8214,883.6122H329.8214A1.9643,1.9643 0 0 1 331.7857,885.5765V907.005A1.9643,1.9643 0 0 1 329.8214,908.9693H329.8214A1.9643,1.9643 0 0 1 327.8571,907.005V885.5765A1.9643,1.9643 0 0 1 329.8214,883.6122z" fill="#fff" stroke="#000" stroke-linecap="square" stroke-linejoin="bevel" stroke-width="2"/>
<path d="M325.1339,867.0944H325.1339A.5804,.5804 0 0 1 325.7143,867.6747V877.2283A.5804,.5804 0 0 1 325.1339,877.8086H325.1339A.5804,.5804 0 0 1 324.5536,877.2283V867.6747A.5804,.5804 0 0 1 325.1339,867.0944z" fill="#fff" stroke="#000" stroke-linecap="square" stroke-linejoin="bevel" stroke-width="2"/>
<path d="M329.7768,867.0944H329.7768A.5804,.5804 0 0 1 330.3571,867.6747V877.2283A.5804,.5804 0 0 1 329.7768,877.8086H329.7768A.5804,.5804 0 0 1 329.1964,877.2283V867.6747A.5804,.5804 0 0 1 329.7768,867.0944z" fill="#fff" stroke="#000" stroke-linecap="square" stroke-linejoin="bevel" stroke-width="2"/>
<path d="M334.4196,867.0944H334.4196A.5804,.5804 0 0 1 335,867.6747V877.2283A.5804,.5804 0 0 1 334.4196,877.8086H334.4196A.5804,.5804 0 0 1 333.8393,877.2283V867.6747A.5804,.5804 0 0 1 334.4196,867.0944z" fill="#fff" stroke="#000" stroke-linecap="square" stroke-linejoin="bevel" stroke-width="2"/>
<path d="M326.5178,875.8443H333.0357A1.9643,1.9643 0 0 1 335,877.8086V885.13A1.9643,1.9643 0 0 1 333.0357,887.0943H326.5178A1.9643,1.9643 0 0 1 324.5536,885.13V877.8086A1.9643,1.9643 0 0 1 326.5178,875.8443z" fill="#fff" stroke="#000" stroke-linecap="square" stroke-linejoin="bevel" stroke-width="2"/>
</g>
<path d="m353.9286,310.625a7.4107,7.4107 0 1 1 -14.8214,0 7.4107,7.4107 0 1 1 14.8214,0z" fill="#fff" stroke="#000" stroke-linecap="square" stroke-linejoin="bevel" stroke-width="2" transform="translate(272.616,596.6188)"/>
<text font-family="Sans" font-size="20" letter-spacing="0" line-height="562.5" word-spacing="0" x="746.7512" y="812.1648">
   <tspan text-align="center" text-anchor="middle" x="746.7512" y="812.1648">Hmm... Steak</tspan>
   <tspan text-align="center" text-anchor="middle" x="746.7512" y="837.1648">overflow !</tspan>
  </text>
<path d="m735.391,245.9492-24.7487,21.2132" fill="none" stroke="#000" transform="translate(0,602.3622)"/>
<path d="m805.0916,164.6319 38.3858,16.6675" fill="none" stroke="#000" transform="translate(0,602.3622)"/>
</g>
</svg>
