<svg version="1.1" viewBox="0 0 900 450" xmlns="http://www.w3.org/2000/svg" xmlns:svg="http://www.w3.org/2000/svg">
<g transform="translate(0,-602.3622)">
<path d="M51.1904,685.7351H832.1924A31.621,31.621 0 0 1 863.8134,717.3561V965.705A31.621,31.621 0 0 1 832.1924,997.326H51.1904A31.621,31.621 0 0 1 19.5694,965.705V717.3561A31.621,31.621 0 0 1 51.1904,685.7351z" fill="#fff" stroke="#000" stroke-linecap="round" stroke-width="7.4907"/>
<path d="M49.0919,653.1473H300.2558A15.6552,15.6552 0 0 1 315.911,668.8025V668.8025A15.6552,15.6552 0 0 1 300.2558,684.4577H49.0919A15.6552,15.6552 0 0 1 33.4367,668.8025V668.8025A15.6552,15.6552 0 0 1 49.0919,653.1473z" fill="#fff" stroke="#000" stroke-linecap="round" stroke-linejoin="round" stroke-width="4.5094" transform="matrix(1,-.00315,.00315,1,0,0)"/>
<path d="m101.5203,44.9288a36.8706,34.8503 0 1 1 -73.7411,0 36.8706,34.8503 0 1 1 73.7411,0z" stroke="#000" stroke-linecap="round" stroke-linejoin="round" stroke-width="7.491" transform="matrix(1.24255,-.00391,.00217,.68917,-22.62774,630.19125)"/>
<text font-family="Bitstream Vera Sans" font-size="40" transform="matrix(1,-.00315,.00315,1,0,0)" x="18.1956" y="675.2248">
   <tspan fill="#f9f9f9" x="18.1956" y="675.2248">206</tspan>
  </text>
<text font-family="Bitstream Vera Sans" font-size="20" transform="matrix(1,-.00315,.00315,1,0,0)" x="155.679" y="674.9255">
   <tspan x="155.679" y="674.9255">Défense</tspan>
  </text>
<g transform="translate(.1729,-6.0781)">
<path d="m839.4465,1023.3074c.4393,.5102 1.0355,.5714 1.6702,.6073 .8029,-.022 1.6072,-.2138 2.3575,-.4993 .4009,-.1526 .6224,-.2825 .9965,-.4789-2.2387,1.3097-.9924,.6082-.5738,.1636 .2168,-.2303 .3463,-.473 .4686,-.7606 .3177,-.895 .3589,-1.8574 .4131,-2.7971 .1056,-1.3679-.1776,-2.7109-.4825,-4.0351-.3709,-1.393-.8746,-2.7467-1.4294,-4.0758-.2656,-.6279-.5661,-1.24-.8587,-1.8555-.3944,-.7567-.717,-.2868 1.5104,-1.1508 .0768,-.03 .0919,.1367 .1411,.2027 .0824,.1106 .1689,.2179 .2534,.3269 .8217,1.1276 1.8098,2.1155 2.8001,3.0928 .5826,.5674 1.2074,1.0941 1.7645,1.6874 .2114,.1726 .3378,.416 .508,.6229 .1662,.1502 .2962,-.01 .4431,-.1106-2.5656,1.5384-1.6519,1.0412-1.16,.5694 .1937,-.1857 .3764,-.3843 .5619,-.5781 .2632,-.2626 .5127,-.5438 .801,-.7804 .761,-.6244 1.8227,-1.1234 2.6097,-1.5711 .7271,-.3211 1.471,-.6005 2.2265,-.8467 .1563,-.034 .761,-.2665 .899,-.1093 .0321,.037 .0451,.086 .0677,.1294 .003,.044 .0154,.089 .009,.1323-.0436,.3196-.5385,.6915-.7545,.8904-.9928,.8207-1.9561,1.6745-2.8731,2.5792-.7976,.8557-1.6216,1.7004-2.2566,2.6874-.3921,.6165-.6005,1.2972-.6984,2.0144-.0648,.6415-.0542,1.2873-.0532,1.9312 .0351,.6998 .1244,1.4011 .3328,2.0715 .1195,.3571 .3319,.6194 .6717,.7762 .2255,.08 .4837,.1318 .7238,.087 .0559,-.011 .5216,-.1684 .5589,-.1808 .5492,-.2997 1.8756,-1.0005-.6067,.3598-.0982,.054 .1891,-.1201 .2821,-.1824 .2138,-.143 .2651,-.1851 .4657,-.3346 .2405,-.18 .1266,-.092 .3424,-.2617l1.7191,-.6913c-.2178,.1831-.1012,.092-.3516,.2719-1.0139,.7828-2.137,1.4308-3.3009,1.9611-.5107,.1524-.8878,.2254-1.3851,-.01-.3662,-.2066-.6055,-.5062-.7343,-.9112-.2041,-.6903-.2811,-1.409-.3481,-2.1238-.004,-.6502-.0146,-1.3021 .038,-1.9509 .0928,-.7431 .2887,-1.4524 .6884,-2.0955 .0802,-.1333 .153,-.2712 .2404,-.3997 .1797,-.264 .4481,-.5661 .6529,-.8036 .4526,-.5248 .9157,-1.0402 1.3938,-1.5419 .8918,-.8997 1.8318,-1.7498 2.8066,-2.5592 .2761,-.2564 .5618,-.5063 .8001,-.7993 .0396,.021-.0878,.017-.1321,.024-.221,.031-.4338,.1-.6466,.1641-.7471,.2466-1.4866,.5202-2.1959,.8624 2.4446,-1.4457 .9748,-.6248 .497,-.2572-.291,.2239-.54,.5004-.7953,.7622-.9257,.9765-.9789,1.08-2.5451,1.8884-.2567,.1212-.4002,.1068-.6009,-.1041-.1584,-.2095-.2853,-.4431-.481,-.6233-.5334,-.6025-1.1282,-1.1492-1.6932,-1.7213-.9808,-.9983-1.9768,-1.9849-2.8496,-3.0818-.0938,-.1054-.1877,-.2107-.2814,-.3162-.0521,-.059-.2154,-.1251-.1559,-.1761 1.4141,-1.214 1.334,-1.5318 1.6993,-.7303 .2757,.628 .5663,1.2498 .8171,1.8885 .5249,1.3529 1.0089,2.7231 1.4053,4.1197 .3185,1.3302 .6335,2.6815 .5419,4.06-.0362,.9485-.0918,1.9144-.3493,2.8318-.0847,.2347-.1139,.3545-.249,.5692-.5939,.9436-1.8747,1.3891-2.7166,1.9248-1.0714,.5265-2.2113,.8989-3.4172,.9043-.1676,-.014-.3365,-.016-.5029,-.04-.4955,-.073-.9575,-.2895-1.3004,-.6569l1.6003,-.9608z" stroke="#000" stroke-linecap="round" stroke-linejoin="round" stroke-width=".2515"/>
<path d="m854.8111,1021.1506c-.7394,.2071-2.342,1.1965 .4555,-.4044-.388,.2065-.6184,.5425-.7999,.9302-.1036,.3106-.2142,.6511-.1917,.9845 .0156,.2306 .0756,.3465 .154,.562 .3071,.6068 .7795,1.1058 1.3399,1.4838 .4137,.2881 .8839,.4192 1.383,.4252 .3851,-.087 .7431,-.2375 1.0957,-.4123 .1503,-.075 .5909,-.3179 .4467,-.2321-1.6618,.9893-1.2456,.7222-.6575,.3195 .4842,-.373 1.0105,-.8057 1.1352,-1.4399 .0174,-.089 .0162,-.1799 .0243,-.2698-.032,-.7933-.5333,-1.4143-1.0169,-2.0008-.3049,-.3393-.6501,-.6629-1.0669,-.861-.2115,-.1006-.32,-.1184-.544,-.1779-.4519,-.025-.9255,.018-1.3546,.1741-.1984,.072-.499,.2393-.6834,.3368 2.5132,-1.5077 .8665,-.5123 .3482,-.062l-1.7106,.6997c.796,-.7657 1.8589,-1.2168 2.7842,-1.7768 .2686,-.1306 .4271,-.2209 .7141,-.308 .4568,-.1387 .9485,-.1711 1.419,-.1018 .2419,.077 .34,.097 .5672,.2178 .4231,.2254 .772,.5679 1.084,.9255 .5088,.6264 1.0253,1.2756 1.1028,2.1094-.004,.1012 .002,.2032-.0112,.3036-.0928,.6824-.6005,1.1675-1.1167,1.5707-1.0013,.7187-.4882,.3709-2.4236,1.4672-.5043,.2856-1.0559,.5275-1.6351,.5951-.5218,-.046-1.0072,-.1999-1.4323,-.5166-.5749,-.4193-1.0583,-.9487-1.3949,-1.5794-.0786,-.2055-.1678,-.4012-.1946,-.6229-.0421,-.3472 .0735,-.7121 .1572,-1.043 .1608,-.4085 .3649,-.7958 .7491,-1.0357 .9031,-.5198 1.7482,-1.1163 2.7557,-1.3944l-1.4819,1.1332z" stroke="#000" stroke-linecap="round" stroke-linejoin="round" stroke-width=".2515"/>
<path d="m862.6073,1021.9051c-.3203,.1024-.653,.1903-.9574,.3362-.1022,.049-.1982,.1101-.2973,.1651 .4207,-.2356 .8414,-.4712 1.2621,-.7068-.4994,.337-.87,.6738-1.0934,1.2386-.1462,.4653-.0761,.8587 .2923,1.2028 .0889,.083 .1935,.1478 .2903,.2216 .7042,.4046 1.5378,.5494 2.3444,.4638 .2312,-.024 .458,-.081 .687,-.1208 .53,-.1368 .7609,-.1749 1.2586,-.3838 .1651,-.069 .635,-.3304 .4812,-.2386-2.2382,1.3365-1.2251,.7542-.8736,.3984 .0779,-.079 .1399,-.1722 .2098,-.2583 .3065,-.4795 .3144,-.9061 .0985,-1.417-.0396,-.09-.268,-.5604-.4291,-.4586-.0279,.018-.042,.051-.063,.076 2.5422,-1.4497 1.5743,-1.2073 1.3278,-.5008-.1064,.3049-.125,.6013-.1396,.9215 .1766,1.4863 .8332,2.8626 1.3726,4.2435 .6559,1.8244 1.2881,3.7176 1.3609,5.6745 .0145,.3894-.0234,.779-.0352,1.1686-.0582,.3745-.0908,.7539-.1745,1.1236-.2732,1.2059-.8948,2.3097-1.8179,3.137-.1627,.1458-.3469,.2657-.5204,.3986-.6941,.3626-1.3545,.7991-2.0824,1.0879-.3018,.1197-1.0302,-.13-1.269,-.2365-.8875,-.3956-1.654,-1.0455-2.408,-1.6406-1.2719,-1.0888-2.5172,-2.2246-3.6551,-3.4553-.5895,-.6376-.7352,-.8522-1.2473,-1.5117-.4358,-.7271-.9494,-1.5701-.521,-2.4271 .2535,-.5072 .5596,-.6912 .9842,-1.0605 1.2727,-.8247 1.3769,-.9187 3.2195,-1.8517 .4497,-.2278 1.9,-.7427 2.3438,-.8976 .8851,-.3088 1.8369,-.6147 2.7269,-.9055 2.3381,-.6745 4.6281,-1.4959 6.8915,-2.3865 .1921,-.082 .3845,-.1627 .5764,-.245 .1466,-.063 .2943,-.1233 .439,-.1903 .2958,-.1371 .5721,-.3067 .8773,-.4229 .4138,-.059 .559,.4391 .6828,.7418 .2853,.7705 .446,1.5785 .5154,2.3954 .0171,.366 .029,.7336-.0228,1.0975-.005,.037 .0139,.095-.0201,.1109-.5544,.2582-1.1333,.4601-1.6999,.6901 10e-4,-.1125-.005,-.2255 .004,-.3377 .0133,-.1633 .0414,-.325 .063,-.4874 .1257,-.9479 .2903,-1.8832 .4832,-2.8196 .1955,-.8168 .3644,-1.6723 .8312,-2.3853 .5286,-.5535 1.7043,-1.6447 2.2768,-1.0096 .06,.066 .1019,.1472 .1529,.2208 .112,.1981 .2088,.3486 .2821,.5681 .2061,.6171 .2986,1.3405 .4077,1.9824 .1424,.5555 .0881,1.2207 .2567,1.7654 .2229,-.5987-.002,.028-1.6032,.7911-.0325,.016 .0489,-.053 .0671,-.084 .0417,-.071 .1233,-.2801 .1551,-.3443 .0434,-.088 .0929,-.1719 .1393,-.2578 .3011,-.4825 .556,-.9925 .8877,-1.4553 .5547,-.695 1.0736,-.8467 2.0338,-1.3743 .0329,-.018 .0773,-.01 .1126,.01 .045,.016 .08,.053 .12,.079 .3755,.395 .5063,.9539 .6331,1.4682 .1102,.5601 .1692,1.1313 .374,1.667 .0499,.07 .0906,.1479 .1496,.2106 .4298,.457 1.1407,.7985 1.727,.9843 .2206,.07 .4479,.1166 .6718,.1749 .9481,.2366 1.8995,.2484 2.8425,-.011 .2087,-.057 .4184,-.1173 .6161,-.2054 .1842,-.082 .3491,-.2019 .5237,-.3029-.3631,.1874-.6996,.4397-1.0894,.5622-.1503,.047 .2339,-.2118 .3412,-.3272 .3164,-.3401 .4973,-.7183 .6246,-1.1582 .0873,-.3664 .0858,-.7428 .0757,-1.1166-.1021,-.7716-.7838,-.012 1.5762,-.9706 .043,-.018-.0252,.089-.0325,.1353-.0105,.067-.0137,.1342-.0206,.2013-.0335,.608-.0474,1.2173 .0202,1.823 .0688,.3897 .1433,.7878 .4487,1.0613 .2149,.1415 .443,.1511 .6803,.073 .5712,-.2882 1.4287,-.7883-1.1689,.6782-.0922,.052 .1782,-.1143 .2658,-.1737l1.729,-.6875c-.1338,.1099-.1095,.099-.2632,.1885-.5841,.3415-1.3074,.9119-2.0466,1.1199-.2885,.031-.5575,-.032-.7831,-.2236-.314,-.3274-.4165,-.7448-.4864,-1.185-.0743,-.6127-.0594,-1.2282-.0514,-1.8445 .002,-.082 .01,-.3683 .0155,-.3721 1.2231,-.8124 1.6186,-1.5813 1.7738,-.6732 .009,.3928 .009,.788-.0729,1.1745-.4026,1.604-1.4656,1.9694-2.9269,2.8345-.1797,.091-.3518,.1981-.539,.2718-1.1255,.4432-2.3519,.4076-3.5096,.1301-.2313,-.061-.4661,-.1105-.6938,-.184-.5824,-.188-1.4014,-.59-1.8309,-1.0418-.0707,-.074-.1217,-.1655-.1826,-.2482-.2042,-.5463-.263,-1.1251-.3681,-1.696-.1059,-.4424-.211,-.9895-.5766,-1.2965-.0863,.011-.0417,0-.1309,.047 .494,-.2932 .9881,-.5865 1.4821,-.8797 .0418,-.024-.0765,.059-.1115,.092-.088,.083-.1593,.1828-.2543,.2588-.3546,.4458-.6103,.9514-.9065,1.4362-.1113,.1906-.2033,.372-.2742,.581-.0144,.043 .002,.1065-.037,.1297-1.6718,1.0056-1.301,1.4123-1.7676,.8263-.1403,-.5915-.0684,-1.2195-.2051,-1.8138-.1337,-.8319-.2366,-1.7229-.6888,-2.4507-.0786,-.095-.1124,-.1812-.2373,-.2043-.0338,-.01-.1319,.028-.1027,.01 .4848,-.3029 .9881,-.5749 1.4781,-.8692 .044,-.026-.0961,.038-.1396,.065-.0513,.032-.0953,.075-.1429,.1121-.5512,.6573-.7174,1.5447-.9403,2.3499-.2511,1.1608-.4667,2.3381-.5021,3.5279-.5413,.3318-1.0717,.6821-1.624,.9953-.0304,.017 .0302,-.063 .04,-.097 .1011,-.3479 .0723,-.7161 .0723,-1.073-.0467,-.7985-.196,-1.5926-.501,-2.3352-.0582,-.1343-.1651,-.5237-.3687,-.5375-.0472,0-.1338,.034-.1714,.048-.6021,.2681-1.1868,.5757-1.8125,.79-2.2433,.8437-4.5057,1.6345-6.8063,2.3092-1.3354,.4418-2.6801,.8688-3.988,1.3886-.3765,.1496-.7211,.3958-1.1182,.4762-.2039,.041 .7012,-.4449 .5142,-.3538-.2728,.1328-.5155,.32-.7733,.48-.4814,.3865-1.0718,.7863-1.1859,1.4525-.1123,.6558 .3053,1.2621 .5878,1.8057 .1747,.2387 .3409,.4838 .524,.716 1.2506,1.586 2.7724,2.9468 4.3216,4.2314 .7601,.5675 1.5353,1.2021 2.4338,1.5462 .2074,.08 .4249,.1396 .6456,.1642 .1883,.021 .6695,-.1887 .5676,-.029-.2124,.3325-.6509,.446-.9763,.669 .1821,-.1272 .3749,-.2403 .5464,-.3815 .9528,-.7839 1.6207,-1.8661 1.9179,-3.062 .0903,-.3634 .1256,-.7382 .1884,-1.1073 .0181,-.3842 .0641,-.7681 .0543,-1.1526-.0495,-1.9411-.7079,-3.8142-1.3712,-5.6146-.5628,-1.3919-1.2476,-2.7639-1.4927,-4.2575-.008,-.3536 3.7e-4,-.6227 .086,-.9648 .005,-.019 .0997,-.3596 .142,-.3887 .5428,-.3739 1.1209,-.6937 1.6814,-1.0405 .0426,0 .0866,0 .1279,.01 .2648,.072 .3917,.4009 .5024,.6157 .2357,.5565 .268,1.0516-.0318,1.5983-.068,.097-.1268,.202-.2041,.2923-.5521,.6452-1.6564,1.098-2.2184,1.4107-.5375,.2991-1.1558,.4269-1.747,.5654-.2367,.036-.4715,.087-.7101,.1065-.852,.069-1.7224,-.083-2.4498,-.5408-.1044,-.083-.2169,-.1575-.3133,-.25-.4073,-.3914-.5345,-.8233-.3997,-1.3636 .2032,-.6461 .5218,-.9588 1.0648,-1.3565 1.0479,-.6191 1.9953,-1.302 3.1758,-1.5918l-1.4819,1.1332z" stroke="#000" stroke-linecap="round" stroke-linejoin="round" stroke-width=".2515"/>
<path d="m888.0182,1016.2554c-.2243,.2631-.4035,.5643-.4888,.9007-.0611,.3364 .1396,.4226 .4154,.5433 .4462,.1634 .8277,.1455 1.2847,.065 .6111,-.2095 1.5817,-.8066-1.1348,.692-.0381,.021 .0724,-.049 .1046,-.078 .0766,-.07 .0844,-.099 .1345,-.1863 .0923,-.207 .0832,-.4008-.0356,-.5915-.1581,-.1498-.3958,-.1357-.5998,-.1457-.2107,.019-.4113,.072-.5826,.1981l1.4548,-1.1716c.2072,-.078 .4191,-.128 .6429,-.1102 .2663,.026 .5282,.064 .7009,.2917 .1406,.2365 .1962,.4811 .1149,.7512-.2947,.8892-1.4141,1.2487-2.2802,1.4605-.4615,.058-.9177,.033-1.3515,-.1528-.3119,-.1609-.5915,-.3623-.5442,-.7527 .0576,-.3624 .2344,-.687 .4467,-.9831l1.718,-.7299z" stroke="#000" stroke-linecap="round" stroke-linejoin="round" stroke-width=".2515"/>
<path d="m864.1735,1020.7872c.3537,-.172 .6913,-.3752 1.0561,-.5235 .2286,-.1485 .4794,-.217 .7469,-.2463 .246,-.019 .4931,-.016 .7396,-.015 .2447,-.026 .452,.041 .667,.1458 .1505,.1206 .2692,.2808 .3835,.4358 .0994,.1805 .1578,.383 .2189,.5797 .0548,.2016 .1295,.3942 .169,.6001 .038,.2418 .0406,.4871 .0436,.7313 10e-4,.1259 8.9e-4,.2518 8.9e-4,.3777l-1.662,.8466c1.3e-4,-.1253 3.8e-4,-.2505-1.3e-4,-.3758-.002,-.2343-.002,-.4696-.0316,-.7024-.0328,-.2008-.1062,-.3854-.1597,-.5802-.0519,-.177-.1078,-.3572-.1882,-.5221-.0978,-.1283-.193,-.2748-.3336,-.3578-.1975,-.086-.4034,-.091-.6168,-.082-.2413,0-.4842,-10e-5-.7231,.039-.2526,.054-.4803,.1622-.7103,.2776-.3579,.1664-.704,.3572-1.0509,.5451l1.4507,-1.1736z" stroke="#000" stroke-linecap="round" stroke-linejoin="round" stroke-width=".2515"/>
</g>
<path d="m133.2217,995.667 488.0805,-158.1761 0,-150.715" fill="none" stroke="#000" stroke-width="1.4759"/>
<g transform="matrix(.43206,-.1431,0,.43206,138.5087,614.69542)">
<path d="M-18.5324,397.9542H824.6493A1.7968,1.7968 0 0 1 826.4461,399.751V637.5752A1.7968,1.7968 0 0 1 824.6493,639.372H-18.5324A1.7968,1.7968 0 0 1 -20.3292,637.5752V399.751A1.7968,1.7968 0 0 1 -18.5324,397.9542z" fill="#fff" stroke="#000" stroke-linecap="round" stroke-linejoin="round" stroke-width="8" transform="translate(0,152.3622)"/>
<g transform="translate(0,-.3571)">
<path d="M68.9396,561.6479H93.9175A1.7968,1.7968 0 0 1 95.7143,563.4447V588.4225A1.7968,1.7968 0 0 1 93.9175,590.2193H68.9396A1.7968,1.7968 0 0 1 67.1429,588.4225V563.4447A1.7968,1.7968 0 0 1 68.9396,561.6479z" fill="#fff" stroke="#000" stroke-linecap="round" stroke-linejoin="round" stroke-width="5"/>
<path d="M103.9396,561.6479H128.9175A1.7968,1.7968 0 0 1 130.7143,563.4447V588.4225A1.7968,1.7968 0 0 1 128.9175,590.2193H103.9396A1.7968,1.7968 0 0 1 102.1428,588.4225V563.4447A1.7968,1.7968 0 0 1 103.9396,561.6479z" fill="#fff" stroke="#000" stroke-linecap="round" stroke-linejoin="round" stroke-width="5"/>
<path d="M138.9396,561.6479H163.9175A1.7968,1.7968 0 0 1 165.7143,563.4447V588.4225A1.7968,1.7968 0 0 1 163.9175,590.2193H138.9396A1.7968,1.7968 0 0 1 137.1429,588.4225V563.4447A1.7968,1.7968 0 0 1 138.9396,561.6479z" fill="#fff" stroke="#000" stroke-linecap="round" stroke-linejoin="round" stroke-width="5"/>
<path d="M173.9397,561.6479H198.9175A1.7968,1.7968 0 0 1 200.7143,563.4447V588.4225A1.7968,1.7968 0 0 1 198.9175,590.2193H173.9397A1.7968,1.7968 0 0 1 172.1429,588.4225V563.4447A1.7968,1.7968 0 0 1 173.9397,561.6479z" fill="#fff" stroke="#000" stroke-linecap="round" stroke-linejoin="round" stroke-width="5"/>
</g>
<g transform="translate(156.9643,-.3571)">
<path d="M68.9396,561.6479H93.9175A1.7968,1.7968 0 0 1 95.7143,563.4447V588.4225A1.7968,1.7968 0 0 1 93.9175,590.2193H68.9396A1.7968,1.7968 0 0 1 67.1429,588.4225V563.4447A1.7968,1.7968 0 0 1 68.9396,561.6479z" fill="#fff" stroke="#000" stroke-linecap="round" stroke-linejoin="round" stroke-width="5"/>
<path d="M103.9396,561.6479H128.9175A1.7968,1.7968 0 0 1 130.7143,563.4447V588.4225A1.7968,1.7968 0 0 1 128.9175,590.2193H103.9396A1.7968,1.7968 0 0 1 102.1428,588.4225V563.4447A1.7968,1.7968 0 0 1 103.9396,561.6479z" fill="#fff" stroke="#000" stroke-linecap="round" stroke-linejoin="round" stroke-width="5"/>
<path d="M138.9396,561.6479H163.9175A1.7968,1.7968 0 0 1 165.7143,563.4447V588.4225A1.7968,1.7968 0 0 1 163.9175,590.2193H138.9396A1.7968,1.7968 0 0 1 137.1429,588.4225V563.4447A1.7968,1.7968 0 0 1 138.9396,561.6479z" fill="#fff" stroke="#000" stroke-linecap="round" stroke-linejoin="round" stroke-width="5"/>
<path d="M173.9397,561.6479H198.9175A1.7968,1.7968 0 0 1 200.7143,563.4447V588.4225A1.7968,1.7968 0 0 1 198.9175,590.2193H173.9397A1.7968,1.7968 0 0 1 172.1429,588.4225V563.4447A1.7968,1.7968 0 0 1 173.9397,561.6479z" fill="#fff" stroke="#000" stroke-linecap="round" stroke-linejoin="round" stroke-width="5"/>
</g>
<g transform="translate(313.9286,-.3571)">
<path d="M68.9396,561.6479H93.9175A1.7968,1.7968 0 0 1 95.7143,563.4447V588.4225A1.7968,1.7968 0 0 1 93.9175,590.2193H68.9396A1.7968,1.7968 0 0 1 67.1429,588.4225V563.4447A1.7968,1.7968 0 0 1 68.9396,561.6479z" fill="#fff" stroke="#000" stroke-linecap="round" stroke-linejoin="round" stroke-width="5"/>
<path d="M103.9396,561.6479H128.9175A1.7968,1.7968 0 0 1 130.7143,563.4447V588.4225A1.7968,1.7968 0 0 1 128.9175,590.2193H103.9396A1.7968,1.7968 0 0 1 102.1428,588.4225V563.4447A1.7968,1.7968 0 0 1 103.9396,561.6479z" fill="#fff" stroke="#000" stroke-linecap="round" stroke-linejoin="round" stroke-width="5"/>
<path d="M138.9396,561.6479H163.9175A1.7968,1.7968 0 0 1 165.7143,563.4447V588.4225A1.7968,1.7968 0 0 1 163.9175,590.2193H138.9396A1.7968,1.7968 0 0 1 137.1429,588.4225V563.4447A1.7968,1.7968 0 0 1 138.9396,561.6479z" fill="#fff" stroke="#000" stroke-linecap="round" stroke-linejoin="round" stroke-width="5"/>
<path d="M173.9397,561.6479H198.9175A1.7968,1.7968 0 0 1 200.7143,563.4447V588.4225A1.7968,1.7968 0 0 1 198.9175,590.2193H173.9397A1.7968,1.7968 0 0 1 172.1429,588.4225V563.4447A1.7968,1.7968 0 0 1 173.9397,561.6479z" fill="#fff" stroke="#000" stroke-linecap="round" stroke-linejoin="round" stroke-width="5"/>
</g>
<path d="M554.2967,561.2908H579.2746A1.7968,1.7968 0 0 1 581.0714,563.0876V588.0654A1.7968,1.7968 0 0 1 579.2746,589.8622H554.2967A1.7968,1.7968 0 0 1 552.4999,588.0654V563.0876A1.7968,1.7968 0 0 1 554.2967,561.2908z" fill="#fff" stroke="#000" stroke-linecap="round" stroke-linejoin="round" stroke-width="5"/>
<path d="M589.2967,561.2908H614.2746A1.7968,1.7968 0 0 1 616.0714,563.0876V588.0654A1.7968,1.7968 0 0 1 614.2746,589.8622H589.2967A1.7968,1.7968 0 0 1 587.4999,588.0654V563.0876A1.7968,1.7968 0 0 1 589.2967,561.2908z" fill="#fff" stroke="#000" stroke-linecap="round" stroke-linejoin="round" stroke-width="5"/>
<path d="M624.2967,561.2908H649.2746A1.7968,1.7968 0 0 1 651.0714,563.0876V588.0654A1.7968,1.7968 0 0 1 649.2746,589.8622H624.2967A1.7968,1.7968 0 0 1 622.4999,588.0654V563.0876A1.7968,1.7968 0 0 1 624.2967,561.2908z" fill="#fff" stroke="#000" stroke-linecap="round" stroke-linejoin="round" stroke-width="5"/>
<path d="M673.5825,604.1479H698.5604A1.7968,1.7968 0 0 1 700.3571,605.9447V630.9225A1.7968,1.7968 0 0 1 698.5604,632.7193H673.5825A1.7968,1.7968 0 0 1 671.7857,630.9225V605.9447A1.7968,1.7968 0 0 1 673.5825,604.1479z" fill="#fff" stroke="#000" stroke-linecap="round" stroke-linejoin="round" stroke-width="5"/>
<path d="M708.5825,604.1479H733.5604A1.7968,1.7968 0 0 1 735.3571,605.9447V630.9225A1.7968,1.7968 0 0 1 733.5604,632.7193H708.5825A1.7968,1.7968 0 0 1 706.7857,630.9225V605.9447A1.7968,1.7968 0 0 1 708.5825,604.1479z" fill="#fff" stroke="#000" stroke-linecap="round" stroke-linejoin="round" stroke-width="5"/>
<path d="M743.5825,604.1479H768.5604A1.7968,1.7968 0 0 1 770.3571,605.9447V630.9225A1.7968,1.7968 0 0 1 768.5604,632.7193H743.5825A1.7968,1.7968 0 0 1 741.7857,630.9225V605.9447A1.7968,1.7968 0 0 1 743.5825,604.1479z" fill="#fff" stroke="#000" stroke-linecap="round" stroke-linejoin="round" stroke-width="5"/>
<path d="M778.5825,604.1479H803.5604A1.7968,1.7968 0 0 1 805.3571,605.9447V630.9225A1.7968,1.7968 0 0 1 803.5604,632.7193H778.5825A1.7968,1.7968 0 0 1 776.7857,630.9225V605.9447A1.7968,1.7968 0 0 1 778.5825,604.1479z" fill="#fff" stroke="#000" stroke-linecap="round" stroke-linejoin="round" stroke-width="5"/>
<path d="M673.5825,640.5765H698.5604A1.7968,1.7968 0 0 1 700.3571,642.3733V667.3511A1.7968,1.7968 0 0 1 698.5604,669.1479H673.5825A1.7968,1.7968 0 0 1 671.7857,667.3511V642.3733A1.7968,1.7968 0 0 1 673.5825,640.5765z" fill="#fff" stroke="#000" stroke-linecap="round" stroke-linejoin="round" stroke-width="5"/>
<path d="M708.5825,640.5765H733.5604A1.7968,1.7968 0 0 1 735.3571,642.3733V667.3511A1.7968,1.7968 0 0 1 733.5604,669.1479H708.5825A1.7968,1.7968 0 0 1 706.7857,667.3511V642.3733A1.7968,1.7968 0 0 1 708.5825,640.5765z" fill="#fff" stroke="#000" stroke-linecap="round" stroke-linejoin="round" stroke-width="5"/>
<path d="M743.5825,640.5765H768.5604A1.7968,1.7968 0 0 1 770.3571,642.3733V667.3511A1.7968,1.7968 0 0 1 768.5604,669.1479H743.5825A1.7968,1.7968 0 0 1 741.7857,667.3511V642.3733A1.7968,1.7968 0 0 1 743.5825,640.5765z" fill="#fff" stroke="#000" stroke-linecap="round" stroke-linejoin="round" stroke-width="5"/>
<path d="M778.5825,640.5765H803.5604A1.7968,1.7968 0 0 1 805.3571,642.3733V704.494A1.7968,1.7968 0 0 1 803.5604,706.2908H778.5825A1.7968,1.7968 0 0 1 776.7857,704.494V642.3733A1.7968,1.7968 0 0 1 778.5825,640.5765z" fill="#fff" stroke="#000" stroke-linecap="round" stroke-linejoin="round" stroke-width="5"/>
<path d="M673.5825,677.7193H698.5604A1.7968,1.7968 0 0 1 700.3571,679.5161V704.4939A1.7968,1.7968 0 0 1 698.5604,706.2907H673.5825A1.7968,1.7968 0 0 1 671.7857,704.4939V679.5161A1.7968,1.7968 0 0 1 673.5825,677.7193z" fill="#fff" stroke="#000" stroke-linecap="round" stroke-linejoin="round" stroke-width="5"/>
<path d="M708.5825,677.7193H733.5604A1.7968,1.7968 0 0 1 735.3571,679.5161V704.4939A1.7968,1.7968 0 0 1 733.5604,706.2907H708.5825A1.7968,1.7968 0 0 1 706.7857,704.4939V679.5161A1.7968,1.7968 0 0 1 708.5825,677.7193z" fill="#fff" stroke="#000" stroke-linecap="round" stroke-linejoin="round" stroke-width="5"/>
<path d="M743.5825,677.7193H768.5604A1.7968,1.7968 0 0 1 770.3571,679.5161V704.4939A1.7968,1.7968 0 0 1 768.5604,706.2907H743.5825A1.7968,1.7968 0 0 1 741.7857,704.4939V679.5161A1.7968,1.7968 0 0 1 743.5825,677.7193z" fill="#fff" stroke="#000" stroke-linecap="round" stroke-linejoin="round" stroke-width="5"/>
<path d="M673.5825,714.1479H698.5604A1.7968,1.7968 0 0 1 700.3571,715.9447V740.9225A1.7968,1.7968 0 0 1 698.5604,742.7193H673.5825A1.7968,1.7968 0 0 1 671.7857,740.9225V715.9447A1.7968,1.7968 0 0 1 673.5825,714.1479z" fill="#fff" stroke="#000" stroke-linecap="round" stroke-linejoin="round" stroke-width="5"/>
<path d="M708.5825,714.1479H733.5604A1.7968,1.7968 0 0 1 735.3571,715.9447V740.9225A1.7968,1.7968 0 0 1 733.5604,742.7193H708.5825A1.7968,1.7968 0 0 1 706.7857,740.9225V715.9447A1.7968,1.7968 0 0 1 708.5825,714.1479z" fill="#fff" stroke="#000" stroke-linecap="round" stroke-linejoin="round" stroke-width="5"/>
<path d="M743.5825,714.1479H768.5604A1.7968,1.7968 0 0 1 770.3571,715.9447V740.9225A1.7968,1.7968 0 0 1 768.5604,742.7193H743.5825A1.7968,1.7968 0 0 1 741.7857,740.9225V715.9447A1.7968,1.7968 0 0 1 743.5825,714.1479z" fill="#fff" stroke="#000" stroke-linecap="round" stroke-linejoin="round" stroke-width="5"/>
<path d="M778.5825,714.1479H803.5604A1.7968,1.7968 0 0 1 805.3571,715.9447V775.9225A1.7968,1.7968 0 0 1 803.5604,777.7193H778.5825A1.7968,1.7968 0 0 1 776.7857,775.9225V715.9447A1.7968,1.7968 0 0 1 778.5825,714.1479z" fill="#fff" stroke="#000" stroke-linecap="round" stroke-linejoin="round" stroke-width="5"/>
<path d="M673.5825,749.8622H732.8461A1.7968,1.7968 0 0 1 734.6429,751.659V776.6368A1.7968,1.7968 0 0 1 732.8461,778.4336H673.5825A1.7968,1.7968 0 0 1 671.7857,776.6368V751.659A1.7968,1.7968 0 0 1 673.5825,749.8622z" fill="#fff" stroke="#000" stroke-linecap="round" stroke-linejoin="round" stroke-width="5"/>
<path d="M743.5825,749.8622H768.5604A1.7968,1.7968 0 0 1 770.3571,751.659V776.6368A1.7968,1.7968 0 0 1 768.5604,778.4336H743.5825A1.7968,1.7968 0 0 1 741.7857,776.6368V751.659A1.7968,1.7968 0 0 1 743.5825,749.8622z" fill="#fff" stroke="#000" stroke-linecap="round" stroke-linejoin="round" stroke-width="5"/>
<path d="M554.2967,603.4336H579.2746A1.7968,1.7968 0 0 1 581.0714,605.2304V630.2083A1.7968,1.7968 0 0 1 579.2746,632.0051H554.2967A1.7968,1.7968 0 0 1 552.4999,630.2083V605.2304A1.7968,1.7968 0 0 1 554.2967,603.4336z" fill="#fff" stroke="#000" stroke-linecap="round" stroke-linejoin="round" stroke-width="5"/>
<path d="M589.2967,603.4336H614.2746A1.7968,1.7968 0 0 1 616.0714,605.2304V630.2083A1.7968,1.7968 0 0 1 614.2746,632.0051H589.2967A1.7968,1.7968 0 0 1 587.4999,630.2083V605.2304A1.7968,1.7968 0 0 1 589.2967,603.4336z" fill="#fff" stroke="#000" stroke-linecap="round" stroke-linejoin="round" stroke-width="5"/>
<path d="M624.2967,603.4336H649.2746A1.7968,1.7968 0 0 1 651.0714,605.2304V630.2083A1.7968,1.7968 0 0 1 649.2746,632.0051H624.2967A1.7968,1.7968 0 0 1 622.4999,630.2083V605.2304A1.7968,1.7968 0 0 1 624.2967,603.4336z" fill="#fff" stroke="#000" stroke-linecap="round" stroke-linejoin="round" stroke-width="5"/>
<path d="M554.2967,639.8622H579.2746A1.7968,1.7968 0 0 1 581.0714,641.659V666.6368A1.7968,1.7968 0 0 1 579.2746,668.4336H554.2967A1.7968,1.7968 0 0 1 552.4999,666.6368V641.659A1.7968,1.7968 0 0 1 554.2967,639.8622z" fill="#fff" stroke="#000" stroke-linecap="round" stroke-linejoin="round" stroke-width="5"/>
<path d="M589.2967,639.8622H614.2746A1.7968,1.7968 0 0 1 616.0714,641.659V666.6368A1.7968,1.7968 0 0 1 614.2746,668.4336H589.2967A1.7968,1.7968 0 0 1 587.4999,666.6368V641.659A1.7968,1.7968 0 0 1 589.2967,639.8622z" fill="#fff" stroke="#000" stroke-linecap="round" stroke-linejoin="round" stroke-width="5"/>
<path d="M624.2967,639.8622H649.2746A1.7968,1.7968 0 0 1 651.0714,641.659V666.6368A1.7968,1.7968 0 0 1 649.2746,668.4336H624.2967A1.7968,1.7968 0 0 1 622.4999,666.6368V641.659A1.7968,1.7968 0 0 1 624.2967,639.8622z" fill="#fff" stroke="#000" stroke-linecap="round" stroke-linejoin="round" stroke-width="5"/>
<path d="M554.2967,749.8622H579.2746A1.7968,1.7968 0 0 1 581.0714,751.659V776.6368A1.7968,1.7968 0 0 1 579.2746,778.4336H554.2967A1.7968,1.7968 0 0 1 552.4999,776.6368V751.659A1.7968,1.7968 0 0 1 554.2967,749.8622z" fill="#fff" stroke="#000" stroke-linecap="round" stroke-linejoin="round" stroke-width="5"/>
<path d="M589.2967,749.8622H614.2746A1.7968,1.7968 0 0 1 616.0714,751.659V776.6368A1.7968,1.7968 0 0 1 614.2746,778.4336H589.2967A1.7968,1.7968 0 0 1 587.4999,776.6368V751.659A1.7968,1.7968 0 0 1 589.2967,749.8622z" fill="#fff" stroke="#000" stroke-linecap="round" stroke-linejoin="round" stroke-width="5"/>
<path d="M624.2967,749.8622H649.2746A1.7968,1.7968 0 0 1 651.0714,751.659V776.6368A1.7968,1.7968 0 0 1 649.2746,778.4336H624.2967A1.7968,1.7968 0 0 1 622.4999,776.6368V751.659A1.7968,1.7968 0 0 1 624.2967,749.8622z" fill="#fff" stroke="#000" stroke-linecap="round" stroke-linejoin="round" stroke-width="5"/>
<path d="M589.2967,714.1479H614.2746A1.7968,1.7968 0 0 1 616.0714,715.9447V740.9225A1.7968,1.7968 0 0 1 614.2746,742.7193H589.2967A1.7968,1.7968 0 0 1 587.4999,740.9225V715.9447A1.7968,1.7968 0 0 1 589.2967,714.1479z" fill="#fff" stroke="#000" stroke-linecap="round" stroke-linejoin="round" stroke-width="5"/>
<path d="M-.3461,561.648H24.6318A1.7968,1.7968 0 0 1 26.4286,563.4447V588.4226A1.7968,1.7968 0 0 1 24.6318,590.2194H-.3461A1.7968,1.7968 0 0 1 -2.1429,588.4226V563.4447A1.7968,1.7968 0 0 1 -.3461,561.648z" fill="#fff" stroke="#000" stroke-linecap="round" stroke-linejoin="round" stroke-width="5"/>
<path d="M.0111,602.7193H24.9889A1.7968,1.7968 0 0 1 26.7857,604.5161V629.4939A1.7968,1.7968 0 0 1 24.9889,631.2907H.0111A1.7968,1.7968 0 0 1 -1.7857,629.4939V604.5161A1.7968,1.7968 0 0 1 .0111,602.7193z" fill="#fff" stroke="#000" stroke-linecap="round" stroke-linejoin="round" stroke-width="5"/>
<path d="M35.0111,602.7193H59.9889A1.7968,1.7968 0 0 1 61.7857,604.5161V629.4939A1.7968,1.7968 0 0 1 59.9889,631.2907H35.0111A1.7968,1.7968 0 0 1 33.2143,629.4939V604.5161A1.7968,1.7968 0 0 1 35.0111,602.7193z" fill="#fff" stroke="#000" stroke-linecap="round" stroke-linejoin="round" stroke-width="5"/>
<path d="M70.0111,602.7193H94.9889A1.7968,1.7968 0 0 1 96.7857,604.5161V629.4939A1.7968,1.7968 0 0 1 94.9889,631.2907H70.0111A1.7968,1.7968 0 0 1 68.2143,629.4939V604.5161A1.7968,1.7968 0 0 1 70.0111,602.7193z" fill="#fff" stroke="#000" stroke-linecap="round" stroke-linejoin="round" stroke-width="5"/>
<path d="M105.0111,602.7193H129.9889A1.7968,1.7968 0 0 1 131.7857,604.5161V629.4939A1.7968,1.7968 0 0 1 129.9889,631.2907H105.0111A1.7968,1.7968 0 0 1 103.2143,629.4939V604.5161A1.7968,1.7968 0 0 1 105.0111,602.7193z" fill="#fff" stroke="#000" stroke-linecap="round" stroke-linejoin="round" stroke-width="5"/>
<path d="M139.5349,602.7193H164.5127A1.7968,1.7968 0 0 1 166.3095,604.5161V629.4939A1.7968,1.7968 0 0 1 164.5127,631.2907H139.5349A1.7968,1.7968 0 0 1 137.7381,629.4939V604.5161A1.7968,1.7968 0 0 1 139.5349,602.7193z" fill="#fff" stroke="#000" stroke-linecap="round" stroke-linejoin="round" stroke-width="5"/>
<path d="M174.5349,602.7193H199.5127A1.7968,1.7968 0 0 1 201.3095,604.5161V629.4939A1.7968,1.7968 0 0 1 199.5127,631.2907H174.5349A1.7968,1.7968 0 0 1 172.7381,629.4939V604.5161A1.7968,1.7968 0 0 1 174.5349,602.7193z" fill="#fff" stroke="#000" stroke-linecap="round" stroke-linejoin="round" stroke-width="5"/>
<path d="M209.5349,602.7193H234.5127A1.7968,1.7968 0 0 1 236.3095,604.5161V629.4939A1.7968,1.7968 0 0 1 234.5127,631.2907H209.5349A1.7968,1.7968 0 0 1 207.7381,629.4939V604.5161A1.7968,1.7968 0 0 1 209.5349,602.7193z" fill="#fff" stroke="#000" stroke-linecap="round" stroke-linejoin="round" stroke-width="5"/>
<path d="M244.5349,602.7193H269.5128A1.7968,1.7968 0 0 1 271.3095,604.5161V629.4939A1.7968,1.7968 0 0 1 269.5128,631.2907H244.5349A1.7968,1.7968 0 0 1 242.7381,629.4939V604.5161A1.7968,1.7968 0 0 1 244.5349,602.7193z" fill="#fff" stroke="#000" stroke-linecap="round" stroke-linejoin="round" stroke-width="5"/>
<path d="M279.0587,602.7193H304.0366A1.7968,1.7968 0 0 1 305.8334,604.5161V629.4939A1.7968,1.7968 0 0 1 304.0366,631.2907H279.0587A1.7968,1.7968 0 0 1 277.2619,629.4939V604.5161A1.7968,1.7968 0 0 1 279.0587,602.7193z" fill="#fff" stroke="#000" stroke-linecap="round" stroke-linejoin="round" stroke-width="5"/>
<path d="M314.0587,602.7193H339.0366A1.7968,1.7968 0 0 1 340.8334,604.5161V629.4939A1.7968,1.7968 0 0 1 339.0366,631.2907H314.0587A1.7968,1.7968 0 0 1 312.2619,629.4939V604.5161A1.7968,1.7968 0 0 1 314.0587,602.7193z" fill="#fff" stroke="#000" stroke-linecap="round" stroke-linejoin="round" stroke-width="5"/>
<path d="M349.0587,602.7193H374.0366A1.7968,1.7968 0 0 1 375.8334,604.5161V629.4939A1.7968,1.7968 0 0 1 374.0366,631.2907H349.0587A1.7968,1.7968 0 0 1 347.2619,629.4939V604.5161A1.7968,1.7968 0 0 1 349.0587,602.7193z" fill="#fff" stroke="#000" stroke-linecap="round" stroke-linejoin="round" stroke-width="5"/>
<path d="M384.0587,602.7193H409.0366A1.7968,1.7968 0 0 1 410.8334,604.5161V629.4939A1.7968,1.7968 0 0 1 409.0366,631.2907H384.0587A1.7968,1.7968 0 0 1 382.2619,629.4939V604.5161A1.7968,1.7968 0 0 1 384.0587,602.7193z" fill="#fff" stroke="#000" stroke-linecap="round" stroke-linejoin="round" stroke-width="5"/>
<path d="M418.5825,602.7193H443.5604A1.7968,1.7968 0 0 1 445.3572,604.5161V629.4939A1.7968,1.7968 0 0 1 443.5604,631.2907H418.5825A1.7968,1.7968 0 0 1 416.7857,629.4939V604.5161A1.7968,1.7968 0 0 1 418.5825,602.7193z" fill="#fff" stroke="#000" stroke-linecap="round" stroke-linejoin="round" stroke-width="5"/>
<path d="M455.0111,602.7193H513.5604A1.7968,1.7968 0 0 1 515.3571,604.5161V629.4939A1.7968,1.7968 0 0 1 513.5604,631.2907H455.0111A1.7968,1.7968 0 0 1 453.2143,629.4939V604.5161A1.7968,1.7968 0 0 1 455.0111,602.7193z" fill="#fff" stroke="#000" stroke-linecap="round" stroke-linejoin="round" stroke-width="5"/>
<path d="M.0111,638.4336H24.9889A1.7968,1.7968 0 0 1 26.7857,640.2304V665.2082A1.7968,1.7968 0 0 1 24.9889,667.005H.0111A1.7968,1.7968 0 0 1 -1.7857,665.2082V640.2304A1.7968,1.7968 0 0 1 .0111,638.4336z" fill="#fff" stroke="#000" stroke-linecap="round" stroke-linejoin="round" stroke-width="5"/>
<path d="M35.0111,638.4336H59.9889A1.7968,1.7968 0 0 1 61.7857,640.2304V665.2082A1.7968,1.7968 0 0 1 59.9889,667.005H35.0111A1.7968,1.7968 0 0 1 33.2143,665.2082V640.2304A1.7968,1.7968 0 0 1 35.0111,638.4336z" fill="#fff" stroke="#000" stroke-linecap="round" stroke-linejoin="round" stroke-width="5"/>
<path d="M70.0111,638.4336H94.9889A1.7968,1.7968 0 0 1 96.7857,640.2304V665.2082A1.7968,1.7968 0 0 1 94.9889,667.005H70.0111A1.7968,1.7968 0 0 1 68.2143,665.2082V640.2304A1.7968,1.7968 0 0 1 70.0111,638.4336z" fill="#fff" stroke="#000" stroke-linecap="round" stroke-linejoin="round" stroke-width="5"/>
<path d="M105.0111,638.4336H129.9889A1.7968,1.7968 0 0 1 131.7857,640.2304V665.2082A1.7968,1.7968 0 0 1 129.9889,667.005H105.0111A1.7968,1.7968 0 0 1 103.2143,665.2082V640.2304A1.7968,1.7968 0 0 1 105.0111,638.4336z" fill="#fff" stroke="#000" stroke-linecap="round" stroke-linejoin="round" stroke-width="5"/>
<path d="M139.5349,638.4336H164.5127A1.7968,1.7968 0 0 1 166.3095,640.2304V665.2082A1.7968,1.7968 0 0 1 164.5127,667.005H139.5349A1.7968,1.7968 0 0 1 137.7381,665.2082V640.2304A1.7968,1.7968 0 0 1 139.5349,638.4336z" fill="#fff" stroke="#000" stroke-linecap="round" stroke-linejoin="round" stroke-width="5"/>
<path d="M174.5349,638.4336H199.5127A1.7968,1.7968 0 0 1 201.3095,640.2304V665.2082A1.7968,1.7968 0 0 1 199.5127,667.005H174.5349A1.7968,1.7968 0 0 1 172.7381,665.2082V640.2304A1.7968,1.7968 0 0 1 174.5349,638.4336z" fill="#fff" stroke="#000" stroke-linecap="round" stroke-linejoin="round" stroke-width="5"/>
<path d="M209.5349,638.4336H234.5127A1.7968,1.7968 0 0 1 236.3095,640.2304V665.2082A1.7968,1.7968 0 0 1 234.5127,667.005H209.5349A1.7968,1.7968 0 0 1 207.7381,665.2082V640.2304A1.7968,1.7968 0 0 1 209.5349,638.4336z" fill="#fff" stroke="#000" stroke-linecap="round" stroke-linejoin="round" stroke-width="5"/>
<path d="M244.5349,638.4336H269.5128A1.7968,1.7968 0 0 1 271.3095,640.2304V665.2082A1.7968,1.7968 0 0 1 269.5128,667.005H244.5349A1.7968,1.7968 0 0 1 242.7381,665.2082V640.2304A1.7968,1.7968 0 0 1 244.5349,638.4336z" fill="#fff" stroke="#000" stroke-linecap="round" stroke-linejoin="round" stroke-width="5"/>
<path d="M279.0587,638.4336H304.0366A1.7968,1.7968 0 0 1 305.8334,640.2304V665.2082A1.7968,1.7968 0 0 1 304.0366,667.005H279.0587A1.7968,1.7968 0 0 1 277.2619,665.2082V640.2304A1.7968,1.7968 0 0 1 279.0587,638.4336z" fill="#fff" stroke="#000" stroke-linecap="round" stroke-linejoin="round" stroke-width="5"/>
<path d="M314.0587,638.4336H339.0366A1.7968,1.7968 0 0 1 340.8334,640.2304V665.2082A1.7968,1.7968 0 0 1 339.0366,667.005H314.0587A1.7968,1.7968 0 0 1 312.2619,665.2082V640.2304A1.7968,1.7968 0 0 1 314.0587,638.4336z" fill="#fff" stroke="#000" stroke-linecap="round" stroke-linejoin="round" stroke-width="5"/>
<path d="M349.0587,638.4336H374.0366A1.7968,1.7968 0 0 1 375.8334,640.2304V665.2082A1.7968,1.7968 0 0 1 374.0366,667.005H349.0587A1.7968,1.7968 0 0 1 347.2619,665.2082V640.2304A1.7968,1.7968 0 0 1 349.0587,638.4336z" fill="#fff" stroke="#000" stroke-linecap="round" stroke-linejoin="round" stroke-width="5"/>
<path d="M384.0587,638.4336H409.0366A1.7968,1.7968 0 0 1 410.8334,640.2304V665.2082A1.7968,1.7968 0 0 1 409.0366,667.005H384.0587A1.7968,1.7968 0 0 1 382.2619,665.2082V640.2304A1.7968,1.7968 0 0 1 384.0587,638.4336z" fill="#fff" stroke="#000" stroke-linecap="round" stroke-linejoin="round" stroke-width="5"/>
<path d="M418.5825,638.4336H443.5604A1.7968,1.7968 0 0 1 445.3572,640.2304V665.2082A1.7968,1.7968 0 0 1 443.5604,667.005H418.5825A1.7968,1.7968 0 0 1 416.7857,665.2082V640.2304A1.7968,1.7968 0 0 1 418.5825,638.4336z" fill="#fff" stroke="#000" stroke-linecap="round" stroke-linejoin="round" stroke-width="5"/>
<path d="m453.5938,486.0625c-.9954,0-1.8125,.8171-1.8125,1.8125l0,24.9688c0,.9954 .8171,1.8125 1.8125,1.8125l33.1875,0 0,33.9062c0,.9954 .8171,1.7812 1.8125,1.7812l24.9688,0c.9954,0 1.7812,-.7858 1.7812,-1.7812l0,-59.9688c0,-.9954-.7858,-1.8125-1.7812,-1.8125-.3279,-.4276-.8546,-.7188-1.4375,-.7188l-58.5312,0z" fill="#fff" stroke="#000" stroke-linecap="round" stroke-linejoin="round" stroke-width="5" transform="translate(0,152.3622)"/>
<path d="M.0111,674.1479H24.9889A1.7968,1.7968 0 0 1 26.7857,675.9447V700.9225A1.7968,1.7968 0 0 1 24.9889,702.7193H.0111A1.7968,1.7968 0 0 1 -1.7857,700.9225V675.9447A1.7968,1.7968 0 0 1 .0111,674.1479z" fill="#fff" stroke="#000" stroke-linecap="round" stroke-linejoin="round" stroke-width="5"/>
<path d="M35.0111,674.1479H59.9889A1.7968,1.7968 0 0 1 61.7857,675.9447V700.9225A1.7968,1.7968 0 0 1 59.9889,702.7193H35.0111A1.7968,1.7968 0 0 1 33.2143,700.9225V675.9447A1.7968,1.7968 0 0 1 35.0111,674.1479z" fill="#fff" stroke="#000" stroke-linecap="round" stroke-linejoin="round" stroke-width="5"/>
<path d="M70.0111,674.1479H94.9889A1.7968,1.7968 0 0 1 96.7857,675.9447V700.9225A1.7968,1.7968 0 0 1 94.9889,702.7193H70.0111A1.7968,1.7968 0 0 1 68.2143,700.9225V675.9447A1.7968,1.7968 0 0 1 70.0111,674.1479z" fill="#fff" stroke="#000" stroke-linecap="round" stroke-linejoin="round" stroke-width="5"/>
<path d="M105.0111,674.1479H129.9889A1.7968,1.7968 0 0 1 131.7857,675.9447V700.9225A1.7968,1.7968 0 0 1 129.9889,702.7193H105.0111A1.7968,1.7968 0 0 1 103.2143,700.9225V675.9447A1.7968,1.7968 0 0 1 105.0111,674.1479z" fill="#fff" stroke="#000" stroke-linecap="round" stroke-linejoin="round" stroke-width="5"/>
<path d="M139.5349,674.1479H164.5127A1.7968,1.7968 0 0 1 166.3095,675.9447V700.9225A1.7968,1.7968 0 0 1 164.5127,702.7193H139.5349A1.7968,1.7968 0 0 1 137.7381,700.9225V675.9447A1.7968,1.7968 0 0 1 139.5349,674.1479z" fill="#fff" stroke="#000" stroke-linecap="round" stroke-linejoin="round" stroke-width="5"/>
<path d="M174.5349,674.1479H199.5127A1.7968,1.7968 0 0 1 201.3095,675.9447V700.9225A1.7968,1.7968 0 0 1 199.5127,702.7193H174.5349A1.7968,1.7968 0 0 1 172.7381,700.9225V675.9447A1.7968,1.7968 0 0 1 174.5349,674.1479z" fill="#fff" stroke="#000" stroke-linecap="round" stroke-linejoin="round" stroke-width="5"/>
<path d="M209.5349,674.1479H234.5127A1.7968,1.7968 0 0 1 236.3095,675.9447V700.9225A1.7968,1.7968 0 0 1 234.5127,702.7193H209.5349A1.7968,1.7968 0 0 1 207.7381,700.9225V675.9447A1.7968,1.7968 0 0 1 209.5349,674.1479z" fill="#fff" stroke="#000" stroke-linecap="round" stroke-linejoin="round" stroke-width="5"/>
<path d="M244.5349,674.1479H269.5128A1.7968,1.7968 0 0 1 271.3095,675.9447V700.9225A1.7968,1.7968 0 0 1 269.5128,702.7193H244.5349A1.7968,1.7968 0 0 1 242.7381,700.9225V675.9447A1.7968,1.7968 0 0 1 244.5349,674.1479z" fill="#fff" stroke="#000" stroke-linecap="round" stroke-linejoin="round" stroke-width="5"/>
<path d="M279.0587,674.1479H304.0366A1.7968,1.7968 0 0 1 305.8334,675.9447V700.9225A1.7968,1.7968 0 0 1 304.0366,702.7193H279.0587A1.7968,1.7968 0 0 1 277.2619,700.9225V675.9447A1.7968,1.7968 0 0 1 279.0587,674.1479z" fill="#fff" stroke="#000" stroke-linecap="round" stroke-linejoin="round" stroke-width="5"/>
<path d="M314.0587,674.1479H339.0366A1.7968,1.7968 0 0 1 340.8334,675.9447V700.9225A1.7968,1.7968 0 0 1 339.0366,702.7193H314.0587A1.7968,1.7968 0 0 1 312.2619,700.9225V675.9447A1.7968,1.7968 0 0 1 314.0587,674.1479z" fill="#fff" stroke="#000" stroke-linecap="round" stroke-linejoin="round" stroke-width="5"/>
<path d="M349.0587,674.1479H374.0366A1.7968,1.7968 0 0 1 375.8334,675.9447V700.9225A1.7968,1.7968 0 0 1 374.0366,702.7193H349.0587A1.7968,1.7968 0 0 1 347.2619,700.9225V675.9447A1.7968,1.7968 0 0 1 349.0587,674.1479z" fill="#fff" stroke="#000" stroke-linecap="round" stroke-linejoin="round" stroke-width="5"/>
<path d="M384.0587,674.1479H409.0366A1.7968,1.7968 0 0 1 410.8334,675.9447V700.9225A1.7968,1.7968 0 0 1 409.0366,702.7193H384.0587A1.7968,1.7968 0 0 1 382.2619,700.9225V675.9447A1.7968,1.7968 0 0 1 384.0587,674.1479z" fill="#fff" stroke="#000" stroke-linecap="round" stroke-linejoin="round" stroke-width="5"/>
<path d="M418.5825,674.1479H443.5604A1.7968,1.7968 0 0 1 445.3572,675.9447V700.9225A1.7968,1.7968 0 0 1 443.5604,702.7193H418.5825A1.7968,1.7968 0 0 1 416.7857,700.9225V675.9447A1.7968,1.7968 0 0 1 418.5825,674.1479z" fill="#fff" stroke="#000" stroke-linecap="round" stroke-linejoin="round" stroke-width="5"/>
<path d="M453.5825,674.1479H478.5604A1.7968,1.7968 0 0 1 480.3572,675.9447V700.9225A1.7968,1.7968 0 0 1 478.5604,702.7193H453.5825A1.7968,1.7968 0 0 1 451.7857,700.9225V675.9447A1.7968,1.7968 0 0 1 453.5825,674.1479z" fill="#fff" stroke="#000" stroke-linecap="round" stroke-linejoin="round" stroke-width="5"/>
<path d="M.0111,709.8622H24.9889A1.7968,1.7968 0 0 1 26.7857,711.659V736.6368A1.7968,1.7968 0 0 1 24.9889,738.4336H.0111A1.7968,1.7968 0 0 1 -1.7857,736.6368V711.659A1.7968,1.7968 0 0 1 .0111,709.8622z" fill="#fff" stroke="#000" stroke-linecap="round" stroke-linejoin="round" stroke-width="5"/>
<path d="M35.0111,709.8622H59.9889A1.7968,1.7968 0 0 1 61.7857,711.659V736.6368A1.7968,1.7968 0 0 1 59.9889,738.4336H35.0111A1.7968,1.7968 0 0 1 33.2143,736.6368V711.659A1.7968,1.7968 0 0 1 35.0111,709.8622z" fill="#fff" stroke="#000" stroke-linecap="round" stroke-linejoin="round" stroke-width="5"/>
<path d="M70.0111,709.8622H94.9889A1.7968,1.7968 0 0 1 96.7857,711.659V736.6368A1.7968,1.7968 0 0 1 94.9889,738.4336H70.0111A1.7968,1.7968 0 0 1 68.2143,736.6368V711.659A1.7968,1.7968 0 0 1 70.0111,709.8622z" fill="#fff" stroke="#000" stroke-linecap="round" stroke-linejoin="round" stroke-width="5"/>
<path d="M105.0111,709.8622H129.9889A1.7968,1.7968 0 0 1 131.7857,711.659V736.6368A1.7968,1.7968 0 0 1 129.9889,738.4336H105.0111A1.7968,1.7968 0 0 1 103.2143,736.6368V711.659A1.7968,1.7968 0 0 1 105.0111,709.8622z" fill="#fff" stroke="#000" stroke-linecap="round" stroke-linejoin="round" stroke-width="5"/>
<path d="M139.5349,709.8622H164.5127A1.7968,1.7968 0 0 1 166.3095,711.659V736.6368A1.7968,1.7968 0 0 1 164.5127,738.4336H139.5349A1.7968,1.7968 0 0 1 137.7381,736.6368V711.659A1.7968,1.7968 0 0 1 139.5349,709.8622z" fill="#fff" stroke="#000" stroke-linecap="round" stroke-linejoin="round" stroke-width="5"/>
<path d="M174.5349,709.8622H199.5127A1.7968,1.7968 0 0 1 201.3095,711.659V736.6368A1.7968,1.7968 0 0 1 199.5127,738.4336H174.5349A1.7968,1.7968 0 0 1 172.7381,736.6368V711.659A1.7968,1.7968 0 0 1 174.5349,709.8622z" fill="#fff" stroke="#000" stroke-linecap="round" stroke-linejoin="round" stroke-width="5"/>
<path d="M209.5349,709.8622H234.5127A1.7968,1.7968 0 0 1 236.3095,711.659V736.6368A1.7968,1.7968 0 0 1 234.5127,738.4336H209.5349A1.7968,1.7968 0 0 1 207.7381,736.6368V711.659A1.7968,1.7968 0 0 1 209.5349,709.8622z" fill="#fff" stroke="#000" stroke-linecap="round" stroke-linejoin="round" stroke-width="5"/>
<path d="M244.5349,709.8622H269.5128A1.7968,1.7968 0 0 1 271.3095,711.659V736.6368A1.7968,1.7968 0 0 1 269.5128,738.4336H244.5349A1.7968,1.7968 0 0 1 242.7381,736.6368V711.659A1.7968,1.7968 0 0 1 244.5349,709.8622z" fill="#fff" stroke="#000" stroke-linecap="round" stroke-linejoin="round" stroke-width="5"/>
<path d="M279.0587,709.8622H304.0366A1.7968,1.7968 0 0 1 305.8334,711.659V736.6368A1.7968,1.7968 0 0 1 304.0366,738.4336H279.0587A1.7968,1.7968 0 0 1 277.2619,736.6368V711.659A1.7968,1.7968 0 0 1 279.0587,709.8622z" fill="#fff" stroke="#000" stroke-linecap="round" stroke-linejoin="round" stroke-width="5"/>
<path d="M314.0587,709.8622H339.0366A1.7968,1.7968 0 0 1 340.8334,711.659V736.6368A1.7968,1.7968 0 0 1 339.0366,738.4336H314.0587A1.7968,1.7968 0 0 1 312.2619,736.6368V711.659A1.7968,1.7968 0 0 1 314.0587,709.8622z" fill="#fff" stroke="#000" stroke-linecap="round" stroke-linejoin="round" stroke-width="5"/>
<path d="M349.0587,709.8622H374.0366A1.7968,1.7968 0 0 1 375.8334,711.659V736.6368A1.7968,1.7968 0 0 1 374.0366,738.4336H349.0587A1.7968,1.7968 0 0 1 347.2619,736.6368V711.659A1.7968,1.7968 0 0 1 349.0587,709.8622z" fill="#fff" stroke="#000" stroke-linecap="round" stroke-linejoin="round" stroke-width="5"/>
<path d="M384.0587,709.8622H409.0366A1.7968,1.7968 0 0 1 410.8334,711.659V736.6368A1.7968,1.7968 0 0 1 409.0366,738.4336H384.0587A1.7968,1.7968 0 0 1 382.2619,736.6368V711.659A1.7968,1.7968 0 0 1 384.0587,709.8622z" fill="#fff" stroke="#000" stroke-linecap="round" stroke-linejoin="round" stroke-width="5"/>
<path d="M418.5825,709.8622H443.5604A1.7968,1.7968 0 0 1 445.3572,711.659V736.6368A1.7968,1.7968 0 0 1 443.5604,738.4336H418.5825A1.7968,1.7968 0 0 1 416.7857,736.6368V711.659A1.7968,1.7968 0 0 1 418.5825,709.8622z" fill="#fff" stroke="#000" stroke-linecap="round" stroke-linejoin="round" stroke-width="5"/>
<path d="M454.2968,709.8622H513.5604A1.7968,1.7968 0 0 1 515.3572,711.659V736.6368A1.7968,1.7968 0 0 1 513.5604,738.4336H454.2968A1.7968,1.7968 0 0 1 452.5,736.6368V711.659A1.7968,1.7968 0 0 1 454.2968,709.8622z" fill="#fff" stroke="#000" stroke-linecap="round" stroke-linejoin="round" stroke-width="5"/>
<path d="M.0111,747.7193H24.9889A1.7968,1.7968 0 0 1 26.7857,749.5161V774.4939A1.7968,1.7968 0 0 1 24.9889,776.2907H.0111A1.7968,1.7968 0 0 1 -1.7857,774.4939V749.5161A1.7968,1.7968 0 0 1 .0111,747.7193z" fill="#fff" stroke="#000" stroke-linecap="round" stroke-linejoin="round" stroke-width="5"/>
<path d="M35.0111,747.7193H59.9889A1.7968,1.7968 0 0 1 61.7857,749.5161V774.4939A1.7968,1.7968 0 0 1 59.9889,776.2907H35.0111A1.7968,1.7968 0 0 1 33.2143,774.4939V749.5161A1.7968,1.7968 0 0 1 35.0111,747.7193z" fill="#fff" stroke="#000" stroke-linecap="round" stroke-linejoin="round" stroke-width="5"/>
<path d="M70.0111,747.7193H94.9889A1.7968,1.7968 0 0 1 96.7857,749.5161V774.4939A1.7968,1.7968 0 0 1 94.9889,776.2907H70.0111A1.7968,1.7968 0 0 1 68.2143,774.4939V749.5161A1.7968,1.7968 0 0 1 70.0111,747.7193z" fill="#fff" stroke="#000" stroke-linecap="round" stroke-linejoin="round" stroke-width="5"/>
<path d="M105.0111,747.7193H372.8461A1.7968,1.7968 0 0 1 374.6429,749.5161V774.4939A1.7968,1.7968 0 0 1 372.8461,776.2907H105.0111A1.7968,1.7968 0 0 1 103.2143,774.4939V749.5161A1.7968,1.7968 0 0 1 105.0111,747.7193z" fill="#fff" stroke="#000" stroke-linecap="round" stroke-linejoin="round" stroke-width="5"/>
<path d="M384.0587,747.7193H409.0366A1.7968,1.7968 0 0 1 410.8334,749.5161V774.4939A1.7968,1.7968 0 0 1 409.0366,776.2907H384.0587A1.7968,1.7968 0 0 1 382.2619,774.4939V749.5161A1.7968,1.7968 0 0 1 384.0587,747.7193z" fill="#fff" stroke="#000" stroke-linecap="round" stroke-linejoin="round" stroke-width="5"/>
<path d="M418.5825,747.7193H443.5604A1.7968,1.7968 0 0 1 445.3572,749.5161V774.4939A1.7968,1.7968 0 0 1 443.5604,776.2907H418.5825A1.7968,1.7968 0 0 1 416.7857,774.4939V749.5161A1.7968,1.7968 0 0 1 418.5825,747.7193z" fill="#fff" stroke="#000" stroke-linecap="round" stroke-linejoin="round" stroke-width="5"/>
<path d="M453.5825,747.7193H478.5604A1.7968,1.7968 0 0 1 480.3572,749.5161V774.4939A1.7968,1.7968 0 0 1 478.5604,776.2907H453.5825A1.7968,1.7968 0 0 1 451.7857,774.4939V749.5161A1.7968,1.7968 0 0 1 453.5825,747.7193z" fill="#fff" stroke="#000" stroke-linecap="round" stroke-linejoin="round" stroke-width="5"/>
<path d="M488.5825,747.7193H513.5604A1.7968,1.7968 0 0 1 515.3572,749.5161V774.4939A1.7968,1.7968 0 0 1 513.5604,776.2907H488.5825A1.7968,1.7968 0 0 1 486.7857,774.4939V749.5161A1.7968,1.7968 0 0 1 488.5825,747.7193z" fill="#fff" stroke="#000" stroke-linecap="round" stroke-linejoin="round" stroke-width="5"/>
<path d="m804.2857,422.8571c0,5.5228-4.4772,10-10,10-5.5229,0-10,-4.4772-10,-10 0,-5.5229 4.4771,-10 10,-10 5.5228,0 10,4.4771 10,10z" fill="#fff" stroke="#000" stroke-linecap="round" stroke-linejoin="round" stroke-width="5" transform="translate(0,152.3622)"/>
<g stroke="#000">
<path d="M134.2857,262.8571 64.2857,344.2857" fill="none" stroke="#000" stroke-width="10" transform="translate(-85.7143,455.2193)"/>
<path d="m62.8571,261.4286 61.4286,85.7143" fill="none" stroke="#000" stroke-width="10" transform="translate(-85.7143,455.2193)"/>
</g>
<g stroke="#000">
<path d="M134.2857,262.8571 64.2857,344.2857" fill="none" stroke="#000" stroke-width="10" transform="translate(-8.5714,456.6479)"/>
<path d="m62.8571,261.4286 61.4286,85.7143" fill="none" stroke="#000" stroke-width="10" transform="translate(-8.5714,456.6479)"/>
</g>
<g stroke="#000">
<path d="M134.2857,262.8571 64.2857,344.2857" fill="none" stroke="#000" stroke-width="10" transform="translate(472.8571,348.0765)"/>
<path d="m62.8571,261.4286 61.4286,85.7143" fill="none" stroke="#000" stroke-width="10" transform="translate(472.8571,348.0765)"/>
</g>
</g>
<g transform="matrix(.53735,0,0,.53735,292.20525,654.9529)">
<path d="m549.7839,338.6429c10.542,27.252-14.4965,61.0051-55.925,75.3897-41.4285,14.3846-83.5589,3.9535-94.1009,-23.2985-10.542,-27.252 23.1008,-45.0843 59.802,-69.0897 37.5515,-24.5616 79.6819,-10.2535 90.2239,16.9985z" stroke="#000" stroke-linecap="round" stroke-linejoin="round" stroke-width="3.838"/>
<path d="m429.5376,384.2211 0,25.7008c39.0605,-46.3239 88.2627,-19.2451 101.0897,-17.1338l-3.0841,-21.9313c-1.8427,-18.1531-76.5227,-22.8415-98.0056,13.3644z" stroke="#fff" stroke-width="3.838"/>
<path d="m341.4286,422.8571c0,19.7245-15.9898,35.7143-35.7143,35.7143-19.7245,0-35.7143,-15.9898-35.7143,-35.7143 0,-19.7245 15.9898,-35.7143 35.7143,-35.7143 19.7245,0 35.7143,15.9898 35.7143,35.7143z" fill="#fff" stroke="#000" stroke-linecap="round" stroke-linejoin="round" stroke-width="9.5451" transform="matrix(.48891,0,0,.48891,400.92686,287.88818)"/>
<g transform="matrix(1.94906,0,0,1.94906,380.22221,-1493.3815)">
<path d="m446.8915,78.4154c0,2.9289-27.5427,5.3033-61.5183,5.3033-33.9756,0-61.5183,-2.3744-61.5183,-5.3033 0,-2.9289 27.5427,-5.3033 61.5183,-5.3033 33.9756,0 61.5183,2.3744 61.5183,5.3033z" id="shadow" stroke="#000" stroke-linecap="round" stroke-width="4.862" transform="matrix(.72039,0,0,.72039,-225.83485,981.09953)"/>
<path d="m89.8508,977.4512 0,34.4985c0,14.4129-11.6032,26.0161-26.0161,26.0161l-25.5265,0c-14.4129,0-26.0161,-11.6032-26.0161,-26.0161l0,-34.4985" fill="#fff" id="body" stroke="#000" stroke-linecap="round" stroke-linejoin="round" stroke-width="2.5"/>
<path d="m17.4224,971.8486 0,13.3584" fill="none" stroke="#000" stroke-linecap="round" stroke-width="3.5"/>
<path d="m23.1021,968.441 0,13.3584" fill="none" stroke="#000" stroke-linecap="round" stroke-width="3.5"/>
<path d="m29.9631,967.1772 0,13.3584" fill="none" stroke="#000" stroke-linecap="round" stroke-width="3.5"/>
<path d="m36.4012,968.232 0,13.3584" fill="none" stroke="#000" stroke-linecap="round" stroke-width="3.5"/>
<path d="m44.8131,967.3912 0,13.3584" fill="none" stroke="#000" stroke-linecap="round" stroke-width="3.5"/>
<path d="m52.8456,968.9664 0,13.3584" fill="none" stroke="#000" stroke-linecap="round" stroke-width="3.5"/>
<path d="m60.509,968.84 0,13.3584" fill="none" stroke="#000" stroke-linecap="round" stroke-width="3.5"/>
<path d="m68.0749,967.6051 0,13.3584" fill="none" stroke="#000" stroke-linecap="round" stroke-width="3.5"/>
<path d="m75.218,969.7929 0,13.3584" fill="none" stroke="#000" stroke-linecap="round" stroke-width="3.5"/>
<path d="m82.9067,969.5273 0,13.3584" fill="none" stroke="#000" stroke-linecap="round" stroke-width="3.5"/>
<path d="m45.0406,1024.2964 19.0817,-3.0803" fill="none" id="mouth" stroke="#000" stroke-linecap="round" stroke-width=".5"/>
<path d="m12.9687,996.5084 77.1402,0" fill="none" stroke="#000" stroke-width="1.5"/>
<path d="M34.5709,991.9564H49.3415A1.6364,1.6364 0 0 1 50.9779,993.5928V999.424A1.6364,1.6364 0 0 1 49.3415,1001.0604H34.5709A1.6364,1.6364 0 0 1 32.9345,999.424V993.5928A1.6364,1.6364 0 0 1 34.5709,991.9564z" stroke="#000" stroke-linecap="round" stroke-width="2"/>
<path d="M63.3087,991.9564H78.0793A1.6364,1.6364 0 0 1 79.7157,993.5928V999.424A1.6364,1.6364 0 0 1 78.0793,1001.0604H63.3087A1.6364,1.6364 0 0 1 61.6724,999.424V993.5928A1.6364,1.6364 0 0 1 63.3087,991.9564z" stroke="#000" stroke-linecap="round" stroke-width="2"/>
</g>
<path d="m445.3008,397.2428c20.3639,2.1124 13.4114,.1806 33.6965,2.9256 7.1368,.9658 52.5601,2.6901 55.7421,2.8999-.3537,-3.5465-10.9657,-6.054-16.1058,-11.9937 0,0-29.9852,-5.159-44.548,-3.4268-10.2586,1.2203-28.7848,9.595-28.7848,9.595z" fill="#fff" stroke="#000" stroke-width="3.838"/>
<path d="m489.4441,322.5539 15.0381,16.0711 16.0627,-15.2462-14.7721,4.8881z" fill="#fff" stroke="#000" stroke-width=".5833"/>
<path d="m429.3518,396.0857c18.047,-35.0094 90.0616,-30.9286 100.4172,-15.4168" fill="none" stroke="#fff" stroke-width=".5833"/>
<path d="m341.4286,422.8571c0,19.7245-15.9898,35.7143-35.7143,35.7143-19.7245,0-35.7143,-15.9898-35.7143,-35.7143 0,-19.7245 15.9898,-35.7143 35.7143,-35.7143 19.7245,0 35.7143,15.9898 35.7143,35.7143z" fill="#fff" stroke="#000" stroke-linecap="round" stroke-linejoin="round" stroke-width="9.5451" transform="matrix(.48891,0,0,.48891,224.67591,257.47135)"/>
<g transform="matrix(.43734,-.38602,.38602,.43734,22.99245,248.784)">
<path d="M201.3883,463.2427H202.371A2.0195,2.0195 0 0 1 204.3906,465.2623V641.7634A2.0195,2.0195 0 0 1 202.371,643.783H201.3883A2.0195,2.0195 0 0 1 199.3688,641.7634V465.2623A2.0195,2.0195 0 0 1 201.3883,463.2427z" stroke="#000" stroke-linecap="round" stroke-linejoin="round" stroke-width="4.2603"/>
<path d="M196.9333,640.0373H207.5023A2.0195,2.0195 0 0 1 209.5218,642.0568V686.7112A2.0195,2.0195 0 0 1 207.5023,688.7307H196.9333A2.0195,2.0195 0 0 1 194.9138,686.7112V642.0568A2.0195,2.0195 0 0 1 196.9333,640.0373z" stroke="#000" stroke-linecap="round" stroke-linejoin="round" stroke-width="5.9328"/>
<path d="m181.804,431.1467 3.8438,25.1668 11.8879,21.5373 10.1133,0 10.6255,-20.3645 3.9825,-26.3396z" stroke="#000" stroke-width="6.833"/>
</g>
</g>
<path d="M621.0483,837.1058 863.2156,952.614" fill="none" stroke="#000" stroke-width="1.4759"/>
<text font-family="Sans" font-size="21.728" letter-spacing="0" line-height="562.5" transform="skewY(342.679)" word-spacing="0" x="294.4003" y="853.6249">
   <tspan text-align="center" text-anchor="middle" x="294.4003" y="853.6249">Plan de défense en territoire</tspan>
   <tspan text-align="center" text-anchor="middle" x="294.4003" y="880.785">ennemi (Windows)</tspan>
  </text>
</g>
</svg>
