<svg version="1.1" viewBox="0 0 900 450" xmlns="http://www.w3.org/2000/svg" xmlns:svg="http://www.w3.org/2000/svg">
<g transform="translate(0,-602.3622)">
<path d="M51.7185,686.3167H832.7204A31.621,31.621 0 0 1 864.3414,717.9377V966.2866A31.621,31.621 0 0 1 832.7204,997.9076H51.7185A31.621,31.621 0 0 1 20.0975,966.2866V717.9377A31.621,31.621 0 0 1 51.7185,686.3167z" fill="#fff" stroke="#000" stroke-linecap="round" stroke-width="7.4907"/>
<path d="M49.6181,653.7306H300.782A15.6552,15.6552 0 0 1 316.4372,669.3858V669.3858A15.6552,15.6552 0 0 1 300.782,685.041H49.6181A15.6552,15.6552 0 0 1 33.9629,669.3858V669.3858A15.6552,15.6552 0 0 1 49.6181,653.7306z" fill="#fff" stroke="#000" stroke-linecap="round" stroke-linejoin="round" stroke-width="4.5094" transform="matrix(1,-.00315,.00315,1,0,0)"/>
<path d="m101.5203,44.9288a36.8706,34.8503 0 1 1 -73.7411,0 36.8706,34.8503 0 1 1 73.7411,0z" stroke="#000" stroke-linecap="round" stroke-linejoin="round" stroke-width="7.491" transform="matrix(1.24255,-.00391,.00217,.68917,-22.0997,630.77291)"/>
<text font-family="Bitstream Vera Sans" font-size="40" transform="matrix(1,-.00315,.00315,1,0,0)" x="19.3621" y="676.5717">
   <tspan fill="#f9f9f9" x="19.3621" y="676.5717">208</tspan>
  </text>
<text font-family="Bitstream Vera Sans" font-size="20" transform="matrix(1,-.00315,.00315,1,0,0)" x="137.0774" y="676.4587">
   <tspan x="137.0774" y="676.4587">Sauvegarde</tspan>
  </text>
<g transform="translate(.7009,-5.4964)">
<path d="m839.4465,1023.3074c.4393,.5102 1.0355,.5714 1.6702,.6073 .8029,-.022 1.6072,-.2138 2.3575,-.4993 .4009,-.1526 .6224,-.2825 .9965,-.4789-2.2387,1.3097-.9924,.6082-.5738,.1636 .2168,-.2303 .3463,-.473 .4686,-.7606 .3177,-.895 .3589,-1.8574 .4131,-2.7971 .1056,-1.3679-.1776,-2.7109-.4825,-4.0351-.3709,-1.393-.8746,-2.7467-1.4294,-4.0758-.2656,-.6279-.5661,-1.24-.8587,-1.8555-.3944,-.7567-.717,-.2868 1.5104,-1.1508 .0768,-.03 .0919,.1367 .1411,.2027 .0824,.1106 .1689,.2179 .2534,.3269 .8217,1.1276 1.8098,2.1155 2.8001,3.0928 .5826,.5674 1.2074,1.0941 1.7645,1.6874 .2114,.1726 .3378,.416 .508,.6229 .1662,.1502 .2962,-.01 .4431,-.1106-2.5656,1.5384-1.6519,1.0412-1.16,.5694 .1937,-.1857 .3764,-.3843 .5619,-.5781 .2632,-.2626 .5127,-.5438 .801,-.7804 .761,-.6244 1.8227,-1.1234 2.6097,-1.5711 .7271,-.3211 1.471,-.6005 2.2265,-.8467 .1563,-.034 .761,-.2665 .899,-.1093 .0321,.037 .0451,.086 .0677,.1294 .003,.044 .0154,.089 .009,.1323-.0436,.3196-.5385,.6915-.7545,.8904-.9928,.8207-1.9561,1.6745-2.8731,2.5792-.7976,.8557-1.6216,1.7004-2.2566,2.6874-.3921,.6165-.6005,1.2972-.6984,2.0144-.0648,.6415-.0542,1.2873-.0532,1.9312 .0351,.6998 .1244,1.4011 .3328,2.0715 .1195,.3571 .3319,.6194 .6717,.7762 .2255,.08 .4837,.1318 .7238,.087 .0559,-.011 .5216,-.1684 .5589,-.1808 .5492,-.2997 1.8756,-1.0005-.6067,.3598-.0982,.054 .1891,-.1201 .2821,-.1824 .2138,-.143 .2651,-.1851 .4657,-.3346 .2405,-.18 .1266,-.092 .3424,-.2617l1.7191,-.6913c-.2178,.1831-.1012,.092-.3516,.2719-1.0139,.7828-2.137,1.4308-3.3009,1.9611-.5107,.1524-.8878,.2254-1.3851,-.01-.3662,-.2066-.6055,-.5062-.7343,-.9112-.2041,-.6903-.2811,-1.409-.3481,-2.1238-.004,-.6502-.0146,-1.3021 .038,-1.9509 .0928,-.7431 .2887,-1.4524 .6884,-2.0955 .0802,-.1333 .153,-.2712 .2404,-.3997 .1797,-.264 .4481,-.5661 .6529,-.8036 .4526,-.5248 .9157,-1.0402 1.3938,-1.5419 .8918,-.8997 1.8318,-1.7498 2.8066,-2.5592 .2761,-.2564 .5618,-.5063 .8001,-.7993 .0396,.021-.0878,.017-.1321,.024-.221,.031-.4338,.1-.6466,.1641-.7471,.2466-1.4866,.5202-2.1959,.8624 2.4446,-1.4457 .9748,-.6248 .497,-.2572-.291,.2239-.54,.5004-.7953,.7622-.9257,.9765-.9789,1.08-2.5451,1.8884-.2567,.1212-.4002,.1068-.6009,-.1041-.1584,-.2095-.2853,-.4431-.481,-.6233-.5334,-.6025-1.1282,-1.1492-1.6932,-1.7213-.9808,-.9983-1.9768,-1.9849-2.8496,-3.0818-.0938,-.1054-.1877,-.2107-.2814,-.3162-.0521,-.059-.2154,-.1251-.1559,-.1761 1.4141,-1.214 1.334,-1.5318 1.6993,-.7303 .2757,.628 .5663,1.2498 .8171,1.8885 .5249,1.3529 1.0089,2.7231 1.4053,4.1197 .3185,1.3302 .6335,2.6815 .5419,4.06-.0362,.9485-.0918,1.9144-.3493,2.8318-.0847,.2347-.1139,.3545-.249,.5692-.5939,.9436-1.8747,1.3891-2.7166,1.9248-1.0714,.5265-2.2113,.8989-3.4172,.9043-.1676,-.014-.3365,-.016-.5029,-.04-.4955,-.073-.9575,-.2895-1.3004,-.6569l1.6003,-.9608z" stroke="#000" stroke-linecap="round" stroke-linejoin="round" stroke-width=".2515"/>
<path d="m854.8111,1021.1506c-.7394,.2071-2.342,1.1965 .4555,-.4044-.388,.2065-.6184,.5425-.7999,.9302-.1036,.3106-.2142,.6511-.1917,.9845 .0156,.2306 .0756,.3465 .154,.562 .3071,.6068 .7795,1.1058 1.3399,1.4838 .4137,.2881 .8839,.4192 1.383,.4252 .3851,-.087 .7431,-.2375 1.0957,-.4123 .1503,-.075 .5909,-.3179 .4467,-.2321-1.6618,.9893-1.2456,.7222-.6575,.3195 .4842,-.373 1.0105,-.8057 1.1352,-1.4399 .0174,-.089 .0162,-.1799 .0243,-.2698-.032,-.7933-.5333,-1.4143-1.0169,-2.0008-.3049,-.3393-.6501,-.6629-1.0669,-.861-.2115,-.1006-.32,-.1184-.544,-.1779-.4519,-.025-.9255,.018-1.3546,.1741-.1984,.072-.499,.2393-.6834,.3368 2.5132,-1.5077 .8665,-.5123 .3482,-.062l-1.7106,.6997c.796,-.7657 1.8589,-1.2168 2.7842,-1.7768 .2686,-.1306 .4271,-.2209 .7141,-.308 .4568,-.1387 .9485,-.1711 1.419,-.1018 .2419,.077 .34,.097 .5672,.2178 .4231,.2254 .772,.5679 1.084,.9255 .5088,.6264 1.0253,1.2756 1.1028,2.1094-.004,.1012 .002,.2032-.0112,.3036-.0928,.6824-.6005,1.1675-1.1167,1.5707-1.0013,.7187-.4882,.3709-2.4236,1.4672-.5043,.2856-1.0559,.5275-1.6351,.5951-.5218,-.046-1.0072,-.1999-1.4323,-.5166-.5749,-.4193-1.0583,-.9487-1.3949,-1.5794-.0786,-.2055-.1678,-.4012-.1946,-.6229-.0421,-.3472 .0735,-.7121 .1572,-1.043 .1608,-.4085 .3649,-.7958 .7491,-1.0357 .9031,-.5198 1.7482,-1.1163 2.7557,-1.3944l-1.4819,1.1332z" stroke="#000" stroke-linecap="round" stroke-linejoin="round" stroke-width=".2515"/>
<path d="m862.6073,1021.9051c-.3203,.1024-.653,.1903-.9574,.3362-.1022,.049-.1982,.1101-.2973,.1651 .4207,-.2356 .8414,-.4712 1.2621,-.7068-.4994,.337-.87,.6738-1.0934,1.2386-.1462,.4653-.0761,.8587 .2923,1.2028 .0889,.083 .1935,.1478 .2903,.2216 .7042,.4046 1.5378,.5494 2.3444,.4638 .2312,-.024 .458,-.081 .687,-.1208 .53,-.1368 .7609,-.1749 1.2586,-.3838 .1651,-.069 .635,-.3304 .4812,-.2386-2.2382,1.3365-1.2251,.7542-.8736,.3984 .0779,-.079 .1399,-.1722 .2098,-.2583 .3065,-.4795 .3144,-.9061 .0985,-1.417-.0396,-.09-.268,-.5604-.4291,-.4586-.0279,.018-.042,.051-.063,.076 2.5422,-1.4497 1.5743,-1.2073 1.3278,-.5008-.1064,.3049-.125,.6013-.1396,.9215 .1766,1.4863 .8332,2.8626 1.3726,4.2435 .6559,1.8244 1.2881,3.7176 1.3609,5.6745 .0145,.3894-.0234,.779-.0352,1.1686-.0582,.3745-.0908,.7539-.1745,1.1236-.2732,1.2059-.8948,2.3097-1.8179,3.137-.1627,.1458-.3469,.2657-.5204,.3986-.6941,.3626-1.3545,.7991-2.0824,1.0879-.3018,.1197-1.0302,-.13-1.269,-.2365-.8875,-.3956-1.654,-1.0455-2.408,-1.6406-1.2719,-1.0888-2.5172,-2.2246-3.6551,-3.4553-.5895,-.6376-.7352,-.8522-1.2473,-1.5117-.4358,-.7271-.9494,-1.5701-.521,-2.4271 .2535,-.5072 .5596,-.6912 .9842,-1.0605 1.2727,-.8247 1.3769,-.9187 3.2195,-1.8517 .4497,-.2278 1.9,-.7427 2.3438,-.8976 .8851,-.3088 1.8369,-.6147 2.7269,-.9055 2.3381,-.6745 4.6281,-1.4959 6.8915,-2.3865 .1921,-.082 .3845,-.1627 .5764,-.245 .1466,-.063 .2943,-.1233 .439,-.1903 .2958,-.1371 .5721,-.3067 .8773,-.4229 .4138,-.059 .559,.4391 .6828,.7418 .2853,.7705 .446,1.5785 .5154,2.3954 .0171,.366 .029,.7336-.0228,1.0975-.005,.037 .0139,.095-.0201,.1109-.5544,.2582-1.1333,.4601-1.6999,.6901 10e-4,-.1125-.005,-.2255 .004,-.3377 .0133,-.1633 .0414,-.325 .063,-.4874 .1257,-.9479 .2903,-1.8832 .4832,-2.8196 .1955,-.8168 .3644,-1.6723 .8312,-2.3853 .5286,-.5535 1.7043,-1.6447 2.2768,-1.0096 .06,.066 .1019,.1472 .1529,.2208 .112,.1981 .2088,.3486 .2821,.5681 .2061,.6171 .2986,1.3405 .4077,1.9824 .1424,.5555 .0881,1.2207 .2567,1.7654 .2229,-.5987-.002,.028-1.6032,.7911-.0325,.016 .0489,-.053 .0671,-.084 .0417,-.071 .1233,-.2801 .1551,-.3443 .0434,-.088 .0929,-.1719 .1393,-.2578 .3011,-.4825 .556,-.9925 .8877,-1.4553 .5547,-.695 1.0736,-.8467 2.0338,-1.3743 .0329,-.018 .0773,-.01 .1126,.01 .045,.016 .08,.053 .12,.079 .3755,.395 .5063,.9539 .6331,1.4682 .1102,.5601 .1692,1.1313 .374,1.667 .0499,.07 .0906,.1479 .1496,.2106 .4298,.457 1.1407,.7985 1.727,.9843 .2206,.07 .4479,.1166 .6718,.1749 .9481,.2366 1.8995,.2484 2.8425,-.011 .2087,-.057 .4184,-.1173 .6161,-.2054 .1842,-.082 .3491,-.2019 .5237,-.3029-.3631,.1874-.6996,.4397-1.0894,.5622-.1503,.047 .2339,-.2118 .3412,-.3272 .3164,-.3401 .4973,-.7183 .6246,-1.1582 .0873,-.3664 .0858,-.7428 .0757,-1.1166-.1021,-.7716-.7838,-.012 1.5762,-.9706 .043,-.018-.0252,.089-.0325,.1353-.0105,.067-.0137,.1342-.0206,.2013-.0335,.608-.0474,1.2173 .0202,1.823 .0688,.3897 .1433,.7878 .4487,1.0613 .2149,.1415 .443,.1511 .6803,.073 .5712,-.2882 1.4287,-.7883-1.1689,.6782-.0922,.052 .1782,-.1143 .2658,-.1737l1.729,-.6875c-.1338,.1099-.1095,.099-.2632,.1885-.5841,.3415-1.3074,.9119-2.0466,1.1199-.2885,.031-.5575,-.032-.7831,-.2236-.314,-.3274-.4165,-.7448-.4864,-1.185-.0743,-.6127-.0594,-1.2282-.0514,-1.8445 .002,-.082 .01,-.3683 .0155,-.3721 1.2231,-.8124 1.6186,-1.5813 1.7738,-.6732 .009,.3928 .009,.788-.0729,1.1745-.4026,1.604-1.4656,1.9694-2.9269,2.8345-.1797,.091-.3518,.1981-.539,.2718-1.1255,.4432-2.3519,.4076-3.5096,.1301-.2313,-.061-.4661,-.1105-.6938,-.184-.5824,-.188-1.4014,-.59-1.8309,-1.0418-.0707,-.074-.1217,-.1655-.1826,-.2482-.2042,-.5463-.263,-1.1251-.3681,-1.696-.1059,-.4424-.211,-.9895-.5766,-1.2965-.0863,.011-.0417,0-.1309,.047 .494,-.2932 .9881,-.5865 1.4821,-.8797 .0418,-.024-.0765,.059-.1115,.092-.088,.083-.1593,.1828-.2543,.2588-.3546,.4458-.6103,.9514-.9065,1.4362-.1113,.1906-.2033,.372-.2742,.581-.0144,.043 .002,.1065-.037,.1297-1.6718,1.0056-1.301,1.4123-1.7676,.8263-.1403,-.5915-.0684,-1.2195-.2051,-1.8138-.1337,-.8319-.2366,-1.7229-.6888,-2.4507-.0786,-.095-.1124,-.1812-.2373,-.2043-.0338,-.01-.1319,.028-.1027,.01 .4848,-.3029 .9881,-.5749 1.4781,-.8692 .044,-.026-.0961,.038-.1396,.065-.0513,.032-.0953,.075-.1429,.1121-.5512,.6573-.7174,1.5447-.9403,2.3499-.2511,1.1608-.4667,2.3381-.5021,3.5279-.5413,.3318-1.0717,.6821-1.624,.9953-.0304,.017 .0302,-.063 .04,-.097 .1011,-.3479 .0723,-.7161 .0723,-1.073-.0467,-.7985-.196,-1.5926-.501,-2.3352-.0582,-.1343-.1651,-.5237-.3687,-.5375-.0472,0-.1338,.034-.1714,.048-.6021,.2681-1.1868,.5757-1.8125,.79-2.2433,.8437-4.5057,1.6345-6.8063,2.3092-1.3354,.4418-2.6801,.8688-3.988,1.3886-.3765,.1496-.7211,.3958-1.1182,.4762-.2039,.041 .7012,-.4449 .5142,-.3538-.2728,.1328-.5155,.32-.7733,.48-.4814,.3865-1.0718,.7863-1.1859,1.4525-.1123,.6558 .3053,1.2621 .5878,1.8057 .1747,.2387 .3409,.4838 .524,.716 1.2506,1.586 2.7724,2.9468 4.3216,4.2314 .7601,.5675 1.5353,1.2021 2.4338,1.5462 .2074,.08 .4249,.1396 .6456,.1642 .1883,.021 .6695,-.1887 .5676,-.029-.2124,.3325-.6509,.446-.9763,.669 .1821,-.1272 .3749,-.2403 .5464,-.3815 .9528,-.7839 1.6207,-1.8661 1.9179,-3.062 .0903,-.3634 .1256,-.7382 .1884,-1.1073 .0181,-.3842 .0641,-.7681 .0543,-1.1526-.0495,-1.9411-.7079,-3.8142-1.3712,-5.6146-.5628,-1.3919-1.2476,-2.7639-1.4927,-4.2575-.008,-.3536 3.7e-4,-.6227 .086,-.9648 .005,-.019 .0997,-.3596 .142,-.3887 .5428,-.3739 1.1209,-.6937 1.6814,-1.0405 .0426,0 .0866,0 .1279,.01 .2648,.072 .3917,.4009 .5024,.6157 .2357,.5565 .268,1.0516-.0318,1.5983-.068,.097-.1268,.202-.2041,.2923-.5521,.6452-1.6564,1.098-2.2184,1.4107-.5375,.2991-1.1558,.4269-1.747,.5654-.2367,.036-.4715,.087-.7101,.1065-.852,.069-1.7224,-.083-2.4498,-.5408-.1044,-.083-.2169,-.1575-.3133,-.25-.4073,-.3914-.5345,-.8233-.3997,-1.3636 .2032,-.6461 .5218,-.9588 1.0648,-1.3565 1.0479,-.6191 1.9953,-1.302 3.1758,-1.5918l-1.4819,1.1332z" stroke="#000" stroke-linecap="round" stroke-linejoin="round" stroke-width=".2515"/>
<path d="m888.0182,1016.2554c-.2243,.2631-.4035,.5643-.4888,.9007-.0611,.3364 .1396,.4226 .4154,.5433 .4462,.1634 .8277,.1455 1.2847,.065 .6111,-.2095 1.5817,-.8066-1.1348,.692-.0381,.021 .0724,-.049 .1046,-.078 .0766,-.07 .0844,-.099 .1345,-.1863 .0923,-.207 .0832,-.4008-.0356,-.5915-.1581,-.1498-.3958,-.1357-.5998,-.1457-.2107,.019-.4113,.072-.5826,.1981l1.4548,-1.1716c.2072,-.078 .4191,-.128 .6429,-.1102 .2663,.026 .5282,.064 .7009,.2917 .1406,.2365 .1962,.4811 .1149,.7512-.2947,.8892-1.4141,1.2487-2.2802,1.4605-.4615,.058-.9177,.033-1.3515,-.1528-.3119,-.1609-.5915,-.3623-.5442,-.7527 .0576,-.3624 .2344,-.687 .4467,-.9831l1.718,-.7299z" stroke="#000" stroke-linecap="round" stroke-linejoin="round" stroke-width=".2515"/>
<path d="m864.1735,1020.7872c.3537,-.172 .6913,-.3752 1.0561,-.5235 .2286,-.1485 .4794,-.217 .7469,-.2463 .246,-.019 .4931,-.016 .7396,-.015 .2447,-.026 .452,.041 .667,.1458 .1505,.1206 .2692,.2808 .3835,.4358 .0994,.1805 .1578,.383 .2189,.5797 .0548,.2016 .1295,.3942 .169,.6001 .038,.2418 .0406,.4871 .0436,.7313 10e-4,.1259 8.9e-4,.2518 8.9e-4,.3777l-1.662,.8466c1.3e-4,-.1253 3.8e-4,-.2505-1.3e-4,-.3758-.002,-.2343-.002,-.4696-.0316,-.7024-.0328,-.2008-.1062,-.3854-.1597,-.5802-.0519,-.177-.1078,-.3572-.1882,-.5221-.0978,-.1283-.193,-.2748-.3336,-.3578-.1975,-.086-.4034,-.091-.6168,-.082-.2413,0-.4842,-10e-5-.7231,.039-.2526,.054-.4803,.1622-.7103,.2776-.3579,.1664-.704,.3572-1.0509,.5451l1.4507,-1.1736z" stroke="#000" stroke-linecap="round" stroke-linejoin="round" stroke-width=".2515"/>
</g>
<path d="m292.5193,687.2746 0,313.2704" fill="none" stroke="#000" stroke-width="5.6728"/>
<path d="m588.3309,687.3736 0,303.442 0,10.4486" fill="none" stroke="#000" stroke-width="5.6784"/>
<path d="m21.2132,917.0017 843.4774,0" fill="none" stroke="#000"/>
<path d="m446.8915,78.4154c0,2.9289-27.5427,5.3033-61.5183,5.3033-33.9756,0-61.5183,-2.3744-61.5183,-5.3033 0,-2.9289 27.5427,-5.3033 61.5183,-5.3033 33.9756,0 61.5183,2.3744 61.5183,5.3033z" stroke="#000" stroke-linecap="round" stroke-width="4.862" transform="matrix(.90469,0,0,.90469,-214.81208,870.22679)"/>
<g transform="matrix(.90469,0,0,.90469,221.84744,601.28203)">
<path d="m-43.5297,288.8057 0,47.8884c0,20.007-16.1067,36.1137-36.1137,36.1137l-35.434,0c-20.007,0-36.1137,-16.1067-36.1137,-36.1137l0,-47.8884" fill="#fff" stroke="#000" stroke-linecap="round" stroke-linejoin="round" stroke-width="3.6422"/>
<path d="M-122.1431,308.6171H-98.6091A.7803,.7803 0 0 1 -97.8288,309.3974V319.4235A.7803,.7803 0 0 1 -98.6091,320.2038H-122.1431A.7803,.7803 0 0 1 -122.9234,319.4235V309.3974A.7803,.7803 0 0 1 -122.1431,308.6171z" stroke="#000" stroke-linecap="square" stroke-linejoin="round" stroke-width="3.7338"/>
<path d="M-80.7522,308.6171H-60.3393A2.3409,2.3409 0 0 1 -57.9985,310.958V317.8629A2.3409,2.3409 0 0 1 -60.3393,320.2038H-80.7522A2.3409,2.3409 0 0 1 -83.093,317.8629V310.958A2.3409,2.3409 0 0 1 -80.7522,308.6171z" stroke="#000" stroke-linecap="square" stroke-linejoin="round" stroke-width="3.7338"/>
<path d="m-148.8829,313.6717c.5492,.0105 1.0986,.007 1.6478,.004 .363,-.002 .7259,-.004 1.0889,-.004 .2925,-4.3e-4 .585,-4e-4 .8775,-4e-4 .304,-6.3e-4 .6081,6e-4 .9121,10e-4 .3906,-.01 .7752,-3.7e-4 1.162,.0507 .3996,.0545 .8031,.0717 1.2062,.0827 .4052,-.0158 .8029,.0589 1.204,.099 .4079,.0368 .818,.0407 1.2274,.045 .4301,.002 .8603,.002 1.2904,6.5e-4 .3736,-7.6e-4 .7472,-10e-4 1.1208,-.002 .307,-7.7e-4 .6141,-9.8e-4 .9211,-10e-4 .2915,-8e-5 .583,-7e-5 .8745,-6e-5 .2915,1e-5 .5831,1e-5 .8746,1e-5 .3187,-3.9e-4 .6374,5.3e-4 .9561,.002 .3943,.002 .7885,4.4e-4 1.1828,-6.3e-4 .3709,-2.7e-4 .7418,4.7e-4 1.1126,10e-4 .3967,-1.7e-4 .7934,-8e-5 1.1902,-10e-4 .38,1.9e-4 .7599,7.4e-4 1.1399,1.6e-4 .3456,-.001 .6912,-.002 1.0367,2.5e-4 .5332,.003 1.0664,.004 1.5996,.006 .7266,.003 1.4533,.003 2.1799,.001 .5332,-.001 1.0664,-.005 1.5997,-.005 .4413,6.5e-4 .8826,-2e-5 1.3239,-.002 .0611,-2e-4 .1222,-4e-4 .1833,-6e-4l-1.746,1.1993c-.0605,-2.1e-4-.121,-4.1e-4-.1815,-6.1e-4-.4399,-.002-.8797,-.002-1.3196,-.002-.528,-2.2e-4-1.0559,-.004-1.5839,-.005-.7276,-.002-1.4552,-.002-2.1828,9.9e-4-.5391,.002-1.0782,.003-1.6173,.006-.3458,.002-.6916,.002-1.0375,2.6e-4-.3801,-5.7e-4-.7602,-3e-5-1.1404,1.5e-4-.3957,-9.9e-4-.7914,-8.9e-4-1.187,-.001-.3723,.001-.7447,.002-1.117,.002-.3937,-10e-4-.7873,-.003-1.181,-6.3e-4-.3206,.001-.6411,.002-.9617,.002-.2915,0-.5831,0-.8747,0-.2914,0-.5829,2e-5-.8743,-6e-5-.306,-1.3e-4-.612,-3.5e-4-.918,-9.6e-4-.372,-6.9e-4-.744,-8.4e-4-1.1161,-8.8e-4-.4302,-8.3e-4-.8603,7e-4-1.2904,-.004-.4148,-.006-.8303,-.0145-1.2428,-.0595-.3968,-.0446-.792,-.0972-1.193,-.0869-.4078,-.0152-.8149,-.0435-1.2193,-.0968-.382,-.0404-.7654,-.0292-1.1493,-.0278-.3051,5.6e-4-.6103,.002-.9155,.001-.2921,10e-6-.5842,3e-5-.8763,-4e-4-.3589,-6.7e-4-.7177,-.002-1.0765,-.004-.5532,-.003-1.1065,-.006-1.6597,.004l1.7494,-1.2016z" stroke="#000" stroke-linecap="square" stroke-linejoin="round" stroke-width=".4767"/>
<path d="m-57.3881,313.9484c.7039,.0118 1.4079,.0102 2.1119,.01 .6452,-8.9e-4 1.2905,-.003 1.9357,-.006 .4312,-.002 .8624,-.002 1.2935,-.003 .3398,-8.1e-4 .6796,-.002 1.0194,-.002 .2968,.0217 .5821,-.0575 .8738,-.0956 .2926,-.0341 .5877,-.039 .8821,-.0425 .2922,-.002 .5843,-10e-4 .8765,-8.4e-4 .2918,4e-4 .5836,5.3e-4 .8754,6.1e-4 .2918,5e-5 .5836,5e-5 .8754,5e-5 .2918,0 .5836,0 .8754,0 .3133,-6.1e-4 .6266,10e-4 .9398,10e-4 .3172,-2.5e-4 .6345,-6.9e-4 .9517,-9.3e-4 .2938,-1.8e-4 .5877,-2e-4 .8815,-2.1e-4 .1943,-1e-5 .0972,-1e-5 .2915,-1e-5l-1.7509,1.2027c-.1943,0-.0971,0-.2914,0-.2936,-2e-5-.5872,-4e-5-.8808,-2.2e-4-.3164,-2.3e-4-.6327,-6.8e-4-.9491,-9.3e-4-.3144,4e-5-.6287,.002-.9431,10e-4-.2918,1e-5-.5836,1e-5-.8754,1e-5-.2918,-1e-5-.5836,-1e-5-.8754,-1.2e-4-.2918,-1.3e-4-.5837,-3.7e-4-.8755,-7.2e-4-.2913,-2.3e-4-.5826,-10e-4-.8738,.004-.2893,.007-.5791,.0195-.8653,.0636-.2961,.0453-.5905,.0907-.8921,.0705-.3377,-4.3e-4-.6755,-10e-4-1.0132,-.002-.4283,-5.4e-4-.8565,-6.3e-4-1.2848,-.003-.6398,-.003-1.2796,-.005-1.9195,-.006-.7134,-4.8e-4-1.4269,-.002-2.1402,.01l1.747,-1.2z" stroke="#000" stroke-linecap="square" stroke-linejoin="round" stroke-width=".4767"/>
<path d="m-97.681,314.1116c.5339,.0676 1.0726,.0889 1.6105,.1048 .4801,.0116 .9604,.0116 1.4405,.0103 .3964,-5e-4 .7929,-6.3e-4 1.1893,-.002 .7958,.0205 1.592,.0104 2.3879,.007 .4809,-.004 .9619,-.005 1.4428,-.007 .3835,3e-5 .767,-4.2e-4 1.1506,6e-4 .4032,.001 .8064,-9.5e-4 1.2096,-3.1e-4 .3638,-8.6e-4 .7277,-7.6e-4 1.0915,-6.6e-4 .3644,5.6e-4 .7288,2.2e-4 1.0931,-5.1e-4 .3481,.001 .6961,1.1e-4 1.0442,-4.5e-4 .3406,.001 .6811,4.5e-4 1.0217,-4e-5 .3008,-4.3e-4 .6016,-5.6e-4 .9024,-6.3e-4 .2516,.0585 .5047,.1006 .7628,.1209 .2799,.0172 .5606,.0173 .8409,.018 .2917,1.9e-4 .5833,-3.9e-4 .875,-6.8e-4 .146,-1.4e-4 .292,-2e-4 .4381,-2.6e-4l-1.7508,1.2027c-.146,10e-5-.292,1.9e-4-.438,3.5e-4-.292,3.2e-4-.584,.001-.876,-3.9e-4-.2852,-.002-.5709,-.005-.8549,-.0331-.2506,-.0294-.496,-.0897-.7478,-.105-.3002,-8e-5-.6004,-2e-4-.9006,-6.3e-4-.3405,-4.8e-4-.681,-.001-1.0215,-5e-5-.3476,-5.5e-4-.6953,-.002-1.0429,-4.4e-4-.3639,-7.3e-4-.7278,-10e-4-1.0916,-5.1e-4-.3632,1.1e-4-.7264,1.9e-4-1.0895,-6.6e-4-.4029,6.4e-4-.8058,-.002-1.2087,-3.1e-4-.3841,.001-.7682,5.8e-4-1.1523,6e-4-.4742,-.002-.9483,-.003-1.4224,-.007-.8027,-.004-1.6058,-.0132-2.4083,.007-.3958,-4.3e-4-.7915,4.6e-4-1.1873,-3.6e-4-.4785,-.003-.957,-.007-1.4353,-.0226-.5477,-.0212-1.0947,-.0538-1.64,-.107l1.7673,-1.1825z" stroke="#000" stroke-linecap="square" stroke-linejoin="round" stroke-width=".4767"/>
<path d="m-136.1855,276.2983 0,18.5432" fill="none" stroke="#000" stroke-linecap="round" stroke-width="4.8046"/>
<path d="m-126.6615,274.544 0,18.5432" fill="none" stroke="#000" stroke-linecap="round" stroke-width="4.8046"/>
<path d="m-117.7245,276.0083 0,18.5432" fill="none" stroke="#000" stroke-linecap="round" stroke-width="4.8046"/>
<path d="m-106.0478,274.841 0,18.5432" fill="none" stroke="#000" stroke-linecap="round" stroke-width="4.8046"/>
<path d="m-95.8892,277.0276 0,18.5432" fill="none" stroke="#000" stroke-linecap="round" stroke-width="4.8046"/>
<path d="m-84.2599,276.8522 0,18.5432" fill="none" stroke="#000" stroke-linecap="round" stroke-width="4.8046"/>
<path d="m-73.7574,275.1381 0,18.5432" fill="none" stroke="#000" stroke-linecap="round" stroke-width="4.8046"/>
<path d="m-63.8419,278.175 0,18.5432" fill="none" stroke="#000" stroke-linecap="round" stroke-width="4.8046"/>
<path d="m-53.169,277.8063 0,18.5432" fill="none" stroke="#000" stroke-linecap="round" stroke-width="4.8046"/>
<path d="m-105.8017,352.8807 27.1229,-4.4282" fill="none" stroke="#000" stroke-width=".7749"/>
<path d="m-144.0697,281.0285 0,18.5432" fill="none" stroke="#000" stroke-linecap="round" stroke-width="4.8046"/>
</g>
<g transform="matrix(.66081,0,0,.66081,133.50899,387.18564)">
<path d="M-1450.6932,1649.7776H-1278.2792A18.0569,18.0569 0 0 1 -1260.2222,1667.8345V1698.2565A18.0569,18.0569 0 0 1 -1278.2792,1716.3135H-1450.6932A18.0569,18.0569 0 0 1 -1468.7501,1698.2565V1667.8345A18.0569,18.0569 0 0 1 -1450.6932,1649.7776z" stroke="#000" stroke-linecap="round" stroke-linejoin="round" stroke-width="2.7184" transform="matrix(1,0,.84988,.52697,0,0)"/>
<path d="M6.0718,846.5267H13.6936A5.7163,5.7163 0 0 1 19.4099,852.243V894.1625A5.7163,5.7163 0 0 1 13.6936,899.8788H6.0718A5.7163,5.7163 0 0 1 .3555,894.1625V852.243A5.7163,5.7163 0 0 1 6.0718,846.5267z" fill="#fff" stroke="#000" stroke-linecap="round" stroke-linejoin="round" stroke-width="5.0248"/>
<path d="M151.2658,846.5267H158.8875A5.7163,5.7163 0 0 1 164.6038,852.243V894.1625A5.7163,5.7163 0 0 1 158.8875,899.8788H151.2658A5.7163,5.7163 0 0 1 145.5495,894.1625V852.243A5.7163,5.7163 0 0 1 151.2658,846.5267z" fill="#fff" stroke="#000" stroke-linecap="round" stroke-linejoin="round" stroke-width="5.0248"/>
<path d="M119.2545,829.7589H126.8762A5.7163,5.7163 0 0 1 132.5925,835.4751V877.3947A5.7163,5.7163 0 0 1 126.8762,883.111H119.2545A5.7163,5.7163 0 0 1 113.5382,877.3947V835.4751A5.7163,5.7163 0 0 1 119.2545,829.7589z" fill="#fff" stroke="#000" stroke-linecap="round" stroke-linejoin="round" stroke-width="5.0248"/>
<path d="M-29.3693,825.1858H-21.7476A5.7163,5.7163 0 0 1 -16.0313,830.9021V872.8217A5.7163,5.7163 0 0 1 -21.7476,878.538H-29.3693A5.7163,5.7163 0 0 1 -35.0856,872.8217V830.9021A5.7163,5.7163 0 0 1 -29.3693,825.1858z" fill="#fff" stroke="#000" stroke-linecap="round" stroke-linejoin="round" stroke-width="5.0248"/>
<path d="M-1363.5918,1549.9816H-1191.1778A18.0569,18.0569 0 0 1 -1173.1208,1568.0385V1598.4605A18.0569,18.0569 0 0 1 -1191.1778,1616.5175H-1363.5918A18.0569,18.0569 0 0 1 -1381.6487,1598.4605V1568.0385A18.0569,18.0569 0 0 1 -1363.5918,1549.9816z" fill="#fff" stroke="#000" stroke-linecap="round" stroke-linejoin="round" stroke-width="2.7184" transform="matrix(1,0,.84988,.52697,0,0)"/>
<path d="M-1355.7497,1539.8573H-1183.3357A18.0569,18.0569 0 0 1 -1165.2787,1557.9142V1588.3362A18.0569,18.0569 0 0 1 -1183.3357,1606.3932H-1355.7497A18.0569,18.0569 0 0 1 -1373.8066,1588.3362V1557.9142A18.0569,18.0569 0 0 1 -1355.7497,1539.8573z" fill="#fff" stroke="#000" stroke-linecap="round" stroke-linejoin="round" stroke-width="2.7184" transform="matrix(1,0,.84988,.52697,0,0)"/>
</g>
<path d="M1761.4982,-1182.2065H1812.4091A9.4409,9.4409 0 0 1 1821.85,-1172.7656V-1148.9294A9.4409,9.4409 0 0 1 1812.4091,-1139.4885H1761.4982A9.4409,9.4409 0 0 1 1752.0573,-1148.9294V-1172.7656A9.4409,9.4409 0 0 1 1761.4982,-1182.2065z" fill="#fff" stroke="#000" stroke-linecap="round" stroke-linejoin="round" stroke-width="3.8211" transform="matrix(.852,0,.77958,.42199,-443.76849,1424.23972)"/>
<path d="M1769.5676,-1190.4218H1820.4785A9.4409,9.4409 0 0 1 1829.9194,-1180.9809V-1157.1447A9.4409,9.4409 0 0 1 1820.4785,-1147.7038H1769.5676A9.4409,9.4409 0 0 1 1760.1267,-1157.1447V-1180.9809A9.4409,9.4409 0 0 1 1769.5676,-1190.4218z" fill="#fff" stroke="#000" stroke-linecap="round" stroke-linejoin="round" stroke-width="3.8211" transform="matrix(.852,0,.77958,.42199,-443.76849,1424.23972)"/>
<path d="M469.2149,-567.1227H518.5548A9.8568,9.8568 0 0 1 528.4115,-557.266V-532.3799A9.8568,9.8568 0 0 1 518.5548,-522.5231H469.2149A9.8568,9.8568 0 0 1 459.3581,-532.3799V-557.266A9.8568,9.8568 0 0 1 469.2149,-567.1227z" fill="#fff" stroke="#000" stroke-linecap="round" stroke-linejoin="round" stroke-width="3.8836" transform="matrix(.852,0,-.40558,.9198,-443.76849,1424.23972)"/>
<text font-family="Bitstream Vera Sans" font-size="7.583" transform="matrix(.852,0,-.49236,1.0459,-471.53802,1332.3718)" x="554.3641" y="-386.9795">
     <tspan x="554.3641" y="-386.9795">MSI</tspan>
    </text>
<path d="m529.2253,-432.7306c0,2.8984-2.4733,5.2481-5.5243,5.2481-3.051,0-5.5243,-2.3496-5.5243,-5.2481 0,-2.8984 2.4733,-5.2481 5.5243,-5.2481 3.051,0 5.5243,2.3496 5.5243,5.2481z" fill="none" stroke="#000" stroke-linecap="round" stroke-linejoin="round" transform="matrix(1.35046,0,-.85326,1.6578,-877.77942,1641.69582)"/>
<path d="m446.8915,78.4154a61.5183,5.3033 0 1 1 -123.0366,0 61.5183,5.3033 0 1 1 123.0366,0z" stroke="#000" stroke-linecap="round" stroke-width="4.862" transform="matrix(.90469,0,0,.90469,63.48495,868.71154)"/>
<path d="m460.7635,861.0469 0,43.3243c0,18.1002-14.5716,32.6718-32.6718,32.6718l-32.0569,0c-18.1002,0-32.6718,-14.5716-32.6718,-32.6718l0,-43.3243" fill="#fff" stroke="#000" stroke-linecap="round" stroke-linejoin="round" stroke-width="3.2951"/>
<path d="M389.6426,878.9702H410.9336A.7059,.7059 0 0 1 411.6395,879.6761V888.7466A.7059,.7059 0 0 1 410.9336,889.4526H389.6426A.7059,.7059 0 0 1 388.9366,888.7466V879.6761A.7059,.7059 0 0 1 389.6426,878.9702z" stroke="#000" stroke-linecap="square" stroke-linejoin="round" stroke-width="3.3779"/>
<path d="M427.0886,878.9702H445.556A2.1178,2.1178 0 0 1 447.6737,881.088V887.3348A2.1178,2.1178 0 0 1 445.556,889.4526H427.0886A2.1178,2.1178 0 0 1 424.9709,887.3348V881.088A2.1178,2.1178 0 0 1 427.0886,878.9702z" stroke="#000" stroke-linecap="square" stroke-linejoin="round" stroke-width="3.3779"/>
<path d="m365.4513,883.543c.4969,.009 .9939,.006 1.4908,.004 .3284,-.002 .6567,-.004 .9851,-.004 .2646,-3.9e-4 .5292,-3.7e-4 .7939,-3.7e-4 .275,-5.7e-4 .5501,5.5e-4 .8252,9.1e-4 .3534,-.009 .7013,-3.4e-4 1.0512,.0459 .3615,.0493 .7266,.0649 1.0913,.0748 .3666,-.0143 .7264,.0533 1.0893,.0896 .369,.0333 .74,.0368 1.1104,.0407 .3891,.002 .7783,.002 1.1675,5.9e-4 .338,-6.9e-4 .676,-9.1e-4 1.014,-.002 .2778,-7e-4 .5555,-8.9e-4 .8333,-9.1e-4 .2637,-7e-5 .5274,-6e-5 .7911,-5e-5 .2638,10e-6 .5275,10e-6 .7913,10e-6 .2883,-3.5e-4 .5766,4.8e-4 .8649,.002 .3567,.002 .7134,4e-4 1.0701,-5.7e-4 .3356,-2.5e-4 .6711,4.2e-4 1.0066,9e-4 .3589,-1.5e-4 .7178,-7e-5 1.0767,-9e-4 .3438,1.7e-4 .6875,6.7e-4 1.0313,1.4e-4 .3127,-9e-4 .6253,-.002 .9379,2.3e-4 .4824,.003 .9647,.004 1.4471,.005 .6574,.003 1.3148,.003 1.9722,9e-4 .4824,-9e-4 .9648,-.005 1.4472,-.005 .3992,5.9e-4 .7985,-2e-5 1.1977,-.002 .0553,-1.8e-4 .1105,-3.6e-4 .1658,-5.4e-4l-1.5796,1.085c-.0547,-1.9e-4-.1095,-3.7e-4-.1642,-5.5e-4-.3979,-.002-.7958,-.002-1.1938,-.002-.4776,-2e-4-.9553,-.004-1.4329,-.005-.6582,-.002-1.3165,-.002-1.9748,8.9e-4-.4877,.002-.9754,.003-1.4631,.005-.3129,.002-.6257,.002-.9386,2.4e-4-.3439,-5.2e-4-.6878,-3e-5-1.0317,1.3e-4-.358,-8.9e-4-.7159,-8e-4-1.0739,-9e-4-.3368,9e-4-.6737,.002-1.0106,.002-.3561,-9.1e-4-.7123,-.003-1.0684,-5.7e-4-.29,9e-4-.58,.002-.87,.002-.2637,0-.5275,0-.7913,0-.2636,0-.5273,2e-5-.791,-6e-5-.2768,-1.1e-4-.5537,-3.1e-4-.8305,-8.7e-4-.3366,-6.2e-4-.6731,-7.6e-4-1.0097,-7.9e-4-.3892,-7.5e-4-.7783,6.3e-4-1.1675,-.004-.3752,-.005-.7511,-.0131-1.1243,-.0538-.359,-.0403-.7166,-.0879-1.0794,-.0786-.3689,-.0137-.7372,-.0393-1.1031,-.0876-.3456,-.0366-.6924,-.0264-1.0397,-.0252-.2761,5e-4-.5521,.002-.8282,9e-4-.2643,10e-6-.5285,3e-5-.7928,-3.6e-4-.3246,-6.1e-4-.6493,-.002-.9739,-.004-.5005,-.003-1.0011,-.005-1.5015,.004l1.5827,-1.0871z" stroke="#000" stroke-linecap="square" stroke-linejoin="round" stroke-width=".4312"/>
<path d="m448.2259,883.7933c.6368,.0107 1.2737,.009 1.9106,.009 .5837,-8e-4 1.1675,-.003 1.7512,-.005 .3901,-.002 .7802,-.002 1.1703,-.003 .3074,-7.3e-4 .6148,-.002 .9222,-.002 .2685,.0196 .5266,-.052 .7905,-.0865 .2647,-.0308 .5316,-.0353 .798,-.0385 .2643,-.002 .5286,-9e-4 .7929,-7.6e-4 .264,3.7e-4 .528,4.8e-4 .7919,5.6e-4 .264,4e-5 .528,4e-5 .7919,4e-5 .264,0 .528,0 .792,0 .2834,-5.5e-4 .5668,9.1e-4 .8503,9.1e-4 .287,-2.3e-4 .574,-6.3e-4 .861,-8.5e-4 .2658,-1.6e-4 .5316,-1.8e-4 .7975,-1.9e-4 .1758,0 .0879,0 .2637,0l-1.584,1.0881c-.1758,0-.0879,0-.2637,0-.2656,-2e-5-.5313,-4e-5-.7969,-2e-4-.2862,-2.1e-4-.5724,-6.2e-4-.8586,-8.4e-4-.2844,3e-5-.5688,.002-.8532,9e-4-.264,10e-6-.528,10e-6-.792,10e-6-.264,-10e-6-.528,-10e-6-.792,-1.1e-4-.264,-1.1e-4-.528,-3.3e-4-.792,-6.5e-4-.2635,-2.1e-4-.5271,-9e-4-.7906,.004-.2617,.006-.5239,.0176-.7828,.0575-.2678,.041-.5343,.0821-.8071,.0638-.3055,-3.9e-4-.6111,-9e-4-.9166,-.002-.3874,-4.9e-4-.7749,-5.7e-4-1.1623,-.003-.5788,-.003-1.1577,-.005-1.7365,-.005-.6454,-4.4e-4-1.2909,-.002-1.9362,.009l1.5805,-1.0857z" stroke="#000" stroke-linecap="square" stroke-linejoin="round" stroke-width=".4312"/>
<path d="m411.7733,883.941c.483,.0612 .9704,.0804 1.457,.0949 .4343,.0105 .8688,.0105 1.3032,.009 .3586,-4.6e-4 .7173,-5.7e-4 1.0759,-.002 .7199,.0185 1.4403,.009 2.1604,.006 .4351,-.004 .8702,-.005 1.3053,-.006 .347,2e-5 .6939,-3.8e-4 1.0409,5.4e-4 .3648,9e-4 .7295,-8.6e-4 1.0943,-2.8e-4 .3291,-7.8e-4 .6583,-6.9e-4 .9874,-6e-4 .3296,5.1e-4 .6593,2e-4 .989,-4.6e-4 .3149,9e-4 .6298,10e-5 .9446,-4.1e-4 .3081,9.1e-4 .6162,4.1e-4 .9243,-3e-5 .2721,-3.9e-4 .5443,-5.1e-4 .8164,-5.7e-4 .2276,.0529 .4566,.091 .6901,.1094 .2532,.0156 .5071,.0156 .7608,.0163 .2639,1.7e-4 .5277,-3.6e-4 .7916,-6.2e-4 .1321,-1.2e-4 .2642,-1.8e-4 .3963,-2.3e-4l-1.584,1.0881c-.1321,9e-5-.2641,1.7e-4-.3962,3.1e-4-.2642,2.9e-4-.5284,9.1e-4-.7926,-3.5e-4-.258,-.002-.5165,-.005-.7734,-.03-.2267,-.0266-.4487,-.0811-.6765,-.0949-.2716,-7e-5-.5432,-1.8e-4-.8147,-5.7e-4-.3081,-4.4e-4-.6161,-9.1e-4-.9242,-5e-5-.3145,-4.9e-4-.629,-.002-.9435,-4e-4-.3292,-6.6e-4-.6584,-9e-4-.9876,-4.6e-4-.3286,10e-5-.6571,1.8e-4-.9857,-5.9e-4-.3645,5.8e-4-.729,-.002-1.0935,-2.8e-4-.3475,9e-4-.695,5.2e-4-1.0425,5.4e-4-.429,-.002-.8579,-.003-1.2869,-.006-.7262,-.004-1.4527,-.0119-2.1788,.006-.358,-3.9e-4-.7161,4.2e-4-1.0741,-3.3e-4-.4329,-.003-.8658,-.006-1.2985,-.0204-.4955,-.0192-.9904,-.0487-1.4837,-.0968l1.5988,-1.0698z" stroke="#000" stroke-linecap="square" stroke-linejoin="round" stroke-width=".4312"/>
<path d="m376.9386,849.7316 0,16.7759" fill="none" stroke="#000" stroke-linecap="round" stroke-width="4.3467"/>
<path d="m385.5549,848.1445 0,16.7759" fill="none" stroke="#000" stroke-linecap="round" stroke-width="4.3467"/>
<path d="m393.64,849.4692 0,16.7759" fill="none" stroke="#000" stroke-linecap="round" stroke-width="4.3467"/>
<path d="m404.2039,848.4132 0,16.7759" fill="none" stroke="#000" stroke-linecap="round" stroke-width="4.3467"/>
<path d="m413.3943,850.3914 0,16.7759" fill="none" stroke="#000" stroke-linecap="round" stroke-width="4.3467"/>
<path d="m423.9152,850.2328 0,16.7759" fill="none" stroke="#000" stroke-linecap="round" stroke-width="4.3467"/>
<path d="m433.4168,848.6819 0,16.7759" fill="none" stroke="#000" stroke-linecap="round" stroke-width="4.3467"/>
<path d="m442.3872,851.4294 0,16.7759" fill="none" stroke="#000" stroke-linecap="round" stroke-width="4.3467"/>
<path d="m452.043,851.0959 0,16.7759" fill="none" stroke="#000" stroke-linecap="round" stroke-width="4.3467"/>
<path d="m391.042,912.7361c-1.888,7.6809 19.8941,4.186 24.5379,4.0062" fill="none" stroke="#000" stroke-width=".7011"/>
<path d="m369.8058,854.011 0,16.7759" fill="none" stroke="#000" stroke-linecap="round" stroke-width="4.3467"/>
<g transform="matrix(.66081,0,0,.66081,411.80602,385.67041)">
<path d="M-1450.6932,1649.7776H-1278.2792A18.0569,18.0569 0 0 1 -1260.2222,1667.8345V1698.2565A18.0569,18.0569 0 0 1 -1278.2792,1716.3135H-1450.6932A18.0569,18.0569 0 0 1 -1468.7501,1698.2565V1667.8345A18.0569,18.0569 0 0 1 -1450.6932,1649.7776z" stroke="#000" stroke-linecap="round" stroke-linejoin="round" stroke-width="2.7184" transform="matrix(1,0,.84988,.52697,0,0)"/>
<path d="M6.0718,846.5267H13.6936A5.7163,5.7163 0 0 1 19.4099,852.243V894.1625A5.7163,5.7163 0 0 1 13.6936,899.8788H6.0718A5.7163,5.7163 0 0 1 .3555,894.1625V852.243A5.7163,5.7163 0 0 1 6.0718,846.5267z" fill="#fff" stroke="#000" stroke-linecap="round" stroke-linejoin="round" stroke-width="5.0248"/>
<path d="M151.2658,846.5267H158.8875A5.7163,5.7163 0 0 1 164.6038,852.243V894.1625A5.7163,5.7163 0 0 1 158.8875,899.8788H151.2658A5.7163,5.7163 0 0 1 145.5495,894.1625V852.243A5.7163,5.7163 0 0 1 151.2658,846.5267z" fill="#fff" stroke="#000" stroke-linecap="round" stroke-linejoin="round" stroke-width="5.0248"/>
<path d="M119.2545,829.7589H126.8762A5.7163,5.7163 0 0 1 132.5925,835.4751V877.3947A5.7163,5.7163 0 0 1 126.8762,883.111H119.2545A5.7163,5.7163 0 0 1 113.5382,877.3947V835.4751A5.7163,5.7163 0 0 1 119.2545,829.7589z" fill="#fff" stroke="#000" stroke-linecap="round" stroke-linejoin="round" stroke-width="5.0248"/>
<path d="M-29.3693,825.1858H-21.7476A5.7163,5.7163 0 0 1 -16.0313,830.9021V872.8217A5.7163,5.7163 0 0 1 -21.7476,878.538H-29.3693A5.7163,5.7163 0 0 1 -35.0856,872.8217V830.9021A5.7163,5.7163 0 0 1 -29.3693,825.1858z" fill="#fff" stroke="#000" stroke-linecap="round" stroke-linejoin="round" stroke-width="5.0248"/>
<path d="M-1363.5918,1549.9816H-1191.1778A18.0569,18.0569 0 0 1 -1173.1208,1568.0385V1598.4605A18.0569,18.0569 0 0 1 -1191.1778,1616.5175H-1363.5918A18.0569,18.0569 0 0 1 -1381.6487,1598.4605V1568.0385A18.0569,18.0569 0 0 1 -1363.5918,1549.9816z" fill="#fff" stroke="#000" stroke-linecap="round" stroke-linejoin="round" stroke-width="2.7184" transform="matrix(1,0,.84988,.52697,0,0)"/>
<path d="M-1355.7497,1539.8573H-1183.3357A18.0569,18.0569 0 0 1 -1165.2787,1557.9142V1588.3362A18.0569,18.0569 0 0 1 -1183.3357,1606.3932H-1355.7497A18.0569,18.0569 0 0 1 -1373.8066,1588.3362V1557.9142A18.0569,18.0569 0 0 1 -1355.7497,1539.8573z" fill="#fff" stroke="#000" stroke-linecap="round" stroke-linejoin="round" stroke-width="2.7184" transform="matrix(1,0,.84988,.52697,0,0)"/>
</g>
<path d="M1761.4982,-1182.2065H1812.4091A9.4409,9.4409 0 0 1 1821.85,-1172.7656V-1148.9294A9.4409,9.4409 0 0 1 1812.4091,-1139.4885H1761.4982A9.4409,9.4409 0 0 1 1752.0573,-1148.9294V-1172.7656A9.4409,9.4409 0 0 1 1761.4982,-1182.2065z" fill="#fff" stroke="#000" stroke-linecap="round" stroke-linejoin="round" stroke-width="3.8211" transform="matrix(.852,0,.77958,.42199,-165.47146,1422.72452)"/>
<path d="M1769.5676,-1190.4218H1820.4785A9.4409,9.4409 0 0 1 1829.9194,-1180.9809V-1157.1447A9.4409,9.4409 0 0 1 1820.4785,-1147.7038H1769.5676A9.4409,9.4409 0 0 1 1760.1267,-1157.1447V-1180.9809A9.4409,9.4409 0 0 1 1769.5676,-1190.4218z" fill="#fff" stroke="#000" stroke-linecap="round" stroke-linejoin="round" stroke-width="3.8211" transform="matrix(.852,0,.77958,.42199,-165.47146,1422.72452)"/>
<path d="M469.2149,-567.1227H518.5548A9.8568,9.8568 0 0 1 528.4115,-557.266V-532.3799A9.8568,9.8568 0 0 1 518.5548,-522.5231H469.2149A9.8568,9.8568 0 0 1 459.3581,-532.3799V-557.266A9.8568,9.8568 0 0 1 469.2149,-567.1227z" fill="#fff" stroke="#000" stroke-linecap="round" stroke-linejoin="round" stroke-width="3.8836" transform="matrix(.852,0,-.40558,.9198,-165.47146,1422.72452)"/>
<text font-family="Bitstream Vera Sans" font-size="7.583" transform="matrix(.852,0,-.49236,1.0459,-193.24099,1330.8566)" x="554.3641" y="-386.9795">
    <tspan x="554.3641" y="-386.9795">MSI</tspan>
   </text>
<path d="m529.2253,-432.7306c0,2.8984-2.4733,5.2481-5.5243,5.2481-3.051,0-5.5243,-2.3496-5.5243,-5.2481 0,-2.8984 2.4733,-5.2481 5.5243,-5.2481 3.051,0 5.5243,2.3496 5.5243,5.2481z" fill="none" stroke="#000" stroke-linecap="round" stroke-linejoin="round" transform="matrix(1.35046,0,-.85326,1.6578,-599.48239,1640.18062)"/>
<path d="m446.8915,78.4154c0,2.9289-27.5427,5.3033-61.5183,5.3033-33.9756,0-61.5183,-2.3744-61.5183,-5.3033 0,-2.9289 27.5427,-5.3033 61.5183,-5.3033 33.9756,0 61.5183,2.3744 61.5183,5.3033z" stroke="#000" stroke-linecap="round" stroke-width="4.862" transform="matrix(.90469,0,0,.90469,338.24644,872.75217)"/>
<g transform="matrix(.90469,0,0,.90469,774.90596,603.80741)">
<path d="m-43.5297,288.8057 0,47.8884c0,20.007-16.1067,36.1137-36.1137,36.1137l-35.434,0c-20.007,0-36.1137,-16.1067-36.1137,-36.1137l0,-47.8884" fill="#fff" stroke="#000" stroke-linecap="round" stroke-linejoin="round" stroke-width="3.6422"/>
<path d="M-122.1431,308.6171H-98.6091A.7803,.7803 0 0 1 -97.8288,309.3974V319.4235A.7803,.7803 0 0 1 -98.6091,320.2038H-122.1431A.7803,.7803 0 0 1 -122.9234,319.4235V309.3974A.7803,.7803 0 0 1 -122.1431,308.6171z" stroke="#000" stroke-linecap="square" stroke-linejoin="round" stroke-width="3.7338"/>
<path d="M-80.7522,308.6171H-60.3393A2.3409,2.3409 0 0 1 -57.9985,310.958V317.8629A2.3409,2.3409 0 0 1 -60.3393,320.2038H-80.7522A2.3409,2.3409 0 0 1 -83.093,317.8629V310.958A2.3409,2.3409 0 0 1 -80.7522,308.6171z" stroke="#000" stroke-linecap="square" stroke-linejoin="round" stroke-width="3.7338"/>
<path d="m-148.8829,313.6717c.5492,.0105 1.0986,.007 1.6478,.004 .363,-.002 .7259,-.004 1.0889,-.004 .2925,-4.3e-4 .585,-4e-4 .8775,-4e-4 .304,-6.3e-4 .6081,6e-4 .9121,10e-4 .3906,-.01 .7752,-3.7e-4 1.162,.0507 .3996,.0545 .8031,.0717 1.2062,.0827 .4052,-.0158 .8029,.0589 1.204,.099 .4079,.0368 .818,.0407 1.2274,.045 .4301,.002 .8603,.002 1.2904,6.5e-4 .3736,-7.6e-4 .7472,-10e-4 1.1208,-.002 .307,-7.7e-4 .6141,-9.8e-4 .9211,-10e-4 .2915,-8e-5 .583,-7e-5 .8745,-6e-5 .2915,1e-5 .5831,1e-5 .8746,1e-5 .3187,-3.9e-4 .6374,5.3e-4 .9561,.002 .3943,.002 .7885,4.4e-4 1.1828,-6.3e-4 .3709,-2.7e-4 .7418,4.7e-4 1.1126,10e-4 .3967,-1.7e-4 .7934,-8e-5 1.1902,-10e-4 .38,1.9e-4 .7599,7.4e-4 1.1399,1.6e-4 .3456,-.001 .6912,-.002 1.0367,2.5e-4 .5332,.003 1.0664,.004 1.5996,.006 .7266,.003 1.4533,.003 2.1799,.001 .5332,-.001 1.0664,-.005 1.5997,-.005 .4413,6.5e-4 .8826,-2e-5 1.3239,-.002 .0611,-2e-4 .1222,-4e-4 .1833,-6e-4l-1.746,1.1993c-.0605,-2.1e-4-.121,-4.1e-4-.1815,-6.1e-4-.4399,-.002-.8797,-.002-1.3196,-.002-.528,-2.2e-4-1.0559,-.004-1.5839,-.005-.7276,-.002-1.4552,-.002-2.1828,9.9e-4-.5391,.002-1.0782,.003-1.6173,.006-.3458,.002-.6916,.002-1.0375,2.6e-4-.3801,-5.7e-4-.7602,-3e-5-1.1404,1.5e-4-.3957,-9.9e-4-.7914,-8.9e-4-1.187,-.001-.3723,.001-.7447,.002-1.117,.002-.3937,-10e-4-.7873,-.003-1.181,-6.3e-4-.3206,.001-.6411,.002-.9617,.002-.2915,0-.5831,0-.8747,0-.2914,0-.5829,2e-5-.8743,-6e-5-.306,-1.3e-4-.612,-3.5e-4-.918,-9.6e-4-.372,-6.9e-4-.744,-8.4e-4-1.1161,-8.8e-4-.4302,-8.3e-4-.8603,7e-4-1.2904,-.004-.4148,-.006-.8303,-.0145-1.2428,-.0595-.3968,-.0446-.792,-.0972-1.193,-.0869-.4078,-.0152-.8149,-.0435-1.2193,-.0968-.382,-.0404-.7654,-.0292-1.1493,-.0278-.3051,5.6e-4-.6103,.002-.9155,.001-.2921,10e-6-.5842,3e-5-.8763,-4e-4-.3589,-6.7e-4-.7177,-.002-1.0765,-.004-.5532,-.003-1.1065,-.006-1.6597,.004l1.7494,-1.2016z" stroke="#000" stroke-linecap="square" stroke-linejoin="round" stroke-width=".4767"/>
<path d="m-57.3881,313.9484c.7039,.0118 1.4079,.0102 2.1119,.01 .6452,-8.9e-4 1.2905,-.003 1.9357,-.006 .4312,-.002 .8624,-.002 1.2935,-.003 .3398,-8.1e-4 .6796,-.002 1.0194,-.002 .2968,.0217 .5821,-.0575 .8738,-.0956 .2926,-.0341 .5877,-.039 .8821,-.0425 .2922,-.002 .5843,-10e-4 .8765,-8.4e-4 .2918,4e-4 .5836,5.3e-4 .8754,6.1e-4 .2918,5e-5 .5836,5e-5 .8754,5e-5 .2918,0 .5836,0 .8754,0 .3133,-6.1e-4 .6266,10e-4 .9398,10e-4 .3172,-2.5e-4 .6345,-6.9e-4 .9517,-9.3e-4 .2938,-1.8e-4 .5877,-2e-4 .8815,-2.1e-4 .1943,-1e-5 .0972,-1e-5 .2915,-1e-5l-1.7509,1.2027c-.1943,0-.0971,0-.2914,0-.2936,-2e-5-.5872,-4e-5-.8808,-2.2e-4-.3164,-2.3e-4-.6327,-6.8e-4-.9491,-9.3e-4-.3144,4e-5-.6287,.002-.9431,10e-4-.2918,1e-5-.5836,1e-5-.8754,1e-5-.2918,-1e-5-.5836,-1e-5-.8754,-1.2e-4-.2918,-1.3e-4-.5837,-3.7e-4-.8755,-7.2e-4-.2913,-2.3e-4-.5826,-10e-4-.8738,.004-.2893,.007-.5791,.0195-.8653,.0636-.2961,.0453-.5905,.0907-.8921,.0705-.3377,-4.3e-4-.6755,-10e-4-1.0132,-.002-.4283,-5.4e-4-.8565,-6.3e-4-1.2848,-.003-.6398,-.003-1.2796,-.005-1.9195,-.006-.7134,-4.8e-4-1.4269,-.002-2.1402,.01l1.747,-1.2z" stroke="#000" stroke-linecap="square" stroke-linejoin="round" stroke-width=".4767"/>
<path d="m-97.681,314.1116c.5339,.0676 1.0726,.0889 1.6105,.1048 .4801,.0116 .9604,.0116 1.4405,.0103 .3964,-5e-4 .7929,-6.3e-4 1.1893,-.002 .7958,.0205 1.592,.0104 2.3879,.007 .4809,-.004 .9619,-.005 1.4428,-.007 .3835,3e-5 .767,-4.2e-4 1.1506,6e-4 .4032,.001 .8064,-9.5e-4 1.2096,-3.1e-4 .3638,-8.6e-4 .7277,-7.6e-4 1.0915,-6.6e-4 .3644,5.6e-4 .7288,2.2e-4 1.0931,-5.1e-4 .3481,.001 .6961,1.1e-4 1.0442,-4.5e-4 .3406,.001 .6811,4.5e-4 1.0217,-4e-5 .3008,-4.3e-4 .6016,-5.6e-4 .9024,-6.3e-4 .2516,.0585 .5047,.1006 .7628,.1209 .2799,.0172 .5606,.0173 .8409,.018 .2917,1.9e-4 .5833,-3.9e-4 .875,-6.8e-4 .146,-1.4e-4 .292,-2e-4 .4381,-2.6e-4l-1.7508,1.2027c-.146,10e-5-.292,1.9e-4-.438,3.5e-4-.292,3.2e-4-.584,.001-.876,-3.9e-4-.2852,-.002-.5709,-.005-.8549,-.0331-.2506,-.0294-.496,-.0897-.7478,-.105-.3002,-8e-5-.6004,-2e-4-.9006,-6.3e-4-.3405,-4.8e-4-.681,-.001-1.0215,-5e-5-.3476,-5.5e-4-.6953,-.002-1.0429,-4.4e-4-.3639,-7.3e-4-.7278,-10e-4-1.0916,-5.1e-4-.3632,1.1e-4-.7264,1.9e-4-1.0895,-6.6e-4-.4029,6.4e-4-.8058,-.002-1.2087,-3.1e-4-.3841,.001-.7682,5.8e-4-1.1523,6e-4-.4742,-.002-.9483,-.003-1.4224,-.007-.8027,-.004-1.6058,-.0132-2.4083,.007-.3958,-4.3e-4-.7915,4.6e-4-1.1873,-3.6e-4-.4785,-.003-.957,-.007-1.4353,-.0226-.5477,-.0212-1.0947,-.0538-1.64,-.107l1.7673,-1.1825z" stroke="#000" stroke-linecap="square" stroke-linejoin="round" stroke-width=".4767"/>
<path d="m-136.1855,276.2983 0,18.5432" fill="none" stroke="#000" stroke-linecap="round" stroke-width="4.8046"/>
<path d="m-126.6615,274.544 0,18.5432" fill="none" stroke="#000" stroke-linecap="round" stroke-width="4.8046"/>
<path d="m-117.7245,276.0083 0,18.5432" fill="none" stroke="#000" stroke-linecap="round" stroke-width="4.8046"/>
<path d="m-106.0478,274.841 0,18.5432" fill="none" stroke="#000" stroke-linecap="round" stroke-width="4.8046"/>
<path d="m-95.8892,277.0276 0,18.5432" fill="none" stroke="#000" stroke-linecap="round" stroke-width="4.8046"/>
<path d="m-84.2599,276.8522 0,18.5432" fill="none" stroke="#000" stroke-linecap="round" stroke-width="4.8046"/>
<path d="m-73.7574,275.1381 0,18.5432" fill="none" stroke="#000" stroke-linecap="round" stroke-width="4.8046"/>
<path d="m-63.8419,278.175 0,18.5432" fill="none" stroke="#000" stroke-linecap="round" stroke-width="4.8046"/>
<path d="m-53.169,277.8063 0,18.5432" fill="none" stroke="#000" stroke-linecap="round" stroke-width="4.8046"/>
<path d="m-105.8017,352.8807 27.1229,-4.4282" fill="none" stroke="#000" stroke-width=".7749"/>
<path d="m-144.0697,281.0285 0,18.5432" fill="none" stroke="#000" stroke-linecap="round" stroke-width="4.8046"/>
</g>
<g transform="matrix(.66081,0,0,.66081,686.56751,389.71102)">
<path d="M-1450.6932,1649.7776H-1278.2792A18.0569,18.0569 0 0 1 -1260.2222,1667.8345V1698.2565A18.0569,18.0569 0 0 1 -1278.2792,1716.3135H-1450.6932A18.0569,18.0569 0 0 1 -1468.7501,1698.2565V1667.8345A18.0569,18.0569 0 0 1 -1450.6932,1649.7776z" stroke="#000" stroke-linecap="round" stroke-linejoin="round" stroke-width="2.7184" transform="matrix(1,0,.84988,.52697,0,0)"/>
<path d="M6.0718,846.5267H13.6936A5.7163,5.7163 0 0 1 19.4099,852.243V894.1625A5.7163,5.7163 0 0 1 13.6936,899.8788H6.0718A5.7163,5.7163 0 0 1 .3555,894.1625V852.243A5.7163,5.7163 0 0 1 6.0718,846.5267z" fill="#fff" stroke="#000" stroke-linecap="round" stroke-linejoin="round" stroke-width="5.0248"/>
<path d="M151.2658,846.5267H158.8875A5.7163,5.7163 0 0 1 164.6038,852.243V894.1625A5.7163,5.7163 0 0 1 158.8875,899.8788H151.2658A5.7163,5.7163 0 0 1 145.5495,894.1625V852.243A5.7163,5.7163 0 0 1 151.2658,846.5267z" fill="#fff" stroke="#000" stroke-linecap="round" stroke-linejoin="round" stroke-width="5.0248"/>
<path d="M119.2545,829.7589H126.8762A5.7163,5.7163 0 0 1 132.5925,835.4751V877.3947A5.7163,5.7163 0 0 1 126.8762,883.111H119.2545A5.7163,5.7163 0 0 1 113.5382,877.3947V835.4751A5.7163,5.7163 0 0 1 119.2545,829.7589z" fill="#fff" stroke="#000" stroke-linecap="round" stroke-linejoin="round" stroke-width="5.0248"/>
<path d="M-29.3693,825.1858H-21.7476A5.7163,5.7163 0 0 1 -16.0313,830.9021V872.8217A5.7163,5.7163 0 0 1 -21.7476,878.538H-29.3693A5.7163,5.7163 0 0 1 -35.0856,872.8217V830.9021A5.7163,5.7163 0 0 1 -29.3693,825.1858z" fill="#fff" stroke="#000" stroke-linecap="round" stroke-linejoin="round" stroke-width="5.0248"/>
<path d="M-1363.5918,1549.9816H-1191.1778A18.0569,18.0569 0 0 1 -1173.1208,1568.0385V1598.4605A18.0569,18.0569 0 0 1 -1191.1778,1616.5175H-1363.5918A18.0569,18.0569 0 0 1 -1381.6487,1598.4605V1568.0385A18.0569,18.0569 0 0 1 -1363.5918,1549.9816z" fill="#fff" stroke="#000" stroke-linecap="round" stroke-linejoin="round" stroke-width="2.7184" transform="matrix(1,0,.84988,.52697,0,0)"/>
<path d="M-1355.7497,1539.8573H-1183.3357A18.0569,18.0569 0 0 1 -1165.2787,1557.9142V1588.3362A18.0569,18.0569 0 0 1 -1183.3357,1606.3932H-1355.7497A18.0569,18.0569 0 0 1 -1373.8066,1588.3362V1557.9142A18.0569,18.0569 0 0 1 -1355.7497,1539.8573z" fill="#fff" stroke="#000" stroke-linecap="round" stroke-linejoin="round" stroke-width="2.7184" transform="matrix(1,0,.84988,.52697,0,0)"/>
</g>
<path d="M1761.4982,-1182.2065H1812.4091A9.4409,9.4409 0 0 1 1821.85,-1172.7656V-1148.9294A9.4409,9.4409 0 0 1 1812.4091,-1139.4885H1761.4982A9.4409,9.4409 0 0 1 1752.0573,-1148.9294V-1172.7656A9.4409,9.4409 0 0 1 1761.4982,-1182.2065z" fill="#fff" stroke="#000" stroke-linecap="round" stroke-linejoin="round" stroke-width="3.8211" transform="matrix(.852,0,.77958,.42199,109.29003,1426.7651)"/>
<path d="M1769.5676,-1190.4218H1820.4785A9.4409,9.4409 0 0 1 1829.9194,-1180.9809V-1157.1447A9.4409,9.4409 0 0 1 1820.4785,-1147.7038H1769.5676A9.4409,9.4409 0 0 1 1760.1267,-1157.1447V-1180.9809A9.4409,9.4409 0 0 1 1769.5676,-1190.4218z" fill="#fff" stroke="#000" stroke-linecap="round" stroke-linejoin="round" stroke-width="3.8211" transform="matrix(.852,0,.77958,.42199,109.29003,1426.7651)"/>
<path d="M469.2149,-567.1227H518.5548A9.8568,9.8568 0 0 1 528.4115,-557.266V-532.3799A9.8568,9.8568 0 0 1 518.5548,-522.5231H469.2149A9.8568,9.8568 0 0 1 459.3581,-532.3799V-557.266A9.8568,9.8568 0 0 1 469.2149,-567.1227z" fill="#fff" stroke="#000" stroke-linecap="round" stroke-linejoin="round" stroke-width="3.8836" transform="matrix(.852,0,-.40558,.9198,109.29003,1426.7651)"/>
<text font-family="Bitstream Vera Sans" font-size="7.583" transform="matrix(.852,0,-.49236,1.0459,81.5205,1334.89718)" x="554.3641" y="-386.9795">
     <tspan x="554.3641" y="-386.9795">MSI</tspan>
    </text>
<path d="m529.2253,-432.7306c0,2.8984-2.4733,5.2481-5.5243,5.2481-3.051,0-5.5243,-2.3496-5.5243,-5.2481 0,-2.8984 2.4733,-5.2481 5.5243,-5.2481 3.051,0 5.5243,2.3496 5.5243,5.2481z" fill="none" stroke="#000" stroke-linecap="round" stroke-linejoin="round" transform="matrix(1.35046,0,-.85326,1.6578,-324.7209,1644.2212)"/>
<text font-family="Sans" font-size="20" letter-spacing="0" line-height="562.5" word-spacing="0" x="311.127" y="730.1235">
   <tspan x="311.127" y="730.1235">*sauvegarde rapide*</tspan>
  </text>
<text font-family="Sans" font-size="20" letter-spacing="0" line-height="562.5" word-spacing="0" x="451.5382" y="779.621">
   <tspan x="451.5382" y="779.621">BOOM !</tspan>
  </text>
<text font-family="Sans" font-size="20" letter-spacing="0" line-height="562.5" word-spacing="0" x="438.4062" y="820.0271">
   <tspan font-style="italic" x="438.4062" y="820.0271">Aaaaargh...</tspan>
  </text>
<text font-family="Sans" font-size="20" letter-spacing="0" line-height="562.5" word-spacing="0" x="603.3568" y="735.6411">
   <tspan x="603.3568" y="735.6411">*chargement rapide*</tspan>
  </text>
<text font-family="Sans" font-size="20" letter-spacing="0" line-height="562.5" word-spacing="0" x="744.5615" y="793.2198">
   <tspan font-style="italic" text-align="center" text-anchor="middle" x="744.5615" y="793.2198">Merci, je n'oublierai</tspan>
   <tspan font-style="italic" text-align="center" text-anchor="middle" x="744.5615" y="818.2198">jamais votre aide !</tspan>
  </text>
<path d="m489.924,289.3857 4.0406,-56.5686" fill="none" stroke="#000" transform="translate(0,602.3622)"/>
<path d="m439.4164,133.8222 25.2538,21.2132" fill="none" stroke="#000" transform="translate(0,602.3622)"/>
<path d="m487.9037,184.3299 2.0203,16.1624" fill="none" stroke="#000" transform="translate(0,602.3622)"/>
<path d="m729.3301,141.9035 13.132,28.2843" fill="none" stroke="#000" transform="translate(0,602.3622)"/>
<path d="m760.6449,224.736-3.0305,68.6904" fill="none" stroke="#000" transform="translate(0,602.3622)"/>
<text font-family="Sans" font-size="20" letter-spacing="0" line-height="562.5" word-spacing="0" x="125.6346" y="728.1032">
   <tspan text-align="center" text-anchor="middle" x="125.6346" y="728.1032">Bon il veut quoi</tspan>
   <tspan text-align="center" text-anchor="middle" x="125.6346" y="753.1032">ce personnage ?</tspan>
  </text>
<path d="m107.0762,163.1167 10.1015,72.731" fill="none" stroke="#000" transform="translate(0,602.3622)"/>
<text font-family="Sans" font-size="20" letter-spacing="0" line-height="562.5" word-spacing="0" x="141.4214" y="800.8342">
   <tspan font-style="italic" x="141.4214" y="800.8342">Non pitié, ne</tspan>
   <tspan font-style="italic" x="141.4214" y="825.8342">me tuez pas !</tspan>
  </text>
<path d="m220.2133,839.22-5.0508,49.4975" fill="none" stroke="#000"/>
</g>
</svg>
