<svg version="1.1" viewBox="0 0 900 450" xmlns="http://www.w3.org/2000/svg" xmlns:svg="http://www.w3.org/2000/svg">
<g transform="translate(0,-602.3622)">
<path d="M49.3639,689.4682H830.3658A31.621,31.621 0 0 1 861.9868,721.0892V969.4381A31.621,31.621 0 0 1 830.3658,1001.0591H49.3639A31.621,31.621 0 0 1 17.7428,969.4381V721.0892A31.621,31.621 0 0 1 49.3639,689.4682z" fill="#fff" stroke="#000" stroke-linecap="round" stroke-width="7.4907"/>
<path d="m147.4823,171.2106c0,4.4631-23.7437,8.0812-53.033,8.0812-29.2893,0-53.033,-3.6181-53.033,-8.0812 0,-4.4631 23.7437,-8.0812 53.033,-8.0812 29.2893,0 53.033,3.6181 53.033,8.0812z" stroke="#000" transform="matrix(-.68237,0,0,.68237,465.06578,825.79722)"/>
<path d="m364.3079,896.2839c3.4832,25.8612 16.2893,52.0306 37.9413,50.9829 18.7747,-.9084 36.3038,-24.1662 36.175,-51.1109-.1354,-28.3138-11.8174,-45.8561-35.5568,-45.8561-23.7394,0-38.5595,17.7564-38.5595,45.9842z" fill="#fff" stroke="#000" stroke-width="2.0853"/>
<path d="m391.7015,922.1958c-.5322,-.3548-8.1057,14.9745-1.1946,23.2435 2.1685,2.5945 6.1313,3.195 9.4904,3.583 3.4581,.3994 7.4066,.4882 10.3538,-1.3644 7.9126,-4.974 5.935,-21.4725 4.4742,-21.4725 .3359,.1679 1.014,14.017-6.0805,15.9927-9.8111,2.7323-2.3738,-4.3347-3.5033,-8.6926-.5223,-2.0151 1.2407,-4.7273 1.2407,-4.7273l-6.0669,-.8062c0,0 .9019,4.4 1.3692,6.314 1.1692,4.7889-.7344,11.7982-7.8708,7.3017-5.9635,-3.7575-2.2123,-19.3718-2.2123,-19.3718z" stroke="#000" stroke-dasharray="0.09399271, 0.09399271" stroke-width=".9399"/>
<path d="m363.3575,894.1237 8.4025,-23.3491c4.5991,-1.7491 8.099,-4.076 12.2604,-5.2336 18.8985,-5.257 33.4102,-4.4302 44.6891,2.3308 3.3289,1.9955 7.5385,15.7837 10.9178,17.6413 3.6843,-5.5104-4.6116,-32.1565-8.8899,-40.5012-2.1296,-4.1536 2.2661,9.7877-1.0155,8.5675-1.546,-.9287-4.0671,-12.0587-6.1064,-12.7165-2.3847,-.7692 .4736,8.5798-2.3333,8.629-1.6938,.0297-5.1043,-8.8815-7.0716,-8.9551-1.5754,-.059 .8659,8.4467-.7554,8.6058-1.9292,.1894-5.1468,-7.3232-7.3243,-7.3191-2.0424,.004 .3929,6.6113-1.7467,7.1332-1.1808,.288-5.0122,-5.6325-6.2924,-5.5006-1.3782,.1419-.0275,5.539-1.3159,5.8496-1.5639,.377-4.6128,-3.9999-6.0599,-3.9131-1.0638,.0638-2.21,3.065-3.1046,3.4156-3.0442,1.193-4.9976,.8632-6.6196,1.6249-9.9754,4.3405-13.2266,12.7196-16.5946,22.0233-2.4613,6.799-2.6615,12.5647-1.0395,21.6673z" stroke="#000" stroke-width="1.5578"/>
<path d="m414.399,921.0955c-2.9666,-2.846-15.1508,-4.8673-23.1054,-3.9754" fill="none" stroke="#000" stroke-width="1.1443"/>
<path d="M-439.1808,886.9296H-415.3302V899.4938H-439.1808z" fill="#fff" stroke="#000" stroke-width="1.7888" transform="scale(-1,1)"/>
<path d="m414.9672,892.7551c-3.4504,-1.9716-6.5064,-1.9716-9.1681,0" fill="none" stroke="#000" stroke-width=".8281"/>
<path d="m382.6536,893.3859-20.613,-7.1507" fill="none" stroke="#000" stroke-width=".8012"/>
<path d="M-406.0901,886.9384H-382.2395V899.5025H-406.0901z" fill="#fff" stroke="#000" stroke-width="1.7888" transform="scale(-1,1)"/>
<path d="m68.2143,83.6607c0,1.43-1.0793,2.5893-2.4107,2.5893-1.3314,0-2.4107,-1.1593-2.4107,-2.5893 0,-1.43 1.0793,-2.5893 2.4107,-2.5893 1.3314,0 2.4107,1.1593 2.4107,2.5893z" stroke="#000" stroke-width="1.8" transform="matrix(-.51538,0,0,.51538,433.79559,850.49227)"/>
<path d="m68.2143,83.6607c0,1.43-1.0793,2.5893-2.4107,2.5893-1.3314,0-2.4107,-1.1593-2.4107,-2.5893 0,-1.43 1.0793,-2.5893 2.4107,-2.5893 1.3314,0 2.4107,1.1593 2.4107,2.5893z" stroke="#000" stroke-width="1.8" transform="matrix(-.51538,0,0,.51538,466.48347,850.66158)"/>
<path d="M47.2536,656.8748H298.4175A15.6552,15.6552 0 0 1 314.0727,672.5299V672.5299A15.6552,15.6552 0 0 1 298.4175,688.1851H47.2536A15.6552,15.6552 0 0 1 31.5984,672.5299V672.5299A15.6552,15.6552 0 0 1 47.2536,656.8748z" fill="#fff" stroke="#000" stroke-linecap="round" stroke-linejoin="round" stroke-width="4.5094" transform="matrix(1,-.00315,.00315,1,0,0)"/>
<path d="m101.5203,44.9288c0,19.2473-16.5075,34.8503-36.8706,34.8503-20.3631,0-36.8706,-15.603-36.8706,-34.8503 0,-19.2473 16.5075,-34.8503 36.8706,-34.8503 20.3631,0 36.8706,15.603 36.8706,34.8503z" stroke="#000" stroke-linecap="round" stroke-linejoin="round" stroke-width="7.491" transform="matrix(1.24255,-.00391,.00217,.68917,-24.45432,633.92442)"/>
<text font-family="Bitstream Vera Sans" font-size="40" transform="matrix(1,-.00315,.00315,1,0,0)" x="16.9975" y="679.7158">
   <tspan fill="#f9f9f9" x="16.9975" y="679.7158">215</tspan>
  </text>
<text font-family="Bitstream Vera Sans" font-size="20" transform="matrix(1,-.00315,.00315,1,0,0)" x="161.8601" y="678.2599">
   <tspan x="161.8601" y="678.2599">Rame</tspan>
  </text>
<g transform="translate(-1.6537,-2.3449)">
<path d="m839.4465,1023.3074c.4393,.5102 1.0355,.5714 1.6702,.6073 .8029,-.022 1.6072,-.2138 2.3575,-.4993 .4009,-.1526 .6224,-.2825 .9965,-.4789-2.2387,1.3097-.9924,.6082-.5738,.1636 .2168,-.2303 .3463,-.473 .4686,-.7606 .3177,-.895 .3589,-1.8574 .4131,-2.7971 .1056,-1.3679-.1776,-2.7109-.4825,-4.0351-.3709,-1.393-.8746,-2.7467-1.4294,-4.0758-.2656,-.6279-.5661,-1.24-.8587,-1.8555-.3944,-.7567-.717,-.2868 1.5104,-1.1508 .0768,-.03 .0919,.1367 .1411,.2027 .0824,.1106 .1689,.2179 .2534,.3269 .8217,1.1276 1.8098,2.1155 2.8001,3.0928 .5826,.5674 1.2074,1.0941 1.7645,1.6874 .2114,.1726 .3378,.416 .508,.6229 .1662,.1502 .2962,-.01 .4431,-.1106-2.5656,1.5384-1.6519,1.0412-1.16,.5694 .1937,-.1857 .3764,-.3843 .5619,-.5781 .2632,-.2626 .5127,-.5438 .801,-.7804 .761,-.6244 1.8227,-1.1234 2.6097,-1.5711 .7271,-.3211 1.471,-.6005 2.2265,-.8467 .1563,-.034 .761,-.2665 .899,-.1093 .0321,.037 .0451,.086 .0677,.1294 .003,.044 .0154,.089 .009,.1323-.0436,.3196-.5385,.6915-.7545,.8904-.9928,.8207-1.9561,1.6745-2.8731,2.5792-.7976,.8557-1.6216,1.7004-2.2566,2.6874-.3921,.6165-.6005,1.2972-.6984,2.0144-.0648,.6415-.0542,1.2873-.0532,1.9312 .0351,.6998 .1244,1.4011 .3328,2.0715 .1195,.3571 .3319,.6194 .6717,.7762 .2255,.08 .4837,.1318 .7238,.087 .0559,-.011 .5216,-.1684 .5589,-.1808 .5492,-.2997 1.8756,-1.0005-.6067,.3598-.0982,.054 .1891,-.1201 .2821,-.1824 .2138,-.143 .2651,-.1851 .4657,-.3346 .2405,-.18 .1266,-.092 .3424,-.2617l1.7191,-.6913c-.2178,.1831-.1012,.092-.3516,.2719-1.0139,.7828-2.137,1.4308-3.3009,1.9611-.5107,.1524-.8878,.2254-1.3851,-.01-.3662,-.2066-.6055,-.5062-.7343,-.9112-.2041,-.6903-.2811,-1.409-.3481,-2.1238-.004,-.6502-.0146,-1.3021 .038,-1.9509 .0928,-.7431 .2887,-1.4524 .6884,-2.0955 .0802,-.1333 .153,-.2712 .2404,-.3997 .1797,-.264 .4481,-.5661 .6529,-.8036 .4526,-.5248 .9157,-1.0402 1.3938,-1.5419 .8918,-.8997 1.8318,-1.7498 2.8066,-2.5592 .2761,-.2564 .5618,-.5063 .8001,-.7993 .0396,.021-.0878,.017-.1321,.024-.221,.031-.4338,.1-.6466,.1641-.7471,.2466-1.4866,.5202-2.1959,.8624 2.4446,-1.4457 .9748,-.6248 .497,-.2572-.291,.2239-.54,.5004-.7953,.7622-.9257,.9765-.9789,1.08-2.5451,1.8884-.2567,.1212-.4002,.1068-.6009,-.1041-.1584,-.2095-.2853,-.4431-.481,-.6233-.5334,-.6025-1.1282,-1.1492-1.6932,-1.7213-.9808,-.9983-1.9768,-1.9849-2.8496,-3.0818-.0938,-.1054-.1877,-.2107-.2814,-.3162-.0521,-.059-.2154,-.1251-.1559,-.1761 1.4141,-1.214 1.334,-1.5318 1.6993,-.7303 .2757,.628 .5663,1.2498 .8171,1.8885 .5249,1.3529 1.0089,2.7231 1.4053,4.1197 .3185,1.3302 .6335,2.6815 .5419,4.06-.0362,.9485-.0918,1.9144-.3493,2.8318-.0847,.2347-.1139,.3545-.249,.5692-.5939,.9436-1.8747,1.3891-2.7166,1.9248-1.0714,.5265-2.2113,.8989-3.4172,.9043-.1676,-.014-.3365,-.016-.5029,-.04-.4955,-.073-.9575,-.2895-1.3004,-.6569l1.6003,-.9608z" stroke="#000" stroke-linecap="round" stroke-linejoin="round" stroke-width=".2515"/>
<path d="m854.8111,1021.1506c-.7394,.2071-2.342,1.1965 .4555,-.4044-.388,.2065-.6184,.5425-.7999,.9302-.1036,.3106-.2142,.6511-.1917,.9845 .0156,.2306 .0756,.3465 .154,.562 .3071,.6068 .7795,1.1058 1.3399,1.4838 .4137,.2881 .8839,.4192 1.383,.4252 .3851,-.087 .7431,-.2375 1.0957,-.4123 .1503,-.075 .5909,-.3179 .4467,-.2321-1.6618,.9893-1.2456,.7222-.6575,.3195 .4842,-.373 1.0105,-.8057 1.1352,-1.4399 .0174,-.089 .0162,-.1799 .0243,-.2698-.032,-.7933-.5333,-1.4143-1.0169,-2.0008-.3049,-.3393-.6501,-.6629-1.0669,-.861-.2115,-.1006-.32,-.1184-.544,-.1779-.4519,-.025-.9255,.018-1.3546,.1741-.1984,.072-.499,.2393-.6834,.3368 2.5132,-1.5077 .8665,-.5123 .3482,-.062l-1.7106,.6997c.796,-.7657 1.8589,-1.2168 2.7842,-1.7768 .2686,-.1306 .4271,-.2209 .7141,-.308 .4568,-.1387 .9485,-.1711 1.419,-.1018 .2419,.077 .34,.097 .5672,.2178 .4231,.2254 .772,.5679 1.084,.9255 .5088,.6264 1.0253,1.2756 1.1028,2.1094-.004,.1012 .002,.2032-.0112,.3036-.0928,.6824-.6005,1.1675-1.1167,1.5707-1.0013,.7187-.4882,.3709-2.4236,1.4672-.5043,.2856-1.0559,.5275-1.6351,.5951-.5218,-.046-1.0072,-.1999-1.4323,-.5166-.5749,-.4193-1.0583,-.9487-1.3949,-1.5794-.0786,-.2055-.1678,-.4012-.1946,-.6229-.0421,-.3472 .0735,-.7121 .1572,-1.043 .1608,-.4085 .3649,-.7958 .7491,-1.0357 .9031,-.5198 1.7482,-1.1163 2.7557,-1.3944l-1.4819,1.1332z" stroke="#000" stroke-linecap="round" stroke-linejoin="round" stroke-width=".2515"/>
<path d="m862.6073,1021.9051c-.3203,.1024-.653,.1903-.9574,.3362-.1022,.049-.1982,.1101-.2973,.1651 .4207,-.2356 .8414,-.4712 1.2621,-.7068-.4994,.337-.87,.6738-1.0934,1.2386-.1462,.4653-.0761,.8587 .2923,1.2028 .0889,.083 .1935,.1478 .2903,.2216 .7042,.4046 1.5378,.5494 2.3444,.4638 .2312,-.024 .458,-.081 .687,-.1208 .53,-.1368 .7609,-.1749 1.2586,-.3838 .1651,-.069 .635,-.3304 .4812,-.2386-2.2382,1.3365-1.2251,.7542-.8736,.3984 .0779,-.079 .1399,-.1722 .2098,-.2583 .3065,-.4795 .3144,-.9061 .0985,-1.417-.0396,-.09-.268,-.5604-.4291,-.4586-.0279,.018-.042,.051-.063,.076 2.5422,-1.4497 1.5743,-1.2073 1.3278,-.5008-.1064,.3049-.125,.6013-.1396,.9215 .1766,1.4863 .8332,2.8626 1.3726,4.2435 .6559,1.8244 1.2881,3.7176 1.3609,5.6745 .0145,.3894-.0234,.779-.0352,1.1686-.0582,.3745-.0908,.7539-.1745,1.1236-.2732,1.2059-.8948,2.3097-1.8179,3.137-.1627,.1458-.3469,.2657-.5204,.3986-.6941,.3626-1.3545,.7991-2.0824,1.0879-.3018,.1197-1.0302,-.13-1.269,-.2365-.8875,-.3956-1.654,-1.0455-2.408,-1.6406-1.2719,-1.0888-2.5172,-2.2246-3.6551,-3.4553-.5895,-.6376-.7352,-.8522-1.2473,-1.5117-.4358,-.7271-.9494,-1.5701-.521,-2.4271 .2535,-.5072 .5596,-.6912 .9842,-1.0605 1.2727,-.8247 1.3769,-.9187 3.2195,-1.8517 .4497,-.2278 1.9,-.7427 2.3438,-.8976 .8851,-.3088 1.8369,-.6147 2.7269,-.9055 2.3381,-.6745 4.6281,-1.4959 6.8915,-2.3865 .1921,-.082 .3845,-.1627 .5764,-.245 .1466,-.063 .2943,-.1233 .439,-.1903 .2958,-.1371 .5721,-.3067 .8773,-.4229 .4138,-.059 .559,.4391 .6828,.7418 .2853,.7705 .446,1.5785 .5154,2.3954 .0171,.366 .029,.7336-.0228,1.0975-.005,.037 .0139,.095-.0201,.1109-.5544,.2582-1.1333,.4601-1.6999,.6901 10e-4,-.1125-.005,-.2255 .004,-.3377 .0133,-.1633 .0414,-.325 .063,-.4874 .1257,-.9479 .2903,-1.8832 .4832,-2.8196 .1955,-.8168 .3644,-1.6723 .8312,-2.3853 .5286,-.5535 1.7043,-1.6447 2.2768,-1.0096 .06,.066 .1019,.1472 .1529,.2208 .112,.1981 .2088,.3486 .2821,.5681 .2061,.6171 .2986,1.3405 .4077,1.9824 .1424,.5555 .0881,1.2207 .2567,1.7654 .2229,-.5987-.002,.028-1.6032,.7911-.0325,.016 .0489,-.053 .0671,-.084 .0417,-.071 .1233,-.2801 .1551,-.3443 .0434,-.088 .0929,-.1719 .1393,-.2578 .3011,-.4825 .556,-.9925 .8877,-1.4553 .5547,-.695 1.0736,-.8467 2.0338,-1.3743 .0329,-.018 .0773,-.01 .1126,.01 .045,.016 .08,.053 .12,.079 .3755,.395 .5063,.9539 .6331,1.4682 .1102,.5601 .1692,1.1313 .374,1.667 .0499,.07 .0906,.1479 .1496,.2106 .4298,.457 1.1407,.7985 1.727,.9843 .2206,.07 .4479,.1166 .6718,.1749 .9481,.2366 1.8995,.2484 2.8425,-.011 .2087,-.057 .4184,-.1173 .6161,-.2054 .1842,-.082 .3491,-.2019 .5237,-.3029-.3631,.1874-.6996,.4397-1.0894,.5622-.1503,.047 .2339,-.2118 .3412,-.3272 .3164,-.3401 .4973,-.7183 .6246,-1.1582 .0873,-.3664 .0858,-.7428 .0757,-1.1166-.1021,-.7716-.7838,-.012 1.5762,-.9706 .043,-.018-.0252,.089-.0325,.1353-.0105,.067-.0137,.1342-.0206,.2013-.0335,.608-.0474,1.2173 .0202,1.823 .0688,.3897 .1433,.7878 .4487,1.0613 .2149,.1415 .443,.1511 .6803,.073 .5712,-.2882 1.4287,-.7883-1.1689,.6782-.0922,.052 .1782,-.1143 .2658,-.1737l1.729,-.6875c-.1338,.1099-.1095,.099-.2632,.1885-.5841,.3415-1.3074,.9119-2.0466,1.1199-.2885,.031-.5575,-.032-.7831,-.2236-.314,-.3274-.4165,-.7448-.4864,-1.185-.0743,-.6127-.0594,-1.2282-.0514,-1.8445 .002,-.082 .01,-.3683 .0155,-.3721 1.2231,-.8124 1.6186,-1.5813 1.7738,-.6732 .009,.3928 .009,.788-.0729,1.1745-.4026,1.604-1.4656,1.9694-2.9269,2.8345-.1797,.091-.3518,.1981-.539,.2718-1.1255,.4432-2.3519,.4076-3.5096,.1301-.2313,-.061-.4661,-.1105-.6938,-.184-.5824,-.188-1.4014,-.59-1.8309,-1.0418-.0707,-.074-.1217,-.1655-.1826,-.2482-.2042,-.5463-.263,-1.1251-.3681,-1.696-.1059,-.4424-.211,-.9895-.5766,-1.2965-.0863,.011-.0417,0-.1309,.047 .494,-.2932 .9881,-.5865 1.4821,-.8797 .0418,-.024-.0765,.059-.1115,.092-.088,.083-.1593,.1828-.2543,.2588-.3546,.4458-.6103,.9514-.9065,1.4362-.1113,.1906-.2033,.372-.2742,.581-.0144,.043 .002,.1065-.037,.1297-1.6718,1.0056-1.301,1.4123-1.7676,.8263-.1403,-.5915-.0684,-1.2195-.2051,-1.8138-.1337,-.8319-.2366,-1.7229-.6888,-2.4507-.0786,-.095-.1124,-.1812-.2373,-.2043-.0338,-.01-.1319,.028-.1027,.01 .4848,-.3029 .9881,-.5749 1.4781,-.8692 .044,-.026-.0961,.038-.1396,.065-.0513,.032-.0953,.075-.1429,.1121-.5512,.6573-.7174,1.5447-.9403,2.3499-.2511,1.1608-.4667,2.3381-.5021,3.5279-.5413,.3318-1.0717,.6821-1.624,.9953-.0304,.017 .0302,-.063 .04,-.097 .1011,-.3479 .0723,-.7161 .0723,-1.073-.0467,-.7985-.196,-1.5926-.501,-2.3352-.0582,-.1343-.1651,-.5237-.3687,-.5375-.0472,0-.1338,.034-.1714,.048-.6021,.2681-1.1868,.5757-1.8125,.79-2.2433,.8437-4.5057,1.6345-6.8063,2.3092-1.3354,.4418-2.6801,.8688-3.988,1.3886-.3765,.1496-.7211,.3958-1.1182,.4762-.2039,.041 .7012,-.4449 .5142,-.3538-.2728,.1328-.5155,.32-.7733,.48-.4814,.3865-1.0718,.7863-1.1859,1.4525-.1123,.6558 .3053,1.2621 .5878,1.8057 .1747,.2387 .3409,.4838 .524,.716 1.2506,1.586 2.7724,2.9468 4.3216,4.2314 .7601,.5675 1.5353,1.2021 2.4338,1.5462 .2074,.08 .4249,.1396 .6456,.1642 .1883,.021 .6695,-.1887 .5676,-.029-.2124,.3325-.6509,.446-.9763,.669 .1821,-.1272 .3749,-.2403 .5464,-.3815 .9528,-.7839 1.6207,-1.8661 1.9179,-3.062 .0903,-.3634 .1256,-.7382 .1884,-1.1073 .0181,-.3842 .0641,-.7681 .0543,-1.1526-.0495,-1.9411-.7079,-3.8142-1.3712,-5.6146-.5628,-1.3919-1.2476,-2.7639-1.4927,-4.2575-.008,-.3536 3.7e-4,-.6227 .086,-.9648 .005,-.019 .0997,-.3596 .142,-.3887 .5428,-.3739 1.1209,-.6937 1.6814,-1.0405 .0426,0 .0866,0 .1279,.01 .2648,.072 .3917,.4009 .5024,.6157 .2357,.5565 .268,1.0516-.0318,1.5983-.068,.097-.1268,.202-.2041,.2923-.5521,.6452-1.6564,1.098-2.2184,1.4107-.5375,.2991-1.1558,.4269-1.747,.5654-.2367,.036-.4715,.087-.7101,.1065-.852,.069-1.7224,-.083-2.4498,-.5408-.1044,-.083-.2169,-.1575-.3133,-.25-.4073,-.3914-.5345,-.8233-.3997,-1.3636 .2032,-.6461 .5218,-.9588 1.0648,-1.3565 1.0479,-.6191 1.9953,-1.302 3.1758,-1.5918l-1.4819,1.1332z" stroke="#000" stroke-linecap="round" stroke-linejoin="round" stroke-width=".2515"/>
<path d="m888.0182,1016.2554c-.2243,.2631-.4035,.5643-.4888,.9007-.0611,.3364 .1396,.4226 .4154,.5433 .4462,.1634 .8277,.1455 1.2847,.065 .6111,-.2095 1.5817,-.8066-1.1348,.692-.0381,.021 .0724,-.049 .1046,-.078 .0766,-.07 .0844,-.099 .1345,-.1863 .0923,-.207 .0832,-.4008-.0356,-.5915-.1581,-.1498-.3958,-.1357-.5998,-.1457-.2107,.019-.4113,.072-.5826,.1981l1.4548,-1.1716c.2072,-.078 .4191,-.128 .6429,-.1102 .2663,.026 .5282,.064 .7009,.2917 .1406,.2365 .1962,.4811 .1149,.7512-.2947,.8892-1.4141,1.2487-2.2802,1.4605-.4615,.058-.9177,.033-1.3515,-.1528-.3119,-.1609-.5915,-.3623-.5442,-.7527 .0576,-.3624 .2344,-.687 .4467,-.9831l1.718,-.7299z" stroke="#000" stroke-linecap="round" stroke-linejoin="round" stroke-width=".2515"/>
<path d="m864.1735,1020.7872c.3537,-.172 .6913,-.3752 1.0561,-.5235 .2286,-.1485 .4794,-.217 .7469,-.2463 .246,-.019 .4931,-.016 .7396,-.015 .2447,-.026 .452,.041 .667,.1458 .1505,.1206 .2692,.2808 .3835,.4358 .0994,.1805 .1578,.383 .2189,.5797 .0548,.2016 .1295,.3942 .169,.6001 .038,.2418 .0406,.4871 .0436,.7313 10e-4,.1259 8.9e-4,.2518 8.9e-4,.3777l-1.662,.8466c1.3e-4,-.1253 3.8e-4,-.2505-1.3e-4,-.3758-.002,-.2343-.002,-.4696-.0316,-.7024-.0328,-.2008-.1062,-.3854-.1597,-.5802-.0519,-.177-.1078,-.3572-.1882,-.5221-.0978,-.1283-.193,-.2748-.3336,-.3578-.1975,-.086-.4034,-.091-.6168,-.082-.2413,0-.4842,-10e-5-.7231,.039-.2526,.054-.4803,.1622-.7103,.2776-.3579,.1664-.704,.3572-1.0509,.5451l1.4507,-1.1736z" stroke="#000" stroke-linecap="round" stroke-linejoin="round" stroke-width=".2515"/>
</g>
<path d="m290.1647,690.4261 0,313.2704" fill="none" stroke="#000" stroke-width="5.6728"/>
<path d="m585.9763,690.5251 0,303.442 0,10.4486" fill="none" stroke="#000" stroke-width="5.6784"/>
<path d="m18.8586,931.5818 843.4774,0" fill="none" stroke="#000"/>
<g transform="matrix(.82764,0,0,.82764,-168.45835,141.3289)">
<path d="m446.8915,78.4154c0,2.9289-27.5427,5.3033-61.5183,5.3033-33.9756,0-61.5183,-2.3744-61.5183,-5.3033 0,-2.9289 27.5427,-5.3033 61.5183,-5.3033 33.9756,0 61.5183,2.3744 61.5183,5.3033z" stroke="#000" stroke-linecap="round" stroke-width="4.862" transform="matrix(.73921,0,0,1.00634,74.18298,890.37751)"/>
<path d="m398.795,881.8517 0,48.1921c0,20.1339-11.9063,36.3428-26.6958,36.3428l-26.1933,0c-14.7895,0-26.6958,-16.2089-26.6958,-36.3428l0,-48.1921" fill="#fff" stroke="#000" stroke-linecap="round" stroke-linejoin="round" stroke-width="3.1414"/>
<path d="m310.1147,925.0738c.83,.0147 1.6857,.0128 2.4904,-.2139 .2533,-.0629 .4845,-.1373 .7159,-.2536 .0628,-.0316 .2523,-.124 .1914,-.0889-3.4501,1.9885-4.0368,2.3693-2.9073,1.6438 .3492,-.2067 .5814,-.5527 .8143,-.8756 .252,-.3447 .4607,-.7158 .685,-1.0778 .2744,-.4644 .5474,-.9294 .8227,-1.3933 .31,-.5092 .5726,-1.0452 .879,-1.5563 .2332,-.4133 .3712,-.8698 .5713,-1.2992 .1979,-.4759 .3782,-.9513 .4809,-1.4572 .1193,-.4507 .2243,-.9025 .3178,-1.3593 .1364,-.4724 .212,-.9557 .2536,-1.4446 .036,-.4939 .0513,-.9857-.0231,-1.476-.0772,-.5028-.1398,-1.0037-.2957,-1.4894-.217,-.5844-.4961,-1.1417-.7609,-1.705-.1934,-.4531-.3985,-.9106-.6666,-1.3253-.2697,-.4076-.5041,-.8356-.7428,-1.2615-.3079,-.498-.6187,-.996-.8658,-1.5273-.2562,-.5724-.5192,-1.1417-.7785,-1.7128-.206,-.4513-.389,-.9055-.5505,-1.3745-.1605,-.5815-.3307,-1.1596-.443,-1.7528-.178,-.6794-.2803,-1.3714-.3375,-2.0703-.0849,-.6415-.1973,-1.2782-.2599,-1.9225-.0421,-.5908-.048,-1.1833-.0522,-1.7753-.004,-.5438 1.3e-4,-1.0876 .002,-1.6314 .0264,-.6559 .1817,-1.2949 .3093,-1.9357 .1121,-.6526 .3594,-1.2555 .6538,-1.8435 .2944,-.6643 .6469,-1.2965 1.0035,-1.9283 .3174,-.6083 .6583,-1.2007 1.063,-1.7548 .2812,-.3897 .5979,-.7489 .9245,-1.1003 .2671,-.2734 .5525,-.5287 .8152,-.8062 .2776,-.2286 .5727,-.4377 .8632,-.6509 1.1844,-1.1185 2.8167,-1.6093 4.1948,-2.449 .5015,-.162 .9849,-.3543 1.4659,-.5716 .4388,-.1248 .8336,-.336 1.2827,-.4274 .3756,-.1898 .7899,-.2792 1.191,-.4008 .4565,-.0709 .8676,-.2681 1.321,-.3547 .377,-.213 .8013,-.2667 1.2249,-.3037 .4919,-.1231 .9853,-.2313 1.4796,-.3412 .5896,-.0687 1.1612,-.2204 1.7456,-.3157 .6477,-.0476 1.2822,-.1663 1.9246,-.2544 .7396,-.1329 1.4885,-.2193 2.2287,-.3498 .8121,-.1437 1.6316,-.1986 2.4429,-.3464 .6163,-.1264 1.2434,-.1576 1.8702,-.1774 .6627,.0197 1.3148,-.1048 1.9712,-.178 .8648,-.0712 1.7338,-.0669 2.6009,-.0726 1.425,.0488 2.8377,-.1275 4.2579,-.2179 1.9641,-.1366 3.9341,-.1234 5.9002,-.1933 .964,-.0343 2.2586,-.1273 3.2261,-.1914 1.9812,-.1454 3.9629,-.2885 5.9473,-.383 .6805,-.0331 1.3617,-.0396 2.0428,-.0396 .0833,1.6e-4 .1673,.0106 .25,4.9e-4 .2858,-.035 .5634,-.1227 .849,-.159 1.0267,-.1305 2.0716,-.1345 3.1039,-.1679 4.1632,-.0931 8.3277,-.0889 12.4917,-.0932 4.3147,.1154 8.6288,.2623 12.9404,.4639 1.5962,.0832 3.1944,.092 4.7755,.3407 .4352,.1206 .8311,.3045 1.2041,.5554 .4465,.3059 .8788,.6259 1.2902,.9789 .57,.4757 1.065,1.0227 1.5174,1.609 .633,.86 1.3814,1.623 2.032,2.4687 .5234,.6911 .9437,1.458 1.3009,2.2464 .4023,.9082 .8169,1.809 1.1825,2.7327 .4596,1.165 .7593,2.3802 .9507,3.6154 .2135,1.2087 .3301,2.4303 .3983,3.6548 .0243,.9612 .1507,1.9156 .2336,2.8727 .0894,.814 .0566,1.622-.0615,2.4301-.1525,.9409-.3786,1.8685-.6401,2.7847-.2367,.7114-.5572,1.3904-.8504,2.0794-.2325,.5369-.5517,1.029-.8398,1.5362-.2372,.4529-.5826,.8376-.8952,1.2394-.4532,.534-.891,1.0806-1.3398,1.6182-.4849,.5688-.9126,1.1823-1.334,1.7985-.3109,.4462-.5621,.9303-.797,1.4197-.1551,.4067-.3224,.8021-.4027,1.2312-.0827,.5824-.0829,1.1723-.087,1.7593 .007,.5378-.0177,1.0768 .0221,1.6134 .0635,.5486 .2247,1.0813 .4284,1.5928 .1442,.4122 .3654,.7938 .5784,1.1738 .3428,.5284 .6399,1.082 1.0028,1.5974 .3033,.6069 .7216,1.1238 1.1818,1.6161 .5121,.4756 1.0535,.9176 1.6498,1.283 .5826,.3128 1.2066,.55 1.8225,.7915 .6647,.3392 1.3923,.5092 2.0848,.7704 .0874,.0314 .1749,.0628 .2623,.0943l-3.111,2.0981c-.0861,-.0319-.1723,-.0638-.2584,-.0957-.7035,-.2427-1.4068,-.4814-2.0882,-.7837-.6312,-.2587-1.2806,-.4886-1.863,-.849-.6059,-.4033-1.1734,-.8603-1.6997,-1.3636-.4682,-.507-.8891,-1.0439-1.2066,-1.6606-.3688,-.5261-.6746,-1.089-1.0323,-1.6222-.2252,-.3929-.4578,-.7897-.6038,-1.2197-.213,-.5431-.3863,-1.106-.4717,-1.6844-.0748,-.5471-.0319,-1.1003-.041,-1.6516 .004,-.6021 .005,-1.2058 .0587,-1.8059 .0618,-.5087 .1761,-.8451 .3591,-1.3145 .1967,-.5226 .4884,-1.0142 .7819,-1.487 .404,-.6383 .8588,-1.2452 1.321,-1.8421 .4532,-.5276 .8711,-1.0828 1.3332,-1.6024 .3128,-.3865 .613,-.7817 .9208,-1.171 .247,-.5261 .6034,-.9921 .8631,-1.5134 .282,-.6889 .6032,-1.3588 .879,-2.0503 .2845,-.8956 .5012,-1.8136 .6613,-2.7394 .136,-.7791 .1755,-1.5597 .0961,-2.3485-.0678,-.9644-.1954,-1.9247-.2194,-2.8916-.0559,-1.2152-.1567,-2.4284-.3724,-3.6271-.1766,-1.2114-.4629,-2.3961-.9235,-3.5339-.3639,-.9175-.7766,-1.8115-1.1862,-2.7094-.3478,-.7618-.7459,-1.5077-1.2471,-2.1806-.6439,-.8503-1.3954,-1.6094-2.0418,-2.4577-.4454,-.5607-.9317,-1.0828-1.4878,-1.5366-.4062,-.3358-.8339,-.6392-1.2754,-.927-.3451,-.2016-.7078,-.3635-1.1026,-.4424-1.5252,-.2569-3.0725,-.2937-4.6128,-.4078-4.281,-.2559-8.5685,-.3989-12.8557,-.5009-4.1961,.0159-8.394,.0198-12.5876,.1816-.9868,.0553-1.5106,.0691-2.4524,.1729-1.1259,.1241-.3105,.06-1.2072,.1838-.3721,.0514-.3579,.0429-.6705,.0422-.6668,-1.8e-4-1.3336,.005-2,.0274-1.9484,.0668-3.8942,.186-5.8394,.3138-3.0548,.1837-6.1137,.2262-9.1678,.4199-1.4452,.1206-2.8859,.3-4.3392,.2482-.866,.0107-1.7344,.0177-2.5959,.1174-.6617,.0779-1.3224,.1652-1.9904,.1578-.616,.0306-1.2286,.0942-1.8349,.2111-.8108,.1288-1.6317,.1814-2.4383,.3397-.7479,.1128-1.4924,.2423-2.2407,.3519-.639,.1021-1.2814,.1671-1.9203,.2679-.5775,.12-1.1597,.2076-1.7362,.3315-.4985,.1245-1.005,.2219-1.51,.3145-.415,.0702-.8003,.2155-1.2014,.3362-.4349,.1249-.8637,.2667-1.3035,.3744-.4016,.1295-.8054,.2495-1.203,.3896-.4195,.1401-.8293,.3116-1.2412,.4716-.4794,.2124-.9941,.3392-1.4517,.5992-2.4038,1.1826 4.0633,-2.3978 2.2176,-1.3387-.2363,.2688-.5503,.4849-.8623,.6541-.3021,.2332-.5457,.5393-.8219,.8018-.3683,.3007-.6472,.6819-.9616,1.0358-.3886,.5584-.8055,1.0932-1.0944,1.7165-.3268,.6429-.7489,1.2381-.9939,1.9231-.3125,.5511-.5776,1.1198-.7065,1.7445-.1162,.6231-.2683,1.2374-.3346,1.8691 5.4e-4,.5429 .002,1.0857-5e-4,1.6286 5.4e-4,.5827 3e-4,1.1659 .0372,1.7477 .0509,.6481 .15,1.2893 .2514,1.9312 .0504,.6866 .1368,1.3691 .3255,2.0334 .1,.5757 .2707,1.1317 .4238,1.6946 .1658,.4558 .3238,.9105 .5287,1.3514 .2545,.5715 .518,1.1391 .7745,1.7096 .2427,.5223 .553,1.0099 .8562,1.4988 .2382,.4189 .4716,.8399 .7373,1.2424 .2703,.4329 .4934,.8986 .6823,1.3723 .2666,.5777 .55,1.1475 .7856,1.7391 .1757,.5013 .2546,1.0175 .3259,1.5424 .0906,.517 .1059,1.0297 .064,1.5542-.0309,.5057-.0813,1.0117-.2246,1.4999-.1268,.4416-.1435,.9127-.3316,1.3398-.0827,.5345-.2337,1.0364-.4425,1.5325-.1738,.451-.3965,.8838-.5517,1.3444-.2994,.5168-.5978,1.0329-.8892,1.5553-.258,.4691-.5443,.9236-.8072,1.3891-.2078,.3825-.4439,.7436-.6732,1.1124-.2445,.3427-.4725,.6929-.7563,1.0048-1.426,.9212-2.815,1.9918-4.4906,2.3314-.8409,.1318-1.6897,.1603-2.5401,.1508l3.0331,-2.2037z" fill="#fff" stroke="#000" stroke-linecap="round" stroke-linejoin="round" stroke-width="3.891"/>
<path d="m312.3448,881.246c1.9639,-1.2092 3.9133,-2.4472 5.9689,-3.4987 .9688,-.434 1.885,-.9777 2.8534,-1.4099 1.7034,-.6684 3.4392,-1.2484 5.1718,-1.8353 2.5739,-.9183 5.2288,-1.574 7.884,-2.2063 1.9223,-.4462 3.8249,-.9823 5.7713,-1.3153 1.2198,-.1956 2.4562,-.2006 3.6878,-.1951 1.7302,.005 3.4605,.009 5.1907,.008 1.3198,5.3e-4 2.6397,-.003 3.9595,-.006 1.0445,-10e-4 2.0889,-.003 3.1334,-9.4e-4 1.0217,10e-4 2.0434,-.002 3.0651,-.002 1.3746,-.0651 2.7332,.1262 4.0978,.2584 1.748,.1685 3.4791,.4629 5.2291,.6225 1.4156,.1163 2.8364,.1325 4.2559,.1403 1.2713,.007 2.5426,-9.5e-4 3.814,-.007 .803,.018 1.611,-.0591 2.41,.0338 .8999,.0707 1.7789,.2726 2.6636,.4395 1.2154,.1988 2.4262,.4246 3.6414,.6256 1.5112,.1991 3.022,.3926 4.5267,.6374 .8882,.0898 1.7559,.2984 2.6362,.4369 .7757,.1976 1.5618,.3443 2.3433,.5157 .9078,.2054 1.8344,.276 2.7616,.3153 .8008,.0221 1.6025,.034 2.4035,.0152 .0326,-.002 .1255,-.0228 .0978,-.006-3.575,2.2227-2.411,2.6345-4.2302,1.1917-.6879,-.4691-1.3107,-1.0234-1.9745,-1.5234-.5074,-.4865-1.0943,-.8515-1.6998,-1.2-1.3912,-.6731-2.8329,-1.2387-4.2912,-1.7477-1.3975,-.4597-2.7559,-1.0305-4.1881,-1.3766-.8895,-.2841-1.8125,-.3854-2.7397,-.4382-.9806,-.0398-1.9623,-.0345-2.9435,-.0336-1.1016,2.4e-4-2.2033,.002-3.3049,.002-1.3311,-.002-2.6621,-.004-3.9932,-.005-1.452,-10e-4-2.9039,6.1e-4-4.3559,1.6e-4-1.4636,10e-4-2.9271,.004-4.3907,-.006-1.4121,.0264-2.8264,-.0444-4.2383,-.0146-.445,.009-2.4942,.1214-2.8864,.1421-3.0333,.1669-6.0697,.2641-9.1066,.3335-1.809,-7e-5-3.6128,.0627-5.4176,.177-1.1602,.0342-2.3119,.1435-3.4663,.2544-.9642,.1219-1.9139,.327-2.8742,.4714-1.2218,.2205-2.4303,.5015-3.6269,.8318-1.7518,.4532-3.5056,.9053-5.2396,1.4233-1.1015,.3373-2.1875,.7097-3.1797,1.3016 5.4996,-3.3137 2.4868,-1.4351 1.2908,-.5584-.6762,.5294-1.4151,.9679-2.1293,1.442-.4206,.2774-.2183,.1418-.6074,.4063l-3.4811,1.3769c.3833,-.2924 .1797,-.1514 .6129,-.4195 .703,-.4894 1.462,-.8983 2.1285,-1.4372 .9098,-.6008-.2265,.1684 .6335,-.4738 1.3853,-1.0345 3.1506,-1.5798 4.455,-2.6802 1.0138,-.53 2.0986,-.8827 3.1937,-1.2061 1.7417,-.497 3.4952,-.9531 5.2453,-1.4195 1.2156,-.3281 2.4431,-.6149 3.685,-.8254 .9591,-.1613 1.9149,-.3436 2.8826,-.449 1.1495,-.1111 2.2997,-.1844 3.4539,-.2284 1.7893,-.0994 3.5783,-.1268 5.3704,-.1242 3.0257,-.0469 6.0508,-.1367 9.0714,-.3236 2.4,-.1365 4.7991,-.189 7.2032,-.1602 1.4691,-.0101 2.9382,-.007 4.4073,-.006 1.4518,-4.3e-4 2.9036,.001 4.3554,1.8e-4 1.3364,-10e-4 2.6727,-.003 4.0091,-.007 1.104,-10e-4 2.2081,-.004 3.3121,-.007 .9873,1.1e-4 1.9755,-.004 2.9616,.0514 .9403,.0717 1.8697,.2112 2.7705,.5017 1.4165,.392 2.7707,.9667 4.1638,1.4314 1.4852,.5293 2.9674,1.0815 4.3899,1.7645 .6169,.3584 1.2051,.7515 1.7279,1.2411 .6525,.5161 1.2888,1.0531 1.9739,1.5271 1.0461,.8114 4.4892,3.1832-2.0735,3.0158-.7954,-.0195-1.5914,-.0135-2.3863,-.0504-.9405,-.0525-1.8766,-.1508-2.7964,-.3628-.7853,-.1579-1.5668,-.3305-2.3509,-.4936-.8656,-.1616-1.7264,-.3467-2.6007,-.4592-1.4971,-.2546-3.0043,-.4329-4.5071,-.6494-1.2279,-.195-2.4551,-.3916-3.6789,-.611-.8807,-.1665-1.7617,-.3371-2.658,-.3961-.7902,-.0381-1.5821,-.008-2.3729,-.0217-1.2672,-.002-2.5343,-.002-3.8015,-.007-1.4223,-.0151-2.846,-.0366-4.2627,-.176-1.7437,-.1814-3.4724,-.4763-5.219,-.6288-1.3712,-.1291-2.7408,-.2566-4.12,-.199-1.0199,-10e-5-2.0399,-.003-3.0598,-.002-1.0435,.002-2.0871,4.3e-4-3.1306,-.001-1.3116,-.003-2.6231,-.009-3.9347,-.0132-1.7307,-.008-3.4614,-.0163-5.1921,-.003-1.2224,.0231-2.4497,.0401-3.6581,.2493-1.9182,.343-3.8025,.8465-5.6993,1.2885-2.6522,.6301-5.2976,1.3053-7.8637,2.2345-1.7543,.6054-3.5169,1.1975-5.2245,1.9271-.9505,.4647-1.888,.9567-2.839,1.4207-1.142,.6169-2.07,1.1248 2.2247,-1.3144 .1651,-.0937-.3177,.2078-.4781,.3093-.3108,.1967-.6224,.3922-.9347,.5864-.1271,.079-.2563,.1548-.3844,.2322l-3.4975,1.3566z" fill="#fff" stroke="#000" stroke-linecap="round" stroke-linejoin="round" stroke-width="3.891"/>
<path d="m328.3721,876.3899c2.3201,-.8312 4.6901,-1.5071 7.0679,-2.15 1.6778,-.4517 3.3861,-.779 5.1191,-.9081 1.3503,-.1037 2.6892,.1596 4.0294,.2958 1.0735,.1088 2.1513,.1612 3.2298,.181 .7833,.01 1.5667,.007 2.35,.006 .6641,-.002 1.3282,-.005 1.9923,-.007 .6167,-6.2e-4 1.2333,.002 1.8499,10e-4 .7006,-.002 1.4012,8.4e-4 2.1018,.005 1.2228,.0454 2.4367,.2639 3.6557,.3871 .7527,.0763 1.5087,.1059 2.2649,.1141l-3.0392,2.1987c-.7533,-.0223-1.5053,-.0734-2.254,-.1622-1.2117,-.1404-2.4229,-.3573-3.6456,-.3449-.7048,.004-1.4095,.007-2.1143,.005-.6181,-5e-4-1.2362,.002-1.8542,.002-.66,-7.6e-4-1.32,-.002-1.98,-.002-.785,.002-1.5701,.005-2.355,-.0154-1.0726,-.0372-2.1436,-.1116-3.2105,-.2302-1.3311,-.1418-2.6665,-.3623-4.0079,-.2276-1.6909,.1441-3.3597,.4588-4.9982,.9018-2.4097,.6536-4.8083,1.3535-7.1429,2.2445l2.9408,-2.2948z" stroke="#000" stroke-linecap="round" stroke-linejoin="round" stroke-width="3.891"/>
<path d="m314.6594,880.7086c-.4835,.7806-.9158,1.591-1.3803,2.3827-.6409,.9426-1.0393,2.006-1.4551,3.0589-.2986,.8142-.5794,1.6445-.7456,2.4978-1.1268,.463-2.2199,1.0185-3.3803,1.3891-.1062,.0339 .0389,-.2196 .0606,-.329 .1199,-.6047 .284,-1.1885 .4777,-1.7734 .3558,-.9857 .7063,-1.9702 1.1584,-2.9165 .3769,-.7974 .8706,-1.524 1.4261,-2.2056 .496,-.5928 1.0824,-1.1052 1.7094,-1.5546 .7098,-.4077 1.341,-.9453 2.0446,-1.3607 1.2682,-.7489 2.5507,-1.4734 3.826,-2.21 1.517,-.8644 3.1623,-1.4205 4.8349,-1.8927 1.9289,-.5169 3.8673,-.9967 5.798,-1.5071l-2.9252,2.2413c-1.9254,.494-3.8586,.9598-5.7717,1.5-1.666,.4995-3.2974,1.0959-4.8049,1.9774 5.9321,-3.4662 2.5103,-1.5085 1.8976,-1.0785-.1438,.1009-.2703,.2247-.4123,.3282-.3211,.234-.6829,.4061-1.0051,.6386-.645,.4041-1.2352,.8975-1.75,1.4585-.57,.6531-1.0926,1.3458-1.4736,2.1291-.4785,.9239-.8283,1.8957-1.1817,2.8725-.1994,.5698-.3547,1.1291-.4757,1.7198-.02,.0976 .0195,.2398-.0657,.2916-1.1069,.6736-2.2849,1.2227-3.4274,1.8341 .17,-.1528 .2147,-.5257 .27,-.7254 .1652,-.5967 .3359,-1.1919 .5601,-1.77 .4152,-1.0573 .7582,-2.1533 1.4013,-3.1016 .4768,-.7794 .9109,-1.584 1.3578,-2.3805l3.4324,-1.5138z" fill="#fff" stroke="#000" stroke-linecap="round" stroke-linejoin="round" stroke-width="3.891"/>
<path d="m319.2429,886.0276c-.3851,1.0671-.6789,2.1643-.9917,3.2541-.3223,1.0416-.5849,2.0981-.8212,3.1619-.1755,.7399-.2992,1.4894-.3611,2.247-.0108,.5433 .17,1.0641 .3261,1.5781 .2087,.6291 .4187,1.2539 .5355,1.9074 .1158,.733 .1974,1.4715 .3144,2.2042 .1034,.6045 .2756,1.1964 .5051,1.7645 .2017,.3228 .3501,.6773 .5918,.9734 .1353,.1578 .2156,.344 .2944,.5333l-3.2853,1.8353c-.0612,-.1599-.1274,-.3112-.2431,-.4413-.2507,-.3337-.4302,-.7085-.6374,-1.0696-.2348,-.5951-.4167,-1.2127-.5276,-1.8435-.1273,-.7295-.2013,-1.469-.3207,-2.1998-.1024,-.6403-.3015,-1.2497-.5138,-1.8611-.1797,-.5545-.3657,-1.118-.3934,-1.7041 .0559,-.7788 .1777,-1.5494 .3634,-2.3083 .2436,-1.0691 .4804,-2.1392 .8194,-3.1838 .305,-1.0853 .6075,-2.173 .9579,-3.2442l3.3872,-1.6033z" fill="#fff" stroke="#000" stroke-linecap="round" stroke-linejoin="round" stroke-width="3.891"/>
<path d="m402.7111,888.167c.2562,1.0088 .5254,2.0146 .735,3.0346 .1793,.6795 .3363,1.3598 .4112,2.0589 .0587,.8107 .0466,1.6245 .0493,2.4367 2.4e-4,.921-.006,1.8419-.004,2.7629-.0341,.9103-.1428,1.8145-.3316,2.7053-.2778,1.2165-1.0455,2.2075-1.788,3.1787-.8394,.9597-1.6784,2.0385-2.7952,2.7014-1.2188,.7235-2.4581,1.4119-3.6871,2.1178-.7372,.3585-1.5364,.5327-2.3428,.6436l2.9894,-2.2437c.7803,-.1376 1.5454,-.3446 2.2461,-.727-6.5502,3.8628-2.7322,1.6652-2.1103,1.2104 .8712,-.6372 1.633,-1.4106 2.3097,-2.2483 .7274,-.9229 1.4937,-1.8628 1.814,-3.0146 .219,-.8623 .3139,-1.7444 .373,-2.6311 .003,-.9204 8.7e-4,-1.8407 .002,-2.7611 7.3e-4,-.7992 .002,-1.5994-.047,-2.3974-.0608,-.691-.2018,-1.3657-.377,-2.0367-.1861,-1.0068-.4402,-2.0003-.7327,-2.981l3.2858,-1.8096z" fill="#fff" stroke="#000" stroke-linecap="round" stroke-linejoin="round" stroke-width="3.891"/>
<path d="m319.2883,922.3604c-.1481,.9172-.2903,1.8352-.5351,2.7323-.1714,.6115-.4208,1.1974-.7027,1.7653-.3136,.5349-.7584,.9741-1.2361,1.3624-1.6113,1.1312-3.3758,2.0337-5.1094,2.9651-.8313,.4013-1.6641,.8235-2.5445,1.1083-.6539,.2712-1.3364,.4365-2.0383,.5119-.4369,.1573-.8911,.2245-1.3517,.2591-.4594,.072-.8937,-.0798-1.342,-.1517l3.0795,-2.1578c.4274,.0792 .8444,.1526 1.2799,.0687 .4529,-.0613 .8895,-.1878 1.3395,-.2634 .6797,-.1095 1.3339,-.3123 1.9755,-.5612 .8593,-.33 1.6965,-.7242 2.5093,-1.1554 1.2391,-.6786-.4355,.2393 .7201,-.3965 .1062,-.0584 .4239,-.2356 .3192,-.1744-5.1997,3.0408-3.4082,2.0256-2.3175,1.3276 .4976,-.3291 .9231,-.7406 1.2875,-1.2139 .3385,-.5161 .5479,-1.1164 .7538,-1.6949 .283,-.8654 .4213,-1.7641 .5554,-2.6628l3.3571,-1.6686z" fill="#fff" stroke="#000" stroke-linecap="round" stroke-linejoin="round" stroke-width="3.891"/>
<path d="m403.5675,929.6908c.7692,.7847 1.7017,1.3508 2.7055,1.7798 .9302,.3464 1.8978,.5275 2.882,.6238 .9856,.0718 1.9747,.0653 2.9622,.0646 .4103,-10e-4 .8205,-.005 1.2307,-.008l-3.0255,2.1996c-.4067,-4.5e-4-.8133,-9.4e-4-1.22,-.002-.9963,-.004-1.9954,-.001-2.9881,-.0965-1.0057,-.1271-1.9984,-.3374-2.9399,-.7238-1.0211,-.478-1.9603,-1.0883-2.7885,-1.8585l3.1815,-1.9789z" fill="#fff" stroke="#000" stroke-linecap="round" stroke-linejoin="round" stroke-width="3.891"/>
<path d="m401.9331,925.3415c.2319,1.0176 .4441,2.0381 .5925,3.0715 .0669,.4384 .0738,.8822 .1368,1.3207l-3.3179,1.7552c-.0729,-.4435-.0657,-.8923-.1203,-1.3386-.1242,-1.0271-.3081,-2.0465-.5967,-3.0414l3.3056,-1.7673z" fill="#fff" stroke="#000" stroke-linecap="round" stroke-linejoin="round" stroke-width="3.891"/>
<path d="m376.3522,872.545c1.2526,.1465 2.5111,.2305 3.7695,.3075l-6.0621,4.3427c-1.273,-.0927-2.545,-.197-3.8169,-.3037l6.1096,-4.3465z" fill="#fff" stroke="#000" stroke-linecap="round" stroke-linejoin="round" stroke-width="3.891"/>
<path d="m378.9132,869.931c2.9543,.3261 5.8874,.7869 8.7696,1.5189 .9298,.2377 1.8516,.4688 2.7556,.79l-6.1922,4.1916c-.878,-.2939-1.7684,-.5375-2.6633,-.7755-2.8602,-.7131-5.7776,-1.2249-8.7297,-1.3221l6.06,-4.4028z" fill="#fff" stroke="#000" stroke-linecap="round" stroke-linejoin="round" stroke-width="3.891"/>
<path d="m381.4386,872.4564c2.2046,-.0417 4.3983,.1865 6.5947,.3401 .8135,.0579 1.6282,.0931 2.443,.1249l-6.0754,4.3694c-.8082,-.0465-1.6162,-.0966-2.423,-.1631-2.1961,-.173-4.3937,-.3679-6.5993,-.2684l6.06,-4.4028z" fill="#fff" stroke="#000" stroke-linecap="round" stroke-linejoin="round" stroke-width="3.891"/>
<path d="m383.8844,873.3739c1.6494,.0176 3.2987,.039 4.9481,.0594l-6.0405,4.3743c-1.6423,-.0308-3.2896,-.0884-4.9293,.0336l6.0217,-4.4674z" fill="#fff" stroke="#000" stroke-linecap="round" stroke-linejoin="round" stroke-width="3.891"/>
<path d="m70.7107,315.9022c0,3.7658-2.4874,6.8185-5.5558,6.8185-3.0684,0-5.5558,-3.0528-5.5558,-6.8185 0,-3.7658 2.4874,-6.8185 5.5558,-6.8185 3.0684,0 5.5558,3.0528 5.5558,6.8185z" fill="#fff" stroke="#000" stroke-linecap="round" stroke-linejoin="round" stroke-width="3.891" transform="translate(288.3455,591.8381)"/>
<path d="m70.7107,315.9022c0,3.7658-2.4874,6.8185-5.5558,6.8185-3.0684,0-5.5558,-3.0528-5.5558,-6.8185 0,-3.7658 2.4874,-6.8185 5.5558,-6.8185 3.0684,0 5.5558,3.0528 5.5558,6.8185z" fill="#fff" stroke="#000" stroke-linecap="round" stroke-linejoin="round" stroke-width="3.891" transform="translate(310.5193,591.4387)"/>
<path d="m323.062,886.2023c-1.5698,.8579-2.717,1.4889 3.4757,-2.0001 .1834,-.1033-.3582,.221-.5351,.3351-.4255,.2746-.8379,.567-1.2462,.8662-.5151,.3646-.9583,.8134-1.4311,1.2271-.47,.3109-.8868,.6932-1.324,1.047-.4107,.3286-.7348,.7247-1.0196,1.1639-.1328,.2238-.2426,.4657-.3738,.689-.0488,.0832-.0585,-.1839-.0912,-.2746-5.1226,2.882-4.9688,3.6224-3.6328,.7432 .3558,-.8428 .8731,-1.5936 1.3751,-2.3524 .5123,-.7162 1.0434,-1.429 1.6446,-2.0737 1.7063,-1.6369 3.9089,-2.7066 6.0779,-3.6113 .5843,-.0914 1.1254,-.299 1.6972,-.4371 .6489,-.1253 1.3122,-.1356 1.9709,-.1474 .6182,.0392 1.2168,-.0996 1.8063,-.2751 .2326,.0553 .2608,.0178 .3854,.3032 .2478,.5678-.2401,.9006-.6067,1.2468-1.0816,.8707-2.132,1.7754-3.1562,2.7132-.774,.716-1.4199,1.5505-2.0941,2.3571-.4056,.4575-.766,.9482-1.0814,1.4716-.2531,.4642-.496,.9327-.7332,1.4053-.2255,.481-.4714,.9519-.7095,1.4269-.2332,.485-.4702,.9682-.7313,1.4391-.3063,.4175-.5326,.8833-.8509,1.2924-1.3133,1.728-4.9367,5.2838-5.5523,2.1859-.1283,-1.7666 .5542,-3.4815 1.098,-5.1322 .4122,-1.3979 1.0654,-2.6736 1.9499,-3.825 .6146,-.7792 1.3377,-1.4511 2.103,-2.0774 .6065,-.5386 1.1973,-1.0937 1.8433,-1.5854 2.0849,-1.4299 4.2523,-2.7985 6.6174,-3.7018 .3011,-.2128 1.1903,-.753 1.308,-.0134 .0294,.1845-.0444,.3709-.0666,.5564-.9591,1.2654-2.0967,2.3885-3.1777,3.5498-.9859,1.0136-1.8195,2.1571-2.616,3.3213-.4748,.6646-.938,1.3353-1.3536,2.0386-.3471,.7188-.7176,1.4223-.963,2.1836-.2137,.7349-.2577,1.4998-.2824,2.26-.0144,.7167-.008,1.4336-.006,2.1503 .0457,.6693-.0404,1.3193-.2071,1.9653-.2485,.5484-.3638,1.1376-.5263,1.7135-.1874,.5559-.244,1.0734-.0376,1.6228 .0266,.0449 .0428,.098 .0799,.1347 .01,.01 .0237,-.0139 .0355,-.0209-.0384,-.0972-.022,-.3389-.1152,-.2916-1.5246,.7737-2.9269,1.7697-4.4241,2.5951-.0729,.0402 .0827,-.1449 .117,-.2208 .0475,-.1051 .0854,-.2142 .1281,-.3214 .3519,-.8973 .6687,-1.805 1.0693,-2.6823 .3886,-.98 .9395,-1.8734 1.4982,-2.762 .5172,-.8209 1.1669,-1.5427 1.8273,-2.2488 .7028,-.6991 1.3658,-1.4364 2.0594,-2.1441 .6464,-.6753 1.3869,-1.2484 2.1339,-1.8063 .5381,-.4074 1.0443,-.8523 1.6086,-1.2239 8.9967,-5.2125 4.0577,-2.3465 .6244,-.3734-.1142,.0656 .2266,-.1343 .339,-.2029 .3297,-.2014 .6553,-.4085 .9779,-.6209 1.8882,-1.1875 3.8222,-2.2761 5.7704,-3.3789 .4401,-.1692 .2355,-.0662 .6169,-.3033 .534,-.2668 1.0849,-.4833 1.6186,-.7512 .5644,-.2312 1.1859,-.3901 1.7021,-.7197 .5382,-.2913 1.1575,-.4091 1.6897,-.7032 .5113,-.246 1.0869,-.4077 1.5546,-.7314 .4653,-.2555 1,-.4094 1.4327,-.7173 .5747,-.2194 1.1997,-.3789 1.7268,-.7011 .2478,-.1789 .5617,-.1809 .8359,-.2807 .2669,-.0971 .4963,-.2329 .7755,-.3125 .0985,-.0192 .2005,-.0256 .2957,-.0576 .0856,-.0288 .1608,-.0821 .2413,-.1231 .0856,-.0335 .1695,-.0715 .2567,-.1004 .2882,-.0957 .5846,-.1347 .8842,-.1735 .5489,-.2669 1.1512,-.3369 1.7513,-.3854 .5373,-.0863 1.253,-.1821 1.7461,-.4111-.2042,.2007 .5745,-.2903 .4387,-.2034-1.4878,.9524-2.9612,1.9279-4.4672,2.8511-.1143,.0701-.2495,.1124-.3832,.1225-.2592,.0196-.5191,-.0346-.779,-.0347-.3031,-1.3e-4-.6058,.0226-.9086,.0339-1.6922,.0834-3.3843,.3216-5.0065,.8177-1.0285,.3541-2.0146,.804-2.9741,1.313-1.0131,.6042-2.1088,1.0388-3.1313,1.626-.9756,.4975-1.9788,.9271-2.9777,1.3715-.9089,.3354-1.7648,.7979-2.6648,1.1515-1.0853,.5612-2.2346,.9705-3.3474,1.4687-.2032,.0956-.4089,.1859-.6096,.2867-.196,.0984-.7697,.4206-.5799,.3106 1.3164,-.763 5.2702,-3.0442 3.9603,-2.27-1.6577,.9798-3.3409,1.9157-5.0038,2.8867-1.6077,.9388 14.3234,-8.259-.8991,.5267-.007,.002-.58,.243-.6742,.1444-.8719,-.9124 .6305,-2.6173 1.1001,-3.3197 1.6035,-2.3196 3.5245,-4.3825 5.684,-6.1877 2.7446,-2.024 5.719,-3.8177 8.949,-4.9403 .1182,-.0447 1.4794,-.4579 1.5494,-.2857 .3111,.7656 .169,.6826-.3064,1.0974-2.4234,1.6348-4.7669,3.3816-7.0152,5.2491-.7893,.6972-1.6141,1.3723-2.2912,2.1852-.1387,.1666-.5353,.6201-.2709,.5514 2.4594,-.3674 4.7494,-1.3915 7.0373,-2.3258 .7792,-.3453 1.3415,-.5746 2.0771,-.9672 .2077,-.1109 .8128,-.4755 .608,-.3594-1.3876,.7918-2.7751,1.5837-4.1626,2.3755 .0399,-.0159 .0893,-.0781 .1198,-.0478 .0462,.0458 .018,.1289 .0271,.1933-1.6077,.4395-3.1996,.9638-4.7919,1.4684-.8452,.2244-1.6172,.657-2.4619,.8813-.1377,.0366-.296,.1411-.4211,.0729-.5085,-.2773-.193,-.7704-.0936,-1.124 1.3251,-1.4966 2.7633,-2.8956 4.1513,-4.3364 1.7633,-1.832 5.0323,-4.6388 7.2489,-4.4498 .8717,.2955 1.1929,1.1378 1.5249,1.9173 .1513,.2712 .2553,1.0074 .6468,1.0989 .1051,.0246 .2501,-.1711 .2869,-.2095 1.3994,-1.3363 .0983,-.0621-4.0378,2.2347-.1056,.0587 .19,-.1495 .2794,-.2308 .1303,-.1185 .2105,-.2995 .3672,-.3797 1.6079,-.8234 3.2378,-1.6031 4.8568,-2.4046 1.6298,2.3566-3.8248,3.776-4.6303,4.2492-1.1959,-.0568-2.3917,-.1155-3.5882,-.1574-1.0153,.0722-2.1669,-.2931-3.1172,.1634 9.2926,-5.069 3.6372,-3.1795 3.6774,-1.1352 .0238,.0394 .0339,.0913 .0713,.1181 .2848,.2038 1.8289,.1937 2.1736,.2059 1.0743,-.0243 2.3363,.0856 3.2859,-.518-5.8008,4.087-2.771,2.3873-6.286,2.9582-1.7019,.372-3.3731,.8712-5.0045,1.4808-1.2925,.3709-2.4842,.9931-3.6965,1.5582-.3706,.2611-.8116,.378-1.2159,.5655-.1102,.0511-.4216,.2413-.3161,.181 4.3602,-2.4913 5.5982,-3.4197 4.0394,-2.2687-.4576,.2969-.6507,.797-.8601,1.277-.2545,.521-.4336,1.0667-.6209,1.6143-.1566,.682-.4454,1.3749-.4227,2.0827 .0647,.1927 .2122,.3379 .2869,.5264 .6954,1.7539-2.9868,2.3212-4.6059,3.2898-1.0698,.294-2.0897,.7332-3.1253,1.1285-1.0733,.4197-2.1797,.7733-3.2309,1.2486-1.6901,.7641-6.4976,4.5358 4.3801,-3.1969 2.9897,-1.0698 5.779,-2.6456 8.5457,-4.1893 3.4093,-1.9449-1.4757,.8632-2.2224,1.2793-.2809,.1565 .5469,-.3382 .8187,-.5098 .6315,-.3987 1.2611,-.7988 1.8977,-1.1894 11.449,-6.6112 2.4754,-1.4232 .8819,-.5246-.1241,.07 .237,-.1582 .3537,-.2398 .3125,-.2185 .6158,-.4283 .9459,-.6199 .6223,-1.9731 4.5843,-2.3753 6.4874,-3.5214-6.5454,3.7612-5.239,2.694 .4309,.6617 .115,-.0412-.2013,.1386-.3037,.2053-.3842,.2502-.4823,.3021-.8948,.5468-13.9389,8.0023-.875,.5056-1.1344,.6437-1.723,.9173-3.3932,1.9306-5.0962,2.8846-.5266,.2949-1.0894,.5235-1.6285,.7942-.8496,.3128-1.1091,.9143-2.0409,.5945-.4368,-.275-.5938,-.8015-.9972,-1.1078-.1854,-.0304-.1266,-.0692-.1908,.0906 1.5051,-.8534 2.9923,-1.7392 4.5154,-2.5601 .0399,-.0215-.0209,.09-.0158,.135 .0188,.1652 .0719,.1988 .1687,.3295 .0607,.0451 .2422,.2161 .3548,.1723 .0676,-.0263 .2053,-.1994 .1412,-.1654-1.4761,.7837-2.9209,1.625-4.3902,2.4215-.0885,.048 .1704,-.1087 .246,-.1751 .0915,-.0802 .1689,-.1753 .2533,-.2629 .5693,-.5864 .9525,-1.3132 1.4437,-1.9583 1.5386,-1.5434 .4009,-.4444 5.0629,-3.0368 .177,-.0984 .5085,-.0777 .6913,-.0447 .3347,.0602 .5199,.1581 .8341,.2887 .7243,.2884 1.4874,.6306 2.2817,.5673 .3989,-.0608 .2148,.0137 .5493,-.2306-1.4156,.8007-2.8213,1.6193-4.2468,2.4022-.1242,.0682 .2331,-.1623 .3393,-.2562 .2657,-.2349 .453,-.4804 .6809,-.752 .625,-.9232 1.1692,-1.8969 1.7723,-2.8355 1.176,-2.2518 3.4031,-3.6718 6.019,-4.2261 .6901,-.1299 1.3368,-.073 1.9787,.2042 .6304,.3068 1.2521,.5754 1.9435,.71 .1137,.015 .2264,.0441 .3411,.0451 .2386,.002 .4734,-.0598 .7106,-.0853 .4988,-.0535 .9994,-.0845 1.4998,-.1184 .7823,-.1248 1.7159,.1311 2.4385,-.2859 .1202,-.0694 .2166,-.1737 .3249,-.2605-7.8254,4.9786-3.5909,2.0109-1.9191,.6111 .7182,-.6101 1.3959,-1.2694 2.1387,-1.85 1.7698,-1.2729 3.6697,-2.2452 5.5957,-3.3387 .4078,-.1462 .2187,-.053 .5698,-.2742 .5413,-.2311 1.0236,-.5268 1.6045,-.6558 .6623,-.1108 1.3362,-.1119 2.0057,-.1178 .7268,.0165 1.3054,.0318 2.0131,-.1423 .6855,-.1624 1.3921,-.1719 2.0925,-.1934 .7697,-.0188 1.5397,-.018 2.3096,-.018 .7199,5.9e-4 1.4399,.001 2.1598,.002 .6976,.1661 1.4071,.2585 2.1211,.313 .7195,.0447 1.4407,.0456 2.1614,.0474 .8066,.007 1.6129,-.0368 2.4141,.0655 .9455,.1346 1.8963,.2191 2.8499,.264 1.34,.0439 2.681,.0475 4.0217,.0506 1.3655,.002 2.7309,-.0103 4.0963,-.0189 .7981,-.0747 1.4032,.0558 2.1088,.3996 .5123,.2401 1.0225,.5352 1.4787,.8742 .4699,.3637 .9748,.6899 1.4389,1.0618 .4586,.3284 .9019,.6927 1.2895,1.104 .3631,.4033 .8129,.7012 1.2259,1.0466 .5173,.4879 1.1199,.873 1.6683,1.3225 .4884,.3665 .97,.7561 1.3901,1.2007 .4221,.324 .7221,.7476 1.0442,1.1616 .3155,.4183 .6024,.8524 .8746,1.3012 .3248,.4132 .6134,.8653 .8405,1.3401 .2928,.5127 .5404,1.0476 .8164,1.5702 .4068,.7906 .8191,1.579 1.2405,2.3621 .3095,.6768 .6753,1.3286 .9059,2.0381 .1995,.665 .1758,1.3627 .2509,2.0453 .0795,.8208 .3138,1.6116 .4792,2.4165 .0646,.6779 .2583,1.3281 .3975,1.9917 .1067,.5815 .2702,1.1548 .4309,1.7242 .2201,.7712 .3072,1.5686 .4818,2.3497 .0907,.3764 .1503,.7586 .2067,1.1412l-4.6887,2.47c-.0468,-.37-.0963,-.7398-.1821,-1.1033-.174,-.7685-.2645,-1.5497-.4738,-2.31-.1857,-.5773-.3344,-1.177-.4565,-1.769-.1267,-.6685-.3434,-1.3162-.3865,-1.9995-.1529,-.8167-.399,-1.6121-.499,-2.4387-.1089,-.6522-.053,-1.3218-.2151,-1.968-.1992,-.6845-.5557,-1.3066-.8393,-1.9578-.4215,-.7839-.8238,-1.578-1.2539,-2.3574-.2828,-.5286-.5493,-1.0625-.8402,-1.5858-.2139,-.4614-.5097,-.8844-.8135,-1.2904-.2641,-.4318-.5406,-.8501-.8471,-1.2526-.3023,-.4029-.6212,-.7805-1.0093,-1.1075-.42,-.4148-.8721,-.7979-1.3429,-1.1537-.5599,-.4383-1.1468,-.8436-1.6782,-1.3178-.4433,-.3427-.8782,-.6883-1.2638,-1.0972-.3869,-.379-.8025,-.7299-1.2439,-1.0438-.4748,-.348-.948,-.6984-1.4267,-1.0405-.4571,-.2956-.9272,-.5808-1.4301,-.7915-.6225,-.2649-1.2827,-.2462-1.9503,-.2325-1.35,-.007-2.7001,-.0171-4.0502,-.0157-1.365,3.5e-4-2.7315,.0236-4.0956,-.0344-.9535,-.0664-1.9017,-.1808-2.8519,-.2823-.8006,-.0384-1.6021,-.007-2.4035,-.0192-.7294,-.007-1.4598,-.0164-2.1866,-.085-.701,-.0747-1.3925,-.218-2.0945,-.2729-.7194,-6.4e-4-1.4387,-.002-2.1581,-.002-.7642,7.2e-4-1.5288,7.1e-4-2.2925,.0329-.6925,.0374-1.3805,.1064-2.0571,.2659-.683,.0993-1.374,.0374-2.062,.0647-.6467,.0194-1.3045,.0366-1.9245,.2414-.5271,.2111-1.028,.4865-1.5369,.7374-1.6213,.7483-4.0712,2.2755 3.6952,-2.1942 .6931,-.3989-1.4748,.8313-.7901,.5436-.8244,.47-1.4638,1.2037-2.1901,1.8059-2.1836,1.8867-4.3616,3.4301-7.0785,4.6944-.9274,.3604-1.9159,.2664-2.8942,.3496-.8849,.0698-1.7899,.2548-2.6668,.0439-.688,-.1867-1.3194,-.4945-1.9811,-.7529-.5932,-.1514-1.1892,-.1338-1.7683,.0846-1.7243,.8895-.4657,.2467 3.9798,-2.3692 .0927,-.0546-.1909,.1019-.2747,.1694-.3337,.2689-.5192,.6645-.7082,1.0367-.5959,.9553-1.2272,1.8864-1.7549,2.8834-1.4839,2.0603-3.847,4.023-6.4732,4.0172-.8194,-.1166-1.5915,-.3963-2.3581,-.7014-.3597,-.0925-.6448,-.1613-1.0042,-.0254-.097,.0367-.3693,.188-.2802,.135 3.0896,-1.8385 5.758,-3.3554 3.9659,-2.3355-.6102,.5508-.8941,1.3445-1.4504,1.9474-1.4028,1.7777-4.2249,4.6332-6.0674,2.7707-1.5969,-2.3381 2.6295,-5.0613 4.6188,-3.5031 .2759,.2664 .4776,.7335 .8385,.8568 .6526,-.063 1.1733,-.6579 1.8012,-.8237 .1985,-.095 .8483,-.405 1.0364,-.4982 .1926,-.0954 .7595,-.4015 .575,-.2913-4.2929,2.5641-6.9007,3.9465 1.1575,-.6398 1.3215,-.7521-2.6317,1.5238-3.9475,2.2857 .3699,-.2103 .7742,-.5308 1.1672,-.694 7.5264,-3.1248 6.0129,-2.6186 .3758,.7121-1.8988,.8139-5.37,2.6316 2.6046,-1.7005-.2118,.1222-.4345,.2249-.6453,.3488-.2693,.1583-.4313,.3008-.6781,.4956-1.3421,.8022-10.5475,6.1408-.9041,.543-3.0928,1.8986-6.1738,3.8178-9.3783,5.5289-2.8289,1.5441-5.6696,3.1499-8.7363,4.1721 1.174,-1.0266 2.3203,-2.0856 3.5219,-3.0798 .1117,-.0924 .2669,-.1132 .4017,-.1667 .2005,-.0796 .4023,-.1556 .6038,-.2326 .8639,-.3303 1.7278,-.6608 2.5944,-.9841 1.0616,-.4219 2.1451,-.7925 3.1943,-1.2386-1.4616,.8851-2.9472,1.7318-4.3848,2.6554-.0462,.0297 .0968,.0603 .1515,.0645 .0681,.005 .006,-.1433-.0273,-.203-.3368,-.6064 .0466,.174-.2949,-.5482-.1153,-.7803 .1933,-1.5198 .3286,-2.2829 .1725,-.5511 .3006,-1.1314 .6066,-1.6261 .084,-.2804 .2097,-.4992 .3235,-.7626 .1222,-.2828 .1652,-.5828 .4186,-.7957 2.0014,-1.5555 4.2888,-2.6432 6.5561,-3.73 1.1979,-.5688 2.4176,-1.088 3.6842,-1.4869 1.6624,-.5836 3.3602,-1.0885 5.0953,-1.4035 .5221,-.0484 1.0459,-.1172 1.5662,-.003 .2195,.0483 .7686,.1672 .5974,.3129-1.3465,1.1463-2.8356,2.1138-4.2534,3.1706-1.0995,.2929-2.245,.3335-3.3773,.2858-.9389,-.0417-2.1973,.0602-2.6892,-.916-.5293,-2.6368 4.0189,-3.9459 5.2248,-4.582 1.0499,-.1515 2.1178,.0141 3.1734,.009 .8721,.0304 2.3391,.1993 3.1626,.032 .1118,-.0227 .2127,-.0824 .3191,-.1236-1.4228,.8513-2.851,1.6938-4.2685,2.554-.0605,.0367 .1354,-.0454 .1958,-.0825 .1676,-.103 .2137,-.2612 .1357,-.4248 1.5044,-.8437 3.0117,-1.6821 4.5131,-2.5312 .0626,-.0354-.1379,.0478-.1962,.09-.1898,.1374-.276,.3943-.4748,.5185-1.5833,.9891-3.1966,1.9299-4.8148,2.8607-.0925,.0532-.2055,.0575-.3082,.0862-.7765,-.1357-1.0816,-.8269-1.3132,-1.5204-.2408,-.5596-.4451,-1.3681-1.182,-1.3617-1.838,.4994-.3206,.1142 3.8593,-2.362 .1451,-.0859-.3009,.1536-.4422,.2456-.5966,.3882-1.0906,.9078-1.5809,1.417-1.3755,1.4081-2.7401,2.8266-4.1327,4.2178-.1227,.0624-.2308,.1762-.368,.1872-.0705,.006-.2002,-.0909-.1547,-.1451 .0791,-.0943 .2392,-.059 .3567,-.0957 .808,-.2527 1.5876,-.5892 2.4013,-.8255 1.1058,-.3544 3.7006,-1.3794 4.8041,-1.2792 .1482,.0135 .2779,.1064 .4169,.1595 .1012,.1426 .2462,.2627 .3036,.4279 .0334,.0961 .0348,.2456-.0506,.3009-1.5753,1.0201-3.2238,1.9226-4.8445,2.869-.8327,.4863-1.755,.8056-2.6297,1.2011-1.4635,.5838-2.9241,1.1955-4.4324,1.6574-.6796,.2082-1.666,.4933-2.414,.4623-.2359,-.01-.4564,-.1212-.6845,-.1817-.1094,-.1406-.2649,-.2553-.3282,-.4218-.331,-.8698 2.2219,-2.7046 2.6737,-3.1843 2.1968,-1.8487 4.482,-3.5959 6.8533,-5.2149 .4779,-.297 .4096,-.433 .8916,.0812 .003,.003-.0879,.006-.4041,.0921-.4068,.1111-.5394,.1608-.9679,.3003-.5673,.2146-.7195,.263-1.2883,.5176-.2352,.1053-.9189,.4643-.6993,.3294 7.1349,-4.3819 3.4894,-2.0877 1.9819,-1.0724-2.2017,1.7376-4.1585,3.7463-5.7666,6.0534-.6132,.9269-.6657,.9864-1.1858,1.8338-.084,.1368-.1247,.3085-.2454,.4144-.0408,.0358-.1644,-.0194-.1466,-.0706 .0654,-.1876 .5752,.0452 .5384,-.2559-10.4222,6.0413 .2611,-.1496 .8875,-.5206 1.3254,-.785-5.3432,3.0689-4.0009,2.3131 2.0851,-1.174 4.0645,-2.5227 6.2596,-3.4737 1.131,-.4758 2.2556,-.9611 3.3683,-1.4786 .8813,-.3991 1.7668,-.7887 2.6616,-1.1569 .9974,-.4268 1.975,-.899 2.9371,-1.4004 1.0467,-.5496 2.124,-1.0388 3.1522,-1.6244 .9725,-.4851 1.9777,-.9056 3.0217,-1.2125 1.6535,-.4075 3.3472,-.6378 5.0501,-.6907 .3424,-.005 1.4151,-.041 1.7846,.0358 .2485,.0516 .8963,.1006 .7105,.2735-2.4601,2.2886-2.8519,2.6257-4.8036,3.2532-.5996,.124-1.1905,.2944-1.8057,.3227-.5922,.0899-1.152,.2769-1.7325,.4145-.5581,.1331-1.0809,.3644-1.6324,.52-.5252,.2124-1.0679,.3766-1.57,.6432-.5797,.2173-1.1605,.4474-1.7117,.7275-.4915,.2092-.9575,.475-1.4363,.7113-.5308,.2179-1.0393,.4858-1.5736,.6971-.5741,.2055-1.1361,.4454-1.679,.7235-.5756,.2207-1.1405,.4692-1.7101,.7041-.5437,.2312-1.0664,.5111-1.5941,.7762-1.6328,.7724-3.9384,2.1946 3.6093,-2.1425 .9163,-.5265-1.8329,1.05-.9198,.5964-.4641,.2342-.865,.5609-1.3144,.8232-.2071,.1209-11.7573,6.7901-.6315,.3443-.5666,.3711-1.1175,.7468-1.6352,1.1832-.7107,.598-1.5243,1.0789-2.1704,1.7559-.7073,.693-1.3509,1.4415-2.063,2.1308-.6597,.6841-1.3203,1.3739-1.8635,2.157-.5725,.8653-1.1577,1.7324-1.5413,2.7024-.4093,.8592-.7468,1.7407-1.0469,2.6439-.0421,.1005-.0916,.1982-.1263,.3015-.0316,.094 .01,.2325-.072,.2886-1.6853,1.1579-3.9582,4.5228-5.084,2.3454-.2564,-.6431-.326,-1.2566-.1081,-1.9309 .1607,-.5855 .2621,-1.188 .4996,-1.7484 .281,-.5484 .3176,-1.1949 .3009,-1.801-.002,-.7218-.008,-1.4436 1.6e-4,-2.1654 .0168,-.7998 .0476,-1.6041 .2311,-2.3864 .2125,-.8074 .5629,-1.5296 .907,-2.2847 .3782,-.7431 .8474,-1.4375 1.3624,-2.0927 .7847,-1.2056 1.6472,-2.3731 2.636,-3.4196 1.0452,-1.14 2.1213,-2.2515 3.1318,-3.4232 1.0883,-.0833-.3748,.5356-.549,.5958-.0898,.0399-.6183,.2738-.7035,.3149-.1133,.0547-.4437,.2369-.3352,.1732 7.3851,-4.3325 5.0818,-2.9609 3.5024,-2.0209-.6549,.4795-1.3002,.9758-1.8598,1.5679-.7615,.6175-1.5326,1.2176-2.1578,1.9826-.9336,1.0895-1.6739,2.2981-2.0916,3.6837-.5351,1.5575-1.2012,3.1835-1.1218,4.8568 .2423,2.0215-.4008,.5987-4.5002,2.8916-.0548,.0306 .1085,-.0659 .1518,-.1112 .5445,-.5697-.2275,.1206 .338,-.3679 .2872,-.4307 .6389,-.8099 .8516,-1.291 .3633,-.3881 .4823,-.9013 .7817,-1.3326 .1774,-.5004 .4509,-.9658 .7097,-1.426 .1769,-.5041 .4506,-.9771 .7217,-1.4337 .2341,-.5868 .6242,-1.1242 1.0539,-1.5829 .6452,-.8633 1.3851,-1.6625 2.1133,-2.4557 1.0062,-.9297 2.0048,-1.8759 3.1068,-2.6926 .158,-.1418 .5165,-.5897 .7714,-.5862 .0355,4.9e-4 .2486,.1306 .2283,.2136-.01,.0392-.0744,.0315-.1116,.0472-.6163,.1148-1.2261,.2063-1.8569,.1759-.6401,.0277-1.2854,.0654-1.9021,.254-.5496,.1708-1.1246,.255-1.6467,.5043-1.7061,.8439-2.9061,1.6818 3.7718,-2.2492 .0867,-.0511-.1875,.0751-.2747,.1253-.2403,.1384-.3084,.2302-.5091,.4253-.6884,.532-1.1492,1.299-1.7031,1.9621-.5056,.7379-1.0462,1.4632-1.4043,2.2877-.1996,.3803-.3314,.7567-.4953,1.15-.8566,2.0555-1.8878,1.8125-4.9873,3.4677-.4293,-.4561-.5174,-.8995-.0802,-1.4048 .1902,-.4782 .5402,-1.0184 .9498,-1.3306 .3851,-.4271 .8762,-.7292 1.2882,-1.131 .5798,-.2823 .9249,-.8586 1.4726,-1.1979 2.1866,-1.862 4.9756,-2.9205 7.3371,-4.5041l-4.1233,3.3359z" stroke="#000" stroke-linecap="round" stroke-linejoin="round" stroke-width="3.891"/>
<path d="m338.9141,331.2282 13.5345,3.3146" fill="none" stroke="#000" transform="translate(2.0203,611.4536)"/>
</g>
<path d="m446.8915,78.4154c0,2.9289-27.5427,5.3033-61.5183,5.3033-33.9756,0-61.5183,-2.3744-61.5183,-5.3033 0,-2.9289 27.5427,-5.3033 61.5183,-5.3033 33.9756,0 61.5183,2.3744 61.5183,5.3033z" stroke="#000" stroke-linecap="round" stroke-width="4.862" transform="matrix(.90469,0,0,.90469,346.26812,872.5415)"/>
<g transform="matrix(.90469,0,0,.90469,782.92764,603.59674)">
<path d="m-43.5297,288.8057 0,47.8884c0,20.007-16.1067,36.1137-36.1137,36.1137l-35.434,0c-20.007,0-36.1137,-16.1067-36.1137,-36.1137l0,-47.8884" fill="#fff" stroke="#000" stroke-linecap="round" stroke-linejoin="round" stroke-width="3.6422"/>
<path d="M-122.1431,308.6171H-98.6091A.7803,.7803 0 0 1 -97.8288,309.3974V319.4235A.7803,.7803 0 0 1 -98.6091,320.2038H-122.1431A.7803,.7803 0 0 1 -122.9234,319.4235V309.3974A.7803,.7803 0 0 1 -122.1431,308.6171z" stroke="#000" stroke-linecap="square" stroke-linejoin="round" stroke-width="3.7338"/>
<path d="M-80.7522,308.6171H-60.3393A2.3409,2.3409 0 0 1 -57.9985,310.958V317.8629A2.3409,2.3409 0 0 1 -60.3393,320.2038H-80.7522A2.3409,2.3409 0 0 1 -83.093,317.8629V310.958A2.3409,2.3409 0 0 1 -80.7522,308.6171z" stroke="#000" stroke-linecap="square" stroke-linejoin="round" stroke-width="3.7338"/>
<path d="m-148.8829,313.6717c.5492,.0105 1.0986,.007 1.6478,.004 .363,-.002 .7259,-.004 1.0889,-.004 .2925,-4.3e-4 .585,-4e-4 .8775,-4e-4 .304,-6.3e-4 .6081,6e-4 .9121,10e-4 .3906,-.01 .7752,-3.7e-4 1.162,.0507 .3996,.0545 .8031,.0717 1.2062,.0827 .4052,-.0158 .8029,.0589 1.204,.099 .4079,.0368 .818,.0407 1.2274,.045 .4301,.002 .8603,.002 1.2904,6.5e-4 .3736,-7.6e-4 .7472,-10e-4 1.1208,-.002 .307,-7.7e-4 .6141,-9.8e-4 .9211,-10e-4 .2915,-8e-5 .583,-7e-5 .8745,-6e-5 .2915,1e-5 .5831,1e-5 .8746,1e-5 .3187,-3.9e-4 .6374,5.3e-4 .9561,.002 .3943,.002 .7885,4.4e-4 1.1828,-6.3e-4 .3709,-2.7e-4 .7418,4.7e-4 1.1126,10e-4 .3967,-1.7e-4 .7934,-8e-5 1.1902,-10e-4 .38,1.9e-4 .7599,7.4e-4 1.1399,1.6e-4 .3456,-.001 .6912,-.002 1.0367,2.5e-4 .5332,.003 1.0664,.004 1.5996,.006 .7266,.003 1.4533,.003 2.1799,.001 .5332,-.001 1.0664,-.005 1.5997,-.005 .4413,6.5e-4 .8826,-2e-5 1.3239,-.002 .0611,-2e-4 .1222,-4e-4 .1833,-6e-4l-1.746,1.1993c-.0605,-2.1e-4-.121,-4.1e-4-.1815,-6.1e-4-.4399,-.002-.8797,-.002-1.3196,-.002-.528,-2.2e-4-1.0559,-.004-1.5839,-.005-.7276,-.002-1.4552,-.002-2.1828,9.9e-4-.5391,.002-1.0782,.003-1.6173,.006-.3458,.002-.6916,.002-1.0375,2.6e-4-.3801,-5.7e-4-.7602,-3e-5-1.1404,1.5e-4-.3957,-9.9e-4-.7914,-8.9e-4-1.187,-.001-.3723,.001-.7447,.002-1.117,.002-.3937,-10e-4-.7873,-.003-1.181,-6.3e-4-.3206,.001-.6411,.002-.9617,.002-.2915,0-.5831,0-.8747,0-.2914,0-.5829,2e-5-.8743,-6e-5-.306,-1.3e-4-.612,-3.5e-4-.918,-9.6e-4-.372,-6.9e-4-.744,-8.4e-4-1.1161,-8.8e-4-.4302,-8.3e-4-.8603,7e-4-1.2904,-.004-.4148,-.006-.8303,-.0145-1.2428,-.0595-.3968,-.0446-.792,-.0972-1.193,-.0869-.4078,-.0152-.8149,-.0435-1.2193,-.0968-.382,-.0404-.7654,-.0292-1.1493,-.0278-.3051,5.6e-4-.6103,.002-.9155,.001-.2921,10e-6-.5842,3e-5-.8763,-4e-4-.3589,-6.7e-4-.7177,-.002-1.0765,-.004-.5532,-.003-1.1065,-.006-1.6597,.004l1.7494,-1.2016z" stroke="#000" stroke-linecap="square" stroke-linejoin="round" stroke-width=".4767"/>
<path d="m-57.3881,313.9484c.7039,.0118 1.4079,.0102 2.1119,.01 .6452,-8.9e-4 1.2905,-.003 1.9357,-.006 .4312,-.002 .8624,-.002 1.2935,-.003 .3398,-8.1e-4 .6796,-.002 1.0194,-.002 .2968,.0217 .5821,-.0575 .8738,-.0956 .2926,-.0341 .5877,-.039 .8821,-.0425 .2922,-.002 .5843,-10e-4 .8765,-8.4e-4 .2918,4e-4 .5836,5.3e-4 .8754,6.1e-4 .2918,5e-5 .5836,5e-5 .8754,5e-5 .2918,0 .5836,0 .8754,0 .3133,-6.1e-4 .6266,10e-4 .9398,10e-4 .3172,-2.5e-4 .6345,-6.9e-4 .9517,-9.3e-4 .2938,-1.8e-4 .5877,-2e-4 .8815,-2.1e-4 .1943,-1e-5 .0972,-1e-5 .2915,-1e-5l-1.7509,1.2027c-.1943,0-.0971,0-.2914,0-.2936,-2e-5-.5872,-4e-5-.8808,-2.2e-4-.3164,-2.3e-4-.6327,-6.8e-4-.9491,-9.3e-4-.3144,4e-5-.6287,.002-.9431,10e-4-.2918,1e-5-.5836,1e-5-.8754,1e-5-.2918,-1e-5-.5836,-1e-5-.8754,-1.2e-4-.2918,-1.3e-4-.5837,-3.7e-4-.8755,-7.2e-4-.2913,-2.3e-4-.5826,-10e-4-.8738,.004-.2893,.007-.5791,.0195-.8653,.0636-.2961,.0453-.5905,.0907-.8921,.0705-.3377,-4.3e-4-.6755,-10e-4-1.0132,-.002-.4283,-5.4e-4-.8565,-6.3e-4-1.2848,-.003-.6398,-.003-1.2796,-.005-1.9195,-.006-.7134,-4.8e-4-1.4269,-.002-2.1402,.01l1.747,-1.2z" stroke="#000" stroke-linecap="square" stroke-linejoin="round" stroke-width=".4767"/>
<path d="m-97.681,314.1116c.5339,.0676 1.0726,.0889 1.6105,.1048 .4801,.0116 .9604,.0116 1.4405,.0103 .3964,-5e-4 .7929,-6.3e-4 1.1893,-.002 .7958,.0205 1.592,.0104 2.3879,.007 .4809,-.004 .9619,-.005 1.4428,-.007 .3835,3e-5 .767,-4.2e-4 1.1506,6e-4 .4032,.001 .8064,-9.5e-4 1.2096,-3.1e-4 .3638,-8.6e-4 .7277,-7.6e-4 1.0915,-6.6e-4 .3644,5.6e-4 .7288,2.2e-4 1.0931,-5.1e-4 .3481,.001 .6961,1.1e-4 1.0442,-4.5e-4 .3406,.001 .6811,4.5e-4 1.0217,-4e-5 .3008,-4.3e-4 .6016,-5.6e-4 .9024,-6.3e-4 .2516,.0585 .5047,.1006 .7628,.1209 .2799,.0172 .5606,.0173 .8409,.018 .2917,1.9e-4 .5833,-3.9e-4 .875,-6.8e-4 .146,-1.4e-4 .292,-2e-4 .4381,-2.6e-4l-1.7508,1.2027c-.146,10e-5-.292,1.9e-4-.438,3.5e-4-.292,3.2e-4-.584,.001-.876,-3.9e-4-.2852,-.002-.5709,-.005-.8549,-.0331-.2506,-.0294-.496,-.0897-.7478,-.105-.3002,-8e-5-.6004,-2e-4-.9006,-6.3e-4-.3405,-4.8e-4-.681,-.001-1.0215,-5e-5-.3476,-5.5e-4-.6953,-.002-1.0429,-4.4e-4-.3639,-7.3e-4-.7278,-10e-4-1.0916,-5.1e-4-.3632,1.1e-4-.7264,1.9e-4-1.0895,-6.6e-4-.4029,6.4e-4-.8058,-.002-1.2087,-3.1e-4-.3841,.001-.7682,5.8e-4-1.1523,6e-4-.4742,-.002-.9483,-.003-1.4224,-.007-.8027,-.004-1.6058,-.0132-2.4083,.007-.3958,-4.3e-4-.7915,4.6e-4-1.1873,-3.6e-4-.4785,-.003-.957,-.007-1.4353,-.0226-.5477,-.0212-1.0947,-.0538-1.64,-.107l1.7673,-1.1825z" stroke="#000" stroke-linecap="square" stroke-linejoin="round" stroke-width=".4767"/>
<path d="m-136.1855,276.2983 0,18.5432" fill="none" stroke="#000" stroke-linecap="round" stroke-width="4.8046"/>
<path d="m-126.6615,274.544 0,18.5432" fill="none" stroke="#000" stroke-linecap="round" stroke-width="4.8046"/>
<path d="m-117.7245,276.0083 0,18.5432" fill="none" stroke="#000" stroke-linecap="round" stroke-width="4.8046"/>
<path d="m-106.0478,274.841 0,18.5432" fill="none" stroke="#000" stroke-linecap="round" stroke-width="4.8046"/>
<path d="m-95.8892,277.0276 0,18.5432" fill="none" stroke="#000" stroke-linecap="round" stroke-width="4.8046"/>
<path d="m-84.2599,276.8522 0,18.5432" fill="none" stroke="#000" stroke-linecap="round" stroke-width="4.8046"/>
<path d="m-73.7574,275.1381 0,18.5432" fill="none" stroke="#000" stroke-linecap="round" stroke-width="4.8046"/>
<path d="m-63.8419,278.175 0,18.5432" fill="none" stroke="#000" stroke-linecap="round" stroke-width="4.8046"/>
<path d="m-53.169,277.8063 0,18.5432" fill="none" stroke="#000" stroke-linecap="round" stroke-width="4.8046"/>
<path d="m-105.8017,352.8807 27.1229,-4.4282" fill="none" stroke="#000" stroke-width=".7749"/>
<path d="m-144.0697,281.0285 0,18.5432" fill="none" stroke="#000" stroke-linecap="round" stroke-width="4.8046"/>
</g>
<g transform="matrix(.66081,0,0,.66081,131.19544,389.53208)">
<path d="M-1450.6932,1649.7776H-1278.2792A18.0569,18.0569 0 0 1 -1260.2222,1667.8345V1698.2565A18.0569,18.0569 0 0 1 -1278.2792,1716.3135H-1450.6932A18.0569,18.0569 0 0 1 -1468.7501,1698.2565V1667.8345A18.0569,18.0569 0 0 1 -1450.6932,1649.7776z" stroke="#000" stroke-linecap="round" stroke-linejoin="round" stroke-width="2.7184" transform="matrix(1,0,.84988,.52697,0,0)"/>
<path d="M6.0718,846.5267H13.6936A5.7163,5.7163 0 0 1 19.4099,852.243V894.1625A5.7163,5.7163 0 0 1 13.6936,899.8788H6.0718A5.7163,5.7163 0 0 1 .3555,894.1625V852.243A5.7163,5.7163 0 0 1 6.0718,846.5267z" fill="#fff" stroke="#000" stroke-linecap="round" stroke-linejoin="round" stroke-width="5.0248"/>
<path d="M151.2658,846.5267H158.8875A5.7163,5.7163 0 0 1 164.6038,852.243V894.1625A5.7163,5.7163 0 0 1 158.8875,899.8788H151.2658A5.7163,5.7163 0 0 1 145.5495,894.1625V852.243A5.7163,5.7163 0 0 1 151.2658,846.5267z" fill="#fff" stroke="#000" stroke-linecap="round" stroke-linejoin="round" stroke-width="5.0248"/>
<path d="M119.2545,829.7589H126.8762A5.7163,5.7163 0 0 1 132.5925,835.4751V877.3947A5.7163,5.7163 0 0 1 126.8762,883.111H119.2545A5.7163,5.7163 0 0 1 113.5382,877.3947V835.4751A5.7163,5.7163 0 0 1 119.2545,829.7589z" fill="#fff" stroke="#000" stroke-linecap="round" stroke-linejoin="round" stroke-width="5.0248"/>
<path d="M-29.3693,825.1858H-21.7476A5.7163,5.7163 0 0 1 -16.0313,830.9021V872.8217A5.7163,5.7163 0 0 1 -21.7476,878.538H-29.3693A5.7163,5.7163 0 0 1 -35.0856,872.8217V830.9021A5.7163,5.7163 0 0 1 -29.3693,825.1858z" fill="#fff" stroke="#000" stroke-linecap="round" stroke-linejoin="round" stroke-width="5.0248"/>
<path d="M-1363.5918,1549.9816H-1191.1778A18.0569,18.0569 0 0 1 -1173.1208,1568.0385V1598.4605A18.0569,18.0569 0 0 1 -1191.1778,1616.5175H-1363.5918A18.0569,18.0569 0 0 1 -1381.6487,1598.4605V1568.0385A18.0569,18.0569 0 0 1 -1363.5918,1549.9816z" fill="#fff" stroke="#000" stroke-linecap="round" stroke-linejoin="round" stroke-width="2.7184" transform="matrix(1,0,.84988,.52697,0,0)"/>
<path d="M-1355.7497,1539.8573H-1183.3357A18.0569,18.0569 0 0 1 -1165.2787,1557.9142V1588.3362A18.0569,18.0569 0 0 1 -1183.3357,1606.3932H-1355.7497A18.0569,18.0569 0 0 1 -1373.8066,1588.3362V1557.9142A18.0569,18.0569 0 0 1 -1355.7497,1539.8573z" fill="#fff" stroke="#000" stroke-linecap="round" stroke-linejoin="round" stroke-width="2.7184" transform="matrix(1,0,.84988,.52697,0,0)"/>
</g>
<path d="M1761.4982,-1182.2065H1812.4091A9.4409,9.4409 0 0 1 1821.85,-1172.7656V-1148.9294A9.4409,9.4409 0 0 1 1812.4091,-1139.4885H1761.4982A9.4409,9.4409 0 0 1 1752.0573,-1148.9294V-1172.7656A9.4409,9.4409 0 0 1 1761.4982,-1182.2065z" fill="#fff" stroke="#000" stroke-linecap="round" stroke-linejoin="round" stroke-width="3.8211" transform="matrix(.852,0,.77958,.42199,-446.08203,1426.58618)"/>
<path d="M1769.5676,-1190.4218H1820.4785A9.4409,9.4409 0 0 1 1829.9194,-1180.9809V-1157.1447A9.4409,9.4409 0 0 1 1820.4785,-1147.7038H1769.5676A9.4409,9.4409 0 0 1 1760.1267,-1157.1447V-1180.9809A9.4409,9.4409 0 0 1 1769.5676,-1190.4218z" fill="#fff" stroke="#000" stroke-linecap="round" stroke-linejoin="round" stroke-width="3.8211" transform="matrix(.852,0,.77958,.42199,-446.08203,1426.58618)"/>
<path d="M469.2149,-567.1227H518.5548A9.8568,9.8568 0 0 1 528.4115,-557.266V-532.3799A9.8568,9.8568 0 0 1 518.5548,-522.5231H469.2149A9.8568,9.8568 0 0 1 459.3581,-532.3799V-557.266A9.8568,9.8568 0 0 1 469.2149,-567.1227z" fill="#fff" stroke="#000" stroke-linecap="round" stroke-linejoin="round" stroke-width="3.8836" transform="matrix(.852,0,-.40558,.9198,-446.08203,1426.58618)"/>
<text font-family="Bitstream Vera Sans" font-size="7.583" transform="matrix(.852,0,-.49236,1.0459,-473.85156,1334.71826)" x="554.3641" y="-386.9795">
     <tspan x="554.3641" y="-386.9795">MSI</tspan>
    </text>
<path d="m529.2253,-432.7306c0,2.8984-2.4733,5.2481-5.5243,5.2481-3.051,0-5.5243,-2.3496-5.5243,-5.2481 0,-2.8984 2.4733,-5.2481 5.5243,-5.2481 3.051,0 5.5243,2.3496 5.5243,5.2481z" fill="none" stroke="#000" stroke-linecap="round" stroke-linejoin="round" transform="matrix(1.35046,0,-.85326,1.6578,-880.09297,1644.04227)"/>
<g transform="matrix(.66081,0,0,.66081,405.69565,389.21098)">
<path d="M-1450.6932,1649.7776H-1278.2792A18.0569,18.0569 0 0 1 -1260.2222,1667.8345V1698.2565A18.0569,18.0569 0 0 1 -1278.2792,1716.3135H-1450.6932A18.0569,18.0569 0 0 1 -1468.7501,1698.2565V1667.8345A18.0569,18.0569 0 0 1 -1450.6932,1649.7776z" stroke="#000" stroke-linecap="round" stroke-linejoin="round" stroke-width="2.7184" transform="matrix(1,0,.84988,.52697,0,0)"/>
<path d="M6.0718,846.5267H13.6936A5.7163,5.7163 0 0 1 19.4099,852.243V894.1625A5.7163,5.7163 0 0 1 13.6936,899.8788H6.0718A5.7163,5.7163 0 0 1 .3555,894.1625V852.243A5.7163,5.7163 0 0 1 6.0718,846.5267z" fill="#fff" stroke="#000" stroke-linecap="round" stroke-linejoin="round" stroke-width="5.0248"/>
<path d="M151.2658,846.5267H158.8875A5.7163,5.7163 0 0 1 164.6038,852.243V894.1625A5.7163,5.7163 0 0 1 158.8875,899.8788H151.2658A5.7163,5.7163 0 0 1 145.5495,894.1625V852.243A5.7163,5.7163 0 0 1 151.2658,846.5267z" fill="#fff" stroke="#000" stroke-linecap="round" stroke-linejoin="round" stroke-width="5.0248"/>
<path d="M119.2545,829.7589H126.8762A5.7163,5.7163 0 0 1 132.5925,835.4751V877.3947A5.7163,5.7163 0 0 1 126.8762,883.111H119.2545A5.7163,5.7163 0 0 1 113.5382,877.3947V835.4751A5.7163,5.7163 0 0 1 119.2545,829.7589z" fill="#fff" stroke="#000" stroke-linecap="round" stroke-linejoin="round" stroke-width="5.0248"/>
<path d="M-29.3693,825.1858H-21.7476A5.7163,5.7163 0 0 1 -16.0313,830.9021V872.8217A5.7163,5.7163 0 0 1 -21.7476,878.538H-29.3693A5.7163,5.7163 0 0 1 -35.0856,872.8217V830.9021A5.7163,5.7163 0 0 1 -29.3693,825.1858z" fill="#fff" stroke="#000" stroke-linecap="round" stroke-linejoin="round" stroke-width="5.0248"/>
<path d="M-1363.5918,1549.9816H-1191.1778A18.0569,18.0569 0 0 1 -1173.1208,1568.0385V1598.4605A18.0569,18.0569 0 0 1 -1191.1778,1616.5175H-1363.5918A18.0569,18.0569 0 0 1 -1381.6487,1598.4605V1568.0385A18.0569,18.0569 0 0 1 -1363.5918,1549.9816z" fill="#fff" stroke="#000" stroke-linecap="round" stroke-linejoin="round" stroke-width="2.7184" transform="matrix(1,0,.84988,.52697,0,0)"/>
<path d="M-1355.7497,1539.8573H-1183.3357A18.0569,18.0569 0 0 1 -1165.2787,1557.9142V1588.3362A18.0569,18.0569 0 0 1 -1183.3357,1606.3932H-1355.7497A18.0569,18.0569 0 0 1 -1373.8066,1588.3362V1557.9142A18.0569,18.0569 0 0 1 -1355.7497,1539.8573z" fill="#fff" stroke="#000" stroke-linecap="round" stroke-linejoin="round" stroke-width="2.7184" transform="matrix(1,0,.84988,.52697,0,0)"/>
</g>
<path d="M1761.4982,-1182.2065H1812.4091A9.4409,9.4409 0 0 1 1821.85,-1172.7656V-1148.9294A9.4409,9.4409 0 0 1 1812.4091,-1139.4885H1761.4982A9.4409,9.4409 0 0 1 1752.0573,-1148.9294V-1172.7656A9.4409,9.4409 0 0 1 1761.4982,-1182.2065z" fill="#fff" stroke="#000" stroke-linecap="round" stroke-linejoin="round" stroke-width="3.8211" transform="matrix(.852,0,.77958,.42199,-171.58182,1426.26508)"/>
<path d="M1769.5676,-1190.4218H1820.4785A9.4409,9.4409 0 0 1 1829.9194,-1180.9809V-1157.1447A9.4409,9.4409 0 0 1 1820.4785,-1147.7038H1769.5676A9.4409,9.4409 0 0 1 1760.1267,-1157.1447V-1180.9809A9.4409,9.4409 0 0 1 1769.5676,-1190.4218z" fill="#fff" stroke="#000" stroke-linecap="round" stroke-linejoin="round" stroke-width="3.8211" transform="matrix(.852,0,.77958,.42199,-171.58182,1426.26508)"/>
<path d="M469.2149,-567.1227H518.5548A9.8568,9.8568 0 0 1 528.4115,-557.266V-532.3799A9.8568,9.8568 0 0 1 518.5548,-522.5231H469.2149A9.8568,9.8568 0 0 1 459.3581,-532.3799V-557.266A9.8568,9.8568 0 0 1 469.2149,-567.1227z" fill="#fff" stroke="#000" stroke-linecap="round" stroke-linejoin="round" stroke-width="3.8836" transform="matrix(.852,0,-.40558,.9198,-171.58182,1426.26508)"/>
<text font-family="Bitstream Vera Sans" font-size="7.583" transform="matrix(.852,0,-.49236,1.0459,-199.35135,1334.39716)" x="554.3641" y="-386.9795">
     <tspan x="554.3641" y="-386.9795">MSI</tspan>
    </text>
<path d="m529.2253,-432.7306c0,2.8984-2.4733,5.2481-5.5243,5.2481-3.051,0-5.5243,-2.3496-5.5243,-5.2481 0,-2.8984 2.4733,-5.2481 5.5243,-5.2481 3.051,0 5.5243,2.3496 5.5243,5.2481z" fill="none" stroke="#000" stroke-linecap="round" stroke-linejoin="round" transform="matrix(1.35046,0,-.85326,1.6578,-605.59275,1643.72118)"/>
<g transform="matrix(.66081,0,0,.66081,691.40993,389.21098)">
<path d="M-1450.6932,1649.7776H-1278.2792A18.0569,18.0569 0 0 1 -1260.2222,1667.8345V1698.2565A18.0569,18.0569 0 0 1 -1278.2792,1716.3135H-1450.6932A18.0569,18.0569 0 0 1 -1468.7501,1698.2565V1667.8345A18.0569,18.0569 0 0 1 -1450.6932,1649.7776z" stroke="#000" stroke-linecap="round" stroke-linejoin="round" stroke-width="2.7184" transform="matrix(1,0,.84988,.52697,0,0)"/>
<path d="M6.0718,846.5267H13.6936A5.7163,5.7163 0 0 1 19.4099,852.243V894.1625A5.7163,5.7163 0 0 1 13.6936,899.8788H6.0718A5.7163,5.7163 0 0 1 .3555,894.1625V852.243A5.7163,5.7163 0 0 1 6.0718,846.5267z" fill="#fff" stroke="#000" stroke-linecap="round" stroke-linejoin="round" stroke-width="5.0248"/>
<path d="M151.2658,846.5267H158.8875A5.7163,5.7163 0 0 1 164.6038,852.243V894.1625A5.7163,5.7163 0 0 1 158.8875,899.8788H151.2658A5.7163,5.7163 0 0 1 145.5495,894.1625V852.243A5.7163,5.7163 0 0 1 151.2658,846.5267z" fill="#fff" stroke="#000" stroke-linecap="round" stroke-linejoin="round" stroke-width="5.0248"/>
<path d="M119.2545,829.7589H126.8762A5.7163,5.7163 0 0 1 132.5925,835.4751V877.3947A5.7163,5.7163 0 0 1 126.8762,883.111H119.2545A5.7163,5.7163 0 0 1 113.5382,877.3947V835.4751A5.7163,5.7163 0 0 1 119.2545,829.7589z" fill="#fff" stroke="#000" stroke-linecap="round" stroke-linejoin="round" stroke-width="5.0248"/>
<path d="M-29.3693,825.1858H-21.7476A5.7163,5.7163 0 0 1 -16.0313,830.9021V872.8217A5.7163,5.7163 0 0 1 -21.7476,878.538H-29.3693A5.7163,5.7163 0 0 1 -35.0856,872.8217V830.9021A5.7163,5.7163 0 0 1 -29.3693,825.1858z" fill="#fff" stroke="#000" stroke-linecap="round" stroke-linejoin="round" stroke-width="5.0248"/>
<path d="M-1363.5918,1549.9816H-1191.1778A18.0569,18.0569 0 0 1 -1173.1208,1568.0385V1598.4605A18.0569,18.0569 0 0 1 -1191.1778,1616.5175H-1363.5918A18.0569,18.0569 0 0 1 -1381.6487,1598.4605V1568.0385A18.0569,18.0569 0 0 1 -1363.5918,1549.9816z" fill="#fff" stroke="#000" stroke-linecap="round" stroke-linejoin="round" stroke-width="2.7184" transform="matrix(1,0,.84988,.52697,0,0)"/>
<path d="M-1355.7497,1539.8573H-1183.3357A18.0569,18.0569 0 0 1 -1165.2787,1557.9142V1588.3362A18.0569,18.0569 0 0 1 -1183.3357,1606.3932H-1355.7497A18.0569,18.0569 0 0 1 -1373.8066,1588.3362V1557.9142A18.0569,18.0569 0 0 1 -1355.7497,1539.8573z" fill="#fff" stroke="#000" stroke-linecap="round" stroke-linejoin="round" stroke-width="2.7184" transform="matrix(1,0,.84988,.52697,0,0)"/>
</g>
<path d="M1761.4982,-1182.2065H1812.4091A9.4409,9.4409 0 0 1 1821.85,-1172.7656V-1148.9294A9.4409,9.4409 0 0 1 1812.4091,-1139.4885H1761.4982A9.4409,9.4409 0 0 1 1752.0573,-1148.9294V-1172.7656A9.4409,9.4409 0 0 1 1761.4982,-1182.2065z" fill="#fff" stroke="#000" stroke-linecap="round" stroke-linejoin="round" stroke-width="3.8211" transform="matrix(.852,0,.77958,.42199,114.13246,1426.26508)"/>
<path d="M1769.5676,-1190.4218H1820.4785A9.4409,9.4409 0 0 1 1829.9194,-1180.9809V-1157.1447A9.4409,9.4409 0 0 1 1820.4785,-1147.7038H1769.5676A9.4409,9.4409 0 0 1 1760.1267,-1157.1447V-1180.9809A9.4409,9.4409 0 0 1 1769.5676,-1190.4218z" fill="#fff" stroke="#000" stroke-linecap="round" stroke-linejoin="round" stroke-width="3.8211" transform="matrix(.852,0,.77958,.42199,114.13246,1426.26508)"/>
<path d="M469.2149,-567.1227H518.5548A9.8568,9.8568 0 0 1 528.4115,-557.266V-532.3799A9.8568,9.8568 0 0 1 518.5548,-522.5231H469.2149A9.8568,9.8568 0 0 1 459.3581,-532.3799V-557.266A9.8568,9.8568 0 0 1 469.2149,-567.1227z" fill="#fff" stroke="#000" stroke-linecap="round" stroke-linejoin="round" stroke-width="3.8836" transform="matrix(.852,0,-.40558,.9198,114.13246,1426.26508)"/>
<text font-family="Bitstream Vera Sans" font-size="7.583" transform="matrix(.852,0,-.49236,1.0459,86.36293,1334.39716)" x="554.3641" y="-386.9795">
     <tspan x="554.3641" y="-386.9795">MSI</tspan>
    </text>
<path d="m529.2253,-432.7306c0,2.8984-2.4733,5.2481-5.5243,5.2481-3.051,0-5.5243,-2.3496-5.5243,-5.2481 0,-2.8984 2.4733,-5.2481 5.5243,-5.2481 3.051,0 5.5243,2.3496 5.5243,5.2481z" fill="none" stroke="#000" stroke-linecap="round" stroke-linejoin="round" transform="matrix(1.35046,0,-.85326,1.6578,-319.87847,1643.72118)"/>
<path d="M72.8571,105.7143H254.2857A5.7143,5.7143 0 0 1 260,111.4286V128.5714A5.7143,5.7143 0 0 1 254.2857,134.2857H72.8571A5.7143,5.7143 0 0 1 67.1429,128.5714V111.4286A5.7143,5.7143 0 0 1 72.8571,105.7143z" fill="#fff" stroke="#000" stroke-linecap="round" stroke-linejoin="round" stroke-width="4" transform="translate(0,602.3622)"/>
<text font-family="Sans" font-size="20" letter-spacing="0" line-height="562.5" word-spacing="0" x="111.2472" y="729.8182">
   <tspan x="111.2472" y="729.8182">Utilisateur</tspan>
  </text>
<path d="M347.8571,706.648H529.2857A5.7143,5.7143 0 0 1 535,712.3622V729.5051A5.7143,5.7143 0 0 1 529.2857,735.2194H347.8571A5.7143,5.7143 0 0 1 342.1429,729.5051V712.3622A5.7143,5.7143 0 0 1 347.8571,706.648z" fill="#fff" stroke="#000" stroke-linecap="round" stroke-linejoin="round" stroke-width="4"/>
<text font-family="Sans" font-size="20" letter-spacing="0" line-height="562.5" word-spacing="0" x="407.0675" y="728.3897">
   <tspan x="407.0675" y="728.3897">Joueur</tspan>
  </text>
<path d="M637.8572,705.2194H819.2857A5.7143,5.7143 0 0 1 825,710.9336V728.0765A5.7143,5.7143 0 0 1 819.2857,733.7908H637.8572A5.7143,5.7143 0 0 1 632.1429,728.0765V710.9336A5.7143,5.7143 0 0 1 637.8572,705.2194z" fill="#fff" stroke="#000" stroke-linecap="round" stroke-linejoin="round" stroke-width="4"/>
<text font-family="Sans" font-size="20" letter-spacing="0" line-height="562.5" word-spacing="0" x="666.6511" y="726.9611">
   <tspan x="666.6511" y="726.9611">Dveloppeur</tspan>
  </text>
<text font-family="Sans" font-size="20" letter-spacing="0" line-height="562.5" word-spacing="0" x="155.6731" y="770.9336">
   <tspan text-align="center" text-anchor="middle" x="155.6731" y="770.9336">a rame ! Je dois avoir un</tspan>
   <tspan text-align="center" text-anchor="middle" x="155.6731" y="795.9336">virus ! Oh chouette, un</tspan>
   <tspan text-align="center" text-anchor="middle" x="155.6731" y="820.9336">scan gratuit de mon PC !</tspan>
  </text>
<path d="M180,225.7143 165,255" fill="none" stroke="#000" transform="translate(0,602.3622)"/>
<text font-family="Sans" font-size="20" letter-spacing="0" line-height="562.5" word-spacing="0" x="436.8325" y="768.7908">
   <tspan text-align="center" text-anchor="middle" x="436.8325" y="768.7908">a rame ! Je vais acheter</tspan>
   <tspan text-align="center" text-anchor="middle" x="436.8325" y="793.7908">de la RAM et changer la</tspan>
   <tspan text-align="center" text-anchor="middle" x="436.8325" y="818.7908">carte graphique !</tspan>
  </text>
<text font-family="Sans" font-size="20" letter-spacing="0" line-height="562.5" word-spacing="0" x="723.734" y="769.3084">
   <tspan text-align="center" text-anchor="middle" x="723.734" y="769.3084">a rame ! C'est cod avec</tspan>
   <tspan text-align="center" text-anchor="middle" x="723.734" y="794.3084">les pieds ce truc, je le</tspan>
   <tspan text-align="center" text-anchor="middle" x="723.734" y="819.3084">recode moi-mme !</tspan>
  </text>
<path d="M724.2857,224.2857 715,242.8571" fill="none" stroke="#000" transform="translate(0,602.3622)"/>
<path d="m467.1429,226.4286-14.2857,20" fill="none" stroke="#000" transform="translate(0,602.3622)"/>
</g>
</svg>
