<svg version="1.0" viewBox="0 0 900 450" xmlns="http://www.w3.org/2000/svg" xmlns:svg="http://www.w3.org/2000/svg" xmlns:xlink="http://www.w3.org/1999/xlink">
<path d="M-335.5134,756.1478H-145.3044A7.5735,7.5735 0 0 1 -137.7309,763.7213V800.0742A7.5735,7.5735 0 0 1 -145.3044,807.6478H-335.5134A7.5735,7.5735 0 0 1 -343.0869,800.0742V763.7213A7.5735,7.5735 0 0 1 -335.5134,756.1478z" stroke="#000" stroke-linecap="round" stroke-linejoin="round" stroke-width="5.8088" transform="matrix(1,0,.87861,.47753,0,0)"/>
<path d="M50.7935,80.9872H831.7954A31.621,31.621 0 0 1 863.4164,112.6082V360.957A31.621,31.621 0 0 1 831.7954,392.578H50.7935A31.621,31.621 0 0 1 19.1725,360.957V112.6082A31.621,31.621 0 0 1 50.7935,80.9872z" fill="#fff" stroke="#000" stroke-linecap="round" stroke-width="7.4907"/>
<path d="M623.2641,303.5714L862.1429,303.5714M335.1181,303.5714L588.9189,303.5714M52.2754,303.5714L296.4798,303.5714" fill="none" stroke="#000"/>
<path d="M588.4141,77.6726L588.4141,391.563" fill="none" stroke="#000" stroke-width="5.6784"/>
<path d="M296.704,76.9479L296.704,390.8384" fill="none" stroke="#000" stroke-width="5.6784"/>
<path d="M841.6309,411.8109C842.0702,412.3211 842.6664,412.3823 843.3011,412.4182C844.104,412.3966 844.9083,412.2044 845.6586,411.9189C846.0594,411.7663 846.281,411.6365 846.655,411.44C844.4164,412.7497 845.6627,412.0483 846.0812,411.6037C846.298,411.3733 846.4275,411.1306 846.5498,410.843C846.8675,409.9481 846.9087,408.9857 846.9629,408.046C847.0685,406.6781 846.7853,405.3351 846.4804,404.0108C846.1096,402.6178 845.6058,401.2642 845.0511,399.9351C844.7854,399.3072 844.485,398.695 844.1924,398.0795C843.798,397.3229 843.4755,397.7928 845.7028,396.9288C845.7795,396.899 845.7947,397.0655 845.8439,397.1315C845.9262,397.2421 846.0128,397.3494 846.0972,397.4584C846.9189,398.586 847.9071,399.5739 848.8973,400.5512C849.4799,401.1186 850.1047,401.6453 850.6618,402.2385C850.8732,402.4112 850.9996,402.6546 851.1698,402.8615C851.336,403.0116 851.466,402.8536 851.6129,402.7508C849.0473,404.2893 849.961,403.792 850.453,403.3203C850.6467,403.1345 850.8293,402.936 851.0148,402.7422C851.2781,402.4795 851.5275,402.1983 851.8158,401.9618C852.5768,401.3373 853.6385,400.8383 854.4255,400.3907C855.1526,400.0695 855.8965,399.7901 856.652,399.5439C856.8083,399.51 857.413,399.2775 857.551,399.4347C857.5832,399.4712 857.5962,399.5209 857.6187,399.5641C857.6219,399.6082 857.6341,399.6525 857.6281,399.6963C857.5846,400.016 857.0896,400.3879 856.8736,400.5867C855.8808,401.4075 854.9176,402.2612 854.0006,403.1659C853.2029,404.0216 852.379,404.8663 851.744,405.8534C851.3519,406.4699 851.1434,407.1506 851.0456,407.8678C850.9808,408.5092 850.9914,409.1551 850.9924,409.7989C851.0275,410.4988 851.1168,411.2 851.3251,411.8705C851.4446,412.2275 851.657,412.4899 851.9968,412.6467C852.2223,412.7262 852.4805,412.7785 852.7206,412.7331C852.7765,412.7226 853.2423,412.5648 853.2795,412.5523C853.8287,412.2526 855.1551,411.5518 852.6728,412.9122C852.5746,412.966 852.8618,412.7921 852.9549,412.7298C853.1687,412.5867 853.22,412.5447 853.4206,412.3951C853.6611,412.2151 853.5472,412.3026 853.763,412.1335L855.4821,411.4421C855.2642,411.6252 855.3809,411.5339 855.1305,411.714C854.1166,412.4968 852.9935,413.1448 851.8296,413.6751C851.3189,413.8275 850.9418,413.9005 850.4445,413.6653C850.0783,413.4588 849.839,413.1591 849.7102,412.7541C849.5061,412.0638 849.4291,411.3452 849.3621,410.6304C849.3582,409.9801 849.3475,409.3282 849.4001,408.6795C849.4929,407.9363 849.6888,407.227 850.0885,406.5839C850.1686,406.4507 850.2414,406.3128 850.3289,406.1843C850.5087,405.9203 850.777,405.6181 850.9819,405.3806C851.4345,404.8559 851.8975,404.3404 852.3757,403.8388C853.2675,402.9391 854.2075,402.0889 855.1822,401.2796C855.4584,401.0232 855.7441,400.7733 855.9824,400.4802C856.0219,400.5011 855.8946,400.4977 855.8503,400.5039C855.6292,400.5348 855.4165,400.6035 855.2037,400.668C854.4566,400.9146 853.717,401.1882 853.0078,401.5304C855.4524,400.0847 853.9826,400.9056 853.5048,401.2732C853.2138,401.4971 852.9648,401.7736 852.7095,402.0354C851.7838,403.0119 851.7306,403.1153 850.1645,403.9237C849.9078,404.045 849.7643,404.0306 849.5635,403.8196C849.4051,403.6102 849.2782,403.3766 849.0825,403.1964C848.5491,402.5939 847.9543,402.0472 847.3893,401.4751C846.4085,400.4768 845.4126,399.4902 844.5397,398.3933C844.4459,398.2879 844.352,398.1826 844.2583,398.0771C844.2062,398.0184 844.0429,397.952 844.1024,397.901C845.5165,396.687 845.4364,396.3692 845.8017,397.1707C846.0774,397.7987 846.368,398.4205 846.6188,399.0592C847.1437,400.4121 847.6277,401.7823 848.0241,403.1789C848.3426,404.5091 848.6576,405.8603 848.566,407.2388C848.5298,408.1873 848.4742,409.1532 848.2167,410.0706C848.1321,410.3053 848.1028,410.4251 847.9677,410.6399C847.3738,411.5834 846.0929,412.029 845.2511,412.5646C844.1797,413.0912 843.0398,413.4635 841.8339,413.4689C841.6662,413.4555 841.4973,413.4531 841.331,413.4286C840.8354,413.3557 840.3735,413.1391 840.0305,412.7718L841.6309,411.8109z" stroke="#000" stroke-linecap="round" stroke-linejoin="round" stroke-width=".2515"/>
<path d="M856.9954,409.6542C856.2561,409.8612 854.6534,410.8506 857.451,409.2498C857.063,409.4563 856.8326,409.7923 856.6511,410.1799C856.5475,410.4905 856.4369,410.831 856.4594,411.1644C856.475,411.3951 856.5349,411.5109 856.6134,411.7264C856.9205,412.3332 857.3928,412.8322 857.9533,413.2102C858.367,413.4983 858.8372,413.6294 859.3364,413.6354C859.7215,413.5479 860.0794,413.3979 860.4321,413.2231C860.5824,413.1486 861.023,412.9052 860.8788,412.9911C859.217,413.9803 859.6332,413.7133 860.2213,413.3105C860.7055,412.9376 861.2318,412.5049 861.3565,411.8706C861.3739,411.782 861.3727,411.6908 861.3807,411.6008C861.3487,410.8076 860.8475,410.1865 860.3638,409.6C860.059,409.2607 859.7137,408.9372 859.2969,408.739C859.0854,408.6385 858.9769,408.6206 858.7529,408.5611C858.301,408.5365 857.8274,408.5795 857.3983,408.7352C857.1999,408.8072 856.8993,408.9746 856.715,409.0721C859.2281,407.5643 857.5814,408.5597 857.0631,409.0105L855.3525,409.7103C856.1486,408.9446 857.2115,408.4934 858.1368,407.9334C858.4053,407.8028 858.5639,407.7126 858.8509,407.6254C859.3076,407.4867 859.7994,407.4543 860.2699,407.5237C860.5118,407.6009 860.6098,407.6203 860.837,407.7414C861.2601,407.9669 861.609,408.3093 861.9211,408.6669C862.4299,409.2933 862.9464,409.9425 863.0239,410.7763C863.0202,410.8775 863.0263,410.9796 863.0127,411.0799C862.9199,411.7624 862.4122,412.2475 861.896,412.6507C860.8948,413.3693 861.4078,413.0215 859.4724,414.1178C858.9681,414.4034 858.4165,414.6453 857.8373,414.7129C857.3155,414.6668 856.83,414.513 856.405,414.1963C855.8301,413.777 855.3467,413.2477 855.01,412.6169C854.9315,412.4114 854.8423,412.2157 854.8154,411.994C854.7734,411.6468 854.8889,411.282 854.9726,410.9511C855.1334,410.5425 855.3375,410.1552 855.7217,409.9153C856.6248,409.3955 857.4699,408.799 858.4774,408.521L856.9954,409.6542z" stroke="#000" stroke-linecap="round" stroke-linejoin="round" stroke-width=".2515"/>
<path d="M864.7916,410.4086C864.4713,410.5111 864.1386,410.5989 863.8342,410.7448C863.7319,410.7938 863.6359,410.8549 863.5368,410.9099C863.9575,410.6744 864.3782,410.4388 864.7989,410.2032C864.2995,410.5402 863.9289,410.877 863.7055,411.4418C863.5593,411.907 863.6294,412.3004 863.9978,412.6446C864.0868,412.7277 864.1913,412.7923 864.2881,412.8662C864.9923,413.2707 865.8259,413.4156 866.6325,413.33C866.8637,413.3054 867.0905,413.2494 867.3195,413.2092C867.8494,413.0723 868.0804,413.0343 868.5781,412.8254C868.7432,412.7561 869.2131,412.4949 869.0593,412.5867C866.8212,413.9232 867.8342,413.3409 868.1857,412.9851C868.2637,412.9062 868.3256,412.8129 868.3955,412.7268C868.702,412.2473 868.7099,411.8208 868.494,411.3098C868.4544,411.2201 868.226,410.7494 868.0649,410.8513C868.037,410.8689 868.0229,410.9022 868.0019,410.9276C870.5441,409.4779 869.5762,409.7203 869.3296,410.4268C869.2232,410.7317 869.2047,411.0282 869.19,411.3483C869.3666,412.8347 870.0233,414.2109 870.5627,415.5919C871.2186,417.4162 871.8508,419.3094 871.9236,421.2663C871.9381,421.6557 871.9002,422.0453 871.8884,422.4349C871.8303,422.8094 871.7977,423.1888 871.7139,423.5585C871.4407,424.7643 870.8191,425.8682 869.896,426.6954C869.7332,426.8413 869.549,426.9612 869.3756,427.0941C868.6814,427.4567 868.0211,427.8932 867.2931,428.1819C866.9914,428.3016 866.263,428.0519 866.0242,427.9455C865.1367,427.5499 864.3702,426.9 863.6162,426.3049C862.3443,425.216 861.099,424.0803 859.9611,422.8496C859.3716,422.212 859.2259,421.9974 858.7139,421.3379C858.2781,420.6108 857.7645,419.7678 858.1929,418.9108C858.4464,418.4036 858.7524,418.2196 859.1771,417.8503C860.4498,417.0256 860.554,416.9316 862.3966,415.9986C862.8463,415.7709 864.2966,415.2559 864.7404,415.101C865.6255,414.7922 866.5773,414.4863 867.4673,414.1955C869.8054,413.5211 872.0954,412.6996 874.3587,411.8091C874.5509,411.7274 874.7432,411.6463 874.9351,411.5641C875.0817,411.5012 875.2294,411.4407 875.3741,411.3737C875.6698,411.2366 875.9462,411.067 876.2513,410.9508C876.6652,410.8918 876.8103,411.39 876.9342,411.6926C877.2195,412.4632 877.3802,413.2712 877.4496,414.088C877.4667,414.454 877.4786,414.8217 877.4267,415.1855C877.4214,415.2227 877.4407,415.2805 877.4066,415.2964C876.8522,415.5546 876.2733,415.7565 875.7067,415.9866C875.7082,415.874 875.702,415.7611 875.7111,415.6488C875.7245,415.4855 875.7526,415.3238 875.7741,415.1614C875.8998,414.2135 876.0645,413.2783 876.2573,412.3419C876.4529,411.525 876.6217,410.6695 877.0885,409.9565C877.6171,409.4031 878.7928,408.3119 879.3653,408.947C879.4252,409.0135 879.4672,409.0942 879.5182,409.1678C879.6303,409.3659 879.727,409.5163 879.8003,409.7358C880.0064,410.3529 880.0989,411.0763 880.208,411.7182C880.3505,412.2737 880.2962,412.9389 880.4647,413.4836C880.6876,412.8849 880.4624,413.5114 878.8615,414.2747C878.8291,414.2902 878.9105,414.2212 878.9286,414.1902C878.9703,414.119 879.0519,413.9101 879.0837,413.846C879.1271,413.7584 879.1766,413.6741 879.223,413.5881C879.5241,413.1056 879.779,412.5956 880.1107,412.1329C880.6654,411.4379 881.1843,411.2862 882.1445,410.7585C882.1775,410.7404 882.2218,410.7509 882.2571,410.7637C882.3021,410.78 882.3371,410.8163 882.3771,410.8426C882.7526,411.2375 882.8834,411.7964 883.0102,412.3108C883.1204,412.8708 883.1793,413.4421 883.3842,413.9777C883.4341,414.0479 883.4748,414.1256 883.5338,414.1884C883.9636,414.6453 884.6745,414.9868 885.2608,415.1726C885.4814,415.2425 885.7086,415.2892 885.9325,415.3476C886.8807,415.5841 887.832,415.5959 888.7751,415.3366C888.9838,415.2792 889.1935,415.2194 889.3912,415.1312C889.5753,415.0491 889.7403,414.9293 889.9148,414.8284C889.5517,415.0157 889.2153,415.268 888.8254,415.3905C888.6751,415.4377 889.0593,415.1787 889.1666,415.0633C889.483,414.7232 889.6639,414.345 889.7912,413.9051C889.8786,413.5387 889.877,413.1623 889.8669,412.7885C889.7648,412.017 889.0831,412.7763 891.4431,411.8179C891.4861,411.8005 891.4179,411.9074 891.4106,411.9532C891.4001,412.0199 891.3969,412.0875 891.39,412.1546C891.3565,412.7625 891.3426,413.3718 891.4102,413.9775C891.479,414.3672 891.5535,414.7653 891.859,415.0388C892.0738,415.1803 892.3019,415.1899 892.5393,415.1123C893.1105,414.824 893.968,414.3239 891.3704,415.7904C891.2782,415.8424 891.5486,415.6761 891.6362,415.6167L893.3652,414.9293C893.2313,415.0392 893.2557,415.0278 893.1019,415.1177C892.5178,415.4592 891.7945,416.0296 891.0554,416.2376C890.7669,416.2685 890.4979,416.2058 890.2723,416.014C889.9583,415.6866 889.8558,415.2692 889.7858,414.829C889.7116,414.2163 889.7265,413.6008 889.7345,412.9845C889.7369,412.9022 889.7442,412.6162 889.75,412.6124C890.9731,411.8 891.3685,411.0311 891.5237,411.9392C891.5325,412.3321 891.5329,412.7272 891.4508,413.1138C891.0483,414.7177 889.9853,415.0831 888.524,415.9482C888.3443,416.0389 888.1721,416.1463 887.9849,416.2201C886.8594,416.6632 885.633,416.6276 884.4754,416.3501C884.2441,416.2888 884.0093,416.2396 883.7816,416.1661C883.1992,415.9782 882.3802,415.5761 881.9507,415.1243C881.88,415.0498 881.829,414.9588 881.7681,414.8761C881.564,414.3299 881.5051,413.751 881.4001,413.1801C881.2942,412.7378 881.189,412.1907 880.8235,411.8836C880.7373,411.8944 880.7818,411.8814 880.6926,411.9307C881.1866,411.6375 881.6807,411.3442 882.1747,411.051C882.2165,411.027 882.0982,411.1099 882.0632,411.143C881.9752,411.226 881.9039,411.3257 881.8089,411.4018C881.4543,411.8475 881.1985,412.3532 880.9024,412.838C880.791,413.0285 880.6991,413.2099 880.6282,413.4189C880.6138,413.4615 880.6298,413.5255 880.5912,413.5486C878.9195,414.5542 879.2903,414.9609 878.8237,414.375C878.6834,413.7834 878.7553,413.1555 878.6186,412.5611C878.4849,411.7293 878.382,410.8383 877.9298,410.1104C877.8512,410.0159 877.8174,409.9293 877.6925,409.9062C877.6586,409.8999 877.5606,409.9344 877.5897,409.9162C878.0745,409.6133 878.5778,409.3412 879.0678,409.0469C879.1118,409.0205 878.9717,409.0848 878.9282,409.1121C878.877,409.1443 878.833,409.1869 878.7853,409.2243C878.2341,409.8816 878.0679,410.769 877.845,411.5741C877.5939,412.735 877.3783,413.9122 877.3429,415.102C876.8015,415.4338 876.2711,415.7841 875.7188,416.0974C875.6884,416.1146 875.7491,416.0339 875.7588,416.0004C875.86,415.6524 875.8312,415.2842 875.8311,414.9273C875.7844,414.1288 875.6351,413.3348 875.3301,412.5921C875.2719,412.4578 875.165,412.0684 874.9614,412.0547C874.9142,412.0515 874.8276,412.0888 874.79,412.1023C874.1879,412.3704 873.6032,412.6781 872.9775,412.8923C870.7342,413.736 868.4718,414.5268 866.1712,415.2015C864.8359,415.6433 863.4911,416.0703 862.1832,416.5901C861.8068,416.7397 861.4621,416.9859 861.0651,417.0663C860.8611,417.1076 861.7663,416.6214 861.5793,416.7125C861.3065,416.8453 861.0637,417.0325 860.806,417.1925C860.3245,417.579 859.7341,417.9788 859.6201,418.645C859.5078,419.3008 859.9254,419.9071 860.2079,420.4507C860.3825,420.6894 860.5488,420.9345 860.7319,421.1667C861.9825,422.7527 863.5042,424.1135 865.0535,425.3981C865.8135,425.9656 866.5888,426.6002 867.4873,426.9443C867.6947,427.0237 867.9123,427.0839 868.133,427.1084C868.3212,427.1294 868.8025,426.9198 868.7005,427.0794C868.4882,427.4119 868.0497,427.5254 867.7242,427.7484C867.9064,427.6213 868.0991,427.5082 868.2706,427.367C869.2234,426.5831 869.8913,425.5009 870.1886,424.305C870.2789,423.9416 870.3142,423.5668 870.377,423.1977C870.3951,422.8135 870.4411,422.4296 870.4313,422.0451C870.3818,420.104 869.7234,418.2309 869.06,416.4305C868.4973,415.0387 867.8124,413.6666 867.5674,412.173C867.5591,411.8194 867.5678,411.5503 867.6534,411.2083C867.6582,411.1891 867.7531,410.8486 867.7954,410.8195C868.3382,410.4457 868.9163,410.1259 869.4768,409.779C869.5194,409.7824 869.5634,409.7779 869.6046,409.7892C869.8694,409.8616 869.9964,410.1902 870.107,410.4049C870.3427,410.9614 870.375,411.4566 870.0752,412.0032C870.0071,412.1006 869.9484,412.2052 869.8711,412.2955C869.319,412.9407 868.2147,413.3935 867.6527,413.7062C867.1153,414.0053 866.4969,414.1332 865.9057,414.2716C865.669,414.3071 865.4342,414.3586 865.1957,414.3781C864.3436,414.4476 863.4732,414.2947 862.7459,413.8373C862.6415,413.754 862.529,413.6799 862.4327,413.5873C862.0253,413.1959 861.8982,412.764 862.0329,412.2237C862.2361,411.5776 862.5547,411.2649 863.0977,410.8672C864.1457,410.2481 865.0931,409.5653 866.2735,409.2754L864.7916,410.4086z" stroke="#000" stroke-linecap="round" stroke-linejoin="round" stroke-width=".2515"/>
<path d="M890.2024,404.7589C889.9781,405.0221 889.7989,405.3233 889.7136,405.6596C889.6526,405.996 889.8532,406.0823 890.1291,406.203C890.5753,406.3664 890.9567,406.3484 891.4138,406.2676C892.0249,406.0581 892.9955,405.4611 890.2789,406.9597C890.2408,406.9807 890.3513,406.9106 890.3835,406.8813C890.4601,406.8114 890.4679,406.7825 890.518,406.6949C890.6103,406.4879 890.6012,406.2942 890.4824,406.1035C890.3243,405.9537 890.0866,405.9677 889.8826,405.9578C889.6719,405.9773 889.4713,406.0295 889.3,406.1559L890.7549,404.9842C890.962,404.9058 891.174,404.8563 891.3978,404.8741C891.664,404.9004 891.926,404.9382 892.0987,405.1657C892.2393,405.4023 892.2949,405.6469 892.2136,405.9169C891.9189,406.8062 890.7995,407.1657 889.9334,407.3774C889.472,407.4354 889.0158,407.4101 888.5819,407.2247C888.27,407.0638 887.9905,406.8624 888.0377,406.472C888.0953,406.1096 888.2721,405.7849 888.4844,405.4889L890.2024,404.7589z" stroke="#000" stroke-linecap="round" stroke-linejoin="round" stroke-width=".2515"/>
<path d="M866.3578,409.2907C866.7115,409.1188 867.049,408.9155 867.4139,408.7673C867.6425,408.6188 867.8934,408.5502 868.1608,408.5209C868.4069,408.5022 868.6539,408.5054 868.9004,408.5063C869.1451,408.4802 869.3524,408.5471 869.5674,408.652C869.7179,408.7726 869.8366,408.9329 869.9509,409.0878C870.0503,409.2683 870.1087,409.4709 870.1699,409.6676C870.2247,409.8691 870.2993,410.0617 870.3388,410.2677C870.3769,410.5094 870.3795,410.7548 870.3824,410.9989C870.3835,411.1248 870.3833,411.2507 870.3833,411.3766L868.7213,412.2233C868.7214,412.098 868.7217,411.9727 868.7211,411.8474C868.7194,411.6131 868.719,411.3779 868.6895,411.145C868.6567,410.9443 868.5833,410.7596 868.5299,410.5648C868.478,410.3879 868.422,410.2076 868.3417,410.0427C868.2439,409.9144 868.1487,409.768 868.0081,409.6849C867.8106,409.5991 867.6047,409.5936 867.3913,409.6028C867.15,409.6039 866.9071,409.6027 866.6682,409.6417C866.4156,409.6951 866.188,409.8038 865.958,409.9192C865.6001,410.0856 865.254,410.2764 864.9071,410.4644L866.3578,409.2907z" stroke="#000" stroke-linecap="round" stroke-linejoin="round" stroke-width=".2515"/>
<path d="M60.7207,45.6808H247.5989A15.9099,15.9099 0 0 1 263.5088,61.5907V61.5907A15.9099,15.9099 0 0 1 247.5989,77.5006H60.7207A15.9099,15.9099 0 0 1 44.8108,61.5907V61.5907A15.9099,15.9099 0 0 1 60.7207,45.6808z" fill="#fff" stroke="#000" stroke-linecap="round" stroke-linejoin="round" stroke-width="4"/>
<path d="M101.5203,44.9288A36.8706,34.8503 0 1 1 27.7792,44.9288A36.8706,34.8503 0 1 1 101.5203,44.9288z" stroke="#000" stroke-linecap="round" stroke-linejoin="round" stroke-width="7.491" transform="matrix(.7121,0,0,.7121,-.47556,23.3037)"/>
<text font-family="Bitstream Vera Sans" font-size="40" x="21.1737" y="69.3382">
   <tspan fill="#f9f9f9" x="21.1737" y="69.3382">22</tspan>
  </text>
<text font-family="Bitstream Vera Sans" font-size="20" x="111.084" y="68.3578">
   <tspan x="111.084" y="68.3578">Insomnie</tspan>
  </text>
<g id="g3243">
<path d="M127.8571,80.7143L127.8571,307.8571L19.2857,358.5714" fill="none" stroke="#000"/>
<g transform="translate(1.5152,6.0609)">
<path d="M897.0268,848.7417H1081.2599A10.8396,10.8396 0 0 1 1092.0995,859.5813V913.8722A10.8396,10.8396 0 0 1 1081.2599,924.7118H897.0268A10.8396,10.8396 0 0 1 886.1872,913.8722V859.5813A10.8396,10.8396 0 0 1 897.0268,848.7417z" stroke="#000" stroke-linecap="round" stroke-linejoin="round" stroke-width="3.2495" transform="matrix(.83324,0,-.78013,.2927,21.35462,71.88453)"/>
<path d="M889.2323,843.6788H1090.5679A7.4282,10.8396 0 0 1 1097.9961,854.5183V923.4512A7.4282,10.8396 0 0 1 1090.5679,934.2907H889.2323A7.4282,10.8396 0 0 1 881.8041,923.4512V854.5183A7.4282,10.8396 0 0 1 889.2323,843.6788z" stroke="#000" stroke-linecap="round" stroke-linejoin="round" stroke-width="3.2495" transform="matrix(.83324,0,-.78013,.2927,21.35462,71.88453)"/>
<path d="M65.5,318.1786H65.5A5.1786,5.1786 0 0 1 70.6786,323.3572V336.9286A5.1786,5.1786 0 0 1 65.5,342.1072H65.5A5.1786,5.1786 0 0 1 60.3214,336.9286V323.3572A5.1786,5.1786 0 0 1 65.5,318.1786z" fill="#fff" stroke="#000" stroke-linecap="round" stroke-linejoin="round" stroke-width="3"/>
<path d="M200.5357,318.5714H200.5357A5.1786,5.1786 0 0 1 205.7143,323.75V337.3214A5.1786,5.1786 0 0 1 200.5357,342.5H200.5357A5.1786,5.1786 0 0 1 195.3571,337.3214V323.75A5.1786,5.1786 0 0 1 200.5357,318.5714z" fill="#fff" stroke="#000" stroke-linecap="round" stroke-linejoin="round" stroke-width="3"/>
<path d="M246.0714,300.1786H246.0714A5.1786,5.1786 0 0 1 251.25,305.3571V318.9286A5.1786,5.1786 0 0 1 246.0714,324.1071H246.0714A5.1786,5.1786 0 0 1 240.8929,318.9286V305.3571A5.1786,5.1786 0 0 1 246.0714,300.1786z" fill="#fff" stroke="#000" stroke-linecap="round" stroke-linejoin="round" stroke-width="3"/>
<path d="M109.0714,301.25H109.0714A5.1786,5.1786 0 0 1 114.25,306.4286V320A5.1786,5.1786 0 0 1 109.0714,325.1786H109.0714A5.1786,5.1786 0 0 1 103.8929,320V306.4286A5.1786,5.1786 0 0 1 109.0714,301.25z" fill="#fff" stroke="#000" stroke-linecap="round" stroke-linejoin="round" stroke-width="3"/>
<g transform="matrix(.78777,0,0,.78777,28.28407,68.42998)">
<path d="M897.0268,848.7417H1081.2599A10.8396,10.8396 0 0 1 1092.0995,859.5813V913.8722A10.8396,10.8396 0 0 1 1081.2599,924.7118H897.0268A10.8396,10.8396 0 0 1 886.1872,913.8722V859.5813A10.8396,10.8396 0 0 1 897.0268,848.7417z" fill="#fff" stroke="#000" stroke-linecap="round" stroke-linejoin="round" stroke-width="3.2495" transform="matrix(1,0,-.93627,.35128,0,0)"/>
<path d="M892.6436,843.6788H1076.8768A10.8396,10.8396 0 0 1 1087.7164,854.5183V908.8093A10.8396,10.8396 0 0 1 1076.8768,919.6488H892.6436A10.8396,10.8396 0 0 1 881.8041,908.8093V854.5183A10.8396,10.8396 0 0 1 892.6436,843.6788z" fill="#fff" stroke="#000" stroke-linecap="round" stroke-linejoin="round" stroke-width="3.2495" transform="matrix(1,0,-.93627,.35128,0,0)"/>
<path d="M897.0268,848.7417H1081.2599A10.8396,10.8396 0 0 1 1092.0995,859.5813V913.8722A10.8396,10.8396 0 0 1 1081.2599,924.7118H897.0268A10.8396,10.8396 0 0 1 886.1872,913.8722V859.5813A10.8396,10.8396 0 0 1 897.0268,848.7417z" fill="#fff" stroke="#000" stroke-linecap="round" stroke-linejoin="round" stroke-width="3.2495" transform="matrix(1,0,-.93627,.35128,.35714,-3.10356)"/>
<path d="M892.6436,843.6788H1076.8768A10.8396,10.8396 0 0 1 1087.7164,854.5183V908.8093A10.8396,10.8396 0 0 1 1076.8768,919.6488H892.6436A10.8396,10.8396 0 0 1 881.8041,908.8093V854.5183A10.8396,10.8396 0 0 1 892.6436,843.6788z" fill="#fff" stroke="#000" stroke-linecap="round" stroke-linejoin="round" stroke-width="3.2495" transform="matrix(1,0,-.93627,.35128,.35714,-3.10356)"/>
<path d="M897.0268,848.7417H1081.2599A10.8396,10.8396 0 0 1 1092.0995,859.5813V913.8722A10.8396,10.8396 0 0 1 1081.2599,924.7118H897.0268A10.8396,10.8396 0 0 1 886.1872,913.8722V859.5813A10.8396,10.8396 0 0 1 897.0268,848.7417z" fill="#fff" stroke="#000" stroke-linecap="round" stroke-linejoin="round" stroke-width="3.2495" transform="matrix(1,0,-.93627,.35128,.62499,-6.63035)"/>
<path d="M892.6436,843.6788H1076.8768A10.8396,10.8396 0 0 1 1087.7164,854.5183V908.8093A10.8396,10.8396 0 0 1 1076.8768,919.6488H892.6436A10.8396,10.8396 0 0 1 881.8041,908.8093V854.5183A10.8396,10.8396 0 0 1 892.6436,843.6788z" fill="#fff" stroke="#000" stroke-linecap="round" stroke-linejoin="round" stroke-width="3.2495" transform="matrix(1,0,-.93627,.35128,.62499,-6.63035)"/>
</g>
<path d="M56.5646,288.9126H108.7179A3.0109,3.0109 0 0 1 111.7287,291.9235V333.6315A3.0109,3.0109 0 0 1 108.7179,336.6423H56.5646A3.0109,3.0109 0 0 1 53.5537,333.6315V291.9235A3.0109,3.0109 0 0 1 56.5646,288.9126z" fill="#fff" stroke="#000" stroke-linecap="round" stroke-linejoin="round" stroke-width="3.1126" transform="matrix(.92897,-.37014,0,1,0,0)"/>
<path d="M59.5549,290.6508H111.7082A3.0109,3.0109 0 0 1 114.7191,293.6617V335.3696A3.0109,3.0109 0 0 1 111.7082,338.3805H59.5549A3.0109,3.0109 0 0 1 56.544,335.3696V293.6617A3.0109,3.0109 0 0 1 59.5549,290.6508z" fill="#fff" stroke="#000" stroke-linecap="round" stroke-linejoin="round" stroke-width="3.1126" transform="matrix(.92897,-.37014,0,1,0,0)"/>
<path d="m119.198,282.6935c0,8.996-23.4045,16.2887-52.2754,16.2887-28.8709,0-52.2754,-7.2927-52.2754,-16.2887 0,-8.996 23.4045,-16.2887 52.2754,-16.2887 28.8709,0 52.2754,7.2927 52.2754,16.2887z" fill="#fff" stroke="#000" stroke-linecap="round" stroke-linejoin="round" stroke-width="3" transform="matrix(.59838,-.3161,.28511,.66342,-31.37157,130.4461)"/>
<g transform="matrix(.51148,-.46605,.46605,.51148,7.0746,60.92532)">
<path d="M-43.5297,288.8057L-43.5297,336.6941C-43.5297,356.7011-59.6364,372.8078-79.6434,372.8078L-115.0774,372.8078C-135.0844,372.8078-151.1912,356.7011-151.1912,336.6941L-151.1912,288.8057" fill="#fff" stroke="#000" stroke-linecap="round" stroke-linejoin="round" stroke-width="3.6422"/>
<path d="M-122.1431,308.6171H-98.6091A.7803,.7803 0 0 1 -97.8288,309.3974V319.4235A.7803,.7803 0 0 1 -98.6091,320.2038H-122.1431A.7803,.7803 0 0 1 -122.9234,319.4235V309.3974A.7803,.7803 0 0 1 -122.1431,308.6171z" stroke="#000" stroke-linecap="square" stroke-linejoin="round" stroke-width="3.7338"/>
<path d="M-80.7522,308.6171H-60.3393A2.3409,2.3409 0 0 1 -57.9985,310.958V317.8629A2.3409,2.3409 0 0 1 -60.3393,320.2038H-80.7522A2.3409,2.3409 0 0 1 -83.093,317.8629V310.958A2.3409,2.3409 0 0 1 -80.7522,308.6171z" stroke="#000" stroke-linecap="square" stroke-linejoin="round" stroke-width="3.7338"/>
<path d="M-148.8829,313.6717C-148.3338,313.6822-147.7844,313.6785-147.2351,313.6758C-146.8722,313.6736-146.5092,313.6722-146.1462,313.6715C-145.8537,313.6711-145.5613,313.6711-145.2688,313.6711C-144.9647,313.6705-144.6607,313.6717-144.3567,313.6723C-143.966,313.6626-143.5814,313.6719-143.1947,313.723C-142.7951,313.7775-142.3916,313.7947-141.9885,313.8057C-141.5833,313.7899-141.1856,313.8646-140.7845,313.9048C-140.3766,313.9415-139.9665,313.9454-139.5571,313.9498C-139.1269,313.9521-138.6968,313.9519-138.2666,313.9504C-137.893,313.9497-137.5194,313.9491-137.1458,313.9482C-136.8388,313.9474-136.5318,313.9472-136.2247,313.9471C-135.9332,313.947-135.6418,313.947-135.3502,313.947C-135.0587,313.947-134.7672,313.947-134.4756,313.947C-134.1569,313.9467-133.8382,313.9476-133.5196,313.949C-133.1253,313.9514-132.731,313.9494-132.3367,313.9484C-131.9659,313.9481-131.595,313.9488-131.2241,313.9499C-130.8274,313.9497-130.4307,313.9498-130.0339,313.9488C-129.654,313.949-129.274,313.9495-128.894,313.949C-128.5484,313.9477-128.2029,313.9475-127.8573,313.9492C-127.3241,313.9518-126.7909,313.9534-126.2577,313.9553C-125.5311,313.9581-124.8045,313.9587-124.0778,313.9563C-123.5446,313.9549-123.0113,313.9511-122.4781,313.9509C-122.0368,313.9515-121.5955,313.9508-121.1542,313.9493C-121.0931,313.9491-121.032,313.949-120.9709,313.9488L-122.7169,315.1481C-122.7774,315.1478-122.8379,315.1476-122.8984,315.1474C-123.3383,315.1459-123.7781,315.1453-124.218,315.1459C-124.7459,315.1457-125.2739,315.1418-125.8018,315.1405C-126.5294,315.1381-127.2571,315.1387-127.9846,315.1415C-128.5238,315.1434-129.0628,315.145-129.6019,315.1476C-129.9477,315.1493-130.2936,315.1491-130.6394,315.1478C-131.0195,315.1473-131.3996,315.1478-131.7797,315.148C-132.1754,315.147-132.5711,315.1471-132.9668,315.1469C-133.3391,315.1479-133.7115,315.1487-134.0838,315.1484C-134.4775,315.1474-134.8712,315.1454-135.2648,315.1478C-135.5854,315.1492-135.9059,315.1501-136.2265,315.1497C-136.5181,315.1497-136.8096,315.1497-137.1012,315.1497C-137.3926,315.1497-137.684,315.1497-137.9755,315.1497C-138.2815,315.1495-138.5875,315.1493-138.8935,315.1487C-139.2655,315.148-139.6375,315.1479-140.0095,315.1478C-140.4397,315.147-140.8698,315.1485-141.3,315.1437C-141.7147,315.1381-142.1302,315.1292-142.5427,315.0843C-142.9395,315.0397-143.3348,314.9871-143.7358,314.9973C-144.1436,314.9822-144.5506,314.9538-144.955,314.9006C-145.3371,314.8601-145.7204,314.8714-146.1043,314.8727C-146.4095,314.8733-146.7146,314.8745-147.0198,314.8739C-147.3119,314.8739-147.604,314.8739-147.8961,314.8735C-148.255,314.8728-148.6138,314.8714-148.9726,314.8693C-149.5259,314.8665-150.0792,314.863-150.6323,314.8733L-148.8829,313.6717z" stroke="#000" stroke-linecap="square" stroke-linejoin="round" stroke-width=".4767"/>
<path d="M-57.3881,313.9484C-56.6843,313.9602-55.9802,313.9586-55.2763,313.9581C-54.631,313.9572-53.9858,313.9554-53.3406,313.9525C-52.9094,313.9502-52.4782,313.9501-52.047,313.9495C-51.7073,313.9487-51.3675,313.9479-51.0277,313.9474C-50.7309,313.9691-50.4456,313.8899-50.1539,313.8518C-49.8613,313.8177-49.5662,313.8128-49.2718,313.8093C-48.9796,313.8072-48.6875,313.8081-48.3953,313.8085C-48.1035,313.8089-47.8117,313.809-47.5199,313.8091C-47.2282,313.8091-46.9364,313.8091-46.6446,313.8091C-46.3528,313.8091-46.061,313.8091-45.7692,313.8091C-45.4559,313.8085-45.1426,313.8102-44.8294,313.8103C-44.5121,313.81-44.1949,313.8096-43.8776,313.8093C-43.5838,313.8091-43.29,313.8091-42.9962,313.8091C-42.8018,313.8091-42.899,313.8091-42.7047,313.8091L-44.4556,315.0118C-44.6499,315.0118-44.5527,315.0118-44.7471,315.0118C-45.0407,315.0118-45.3343,315.0118-45.6279,315.0116C-45.9442,315.0113-46.2606,315.0109-46.577,315.0106C-46.8913,315.0107-47.2057,315.0124-47.5201,315.0118C-47.8119,315.0118-48.1037,315.0118-48.3955,315.0118C-48.6873,315.0118-48.9791,315.0118-49.2709,315.0117C-49.5627,315.0115-49.8545,315.0113-50.1463,315.011C-50.4376,315.0107-50.7289,315.0099-51.0202,315.0153C-51.3095,315.0227-51.5993,315.0348-51.8855,315.0788C-52.1815,315.1241-52.476,315.1695-52.7776,315.1494C-53.1153,315.1489-53.453,315.1481-53.7908,315.1473C-54.219,315.1467-54.6473,315.1466-55.0755,315.1442C-55.7153,315.1413-56.3552,315.1395-56.995,315.1387C-57.7084,315.1382-58.4219,315.1368-59.1352,315.1484L-57.3881,313.9484z" stroke="#000" stroke-linecap="square" stroke-linejoin="round" stroke-width=".4767"/>
<path d="M-97.681,314.1116C-97.1471,314.1792-96.6084,314.2005-96.0705,314.2165C-95.5904,314.228-95.1101,314.228-94.63,314.2268C-94.2335,314.2263-93.8371,314.2261-93.4407,314.2252C-92.6449,314.2456-91.8487,314.2356-91.0528,314.2319C-90.5718,314.2284-90.0909,314.2269-89.6099,314.225C-89.2264,314.225-88.8429,314.2245-88.4594,314.2256C-88.0562,314.2268-87.653,314.2246-87.2498,314.2253C-86.886,314.2244-86.5221,314.2245-86.1583,314.2246C-85.794,314.2251-85.4296,314.2248-85.0652,314.2241C-84.7171,314.2253-84.3691,314.2242-84.021,314.2236C-83.6805,314.2251-83.3399,314.2241-82.9994,314.2236C-82.6986,314.2232-82.3977,314.223-82.0969,314.223C-81.8453,314.2815-81.5923,314.3235-81.3342,314.3439C-81.0543,314.3611-80.7736,314.3611-80.4933,314.3619C-80.2016,314.3621-79.9099,314.3615-79.6182,314.3612C-79.4722,314.3611-79.3262,314.361-79.1802,314.361L-80.931,315.5637C-81.077,315.5638-81.223,315.5639-81.369,315.564C-81.661,315.5644-81.953,315.5651-82.245,315.5636C-82.5302,315.5612-82.816,315.5587-83.0999,315.5305C-83.3505,315.5012-83.5959,315.4409-83.8477,315.4256C-84.1479,315.4255-84.4481,315.4254-84.7483,315.4249C-85.0888,315.4245-85.4293,315.4235-85.7698,315.4249C-86.1175,315.4243-86.4651,315.4233-86.8128,315.4244C-87.1766,315.4237-87.5405,315.4234-87.9044,315.4239C-88.2676,315.4241-88.6307,315.4241-88.9939,315.4233C-89.3968,315.4239-89.7997,315.4217-90.2026,315.423C-90.5867,315.424-90.9708,315.4235-91.3549,315.4236C-91.8291,315.4216-92.3032,315.4202-92.7774,315.4166C-93.5801,315.4129-94.3831,315.4034-95.1857,315.424C-95.5815,315.4235-95.9772,315.4244-96.373,315.4236C-96.8515,315.4207-97.33,315.417-97.8082,315.401C-98.3559,315.3799-98.9029,315.3472-99.4483,315.2941L-97.681,314.1116z" stroke="#000" stroke-linecap="square" stroke-linejoin="round" stroke-width=".4767"/>
<path d="M-136.1855,276.2983L-136.1855,294.8415" fill="none" stroke="#000" stroke-linecap="round" stroke-width="4.8046"/>
<path d="M-126.6615,274.544L-126.6615,293.0872" fill="none" stroke="#000" stroke-linecap="round" stroke-width="4.8046"/>
<path d="M-117.7245,276.0083L-117.7245,294.5515" fill="none" stroke="#000" stroke-linecap="round" stroke-width="4.8046"/>
<path d="M-106.0478,274.841L-106.0478,293.3843" fill="none" stroke="#000" stroke-linecap="round" stroke-width="4.8046"/>
<path d="M-95.8892,277.0276L-95.8892,295.5709" fill="none" stroke="#000" stroke-linecap="round" stroke-width="4.8046"/>
<path d="M-84.2599,276.8522L-84.2599,295.3955" fill="none" stroke="#000" stroke-linecap="round" stroke-width="4.8046"/>
<path d="M-73.7574,275.1381L-73.7574,293.6813" fill="none" stroke="#000" stroke-linecap="round" stroke-width="4.8046"/>
<path d="M-63.8419,278.175L-63.8419,296.7182" fill="none" stroke="#000" stroke-linecap="round" stroke-width="4.8046"/>
<path d="M-53.169,277.8063L-53.169,296.3495" fill="none" stroke="#000" stroke-linecap="round" stroke-width="4.8046"/>
<path d="M-105.8017,352.8807L-78.6788,348.4525" fill="none" stroke="#000" stroke-width=".7749"/>
<path d="M-144.0697,281.0285L-144.0697,299.5717" fill="none" stroke="#000" stroke-linecap="round" stroke-width="4.8046"/>
</g>
<path d="M544.093,485.8747L671.8726,509.2581C676.2932,509.2581 682.4378,520.8165 682.4378,525.237L677.1111,532.895L669.4671,541.8191C669.4671,546.2396 655.7755,555.3366 651.3549,555.3366L556.7591,554.7213C552.3385,554.7213 536.1137,538.2401 536.1137,533.8195L536.1137,493.8541C536.1137,489.4335 539.6725,485.8747 544.093,485.8747z" fill="#fff" stroke="#000" stroke-linecap="round" stroke-linejoin="round" stroke-width="2.2309" transform="matrix(1,0,-.81434,.58039,0,0)"/>
<text font-family="Bitstream Vera Sans" font-size="20" x="138.5714" y="212.1429">
     <tspan x="138.5714" y="212.1429">Need dormir...</tspan>
    </text>
</g>
<g transform="matrix(.84711,3.4528965e-2,0,.84711,24.94725,20.07421)">
<path d="M186.7857,117.1429H235.3571A26.7857,26.7857 0 0 1 262.1429,143.9286V143.9286A26.7857,26.7857 0 0 1 235.3571,170.7143H186.7857A26.7857,26.7857 0 0 1 160,143.9286V143.9286A26.7857,26.7857 0 0 1 186.7857,117.1429z" fill="#fff" stroke="#000" stroke-linecap="round" stroke-linejoin="round" stroke-width="3"/>
<path d="M190.7143,120.8441H231.9264A22.7273,22.7273 0 0 1 254.6537,143.5714V143.5714A22.7273,22.7273 0 0 1 231.9264,166.2987H190.7143A22.7273,22.7273 0 0 1 167.987,143.5714V143.5714A22.7273,22.7273 0 0 1 190.7143,120.8441z" fill="#fff" stroke="#000" stroke-linecap="round" stroke-linejoin="round" stroke-width="2.5455"/>
</g>
<path d="M165,225.7143L151.4286,247.8571" fill="none" stroke="#000"/>
<g transform="matrix(1,-.4337,0,1,-284.70774,102.83225)">
<path d="M326.5116,222.628H392.0598A.3121,.3121 0 0 1 392.372,222.9401V269.582A.3121,.3121 0 0 1 392.0598,269.8941H326.5116A.3121,.3121 0 0 1 326.1995,269.582V222.9401A.3121,.3121 0 0 1 326.5116,222.628z" fill="#fff" stroke="#000" stroke-linecap="round" stroke-linejoin="round" stroke-width="3"/>
<path d="M336.9926,228.5714H381.2065A2.893,2.893 0 0 1 384.0996,231.4645V261.3927A2.893,2.893 0 0 1 381.2065,264.2857H336.9926A2.893,2.893 0 0 1 334.0996,261.3927V231.4645A2.893,2.893 0 0 1 336.9926,228.5714z" fill="#fff" stroke="#000" stroke-linecap="round" stroke-linejoin="round" stroke-width="3"/>
<path d="m446.8915,78.4154c0,2.9289-27.5427,5.3033-61.5183,5.3033-33.9756,0-61.5183,-2.3744-61.5183,-5.3033 0,-2.9289 27.5427,-5.3033 61.5183,-5.3033 33.9756,0 61.5183,2.3744 61.5183,5.3033z" stroke="#000" stroke-linecap="round" stroke-width="4.862" transform="matrix(-.21053,0,0,.21053,439.75226,241.07749)"/>
<g transform="matrix(-.21053,0,0,.21053,338.13918,178.49256)">
<path d="M-43.5297,288.8057L-43.5297,336.6941C-43.5297,356.7011-59.6364,372.8078-79.6434,372.8078L-115.0774,372.8078C-135.0844,372.8078-151.1912,356.7011-151.1912,336.6941L-151.1912,288.8057" fill="#fff" stroke="#000" stroke-linecap="round" stroke-linejoin="round" stroke-width="3.6422"/>
<path d="M-122.1431,308.6171H-98.6091A.7803,.7803 0 0 1 -97.8288,309.3974V319.4235A.7803,.7803 0 0 1 -98.6091,320.2038H-122.1431A.7803,.7803 0 0 1 -122.9234,319.4235V309.3974A.7803,.7803 0 0 1 -122.1431,308.6171z" stroke="#000" stroke-linecap="square" stroke-linejoin="round" stroke-width="3.7338"/>
<path d="M-80.7522,308.6171H-60.3393A2.3409,2.3409 0 0 1 -57.9985,310.958V317.8629A2.3409,2.3409 0 0 1 -60.3393,320.2038H-80.7522A2.3409,2.3409 0 0 1 -83.093,317.8629V310.958A2.3409,2.3409 0 0 1 -80.7522,308.6171z" stroke="#000" stroke-linecap="square" stroke-linejoin="round" stroke-width="3.7338"/>
<path d="M-148.8829,313.6717C-148.3338,313.6822-147.7844,313.6785-147.2351,313.6758C-146.8722,313.6736-146.5092,313.6722-146.1462,313.6715C-145.8537,313.6711-145.5613,313.6711-145.2688,313.6711C-144.9647,313.6705-144.6607,313.6717-144.3567,313.6723C-143.966,313.6626-143.5814,313.6719-143.1947,313.723C-142.7951,313.7775-142.3916,313.7947-141.9885,313.8057C-141.5833,313.7899-141.1856,313.8646-140.7845,313.9048C-140.3766,313.9415-139.9665,313.9454-139.5571,313.9498C-139.1269,313.9521-138.6968,313.9519-138.2666,313.9504C-137.893,313.9497-137.5194,313.9491-137.1458,313.9482C-136.8388,313.9474-136.5318,313.9472-136.2247,313.9471C-135.9332,313.947-135.6418,313.947-135.3502,313.947C-135.0587,313.947-134.7672,313.947-134.4756,313.947C-134.1569,313.9467-133.8382,313.9476-133.5196,313.949C-133.1253,313.9514-132.731,313.9494-132.3367,313.9484C-131.9659,313.9481-131.595,313.9488-131.2241,313.9499C-130.8274,313.9497-130.4307,313.9498-130.0339,313.9488C-129.654,313.949-129.274,313.9495-128.894,313.949C-128.5484,313.9477-128.2029,313.9475-127.8573,313.9492C-127.3241,313.9518-126.7909,313.9534-126.2577,313.9553C-125.5311,313.9581-124.8045,313.9587-124.0778,313.9563C-123.5446,313.9549-123.0113,313.9511-122.4781,313.9509C-122.0368,313.9515-121.5955,313.9508-121.1542,313.9493C-121.0931,313.9491-121.032,313.949-120.9709,313.9488L-122.7169,315.1481C-122.7774,315.1478-122.8379,315.1476-122.8984,315.1474C-123.3383,315.1459-123.7781,315.1453-124.218,315.1459C-124.7459,315.1457-125.2739,315.1418-125.8018,315.1405C-126.5294,315.1381-127.2571,315.1387-127.9846,315.1415C-128.5238,315.1434-129.0628,315.145-129.6019,315.1476C-129.9477,315.1493-130.2936,315.1491-130.6394,315.1478C-131.0195,315.1473-131.3996,315.1478-131.7797,315.148C-132.1754,315.147-132.5711,315.1471-132.9668,315.1469C-133.3391,315.1479-133.7115,315.1487-134.0838,315.1484C-134.4775,315.1474-134.8712,315.1454-135.2648,315.1478C-135.5854,315.1492-135.9059,315.1501-136.2265,315.1497C-136.5181,315.1497-136.8096,315.1497-137.1012,315.1497C-137.3926,315.1497-137.684,315.1497-137.9755,315.1497C-138.2815,315.1495-138.5875,315.1493-138.8935,315.1487C-139.2655,315.148-139.6375,315.1479-140.0095,315.1478C-140.4397,315.147-140.8698,315.1485-141.3,315.1437C-141.7147,315.1381-142.1302,315.1292-142.5427,315.0843C-142.9395,315.0397-143.3348,314.9871-143.7358,314.9973C-144.1436,314.9822-144.5506,314.9538-144.955,314.9006C-145.3371,314.8601-145.7204,314.8714-146.1043,314.8727C-146.4095,314.8733-146.7146,314.8745-147.0198,314.8739C-147.3119,314.8739-147.604,314.8739-147.8961,314.8735C-148.255,314.8728-148.6138,314.8714-148.9726,314.8693C-149.5259,314.8665-150.0792,314.863-150.6323,314.8733L-148.8829,313.6717z" stroke="#000" stroke-linecap="square" stroke-linejoin="round" stroke-width=".4767"/>
<path d="M-57.3881,313.9484C-56.6843,313.9602-55.9802,313.9586-55.2763,313.9581C-54.631,313.9572-53.9858,313.9554-53.3406,313.9525C-52.9094,313.9502-52.4782,313.9501-52.047,313.9495C-51.7073,313.9487-51.3675,313.9479-51.0277,313.9474C-50.7309,313.9691-50.4456,313.8899-50.1539,313.8518C-49.8613,313.8177-49.5662,313.8128-49.2718,313.8093C-48.9796,313.8072-48.6875,313.8081-48.3953,313.8085C-48.1035,313.8089-47.8117,313.809-47.5199,313.8091C-47.2282,313.8091-46.9364,313.8091-46.6446,313.8091C-46.3528,313.8091-46.061,313.8091-45.7692,313.8091C-45.4559,313.8085-45.1426,313.8102-44.8294,313.8103C-44.5121,313.81-44.1949,313.8096-43.8776,313.8093C-43.5838,313.8091-43.29,313.8091-42.9962,313.8091C-42.8018,313.8091-42.899,313.8091-42.7047,313.8091L-44.4556,315.0118C-44.6499,315.0118-44.5527,315.0118-44.7471,315.0118C-45.0407,315.0118-45.3343,315.0118-45.6279,315.0116C-45.9442,315.0113-46.2606,315.0109-46.577,315.0106C-46.8913,315.0107-47.2057,315.0124-47.5201,315.0118C-47.8119,315.0118-48.1037,315.0118-48.3955,315.0118C-48.6873,315.0118-48.9791,315.0118-49.2709,315.0117C-49.5627,315.0115-49.8545,315.0113-50.1463,315.011C-50.4376,315.0107-50.7289,315.0099-51.0202,315.0153C-51.3095,315.0227-51.5993,315.0348-51.8855,315.0788C-52.1815,315.1241-52.476,315.1695-52.7776,315.1494C-53.1153,315.1489-53.453,315.1481-53.7908,315.1473C-54.219,315.1467-54.6473,315.1466-55.0755,315.1442C-55.7153,315.1413-56.3552,315.1395-56.995,315.1387C-57.7084,315.1382-58.4219,315.1368-59.1352,315.1484L-57.3881,313.9484z" stroke="#000" stroke-linecap="square" stroke-linejoin="round" stroke-width=".4767"/>
<path d="M-97.681,314.1116C-97.1471,314.1792-96.6084,314.2005-96.0705,314.2165C-95.5904,314.228-95.1101,314.228-94.63,314.2268C-94.2335,314.2263-93.8371,314.2261-93.4407,314.2252C-92.6449,314.2456-91.8487,314.2356-91.0528,314.2319C-90.5718,314.2284-90.0909,314.2269-89.6099,314.225C-89.2264,314.225-88.8429,314.2245-88.4594,314.2256C-88.0562,314.2268-87.653,314.2246-87.2498,314.2253C-86.886,314.2244-86.5221,314.2245-86.1583,314.2246C-85.794,314.2251-85.4296,314.2248-85.0652,314.2241C-84.7171,314.2253-84.3691,314.2242-84.021,314.2236C-83.6805,314.2251-83.3399,314.2241-82.9994,314.2236C-82.6986,314.2232-82.3977,314.223-82.0969,314.223C-81.8453,314.2815-81.5923,314.3235-81.3342,314.3439C-81.0543,314.3611-80.7736,314.3611-80.4933,314.3619C-80.2016,314.3621-79.9099,314.3615-79.6182,314.3612C-79.4722,314.3611-79.3262,314.361-79.1802,314.361L-80.931,315.5637C-81.077,315.5638-81.223,315.5639-81.369,315.564C-81.661,315.5644-81.953,315.5651-82.245,315.5636C-82.5302,315.5612-82.816,315.5587-83.0999,315.5305C-83.3505,315.5012-83.5959,315.4409-83.8477,315.4256C-84.1479,315.4255-84.4481,315.4254-84.7483,315.4249C-85.0888,315.4245-85.4293,315.4235-85.7698,315.4249C-86.1175,315.4243-86.4651,315.4233-86.8128,315.4244C-87.1766,315.4237-87.5405,315.4234-87.9044,315.4239C-88.2676,315.4241-88.6307,315.4241-88.9939,315.4233C-89.3968,315.4239-89.7997,315.4217-90.2026,315.423C-90.5867,315.424-90.9708,315.4235-91.3549,315.4236C-91.8291,315.4216-92.3032,315.4202-92.7774,315.4166C-93.5801,315.4129-94.3831,315.4034-95.1857,315.424C-95.5815,315.4235-95.9772,315.4244-96.373,315.4236C-96.8515,315.4207-97.33,315.417-97.8082,315.401C-98.3559,315.3799-98.9029,315.3472-99.4483,315.2941L-97.681,314.1116z" stroke="#000" stroke-linecap="square" stroke-linejoin="round" stroke-width=".4767"/>
<path d="M-136.1855,276.2983L-136.1855,294.8415" fill="none" stroke="#000" stroke-linecap="round" stroke-width="4.8046"/>
<path d="M-126.6615,274.544L-126.6615,293.0872" fill="none" stroke="#000" stroke-linecap="round" stroke-width="4.8046"/>
<path d="M-117.7245,276.0083L-117.7245,294.5515" fill="none" stroke="#000" stroke-linecap="round" stroke-width="4.8046"/>
<path d="M-106.0478,274.841L-106.0478,293.3843" fill="none" stroke="#000" stroke-linecap="round" stroke-width="4.8046"/>
<path d="M-95.8892,277.0276L-95.8892,295.5709" fill="none" stroke="#000" stroke-linecap="round" stroke-width="4.8046"/>
<path d="M-84.2599,276.8522L-84.2599,295.3955" fill="none" stroke="#000" stroke-linecap="round" stroke-width="4.8046"/>
<path d="M-73.7574,275.1381L-73.7574,293.6813" fill="none" stroke="#000" stroke-linecap="round" stroke-width="4.8046"/>
<path d="M-63.8419,278.175L-63.8419,296.7182" fill="none" stroke="#000" stroke-linecap="round" stroke-width="4.8046"/>
<path d="M-53.169,277.8063L-53.169,296.3495" fill="none" stroke="#000" stroke-linecap="round" stroke-width="4.8046"/>
<path d="M-105.8017,352.8807L-78.6788,348.4525" fill="none" stroke="#000" stroke-width=".7749"/>
<path d="M-144.0697,281.0285L-144.0697,299.5717" fill="none" stroke="#000" stroke-linecap="round" stroke-width="4.8046"/>
</g>
<g transform="translate(2)">
<path d="M357.5,181.0714L336.4286,222.8571" fill="none" stroke="#000"/>
<path d="M357.6215,181.0342L378.693,222.8199" fill="none" stroke="#000"/>
<path d="m381.4286,150.8929c0,.6904-.7195,1.25-1.6071,1.25-.8876,0-1.6071,-.5596-1.6071,-1.25 0,-.6904 .7195,-1.25 1.6071,-1.25 .8876,0 1.6071,.5596 1.6071,1.25z" fill="#fff" stroke="#000" stroke-linecap="round" stroke-linejoin="round" stroke-width="3" transform="translate(-22.1429,30.7143)"/>
</g>
<path d="M327.6659,224.0638L335.1659,230.1353" fill="none" stroke="#000"/>
<path d="M327.37,268.8673L334.5129,263.3316" fill="none" stroke="#000"/>
<path d="M384.8035,229.4516L391.4106,223.5587" fill="none" stroke="#000"/>
<path d="M384.6556,262.6046L390.5484,268.676" fill="none" stroke="#000"/>
</g>
</g>
<text font-family="Bitstream Vera Sans" font-size="17.454" transform="skewY(2.091)" x="170.2491" y="151.7597">
   <tspan font-family="Standard Symbols L" font-size="30" x="170.2491" y="151.7597">01:30</tspan>
  </text>
<use height="450" id="use3323" transform="translate(283.2493)" width="900" x="0" xlink:href="#g3243" y="0"/>
<text font-family="Bitstream Vera Sans" font-size="20" transform="skewY(1.743)" x="450.5206" y="144.3836">
   <tspan font-family="Standard Symbols L" font-size="32" x="450.5206" y="144.3836">03:00</tspan>
  </text>
<use height="450" transform="translate(285.6396)" width="900" x="0" xlink:href="#use3323" y="0"/>
<text font-family="Bitstream Vera Sans" font-size="20" transform="skewY(2.091)" x="735.9351" y="130.8308">
   <tspan font-family="Standard Symbols L" font-size="32" x="735.9351" y="130.8308">07:30</tspan>
  </text>
<path d="m297.591,360.6629 7.1709,-2.9879" fill="none" stroke="#000"/>
</svg>
