<svg version="1.1" viewBox="0 0 900 450" xmlns="http://www.w3.org/2000/svg" xmlns:svg="http://www.w3.org/2000/svg" xmlns:xlink="http://www.w3.org/1999/xlink">
<g transform="translate(0,-602.3622)">
<g transform="translate(-1.0739,-8.7129)">
<path d="M49.7619,685.9382H830.7638A31.621,31.621 0 0 1 862.3848,717.5592V965.908A31.621,31.621 0 0 1 830.7638,997.529H49.7619A31.621,31.621 0 0 1 18.1409,965.908V717.5592A31.621,31.621 0 0 1 49.7619,685.9382z" fill="#fff" stroke="#000" stroke-linecap="round" stroke-width="7.4907"/>
<path d="M47.6627,653.346H298.8266A15.6552,15.6552 0 0 1 314.4818,669.0012V669.0012A15.6552,15.6552 0 0 1 298.8266,684.6564H47.6627A15.6552,15.6552 0 0 1 32.0075,669.0012V669.0012A15.6552,15.6552 0 0 1 47.6627,653.346z" fill="#fff" stroke="#000" stroke-linecap="round" stroke-linejoin="round" stroke-width="4.5094" transform="matrix(1,-.00315,.00315,1,0,0)"/>
<path d="m101.5203,44.9288c0,19.2473-16.5075,34.8503-36.8706,34.8503-20.3631,0-36.8706,-15.603-36.8706,-34.8503 0,-19.2473 16.5075,-34.8503 36.8706,-34.8503 20.3631,0 36.8706,15.603 36.8706,34.8503z" stroke="#000" stroke-linecap="round" stroke-linejoin="round" stroke-width="7.491" transform="matrix(1.24255,-.00391,.00217,.68917,-24.05631,630.39443)"/>
<text font-family="Bitstream Vera Sans" font-size="40" transform="matrix(1,-.00315,.00315,1,0,0)" x="17.4067" y="676.187">
    <tspan fill="#f9f9f9" x="17.4067" y="676.187">221</tspan>
   </text>
<text font-family="Bitstream Vera Sans" font-size="20" transform="matrix(1,-.00315,.00315,1,0,0)" x="158.0088" y="676.1462">
    <tspan x="158.0088" y="676.1462">Brevets</tspan>
   </text>
<g transform="translate(-1.2557,-5.8749)">
<path d="m839.4465,1023.3074c.4393,.5102 1.0355,.5714 1.6702,.6073 .8029,-.022 1.6072,-.2138 2.3575,-.4993 .4009,-.1526 .6224,-.2825 .9965,-.4789-2.2387,1.3097-.9924,.6082-.5738,.1636 .2168,-.2303 .3463,-.473 .4686,-.7606 .3177,-.895 .3589,-1.8574 .4131,-2.7971 .1056,-1.3679-.1776,-2.7109-.4825,-4.0351-.3709,-1.393-.8746,-2.7467-1.4294,-4.0758-.2656,-.6279-.5661,-1.24-.8587,-1.8555-.3944,-.7567-.717,-.2868 1.5104,-1.1508 .0768,-.03 .0919,.1367 .1411,.2027 .0824,.1106 .1689,.2179 .2534,.3269 .8217,1.1276 1.8098,2.1155 2.8001,3.0928 .5826,.5674 1.2074,1.0941 1.7645,1.6874 .2114,.1726 .3378,.416 .508,.6229 .1662,.1502 .2962,-.01 .4431,-.1106-2.5656,1.5384-1.6519,1.0412-1.16,.5694 .1937,-.1857 .3764,-.3843 .5619,-.5781 .2632,-.2626 .5127,-.5438 .801,-.7804 .761,-.6244 1.8227,-1.1234 2.6097,-1.5711 .7271,-.3211 1.471,-.6005 2.2265,-.8467 .1563,-.034 .761,-.2665 .899,-.1093 .0321,.037 .0451,.086 .0677,.1294 .003,.044 .0154,.089 .009,.1323-.0436,.3196-.5385,.6915-.7545,.8904-.9928,.8207-1.9561,1.6745-2.8731,2.5792-.7976,.8557-1.6216,1.7004-2.2566,2.6874-.3921,.6165-.6005,1.2972-.6984,2.0144-.0648,.6415-.0542,1.2873-.0532,1.9312 .0351,.6998 .1244,1.4011 .3328,2.0715 .1195,.3571 .3319,.6194 .6717,.7762 .2255,.08 .4837,.1318 .7238,.087 .0559,-.011 .5216,-.1684 .5589,-.1808 .5492,-.2997 1.8756,-1.0005-.6067,.3598-.0982,.054 .1891,-.1201 .2821,-.1824 .2138,-.143 .2651,-.1851 .4657,-.3346 .2405,-.18 .1266,-.092 .3424,-.2617l1.7191,-.6913c-.2178,.1831-.1012,.092-.3516,.2719-1.0139,.7828-2.137,1.4308-3.3009,1.9611-.5107,.1524-.8878,.2254-1.3851,-.01-.3662,-.2066-.6055,-.5062-.7343,-.9112-.2041,-.6903-.2811,-1.409-.3481,-2.1238-.004,-.6502-.0146,-1.3021 .038,-1.9509 .0928,-.7431 .2887,-1.4524 .6884,-2.0955 .0802,-.1333 .153,-.2712 .2404,-.3997 .1797,-.264 .4481,-.5661 .6529,-.8036 .4526,-.5248 .9157,-1.0402 1.3938,-1.5419 .8918,-.8997 1.8318,-1.7498 2.8066,-2.5592 .2761,-.2564 .5618,-.5063 .8001,-.7993 .0396,.021-.0878,.017-.1321,.024-.221,.031-.4338,.1-.6466,.1641-.7471,.2466-1.4866,.5202-2.1959,.8624 2.4446,-1.4457 .9748,-.6248 .497,-.2572-.291,.2239-.54,.5004-.7953,.7622-.9257,.9765-.9789,1.08-2.5451,1.8884-.2567,.1212-.4002,.1068-.6009,-.1041-.1584,-.2095-.2853,-.4431-.481,-.6233-.5334,-.6025-1.1282,-1.1492-1.6932,-1.7213-.9808,-.9983-1.9768,-1.9849-2.8496,-3.0818-.0938,-.1054-.1877,-.2107-.2814,-.3162-.0521,-.059-.2154,-.1251-.1559,-.1761 1.4141,-1.214 1.334,-1.5318 1.6993,-.7303 .2757,.628 .5663,1.2498 .8171,1.8885 .5249,1.3529 1.0089,2.7231 1.4053,4.1197 .3185,1.3302 .6335,2.6815 .5419,4.06-.0362,.9485-.0918,1.9144-.3493,2.8318-.0847,.2347-.1139,.3545-.249,.5692-.5939,.9436-1.8747,1.3891-2.7166,1.9248-1.0714,.5265-2.2113,.8989-3.4172,.9043-.1676,-.014-.3365,-.016-.5029,-.04-.4955,-.073-.9575,-.2895-1.3004,-.6569l1.6003,-.9608z" stroke="#000" stroke-linecap="round" stroke-linejoin="round" stroke-width=".2515"/>
<path d="m854.8111,1021.1506c-.7394,.2071-2.342,1.1965 .4555,-.4044-.388,.2065-.6184,.5425-.7999,.9302-.1036,.3106-.2142,.6511-.1917,.9845 .0156,.2306 .0756,.3465 .154,.562 .3071,.6068 .7795,1.1058 1.3399,1.4838 .4137,.2881 .8839,.4192 1.383,.4252 .3851,-.087 .7431,-.2375 1.0957,-.4123 .1503,-.075 .5909,-.3179 .4467,-.2321-1.6618,.9893-1.2456,.7222-.6575,.3195 .4842,-.373 1.0105,-.8057 1.1352,-1.4399 .0174,-.089 .0162,-.1799 .0243,-.2698-.032,-.7933-.5333,-1.4143-1.0169,-2.0008-.3049,-.3393-.6501,-.6629-1.0669,-.861-.2115,-.1006-.32,-.1184-.544,-.1779-.4519,-.025-.9255,.018-1.3546,.1741-.1984,.072-.499,.2393-.6834,.3368 2.5132,-1.5077 .8665,-.5123 .3482,-.062l-1.7106,.6997c.796,-.7657 1.8589,-1.2168 2.7842,-1.7768 .2686,-.1306 .4271,-.2209 .7141,-.308 .4568,-.1387 .9485,-.1711 1.419,-.1018 .2419,.077 .34,.097 .5672,.2178 .4231,.2254 .772,.5679 1.084,.9255 .5088,.6264 1.0253,1.2756 1.1028,2.1094-.004,.1012 .002,.2032-.0112,.3036-.0928,.6824-.6005,1.1675-1.1167,1.5707-1.0013,.7187-.4882,.3709-2.4236,1.4672-.5043,.2856-1.0559,.5275-1.6351,.5951-.5218,-.046-1.0072,-.1999-1.4323,-.5166-.5749,-.4193-1.0583,-.9487-1.3949,-1.5794-.0786,-.2055-.1678,-.4012-.1946,-.6229-.0421,-.3472 .0735,-.7121 .1572,-1.043 .1608,-.4085 .3649,-.7958 .7491,-1.0357 .9031,-.5198 1.7482,-1.1163 2.7557,-1.3944l-1.4819,1.1332z" stroke="#000" stroke-linecap="round" stroke-linejoin="round" stroke-width=".2515"/>
<path d="m862.6073,1021.9051c-.3203,.1024-.653,.1903-.9574,.3362-.1022,.049-.1982,.1101-.2973,.1651 .4207,-.2356 .8414,-.4712 1.2621,-.7068-.4994,.337-.87,.6738-1.0934,1.2386-.1462,.4653-.0761,.8587 .2923,1.2028 .0889,.083 .1935,.1478 .2903,.2216 .7042,.4046 1.5378,.5494 2.3444,.4638 .2312,-.024 .458,-.081 .687,-.1208 .53,-.1368 .7609,-.1749 1.2586,-.3838 .1651,-.069 .635,-.3304 .4812,-.2386-2.2382,1.3365-1.2251,.7542-.8736,.3984 .0779,-.079 .1399,-.1722 .2098,-.2583 .3065,-.4795 .3144,-.9061 .0985,-1.417-.0396,-.09-.268,-.5604-.4291,-.4586-.0279,.018-.042,.051-.063,.076 2.5422,-1.4497 1.5743,-1.2073 1.3278,-.5008-.1064,.3049-.125,.6013-.1396,.9215 .1766,1.4863 .8332,2.8626 1.3726,4.2435 .6559,1.8244 1.2881,3.7176 1.3609,5.6745 .0145,.3894-.0234,.779-.0352,1.1686-.0582,.3745-.0908,.7539-.1745,1.1236-.2732,1.2059-.8948,2.3097-1.8179,3.137-.1627,.1458-.3469,.2657-.5204,.3986-.6941,.3626-1.3545,.7991-2.0824,1.0879-.3018,.1197-1.0302,-.13-1.269,-.2365-.8875,-.3956-1.654,-1.0455-2.408,-1.6406-1.2719,-1.0888-2.5172,-2.2246-3.6551,-3.4553-.5895,-.6376-.7352,-.8522-1.2473,-1.5117-.4358,-.7271-.9494,-1.5701-.521,-2.4271 .2535,-.5072 .5596,-.6912 .9842,-1.0605 1.2727,-.8247 1.3769,-.9187 3.2195,-1.8517 .4497,-.2278 1.9,-.7427 2.3438,-.8976 .8851,-.3088 1.8369,-.6147 2.7269,-.9055 2.3381,-.6745 4.6281,-1.4959 6.8915,-2.3865 .1921,-.082 .3845,-.1627 .5764,-.245 .1466,-.063 .2943,-.1233 .439,-.1903 .2958,-.1371 .5721,-.3067 .8773,-.4229 .4138,-.059 .559,.4391 .6828,.7418 .2853,.7705 .446,1.5785 .5154,2.3954 .0171,.366 .029,.7336-.0228,1.0975-.005,.037 .0139,.095-.0201,.1109-.5544,.2582-1.1333,.4601-1.6999,.6901 10e-4,-.1125-.005,-.2255 .004,-.3377 .0133,-.1633 .0414,-.325 .063,-.4874 .1257,-.9479 .2903,-1.8832 .4832,-2.8196 .1955,-.8168 .3644,-1.6723 .8312,-2.3853 .5286,-.5535 1.7043,-1.6447 2.2768,-1.0096 .06,.066 .1019,.1472 .1529,.2208 .112,.1981 .2088,.3486 .2821,.5681 .2061,.6171 .2986,1.3405 .4077,1.9824 .1424,.5555 .0881,1.2207 .2567,1.7654 .2229,-.5987-.002,.028-1.6032,.7911-.0325,.016 .0489,-.053 .0671,-.084 .0417,-.071 .1233,-.2801 .1551,-.3443 .0434,-.088 .0929,-.1719 .1393,-.2578 .3011,-.4825 .556,-.9925 .8877,-1.4553 .5547,-.695 1.0736,-.8467 2.0338,-1.3743 .0329,-.018 .0773,-.01 .1126,.01 .045,.016 .08,.053 .12,.079 .3755,.395 .5063,.9539 .6331,1.4682 .1102,.5601 .1692,1.1313 .374,1.667 .0499,.07 .0906,.1479 .1496,.2106 .4298,.457 1.1407,.7985 1.727,.9843 .2206,.07 .4479,.1166 .6718,.1749 .9481,.2366 1.8995,.2484 2.8425,-.011 .2087,-.057 .4184,-.1173 .6161,-.2054 .1842,-.082 .3491,-.2019 .5237,-.3029-.3631,.1874-.6996,.4397-1.0894,.5622-.1503,.047 .2339,-.2118 .3412,-.3272 .3164,-.3401 .4973,-.7183 .6246,-1.1582 .0873,-.3664 .0858,-.7428 .0757,-1.1166-.1021,-.7716-.7838,-.012 1.5762,-.9706 .043,-.018-.0252,.089-.0325,.1353-.0105,.067-.0137,.1342-.0206,.2013-.0335,.608-.0474,1.2173 .0202,1.823 .0688,.3897 .1433,.7878 .4487,1.0613 .2149,.1415 .443,.1511 .6803,.073 .5712,-.2882 1.4287,-.7883-1.1689,.6782-.0922,.052 .1782,-.1143 .2658,-.1737l1.729,-.6875c-.1338,.1099-.1095,.099-.2632,.1885-.5841,.3415-1.3074,.9119-2.0466,1.1199-.2885,.031-.5575,-.032-.7831,-.2236-.314,-.3274-.4165,-.7448-.4864,-1.185-.0743,-.6127-.0594,-1.2282-.0514,-1.8445 .002,-.082 .01,-.3683 .0155,-.3721 1.2231,-.8124 1.6186,-1.5813 1.7738,-.6732 .009,.3928 .009,.788-.0729,1.1745-.4026,1.604-1.4656,1.9694-2.9269,2.8345-.1797,.091-.3518,.1981-.539,.2718-1.1255,.4432-2.3519,.4076-3.5096,.1301-.2313,-.061-.4661,-.1105-.6938,-.184-.5824,-.188-1.4014,-.59-1.8309,-1.0418-.0707,-.074-.1217,-.1655-.1826,-.2482-.2042,-.5463-.263,-1.1251-.3681,-1.696-.1059,-.4424-.211,-.9895-.5766,-1.2965-.0863,.011-.0417,0-.1309,.047 .494,-.2932 .9881,-.5865 1.4821,-.8797 .0418,-.024-.0765,.059-.1115,.092-.088,.083-.1593,.1828-.2543,.2588-.3546,.4458-.6103,.9514-.9065,1.4362-.1113,.1906-.2033,.372-.2742,.581-.0144,.043 .002,.1065-.037,.1297-1.6718,1.0056-1.301,1.4123-1.7676,.8263-.1403,-.5915-.0684,-1.2195-.2051,-1.8138-.1337,-.8319-.2366,-1.7229-.6888,-2.4507-.0786,-.095-.1124,-.1812-.2373,-.2043-.0338,-.01-.1319,.028-.1027,.01 .4848,-.3029 .9881,-.5749 1.4781,-.8692 .044,-.026-.0961,.038-.1396,.065-.0513,.032-.0953,.075-.1429,.1121-.5512,.6573-.7174,1.5447-.9403,2.3499-.2511,1.1608-.4667,2.3381-.5021,3.5279-.5413,.3318-1.0717,.6821-1.624,.9953-.0304,.017 .0302,-.063 .04,-.097 .1011,-.3479 .0723,-.7161 .0723,-1.073-.0467,-.7985-.196,-1.5926-.501,-2.3352-.0582,-.1343-.1651,-.5237-.3687,-.5375-.0472,0-.1338,.034-.1714,.048-.6021,.2681-1.1868,.5757-1.8125,.79-2.2433,.8437-4.5057,1.6345-6.8063,2.3092-1.3354,.4418-2.6801,.8688-3.988,1.3886-.3765,.1496-.7211,.3958-1.1182,.4762-.2039,.041 .7012,-.4449 .5142,-.3538-.2728,.1328-.5155,.32-.7733,.48-.4814,.3865-1.0718,.7863-1.1859,1.4525-.1123,.6558 .3053,1.2621 .5878,1.8057 .1747,.2387 .3409,.4838 .524,.716 1.2506,1.586 2.7724,2.9468 4.3216,4.2314 .7601,.5675 1.5353,1.2021 2.4338,1.5462 .2074,.08 .4249,.1396 .6456,.1642 .1883,.021 .6695,-.1887 .5676,-.029-.2124,.3325-.6509,.446-.9763,.669 .1821,-.1272 .3749,-.2403 .5464,-.3815 .9528,-.7839 1.6207,-1.8661 1.9179,-3.062 .0903,-.3634 .1256,-.7382 .1884,-1.1073 .0181,-.3842 .0641,-.7681 .0543,-1.1526-.0495,-1.9411-.7079,-3.8142-1.3712,-5.6146-.5628,-1.3919-1.2476,-2.7639-1.4927,-4.2575-.008,-.3536 3.7e-4,-.6227 .086,-.9648 .005,-.019 .0997,-.3596 .142,-.3887 .5428,-.3739 1.1209,-.6937 1.6814,-1.0405 .0426,0 .0866,0 .1279,.01 .2648,.072 .3917,.4009 .5024,.6157 .2357,.5565 .268,1.0516-.0318,1.5983-.068,.097-.1268,.202-.2041,.2923-.5521,.6452-1.6564,1.098-2.2184,1.4107-.5375,.2991-1.1558,.4269-1.747,.5654-.2367,.036-.4715,.087-.7101,.1065-.852,.069-1.7224,-.083-2.4498,-.5408-.1044,-.083-.2169,-.1575-.3133,-.25-.4073,-.3914-.5345,-.8233-.3997,-1.3636 .2032,-.6461 .5218,-.9588 1.0648,-1.3565 1.0479,-.6191 1.9953,-1.302 3.1758,-1.5918l-1.4819,1.1332z" stroke="#000" stroke-linecap="round" stroke-linejoin="round" stroke-width=".2515"/>
<path d="m888.0182,1016.2554c-.2243,.2631-.4035,.5643-.4888,.9007-.0611,.3364 .1396,.4226 .4154,.5433 .4462,.1634 .8277,.1455 1.2847,.065 .6111,-.2095 1.5817,-.8066-1.1348,.692-.0381,.021 .0724,-.049 .1046,-.078 .0766,-.07 .0844,-.099 .1345,-.1863 .0923,-.207 .0832,-.4008-.0356,-.5915-.1581,-.1498-.3958,-.1357-.5998,-.1457-.2107,.019-.4113,.072-.5826,.1981l1.4548,-1.1716c.2072,-.078 .4191,-.128 .6429,-.1102 .2663,.026 .5282,.064 .7009,.2917 .1406,.2365 .1962,.4811 .1149,.7512-.2947,.8892-1.4141,1.2487-2.2802,1.4605-.4615,.058-.9177,.033-1.3515,-.1528-.3119,-.1609-.5915,-.3623-.5442,-.7527 .0576,-.3624 .2344,-.687 .4467,-.9831l1.718,-.7299z" stroke="#000" stroke-linecap="round" stroke-linejoin="round" stroke-width=".2515"/>
<path d="m864.1735,1020.7872c.3537,-.172 .6913,-.3752 1.0561,-.5235 .2286,-.1485 .4794,-.217 .7469,-.2463 .246,-.019 .4931,-.016 .7396,-.015 .2447,-.026 .452,.041 .667,.1458 .1505,.1206 .2692,.2808 .3835,.4358 .0994,.1805 .1578,.383 .2189,.5797 .0548,.2016 .1295,.3942 .169,.6001 .038,.2418 .0406,.4871 .0436,.7313 10e-4,.1259 8.9e-4,.2518 8.9e-4,.3777l-1.662,.8466c1.3e-4,-.1253 3.8e-4,-.2505-1.3e-4,-.3758-.002,-.2343-.002,-.4696-.0316,-.7024-.0328,-.2008-.1062,-.3854-.1597,-.5802-.0519,-.177-.1078,-.3572-.1882,-.5221-.0978,-.1283-.193,-.2748-.3336,-.3578-.1975,-.086-.4034,-.091-.6168,-.082-.2413,0-.4842,-10e-5-.7231,.039-.2526,.054-.4803,.1622-.7103,.2776-.3579,.1664-.704,.3572-1.0509,.5451l1.4507,-1.1736z" stroke="#000" stroke-linecap="round" stroke-linejoin="round" stroke-width=".2515"/>
</g>
<path d="m290.5627,686.8961 0,313.2704" fill="none" stroke="#000" stroke-width="5.6728"/>
<path d="m586.3743,686.9951 0,303.442 0,10.4485" fill="none" stroke="#000" stroke-width="5.6784"/>
</g>
<path d="m18.1827,921.0424 846.5078,0" fill="none" stroke="#000"/>
<path d="m446.8915,78.4154a61.5183,5.3033 0 1 1 -123.0366,0 61.5183,5.3033 0 1 1 123.0366,0z" id="shadow" stroke="#000" stroke-linecap="round" stroke-width="4.862" transform="matrix(.87305,0,0,.87305,-234.7636,883.68638)"/>
<path d="m147.8173,879.265 0,41.8089c0,17.4671-14.0619,31.529-31.5291,31.529l-30.9356,0c-17.4671,0-31.529,-14.062-31.529,-31.529l0,-41.8089" fill="#fff" id="body" stroke="#000" stroke-linecap="round" stroke-linejoin="round" stroke-width="3.0298"/>
<path d="m60.0409,872.4751 0,16.1891" fill="none" stroke="#000" stroke-linecap="round" stroke-width="4.2417"/>
<path d="m66.9242,868.3454 0,16.1892" fill="none" stroke="#000" stroke-linecap="round" stroke-width="4.2417"/>
<path d="m75.2392,866.8138 0,16.1891" fill="none" stroke="#000" stroke-linecap="round" stroke-width="4.2417"/>
<path d="m83.0415,868.0922 0,16.1891" fill="none" stroke="#000" stroke-linecap="round" stroke-width="4.2417"/>
<path d="m93.2359,867.0732 0,16.1892" fill="none" stroke="#000" stroke-linecap="round" stroke-width="4.2417"/>
<path d="m102.9705,868.9822 0,16.1891" fill="none" stroke="#000" stroke-linecap="round" stroke-width="4.2417"/>
<path d="m112.2578,868.8291 0,16.1892" fill="none" stroke="#000" stroke-linecap="round" stroke-width="4.2417"/>
<path d="m121.427,867.3325 0,16.1892" fill="none" stroke="#000" stroke-linecap="round" stroke-width="4.2417"/>
<path d="m130.0837,869.9839 0,16.1892" fill="none" stroke="#000" stroke-linecap="round" stroke-width="4.2417"/>
<path d="m139.4017,869.662 0,16.1891" fill="none" stroke="#000" stroke-linecap="round" stroke-width="4.2417"/>
<path d="m108.0505,936.0369c-8.0743,.1828-15.2903,.7734-23.1252,-3.733" fill="none" id="mouth" stroke="#000" stroke-linecap="round" stroke-width=".606"/>
<path d="m54.6435,902.3605 93.4865,0" fill="none" stroke="#000" stroke-width="1.8179"/>
<path d="M80.8233,896.8439H98.7239A1.9831,1.9831 0 0 1 100.707,898.827V905.8939A1.9831,1.9831 0 0 1 98.7239,907.877H80.8233A1.9831,1.9831 0 0 1 78.8402,905.8939V898.827A1.9831,1.9831 0 0 1 80.8233,896.8439z" stroke="#000" stroke-linecap="round" stroke-width="2.4238"/>
<path d="M115.6508,896.8439H133.5514A1.9831,1.9831 0 0 1 135.5345,898.827V905.8939A1.9831,1.9831 0 0 1 133.5514,907.877H115.6508A1.9831,1.9831 0 0 1 113.6677,905.8939V898.827A1.9831,1.9831 0 0 1 115.6508,896.8439z" stroke="#000" stroke-linecap="round" stroke-width="2.4238"/>
<path d="m154.2857,169.6429a61.4286,8.2143 0 1 1 -122.8571,0 61.4286,8.2143 0 1 1 122.8571,0z" stroke="#000" transform="matrix(.72972,0,0,.72972,156.24329,828.09994)"/>
<path d="m214.2152,868.1702 23.5693,0c3.8308,20.6017 21.9503,15.5876 24.1803,24.1804l-4.0542,37.5532c-7.9946,14.0621-18.2238,22.9881-28.2346,22.7061l-6.2467,0c-10.1255,-.5452-25.6235,-12.694-28.2346,-25.6547l-5.1599,-34.6046c1.5748,-5.9717 15.7085,-.967 24.1804,-24.1804z" fill="#fff" stroke="#000" stroke-linecap="round" stroke-linejoin="round" stroke-width="2.6577"/>
<path d="m200.101,901.2553c1.1014,-.3207 2.1942,-.6242 3.3276,-.8013 1.1542,-.2426 2.3177,-.3996 3.4853,-.5594 .9175,-.1617 1.8233,-.3358 2.7475,-.449 1.3465,-.1961 2.7183,-.2807 4.0792,-.3115 .6836,-.0509 1.3585,-.0291 2.0406,.017l-3.5208,4.1794c-.6584,-.0448-1.3148,-.04-1.9743,-.0133-1.3556,.0521-2.7163,.128-4.0537,.3658-.9175,.1271-1.8206,.3366-2.7414,.4431-1.1645,.1489-2.3173,.3518-3.4705,.571-1.1217,.2017-2.2102,.5326-3.2998,.8634l3.3802,-4.3047z" stroke="#000" stroke-linecap="round" stroke-linejoin="round" stroke-width="1.4594"/>
<path d="m235.4254,894.3574c-1.0986,-.33-2.1888,-.643-3.3206,-.8297-1.1521,-.2527-2.3142,-.4196-3.4804,-.5892-.9161,-.1697-1.8204,-.3516-2.7436,-.4726-1.3448,-.2076-2.7158,-.3041-4.0763,-.3464-.6831,-.057-1.3582,-.0412-2.0407,-6e-4l3.4849,4.2093c.6588,-.0388 1.315,-.0279 1.9743,0 1.3551,.063 2.7151,.1512 4.0504,.4005 .9163,.1349 1.8177,.3521 2.7375,.4666 1.1632,.1589 2.3142,.3715 3.4655,.6006 1.1199,.2111 2.2055,.5514 3.2923,.8915l-3.3432,-4.3333z" stroke="#000" stroke-linecap="round" stroke-linejoin="round" stroke-width="1.4594"/>
<path d="m538.4195,257.9523c0,3.0469-2.4032,5.5169-5.3678,5.5169-2.9646,0-5.3678,-2.47-5.3678,-5.5169 0,-3.0469 2.4032,-5.5169 5.3678,-5.5169 2.9646,0 5.3678,2.47 5.3678,5.5169z" fill="#fff" stroke="#000" stroke-linecap="round" stroke-linejoin="round" stroke-width="2" transform="matrix(.72972,0,0,.72972,-161.81915,724.40232)"/>
<path d="m555.2684,260.4871c0,.9058-.4005,1.6402-.8946,1.6402-.4941,0-.8946,-.7343-.8946,-1.6402 0,-.9058 .4005,-1.6402 .8946,-1.6402 .4941,0 .8946,.7343 .8946,1.6402z" fill="#fff" stroke="#000" stroke-linecap="round" stroke-linejoin="round" stroke-width="2" transform="matrix(.72972,0,0,.72972,-179.08194,722.52623)"/>
<g transform="matrix(.72972,0,0,.72972,-178.62032,723.8583)">
<path d="m538.4195,257.9523c0,3.0469-2.4032,5.5169-5.3678,5.5169-2.9646,0-5.3678,-2.47-5.3678,-5.5169 0,-3.0469 2.4032,-5.5169 5.3678,-5.5169 2.9646,0 5.3678,2.47 5.3678,5.5169z" fill="#fff" stroke="#000" stroke-linecap="round" stroke-linejoin="round" stroke-width="2"/>
<path d="m555.2684,260.4871c0,.9058-.4005,1.6402-.8946,1.6402-.4941,0-.8946,-.7343-.8946,-1.6402 0,-.9058 .4005,-1.6402 .8946,-1.6402 .4941,0 .8946,.7343 .8946,1.6402z" fill="#fff" stroke="#000" stroke-linecap="round" stroke-linejoin="round" stroke-width="2" transform="translate(-23.6822,-2.4475)"/>
</g>
<path d="m216.6348,875.1334-5.1189,1.7916c-3.6252,4.9485-6.4336,10.2262-18.684,13.5651-.658,13.4787-5.2253,14.4166-9.214,15.6127-3.9395,-1.6338-4.3754,-7.8285-6.1427,-12.2854-7.3994,-11.1385-6.028,-20.1202 1.2797,-27.6421-.6413,-.9989-.215,.1292-.3748,-2.0733 .4656,-.0824 3.0429,-1.8542 5.8867,-3.8392 1.5937,.5617 1.252,-.1737 1.6545,1.8174-.3048,-1.9476 .6757,-3.3812 1.5357,-4.863 1.1196,-1.167 3.3748,-2.5233 5.9307,-3.9297-.5952,-1.7591 .7295,-3.2439 1.7477,-4.7725 3.9885,-2.9462 7.7669,-3.7799 11.5176,-4.0951 6.0369,-2.719 11.1062,-3.7426 13.3092,.2559 2.1124,-.2816 3.5179,-1.4467 7.4224,.5119 8.4089,-2.2157 9.6436,3.9799 11.2616,9.7259 1.6023,1.0634 3.4385,.8685 4.8035,.2715 6.4251,-2.6387 8.445,3.0633 13.1127,8.1748 8.6065,-4.8632 7.5629,8.2581 11.2616,12.5413 6.5432,-4.6867 8.9982,30.3656-2.1536,30.6824-.5526,3.8104-1.6154,5.0702-2.6344,6.5485-3.5913,2.4946-3.9411,1.9221-5.8402,2.8155-1.1068,-.2556 1.7866,-7.3165 1.926,-10.3567-2.644,-5.0339-2.7709,-10.9068-2.5595,-16.8925l-2.5595,-1.5357c-6.9866,4.7293-9.7755,-3.9874-14.5889,-6.1427-2.096,1.0935-4.0314,.259-5.8867,-1.5357-12.4852,5.0686-14.8165,.0419-16.8924,-4.3511z" stroke="#000" stroke-width="0"/>
<g transform="matrix(1.2119,0,0,1.2119,308.62228,-297.86223)">
<path d="m446.8915,78.4154c0,2.9289-27.5427,5.3033-61.5183,5.3033-33.9756,0-61.5183,-2.3744-61.5183,-5.3033 0,-2.9289 27.5427,-5.3033 61.5183,-5.3033 33.9756,0 61.5183,2.3744 61.5183,5.3033z" stroke="#000" stroke-linecap="round" stroke-width="4.862" transform="matrix(.72039,0,0,.72039,-225.83485,981.09953)"/>
<path d="m89.8508,977.4512 0,34.4985c0,14.4129-11.6032,26.0161-26.0161,26.0161l-25.5265,0c-14.4129,0-26.0161,-11.6032-26.0161,-26.0161l0,-34.4985" fill="#fff" stroke="#000" stroke-linecap="round" stroke-linejoin="round" stroke-width="2.5"/>
<path d="m17.4224,971.8486 0,13.3584" fill="none" stroke="#000" stroke-linecap="round" stroke-width="3.5"/>
<path d="m23.1021,968.441 0,13.3584" fill="none" stroke="#000" stroke-linecap="round" stroke-width="3.5"/>
<path d="m29.9631,967.1772 0,13.3584" fill="none" stroke="#000" stroke-linecap="round" stroke-width="3.5"/>
<path d="m36.4012,968.232 0,13.3584" fill="none" stroke="#000" stroke-linecap="round" stroke-width="3.5"/>
<path d="m44.8131,967.3912 0,13.3584" fill="none" stroke="#000" stroke-linecap="round" stroke-width="3.5"/>
<path d="m52.8456,968.9664 0,13.3584" fill="none" stroke="#000" stroke-linecap="round" stroke-width="3.5"/>
<path d="m60.509,968.84 0,13.3584" fill="none" stroke="#000" stroke-linecap="round" stroke-width="3.5"/>
<path d="m68.0749,967.6051 0,13.3584" fill="none" stroke="#000" stroke-linecap="round" stroke-width="3.5"/>
<path d="m75.218,969.7929 0,13.3584" fill="none" stroke="#000" stroke-linecap="round" stroke-width="3.5"/>
<path d="m82.9067,969.5273 0,13.3584" fill="none" stroke="#000" stroke-linecap="round" stroke-width="3.5"/>
<path d="m45.0406,1024.2964 19.0817,-3.0803" fill="none" stroke="#000" stroke-linecap="round" stroke-width=".5"/>
<path d="m12.9687,996.5084 77.1402,0" fill="none" stroke="#000" stroke-width="1.5"/>
<path d="M34.5709,991.9564H49.3415A1.6364,1.6364 0 0 1 50.9779,993.5928V999.424A1.6364,1.6364 0 0 1 49.3415,1001.0604H34.5709A1.6364,1.6364 0 0 1 32.9345,999.424V993.5928A1.6364,1.6364 0 0 1 34.5709,991.9564z" stroke="#000" stroke-linecap="round" stroke-width="2"/>
<path d="M63.3087,991.9564H78.0793A1.6364,1.6364 0 0 1 79.7157,993.5928V999.424A1.6364,1.6364 0 0 1 78.0793,1001.0604H63.3087A1.6364,1.6364 0 0 1 61.6724,999.424V993.5928A1.6364,1.6364 0 0 1 63.3087,991.9564z" stroke="#000" stroke-linecap="round" stroke-width="2"/>
</g>
<path d="m154.2857,169.6429a61.4286,8.2143 0 1 1 -122.8571,0 61.4286,8.2143 0 1 1 122.8571,0z" stroke="#000" transform="matrix(.72972,0,0,.72972,425.93888,835.55033)"/>
<path d="m483.9108,875.6206 23.5693,0c3.8308,20.6017 21.9503,15.5876 24.1803,24.1804l-4.0542,37.5532c-7.9946,14.0621-18.2238,22.9881-28.2346,22.7061l-6.2467,0c-10.1255,-.5452-25.6235,-12.694-28.2346,-25.6547l-5.1599,-34.6046c1.5748,-5.9717 15.7085,-.967 24.1804,-24.1804z" fill="#fff" stroke="#000" stroke-linecap="round" stroke-linejoin="round" stroke-width="2.6577"/>
<path d="m469.7966,908.7057c1.1014,-.3207 2.1942,-.6242 3.3276,-.8013 1.1542,-.2426 2.3177,-.3996 3.4853,-.5594 .9175,-.1617 1.8233,-.3358 2.7475,-.449 1.3465,-.1961 2.7183,-.2807 4.0792,-.3115 .6836,-.0509 1.3585,-.0291 2.0406,.017l-3.5208,4.1794c-.6584,-.0448-1.3148,-.04-1.9743,-.0133-1.3556,.0521-2.7163,.128-4.0537,.3658-.9175,.1271-1.8206,.3366-2.7414,.4431-1.1645,.1489-2.3173,.3518-3.4705,.571-1.1217,.2017-2.2102,.5326-3.2998,.8634l3.3802,-4.3047z" stroke="#000" stroke-linecap="round" stroke-linejoin="round" stroke-width="1.4594"/>
<path d="m505.121,909.384c-1.0986,-.33-2.1888,-.643-3.3206,-.8297-1.1521,-.2527-2.3142,-.4196-3.4804,-.5892-.9161,-.1697-1.8204,-.3516-2.7436,-.4726-1.3448,-.2076-2.7158,-.3041-4.0763,-.3464-.6831,-.057-1.3582,-.0412-2.0407,-6e-4l3.4849,4.2093c.6588,-.0388 1.315,-.0279 1.9743,0 1.3551,.063 2.7151,.1512 4.0504,.4005 .9163,.1349 1.8177,.3521 2.7375,.4666 1.1632,.1589 2.3142,.3715 3.4655,.6006 1.1199,.2111 2.2055,.5514 3.2923,.8915l-3.3432,-4.3333z" stroke="#000" stroke-linecap="round" stroke-linejoin="round" stroke-width="1.4594"/>
<path d="m538.4195,257.9523c0,3.0469-2.4032,5.5169-5.3678,5.5169-2.9646,0-5.3678,-2.47-5.3678,-5.5169 0,-3.0469 2.4032,-5.5169 5.3678,-5.5169 2.9646,0 5.3678,2.47 5.3678,5.5169z" fill="#fff" stroke="#000" stroke-linecap="round" stroke-linejoin="round" stroke-width="2" transform="matrix(.72972,0,0,.72972,107.87644,731.85271)"/>
<path d="m555.2684,260.4871c0,.9058-.4005,1.6402-.8946,1.6402-.4941,0-.8946,-.7343-.8946,-1.6402 0,-.9058 .4005,-1.6402 .8946,-1.6402 .4941,0 .8946,.7343 .8946,1.6402z" fill="#fff" stroke="#000" stroke-linecap="round" stroke-linejoin="round" stroke-width="2" transform="matrix(.72972,0,0,.72972,90.61365,729.97662)"/>
<g transform="matrix(.72972,0,0,.72972,91.07527,731.30869)">
<path d="m538.4195,257.9523c0,3.0469-2.4032,5.5169-5.3678,5.5169-2.9646,0-5.3678,-2.47-5.3678,-5.5169 0,-3.0469 2.4032,-5.5169 5.3678,-5.5169 2.9646,0 5.3678,2.47 5.3678,5.5169z" fill="#fff" stroke="#000" stroke-linecap="round" stroke-linejoin="round" stroke-width="2"/>
<path d="m555.2684,260.4871c0,.9058-.4005,1.6402-.8946,1.6402-.4941,0-.8946,-.7343-.8946,-1.6402 0,-.9058 .4005,-1.6402 .8946,-1.6402 .4941,0 .8946,.7343 .8946,1.6402z" fill="#fff" stroke="#000" stroke-linecap="round" stroke-linejoin="round" stroke-width="2" transform="translate(-23.6822,-2.4475)"/>
</g>
<path d="m486.3304,882.5838-5.1189,1.7916c-3.6252,4.9485-6.4336,10.2262-18.684,13.5651-.658,13.4787-5.2253,14.4166-9.214,15.6127-3.9395,-1.6338-4.3754,-7.8285-6.1427,-12.2854-7.3994,-11.1385-6.028,-20.1202 1.2797,-27.6421-.6413,-.9989-.215,.1292-.3748,-2.0733 .4656,-.0824 3.0429,-1.8542 5.8867,-3.8392 1.5937,.5617 1.252,-.1737 1.6545,1.8174-.3048,-1.9476 .6757,-3.3812 1.5357,-4.863 1.1196,-1.167 3.3748,-2.5233 5.9307,-3.9297-.5952,-1.7591 .7295,-3.2439 1.7477,-4.7725 3.9885,-2.9462 7.7669,-3.7799 11.5176,-4.0951 6.0369,-2.719 11.1062,-3.7426 13.3092,.2559 2.1124,-.2816 3.5179,-1.4467 7.4224,.5119 8.4089,-2.2157 9.6436,3.9799 11.2616,9.7259 1.6023,1.0634 3.4385,.8685 4.8035,.2715 6.4251,-2.6387 8.445,3.0633 13.1127,8.1748 8.6065,-4.8632 7.5629,8.2581 11.2616,12.5413 6.5432,-4.6867 8.9982,30.3656-2.1536,30.6824-.5526,3.8104-1.6154,5.0702-2.6344,6.5485-3.5913,2.4946-3.9411,1.9221-5.8402,2.8155-1.1068,-.2556 1.7866,-7.3165 1.926,-10.3567-2.644,-5.0339-2.7709,-10.9068-2.5595,-16.8925l-2.5595,-1.5357c-6.9866,4.7293-9.7755,-3.9874-14.5889,-6.1427-2.096,1.0935-4.0314,.259-5.8867,-1.5357-12.4852,5.0686-14.8165,.0419-16.8924,-4.3511z" stroke="#000" stroke-width="0"/>
<path d="m446.8915,78.4154a61.5183,5.3033 0 1 1 -123.0366,0 61.5183,5.3033 0 1 1 123.0366,0z" stroke="#000" stroke-linecap="round" stroke-width="4.862" transform="matrix(-.87305,0,0,.87305,1014.9176,890.63172)"/>
<path d="m632.3368,886.2103 0,41.8089c0,17.4671 14.0619,31.529 31.529,31.529l30.9356,0c17.4671,0 31.529,-14.062 31.529,-31.529l0,-41.8089" fill="#fff" stroke="#000" stroke-linecap="round" stroke-linejoin="round" stroke-width="3.0298"/>
<path d="m720.1131,879.4205 0,16.1891" fill="none" stroke="#000" stroke-linecap="round" stroke-width="4.2417"/>
<path d="m713.2298,875.2908 0,16.1892" fill="none" stroke="#000" stroke-linecap="round" stroke-width="4.2417"/>
<path d="m704.9149,873.7592 0,16.1891" fill="none" stroke="#000" stroke-linecap="round" stroke-width="4.2417"/>
<path d="m697.1125,875.0376 0,16.1891" fill="none" stroke="#000" stroke-linecap="round" stroke-width="4.2417"/>
<path d="m686.9181,874.0185 0,16.1892" fill="none" stroke="#000" stroke-linecap="round" stroke-width="4.2417"/>
<path d="m677.1835,875.9275 0,16.1891" fill="none" stroke="#000" stroke-linecap="round" stroke-width="4.2417"/>
<path d="m667.8962,875.7744 0,16.1892" fill="none" stroke="#000" stroke-linecap="round" stroke-width="4.2417"/>
<path d="m658.727,874.2778 0,16.1892" fill="none" stroke="#000" stroke-linecap="round" stroke-width="4.2417"/>
<path d="m650.0704,876.9292 0,16.1892" fill="none" stroke="#000" stroke-linecap="round" stroke-width="4.2417"/>
<path d="m640.7523,876.6073 0,16.1891" fill="none" stroke="#000" stroke-linecap="round" stroke-width="4.2417"/>
<path d="m671.851,943.1085c7.8416,-.2452 15.9116,1.2222 23.1252,-3.733" fill="none" stroke="#000" stroke-linecap="round" stroke-width=".606"/>
<path d="m725.5105,909.3058-93.4865,0" fill="none" stroke="#000" stroke-width="1.8179"/>
<path d="M-699.3307,903.7893H-681.4301A1.9831,1.9831 0 0 1 -679.447,905.7724V912.8393A1.9831,1.9831 0 0 1 -681.4301,914.8224H-699.3307A1.9831,1.9831 0 0 1 -701.3138,912.8393V905.7724A1.9831,1.9831 0 0 1 -699.3307,903.7893z" stroke="#000" stroke-linecap="round" stroke-width="2.4238" transform="scale(-1,1)"/>
<path d="M-664.5032,903.7893H-646.6026A1.9831,1.9831 0 0 1 -644.6195,905.7724V912.8393A1.9831,1.9831 0 0 1 -646.6026,914.8224H-664.5032A1.9831,1.9831 0 0 1 -666.4863,912.8393V905.7724A1.9831,1.9831 0 0 1 -664.5032,903.7893z" stroke="#000" stroke-linecap="round" stroke-width="2.4238" transform="scale(-1,1)"/>
<g transform="matrix(-1.2119,0,0,1.2119,853.77632,-307.40088)">
<path d="m154.2857,169.6429c0,4.5366-27.5025,8.2143-61.4286,8.2143-33.9261,0-61.4286,-3.6777-61.4286,-8.2143 0,-4.5366 27.5025,-8.2143 61.4286,-8.2143 33.9261,0 61.4286,3.6777 61.4286,8.2143z" stroke="#000" transform="matrix(-.60213,0,0,.60213,106.30564,942.26976)"/>
<path d="m58.4703,975.3336-19.4482,0c-3.161,16.9994-18.1122,12.8621-19.9523,19.9523l3.3453,30.9869c6.5967,11.6033 15.0373,18.9686 23.2977,18.7359l5.1544,0c8.355,-.4499 21.1432,-10.4744 23.2977,-21.1689l4.2577,-28.5539c-1.2995,-4.9275-12.9618,-.7979-19.9523,-19.9523z" fill="#fff" stroke="#000" stroke-linecap="round" stroke-linejoin="round" stroke-width="2.193"/>
<path d="m70.1165,1002.6337c-.9088,-.2646-1.8105,-.5151-2.7458,-.6612-.9524,-.2002-1.9124,-.3297-2.8759,-.4616-.7571,-.1334-1.5045,-.2771-2.2671,-.3705-1.1111,-.1618-2.243,-.2316-3.3659,-.257-.5641,-.042-1.121,-.024-1.6838,.014l2.9052,3.4486c.5433,-.037 1.0849,-.033 1.629,-.011 1.1185,.043 2.2413,.1056 3.3449,.3018 .7571,.1049 1.5023,.2777 2.2621,.3656 .9609,.1229 1.9121,.2903 2.8637,.4712 .9256,.1664 1.8237,.4395 2.7228,.7124l-2.7892,-3.552z" stroke="#000" stroke-linecap="round" stroke-linejoin="round" stroke-width="1.2043"/>
<path d="m40.9687,1003.1934c.9065,-.2723 1.806,-.5306 2.74,-.6846 .9507,-.2085 1.9095,-.3462 2.8719,-.4862 .7559,-.14 1.5021,-.2901 2.2639,-.39 1.1097,-.1713 2.2409,-.2509 3.3636,-.2858 .5637,-.047 1.1207,-.034 1.6839,-5e-4l-2.8756,3.4733c-.5436,-.032-1.0851,-.023-1.6291,0-1.1181,.052-2.2403,.1248-3.3422,.3305-.7561,.1113-1.4998,.2905-2.2589,.385-.9598,.1311-1.9095,.3065-2.8595,.4956-.9241,.1742-1.8199,.455-2.7166,.7356l2.7587,-3.5756z" stroke="#000" stroke-linecap="round" stroke-linejoin="round" stroke-width="1.2043"/>
<path d="m538.4195,257.9523c0,3.0469-2.4032,5.5169-5.3678,5.5169-2.9646,0-5.3678,-2.47-5.3678,-5.5169 0,-3.0469 2.4032,-5.5169 5.3678,-5.5169 2.9646,0 5.3678,2.47 5.3678,5.5169z" fill="#fff" stroke="#000" stroke-linecap="round" stroke-linejoin="round" stroke-width="2" transform="matrix(-.60213,0,0,.60213,368.75405,856.70393)"/>
<path d="m555.2684,260.4871c0,.9058-.4005,1.6402-.8946,1.6402-.4941,0-.8946,-.7343-.8946,-1.6402 0,-.9058 .4005,-1.6402 .8946,-1.6402 .4941,0 .8946,.7343 .8946,1.6402z" fill="#fff" stroke="#000" stroke-linecap="round" stroke-linejoin="round" stroke-width="2" transform="matrix(-.60213,0,0,.60213,382.9984,855.15588)"/>
<g transform="matrix(-.60213,0,0,.60213,382.61749,856.25504)">
<path d="m538.4195,257.9523c0,3.0469-2.4032,5.5169-5.3678,5.5169-2.9646,0-5.3678,-2.47-5.3678,-5.5169 0,-3.0469 2.4032,-5.5169 5.3678,-5.5169 2.9646,0 5.3678,2.47 5.3678,5.5169z" fill="#fff" stroke="#000" stroke-linecap="round" stroke-linejoin="round" stroke-width="2"/>
<path d="m555.2684,260.4871c0,.9058-.4005,1.6402-.8946,1.6402-.4941,0-.8946,-.7343-.8946,-1.6402 0,-.9058 .4005,-1.6402 .8946,-1.6402 .4941,0 .8946,.7343 .8946,1.6402z" fill="#fff" stroke="#000" stroke-linecap="round" stroke-linejoin="round" stroke-width="2" transform="translate(-23.6822,-2.4475)"/>
</g>
<path d="m56.4737,981.0793 4.2239,1.4784c2.9914,4.0832 5.3086,8.4381 15.4171,11.1932 .5429,11.1219 4.3117,11.8958 7.6029,12.8827 3.2507,-1.3481 3.6104,-6.4597 5.0686,-10.1372 6.1056,-9.1909 4.974,-16.6021-1.056,-22.8088 .5292,-.8243 .1774,.1066 .3093,-1.7108-.3841,-.068-2.5108,-1.5299-4.8574,-3.1679-1.3151,.4635-1.0331,-.1433-1.3653,1.4996 .2515,-1.6071-.5576,-2.79-1.2671,-4.0127-.9238,-.963-2.7847,-2.0821-4.8937,-3.2426 .4911,-1.4515-.6019,-2.6767-1.4421,-3.938-3.2911,-2.4311-6.4089,-3.119-9.5037,-3.3791-4.9813,-2.2436-9.1643,-3.0882-10.982,.2112-1.743,-.2323-2.9028,-1.1938-6.1246,.4224-6.9386,-1.8283-7.9574,3.284-9.2925,8.0253-1.3221,.8774-2.8372,.7167-3.9636,.224-5.3016,-2.1773-6.9683,2.5277-10.8199,6.7454-7.1017,-4.0128-6.2405,6.8142-9.2925,10.3484-5.3991,-3.8672-7.4249,25.0561 1.777,25.3175 .456,3.1441 1.3329,4.1837 2.1738,5.4035 2.9633,2.0584 3.252,1.586 4.819,2.3232 .9133,-.2109-1.4742,-6.0372-1.5892,-8.5458 2.1817,-4.1537 2.2864,-8.9997 2.1119,-13.9388l2.1119,-1.2672c5.765,3.9024 8.0662,-3.2902 12.038,-5.0686 1.7295,.9023 3.3265,.2137 4.8574,-1.2672 10.3021,4.1824 12.2258,.0346 13.9388,-3.5903z" stroke="#000" stroke-width="0"/>
<path d="m53.9286,1034.505c-3.8973,-.3884-8.6697,.098-10.3571,-2.5" fill="none" stroke="#000"/>
</g>
<path d="M618.2134,911.4459H637.4063V943.7707H618.2134z" stroke="#000" stroke-linejoin="round" stroke-width="2"/>
<path d="m665.1854,325.2462a10.1015,10.1015 0 1 1 -20.2031,0 10.1015,10.1015 0 1 1 20.2031,0z" fill="#fff" stroke="#000" stroke-linejoin="round" stroke-width="2" transform="translate(-14.1421,608.9282)"/>
<text font-family="Sans" font-size="20" letter-spacing="0" line-height="562.5" word-spacing="0" x="722.3693" y="745.2758">
   <tspan text-align="center" text-anchor="middle" x="722.3693" y="745.2758">Ah ben j'ai reçu les 15</tspan>
   <tspan text-align="center" text-anchor="middle" x="722.3693" y="770.2758">premiers virements</tspan>
   <tspan text-align="center" text-anchor="middle" x="722.3693" y="795.2758">d'Apple, je suis</tspan>
   <tspan text-align="center" text-anchor="middle" x="722.3693" y="820.2758">millionaire !</tspan>
  </text>
<path d="m706.0966,831.1388-18.1827,32.3249" fill="none" stroke="#000"/>
<text font-family="Sans" font-size="20" letter-spacing="0" line-height="562.5" word-spacing="0" x="441.6389" y="755.3773">
   <tspan text-align="center" text-anchor="middle" x="441.6389" y="755.3773">Mieux ! J'ai déposé un</tspan>
   <tspan text-align="center" text-anchor="middle" x="441.6389" y="780.3773">brevet sur les</tspan>
   <tspan text-align="center" text-anchor="middle" x="441.6389" y="805.3773">brevets à la con !</tspan>
  </text>
<text font-family="Sans" font-size="20" letter-spacing="0" line-height="562.5" word-spacing="0" x="161.5059" y="727.0931">
   <tspan text-align="center" text-anchor="middle" x="161.5059" y="727.0931">Mec ça y est, je</tspan>
   <tspan text-align="center" text-anchor="middle" x="161.5059" y="752.0931">vais être riche !</tspan>
  </text>
<path d="m225.5166,337.6205 9.849,-3.283" fill="none" stroke="#000" transform="translate(0,602.3622)"/>
<path d="M119.198,161.6014 93.9442,251.505" fill="none" stroke="#000" transform="translate(0,602.3622)"/>
<text font-family="Sans" font-size="20" letter-spacing="0" line-height="562.5" transform="translate(0,602.3622)" word-spacing="0" x="159.099" y="203.0177">
   <tspan x="159.099" y="203.0177">Ah ? Loto ?</tspan>
  </text>
<path d="m203.5457,209.0786 7.0711,27.2741" fill="none" stroke="#000" transform="translate(0,602.3622)"/>
<path d="m405,215.7143-14.2857,43.5714" fill="none" stroke="#000" transform="translate(0,602.3622)"/>
<path d="m492.8571,346.4286 12.8572,-5" fill="none" stroke="#000" transform="translate(0,602.3622)"/>
<g transform="matrix(.30553,-.95218,.95218,.30553,-261.45199,1075.557)">
<path d="M350.7143,-2.8571H407.1429A7.1429,7.1429 0 0 1 414.2857,4.2857V4.2857A7.1429,7.1429 0 0 1 407.1429,11.4286H350.7143A7.1429,7.1429 0 0 1 343.5714,4.2857V4.2857A7.1429,7.1429 0 0 1 350.7143,-2.8571z" fill="#fff" stroke="#000" stroke-linejoin="round" stroke-width="2" transform="translate(0,602.3622)"/>
<path d="m413.6607,3.9732c0,3.9202-2.6383,7.0982-5.8929,7.0982-3.2545,0-5.8929,-3.178-5.8929,-7.0982 0,-3.9202 2.6383,-7.0982 5.8929,-7.0982 3.2545,0 5.8929,3.178 5.8929,7.0982z" fill="#fff" stroke="#000" stroke-linejoin="round" stroke-width="2" transform="translate(.4464,602.63)"/>
<path d="m376.9643,613.7461c-3.2545,0-5.8929,-3.178-5.8929,-7.0982 0,-3.9202 2.6383,-7.0982 5.8929,-7.0982" fill="#fff" id="path4148-6" stroke="#000" stroke-linejoin="round" stroke-width="2"/>
<use height="450" transform="translate(5.3571)" width="900" x="0" xlink:href="#path4148-6" y="0"/>
</g>
<path d="m665.1854,325.2462a10.1015,10.1015 0 1 1 -20.2031,0 10.1015,10.1015 0 1 1 20.2031,0z" fill="#fff" stroke="#000" stroke-linejoin="round" stroke-width="2" transform="translate(-242.9417,599.8368)"/>
</g>
</svg>
