<svg version="1.1" viewBox="0 0 900 450" xmlns="http://www.w3.org/2000/svg" xmlns:svg="http://www.w3.org/2000/svg" xmlns:xlink="http://www.w3.org/1999/xlink">
<g transform="translate(0,-602.3622)">
<g transform="translate(2.449,-2.517)">
<path d="M49.7619,685.9382H830.7638A31.621,31.621 0 0 1 862.3848,717.5592V965.908A31.621,31.621 0 0 1 830.7638,997.529H49.7619A31.621,31.621 0 0 1 18.1409,965.908V717.5592A31.621,31.621 0 0 1 49.7619,685.9382z" fill="#fff" stroke="#000" stroke-linecap="round" stroke-width="7.4907"/>
<path d="M47.6627,653.346H298.8266A15.6552,15.6552 0 0 1 314.4818,669.0012V669.0012A15.6552,15.6552 0 0 1 298.8266,684.6564H47.6627A15.6552,15.6552 0 0 1 32.0075,669.0012V669.0012A15.6552,15.6552 0 0 1 47.6627,653.346z" fill="#fff" stroke="#000" stroke-linecap="round" stroke-linejoin="round" stroke-width="4.5094" transform="matrix(1,-.00315,.00315,1,0,0)"/>
<path d="m101.5203,44.9288c0,19.2473-16.5075,34.8503-36.8706,34.8503-20.3631,0-36.8706,-15.603-36.8706,-34.8503 0,-19.2473 16.5075,-34.8503 36.8706,-34.8503 20.3631,0 36.8706,15.603 36.8706,34.8503z" stroke="#000" stroke-linecap="round" stroke-linejoin="round" stroke-width="7.491" transform="matrix(1.24255,-.00391,.00217,.68917,-24.05631,630.39443)"/>
<text font-family="Bitstream Vera Sans" font-size="40" transform="matrix(1,-.00315,.00315,1,0,0)" x="17.4067" y="676.187">
    <tspan fill="#f9f9f9" x="17.4067" y="676.187">223</tspan>
   </text>
<text font-family="Bitstream Vera Sans" font-size="20" transform="matrix(1,-.00315,.00315,1,0,0)" x="154.7332" y="676.1359">
    <tspan x="154.7332" y="676.1359">Triangle</tspan>
   </text>
<g transform="translate(-1.2557,-5.8749)">
<path d="m839.4465,1023.3074c.4393,.5102 1.0355,.5714 1.6702,.6073 .8029,-.022 1.6072,-.2138 2.3575,-.4993 .4009,-.1526 .6224,-.2825 .9965,-.4789-2.2387,1.3097-.9924,.6082-.5738,.1636 .2168,-.2303 .3463,-.473 .4686,-.7606 .3177,-.895 .3589,-1.8574 .4131,-2.7971 .1056,-1.3679-.1776,-2.7109-.4825,-4.0351-.3709,-1.393-.8746,-2.7467-1.4294,-4.0758-.2656,-.6279-.5661,-1.24-.8587,-1.8555-.3944,-.7567-.717,-.2868 1.5104,-1.1508 .0768,-.03 .0919,.1367 .1411,.2027 .0824,.1106 .1689,.2179 .2534,.3269 .8217,1.1276 1.8098,2.1155 2.8001,3.0928 .5826,.5674 1.2074,1.0941 1.7645,1.6874 .2114,.1726 .3378,.416 .508,.6229 .1662,.1502 .2962,-.01 .4431,-.1106-2.5656,1.5384-1.6519,1.0412-1.16,.5694 .1937,-.1857 .3764,-.3843 .5619,-.5781 .2632,-.2626 .5127,-.5438 .801,-.7804 .761,-.6244 1.8227,-1.1234 2.6097,-1.5711 .7271,-.3211 1.471,-.6005 2.2265,-.8467 .1563,-.034 .761,-.2665 .899,-.1093 .0321,.037 .0451,.086 .0677,.1294 .003,.044 .0154,.089 .009,.1323-.0436,.3196-.5385,.6915-.7545,.8904-.9928,.8207-1.9561,1.6745-2.8731,2.5792-.7976,.8557-1.6216,1.7004-2.2566,2.6874-.3921,.6165-.6005,1.2972-.6984,2.0144-.0648,.6415-.0542,1.2873-.0532,1.9312 .0351,.6998 .1244,1.4011 .3328,2.0715 .1195,.3571 .3319,.6194 .6717,.7762 .2255,.08 .4837,.1318 .7238,.087 .0559,-.011 .5216,-.1684 .5589,-.1808 .5492,-.2997 1.8756,-1.0005-.6067,.3598-.0982,.054 .1891,-.1201 .2821,-.1824 .2138,-.143 .2651,-.1851 .4657,-.3346 .2405,-.18 .1266,-.092 .3424,-.2617l1.7191,-.6913c-.2178,.1831-.1012,.092-.3516,.2719-1.0139,.7828-2.137,1.4308-3.3009,1.9611-.5107,.1524-.8878,.2254-1.3851,-.01-.3662,-.2066-.6055,-.5062-.7343,-.9112-.2041,-.6903-.2811,-1.409-.3481,-2.1238-.004,-.6502-.0146,-1.3021 .038,-1.9509 .0928,-.7431 .2887,-1.4524 .6884,-2.0955 .0802,-.1333 .153,-.2712 .2404,-.3997 .1797,-.264 .4481,-.5661 .6529,-.8036 .4526,-.5248 .9157,-1.0402 1.3938,-1.5419 .8918,-.8997 1.8318,-1.7498 2.8066,-2.5592 .2761,-.2564 .5618,-.5063 .8001,-.7993 .0396,.021-.0878,.017-.1321,.024-.221,.031-.4338,.1-.6466,.1641-.7471,.2466-1.4866,.5202-2.1959,.8624 2.4446,-1.4457 .9748,-.6248 .497,-.2572-.291,.2239-.54,.5004-.7953,.7622-.9257,.9765-.9789,1.08-2.5451,1.8884-.2567,.1212-.4002,.1068-.6009,-.1041-.1584,-.2095-.2853,-.4431-.481,-.6233-.5334,-.6025-1.1282,-1.1492-1.6932,-1.7213-.9808,-.9983-1.9768,-1.9849-2.8496,-3.0818-.0938,-.1054-.1877,-.2107-.2814,-.3162-.0521,-.059-.2154,-.1251-.1559,-.1761 1.4141,-1.214 1.334,-1.5318 1.6993,-.7303 .2757,.628 .5663,1.2498 .8171,1.8885 .5249,1.3529 1.0089,2.7231 1.4053,4.1197 .3185,1.3302 .6335,2.6815 .5419,4.06-.0362,.9485-.0918,1.9144-.3493,2.8318-.0847,.2347-.1139,.3545-.249,.5692-.5939,.9436-1.8747,1.3891-2.7166,1.9248-1.0714,.5265-2.2113,.8989-3.4172,.9043-.1676,-.014-.3365,-.016-.5029,-.04-.4955,-.073-.9575,-.2895-1.3004,-.6569l1.6003,-.9608z" stroke="#000" stroke-linecap="round" stroke-linejoin="round" stroke-width=".2515"/>
<path d="m854.8111,1021.1506c-.7394,.2071-2.342,1.1965 .4555,-.4044-.388,.2065-.6184,.5425-.7999,.9302-.1036,.3106-.2142,.6511-.1917,.9845 .0156,.2306 .0756,.3465 .154,.562 .3071,.6068 .7795,1.1058 1.3399,1.4838 .4137,.2881 .8839,.4192 1.383,.4252 .3851,-.087 .7431,-.2375 1.0957,-.4123 .1503,-.075 .5909,-.3179 .4467,-.2321-1.6618,.9893-1.2456,.7222-.6575,.3195 .4842,-.373 1.0105,-.8057 1.1352,-1.4399 .0174,-.089 .0162,-.1799 .0243,-.2698-.032,-.7933-.5333,-1.4143-1.0169,-2.0008-.3049,-.3393-.6501,-.6629-1.0669,-.861-.2115,-.1006-.32,-.1184-.544,-.1779-.4519,-.025-.9255,.018-1.3546,.1741-.1984,.072-.499,.2393-.6834,.3368 2.5132,-1.5077 .8665,-.5123 .3482,-.062l-1.7106,.6997c.796,-.7657 1.8589,-1.2168 2.7842,-1.7768 .2686,-.1306 .4271,-.2209 .7141,-.308 .4568,-.1387 .9485,-.1711 1.419,-.1018 .2419,.077 .34,.097 .5672,.2178 .4231,.2254 .772,.5679 1.084,.9255 .5088,.6264 1.0253,1.2756 1.1028,2.1094-.004,.1012 .002,.2032-.0112,.3036-.0928,.6824-.6005,1.1675-1.1167,1.5707-1.0013,.7187-.4882,.3709-2.4236,1.4672-.5043,.2856-1.0559,.5275-1.6351,.5951-.5218,-.046-1.0072,-.1999-1.4323,-.5166-.5749,-.4193-1.0583,-.9487-1.3949,-1.5794-.0786,-.2055-.1678,-.4012-.1946,-.6229-.0421,-.3472 .0735,-.7121 .1572,-1.043 .1608,-.4085 .3649,-.7958 .7491,-1.0357 .9031,-.5198 1.7482,-1.1163 2.7557,-1.3944l-1.4819,1.1332z" stroke="#000" stroke-linecap="round" stroke-linejoin="round" stroke-width=".2515"/>
<path d="m862.6073,1021.9051c-.3203,.1024-.653,.1903-.9574,.3362-.1022,.049-.1982,.1101-.2973,.1651 .4207,-.2356 .8414,-.4712 1.2621,-.7068-.4994,.337-.87,.6738-1.0934,1.2386-.1462,.4653-.0761,.8587 .2923,1.2028 .0889,.083 .1935,.1478 .2903,.2216 .7042,.4046 1.5378,.5494 2.3444,.4638 .2312,-.024 .458,-.081 .687,-.1208 .53,-.1368 .7609,-.1749 1.2586,-.3838 .1651,-.069 .635,-.3304 .4812,-.2386-2.2382,1.3365-1.2251,.7542-.8736,.3984 .0779,-.079 .1399,-.1722 .2098,-.2583 .3065,-.4795 .3144,-.9061 .0985,-1.417-.0396,-.09-.268,-.5604-.4291,-.4586-.0279,.018-.042,.051-.063,.076 2.5422,-1.4497 1.5743,-1.2073 1.3278,-.5008-.1064,.3049-.125,.6013-.1396,.9215 .1766,1.4863 .8332,2.8626 1.3726,4.2435 .6559,1.8244 1.2881,3.7176 1.3609,5.6745 .0145,.3894-.0234,.779-.0352,1.1686-.0582,.3745-.0908,.7539-.1745,1.1236-.2732,1.2059-.8948,2.3097-1.8179,3.137-.1627,.1458-.3469,.2657-.5204,.3986-.6941,.3626-1.3545,.7991-2.0824,1.0879-.3018,.1197-1.0302,-.13-1.269,-.2365-.8875,-.3956-1.654,-1.0455-2.408,-1.6406-1.2719,-1.0888-2.5172,-2.2246-3.6551,-3.4553-.5895,-.6376-.7352,-.8522-1.2473,-1.5117-.4358,-.7271-.9494,-1.5701-.521,-2.4271 .2535,-.5072 .5596,-.6912 .9842,-1.0605 1.2727,-.8247 1.3769,-.9187 3.2195,-1.8517 .4497,-.2278 1.9,-.7427 2.3438,-.8976 .8851,-.3088 1.8369,-.6147 2.7269,-.9055 2.3381,-.6745 4.6281,-1.4959 6.8915,-2.3865 .1921,-.082 .3845,-.1627 .5764,-.245 .1466,-.063 .2943,-.1233 .439,-.1903 .2958,-.1371 .5721,-.3067 .8773,-.4229 .4138,-.059 .559,.4391 .6828,.7418 .2853,.7705 .446,1.5785 .5154,2.3954 .0171,.366 .029,.7336-.0228,1.0975-.005,.037 .0139,.095-.0201,.1109-.5544,.2582-1.1333,.4601-1.6999,.6901 10e-4,-.1125-.005,-.2255 .004,-.3377 .0133,-.1633 .0414,-.325 .063,-.4874 .1257,-.9479 .2903,-1.8832 .4832,-2.8196 .1955,-.8168 .3644,-1.6723 .8312,-2.3853 .5286,-.5535 1.7043,-1.6447 2.2768,-1.0096 .06,.066 .1019,.1472 .1529,.2208 .112,.1981 .2088,.3486 .2821,.5681 .2061,.6171 .2986,1.3405 .4077,1.9824 .1424,.5555 .0881,1.2207 .2567,1.7654 .2229,-.5987-.002,.028-1.6032,.7911-.0325,.016 .0489,-.053 .0671,-.084 .0417,-.071 .1233,-.2801 .1551,-.3443 .0434,-.088 .0929,-.1719 .1393,-.2578 .3011,-.4825 .556,-.9925 .8877,-1.4553 .5547,-.695 1.0736,-.8467 2.0338,-1.3743 .0329,-.018 .0773,-.01 .1126,.01 .045,.016 .08,.053 .12,.079 .3755,.395 .5063,.9539 .6331,1.4682 .1102,.5601 .1692,1.1313 .374,1.667 .0499,.07 .0906,.1479 .1496,.2106 .4298,.457 1.1407,.7985 1.727,.9843 .2206,.07 .4479,.1166 .6718,.1749 .9481,.2366 1.8995,.2484 2.8425,-.011 .2087,-.057 .4184,-.1173 .6161,-.2054 .1842,-.082 .3491,-.2019 .5237,-.3029-.3631,.1874-.6996,.4397-1.0894,.5622-.1503,.047 .2339,-.2118 .3412,-.3272 .3164,-.3401 .4973,-.7183 .6246,-1.1582 .0873,-.3664 .0858,-.7428 .0757,-1.1166-.1021,-.7716-.7838,-.012 1.5762,-.9706 .043,-.018-.0252,.089-.0325,.1353-.0105,.067-.0137,.1342-.0206,.2013-.0335,.608-.0474,1.2173 .0202,1.823 .0688,.3897 .1433,.7878 .4487,1.0613 .2149,.1415 .443,.1511 .6803,.073 .5712,-.2882 1.4287,-.7883-1.1689,.6782-.0922,.052 .1782,-.1143 .2658,-.1737l1.729,-.6875c-.1338,.1099-.1095,.099-.2632,.1885-.5841,.3415-1.3074,.9119-2.0466,1.1199-.2885,.031-.5575,-.032-.7831,-.2236-.314,-.3274-.4165,-.7448-.4864,-1.185-.0743,-.6127-.0594,-1.2282-.0514,-1.8445 .002,-.082 .01,-.3683 .0155,-.3721 1.2231,-.8124 1.6186,-1.5813 1.7738,-.6732 .009,.3928 .009,.788-.0729,1.1745-.4026,1.604-1.4656,1.9694-2.9269,2.8345-.1797,.091-.3518,.1981-.539,.2718-1.1255,.4432-2.3519,.4076-3.5096,.1301-.2313,-.061-.4661,-.1105-.6938,-.184-.5824,-.188-1.4014,-.59-1.8309,-1.0418-.0707,-.074-.1217,-.1655-.1826,-.2482-.2042,-.5463-.263,-1.1251-.3681,-1.696-.1059,-.4424-.211,-.9895-.5766,-1.2965-.0863,.011-.0417,0-.1309,.047 .494,-.2932 .9881,-.5865 1.4821,-.8797 .0418,-.024-.0765,.059-.1115,.092-.088,.083-.1593,.1828-.2543,.2588-.3546,.4458-.6103,.9514-.9065,1.4362-.1113,.1906-.2033,.372-.2742,.581-.0144,.043 .002,.1065-.037,.1297-1.6718,1.0056-1.301,1.4123-1.7676,.8263-.1403,-.5915-.0684,-1.2195-.2051,-1.8138-.1337,-.8319-.2366,-1.7229-.6888,-2.4507-.0786,-.095-.1124,-.1812-.2373,-.2043-.0338,-.01-.1319,.028-.1027,.01 .4848,-.3029 .9881,-.5749 1.4781,-.8692 .044,-.026-.0961,.038-.1396,.065-.0513,.032-.0953,.075-.1429,.1121-.5512,.6573-.7174,1.5447-.9403,2.3499-.2511,1.1608-.4667,2.3381-.5021,3.5279-.5413,.3318-1.0717,.6821-1.624,.9953-.0304,.017 .0302,-.063 .04,-.097 .1011,-.3479 .0723,-.7161 .0723,-1.073-.0467,-.7985-.196,-1.5926-.501,-2.3352-.0582,-.1343-.1651,-.5237-.3687,-.5375-.0472,0-.1338,.034-.1714,.048-.6021,.2681-1.1868,.5757-1.8125,.79-2.2433,.8437-4.5057,1.6345-6.8063,2.3092-1.3354,.4418-2.6801,.8688-3.988,1.3886-.3765,.1496-.7211,.3958-1.1182,.4762-.2039,.041 .7012,-.4449 .5142,-.3538-.2728,.1328-.5155,.32-.7733,.48-.4814,.3865-1.0718,.7863-1.1859,1.4525-.1123,.6558 .3053,1.2621 .5878,1.8057 .1747,.2387 .3409,.4838 .524,.716 1.2506,1.586 2.7724,2.9468 4.3216,4.2314 .7601,.5675 1.5353,1.2021 2.4338,1.5462 .2074,.08 .4249,.1396 .6456,.1642 .1883,.021 .6695,-.1887 .5676,-.029-.2124,.3325-.6509,.446-.9763,.669 .1821,-.1272 .3749,-.2403 .5464,-.3815 .9528,-.7839 1.6207,-1.8661 1.9179,-3.062 .0903,-.3634 .1256,-.7382 .1884,-1.1073 .0181,-.3842 .0641,-.7681 .0543,-1.1526-.0495,-1.9411-.7079,-3.8142-1.3712,-5.6146-.5628,-1.3919-1.2476,-2.7639-1.4927,-4.2575-.008,-.3536 3.7e-4,-.6227 .086,-.9648 .005,-.019 .0997,-.3596 .142,-.3887 .5428,-.3739 1.1209,-.6937 1.6814,-1.0405 .0426,0 .0866,0 .1279,.01 .2648,.072 .3917,.4009 .5024,.6157 .2357,.5565 .268,1.0516-.0318,1.5983-.068,.097-.1268,.202-.2041,.2923-.5521,.6452-1.6564,1.098-2.2184,1.4107-.5375,.2991-1.1558,.4269-1.747,.5654-.2367,.036-.4715,.087-.7101,.1065-.852,.069-1.7224,-.083-2.4498,-.5408-.1044,-.083-.2169,-.1575-.3133,-.25-.4073,-.3914-.5345,-.8233-.3997,-1.3636 .2032,-.6461 .5218,-.9588 1.0648,-1.3565 1.0479,-.6191 1.9953,-1.302 3.1758,-1.5918l-1.4819,1.1332z" stroke="#000" stroke-linecap="round" stroke-linejoin="round" stroke-width=".2515"/>
<path d="m888.0182,1016.2554c-.2243,.2631-.4035,.5643-.4888,.9007-.0611,.3364 .1396,.4226 .4154,.5433 .4462,.1634 .8277,.1455 1.2847,.065 .6111,-.2095 1.5817,-.8066-1.1348,.692-.0381,.021 .0724,-.049 .1046,-.078 .0766,-.07 .0844,-.099 .1345,-.1863 .0923,-.207 .0832,-.4008-.0356,-.5915-.1581,-.1498-.3958,-.1357-.5998,-.1457-.2107,.019-.4113,.072-.5826,.1981l1.4548,-1.1716c.2072,-.078 .4191,-.128 .6429,-.1102 .2663,.026 .5282,.064 .7009,.2917 .1406,.2365 .1962,.4811 .1149,.7512-.2947,.8892-1.4141,1.2487-2.2802,1.4605-.4615,.058-.9177,.033-1.3515,-.1528-.3119,-.1609-.5915,-.3623-.5442,-.7527 .0576,-.3624 .2344,-.687 .4467,-.9831l1.718,-.7299z" stroke="#000" stroke-linecap="round" stroke-linejoin="round" stroke-width=".2515"/>
<path d="m864.1735,1020.7872c.3537,-.172 .6913,-.3752 1.0561,-.5235 .2286,-.1485 .4794,-.217 .7469,-.2463 .246,-.019 .4931,-.016 .7396,-.015 .2447,-.026 .452,.041 .667,.1458 .1505,.1206 .2692,.2808 .3835,.4358 .0994,.1805 .1578,.383 .2189,.5797 .0548,.2016 .1295,.3942 .169,.6001 .038,.2418 .0406,.4871 .0436,.7313 10e-4,.1259 8.9e-4,.2518 8.9e-4,.3777l-1.662,.8466c1.3e-4,-.1253 3.8e-4,-.2505-1.3e-4,-.3758-.002,-.2343-.002,-.4696-.0316,-.7024-.0328,-.2008-.1062,-.3854-.1597,-.5802-.0519,-.177-.1078,-.3572-.1882,-.5221-.0978,-.1283-.193,-.2748-.3336,-.3578-.1975,-.086-.4034,-.091-.6168,-.082-.2413,0-.4842,-10e-5-.7231,.039-.2526,.054-.4803,.1622-.7103,.2776-.3579,.1664-.704,.3572-1.0509,.5451l1.4507,-1.1736z" stroke="#000" stroke-linecap="round" stroke-linejoin="round" stroke-width=".2515"/>
</g>
<path d="m290.5627,686.8961 0,313.2704" fill="none" stroke="#000" stroke-width="5.6728"/>
<path d="m586.3743,686.9951 0,303.442 0,10.4485" fill="none" stroke="#000" stroke-width="5.6784"/>
</g>
<path d="m20.2138,318.6103 843.9261,0" fill="none" stroke="#000" transform="translate(0,602.3622)"/>
<path d="M-1828.7845,2093.5874H-1646.2286V2140.3192H-1828.7845z" stroke="#000" stroke-linejoin="round" stroke-width="4.4849" transform="matrix(1,0,.89431,.44744,0,0)"/>
<path d="M248.1604,917.9915H256.982V954.0597H248.1604z" fill="#fff" stroke="#000" stroke-linejoin="round" stroke-width="3"/>
<path d="M90.3414,917.9915H99.163V954.0597H90.3414z" fill="#fff" stroke="#000" stroke-linejoin="round" stroke-width="3"/>
<path d="M63.6975,904.2076H72.5192V940.2759H63.6975z" fill="#fff" stroke="#000" stroke-linejoin="round" stroke-width="3"/>
<path d="M213.9364,904.2076H222.758V940.2759H213.9364z" fill="#fff" stroke="#000" stroke-linejoin="round" stroke-width="3"/>
<path d="m-1567.6465,2052.4484-9.142,10.2243-182.5559,0 0,-46.7318 10.0958,-11.2304" fill="#fff" stroke="#000" stroke-linejoin="round" stroke-width="4.4849" transform="matrix(1,0,.89431,.44744,0,0)"/>
<path d="M-1750.5066,2006.0587H-1567.9507V2052.7905H-1750.5066z" fill="#fff" stroke="#000" stroke-linejoin="round" stroke-width="4.4849" transform="matrix(1,0,.89431,.44744,0,0)"/>
<path d="m85.2574,316.1118 0,4.69" fill="none" stroke="#000" stroke-width="3" transform="translate(0,602.3622)"/>
<use height="450" transform="translate(61.9048,59.0622)" width="900" x="0" xlink:href="#rect3913" y="0"/>
<path d="M-1693.3345,1941.6797H-1625.7446V1968.0603H-1693.3345z" fill="#fff" id="rect3913" stroke="#000" stroke-linejoin="round" stroke-width="4.5525" transform="matrix(1,0,.90079,.43426,61.90476,58.11467)"/>
<path d="M-8.6502,807.1389H58.6239V845.1526H-8.6502z" fill="#fff" stroke="#000" stroke-linejoin="round" stroke-width="3.0045" transform="matrix(1,0,.07699,.99703,61.90476,58.11467)"/>
<g transform="matrix(1.10564,0,0,1.10564,-15.58861,-94.31585)">
<path d="m446.8915,78.4154c0,2.9289-27.5427,5.3033-61.5183,5.3033-33.9756,0-61.5183,-2.3744-61.5183,-5.3033 0,-2.9289 27.5427,-5.3033 61.5183,-5.3033 33.9756,0 61.5183,2.3744 61.5183,5.3033z" id="shadow" stroke="#000" stroke-linecap="round" stroke-width="4.862" transform="matrix(-.72039,0,0,.72039,477.23183,896.51442)"/>
<path d="m161.5462,892.8661 0,34.4985c0,14.4129 11.6032,26.0161 26.0161,26.0161l25.5265,0c14.4129,0 26.0161,-11.6032 26.0161,-26.0161l0,-34.4985" fill="#fff" id="body" stroke="#000" stroke-linecap="round" stroke-linejoin="round" stroke-width="2.5"/>
<path d="m233.9746,887.2635 0,13.3584" fill="none" stroke="#000" stroke-linecap="round" stroke-width="3.5"/>
<path d="m228.2949,883.8559 0,13.3584" fill="none" stroke="#000" stroke-linecap="round" stroke-width="3.5"/>
<path d="m221.4338,882.5921 0,13.3584" fill="none" stroke="#000" stroke-linecap="round" stroke-width="3.5"/>
<path d="m214.9957,883.6469 0,13.3584" fill="none" stroke="#000" stroke-linecap="round" stroke-width="3.5"/>
<path d="m206.5839,882.8061 0,13.3584" fill="none" stroke="#000" stroke-linecap="round" stroke-width="3.5"/>
<path d="m198.5514,884.3813 0,13.3584" fill="none" stroke="#000" stroke-linecap="round" stroke-width="3.5"/>
<path d="m190.888,884.2549 0,13.3584" fill="none" stroke="#000" stroke-linecap="round" stroke-width="3.5"/>
<path d="m183.322,883.02 0,13.3584" fill="none" stroke="#000" stroke-linecap="round" stroke-width="3.5"/>
<path d="m176.179,885.2078 0,13.3584" fill="none" stroke="#000" stroke-linecap="round" stroke-width="3.5"/>
<path d="m168.4903,884.9422 0,13.3584" fill="none" stroke="#000" stroke-linecap="round" stroke-width="3.5"/>
</g>
<text font-family="Sans" font-size="2.475" letter-spacing="0" line-height="562.5" transform="skewX(6.553)" word-spacing="0" x="22.7893" y="869.0963">
    <tspan x="22.7893" y="869.0963">kfreoif reopierj</tspan>
    <tspan x="22.7893" y="872.1906">rrekzoirejkoig jrzeik êrk</tspan>
    <tspan x="22.7893" y="875.2849">gkr eojg eoirjg oijreoig jrekg</tspan>
    <tspan x="22.7893" y="878.3792">e</tspan>
    <tspan x="22.7893" y="881.4736">gre</tspan>
    <tspan x="22.7893" y="884.5679">kgo kerzpogkporekgorek</tspan>
    <tspan x="22.7893" y="887.6622">gre</tspan>
    <tspan x="22.7893" y="890.7565">gre</tspan>
    <tspan x="22.7893" y="893.8509">gore kgpo</tspan>
    <tspan x="22.7893" y="896.9452">kerzopgkreg</tspan>
   </text>
<g transform="translate(283)">
<path d="M-1828.7845,2093.5874H-1646.2286V2140.3192H-1828.7845z" stroke="#000" stroke-linejoin="round" stroke-width="4.4849" transform="matrix(1,0,.89431,.44744,0,0)"/>
<path d="M248.1604,917.9915H256.982V954.0597H248.1604z" fill="#fff" stroke="#000" stroke-linejoin="round" stroke-width="3"/>
<path d="M90.3414,917.9915H99.163V954.0597H90.3414z" fill="#fff" stroke="#000" stroke-linejoin="round" stroke-width="3"/>
<path d="M63.6975,904.2076H72.5192V940.2759H63.6975z" fill="#fff" stroke="#000" stroke-linejoin="round" stroke-width="3"/>
<path d="M213.9364,904.2076H222.758V940.2759H213.9364z" fill="#fff" stroke="#000" stroke-linejoin="round" stroke-width="3"/>
<path d="m-1567.6465,2052.4484-9.142,10.2243-182.5559,0 0,-46.7318 10.0958,-11.2304" fill="#fff" stroke="#000" stroke-linejoin="round" stroke-width="4.4849" transform="matrix(1,0,.89431,.44744,0,0)"/>
<path d="M-1750.5066,2006.0587H-1567.9507V2052.7905H-1750.5066z" fill="#fff" stroke="#000" stroke-linejoin="round" stroke-width="4.4849" transform="matrix(1,0,.89431,.44744,0,0)"/>
<path d="m85.2574,316.1118 0,4.69" fill="none" stroke="#000" stroke-width="3" transform="translate(0,602.3622)"/>
<use height="450" transform="translate(61.9048,59.0622)" width="900" x="0" xlink:href="#rect3913" y="0"/>
<path d="M-1693.3345,1941.6797H-1625.7446V1968.0603H-1693.3345z" fill="#fff" stroke="#000" stroke-linejoin="round" stroke-width="4.5525" transform="matrix(1,0,.90079,.43426,61.90476,58.11467)"/>
<path d="M-8.6502,807.1389H58.6239V845.1526H-8.6502z" fill="#fff" stroke="#000" stroke-linejoin="round" stroke-width="3.0045" transform="matrix(1,0,.07699,.99703,61.90476,58.11467)"/>
<g transform="matrix(1.10564,0,0,1.10564,-15.58861,-94.31585)">
<path d="m446.8915,78.4154c0,2.9289-27.5427,5.3033-61.5183,5.3033-33.9756,0-61.5183,-2.3744-61.5183,-5.3033 0,-2.9289 27.5427,-5.3033 61.5183,-5.3033 33.9756,0 61.5183,2.3744 61.5183,5.3033z" stroke="#000" stroke-linecap="round" stroke-width="4.862" transform="matrix(-.72039,0,0,.72039,477.23183,896.51442)"/>
<path d="m161.5462,892.8661 0,34.4985c0,14.4129 11.6032,26.0161 26.0161,26.0161l25.5265,0c14.4129,0 26.0161,-11.6032 26.0161,-26.0161l0,-34.4985" fill="#fff" stroke="#000" stroke-linecap="round" stroke-linejoin="round" stroke-width="2.5"/>
<path d="m233.9746,887.2635 0,13.3584" fill="none" stroke="#000" stroke-linecap="round" stroke-width="3.5"/>
<path d="m228.2949,883.8559 0,13.3584" fill="none" stroke="#000" stroke-linecap="round" stroke-width="3.5"/>
<path d="m221.4338,882.5921 0,13.3584" fill="none" stroke="#000" stroke-linecap="round" stroke-width="3.5"/>
<path d="m214.9957,883.6469 0,13.3584" fill="none" stroke="#000" stroke-linecap="round" stroke-width="3.5"/>
<path d="m206.5839,882.8061 0,13.3584" fill="none" stroke="#000" stroke-linecap="round" stroke-width="3.5"/>
<path d="m198.5514,884.3813 0,13.3584" fill="none" stroke="#000" stroke-linecap="round" stroke-width="3.5"/>
<path d="m190.888,884.2549 0,13.3584" fill="none" stroke="#000" stroke-linecap="round" stroke-width="3.5"/>
<path d="m183.322,883.02 0,13.3584" fill="none" stroke="#000" stroke-linecap="round" stroke-width="3.5"/>
<path d="m176.179,885.2078 0,13.3584" fill="none" stroke="#000" stroke-linecap="round" stroke-width="3.5"/>
<path d="m168.4903,884.9422 0,13.3584" fill="none" stroke="#000" stroke-linecap="round" stroke-width="3.5"/>
</g>
<text font-family="Sans" font-size="2.475" letter-spacing="0" line-height="562.5" transform="skewX(6.553)" word-spacing="0" x="22.7893" y="869.0963">
    <tspan x="22.7893" y="869.0963"></tspan>
    <tspan x="22.7893" y="872.1906">gre</tspan>
    <tspan x="22.7893" y="875.2849">kgo kerzpogkporekgorek</tspan>
    <tspan x="22.7893" y="878.3792">gre</tspan>
    <tspan x="22.7893" y="881.4736">gre</tspan>
    <tspan x="22.7893" y="884.5679">gore kgpo</tspan>
    <tspan x="22.7893" y="887.6622">kerzopgkreg</tspan>
    <tspan x="22.7893" y="890.7565">efoirzejiufre 'zopkop fkezkfez</tspan>
    <tspan x="22.7893" y="893.8509">z,feiof,eziof,eoizf</tspan>
    <tspan x="22.7893" y="896.9452">jzaefzjef</tspan>
   </text>
</g>
<path d="M-1258.7845,2093.5874H-1076.2286V2140.3192H-1258.7845z" stroke="#000" stroke-linejoin="round" stroke-width="4.4849" transform="matrix(1,0,.89431,.44744,0,0)"/>
<path d="M818.1604,917.9915H826.9821V954.0597H818.1604z" fill="#fff" stroke="#000" stroke-linejoin="round" stroke-width="3"/>
<path d="M660.3414,917.9915H669.163V954.0597H660.3414z" fill="#fff" stroke="#000" stroke-linejoin="round" stroke-width="3"/>
<path d="M633.6975,904.2076H642.5192V940.2759H633.6975z" fill="#fff" stroke="#000" stroke-linejoin="round" stroke-width="3"/>
<path d="M783.9364,904.2076H792.7581V940.2759H783.9364z" fill="#fff" stroke="#000" stroke-linejoin="round" stroke-width="3"/>
<path d="m837.8819,918.3571 .002,4.5748-182.5559,0-41.7928,-20.9099 .0523,-5.025" fill="#fff" stroke="#000" stroke-linejoin="round" stroke-width="3"/>
<path d="M-1180.5066,2006.0587H-997.9507V2052.7905H-1180.5066z" fill="#fff" stroke="#000" stroke-linejoin="round" stroke-width="4.4849" transform="matrix(1,0,.89431,.44744,0,0)"/>
<path d="m655.2574,918.474 0,4.69" fill="none" stroke="#000" stroke-width="3"/>
<use height="450" transform="translate(631.9048,59.0622)" width="900" x="0" xlink:href="#rect3913" y="0"/>
<path d="M-1693.3345,1941.6797H-1625.7446V1968.0603H-1693.3345z" fill="#fff" stroke="#000" stroke-linejoin="round" stroke-width="4.5525" transform="matrix(1,0,.90079,.43426,631.90476,58.11467)"/>
<path d="M-8.6502,807.1389H58.6239V845.1526H-8.6502z" fill="#fff" stroke="#000" stroke-linejoin="round" stroke-width="3.0045" transform="matrix(1,0,.07699,.99703,631.90476,58.11467)"/>
<g transform="matrix(1.10564,0,0,1.10564,554.41139,-94.31585)">
<path d="m446.8915,78.4154c0,2.9289-27.5427,5.3033-61.5183,5.3033-33.9756,0-61.5183,-2.3744-61.5183,-5.3033 0,-2.9289 27.5427,-5.3033 61.5183,-5.3033 33.9756,0 61.5183,2.3744 61.5183,5.3033z" stroke="#000" stroke-linecap="round" stroke-width="4.862" transform="matrix(-.72039,0,0,.72039,477.23183,896.51442)"/>
<path d="m161.5462,892.8661 0,34.4985c0,14.4129 11.6032,26.0161 26.0161,26.0161l25.5265,0c14.4129,0 26.0161,-11.6032 26.0161,-26.0161l0,-34.4985" fill="#fff" stroke="#000" stroke-linecap="round" stroke-linejoin="round" stroke-width="2.5"/>
<path d="m233.9746,887.2635 0,13.3584" fill="none" stroke="#000" stroke-linecap="round" stroke-width="3.5"/>
<path d="m228.2949,883.8559 0,13.3584" fill="none" stroke="#000" stroke-linecap="round" stroke-width="3.5"/>
<path d="m221.4338,882.5921 0,13.3584" fill="none" stroke="#000" stroke-linecap="round" stroke-width="3.5"/>
<path d="m214.9957,883.6469 0,13.3584" fill="none" stroke="#000" stroke-linecap="round" stroke-width="3.5"/>
<path d="m206.5839,882.8061 0,13.3584" fill="none" stroke="#000" stroke-linecap="round" stroke-width="3.5"/>
<path d="m198.5514,884.3813 0,13.3584" fill="none" stroke="#000" stroke-linecap="round" stroke-width="3.5"/>
<path d="m190.888,884.2549 0,13.3584" fill="none" stroke="#000" stroke-linecap="round" stroke-width="3.5"/>
<path d="m183.322,883.02 0,13.3584" fill="none" stroke="#000" stroke-linecap="round" stroke-width="3.5"/>
<path d="m176.179,885.2078 0,13.3584" fill="none" stroke="#000" stroke-linecap="round" stroke-width="3.5"/>
<path d="m168.4903,884.9422 0,13.3584" fill="none" stroke="#000" stroke-linecap="round" stroke-width="3.5"/>
</g>
<path d="m724.5,278.75a11,11 0 1 1 -22,0 11,11 0 1 1 22,0z" fill="#fff" stroke="#000" stroke-linejoin="round" stroke-width="2" transform="matrix(1,0,.08,1,-14.55,602.86218)"/>
<text font-family="Sans" font-size="20" letter-spacing="0" line-height="562.5" word-spacing="0" x="782" y="851.3622">
   <tspan x="782" y="851.3622">Hmm...</tspan>
  </text>
<path d="m807,858.3622-6,18" fill="none" stroke="#000"/>
<text font-family="Sans" font-size="16.351" letter-spacing="0" line-height="562.5" word-spacing="0" x="160.6577" y="717.5861">
   <tspan text-align="center" text-anchor="middle" x="160.6577" y="717.5861">Alors, vous créez une interface</tspan>
   <tspan text-align="center" text-anchor="middle" x="160.6577" y="738.0252">DirectX, puis un device.</tspan>
   <tspan text-align="center" text-anchor="middle" x="160.6577" y="758.4644">Ensuite vous créez une Vertex</tspan>
   <tspan text-align="center" text-anchor="middle" x="160.6577" y="778.9036">Declaration et un Vertex</tspan>
   <tspan text-align="center" text-anchor="middle" x="160.6577" y="799.3427">Buffer. Initialisez les</tspan>
   <tspan text-align="center" text-anchor="middle" x="160.6577" y="819.7819">différentes matrices et</tspan>
   <tspan text-align="center" text-anchor="middle" x="160.6577" y="840.2211">créez la WorldViewProj.</tspan>
  </text>
<path d="M57.9828,816.1885 29.6985,829.6236" fill="none" stroke="#000"/>
<text font-family="Sans" font-size="20" letter-spacing="0" line-height="562.5" word-spacing="0" x="724.1332" y="733.457">
   <tspan text-align="center" text-anchor="middle" x="724.1332" y="733.457">Voilà, vous avez un</tspan>
   <tspan text-align="center" text-anchor="middle" x="724.1332" y="758.457">triangle ! Facile DirectX</tspan>
   <tspan text-align="center" text-anchor="middle" x="724.1332" y="783.457">non ?</tspan>
  </text>
<path d="m645.5885,780.1261-40.3051,27.5772" fill="none" stroke="#000"/>
<text font-family="Sans" font-size="16.351" letter-spacing="0" line-height="562.5" word-spacing="0" x="440.8988" y="719.4043">
   <tspan text-align="center" text-anchor="middle" x="440.8988" y="719.4043">Mettez en place votre Shader et</tspan>
   <tspan text-align="center" text-anchor="middle" x="440.8988" y="739.8434">passez lui cette matrice. Initialisez</tspan>
   <tspan text-align="center" text-anchor="middle" x="440.8988" y="760.2826">votre device et vos effets.</tspan>
   <tspan text-align="center" text-anchor="middle" x="440.8988" y="780.7218">N'oubliez pas de mettre en</tspan>
   <tspan text-align="center" text-anchor="middle" x="440.8988" y="801.1609">place votre Index Buffer, et</tspan>
   <tspan text-align="center" text-anchor="middle" x="440.8988" y="821.6002">compilez !</tspan>
  </text>
<path d="m328.0976,813.3601-24.7487,19.0919" fill="none" stroke="#000"/>
</g>
</svg>
