<svg version="1.1" viewBox="0 0 900 450" xmlns="http://www.w3.org/2000/svg" xmlns:osb="http://www.openswatchbook.org/uri/2009/osb" xmlns:svg="http://www.w3.org/2000/svg" xmlns:xlink="http://www.w3.org/1999/xlink">
<defs>
<pattern height="1.7321" id="Packedcircles" patternTransform="matrix(10,0,0,10,0,0)" patternUnits="userSpaceOnUse" width="1">
<path d="M.5,.5A.5,.5 0 1 0 -.5,.5A.5,.5 0 1 0 .5,.5z" fill="black"/>
<path d="M1.5,.5A.5,.5 0 1 0 .5,.5A.5,.5 0 1 0 1.5,.5z" fill="black"/>
<path d="M1,1.366A.5,.5 0 1 0 0,1.366A.5,.5 0 1 0 1,1.366z" fill="black"/>
<path d="M1,-.366A.5,.5 0 1 0 0,-.366A.5,.5 0 1 0 1,-.366z" fill="black"/>
</pattern>
</defs>
<g transform="translate(0,-602.3622)">
<g transform="translate(4.348,6.8517)">
<path d="M49.7619,685.9382H830.7638A31.621,31.621 0 0 1 862.3848,717.5592V965.908A31.621,31.621 0 0 1 830.7638,997.529H49.7619A31.621,31.621 0 0 1 18.1409,965.908V717.5592A31.621,31.621 0 0 1 49.7619,685.9382z" fill="#fff" stroke="#000" stroke-linecap="round" stroke-width="7.4907"/>
<path d="M47.6627,653.346H298.8266A15.6552,15.6552 0 0 1 314.4818,669.0012V669.0012A15.6552,15.6552 0 0 1 298.8266,684.6564H47.6627A15.6552,15.6552 0 0 1 32.0075,669.0012V669.0012A15.6552,15.6552 0 0 1 47.6627,653.346z" fill="#fff" stroke="#000" stroke-linecap="round" stroke-linejoin="round" stroke-width="4.5094" transform="matrix(1,-.00315,.00315,1,0,0)"/>
<path d="m101.5203,44.9288c0,19.2473-16.5075,34.8503-36.8706,34.8503-20.3631,0-36.8706,-15.603-36.8706,-34.8503 0,-19.2473 16.5075,-34.8503 36.8706,-34.8503 20.3631,0 36.8706,15.603 36.8706,34.8503z" stroke="#000" stroke-linecap="round" stroke-linejoin="round" stroke-width="7.491" transform="matrix(1.24255,-.00391,.00217,.68917,-24.05631,630.39443)"/>
<text font-family="Bitstream Vera Sans" font-size="40" transform="matrix(1,-.00315,.00315,1,0,0)" x="17.4067" y="676.187">
    <tspan fill="#f9f9f9" x="17.4067" y="676.187">225</tspan>
   </text>
<text font-family="Bitstream Vera Sans" font-size="20" transform="matrix(1,-.00315,.00315,1,0,0)" x="166.1034" y="676.1717">
    <tspan x="166.1034" y="676.1717">Suède</tspan>
   </text>
<g transform="translate(-1.2557,-5.8749)">
<path d="m839.4465,1023.3074c.4393,.5102 1.0355,.5714 1.6702,.6073 .8029,-.022 1.6072,-.2138 2.3575,-.4993 .4009,-.1526 .6224,-.2825 .9965,-.4789-2.2387,1.3097-.9924,.6082-.5738,.1636 .2168,-.2303 .3463,-.473 .4686,-.7606 .3177,-.895 .3589,-1.8574 .4131,-2.7971 .1056,-1.3679-.1776,-2.7109-.4825,-4.0351-.3709,-1.393-.8746,-2.7467-1.4294,-4.0758-.2656,-.6279-.5661,-1.24-.8587,-1.8555-.3944,-.7567-.717,-.2868 1.5104,-1.1508 .0768,-.03 .0919,.1367 .1411,.2027 .0824,.1106 .1689,.2179 .2534,.3269 .8217,1.1276 1.8098,2.1155 2.8001,3.0928 .5826,.5674 1.2074,1.0941 1.7645,1.6874 .2114,.1726 .3378,.416 .508,.6229 .1662,.1502 .2962,-.01 .4431,-.1106-2.5656,1.5384-1.6519,1.0412-1.16,.5694 .1937,-.1857 .3764,-.3843 .5619,-.5781 .2632,-.2626 .5127,-.5438 .801,-.7804 .761,-.6244 1.8227,-1.1234 2.6097,-1.5711 .7271,-.3211 1.471,-.6005 2.2265,-.8467 .1563,-.034 .761,-.2665 .899,-.1093 .0321,.037 .0451,.086 .0677,.1294 .003,.044 .0154,.089 .009,.1323-.0436,.3196-.5385,.6915-.7545,.8904-.9928,.8207-1.9561,1.6745-2.8731,2.5792-.7976,.8557-1.6216,1.7004-2.2566,2.6874-.3921,.6165-.6005,1.2972-.6984,2.0144-.0648,.6415-.0542,1.2873-.0532,1.9312 .0351,.6998 .1244,1.4011 .3328,2.0715 .1195,.3571 .3319,.6194 .6717,.7762 .2255,.08 .4837,.1318 .7238,.087 .0559,-.011 .5216,-.1684 .5589,-.1808 .5492,-.2997 1.8756,-1.0005-.6067,.3598-.0982,.054 .1891,-.1201 .2821,-.1824 .2138,-.143 .2651,-.1851 .4657,-.3346 .2405,-.18 .1266,-.092 .3424,-.2617l1.7191,-.6913c-.2178,.1831-.1012,.092-.3516,.2719-1.0139,.7828-2.137,1.4308-3.3009,1.9611-.5107,.1524-.8878,.2254-1.3851,-.01-.3662,-.2066-.6055,-.5062-.7343,-.9112-.2041,-.6903-.2811,-1.409-.3481,-2.1238-.004,-.6502-.0146,-1.3021 .038,-1.9509 .0928,-.7431 .2887,-1.4524 .6884,-2.0955 .0802,-.1333 .153,-.2712 .2404,-.3997 .1797,-.264 .4481,-.5661 .6529,-.8036 .4526,-.5248 .9157,-1.0402 1.3938,-1.5419 .8918,-.8997 1.8318,-1.7498 2.8066,-2.5592 .2761,-.2564 .5618,-.5063 .8001,-.7993 .0396,.021-.0878,.017-.1321,.024-.221,.031-.4338,.1-.6466,.1641-.7471,.2466-1.4866,.5202-2.1959,.8624 2.4446,-1.4457 .9748,-.6248 .497,-.2572-.291,.2239-.54,.5004-.7953,.7622-.9257,.9765-.9789,1.08-2.5451,1.8884-.2567,.1212-.4002,.1068-.6009,-.1041-.1584,-.2095-.2853,-.4431-.481,-.6233-.5334,-.6025-1.1282,-1.1492-1.6932,-1.7213-.9808,-.9983-1.9768,-1.9849-2.8496,-3.0818-.0938,-.1054-.1877,-.2107-.2814,-.3162-.0521,-.059-.2154,-.1251-.1559,-.1761 1.4141,-1.214 1.334,-1.5318 1.6993,-.7303 .2757,.628 .5663,1.2498 .8171,1.8885 .5249,1.3529 1.0089,2.7231 1.4053,4.1197 .3185,1.3302 .6335,2.6815 .5419,4.06-.0362,.9485-.0918,1.9144-.3493,2.8318-.0847,.2347-.1139,.3545-.249,.5692-.5939,.9436-1.8747,1.3891-2.7166,1.9248-1.0714,.5265-2.2113,.8989-3.4172,.9043-.1676,-.014-.3365,-.016-.5029,-.04-.4955,-.073-.9575,-.2895-1.3004,-.6569l1.6003,-.9608z" stroke="#000" stroke-linecap="round" stroke-linejoin="round" stroke-width=".2515"/>
<path d="m854.8111,1021.1506c-.7394,.2071-2.342,1.1965 .4555,-.4044-.388,.2065-.6184,.5425-.7999,.9302-.1036,.3106-.2142,.6511-.1917,.9845 .0156,.2306 .0756,.3465 .154,.562 .3071,.6068 .7795,1.1058 1.3399,1.4838 .4137,.2881 .8839,.4192 1.383,.4252 .3851,-.087 .7431,-.2375 1.0957,-.4123 .1503,-.075 .5909,-.3179 .4467,-.2321-1.6618,.9893-1.2456,.7222-.6575,.3195 .4842,-.373 1.0105,-.8057 1.1352,-1.4399 .0174,-.089 .0162,-.1799 .0243,-.2698-.032,-.7933-.5333,-1.4143-1.0169,-2.0008-.3049,-.3393-.6501,-.6629-1.0669,-.861-.2115,-.1006-.32,-.1184-.544,-.1779-.4519,-.025-.9255,.018-1.3546,.1741-.1984,.072-.499,.2393-.6834,.3368 2.5132,-1.5077 .8665,-.5123 .3482,-.062l-1.7106,.6997c.796,-.7657 1.8589,-1.2168 2.7842,-1.7768 .2686,-.1306 .4271,-.2209 .7141,-.308 .4568,-.1387 .9485,-.1711 1.419,-.1018 .2419,.077 .34,.097 .5672,.2178 .4231,.2254 .772,.5679 1.084,.9255 .5088,.6264 1.0253,1.2756 1.1028,2.1094-.004,.1012 .002,.2032-.0112,.3036-.0928,.6824-.6005,1.1675-1.1167,1.5707-1.0013,.7187-.4882,.3709-2.4236,1.4672-.5043,.2856-1.0559,.5275-1.6351,.5951-.5218,-.046-1.0072,-.1999-1.4323,-.5166-.5749,-.4193-1.0583,-.9487-1.3949,-1.5794-.0786,-.2055-.1678,-.4012-.1946,-.6229-.0421,-.3472 .0735,-.7121 .1572,-1.043 .1608,-.4085 .3649,-.7958 .7491,-1.0357 .9031,-.5198 1.7482,-1.1163 2.7557,-1.3944l-1.4819,1.1332z" stroke="#000" stroke-linecap="round" stroke-linejoin="round" stroke-width=".2515"/>
<path d="m862.6073,1021.9051c-.3203,.1024-.653,.1903-.9574,.3362-.1022,.049-.1982,.1101-.2973,.1651 .4207,-.2356 .8414,-.4712 1.2621,-.7068-.4994,.337-.87,.6738-1.0934,1.2386-.1462,.4653-.0761,.8587 .2923,1.2028 .0889,.083 .1935,.1478 .2903,.2216 .7042,.4046 1.5378,.5494 2.3444,.4638 .2312,-.024 .458,-.081 .687,-.1208 .53,-.1368 .7609,-.1749 1.2586,-.3838 .1651,-.069 .635,-.3304 .4812,-.2386-2.2382,1.3365-1.2251,.7542-.8736,.3984 .0779,-.079 .1399,-.1722 .2098,-.2583 .3065,-.4795 .3144,-.9061 .0985,-1.417-.0396,-.09-.268,-.5604-.4291,-.4586-.0279,.018-.042,.051-.063,.076 2.5422,-1.4497 1.5743,-1.2073 1.3278,-.5008-.1064,.3049-.125,.6013-.1396,.9215 .1766,1.4863 .8332,2.8626 1.3726,4.2435 .6559,1.8244 1.2881,3.7176 1.3609,5.6745 .0145,.3894-.0234,.779-.0352,1.1686-.0582,.3745-.0908,.7539-.1745,1.1236-.2732,1.2059-.8948,2.3097-1.8179,3.137-.1627,.1458-.3469,.2657-.5204,.3986-.6941,.3626-1.3545,.7991-2.0824,1.0879-.3018,.1197-1.0302,-.13-1.269,-.2365-.8875,-.3956-1.654,-1.0455-2.408,-1.6406-1.2719,-1.0888-2.5172,-2.2246-3.6551,-3.4553-.5895,-.6376-.7352,-.8522-1.2473,-1.5117-.4358,-.7271-.9494,-1.5701-.521,-2.4271 .2535,-.5072 .5596,-.6912 .9842,-1.0605 1.2727,-.8247 1.3769,-.9187 3.2195,-1.8517 .4497,-.2278 1.9,-.7427 2.3438,-.8976 .8851,-.3088 1.8369,-.6147 2.7269,-.9055 2.3381,-.6745 4.6281,-1.4959 6.8915,-2.3865 .1921,-.082 .3845,-.1627 .5764,-.245 .1466,-.063 .2943,-.1233 .439,-.1903 .2958,-.1371 .5721,-.3067 .8773,-.4229 .4138,-.059 .559,.4391 .6828,.7418 .2853,.7705 .446,1.5785 .5154,2.3954 .0171,.366 .029,.7336-.0228,1.0975-.005,.037 .0139,.095-.0201,.1109-.5544,.2582-1.1333,.4601-1.6999,.6901 10e-4,-.1125-.005,-.2255 .004,-.3377 .0133,-.1633 .0414,-.325 .063,-.4874 .1257,-.9479 .2903,-1.8832 .4832,-2.8196 .1955,-.8168 .3644,-1.6723 .8312,-2.3853 .5286,-.5535 1.7043,-1.6447 2.2768,-1.0096 .06,.066 .1019,.1472 .1529,.2208 .112,.1981 .2088,.3486 .2821,.5681 .2061,.6171 .2986,1.3405 .4077,1.9824 .1424,.5555 .0881,1.2207 .2567,1.7654 .2229,-.5987-.002,.028-1.6032,.7911-.0325,.016 .0489,-.053 .0671,-.084 .0417,-.071 .1233,-.2801 .1551,-.3443 .0434,-.088 .0929,-.1719 .1393,-.2578 .3011,-.4825 .556,-.9925 .8877,-1.4553 .5547,-.695 1.0736,-.8467 2.0338,-1.3743 .0329,-.018 .0773,-.01 .1126,.01 .045,.016 .08,.053 .12,.079 .3755,.395 .5063,.9539 .6331,1.4682 .1102,.5601 .1692,1.1313 .374,1.667 .0499,.07 .0906,.1479 .1496,.2106 .4298,.457 1.1407,.7985 1.727,.9843 .2206,.07 .4479,.1166 .6718,.1749 .9481,.2366 1.8995,.2484 2.8425,-.011 .2087,-.057 .4184,-.1173 .6161,-.2054 .1842,-.082 .3491,-.2019 .5237,-.3029-.3631,.1874-.6996,.4397-1.0894,.5622-.1503,.047 .2339,-.2118 .3412,-.3272 .3164,-.3401 .4973,-.7183 .6246,-1.1582 .0873,-.3664 .0858,-.7428 .0757,-1.1166-.1021,-.7716-.7838,-.012 1.5762,-.9706 .043,-.018-.0252,.089-.0325,.1353-.0105,.067-.0137,.1342-.0206,.2013-.0335,.608-.0474,1.2173 .0202,1.823 .0688,.3897 .1433,.7878 .4487,1.0613 .2149,.1415 .443,.1511 .6803,.073 .5712,-.2882 1.4287,-.7883-1.1689,.6782-.0922,.052 .1782,-.1143 .2658,-.1737l1.729,-.6875c-.1338,.1099-.1095,.099-.2632,.1885-.5841,.3415-1.3074,.9119-2.0466,1.1199-.2885,.031-.5575,-.032-.7831,-.2236-.314,-.3274-.4165,-.7448-.4864,-1.185-.0743,-.6127-.0594,-1.2282-.0514,-1.8445 .002,-.082 .01,-.3683 .0155,-.3721 1.2231,-.8124 1.6186,-1.5813 1.7738,-.6732 .009,.3928 .009,.788-.0729,1.1745-.4026,1.604-1.4656,1.9694-2.9269,2.8345-.1797,.091-.3518,.1981-.539,.2718-1.1255,.4432-2.3519,.4076-3.5096,.1301-.2313,-.061-.4661,-.1105-.6938,-.184-.5824,-.188-1.4014,-.59-1.8309,-1.0418-.0707,-.074-.1217,-.1655-.1826,-.2482-.2042,-.5463-.263,-1.1251-.3681,-1.696-.1059,-.4424-.211,-.9895-.5766,-1.2965-.0863,.011-.0417,0-.1309,.047 .494,-.2932 .9881,-.5865 1.4821,-.8797 .0418,-.024-.0765,.059-.1115,.092-.088,.083-.1593,.1828-.2543,.2588-.3546,.4458-.6103,.9514-.9065,1.4362-.1113,.1906-.2033,.372-.2742,.581-.0144,.043 .002,.1065-.037,.1297-1.6718,1.0056-1.301,1.4123-1.7676,.8263-.1403,-.5915-.0684,-1.2195-.2051,-1.8138-.1337,-.8319-.2366,-1.7229-.6888,-2.4507-.0786,-.095-.1124,-.1812-.2373,-.2043-.0338,-.01-.1319,.028-.1027,.01 .4848,-.3029 .9881,-.5749 1.4781,-.8692 .044,-.026-.0961,.038-.1396,.065-.0513,.032-.0953,.075-.1429,.1121-.5512,.6573-.7174,1.5447-.9403,2.3499-.2511,1.1608-.4667,2.3381-.5021,3.5279-.5413,.3318-1.0717,.6821-1.624,.9953-.0304,.017 .0302,-.063 .04,-.097 .1011,-.3479 .0723,-.7161 .0723,-1.073-.0467,-.7985-.196,-1.5926-.501,-2.3352-.0582,-.1343-.1651,-.5237-.3687,-.5375-.0472,0-.1338,.034-.1714,.048-.6021,.2681-1.1868,.5757-1.8125,.79-2.2433,.8437-4.5057,1.6345-6.8063,2.3092-1.3354,.4418-2.6801,.8688-3.988,1.3886-.3765,.1496-.7211,.3958-1.1182,.4762-.2039,.041 .7012,-.4449 .5142,-.3538-.2728,.1328-.5155,.32-.7733,.48-.4814,.3865-1.0718,.7863-1.1859,1.4525-.1123,.6558 .3053,1.2621 .5878,1.8057 .1747,.2387 .3409,.4838 .524,.716 1.2506,1.586 2.7724,2.9468 4.3216,4.2314 .7601,.5675 1.5353,1.2021 2.4338,1.5462 .2074,.08 .4249,.1396 .6456,.1642 .1883,.021 .6695,-.1887 .5676,-.029-.2124,.3325-.6509,.446-.9763,.669 .1821,-.1272 .3749,-.2403 .5464,-.3815 .9528,-.7839 1.6207,-1.8661 1.9179,-3.062 .0903,-.3634 .1256,-.7382 .1884,-1.1073 .0181,-.3842 .0641,-.7681 .0543,-1.1526-.0495,-1.9411-.7079,-3.8142-1.3712,-5.6146-.5628,-1.3919-1.2476,-2.7639-1.4927,-4.2575-.008,-.3536 3.7e-4,-.6227 .086,-.9648 .005,-.019 .0997,-.3596 .142,-.3887 .5428,-.3739 1.1209,-.6937 1.6814,-1.0405 .0426,0 .0866,0 .1279,.01 .2648,.072 .3917,.4009 .5024,.6157 .2357,.5565 .268,1.0516-.0318,1.5983-.068,.097-.1268,.202-.2041,.2923-.5521,.6452-1.6564,1.098-2.2184,1.4107-.5375,.2991-1.1558,.4269-1.747,.5654-.2367,.036-.4715,.087-.7101,.1065-.852,.069-1.7224,-.083-2.4498,-.5408-.1044,-.083-.2169,-.1575-.3133,-.25-.4073,-.3914-.5345,-.8233-.3997,-1.3636 .2032,-.6461 .5218,-.9588 1.0648,-1.3565 1.0479,-.6191 1.9953,-1.302 3.1758,-1.5918l-1.4819,1.1332z" stroke="#000" stroke-linecap="round" stroke-linejoin="round" stroke-width=".2515"/>
<path d="m888.0182,1016.2554c-.2243,.2631-.4035,.5643-.4888,.9007-.0611,.3364 .1396,.4226 .4154,.5433 .4462,.1634 .8277,.1455 1.2847,.065 .6111,-.2095 1.5817,-.8066-1.1348,.692-.0381,.021 .0724,-.049 .1046,-.078 .0766,-.07 .0844,-.099 .1345,-.1863 .0923,-.207 .0832,-.4008-.0356,-.5915-.1581,-.1498-.3958,-.1357-.5998,-.1457-.2107,.019-.4113,.072-.5826,.1981l1.4548,-1.1716c.2072,-.078 .4191,-.128 .6429,-.1102 .2663,.026 .5282,.064 .7009,.2917 .1406,.2365 .1962,.4811 .1149,.7512-.2947,.8892-1.4141,1.2487-2.2802,1.4605-.4615,.058-.9177,.033-1.3515,-.1528-.3119,-.1609-.5915,-.3623-.5442,-.7527 .0576,-.3624 .2344,-.687 .4467,-.9831l1.718,-.7299z" stroke="#000" stroke-linecap="round" stroke-linejoin="round" stroke-width=".2515"/>
<path d="m864.1735,1020.7872c.3537,-.172 .6913,-.3752 1.0561,-.5235 .2286,-.1485 .4794,-.217 .7469,-.2463 .246,-.019 .4931,-.016 .7396,-.015 .2447,-.026 .452,.041 .667,.1458 .1505,.1206 .2692,.2808 .3835,.4358 .0994,.1805 .1578,.383 .2189,.5797 .0548,.2016 .1295,.3942 .169,.6001 .038,.2418 .0406,.4871 .0436,.7313 10e-4,.1259 8.9e-4,.2518 8.9e-4,.3777l-1.662,.8466c1.3e-4,-.1253 3.8e-4,-.2505-1.3e-4,-.3758-.002,-.2343-.002,-.4696-.0316,-.7024-.0328,-.2008-.1062,-.3854-.1597,-.5802-.0519,-.177-.1078,-.3572-.1882,-.5221-.0978,-.1283-.193,-.2748-.3336,-.3578-.1975,-.086-.4034,-.091-.6168,-.082-.2413,0-.4842,-10e-5-.7231,.039-.2526,.054-.4803,.1622-.7103,.2776-.3579,.1664-.704,.3572-1.0509,.5451l1.4507,-1.1736z" stroke="#000" stroke-linecap="round" stroke-linejoin="round" stroke-width=".2515"/>
</g>
<path d="m290.5627,686.8961 0,313.2704" fill="none" stroke="#000" stroke-width="5.6728"/>
<path d="m586.3743,686.9951 0,303.442 0,10.4485" fill="none" stroke="#000" stroke-width="5.6784"/>
</g>
<path d="m51.6371,932.0484-26.4054,-11.0694 .6437,-198.1958 118.4591,.3719 21.8869,10.5038" fill="#fff" stroke="#000" stroke-linejoin="bevel" stroke-width="4.038" transform="matrix(.98128,-.19259,0,1,0,0)"/>
<path d="M50.981,733.935H167.5089V932.2547H50.981z" fill="#fff" stroke="#000" stroke-linejoin="bevel" stroke-width="4.038" transform="matrix(.98128,-.19259,0,1,0,0)"/>
<path d="m1541.7132,1685.866 49.207,52.0359 0,127.0388-120.1482,0-44.3583,-47.794" fill="#fff" stroke="#000" stroke-linejoin="bevel" stroke-width="5.4325" transform="matrix(-.98233,.18714,.9269,.37531,0,0)"/>
<path d="M1423.4249,1687.7233H1543.5732V1814.7622H1423.4249z" fill="#fff" stroke="#000" stroke-linejoin="bevel" stroke-width="5.4325" transform="matrix(-.98233,.18714,.9269,.37531,0,0)"/>
<path d="m276.933,206.567a37.9666,77.2732 0 1 1 -75.9332,0 37.9666,77.2732 0 1 1 75.9332,0z" fill="#fff" stroke="#000" stroke-linejoin="bevel" stroke-width="4" transform="matrix(1,.15646,0,1,2.68,550.6793)"/>
<path d="m250.9147,870.6807c-20.9684,-3.2808-36.0683,-39.3085-36.0683,-81.9853 0,-35.6368 11.406,-64.6781 27.5257,-71.0846" fill="#fff" stroke="#000" stroke-linejoin="bevel" stroke-width="4"/>
<path d="m233.9315,771.2822c3.0622,-4.3571 3.7617,-7.2597 12.06,-3.7967 6.4749,-5.3522 14.417,-3.3257 16.75,.8933 8.1316,-3.4171 11.733,-1.0312 12.73,4.4667 1.0577,9.0049 1.8607,16.3201-12.06,9.6033-3.6585,1.5173-13.8472,4.2285-18.3133,.2233-15.0381,2.4984-15.9033,-1.495-11.1667,-11.39z" fill="none" stroke="#000" stroke-width="3"/>
<g transform="matrix(1.85287,0,0,1.85287,67.15884,-991.38931)">
<path d="m446.8915,78.4154c0,2.9289-27.5427,5.3033-61.5183,5.3033-33.9756,0-61.5183,-2.3744-61.5183,-5.3033 0,-2.9289 27.5427,-5.3033 61.5183,-5.3033 33.9756,0 61.5183,2.3744 61.5183,5.3033z" id="shadow" stroke="#000" stroke-linecap="round" stroke-width="4.862" transform="matrix(.72039,0,0,.72039,-225.83485,981.09953)"/>
<path d="m89.8508,977.4512 0,34.4985c0,14.4129-11.6032,26.0161-26.0161,26.0161l-25.5265,0c-14.4129,0-26.0161,-11.6032-26.0161,-26.0161l0,-34.4985" fill="#fff" id="body" stroke="#000" stroke-linecap="round" stroke-linejoin="round" stroke-width="2.5"/>
<path d="m17.4224,971.8486 0,13.3584" fill="none" stroke="#000" stroke-linecap="round" stroke-width="3.5"/>
<path d="m23.1021,968.441 0,13.3584" fill="none" stroke="#000" stroke-linecap="round" stroke-width="3.5"/>
<path d="m29.9631,967.1772 0,13.3584" fill="none" stroke="#000" stroke-linecap="round" stroke-width="3.5"/>
<path d="m36.4012,968.232 0,13.3584" fill="none" stroke="#000" stroke-linecap="round" stroke-width="3.5"/>
<path d="m44.8131,967.3912 0,13.3584" fill="none" stroke="#000" stroke-linecap="round" stroke-width="3.5"/>
<path d="m52.8456,968.9664 0,13.3584" fill="none" stroke="#000" stroke-linecap="round" stroke-width="3.5"/>
<path d="m60.509,968.84 0,13.3584" fill="none" stroke="#000" stroke-linecap="round" stroke-width="3.5"/>
<path d="m68.0749,967.6051 0,13.3584" fill="none" stroke="#000" stroke-linecap="round" stroke-width="3.5"/>
<path d="m75.218,969.7929 0,13.3584" fill="none" stroke="#000" stroke-linecap="round" stroke-width="3.5"/>
<path d="m82.9067,969.5273 0,13.3584" fill="none" stroke="#000" stroke-linecap="round" stroke-width="3.5"/>
<path d="m45.0406,1024.2964 19.0817,-3.0803" fill="none" id="mouth" stroke="#000" stroke-linecap="round" stroke-width=".5"/>
<path d="m12.9687,996.5084 77.1402,0" fill="none" stroke="#000" stroke-width="1.5"/>
<path d="M34.5709,991.9564H49.3415A1.6364,1.6364 0 0 1 50.9779,993.5928V999.424A1.6364,1.6364 0 0 1 49.3415,1001.0604H34.5709A1.6364,1.6364 0 0 1 32.9345,999.424V993.5928A1.6364,1.6364 0 0 1 34.5709,991.9564z" stroke="#000" stroke-linecap="round" stroke-width="2"/>
<path d="M63.3087,991.9564H78.0793A1.6364,1.6364 0 0 1 79.7157,993.5928V999.424A1.6364,1.6364 0 0 1 78.0793,1001.0604H63.3087A1.6364,1.6364 0 0 1 61.6724,999.424V993.5928A1.6364,1.6364 0 0 1 63.3087,991.9564z" stroke="#000" stroke-linecap="round" stroke-width="2"/>
</g>
<g fill="#fff" stroke="#000" stroke-linejoin="bevel" stroke-width="3">
<path d="m35.4908,916.1651 28.5299,-7.9767 0,-42.2147-28.5299,3.9443z" fill="#fff" fill-rule="evenodd" stroke="#000"/>
<path d="m64.0207,908.1884 0,-42.2147 67.4407,13.3673 0,50.6024z" fill="#fff" fill-rule="evenodd" stroke="#000"/>
<path d="m35.4908,916.1651 28.5299,-7.9767 67.4407,21.755-26.9887,12.2858z" fill="#fff" fill-rule="evenodd" stroke="#000"/>
<path d="m35.4908,869.9179 28.5299,-3.9443 67.4407,13.3673-26.9887,6.3796z" fill="#fff" fill-rule="evenodd" stroke="#000"/>
<path d="m35.4908,916.1651 0,-46.2472 68.982,15.8027 0,56.5085z" fill="#fff" fill-rule="evenodd" stroke="#000"/>
<path d="m104.4728,942.2291 26.9887,-12.2858 0,-50.6024-26.9887,6.3796z" fill="#fff" fill-rule="evenodd" stroke="#000"/>
</g>
<path d="m297.4796,401.7601 69.6799,-75.9332 159.0131,0 64.3199,75.9332" fill="none" stroke="#000" stroke-width="4" transform="translate(0,602.3622)"/>
<path d="m446.8915,78.4154a61.5183,5.3033 0 1 1 -123.0366,0 61.5183,5.3033 0 1 1 123.0366,0z" stroke="#000" stroke-linecap="round" stroke-width="4.862" transform="matrix(1.33479,0,0,1.33479,-73.08786,839.65239)"/>
<path d="m294.7996,856.7224 295.6929,0" fill="none" stroke="#000"/>
<path d="m511.8356,832.8925 0,63.9211c0,26.7052-21.4992,48.2044-48.2044,48.2044l-47.2971,0c-26.7052,0-48.2044,-21.4992-48.2044,-48.2044l0,-63.9211" fill="#fff" stroke="#000" stroke-linecap="round" stroke-linejoin="round" stroke-width="4.6322"/>
<path d="m377.6354,822.5117 0,24.7514" fill="none" stroke="#000" stroke-linecap="round" stroke-width="6.485"/>
<path d="m388.1592,816.1978 0,24.7514" fill="none" stroke="#000" stroke-linecap="round" stroke-width="6.485"/>
<path d="m400.8718,813.8561 0,24.7514" fill="none" stroke="#000" stroke-linecap="round" stroke-width="6.485"/>
<path d="m412.8007,815.8107 0,24.7514" fill="none" stroke="#000" stroke-linecap="round" stroke-width="6.485"/>
<path d="m428.3868,814.2527 0,24.7514" fill="none" stroke="#000" stroke-linecap="round" stroke-width="6.485"/>
<path d="m443.2699,817.1713 0,24.7514" fill="none" stroke="#000" stroke-linecap="round" stroke-width="6.485"/>
<path d="m457.4691,816.9372 0,24.7514" fill="none" stroke="#000" stroke-linecap="round" stroke-width="6.485"/>
<path d="m471.4879,814.6491 0,24.7514" fill="none" stroke="#000" stroke-linecap="round" stroke-width="6.485"/>
<path d="m484.7229,818.7028 0,24.7514" fill="none" stroke="#000" stroke-linecap="round" stroke-width="6.485"/>
<path d="m498.9691,818.2106 0,24.7514" fill="none" stroke="#000" stroke-linecap="round" stroke-width="6.485"/>
<path d="m394.8528,172.6204a17.42,17.42 0 1 1 -34.84,0 17.42,17.42 0 1 1 34.84,0z" fill="#fff" stroke="#000" stroke-linejoin="bevel" stroke-width="4" transform="translate(-20.5466,599.6822)"/>
<path d="m394.8528,172.6204a17.42,17.42 0 1 1 -34.84,0 17.42,17.42 0 1 1 34.84,0z" fill="#fff" stroke="#000" stroke-linejoin="bevel" stroke-width="4" transform="translate(156.7798,598.3422)"/>
<text font-family="Sans" font-size="20" letter-spacing="0" line-height="562.5" word-spacing="0" x="412.6297" y="742.3759">
   <tspan x="412.6297" y="742.3759">SUÈDE !</tspan>
  </text>
<path d="m447.5594,752.2026-8.9333,44.6666" fill="none" stroke="#000"/>
<path d="m297.8543,270.8056 62.1586,-45.9253 8.04,13.4 0,11.6133-8.04,-16.08-10.2104,8.532-1.1948,101.7516-2.591,2.1651-1.0242,-99.8974-18.3321,15.3186-1.2646,107.8108-3.1961,2.6707-.9366,-105.9715-23.621,21.4817z" fill="#fff" stroke="#000" stroke-width="3" transform="translate(0,602.3622)"/>
<path d="m590.8242,873.1678-62.1586,-45.9253-15.7781,27.4549 0,11.6133 15.7781,-30.1349 10.2104,8.532 1.1948,101.7516 2.591,2.1651 1.0242,-99.8974 18.3321,15.3186 1.2646,107.8108 3.1961,2.6707 .9366,-105.9715 23.621,21.4817z" fill="#fff" stroke="#000" stroke-width="3"/>
<g transform="matrix(.7088,0,0,.7088,191.4569,233.3099)">
<use height="450" transform="translate(-13.897,-13.2653)" width="900" x="0" xlink:href="#rect4272" y="0"/>
<path d="m394.8528,172.6204c0,9.6208-7.7992,17.42-17.42,17.42-9.6208,0-17.42,-7.7992-17.42,-17.42 0,-9.6208 7.7992,-17.42 17.42,-17.42 9.6208,0 17.42,7.7992 17.42,17.42z" fill="#fff" stroke="#000" stroke-linejoin="bevel" stroke-width="4.1849" transform="matrix(.71687,0,0,.71687,383.17913,695.82413)"/>
<path d="m394.8528,172.6204c0,9.6208-7.7992,17.42-17.42,17.42-9.6208,0-17.42,-7.7992-17.42,-17.42 0,-9.6208 7.7992,-17.42 17.42,-17.42 9.6208,0 17.42,7.7992 17.42,17.42z" fill="#fff" stroke="#000" stroke-linejoin="bevel" stroke-width="4.1849" transform="matrix(.71687,0,0,.71687,483.40295,695.67406)"/>
<path d="m746.2853,852.3048 0,40.0329c0,16.7251-13.4646,30.1897-30.1897,30.1897l-29.6215,0c-16.7251,0-30.1897,-13.4646-30.1897,-30.1897l0,-40.0329" fill="#fff" stroke="#000" stroke-linecap="round" stroke-linejoin="round" stroke-width="2.9011"/>
<path d="m662.2376,845.8034 0,15.5014" fill="none" stroke="#000" stroke-linecap="round" stroke-width="4.0615"/>
<path d="m668.8285,841.8491 0,15.5015" fill="none" stroke="#000" stroke-linecap="round" stroke-width="4.0615"/>
<path d="m676.7903,840.3826 0,15.5014" fill="none" stroke="#000" stroke-linecap="round" stroke-width="4.0615"/>
<path d="m684.2612,841.6067 0,15.5015" fill="none" stroke="#000" stroke-linecap="round" stroke-width="4.0615"/>
<path d="m694.0225,840.6309 0,15.5015" fill="none" stroke="#000" stroke-linecap="round" stroke-width="4.0615"/>
<path d="m703.3436,842.4588 0,15.5015" fill="none" stroke="#000" stroke-linecap="round" stroke-width="4.0615"/>
<path d="m712.2364,842.3122 0,15.5015" fill="none" stroke="#000" stroke-linecap="round" stroke-width="4.0615"/>
<path d="m721.0161,840.8792 0,15.5015" fill="none" stroke="#000" stroke-linecap="round" stroke-width="4.0615"/>
<path d="m729.3051,843.418 0,15.5015" fill="none" stroke="#000" stroke-linecap="round" stroke-width="4.0615"/>
<path d="m738.2273,843.1098 0,15.5015" fill="none" stroke="#000" stroke-linecap="round" stroke-width="4.0615"/>
<path d="m708.2175,906.0335c-8.0251,3.3172-16.5063,9.828-22.1429,-3.5745 8.5198,4.6081 15.2497,3.8463 22.1429,3.5745z" fill="none" stroke="#000" stroke-linecap="round" stroke-width="2"/>
<path d="m657.0695,874.4193 89.5153,0" fill="none" stroke="#000" stroke-width="1.7406"/>
<path d="M682.1372,869.137H699.2773A1.8989,1.8989 0 0 1 701.1762,871.0359V877.8026A1.8989,1.8989 0 0 1 699.2773,879.7015H682.1372A1.8989,1.8989 0 0 1 680.2383,877.8026V871.0359A1.8989,1.8989 0 0 1 682.1372,869.137z" stroke="#000" stroke-linecap="round" stroke-width="2.3208"/>
<path d="M715.4853,869.137H732.6255A1.8989,1.8989 0 0 1 734.5244,871.0359V877.8026A1.8989,1.8989 0 0 1 732.6255,879.7015H715.4853A1.8989,1.8989 0 0 1 713.5864,877.8026V871.0359A1.8989,1.8989 0 0 1 715.4853,869.137z" stroke="#000" stroke-linecap="round" stroke-width="2.3208"/>
<path d="M638.6298,782.0026H776.968V955.0832H638.6298z" fill="none" id="rect4272" stroke="#000" stroke-linejoin="bevel" stroke-width="3"/>
<path d="M776.9679,782.6343 762.1234,768.4215" fill="none" stroke="#000" stroke-width="3"/>
<path d="M640.3669,783.4239 625.5223,769.2111" fill="none" stroke="#000" stroke-width="3"/>
<path d="M639.1035,955.8729 624.259,941.66" fill="none" stroke="#000" stroke-width="3"/>
<path d="M777.4417,955.2412 762.5972,941.0284" fill="none" stroke="#000" stroke-width="3"/>
<path d="m722.6433,184.0622-9.4752,20.8455" fill="none" stroke="#000" transform="translate(0,602.3622)"/>
<path d="m730.8552,184.6939-10.1069,24.0039" fill="none" stroke="#000" transform="translate(0,602.3622)"/>
<path d="m706.2196,192.274 29.0573,-4.4218" fill="none" stroke="#000" transform="translate(0,602.3622)"/>
<path d="m705.5879,201.1176 27.794,-7.5802" fill="none" stroke="#000" transform="translate(0,602.3622)"/>
<path d="M664.9365,922.0774 646.4274,935.558" fill="none" stroke="#000"/>
<path d="m671.7736,926.6697-20.6137,15.9188" fill="none" stroke="#000"/>
<path d="m646.5982,921.1406 27.4695,10.4549" fill="none" stroke="#000"/>
<path d="m641.695,928.5275 27.9246,7.0838" fill="none" stroke="#000"/>
</g>
<path d="m590.622,336.9291 274.7813,0" fill="none" stroke="#000" transform="translate(0,602.3622)"/>
<path d="m708.698,716.8428 155.5386,0 0,26.724-224.4402,0 0,-12.7303z" fill="#fff" stroke="#000" stroke-linejoin="bevel" stroke-width="2.8067"/>
<path d="m690.4276,783.266 .1579,-9.6332c-8.6235,-.7609-8.0499,-10.5965 .3158,-11.2123 4.3075,-.3171 8.1064,7.2259 5.2114,8.6856" fill="none" stroke="#000" stroke-width="2"/>
<path d="M691.0593,743.47H691.0593A2.2109,2.2109 0 0 1 693.2702,745.6809V764.3155A2.2109,2.2109 0 0 1 691.0593,766.5264H691.0593A2.2109,2.2109 0 0 1 688.8484,764.3155V745.6809A2.2109,2.2109 0 0 1 691.0593,743.47z" fill="#fff" stroke="#000" stroke-linejoin="bevel" stroke-width="2"/>
<path d="m801.2877,380.8309a22.1088,2.8426 0 1 1 -44.2177,0 22.1088,2.8426 0 1 1 44.2177,0z" stroke="#000" stroke-linejoin="bevel" stroke-width="2" transform="translate(-2.2109,602.3622)"/>
<path d="m800.3401,351.7736a21.1613,29.3732 0 1 1 -42.3226,0 21.1613,29.3732 0 1 1 42.3226,0z" fill="#fff" stroke="#000" stroke-linejoin="bevel" stroke-width="2" transform="translate(-2.2109,602.3622)"/>
<path d="m801.9194,329.5068a22.2668,13.1074 0 1 1 -44.5335,0 22.2668,13.1074 0 1 1 44.5335,0z" fill="url(#Packedcircles)" stroke="#000" stroke-linejoin="bevel" stroke-width="2" transform="translate(-2.2109,602.3622)"/>
<path d="m784.5481,314.5044a5.3693,6.3168 0 1 1 -10.7386,0 5.3693,6.3168 0 1 1 10.7386,0z" fill="#fff" stroke="#000" stroke-linejoin="bevel" stroke-width="2" transform="translate(-1.895,602.678)"/>
<path d="m731.8027,960.1367 10.4227,9.4752-98.8581,.3158-7.5802,-9.7911z" stroke="#000"/>
<text font-family="Sans" font-size="20" letter-spacing="0" line-height="562.5" word-spacing="0" x="763.0709" y="849.5925">
   <tspan x="763.0709" y="849.5925">Turist ?</tspan>
  </text>
<path d="m790.8649,259.8639-10.1069,42.9543" fill="none" stroke="#000" transform="translate(0,602.3622)"/>
<text font-family="Sans" font-size="20" letter-spacing="0" line-height="562.5" word-spacing="0" x="811.0787" y="895.7052">
   <tspan x="811.0787" y="895.7052">Ja...</tspan>
  </text>
<path d="m824.9757,300.9232 3.7901,17.6871" fill="none" stroke="#000" transform="translate(0,602.3622)"/>
<path d="m844.242,381.6205a17.845,2.6846 0 1 1 -35.69,0 17.845,2.6846 0 1 1 35.69,0z" stroke="#000" stroke-linejoin="bevel" stroke-width="2" transform="translate(-.3158,599.8355)"/>
<path d="m810.447,334.7182 29.3732,0c8.4582,28.1622 1.53,42.4244-7.896,44.8494l-13.5812,0c-14.3694,-6.7043-10.928,-30.7268-7.896,-44.8494z" fill="#fff" stroke="#000" stroke-linejoin="bevel" stroke-width="2" transform="translate(0,602.3622)"/>
<path d="m842.3469,340.8771a18.6346,10.5807 0 1 1 -37.2692,0 18.6346,10.5807 0 1 1 37.2692,0z" stroke="#000" stroke-linejoin="bevel" stroke-width="2" transform="translate(1.2634,597.3087)"/>
<path d="m842.9786,326.5063a4.7376,4.4218 0 1 1 -9.4752,0 4.7376,4.4218 0 1 1 9.4752,0z" fill="#fff" stroke="#000" stroke-linejoin="bevel" stroke-width="2" transform="translate(0,602.3622)"/>
</g>
</svg>
