<svg version="1.0" viewBox="0 0 900 450" xmlns="http://www.w3.org/2000/svg" xmlns:svg="http://www.w3.org/2000/svg">
<g transform="translate(-1.4811,-.9336)">
<path d="M-337.1153,756.1478H-146.9063A7.5735,7.5735 0 0 1 -139.3328,763.7214V800.0743A7.5735,7.5735 0 0 1 -146.9063,807.6478H-337.1153A7.5735,7.5735 0 0 1 -344.6888,800.0743V763.7214A7.5735,7.5735 0 0 1 -337.1153,756.1478z" stroke="#000" stroke-linecap="round" stroke-linejoin="round" stroke-width="5.8088" transform="matrix(1,0,.87861,.47753,0,0)"/>
<path d="M47.868,79.057H828.8699A31.621,31.621 0 0 1 860.491,110.678V359.0268A31.621,31.621 0 0 1 828.8699,390.6478H47.868A31.621,31.621 0 0 1 16.247,359.0268V110.678A31.621,31.621 0 0 1 47.868,79.057z" fill="#fff" stroke="#000" stroke-linecap="round" stroke-width="7.4907"/>
<g transform="translate(-51.4286,2.9325179e-8)">
<path d="m446.8915,78.4154c0,2.9289-27.5427,5.3033-61.5183,5.3033-33.9756,0-61.5183,-2.3744-61.5183,-5.3033 0,-2.9289 27.5427,-5.3033 61.5183,-5.3033 33.9756,0 61.5183,2.3744 61.5183,5.3033z" stroke="#000" stroke-linecap="round" stroke-width="4.862" transform="translate(-237.9848,281.9447)"/>
<path d="M201.1465,273.4726L201.1465,321.361C201.1465,341.368 185.0398,357.4747 165.0328,357.4747L129.5988,357.4747C109.5918,357.4747 93.4851,341.368 93.4851,321.361L93.4851,273.4726" fill="#fff" stroke="#000" stroke-linecap="round" stroke-linejoin="round" stroke-width="3.6422"/>
<path d="M122.5331,293.2841H146.0671A.7803,.7803 0 0 1 146.8474,294.0643V304.0904A.7803,.7803 0 0 1 146.0671,304.8707H122.5331A.7803,.7803 0 0 1 121.7528,304.0904V294.0643A.7803,.7803 0 0 1 122.5331,293.2841z" stroke="#000" stroke-linecap="square" stroke-linejoin="round" stroke-width="3.7338"/>
<path d="M163.924,293.2841H184.3369A2.3409,2.3409 0 0 1 186.6778,295.6249V302.5299A2.3409,2.3409 0 0 1 184.3369,304.8707H163.924A2.3409,2.3409 0 0 1 161.5832,302.5299V295.6249A2.3409,2.3409 0 0 1 163.924,293.2841z" stroke="#000" stroke-linecap="square" stroke-linejoin="round" stroke-width="3.7338"/>
<path d="M95.7933,298.3386C96.3425,298.3491 96.8918,298.3454 97.4411,298.3427C97.8041,298.3406 98.167,298.3392 98.53,298.3385C98.8225,298.338 99.115,298.3381 99.4075,298.3381C99.7115,298.3374 100.0155,298.3387 100.3196,298.3392C100.7102,298.3295 101.0948,298.3388 101.4815,298.3899C101.8812,298.4445 102.2846,298.4617 102.6877,298.4726C103.093,298.4569 103.4906,298.5315 103.8917,298.5717C104.2997,298.6085 104.7097,298.6123 105.1191,298.6167C105.5493,298.619 105.9794,298.6188 106.4096,298.6174C106.7832,298.6166 107.1568,298.6161 107.5304,298.6151C107.8374,298.6144 108.1444,298.6142 108.4515,298.614C108.743,298.6139 109.0345,298.614 109.326,298.614C109.6175,298.614 109.909,298.614 110.2006,298.614C110.5193,298.6136 110.838,298.6145 111.1566,298.6159C111.5509,298.6183 111.9452,298.6164 112.3395,298.6153C112.7104,298.615 113.0812,298.6158 113.4521,298.6168C113.8488,298.6166 114.2455,298.6167 114.6423,298.6157C115.0222,298.6159 115.4022,298.6165 115.7822,298.6159C116.1278,298.6146 116.4733,298.6144 116.8189,298.6161C117.3521,298.6187 117.8853,298.6203 118.4185,298.6222C119.1451,298.625 119.8718,298.6256 120.5984,298.6232C121.1316,298.6219 121.6649,298.618 122.1981,298.6178C122.6394,298.6184 123.0807,298.6178 123.522,298.6163C123.5831,298.6161 123.6442,298.6159 123.7053,298.6157L121.9593,299.815C121.8988,299.8148 121.8383,299.8146 121.7778,299.8144C121.338,299.8129 120.8981,299.8122 120.4583,299.8129C119.9303,299.8126 119.4023,299.8088 118.8744,299.8074C118.1468,299.805 117.4192,299.8056 116.6916,299.8084C116.1525,299.8103 115.6134,299.8119 115.0743,299.8145C114.7285,299.8162 114.3826,299.816 114.0368,299.8148C113.6567,299.8142 113.2766,299.8147 112.8965,299.8149C112.5008,299.8139 112.1051,299.814 111.7094,299.8138C111.3371,299.8149 110.9647,299.8156 110.5924,299.8154C110.1987,299.8143 109.805,299.8123 109.4114,299.8147C109.0908,299.8161 108.7703,299.817 108.4497,299.8167C108.1582,299.8167 107.8666,299.8167 107.575,299.8167C107.2836,299.8167 106.9922,299.8167 106.7007,299.8166C106.3948,299.8165 106.0887,299.8163 105.7828,299.8156C105.4107,299.815 105.0387,299.8148 104.6667,299.8148C104.2365,299.8139 103.8064,299.8155 103.3762,299.8107C102.9615,299.8051 102.546,299.7961 102.1335,299.7512C101.7367,299.7067 101.3414,299.654 100.9404,299.6643C100.5326,299.6491 100.1256,299.6208 99.7212,299.5675C99.3391,299.5271 98.9558,299.5383 98.5719,299.5397C98.2667,299.5402 97.9616,299.5414 97.6564,299.5408C97.3643,299.5408 97.0722,299.5409 96.7801,299.5404C96.4213,299.5398 96.0624,299.5383 95.7036,299.5362C95.1504,299.5334 94.597,299.53 94.0439,299.5403L95.7933,298.3386z" stroke="#000" stroke-linecap="square" stroke-linejoin="round" stroke-width=".4767"/>
<path d="M187.2881,298.6153C187.992,298.6271 188.696,298.6255 189.3999,298.625C190.0452,298.6241 190.6904,298.6224 191.3356,298.6195C191.7668,298.6171 192.198,298.617 192.6292,298.6164C192.969,298.6156 193.3088,298.6148 193.6485,298.6143C193.9454,298.636 194.2306,298.5568 194.5224,298.5187C194.815,298.4846 195.11,298.4797 195.4044,298.4762C195.6966,298.4741 195.9887,298.475 196.2809,298.4754C196.5727,298.4758 196.8645,298.4759 197.1563,298.476C197.4481,298.4761 197.7398,298.4761 198.0316,298.4761C198.3234,298.4761 198.6152,298.4761 198.907,298.4761C199.2203,298.4755 199.5336,298.4771 199.8468,298.4772C200.1641,298.4769 200.4813,298.4765 200.7986,298.4763C201.0924,298.4761 201.3862,298.4761 201.68,298.476C201.8744,298.476 201.7772,298.476 201.9715,298.476L200.2206,299.6787C200.0263,299.6787 200.1235,299.6787 199.9292,299.6787C199.6355,299.6787 199.3419,299.6787 199.0483,299.6785C198.732,299.6783 198.4156,299.6778 198.0993,299.6776C197.7849,299.6776 197.4705,299.6793 197.1561,299.6787C196.8644,299.6787 196.5726,299.6787 196.2808,299.6787C195.9889,299.6787 195.6971,299.6787 195.4053,299.6786C195.1135,299.6785 194.8217,299.6782 194.5299,299.6779C194.2386,299.6777 193.9473,299.6768 193.656,299.6822C193.3667,299.6896 193.0769,299.7017 192.7908,299.7458C192.4947,299.791 192.2002,299.8364 191.8987,299.8163C191.5609,299.8159 191.2232,299.815 190.8854,299.8142C190.4572,299.8137 190.0289,299.8136 189.6007,299.8112C188.9609,299.8082 188.3211,299.8065 187.6812,299.8056C186.9678,299.8051 186.2544,299.8037 185.5411,299.8153L187.2881,298.6153z" stroke="#000" stroke-linecap="square" stroke-linejoin="round" stroke-width=".4767"/>
<path d="M146.9952,298.7785C147.5291,298.8461 148.0678,298.8674 148.6057,298.8834C149.0858,298.8949 149.5661,298.895 150.0462,298.8937C150.4427,298.8932 150.8391,298.8931 151.2355,298.8921C152.0313,298.9126 152.8275,298.9025 153.6235,298.8989C154.1044,298.8953 154.5853,298.8939 155.0663,298.8919C155.4498,298.8919 155.8333,298.8915 156.2168,298.8925C156.62,298.8938 157.0232,298.8915 157.4264,298.8922C157.7902,298.8913 158.1541,298.8914 158.5179,298.8915C158.8823,298.8921 159.2466,298.8917 159.611,298.891C159.9591,298.8922 160.3071,298.8911 160.6552,298.8906C160.9957,298.892 161.3363,298.891 161.6769,298.8905C161.9777,298.8901 162.2785,298.89 162.5793,298.8899C162.8309,298.9484 163.0839,298.9905 163.3421,299.0108C163.6219,299.028 163.9026,299.0281 164.183,299.0288C164.4746,299.029 164.7663,299.0284 165.058,299.0281C165.204,299.028 165.35,299.0279 165.496,299.0279L163.7452,300.2306C163.5992,300.2307 163.4532,300.2308 163.3072,300.231C163.0152,300.2313 162.7232,300.232 162.4312,300.2306C162.146,300.2281 161.8602,300.2256 161.5763,300.1975C161.3257,300.1681 161.0803,300.1078 160.8285,300.0925C160.5283,300.0924 160.2281,300.0923 159.9279,300.0919C159.5874,300.0914 159.2469,300.0904 158.9064,300.0918C158.5587,300.0913 158.2111,300.0902 157.8635,300.0914C157.4996,300.0906 157.1357,300.0903 156.7718,300.0909C156.4087,300.091 156.0455,300.0911 155.6823,300.0902C155.2794,300.0908 154.8765,300.0886 154.4736,300.0899C154.0895,300.0909 153.7054,300.0905 153.3213,300.0905C152.8471,300.0885 152.373,300.0871 151.8988,300.0835C151.0961,300.0799 150.2931,300.0703 149.4905,300.0909C149.0948,300.0905 148.699,300.0913 148.3032,300.0905C147.8247,300.0876 147.3462,300.0839 146.868,300.068C146.3203,300.0468 145.7733,300.0142 145.228,299.961L146.9952,298.7785z" stroke="#000" stroke-linecap="square" stroke-linejoin="round" stroke-width=".4767"/>
<path d="M108.4907,260.9652L108.4907,279.5085" fill="none" stroke="#000" stroke-linecap="round" stroke-width="4.8046"/>
<path d="M118.0148,259.2109L118.0148,277.7541" fill="none" stroke="#000" stroke-linecap="round" stroke-width="4.8046"/>
<path d="M126.9517,260.6752L126.9517,279.2184" fill="none" stroke="#000" stroke-linecap="round" stroke-width="4.8046"/>
<path d="M138.6284,259.508L138.6284,278.0512" fill="none" stroke="#000" stroke-linecap="round" stroke-width="4.8046"/>
<path d="M148.787,261.6946L148.787,280.2378" fill="none" stroke="#000" stroke-linecap="round" stroke-width="4.8046"/>
<path d="M160.4163,261.5192L160.4163,280.0624" fill="none" stroke="#000" stroke-linecap="round" stroke-width="4.8046"/>
<path d="M170.9189,259.805L170.9189,278.3482" fill="none" stroke="#000" stroke-linecap="round" stroke-width="4.8046"/>
<path d="M180.8343,262.8419L180.8343,281.3851" fill="none" stroke="#000" stroke-linecap="round" stroke-width="4.8046"/>
<path d="M191.5073,262.4732L191.5073,281.0165" fill="none" stroke="#000" stroke-linecap="round" stroke-width="4.8046"/>
<path d="M138.8745,337.5477L165.9974,333.1194" fill="none" stroke="#000" stroke-width=".7749"/>
<path d="M100.6065,265.6954L100.6065,284.2387" fill="none" stroke="#000" stroke-linecap="round" stroke-width="4.8046"/>
</g>
<path d="M580.8123,77.6726L580.8123,391.563" fill="none" stroke="#000" stroke-width="5.6784"/>
<path d="M291.1022,76.9479L291.1022,390.8384" fill="none" stroke="#000" stroke-width="5.6784"/>
<path d="M840.029,411.8109C840.4683,412.3211 841.0645,412.3823 841.6992,412.4182C842.5022,412.3966 843.3064,412.2044 844.0567,411.9189C844.4576,411.7663 844.6791,411.6365 845.0532,411.44C842.8145,412.7497 844.0608,412.0483 844.4793,411.6037C844.6962,411.3733 844.8257,411.1306 844.9479,410.843C845.2657,409.9481 845.3068,408.9857 845.361,408.046C845.4666,406.6781 845.1834,405.3351 844.8786,404.0108C844.5077,402.6178 844.004,401.2642 843.4492,399.9351C843.1836,399.3072 842.8832,398.695 842.5905,398.0795C842.1962,397.3229 841.8736,397.7928 844.1009,396.9288C844.1776,396.899 844.1928,397.0655 844.242,397.1315C844.3243,397.2421 844.4109,397.3494 844.4954,397.4584C845.317,398.586 846.3052,399.5739 847.2954,400.5512C847.8781,401.1186 848.5028,401.6453 849.0599,402.2385C849.2713,402.4112 849.3977,402.6546 849.5679,402.8615C849.7341,403.0116 849.8641,402.8536 850.011,402.7508C847.4455,404.2893 848.3591,403.792 848.8511,403.3203C849.0448,403.1345 849.2275,402.936 849.413,402.7422C849.6762,402.4795 849.9257,402.1983 850.2139,401.9618C850.9749,401.3373 852.0366,400.8383 852.8236,400.3907C853.5507,400.0695 854.2946,399.7901 855.0501,399.5439C855.2064,399.51 855.8111,399.2775 855.9491,399.4347C855.9813,399.4712 855.9943,399.5209 856.0168,399.5641C856.02,399.6082 856.0322,399.6525 856.0262,399.6963C855.9827,400.016 855.4878,400.3879 855.2718,400.5867C854.279,401.4075 853.3157,402.2612 852.3987,403.1659C851.601,404.0216 850.7771,404.8663 850.1421,405.8534C849.75,406.4699 849.5416,407.1506 849.4437,407.8678C849.3789,408.5092 849.3895,409.1551 849.3905,409.7989C849.4256,410.4988 849.5149,411.2 849.7233,411.8705C849.8427,412.2275 850.0551,412.4899 850.395,412.6467C850.6205,412.7262 850.8787,412.7785 851.1188,412.7331C851.1746,412.7226 851.6404,412.5648 851.6776,412.5523C852.2268,412.2526 853.5532,411.5518 851.0709,412.9122C850.9727,412.966 851.26,412.7921 851.353,412.7298C851.5668,412.5867 851.6182,412.5447 851.8187,412.3951C852.0593,412.2151 851.9453,412.3026 852.1611,412.1335L853.8802,411.4421C853.6623,411.6252 853.779,411.5339 853.5286,411.714C852.5147,412.4968 851.3917,413.1448 850.2277,413.6751C849.717,413.8275 849.34,413.9005 848.8426,413.6653C848.4764,413.4588 848.2371,413.1591 848.1083,412.7541C847.9042,412.0638 847.8272,411.3452 847.7602,410.6304C847.7563,409.9801 847.7456,409.3282 847.7982,408.6795C847.891,407.9363 848.0869,407.227 848.4866,406.5839C848.5667,406.4507 848.6395,406.3128 848.727,406.1843C848.9068,405.9203 849.1751,405.6181 849.38,405.3806C849.8326,404.8559 850.2957,404.3404 850.7738,403.8388C851.6657,402.9391 852.6057,402.0889 853.5804,401.2796C853.8565,401.0232 854.1422,400.7733 854.3805,400.4802C854.42,400.5011 854.2927,400.4977 854.2484,400.5039C854.0274,400.5348 853.8146,400.6035 853.6018,400.668C852.8547,400.9146 852.1152,401.1882 851.4059,401.5304C853.8505,400.0847 852.3807,400.9056 851.9029,401.2732C851.6119,401.4971 851.3629,401.7736 851.1077,402.0354C850.1819,403.0119 850.1288,403.1153 848.5626,403.9237C848.3059,404.045 848.1624,404.0306 847.9617,403.8196C847.8032,403.6102 847.6763,403.3766 847.4806,403.1964C846.9472,402.5939 846.3524,402.0472 845.7874,401.4751C844.8066,400.4768 843.8107,399.4902 842.9378,398.3933C842.844,398.2879 842.7501,398.1826 842.6564,398.0771C842.6043,398.0184 842.441,397.952 842.5005,397.901C843.9146,396.687 843.8346,396.3692 844.1998,397.1707C844.4755,397.7987 844.7661,398.4205 845.0169,399.0592C845.5419,400.4121 846.0259,401.7823 846.4222,403.1789C846.7407,404.5091 847.0557,405.8603 846.9641,407.2388C846.928,408.1873 846.8723,409.1532 846.6148,410.0706C846.5302,410.3053 846.5009,410.4251 846.3658,410.6399C845.7719,411.5834 844.4911,412.029 843.6492,412.5646C842.5778,413.0912 841.4379,413.4635 840.232,413.4689C840.0644,413.4555 839.8955,413.4531 839.7291,413.4286C839.2335,413.3557 838.7716,413.1391 838.4286,412.7718L840.029,411.8109z" stroke="#000" stroke-linecap="round" stroke-linejoin="round" stroke-width=".2515"/>
<path d="M855.3936,409.6542C854.6542,409.8612 853.0516,410.8506 855.8491,409.2498C855.4611,409.4563 855.2307,409.7923 855.0492,410.1799C854.9456,410.4905 854.835,410.831 854.8575,411.1644C854.8731,411.3951 854.9331,411.5109 855.0115,411.7264C855.3187,412.3332 855.791,412.8322 856.3514,413.2102C856.7651,413.4983 857.2353,413.6294 857.7345,413.6354C858.1196,413.5479 858.4775,413.3979 858.8302,413.2231C858.9805,413.1486 859.4211,412.9052 859.2769,412.9911C857.6151,413.9803 858.0313,413.7133 858.6194,413.3105C859.1036,412.9376 859.6299,412.5049 859.7546,411.8706C859.772,411.782 859.7708,411.6908 859.7789,411.6008C859.7468,410.8076 859.2456,410.1865 858.7619,409.6C858.4571,409.2607 858.1118,408.9372 857.695,408.739C857.4835,408.6385 857.3751,408.6206 857.151,408.5611C856.6991,408.5365 856.2255,408.5795 855.7964,408.7352C855.5981,408.8072 855.2974,408.9746 855.1131,409.0721C857.6263,407.5643 855.9796,408.5597 855.4612,409.0105L853.7507,409.7103C854.5467,408.9446 855.6096,408.4934 856.5349,407.9334C856.8034,407.8028 856.962,407.7126 857.249,407.6254C857.7058,407.4867 858.1975,407.4543 858.668,407.5237C858.9099,407.6009 859.008,407.6203 859.2352,407.7414C859.6582,407.9669 860.0071,408.3093 860.3192,408.6669C860.828,409.2933 861.3445,409.9425 861.422,410.7763C861.4183,410.8775 861.4245,410.9796 861.4108,411.0799C861.318,411.7624 860.8104,412.2475 860.2942,412.6507C859.2929,413.3693 859.806,413.0215 857.8705,414.1178C857.3662,414.4034 856.8146,414.6453 856.2354,414.7129C855.7136,414.6668 855.2281,414.513 854.8031,414.1963C854.2282,413.777 853.7448,413.2477 853.4081,412.6169C853.3296,412.4114 853.2404,412.2157 853.2135,411.994C853.1715,411.6468 853.287,411.282 853.3707,410.9511C853.5315,410.5425 853.7356,410.1552 854.1198,409.9153C855.023,409.3955 855.8681,408.799 856.8755,408.521L855.3936,409.6542z" stroke="#000" stroke-linecap="round" stroke-linejoin="round" stroke-width=".2515"/>
<path d="M863.1897,410.4086C862.8695,410.5111 862.5367,410.5989 862.2323,410.7448C862.13,410.7938 862.034,410.8549 861.9349,410.9099C862.3556,410.6744 862.7763,410.4388 863.197,410.2032C862.6976,410.5402 862.3271,410.877 862.1036,411.4418C861.9574,411.907 862.0275,412.3004 862.396,412.6446C862.4849,412.7277 862.5895,412.7923 862.6862,412.8662C863.3904,413.2707 864.224,413.4156 865.0306,413.33C865.2618,413.3054 865.4886,413.2494 865.7176,413.2092C866.2476,413.0723 866.4785,413.0343 866.9762,412.8254C867.1413,412.7561 867.6112,412.4949 867.4574,412.5867C865.2193,413.9232 866.2324,413.3409 866.5839,412.9851C866.6618,412.9062 866.7237,412.8129 866.7936,412.7268C867.1001,412.2473 867.108,411.8208 866.8921,411.3098C866.8525,411.2201 866.6241,410.7494 866.463,410.8513C866.4352,410.8689 866.421,410.9022 866.4,410.9276C868.9422,409.4779 867.9743,409.7203 867.7278,410.4268C867.6214,410.7317 867.6028,411.0282 867.5882,411.3483C867.7648,412.8347 868.4214,414.2109 868.9608,415.5919C869.6167,417.4162 870.2489,419.3094 870.3217,421.2663C870.3362,421.6557 870.2983,422.0453 870.2866,422.4349C870.2284,422.8094 870.1958,423.1888 870.112,423.5585C869.8389,424.7643 869.2172,425.8682 868.2941,426.6954C868.1314,426.8413 867.9472,426.9612 867.7737,427.0941C867.0796,427.4567 866.4192,427.8932 865.6913,428.1819C865.3895,428.3016 864.6611,428.0519 864.4223,427.9455C863.5348,427.5499 862.7683,426.9 862.0144,426.3049C860.7424,425.216 859.4971,424.0803 858.3592,422.8496C857.7698,422.212 857.624,421.9974 857.112,421.3379C856.6762,420.6108 856.1626,419.7678 856.591,418.9108C856.8445,418.4036 857.1505,418.2196 857.5752,417.8503C858.8479,417.0256 858.9521,416.9316 860.7947,415.9986C861.2445,415.7709 862.6947,415.2559 863.1385,415.101C864.0236,414.7922 864.9754,414.4863 865.8654,414.1955C868.2035,413.5211 870.4935,412.6996 872.7569,411.8091C872.949,411.7274 873.1414,411.6463 873.3332,411.5641C873.4798,411.5012 873.6275,411.4407 873.7722,411.3737C874.068,411.2366 874.3443,411.067 874.6495,410.9508C875.0633,410.8918 875.2084,411.39 875.3323,411.6926C875.6176,412.4632 875.7783,413.2712 875.8477,414.088C875.8648,414.454 875.8767,414.8217 875.8249,415.1855C875.8196,415.2227 875.8388,415.2805 875.8047,415.2964C875.2503,415.5546 874.6714,415.7565 874.1048,415.9866C874.1063,415.874 874.1001,415.7611 874.1093,415.6488C874.1226,415.4855 874.1507,415.3238 874.1722,415.1614C874.2979,414.2135 874.4626,413.2783 874.6555,412.3419C874.851,411.525 875.0198,410.6695 875.4866,409.9565C876.0153,409.4031 877.1909,408.3119 877.7634,408.947C877.8234,409.0135 877.8654,409.0942 877.9163,409.1678C878.0284,409.3659 878.1252,409.5163 878.1985,409.7358C878.4045,410.3529 878.497,411.0763 878.6062,411.7182C878.7486,412.2737 878.6943,412.9389 878.8628,413.4836C879.0857,412.8849 878.8606,413.5114 877.2597,414.2747C877.2272,414.2902 877.3086,414.2212 877.3268,414.1902C877.3685,414.119 877.4501,413.9101 877.4819,413.846C877.5252,413.7584 877.5747,413.6741 877.6211,413.5881C877.9222,413.1056 878.1771,412.5956 878.5089,412.1329C879.0635,411.4379 879.5824,411.2862 880.5426,410.7585C880.5756,410.7404 880.6199,410.7509 880.6553,410.7637C880.7003,410.78 880.7352,410.8163 880.7752,410.8426C881.1508,411.2375 881.2815,411.7964 881.4083,412.3108C881.5185,412.8708 881.5775,413.4421 881.7823,413.9777C881.8322,414.0479 881.8729,414.1256 881.9319,414.1884C882.3617,414.6453 883.0727,414.9868 883.6589,415.1726C883.8795,415.2425 884.1067,415.2892 884.3307,415.3476C885.2788,415.5841 886.2301,415.5959 887.1732,415.3366C887.3819,415.2792 887.5916,415.2194 887.7893,415.1312C887.9734,415.0491 888.1384,414.9293 888.313,414.8284C887.9498,415.0157 887.6134,415.268 887.2235,415.3905C887.0732,415.4377 887.4574,415.1787 887.5648,415.0633C887.8811,414.7232 888.062,414.345 888.1893,413.9051C888.2767,413.5387 888.2751,413.1623 888.265,412.7885C888.1629,412.017 887.4812,412.7763 889.8412,411.8179C889.8842,411.8005 889.816,411.9074 889.8088,411.9532C889.7983,412.0199 889.795,412.0875 889.7881,412.1546C889.7546,412.7625 889.7408,413.3718 889.8083,413.9775C889.8771,414.3672 889.9516,414.7653 890.2571,415.0388C890.472,415.1803 890.7,415.1899 890.9374,415.1123C891.5086,414.824 892.3661,414.3239 889.7685,415.7904C889.6763,415.8424 889.9467,415.6761 890.0343,415.6167L891.7633,414.9293C891.6295,415.0392 891.6538,415.0278 891.5001,415.1177C890.916,415.4592 890.1926,416.0296 889.4535,416.2376C889.165,416.2685 888.896,416.2058 888.6704,416.014C888.3564,415.6866 888.254,415.2692 888.184,414.829C888.1097,414.2163 888.1246,413.6008 888.1326,412.9845C888.1351,412.9022 888.1423,412.6162 888.1481,412.6124C889.3712,411.8 889.7667,411.0311 889.9219,411.9392C889.9306,412.3321 889.931,412.7272 889.849,413.1138C889.4464,414.7177 888.3834,415.0831 886.9221,415.9482C886.7424,416.0389 886.5703,416.1463 886.383,416.2201C885.2575,416.6632 884.0312,416.6276 882.8735,416.3501C882.6422,416.2888 882.4074,416.2396 882.1797,416.1661C881.5973,415.9782 880.7783,415.5761 880.3488,415.1243C880.2781,415.0498 880.2271,414.9588 880.1662,414.8761C879.9621,414.3299 879.9032,413.751 879.7982,413.1801C879.6923,412.7378 879.5872,412.1907 879.2216,411.8836C879.1354,411.8944 879.1799,411.8814 879.0907,411.9307C879.5848,411.6375 880.0788,411.3442 880.5728,411.051C880.6146,411.027 880.4963,411.1099 880.4613,411.143C880.3733,411.226 880.302,411.3257 880.207,411.4018C879.8524,411.8475 879.5967,412.3532 879.3005,412.838C879.1892,413.0285 879.0972,413.2099 879.0263,413.4189C879.0119,413.4615 879.0279,413.5255 878.9894,413.5486C877.3176,414.5542 877.6884,414.9609 877.2218,414.375C877.0815,413.7834 877.1534,413.1555 877.0167,412.5611C876.883,411.7293 876.7801,410.8383 876.3279,410.1104C876.2493,410.0159 876.2155,409.9293 876.0906,409.9062C876.0567,409.8999 875.9587,409.9344 875.9878,409.9162C876.4726,409.6133 876.976,409.3412 877.4659,409.0469C877.51,409.0205 877.3699,409.0848 877.3264,409.1121C877.2751,409.1443 877.2311,409.1869 877.1834,409.2243C876.6322,409.8816 876.466,410.769 876.2431,411.5741C875.992,412.735 875.7764,413.9122 875.741,415.102C875.1997,415.4338 874.6693,415.7841 874.117,416.0974C874.0865,416.1146 874.1472,416.0339 874.157,416.0004C874.2581,415.6524 874.2293,415.2842 874.2292,414.9273C874.1826,414.1288 874.0333,413.3348 873.7283,412.5921C873.67,412.4578 873.5631,412.0684 873.3595,412.0547C873.3123,412.0515 873.2257,412.0888 873.1881,412.1023C872.586,412.3704 872.0013,412.6781 871.3756,412.8923C869.1323,413.736 866.8699,414.5268 864.5693,415.2015C863.234,415.6433 861.8893,416.0703 860.5814,416.5901C860.2049,416.7397 859.8602,416.9859 859.4632,417.0663C859.2593,417.1076 860.1644,416.6214 859.9774,416.7125C859.7046,416.8453 859.4618,417.0325 859.2041,417.1925C858.7226,417.579 858.1323,417.9788 858.0182,418.645C857.9059,419.3008 858.3235,419.9071 858.606,420.4507C858.7807,420.6894 858.9469,420.9345 859.13,421.1667C860.3806,422.7527 861.9023,424.1135 863.4516,425.3981C864.2117,425.9656 864.9869,426.6002 865.8855,426.9443C866.0928,427.0237 866.3104,427.0839 866.5311,427.1084C866.7194,427.1294 867.2006,426.9198 867.0987,427.0794C866.8863,427.4119 866.4478,427.5254 866.1224,427.7484C866.3045,427.6213 866.4972,427.5082 866.6688,427.367C867.6216,426.5831 868.2894,425.5009 868.5867,424.305C868.677,423.9416 868.7123,423.5668 868.7751,423.1977C868.7932,422.8135 868.8392,422.4296 868.8294,422.0451C868.7799,420.104 868.1215,418.2309 867.4582,416.4305C866.8954,415.0387 866.2105,413.6666 865.9655,412.173C865.9573,411.8194 865.9659,411.5503 866.0515,411.2083C866.0563,411.1891 866.1512,410.8486 866.1935,410.8195C866.7363,410.4457 867.3144,410.1259 867.8749,409.779C867.9175,409.7824 867.9615,409.7779 868.0028,409.7892C868.2675,409.8616 868.3945,410.1902 868.5051,410.4049C868.7408,410.9614 868.7731,411.4566 868.4733,412.0032C868.4053,412.1006 868.3465,412.2052 868.2692,412.2955C867.7171,412.9407 866.6128,413.3935 866.0509,413.7062C865.5134,414.0053 864.895,414.1332 864.3038,414.2716C864.0672,414.3071 863.8323,414.3586 863.5938,414.3781C862.7418,414.4476 861.8714,414.2947 861.144,413.8373C861.0396,413.754 860.9271,413.6799 860.8308,413.5873C860.4234,413.1959 860.2963,412.764 860.4311,412.2237C860.6342,411.5776 860.9528,411.2649 861.4959,410.8672C862.5438,410.2481 863.4912,409.5653 864.6716,409.2754L863.1897,410.4086z" stroke="#000" stroke-linecap="round" stroke-linejoin="round" stroke-width=".2515"/>
<path d="M888.6005,404.7589C888.3763,405.0221 888.197,405.3233 888.1118,405.6596C888.0507,405.996 888.2514,406.0823 888.5272,406.203C888.9734,406.3664 889.3549,406.3484 889.8119,406.2676C890.423,406.0581 891.3936,405.4611 888.6771,406.9597C888.6389,406.9807 888.7494,406.9106 888.7816,406.8813C888.8583,406.8114 888.866,406.7825 888.9161,406.6949C889.0084,406.4879 888.9994,406.2942 888.8805,406.1035C888.7224,405.9537 888.4847,405.9677 888.2808,405.9578C888.0701,405.9773 887.8694,406.0295 887.6982,406.1559L889.153,404.9842C889.3601,404.9058 889.5721,404.8563 889.7959,404.8741C890.0621,404.9004 890.3241,404.9382 890.4968,405.1657C890.6374,405.4023 890.693,405.6469 890.6117,405.9169C890.317,406.8062 889.1976,407.1657 888.3316,407.3774C887.8701,407.4354 887.4139,407.4101 886.98,407.2247C886.6682,407.0638 886.3886,406.8624 886.4358,406.472C886.4934,406.1096 886.6702,405.7849 886.8825,405.4889L888.6005,404.7589z" stroke="#000" stroke-linecap="round" stroke-linejoin="round" stroke-width=".2515"/>
<path d="M864.7559,409.2907C865.1096,409.1188 865.4471,408.9155 865.812,408.7673C866.0407,408.6188 866.2915,408.5502 866.5589,408.5209C866.805,408.5022 867.052,408.5054 867.2986,408.5063C867.5433,408.4802 867.7506,408.5471 867.9655,408.652C868.116,408.7726 868.2347,408.9329 868.349,409.0878C868.4484,409.2683 868.5068,409.4709 868.568,409.6676C868.6228,409.8691 868.6974,410.0617 868.7369,410.2677C868.775,410.5094 868.7776,410.7548 868.7806,410.9989C868.7816,411.1248 868.7815,411.2507 868.7814,411.3766L867.1194,412.2233C867.1196,412.098 867.1198,411.9727 867.1193,411.8474C867.1175,411.6131 867.1171,411.3779 867.0877,411.145C867.0548,410.9443 866.9814,410.7596 866.928,410.5648C866.8761,410.3879 866.8201,410.2076 866.7398,410.0427C866.642,409.9144 866.5468,409.768 866.4062,409.6849C866.2088,409.5991 866.0028,409.5936 865.7894,409.6028C865.5481,409.6039 865.3052,409.6027 865.0663,409.6417C864.8137,409.6951 864.5861,409.8038 864.3561,409.9192C863.9982,410.0856 863.6521,410.2764 863.3052,410.4644L864.7559,409.2907z" stroke="#000" stroke-linecap="round" stroke-linejoin="round" stroke-width=".2515"/>
<path d="M59.1188,45.6808H245.997A15.9099,15.9099 0 0 1 261.9069,61.5907V61.5907A15.9099,15.9099 0 0 1 245.997,77.5006H59.1188A15.9099,15.9099 0 0 1 43.2089,61.5907V61.5907A15.9099,15.9099 0 0 1 59.1188,45.6808z" fill="#fff" stroke="#000" stroke-linecap="round" stroke-linejoin="round" stroke-width="4"/>
<path d="m101.5203,44.9288c0,19.2473-16.5075,34.8503-36.8706,34.8503-20.3631,0-36.8706,-15.603-36.8706,-34.8503 0,-19.2473 16.5075,-34.8503 36.8706,-34.8503 20.3631,0 36.8706,15.603 36.8706,34.8503z" stroke="#000" stroke-linecap="round" stroke-linejoin="round" stroke-width="7.491" transform="matrix(.7121,0,0,.7121,-2.07744,23.30371)"/>
<text font-family="Bitstream Vera Sans" font-size="40" x="19.5718" y="69.3382">
    <tspan fill="#f9f9f9" x="19.5718" y="69.3382">23</tspan>
   </text>
<text font-family="Bitstream Vera Sans" font-size="20" x="115.4821" y="68.3578">
    <tspan x="115.4821" y="68.3578">Plante</tspan>
   </text>
<path d="m275.7717,361.6117c0,2.2316-24.309,4.0406-54.2957,4.0406-29.9867,0-54.2957,-1.809-54.2957,-4.0406 0,-2.2316 24.309,-4.0406 54.2957,-4.0406 29.9867,0 54.2957,1.8091 54.2957,4.0406z" stroke="#000" stroke-linecap="round" stroke-linejoin="round" stroke-width="3" transform="translate(-2)"/>
<path d="M201.5254,268.1726H241.4265A17.1726,17.17 0 0 1 258.5991,285.3425V343.9366A17.1726,17.17 0 0 1 241.4265,361.1066H201.5254A17.1726,17.17 0 0 1 184.3528,343.9366V285.3425A17.1726,17.17 0 0 1 201.5254,268.1726z" fill="#fff" stroke="#000" stroke-linecap="round" stroke-linejoin="round" stroke-width="3"/>
<path d="m281.0749,254.6618c0,32.5669-26.853,58.9676-59.9778,58.9676-33.1248,0-59.9778,-26.4007-59.9778,-58.9676 0,-32.5669 26.853,-58.9677 59.9778,-58.9677 33.1248,0 59.9778,26.4007 59.9778,58.9677z" stroke="#000" stroke-linecap="round" stroke-linejoin="round" stroke-width="3" transform="matrix(1.04176,0,0,1.04176,-7.92906,-11.89843)"/>
<path d="m446.8915,78.4154c0,2.9289-27.5427,5.3033-61.5183,5.3033-33.9756,0-61.5183,-2.3744-61.5183,-5.3033 0,-2.9289 27.5427,-5.3033 61.5183,-5.3033 33.9756,0 61.5183,2.3744 61.5183,5.3033z" stroke="#000" stroke-linecap="round" stroke-width="4.862" transform="translate(-20.0609,281.1023)"/>
<path d="M419.0704,272.6302L419.0704,320.5186C419.0704,340.5257 402.9637,356.6324 382.9567,356.6324L347.5227,356.6324C327.5157,356.6324 311.409,340.5257 311.409,320.5186L311.409,272.6302" fill="#fff" stroke="#000" stroke-linecap="round" stroke-linejoin="round" stroke-width="3.6422"/>
<path d="M340.457,292.4417H363.991A.7803,.7803 0 0 1 364.7713,293.222V303.248A.7803,.7803 0 0 1 363.991,304.0283H340.457A.7803,.7803 0 0 1 339.6767,303.248V293.222A.7803,.7803 0 0 1 340.457,292.4417z" stroke="#000" stroke-linecap="square" stroke-linejoin="round" stroke-width="3.7338"/>
<path d="M381.8479,292.4417H402.2608A2.3409,2.3409 0 0 1 404.6016,294.7825V301.6875A2.3409,2.3409 0 0 1 402.2608,304.0283H381.8479A2.3409,2.3409 0 0 1 379.507,301.6875V294.7825A2.3409,2.3409 0 0 1 381.8479,292.4417z" stroke="#000" stroke-linecap="square" stroke-linejoin="round" stroke-width="3.7338"/>
<path d="M313.7172,297.4963C314.2664,297.5067 314.8157,297.503 315.365,297.5003C315.728,297.4982 316.0909,297.4968 316.4539,297.4961C316.7464,297.4957 317.0389,297.4957 317.3314,297.4957C317.6354,297.4951 317.9394,297.4963 318.2435,297.4968C318.6341,297.4872 319.0187,297.4965 319.4054,297.5476C319.8051,297.6021 320.2085,297.6193 320.6116,297.6303C321.0168,297.6145 321.4145,297.6891 321.8156,297.7293C322.2236,297.7661 322.6336,297.77 323.043,297.7744C323.4732,297.7767 323.9033,297.7765 324.3335,297.775C324.7071,297.7742 325.0807,297.7737 325.4543,297.7728C325.7613,297.772 326.0683,297.7718 326.3754,297.7717C326.6669,297.7716 326.9584,297.7716 327.2499,297.7716C327.5414,297.7716 327.8329,297.7716 328.1245,297.7716C328.4432,297.7712 328.7619,297.7721 329.0805,297.7736C329.4748,297.7759 329.8691,297.774 330.2634,297.7729C330.6343,297.7727 331.0051,297.7734 331.376,297.7744C331.7727,297.7743 332.1694,297.7744 332.5662,297.7734C332.9461,297.7736 333.3261,297.7741 333.7061,297.7735C334.0517,297.7722 334.3972,297.772 334.7428,297.7738C335.276,297.7764 335.8092,297.778 336.3424,297.7799C337.069,297.7827 337.7957,297.7832 338.5223,297.7808C339.0555,297.7795 339.5888,297.7756 340.122,297.7754C340.5633,297.7761 341.0046,297.7754 341.4459,297.7739C341.507,297.7737 341.5681,297.7735 341.6292,297.7733L339.8832,298.9726C339.8227,298.9724 339.7622,298.9722 339.7017,298.972C339.2618,298.9705 338.822,298.9699 338.3822,298.9705C337.8542,298.9703 337.3263,298.9664 336.7983,298.9651C336.0707,298.9626 335.3431,298.9633 334.6155,298.9661C334.0764,298.9679 333.5373,298.9695 332.9982,298.9721C332.6524,298.9739 332.3066,298.9737 331.9607,298.9724C331.5806,298.9718 331.2005,298.9724 330.8204,298.9725C330.4247,298.9715 330.029,298.9717 329.6333,298.9715C329.261,298.9725 328.8886,298.9733 328.5163,298.973C328.1226,298.9719 327.7289,298.97 327.3353,298.9724C327.0147,298.9737 326.6942,298.9747 326.3736,298.9743C326.082,298.9743 325.7905,298.9743 325.4989,298.9743C325.2075,298.9743 324.9161,298.9743 324.6246,298.9742C324.3186,298.9741 324.0126,298.9739 323.7067,298.9733C323.3346,298.9726 322.9626,298.9724 322.5906,298.9724C322.1604,298.9716 321.7303,298.9731 321.3001,298.9683C320.8854,298.9627 320.4699,298.9538 320.0574,298.9088C319.6606,298.8643 319.2654,298.8116 318.8643,298.8219C318.4565,298.8068 318.0495,298.7784 317.6451,298.7251C317.263,298.6847 316.8797,298.6959 316.4958,298.6973C316.1906,298.6979 315.8855,298.6991 315.5803,298.6985C315.2882,298.6985 314.9961,298.6985 314.704,298.6981C314.3452,298.6974 313.9863,298.696 313.6275,298.6938C313.0743,298.6911 312.5209,298.6876 311.9678,298.6979L313.7172,297.4963z" stroke="#000" stroke-linecap="square" stroke-linejoin="round" stroke-width=".4767"/>
<path d="M405.212,297.7729C405.9158,297.7847 406.6199,297.7831 407.3238,297.7827C407.9691,297.7818 408.6143,297.78 409.2595,297.7771C409.6907,297.7747 410.1219,297.7746 410.5531,297.7741C410.8929,297.7733 411.2327,297.7724 411.5724,297.772C411.8693,297.7936 412.1545,297.7145 412.4463,297.6764C412.7389,297.6423 413.0339,297.6374 413.3283,297.6339C413.6205,297.6318 413.9126,297.6327 414.2048,297.633C414.4966,297.6334 414.7884,297.6336 415.0802,297.6336C415.372,297.6337 415.6637,297.6337 415.9555,297.6337C416.2473,297.6337 416.5391,297.6337 416.8309,297.6337C417.1442,297.6331 417.4575,297.6348 417.7708,297.6348C418.088,297.6346 418.4052,297.6341 418.7225,297.6339C419.0163,297.6337 419.3101,297.6337 419.6039,297.6337C419.7983,297.6337 419.7011,297.6337 419.8954,297.6337L418.1445,298.8364C417.9502,298.8364 418.0474,298.8364 417.8531,298.8364C417.5595,298.8363 417.2658,298.8363 416.9722,298.8361C416.6559,298.8359 416.3395,298.8355 416.0232,298.8352C415.7088,298.8352 415.3944,298.8369 415.0801,298.8363C414.7883,298.8364 414.4964,298.8364 414.2047,298.8364C413.9128,298.8363 413.621,298.8363 413.3292,298.8362C413.0374,298.8361 412.7456,298.8359 412.4538,298.8355C412.1625,298.8353 411.8712,298.8345 411.5799,298.8398C411.2906,298.8472 411.0008,298.8594 410.7147,298.9034C410.4186,298.9486 410.1241,298.9941 409.8226,298.9739C409.4848,298.9735 409.1471,298.9726 408.8093,298.9718C408.3811,298.9713 407.9528,298.9712 407.5246,298.9688C406.8848,298.9659 406.245,298.9641 405.6051,298.9632C404.8917,298.9628 404.1783,298.9613 403.465,298.973L405.212,297.7729z" stroke="#000" stroke-linecap="square" stroke-linejoin="round" stroke-width=".4767"/>
<path d="M364.9191,297.9362C365.4531,298.0037 365.9917,298.025 366.5296,298.041C367.0097,298.0526 367.49,298.0526 367.9701,298.0513C368.3666,298.0508 368.763,298.0507 369.1594,298.0497C369.9552,298.0702 370.7514,298.0602 371.5474,298.0565C372.0283,298.0529 372.5092,298.0515 372.9902,298.0495C373.3737,298.0496 373.7572,298.0491 374.1408,298.0501C374.5439,298.0514 374.9471,298.0492 375.3503,298.0498C375.7142,298.0489 376.078,298.0491 376.4418,298.0491C376.8062,298.0497 377.1705,298.0494 377.5349,298.0486C377.883,298.0498 378.231,298.0487 378.5791,298.0482C378.9196,298.0496 379.2602,298.0486 379.6008,298.0482C379.9016,298.0477 380.2024,298.0476 380.5032,298.0475C380.7548,298.106 381.0078,298.1481 381.2659,298.1684C381.5458,298.1857 381.8265,298.1857 382.1069,298.1864C382.3985,298.1866 382.6902,298.1861 382.9819,298.1858C383.1279,298.1856 383.2739,298.1856 383.4199,298.1855L381.6691,299.3883C381.5231,299.3884 381.3771,299.3884 381.2311,299.3886C380.9391,299.3889 380.6471,299.3897 380.3551,299.3882C380.0699,299.3858 379.7841,299.3832 379.5002,299.3551C379.2496,299.3257 379.0042,299.2654 378.7524,299.2501C378.4522,299.25 378.152,299.2499 377.8518,299.2495C377.5113,299.249 377.1708,299.248 376.8303,299.2495C376.4826,299.2489 376.135,299.2478 375.7874,299.249C375.4235,299.2483 375.0596,299.2479 374.6957,299.2485C374.3326,299.2486 373.9694,299.2487 373.6062,299.2478C373.2033,299.2485 372.8004,299.2462 372.3975,299.2475C372.0134,299.2485 371.6293,299.2481 371.2452,299.2481C370.771,299.2461 370.2969,299.2447 369.8227,299.2412C369.02,299.2375 368.217,299.2279 367.4144,299.2485C367.0186,299.2481 366.6229,299.249 366.2271,299.2482C365.7486,299.2453 365.2701,299.2415 364.7919,299.2256C364.2442,299.2044 363.6972,299.1718 363.1519,299.1186L364.9191,297.9362z" stroke="#000" stroke-linecap="square" stroke-linejoin="round" stroke-width=".4767"/>
<path d="M326.4146,260.1229L326.4146,278.6661" fill="none" stroke="#000" stroke-linecap="round" stroke-width="4.8046"/>
<path d="M335.9387,258.3685L335.9387,276.9117" fill="none" stroke="#000" stroke-linecap="round" stroke-width="4.8046"/>
<path d="M344.8756,259.8328L344.8756,278.3761" fill="none" stroke="#000" stroke-linecap="round" stroke-width="4.8046"/>
<path d="M356.5523,258.6656L356.5523,277.2088" fill="none" stroke="#000" stroke-linecap="round" stroke-width="4.8046"/>
<path d="M366.711,260.8522L366.711,279.3954" fill="none" stroke="#000" stroke-linecap="round" stroke-width="4.8046"/>
<path d="M378.3402,260.6768L378.3402,279.22" fill="none" stroke="#000" stroke-linecap="round" stroke-width="4.8046"/>
<path d="M388.8428,258.9626L388.8428,277.5059" fill="none" stroke="#000" stroke-linecap="round" stroke-width="4.8046"/>
<path d="M398.7582,261.9995L398.7582,280.5428" fill="none" stroke="#000" stroke-linecap="round" stroke-width="4.8046"/>
<path d="M409.4312,261.6309L409.4312,280.1741" fill="none" stroke="#000" stroke-linecap="round" stroke-width="4.8046"/>
<path d="M356.7984,336.7053L383.9213,332.2771" fill="none" stroke="#000" stroke-width=".7749"/>
<path d="M318.5304,264.8531L318.5304,283.3963" fill="none" stroke="#000" stroke-linecap="round" stroke-width="4.8046"/>
<path d="M423.3961,182.8147L450.6702,212.6141" fill="none" stroke="#000"/>
<text font-family="Bitstream Vera Sans" font-size="20" x="117.1777" y="157.0558">
    <tspan text-align="center" text-anchor="middle" x="117.1777" y="157.0558">Tiens un arbuste</tspan>
    <tspan text-align="center" text-anchor="middle" x="117.1777" y="182.0558">dans la classe...</tspan>
   </text>
<path d="M108.5914,197.9669L95.9645,245.4441" fill="none" stroke="#000"/>
<text font-family="Bitstream Vera Sans" font-size="20" x="378.4442" y="175.2385">
    <tspan x="378.4442" y="175.2385">Yo !</tspan>
   </text>
<g transform="translate(500.678,1.1281)">
<path d="m446.8915,78.4154c0,2.9289-27.5427,5.3033-61.5183,5.3033-33.9756,0-61.5183,-2.3744-61.5183,-5.3033 0,-2.9289 27.5427,-5.3033 61.5183,-5.3033 33.9756,0 61.5183,2.3744 61.5183,5.3033z" stroke="#000" stroke-linecap="round" stroke-width="4.862" transform="translate(-237.9848,281.9447)"/>
<path d="M201.1465,273.4726L201.1465,321.361C201.1465,341.368 185.0398,357.4747 165.0328,357.4747L129.5988,357.4747C109.5918,357.4747 93.4851,341.368 93.4851,321.361L93.4851,273.4726" fill="#fff" stroke="#000" stroke-linecap="round" stroke-linejoin="round" stroke-width="3.6422"/>
<path d="M122.5331,293.2841H146.0671A.7803,.7803 0 0 1 146.8474,294.0643V304.0904A.7803,.7803 0 0 1 146.0671,304.8707H122.5331A.7803,.7803 0 0 1 121.7528,304.0904V294.0643A.7803,.7803 0 0 1 122.5331,293.2841z" stroke="#000" stroke-linecap="square" stroke-linejoin="round" stroke-width="3.7338"/>
<path d="M163.924,293.2841H184.3369A2.3409,2.3409 0 0 1 186.6778,295.6249V302.5299A2.3409,2.3409 0 0 1 184.3369,304.8707H163.924A2.3409,2.3409 0 0 1 161.5832,302.5299V295.6249A2.3409,2.3409 0 0 1 163.924,293.2841z" stroke="#000" stroke-linecap="square" stroke-linejoin="round" stroke-width="3.7338"/>
<path d="M95.7933,298.3386C96.3425,298.3491 96.8918,298.3454 97.4411,298.3427C97.8041,298.3406 98.167,298.3392 98.53,298.3385C98.8225,298.338 99.115,298.3381 99.4075,298.3381C99.7115,298.3374 100.0155,298.3387 100.3196,298.3392C100.7102,298.3295 101.0948,298.3388 101.4815,298.3899C101.8812,298.4445 102.2846,298.4617 102.6877,298.4726C103.093,298.4569 103.4906,298.5315 103.8917,298.5717C104.2997,298.6085 104.7097,298.6123 105.1191,298.6167C105.5493,298.619 105.9794,298.6188 106.4096,298.6174C106.7832,298.6166 107.1568,298.6161 107.5304,298.6151C107.8374,298.6144 108.1444,298.6142 108.4515,298.614C108.743,298.6139 109.0345,298.614 109.326,298.614C109.6175,298.614 109.909,298.614 110.2006,298.614C110.5193,298.6136 110.838,298.6145 111.1566,298.6159C111.5509,298.6183 111.9452,298.6164 112.3395,298.6153C112.7104,298.615 113.0812,298.6158 113.4521,298.6168C113.8488,298.6166 114.2455,298.6167 114.6423,298.6157C115.0222,298.6159 115.4022,298.6165 115.7822,298.6159C116.1278,298.6146 116.4733,298.6144 116.8189,298.6161C117.3521,298.6187 117.8853,298.6203 118.4185,298.6222C119.1451,298.625 119.8718,298.6256 120.5984,298.6232C121.1316,298.6219 121.6649,298.618 122.1981,298.6178C122.6394,298.6184 123.0807,298.6178 123.522,298.6163C123.5831,298.6161 123.6442,298.6159 123.7053,298.6157L121.9593,299.815C121.8988,299.8148 121.8383,299.8146 121.7778,299.8144C121.338,299.8129 120.8981,299.8122 120.4583,299.8129C119.9303,299.8126 119.4023,299.8088 118.8744,299.8074C118.1468,299.805 117.4192,299.8056 116.6916,299.8084C116.1525,299.8103 115.6134,299.8119 115.0743,299.8145C114.7285,299.8162 114.3826,299.816 114.0368,299.8148C113.6567,299.8142 113.2766,299.8147 112.8965,299.8149C112.5008,299.8139 112.1051,299.814 111.7094,299.8138C111.3371,299.8149 110.9647,299.8156 110.5924,299.8154C110.1987,299.8143 109.805,299.8123 109.4114,299.8147C109.0908,299.8161 108.7703,299.817 108.4497,299.8167C108.1582,299.8167 107.8666,299.8167 107.575,299.8167C107.2836,299.8167 106.9922,299.8167 106.7007,299.8166C106.3948,299.8165 106.0887,299.8163 105.7828,299.8156C105.4107,299.815 105.0387,299.8148 104.6667,299.8148C104.2365,299.8139 103.8064,299.8155 103.3762,299.8107C102.9615,299.8051 102.546,299.7961 102.1335,299.7512C101.7367,299.7067 101.3414,299.654 100.9404,299.6643C100.5326,299.6491 100.1256,299.6208 99.7212,299.5675C99.3391,299.5271 98.9558,299.5383 98.5719,299.5397C98.2667,299.5402 97.9616,299.5414 97.6564,299.5408C97.3643,299.5408 97.0722,299.5409 96.7801,299.5404C96.4213,299.5398 96.0624,299.5383 95.7036,299.5362C95.1504,299.5334 94.597,299.53 94.0439,299.5403L95.7933,298.3386z" stroke="#000" stroke-linecap="square" stroke-linejoin="round" stroke-width=".4767"/>
<path d="M187.2881,298.6153C187.992,298.6271 188.696,298.6255 189.3999,298.625C190.0452,298.6241 190.6904,298.6224 191.3356,298.6195C191.7668,298.6171 192.198,298.617 192.6292,298.6164C192.969,298.6156 193.3088,298.6148 193.6485,298.6143C193.9454,298.636 194.2306,298.5568 194.5224,298.5187C194.815,298.4846 195.11,298.4797 195.4044,298.4762C195.6966,298.4741 195.9887,298.475 196.2809,298.4754C196.5727,298.4758 196.8645,298.4759 197.1563,298.476C197.4481,298.4761 197.7398,298.4761 198.0316,298.4761C198.3234,298.4761 198.6152,298.4761 198.907,298.4761C199.2203,298.4755 199.5336,298.4771 199.8468,298.4772C200.1641,298.4769 200.4813,298.4765 200.7986,298.4763C201.0924,298.4761 201.3862,298.4761 201.68,298.476C201.8744,298.476 201.7772,298.476 201.9715,298.476L200.2206,299.6787C200.0263,299.6787 200.1235,299.6787 199.9292,299.6787C199.6355,299.6787 199.3419,299.6787 199.0483,299.6785C198.732,299.6783 198.4156,299.6778 198.0993,299.6776C197.7849,299.6776 197.4705,299.6793 197.1561,299.6787C196.8644,299.6787 196.5726,299.6787 196.2808,299.6787C195.9889,299.6787 195.6971,299.6787 195.4053,299.6786C195.1135,299.6785 194.8217,299.6782 194.5299,299.6779C194.2386,299.6777 193.9473,299.6768 193.656,299.6822C193.3667,299.6896 193.0769,299.7017 192.7908,299.7458C192.4947,299.791 192.2002,299.8364 191.8987,299.8163C191.5609,299.8159 191.2232,299.815 190.8854,299.8142C190.4572,299.8137 190.0289,299.8136 189.6007,299.8112C188.9609,299.8082 188.3211,299.8065 187.6812,299.8056C186.9678,299.8051 186.2544,299.8037 185.5411,299.8153L187.2881,298.6153z" stroke="#000" stroke-linecap="square" stroke-linejoin="round" stroke-width=".4767"/>
<path d="M146.9952,298.7785C147.5291,298.8461 148.0678,298.8674 148.6057,298.8834C149.0858,298.8949 149.5661,298.895 150.0462,298.8937C150.4427,298.8932 150.8391,298.8931 151.2355,298.8921C152.0313,298.9126 152.8275,298.9025 153.6235,298.8989C154.1044,298.8953 154.5853,298.8939 155.0663,298.8919C155.4498,298.8919 155.8333,298.8915 156.2168,298.8925C156.62,298.8938 157.0232,298.8915 157.4264,298.8922C157.7902,298.8913 158.1541,298.8914 158.5179,298.8915C158.8823,298.8921 159.2466,298.8917 159.611,298.891C159.9591,298.8922 160.3071,298.8911 160.6552,298.8906C160.9957,298.892 161.3363,298.891 161.6769,298.8905C161.9777,298.8901 162.2785,298.89 162.5793,298.8899C162.8309,298.9484 163.0839,298.9905 163.3421,299.0108C163.6219,299.028 163.9026,299.0281 164.183,299.0288C164.4746,299.029 164.7663,299.0284 165.058,299.0281C165.204,299.028 165.35,299.0279 165.496,299.0279L163.7452,300.2306C163.5992,300.2307 163.4532,300.2308 163.3072,300.231C163.0152,300.2313 162.7232,300.232 162.4312,300.2306C162.146,300.2281 161.8602,300.2256 161.5763,300.1975C161.3257,300.1681 161.0803,300.1078 160.8285,300.0925C160.5283,300.0924 160.2281,300.0923 159.9279,300.0919C159.5874,300.0914 159.2469,300.0904 158.9064,300.0918C158.5587,300.0913 158.2111,300.0902 157.8635,300.0914C157.4996,300.0906 157.1357,300.0903 156.7718,300.0909C156.4087,300.091 156.0455,300.0911 155.6823,300.0902C155.2794,300.0908 154.8765,300.0886 154.4736,300.0899C154.0895,300.0909 153.7054,300.0905 153.3213,300.0905C152.8471,300.0885 152.373,300.0871 151.8988,300.0835C151.0961,300.0799 150.2931,300.0703 149.4905,300.0909C149.0948,300.0905 148.699,300.0913 148.3032,300.0905C147.8247,300.0876 147.3462,300.0839 146.868,300.068C146.3203,300.0468 145.7733,300.0142 145.228,299.961L146.9952,298.7785z" stroke="#000" stroke-linecap="square" stroke-linejoin="round" stroke-width=".4767"/>
<path d="M108.4907,260.9652L108.4907,279.5085" fill="none" stroke="#000" stroke-linecap="round" stroke-width="4.8046"/>
<path d="M118.0148,259.2109L118.0148,277.7541" fill="none" stroke="#000" stroke-linecap="round" stroke-width="4.8046"/>
<path d="M126.9517,260.6752L126.9517,279.2184" fill="none" stroke="#000" stroke-linecap="round" stroke-width="4.8046"/>
<path d="M138.6284,259.508L138.6284,278.0512" fill="none" stroke="#000" stroke-linecap="round" stroke-width="4.8046"/>
<path d="M148.787,261.6946L148.787,280.2378" fill="none" stroke="#000" stroke-linecap="round" stroke-width="4.8046"/>
<path d="M160.4163,261.5192L160.4163,280.0624" fill="none" stroke="#000" stroke-linecap="round" stroke-width="4.8046"/>
<path d="M170.9189,259.805L170.9189,278.3482" fill="none" stroke="#000" stroke-linecap="round" stroke-width="4.8046"/>
<path d="M180.8343,262.8419L180.8343,281.3851" fill="none" stroke="#000" stroke-linecap="round" stroke-width="4.8046"/>
<path d="M191.5073,262.4732L191.5073,281.0165" fill="none" stroke="#000" stroke-linecap="round" stroke-width="4.8046"/>
<path d="M138.8745,337.5477L165.9974,333.1194" fill="none" stroke="#000" stroke-width=".7749"/>
<path d="M100.6065,265.6954L100.6065,284.2387" fill="none" stroke="#000" stroke-linecap="round" stroke-width="4.8046"/>
</g>
<text font-family="Bitstream Vera Sans" font-size="20" x="627.8571" y="200.7143">
    <tspan x="627.8571" y="200.7143">Hmm...</tspan>
   </text>
<path d="M647.1429,213.5714L641.4286,246.4286" fill="none" stroke="#000"/>
<path d="m275.7717,361.6117c0,2.2316-24.309,4.0406-54.2957,4.0406-29.9867,0-54.2957,-1.809-54.2957,-4.0406 0,-2.2316 24.309,-4.0406 54.2957,-4.0406 29.9867,0 54.2957,1.8091 54.2957,4.0406z" stroke="#000" stroke-linecap="round" stroke-linejoin="round" stroke-width="3" transform="translate(284.857,-2.5254)"/>
<path d="m281.0749,254.6618c0,32.5669-26.853,58.9676-59.9778,58.9676-33.1248,0-59.9778,-26.4007-59.9778,-58.9676 0,-32.5669 26.853,-58.9677 59.9778,-58.9677 33.1248,0 59.9778,26.4007 59.9778,58.9677z" stroke="#000" stroke-linecap="round" stroke-linejoin="round" stroke-width="3" transform="matrix(1.04176,0,0,1.04176,281.45331,-6.84768)"/>
<path d="M547.4561,279.7376L547.4561,341.4112C547.4561,350.9234 539.7971,358.5812 530.2835,358.5812L490.3824,358.5812C480.8688,358.5812 473.2098,350.9234 473.2098,341.4112L473.2098,279.7044" fill="#fff" stroke="#000" stroke-linecap="round" stroke-linejoin="round" stroke-width="3"/>
<path d="m528.3098,301.7601c0,3.4868-.9045,6.3134-2.0203,6.3134-1.1158,0-2.0203,-2.8266-2.0203,-6.3134 0,-3.4868 .9045,-6.3134 2.0203,-6.3134 1.1158,0 2.0203,2.8266 2.0203,6.3134z" fill="#fff" stroke="#000" stroke-linecap="round" stroke-linejoin="round" stroke-width="3" transform="translate(-31.6777,-6.0609)"/>
<path d="m528.3098,301.7601c0,3.4868-.9045,6.3134-2.0203,6.3134-1.1158,0-2.0203,-2.8266-2.0203,-6.3134 0,-3.4868 .9045,-6.3134 2.0203,-6.3134 1.1158,0 2.0203,2.8266 2.0203,6.3134z" fill="#fff" stroke="#000" stroke-linecap="round" stroke-linejoin="round" stroke-width="3" transform="translate(-16.0203,-5.3033)"/>
<path d="M495.622,334.3375C496.6292,334.6827 501.8645,334.888 503.7032,335.3477C506.4141,336.0254 509.9681,333.983 511.2793,333.3274C512.4131,332.7605 513.5853,332.1195 514.8149,331.8121" fill="none" stroke="#000"/>
<path d="M473.5714,266.7857L546.9643,266.7857L546.9643,277.8571L522.2617,281.9787L491.7857,281.6071L473.5714,277.8571L473.5714,266.7857z" stroke="#000" stroke-linecap="round" stroke-linejoin="round" stroke-width="3"/>
<g transform="translate(274.6442,2.101)">
<path d="m275.7717,361.6117c0,2.2316-24.309,4.0406-54.2957,4.0406-29.9867,0-54.2957,-1.809-54.2957,-4.0406 0,-2.2316 24.309,-4.0406 54.2957,-4.0406 29.9867,0 54.2957,1.8091 54.2957,4.0406z" stroke="#000" stroke-linecap="round" stroke-linejoin="round" stroke-width="3" transform="translate(284.857,-2.5254)"/>
<path d="m281.0749,254.6618c0,32.5669-26.853,58.9676-59.9778,58.9676-33.1248,0-59.9778,-26.4007-59.9778,-58.9676 0,-32.5669 26.853,-58.9677 59.9778,-58.9677 33.1248,0 59.9778,26.4007 59.9778,58.9677z" stroke="#000" stroke-linecap="round" stroke-linejoin="round" stroke-width="3" transform="matrix(1.04176,0,0,1.04176,281.45331,-6.84768)"/>
<path d="M547.4561,279.7376L547.4561,341.4112C547.4561,350.9234 539.7971,358.5812 530.2835,358.5812L490.3824,358.5812C480.8688,358.5812 473.2098,350.9234 473.2098,341.4112L473.2098,279.7044" fill="#fff" stroke="#000" stroke-linecap="round" stroke-linejoin="round" stroke-width="3"/>
<path d="m528.3098,301.7601c0,3.4868-.9045,6.3134-2.0203,6.3134-1.1158,0-2.0203,-2.8266-2.0203,-6.3134 0,-3.4868 .9045,-6.3134 2.0203,-6.3134 1.1158,0 2.0203,2.8266 2.0203,6.3134z" fill="#fff" stroke="#000" stroke-linecap="round" stroke-linejoin="round" stroke-width="3" transform="translate(-31.6777,-6.0609)"/>
<path d="m528.3098,301.7601c0,3.4868-.9045,6.3134-2.0203,6.3134-1.1158,0-2.0203,-2.8266-2.0203,-6.3134 0,-3.4868 .9045,-6.3134 2.0203,-6.3134 1.1158,0 2.0203,2.8266 2.0203,6.3134z" fill="#fff" stroke="#000" stroke-linecap="round" stroke-linejoin="round" stroke-width="3" transform="translate(-16.0203,-5.3033)"/>
<path d="M495.622,334.3375C496.6292,334.6827 501.8645,334.888 503.7032,335.3477C506.4141,336.0254 509.9681,333.983 511.2793,333.3274C512.4131,332.7605 513.5853,332.1195 514.8149,331.8121" fill="none" stroke="#000"/>
<path d="M473.5714,266.7857L546.9643,266.7857L546.9643,277.8571L522.2617,281.9787L491.7857,281.6071L473.5714,277.8571L473.5714,266.7857z" stroke="#000" stroke-linecap="round" stroke-linejoin="round" stroke-width="3"/>
</g>
</g>
</svg>
