<?xml version="1.0" encoding="UTF-8" standalone="no"?>
<!-- Created with Inkscape (http://www.inkscape.org/) -->

<svg
   xmlns:dc="http://purl.org/dc/elements/1.1/"
   xmlns:cc="http://creativecommons.org/ns#"
   xmlns:rdf="http://www.w3.org/1999/02/22-rdf-syntax-ns#"
   xmlns:svg="http://www.w3.org/2000/svg"
   xmlns="http://www.w3.org/2000/svg"
   xmlns:sodipodi="http://sodipodi.sourceforge.net/DTD/sodipodi-0.dtd"
   xmlns:inkscape="http://www.inkscape.org/namespaces/inkscape"
   width="900"
   height="450.35999"
   id="svg2"
   version="1.1"
   inkscape:version="0.48.2 r9819"
   sodipodi:docname="238-asterisque.svg"
   inkscape:export-filename="C:\Users\Mogmi\Dropbox\Public\hmm\strips\png\238-asterisque.png"
   inkscape:export-xdpi="90"
   inkscape:export-ydpi="90">
  <defs
     id="defs4">
    <inkscape:perspective
       sodipodi:type="inkscape:persp3d"
       inkscape:vp_x="0 : 0.5 : 1"
       inkscape:vp_y="0 : 1000 : 0"
       inkscape:vp_z="1 : 0.5 : 1"
       inkscape:persp3d-origin="0.5 : 0.33333333 : 1"
       id="perspective5439" />
    <inkscape:perspective
       id="perspective2570"
       inkscape:persp3d-origin="372.04724 : 350.78739 : 1"
       inkscape:vp_z="744.09448 : 526.18109 : 1"
       inkscape:vp_y="0 : 1000 : 0"
       inkscape:vp_x="0 : 526.18109 : 1"
       sodipodi:type="inkscape:persp3d" />
  </defs>
  <sodipodi:namedview
     id="base"
     pagecolor="#ffffff"
     bordercolor="#666666"
     borderopacity="1.0"
     inkscape:pageopacity="1"
     inkscape:pageshadow="2"
     inkscape:zoom="0.98994949"
     inkscape:cx="334.5061"
     inkscape:cy="334.69007"
     inkscape:document-units="px"
     inkscape:current-layer="layer1"
     showgrid="false"
     inkscape:window-width="1920"
     inkscape:window-height="1028"
     inkscape:window-x="-8"
     inkscape:window-y="-8"
     inkscape:window-maximized="1" />
  <metadata
     id="metadata7">
    <rdf:RDF>
      <cc:Work
         rdf:about="">
        <dc:format>image/svg+xml</dc:format>
        <dc:type
           rdf:resource="http://purl.org/dc/dcmitype/StillImage" />
        <dc:title></dc:title>
      </cc:Work>
    </rdf:RDF>
  </metadata>
  <g
     inkscape:label="Layer 1"
     inkscape:groupmode="layer"
     id="layer1"
     transform="translate(0,-602.00218)">
    <rect
       style="fill:#ffffff;fill-opacity:1;stroke:#000000;stroke-width:7.49069977;stroke-linecap:round;stroke-linejoin:miter;stroke-miterlimit:4;stroke-opacity:1;stroke-dasharray:none"
       id="rect7413-7"
       width="844.24396"
       height="311.59088"
       x="20.097462"
       y="685.30646"
       ry="31.621019" />
    <path
       style="fill:none;stroke:#000000;stroke-width:1px;stroke-linecap:butt;stroke-linejoin:miter;stroke-opacity:1"
       d="m 19.192898,324.09092 844.487532,0"
       id="path4020"
       inkscape:connector-curvature="0"
       transform="translate(0,602.00218)" />
    <rect
       ry="15.655181"
       y="652.72046"
       x="33.966103"
       height="31.310362"
       width="282.4743"
       id="rect7471-3-8"
       style="fill:#ffffff;fill-opacity:1;stroke:#000000;stroke-width:4.50943995;stroke-linecap:round;stroke-linejoin:round;stroke-miterlimit:4;stroke-opacity:1;stroke-dasharray:none"
       transform="matrix(0.99999504,-0.00314981,0.00314981,0.99999504,0,0)" />
    <path
       transform="matrix(1.24255,-0.00391383,0.00217078,0.689175,-22.0997,629.76274)"
       d="m 101.52033,44.928829 a 36.870567,34.850262 0 1 1 -73.741132,0 36.870567,34.850262 0 1 1 73.741132,0 z"
       sodipodi:ry="34.850262"
       sodipodi:rx="36.870567"
       sodipodi:cy="44.928829"
       sodipodi:cx="64.649765"
       id="path7473-1-9"
       style="fill:#000000;fill-opacity:1;stroke:#000000;stroke-width:7.49100018;stroke-linecap:round;stroke-linejoin:round;stroke-miterlimit:4;stroke-opacity:1;stroke-dasharray:none"
       sodipodi:type="arc" />
    <text
       id="text7475-5-7"
       y="675.57739"
       x="24.415995"
       style="font-size:40px;font-style:normal;font-weight:normal;fill:#000000;fill-opacity:1;stroke:none;font-family:Bitstream Vera Sans"
       xml:space="preserve"
       transform="matrix(0.99999504,-0.00314981,0.00314981,0.99999504,0,0)"><tspan
         style="fill:#f9f9f9"
         y="675.57739"
         x="24.415995"
         sodipodi:role="line"
         id="tspan22503">238</tspan></text>
    <text
       id="text7583-1-2"
       y="675.48889"
       x="149.86591"
       style="font-size:20px;font-style:normal;font-weight:normal;fill:#000000;fill-opacity:1;stroke:none;font-family:Bitstream Vera Sans"
       xml:space="preserve"
       transform="matrix(0.99999504,-0.00314981,0.00314981,0.99999504,0,0)"><tspan
         y="675.48889"
         x="149.86591"
         id="tspan7585-3-9"
         sodipodi:role="line">Astérisque</tspan></text>
    <g
       transform="translate(0.7009198,-6.5065977)"
       id="g36753">
      <path
         inkscape:connector-curvature="0"
         d="m 839.4465,1023.3074 c 0.43929,0.5102 1.03555,0.5714 1.67024,0.6073 0.80294,-0.022 1.60723,-0.2138 2.3575,-0.4993 0.40087,-0.1526 0.62241,-0.2825 0.99647,-0.4789 -2.23866,1.3097 -0.99237,0.6082 -0.57384,0.1636 0.21684,-0.2303 0.34634,-0.473 0.46862,-0.7606 0.3177,-0.895 0.35887,-1.8574 0.41306,-2.7971 0.1056,-1.3679 -0.17756,-2.7109 -0.48246,-4.0351 -0.37088,-1.393 -0.8746,-2.7467 -1.42936,-4.0758 -0.26563,-0.6279 -0.56605,-1.24 -0.85867,-1.8555 -0.39436,-0.7567 -0.71696,-0.2868 1.51037,-1.1508 0.0768,-0.03 0.0919,0.1367 0.14111,0.2027 0.0824,0.1106 0.1689,0.2179 0.25335,0.3269 0.82168,1.1276 1.80984,2.1155 2.80011,3.0928 0.5826,0.5674 1.20736,1.0941 1.76446,1.6874 0.21145,0.1726 0.33784,0.416 0.50801,0.6229 0.16621,0.1502 0.29624,-0.01 0.44313,-0.1106 -2.56559,1.5384 -1.65189,1.0412 -1.15995,0.5694 0.19373,-0.1857 0.37638,-0.3843 0.56186,-0.5781 0.26325,-0.2626 0.51271,-0.5438 0.80098,-0.7804 0.76098,-0.6244 1.82272,-1.1234 2.60966,-1.5711 0.72713,-0.3211 1.47101,-0.6005 2.22653,-0.8467 0.15629,-0.034 0.76097,-0.2665 0.89904,-0.1093 0.0321,0.037 0.0451,0.086 0.0677,0.1294 0.003,0.044 0.0154,0.089 0.009,0.1323 -0.0436,0.3196 -0.53847,0.6915 -0.75447,0.8904 -0.99282,0.8207 -1.9561,1.6745 -2.87309,2.5792 -0.79764,0.8557 -1.62159,1.7004 -2.25662,2.6874 -0.3921,0.6165 -0.60052,1.2972 -0.69835,2.0144 -0.0648,0.6415 -0.0542,1.2873 -0.0532,1.9312 0.0351,0.6998 0.1244,1.4011 0.33276,2.0715 0.11945,0.3571 0.33186,0.6194 0.6717,0.7762 0.22551,0.08 0.48372,0.1318 0.72381,0.087 0.0559,-0.011 0.52162,-0.1684 0.55888,-0.1808 0.54916,-0.2997 1.87559,-1.0005 -0.60674,0.3598 -0.0982,0.054 0.18906,-0.1201 0.28213,-0.1824 0.21376,-0.143 0.26512,-0.1851 0.46569,-0.3346 0.24054,-0.18 0.12658,-0.092 0.3424,-0.2617 l 1.71907,-0.6913 c -0.21784,0.1831 -0.1012,0.092 -0.35158,0.2719 -1.01387,0.7828 -2.13696,1.4308 -3.3009,1.9611 -0.51068,0.1524 -0.88777,0.2254 -1.38511,-0.01 -0.36622,-0.2066 -0.6055,-0.5062 -0.73429,-0.9112 -0.20413,-0.6903 -0.28113,-1.409 -0.34813,-2.1238 -0.004,-0.6502 -0.0146,-1.3021 0.038,-1.9509 0.0928,-0.7431 0.28868,-1.4524 0.68841,-2.0955 0.0802,-0.1333 0.15295,-0.2712 0.24045,-0.3997 0.17973,-0.264 0.44806,-0.5661 0.65294,-0.8036 0.45265,-0.5248 0.91567,-1.0402 1.39384,-1.5419 0.89184,-0.8997 1.83184,-1.7498 2.80656,-2.5592 0.2761,-0.2564 0.56185,-0.5063 0.80011,-0.7993 0.0396,0.021 -0.0878,0.017 -0.13207,0.024 -0.22104,0.031 -0.43378,0.1 -0.64664,0.1641 -0.74708,0.2466 -1.48661,0.5202 -2.19586,0.8624 2.44463,-1.4457 0.97478,-0.6248 0.49702,-0.2572 -0.29102,0.2239 -0.54001,0.5004 -0.79529,0.7622 -0.92575,0.9765 -0.97889,1.08 -2.54507,1.8884 -0.25666,0.1212 -0.40015,0.1068 -0.60094,-0.1041 -0.15843,-0.2095 -0.28535,-0.4431 -0.48103,-0.6233 -0.53342,-0.6025 -1.12818,-1.1492 -1.69322,-1.7213 -0.98084,-0.9983 -1.97675,-1.9849 -2.84964,-3.0818 -0.0938,-0.1054 -0.18768,-0.2107 -0.28138,-0.3162 -0.0521,-0.059 -0.21537,-0.1251 -0.15588,-0.1761 1.41409,-1.214 1.33403,-1.5318 1.69931,-0.7303 0.27567,0.628 0.56627,1.2498 0.81712,1.8885 0.52491,1.3529 1.00892,2.7231 1.40527,4.1197 0.31849,1.3302 0.63355,2.6815 0.5419,4.06 -0.0362,0.9485 -0.0918,1.9144 -0.34929,2.8318 -0.0847,0.2347 -0.1139,0.3545 -0.24905,0.5692 -0.59386,0.9436 -1.87471,1.3891 -2.7166,1.9248 -1.07142,0.5265 -2.21127,0.8989 -3.41719,0.9043 -0.16764,-0.014 -0.33654,-0.016 -0.50293,-0.04 -0.49555,-0.073 -0.95749,-0.2895 -1.30044,-0.6569 l 1.60034,-0.9608 z"
         id="path7461-3"
         style="fill:#000000;fill-opacity:1;stroke:#000000;stroke-width:0.25149;stroke-linecap:round;stroke-linejoin:round;stroke-miterlimit:4;stroke-opacity:1;stroke-dasharray:none" />
      <path
         inkscape:connector-curvature="0"
         d="m 854.81114,1021.1506 c -0.73938,0.2071 -2.34202,1.1965 0.45554,-0.4044 -0.38803,0.2065 -0.61836,0.5425 -0.79993,0.9302 -0.1036,0.3106 -0.2142,0.6511 -0.19168,0.9845 0.0156,0.2306 0.0756,0.3465 0.15403,0.562 0.30715,0.6068 0.77946,1.1058 1.33993,1.4838 0.41366,0.2881 0.88389,0.4192 1.38304,0.4252 0.38515,-0.087 0.74306,-0.2375 1.09573,-0.4123 0.15033,-0.075 0.5909,-0.3179 0.44672,-0.2321 -1.66182,0.9893 -1.24558,0.7222 -0.65754,0.3195 0.48419,-0.373 1.0105,-0.8057 1.13521,-1.4399 0.0174,-0.089 0.0162,-0.1799 0.0243,-0.2698 -0.032,-0.7933 -0.53327,-1.4143 -1.01691,-2.0008 -0.30486,-0.3393 -0.6501,-0.6629 -1.06691,-0.861 -0.21155,-0.1006 -0.31998,-0.1184 -0.54401,-0.1779 -0.45193,-0.025 -0.92555,0.018 -1.3546,0.1741 -0.19836,0.072 -0.499,0.2393 -0.68336,0.3368 2.51318,-1.5077 0.86648,-0.5123 0.34815,-0.062 l -1.71056,0.6997 c 0.79602,-0.7657 1.85893,-1.2168 2.78422,-1.7768 0.26856,-0.1306 0.42711,-0.2209 0.71412,-0.308 0.45677,-0.1387 0.94853,-0.1711 1.41899,-0.1018 0.24193,0.077 0.33998,0.097 0.56719,0.2178 0.42308,0.2254 0.77196,0.5679 1.08405,0.9255 0.5088,0.6264 1.02529,1.2756 1.10279,2.1094 -0.004,0.1012 0.002,0.2032 -0.0112,0.3036 -0.0928,0.6824 -0.60047,1.1675 -1.11667,1.5707 -1.00126,0.7187 -0.4882,0.3709 -2.42365,1.4672 -0.5043,0.2856 -1.05594,0.5275 -1.63514,0.5951 -0.52177,-0.046 -1.00725,-0.1999 -1.43231,-0.5166 -0.57487,-0.4193 -1.05826,-0.9487 -1.39493,-1.5794 -0.0786,-0.2055 -0.16776,-0.4012 -0.19462,-0.6229 -0.0421,-0.3472 0.0735,-0.7121 0.15715,-1.043 0.16082,-0.4085 0.36492,-0.7958 0.74915,-1.0357 0.90312,-0.5198 1.74823,-1.1163 2.75567,-1.3944 l -1.48194,1.1332 z"
         id="path7463-6"
         style="fill:#000000;fill-opacity:1;stroke:#000000;stroke-width:0.25149;stroke-linecap:round;stroke-linejoin:round;stroke-miterlimit:4;stroke-opacity:1;stroke-dasharray:none" />
      <path
         inkscape:connector-curvature="0"
         d="m 862.60733,1021.9051 c -0.32026,0.1024 -0.65299,0.1903 -0.95744,0.3362 -0.10224,0.049 -0.19823,0.1101 -0.29734,0.1651 0.4207,-0.2356 0.8414,-0.4712 1.2621,-0.7068 -0.4994,0.337 -0.86997,0.6738 -1.09341,1.2386 -0.1462,0.4653 -0.0761,0.8587 0.29233,1.2028 0.0889,0.083 0.1935,0.1478 0.29025,0.2216 0.70423,0.4046 1.53781,0.5494 2.34441,0.4638 0.23122,-0.024 0.458,-0.081 0.687,-0.1208 0.52995,-0.1368 0.76091,-0.1749 1.25861,-0.3838 0.16511,-0.069 0.63498,-0.3304 0.48124,-0.2386 -2.23817,1.3365 -1.22508,0.7542 -0.87359,0.3984 0.0779,-0.079 0.13985,-0.1722 0.20977,-0.2583 0.30652,-0.4795 0.31437,-0.9061 0.0985,-1.417 -0.0396,-0.09 -0.26803,-0.5604 -0.42908,-0.4586 -0.0279,0.018 -0.042,0.051 -0.063,0.076 2.54219,-1.4497 1.57432,-1.2073 1.32776,-0.5008 -0.10641,0.3049 -0.12498,0.6013 -0.13961,0.9215 0.17661,1.4863 0.83323,2.8626 1.37265,4.2435 0.6559,1.8244 1.28813,3.7176 1.36091,5.6745 0.0145,0.3894 -0.0234,0.779 -0.0352,1.1686 -0.0582,0.3745 -0.0908,0.7539 -0.17451,1.1236 -0.27317,1.2059 -0.89484,2.3097 -1.81795,3.137 -0.16273,0.1458 -0.34694,0.2657 -0.52041,0.3986 -0.69414,0.3626 -1.35446,0.7991 -2.08243,1.0879 -0.30177,0.1197 -1.03017,-0.13 -1.26895,-0.2365 -0.88751,-0.3956 -1.65401,-1.0455 -2.40797,-1.6406 -1.27194,-1.0888 -2.51724,-2.2246 -3.65512,-3.4553 -0.58949,-0.6376 -0.73522,-0.8522 -1.24726,-1.5117 -0.43575,-0.7271 -0.94943,-1.5701 -0.52101,-2.4271 0.25354,-0.5072 0.55956,-0.6912 0.98423,-1.0605 1.27273,-0.8247 1.37693,-0.9187 3.21953,-1.8517 0.44971,-0.2278 1.89996,-0.7427 2.34378,-0.8976 0.88509,-0.3088 1.83691,-0.6147 2.72693,-0.9055 2.3381,-0.6745 4.62812,-1.4959 6.89146,-2.3865 0.19213,-0.082 0.38451,-0.1627 0.57637,-0.245 0.14658,-0.063 0.29425,-0.1233 0.43896,-0.1903 0.29579,-0.1371 0.57212,-0.3067 0.87728,-0.4229 0.41382,-0.059 0.55896,0.4391 0.68284,0.7418 0.28528,0.7705 0.44603,1.5785 0.5154,2.3954 0.0171,0.366 0.029,0.7336 -0.0228,1.0975 -0.005,0.037 0.0139,0.095 -0.0201,0.1109 -0.5544,0.2582 -1.1333,0.4601 -1.69995,0.6901 10e-4,-0.1125 -0.005,-0.2255 0.004,-0.3377 0.0133,-0.1633 0.0414,-0.325 0.063,-0.4874 0.1257,-0.9479 0.29035,-1.8832 0.48324,-2.8196 0.19554,-0.8168 0.36436,-1.6723 0.83117,-2.3853 0.52862,-0.5535 1.7043,-1.6447 2.27678,-1.0096 0.06,0.066 0.10195,0.1472 0.15292,0.2208 0.11204,0.1981 0.20884,0.3486 0.28213,0.5681 0.20609,0.6171 0.29858,1.3405 0.4077,1.9824 0.14242,0.5555 0.0881,1.2207 0.25666,1.7654 0.22291,-0.5987 -0.002,0.028 -1.60316,0.7911 -0.0325,0.016 0.0489,-0.053 0.0671,-0.084 0.0417,-0.071 0.12329,-0.2801 0.15508,-0.3443 0.0434,-0.088 0.0929,-0.1719 0.13929,-0.2578 0.30109,-0.4825 0.55595,-0.9925 0.88772,-1.4553 0.55469,-0.695 1.07359,-0.8467 2.0338,-1.3743 0.0329,-0.018 0.0773,-0.01 0.11261,0.01 0.045,0.016 0.08,0.053 0.11998,0.079 0.37552,0.395 0.50628,0.9539 0.63307,1.4682 0.11019,0.5601 0.16916,1.1313 0.374,1.667 0.0499,0.07 0.0906,0.1479 0.14963,0.2106 0.42981,0.457 1.14073,0.7985 1.72696,0.9843 0.22059,0.07 0.44786,0.1166 0.67178,0.1749 0.94813,0.2366 1.89949,0.2484 2.84254,-0.011 0.20874,-0.057 0.41839,-0.1173 0.6161,-0.2054 0.18416,-0.082 0.34911,-0.2019 0.52366,-0.3029 -0.36314,0.1874 -0.69956,0.4397 -1.08942,0.5622 -0.15033,0.047 0.23391,-0.2118 0.34123,-0.3272 0.31637,-0.3401 0.49725,-0.7183 0.62459,-1.1582 0.0873,-0.3664 0.0858,-0.7428 0.0757,-1.1166 -0.10214,-0.7716 -0.78379,-0.012 1.57619,-0.9706 0.043,-0.018 -0.0252,0.089 -0.0325,0.1353 -0.0105,0.067 -0.0137,0.1342 -0.0206,0.2013 -0.0335,0.608 -0.0474,1.2173 0.0202,1.823 0.0688,0.3897 0.14329,0.7878 0.44874,1.0613 0.2149,0.1415 0.44296,0.1511 0.68034,0.073 0.57124,-0.2882 1.42868,-0.7883 -1.1689,0.6782 -0.0922,0.052 0.17823,-0.1143 0.26582,-0.1737 l 1.72898,-0.6875 c -0.13385,0.1099 -0.10953,0.099 -0.26324,0.1885 -0.5841,0.3415 -1.30743,0.9119 -2.04656,1.1199 -0.28849,0.031 -0.55748,-0.032 -0.78311,-0.2236 -0.31399,-0.3274 -0.41646,-0.7448 -0.48645,-1.185 -0.0743,-0.6127 -0.0594,-1.2282 -0.0514,-1.8445 0.002,-0.082 0.01,-0.3683 0.0155,-0.3721 1.22312,-0.8124 1.61856,-1.5813 1.77377,-0.6732 0.009,0.3928 0.009,0.788 -0.0729,1.1745 -0.40256,1.604 -1.4656,1.9694 -2.92692,2.8345 -0.17968,0.091 -0.35179,0.1981 -0.53903,0.2718 -1.1255,0.4432 -2.35188,0.4076 -3.50958,0.1301 -0.23125,-0.061 -0.46608,-0.1105 -0.69377,-0.184 -0.58238,-0.188 -1.40137,-0.59 -1.83089,-1.0418 -0.0707,-0.074 -0.12171,-0.1655 -0.18257,-0.2482 -0.20417,-0.5463 -0.26301,-1.1251 -0.36806,-1.696 -0.10589,-0.4424 -0.21103,-0.9895 -0.57655,-1.2965 -0.0863,0.011 -0.0417,0 -0.1309,0.047 0.49403,-0.2932 0.98806,-0.5865 1.48209,-0.8797 0.0418,-0.024 -0.0765,0.059 -0.11155,0.092 -0.088,0.083 -0.15927,0.1828 -0.25427,0.2588 -0.3546,0.4458 -0.61035,0.9514 -0.90651,1.4362 -0.11134,0.1906 -0.20333,0.372 -0.27419,0.581 -0.0144,0.043 0.002,0.1065 -0.037,0.1297 -1.67176,1.0056 -1.30097,1.4123 -1.76759,0.8263 -0.14032,-0.5915 -0.0684,-1.2195 -0.20506,-1.8138 -0.13373,-0.8319 -0.23662,-1.7229 -0.68881,-2.4507 -0.0786,-0.095 -0.11239,-0.1812 -0.23733,-0.2043 -0.0338,-0.01 -0.13192,0.028 -0.10274,0.01 0.48475,-0.3029 0.98812,-0.5749 1.4781,-0.8692 0.044,-0.026 -0.0961,0.038 -0.13958,0.065 -0.0513,0.032 -0.0953,0.075 -0.14292,0.1121 -0.5512,0.6573 -0.71744,1.5447 -0.94033,2.3499 -0.2511,1.1608 -0.46667,2.3381 -0.50211,3.5279 -0.54135,0.3318 -1.07175,0.6821 -1.62404,0.9953 -0.0304,0.017 0.0302,-0.063 0.04,-0.097 0.10113,-0.3479 0.0723,-0.7161 0.0723,-1.073 -0.0467,-0.7985 -0.19597,-1.5926 -0.50099,-2.3352 -0.0582,-0.1343 -0.16515,-0.5237 -0.36871,-0.5375 -0.0472,0 -0.13384,0.034 -0.17143,0.048 -0.60207,0.2681 -1.1868,0.5757 -1.81251,0.79 -2.24327,0.8437 -4.50571,1.6345 -6.80628,2.3092 -1.33539,0.4418 -2.6801,0.8688 -3.98801,1.3886 -0.37647,0.1496 -0.72112,0.3958 -1.11818,0.4762 -0.20391,0.041 0.70124,-0.4449 0.51419,-0.3538 -0.27277,0.1328 -0.51554,0.32 -0.77331,0.48 -0.48143,0.3865 -1.0718,0.7863 -1.18588,1.4525 -0.11229,0.6558 0.30534,1.2621 0.58779,1.8057 0.17468,0.2387 0.3409,0.4838 0.52402,0.716 1.25062,1.586 2.77237,2.9468 4.32165,4.2314 0.76005,0.5675 1.53525,1.2021 2.43384,1.5462 0.20737,0.08 0.42495,0.1396 0.64564,0.1642 0.18827,0.021 0.66951,-0.1887 0.56756,-0.029 -0.21235,0.3325 -0.65087,0.446 -0.9763,0.669 0.18214,-0.1272 0.37488,-0.2403 0.54641,-0.3815 0.95281,-0.7839 1.62066,-1.8661 1.91793,-3.062 0.0903,-0.3634 0.12563,-0.7382 0.18844,-1.1073 0.0181,-0.3842 0.0641,-0.7681 0.0543,-1.1526 -0.0495,-1.9411 -0.70786,-3.8142 -1.37124,-5.6146 -0.56277,-1.3919 -1.24763,-2.7639 -1.49268,-4.2575 -0.008,-0.3536 3.7e-4,-0.6227 0.086,-0.9648 0.005,-0.019 0.0997,-0.3596 0.14199,-0.3887 0.54283,-0.3739 1.12093,-0.6937 1.6814,-1.0405 0.0426,0 0.0866,0 0.12787,0.01 0.26478,0.072 0.39171,0.4009 0.50237,0.6157 0.23568,0.5565 0.26802,1.0516 -0.0318,1.5983 -0.068,0.097 -0.12682,0.202 -0.20408,0.2923 -0.55211,0.6452 -1.65641,1.098 -2.21836,1.4107 -0.53748,0.2991 -1.15582,0.4269 -1.74702,0.5654 -0.23669,0.036 -0.47152,0.087 -0.71006,0.1065 -0.85204,0.069 -1.72244,-0.083 -2.44976,-0.5408 -0.10442,-0.083 -0.21692,-0.1575 -0.31326,-0.25 -0.40734,-0.3914 -0.53448,-0.8233 -0.39972,-1.3636 0.20319,-0.6461 0.52175,-0.9588 1.06479,-1.3565 1.04794,-0.6191 1.99535,-1.302 3.17582,-1.5918 l -1.48194,1.1332 z"
         id="path7465-2"
         style="fill:#000000;fill-opacity:1;stroke:#000000;stroke-width:0.25149;stroke-linecap:round;stroke-linejoin:round;stroke-miterlimit:4;stroke-opacity:1;stroke-dasharray:none" />
      <path
         inkscape:connector-curvature="0"
         d="m 888.01823,1016.2554 c -0.22427,0.2631 -0.40349,0.5643 -0.48877,0.9007 -0.0611,0.3364 0.1396,0.4226 0.41544,0.5433 0.44625,0.1634 0.82768,0.1455 1.2847,0.065 0.61115,-0.2095 1.58174,-0.8066 -1.13483,0.692 -0.0381,0.021 0.0724,-0.049 0.10456,-0.078 0.0766,-0.07 0.0844,-0.099 0.1345,-0.1863 0.0923,-0.207 0.0832,-0.4008 -0.0356,-0.5915 -0.1581,-0.1498 -0.39577,-0.1357 -0.59977,-0.1457 -0.21068,0.019 -0.41133,0.072 -0.5826,0.1981 l 1.45485,-1.1716 c 0.20716,-0.078 0.41908,-0.128 0.64289,-0.1102 0.26627,0.026 0.52823,0.064 0.70089,0.2917 0.14063,0.2365 0.19621,0.4811 0.11494,0.7512 -0.2947,0.8892 -1.41409,1.2487 -2.28016,1.4605 -0.46147,0.058 -0.91767,0.033 -1.35153,-0.1528 -0.31186,-0.1609 -0.59147,-0.3623 -0.54423,-0.7527 0.0576,-0.3624 0.23436,-0.687 0.44672,-0.9831 l 1.718,-0.7299 z"
         id="path7467-1"
         style="fill:#000000;fill-opacity:1;stroke:#000000;stroke-width:0.25149;stroke-linecap:round;stroke-linejoin:round;stroke-miterlimit:4;stroke-opacity:1;stroke-dasharray:none" />
      <path
         inkscape:connector-curvature="0"
         d="m 864.17351,1020.7872 c 0.35372,-0.172 0.69126,-0.3752 1.05615,-0.5235 0.22862,-0.1485 0.47943,-0.217 0.74691,-0.2463 0.24604,-0.019 0.49307,-0.016 0.73962,-0.015 0.24471,-0.026 0.452,0.041 0.66696,0.1458 0.15047,0.1206 0.26923,0.2808 0.38352,0.4358 0.0994,0.1805 0.15779,0.383 0.21894,0.5797 0.0548,0.2016 0.12947,0.3942 0.16897,0.6001 0.038,0.2418 0.0406,0.4871 0.0436,0.7313 10e-4,0.1259 8.9e-4,0.2518 8.9e-4,0.3777 l -1.66203,0.8466 c 1.3e-4,-0.1253 3.8e-4,-0.2505 -1.3e-4,-0.3758 -0.002,-0.2343 -0.002,-0.4696 -0.0316,-0.7024 -0.0328,-0.2008 -0.10624,-0.3854 -0.15968,-0.5802 -0.0519,-0.177 -0.10783,-0.3572 -0.18817,-0.5221 -0.0978,-0.1283 -0.193,-0.2748 -0.33359,-0.3578 -0.19746,-0.086 -0.40338,-0.091 -0.61678,-0.082 -0.24133,0 -0.48422,-10e-5 -0.7231,0.039 -0.25263,0.054 -0.48026,0.1622 -0.71025,0.2776 -0.35785,0.1664 -0.70401,0.3572 -1.05088,0.5451 l 1.45069,-1.1736 z"
         id="path7469-4"
         style="fill:#000000;fill-opacity:1;stroke:#000000;stroke-width:0.25149;stroke-linecap:round;stroke-linejoin:round;stroke-miterlimit:4;stroke-opacity:1;stroke-dasharray:none" />
    </g>
    <path
       inkscape:connector-curvature="0"
       style="fill:none;stroke:#000000;stroke-width:5.67282009;stroke-linecap:butt;stroke-linejoin:miter;stroke-miterlimit:4;stroke-opacity:1;stroke-dasharray:none"
       d="m 292.5193,686.26445 0,313.27036"
       id="path7457-0" />
    <path
       inkscape:connector-curvature="0"
       style="fill:none;stroke:#000000;stroke-width:5.67844009;stroke-linecap:butt;stroke-linejoin:miter;stroke-miterlimit:4;stroke-opacity:1;stroke-dasharray:none"
       d="m 588.33092,686.36338 0,303.44199 0,10.44853"
       id="path7455-8"
       sodipodi:nodetypes="ccc" />
    <g
       inkscape:label="Layer 1"
       id="g3880"
       transform="translate(104.78793,-83.251879)">
      <path
         sodipodi:type="arc"
         style="fill:#000000;fill-opacity:1;stroke:#000000;stroke-width:4.86199999;stroke-linecap:round;stroke-linejoin:miter;stroke-miterlimit:4;stroke-opacity:1;stroke-dasharray:none"
         id="path3882"
         sodipodi:cx="385.3732"
         sodipodi:cy="78.41539"
         sodipodi:rx="61.518291"
         sodipodi:ry="5.3033009"
         d="m 446.89149,78.41539 c 0,2.928932 -27.54268,5.303301 -61.51829,5.303301 -33.97561,0 -61.51829,-2.374369 -61.51829,-5.303301 0,-2.928932 27.54268,-5.303301 61.51829,-5.303301 33.97561,0 61.51829,2.374369 61.51829,5.303301 z"
         transform="matrix(0.72039406,0,0,0.72039406,-225.83485,981.09953)" />
      <path
         style="fill:#ffffff;fill-opacity:1;stroke:#000000;stroke-width:2.5;stroke-linecap:round;stroke-linejoin:round;stroke-miterlimit:4;stroke-opacity:1;stroke-dasharray:none"
         d="m 89.850772,977.4512 0,34.4985 c 0,14.4129 -11.60318,26.0161 -26.016113,26.0161 l -25.52646,0 c -14.41293,0 -26.01611,-11.6032 -26.01611,-26.0161 l 0,-34.4985"
         id="path3884"
         sodipodi:nodetypes="cccccz"
         inkscape:connector-curvature="0" />
      <path
         style="fill:none;stroke:#000000;stroke-width:3.5;stroke-linecap:round;stroke-linejoin:miter;stroke-miterlimit:4;stroke-opacity:1;stroke-dasharray:none"
         d="m 17.422369,971.84861 0,13.35842"
         id="path3886"
         inkscape:connector-curvature="0" />
      <path
         style="fill:none;stroke:#000000;stroke-width:3.5;stroke-linecap:round;stroke-linejoin:miter;stroke-miterlimit:4;stroke-opacity:1;stroke-dasharray:none"
         d="m 23.102099,968.44098 0,13.35844"
         id="path3888"
         inkscape:connector-curvature="0" />
      <path
         style="fill:none;stroke:#000000;stroke-width:3.5;stroke-linecap:round;stroke-linejoin:miter;stroke-miterlimit:4;stroke-opacity:1;stroke-dasharray:none"
         d="m 29.963139,967.17718 0,13.35842"
         id="path3890"
         inkscape:connector-curvature="0" />
      <path
         style="fill:none;stroke:#000000;stroke-width:3.5;stroke-linecap:round;stroke-linejoin:miter;stroke-miterlimit:4;stroke-opacity:1;stroke-dasharray:none"
         d="m 36.401249,968.23205 0,13.35843"
         id="path3892"
         inkscape:connector-curvature="0" />
      <path
         style="fill:none;stroke:#000000;stroke-width:3.5;stroke-linecap:round;stroke-linejoin:miter;stroke-miterlimit:4;stroke-opacity:1;stroke-dasharray:none"
         d="m 44.813099,967.39118 0,13.35844"
         id="path3894"
         inkscape:connector-curvature="0" />
      <path
         style="fill:none;stroke:#000000;stroke-width:3.5;stroke-linecap:round;stroke-linejoin:miter;stroke-miterlimit:4;stroke-opacity:1;stroke-dasharray:none"
         d="m 52.845605,968.96639 0,13.35843"
         id="path3896"
         inkscape:connector-curvature="0" />
      <path
         style="fill:none;stroke:#000000;stroke-width:3.5;stroke-linecap:round;stroke-linejoin:miter;stroke-miterlimit:4;stroke-opacity:1;stroke-dasharray:none"
         d="m 60.508969,968.84004 0,13.35844"
         id="path3898"
         inkscape:connector-curvature="0" />
      <path
         style="fill:none;stroke:#000000;stroke-width:3.5;stroke-linecap:round;stroke-linejoin:miter;stroke-miterlimit:4;stroke-opacity:1;stroke-dasharray:none"
         d="m 68.074939,967.60515 0,13.35844"
         id="path3900"
         inkscape:connector-curvature="0" />
      <path
         style="fill:none;stroke:#000000;stroke-width:3.5;stroke-linecap:round;stroke-linejoin:miter;stroke-miterlimit:4;stroke-opacity:1;stroke-dasharray:none"
         d="m 75.217952,969.79293 0,13.35844"
         id="path3902"
         inkscape:connector-curvature="0" />
      <path
         style="fill:none;stroke:#000000;stroke-width:3.5;stroke-linecap:round;stroke-linejoin:miter;stroke-miterlimit:4;stroke-opacity:1;stroke-dasharray:none"
         d="m 82.906702,969.52733 0,13.35843"
         id="path3904"
         inkscape:connector-curvature="0" />
      <path
         style="fill:none;stroke:#000000;stroke-width:0.5;stroke-linecap:round;stroke-linejoin:miter;stroke-miterlimit:4;stroke-opacity:1;stroke-dasharray:none"
         d="m 45.040585,1024.2964 19.081696,-3.0803"
         id="path3906"
         inkscape:connector-curvature="0"
         sodipodi:nodetypes="cc" />
      <path
         style="fill:none;stroke:#000000;stroke-width:1.5;stroke-linecap:butt;stroke-linejoin:miter;stroke-miterlimit:4;stroke-opacity:1;stroke-dasharray:none"
         d="m 12.968693,996.50844 77.140159,0"
         id="path3908"
         inkscape:connector-curvature="0"
         sodipodi:nodetypes="cc" />
      <rect
         style="fill:#000000;fill-opacity:1;stroke:#000000;stroke-width:2;stroke-linecap:round;stroke-miterlimit:4;stroke-opacity:1;stroke-dasharray:none"
         id="rect3910"
         width="18.04336"
         height="9.1039934"
         x="32.934505"
         y="991.95642"
         ry="1.6363796" />
      <rect
         ry="1.6363796"
         y="991.95642"
         x="61.672359"
         height="9.1039934"
         width="18.04336"
         id="rect3912"
         style="fill:#000000;fill-opacity:1;stroke:#000000;stroke-width:2;stroke-linecap:round;stroke-miterlimit:4;stroke-opacity:1;stroke-dasharray:none" />
    </g>
    <g
       inkscape:label="Layer 1"
       id="g3914"
       transform="translate(320.96057,-87.292489)">
      <path
         sodipodi:type="arc"
         style="fill:#000000;fill-opacity:1;stroke:#000000;stroke-width:4.86199999;stroke-linecap:round;stroke-linejoin:miter;stroke-miterlimit:4;stroke-opacity:1;stroke-dasharray:none"
         id="path3916"
         sodipodi:cx="385.3732"
         sodipodi:cy="78.41539"
         sodipodi:rx="61.518291"
         sodipodi:ry="5.3033009"
         d="m 446.89149,78.41539 c 0,2.928932 -27.54268,5.303301 -61.51829,5.303301 -33.97561,0 -61.51829,-2.374369 -61.51829,-5.303301 0,-2.928932 27.54268,-5.303301 61.51829,-5.303301 33.97561,0 61.51829,2.374369 61.51829,5.303301 z"
         transform="matrix(0.72039406,0,0,0.72039406,-225.83485,981.09953)" />
      <path
         style="fill:#ffffff;fill-opacity:1;stroke:#000000;stroke-width:2.5;stroke-linecap:round;stroke-linejoin:round;stroke-miterlimit:4;stroke-opacity:1;stroke-dasharray:none"
         d="m 89.850772,977.4512 0,34.4985 c 0,14.4129 -11.60318,26.0161 -26.016113,26.0161 l -25.52646,0 c -14.41293,0 -26.01611,-11.6032 -26.01611,-26.0161 l 0,-34.4985"
         id="path3918"
         sodipodi:nodetypes="cccccz"
         inkscape:connector-curvature="0" />
      <path
         style="fill:none;stroke:#000000;stroke-width:3.5;stroke-linecap:round;stroke-linejoin:miter;stroke-miterlimit:4;stroke-opacity:1;stroke-dasharray:none"
         d="m 17.422369,971.84861 0,13.35842"
         id="path3920"
         inkscape:connector-curvature="0" />
      <path
         style="fill:none;stroke:#000000;stroke-width:3.5;stroke-linecap:round;stroke-linejoin:miter;stroke-miterlimit:4;stroke-opacity:1;stroke-dasharray:none"
         d="m 23.102099,968.44098 0,13.35844"
         id="path3922"
         inkscape:connector-curvature="0" />
      <path
         style="fill:none;stroke:#000000;stroke-width:3.5;stroke-linecap:round;stroke-linejoin:miter;stroke-miterlimit:4;stroke-opacity:1;stroke-dasharray:none"
         d="m 29.963139,967.17718 0,13.35842"
         id="path3924"
         inkscape:connector-curvature="0" />
      <path
         style="fill:none;stroke:#000000;stroke-width:3.5;stroke-linecap:round;stroke-linejoin:miter;stroke-miterlimit:4;stroke-opacity:1;stroke-dasharray:none"
         d="m 36.401249,968.23205 0,13.35843"
         id="path3926"
         inkscape:connector-curvature="0" />
      <path
         style="fill:none;stroke:#000000;stroke-width:3.5;stroke-linecap:round;stroke-linejoin:miter;stroke-miterlimit:4;stroke-opacity:1;stroke-dasharray:none"
         d="m 44.813099,967.39118 0,13.35844"
         id="path3928"
         inkscape:connector-curvature="0" />
      <path
         style="fill:none;stroke:#000000;stroke-width:3.5;stroke-linecap:round;stroke-linejoin:miter;stroke-miterlimit:4;stroke-opacity:1;stroke-dasharray:none"
         d="m 52.845605,968.96639 0,13.35843"
         id="path3930"
         inkscape:connector-curvature="0" />
      <path
         style="fill:none;stroke:#000000;stroke-width:3.5;stroke-linecap:round;stroke-linejoin:miter;stroke-miterlimit:4;stroke-opacity:1;stroke-dasharray:none"
         d="m 60.508969,968.84004 0,13.35844"
         id="path3932"
         inkscape:connector-curvature="0" />
      <path
         style="fill:none;stroke:#000000;stroke-width:3.5;stroke-linecap:round;stroke-linejoin:miter;stroke-miterlimit:4;stroke-opacity:1;stroke-dasharray:none"
         d="m 68.074939,967.60515 0,13.35844"
         id="path3934"
         inkscape:connector-curvature="0" />
      <path
         style="fill:none;stroke:#000000;stroke-width:3.5;stroke-linecap:round;stroke-linejoin:miter;stroke-miterlimit:4;stroke-opacity:1;stroke-dasharray:none"
         d="m 75.217952,969.79293 0,13.35844"
         id="path3936"
         inkscape:connector-curvature="0" />
      <path
         style="fill:none;stroke:#000000;stroke-width:3.5;stroke-linecap:round;stroke-linejoin:miter;stroke-miterlimit:4;stroke-opacity:1;stroke-dasharray:none"
         d="m 82.906702,969.52733 0,13.35843"
         id="path3938"
         inkscape:connector-curvature="0" />
      <path
         style="fill:none;stroke:#000000;stroke-width:0.5;stroke-linecap:round;stroke-linejoin:miter;stroke-miterlimit:4;stroke-opacity:1;stroke-dasharray:none"
         d="m 45.040585,1024.2964 19.081696,-3.0803"
         id="path3940"
         inkscape:connector-curvature="0"
         sodipodi:nodetypes="cc" />
      <path
         style="fill:none;stroke:#000000;stroke-width:1.5;stroke-linecap:butt;stroke-linejoin:miter;stroke-miterlimit:4;stroke-opacity:1;stroke-dasharray:none"
         d="m 12.968693,996.50844 77.140159,0"
         id="path3942"
         inkscape:connector-curvature="0"
         sodipodi:nodetypes="cc" />
      <rect
         style="fill:#000000;fill-opacity:1;stroke:#000000;stroke-width:2;stroke-linecap:round;stroke-miterlimit:4;stroke-opacity:1;stroke-dasharray:none"
         id="rect3944"
         width="18.04336"
         height="9.1039934"
         x="32.934505"
         y="991.95642"
         ry="1.6363796" />
      <rect
         ry="1.6363796"
         y="991.95642"
         x="61.672359"
         height="9.1039934"
         width="18.04336"
         id="rect3946"
         style="fill:#000000;fill-opacity:1;stroke:#000000;stroke-width:2;stroke-linecap:round;stroke-miterlimit:4;stroke-opacity:1;stroke-dasharray:none" />
    </g>
    <g
       transform="translate(614.4099,-87.292489)"
       id="layer1-4"
       inkscape:label="Layer 1">
      <path
         transform="matrix(0.72039406,0,0,0.72039406,-225.83485,981.09953)"
         d="m 446.89149,78.41539 c 0,2.928932 -27.54268,5.303301 -61.51829,5.303301 -33.97561,0 -61.51829,-2.374369 -61.51829,-5.303301 0,-2.928932 27.54268,-5.303301 61.51829,-5.303301 33.97561,0 61.51829,2.374369 61.51829,5.303301 z"
         sodipodi:ry="5.3033009"
         sodipodi:rx="61.518291"
         sodipodi:cy="78.41539"
         sodipodi:cx="385.3732"
         id="shadow"
         style="fill:#000000;fill-opacity:1;stroke:#000000;stroke-width:4.86199999;stroke-linecap:round;stroke-linejoin:miter;stroke-miterlimit:4;stroke-opacity:1;stroke-dasharray:none"
         sodipodi:type="arc" />
      <path
         inkscape:connector-curvature="0"
         sodipodi:nodetypes="cccccz"
         id="body"
         d="m 89.850772,977.4512 0,34.4985 c 0,14.4129 -11.60318,26.0161 -26.016113,26.0161 l -25.52646,0 c -14.41293,0 -26.01611,-11.6032 -26.01611,-26.0161 l 0,-34.4985"
         style="fill:#ffffff;fill-opacity:1;stroke:#000000;stroke-width:2.5;stroke-linecap:round;stroke-linejoin:round;stroke-miterlimit:4;stroke-opacity:1;stroke-dasharray:none" />
      <path
         inkscape:connector-curvature="0"
         id="hair1"
         d="m 17.422369,971.84861 0,13.35842"
         style="fill:none;stroke:#000000;stroke-width:3.5;stroke-linecap:round;stroke-linejoin:miter;stroke-miterlimit:4;stroke-opacity:1;stroke-dasharray:none" />
      <path
         inkscape:connector-curvature="0"
         id="hair2"
         d="m 23.102099,968.44098 0,13.35844"
         style="fill:none;stroke:#000000;stroke-width:3.5;stroke-linecap:round;stroke-linejoin:miter;stroke-miterlimit:4;stroke-opacity:1;stroke-dasharray:none" />
      <path
         inkscape:connector-curvature="0"
         id="hair3"
         d="m 29.963139,967.17718 0,13.35842"
         style="fill:none;stroke:#000000;stroke-width:3.5;stroke-linecap:round;stroke-linejoin:miter;stroke-miterlimit:4;stroke-opacity:1;stroke-dasharray:none" />
      <path
         inkscape:connector-curvature="0"
         id="hair4"
         d="m 36.401249,968.23205 0,13.35843"
         style="fill:none;stroke:#000000;stroke-width:3.5;stroke-linecap:round;stroke-linejoin:miter;stroke-miterlimit:4;stroke-opacity:1;stroke-dasharray:none" />
      <path
         inkscape:connector-curvature="0"
         id="hair5"
         d="m 44.813099,967.39118 0,13.35844"
         style="fill:none;stroke:#000000;stroke-width:3.5;stroke-linecap:round;stroke-linejoin:miter;stroke-miterlimit:4;stroke-opacity:1;stroke-dasharray:none" />
      <path
         inkscape:connector-curvature="0"
         id="hair6"
         d="m 52.845605,968.96639 0,13.35843"
         style="fill:none;stroke:#000000;stroke-width:3.5;stroke-linecap:round;stroke-linejoin:miter;stroke-miterlimit:4;stroke-opacity:1;stroke-dasharray:none" />
      <path
         inkscape:connector-curvature="0"
         id="hair7"
         d="m 60.508969,968.84004 0,13.35844"
         style="fill:none;stroke:#000000;stroke-width:3.5;stroke-linecap:round;stroke-linejoin:miter;stroke-miterlimit:4;stroke-opacity:1;stroke-dasharray:none" />
      <path
         inkscape:connector-curvature="0"
         id="hair8"
         d="m 68.074939,967.60515 0,13.35844"
         style="fill:none;stroke:#000000;stroke-width:3.5;stroke-linecap:round;stroke-linejoin:miter;stroke-miterlimit:4;stroke-opacity:1;stroke-dasharray:none" />
      <path
         inkscape:connector-curvature="0"
         id="hair9"
         d="m 75.217952,969.79293 0,13.35844"
         style="fill:none;stroke:#000000;stroke-width:3.5;stroke-linecap:round;stroke-linejoin:miter;stroke-miterlimit:4;stroke-opacity:1;stroke-dasharray:none" />
      <path
         inkscape:connector-curvature="0"
         id="hair10"
         d="m 82.906702,969.52733 0,13.35843"
         style="fill:none;stroke:#000000;stroke-width:3.5;stroke-linecap:round;stroke-linejoin:miter;stroke-miterlimit:4;stroke-opacity:1;stroke-dasharray:none" />
      <path
         sodipodi:nodetypes="cc"
         inkscape:connector-curvature="0"
         id="mouth"
         d="m 45.040585,1024.2964 19.081696,-3.0803"
         style="fill:none;stroke:#000000;stroke-width:0.5;stroke-linecap:round;stroke-linejoin:miter;stroke-miterlimit:4;stroke-opacity:1;stroke-dasharray:none" />
      <path
         sodipodi:nodetypes="cc"
         inkscape:connector-curvature="0"
         id="glasses-bar"
         d="m 12.968693,996.50844 77.140159,0"
         style="fill:none;stroke:#000000;stroke-width:1.5;stroke-linecap:butt;stroke-linejoin:miter;stroke-miterlimit:4;stroke-opacity:1;stroke-dasharray:none" />
      <rect
         ry="1.6363796"
         y="991.95642"
         x="32.934505"
         height="9.1039934"
         width="18.04336"
         id="left-glass"
         style="fill:#000000;fill-opacity:1;stroke:#000000;stroke-width:2;stroke-linecap:round;stroke-miterlimit:4;stroke-opacity:1;stroke-dasharray:none" />
      <rect
         style="fill:#000000;fill-opacity:1;stroke:#000000;stroke-width:2;stroke-linecap:round;stroke-miterlimit:4;stroke-opacity:1;stroke-dasharray:none"
         id="right-glass"
         width="18.04336"
         height="9.1039934"
         x="61.672359"
         y="991.95642"
         ry="1.6363796" />
    </g>
    <g
       inkscape:label="Calque 1"
       id="g3948"
       transform="matrix(-0.58792423,0,0,0.58792423,566.51105,879.81238)">
      <g
         transform="matrix(1.428466,0,0,1.428466,-29.857766,-1242.9942)"
         id="g3950">
        <path
           sodipodi:open="true"
           sodipodi:end="6.1711503"
           sodipodi:start="0"
           transform="matrix(-1.18208,0,0,1.0586424,18.697967,559.36705)"
           d="m -22.223354,373.73349 c 0,2.37104 -17.072842,4.29315 -38.133259,4.29315 -21.060417,0 -38.133259,-1.92211 -38.133259,-4.29315 0,-2.37104 17.072842,-4.29315 38.133259,-4.29315 19.410704,0 35.724056,1.64156 37.894188,3.81317"
           sodipodi:ry="4.2931485"
           sodipodi:rx="38.133259"
           sodipodi:cy="373.73349"
           sodipodi:cx="-60.356613"
           id="path3952"
           style="opacity:0.98999999;fill:#000000;fill-opacity:1;stroke:#000000;stroke-width:2;stroke-linecap:round;stroke-linejoin:miter;stroke-miterlimit:4;stroke-opacity:1;stroke-dasharray:none;stroke-dashoffset:0"
           sodipodi:type="arc" />
        <path
           inkscape:connector-curvature="0"
           sodipodi:nodetypes="csssc"
           id="path3954"
           d="m 53.728125,905.30938 c 3.366814,22.39325 13.290225,39.56852 32.911982,48.22517 19.318433,8.52282 38.554213,-21.86586 38.195313,-46.06348 -0.39493,-26.62618 -22.74807,-33.08409 -44.183783,-33.08409 -21.435716,0 -26.923512,4.29348 -26.923512,30.9224 z"
           style="opacity:0.98999999;fill:#ffffff;fill-opacity:1;stroke:#000000;stroke-width:3.88960576;stroke-linecap:round;stroke-linejoin:miter;stroke-miterlimit:4;stroke-opacity:1;stroke-dashoffset:0" />
        <path
           inkscape:connector-curvature="0"
           d="m 60.107113,880.4021 c -0.553497,0.97614 -0.871454,2.06121 -1.074891,3.21749 -0.171754,1.25888 -0.201291,2.53791 -0.22329,3.81166 -0.0092,0.85 -0.01059,1.70022 -0.0063,2.55029 0.01322,0.94388 0.336237,1.8035 0.646434,2.64517 0.279984,0.76641 0.671383,1.45685 1.044215,2.15599 0.499483,0.83374 1.005852,1.66146 1.515356,2.48602 0.515239,0.78287 0.932298,1.65139 1.403395,2.47343 0.299235,0.47775 0.42376,1.02153 0.480659,1.61068 0.115777,1.09009 -0.214153,2.05073 -0.619096,2.98921 -0.718171,1.53441 -1.815806,2.66314 -2.930652,3.73115 -0.682364,0.68286 -1.453376,1.21723 -2.111339,1.93727 -0.490695,0.56767 -0.903449,1.23173 -1.313977,1.88811 -0.63135,0.94861 -1.169438,1.9816 -1.652105,3.0543 -0.437761,0.97508 -0.800861,1.97842 -0.93853,3.08564 -0.0021,1.64443 0.971538,2.74303 1.943237,3.67571 1.404453,1.23901 2.944007,2.21747 4.441479,3.26658 0.219592,0.15384 0.462182,0.35476 0.720428,0.30926 0.04839,-0.16463 0.142517,-0.31865 0.1452,-0.49387 0.0025,-0.16139 -0.3448,-0.77839 -0.377022,-0.83708 -0.326493,-0.59462 -0.695001,-1.14158 -1.065303,-1.6941 -0.724739,-1.02126 -1.443387,-2.04331 -2.039601,-3.18811 -0.403359,-0.75797 -0.560959,-1.60189 -0.628542,-2.49112 -0.0014,-1.11447 0.324352,-2.13008 0.692746,-3.12455 0.414944,-0.92449 1.032286,-1.66515 1.625359,-2.41153 0.759602,-0.98248 1.424131,-2.06706 2.079256,-3.15685 0.557529,-0.9596 1.089702,-1.94133 1.642844,-2.9046 0.456637,-0.70207 0.91194,-1.39509 1.316756,-2.14588 0.750935,-1.27542 1.192995,-2.75097 1.672876,-4.19812 0.435024,-1.30651 0.798429,-2.64443 1.14722,-3.98914 0.242518,-0.93211 0.398534,-1.89598 0.554933,-2.85513 0.164224,-0.7793 0.318939,-1.52396 0.181396,-2.32355 -0.13374,-0.47277 -0.355002,-0.94186 -0.713317,-1.20753 -2.995452,-2.22086 -2.136078,-1.74776 -3.617131,-2.52476 -1.131373,-0.45554 -2.308539,-0.67759 -3.484479,-0.86559 -0.657809,-0.0424 -1.850038,-0.38935 -2.408108,0.24973 -0.06717,0.0769 -0.104013,0.18663 -0.156026,0.27994 -0.0174,0.13573 -0.05274,0.26976 -0.05217,0.4072 0.004,0.95183 0.689832,2.02018 1.104566,2.75801 0.751317,1.22974 1.516957,2.44778 2.116279,3.80357 0.427247,1.10683 0.483907,2.35117 0.06808,3.4834 -0.09748,0.26541 -0.231355,0.50776 -0.347033,0.76163 -0.993147,1.80938 -2.459612,3.01458 -3.94572,4.12088 -0.840457,0.61872 -1.769292,1.00429 -2.654691,1.50326 -0.750613,0.41489 -1.447893,0.93166 -2.091288,1.56354 -0.598317,0.60936 -1.102433,1.34189 -1.612513,2.06034 -0.499441,0.71217 -0.904951,1.50832 -1.221736,2.36519 -0.306082,0.72999 -0.425975,1.53025 -0.492999,2.34004 -0.06028,0.68178 -0.06741,1.3584 0.115208,2.01086 0.133127,0.40754 0.360531,0.7518 0.613081,1.05469 0.234321,0.29391 0.465127,0.59451 0.713314,0.87085 1.195724,0.88753 2.615299,2.58868 4.189546,2.25821 0.600386,-0.19999 0.957308,-0.74064 1.24167,-1.39209 0.275577,-0.86483 0.588484,-1.70499 0.961118,-2.51251 0.496257,-1.0562 1.144063,-1.98427 1.708513,-2.98347 0.612701,-1.1435 1.037598,-2.39612 1.318871,-3.71904 0.218202,-1.02731 0.20669,-2.0924 0.302127,-3.13916 0.102279,-0.91542 0.62458,-1.66397 1.026812,-2.41208 0.713678,-1.21339 1.339713,-2.50096 1.998275,-3.76036 0.345887,-0.76817 0.718423,-1.51541 1.114386,-2.24495 0.243716,-0.48313 0.435553,-0.99266 0.596509,-1.52495 0.160476,-0.59688 0.29263,-1.20263 0.519793,-1.76728 0.239825,-0.56927 0.486194,-1.13325 0.719659,-1.70666 0.01585,-0.0293 0.110328,-0.24241 0.175574,-0.25629 0.01942,-0.004 0.05612,0.0671 0.03885,0.0554 -0.998495,-0.681 -1.939935,-1.50397 -2.985636,-2.06513 -0.104933,-0.0564 -0.1006,0.25519 -0.157117,0.37861 -0.124955,0.27287 -0.258052,0.53986 -0.387078,0.80981 -1.508367,2.77675 -3.032229,5.56642 -4.863662,8.03672 -0.46182,0.62291 -0.955497,1.20821 -1.433246,1.81231 -0.49709,0.56514 -0.986525,1.14086 -1.49127,1.69544 -1.176732,1.29292 -1.669603,1.79315 -2.922921,2.9201 -1.110522,0.99856 -2.270806,1.90942 -3.414665,2.8469 -0.908448,0.68584 -1.812589,1.37747 -2.480614,2.41885 -0.318172,0.5213 -0.605146,1.10467 -1.037552,1.4928 -0.231754,0.11623 -0.462355,0.23123 -0.696793,0.34196 0,0 2.869006,2.38703 2.869006,2.38703 l 0,0 c 0.255505,-0.13331 0.523146,-0.24362 0.747954,-0.4508 0.420807,-0.45332 0.738015,-1.02829 1.062248,-1.58655 0.63287,-0.99214 1.494131,-1.67843 2.324895,-2.39142 1.109114,-0.98009 2.241425,-1.92362 3.330111,-2.9388 1.228371,-1.14546 1.747617,-1.68253 2.908576,-2.9731 0.505694,-0.56216 0.997402,-1.14343 1.496104,-1.71514 0.482786,-0.60969 0.979799,-1.20252 1.448359,-1.82911 1.855266,-2.48098 3.424232,-5.25834 5.056969,-7.96153 0.147426,-0.26272 0.297289,-0.52336 0.442281,-0.78816 0.08827,-0.16121 0.376641,-0.36287 0.25745,-0.48976 -1.719745,-1.83061 -2.451979,-3.53683 -3.286054,-1.86823 -0.224924,0.57845 -0.464798,1.14333 -0.710484,1.70847 -0.237258,0.57494 -0.385566,1.18762 -0.540421,1.80246 -0.158502,0.49874 -0.330185,0.9863 -0.557562,1.44444 -0.390232,0.73736 -0.734261,1.50838 -1.079063,2.27952 -0.642575,1.26674 -1.259157,2.55794 -1.990583,3.75058 -0.446404,0.78943 -1.025798,1.5883 -1.140776,2.57023 -0.09379,1.0336 -0.04517,2.08853 -0.24991,3.1075 -0.254538,1.28201 -0.661822,2.48632 -1.26431,3.58138 -0.571302,1.00778 -1.216986,1.95213 -1.725443,3.01285 -0.383252,0.80411 -0.716973,1.63786 -0.992526,2.50695 -0.233512,0.54505 -0.539092,0.97106 -1.063906,1.02767 -1.40832,-0.0339 -3.195254,-1.76668 1.835218,1.79285 -0.308351,-0.17395 -0.482758,-0.52061 -0.744993,-0.77236 -0.20933,-0.32083 -0.4836,-0.56453 -0.668515,-0.91489 -0.236775,-0.65327 -0.272511,-1.11511 -0.206311,-1.84114 0.05525,-0.76673 0.151146,-1.5258 0.441359,-2.21772 0.288653,-0.82723 0.680041,-1.58441 1.162571,-2.25945 0.494735,-0.69961 0.991326,-1.40579 1.573329,-1.99679 0.631761,-0.60132 1.324302,-1.07593 2.053551,-1.47241 0.890018,-0.48996 1.795207,-0.94716 2.622591,-1.594 1.510594,-1.1764 2.998971,-2.45593 4.040413,-4.29241 0.129242,-0.2732 0.277107,-0.53406 0.387728,-0.8196 0.465548,-1.20167 0.476161,-2.56546 0.06728,-3.78702 -0.559298,-1.39741 -1.337511,-2.62639 -2.103623,-3.85735 -0.471356,-0.82481 -1.008782,-1.65562 -1.180462,-2.66855 0.336704,-0.63042 1.80787,-0.2178 2.287841,-0.19544 1.172963,0.20756 2.357842,0.44669 3.462356,1.00046 1.240358,0.75558 0.658986,0.41539 -2.249732,-1.68731 -0.09346,-0.0676 0.18454,0.14044 0.27308,0.21757 0.224614,0.19566 0.405404,0.41602 0.521078,0.73018 0.237739,0.75742 0.05585,1.388 -0.09881,2.14843 -0.140249,0.94914 -0.296544,1.89885 -0.515268,2.82494 -0.339607,1.33796 -0.678071,2.67643 -1.107489,3.97576 -0.476485,1.41718 -0.897598,2.87359 -1.668904,4.09887 -0.41945,0.73533 -0.885066,1.41997 -1.325467,2.13515 -0.539049,0.96909 -1.048317,1.96354 -1.606991,2.91613 -0.648095,1.07474 -1.314593,2.13399 -2.075075,3.09146 -0.623939,0.77837 -1.258212,1.5679 -1.685734,2.54044 -0.387699,1.05796 -0.726002,2.13108 -0.786448,3.30562 0.04486,0.94737 0.165339,1.86481 0.575997,2.68796 0.580262,1.17824 1.286475,2.23171 2.03739,3.24843 0.362183,0.5384 0.736155,1.05882 1.05825,1.63629 0.06502,0.11657 0.342037,0.67311 0.381281,0.67585 0.08746,0.005 0.131775,-0.14336 0.197662,-0.21505 -0.150064,-0.13364 -0.976139,-0.66603 -0.59291,-0.38146 0.81245,0.60333 1.63336,1.18891 2.45015,1.78312 0.176274,0.12824 -0.355419,-0.25061 -0.528598,-0.38519 -0.197903,-0.1538 -0.389499,-0.31977 -0.58425,-0.47966 -0.937342,-0.80142 -1.901345,-1.73452 -2.042077,-3.23682 0.08721,-1.06679 0.456577,-2.01997 0.864129,-2.95488 0.464035,-1.06046 1.003439,-2.06664 1.633813,-2.98725 0.406078,-0.63067 0.818439,-1.26246 1.29947,-1.80829 0.647649,-0.7058 1.377758,-1.28241 2.042055,-1.96321 1.13375,-1.12415 2.270053,-2.29218 3.020976,-3.86267 0.44131,-0.9887 0.827891,-2.01647 0.758074,-3.17824 -0.02802,-0.64618 -0.111467,-1.27481 -0.412278,-1.82195 -0.475444,-0.83186 -0.922243,-1.6868 -1.421968,-2.49747 -0.494692,-0.8217 -0.988158,-1.64575 -1.504308,-2.44647 -0.359045,-0.70096 -0.766611,-1.3651 -1.072702,-2.10548 -0.298576,-0.79237 -0.641416,-1.58568 -0.699273,-2.47399 -0.0017,-0.85169 -0.0145,-1.7033 -0.01397,-2.55502 0.0041,-1.2509 0.01816,-2.50786 0.18036,-3.74551 0.183713,-1.1034 0.475113,-2.14138 1.04446,-3.03847 0,0 -2.966733,-2.17513 -2.966733,-2.17513 z"
           id="path3956"
           style="opacity:0.98999999;fill:#000000;fill-opacity:1;stroke:#000000;stroke-width:2.04921937;stroke-linecap:round;stroke-linejoin:miter;stroke-miterlimit:4;stroke-opacity:1;stroke-dasharray:none;stroke-dashoffset:0" />
        <path
           inkscape:connector-curvature="0"
           sodipodi:nodetypes="cscccsccccsccscsscsccccccssccsccscsssscssscccscscccssssssscccsscccccccccsscscsscscscccscscccccscscsscsccccsssccscccsccscsscsssscscsccssscccccc"
           d="m 52.628657,886.16711 c 0.01038,0.94871 0.263969,1.81271 0.507492,2.65868 0.219807,0.7703 0.527082,1.46425 0.819778,2.16696 0.392128,0.83799 0.789661,1.66993 1.189655,2.49871 0.404497,0.78685 0.731915,1.6598 1.101758,2.48605 0.23492,0.48016 0.332678,1.02672 0.377349,1.61888 0.0909,1.09565 -0.168126,2.06118 -0.486031,3.00446 -0.563812,1.54223 -1.425529,2.67671 -2.300755,3.75017 -0.535701,0.68634 -1.140996,1.22342 -1.65754,1.94713 -0.385228,0.57058 -0.709268,1.23802 -1.031559,1.89775 -0.495651,0.95344 -0.918086,1.99172 -1.29701,3.06987 -0.343671,0.98006 -0.628729,1.98851 -0.736809,3.10137 -0.0017,1.65283 0.762721,2.75704 1.525569,3.69446 1.102589,1.24533 2.31124,2.22877 3.486854,3.28322 0.172394,0.15465 0.362842,0.35658 0.565583,0.31084 0.038,-0.16546 0.111885,-0.32025 0.113992,-0.49638 0.0019,-0.1622 -0.270692,-0.78236 -0.295988,-0.84135 -0.256319,-0.59766 -0.545621,-1.1474 -0.836334,-1.70275 -0.568968,-1.02646 -1.133151,-2.05372 -1.60122,-3.20433 -0.316662,-0.76186 -0.440389,-1.61008 -0.493445,-2.50383 -0.0011,-1.12017 0.254636,-2.14096 0.54385,-3.14049 0.325758,-0.92922 0.810412,-1.67366 1.276013,-2.42382 0.596338,-0.9875 1.118037,-2.07761 1.632354,-3.17296 0.437697,-0.96449 0.855486,-1.95124 1.28974,-2.91942 0.358491,-0.70563 0.715933,-1.4022 1.03374,-2.1568 0.589534,-1.28192 0.93658,-2.76499 1.313317,-4.21952 0.341523,-1.31318 0.626819,-2.65794 0.900644,-4.00949 0.190392,-0.93686 0.312875,-1.90565 0.435659,-2.86968 0.128927,-0.78329 0.250388,-1.53174 0.142407,-2.33541 -0.104998,-0.47517 -0.278698,-0.94666 -0.56,-1.21369 -2.351627,-2.23217 -1.676962,-1.75666 -2.839686,-2.53761 -7.366339,-3.29521 -3.825438,2.6722 -2.260942,6.66667 0.335416,1.11248 0.379897,2.36316 0.05345,3.50116 -0.07653,0.26676 -0.181629,0.51035 -0.272445,0.76551 -0.779686,1.81861 -1.930956,3.02994 -3.097649,4.14189 -0.659814,0.62187 -1.389012,1.00943 -2.084107,1.51094 -0.58928,0.41699 -1.136691,0.9364 -1.641799,1.5715 -0.469719,0.61247 -0.865483,1.34873 -1.265929,2.07084 -0.392095,0.7158 -0.710446,1.51601 -0.959143,2.37727 -0.240294,0.73368 -0.334418,1.53804 -0.387037,2.35196 -0.04733,0.68526 -0.05292,1.36531 0.09045,2.0211 0.104516,0.40963 0.283041,0.75563 0.481308,1.06006 0.183959,0.29543 0.365156,0.59756 0.56,0.87529 0.938721,0.89205 2.053181,2.60189 3.289069,2.26974 0.471343,-0.20102 0.751548,-0.74442 0.974791,-1.39918 0.216347,-0.86926 0.462001,-1.71367 0.754541,-2.52533 0.389596,-1.06159 0.898165,-1.99439 1.341295,-2.99869 0.481013,-1.14933 0.814585,-2.40834 1.035402,-3.73801 0.171302,-1.03254 0.162265,-2.10305 0.237189,-3.15516 0.08029,-0.92008 0.490337,-1.67244 0.806116,-2.42436 0.560283,-1.21959 1.051762,-2.51371 1.568777,-3.77954 0.271543,-0.7721 0.564009,-1.52315 0.874867,-2.2564 0.191332,-0.4856 0.341937,-0.99772 0.468297,-1.53273 0.125985,-0.59991 0.229735,-1.20877 0.408072,-1.7763 0.188279,-0.57214 0.381694,-1.13902 0.564981,-1.71534 0.01244,-0.0294 0.08662,-0.24367 0.137836,-0.2576 0.01525,-0.004 0.04406,0.0674 0.0305,0.0557 -0.783884,-0.68448 -1.522976,-1.51163 -2.34392,-2.07567 -0.08238,-0.0566 -0.07897,0.25651 -0.123348,0.38054 -1.161146,3.05662 -2.552158,6.02499 -4.122175,8.89165 -0.362559,0.62608 -0.750129,1.21438 -1.125192,1.82156 -0.390249,0.56801 -0.774488,1.14666 -1.170745,1.70407 -0.923812,1.29952 -1.310748,1.8023 -2.294687,2.93499 -0.871832,1.00365 -1.782732,1.91915 -2.680736,2.86141 -0.713191,0.68937 -1.423001,1.3845 -1.947443,2.43118 0.831057,1.87502 -0.475082,1.11031 -0.814547,1.50043 -0.181943,0.1168 1.528498,2.6643 -0.54703,0.34369 0,0 2.252359,2.39922 2.252359,2.39922 l 0,0 c 0.200589,-0.13399 0.410704,-0.24487 0.587192,-0.45312 0.330362,-0.45562 0.579391,-1.03353 0.833935,-1.59464 0.496846,-0.99718 1.172992,-1.68697 1.825197,-2.40361 0.870727,-0.98509 1.759665,-1.93343 2.614355,-2.95379 0.964351,-1.15129 1.371995,-1.69109 2.283424,-2.98825 0.397002,-0.56503 0.783026,-1.14925 1.17454,-1.72387 0.379019,-0.61282 0.769206,-1.20866 1.137056,-1.83845 1.456506,-2.49363 2.688248,-5.28515 3.970054,-8.00212 0.11574,-0.26405 0.23339,-0.52603 0.34722,-0.79217 0.0693,-0.16204 0.295688,-0.36474 0.202115,-0.49226 -1.350113,-1.83995 -1.924966,-3.55487 -2.57977,-1.87775 -0.17658,0.58137 -0.364896,1.14915 -0.557774,1.71717 -0.186265,0.57786 -0.302697,1.19367 -0.424268,1.81166 -0.124435,0.50127 -0.259216,0.99131 -0.437723,1.45179 -0.306357,0.74112 -0.576443,1.51607 -0.847134,2.29114 -0.504465,1.2732 -0.988521,2.57098 -1.562739,3.7697 -0.350457,0.79347 -0.805319,1.59641 -0.895584,2.58333 -0.07364,1.03888 -0.03547,2.09919 -0.196196,3.12336 -0.199829,1.28854 -0.519575,2.499 -0.992567,3.59964 -0.44851,1.01291 -0.955414,1.96209 -1.354587,3.0282 -0.300877,0.80822 -0.56287,1.64621 -0.779197,2.51973 -0.183321,0.54784 -0.423224,0.97602 -0.835236,1.03292 -1.105624,-0.0341 -2.508485,-1.77568 1.440766,1.80199 -0.242075,-0.17484 -0.378995,-0.52327 -0.584867,-0.77631 -0.164339,-0.32246 -0.379658,-0.56739 -0.524831,-0.91954 -0.185882,-0.6566 -0.213936,-1.12079 -0.161967,-1.85052 0.04339,-0.77065 0.118661,-1.53359 0.346496,-2.22903 0.226612,-0.83146 0.533878,-1.5925 0.912696,-2.27097 0.388399,-0.70319 0.778256,-1.41297 1.235166,-2.00698 0.495975,-0.60438 1.039665,-1.0814 1.612173,-1.47992 0.698723,-0.49245 1.409356,-0.95198 2.058906,-1.60213 1.185917,-1.18239 2.35439,-2.46843 3.171989,-4.31429 0.101467,-0.27459 0.217549,-0.53679 0.304393,-0.82378 0.365486,-1.20779 0.373818,-2.57853 0.05282,-3.80632 -0.439086,-1.40453 -1.050034,-2.63979 -1.651483,-3.87701 -0.775804,-1.74861 -1.607678,-3.20561 0.869366,-2.87862 0.920853,0.20865 1.851061,0.44898 2.718177,1.00557 0.973763,0.75944 0.517348,0.41751 -1.766189,-1.69591 -0.07337,-0.0679 0.144877,0.14117 0.214387,0.21867 0.176337,0.19666 0.318269,0.41814 0.409081,0.73393 0.186639,0.76127 0.04385,1.39507 -0.07757,2.15938 -0.110103,0.95397 -0.232805,1.90851 -0.404518,2.83933 -0.266615,1.3448 -0.532331,2.69007 -0.869453,3.99604 -0.374071,1.42439 -0.704673,2.88824 -1.310198,4.11977 -0.329298,0.73907 -0.694835,1.42723 -1.040579,2.14602 -0.42319,0.97404 -0.822998,1.97357 -1.261595,2.93101 -0.508796,1.08022 -1.03204,2.14486 -1.62907,3.10722 -0.489834,0.78233 -0.98778,1.57588 -1.323412,2.55338 -0.304369,1.06337 -0.569959,2.14195 -0.617412,3.32248 0.03521,0.95221 0.1298,1.87433 0.452194,2.70168 0.455545,1.18424 1.009969,2.24309 1.599486,3.26498 0.284338,0.54114 0.577929,1.06422 0.830796,1.64465 0.05105,0.11716 0.268521,0.67653 0.299331,0.67929 0.06866,0.005 0.103445,-0.1441 0.155177,-0.21615 -0.11781,-0.13433 -0.766333,-0.66943 -0.465473,-0.38341 0.637826,0.60641 1.282294,1.19498 1.923529,1.79222 0.138386,0.12888 -0.279029,-0.25188 -0.414985,-0.38715 -0.155367,-0.15459 -0.305782,-0.32141 -0.458674,-0.48211 -0.735874,-0.80552 -1.492682,-1.74335 -1.603165,-3.25332 0.06847,-1.07224 0.358443,-2.03026 0.678396,-2.96996 0.364299,-1.06586 0.787768,-2.07716 1.282652,-3.00247 0.318799,-0.6339 0.642529,-1.26892 1.02017,-1.81752 0.508447,-0.70939 1.081631,-1.28895 1.603148,-1.97321 0.890066,-1.12988 1.782141,-2.30388 2.371665,-3.88238 0.346457,-0.99373 0.649947,-2.02675 0.595137,-3.19443 -0.022,-0.64948 -0.08751,-1.28131 -0.323666,-1.83125 -0.373254,-0.83609 -0.724021,-1.6954 -1.116338,-2.51019 -0.388365,-0.82589 -0.775769,-1.65414 -1.180981,-2.45896 -0.281873,-0.70454 -0.601838,-1.37205 -0.842141,-2.11622 -0.234403,-0.7964 -0.503553,-1.59376 -0.548974,-2.4866 -0.0014,-0.85604 -0.01138,-1.71198 -0.01097,-2.56803 -0.08435,-2.34788 0.118509,-4.62543 0.961566,-6.81857 4.069166,1.08569 -1.625951,6.06319 -3.353268,7.44191 z"
           id="path3958"
           style="opacity:0.98999999;fill:#000000;fill-opacity:1;stroke:#000000;stroke-width:1.82031202;stroke-linecap:round;stroke-linejoin:miter;stroke-miterlimit:4;stroke-opacity:1;stroke-dasharray:none;stroke-dashoffset:0" />
        <g
           transform="matrix(-0.98013799,-0.10123726,-0.06110824,1.1898449,89.121222,-197.22169)"
           id="g3960">
          <path
             sodipodi:type="arc"
             style="opacity:0.98999999;fill:#000000;fill-opacity:1;stroke:#ffffff;stroke-width:2;stroke-linecap:round;stroke-linejoin:miter;stroke-miterlimit:4;stroke-opacity:1;stroke-dasharray:none;stroke-dashoffset:0"
             id="path3962"
             sodipodi:cx="-51.875"
             sodipodi:cy="305.35715"
             sodipodi:rx="63.839287"
             sodipodi:ry="6.25"
             d="m 11.964287,305.35715 c 0,3.45178 -28.581822,6.25 -63.839287,6.25 -35.257465,0 -63.83929,-2.79822 -63.83929,-6.25 0,-3.45178 28.581825,-6.25 63.83929,-6.25 32.495662,0 59.806015,2.38979 63.439055,5.55124"
             transform="translate(-6.25,603.43361)"
             sodipodi:start="0"
             sodipodi:end="6.1711503"
             sodipodi:open="true" />
          <path
             inkscape:connector-curvature="0"
             style="opacity:0.98999999;fill:#000000;fill-opacity:1;stroke:#000000;stroke-width:3.9000001;stroke-linecap:round;stroke-linejoin:miter;stroke-miterlimit:4;stroke-opacity:1;stroke-dashoffset:0"
             d="m -94.10714,906.64788 11.001949,-21.92427 c -0.180783,1.2085 50.317479,-5.78134 51.589483,-2.90002 l 10.801429,24.46715"
             id="path3964"
             sodipodi:nodetypes="czzc" />
          <path
             inkscape:connector-curvature="0"
             transform="matrix(0.99954753,-0.03007879,0.03007879,0.99954753,0,0)"
             style="opacity:0.98999999;fill:#ffffff;fill-opacity:1;stroke:#ffffff;stroke-width:3.9000001;stroke-linecap:round;stroke-linejoin:miter;stroke-miterlimit:4;stroke-opacity:1;stroke-dashoffset:0"
             d="m -116.36704,898.2356 c 34.295656,2.56258 54.005344,2.67616 63.907213,1.29301 l 0.98339,2.32013 c -17.73236,1.02104 -41.898343,-0.61589 -65.393293,-1.81639 l 0.50269,-1.79675 z"
             id="path3966"
             sodipodi:nodetypes="ccccc" />
        </g>
        <path
           inkscape:connector-curvature="0"
           sodipodi:nodetypes="cc"
           id="path3968"
           d="m 96.799591,938.80449 c -5.092435,-1.34785 -8.560012,-0.67871 -15.664285,-6.34599"
           style="fill:none;stroke:#000000;stroke-width:1.0699811px;stroke-linecap:butt;stroke-linejoin:miter;stroke-opacity:1" />
        <path
           sodipodi:open="true"
           sodipodi:end="6.1711503"
           sodipodi:start="0"
           transform="matrix(-1.0699811,0,0,1.0699811,30.057466,559.12657)"
           d="m -69.953066,326.63513 c 0,2.02236 -3.109293,3.6618 -6.944799,3.6618 -3.835507,0 -6.944799,-1.63944 -6.944799,-3.6618 0,-2.02236 3.109292,-3.6618 6.944799,-3.6618 3.535062,0 6.506037,1.40015 6.901259,3.25241"
           sodipodi:ry="3.661803"
           sodipodi:rx="6.9447989"
           sodipodi:cy="326.63513"
           sodipodi:cx="-76.897865"
           id="path3970"
           style="opacity:0.98999999;fill:#ffffff;fill-opacity:1;stroke:#000000;stroke-width:1.68227267;stroke-linecap:round;stroke-linejoin:miter;stroke-miterlimit:4;stroke-opacity:1;stroke-dasharray:none;stroke-dashoffset:0"
           sodipodi:type="arc" />
        <path
           sodipodi:open="true"
           sodipodi:end="6.1711503"
           sodipodi:start="0"
           transform="matrix(1.0699811,0,0,1.0699811,184.49665,560.45447)"
           d="m -65.035606,325.24615 c 0,0.27895 -0.365887,0.50508 -0.817231,0.50508 -0.451344,0 -0.81723,-0.22613 -0.81723,-0.50508 0,-0.27894 0.365886,-0.50507 0.81723,-0.50507 0.41599,0 0.7656,0.19312 0.812107,0.44861"
           sodipodi:ry="0.50507629"
           sodipodi:rx="0.81723058"
           sodipodi:cy="325.24615"
           sodipodi:cx="-65.852837"
           id="path3972"
           style="opacity:0.98999999;fill:#000000;fill-opacity:1;stroke:#000000;stroke-width:2;stroke-linecap:round;stroke-linejoin:miter;stroke-miterlimit:4;stroke-opacity:1;stroke-dasharray:none;stroke-dashoffset:0"
           sodipodi:type="arc" />
        <path
           sodipodi:open="true"
           sodipodi:end="6.1711503"
           sodipodi:start="0"
           transform="matrix(-1.0699811,0,0,1.0699811,8.887005,559.17456)"
           d="m -69.953066,326.63513 c 0,2.02236 -3.109293,3.6618 -6.944799,3.6618 -3.835507,0 -6.944799,-1.63944 -6.944799,-3.6618 0,-2.02236 3.109292,-3.6618 6.944799,-3.6618 3.535062,0 6.506037,1.40015 6.901259,3.25241"
           sodipodi:ry="3.661803"
           sodipodi:rx="6.9447989"
           sodipodi:cy="326.63513"
           sodipodi:cx="-76.897865"
           id="path3974"
           style="opacity:0.98999999;fill:#ffffff;fill-opacity:1;stroke:#000000;stroke-width:1.68227267;stroke-linecap:round;stroke-linejoin:miter;stroke-miterlimit:4;stroke-opacity:1;stroke-dasharray:none;stroke-dashoffset:0"
           sodipodi:type="arc" />
        <path
           sodipodi:open="true"
           sodipodi:end="6.1711503"
           sodipodi:start="0"
           transform="matrix(1.0699811,0,0,1.0699811,163.32619,560.50246)"
           d="m -65.035606,325.24615 c 0,0.27895 -0.365887,0.50508 -0.817231,0.50508 -0.451344,0 -0.81723,-0.22613 -0.81723,-0.50508 0,-0.27894 0.365886,-0.50507 0.81723,-0.50507 0.41599,0 0.7656,0.19312 0.812107,0.44861"
           sodipodi:ry="0.50507629"
           sodipodi:rx="0.81723058"
           sodipodi:cy="325.24615"
           sodipodi:cx="-65.852837"
           id="path3976"
           style="opacity:0.98999999;fill:#000000;fill-opacity:1;stroke:#000000;stroke-width:2;stroke-linecap:round;stroke-linejoin:miter;stroke-miterlimit:4;stroke-opacity:1;stroke-dasharray:none;stroke-dashoffset:0"
           sodipodi:type="arc" />
      </g>
    </g>
    <g
       transform="matrix(0.58792423,0,0,0.58792423,739.93295,879.81238)"
       id="layer1-2"
       inkscape:label="Calque 1">
      <g
         id="g5416"
         transform="matrix(1.428466,0,0,1.428466,-29.857766,-1242.9942)">
        <path
           sodipodi:type="arc"
           style="opacity:0.98999999;fill:#000000;fill-opacity:1;stroke:#000000;stroke-width:2;stroke-linecap:round;stroke-linejoin:miter;stroke-miterlimit:4;stroke-opacity:1;stroke-dasharray:none;stroke-dashoffset:0"
           id="path5187"
           sodipodi:cx="-60.356613"
           sodipodi:cy="373.73349"
           sodipodi:rx="38.133259"
           sodipodi:ry="4.2931485"
           d="m -22.223354,373.73349 c 0,2.37104 -17.072842,4.29315 -38.133259,4.29315 -21.060417,0 -38.133259,-1.92211 -38.133259,-4.29315 0,-2.37104 17.072842,-4.29315 38.133259,-4.29315 19.410704,0 35.724056,1.64156 37.894188,3.81317"
           transform="matrix(-1.18208,0,0,1.0586424,18.697967,559.36705)"
           sodipodi:start="0"
           sodipodi:end="6.1711503"
           sodipodi:open="true" />
        <path
           style="opacity:0.98999999;fill:#ffffff;fill-opacity:1;stroke:#000000;stroke-width:3.88960576;stroke-linecap:round;stroke-linejoin:miter;stroke-miterlimit:4;stroke-opacity:1;stroke-dashoffset:0"
           d="m 53.728125,905.30938 c 3.366814,22.39325 13.290225,39.56852 32.911982,48.22517 19.318433,8.52282 38.554213,-21.86586 38.195313,-46.06348 -0.39493,-26.62618 -22.74807,-33.08409 -44.183783,-33.08409 -21.435716,0 -26.923512,4.29348 -26.923512,30.9224 z"
           id="path5005"
           sodipodi:nodetypes="csssc"
           inkscape:connector-curvature="0" />
        <path
           style="opacity:0.98999999;fill:#000000;fill-opacity:1;stroke:#000000;stroke-width:2.04921937;stroke-linecap:round;stroke-linejoin:miter;stroke-miterlimit:4;stroke-opacity:1;stroke-dasharray:none;stroke-dashoffset:0"
           id="path5026"
           d="m 60.107113,880.4021 c -0.553497,0.97614 -0.871454,2.06121 -1.074891,3.21749 -0.171754,1.25888 -0.201291,2.53791 -0.22329,3.81166 -0.0092,0.85 -0.01059,1.70022 -0.0063,2.55029 0.01322,0.94388 0.336237,1.8035 0.646434,2.64517 0.279984,0.76641 0.671383,1.45685 1.044215,2.15599 0.499483,0.83374 1.005852,1.66146 1.515356,2.48602 0.515239,0.78287 0.932298,1.65139 1.403395,2.47343 0.299235,0.47775 0.42376,1.02153 0.480659,1.61068 0.115777,1.09009 -0.214153,2.05073 -0.619096,2.98921 -0.718171,1.53441 -1.815806,2.66314 -2.930652,3.73115 -0.682364,0.68286 -1.453376,1.21723 -2.111339,1.93727 -0.490695,0.56767 -0.903449,1.23173 -1.313977,1.88811 -0.63135,0.94861 -1.169438,1.9816 -1.652105,3.0543 -0.437761,0.97508 -0.800861,1.97842 -0.93853,3.08564 -0.0021,1.64443 0.971538,2.74303 1.943237,3.67571 1.404453,1.23901 2.944007,2.21747 4.441479,3.26658 0.219592,0.15384 0.462182,0.35476 0.720428,0.30926 0.04839,-0.16463 0.142517,-0.31865 0.1452,-0.49387 0.0025,-0.16139 -0.3448,-0.77839 -0.377022,-0.83708 -0.326493,-0.59462 -0.695001,-1.14158 -1.065303,-1.6941 -0.724739,-1.02126 -1.443387,-2.04331 -2.039601,-3.18811 -0.403359,-0.75797 -0.560959,-1.60189 -0.628542,-2.49112 -0.0014,-1.11447 0.324352,-2.13008 0.692746,-3.12455 0.414944,-0.92449 1.032286,-1.66515 1.625359,-2.41153 0.759602,-0.98248 1.424131,-2.06706 2.079256,-3.15685 0.557529,-0.9596 1.089702,-1.94133 1.642844,-2.9046 0.456637,-0.70207 0.91194,-1.39509 1.316756,-2.14588 0.750935,-1.27542 1.192995,-2.75097 1.672876,-4.19812 0.435024,-1.30651 0.798429,-2.64443 1.14722,-3.98914 0.242518,-0.93211 0.398534,-1.89598 0.554933,-2.85513 0.164224,-0.7793 0.318939,-1.52396 0.181396,-2.32355 -0.13374,-0.47277 -0.355002,-0.94186 -0.713317,-1.20753 -2.995452,-2.22086 -2.136078,-1.74776 -3.617131,-2.52476 -1.131373,-0.45554 -2.308539,-0.67759 -3.484479,-0.86559 -0.657809,-0.0424 -1.850038,-0.38935 -2.408108,0.24973 -0.06717,0.0769 -0.104013,0.18663 -0.156026,0.27994 -0.0174,0.13573 -0.05274,0.26976 -0.05217,0.4072 0.004,0.95183 0.689832,2.02018 1.104566,2.75801 0.751317,1.22974 1.516957,2.44778 2.116279,3.80357 0.427247,1.10683 0.483907,2.35117 0.06808,3.4834 -0.09748,0.26541 -0.231355,0.50776 -0.347033,0.76163 -0.993147,1.80938 -2.459612,3.01458 -3.94572,4.12088 -0.840457,0.61872 -1.769292,1.00429 -2.654691,1.50326 -0.750613,0.41489 -1.447893,0.93166 -2.091288,1.56354 -0.598317,0.60936 -1.102433,1.34189 -1.612513,2.06034 -0.499441,0.71217 -0.904951,1.50832 -1.221736,2.36519 -0.306082,0.72999 -0.425975,1.53025 -0.492999,2.34004 -0.06028,0.68178 -0.06741,1.3584 0.115208,2.01086 0.133127,0.40754 0.360531,0.7518 0.613081,1.05469 0.234321,0.29391 0.465127,0.59451 0.713314,0.87085 1.195724,0.88753 2.615299,2.58868 4.189546,2.25821 0.600386,-0.19999 0.957308,-0.74064 1.24167,-1.39209 0.275577,-0.86483 0.588484,-1.70499 0.961118,-2.51251 0.496257,-1.0562 1.144063,-1.98427 1.708513,-2.98347 0.612701,-1.1435 1.037598,-2.39612 1.318871,-3.71904 0.218202,-1.02731 0.20669,-2.0924 0.302127,-3.13916 0.102279,-0.91542 0.62458,-1.66397 1.026812,-2.41208 0.713678,-1.21339 1.339713,-2.50096 1.998275,-3.76036 0.345887,-0.76817 0.718423,-1.51541 1.114386,-2.24495 0.243716,-0.48313 0.435553,-0.99266 0.596509,-1.52495 0.160476,-0.59688 0.29263,-1.20263 0.519793,-1.76728 0.239825,-0.56927 0.486194,-1.13325 0.719659,-1.70666 0.01585,-0.0293 0.110328,-0.24241 0.175574,-0.25629 0.01942,-0.004 0.05612,0.0671 0.03885,0.0554 -0.998495,-0.681 -1.939935,-1.50397 -2.985636,-2.06513 -0.104933,-0.0564 -0.1006,0.25519 -0.157117,0.37861 -0.124955,0.27287 -0.258052,0.53986 -0.387078,0.80981 -1.508367,2.77675 -3.032229,5.56642 -4.863662,8.03672 -0.46182,0.62291 -0.955497,1.20821 -1.433246,1.81231 -0.49709,0.56514 -0.986525,1.14086 -1.49127,1.69544 -1.176732,1.29292 -1.669603,1.79315 -2.922921,2.9201 -1.110522,0.99856 -2.270806,1.90942 -3.414665,2.8469 -0.908448,0.68584 -1.812589,1.37747 -2.480614,2.41885 -0.318172,0.5213 -0.605146,1.10467 -1.037552,1.4928 -0.231754,0.11623 -0.462355,0.23123 -0.696793,0.34196 0,0 2.869006,2.38703 2.869006,2.38703 l 0,0 c 0.255505,-0.13331 0.523146,-0.24362 0.747954,-0.4508 0.420807,-0.45332 0.738015,-1.02829 1.062248,-1.58655 0.63287,-0.99214 1.494131,-1.67843 2.324895,-2.39142 1.109114,-0.98009 2.241425,-1.92362 3.330111,-2.9388 1.228371,-1.14546 1.747617,-1.68253 2.908576,-2.9731 0.505694,-0.56216 0.997402,-1.14343 1.496104,-1.71514 0.482786,-0.60969 0.979799,-1.20252 1.448359,-1.82911 1.855266,-2.48098 3.424232,-5.25834 5.056969,-7.96153 0.147426,-0.26272 0.297289,-0.52336 0.442281,-0.78816 0.08827,-0.16121 0.376641,-0.36287 0.25745,-0.48976 -1.719745,-1.83061 -2.451979,-3.53683 -3.286054,-1.86823 -0.224924,0.57845 -0.464798,1.14333 -0.710484,1.70847 -0.237258,0.57494 -0.385566,1.18762 -0.540421,1.80246 -0.158502,0.49874 -0.330185,0.9863 -0.557562,1.44444 -0.390232,0.73736 -0.734261,1.50838 -1.079063,2.27952 -0.642575,1.26674 -1.259157,2.55794 -1.990583,3.75058 -0.446404,0.78943 -1.025798,1.5883 -1.140776,2.57023 -0.09379,1.0336 -0.04517,2.08853 -0.24991,3.1075 -0.254538,1.28201 -0.661822,2.48632 -1.26431,3.58138 -0.571302,1.00778 -1.216986,1.95213 -1.725443,3.01285 -0.383252,0.80411 -0.716973,1.63786 -0.992526,2.50695 -0.233512,0.54505 -0.539092,0.97106 -1.063906,1.02767 -1.40832,-0.0339 -3.195254,-1.76668 1.835218,1.79285 -0.308351,-0.17395 -0.482758,-0.52061 -0.744993,-0.77236 -0.20933,-0.32083 -0.4836,-0.56453 -0.668515,-0.91489 -0.236775,-0.65327 -0.272511,-1.11511 -0.206311,-1.84114 0.05525,-0.76673 0.151146,-1.5258 0.441359,-2.21772 0.288653,-0.82723 0.680041,-1.58441 1.162571,-2.25945 0.494735,-0.69961 0.991326,-1.40579 1.573329,-1.99679 0.631761,-0.60132 1.324302,-1.07593 2.053551,-1.47241 0.890018,-0.48996 1.795207,-0.94716 2.622591,-1.594 1.510594,-1.1764 2.998971,-2.45593 4.040413,-4.29241 0.129242,-0.2732 0.277107,-0.53406 0.387728,-0.8196 0.465548,-1.20167 0.476161,-2.56546 0.06728,-3.78702 -0.559298,-1.39741 -1.337511,-2.62639 -2.103623,-3.85735 -0.471356,-0.82481 -1.008782,-1.65562 -1.180462,-2.66855 0.336704,-0.63042 1.80787,-0.2178 2.287841,-0.19544 1.172963,0.20756 2.357842,0.44669 3.462356,1.00046 1.240358,0.75558 0.658986,0.41539 -2.249732,-1.68731 -0.09346,-0.0676 0.18454,0.14044 0.27308,0.21757 0.224614,0.19566 0.405404,0.41602 0.521078,0.73018 0.237739,0.75742 0.05585,1.388 -0.09881,2.14843 -0.140249,0.94914 -0.296544,1.89885 -0.515268,2.82494 -0.339607,1.33796 -0.678071,2.67643 -1.107489,3.97576 -0.476485,1.41718 -0.897598,2.87359 -1.668904,4.09887 -0.41945,0.73533 -0.885066,1.41997 -1.325467,2.13515 -0.539049,0.96909 -1.048317,1.96354 -1.606991,2.91613 -0.648095,1.07474 -1.314593,2.13399 -2.075075,3.09146 -0.623939,0.77837 -1.258212,1.5679 -1.685734,2.54044 -0.387699,1.05796 -0.726002,2.13108 -0.786448,3.30562 0.04486,0.94737 0.165339,1.86481 0.575997,2.68796 0.580262,1.17824 1.286475,2.23171 2.03739,3.24843 0.362183,0.5384 0.736155,1.05882 1.05825,1.63629 0.06502,0.11657 0.342037,0.67311 0.381281,0.67585 0.08746,0.005 0.131775,-0.14336 0.197662,-0.21505 -0.150064,-0.13364 -0.976139,-0.66603 -0.59291,-0.38146 0.81245,0.60333 1.63336,1.18891 2.45015,1.78312 0.176274,0.12824 -0.355419,-0.25061 -0.528598,-0.38519 -0.197903,-0.1538 -0.389499,-0.31977 -0.58425,-0.47966 -0.937342,-0.80142 -1.901345,-1.73452 -2.042077,-3.23682 0.08721,-1.06679 0.456577,-2.01997 0.864129,-2.95488 0.464035,-1.06046 1.003439,-2.06664 1.633813,-2.98725 0.406078,-0.63067 0.818439,-1.26246 1.29947,-1.80829 0.647649,-0.7058 1.377758,-1.28241 2.042055,-1.96321 1.13375,-1.12415 2.270053,-2.29218 3.020976,-3.86267 0.44131,-0.9887 0.827891,-2.01647 0.758074,-3.17824 -0.02802,-0.64618 -0.111467,-1.27481 -0.412278,-1.82195 -0.475444,-0.83186 -0.922243,-1.6868 -1.421968,-2.49747 -0.494692,-0.8217 -0.988158,-1.64575 -1.504308,-2.44647 -0.359045,-0.70096 -0.766611,-1.3651 -1.072702,-2.10548 -0.298576,-0.79237 -0.641416,-1.58568 -0.699273,-2.47399 -0.0017,-0.85169 -0.0145,-1.7033 -0.01397,-2.55502 0.0041,-1.2509 0.01816,-2.50786 0.18036,-3.74551 0.183713,-1.1034 0.475113,-2.14138 1.04446,-3.03847 0,0 -2.966733,-2.17513 -2.966733,-2.17513 z"
           inkscape:connector-curvature="0" />
        <path
           style="opacity:0.98999999;fill:#000000;fill-opacity:1;stroke:#000000;stroke-width:1.82031202;stroke-linecap:round;stroke-linejoin:miter;stroke-miterlimit:4;stroke-opacity:1;stroke-dasharray:none;stroke-dashoffset:0"
           id="path5026-5"
           d="m 52.628657,886.16711 c 0.01038,0.94871 0.263969,1.81271 0.507492,2.65868 0.219807,0.7703 0.527082,1.46425 0.819778,2.16696 0.392128,0.83799 0.789661,1.66993 1.189655,2.49871 0.404497,0.78685 0.731915,1.6598 1.101758,2.48605 0.23492,0.48016 0.332678,1.02672 0.377349,1.61888 0.0909,1.09565 -0.168126,2.06118 -0.486031,3.00446 -0.563812,1.54223 -1.425529,2.67671 -2.300755,3.75017 -0.535701,0.68634 -1.140996,1.22342 -1.65754,1.94713 -0.385228,0.57058 -0.709268,1.23802 -1.031559,1.89775 -0.495651,0.95344 -0.918086,1.99172 -1.29701,3.06987 -0.343671,0.98006 -0.628729,1.98851 -0.736809,3.10137 -0.0017,1.65283 0.762721,2.75704 1.525569,3.69446 1.102589,1.24533 2.31124,2.22877 3.486854,3.28322 0.172394,0.15465 0.362842,0.35658 0.565583,0.31084 0.038,-0.16546 0.111885,-0.32025 0.113992,-0.49638 0.0019,-0.1622 -0.270692,-0.78236 -0.295988,-0.84135 -0.256319,-0.59766 -0.545621,-1.1474 -0.836334,-1.70275 -0.568968,-1.02646 -1.133151,-2.05372 -1.60122,-3.20433 -0.316662,-0.76186 -0.440389,-1.61008 -0.493445,-2.50383 -0.0011,-1.12017 0.254636,-2.14096 0.54385,-3.14049 0.325758,-0.92922 0.810412,-1.67366 1.276013,-2.42382 0.596338,-0.9875 1.118037,-2.07761 1.632354,-3.17296 0.437697,-0.96449 0.855486,-1.95124 1.28974,-2.91942 0.358491,-0.70563 0.715933,-1.4022 1.03374,-2.1568 0.589534,-1.28192 0.93658,-2.76499 1.313317,-4.21952 0.341523,-1.31318 0.626819,-2.65794 0.900644,-4.00949 0.190392,-0.93686 0.312875,-1.90565 0.435659,-2.86968 0.128927,-0.78329 0.250388,-1.53174 0.142407,-2.33541 -0.104998,-0.47517 -0.278698,-0.94666 -0.56,-1.21369 -2.351627,-2.23217 -1.676962,-1.75666 -2.839686,-2.53761 -7.366339,-3.29521 -3.825438,2.6722 -2.260942,6.66667 0.335416,1.11248 0.379897,2.36316 0.05345,3.50116 -0.07653,0.26676 -0.181629,0.51035 -0.272445,0.76551 -0.779686,1.81861 -1.930956,3.02994 -3.097649,4.14189 -0.659814,0.62187 -1.389012,1.00943 -2.084107,1.51094 -0.58928,0.41699 -1.136691,0.9364 -1.641799,1.5715 -0.469719,0.61247 -0.865483,1.34873 -1.265929,2.07084 -0.392095,0.7158 -0.710446,1.51601 -0.959143,2.37727 -0.240294,0.73368 -0.334418,1.53804 -0.387037,2.35196 -0.04733,0.68526 -0.05292,1.36531 0.09045,2.0211 0.104516,0.40963 0.283041,0.75563 0.481308,1.06006 0.183959,0.29543 0.365156,0.59756 0.56,0.87529 0.938721,0.89205 2.053181,2.60189 3.289069,2.26974 0.471343,-0.20102 0.751548,-0.74442 0.974791,-1.39918 0.216347,-0.86926 0.462001,-1.71367 0.754541,-2.52533 0.389596,-1.06159 0.898165,-1.99439 1.341295,-2.99869 0.481013,-1.14933 0.814585,-2.40834 1.035402,-3.73801 0.171302,-1.03254 0.162265,-2.10305 0.237189,-3.15516 0.08029,-0.92008 0.490337,-1.67244 0.806116,-2.42436 0.560283,-1.21959 1.051762,-2.51371 1.568777,-3.77954 0.271543,-0.7721 0.564009,-1.52315 0.874867,-2.2564 0.191332,-0.4856 0.341937,-0.99772 0.468297,-1.53273 0.125985,-0.59991 0.229735,-1.20877 0.408072,-1.7763 0.188279,-0.57214 0.381694,-1.13902 0.564981,-1.71534 0.01244,-0.0294 0.08662,-0.24367 0.137836,-0.2576 0.01525,-0.004 0.04406,0.0674 0.0305,0.0557 -0.783884,-0.68448 -1.522976,-1.51163 -2.34392,-2.07567 -0.08238,-0.0566 -0.07897,0.25651 -0.123348,0.38054 -1.161146,3.05662 -2.552158,6.02499 -4.122175,8.89165 -0.362559,0.62608 -0.750129,1.21438 -1.125192,1.82156 -0.390249,0.56801 -0.774488,1.14666 -1.170745,1.70407 -0.923812,1.29952 -1.310748,1.8023 -2.294687,2.93499 -0.871832,1.00365 -1.782732,1.91915 -2.680736,2.86141 -0.713191,0.68937 -1.423001,1.3845 -1.947443,2.43118 0.831057,1.87502 -0.475082,1.11031 -0.814547,1.50043 -0.181943,0.1168 1.528498,2.6643 -0.54703,0.34369 0,0 2.252359,2.39922 2.252359,2.39922 l 0,0 c 0.200589,-0.13399 0.410704,-0.24487 0.587192,-0.45312 0.330362,-0.45562 0.579391,-1.03353 0.833935,-1.59464 0.496846,-0.99718 1.172992,-1.68697 1.825197,-2.40361 0.870727,-0.98509 1.759665,-1.93343 2.614355,-2.95379 0.964351,-1.15129 1.371995,-1.69109 2.283424,-2.98825 0.397002,-0.56503 0.783026,-1.14925 1.17454,-1.72387 0.379019,-0.61282 0.769206,-1.20866 1.137056,-1.83845 1.456506,-2.49363 2.688248,-5.28515 3.970054,-8.00212 0.11574,-0.26405 0.23339,-0.52603 0.34722,-0.79217 0.0693,-0.16204 0.295688,-0.36474 0.202115,-0.49226 -1.350113,-1.83995 -1.924966,-3.55487 -2.57977,-1.87775 -0.17658,0.58137 -0.364896,1.14915 -0.557774,1.71717 -0.186265,0.57786 -0.302697,1.19367 -0.424268,1.81166 -0.124435,0.50127 -0.259216,0.99131 -0.437723,1.45179 -0.306357,0.74112 -0.576443,1.51607 -0.847134,2.29114 -0.504465,1.2732 -0.988521,2.57098 -1.562739,3.7697 -0.350457,0.79347 -0.805319,1.59641 -0.895584,2.58333 -0.07364,1.03888 -0.03547,2.09919 -0.196196,3.12336 -0.199829,1.28854 -0.519575,2.499 -0.992567,3.59964 -0.44851,1.01291 -0.955414,1.96209 -1.354587,3.0282 -0.300877,0.80822 -0.56287,1.64621 -0.779197,2.51973 -0.183321,0.54784 -0.423224,0.97602 -0.835236,1.03292 -1.105624,-0.0341 -2.508485,-1.77568 1.440766,1.80199 -0.242075,-0.17484 -0.378995,-0.52327 -0.584867,-0.77631 -0.164339,-0.32246 -0.379658,-0.56739 -0.524831,-0.91954 -0.185882,-0.6566 -0.213936,-1.12079 -0.161967,-1.85052 0.04339,-0.77065 0.118661,-1.53359 0.346496,-2.22903 0.226612,-0.83146 0.533878,-1.5925 0.912696,-2.27097 0.388399,-0.70319 0.778256,-1.41297 1.235166,-2.00698 0.495975,-0.60438 1.039665,-1.0814 1.612173,-1.47992 0.698723,-0.49245 1.409356,-0.95198 2.058906,-1.60213 1.185917,-1.18239 2.35439,-2.46843 3.171989,-4.31429 0.101467,-0.27459 0.217549,-0.53679 0.304393,-0.82378 0.365486,-1.20779 0.373818,-2.57853 0.05282,-3.80632 -0.439086,-1.40453 -1.050034,-2.63979 -1.651483,-3.87701 -0.775804,-1.74861 -1.607678,-3.20561 0.869366,-2.87862 0.920853,0.20865 1.851061,0.44898 2.718177,1.00557 0.973763,0.75944 0.517348,0.41751 -1.766189,-1.69591 -0.07337,-0.0679 0.144877,0.14117 0.214387,0.21867 0.176337,0.19666 0.318269,0.41814 0.409081,0.73393 0.186639,0.76127 0.04385,1.39507 -0.07757,2.15938 -0.110103,0.95397 -0.232805,1.90851 -0.404518,2.83933 -0.266615,1.3448 -0.532331,2.69007 -0.869453,3.99604 -0.374071,1.42439 -0.704673,2.88824 -1.310198,4.11977 -0.329298,0.73907 -0.694835,1.42723 -1.040579,2.14602 -0.42319,0.97404 -0.822998,1.97357 -1.261595,2.93101 -0.508796,1.08022 -1.03204,2.14486 -1.62907,3.10722 -0.489834,0.78233 -0.98778,1.57588 -1.323412,2.55338 -0.304369,1.06337 -0.569959,2.14195 -0.617412,3.32248 0.03521,0.95221 0.1298,1.87433 0.452194,2.70168 0.455545,1.18424 1.009969,2.24309 1.599486,3.26498 0.284338,0.54114 0.577929,1.06422 0.830796,1.64465 0.05105,0.11716 0.268521,0.67653 0.299331,0.67929 0.06866,0.005 0.103445,-0.1441 0.155177,-0.21615 -0.11781,-0.13433 -0.766333,-0.66943 -0.465473,-0.38341 0.637826,0.60641 1.282294,1.19498 1.923529,1.79222 0.138386,0.12888 -0.279029,-0.25188 -0.414985,-0.38715 -0.155367,-0.15459 -0.305782,-0.32141 -0.458674,-0.48211 -0.735874,-0.80552 -1.492682,-1.74335 -1.603165,-3.25332 0.06847,-1.07224 0.358443,-2.03026 0.678396,-2.96996 0.364299,-1.06586 0.787768,-2.07716 1.282652,-3.00247 0.318799,-0.6339 0.642529,-1.26892 1.02017,-1.81752 0.508447,-0.70939 1.081631,-1.28895 1.603148,-1.97321 0.890066,-1.12988 1.782141,-2.30388 2.371665,-3.88238 0.346457,-0.99373 0.649947,-2.02675 0.595137,-3.19443 -0.022,-0.64948 -0.08751,-1.28131 -0.323666,-1.83125 -0.373254,-0.83609 -0.724021,-1.6954 -1.116338,-2.51019 -0.388365,-0.82589 -0.775769,-1.65414 -1.180981,-2.45896 -0.281873,-0.70454 -0.601838,-1.37205 -0.842141,-2.11622 -0.234403,-0.7964 -0.503553,-1.59376 -0.548974,-2.4866 -0.0014,-0.85604 -0.01138,-1.71198 -0.01097,-2.56803 -0.08435,-2.34788 0.118509,-4.62543 0.961566,-6.81857 4.069166,1.08569 -1.625951,6.06319 -3.353268,7.44191 z"
           sodipodi:nodetypes="cscccsccccsccscsscsccccccssccsccscsssscssscccscscccssssssscccsscccccccccsscscsscscscccscscccccscscsscsccccsssccscccsccscsscsssscscsccssscccccc"
           inkscape:connector-curvature="0" />
        <g
           id="g5059"
           transform="matrix(-0.98013799,-0.10123726,-0.06110824,1.1898449,89.121222,-197.22169)">
          <path
             sodipodi:open="true"
             sodipodi:end="6.1711503"
             sodipodi:start="0"
             transform="translate(-6.25,603.43361)"
             d="m 11.964287,305.35715 c 0,3.45178 -28.581822,6.25 -63.839287,6.25 -35.257465,0 -63.83929,-2.79822 -63.83929,-6.25 0,-3.45178 28.581825,-6.25 63.83929,-6.25 32.495662,0 59.806015,2.38979 63.439055,5.55124"
             sodipodi:ry="6.25"
             sodipodi:rx="63.839287"
             sodipodi:cy="305.35715"
             sodipodi:cx="-51.875"
             id="path5007"
             style="opacity:0.98999999;fill:#000000;fill-opacity:1;stroke:#ffffff;stroke-width:2;stroke-linecap:round;stroke-linejoin:miter;stroke-miterlimit:4;stroke-opacity:1;stroke-dasharray:none;stroke-dashoffset:0"
             sodipodi:type="arc" />
          <path
             sodipodi:nodetypes="czzc"
             id="rect5009"
             d="m -94.10714,906.64788 11.001949,-21.92427 c -0.180783,1.2085 50.317479,-5.78134 51.589483,-2.90002 l 10.801429,24.46715"
             style="opacity:0.98999999;fill:#000000;fill-opacity:1;stroke:#000000;stroke-width:3.9000001;stroke-linecap:round;stroke-linejoin:miter;stroke-miterlimit:4;stroke-opacity:1;stroke-dashoffset:0"
             inkscape:connector-curvature="0" />
          <path
             sodipodi:nodetypes="ccccc"
             id="rect5017"
             d="m -116.36704,898.2356 c 34.295656,2.56258 54.005344,2.67616 63.907213,1.29301 l 0.98339,2.32013 c -17.73236,1.02104 -41.898343,-0.61589 -65.393293,-1.81639 l 0.50269,-1.79675 z"
             style="opacity:0.98999999;fill:#ffffff;fill-opacity:1;stroke:#ffffff;stroke-width:3.9000001;stroke-linecap:round;stroke-linejoin:miter;stroke-miterlimit:4;stroke-opacity:1;stroke-dashoffset:0"
             transform="matrix(0.99954753,-0.03007879,0.03007879,0.99954753,0,0)"
             inkscape:connector-curvature="0" />
        </g>
        <path
           style="fill:none;stroke:#000000;stroke-width:1.0699811px;stroke-linecap:butt;stroke-linejoin:miter;stroke-opacity:1"
           d="m 96.799591,938.80449 c -5.092435,-1.34785 -8.560012,-0.67871 -15.664285,-6.34599"
           id="path5064"
           sodipodi:nodetypes="cc"
           inkscape:connector-curvature="0" />
        <path
           sodipodi:type="arc"
           style="opacity:0.98999999;fill:#ffffff;fill-opacity:1;stroke:#000000;stroke-width:1.68227267;stroke-linecap:round;stroke-linejoin:miter;stroke-miterlimit:4;stroke-opacity:1;stroke-dasharray:none;stroke-dashoffset:0"
           id="path5163"
           sodipodi:cx="-76.897865"
           sodipodi:cy="326.63513"
           sodipodi:rx="6.9447989"
           sodipodi:ry="3.661803"
           d="m -69.953066,326.63513 c 0,2.02236 -3.109293,3.6618 -6.944799,3.6618 -3.835507,0 -6.944799,-1.63944 -6.944799,-3.6618 0,-2.02236 3.109292,-3.6618 6.944799,-3.6618 3.535062,0 6.506037,1.40015 6.901259,3.25241"
           transform="matrix(-1.0699811,0,0,1.0699811,30.057466,559.12657)"
           sodipodi:start="0"
           sodipodi:end="6.1711503"
           sodipodi:open="true" />
        <path
           sodipodi:type="arc"
           style="opacity:0.98999999;fill:#000000;fill-opacity:1;stroke:#000000;stroke-width:2;stroke-linecap:round;stroke-linejoin:miter;stroke-miterlimit:4;stroke-opacity:1;stroke-dasharray:none;stroke-dashoffset:0"
           id="path5068-4"
           sodipodi:cx="-65.852837"
           sodipodi:cy="325.24615"
           sodipodi:rx="0.81723058"
           sodipodi:ry="0.50507629"
           d="m -65.035606,325.24615 c 0,0.27895 -0.365887,0.50508 -0.817231,0.50508 -0.451344,0 -0.81723,-0.22613 -0.81723,-0.50508 0,-0.27894 0.365886,-0.50507 0.81723,-0.50507 0.41599,0 0.7656,0.19312 0.812107,0.44861"
           transform="matrix(1.0699811,0,0,1.0699811,184.49665,560.45447)"
           sodipodi:start="0"
           sodipodi:end="6.1711503"
           sodipodi:open="true" />
        <path
           sodipodi:type="arc"
           style="opacity:0.98999999;fill:#ffffff;fill-opacity:1;stroke:#000000;stroke-width:1.68227267;stroke-linecap:round;stroke-linejoin:miter;stroke-miterlimit:4;stroke-opacity:1;stroke-dasharray:none;stroke-dashoffset:0"
           id="path5163-4"
           sodipodi:cx="-76.897865"
           sodipodi:cy="326.63513"
           sodipodi:rx="6.9447989"
           sodipodi:ry="3.661803"
           d="m -69.953066,326.63513 c 0,2.02236 -3.109293,3.6618 -6.944799,3.6618 -3.835507,0 -6.944799,-1.63944 -6.944799,-3.6618 0,-2.02236 3.109292,-3.6618 6.944799,-3.6618 3.535062,0 6.506037,1.40015 6.901259,3.25241"
           transform="matrix(-1.0699811,0,0,1.0699811,8.887005,559.17456)"
           sodipodi:start="0"
           sodipodi:end="6.1711503"
           sodipodi:open="true" />
        <path
           sodipodi:type="arc"
           style="opacity:0.98999999;fill:#000000;fill-opacity:1;stroke:#000000;stroke-width:2;stroke-linecap:round;stroke-linejoin:miter;stroke-miterlimit:4;stroke-opacity:1;stroke-dasharray:none;stroke-dashoffset:0"
           id="path5068-4-8"
           sodipodi:cx="-65.852837"
           sodipodi:cy="325.24615"
           sodipodi:rx="0.81723058"
           sodipodi:ry="0.50507629"
           d="m -65.035606,325.24615 c 0,0.27895 -0.365887,0.50508 -0.817231,0.50508 -0.451344,0 -0.81723,-0.22613 -0.81723,-0.50508 0,-0.27894 0.365886,-0.50507 0.81723,-0.50507 0.41599,0 0.7656,0.19312 0.812107,0.44861"
           transform="matrix(1.0699811,0,0,1.0699811,163.32619,560.50246)"
           sodipodi:start="0"
           sodipodi:end="6.1711503"
           sodipodi:open="true" />
      </g>
    </g>
    <text
       xml:space="preserve"
       style="font-size:20px;font-style:normal;font-weight:normal;line-height:125%;letter-spacing:0px;word-spacing:0px;fill:#000000;fill-opacity:1;stroke:none;font-family:Sans"
       x="680.84283"
       y="763.45856"
       id="text3978"
       sodipodi:linespacing="125%"><tspan
         sodipodi:role="line"
         id="tspan3980"
         x="680.84283"
         y="763.45856">Très bien !</tspan></text>
    <text
       sodipodi:linespacing="125%"
       id="text3988"
       y="738.70978"
       x="451.67245"
       style="font-size:20px;font-style:normal;font-weight:normal;text-align:center;line-height:125%;letter-spacing:0px;word-spacing:0px;text-anchor:middle;fill:#000000;fill-opacity:1;stroke:none;font-family:Sans"
       xml:space="preserve"><tspan
         y="738.70978"
         x="525.94977"
         id="tspan3990"
         sodipodi:role="line">Bon, le projet est</tspan><tspan
         id="tspan3992"
         y="763.70978"
         x="525.94977"
         sodipodi:role="line">terminé ?</tspan></text>
    <text
       xml:space="preserve"
       style="font-size:20px;font-style:normal;font-weight:normal;text-align:center;line-height:125%;letter-spacing:0px;word-spacing:0px;text-anchor:middle;fill:#000000;fill-opacity:1;stroke:none;font-family:Sans"
       x="391.56836"
       y="822.04736"
       id="text3982"
       sodipodi:linespacing="125%"><tspan
         sodipodi:role="line"
         x="391.56836"
         y="822.04736"
         id="tspan3986">Oui. *</tspan></text>
    <text
       xml:space="preserve"
       style="font-size:12.14470291px;font-style:normal;font-weight:normal;line-height:125%;letter-spacing:0px;word-spacing:0px;fill:#000000;fill-opacity:1;stroke:none;font-family:Sans"
       x="306.55185"
       y="983.30457"
       id="text3996"
       sodipodi:linespacing="125%"><tspan
         sodipodi:role="line"
         id="tspan3998"
         x="306.55185"
         y="983.30457">(*) mais ça plante de partout.</tspan></text>
    <path
       style="fill:none;stroke:#000000;stroke-width:1px;stroke-linecap:butt;stroke-linejoin:miter;stroke-opacity:1"
       d="m 732.86567,772.54991 41.41626,83.33758"
       id="path4010"
       inkscape:connector-curvature="0"
       sodipodi:nodetypes="cc" />
    <path
       style="fill:none;stroke:#000000;stroke-width:1px;stroke-linecap:butt;stroke-linejoin:miter;stroke-opacity:1"
       d="m 737.91643,903.36466 18.18275,0"
       id="path4012"
       inkscape:connector-curvature="0" />
    <path
       style="fill:none;stroke:#000000;stroke-width:1px;stroke-linecap:butt;stroke-linejoin:miter;stroke-opacity:1"
       d="m 739.93674,922.05249 17.67766,0"
       id="path4016"
       inkscape:connector-curvature="0" />
    <path
       style="fill:none;stroke:#000000;stroke-width:1px;stroke-linecap:butt;stroke-linejoin:miter;stroke-opacity:1"
       d="m 739.93674,936.6997 21.71828,0"
       id="path4018"
       inkscape:connector-curvature="0" />
    <path
       style="fill:none;stroke:#000000;stroke-width:1px;stroke-linecap:butt;stroke-linejoin:miter;stroke-opacity:1"
       d="m 466.69048,173.57819 33.33503,82.83251"
       id="path4022"
       inkscape:connector-curvature="0"
       transform="translate(0,602.00218)" />
    <path
       style="fill:none;stroke:#000000;stroke-width:1px;stroke-linecap:butt;stroke-linejoin:miter;stroke-opacity:1"
       d="m 391.93919,229.13658 -9.09138,41.41625"
       id="path4024"
       inkscape:connector-curvature="0"
       transform="translate(0,602.00218)" />
    <text
       xml:space="preserve"
       style="font-size:20px;font-style:normal;font-weight:normal;text-align:center;line-height:125%;letter-spacing:0px;word-spacing:0px;text-anchor:middle;fill:#000000;fill-opacity:1;stroke:none;font-family:Sans"
       x="165.15237"
       y="766.48901"
       id="text4026"
       sodipodi:linespacing="125%"><tspan
         sodipodi:role="line"
         x="165.15237"
         y="766.48901"
         id="tspan4032">Aujourd'hui : « La publicité</tspan><tspan
         sodipodi:role="line"
         x="165.15237"
         y="791.48901"
         id="tspan4041">adaptée au monde de</tspan><tspan
         sodipodi:role="line"
         x="165.15237"
         y="816.48901"
         id="tspan4047">l'informatique ».</tspan></text>
    <path
       style="fill:none;stroke:#000000;stroke-width:1px;stroke-linecap:butt;stroke-linejoin:miter;stroke-opacity:1"
       d="m 167.68532,229.13658 -4.04061,43.43656"
       id="path4051"
       inkscape:connector-curvature="0"
       transform="translate(0,602.00218)" />
  </g>
</svg>
