<?xml version="1.0" encoding="UTF-8" standalone="no"?>
<!-- Created with Inkscape (http://www.inkscape.org/) -->

<svg
   xmlns:dc="http://purl.org/dc/elements/1.1/"
   xmlns:cc="http://creativecommons.org/ns#"
   xmlns:rdf="http://www.w3.org/1999/02/22-rdf-syntax-ns#"
   xmlns:svg="http://www.w3.org/2000/svg"
   xmlns="http://www.w3.org/2000/svg"
   xmlns:sodipodi="http://sodipodi.sourceforge.net/DTD/sodipodi-0.dtd"
   xmlns:inkscape="http://www.inkscape.org/namespaces/inkscape"
   width="900"
   height="450"
   id="svg2"
   version="1.1"
   inkscape:version="0.48.3.1 r9886"
   sodipodi:docname="242-grosse-idee.svg"
   inkscape:export-filename="/home/mickaelbidon/Dropbox/Public/hmm/strips/png/242-grosse-idee.png"
   inkscape:export-xdpi="90"
   inkscape:export-ydpi="90">
  <defs
     id="defs4" />
  <sodipodi:namedview
     id="base"
     pagecolor="#ffffff"
     bordercolor="#666666"
     borderopacity="1.0"
     inkscape:pageopacity="1"
     inkscape:pageshadow="2"
     inkscape:zoom="0.98994949"
     inkscape:cx="318.83861"
     inkscape:cy="357.30301"
     inkscape:document-units="px"
     inkscape:current-layer="layer1"
     showgrid="false"
     inkscape:window-width="1920"
     inkscape:window-height="1044"
     inkscape:window-x="0"
     inkscape:window-y="17"
     inkscape:window-maximized="1" />
  <metadata
     id="metadata7">
    <rdf:RDF>
      <cc:Work
         rdf:about="">
        <dc:format>image/svg+xml</dc:format>
        <dc:type
           rdf:resource="http://purl.org/dc/dcmitype/StillImage" />
        <dc:title></dc:title>
      </cc:Work>
    </rdf:RDF>
  </metadata>
  <g
     inkscape:label="Layer 1"
     inkscape:groupmode="layer"
     id="layer1"
     transform="translate(0,-602.36218)">
    <rect
       style="fill:#ffffff;fill-opacity:1;stroke:#000000;stroke-width:7.49069977;stroke-linecap:round;stroke-linejoin:miter;stroke-miterlimit:4;stroke-opacity:1;stroke-dasharray:none"
       id="rect7413-7"
       width="844.24396"
       height="311.59088"
       x="23.127918"
       y="691.36743"
       ry="31.621019" />
    <path
       style="fill:none;stroke:#000000;stroke-width:1px;stroke-linecap:butt;stroke-linejoin:miter;stroke-opacity:1"
       d="m 22.223356,938.21495 844.487524,0"
       id="path3906"
       inkscape:connector-curvature="0" />
    <rect
       ry="15.655181"
       y="658.79095"
       x="36.977455"
       height="31.310362"
       width="282.4743"
       id="rect7471-3-8"
       style="fill:#ffffff;fill-opacity:1;stroke:#000000;stroke-width:4.50943995;stroke-linecap:round;stroke-linejoin:round;stroke-miterlimit:4;stroke-opacity:1;stroke-dasharray:none"
       transform="matrix(0.99999504,-0.00314981,0.00314981,0.99999504,0,0)" />
    <path
       transform="matrix(1.24255,-0.00391383,0.00217078,0.689175,-19.069242,635.82367)"
       d="m 101.52033,44.928829 a 36.870567,34.850262 0 1 1 -73.741132,0 36.870567,34.850262 0 1 1 73.741132,0 z"
       sodipodi:ry="34.850262"
       sodipodi:rx="36.870567"
       sodipodi:cy="44.928829"
       sodipodi:cx="64.649765"
       id="path7473-1-9"
       style="fill:#000000;fill-opacity:1;stroke:#000000;stroke-width:7.49100018;stroke-linecap:round;stroke-linejoin:round;stroke-miterlimit:4;stroke-opacity:1;stroke-dasharray:none"
       sodipodi:type="arc" />
    <text
       id="text7475-5-7"
       y="681.63196"
       x="22.376608"
       style="font-size:40px;font-style:normal;font-weight:normal;fill:#000000;fill-opacity:1;stroke:none;font-family:Bitstream Vera Sans"
       xml:space="preserve"
       transform="matrix(0.99999504,-0.00314981,0.00314981,0.99999504,0,0)"><tspan
         style="fill:#f9f9f9"
         y="681.63196"
         x="22.376608"
         sodipodi:role="line"
         id="tspan22503">242</tspan></text>
    <text
       id="text7583-1-2"
       y="681.52435"
       x="141.76562"
       style="font-size:20px;font-style:normal;font-weight:normal;fill:#000000;fill-opacity:1;stroke:none;font-family:Bitstream Vera Sans"
       xml:space="preserve"
       transform="matrix(0.99999504,-0.00314981,0.00314981,0.99999504,0,0)"><tspan
         y="681.52435"
         x="141.76562"
         id="tspan7585-3-9"
         sodipodi:role="line">Grosse idée</tspan></text>
    <g
       transform="translate(3.7313779,-0.4456677)"
       id="g36753">
      <path
         inkscape:connector-curvature="0"
         d="m 839.4465,1023.3074 c 0.43929,0.5102 1.03555,0.5714 1.67024,0.6073 0.80294,-0.022 1.60723,-0.2138 2.3575,-0.4993 0.40087,-0.1526 0.62241,-0.2825 0.99647,-0.4789 -2.23866,1.3097 -0.99237,0.6082 -0.57384,0.1636 0.21684,-0.2303 0.34634,-0.473 0.46862,-0.7606 0.3177,-0.895 0.35887,-1.8574 0.41306,-2.7971 0.1056,-1.3679 -0.17756,-2.7109 -0.48246,-4.0351 -0.37088,-1.393 -0.8746,-2.7467 -1.42936,-4.0758 -0.26563,-0.6279 -0.56605,-1.24 -0.85867,-1.8555 -0.39436,-0.7567 -0.71696,-0.2868 1.51037,-1.1508 0.0768,-0.03 0.0919,0.1367 0.14111,0.2027 0.0824,0.1106 0.1689,0.2179 0.25335,0.3269 0.82168,1.1276 1.80984,2.1155 2.80011,3.0928 0.5826,0.5674 1.20736,1.0941 1.76446,1.6874 0.21145,0.1726 0.33784,0.416 0.50801,0.6229 0.16621,0.1502 0.29624,-0.01 0.44313,-0.1106 -2.56559,1.5384 -1.65189,1.0412 -1.15995,0.5694 0.19373,-0.1857 0.37638,-0.3843 0.56186,-0.5781 0.26325,-0.2626 0.51271,-0.5438 0.80098,-0.7804 0.76098,-0.6244 1.82272,-1.1234 2.60966,-1.5711 0.72713,-0.3211 1.47101,-0.6005 2.22653,-0.8467 0.15629,-0.034 0.76097,-0.2665 0.89904,-0.1093 0.0321,0.037 0.0451,0.086 0.0677,0.1294 0.003,0.044 0.0154,0.089 0.009,0.1323 -0.0436,0.3196 -0.53847,0.6915 -0.75447,0.8904 -0.99282,0.8207 -1.9561,1.6745 -2.87309,2.5792 -0.79764,0.8557 -1.62159,1.7004 -2.25662,2.6874 -0.3921,0.6165 -0.60052,1.2972 -0.69835,2.0144 -0.0648,0.6415 -0.0542,1.2873 -0.0532,1.9312 0.0351,0.6998 0.1244,1.4011 0.33276,2.0715 0.11945,0.3571 0.33186,0.6194 0.6717,0.7762 0.22551,0.08 0.48372,0.1318 0.72381,0.087 0.0559,-0.011 0.52162,-0.1684 0.55888,-0.1808 0.54916,-0.2997 1.87559,-1.0005 -0.60674,0.3598 -0.0982,0.054 0.18906,-0.1201 0.28213,-0.1824 0.21376,-0.143 0.26512,-0.1851 0.46569,-0.3346 0.24054,-0.18 0.12658,-0.092 0.3424,-0.2617 l 1.71907,-0.6913 c -0.21784,0.1831 -0.1012,0.092 -0.35158,0.2719 -1.01387,0.7828 -2.13696,1.4308 -3.3009,1.9611 -0.51068,0.1524 -0.88777,0.2254 -1.38511,-0.01 -0.36622,-0.2066 -0.6055,-0.5062 -0.73429,-0.9112 -0.20413,-0.6903 -0.28113,-1.409 -0.34813,-2.1238 -0.004,-0.6502 -0.0146,-1.3021 0.038,-1.9509 0.0928,-0.7431 0.28868,-1.4524 0.68841,-2.0955 0.0802,-0.1333 0.15295,-0.2712 0.24045,-0.3997 0.17973,-0.264 0.44806,-0.5661 0.65294,-0.8036 0.45265,-0.5248 0.91567,-1.0402 1.39384,-1.5419 0.89184,-0.8997 1.83184,-1.7498 2.80656,-2.5592 0.2761,-0.2564 0.56185,-0.5063 0.80011,-0.7993 0.0396,0.021 -0.0878,0.017 -0.13207,0.024 -0.22104,0.031 -0.43378,0.1 -0.64664,0.1641 -0.74708,0.2466 -1.48661,0.5202 -2.19586,0.8624 2.44463,-1.4457 0.97478,-0.6248 0.49702,-0.2572 -0.29102,0.2239 -0.54001,0.5004 -0.79529,0.7622 -0.92575,0.9765 -0.97889,1.08 -2.54507,1.8884 -0.25666,0.1212 -0.40015,0.1068 -0.60094,-0.1041 -0.15843,-0.2095 -0.28535,-0.4431 -0.48103,-0.6233 -0.53342,-0.6025 -1.12818,-1.1492 -1.69322,-1.7213 -0.98084,-0.9983 -1.97675,-1.9849 -2.84964,-3.0818 -0.0938,-0.1054 -0.18768,-0.2107 -0.28138,-0.3162 -0.0521,-0.059 -0.21537,-0.1251 -0.15588,-0.1761 1.41409,-1.214 1.33403,-1.5318 1.69931,-0.7303 0.27567,0.628 0.56627,1.2498 0.81712,1.8885 0.52491,1.3529 1.00892,2.7231 1.40527,4.1197 0.31849,1.3302 0.63355,2.6815 0.5419,4.06 -0.0362,0.9485 -0.0918,1.9144 -0.34929,2.8318 -0.0847,0.2347 -0.1139,0.3545 -0.24905,0.5692 -0.59386,0.9436 -1.87471,1.3891 -2.7166,1.9248 -1.07142,0.5265 -2.21127,0.8989 -3.41719,0.9043 -0.16764,-0.014 -0.33654,-0.016 -0.50293,-0.04 -0.49555,-0.073 -0.95749,-0.2895 -1.30044,-0.6569 l 1.60034,-0.9608 z"
         id="path7461-3"
         style="fill:#000000;fill-opacity:1;stroke:#000000;stroke-width:0.25149;stroke-linecap:round;stroke-linejoin:round;stroke-miterlimit:4;stroke-opacity:1;stroke-dasharray:none" />
      <path
         inkscape:connector-curvature="0"
         d="m 854.81114,1021.1506 c -0.73938,0.2071 -2.34202,1.1965 0.45554,-0.4044 -0.38803,0.2065 -0.61836,0.5425 -0.79993,0.9302 -0.1036,0.3106 -0.2142,0.6511 -0.19168,0.9845 0.0156,0.2306 0.0756,0.3465 0.15403,0.562 0.30715,0.6068 0.77946,1.1058 1.33993,1.4838 0.41366,0.2881 0.88389,0.4192 1.38304,0.4252 0.38515,-0.087 0.74306,-0.2375 1.09573,-0.4123 0.15033,-0.075 0.5909,-0.3179 0.44672,-0.2321 -1.66182,0.9893 -1.24558,0.7222 -0.65754,0.3195 0.48419,-0.373 1.0105,-0.8057 1.13521,-1.4399 0.0174,-0.089 0.0162,-0.1799 0.0243,-0.2698 -0.032,-0.7933 -0.53327,-1.4143 -1.01691,-2.0008 -0.30486,-0.3393 -0.6501,-0.6629 -1.06691,-0.861 -0.21155,-0.1006 -0.31998,-0.1184 -0.54401,-0.1779 -0.45193,-0.025 -0.92555,0.018 -1.3546,0.1741 -0.19836,0.072 -0.499,0.2393 -0.68336,0.3368 2.51318,-1.5077 0.86648,-0.5123 0.34815,-0.062 l -1.71056,0.6997 c 0.79602,-0.7657 1.85893,-1.2168 2.78422,-1.7768 0.26856,-0.1306 0.42711,-0.2209 0.71412,-0.308 0.45677,-0.1387 0.94853,-0.1711 1.41899,-0.1018 0.24193,0.077 0.33998,0.097 0.56719,0.2178 0.42308,0.2254 0.77196,0.5679 1.08405,0.9255 0.5088,0.6264 1.02529,1.2756 1.10279,2.1094 -0.004,0.1012 0.002,0.2032 -0.0112,0.3036 -0.0928,0.6824 -0.60047,1.1675 -1.11667,1.5707 -1.00126,0.7187 -0.4882,0.3709 -2.42365,1.4672 -0.5043,0.2856 -1.05594,0.5275 -1.63514,0.5951 -0.52177,-0.046 -1.00725,-0.1999 -1.43231,-0.5166 -0.57487,-0.4193 -1.05826,-0.9487 -1.39493,-1.5794 -0.0786,-0.2055 -0.16776,-0.4012 -0.19462,-0.6229 -0.0421,-0.3472 0.0735,-0.7121 0.15715,-1.043 0.16082,-0.4085 0.36492,-0.7958 0.74915,-1.0357 0.90312,-0.5198 1.74823,-1.1163 2.75567,-1.3944 l -1.48194,1.1332 z"
         id="path7463-6"
         style="fill:#000000;fill-opacity:1;stroke:#000000;stroke-width:0.25149;stroke-linecap:round;stroke-linejoin:round;stroke-miterlimit:4;stroke-opacity:1;stroke-dasharray:none" />
      <path
         inkscape:connector-curvature="0"
         d="m 862.60733,1021.9051 c -0.32026,0.1024 -0.65299,0.1903 -0.95744,0.3362 -0.10224,0.049 -0.19823,0.1101 -0.29734,0.1651 0.4207,-0.2356 0.8414,-0.4712 1.2621,-0.7068 -0.4994,0.337 -0.86997,0.6738 -1.09341,1.2386 -0.1462,0.4653 -0.0761,0.8587 0.29233,1.2028 0.0889,0.083 0.1935,0.1478 0.29025,0.2216 0.70423,0.4046 1.53781,0.5494 2.34441,0.4638 0.23122,-0.024 0.458,-0.081 0.687,-0.1208 0.52995,-0.1368 0.76091,-0.1749 1.25861,-0.3838 0.16511,-0.069 0.63498,-0.3304 0.48124,-0.2386 -2.23817,1.3365 -1.22508,0.7542 -0.87359,0.3984 0.0779,-0.079 0.13985,-0.1722 0.20977,-0.2583 0.30652,-0.4795 0.31437,-0.9061 0.0985,-1.417 -0.0396,-0.09 -0.26803,-0.5604 -0.42908,-0.4586 -0.0279,0.018 -0.042,0.051 -0.063,0.076 2.54219,-1.4497 1.57432,-1.2073 1.32776,-0.5008 -0.10641,0.3049 -0.12498,0.6013 -0.13961,0.9215 0.17661,1.4863 0.83323,2.8626 1.37265,4.2435 0.6559,1.8244 1.28813,3.7176 1.36091,5.6745 0.0145,0.3894 -0.0234,0.779 -0.0352,1.1686 -0.0582,0.3745 -0.0908,0.7539 -0.17451,1.1236 -0.27317,1.2059 -0.89484,2.3097 -1.81795,3.137 -0.16273,0.1458 -0.34694,0.2657 -0.52041,0.3986 -0.69414,0.3626 -1.35446,0.7991 -2.08243,1.0879 -0.30177,0.1197 -1.03017,-0.13 -1.26895,-0.2365 -0.88751,-0.3956 -1.65401,-1.0455 -2.40797,-1.6406 -1.27194,-1.0888 -2.51724,-2.2246 -3.65512,-3.4553 -0.58949,-0.6376 -0.73522,-0.8522 -1.24726,-1.5117 -0.43575,-0.7271 -0.94943,-1.5701 -0.52101,-2.4271 0.25354,-0.5072 0.55956,-0.6912 0.98423,-1.0605 1.27273,-0.8247 1.37693,-0.9187 3.21953,-1.8517 0.44971,-0.2278 1.89996,-0.7427 2.34378,-0.8976 0.88509,-0.3088 1.83691,-0.6147 2.72693,-0.9055 2.3381,-0.6745 4.62812,-1.4959 6.89146,-2.3865 0.19213,-0.082 0.38451,-0.1627 0.57637,-0.245 0.14658,-0.063 0.29425,-0.1233 0.43896,-0.1903 0.29579,-0.1371 0.57212,-0.3067 0.87728,-0.4229 0.41382,-0.059 0.55896,0.4391 0.68284,0.7418 0.28528,0.7705 0.44603,1.5785 0.5154,2.3954 0.0171,0.366 0.029,0.7336 -0.0228,1.0975 -0.005,0.037 0.0139,0.095 -0.0201,0.1109 -0.5544,0.2582 -1.1333,0.4601 -1.69995,0.6901 10e-4,-0.1125 -0.005,-0.2255 0.004,-0.3377 0.0133,-0.1633 0.0414,-0.325 0.063,-0.4874 0.1257,-0.9479 0.29035,-1.8832 0.48324,-2.8196 0.19554,-0.8168 0.36436,-1.6723 0.83117,-2.3853 0.52862,-0.5535 1.7043,-1.6447 2.27678,-1.0096 0.06,0.066 0.10195,0.1472 0.15292,0.2208 0.11204,0.1981 0.20884,0.3486 0.28213,0.5681 0.20609,0.6171 0.29858,1.3405 0.4077,1.9824 0.14242,0.5555 0.0881,1.2207 0.25666,1.7654 0.22291,-0.5987 -0.002,0.028 -1.60316,0.7911 -0.0325,0.016 0.0489,-0.053 0.0671,-0.084 0.0417,-0.071 0.12329,-0.2801 0.15508,-0.3443 0.0434,-0.088 0.0929,-0.1719 0.13929,-0.2578 0.30109,-0.4825 0.55595,-0.9925 0.88772,-1.4553 0.55469,-0.695 1.07359,-0.8467 2.0338,-1.3743 0.0329,-0.018 0.0773,-0.01 0.11261,0.01 0.045,0.016 0.08,0.053 0.11998,0.079 0.37552,0.395 0.50628,0.9539 0.63307,1.4682 0.11019,0.5601 0.16916,1.1313 0.374,1.667 0.0499,0.07 0.0906,0.1479 0.14963,0.2106 0.42981,0.457 1.14073,0.7985 1.72696,0.9843 0.22059,0.07 0.44786,0.1166 0.67178,0.1749 0.94813,0.2366 1.89949,0.2484 2.84254,-0.011 0.20874,-0.057 0.41839,-0.1173 0.6161,-0.2054 0.18416,-0.082 0.34911,-0.2019 0.52366,-0.3029 -0.36314,0.1874 -0.69956,0.4397 -1.08942,0.5622 -0.15033,0.047 0.23391,-0.2118 0.34123,-0.3272 0.31637,-0.3401 0.49725,-0.7183 0.62459,-1.1582 0.0873,-0.3664 0.0858,-0.7428 0.0757,-1.1166 -0.10214,-0.7716 -0.78379,-0.012 1.57619,-0.9706 0.043,-0.018 -0.0252,0.089 -0.0325,0.1353 -0.0105,0.067 -0.0137,0.1342 -0.0206,0.2013 -0.0335,0.608 -0.0474,1.2173 0.0202,1.823 0.0688,0.3897 0.14329,0.7878 0.44874,1.0613 0.2149,0.1415 0.44296,0.1511 0.68034,0.073 0.57124,-0.2882 1.42868,-0.7883 -1.1689,0.6782 -0.0922,0.052 0.17823,-0.1143 0.26582,-0.1737 l 1.72898,-0.6875 c -0.13385,0.1099 -0.10953,0.099 -0.26324,0.1885 -0.5841,0.3415 -1.30743,0.9119 -2.04656,1.1199 -0.28849,0.031 -0.55748,-0.032 -0.78311,-0.2236 -0.31399,-0.3274 -0.41646,-0.7448 -0.48645,-1.185 -0.0743,-0.6127 -0.0594,-1.2282 -0.0514,-1.8445 0.002,-0.082 0.01,-0.3683 0.0155,-0.3721 1.22312,-0.8124 1.61856,-1.5813 1.77377,-0.6732 0.009,0.3928 0.009,0.788 -0.0729,1.1745 -0.40256,1.604 -1.4656,1.9694 -2.92692,2.8345 -0.17968,0.091 -0.35179,0.1981 -0.53903,0.2718 -1.1255,0.4432 -2.35188,0.4076 -3.50958,0.1301 -0.23125,-0.061 -0.46608,-0.1105 -0.69377,-0.184 -0.58238,-0.188 -1.40137,-0.59 -1.83089,-1.0418 -0.0707,-0.074 -0.12171,-0.1655 -0.18257,-0.2482 -0.20417,-0.5463 -0.26301,-1.1251 -0.36806,-1.696 -0.10589,-0.4424 -0.21103,-0.9895 -0.57655,-1.2965 -0.0863,0.011 -0.0417,0 -0.1309,0.047 0.49403,-0.2932 0.98806,-0.5865 1.48209,-0.8797 0.0418,-0.024 -0.0765,0.059 -0.11155,0.092 -0.088,0.083 -0.15927,0.1828 -0.25427,0.2588 -0.3546,0.4458 -0.61035,0.9514 -0.90651,1.4362 -0.11134,0.1906 -0.20333,0.372 -0.27419,0.581 -0.0144,0.043 0.002,0.1065 -0.037,0.1297 -1.67176,1.0056 -1.30097,1.4123 -1.76759,0.8263 -0.14032,-0.5915 -0.0684,-1.2195 -0.20506,-1.8138 -0.13373,-0.8319 -0.23662,-1.7229 -0.68881,-2.4507 -0.0786,-0.095 -0.11239,-0.1812 -0.23733,-0.2043 -0.0338,-0.01 -0.13192,0.028 -0.10274,0.01 0.48475,-0.3029 0.98812,-0.5749 1.4781,-0.8692 0.044,-0.026 -0.0961,0.038 -0.13958,0.065 -0.0513,0.032 -0.0953,0.075 -0.14292,0.1121 -0.5512,0.6573 -0.71744,1.5447 -0.94033,2.3499 -0.2511,1.1608 -0.46667,2.3381 -0.50211,3.5279 -0.54135,0.3318 -1.07175,0.6821 -1.62404,0.9953 -0.0304,0.017 0.0302,-0.063 0.04,-0.097 0.10113,-0.3479 0.0723,-0.7161 0.0723,-1.073 -0.0467,-0.7985 -0.19597,-1.5926 -0.50099,-2.3352 -0.0582,-0.1343 -0.16515,-0.5237 -0.36871,-0.5375 -0.0472,0 -0.13384,0.034 -0.17143,0.048 -0.60207,0.2681 -1.1868,0.5757 -1.81251,0.79 -2.24327,0.8437 -4.50571,1.6345 -6.80628,2.3092 -1.33539,0.4418 -2.6801,0.8688 -3.98801,1.3886 -0.37647,0.1496 -0.72112,0.3958 -1.11818,0.4762 -0.20391,0.041 0.70124,-0.4449 0.51419,-0.3538 -0.27277,0.1328 -0.51554,0.32 -0.77331,0.48 -0.48143,0.3865 -1.0718,0.7863 -1.18588,1.4525 -0.11229,0.6558 0.30534,1.2621 0.58779,1.8057 0.17468,0.2387 0.3409,0.4838 0.52402,0.716 1.25062,1.586 2.77237,2.9468 4.32165,4.2314 0.76005,0.5675 1.53525,1.2021 2.43384,1.5462 0.20737,0.08 0.42495,0.1396 0.64564,0.1642 0.18827,0.021 0.66951,-0.1887 0.56756,-0.029 -0.21235,0.3325 -0.65087,0.446 -0.9763,0.669 0.18214,-0.1272 0.37488,-0.2403 0.54641,-0.3815 0.95281,-0.7839 1.62066,-1.8661 1.91793,-3.062 0.0903,-0.3634 0.12563,-0.7382 0.18844,-1.1073 0.0181,-0.3842 0.0641,-0.7681 0.0543,-1.1526 -0.0495,-1.9411 -0.70786,-3.8142 -1.37124,-5.6146 -0.56277,-1.3919 -1.24763,-2.7639 -1.49268,-4.2575 -0.008,-0.3536 3.7e-4,-0.6227 0.086,-0.9648 0.005,-0.019 0.0997,-0.3596 0.14199,-0.3887 0.54283,-0.3739 1.12093,-0.6937 1.6814,-1.0405 0.0426,0 0.0866,0 0.12787,0.01 0.26478,0.072 0.39171,0.4009 0.50237,0.6157 0.23568,0.5565 0.26802,1.0516 -0.0318,1.5983 -0.068,0.097 -0.12682,0.202 -0.20408,0.2923 -0.55211,0.6452 -1.65641,1.098 -2.21836,1.4107 -0.53748,0.2991 -1.15582,0.4269 -1.74702,0.5654 -0.23669,0.036 -0.47152,0.087 -0.71006,0.1065 -0.85204,0.069 -1.72244,-0.083 -2.44976,-0.5408 -0.10442,-0.083 -0.21692,-0.1575 -0.31326,-0.25 -0.40734,-0.3914 -0.53448,-0.8233 -0.39972,-1.3636 0.20319,-0.6461 0.52175,-0.9588 1.06479,-1.3565 1.04794,-0.6191 1.99535,-1.302 3.17582,-1.5918 l -1.48194,1.1332 z"
         id="path7465-2"
         style="fill:#000000;fill-opacity:1;stroke:#000000;stroke-width:0.25149;stroke-linecap:round;stroke-linejoin:round;stroke-miterlimit:4;stroke-opacity:1;stroke-dasharray:none" />
      <path
         inkscape:connector-curvature="0"
         d="m 888.01823,1016.2554 c -0.22427,0.2631 -0.40349,0.5643 -0.48877,0.9007 -0.0611,0.3364 0.1396,0.4226 0.41544,0.5433 0.44625,0.1634 0.82768,0.1455 1.2847,0.065 0.61115,-0.2095 1.58174,-0.8066 -1.13483,0.692 -0.0381,0.021 0.0724,-0.049 0.10456,-0.078 0.0766,-0.07 0.0844,-0.099 0.1345,-0.1863 0.0923,-0.207 0.0832,-0.4008 -0.0356,-0.5915 -0.1581,-0.1498 -0.39577,-0.1357 -0.59977,-0.1457 -0.21068,0.019 -0.41133,0.072 -0.5826,0.1981 l 1.45485,-1.1716 c 0.20716,-0.078 0.41908,-0.128 0.64289,-0.1102 0.26627,0.026 0.52823,0.064 0.70089,0.2917 0.14063,0.2365 0.19621,0.4811 0.11494,0.7512 -0.2947,0.8892 -1.41409,1.2487 -2.28016,1.4605 -0.46147,0.058 -0.91767,0.033 -1.35153,-0.1528 -0.31186,-0.1609 -0.59147,-0.3623 -0.54423,-0.7527 0.0576,-0.3624 0.23436,-0.687 0.44672,-0.9831 l 1.718,-0.7299 z"
         id="path7467-1"
         style="fill:#000000;fill-opacity:1;stroke:#000000;stroke-width:0.25149;stroke-linecap:round;stroke-linejoin:round;stroke-miterlimit:4;stroke-opacity:1;stroke-dasharray:none" />
      <path
         inkscape:connector-curvature="0"
         d="m 864.17351,1020.7872 c 0.35372,-0.172 0.69126,-0.3752 1.05615,-0.5235 0.22862,-0.1485 0.47943,-0.217 0.74691,-0.2463 0.24604,-0.019 0.49307,-0.016 0.73962,-0.015 0.24471,-0.026 0.452,0.041 0.66696,0.1458 0.15047,0.1206 0.26923,0.2808 0.38352,0.4358 0.0994,0.1805 0.15779,0.383 0.21894,0.5797 0.0548,0.2016 0.12947,0.3942 0.16897,0.6001 0.038,0.2418 0.0406,0.4871 0.0436,0.7313 10e-4,0.1259 8.9e-4,0.2518 8.9e-4,0.3777 l -1.66203,0.8466 c 1.3e-4,-0.1253 3.8e-4,-0.2505 -1.3e-4,-0.3758 -0.002,-0.2343 -0.002,-0.4696 -0.0316,-0.7024 -0.0328,-0.2008 -0.10624,-0.3854 -0.15968,-0.5802 -0.0519,-0.177 -0.10783,-0.3572 -0.18817,-0.5221 -0.0978,-0.1283 -0.193,-0.2748 -0.33359,-0.3578 -0.19746,-0.086 -0.40338,-0.091 -0.61678,-0.082 -0.24133,0 -0.48422,-10e-5 -0.7231,0.039 -0.25263,0.054 -0.48026,0.1622 -0.71025,0.2776 -0.35785,0.1664 -0.70401,0.3572 -1.05088,0.5451 l 1.45069,-1.1736 z"
         id="path7469-4"
         style="fill:#000000;fill-opacity:1;stroke:#000000;stroke-width:0.25149;stroke-linecap:round;stroke-linejoin:round;stroke-miterlimit:4;stroke-opacity:1;stroke-dasharray:none" />
    </g>
    <path
       inkscape:connector-curvature="0"
       style="fill:none;stroke:#000000;stroke-width:5.67282009;stroke-linecap:butt;stroke-linejoin:miter;stroke-miterlimit:4;stroke-opacity:1;stroke-dasharray:none"
       d="m 295.54976,692.32538 0,313.27032"
       id="path7457-0" />
    <path
       inkscape:connector-curvature="0"
       style="fill:none;stroke:#000000;stroke-width:5.67844009;stroke-linecap:butt;stroke-linejoin:miter;stroke-miterlimit:4;stroke-opacity:1;stroke-dasharray:none"
       d="m 591.36138,692.42431 0,303.44199 0,10.4485"
       id="path7455-8"
       sodipodi:nodetypes="ccc" />
    <g
       inkscape:label="Layer 1"
       id="g3916"
       transform="matrix(1.1644437,0,0,1.1644437,44.248806,-236.76226)">
      <path
         sodipodi:type="arc"
         style="fill:#000000;fill-opacity:1;stroke:#000000;stroke-width:4.86199999;stroke-linecap:round;stroke-linejoin:miter;stroke-miterlimit:4;stroke-opacity:1;stroke-dasharray:none"
         id="path3918"
         sodipodi:cx="385.3732"
         sodipodi:cy="78.41539"
         sodipodi:rx="61.518291"
         sodipodi:ry="5.3033009"
         d="m 446.89149,78.41539 c 0,2.928932 -27.54268,5.303301 -61.51829,5.303301 -33.97561,0 -61.51829,-2.374369 -61.51829,-5.303301 0,-2.928932 27.54268,-5.303301 61.51829,-5.303301 33.97561,0 61.51829,2.374369 61.51829,5.303301 z"
         transform="matrix(0.72039406,0,0,0.72039406,-225.83485,981.09953)" />
      <path
         style="fill:#ffffff;fill-opacity:1;stroke:#000000;stroke-width:2.5;stroke-linecap:round;stroke-linejoin:round;stroke-miterlimit:4;stroke-opacity:1;stroke-dasharray:none"
         d="m 89.850772,977.4512 0,34.4985 c 0,14.4129 -11.60318,26.0161 -26.016113,26.0161 l -25.52646,0 c -14.41293,0 -26.01611,-11.6032 -26.01611,-26.0161 l 0,-34.4985"
         id="path3920"
         sodipodi:nodetypes="cccccz"
         inkscape:connector-curvature="0" />
      <path
         style="fill:none;stroke:#000000;stroke-width:3.5;stroke-linecap:round;stroke-linejoin:miter;stroke-miterlimit:4;stroke-opacity:1;stroke-dasharray:none"
         d="m 17.422369,971.84861 0,13.35842"
         id="path3922"
         inkscape:connector-curvature="0" />
      <path
         style="fill:none;stroke:#000000;stroke-width:3.5;stroke-linecap:round;stroke-linejoin:miter;stroke-miterlimit:4;stroke-opacity:1;stroke-dasharray:none"
         d="m 23.102099,968.44098 0,13.35844"
         id="path3924"
         inkscape:connector-curvature="0" />
      <path
         style="fill:none;stroke:#000000;stroke-width:3.5;stroke-linecap:round;stroke-linejoin:miter;stroke-miterlimit:4;stroke-opacity:1;stroke-dasharray:none"
         d="m 29.963139,967.17718 0,13.35842"
         id="path3926"
         inkscape:connector-curvature="0" />
      <path
         style="fill:none;stroke:#000000;stroke-width:3.5;stroke-linecap:round;stroke-linejoin:miter;stroke-miterlimit:4;stroke-opacity:1;stroke-dasharray:none"
         d="m 36.401249,968.23205 0,13.35843"
         id="path3928"
         inkscape:connector-curvature="0" />
      <path
         style="fill:none;stroke:#000000;stroke-width:3.5;stroke-linecap:round;stroke-linejoin:miter;stroke-miterlimit:4;stroke-opacity:1;stroke-dasharray:none"
         d="m 44.813099,967.39118 0,13.35844"
         id="path3930"
         inkscape:connector-curvature="0" />
      <path
         style="fill:none;stroke:#000000;stroke-width:3.5;stroke-linecap:round;stroke-linejoin:miter;stroke-miterlimit:4;stroke-opacity:1;stroke-dasharray:none"
         d="m 52.845605,968.96639 0,13.35843"
         id="path3932"
         inkscape:connector-curvature="0" />
      <path
         style="fill:none;stroke:#000000;stroke-width:3.5;stroke-linecap:round;stroke-linejoin:miter;stroke-miterlimit:4;stroke-opacity:1;stroke-dasharray:none"
         d="m 60.508969,968.84004 0,13.35844"
         id="path3934"
         inkscape:connector-curvature="0" />
      <path
         style="fill:none;stroke:#000000;stroke-width:3.5;stroke-linecap:round;stroke-linejoin:miter;stroke-miterlimit:4;stroke-opacity:1;stroke-dasharray:none"
         d="m 68.074939,967.60515 0,13.35844"
         id="path3936"
         inkscape:connector-curvature="0" />
      <path
         style="fill:none;stroke:#000000;stroke-width:3.5;stroke-linecap:round;stroke-linejoin:miter;stroke-miterlimit:4;stroke-opacity:1;stroke-dasharray:none"
         d="m 75.217952,969.79293 0,13.35844"
         id="path3938"
         inkscape:connector-curvature="0" />
      <path
         style="fill:none;stroke:#000000;stroke-width:3.5;stroke-linecap:round;stroke-linejoin:miter;stroke-miterlimit:4;stroke-opacity:1;stroke-dasharray:none"
         d="m 82.906702,969.52733 0,13.35843"
         id="path3940"
         inkscape:connector-curvature="0" />
      <path
         style="fill:none;stroke:#000000;stroke-width:0.5;stroke-linecap:round;stroke-linejoin:miter;stroke-miterlimit:4;stroke-opacity:1;stroke-dasharray:none"
         d="m 45.040585,1024.2964 19.081696,-3.0803"
         id="path3942"
         inkscape:connector-curvature="0"
         sodipodi:nodetypes="cc" />
      <path
         style="fill:none;stroke:#000000;stroke-width:1.5;stroke-linecap:butt;stroke-linejoin:miter;stroke-miterlimit:4;stroke-opacity:1;stroke-dasharray:none"
         d="m 12.968693,996.50844 77.140159,0"
         id="path3944"
         inkscape:connector-curvature="0"
         sodipodi:nodetypes="cc" />
      <rect
         style="fill:#000000;fill-opacity:1;stroke:#000000;stroke-width:2;stroke-linecap:round;stroke-miterlimit:4;stroke-opacity:1;stroke-dasharray:none"
         id="rect3946"
         width="18.04336"
         height="9.1039934"
         x="32.934505"
         y="991.95642"
         ry="1.6363796" />
      <rect
         ry="1.6363796"
         y="991.95642"
         x="61.672359"
         height="9.1039934"
         width="18.04336"
         id="rect3948"
         style="fill:#000000;fill-opacity:1;stroke:#000000;stroke-width:2;stroke-linecap:round;stroke-miterlimit:4;stroke-opacity:1;stroke-dasharray:none" />
    </g>
    <g
       inkscape:label="Layer 1"
       id="g3978"
       transform="matrix(1.1644437,0,0,1.1644437,332.14228,-238.78257)">
      <path
         sodipodi:type="arc"
         style="fill:#000000;fill-opacity:1;stroke:#000000;stroke-width:4.86199999;stroke-linecap:round;stroke-linejoin:miter;stroke-miterlimit:4;stroke-opacity:1;stroke-dasharray:none"
         id="path3980"
         sodipodi:cx="385.3732"
         sodipodi:cy="78.41539"
         sodipodi:rx="61.518291"
         sodipodi:ry="5.3033009"
         d="m 446.89149,78.41539 c 0,2.928932 -27.54268,5.303301 -61.51829,5.303301 -33.97561,0 -61.51829,-2.374369 -61.51829,-5.303301 0,-2.928932 27.54268,-5.303301 61.51829,-5.303301 33.97561,0 61.51829,2.374369 61.51829,5.303301 z"
         transform="matrix(0.72039406,0,0,0.72039406,-225.83485,981.09953)" />
      <path
         style="fill:#ffffff;fill-opacity:1;stroke:#000000;stroke-width:2.5;stroke-linecap:round;stroke-linejoin:round;stroke-miterlimit:4;stroke-opacity:1;stroke-dasharray:none"
         d="m 89.850772,977.4512 0,34.4985 c 0,14.4129 -11.60318,26.0161 -26.016113,26.0161 l -25.52646,0 c -14.41293,0 -26.01611,-11.6032 -26.01611,-26.0161 l 0,-34.4985"
         id="path3982"
         sodipodi:nodetypes="cccccz"
         inkscape:connector-curvature="0" />
      <path
         style="fill:none;stroke:#000000;stroke-width:3.5;stroke-linecap:round;stroke-linejoin:miter;stroke-miterlimit:4;stroke-opacity:1;stroke-dasharray:none"
         d="m 17.422369,971.84861 0,13.35842"
         id="path3984"
         inkscape:connector-curvature="0" />
      <path
         style="fill:none;stroke:#000000;stroke-width:3.5;stroke-linecap:round;stroke-linejoin:miter;stroke-miterlimit:4;stroke-opacity:1;stroke-dasharray:none"
         d="m 23.102099,968.44098 0,13.35844"
         id="path3986"
         inkscape:connector-curvature="0" />
      <path
         style="fill:none;stroke:#000000;stroke-width:3.5;stroke-linecap:round;stroke-linejoin:miter;stroke-miterlimit:4;stroke-opacity:1;stroke-dasharray:none"
         d="m 29.963139,967.17718 0,13.35842"
         id="path3988"
         inkscape:connector-curvature="0" />
      <path
         style="fill:none;stroke:#000000;stroke-width:3.5;stroke-linecap:round;stroke-linejoin:miter;stroke-miterlimit:4;stroke-opacity:1;stroke-dasharray:none"
         d="m 36.401249,968.23205 0,13.35843"
         id="path3990"
         inkscape:connector-curvature="0" />
      <path
         style="fill:none;stroke:#000000;stroke-width:3.5;stroke-linecap:round;stroke-linejoin:miter;stroke-miterlimit:4;stroke-opacity:1;stroke-dasharray:none"
         d="m 44.813099,967.39118 0,13.35844"
         id="path3992"
         inkscape:connector-curvature="0" />
      <path
         style="fill:none;stroke:#000000;stroke-width:3.5;stroke-linecap:round;stroke-linejoin:miter;stroke-miterlimit:4;stroke-opacity:1;stroke-dasharray:none"
         d="m 52.845605,968.96639 0,13.35843"
         id="path3994"
         inkscape:connector-curvature="0" />
      <path
         style="fill:none;stroke:#000000;stroke-width:3.5;stroke-linecap:round;stroke-linejoin:miter;stroke-miterlimit:4;stroke-opacity:1;stroke-dasharray:none"
         d="m 60.508969,968.84004 0,13.35844"
         id="path3996"
         inkscape:connector-curvature="0" />
      <path
         style="fill:none;stroke:#000000;stroke-width:3.5;stroke-linecap:round;stroke-linejoin:miter;stroke-miterlimit:4;stroke-opacity:1;stroke-dasharray:none"
         d="m 68.074939,967.60515 0,13.35844"
         id="path3998"
         inkscape:connector-curvature="0" />
      <path
         style="fill:none;stroke:#000000;stroke-width:3.5;stroke-linecap:round;stroke-linejoin:miter;stroke-miterlimit:4;stroke-opacity:1;stroke-dasharray:none"
         d="m 75.217952,969.79293 0,13.35844"
         id="path4000"
         inkscape:connector-curvature="0" />
      <path
         style="fill:none;stroke:#000000;stroke-width:3.5;stroke-linecap:round;stroke-linejoin:miter;stroke-miterlimit:4;stroke-opacity:1;stroke-dasharray:none"
         d="m 82.906702,969.52733 0,13.35843"
         id="path4002"
         inkscape:connector-curvature="0" />
      <path
         style="fill:none;stroke:#000000;stroke-width:0.5;stroke-linecap:round;stroke-linejoin:miter;stroke-miterlimit:4;stroke-opacity:1;stroke-dasharray:none"
         d="m 56.314799,1026.4651 c -6.789542,1.9851 -13.088263,0.5241 -19.081696,-3.0803"
         id="path4004"
         inkscape:connector-curvature="0"
         sodipodi:nodetypes="cc" />
      <path
         style="fill:none;stroke:#000000;stroke-width:1.5;stroke-linecap:butt;stroke-linejoin:miter;stroke-miterlimit:4;stroke-opacity:1;stroke-dasharray:none"
         d="m 12.968693,996.50844 77.140159,0"
         id="path4006"
         inkscape:connector-curvature="0"
         sodipodi:nodetypes="cc" />
      <rect
         style="fill:#000000;fill-opacity:1;stroke:#000000;stroke-width:2;stroke-linecap:round;stroke-miterlimit:4;stroke-opacity:1;stroke-dasharray:none"
         id="rect4008"
         width="18.04336"
         height="9.1039934"
         x="32.934505"
         y="991.95642"
         ry="1.6363796" />
      <rect
         ry="1.6363796"
         y="991.95642"
         x="61.672359"
         height="9.1039934"
         width="18.04336"
         id="rect4010"
         style="fill:#000000;fill-opacity:1;stroke:#000000;stroke-width:2;stroke-linecap:round;stroke-miterlimit:4;stroke-opacity:1;stroke-dasharray:none" />
    </g>
    <path
       sodipodi:type="arc"
       style="fill:#000000;fill-opacity:1;stroke:#000000;stroke-width:4.86199999;stroke-linecap:round;stroke-linejoin:miter;stroke-miterlimit:4;stroke-opacity:1;stroke-dasharray:none"
       id="shadow"
       sodipodi:cx="385.3732"
       sodipodi:cy="78.41539"
       sodipodi:rx="61.518291"
       sodipodi:ry="5.3033009"
       d="m 446.89149,78.41539 a 61.518291,5.3033009 0 1 1 -123.03658,0 61.518291,5.3033009 0 1 1 123.03658,0 z"
       transform="matrix(0.83885832,0,0,0.83885832,349.99272,903.6526)" />
    <path
       style="fill:#ffffff;fill-opacity:1;stroke:#000000;stroke-width:2.91110921;stroke-linecap:round;stroke-linejoin:round;stroke-miterlimit:4;stroke-opacity:1;stroke-dasharray:none"
       d="m 644.54588,880.35087 40.17156,0 c 16.78301,0 30.29429,13.51125 30.29429,30.2943 l 0,29.72413 c 0,16.78304 -13.51128,30.29429 -30.29429,30.29429 l -40.17156,0"
       id="body"
       sodipodi:nodetypes="cccccz"
       inkscape:connector-curvature="0" />
    <path
       style="fill:none;stroke:#000000;stroke-width:4.07555294;stroke-linecap:round;stroke-linejoin:miter;stroke-miterlimit:4;stroke-opacity:1;stroke-dasharray:none"
       d="m 638.02198,964.68967 15.55513,0"
       id="hair1"
       inkscape:connector-curvature="0" />
    <path
       style="fill:none;stroke:#000000;stroke-width:4.07555294;stroke-linecap:round;stroke-linejoin:miter;stroke-miterlimit:4;stroke-opacity:1;stroke-dasharray:none"
       d="m 634.05399,958.07595 15.55515,0"
       id="hair2"
       inkscape:connector-curvature="0" />
    <path
       style="fill:none;stroke:#000000;stroke-width:4.07555294;stroke-linecap:round;stroke-linejoin:miter;stroke-miterlimit:4;stroke-opacity:1;stroke-dasharray:none"
       d="m 632.58236,950.08665 15.55513,0"
       id="hair3"
       inkscape:connector-curvature="0" />
    <path
       style="fill:none;stroke:#000000;stroke-width:4.07555294;stroke-linecap:round;stroke-linejoin:miter;stroke-miterlimit:4;stroke-opacity:1;stroke-dasharray:none"
       d="m 633.8107,942.58983 15.55514,0"
       id="hair4"
       inkscape:connector-curvature="0" />
    <path
       style="fill:none;stroke:#000000;stroke-width:4.07555294;stroke-linecap:round;stroke-linejoin:miter;stroke-miterlimit:4;stroke-opacity:1;stroke-dasharray:none"
       d="m 632.83155,932.79471 15.55516,0"
       id="hair5"
       inkscape:connector-curvature="0" />
    <path
       style="fill:none;stroke:#000000;stroke-width:4.07555294;stroke-linecap:round;stroke-linejoin:miter;stroke-miterlimit:4;stroke-opacity:1;stroke-dasharray:none"
       d="m 634.6658,923.44131 15.55514,0"
       id="hair6"
       inkscape:connector-curvature="0" />
    <path
       style="fill:none;stroke:#000000;stroke-width:4.07555294;stroke-linecap:round;stroke-linejoin:miter;stroke-miterlimit:4;stroke-opacity:1;stroke-dasharray:none"
       d="m 634.51867,914.51775 15.55515,0"
       id="hair7"
       inkscape:connector-curvature="0" />
    <path
       style="fill:none;stroke:#000000;stroke-width:4.07555294;stroke-linecap:round;stroke-linejoin:miter;stroke-miterlimit:4;stroke-opacity:1;stroke-dasharray:none"
       d="m 633.08071,905.70761 15.55515,0"
       id="hair8"
       inkscape:connector-curvature="0" />
    <path
       style="fill:none;stroke:#000000;stroke-width:4.07555294;stroke-linecap:round;stroke-linejoin:miter;stroke-miterlimit:4;stroke-opacity:1;stroke-dasharray:none"
       d="m 635.62826,897.38997 15.55515,0"
       id="hair9"
       inkscape:connector-curvature="0" />
    <path
       style="fill:none;stroke:#000000;stroke-width:4.07555294;stroke-linecap:round;stroke-linejoin:miter;stroke-miterlimit:4;stroke-opacity:1;stroke-dasharray:none"
       d="m 635.31898,888.43685 15.55514,0"
       id="hair10"
       inkscape:connector-curvature="0" />
    <path
       style="fill:none;stroke:#000000;stroke-width:1.7466656;stroke-linecap:butt;stroke-linejoin:miter;stroke-miterlimit:4;stroke-opacity:1;stroke-dasharray:none"
       d="m 666.73696,969.87573 0,-89.82538"
       id="glasses-bar"
       inkscape:connector-curvature="0"
       sodipodi:nodetypes="cc" />
    <rect
       style="fill:#000000;fill-opacity:1;stroke:#000000;stroke-width:2.32888746;stroke-linecap:round;stroke-miterlimit:4;stroke-opacity:1;stroke-dasharray:none"
       id="left-glass"
       width="21.010477"
       height="10.601088"
       x="-946.62671"
       y="661.4364"
       ry="1.9054719"
       transform="matrix(0,-1,1,0,0,0)" />
    <rect
       ry="1.9054719"
       y="661.4364"
       x="-913.16309"
       height="10.601088"
       width="21.010477"
       id="right-glass"
       style="fill:#000000;fill-opacity:1;stroke:#000000;stroke-width:2.32888746;stroke-linecap:round;stroke-miterlimit:4;stroke-opacity:1;stroke-dasharray:none"
       transform="matrix(0,-1,1,0,0,0)" />
    <g
       inkscape:label="Layer 1"
       id="g3950"
       transform="matrix(-1.1644437,0,0,1.1644437,286.17862,-245.19722)">
      <path
         sodipodi:type="arc"
         style="fill:#000000;fill-opacity:1;stroke:#000000;stroke-width:1;stroke-miterlimit:4;stroke-opacity:1;stroke-dasharray:none"
         id="path3952"
         sodipodi:cx="92.85714"
         sodipodi:cy="169.64285"
         sodipodi:rx="61.42857"
         sodipodi:ry="8.2142859"
         d="m 154.28571,169.64285 c 0,4.53663 -27.50251,8.21429 -61.42857,8.21429 -33.926063,0 -61.42857,-3.67766 -61.42857,-8.21429 0,-4.53662 27.502507,-8.21428 61.42857,-8.21428 33.92606,0 61.42857,3.67766 61.42857,8.21428 z"
         transform="matrix(-0.60213047,0,0,0.60213047,106.30564,942.26976)" />
      <path
         inkscape:connector-curvature="0"
         style="fill:#ffffff;fill-opacity:1;stroke:#000000;stroke-width:2.19295907;stroke-linecap:round;stroke-linejoin:round;stroke-miterlimit:4;stroke-opacity:1"
         d="m 58.47028,975.33362 -19.448171,0 c -3.161006,16.99944 -18.112232,12.8621 -19.952344,19.95235 l 3.345348,30.98693 c 6.596739,11.6033 15.03731,18.9686 23.297684,18.7359 l 5.154435,0 c 8.355038,-0.4499 21.143188,-10.4744 23.297688,-21.1689 l 4.25771,-28.55393 c -1.29947,-4.92754 -12.9618,-0.7979 -19.95235,-19.95235 z"
         id="path3954"
         sodipodi:nodetypes="ccccccccc" />
      <path
         inkscape:connector-curvature="0"
         style="fill:#000000;fill-opacity:1;stroke:#000000;stroke-width:1.20426095;stroke-linecap:round;stroke-linejoin:round;stroke-miterlimit:4;stroke-opacity:1;stroke-dasharray:none"
         id="path3956"
         d="m 70.11652,1002.6337 c -0.90882,-0.2646 -1.81053,-0.5151 -2.74576,-0.6612 -0.95243,-0.2002 -1.91243,-0.3297 -2.87591,-0.4616 -0.75708,-0.1334 -1.50452,-0.2771 -2.26712,-0.3705 -1.11108,-0.1618 -2.24296,-0.2316 -3.36591,-0.257 -0.56406,-0.042 -1.12095,-0.024 -1.6838,0.014 l 2.90517,3.4486 c 0.54329,-0.037 1.08486,-0.033 1.62905,-0.011 1.11855,0.043 2.24134,0.1056 3.34487,0.3018 0.75705,0.1049 1.50228,0.2777 2.26208,0.3656 0.9609,0.1229 1.91208,0.2903 2.86367,0.4712 0.92556,0.1664 1.8237,0.4395 2.72284,0.7124 l -2.78918,-3.552 z" />
      <path
         inkscape:connector-curvature="0"
         style="fill:#000000;fill-opacity:1;stroke:#000000;stroke-width:1.20426095;stroke-linecap:round;stroke-linejoin:round;stroke-miterlimit:4;stroke-opacity:1;stroke-dasharray:none"
         id="path3958"
         d="m 40.968685,1003.1934 c 0.906512,-0.2723 1.806043,-0.5306 2.739989,-0.6846 0.950683,-0.2085 1.909538,-0.3462 2.871859,-0.4862 0.755919,-0.14 1.502109,-0.2901 2.263868,-0.39 1.109654,-0.1713 2.240911,-0.2509 3.363589,-0.2858 0.563686,-0.047 1.120693,-0.034 1.683862,-5e-4 l -2.875554,3.4733 c -0.543578,-0.032 -1.085094,-0.023 -1.629093,0 -1.118124,0.052 -2.240344,0.1248 -3.342166,0.3305 -0.756118,0.1113 -1.499839,0.2905 -2.258865,0.385 -0.959814,0.1311 -1.909523,0.3065 -2.859533,0.4956 -0.924083,0.1742 -1.819857,0.455 -2.716629,0.7356 l 2.758673,-3.5756 z" />
      <g
         id="g3960"
         transform="matrix(-0.60213047,0,0,0.60213047,296.0244,865.39683)">
        <g
           transform="translate(-143.81118,-15.182412)"
           id="g3962">
          <path
             sodipodi:type="arc"
             style="fill:#ffffff;fill-opacity:1;stroke:#000000;stroke-width:2;stroke-linecap:round;stroke-linejoin:round;stroke-miterlimit:4;stroke-opacity:1;stroke-dasharray:none"
             id="path3964"
             sodipodi:cx="533.0517"
             sodipodi:cy="257.9523"
             sodipodi:rx="5.3677931"
             sodipodi:ry="5.5168986"
             d="m 538.41949,257.9523 c 0,3.0469 -2.40324,5.5169 -5.36779,5.5169 -2.96455,0 -5.3678,-2.47 -5.3678,-5.5169 0,-3.0469 2.40325,-5.5169 5.3678,-5.5169 2.96455,0 5.36779,2.47 5.36779,5.5169 z"
             transform="translate(23.023982,0.745512)" />
          <path
             sodipodi:type="arc"
             style="fill:#ffffff;fill-opacity:1;stroke:#000000;stroke-width:2;stroke-linecap:round;stroke-linejoin:round;stroke-miterlimit:4;stroke-opacity:1;stroke-dasharray:none"
             id="path3966"
             sodipodi:cx="554.37378"
             sodipodi:cy="260.48709"
             sodipodi:rx="0.89463222"
             sodipodi:ry="1.640159"
             d="m 555.26841,260.48709 c 0,0.90584 -0.40054,1.64016 -0.89463,1.64016 -0.49409,0 -0.89463,-0.73432 -0.89463,-1.64016 0,-0.90583 0.40054,-1.64016 0.89463,-1.64016 0.49409,0 0.89463,0.73433 0.89463,1.64016 z"
             transform="translate(-0.6326005,-1.8254434)" />
        </g>
        <g
           transform="translate(-143.81118,-15.182412)"
           id="g3968">
          <path
             sodipodi:type="arc"
             style="fill:#ffffff;fill-opacity:1;stroke:#000000;stroke-width:2;stroke-linecap:round;stroke-linejoin:round;stroke-miterlimit:4;stroke-opacity:1;stroke-dasharray:none"
             id="path3970"
             sodipodi:cx="533.0517"
             sodipodi:cy="257.9523"
             sodipodi:rx="5.3677931"
             sodipodi:ry="5.5168986"
             d="m 538.41949,257.9523 c 0,3.0469 -2.40324,5.5169 -5.36779,5.5169 -2.96455,0 -5.3678,-2.47 -5.3678,-5.5169 0,-3.0469 2.40325,-5.5169 5.3678,-5.5169 2.96455,0 5.36779,2.47 5.36779,5.5169 z" />
          <path
             sodipodi:type="arc"
             style="fill:#ffffff;fill-opacity:1;stroke:#000000;stroke-width:2;stroke-linecap:round;stroke-linejoin:round;stroke-miterlimit:4;stroke-opacity:1;stroke-dasharray:none"
             id="path3972"
             sodipodi:cx="554.37378"
             sodipodi:cy="260.48709"
             sodipodi:rx="0.89463222"
             sodipodi:ry="1.640159"
             d="m 555.26841,260.48709 c 0,0.90584 -0.40054,1.64016 -0.89463,1.64016 -0.49409,0 -0.89463,-0.73432 -0.89463,-1.64016 0,-0.90583 0.40054,-1.64016 0.89463,-1.64016 0.49409,0 0.89463,0.73433 0.89463,1.64016 z"
             transform="translate(-23.682192,-2.4474609)" />
        </g>
      </g>
      <path
         style="fill:#000000;stroke:#000000;stroke-width:0;stroke-linecap:butt;stroke-linejoin:miter;stroke-miterlimit:4;stroke-opacity:1;stroke-dasharray:none"
         d="m 56.47373,981.07928 4.22386,1.47835 c 2.99137,4.08321 5.30863,8.43813 15.4171,11.19323 0.5429,11.12194 4.31167,11.89584 7.60294,12.88274 3.2507,-1.3481 3.61037,-6.4597 5.06863,-10.13723 6.10557,-9.19087 4.97402,-16.60212 -1.05597,-22.80884 0.52916,-0.82426 0.17739,0.1066 0.30928,-1.71077 -0.38415,-0.068 -2.5108,-1.52995 -4.85743,-3.1679 -1.31506,0.46346 -1.03307,-0.14334 -1.36525,1.49958 0.25147,-1.6071 -0.55756,-2.78999 -1.26715,-4.01266 -0.92384,-0.96297 -2.78474,-2.08211 -4.89368,-3.24258 0.49113,-1.45149 -0.60193,-2.67668 -1.44212,-3.93799 -3.29113,-2.43108 -6.40887,-3.119 -9.50368,-3.37909 -4.98134,-2.24357 -9.16426,-3.08818 -10.982049,0.21119 -1.743024,-0.23232 -2.902763,-1.19378 -6.124596,0.42239 -6.938586,-1.82825 -7.957363,3.284 -9.292495,8.02533 -1.322109,0.87745 -2.837239,0.71666 -3.963621,0.224 -5.301631,-2.17729 -6.968344,2.52767 -10.819894,6.74538 -7.101658,-4.01283 -6.240482,6.81419 -9.292496,10.34845 -5.399135,-3.86724 -7.424854,25.05614 1.777023,25.31754 0.456016,3.1441 1.332938,4.1837 2.173791,5.4035 2.963329,2.0584 3.251963,1.586 4.819005,2.3232 0.913262,-0.2109 -1.474169,-6.0372 -1.589248,-8.5458 2.181664,-4.1537 2.286364,-8.99973 2.111925,-13.93878 l 2.111933,-1.26716 c 5.764965,3.90235 8.066243,-3.29021 12.038005,-5.06864 1.729533,0.90226 3.326498,0.21368 4.857434,-1.26716 10.3021,4.18237 12.225764,0.0346 13.938753,-3.59028 z"
         id="path3974"
         inkscape:connector-curvature="0"
         sodipodi:nodetypes="cccccccccccccccccccccccccccc" />
      <path
         style="fill:none;stroke:#000000;stroke-width:1px;stroke-linecap:butt;stroke-linejoin:miter;stroke-opacity:1"
         d="m 53.928572,1034.505 c -3.897337,-0.3884 -8.669681,0.098 -10.357143,-2.5"
         id="path3976"
         inkscape:connector-curvature="0"
         sodipodi:nodetypes="cc" />
    </g>
    <g
       inkscape:label="Layer 1"
       id="g4012"
       transform="matrix(-1.1644437,0,0,1.1644437,574.0721,-247.21753)">
      <path
         sodipodi:type="arc"
         style="fill:#000000;fill-opacity:1;stroke:#000000;stroke-width:1;stroke-miterlimit:4;stroke-opacity:1;stroke-dasharray:none"
         id="path4014"
         sodipodi:cx="92.85714"
         sodipodi:cy="169.64285"
         sodipodi:rx="61.42857"
         sodipodi:ry="8.2142859"
         d="m 154.28571,169.64285 c 0,4.53663 -27.50251,8.21429 -61.42857,8.21429 -33.926063,0 -61.42857,-3.67766 -61.42857,-8.21429 0,-4.53662 27.502507,-8.21428 61.42857,-8.21428 33.92606,0 61.42857,3.67766 61.42857,8.21428 z"
         transform="matrix(-0.60213047,0,0,0.60213047,106.30564,942.26976)" />
      <path
         inkscape:connector-curvature="0"
         style="fill:#ffffff;fill-opacity:1;stroke:#000000;stroke-width:2.19295907;stroke-linecap:round;stroke-linejoin:round;stroke-miterlimit:4;stroke-opacity:1"
         d="m 58.47028,975.33362 -19.448171,0 c -3.161006,16.99944 -18.112232,12.8621 -19.952344,19.95235 l 3.345348,30.98693 c 6.596739,11.6033 15.03731,18.9686 23.297684,18.7359 l 5.154435,0 c 8.355038,-0.4499 21.143188,-10.4744 23.297688,-21.1689 l 4.25771,-28.55393 c -1.29947,-4.92754 -12.9618,-0.7979 -19.95235,-19.95235 z"
         id="path4016"
         sodipodi:nodetypes="ccccccccc" />
      <path
         inkscape:connector-curvature="0"
         style="fill:#000000;fill-opacity:1;stroke:#000000;stroke-width:1.20426095;stroke-linecap:round;stroke-linejoin:round;stroke-miterlimit:4;stroke-opacity:1;stroke-dasharray:none"
         id="path4018"
         d="m 70.11652,1002.6337 c -0.90882,-0.2646 -1.81053,-0.5151 -2.74576,-0.6612 -0.95243,-0.2002 -1.91243,-0.3297 -2.87591,-0.4616 -0.75708,-0.1334 -1.50452,-0.2771 -2.26712,-0.3705 -1.11108,-0.1618 -2.24296,-0.2316 -3.36591,-0.257 -0.56406,-0.042 -1.12095,-0.024 -1.6838,0.014 l 2.90517,3.4486 c 0.54329,-0.037 1.08486,-0.033 1.62905,-0.011 1.11855,0.043 2.24134,0.1056 3.34487,0.3018 0.75705,0.1049 1.50228,0.2777 2.26208,0.3656 0.9609,0.1229 1.91208,0.2903 2.86367,0.4712 0.92556,0.1664 1.8237,0.4395 2.72284,0.7124 l -2.78918,-3.552 z" />
      <path
         inkscape:connector-curvature="0"
         style="fill:#000000;fill-opacity:1;stroke:#000000;stroke-width:1.20426095;stroke-linecap:round;stroke-linejoin:round;stroke-miterlimit:4;stroke-opacity:1;stroke-dasharray:none"
         id="path4020"
         d="m 40.968685,1003.1934 c 0.906512,-0.2723 1.806043,-0.5306 2.739989,-0.6846 0.950683,-0.2085 1.909538,-0.3462 2.871859,-0.4862 0.755919,-0.14 1.502109,-0.2901 2.263868,-0.39 1.109654,-0.1713 2.240911,-0.2509 3.363589,-0.2858 0.563686,-0.047 1.120693,-0.034 1.683862,-5e-4 l -2.875554,3.4733 c -0.543578,-0.032 -1.085094,-0.023 -1.629093,0 -1.118124,0.052 -2.240344,0.1248 -3.342166,0.3305 -0.756118,0.1113 -1.499839,0.2905 -2.258865,0.385 -0.959814,0.1311 -1.909523,0.3065 -2.859533,0.4956 -0.924083,0.1742 -1.819857,0.455 -2.716629,0.7356 l 2.758673,-3.5756 z" />
      <g
         id="g4022"
         transform="matrix(-0.60213047,0,0,0.60213047,296.0244,865.39683)">
        <g
           transform="translate(-143.81118,-15.182412)"
           id="g4024">
          <path
             sodipodi:type="arc"
             style="fill:#ffffff;fill-opacity:1;stroke:#000000;stroke-width:2;stroke-linecap:round;stroke-linejoin:round;stroke-miterlimit:4;stroke-opacity:1;stroke-dasharray:none"
             id="path4026"
             sodipodi:cx="533.0517"
             sodipodi:cy="257.9523"
             sodipodi:rx="5.3677931"
             sodipodi:ry="5.5168986"
             d="m 538.41949,257.9523 c 0,3.0469 -2.40324,5.5169 -5.36779,5.5169 -2.96455,0 -5.3678,-2.47 -5.3678,-5.5169 0,-3.0469 2.40325,-5.5169 5.3678,-5.5169 2.96455,0 5.36779,2.47 5.36779,5.5169 z"
             transform="translate(23.023982,0.745512)" />
          <path
             sodipodi:type="arc"
             style="fill:#ffffff;fill-opacity:1;stroke:#000000;stroke-width:2;stroke-linecap:round;stroke-linejoin:round;stroke-miterlimit:4;stroke-opacity:1;stroke-dasharray:none"
             id="path4028"
             sodipodi:cx="554.37378"
             sodipodi:cy="260.48709"
             sodipodi:rx="0.89463222"
             sodipodi:ry="1.640159"
             d="m 555.26841,260.48709 c 0,0.90584 -0.40054,1.64016 -0.89463,1.64016 -0.49409,0 -0.89463,-0.73432 -0.89463,-1.64016 0,-0.90583 0.40054,-1.64016 0.89463,-1.64016 0.49409,0 0.89463,0.73433 0.89463,1.64016 z"
             transform="translate(-0.6326005,-1.8254434)" />
        </g>
        <g
           transform="translate(-143.81118,-15.182412)"
           id="g4030">
          <path
             sodipodi:type="arc"
             style="fill:#ffffff;fill-opacity:1;stroke:#000000;stroke-width:2;stroke-linecap:round;stroke-linejoin:round;stroke-miterlimit:4;stroke-opacity:1;stroke-dasharray:none"
             id="path4032"
             sodipodi:cx="533.0517"
             sodipodi:cy="257.9523"
             sodipodi:rx="5.3677931"
             sodipodi:ry="5.5168986"
             d="m 538.41949,257.9523 c 0,3.0469 -2.40324,5.5169 -5.36779,5.5169 -2.96455,0 -5.3678,-2.47 -5.3678,-5.5169 0,-3.0469 2.40325,-5.5169 5.3678,-5.5169 2.96455,0 5.36779,2.47 5.36779,5.5169 z" />
          <path
             sodipodi:type="arc"
             style="fill:#ffffff;fill-opacity:1;stroke:#000000;stroke-width:2;stroke-linecap:round;stroke-linejoin:round;stroke-miterlimit:4;stroke-opacity:1;stroke-dasharray:none"
             id="path4034"
             sodipodi:cx="554.37378"
             sodipodi:cy="260.48709"
             sodipodi:rx="0.89463222"
             sodipodi:ry="1.640159"
             d="m 555.26841,260.48709 c 0,0.90584 -0.40054,1.64016 -0.89463,1.64016 -0.49409,0 -0.89463,-0.73432 -0.89463,-1.64016 0,-0.90583 0.40054,-1.64016 0.89463,-1.64016 0.49409,0 0.89463,0.73433 0.89463,1.64016 z"
             transform="translate(-23.682192,-2.4474609)" />
        </g>
      </g>
      <path
         style="fill:#000000;stroke:#000000;stroke-width:0;stroke-linecap:butt;stroke-linejoin:miter;stroke-miterlimit:4;stroke-opacity:1;stroke-dasharray:none"
         d="m 56.47373,981.07928 4.22386,1.47835 c 2.99137,4.08321 5.30863,8.43813 15.4171,11.19323 0.5429,11.12194 4.31167,11.89584 7.60294,12.88274 3.2507,-1.3481 3.61037,-6.4597 5.06863,-10.13723 6.10557,-9.19087 4.97402,-16.60212 -1.05597,-22.80884 0.52916,-0.82426 0.17739,0.1066 0.30928,-1.71077 -0.38415,-0.068 -2.5108,-1.52995 -4.85743,-3.1679 -1.31506,0.46346 -1.03307,-0.14334 -1.36525,1.49958 0.25147,-1.6071 -0.55756,-2.78999 -1.26715,-4.01266 -0.92384,-0.96297 -2.78474,-2.08211 -4.89368,-3.24258 0.49113,-1.45149 -0.60193,-2.67668 -1.44212,-3.93799 -3.29113,-2.43108 -6.40887,-3.119 -9.50368,-3.37909 -4.98134,-2.24357 -9.16426,-3.08818 -10.982049,0.21119 -1.743024,-0.23232 -2.902763,-1.19378 -6.124596,0.42239 -6.938586,-1.82825 -7.957363,3.284 -9.292495,8.02533 -1.322109,0.87745 -2.837239,0.71666 -3.963621,0.224 -5.301631,-2.17729 -6.968344,2.52767 -10.819894,6.74538 -7.101658,-4.01283 -6.240482,6.81419 -9.292496,10.34845 -5.399135,-3.86724 -7.424854,25.05614 1.777023,25.31754 0.456016,3.1441 1.332938,4.1837 2.173791,5.4035 2.963329,2.0584 3.251963,1.586 4.819005,2.3232 0.913262,-0.2109 -1.474169,-6.0372 -1.589248,-8.5458 2.181664,-4.1537 2.286364,-8.99973 2.111925,-13.93878 l 2.111933,-1.26716 c 5.764965,3.90235 8.066243,-3.29021 12.038005,-5.06864 1.729533,0.90226 3.326498,0.21368 4.857434,-1.26716 10.3021,4.18237 12.225764,0.0346 13.938753,-3.59028 z"
         id="path4036"
         inkscape:connector-curvature="0"
         sodipodi:nodetypes="cccccccccccccccccccccccccccc" />
      <path
         style="fill:none;stroke:#000000;stroke-width:1px;stroke-linecap:butt;stroke-linejoin:miter;stroke-opacity:1"
         d="m 53.928572,1034.505 c -3.897337,-0.3884 -8.669681,0.098 -10.357143,-2.5"
         id="path4038"
         inkscape:connector-curvature="0"
         sodipodi:nodetypes="cc" />
    </g>
    <path
       sodipodi:type="arc"
       style="fill:#000000;fill-opacity:1;stroke:#000000;stroke-width:1;stroke-miterlimit:4;stroke-opacity:1;stroke-dasharray:none"
       id="path3092-4"
       sodipodi:cx="92.85714"
       sodipodi:cy="169.64285"
       sodipodi:rx="61.42857"
       sodipodi:ry="8.2142859"
       d="m 154.28571,169.64285 a 61.42857,8.2142859 0 1 1 -122.85714,0 61.42857,8.2142859 0 1 1 122.85714,0 z"
       transform="matrix(0.70114703,0,0,0.70114703,731.10757,850.00256)" />
    <path
       inkscape:connector-curvature="0"
       style="fill:#ffffff;fill-opacity:1;stroke:#000000;stroke-width:2.55357742;stroke-linecap:round;stroke-linejoin:round;stroke-miterlimit:4;stroke-opacity:1"
       d="m 829.16891,922.62707 0,22.6463 c -19.79489,3.68081 -14.97719,21.09068 -23.23339,23.23338 l -36.08253,-3.89547 c -13.51139,-7.68153 -22.08787,-17.5101 -21.8169,-27.12884 l 0,-6.00205 c 0.52388,-9.72897 12.19685,-24.62005 24.64999,-27.12884 l 33.24944,-4.95787 c 5.73785,1.51316 0.92911,15.09329 23.23339,23.23339 z"
       id="rect3153-3"
       sodipodi:nodetypes="ccccccccc" />
    <path
       sodipodi:type="arc"
       style="fill:#ffffff;fill-opacity:1;stroke:#000000;stroke-width:2;stroke-linecap:round;stroke-linejoin:round;stroke-miterlimit:4;stroke-opacity:1;stroke-dasharray:none"
       id="path3204-9"
       sodipodi:cx="533.0517"
       sodipodi:cy="257.9523"
       sodipodi:rx="5.3677931"
       sodipodi:ry="5.5168986"
       d="m 538.41949,257.9523 a 5.3677931,5.5168986 0 1 1 -10.73559,0 5.3677931,5.5168986 0 1 1 10.73559,0 z"
       transform="matrix(0,0.70114703,-0.70114703,0,967.3065,561.31909)" />
    <path
       sodipodi:type="arc"
       style="fill:#ffffff;fill-opacity:1;stroke:#000000;stroke-width:2;stroke-linecap:round;stroke-linejoin:round;stroke-miterlimit:4;stroke-opacity:1;stroke-dasharray:none"
       id="path3214-7"
       sodipodi:cx="554.37378"
       sodipodi:cy="260.48709"
       sodipodi:rx="0.89463222"
       sodipodi:ry="1.640159"
       d="m 555.26841,260.48709 a 0.89463222,1.640159 0 1 1 -1.78926,0 0.89463222,1.640159 0 1 1 1.78926,0 z"
       transform="matrix(0,0.70114703,-0.70114703,0,970.30867,546.24757)" />
    <path
       sodipodi:type="arc"
       style="fill:#ffffff;fill-opacity:1;stroke:#000000;stroke-width:2;stroke-linecap:round;stroke-linejoin:round;stroke-miterlimit:4;stroke-opacity:1;stroke-dasharray:none"
       id="path3202-8"
       sodipodi:cx="533.0517"
       sodipodi:cy="257.9523"
       sodipodi:rx="5.3677931"
       sodipodi:ry="5.5168986"
       d="m 538.41949,257.9523 a 5.3677931,5.5168986 0 1 1 -10.73559,0 5.3677931,5.5168986 0 1 1 10.73559,0 z"
       transform="matrix(0,0.70114703,-0.70114703,0,967.82921,545.17589)" />
    <path
       sodipodi:type="arc"
       style="fill:#ffffff;fill-opacity:1;stroke:#000000;stroke-width:2;stroke-linecap:round;stroke-linejoin:round;stroke-miterlimit:4;stroke-opacity:1;stroke-dasharray:none"
       id="path3216-0"
       sodipodi:cx="554.37378"
       sodipodi:cy="260.48709"
       sodipodi:rx="0.89463222"
       sodipodi:ry="1.640159"
       d="m 555.26841,260.48709 a 0.89463222,1.640159 0 1 1 -1.78926,0 0.89463222,1.640159 0 1 1 1.78926,0 z"
       transform="matrix(0,0.70114703,-0.70114703,0,970.87107,529.91683)" />
    <path
       style="fill:#000000;stroke:#000000;stroke-width:0;stroke-linecap:butt;stroke-linejoin:miter;stroke-miterlimit:4;stroke-opacity:1;stroke-dasharray:none"
       d="m 822.47841,924.95194 -1.72145,-4.91845 c -4.75467,-3.48328 -9.82573,-6.1816 -13.03389,-17.95234 -12.95087,-0.63218 -13.85203,-5.0207 -15.00122,-8.8532 1.56978,-3.78525 7.52195,-4.20407 11.80423,-5.90213 10.70225,-7.10959 19.33223,-5.79197 26.55961,1.22962 0.9598,-0.61618 -0.12413,-0.20656 1.9921,-0.36014 0.0792,0.44732 1.78154,2.92368 3.68884,5.6562 -0.53968,1.53131 0.16691,1.20295 -1.74618,1.58976 1.87138,-0.29282 3.24879,0.64925 4.67252,1.47552 1.12132,1.07576 2.4245,3.24268 3.7758,5.69842 1.69018,-0.5719 3.11684,0.70091 4.58557,1.67927 2.83085,3.83233 3.6319,7.46276 3.93476,11.0665 2.61251,5.80049 3.59601,10.67126 -0.24592,12.78797 0.27052,2.02966 1.39009,3.38011 -0.49185,7.13175 2.12889,8.07959 -3.82404,9.2659 -9.34505,10.82059 -1.02174,1.53952 -0.83451,3.3038 -0.26083,4.61541 2.53533,6.17345 -2.94333,8.11425 -7.85462,12.59916 4.67272,8.26948 -7.93474,7.26669 -12.05019,10.82059 4.50319,6.28699 -29.17646,8.64582 -29.48084,-2.06925 -3.66113,-0.531 -4.87169,-1.55213 -6.29208,-2.53125 -2.39689,-3.45063 -1.8468,-3.78673 -2.70523,-5.61146 0.24558,-1.06345 7.02998,1.71658 9.9511,1.85059 4.83675,-2.54043 10.47968,-2.66235 16.23093,-2.45922 l 1.47553,-2.45923 c -4.54406,-6.71298 3.83127,-9.39268 5.90215,-14.01758 -1.05063,-2.01394 -0.24882,-3.87352 1.47553,-5.65621 -4.87013,-11.99621 -0.0403,-14.23621 4.18068,-16.23089 z"
       id="path20063-5"
       inkscape:connector-curvature="0"
       sodipodi:nodetypes="cccccccccccccccccccccccccccc" />
    <path
       sodipodi:nodetypes="cc"
       inkscape:connector-curvature="0"
       id="path4107"
       d="m 758.33352,925.14886 c 7.03814,0.49785 8.43503,11.62721 2.91111,12.06031 z"
       style="fill:#000000;stroke:#000000;stroke-width:1.16444373px;stroke-linecap:butt;stroke-linejoin:miter;stroke-opacity:1" />
    <path
       style="fill:#000000;stroke:#000000;stroke-width:1.46442424999999998px;stroke-linecap:butt;stroke-linejoin:miter;stroke-opacity:1"
       d="m 704.48758,930.0056 c -7.10196,-0.78033 -8.51151,-18.22435 -2.9375,-18.90319 z"
       id="path94812"
       inkscape:connector-curvature="0"
       sodipodi:nodetypes="cc" />
    <g
       transform="matrix(0.89381076,0,0,0.89381076,192.47395,525.61358)"
       id="g4083">
      <path
         sodipodi:type="arc"
         style="fill:#000000;fill-opacity:1;fill-rule:nonzero;stroke:#000000;stroke-width:4;stroke-linecap:round;stroke-linejoin:bevel;stroke-miterlimit:4;stroke-opacity:1;stroke-dasharray:none;stroke-dashoffset:0"
         id="path4085"
         sodipodi:cx="47.603439"
         sodipodi:cy="88.00444"
         sodipodi:rx="16.793787"
         sodipodi:ry="2.1465743"
         d="m 64.397226,88.00444 c 0,1.185521 -7.518834,2.146575 -16.793787,2.146575 -9.274952,0 -16.793787,-0.961054 -16.793787,-2.146575 0,-1.18552 7.518835,-2.146574 16.793787,-2.146574 9.274953,0 16.793787,0.961054 16.793787,2.146574 z"
         transform="translate(428.17841,429.44203)" />
      <g
         transform="matrix(-0.21348562,-0.3955236,0.3955236,-0.21348562,157.88518,729.52214)"
         id="g4087">
        <path
           sodipodi:nodetypes="cccsaccccascc"
           inkscape:connector-curvature="0"
           id="path4089"
           d="m 223.74688,937.45014 9.72935,-17.78839 -16.94934,-9.27042 c -7.67674,1.73105 -27.62849,-14.33289 -32.09971,-31.33544 -0.66822,-2.54102 -1.46316,-5.98871 -3.33169,-8.31945 -1.20238,-1.49983 -4.75908,-3.25704 -4.75908,-3.25704 L 92.596705,821.67789 c -9.704316,12.53901 -19.533741,24.57756 -26.434504,48.33075 l 84.746589,46.35222 c 0,0 3.55725,1.80629 5.49338,1.91453 2.6146,0.14616 5.12308,-1.04284 7.66039,-1.74244 16.4072,-4.52379 40.58026,5.66143 42.73498,11.64678 z"
           style="fill:#ffffff;fill-opacity:1;fill-rule:nonzero;stroke:#000000;stroke-width:5.35573959;stroke-linecap:round;stroke-linejoin:bevel;stroke-miterlimit:4;stroke-opacity:1;stroke-dasharray:none;stroke-dashoffset:0" />
        <rect
           transform="matrix(0.4798636,-0.8773431,-0.8773431,-0.4798636,0,0)"
           y="-559.69409"
           x="-731.54712"
           height="54.705059"
           width="45.141235"
           id="rect4091"
           style="fill:#ffffff;fill-opacity:1;fill-rule:nonzero;stroke:#000000;stroke-width:5.35573959;stroke-linecap:round;stroke-linejoin:bevel;stroke-miterlimit:4;stroke-opacity:1;stroke-dasharray:none;stroke-dashoffset:0" />
      </g>
    </g>
    <g
       id="g3900"
       transform="matrix(0.89381076,0,0,0.89381076,405.11106,527.63388)">
      <path
         transform="translate(428.17841,429.44203)"
         d="m 64.397226,88.00444 c 0,1.185521 -7.518834,2.146575 -16.793787,2.146575 -9.274952,0 -16.793787,-0.961054 -16.793787,-2.146575 0,-1.18552 7.518835,-2.146574 16.793787,-2.146574 9.274953,0 16.793787,0.961054 16.793787,2.146574 z"
         sodipodi:ry="2.1465743"
         sodipodi:rx="16.793787"
         sodipodi:cy="88.00444"
         sodipodi:cx="47.603439"
         id="path81708"
         style="fill:#000000;fill-opacity:1;fill-rule:nonzero;stroke:#000000;stroke-width:4;stroke-linecap:round;stroke-linejoin:bevel;stroke-miterlimit:4;stroke-opacity:1;stroke-dasharray:none;stroke-dashoffset:0"
         sodipodi:type="arc" />
      <g
         id="g81630"
         transform="matrix(-0.21348562,-0.3955236,0.3955236,-0.21348562,157.88518,729.52214)">
        <path
           style="fill:#ffffff;fill-opacity:1;fill-rule:nonzero;stroke:#000000;stroke-width:5.35573959;stroke-linecap:round;stroke-linejoin:bevel;stroke-miterlimit:4;stroke-opacity:1;stroke-dasharray:none;stroke-dashoffset:0"
           d="m 223.74688,937.45014 9.72935,-17.78839 -16.94934,-9.27042 c -7.67674,1.73105 -27.62849,-14.33289 -32.09971,-31.33544 -0.66822,-2.54102 -1.46316,-5.98871 -3.33169,-8.31945 -1.20238,-1.49983 -4.75908,-3.25704 -4.75908,-3.25704 L 92.596705,821.67789 c -9.704316,12.53901 -19.533741,24.57756 -26.434504,48.33075 l 84.746589,46.35222 c 0,0 3.55725,1.80629 5.49338,1.91453 2.6146,0.14616 5.12308,-1.04284 7.66039,-1.74244 16.4072,-4.52379 40.58026,5.66143 42.73498,11.64678 z"
           id="rect72728"
           inkscape:connector-curvature="0"
           sodipodi:nodetypes="cccsaccccascc" />
        <rect
           style="fill:#ffffff;fill-opacity:1;fill-rule:nonzero;stroke:#000000;stroke-width:5.35573959;stroke-linecap:round;stroke-linejoin:bevel;stroke-miterlimit:4;stroke-opacity:1;stroke-dasharray:none;stroke-dashoffset:0"
           id="rect72731"
           width="45.141235"
           height="54.705059"
           x="-731.54712"
           y="-559.69409"
           transform="matrix(0.4798636,-0.8773431,-0.8773431,-0.4798636,0,0)" />
      </g>
    </g>
    <text
       sodipodi:linespacing="125%"
       id="text4040"
       y="759.41797"
       x="161.83827"
       style="font-size:20px;font-style:normal;font-weight:normal;line-height:125%;letter-spacing:0px;word-spacing:0px;fill:#000000;fill-opacity:1;stroke:none;font-family:Sans"
       xml:space="preserve"><tspan
         style="text-align:center;text-anchor:middle"
         y="759.41797"
         x="161.83827"
         id="tspan4042"
         sodipodi:role="line">Bon, on va bouffer un</tspan><tspan
         style="text-align:center;text-anchor:middle"
         id="tspan4044"
         y="784.41797"
         x="161.83827"
         sodipodi:role="line">truc avant la soirée ?</tspan></text>
    <text
       xml:space="preserve"
       style="font-size:20px;font-style:normal;font-weight:normal;line-height:125%;letter-spacing:0px;word-spacing:0px;fill:#000000;fill-opacity:1;stroke:none;font-family:Sans"
       x="445.69113"
       y="763.45856"
       id="text3908"
       sodipodi:linespacing="125%"><tspan
         sodipodi:role="line"
         x="445.69113"
         y="763.45856"
         id="tspan3912"
         style="text-align:center;text-anchor:middle">Bof, non. On aura besoin</tspan><tspan
         sodipodi:role="line"
         x="445.69113"
         y="788.45856"
         style="text-align:center;text-anchor:middle"
         id="tspan4048">de moins de bières</tspan><tspan
         sodipodi:role="line"
         x="445.69113"
         y="813.45856"
         style="text-align:center;text-anchor:middle"
         id="tspan4050">comme ça !</tspan></text>
    <path
       style="fill:none;stroke:#000000;stroke-width:1px;stroke-linecap:butt;stroke-linejoin:miter;stroke-opacity:1"
       d="m 158.59394,798.81389 33.33504,65.65992"
       id="path3914"
       inkscape:connector-curvature="0" />
    <path
       style="fill:none;stroke:#000000;stroke-width:1px;stroke-linecap:butt;stroke-linejoin:miter;stroke-opacity:1"
       d="M 437.85714,220.71429 415,276.42857"
       id="path4052"
       inkscape:connector-curvature="0"
       transform="translate(0,602.36218)" />
    <path
       transform="translate(-174.25131,692.77083)"
       d="m 809.13221,276.50629 a 10.859139,10.859139 0 1 1 -21.71828,0 10.859139,10.859139 0 1 1 21.71828,0 z"
       sodipodi:ry="10.859139"
       sodipodi:rx="10.859139"
       sodipodi:cy="276.50629"
       sodipodi:cx="798.27307"
       id="path4095"
       style="fill:#ffffff;fill-opacity:1;stroke:#000000;stroke-width:3;stroke-miterlimit:4;stroke-dasharray:none"
       sodipodi:type="arc" />
    <path
       sodipodi:type="arc"
       style="fill:#ffffff;fill-opacity:1;stroke:#000000;stroke-width:3;stroke-miterlimit:4;stroke-dasharray:none"
       id="path4093"
       sodipodi:cx="798.27307"
       sodipodi:cy="276.50629"
       sodipodi:rx="10.859139"
       sodipodi:ry="10.859139"
       d="m 809.13221,276.50629 a 10.859139,10.859139 0 1 1 -21.71828,0 10.859139,10.859139 0 1 1 21.71828,0 z"
       transform="translate(28.284271,693.78099)" />
    <path
       inkscape:connector-curvature="0"
       style="fill:#000000;fill-opacity:1;stroke:#000000;stroke-width:1.40229404;stroke-linecap:round;stroke-linejoin:round;stroke-miterlimit:4;stroke-opacity:1;stroke-dasharray:none"
       id="path3190-0"
       d="m 787.44365,907.38602 c 0.71091,0.84231 1.40344,1.68371 2.00069,2.61011 0.66296,0.91914 1.25424,1.87974 1.84972,2.84291 0.49959,0.74279 1.00558,1.47044 1.4652,2.23798 0.69702,1.10615 1.30594,2.27788 1.8634,3.46108 0.31112,0.58052 0.55497,1.18177 0.78043,1.79875 l -5.04272,-1.46316 c -0.21723,-0.59572 -0.47733,-1.17024 -0.75777,-1.73906 -0.57414,-1.17019 -1.17108,-2.33566 -1.90115,-3.41752 -0.46924,-0.75621 -1.00516,-1.46777 -1.4576,-2.23494 -0.58468,-0.96467 -1.21214,-1.89798 -1.85416,-2.82535 -0.61428,-0.90651 -1.32919,-1.73344 -2.04435,-2.56152 l 5.09799,1.29086 z" />
    <path
       inkscape:connector-curvature="0"
       style="fill:#000000;fill-opacity:1;stroke:#000000;stroke-width:1.40229404;stroke-linecap:round;stroke-linejoin:round;stroke-miterlimit:4;stroke-opacity:1;stroke-dasharray:none"
       id="path3192-2"
       d="m 789.35171,944.10369 c 0.45038,-1.00595 0.88357,-2.00594 1.20147,-3.06131 0.38335,-1.06653 0.68616,-2.15311 0.99216,-3.24335 0.27503,-0.85189 0.56027,-1.69104 0.78988,-2.5557 0.36423,-1.25567 0.62582,-2.55005 0.8345,-3.84122 0.13878,-0.64387 0.20735,-1.28901 0.25311,-1.94436 l -4.44204,2.79961 c -0.0445,0.6325 -0.13617,1.25646 -0.24433,1.88119 -0.22779,1.28334 -0.48012,2.5683 -0.8829,3.80978 -0.24192,0.85643 -0.5604,1.68836 -0.78336,2.55068 -0.29534,1.08867 -0.64031,2.15904 -1.00116,3.22769 -0.33975,1.04095 -0.79835,2.03323 -1.25687,3.02669 l 4.54265,-2.6493 z" />
    <text
       xml:space="preserve"
       style="font-size:20px;font-style:normal;font-weight:normal;line-height:125%;letter-spacing:0px;word-spacing:0px;fill:#000000;fill-opacity:1;stroke:none;font-family:Sans"
       x="665.43945"
       y="804.64862"
       id="text4109"
       sodipodi:linespacing="125%"><tspan
         sodipodi:role="line"
         id="tspan4111"
         x="665.43945"
         y="804.64862">Hmmurp...</tspan></text>
    <path
       style="fill:none;stroke:#000000;stroke-width:1px;stroke-linecap:butt;stroke-linejoin:miter;stroke-opacity:1"
       d="m 704.72516,820.29111 -17.85714,46.42857"
       id="path4115"
       inkscape:connector-curvature="0" />
  </g>
</svg>
