<svg version="1.0" viewBox="0 0 900 450" xmlns="http://www.w3.org/2000/svg" xmlns:svg="http://www.w3.org/2000/svg">
<path d="M-347.1276,772.1422H-156.9186A7.5735,7.5735 0 0 1 -149.345,779.7157V816.0686A7.5735,7.5735 0 0 1 -156.9186,823.6422H-347.1276A7.5735,7.5735 0 0 1 -354.7011,816.0686V779.7157A7.5735,7.5735 0 0 1 -347.1276,772.1422z" stroke="#000" stroke-linecap="round" stroke-linejoin="round" stroke-width="5.8088" transform="matrix(1,0,.87861,.47753,0,0)"/>
<path d="M53.2322,88.625H834.2341A31.621,31.621 0 0 1 865.8552,120.246V368.5948A31.621,31.621 0 0 1 834.2341,400.2159H53.2322A31.621,31.621 0 0 1 21.6112,368.5948V120.246A31.621,31.621 0 0 1 53.2322,88.625z" fill="#fff" stroke="#000" stroke-linecap="round" stroke-width="7.4907"/>
<path d="M619.0706,208.5203L660.9919,208.5203L666.8003,287.8172L613.2622,287.8172L619.0706,208.5203z" fill="#f8ffff" stroke="#000" stroke-linecap="round" stroke-linejoin="round" stroke-width="2"/>
<path d="M20.2031,314.6396L597.0001,314.6396" fill="none" stroke="#000"/>
<path d="m446.8915,78.4154c0,2.9289-27.5427,5.3033-61.5183,5.3033-33.9756,0-61.5183,-2.3744-61.5183,-5.3033 0,-2.9289 27.5427,-5.3033 61.5183,-5.3033 33.9756,0 61.5183,2.3744 61.5183,5.3033z" stroke="#000" stroke-linecap="round" stroke-width="4.862" transform="matrix(-.83661,0,0,.83661,465.32741,285.45526)"/>
<g transform="matrix(-.83661,0,0,.83661,61.52735,36.74911)">
<path d="M-43.5297,288.8057L-43.5297,336.6941C-43.5297,356.7011-59.6364,372.8078-79.6434,372.8078L-115.0774,372.8078C-135.0844,372.8078-151.1912,356.7011-151.1912,336.6941L-151.1912,288.8057" fill="#fff" stroke="#000" stroke-linecap="round" stroke-linejoin="round" stroke-width="3.6422"/>
<path d="M-122.1431,308.6171H-98.6091A.7803,.7803 0 0 1 -97.8288,309.3974V319.4235A.7803,.7803 0 0 1 -98.6091,320.2038H-122.1431A.7803,.7803 0 0 1 -122.9234,319.4235V309.3974A.7803,.7803 0 0 1 -122.1431,308.6171z" stroke="#000" stroke-linecap="square" stroke-linejoin="round" stroke-width="3.7338"/>
<path d="M-80.7522,308.6171H-60.3393A2.3409,2.3409 0 0 1 -57.9985,310.958V317.8629A2.3409,2.3409 0 0 1 -60.3393,320.2038H-80.7522A2.3409,2.3409 0 0 1 -83.093,317.8629V310.958A2.3409,2.3409 0 0 1 -80.7522,308.6171z" stroke="#000" stroke-linecap="square" stroke-linejoin="round" stroke-width="3.7338"/>
<path d="M-148.8829,313.6717C-148.3338,313.6822-147.7844,313.6785-147.2351,313.6758C-146.8722,313.6736-146.5092,313.6722-146.1462,313.6715C-145.8537,313.6711-145.5613,313.6711-145.2688,313.6711C-144.9647,313.6705-144.6607,313.6717-144.3567,313.6723C-143.966,313.6626-143.5814,313.6719-143.1947,313.723C-142.7951,313.7775-142.3916,313.7947-141.9885,313.8057C-141.5833,313.7899-141.1856,313.8646-140.7845,313.9048C-140.3766,313.9415-139.9665,313.9454-139.5571,313.9498C-139.1269,313.9521-138.6968,313.9519-138.2666,313.9504C-137.893,313.9497-137.5194,313.9491-137.1458,313.9482C-136.8388,313.9474-136.5318,313.9472-136.2247,313.9471C-135.9332,313.947-135.6418,313.947-135.3502,313.947C-135.0587,313.947-134.7672,313.947-134.4756,313.947C-134.1569,313.9467-133.8382,313.9476-133.5196,313.949C-133.1253,313.9514-132.731,313.9494-132.3367,313.9484C-131.9659,313.9481-131.595,313.9488-131.2241,313.9499C-130.8274,313.9497-130.4307,313.9498-130.0339,313.9488C-129.654,313.949-129.274,313.9495-128.894,313.949C-128.5484,313.9477-128.2029,313.9475-127.8573,313.9492C-127.3241,313.9518-126.7909,313.9534-126.2577,313.9553C-125.5311,313.9581-124.8045,313.9587-124.0778,313.9563C-123.5446,313.9549-123.0113,313.9511-122.4781,313.9509C-122.0368,313.9515-121.5955,313.9508-121.1542,313.9493C-121.0931,313.9491-121.032,313.949-120.9709,313.9488L-122.7169,315.1481C-122.7774,315.1478-122.8379,315.1476-122.8984,315.1474C-123.3383,315.1459-123.7781,315.1453-124.218,315.1459C-124.7459,315.1457-125.2739,315.1418-125.8018,315.1405C-126.5294,315.1381-127.2571,315.1387-127.9846,315.1415C-128.5238,315.1434-129.0628,315.145-129.6019,315.1476C-129.9477,315.1493-130.2936,315.1491-130.6394,315.1478C-131.0195,315.1473-131.3996,315.1478-131.7797,315.148C-132.1754,315.147-132.5711,315.1471-132.9668,315.1469C-133.3391,315.1479-133.7115,315.1487-134.0838,315.1484C-134.4775,315.1474-134.8712,315.1454-135.2648,315.1478C-135.5854,315.1492-135.9059,315.1501-136.2265,315.1497C-136.5181,315.1497-136.8096,315.1497-137.1012,315.1497C-137.3926,315.1497-137.684,315.1497-137.9755,315.1497C-138.2815,315.1495-138.5875,315.1493-138.8935,315.1487C-139.2655,315.148-139.6375,315.1479-140.0095,315.1478C-140.4397,315.147-140.8698,315.1485-141.3,315.1437C-141.7147,315.1381-142.1302,315.1292-142.5427,315.0843C-142.9395,315.0397-143.3348,314.9871-143.7358,314.9973C-144.1436,314.9822-144.5506,314.9538-144.955,314.9006C-145.3371,314.8601-145.7204,314.8714-146.1043,314.8727C-146.4095,314.8733-146.7146,314.8745-147.0198,314.8739C-147.3119,314.8739-147.604,314.8739-147.8961,314.8735C-148.255,314.8728-148.6138,314.8714-148.9726,314.8693C-149.5259,314.8665-150.0792,314.863-150.6323,314.8733L-148.8829,313.6717z" stroke="#000" stroke-linecap="square" stroke-linejoin="round" stroke-width=".4767"/>
<path d="M-57.3881,313.9484C-56.6843,313.9602-55.9802,313.9586-55.2763,313.9581C-54.631,313.9572-53.9858,313.9554-53.3406,313.9525C-52.9094,313.9502-52.4782,313.9501-52.047,313.9495C-51.7073,313.9487-51.3675,313.9479-51.0277,313.9474C-50.7309,313.9691-50.4456,313.8899-50.1539,313.8518C-49.8613,313.8177-49.5662,313.8128-49.2718,313.8093C-48.9796,313.8072-48.6875,313.8081-48.3953,313.8085C-48.1035,313.8089-47.8117,313.809-47.5199,313.8091C-47.2282,313.8091-46.9364,313.8091-46.6446,313.8091C-46.3528,313.8091-46.061,313.8091-45.7692,313.8091C-45.4559,313.8085-45.1426,313.8102-44.8294,313.8103C-44.5121,313.81-44.1949,313.8096-43.8776,313.8093C-43.5838,313.8091-43.29,313.8091-42.9962,313.8091C-42.8018,313.8091-42.899,313.8091-42.7047,313.8091L-44.4556,315.0118C-44.6499,315.0118-44.5527,315.0118-44.7471,315.0118C-45.0407,315.0118-45.3343,315.0118-45.6279,315.0116C-45.9442,315.0113-46.2606,315.0109-46.577,315.0106C-46.8913,315.0107-47.2057,315.0124-47.5201,315.0118C-47.8119,315.0118-48.1037,315.0118-48.3955,315.0118C-48.6873,315.0118-48.9791,315.0118-49.2709,315.0117C-49.5627,315.0115-49.8545,315.0113-50.1463,315.011C-50.4376,315.0107-50.7289,315.0099-51.0202,315.0153C-51.3095,315.0227-51.5993,315.0348-51.8855,315.0788C-52.1815,315.1241-52.476,315.1695-52.7776,315.1494C-53.1153,315.1489-53.453,315.1481-53.7908,315.1473C-54.219,315.1467-54.6473,315.1466-55.0755,315.1442C-55.7153,315.1413-56.3552,315.1395-56.995,315.1387C-57.7084,315.1382-58.4219,315.1368-59.1352,315.1484L-57.3881,313.9484z" stroke="#000" stroke-linecap="square" stroke-linejoin="round" stroke-width=".4767"/>
<path d="M-97.681,314.1116C-97.1471,314.1792-96.6084,314.2005-96.0705,314.2165C-95.5904,314.228-95.1101,314.228-94.63,314.2268C-94.2335,314.2263-93.8371,314.2261-93.4407,314.2252C-92.6449,314.2456-91.8487,314.2356-91.0528,314.2319C-90.5718,314.2284-90.0909,314.2269-89.6099,314.225C-89.2264,314.225-88.8429,314.2245-88.4594,314.2256C-88.0562,314.2268-87.653,314.2246-87.2498,314.2253C-86.886,314.2244-86.5221,314.2245-86.1583,314.2246C-85.794,314.2251-85.4296,314.2248-85.0652,314.2241C-84.7171,314.2253-84.3691,314.2242-84.021,314.2236C-83.6805,314.2251-83.3399,314.2241-82.9994,314.2236C-82.6986,314.2232-82.3977,314.223-82.0969,314.223C-81.8453,314.2815-81.5923,314.3235-81.3342,314.3439C-81.0543,314.3611-80.7736,314.3611-80.4933,314.3619C-80.2016,314.3621-79.9099,314.3615-79.6182,314.3612C-79.4722,314.3611-79.3262,314.361-79.1802,314.361L-80.931,315.5637C-81.077,315.5638-81.223,315.5639-81.369,315.564C-81.661,315.5644-81.953,315.5651-82.245,315.5636C-82.5302,315.5612-82.816,315.5587-83.0999,315.5305C-83.3505,315.5012-83.5959,315.4409-83.8477,315.4256C-84.1479,315.4255-84.4481,315.4254-84.7483,315.4249C-85.0888,315.4245-85.4293,315.4235-85.7698,315.4249C-86.1175,315.4243-86.4651,315.4233-86.8128,315.4244C-87.1766,315.4237-87.5405,315.4234-87.9044,315.4239C-88.2676,315.4241-88.6307,315.4241-88.9939,315.4233C-89.3968,315.4239-89.7997,315.4217-90.2026,315.423C-90.5867,315.424-90.9708,315.4235-91.3549,315.4236C-91.8291,315.4216-92.3032,315.4202-92.7774,315.4166C-93.5801,315.4129-94.3831,315.4034-95.1857,315.424C-95.5815,315.4235-95.9772,315.4244-96.373,315.4236C-96.8515,315.4207-97.33,315.417-97.8082,315.401C-98.3559,315.3799-98.9029,315.3472-99.4483,315.2941L-97.681,314.1116z" stroke="#000" stroke-linecap="square" stroke-linejoin="round" stroke-width=".4767"/>
<path d="M-136.1855,276.2983L-136.1855,294.8415" fill="none" stroke="#000" stroke-linecap="round" stroke-width="4.8046"/>
<path d="M-126.6615,274.544L-126.6615,293.0872" fill="none" stroke="#000" stroke-linecap="round" stroke-width="4.8046"/>
<path d="M-117.7245,276.0083L-117.7245,294.5515" fill="none" stroke="#000" stroke-linecap="round" stroke-width="4.8046"/>
<path d="M-106.0478,274.841L-106.0478,293.3843" fill="none" stroke="#000" stroke-linecap="round" stroke-width="4.8046"/>
<path d="M-95.8892,277.0276L-95.8892,295.5709" fill="none" stroke="#000" stroke-linecap="round" stroke-width="4.8046"/>
<path d="M-84.2599,276.8522L-84.2599,295.3955" fill="none" stroke="#000" stroke-linecap="round" stroke-width="4.8046"/>
<path d="M-73.7574,275.1381L-73.7574,293.6813" fill="none" stroke="#000" stroke-linecap="round" stroke-width="4.8046"/>
<path d="M-63.8419,278.175L-63.8419,296.7182" fill="none" stroke="#000" stroke-linecap="round" stroke-width="4.8046"/>
<path d="M-53.169,277.8063L-53.169,296.3495" fill="none" stroke="#000" stroke-linecap="round" stroke-width="4.8046"/>
<path d="M-105.8017,352.8807L-78.6788,348.4525" fill="none" stroke="#000" stroke-width=".7749"/>
<path d="M-144.0697,281.0285L-144.0697,299.5717" fill="none" stroke="#000" stroke-linecap="round" stroke-width="4.8046"/>
</g>
<path d="M598.8529,85.3104L598.8529,399.2009" fill="none" stroke="#000" stroke-width="5.6784"/>
<path d="M295.1428,84.5857L295.1428,398.4762" fill="none" stroke="#000" stroke-width="5.6784"/>
<g transform="matrix(.12574,0,0,.12574,823.57806,427.76082)">
<path d="M162.9615,-66.1029C166.455,-62.0454 171.1969,-61.5587 176.2443,-61.2734C182.6298,-61.4455 189.026,-62.9739 194.9925,-65.2443C198.1805,-66.4574 199.9424,-67.4904 202.9171,-69.0527C185.1139,-58.637 195.0252,-64.2154 198.3536,-67.7512C200.078,-69.5831 201.1079,-71.5131 202.0803,-73.8002C204.6069,-80.9176 204.9343,-88.5711 205.3652,-96.044C206.205,-106.9224 203.9531,-117.6028 201.5284,-128.1342C198.5789,-139.2121 194.5731,-149.9773 190.1613,-160.547C188.0488,-165.5407 185.6597,-170.4087 183.3326,-175.3036C180.1965,-181.3209 177.6309,-177.584 195.344,-184.4552C195.9544,-184.6919 196.0751,-183.3682 196.4662,-182.8431C197.1211,-181.9638 197.8094,-181.1099 198.4809,-180.2434C205.0155,-171.2763 212.8739,-163.4194 220.7492,-155.6472C225.3824,-151.1349 230.3508,-146.9467 234.7812,-142.2286C236.4627,-140.8555 237.4679,-138.92 238.8212,-137.2745C240.143,-136.0803 241.1771,-137.3375 242.3452,-138.1546C221.9421,-125.9198 229.2084,-129.8742 233.1206,-133.6257C234.6613,-135.103 236.1138,-136.6818 237.5889,-138.2234C239.6824,-140.3121 241.6662,-142.5484 243.9587,-144.4296C250.0105,-149.3955 258.4541,-153.3638 264.7123,-156.9238C270.4949,-159.4778 276.4106,-161.6997 282.419,-163.6577C283.6619,-163.9272 288.4708,-165.7766 289.5688,-164.5267C289.8243,-164.2359 289.9278,-163.8408 290.1072,-163.4978C290.1321,-163.1471 290.2293,-162.7941 290.1818,-162.4458C289.8354,-159.9037 285.8996,-156.946 284.1819,-155.3646C276.2864,-148.8374 268.6258,-142.0481 261.3333,-134.8534C254.99,-128.0483 248.4375,-121.3307 243.3873,-113.4811C240.2691,-108.5784 238.6116,-103.1651 237.8336,-97.4612C237.3182,-92.3602 237.4023,-87.2238 237.4103,-82.1038C237.6896,-76.538 238.3996,-70.961 240.0566,-65.6294C241.0066,-62.7897 242.6958,-60.7035 245.3984,-59.4565C247.1918,-58.8245 249.2452,-58.4083 251.1546,-58.7689C251.5988,-58.8529 255.3028,-60.1078 255.5991,-60.2068C259.9663,-62.5901 270.5149,-68.1635 250.7739,-57.3451C249.993,-56.9172 252.2774,-58.3004 253.0176,-58.7957C254.7175,-59.9333 255.126,-60.2677 256.721,-61.457C258.634,-62.8882 257.7277,-62.1927 259.444,-63.5378L273.1151,-69.0361C271.3827,-67.5797 272.3103,-68.3061 270.3191,-66.8738C262.2562,-60.6484 253.3247,-55.4952 244.0683,-51.2776C240.0071,-50.0654 237.0083,-49.4853 233.0532,-51.3558C230.1407,-52.9982 228.2379,-55.381 227.2136,-58.6022C225.5902,-64.0918 224.9779,-69.8068 224.4451,-75.4915C224.414,-80.6627 224.3292,-85.8471 224.7473,-91.006C225.4856,-96.9163 227.043,-102.5571 230.2219,-107.6713C230.8593,-108.7308 231.4383,-109.8277 232.1341,-110.8497C233.5635,-112.949 235.6974,-115.3519 237.3267,-117.2406C240.9264,-121.4136 244.6087,-125.5129 248.4113,-129.5027C255.5038,-136.6573 262.9793,-143.4183 270.7308,-149.8547C272.9266,-151.8936 275.199,-153.8815 277.0938,-156.2117C277.4084,-156.0458 276.3957,-156.0728 276.0435,-156.0235C274.2856,-155.7778 272.5938,-155.2318 270.901,-154.7183C264.9598,-152.7572 259.0786,-150.5816 253.4382,-147.8602C272.8794,-159.3576 261.1903,-152.8293 257.3908,-149.9058C255.0765,-148.125 253.0963,-145.926 251.0661,-143.8444C243.704,-136.0782 243.2815,-135.2558 230.8263,-128.8268C228.7851,-127.8625 227.644,-127.977 226.0472,-129.6547C224.7873,-131.3205 223.7779,-133.1781 222.2218,-134.6111C217.9797,-139.4028 213.2498,-143.7505 208.7563,-148.2998C200.956,-156.2393 193.036,-164.0853 186.0942,-172.8083C185.3483,-173.6466 184.6017,-174.4843 183.8565,-175.3233C183.4425,-175.7895 182.1438,-176.3177 182.6168,-176.7238C193.8626,-186.3779 193.2258,-188.9054 196.1308,-182.5316C198.3231,-177.537 200.6341,-172.5923 202.629,-167.5129C206.8035,-156.7535 210.6525,-145.8567 213.8046,-134.7502C216.3374,-124.1716 218.8429,-113.4256 218.1141,-102.4633C217.8266,-94.9202 217.3841,-87.2389 215.3364,-79.9427C214.6632,-78.0762 214.4306,-77.1236 213.3557,-75.4158C208.633,-67.9123 198.4469,-64.3688 191.7517,-60.1093C183.2311,-55.9217 174.1664,-52.9607 164.5762,-52.9176C163.243,-53.0245 161.8998,-53.0436 160.5765,-53.2383C156.6356,-53.8182 152.962,-55.54 150.2346,-58.4617L162.9615,-66.1029z" stroke="#000" stroke-linecap="round" stroke-linejoin="round" stroke-width="2"/>
<path d="M285.1504,-83.2549C279.2704,-81.6082 266.5253,-73.74 288.7732,-86.471C285.6873,-84.8287 283.8556,-82.1564 282.4117,-79.0736C281.5877,-76.6037 280.7082,-73.8959 280.8873,-71.2445C281.0112,-69.4099 281.4883,-68.4885 282.1122,-66.775C284.5548,-61.9495 288.3109,-57.9808 292.7681,-54.9746C296.0578,-52.6838 299.7974,-51.6413 303.7669,-51.5931C306.8299,-52.2892 309.6761,-53.4821 312.4808,-54.8725C313.6763,-55.4652 317.18,-57.4003 316.0334,-56.7177C302.8176,-48.8508 306.1278,-50.9743 310.8042,-54.1772C314.6548,-57.1431 318.8403,-60.5843 319.8322,-65.6282C319.9707,-66.3328 319.9608,-67.0585 320.0251,-67.7736C319.7705,-74.0822 315.7842,-79.021 311.938,-83.6853C309.5135,-86.3835 306.7679,-88.9566 303.4532,-90.5325C301.7709,-91.3322 300.9086,-91.4744 299.127,-91.9474C295.533,-92.1428 291.7665,-91.8011 288.3544,-90.5627C286.7769,-89.9902 284.386,-88.6593 282.9199,-87.8841C302.9062,-99.8746 289.8107,-91.9587 285.6886,-88.3736L272.0851,-82.8087C278.4156,-88.898 286.8685,-92.4857 294.2269,-96.9393C296.3627,-97.9778 297.6236,-98.6956 299.9061,-99.3886C303.5386,-100.4916 307.4494,-100.7491 311.1907,-100.1978C313.1147,-99.5839 313.8945,-99.429 315.7014,-98.4661C319.0659,-96.6731 321.8405,-93.9498 324.3224,-91.1058C328.3687,-86.1242 332.4762,-80.9616 333.0924,-74.3305C333.0628,-73.5258 333.1121,-72.7144 333.0035,-71.9165C332.2653,-66.4892 328.2283,-62.6312 324.1231,-59.4248C316.1605,-53.7094 320.2406,-56.4756 304.8488,-47.7573C300.8383,-45.4856 296.4513,-43.5622 291.8451,-43.0245C287.6957,-43.3915 283.8349,-44.6143 280.4546,-47.1325C275.8828,-50.4672 272.0386,-54.677 269.3612,-59.693C268.7366,-61.3275 268.0271,-62.8838 267.8135,-64.6468C267.4791,-67.4079 268.3981,-70.3095 269.0633,-72.941C270.3422,-76.1902 271.9653,-79.2701 275.0209,-81.1777C282.2031,-85.3118 288.9239,-90.0555 296.9357,-92.2666L285.1504,-83.2549z" stroke="#000" stroke-linecap="round" stroke-linejoin="round" stroke-width="2"/>
<path d="M347.1504,-77.2549C344.6035,-76.4403 341.9575,-75.7416 339.5363,-74.5814C338.7232,-74.1918 337.9599,-73.7059 337.1716,-73.2681C340.5173,-75.1416 343.863,-77.0152 347.2087,-78.8887C343.2371,-76.2087 340.2901,-73.5303 338.5132,-69.0387C337.3505,-65.3388 337.9081,-62.2103 340.8379,-59.4732C341.5453,-58.8124 342.3768,-58.2984 343.1462,-57.711C348.7467,-54.4938 355.3758,-53.3418 361.7904,-54.0225C363.6291,-54.2176 365.4327,-54.663 367.2538,-54.9833C371.4683,-56.0713 373.305,-56.374 377.2631,-58.0355C378.5761,-58.5866 382.3128,-60.6635 381.0902,-59.9334C363.2909,-49.3046 371.3475,-53.9354 374.1428,-56.7651C374.7627,-57.3926 375.255,-58.1344 375.8111,-58.8191C378.2486,-62.6326 378.3111,-66.0246 376.5942,-70.0879C376.279,-70.8016 374.4627,-74.5447 373.1819,-73.7346C372.9601,-73.5943 372.8477,-73.33 372.6807,-73.1277C392.8977,-84.6564 385.2006,-82.7287 383.2398,-77.11C382.3936,-74.6854 382.2459,-72.3278 382.1295,-69.7816C383.5341,-57.9615 388.7559,-47.0167 393.0457,-36.0346C398.2618,-21.5258 403.2897,-6.47 403.8684,9.092C403.9836,12.189 403.6821,15.2876 403.5889,18.3853C403.1263,21.364 402.8671,24.3813 402.2011,27.3212C400.0287,36.9109 395.0849,45.6892 387.7437,52.2682C386.4496,53.4279 384.9846,54.3816 383.6051,55.4383C378.0848,58.3221 372.8336,61.7934 367.0443,64.0899C364.6445,65.0418 358.8518,63.0561 356.9529,62.2095C349.8949,59.0631 343.7992,53.895 337.8032,49.1621C327.688,40.5031 317.7846,31.4711 308.7355,21.6837C304.0475,16.6133 302.8886,14.9067 298.8166,9.6614C295.3512,3.8792 291.2661,-2.8245 294.6732,-9.6402C296.6895,-13.6737 299.1232,-15.1372 302.5004,-18.074C312.6219,-24.6327 313.4505,-25.3796 328.104,-32.7999C331.6804,-34.6109 343.2136,-38.7065 346.7432,-39.9379C353.7819,-42.3937 361.3514,-44.8267 368.4293,-47.1393C387.0233,-52.5028 405.2349,-59.0355 423.2344,-66.1176C424.7623,-66.7671 426.2923,-67.4118 427.8181,-68.0661C428.9838,-68.566 430.1581,-69.0469 431.3089,-69.5801C433.6612,-70.67 435.8588,-72.019 438.2856,-72.9431C441.5765,-73.4124 442.7308,-69.4505 443.7159,-67.0436C445.9847,-60.9159 447.263,-54.4902 447.8147,-47.9941C447.9509,-45.0837 448.0453,-42.1595 447.6331,-39.2662C447.5909,-38.9704 447.7439,-38.5103 447.473,-38.3842C443.0642,-36.3309 438.4604,-34.7251 433.9541,-32.8956C433.9659,-33.7909 433.9166,-34.689 433.9896,-35.5814C434.0957,-36.8799 434.3191,-38.1662 434.4903,-39.4578C435.49,-46.9958 436.7994,-54.4336 438.3334,-61.8806C439.8884,-68.3767 441.231,-75.18 444.9433,-80.8503C449.1473,-85.2518 458.497,-93.9297 463.0497,-88.879C463.5264,-88.3501 463.8605,-87.7082 464.2658,-87.1228C465.1568,-85.5475 465.9266,-84.351 466.5095,-82.6055C468.1484,-77.6977 468.884,-71.9449 469.7517,-66.8403C470.8843,-62.4227 470.4525,-57.1322 471.7929,-52.8005C473.5655,-57.562 471.775,-52.58 459.0435,-46.5094C458.7853,-46.3863 459.4327,-46.9346 459.5772,-47.1814C459.9087,-47.7474 460.5577,-49.4088 460.8105,-49.919C461.1553,-50.6152 461.549,-51.286 461.9182,-51.9694C464.3127,-55.807 466.3395,-59.8622 468.9779,-63.5425C473.3892,-69.0698 477.5158,-70.2762 485.1519,-74.4725C485.4138,-74.6164 485.7664,-74.5326 486.0475,-74.431C486.4054,-74.3016 486.6836,-74.0129 487.0016,-73.8039C489.988,-70.6628 491.0279,-66.2182 492.0362,-62.1278C492.9125,-57.6742 493.3814,-53.131 495.0104,-48.8712C495.4071,-48.3128 495.7311,-47.6948 496.2004,-47.1959C499.6185,-43.5623 505.2722,-40.8461 509.9343,-39.3687C511.6885,-38.8128 513.4959,-38.4411 515.2767,-37.9773C522.8167,-36.0961 530.3825,-36.0026 537.8823,-38.0643C539.5423,-38.5206 541.2095,-38.9969 542.7819,-39.6981C544.2464,-40.3512 545.5581,-41.3036 546.9463,-42.1064C544.0584,-40.6163 541.3829,-38.6098 538.2826,-37.636C537.087,-37.2605 540.1428,-39.3201 540.9963,-40.2377C543.5122,-42.9425 544.9507,-45.9503 545.9633,-49.4488C546.6579,-52.3622 546.6456,-55.3557 546.5652,-58.3283C545.753,-64.4645 540.332,-58.4252 559.1,-66.0472C559.4417,-66.186 558.8994,-65.3356 558.842,-64.9712C558.7584,-64.4412 558.7327,-63.9037 558.678,-63.37C558.4116,-58.5352 558.3011,-53.6898 558.8385,-48.8729C559.3853,-45.774 559.9781,-42.6077 562.4072,-40.4324C564.1162,-39.3075 565.9299,-39.231 567.8176,-39.8486C572.3605,-42.1411 579.1794,-46.118 558.5218,-34.4558C557.7888,-34.042 559.9393,-35.3644 560.6358,-35.837L574.3857,-41.3039C573.3212,-40.43 573.5147,-40.5201 572.2923,-39.8054C567.6471,-37.0896 561.8948,-32.5533 556.0168,-30.8992C553.7225,-30.6532 551.5833,-31.1524 549.789,-32.6773C547.292,-35.2807 546.4771,-38.6003 545.9205,-42.101C545.3299,-46.9737 545.4484,-51.8684 545.5121,-56.7697C545.5317,-57.4241 545.5891,-59.6985 545.6353,-59.7292C555.3623,-66.1895 558.5071,-72.3046 559.7414,-65.0828C559.8109,-61.9585 559.8144,-58.8161 559.1617,-55.7418C555.9603,-42.9865 547.5064,-40.0804 535.8851,-33.2002C534.4562,-32.4798 533.0874,-31.625 531.5984,-31.0388C522.6477,-27.5147 512.8948,-27.7976 503.6881,-30.0046C501.849,-30.4923 499.9816,-30.8834 498.1708,-31.4678C493.5394,-32.9624 487.0263,-36.1598 483.6105,-39.7531C483.0478,-40.345 482.6426,-41.0688 482.1586,-41.7267C480.5349,-46.0707 480.067,-50.6739 479.2315,-55.2142C478.3895,-58.7321 477.5533,-63.083 474.6465,-65.525C473.9606,-65.439 474.3146,-65.5425 473.6055,-65.1501C477.5343,-67.4822 481.4631,-69.8142 485.392,-72.1463C485.7243,-72.3373 484.7836,-71.6778 484.5048,-71.4148C483.8053,-70.7548 483.2382,-69.9617 482.4827,-69.3567C479.6627,-65.8118 477.6289,-61.7908 475.2736,-57.9352C474.3882,-56.4197 473.6566,-54.9774 473.0931,-53.3151C472.9783,-52.9764 473.1056,-52.4677 472.7992,-52.2834C459.5044,-44.2868 462.4531,-41.0521 458.7423,-45.7121C457.6264,-50.4162 458.1984,-55.4103 457.1115,-60.1366C456.048,-66.7522 455.2298,-73.8382 451.6337,-79.6263C451.0084,-80.3781 450.7399,-81.067 449.7463,-81.2506C449.4773,-81.3003 448.6972,-81.0264 448.9293,-81.1714C452.7843,-83.5799 456.7874,-85.7435 460.684,-88.0841C461.0341,-88.2944 459.9199,-87.7826 459.574,-87.5654C459.1661,-87.3094 458.8163,-86.9709 458.4374,-86.6736C454.0539,-81.4464 452.7319,-74.3891 450.9594,-67.9864C448.9624,-58.7542 447.2481,-49.392 446.9663,-39.9303C442.6611,-37.2917 438.4431,-34.5055 434.0509,-32.0145C433.809,-31.8773 434.2913,-32.5188 434.3689,-32.7859C435.1731,-35.5526 434.9442,-38.4808 434.9437,-41.3192C434.5725,-47.6693 433.3852,-53.9844 430.9595,-59.8902C430.4967,-60.9584 429.6461,-64.0551 428.0273,-64.1645C427.6519,-64.1899 426.9629,-63.8928 426.664,-63.7855C421.876,-61.6536 417.2258,-59.2069 412.2498,-57.5029C394.41,-50.7931 376.4177,-44.5046 358.1221,-39.1385C347.5024,-35.6251 336.8084,-32.2298 326.4071,-28.0958C323.4132,-26.9058 320.6723,-24.9485 317.5147,-24.3088C315.893,-23.9803 323.0914,-27.8472 321.6038,-27.1227C319.4346,-26.0663 317.5039,-24.5777 315.454,-23.3052C311.6254,-20.2317 306.9304,-17.0518 306.0231,-11.7537C305.1302,-6.539 308.4514,-1.7173 310.6976,2.6064C312.0867,4.5044 313.4087,6.4534 314.865,8.3002C324.8107,20.9133 336.9125,31.7349 349.2333,41.9507C355.2776,46.4639 361.4425,51.5105 368.5887,54.2474C370.2378,54.879 371.9681,55.3572 373.7232,55.5527C375.2204,55.7194 379.0476,54.0524 378.2367,55.3221C376.5481,57.9662 373.0607,58.8689 370.4727,60.6424C371.9211,59.6313 373.4539,58.7314 374.818,57.609C382.3953,51.3747 387.7065,42.7683 390.0706,33.2575C390.7888,30.3679 391.0696,27.3869 391.5691,24.4516C391.713,21.3964 392.0786,18.3436 392.0007,15.286C391.6074,-.1509 386.3714,-15.0473 381.0958,-29.3649C376.6203,-40.4339 371.1739,-51.3452 369.2251,-63.2235C369.1596,-66.0352 369.2286,-68.1755 369.9092,-70.8957C369.9473,-71.0478 370.7023,-73.7558 371.0384,-73.9872C375.3553,-76.9602 379.9527,-79.5037 384.4099,-82.2619C384.7489,-82.2349 385.0988,-82.2704 385.4268,-82.1807C387.5325,-81.605 388.5419,-78.9921 389.422,-77.2845C391.2962,-72.8589 391.5534,-68.921 389.1687,-64.5737C388.6277,-63.7989 388.1602,-62.9673 387.5458,-62.2493C383.155,-57.1183 374.373,-53.5169 369.904,-51.0303C365.6297,-48.6519 360.7122,-47.6351 356.0106,-46.5342C354.1284,-46.2519 352.2609,-45.8421 350.3638,-45.6872C343.5879,-45.1342 336.6659,-46.3505 330.8819,-49.9878C330.0515,-50.6505 329.1568,-51.2399 328.3906,-51.9759C325.1513,-55.0883 324.1401,-58.5232 325.2119,-62.8203C326.8277,-67.9581 329.3611,-70.4448 333.6797,-73.6076C342.0135,-78.5311 349.5479,-83.9618 358.9357,-86.2666L347.1504,-77.2549z" stroke="#000" stroke-linecap="round" stroke-linejoin="round" stroke-width="2"/>
<path d="M549.2332,-122.1847C547.4497,-120.0919 546.0244,-117.6969 545.3462,-115.0219C544.8607,-112.3468 546.4564,-111.6609 548.6501,-110.701C552.1989,-109.4013 555.2322,-109.544 558.8667,-110.1867C563.727,-111.8529 571.4457,-116.6009 549.8419,-104.683C549.5386,-104.5156 550.4174,-105.0731 550.6735,-105.3066C551.283,-105.8622 551.3443,-106.0922 551.7431,-106.7885C552.4769,-108.4348 552.405,-109.9757 551.4599,-111.492C550.2026,-112.6833 548.3125,-112.5716 546.6902,-112.6506C545.0147,-112.4957 543.4191,-112.0801 542.057,-111.0753L553.6269,-120.3929C555.2743,-121.0166 556.9597,-121.4107 558.7396,-121.2691C560.8571,-121.0599 562.9403,-120.7594 564.3134,-118.9498C565.4318,-117.0683 565.8738,-115.1231 565.2275,-112.9755C562.8838,-105.9037 553.9818,-103.0447 547.0943,-101.3611C543.4244,-100.8997 539.7964,-101.101 536.3461,-102.5755C533.866,-103.8553 531.6424,-105.4567 532.0181,-108.5614C532.4759,-111.4436 533.8818,-114.0254 535.5706,-116.3799L549.2332,-122.1847z" stroke="#000" stroke-linecap="round" stroke-linejoin="round" stroke-width="2"/>
<path d="M359.6057,-86.1453C362.4187,-87.5125 365.103,-89.129 368.0047,-90.3079C369.8229,-91.4887 371.8175,-92.0343 373.9447,-92.2669C375.9013,-92.4156 377.8658,-92.3906 379.8266,-92.3838C381.7726,-92.5908 383.4211,-92.0588 385.1306,-91.2244C386.3272,-90.2653 387.2717,-88.9911 388.1806,-87.7589C388.971,-86.3232 389.4355,-84.7124 389.9217,-83.1481C390.3578,-81.5453 390.9514,-80.0138 391.2655,-78.376C391.5681,-76.4533 391.5887,-74.5022 391.6123,-72.5605C391.6209,-71.5593 391.6196,-70.5581 391.6191,-69.5568L378.4016,-62.8239C378.4031,-63.8201 378.4051,-64.8163 378.4006,-65.8125C378.3869,-67.6761 378.3836,-69.5468 378.1492,-71.3987C377.8884,-72.9952 377.3044,-74.4635 376.8794,-76.0128C376.4669,-77.4199 376.0218,-78.8533 375.3829,-80.165C374.6051,-81.185 373.8481,-82.3496 372.73,-83.0103C371.1597,-83.6924 369.5221,-83.7365 367.825,-83.6633C365.9059,-83.6547 363.9742,-83.6641 362.0745,-83.3541C360.0654,-82.9292 358.2552,-82.0648 356.4262,-81.1471C353.5803,-79.8236 350.8275,-78.3064 348.069,-76.8116L359.6057,-86.1453z" stroke="#000" stroke-linecap="round" stroke-linejoin="round" stroke-width="2"/>
</g>
<path d="M63.1594,53.3186H250.0376A15.9099,15.9099 0 0 1 265.9475,69.2286V69.2286A15.9099,15.9099 0 0 1 250.0376,85.1385H63.1594A15.9099,15.9099 0 0 1 47.2495,69.2286V69.2286A15.9099,15.9099 0 0 1 63.1594,53.3186z" fill="#fff" stroke="#000" stroke-linecap="round" stroke-linejoin="round" stroke-width="4"/>
<path d="M101.5203,44.9288A36.8706,34.8503 0 1 1 27.7792,44.9288A36.8706,34.8503 0 1 1 101.5203,44.9288z" stroke="#000" stroke-linecap="round" stroke-linejoin="round" stroke-width="7.491" transform="matrix(.7121,0,0,.7121,1.96316,30.94152)"/>
<text font-family="Bitstream Vera Sans" font-size="40" x="23.6124" y="76.9761">
   <tspan fill="#f9f9f9" x="23.6124" y="76.9761">30</tspan>
  </text>
<text font-family="Bitstream Vera Sans" font-size="20" x="115.8058" y="76.3547">
   <tspan x="115.8058" y="76.3547">Fidelite</tspan>
  </text>
<g transform="translate(-6.0609,5.0508)">
<path d="M81.5698,142.9136H238.6485A15.9099,15.9099 0 0 1 254.5584,158.8235V198.7245A15.9099,15.9099 0 0 1 238.6485,214.6345H81.5698A15.9099,15.9099 0 0 1 65.6599,198.7245V158.8235A15.9099,15.9099 0 0 1 81.5698,142.9136z" fill="#fff" stroke="#000" stroke-linecap="round" stroke-linejoin="round" stroke-width="2"/>
<text font-family="Bitstream Vera Sans" font-size="20" x="165.665" y="173.2182">
    <tspan text-align="center" text-anchor="middle" x="165.665" y="173.2182">Contrôle</tspan>
    <tspan text-align="center" text-anchor="middle" x="165.665" y="198.2182">Physique</tspan>
   </text>
<path d="M108.1446,185.7745L93.4211,185.8544L94.7661,192.806L70.41,178.4975L93.5995,165.2742L93.0743,172.3251L108.0511,172.9348L108.1446,185.7745z" fill="#fff" stroke="#000" stroke-linecap="round" stroke-linejoin="round" stroke-width=".9366"/>
</g>
<text font-family="Bitstream Vera Sans" font-size="20" x="438.4062" y="124.7309">
   <tspan text-align="center" text-anchor="middle" x="438.4062" y="124.7309">1h30 plus tard...</tspan>
  </text>
<path d="m446.8915,78.4154c0,2.9289-27.5427,5.3033-61.5183,5.3033-33.9756,0-61.5183,-2.3744-61.5183,-5.3033 0,-2.9289 27.5427,-5.3033 61.5183,-5.3033 33.9756,0 61.5183,2.3744 61.5183,5.3033z" stroke="#000" stroke-linecap="round" stroke-width="4.862" transform="matrix(.83661,0,0,.83661,161.45519,289.1172)"/>
<g transform="matrix(.83661,0,0,.83661,565.25525,40.41105)">
<path d="M-43.5297,288.8057L-43.5297,336.6941C-43.5297,356.7011-59.6364,372.8078-79.6434,372.8078L-115.0774,372.8078C-135.0844,372.8078-151.1912,356.7011-151.1912,336.6941L-151.1912,288.8057" fill="#fff" stroke="#000" stroke-linecap="round" stroke-linejoin="round" stroke-width="3.6422"/>
<path d="M-122.1431,308.6171H-98.6091A.7803,.7803 0 0 1 -97.8288,309.3974V319.4235A.7803,.7803 0 0 1 -98.6091,320.2038H-122.1431A.7803,.7803 0 0 1 -122.9234,319.4235V309.3974A.7803,.7803 0 0 1 -122.1431,308.6171z" stroke="#000" stroke-linecap="square" stroke-linejoin="round" stroke-width="3.7338"/>
<path d="M-80.7522,308.6171H-60.3393A2.3409,2.3409 0 0 1 -57.9985,310.958V317.8629A2.3409,2.3409 0 0 1 -60.3393,320.2038H-80.7522A2.3409,2.3409 0 0 1 -83.093,317.8629V310.958A2.3409,2.3409 0 0 1 -80.7522,308.6171z" stroke="#000" stroke-linecap="square" stroke-linejoin="round" stroke-width="3.7338"/>
<path d="M-148.8829,313.6717C-148.3338,313.6822-147.7844,313.6785-147.2351,313.6758C-146.8722,313.6736-146.5092,313.6722-146.1462,313.6715C-145.8537,313.6711-145.5613,313.6711-145.2688,313.6711C-144.9647,313.6705-144.6607,313.6717-144.3567,313.6723C-143.966,313.6626-143.5814,313.6719-143.1947,313.723C-142.7951,313.7775-142.3916,313.7947-141.9885,313.8057C-141.5833,313.7899-141.1856,313.8646-140.7845,313.9048C-140.3766,313.9415-139.9665,313.9454-139.5571,313.9498C-139.1269,313.9521-138.6968,313.9519-138.2666,313.9504C-137.893,313.9497-137.5194,313.9491-137.1458,313.9482C-136.8388,313.9474-136.5318,313.9472-136.2247,313.9471C-135.9332,313.947-135.6418,313.947-135.3502,313.947C-135.0587,313.947-134.7672,313.947-134.4756,313.947C-134.1569,313.9467-133.8382,313.9476-133.5196,313.949C-133.1253,313.9514-132.731,313.9494-132.3367,313.9484C-131.9659,313.9481-131.595,313.9488-131.2241,313.9499C-130.8274,313.9497-130.4307,313.9498-130.0339,313.9488C-129.654,313.949-129.274,313.9495-128.894,313.949C-128.5484,313.9477-128.2029,313.9475-127.8573,313.9492C-127.3241,313.9518-126.7909,313.9534-126.2577,313.9553C-125.5311,313.9581-124.8045,313.9587-124.0778,313.9563C-123.5446,313.9549-123.0113,313.9511-122.4781,313.9509C-122.0368,313.9515-121.5955,313.9508-121.1542,313.9493C-121.0931,313.9491-121.032,313.949-120.9709,313.9488L-122.7169,315.1481C-122.7774,315.1478-122.8379,315.1476-122.8984,315.1474C-123.3383,315.1459-123.7781,315.1453-124.218,315.1459C-124.7459,315.1457-125.2739,315.1418-125.8018,315.1405C-126.5294,315.1381-127.2571,315.1387-127.9846,315.1415C-128.5238,315.1434-129.0628,315.145-129.6019,315.1476C-129.9477,315.1493-130.2936,315.1491-130.6394,315.1478C-131.0195,315.1473-131.3996,315.1478-131.7797,315.148C-132.1754,315.147-132.5711,315.1471-132.9668,315.1469C-133.3391,315.1479-133.7115,315.1487-134.0838,315.1484C-134.4775,315.1474-134.8712,315.1454-135.2648,315.1478C-135.5854,315.1492-135.9059,315.1501-136.2265,315.1497C-136.5181,315.1497-136.8096,315.1497-137.1012,315.1497C-137.3926,315.1497-137.684,315.1497-137.9755,315.1497C-138.2815,315.1495-138.5875,315.1493-138.8935,315.1487C-139.2655,315.148-139.6375,315.1479-140.0095,315.1478C-140.4397,315.147-140.8698,315.1485-141.3,315.1437C-141.7147,315.1381-142.1302,315.1292-142.5427,315.0843C-142.9395,315.0397-143.3348,314.9871-143.7358,314.9973C-144.1436,314.9822-144.5506,314.9538-144.955,314.9006C-145.3371,314.8601-145.7204,314.8714-146.1043,314.8727C-146.4095,314.8733-146.7146,314.8745-147.0198,314.8739C-147.3119,314.8739-147.604,314.8739-147.8961,314.8735C-148.255,314.8728-148.6138,314.8714-148.9726,314.8693C-149.5259,314.8665-150.0792,314.863-150.6323,314.8733L-148.8829,313.6717z" stroke="#000" stroke-linecap="square" stroke-linejoin="round" stroke-width=".4767"/>
<path d="M-57.3881,313.9484C-56.6843,313.9602-55.9802,313.9586-55.2763,313.9581C-54.631,313.9572-53.9858,313.9554-53.3406,313.9525C-52.9094,313.9502-52.4782,313.9501-52.047,313.9495C-51.7073,313.9487-51.3675,313.9479-51.0277,313.9474C-50.7309,313.9691-50.4456,313.8899-50.1539,313.8518C-49.8613,313.8177-49.5662,313.8128-49.2718,313.8093C-48.9796,313.8072-48.6875,313.8081-48.3953,313.8085C-48.1035,313.8089-47.8117,313.809-47.5199,313.8091C-47.2282,313.8091-46.9364,313.8091-46.6446,313.8091C-46.3528,313.8091-46.061,313.8091-45.7692,313.8091C-45.4559,313.8085-45.1426,313.8102-44.8294,313.8103C-44.5121,313.81-44.1949,313.8096-43.8776,313.8093C-43.5838,313.8091-43.29,313.8091-42.9962,313.8091C-42.8018,313.8091-42.899,313.8091-42.7047,313.8091L-44.4556,315.0118C-44.6499,315.0118-44.5527,315.0118-44.7471,315.0118C-45.0407,315.0118-45.3343,315.0118-45.6279,315.0116C-45.9442,315.0113-46.2606,315.0109-46.577,315.0106C-46.8913,315.0107-47.2057,315.0124-47.5201,315.0118C-47.8119,315.0118-48.1037,315.0118-48.3955,315.0118C-48.6873,315.0118-48.9791,315.0118-49.2709,315.0117C-49.5627,315.0115-49.8545,315.0113-50.1463,315.011C-50.4376,315.0107-50.7289,315.0099-51.0202,315.0153C-51.3095,315.0227-51.5993,315.0348-51.8855,315.0788C-52.1815,315.1241-52.476,315.1695-52.7776,315.1494C-53.1153,315.1489-53.453,315.1481-53.7908,315.1473C-54.219,315.1467-54.6473,315.1466-55.0755,315.1442C-55.7153,315.1413-56.3552,315.1395-56.995,315.1387C-57.7084,315.1382-58.4219,315.1368-59.1352,315.1484L-57.3881,313.9484z" stroke="#000" stroke-linecap="square" stroke-linejoin="round" stroke-width=".4767"/>
<path d="M-97.681,314.1116C-97.1471,314.1792-96.6084,314.2005-96.0705,314.2165C-95.5904,314.228-95.1101,314.228-94.63,314.2268C-94.2335,314.2263-93.8371,314.2261-93.4407,314.2252C-92.6449,314.2456-91.8487,314.2356-91.0528,314.2319C-90.5718,314.2284-90.0909,314.2269-89.6099,314.225C-89.2264,314.225-88.8429,314.2245-88.4594,314.2256C-88.0562,314.2268-87.653,314.2246-87.2498,314.2253C-86.886,314.2244-86.5221,314.2245-86.1583,314.2246C-85.794,314.2251-85.4296,314.2248-85.0652,314.2241C-84.7171,314.2253-84.3691,314.2242-84.021,314.2236C-83.6805,314.2251-83.3399,314.2241-82.9994,314.2236C-82.6986,314.2232-82.3977,314.223-82.0969,314.223C-81.8453,314.2815-81.5923,314.3235-81.3342,314.3439C-81.0543,314.3611-80.7736,314.3611-80.4933,314.3619C-80.2016,314.3621-79.9099,314.3615-79.6182,314.3612C-79.4722,314.3611-79.3262,314.361-79.1802,314.361L-80.931,315.5637C-81.077,315.5638-81.223,315.5639-81.369,315.564C-81.661,315.5644-81.953,315.5651-82.245,315.5636C-82.5302,315.5612-82.816,315.5587-83.0999,315.5305C-83.3505,315.5012-83.5959,315.4409-83.8477,315.4256C-84.1479,315.4255-84.4481,315.4254-84.7483,315.4249C-85.0888,315.4245-85.4293,315.4235-85.7698,315.4249C-86.1175,315.4243-86.4651,315.4233-86.8128,315.4244C-87.1766,315.4237-87.5405,315.4234-87.9044,315.4239C-88.2676,315.4241-88.6307,315.4241-88.9939,315.4233C-89.3968,315.4239-89.7997,315.4217-90.2026,315.423C-90.5867,315.424-90.9708,315.4235-91.3549,315.4236C-91.8291,315.4216-92.3032,315.4202-92.7774,315.4166C-93.5801,315.4129-94.3831,315.4034-95.1857,315.424C-95.5815,315.4235-95.9772,315.4244-96.373,315.4236C-96.8515,315.4207-97.33,315.417-97.8082,315.401C-98.3559,315.3799-98.9029,315.3472-99.4483,315.2941L-97.681,314.1116z" stroke="#000" stroke-linecap="square" stroke-linejoin="round" stroke-width=".4767"/>
<path d="M-136.1855,276.2983L-136.1855,294.8415" fill="none" stroke="#000" stroke-linecap="round" stroke-width="4.8046"/>
<path d="M-126.6615,274.544L-126.6615,293.0872" fill="none" stroke="#000" stroke-linecap="round" stroke-width="4.8046"/>
<path d="M-117.7245,276.0083L-117.7245,294.5515" fill="none" stroke="#000" stroke-linecap="round" stroke-width="4.8046"/>
<path d="M-106.0478,274.841L-106.0478,293.3843" fill="none" stroke="#000" stroke-linecap="round" stroke-width="4.8046"/>
<path d="M-95.8892,277.0276L-95.8892,295.5709" fill="none" stroke="#000" stroke-linecap="round" stroke-width="4.8046"/>
<path d="M-84.2599,276.8522L-84.2599,295.3955" fill="none" stroke="#000" stroke-linecap="round" stroke-width="4.8046"/>
<path d="M-73.7574,275.1381L-73.7574,293.6813" fill="none" stroke="#000" stroke-linecap="round" stroke-width="4.8046"/>
<path d="M-63.8419,278.175L-63.8419,296.7182" fill="none" stroke="#000" stroke-linecap="round" stroke-width="4.8046"/>
<path d="M-53.169,277.8063L-53.169,296.3495" fill="none" stroke="#000" stroke-linecap="round" stroke-width="4.8046"/>
<path d="M-105.8017,352.8807L-78.6788,348.4525" fill="none" stroke="#000" stroke-width=".7749"/>
<path d="M-144.0697,281.0285L-144.0697,299.5717" fill="none" stroke="#000" stroke-linecap="round" stroke-width="4.8046"/>
</g>
<g transform="translate(-4.0406,-1.0102)">
<path d="M365.9278,150.4898H523.0065A15.9099,15.9099 0 0 1 538.9164,166.3997V206.3007A15.9099,15.9099 0 0 1 523.0065,222.2106H365.9278A15.9099,15.9099 0 0 1 350.0179,206.3007V166.3997A15.9099,15.9099 0 0 1 365.9278,150.4898z" fill="#fff" stroke="#000" stroke-linecap="round" stroke-linejoin="round" stroke-width="2"/>
<text font-family="Bitstream Vera Sans" font-size="20" x="450.023" y="180.7943">
    <tspan text-align="center" text-anchor="middle" x="450.023" y="180.7943">Contrôle</tspan>
    <tspan text-align="center" text-anchor="middle" x="450.023" y="205.7943">Physique</tspan>
   </text>
<path d="M392.5026,193.3507L377.779,193.4306L379.124,200.3821L354.7679,186.0737L377.9575,172.8504L377.4323,179.9012L392.409,180.511L392.5026,193.3507z" fill="#fff" stroke="#000" stroke-linecap="round" stroke-linejoin="round" stroke-width=".9366"/>
</g>
<text font-family="Bitstream Vera Sans" font-size="20" x="398.0001" y="246.9593">
   <tspan x="398.0001" y="246.9593">Hmm...</tspan>
  </text>
<path d="M428.3047,257.0609L436.3859,272.2131" fill="none" stroke="#000"/>
<path d="M206.0711,292.4162L230.3148,288.3756" fill="none" stroke="#000"/>
<path d="M207.0813,311.6091L228.2945,311.6091" fill="none" stroke="#000"/>
<path d="M208.0914,326.7614L228.2945,330.802" fill="none" stroke="#000"/>
<path d="M415.1727,297.467L392.9493,291.406" fill="none" stroke="#000"/>
<path d="M394.9697,315.6497L415.1727,316.6599" fill="none" stroke="#000"/>
<path d="M402.0407,338.8832L421.2336,335.8528" fill="none" stroke="#000"/>
<path d="M716.7191,-111.8786H878.9544V-68.8621H716.7191z" fill="#fff" stroke="#000" stroke-linecap="round" stroke-linejoin="round" stroke-width="1.5252" transform="matrix(.94515,.32662,0,1,0,0)"/>
<text font-family="Bitstream Vera Sans" font-size="17.526" transform="matrix(.8531,.29481,0,1.1722,0,0)" x="796.0502" y="-76.5682">
   <tspan font-weight="bold" x="796.0502" y="-76.5682">CORDE-AUX-NIAIS</tspan>
  </text>
<path d="M716.7191,-69.74H878.9544V61.0651H716.7191z" fill="#fff" stroke="#000" stroke-linecap="round" stroke-linejoin="round" stroke-width="1.5252" transform="matrix(.94515,.32662,0,1,0,0)"/>
<path d="M760.1765,202.4257L760.1765,193.0589" fill="none" stroke="#000" stroke-width=".7735"/>
<path d="m446.8915,78.4154c0,2.9289-27.5427,5.3033-61.5183,5.3033-33.9756,0-61.5183,-2.3744-61.5183,-5.3033 0,-2.9289 27.5427,-5.3033 61.5183,-5.3033 33.9756,0 61.5183,2.3744 61.5183,5.3033z" stroke="#000" stroke-linecap="round" stroke-width="4.862" transform="matrix(.47353,0,0,.47353,470.12827,303.88494)"/>
<g transform="matrix(.47353,0,0,.47353,698.68179,163.1156)">
<path d="M-43.5297,288.8057L-43.5297,336.6941C-43.5297,356.7011-59.6364,372.8078-79.6434,372.8078L-115.0774,372.8078C-135.0844,372.8078-151.1912,356.7011-151.1912,336.6941L-151.1912,288.8057" fill="#fff" stroke="#000" stroke-linecap="round" stroke-linejoin="round" stroke-width="3.6422"/>
<path d="M-122.1431,308.6171H-98.6091A.7803,.7803 0 0 1 -97.8288,309.3974V319.4235A.7803,.7803 0 0 1 -98.6091,320.2038H-122.1431A.7803,.7803 0 0 1 -122.9234,319.4235V309.3974A.7803,.7803 0 0 1 -122.1431,308.6171z" stroke="#000" stroke-linecap="square" stroke-linejoin="round" stroke-width="3.7338"/>
<path d="M-80.7522,308.6171H-60.3393A2.3409,2.3409 0 0 1 -57.9985,310.958V317.8629A2.3409,2.3409 0 0 1 -60.3393,320.2038H-80.7522A2.3409,2.3409 0 0 1 -83.093,317.8629V310.958A2.3409,2.3409 0 0 1 -80.7522,308.6171z" stroke="#000" stroke-linecap="square" stroke-linejoin="round" stroke-width="3.7338"/>
<path d="M-148.8829,313.6717C-148.3338,313.6822-147.7844,313.6785-147.2351,313.6758C-146.8722,313.6736-146.5092,313.6722-146.1462,313.6715C-145.8537,313.6711-145.5613,313.6711-145.2688,313.6711C-144.9647,313.6705-144.6607,313.6717-144.3567,313.6723C-143.966,313.6626-143.5814,313.6719-143.1947,313.723C-142.7951,313.7775-142.3916,313.7947-141.9885,313.8057C-141.5833,313.7899-141.1856,313.8646-140.7845,313.9048C-140.3766,313.9415-139.9665,313.9454-139.5571,313.9498C-139.1269,313.9521-138.6968,313.9519-138.2666,313.9504C-137.893,313.9497-137.5194,313.9491-137.1458,313.9482C-136.8388,313.9474-136.5318,313.9472-136.2247,313.9471C-135.9332,313.947-135.6418,313.947-135.3502,313.947C-135.0587,313.947-134.7672,313.947-134.4756,313.947C-134.1569,313.9467-133.8382,313.9476-133.5196,313.949C-133.1253,313.9514-132.731,313.9494-132.3367,313.9484C-131.9659,313.9481-131.595,313.9488-131.2241,313.9499C-130.8274,313.9497-130.4307,313.9498-130.0339,313.9488C-129.654,313.949-129.274,313.9495-128.894,313.949C-128.5484,313.9477-128.2029,313.9475-127.8573,313.9492C-127.3241,313.9518-126.7909,313.9534-126.2577,313.9553C-125.5311,313.9581-124.8045,313.9587-124.0778,313.9563C-123.5446,313.9549-123.0113,313.9511-122.4781,313.9509C-122.0368,313.9515-121.5955,313.9508-121.1542,313.9493C-121.0931,313.9491-121.032,313.949-120.9709,313.9488L-122.7169,315.1481C-122.7774,315.1478-122.8379,315.1476-122.8984,315.1474C-123.3383,315.1459-123.7781,315.1453-124.218,315.1459C-124.7459,315.1457-125.2739,315.1418-125.8018,315.1405C-126.5294,315.1381-127.2571,315.1387-127.9846,315.1415C-128.5238,315.1434-129.0628,315.145-129.6019,315.1476C-129.9477,315.1493-130.2936,315.1491-130.6394,315.1478C-131.0195,315.1473-131.3996,315.1478-131.7797,315.148C-132.1754,315.147-132.5711,315.1471-132.9668,315.1469C-133.3391,315.1479-133.7115,315.1487-134.0838,315.1484C-134.4775,315.1474-134.8712,315.1454-135.2648,315.1478C-135.5854,315.1492-135.9059,315.1501-136.2265,315.1497C-136.5181,315.1497-136.8096,315.1497-137.1012,315.1497C-137.3926,315.1497-137.684,315.1497-137.9755,315.1497C-138.2815,315.1495-138.5875,315.1493-138.8935,315.1487C-139.2655,315.148-139.6375,315.1479-140.0095,315.1478C-140.4397,315.147-140.8698,315.1485-141.3,315.1437C-141.7147,315.1381-142.1302,315.1292-142.5427,315.0843C-142.9395,315.0397-143.3348,314.9871-143.7358,314.9973C-144.1436,314.9822-144.5506,314.9538-144.955,314.9006C-145.3371,314.8601-145.7204,314.8714-146.1043,314.8727C-146.4095,314.8733-146.7146,314.8745-147.0198,314.8739C-147.3119,314.8739-147.604,314.8739-147.8961,314.8735C-148.255,314.8728-148.6138,314.8714-148.9726,314.8693C-149.5259,314.8665-150.0792,314.863-150.6323,314.8733L-148.8829,313.6717z" stroke="#000" stroke-linecap="square" stroke-linejoin="round" stroke-width=".4767"/>
<path d="M-57.3881,313.9484C-56.6843,313.9602-55.9802,313.9586-55.2763,313.9581C-54.631,313.9572-53.9858,313.9554-53.3406,313.9525C-52.9094,313.9502-52.4782,313.9501-52.047,313.9495C-51.7073,313.9487-51.3675,313.9479-51.0277,313.9474C-50.7309,313.9691-50.4456,313.8899-50.1539,313.8518C-49.8613,313.8177-49.5662,313.8128-49.2718,313.8093C-48.9796,313.8072-48.6875,313.8081-48.3953,313.8085C-48.1035,313.8089-47.8117,313.809-47.5199,313.8091C-47.2282,313.8091-46.9364,313.8091-46.6446,313.8091C-46.3528,313.8091-46.061,313.8091-45.7692,313.8091C-45.4559,313.8085-45.1426,313.8102-44.8294,313.8103C-44.5121,313.81-44.1949,313.8096-43.8776,313.8093C-43.5838,313.8091-43.29,313.8091-42.9962,313.8091C-42.8018,313.8091-42.899,313.8091-42.7047,313.8091L-44.4556,315.0118C-44.6499,315.0118-44.5527,315.0118-44.7471,315.0118C-45.0407,315.0118-45.3343,315.0118-45.6279,315.0116C-45.9442,315.0113-46.2606,315.0109-46.577,315.0106C-46.8913,315.0107-47.2057,315.0124-47.5201,315.0118C-47.8119,315.0118-48.1037,315.0118-48.3955,315.0118C-48.6873,315.0118-48.9791,315.0118-49.2709,315.0117C-49.5627,315.0115-49.8545,315.0113-50.1463,315.011C-50.4376,315.0107-50.7289,315.0099-51.0202,315.0153C-51.3095,315.0227-51.5993,315.0348-51.8855,315.0788C-52.1815,315.1241-52.476,315.1695-52.7776,315.1494C-53.1153,315.1489-53.453,315.1481-53.7908,315.1473C-54.219,315.1467-54.6473,315.1466-55.0755,315.1442C-55.7153,315.1413-56.3552,315.1395-56.995,315.1387C-57.7084,315.1382-58.4219,315.1368-59.1352,315.1484L-57.3881,313.9484z" stroke="#000" stroke-linecap="square" stroke-linejoin="round" stroke-width=".4767"/>
<path d="M-97.681,314.1116C-97.1471,314.1792-96.6084,314.2005-96.0705,314.2165C-95.5904,314.228-95.1101,314.228-94.63,314.2268C-94.2335,314.2263-93.8371,314.2261-93.4407,314.2252C-92.6449,314.2456-91.8487,314.2356-91.0528,314.2319C-90.5718,314.2284-90.0909,314.2269-89.6099,314.225C-89.2264,314.225-88.8429,314.2245-88.4594,314.2256C-88.0562,314.2268-87.653,314.2246-87.2498,314.2253C-86.886,314.2244-86.5221,314.2245-86.1583,314.2246C-85.794,314.2251-85.4296,314.2248-85.0652,314.2241C-84.7171,314.2253-84.3691,314.2242-84.021,314.2236C-83.6805,314.2251-83.3399,314.2241-82.9994,314.2236C-82.6986,314.2232-82.3977,314.223-82.0969,314.223C-81.8453,314.2815-81.5923,314.3235-81.3342,314.3439C-81.0543,314.3611-80.7736,314.3611-80.4933,314.3619C-80.2016,314.3621-79.9099,314.3615-79.6182,314.3612C-79.4722,314.3611-79.3262,314.361-79.1802,314.361L-80.931,315.5637C-81.077,315.5638-81.223,315.5639-81.369,315.564C-81.661,315.5644-81.953,315.5651-82.245,315.5636C-82.5302,315.5612-82.816,315.5587-83.0999,315.5305C-83.3505,315.5012-83.5959,315.4409-83.8477,315.4256C-84.1479,315.4255-84.4481,315.4254-84.7483,315.4249C-85.0888,315.4245-85.4293,315.4235-85.7698,315.4249C-86.1175,315.4243-86.4651,315.4233-86.8128,315.4244C-87.1766,315.4237-87.5405,315.4234-87.9044,315.4239C-88.2676,315.4241-88.6307,315.4241-88.9939,315.4233C-89.3968,315.4239-89.7997,315.4217-90.2026,315.423C-90.5867,315.424-90.9708,315.4235-91.3549,315.4236C-91.8291,315.4216-92.3032,315.4202-92.7774,315.4166C-93.5801,315.4129-94.3831,315.4034-95.1857,315.424C-95.5815,315.4235-95.9772,315.4244-96.373,315.4236C-96.8515,315.4207-97.33,315.417-97.8082,315.401C-98.3559,315.3799-98.9029,315.3472-99.4483,315.2941L-97.681,314.1116z" stroke="#000" stroke-linecap="square" stroke-linejoin="round" stroke-width=".4767"/>
<path d="M-136.1855,276.2983L-136.1855,294.8415" fill="none" stroke="#000" stroke-linecap="round" stroke-width="4.8046"/>
<path d="M-126.6615,274.544L-126.6615,293.0872" fill="none" stroke="#000" stroke-linecap="round" stroke-width="4.8046"/>
<path d="M-117.7245,276.0083L-117.7245,294.5515" fill="none" stroke="#000" stroke-linecap="round" stroke-width="4.8046"/>
<path d="M-106.0478,274.841L-106.0478,293.3843" fill="none" stroke="#000" stroke-linecap="round" stroke-width="4.8046"/>
<path d="M-95.8892,277.0276L-95.8892,295.5709" fill="none" stroke="#000" stroke-linecap="round" stroke-width="4.8046"/>
<path d="M-84.2599,276.8522L-84.2599,295.3955" fill="none" stroke="#000" stroke-linecap="round" stroke-width="4.8046"/>
<path d="M-73.7574,275.1381L-73.7574,293.6813" fill="none" stroke="#000" stroke-linecap="round" stroke-width="4.8046"/>
<path d="M-63.8419,278.175L-63.8419,296.7182" fill="none" stroke="#000" stroke-linecap="round" stroke-width="4.8046"/>
<path d="M-53.169,277.8063L-53.169,296.3495" fill="none" stroke="#000" stroke-linecap="round" stroke-width="4.8046"/>
<path d="M-105.8017,352.8807L-78.6788,348.4525" fill="none" stroke="#000" stroke-width=".7749"/>
<path d="M-144.0697,281.0285L-144.0697,299.5717" fill="none" stroke="#000" stroke-linecap="round" stroke-width="4.8046"/>
</g>
<path d="M677.3073,121.7004L836.9114,90.8908" fill="none" stroke="#000"/>
<path d="M830.3454,174.7334L867.721,164.1268" fill="none" stroke="#000"/>
<path d="M677.3073,245.4441L830.8505,297.972" fill="none" stroke="#000"/>
<path d="M761.1499,261.1015L829.7508,242.7199" fill="none" stroke="#000"/>
<g transform="translate(-128.4826,-33.041)">
<path d="M902.7643,272.4573L902.7643,296.1479C902.7643,306.0455 910.1231,314.0136 919.2639,314.0136L935.4529,314.0136C944.5936,314.0136 951.9524,306.0455 951.9524,296.1479L951.9524,272.4573" fill="#fff" stroke="#000" stroke-linecap="round" stroke-linejoin="round" stroke-width="1.7316"/>
<path d="M951.7456,266.0428C950.2612,267.3667 948.7073,268.6057 947.1302,269.8164C946.1691,270.5267 945.2302,271.2658 944.2796,271.9889C943.8816,272.455 943.4161,272.6224 942.8284,272.6939C942.5556,272.7655 942.285,272.9183 941.9992,272.9406C941.6897,272.9648 941.5884,272.7686 941.6212,272.7867C943.1031,273.6052 944.5729,274.4456 946.0488,275.275C945.5995,274.9719 945.8287,274.2657 945.8727,273.8057C945.9437,273.0853 945.9663,272.3616 945.9803,271.6382C946.0328,270.9646 945.946,270.3103 945.7774,269.6601C945.5343,269.1257 945.4022,268.5685 945.3325,267.9883C945.2763,267.9685 945.3199,267.0711 945.3112,267.0669C940.3178,264.6163 941.5725,263.5226 939.9845,265.2072C938.9003,266.4584 937.6729,267.5646 936.3994,268.6171C935.5532,269.4042 934.5825,270.0258 933.656,270.706C933.0727,271.0523 932.5476,271.4997 931.9326,271.7884C931.4024,271.9776 930.8959,272.2218 930.3874,272.463C929.9171,272.7835 929.498,273.1642 929.0332,273.4942C928.7111,273.6852 928.2332,274.2273 927.7952,274.0778C927.731,274.0559 927.5819,273.912 927.6414,273.9446C929.1273,274.7573 930.5992,275.5953 932.078,276.4206C931.6343,276.0858 931.7073,275.3645 931.6921,274.8613C931.7038,274.1693 931.6508,273.4714 931.7253,272.7823C931.8326,272.1437 932.131,271.5553 932.4218,270.9829C932.7314,270.3719 933.101,269.7973 933.3581,269.1595C933.8343,266.8568 931.7193,267.4189 928.502,266.0945C928.4787,266.0849 928.1413,266.4143 927.9848,266.5642C927.2617,267.439 926.4718,268.2512 925.6607,269.0441C924.9606,269.6935 924.2685,270.3707 923.4666,270.8958C922.7514,271.3988 921.959,271.7738 921.1693,272.1425C920.3107,272.5356 919.4212,272.8337 918.5206,273.1135C917.7196,273.3183 916.9504,273.5987 916.1291,273.7208C916.0991,273.6833 915.384,273.8274 915.3521,273.8C915.3147,273.7679 915.3183,273.6281 915.3611,273.6525C920.0943,276.3432 918.8264,277.8037 920.1126,276.1523C920.6871,275.4177 921.1835,274.629 921.6977,273.8523C922.1958,273.1041 922.5972,272.303 923.0093,271.5066C923.2722,270.8669 923.5271,270.2118 923.639,269.5267C923.6368,267.3893 920.586,265.6513 918.554,266.1345C918.3613,266.1804 918.1825,266.2721 917.9967,266.3406C916.9932,266.8934 915.9562,267.3819 914.9433,267.9182C914.1088,268.4447 913.274,268.9793 912.5065,269.6003C911.8596,269.9669 911.1781,270.2668 910.5139,270.6018C909.9461,270.876 909.3697,271.1348 908.8074,271.4252C907.7886,271.8269 906.7489,272.1741 905.6855,272.437C905.5105,272.4798 905.1204,272.6077 904.9068,272.5602C904.8445,272.5463 904.6996,272.4115 904.7554,272.4427C906.2543,273.279 907.7052,274.2044 909.238,274.9768C909.3159,275.0161 909.246,274.8013 909.2686,274.7171C909.2987,274.6051 909.3528,274.5011 909.3949,274.3931C909.8105,273.4746 910.1545,272.5291 910.4951,271.5806C910.7431,270.8641 910.9918,270.118 910.5563,269.4351C906.3632,267.0265 906.9741,266.0022 904.2852,267.2863C903.6095,267.629 902.9857,268.0551 902.3497,268.4652C901.4782,269.0937 900.529,269.6024 899.6366,270.1974C899.0165,270.6092 898.3088,270.8404 897.6609,271.2024C897.5078,271.3266 896.3445,271.9679 896.3067,271.9347C903.3787,276.8522 899.1244,274.9117 902.0168,274.1754L897.6137,271.1879C894.938,272.2622 896.8713,272.8451 900.7504,274.9108C901.1433,274.5651 901.6952,274.4354 902.1083,274.1126C902.7779,273.7751 903.4775,273.4903 904.0904,273.0516C904.9874,272.464 905.9224,271.9359 906.8104,271.3338C907.4323,270.9406 908.044,270.528 908.7138,270.218C908.9947,270.0908 909.2539,269.9608 909.567,269.9436C909.952,269.9225 910.0333,270.0378 909.9911,270.0126C908.5387,269.1483 907.0724,268.3075 905.6131,267.455C906.4399,267.6771 906.0215,268.415 905.8628,269.0186C905.5353,269.961 905.199,270.8982 904.7671,271.7985C904.7643,271.8047 904.4104,272.5515 904.4747,272.6019C907.9541,275.3275 907.5684,276.1322 910.0357,275.4305C911.1226,275.1304 912.2024,274.7873 913.2402,274.3443C913.8143,274.0722 914.3879,273.8021 914.9554,273.5167C915.6394,273.1575 916.3709,272.8808 916.9985,272.4234C917.7488,271.8369 918.5368,271.2981 919.3517,270.8051C920.3453,270.2835 921.3479,269.7653 922.389,269.3473C922.5645,269.3129 922.6437,269.2701 922.8145,269.3294C922.8832,269.3533 923.0684,269.4718 923.0063,269.4338C921.5643,268.5503 920.1185,267.6731 918.6746,266.7928C918.8983,266.9192 918.814,266.8295 918.9259,267.0632C918.908,267.6957 918.5934,268.2837 918.3963,268.8756C918.004,269.6596 917.6227,270.4478 917.1342,271.1788C916.6233,271.9431 916.1295,272.7202 915.547,273.4333C914.2536,275.1113 915.1395,273.77 919.5576,276.9658C919.6052,277.0003 919.6562,276.8997 919.7115,276.8796C919.9499,276.793 920.2427,276.861 920.4792,276.7652C921.3015,276.5942 922.0883,276.3062 922.8996,276.0922C923.8116,275.7915 924.7161,275.478 925.5846,275.0639C926.3989,274.6814 927.2042,274.2696 927.9405,273.7491C928.7359,273.1698 929.4475,272.4855 930.1554,271.8043C930.9601,271.0113 931.7412,270.1979 932.5008,269.3619C932.5823,269.2923 932.6597,269.2178 932.7452,269.1533C932.8102,269.1043 933.0203,269.0654 932.9513,269.022C931.4915,268.1055 929.9254,267.367 928.4585,266.4618C928.3853,266.4166 928.9147,266.2616 928.7077,266.5767C928.4944,267.2092 928.0914,267.7489 927.8119,268.3511C927.4888,268.9722 927.1656,269.6136 927.0236,270.3031C926.9043,271.0138 926.9798,271.7407 926.955,272.4591C926.9607,273.1174 926.9585,273.7863 927.1349,274.426C930.8717,276.5793 930.9956,278.1902 933.5144,276.3435C933.9542,276.0283 934.3564,275.6606 934.8293,275.3947C935.3379,275.1454 935.8692,274.9457 936.3806,274.7016C936.9862,274.3514 937.5541,273.9371 938.1328,273.5448C939.0664,272.8632 939.9987,272.1827 940.8551,271.4023C942.1306,270.3227 943.3423,269.1779 944.4976,267.97C946.1091,266.427 944.9094,267.7934 940.4159,264.9188C940.3817,264.897 940.4936,264.8415 940.5258,264.8663C940.5664,264.8975 940.5519,265.5797 940.5741,265.6217C940.6206,266.2332 940.6817,266.854 940.9543,267.4133C941.2362,267.9635 941.2732,268.6116 941.2529,269.2196C941.2432,269.9299 941.2286,270.6409 941.163,271.3486C941.101,271.9851 940.9338,272.6637 941.1026,273.2878C945.5485,275.8592 944.4189,276.4519 947.1883,275.7387C947.8144,275.5826 948.3303,275.2928 948.7733,274.8153C949.6897,274.0643 950.6214,273.3337 951.5556,272.6047C953.1306,271.3649 954.678,270.0916 956.2443,268.841L951.7456,266.0428z" stroke="#000" stroke-linecap="round" stroke-linejoin="round" stroke-width="2"/>
<path d="M938.215,296.3529C937.3719,297.0851 936.356,297.5615 935.3619,298.0491C934.6868,298.3681 934.0084,298.6179 933.2691,298.7297C932.4275,298.8268 931.5645,298.6877 930.739,298.5147C929.7483,298.2871 928.7203,298.2922 927.7679,297.9235C927.038,297.6433 926.3351,297.3075 925.6318,296.9703C932.9675,301.3007 930.6968,300.2346 929.3224,298.8999L924.381,296.9221C926.348,298.1392 924.3487,301.2155 929.7858,300.2839C930.4876,300.6255 931.2185,300.9187 931.9578,301.1674C932.9453,301.4124 933.9673,301.4764 934.9611,301.6971C935.8441,301.827 936.7389,301.9693 937.6236,301.7702C938.3822,301.5983 939.0945,301.3057 939.7897,300.9579C940.8043,300.4228 941.8318,299.9002 942.7175,299.1598L938.215,296.3529z" stroke="#000" stroke-linecap="round" stroke-linejoin="round" stroke-width="2"/>
<path d="M914.3138,296.5277C915.1569,297.2599 916.1728,297.7363 917.167,298.2238C917.8421,298.5429 918.5204,298.7927 919.2597,298.9045C920.1013,299.0016 920.9643,298.8625 921.7899,298.6894C922.7805,298.4619 923.8085,298.467 924.7609,298.0983C925.4909,297.8181 926.1937,297.4823 926.897,297.1451C919.5613,301.4755 921.8321,300.4094 923.2064,299.0747L928.1478,297.0969C926.1808,298.314 928.1801,301.3903 922.7431,300.4586C922.0412,300.8003 921.3104,301.0935 920.571,301.3422C919.5835,301.5872 918.5616,301.6511 917.5678,301.8718C916.6847,302.0018 915.7899,302.1441 914.9052,301.945C914.1466,301.7731 913.4344,301.4805 912.7392,301.1327C911.7245,300.5976 910.6971,300.075 909.8113,299.3346L914.3138,296.5277z" stroke="#000" stroke-linecap="round" stroke-linejoin="round" stroke-width="2"/>
<path d="m950.7143,281.4286c0,1.7752-1.3591,3.2143-3.0357,3.2143-1.6766,0-3.0357,-1.4391-3.0357,-3.2143 0,-1.7752 1.3591,-3.2143 3.0357,-3.2143 1.6766,0 3.0357,1.4391 3.0357,3.2143z" fill="#fff" stroke="#000" stroke-linecap="round" stroke-linejoin="round" stroke-width="2" transform="matrix(-1,0,0,1,1877.551,6.07143)"/>
<path d="m950.7143,281.4286c0,1.7752-1.3591,3.2143-3.0357,3.2143-1.6766,0-3.0357,-1.4391-3.0357,-3.2143 0,-1.7752 1.3591,-3.2143 3.0357,-3.2143 1.6766,0 3.0357,1.4391 3.0357,3.2143z" fill="#fff" stroke="#000" stroke-linecap="round" stroke-linejoin="round" stroke-width="2" transform="matrix(-1,0,0,1,1868.4439,6.07145)"/>
<path d="M926.8367,287.8571L923.6225,287.8571" fill="#fff" fill-rule="evenodd" stroke="#000"/>
<path d="M932.9082,287.8571L952.1939,284.6429" fill="#fff" fill-rule="evenodd" stroke="#000"/>
<path d="M917.551,287.5L902.9082,285" fill="#fff" fill-rule="evenodd" stroke="#000"/>
</g>
<path d="M677.3073,245.1916L702.9256,241.5814L830.6305,283.2296L830.8505,297.7195" fill="#f8ffff" fill-rule="evenodd" stroke="#000"/>
<path d="M702.6874,241.5298L702.6874,173.0919" fill="none" stroke="#000"/>
<path d="M829.8403,347.9746L865.0077,338.5515" fill="none" stroke="#000"/>
<text font-family="Bitstream Vera Sans" font-size="20" x="727.1429" y="361.0714">
   <tspan text-align="center" text-anchor="middle" x="727.1429" y="361.0714">Le modèle avec</tspan>
   <tspan text-align="center" text-anchor="middle" x="727.1429" y="386.0714">des pics s'il vous plait...</tspan>
  </text>
<path d="M704.2857,325.7143L714.6429,340.7143" fill="none" stroke="#000"/>
<g transform="translate(-1.0102,2.5254)">
<path d="m761.4025,216.781c0,.6276-1.3568,1.1364-3.0305,1.1364-1.6737,0-3.0305,-.5088-3.0305,-1.1364 0,-.6276 1.3568,-1.1364 3.0305,-1.1364 1.6737,0 3.0305,.5088 3.0305,1.1364z" fill="#fff" stroke="#000" stroke-linecap="round" stroke-linejoin="round" stroke-width="2" transform="translate(-36.8706,1.5152)"/>
<path d="m761.4025,216.781c0,.6276-1.3568,1.1364-3.0305,1.1364-1.6737,0-3.0305,-.5088-3.0305,-1.1364 0,-.6276 1.3568,-1.1364 3.0305,-1.1364 1.6737,0 3.0305,.5088 3.0305,1.1364z" fill="#fff" stroke="#000" stroke-linecap="round" stroke-linejoin="round" stroke-width="2" transform="translate(-36.8706,-.1263)"/>
<path d="m761.4025,216.781c0,.6276-1.3568,1.1364-3.0305,1.1364-1.6737,0-3.0305,-.5088-3.0305,-1.1364 0,-.6276 1.3568,-1.1364 3.0305,-1.1364 1.6737,0 3.0305,.5088 3.0305,1.1364z" fill="#fff" stroke="#000" stroke-linecap="round" stroke-linejoin="round" stroke-width="2" transform="translate(-36.8706,-1.894)"/>
<path d="m761.4025,216.781c0,.6276-1.3568,1.1364-3.0305,1.1364-1.6737,0-3.0305,-.5088-3.0305,-1.1364 0,-.6276 1.3568,-1.1364 3.0305,-1.1364 1.6737,0 3.0305,.5088 3.0305,1.1364z" fill="#fff" stroke="#000" stroke-linecap="round" stroke-linejoin="round" stroke-width="2" transform="translate(-36.8706,-3.4093)"/>
<path d="m761.4025,216.781c0,.6276-1.3568,1.1364-3.0305,1.1364-1.6737,0-3.0305,-.5088-3.0305,-1.1364 0,-.6276 1.3568,-1.1364 3.0305,-1.1364 1.6737,0 3.0305,.5088 3.0305,1.1364z" fill="#fff" stroke="#000" stroke-linecap="round" stroke-linejoin="round" stroke-width="2" transform="translate(-36.8706,-5.2402)"/>
<path d="m761.4025,216.781c0,.6276-1.3568,1.1364-3.0305,1.1364-1.6737,0-3.0305,-.5088-3.0305,-1.1364 0,-.6276 1.3568,-1.1364 3.0305,-1.1364 1.6737,0 3.0305,.5088 3.0305,1.1364z" fill="#fff" stroke="#000" stroke-linecap="round" stroke-linejoin="round" stroke-width="2" transform="translate(-36.8705,-6.8817)"/>
<path d="m761.4025,216.781c0,.6276-1.3568,1.1364-3.0305,1.1364-1.6737,0-3.0305,-.5088-3.0305,-1.1364 0,-.6276 1.3568,-1.1364 3.0305,-1.1364 1.6737,0 3.0305,.5088 3.0305,1.1364z" fill="#fff" stroke="#000" stroke-linecap="round" stroke-linejoin="round" stroke-width="2" transform="translate(-36.8705,-8.6494)"/>
<path d="m761.4025,216.781c0,.6276-1.3568,1.1364-3.0305,1.1364-1.6737,0-3.0305,-.5088-3.0305,-1.1364 0,-.6276 1.3568,-1.1364 3.0305,-1.1364 1.6737,0 3.0305,.5088 3.0305,1.1364z" fill="#fff" stroke="#000" stroke-linecap="round" stroke-linejoin="round" stroke-width="2" transform="translate(-36.8705,-10.1647)"/>
<path d="M721.5014,206.0482L721.5014,190.3908" fill="none" stroke="#000"/>
<path d="M720.8147,206.4161C721.0634,206.4703 721.3166,206.4987 721.57,206.5178C721.7972,206.5316 722.0227,206.5643 722.2497,206.5816C722.3968,206.5922 722.5442,206.5936 722.6915,206.5942C722.8176,206.5942 722.9437,206.5939 723.0697,206.5937C723.1023,206.5799 723.14,206.5816 723.1726,206.5678C723.1871,206.5617 723.226,206.5346 723.2123,206.5423C721.9414,207.2591 722.258,207.1365 722.5096,206.9257C722.5666,206.8792 722.5138,206.8647 722.4726,206.8307C722.3921,206.7759 722.2919,206.7837 722.2025,206.7553C722.0996,206.72 721.9911,206.7116 721.8832,206.7059C721.7723,206.6985 721.6657,206.664 721.5546,206.651C721.4356,206.6399 721.316,206.6396 721.1966,206.6388C721.0705,206.6385 720.9445,206.6388 720.8184,206.639C720.692,206.6392 720.5657,206.6392 720.4393,206.6392C720.313,206.6392 720.1867,206.6392 720.0605,206.6392C719.9836,206.6385 719.9035,206.6344 719.8308,206.665C719.8162,206.6711 719.7772,206.6982 719.7909,206.6904C720.0479,206.5454 720.3042,206.399 720.5608,206.2532C720.4847,206.3015 720.4845,206.3697 720.5149,206.4449C720.5626,206.506 720.6476,206.5408 720.7206,206.5651C720.8223,206.5799 720.916,206.6203 721.0172,206.6387C721.0916,206.6407 721.16,206.6606 721.2309,206.681L720.457,207.2127C720.3874,207.1954 720.3166,207.1877 720.2462,207.1741C720.1435,207.1484 720.042,207.1173 719.9404,207.088C719.8463,207.0452 719.7484,206.9977 719.6949,206.9047C719.6504,206.8024 719.6293,206.7047 719.6878,206.6015C720.2403,206.2784 720.3371,206.0742 720.8186,206.0884C720.9448,206.0884 721.0711,206.0884 721.1974,206.0884C721.3237,206.0884 721.4501,206.0883 721.5764,206.0881C721.7027,206.088 721.829,206.0876 721.9553,206.0888C722.0775,206.0906 722.2001,206.0929 722.3213,206.1102C722.4294,206.1279 722.5355,206.1592 722.6458,206.1603C722.7578,206.1705 722.8683,206.1889 722.9758,206.223C723.0797,206.2431 723.1848,206.2606 723.2692,206.3303C723.3422,206.3868 723.4094,206.462 723.3757,206.5604C723.3573,206.5879 723.3448,206.6135 723.3153,206.6311C722.9608,206.8431 722.7031,207.1335 722.3117,207.1447C722.1855,207.1448 722.0593,207.1453 721.9332,207.1441C721.7856,207.1419 721.6381,207.1371 721.4911,207.1228C721.2657,207.101 721.0412,207.0696 720.815,207.0567C720.5591,207.033 720.3056,206.9939 720.0513,206.958L720.8147,206.4161z" fill="none" stroke="#000" stroke-linecap="round" stroke-linejoin="round" stroke-width="2"/>
</g>
<g transform="translate(-9.2176,-3.283)">
<path d="m761.4025,216.781c0,.6276-1.3568,1.1364-3.0305,1.1364-1.6737,0-3.0305,-.5088-3.0305,-1.1364 0,-.6276 1.3568,-1.1364 3.0305,-1.1364 1.6737,0 3.0305,.5088 3.0305,1.1364z" fill="#fff" stroke="#000" stroke-linecap="round" stroke-linejoin="round" stroke-width="2" transform="translate(-7.9183,3.5003)"/>
<path d="m761.4025,216.781c0,.6276-1.3568,1.1364-3.0305,1.1364-1.6737,0-3.0305,-.5088-3.0305,-1.1364 0,-.6276 1.3568,-1.1364 3.0305,-1.1364 1.6737,0 3.0305,.5088 3.0305,1.1364z" fill="#fff" stroke="#000" stroke-linecap="round" stroke-linejoin="round" stroke-width="2" transform="translate(-7.9183,1.8588)"/>
<path d="m761.4025,216.781c0,.6276-1.3568,1.1364-3.0305,1.1364-1.6737,0-3.0305,-.5088-3.0305,-1.1364 0,-.6276 1.3568,-1.1364 3.0305,-1.1364 1.6737,0 3.0305,.5088 3.0305,1.1364z" fill="#fff" stroke="#000" stroke-linecap="round" stroke-linejoin="round" stroke-width="2" transform="translate(-7.9183,9.1033252e-2)"/>
<path d="m761.4025,216.781c0,.6276-1.3568,1.1364-3.0305,1.1364-1.6737,0-3.0305,-.5088-3.0305,-1.1364 0,-.6276 1.3568,-1.1364 3.0305,-1.1364 1.6737,0 3.0305,.5088 3.0305,1.1364z" fill="#fff" stroke="#000" stroke-linecap="round" stroke-linejoin="round" stroke-width="2" transform="translate(-7.9183,-1.4242)"/>
<path d="m761.4025,216.781c0,.6276-1.3568,1.1364-3.0305,1.1364-1.6737,0-3.0305,-.5088-3.0305,-1.1364 0,-.6276 1.3568,-1.1364 3.0305,-1.1364 1.6737,0 3.0305,.5088 3.0305,1.1364z" fill="#fff" stroke="#000" stroke-linecap="round" stroke-linejoin="round" stroke-width="2" transform="translate(-7.9183,-3.2551)"/>
<path d="m761.4025,216.781c0,.6276-1.3568,1.1364-3.0305,1.1364-1.6737,0-3.0305,-.5088-3.0305,-1.1364 0,-.6276 1.3568,-1.1364 3.0305,-1.1364 1.6737,0 3.0305,.5088 3.0305,1.1364z" fill="#fff" stroke="#000" stroke-linecap="round" stroke-linejoin="round" stroke-width="2" transform="translate(-7.9183,-4.8966)"/>
<path d="m761.4025,216.781c0,.6276-1.3568,1.1364-3.0305,1.1364-1.6737,0-3.0305,-.5088-3.0305,-1.1364 0,-.6276 1.3568,-1.1364 3.0305,-1.1364 1.6737,0 3.0305,.5088 3.0305,1.1364z" fill="#fff" stroke="#000" stroke-linecap="round" stroke-linejoin="round" stroke-width="2" transform="translate(-7.9183,-6.6644)"/>
<path d="m761.4025,216.781c0,.6276-1.3568,1.1364-3.0305,1.1364-1.6737,0-3.0305,-.5088-3.0305,-1.1364 0,-.6276 1.3568,-1.1364 3.0305,-1.1364 1.6737,0 3.0305,.5088 3.0305,1.1364z" fill="#fff" stroke="#000" stroke-linecap="round" stroke-linejoin="round" stroke-width="2" transform="translate(-7.9183,-8.1796)"/>
<path d="M750.4537,208.0332L750.4537,192.3759" fill="none" stroke="#000"/>
<path d="M749.767,208.4012C750.0157,208.4554 750.2688,208.4838 750.5223,208.5028C750.7495,208.5167 750.975,208.5494 751.202,208.5667C751.3491,208.5772 751.4965,208.5787 751.6438,208.5793C751.7699,208.5793 751.8959,208.579 752.022,208.5788C752.0545,208.565 752.0923,208.5666 752.1249,208.5529C752.1393,208.5467 752.1782,208.5197 752.1645,208.5274C750.8937,209.2442 751.2103,209.1215 751.4619,208.9108C751.5189,208.8642 751.466,208.8498 751.4248,208.8158C751.3444,208.761 751.2442,208.7688 751.1548,208.7404C751.0518,208.7051 750.9434,208.6967 750.8355,208.691C750.7245,208.6836 750.618,208.6491 750.5069,208.6361C750.3879,208.625 750.2683,208.6246 750.1489,208.6239C750.0228,208.6236 749.8967,208.6239 749.7707,208.6241C749.6443,208.6242 749.518,208.6243 749.3916,208.6243C749.2653,208.6243 749.139,208.6243 749.0128,208.6243C748.9359,208.6236 748.8558,208.6195 748.7831,208.6501C748.7685,208.6562 748.7294,208.6832 748.7432,208.6755C749.0002,208.5305 749.2564,208.3841 749.5131,208.2383C749.437,208.2866 749.4367,208.3548 749.4672,208.43C749.5148,208.4911 749.5998,208.5258 749.6729,208.5501C749.7746,208.565 749.8683,208.6054 749.9695,208.6238C750.0439,208.6258 750.1123,208.6457 750.1831,208.6661L749.4093,209.1978C749.3397,209.1805 749.2689,209.1728 749.1985,209.1592C749.0958,209.1335 748.9942,209.1024 748.8927,209.0731C748.7985,209.0303 748.7006,208.9828 748.6472,208.8898C748.6027,208.7875 748.5816,208.6898 748.6401,208.5866C749.1925,208.2635 749.2894,208.0593 749.7709,208.0735C749.8971,208.0735 750.0234,208.0735 750.1497,208.0735C750.276,208.0735 750.4024,208.0734 750.5287,208.0732C750.655,208.073 750.7813,208.0727 750.9076,208.0739C751.0298,208.0757 751.1524,208.0779 751.2736,208.0953C751.3817,208.113 751.4878,208.1443 751.5981,208.1453C751.7101,208.1556 751.8206,208.174 751.9281,208.208C752.032,208.2282 752.1371,208.2457 752.2214,208.3154C752.2945,208.3719 752.3617,208.4471 752.328,208.5455C752.3096,208.573 752.2971,208.5985 752.2676,208.6162C751.913,208.8281 751.6554,209.1186 751.264,209.1297C751.1378,209.1299 751.0116,209.1304 750.8854,209.1292C750.7379,209.127 750.5903,209.1222 750.4434,209.1079C750.218,209.086 749.9935,209.0547 749.7673,209.0418C749.5114,209.0181 749.2579,208.979 749.0035,208.9431L749.767,208.4012z" fill="none" stroke="#000" stroke-linecap="round" stroke-linejoin="round" stroke-width="2"/>
</g>
<text font-family="Bitstream Vera Sans" font-size="14.401" transform="skewY(18.798)" x="749.6315" y="30.7296">
   <tspan font-size="11" text-align="center" text-anchor="middle" x="749.6315" y="30.7296">Poutres et tabourets</tspan>
   <tspan font-size="11" text-align="center" text-anchor="middle" x="749.6315" y="44.4796">vendus séparéments.</tspan>
  </text>
<path d="M761.4025,216.781A3.0305,1.1364 0 1 1 755.3415,216.781A3.0305,1.1364 0 1 1 761.4025,216.781z" fill="#fff" stroke="#000" stroke-linecap="round" stroke-linejoin="round" stroke-width="2" transform="translate(1.8044,-2.3081)"/>
<path d="M761.4025,216.781A3.0305,1.1364 0 1 1 755.3415,216.781A3.0305,1.1364 0 1 1 761.4025,216.781z" fill="#fff" stroke="#000" stroke-linecap="round" stroke-linejoin="round" stroke-width="2" transform="translate(1.8044,-3.9496)"/>
<path d="M761.4025,216.781A3.0305,1.1364 0 1 1 755.3415,216.781A3.0305,1.1364 0 1 1 761.4025,216.781z" fill="#fff" stroke="#000" stroke-linecap="round" stroke-linejoin="round" stroke-width="2" transform="translate(1.8044,-5.7173)"/>
<path d="M761.4025,216.781A3.0305,1.1364 0 1 1 755.3415,216.781A3.0305,1.1364 0 1 1 761.4025,216.781z" fill="#fff" stroke="#000" stroke-linecap="round" stroke-linejoin="round" stroke-width="2" transform="translate(1.8044,-7.2326)"/>
<path d="M761.4025,216.781A3.0305,1.1364 0 1 1 755.3415,216.781A3.0305,1.1364 0 1 1 761.4025,216.781z" fill="#fff" stroke="#000" stroke-linecap="round" stroke-linejoin="round" stroke-width="2" transform="translate(1.8044,-9.0635)"/>
<path d="M761.4025,216.781A3.0305,1.1364 0 1 1 755.3415,216.781A3.0305,1.1364 0 1 1 761.4025,216.781z" fill="#fff" stroke="#000" stroke-linecap="round" stroke-linejoin="round" stroke-width="2" transform="translate(1.8045,-10.705)"/>
<path d="M761.4025,216.781A3.0305,1.1364 0 1 1 755.3415,216.781A3.0305,1.1364 0 1 1 761.4025,216.781z" fill="#fff" stroke="#000" stroke-linecap="round" stroke-linejoin="round" stroke-width="2" transform="translate(1.8045,-12.4727)"/>
<path d="M761.4025,216.781A3.0305,1.1364 0 1 1 755.3415,216.781A3.0305,1.1364 0 1 1 761.4025,216.781z" fill="#fff" stroke="#000" stroke-linecap="round" stroke-linejoin="round" stroke-width="2" transform="translate(1.8045,-13.988)"/>
<path d="M759.4897,202.5928C759.7384,202.647 759.9915,202.6754 760.245,202.6944C760.4722,202.7083 760.6977,202.741 760.9248,202.7583C761.0718,202.7689 761.2192,202.7703 761.3665,202.7709C761.4926,202.7709 761.6187,202.7706 761.7447,202.7704C761.7773,202.7566 761.815,202.7583 761.8476,202.7445C761.8621,202.7384 761.901,202.7113 761.8873,202.719C760.6164,203.4358 760.933,203.3132 761.1846,203.1024C761.2416,203.0558 761.1888,203.0414 761.1476,203.0075C761.0671,202.9526 760.9669,202.9604 760.8775,202.932C760.7745,202.8967 760.6661,202.8883 760.5582,202.8826C760.4473,202.8752 760.3407,202.8407 760.2296,202.8277C760.1106,202.8166 759.991,202.8162 759.8716,202.8155C759.7455,202.8152 759.6195,202.8155 759.4934,202.8157C759.367,202.8159 759.2407,202.8159 759.1143,202.8159C758.988,202.8159 758.8618,202.8159 758.7355,202.8159C758.6586,202.8152 758.5785,202.8111 758.5058,202.8417C758.4912,202.8478 758.4522,202.8749 758.4659,202.8671C758.7229,202.7221 758.9792,202.5757 759.2358,202.4299C759.1597,202.4782 759.1594,202.5464 759.1899,202.6216C759.2376,202.6827 759.3226,202.7175 759.3956,202.7417C759.4973,202.7566 759.591,202.797 759.6922,202.8154C759.7666,202.8174 759.835,202.8373 759.9058,202.8577L759.132,203.3894C759.0624,203.3721 758.9916,203.3644 758.9212,203.3508C758.8185,203.3251 758.717,203.294 758.6154,203.2647C758.5213,203.2219 758.4234,203.1744 758.3699,203.0814C758.3254,202.9791 758.3043,202.8814 758.3628,202.7782C758.9153,202.4551 759.0121,202.2509 759.4936,202.2651C759.6199,202.2651 759.7461,202.2651 759.8724,202.2651C759.9987,202.2651 760.1251,202.265 760.2514,202.2648C760.3777,202.2647 760.504,202.2643 760.6304,202.2655C760.7525,202.2673 760.8751,202.2696 760.9963,202.2869C761.1044,202.3046 761.2105,202.3359 761.3208,202.337C761.4329,202.3473 761.5433,202.3656 761.6508,202.3997C761.7547,202.4198 761.8598,202.4373 761.9442,202.507C762.0172,202.5635 762.0844,202.6387 762.0507,202.7371C762.0323,202.7646 762.0199,202.7902 761.9903,202.8078C761.6358,203.0197 761.3781,203.3102 760.9867,203.3213C760.8605,203.3215 760.7343,203.322 760.6082,203.3208C760.4606,203.3186 760.313,203.3138 760.1661,203.2995C759.9407,203.2777 759.7162,203.2464 759.49,203.2334C759.2341,203.2097 758.9806,203.1706 758.7263,203.1347L759.4897,202.5928z" fill="none" stroke="#000" stroke-linecap="round" stroke-linejoin="round" stroke-width="2"/>
<g transform="matrix(.25302,0,0,.25302,478.39387,192.95794)">
<path d="m593.2143,173.2143 28.449,-4.5192 12.4053,-25.9976 13.0893,25.6601 28.5587,3.7645-20.3594,20.378 5.2449,28.3242-25.672,-13.0658-25.3171,13.7408 4.4932,-28.4531z" fill="#f8ffff" stroke="#000" stroke-linecap="round" stroke-linejoin="round" stroke-width="2"/>
<path d="M620.7143,192.1429H627.1429A.7143,.7143 0 0 1 627.8571,192.8571V202.5A.7143,.7143 0 0 1 627.1429,203.2143H620.7143A.7143,.7143 0 0 1 620,202.5V192.8571A.7143,.7143 0 0 1 620.7143,192.1429z" fill="#f8ffff" stroke="#000" stroke-linecap="round" stroke-linejoin="round" stroke-width="2"/>
<path d="M623.5714,192.1429C624.0222,191.4697 623.9286,188.2685 623.9286,186.4286C623.9286,184.6429 623.9286,182.8571 623.9286,181.0714C623.9286,178.5201 625.7071,177.1464 627.1429,176.4286C628.3462,175.8269 630.449,176.0714 632.1429,176.0714C633.6911,176.0714 634.9103,177.0532 635.7143,177.8571C637.0309,179.1738 637.9372,181.2316 638.9286,183.2143C639.828,185.0132 640.7618,186.5236 641.4286,187.8571C641.7638,188.5275 646.5891,187.5492 646.7857,187.5C648.1042,187.1704 649.6151,185.1101 650.7143,184.2857" fill="none" stroke="#000"/>
</g>
<text font-family="Bitstream Vera Sans" font-size="20" x="624.1213" y="225.4403">
   <tspan font-size="10" x="624.1213" y="225.4403">NEW !</tspan>
  </text>
<text font-family="Bitstream Vera Sans" font-size="14.613" x="639.5025" y="263.0527">
   <tspan text-align="center" text-anchor="middle" x="639.5025" y="263.0527">Câble</tspan>
   <tspan text-align="center" text-anchor="middle" x="639.5025" y="281.3184">RJ45</tspan>
  </text>
<text font-family="Bitstream Vera Sans" font-size="12" transform="matrix(.8531,.29481,0,1.1722,0,0)" x="802.538" y="-64.0656">
   <tspan font-size="10" x="802.538" y="-64.0656">Avec les épitéens depuis 25 ans</tspan>
  </text>
<path d="M691.8618,152.6537L801.3336,189.7699" fill="none" stroke="#000"/>
</svg>
