<svg version="1.0" viewBox="0 0 900 900" xmlns="http://www.w3.org/2000/svg" xmlns:svg="http://www.w3.org/2000/svg">
<g transform="translate(-3.5142,14.8676)">
<path d="M96.8562,86.8844H793.5231A72.1946,72.1946 0 0 1 865.7177,159.079V726.0892A72.1946,72.1946 0 0 1 793.5231,798.2838H96.8562A72.1946,72.1946 0 0 1 24.6616,726.0892V159.079A72.1946,72.1946 0 0 1 96.8562,86.8844z" fill="#fff" stroke="#000" stroke-linecap="round" stroke-width="11.2975"/>
<path d="M20.51,386.2724L301.7906,386.2724" fill="none" stroke="#000" transform="translate(3.5142,-14.8676)"/>
<path d="M304.5544,82.1674L304.5544,798.817" fill="none" stroke="#000" stroke-width="8.5639"/>
<g transform="matrix(.12574,0,0,.12574,819.20268,812.09819)">
<path d="M162.9615,-66.1029C166.455,-62.0454 171.1969,-61.5587 176.2443,-61.2734C182.6298,-61.4455 189.026,-62.9739 194.9925,-65.2443C198.1805,-66.4574 199.9424,-67.4904 202.9171,-69.0527C185.1139,-58.637 195.0252,-64.2154 198.3536,-67.7512C200.078,-69.5831 201.1079,-71.5131 202.0803,-73.8002C204.6069,-80.9176 204.9343,-88.5711 205.3652,-96.044C206.205,-106.9224 203.9531,-117.6028 201.5284,-128.1342C198.5789,-139.2121 194.5731,-149.9773 190.1613,-160.547C188.0488,-165.5407 185.6597,-170.4087 183.3326,-175.3036C180.1965,-181.3209 177.6309,-177.584 195.344,-184.4552C195.9544,-184.6919 196.0751,-183.3682 196.4662,-182.8431C197.1211,-181.9638 197.8094,-181.1099 198.4809,-180.2434C205.0155,-171.2763 212.8739,-163.4194 220.7492,-155.6472C225.3824,-151.1349 230.3508,-146.9467 234.7812,-142.2286C236.4627,-140.8555 237.4679,-138.92 238.8212,-137.2745C240.143,-136.0803 241.1771,-137.3375 242.3452,-138.1546C221.9421,-125.9198 229.2084,-129.8742 233.1206,-133.6257C234.6613,-135.103 236.1138,-136.6818 237.5889,-138.2234C239.6824,-140.3121 241.6662,-142.5484 243.9587,-144.4296C250.0105,-149.3955 258.4541,-153.3638 264.7123,-156.9238C270.4949,-159.4778 276.4106,-161.6997 282.419,-163.6577C283.6619,-163.9272 288.4708,-165.7766 289.5688,-164.5267C289.8243,-164.2359 289.9278,-163.8408 290.1072,-163.4978C290.1321,-163.1471 290.2293,-162.7941 290.1818,-162.4458C289.8354,-159.9037 285.8996,-156.946 284.1819,-155.3646C276.2864,-148.8374 268.6258,-142.0481 261.3333,-134.8534C254.99,-128.0483 248.4375,-121.3307 243.3873,-113.4811C240.2691,-108.5784 238.6116,-103.1651 237.8336,-97.4612C237.3182,-92.3602 237.4023,-87.2238 237.4103,-82.1038C237.6896,-76.538 238.3996,-70.961 240.0566,-65.6294C241.0066,-62.7897 242.6958,-60.7035 245.3984,-59.4565C247.1918,-58.8245 249.2452,-58.4083 251.1546,-58.7689C251.5988,-58.8529 255.3028,-60.1078 255.5991,-60.2068C259.9663,-62.5901 270.5149,-68.1635 250.7739,-57.3451C249.993,-56.9172 252.2774,-58.3004 253.0176,-58.7957C254.7175,-59.9333 255.126,-60.2677 256.721,-61.457C258.634,-62.8882 257.7277,-62.1927 259.444,-63.5378L273.1151,-69.0361C271.3827,-67.5797 272.3103,-68.3061 270.3191,-66.8738C262.2562,-60.6484 253.3247,-55.4952 244.0683,-51.2776C240.0071,-50.0654 237.0083,-49.4853 233.0532,-51.3558C230.1407,-52.9982 228.2379,-55.381 227.2136,-58.6022C225.5902,-64.0918 224.9779,-69.8068 224.4451,-75.4915C224.414,-80.6627 224.3292,-85.8471 224.7473,-91.006C225.4856,-96.9163 227.043,-102.5571 230.2219,-107.6713C230.8593,-108.7308 231.4383,-109.8277 232.1341,-110.8497C233.5635,-112.949 235.6974,-115.3519 237.3267,-117.2406C240.9264,-121.4136 244.6087,-125.5129 248.4113,-129.5027C255.5038,-136.6573 262.9793,-143.4183 270.7308,-149.8547C272.9266,-151.8936 275.199,-153.8815 277.0938,-156.2117C277.4084,-156.0458 276.3957,-156.0728 276.0435,-156.0235C274.2856,-155.7778 272.5938,-155.2318 270.901,-154.7183C264.9598,-152.7572 259.0786,-150.5816 253.4382,-147.8602C272.8794,-159.3576 261.1903,-152.8293 257.3908,-149.9058C255.0765,-148.125 253.0963,-145.926 251.0661,-143.8444C243.704,-136.0782 243.2815,-135.2558 230.8263,-128.8268C228.7851,-127.8625 227.644,-127.977 226.0472,-129.6547C224.7873,-131.3205 223.7779,-133.1781 222.2218,-134.6111C217.9797,-139.4028 213.2498,-143.7505 208.7563,-148.2998C200.956,-156.2393 193.036,-164.0853 186.0942,-172.8083C185.3483,-173.6466 184.6017,-174.4843 183.8565,-175.3233C183.4425,-175.7895 182.1438,-176.3177 182.6168,-176.7238C193.8626,-186.3779 193.2258,-188.9054 196.1308,-182.5316C198.3231,-177.537 200.6341,-172.5923 202.629,-167.5129C206.8035,-156.7535 210.6525,-145.8567 213.8046,-134.7502C216.3374,-124.1716 218.8429,-113.4256 218.1141,-102.4633C217.8266,-94.9202 217.3841,-87.2389 215.3364,-79.9427C214.6632,-78.0762 214.4306,-77.1236 213.3557,-75.4158C208.633,-67.9123 198.4469,-64.3688 191.7517,-60.1093C183.2311,-55.9217 174.1664,-52.9607 164.5762,-52.9176C163.243,-53.0245 161.8998,-53.0436 160.5765,-53.2383C156.6356,-53.8182 152.962,-55.54 150.2346,-58.4617L162.9615,-66.1029z" stroke="#000" stroke-linecap="round" stroke-linejoin="round" stroke-width="2"/>
<path d="M285.1504,-83.2549C279.2704,-81.6082 266.5253,-73.74 288.7732,-86.471C285.6873,-84.8287 283.8556,-82.1564 282.4117,-79.0736C281.5877,-76.6037 280.7082,-73.8959 280.8873,-71.2445C281.0112,-69.4099 281.4883,-68.4885 282.1122,-66.775C284.5548,-61.9495 288.3109,-57.9808 292.7681,-54.9746C296.0578,-52.6838 299.7974,-51.6413 303.7669,-51.5931C306.8299,-52.2892 309.6761,-53.4821 312.4808,-54.8725C313.6763,-55.4652 317.18,-57.4003 316.0334,-56.7177C302.8176,-48.8508 306.1278,-50.9743 310.8042,-54.1772C314.6548,-57.1431 318.8403,-60.5843 319.8322,-65.6282C319.9707,-66.3328 319.9608,-67.0585 320.0251,-67.7736C319.7705,-74.0822 315.7842,-79.021 311.938,-83.6853C309.5135,-86.3835 306.7679,-88.9566 303.4532,-90.5325C301.7709,-91.3322 300.9086,-91.4744 299.127,-91.9474C295.533,-92.1428 291.7665,-91.8011 288.3544,-90.5627C286.7769,-89.9902 284.386,-88.6593 282.9199,-87.8841C302.9062,-99.8746 289.8107,-91.9587 285.6886,-88.3736L272.0851,-82.8087C278.4156,-88.898 286.8685,-92.4857 294.2269,-96.9393C296.3627,-97.9778 297.6236,-98.6956 299.9061,-99.3886C303.5386,-100.4916 307.4494,-100.7491 311.1907,-100.1978C313.1147,-99.5839 313.8945,-99.429 315.7014,-98.4661C319.0659,-96.6731 321.8405,-93.9498 324.3224,-91.1058C328.3687,-86.1242 332.4762,-80.9616 333.0924,-74.3305C333.0628,-73.5258 333.1121,-72.7144 333.0035,-71.9165C332.2653,-66.4892 328.2283,-62.6312 324.1231,-59.4248C316.1605,-53.7094 320.2406,-56.4756 304.8488,-47.7573C300.8383,-45.4856 296.4513,-43.5622 291.8451,-43.0245C287.6957,-43.3915 283.8349,-44.6143 280.4546,-47.1325C275.8828,-50.4672 272.0386,-54.677 269.3612,-59.693C268.7366,-61.3275 268.0271,-62.8838 267.8135,-64.6468C267.4791,-67.4079 268.3981,-70.3095 269.0633,-72.941C270.3422,-76.1902 271.9653,-79.2701 275.0209,-81.1777C282.2031,-85.3118 288.9239,-90.0555 296.9357,-92.2666L285.1504,-83.2549z" stroke="#000" stroke-linecap="round" stroke-linejoin="round" stroke-width="2"/>
<path d="M347.1504,-77.2549C344.6035,-76.4403 341.9575,-75.7416 339.5363,-74.5814C338.7232,-74.1918 337.9599,-73.7059 337.1716,-73.2681C340.5173,-75.1416 343.863,-77.0152 347.2087,-78.8887C343.2371,-76.2087 340.2901,-73.5303 338.5132,-69.0387C337.3505,-65.3388 337.9081,-62.2103 340.8379,-59.4732C341.5453,-58.8124 342.3768,-58.2984 343.1462,-57.711C348.7467,-54.4938 355.3758,-53.3418 361.7904,-54.0225C363.6291,-54.2176 365.4327,-54.663 367.2538,-54.9833C371.4683,-56.0713 373.305,-56.374 377.2631,-58.0355C378.5761,-58.5866 382.3128,-60.6635 381.0902,-59.9334C363.2909,-49.3046 371.3475,-53.9354 374.1428,-56.7651C374.7627,-57.3926 375.255,-58.1344 375.8111,-58.8191C378.2486,-62.6326 378.3111,-66.0246 376.5942,-70.0879C376.279,-70.8016 374.4627,-74.5447 373.1819,-73.7346C372.9601,-73.5943 372.8477,-73.33 372.6807,-73.1277C392.8977,-84.6564 385.2006,-82.7287 383.2398,-77.11C382.3936,-74.6854 382.2459,-72.3278 382.1295,-69.7816C383.5341,-57.9615 388.7559,-47.0167 393.0457,-36.0346C398.2618,-21.5258 403.2897,-6.47 403.8684,9.092C403.9836,12.189 403.6821,15.2876 403.5889,18.3853C403.1263,21.364 402.8671,24.3813 402.2011,27.3212C400.0287,36.9109 395.0849,45.6892 387.7437,52.2682C386.4496,53.4279 384.9846,54.3816 383.6051,55.4383C378.0848,58.3221 372.8336,61.7934 367.0443,64.0899C364.6445,65.0418 358.8518,63.0561 356.9529,62.2095C349.8949,59.0631 343.7992,53.895 337.8032,49.1621C327.688,40.5031 317.7846,31.4711 308.7355,21.6837C304.0475,16.6133 302.8886,14.9067 298.8166,9.6614C295.3512,3.8792 291.2661,-2.8245 294.6732,-9.6402C296.6895,-13.6737 299.1232,-15.1372 302.5004,-18.074C312.6219,-24.6327 313.4505,-25.3796 328.104,-32.7999C331.6804,-34.6109 343.2136,-38.7065 346.7432,-39.9379C353.7819,-42.3937 361.3514,-44.8267 368.4293,-47.1393C387.0233,-52.5028 405.2349,-59.0355 423.2344,-66.1176C424.7623,-66.7671 426.2923,-67.4118 427.8181,-68.0661C428.9838,-68.566 430.1581,-69.0469 431.3089,-69.5801C433.6612,-70.67 435.8588,-72.019 438.2856,-72.9431C441.5765,-73.4124 442.7308,-69.4505 443.7159,-67.0436C445.9847,-60.9159 447.263,-54.4902 447.8147,-47.9941C447.9509,-45.0837 448.0453,-42.1595 447.6331,-39.2662C447.5909,-38.9704 447.7439,-38.5103 447.473,-38.3842C443.0642,-36.3309 438.4604,-34.7251 433.9541,-32.8956C433.9659,-33.7909 433.9166,-34.689 433.9896,-35.5814C434.0957,-36.8799 434.3191,-38.1662 434.4903,-39.4578C435.49,-46.9958 436.7994,-54.4336 438.3334,-61.8806C439.8884,-68.3767 441.231,-75.18 444.9433,-80.8503C449.1473,-85.2518 458.497,-93.9297 463.0497,-88.879C463.5264,-88.3501 463.8605,-87.7082 464.2658,-87.1228C465.1568,-85.5475 465.9266,-84.351 466.5095,-82.6055C468.1484,-77.6977 468.884,-71.9449 469.7517,-66.8403C470.8843,-62.4227 470.4525,-57.1322 471.7929,-52.8005C473.5655,-57.562 471.775,-52.58 459.0435,-46.5094C458.7853,-46.3863 459.4327,-46.9346 459.5772,-47.1814C459.9087,-47.7474 460.5577,-49.4088 460.8105,-49.919C461.1553,-50.6152 461.549,-51.286 461.9182,-51.9694C464.3127,-55.807 466.3395,-59.8622 468.9779,-63.5425C473.3892,-69.0698 477.5158,-70.2762 485.1519,-74.4725C485.4138,-74.6164 485.7664,-74.5326 486.0475,-74.431C486.4054,-74.3016 486.6836,-74.0129 487.0016,-73.8039C489.988,-70.6628 491.0279,-66.2182 492.0362,-62.1278C492.9125,-57.6742 493.3814,-53.131 495.0104,-48.8712C495.4071,-48.3128 495.7311,-47.6948 496.2004,-47.1959C499.6185,-43.5623 505.2722,-40.8461 509.9343,-39.3687C511.6885,-38.8128 513.4959,-38.4411 515.2767,-37.9773C522.8167,-36.0961 530.3825,-36.0026 537.8823,-38.0643C539.5423,-38.5206 541.2095,-38.9969 542.7819,-39.6981C544.2464,-40.3512 545.5581,-41.3036 546.9463,-42.1064C544.0584,-40.6163 541.3829,-38.6098 538.2826,-37.636C537.087,-37.2605 540.1428,-39.3201 540.9963,-40.2377C543.5122,-42.9425 544.9507,-45.9503 545.9633,-49.4488C546.6579,-52.3622 546.6456,-55.3557 546.5652,-58.3283C545.753,-64.4645 540.332,-58.4252 559.1,-66.0472C559.4417,-66.186 558.8994,-65.3356 558.842,-64.9712C558.7584,-64.4412 558.7327,-63.9037 558.678,-63.37C558.4116,-58.5352 558.3011,-53.6898 558.8385,-48.8729C559.3853,-45.774 559.9781,-42.6077 562.4072,-40.4324C564.1162,-39.3075 565.9299,-39.231 567.8176,-39.8486C572.3605,-42.1411 579.1794,-46.118 558.5218,-34.4558C557.7888,-34.042 559.9393,-35.3644 560.6358,-35.837L574.3857,-41.3039C573.3212,-40.43 573.5147,-40.5201 572.2923,-39.8054C567.6471,-37.0896 561.8948,-32.5533 556.0168,-30.8992C553.7225,-30.6532 551.5833,-31.1524 549.789,-32.6773C547.292,-35.2807 546.4771,-38.6003 545.9205,-42.101C545.3299,-46.9737 545.4484,-51.8684 545.5121,-56.7697C545.5317,-57.4241 545.5891,-59.6985 545.6353,-59.7292C555.3623,-66.1895 558.5071,-72.3046 559.7414,-65.0828C559.8109,-61.9585 559.8144,-58.8161 559.1617,-55.7418C555.9603,-42.9865 547.5064,-40.0804 535.8851,-33.2002C534.4562,-32.4798 533.0874,-31.625 531.5984,-31.0388C522.6477,-27.5147 512.8948,-27.7976 503.6881,-30.0046C501.849,-30.4923 499.9816,-30.8834 498.1708,-31.4678C493.5394,-32.9624 487.0263,-36.1598 483.6105,-39.7531C483.0478,-40.345 482.6426,-41.0688 482.1586,-41.7267C480.5349,-46.0707 480.067,-50.6739 479.2315,-55.2142C478.3895,-58.7321 477.5533,-63.083 474.6465,-65.525C473.9606,-65.439 474.3146,-65.5425 473.6055,-65.1501C477.5343,-67.4822 481.4631,-69.8142 485.392,-72.1463C485.7243,-72.3373 484.7836,-71.6778 484.5048,-71.4148C483.8053,-70.7548 483.2382,-69.9617 482.4827,-69.3567C479.6627,-65.8118 477.6289,-61.7908 475.2736,-57.9352C474.3882,-56.4197 473.6566,-54.9774 473.0931,-53.3151C472.9783,-52.9764 473.1056,-52.4677 472.7992,-52.2834C459.5044,-44.2868 462.4531,-41.0521 458.7423,-45.7121C457.6264,-50.4162 458.1984,-55.4103 457.1115,-60.1366C456.048,-66.7522 455.2298,-73.8382 451.6337,-79.6263C451.0084,-80.3781 450.7399,-81.067 449.7463,-81.2506C449.4773,-81.3003 448.6972,-81.0264 448.9293,-81.1714C452.7843,-83.5799 456.7874,-85.7435 460.684,-88.0841C461.0341,-88.2944 459.9199,-87.7826 459.574,-87.5654C459.1661,-87.3094 458.8163,-86.9709 458.4374,-86.6736C454.0539,-81.4464 452.7319,-74.3891 450.9594,-67.9864C448.9624,-58.7542 447.2481,-49.392 446.9663,-39.9303C442.6611,-37.2917 438.4431,-34.5055 434.0509,-32.0145C433.809,-31.8773 434.2913,-32.5188 434.3689,-32.7859C435.1731,-35.5526 434.9442,-38.4808 434.9437,-41.3192C434.5725,-47.6693 433.3852,-53.9844 430.9595,-59.8902C430.4967,-60.9584 429.6461,-64.0551 428.0273,-64.1645C427.6519,-64.1899 426.9629,-63.8928 426.664,-63.7855C421.876,-61.6536 417.2258,-59.2069 412.2498,-57.5029C394.41,-50.7931 376.4177,-44.5046 358.1221,-39.1385C347.5024,-35.6251 336.8084,-32.2298 326.4071,-28.0958C323.4132,-26.9058 320.6723,-24.9485 317.5147,-24.3088C315.893,-23.9803 323.0914,-27.8472 321.6038,-27.1227C319.4346,-26.0663 317.5039,-24.5777 315.454,-23.3052C311.6254,-20.2317 306.9304,-17.0518 306.0231,-11.7537C305.1302,-6.539 308.4514,-1.7173 310.6976,2.6064C312.0867,4.5044 313.4087,6.4534 314.865,8.3002C324.8107,20.9133 336.9125,31.7349 349.2333,41.9507C355.2776,46.4639 361.4425,51.5105 368.5887,54.2474C370.2378,54.879 371.9681,55.3572 373.7232,55.5527C375.2204,55.7194 379.0476,54.0524 378.2367,55.3221C376.5481,57.9662 373.0607,58.8689 370.4727,60.6424C371.9211,59.6313 373.4539,58.7314 374.818,57.609C382.3953,51.3747 387.7065,42.7683 390.0706,33.2575C390.7888,30.3679 391.0696,27.3869 391.5691,24.4516C391.713,21.3964 392.0786,18.3436 392.0007,15.286C391.6074,-.1509 386.3714,-15.0473 381.0958,-29.3649C376.6203,-40.4339 371.1739,-51.3452 369.2251,-63.2235C369.1596,-66.0352 369.2286,-68.1755 369.9092,-70.8957C369.9473,-71.0478 370.7023,-73.7558 371.0384,-73.9872C375.3553,-76.9602 379.9527,-79.5037 384.4099,-82.2619C384.7489,-82.2349 385.0988,-82.2704 385.4268,-82.1807C387.5325,-81.605 388.5419,-78.9921 389.422,-77.2845C391.2962,-72.8589 391.5534,-68.921 389.1687,-64.5737C388.6277,-63.7989 388.1602,-62.9673 387.5458,-62.2493C383.155,-57.1183 374.373,-53.5169 369.904,-51.0303C365.6297,-48.6519 360.7122,-47.6351 356.0106,-46.5342C354.1284,-46.2519 352.2609,-45.8421 350.3638,-45.6872C343.5879,-45.1342 336.6659,-46.3505 330.8819,-49.9878C330.0515,-50.6505 329.1568,-51.2399 328.3906,-51.9759C325.1513,-55.0883 324.1401,-58.5232 325.2119,-62.8203C326.8277,-67.9581 329.3611,-70.4448 333.6797,-73.6076C342.0135,-78.5311 349.5479,-83.9618 358.9357,-86.2666L347.1504,-77.2549z" stroke="#000" stroke-linecap="round" stroke-linejoin="round" stroke-width="2"/>
<path d="M549.2332,-122.1847C547.4497,-120.0919 546.0244,-117.6969 545.3462,-115.0219C544.8607,-112.3468 546.4564,-111.6609 548.6501,-110.701C552.1989,-109.4013 555.2322,-109.544 558.8667,-110.1867C563.727,-111.8529 571.4457,-116.6009 549.8419,-104.683C549.5386,-104.5156 550.4174,-105.0731 550.6735,-105.3066C551.283,-105.8622 551.3443,-106.0922 551.7431,-106.7885C552.4769,-108.4348 552.405,-109.9757 551.4599,-111.492C550.2026,-112.6833 548.3125,-112.5716 546.6902,-112.6506C545.0147,-112.4957 543.4191,-112.0801 542.057,-111.0753L553.6269,-120.3929C555.2743,-121.0166 556.9597,-121.4107 558.7396,-121.2691C560.8571,-121.0599 562.9403,-120.7594 564.3134,-118.9498C565.4318,-117.0683 565.8738,-115.1231 565.2275,-112.9755C562.8838,-105.9037 553.9818,-103.0447 547.0943,-101.3611C543.4244,-100.8997 539.7964,-101.101 536.3461,-102.5755C533.866,-103.8553 531.6424,-105.4567 532.0181,-108.5614C532.4759,-111.4436 533.8818,-114.0254 535.5706,-116.3799L549.2332,-122.1847z" stroke="#000" stroke-linecap="round" stroke-linejoin="round" stroke-width="2"/>
<path d="M359.6057,-86.1453C362.4187,-87.5125 365.103,-89.129 368.0047,-90.3079C369.8229,-91.4887 371.8175,-92.0343 373.9447,-92.2669C375.9013,-92.4156 377.8658,-92.3906 379.8266,-92.3838C381.7726,-92.5908 383.4211,-92.0588 385.1306,-91.2244C386.3272,-90.2653 387.2717,-88.9911 388.1806,-87.7589C388.971,-86.3232 389.4355,-84.7124 389.9217,-83.1481C390.3578,-81.5453 390.9514,-80.0138 391.2655,-78.376C391.5681,-76.4533 391.5887,-74.5022 391.6123,-72.5605C391.6209,-71.5593 391.6196,-70.5581 391.6191,-69.5568L378.4016,-62.8239C378.4031,-63.8201 378.4051,-64.8163 378.4006,-65.8125C378.3869,-67.6761 378.3836,-69.5468 378.1492,-71.3987C377.8884,-72.9952 377.3044,-74.4635 376.8794,-76.0128C376.4669,-77.4199 376.0218,-78.8533 375.3829,-80.165C374.6051,-81.185 373.8481,-82.3496 372.73,-83.0103C371.1597,-83.6924 369.5221,-83.7365 367.825,-83.6633C365.9059,-83.6547 363.9742,-83.6641 362.0745,-83.3541C360.0654,-82.9292 358.2552,-82.0648 356.4262,-81.1471C353.5803,-79.8236 350.8275,-78.3064 348.069,-76.8116L359.6057,-86.1453z" stroke="#000" stroke-linecap="round" stroke-linejoin="round" stroke-width="2"/>
</g>
<path d="M90.3277,50.1241H277.2059A15.9099,15.9099 0 0 1 293.1158,66.034V66.034A15.9099,15.9099 0 0 1 277.2059,81.9439H90.3277A15.9099,15.9099 0 0 1 74.4178,66.034V66.034A15.9099,15.9099 0 0 1 90.3277,50.1241z" fill="#fff" stroke="#000" stroke-linecap="round" stroke-linejoin="round" stroke-width="4"/>
<path d="m101.5203,44.9288c0,19.2473-16.5075,34.8503-36.8706,34.8503-20.3631,0-36.8706,-15.603-36.8706,-34.8503 0,-19.2473 16.5075,-34.8503 36.8706,-34.8503 20.3631,0 36.8706,15.603 36.8706,34.8503z" stroke="#000" stroke-linecap="round" stroke-linejoin="round" stroke-width="7.491" transform="matrix(.7121,0,0,.7121,29.13146,27.74701)"/>
<text font-family="Bitstream Vera Sans" font-size="40" x="50.7807" y="73.7815">
    <tspan fill="#f9f9f9" x="50.7807" y="73.7815">31</tspan>
   </text>
<path d="M863.9947,435.6961L26.0053,436.3039" fill="none" stroke="#000" stroke-width="8.6523"/>
<path d="M567.2687,81.8219L567.2687,798.4715" fill="none" stroke="#000" stroke-width="8.5639"/>
<path d="M19.5334,694.8996L302.7672,694.8996" fill="none" stroke="#000" transform="translate(3.5142,-14.8676)"/>
<path d="m446.8915,78.4154c0,2.9289-27.5427,5.3033-61.5183,5.3033-33.9756,0-61.5183,-2.3744-61.5183,-5.3033 0,-2.9289 27.5427,-5.3033 61.5183,-5.3033 33.9756,0 61.5183,2.3744 61.5183,5.3033z" stroke="#000" stroke-linecap="round" stroke-width="4.862" transform="matrix(-.8003,0,0,.8003,452.26888,649.95035)"/>
<g transform="matrix(-.8003,0,0,.8003,65.99347,412.03787)">
<path d="M-43.5297,288.8057L-43.5297,336.6941C-43.5297,356.7011-59.6364,372.8078-79.6434,372.8078L-115.0774,372.8078C-135.0844,372.8078-151.1912,356.7011-151.1912,336.6941L-151.1912,288.8057" fill="#fff" stroke="#000" stroke-linecap="round" stroke-linejoin="round" stroke-width="3.6422"/>
<path d="M-122.1431,308.6171H-98.6091A.7803,.7803 0 0 1 -97.8288,309.3974V319.4235A.7803,.7803 0 0 1 -98.6091,320.2038H-122.1431A.7803,.7803 0 0 1 -122.9234,319.4235V309.3974A.7803,.7803 0 0 1 -122.1431,308.6171z" stroke="#000" stroke-linecap="square" stroke-linejoin="round" stroke-width="3.7338"/>
<path d="M-80.7522,308.6171H-60.3393A2.3409,2.3409 0 0 1 -57.9985,310.958V317.8629A2.3409,2.3409 0 0 1 -60.3393,320.2038H-80.7522A2.3409,2.3409 0 0 1 -83.093,317.8629V310.958A2.3409,2.3409 0 0 1 -80.7522,308.6171z" stroke="#000" stroke-linecap="square" stroke-linejoin="round" stroke-width="3.7338"/>
<path d="M-148.8829,313.6717C-148.3338,313.6822-147.7844,313.6785-147.2351,313.6758C-146.8722,313.6736-146.5092,313.6722-146.1462,313.6715C-145.8537,313.6711-145.5613,313.6711-145.2688,313.6711C-144.9647,313.6705-144.6607,313.6717-144.3567,313.6723C-143.966,313.6626-143.5814,313.6719-143.1947,313.723C-142.7951,313.7775-142.3916,313.7947-141.9885,313.8057C-141.5833,313.7899-141.1856,313.8646-140.7845,313.9048C-140.3766,313.9415-139.9665,313.9454-139.5571,313.9498C-139.1269,313.9521-138.6968,313.9519-138.2666,313.9504C-137.893,313.9497-137.5194,313.9491-137.1458,313.9482C-136.8388,313.9474-136.5318,313.9472-136.2247,313.9471C-135.9332,313.947-135.6418,313.947-135.3502,313.947C-135.0587,313.947-134.7672,313.947-134.4756,313.947C-134.1569,313.9467-133.8382,313.9476-133.5196,313.949C-133.1253,313.9514-132.731,313.9494-132.3367,313.9484C-131.9659,313.9481-131.595,313.9488-131.2241,313.9499C-130.8274,313.9497-130.4307,313.9498-130.0339,313.9488C-129.654,313.949-129.274,313.9495-128.894,313.949C-128.5484,313.9477-128.2029,313.9475-127.8573,313.9492C-127.3241,313.9518-126.7909,313.9534-126.2577,313.9553C-125.5311,313.9581-124.8045,313.9587-124.0778,313.9563C-123.5446,313.9549-123.0113,313.9511-122.4781,313.9509C-122.0368,313.9515-121.5955,313.9508-121.1542,313.9493C-121.0931,313.9491-121.032,313.949-120.9709,313.9488L-122.7169,315.1481C-122.7774,315.1478-122.8379,315.1476-122.8984,315.1474C-123.3383,315.1459-123.7781,315.1453-124.218,315.1459C-124.7459,315.1457-125.2739,315.1418-125.8018,315.1405C-126.5294,315.1381-127.2571,315.1387-127.9846,315.1415C-128.5238,315.1434-129.0628,315.145-129.6019,315.1476C-129.9477,315.1493-130.2936,315.1491-130.6394,315.1478C-131.0195,315.1473-131.3996,315.1478-131.7797,315.148C-132.1754,315.147-132.5711,315.1471-132.9668,315.1469C-133.3391,315.1479-133.7115,315.1487-134.0838,315.1484C-134.4775,315.1474-134.8712,315.1454-135.2648,315.1478C-135.5854,315.1492-135.9059,315.1501-136.2265,315.1497C-136.5181,315.1497-136.8096,315.1497-137.1012,315.1497C-137.3926,315.1497-137.684,315.1497-137.9755,315.1497C-138.2815,315.1495-138.5875,315.1493-138.8935,315.1487C-139.2655,315.148-139.6375,315.1479-140.0095,315.1478C-140.4397,315.147-140.8698,315.1485-141.3,315.1437C-141.7147,315.1381-142.1302,315.1292-142.5427,315.0843C-142.9395,315.0397-143.3348,314.9871-143.7358,314.9973C-144.1436,314.9822-144.5506,314.9538-144.955,314.9006C-145.3371,314.8601-145.7204,314.8714-146.1043,314.8727C-146.4095,314.8733-146.7146,314.8745-147.0198,314.8739C-147.3119,314.8739-147.604,314.8739-147.8961,314.8735C-148.255,314.8728-148.6138,314.8714-148.9726,314.8693C-149.5259,314.8665-150.0792,314.863-150.6323,314.8733L-148.8829,313.6717z" stroke="#000" stroke-linecap="square" stroke-linejoin="round" stroke-width=".4767"/>
<path d="M-57.3881,313.9484C-56.6843,313.9602-55.9802,313.9586-55.2763,313.9581C-54.631,313.9572-53.9858,313.9554-53.3406,313.9525C-52.9094,313.9502-52.4782,313.9501-52.047,313.9495C-51.7073,313.9487-51.3675,313.9479-51.0277,313.9474C-50.7309,313.9691-50.4456,313.8899-50.1539,313.8518C-49.8613,313.8177-49.5662,313.8128-49.2718,313.8093C-48.9796,313.8072-48.6875,313.8081-48.3953,313.8085C-48.1035,313.8089-47.8117,313.809-47.5199,313.8091C-47.2282,313.8091-46.9364,313.8091-46.6446,313.8091C-46.3528,313.8091-46.061,313.8091-45.7692,313.8091C-45.4559,313.8085-45.1426,313.8102-44.8294,313.8103C-44.5121,313.81-44.1949,313.8096-43.8776,313.8093C-43.5838,313.8091-43.29,313.8091-42.9962,313.8091C-42.8018,313.8091-42.899,313.8091-42.7047,313.8091L-44.4556,315.0118C-44.6499,315.0118-44.5527,315.0118-44.7471,315.0118C-45.0407,315.0118-45.3343,315.0118-45.6279,315.0116C-45.9442,315.0113-46.2606,315.0109-46.577,315.0106C-46.8913,315.0107-47.2057,315.0124-47.5201,315.0118C-47.8119,315.0118-48.1037,315.0118-48.3955,315.0118C-48.6873,315.0118-48.9791,315.0118-49.2709,315.0117C-49.5627,315.0115-49.8545,315.0113-50.1463,315.011C-50.4376,315.0107-50.7289,315.0099-51.0202,315.0153C-51.3095,315.0227-51.5993,315.0348-51.8855,315.0788C-52.1815,315.1241-52.476,315.1695-52.7776,315.1494C-53.1153,315.1489-53.453,315.1481-53.7908,315.1473C-54.219,315.1467-54.6473,315.1466-55.0755,315.1442C-55.7153,315.1413-56.3552,315.1395-56.995,315.1387C-57.7084,315.1382-58.4219,315.1368-59.1352,315.1484L-57.3881,313.9484z" stroke="#000" stroke-linecap="square" stroke-linejoin="round" stroke-width=".4767"/>
<path d="M-97.681,314.1116C-97.1471,314.1792-96.6084,314.2005-96.0705,314.2165C-95.5904,314.228-95.1101,314.228-94.63,314.2268C-94.2335,314.2263-93.8371,314.2261-93.4407,314.2252C-92.6449,314.2456-91.8487,314.2356-91.0528,314.2319C-90.5718,314.2284-90.0909,314.2269-89.6099,314.225C-89.2264,314.225-88.8429,314.2245-88.4594,314.2256C-88.0562,314.2268-87.653,314.2246-87.2498,314.2253C-86.886,314.2244-86.5221,314.2245-86.1583,314.2246C-85.794,314.2251-85.4296,314.2248-85.0652,314.2241C-84.7171,314.2253-84.3691,314.2242-84.021,314.2236C-83.6805,314.2251-83.3399,314.2241-82.9994,314.2236C-82.6986,314.2232-82.3977,314.223-82.0969,314.223C-81.8453,314.2815-81.5923,314.3235-81.3342,314.3439C-81.0543,314.3611-80.7736,314.3611-80.4933,314.3619C-80.2016,314.3621-79.9099,314.3615-79.6182,314.3612C-79.4722,314.3611-79.3262,314.361-79.1802,314.361L-80.931,315.5637C-81.077,315.5638-81.223,315.5639-81.369,315.564C-81.661,315.5644-81.953,315.5651-82.245,315.5636C-82.5302,315.5612-82.816,315.5587-83.0999,315.5305C-83.3505,315.5012-83.5959,315.4409-83.8477,315.4256C-84.1479,315.4255-84.4481,315.4254-84.7483,315.4249C-85.0888,315.4245-85.4293,315.4235-85.7698,315.4249C-86.1175,315.4243-86.4651,315.4233-86.8128,315.4244C-87.1766,315.4237-87.5405,315.4234-87.9044,315.4239C-88.2676,315.4241-88.6307,315.4241-88.9939,315.4233C-89.3968,315.4239-89.7997,315.4217-90.2026,315.423C-90.5867,315.424-90.9708,315.4235-91.3549,315.4236C-91.8291,315.4216-92.3032,315.4202-92.7774,315.4166C-93.5801,315.4129-94.3831,315.4034-95.1857,315.424C-95.5815,315.4235-95.9772,315.4244-96.373,315.4236C-96.8515,315.4207-97.33,315.417-97.8082,315.401C-98.3559,315.3799-98.9029,315.3472-99.4483,315.2941L-97.681,314.1116z" stroke="#000" stroke-linecap="square" stroke-linejoin="round" stroke-width=".4767"/>
<path d="M-136.1855,276.2983L-136.1855,294.8415" fill="none" stroke="#000" stroke-linecap="round" stroke-width="4.8046"/>
<path d="M-126.6615,274.544L-126.6615,293.0872" fill="none" stroke="#000" stroke-linecap="round" stroke-width="4.8046"/>
<path d="M-117.7245,276.0083L-117.7245,294.5515" fill="none" stroke="#000" stroke-linecap="round" stroke-width="4.8046"/>
<path d="M-106.0478,274.841L-106.0478,293.3843" fill="none" stroke="#000" stroke-linecap="round" stroke-width="4.8046"/>
<path d="M-95.8892,277.0276L-95.8892,295.5709" fill="none" stroke="#000" stroke-linecap="round" stroke-width="4.8046"/>
<path d="M-84.2599,276.8522L-84.2599,295.3955" fill="none" stroke="#000" stroke-linecap="round" stroke-width="4.8046"/>
<path d="M-73.7574,275.1381L-73.7574,293.6813" fill="none" stroke="#000" stroke-linecap="round" stroke-width="4.8046"/>
<path d="M-63.8419,278.175L-63.8419,296.7182" fill="none" stroke="#000" stroke-linecap="round" stroke-width="4.8046"/>
<path d="M-53.169,277.8063L-53.169,296.3495" fill="none" stroke="#000" stroke-linecap="round" stroke-width="4.8046"/>
<path d="M-105.8017,352.8807L-78.6788,348.4525" fill="none" stroke="#000" stroke-width=".7749"/>
<path d="M-144.0697,281.0285L-144.0697,299.5717" fill="none" stroke="#000" stroke-linecap="round" stroke-width="4.8046"/>
</g>
<text font-family="Bitstream Vera Sans" font-size="20" x="117.3401" y="71.6749">
    <tspan x="117.3401" y="71.6749">Ressemblances</tspan>
   </text>
<g transform="translate(-1.7773,360.7598)">
<path d="M81.5698,142.9136H238.6485A15.9099,15.9099 0 0 1 254.5584,158.8235V198.7245A15.9099,15.9099 0 0 1 238.6485,214.6345H81.5698A15.9099,15.9099 0 0 1 65.6599,198.7245V158.8235A15.9099,15.9099 0 0 1 81.5698,142.9136z" fill="#fff" stroke="#000" stroke-linecap="round" stroke-linejoin="round" stroke-width="2"/>
<text font-family="Bitstream Vera Sans" font-size="20" x="165.665" y="173.2182">
     <tspan text-align="center" text-anchor="middle" x="165.665" y="173.2182">Contrôle</tspan>
     <tspan text-align="center" text-anchor="middle" x="165.665" y="198.2182">Physique</tspan>
    </text>
<path d="M108.1446,185.7745L93.4211,185.8544L94.7661,192.806L70.41,178.4975L93.5995,165.2742L93.0743,172.3251L108.0511,172.9348L108.1446,185.7745z" fill="#fff" stroke="#000" stroke-linecap="round" stroke-linejoin="round" stroke-width=".9366"/>
</g>
<path d="M92.4716,163.9509H249.5503A15.9099,15.9099 0 0 1 265.4602,179.8608V219.7618A15.9099,15.9099 0 0 1 249.5503,235.6717H92.4716A15.9099,15.9099 0 0 1 76.5617,219.7618V179.8608A15.9099,15.9099 0 0 1 92.4716,163.9509z" fill="#fff" stroke="#000" stroke-linecap="round" stroke-linejoin="round" stroke-width="2"/>
<text font-family="Bitstream Vera Sans" font-size="20" x="178.5668" y="206.2554">
    <tspan text-align="center" text-anchor="middle" x="178.5668" y="206.2554">Abattoir</tspan>
   </text>
<path d="M119.0464,206.8118L104.3229,206.8916L105.6679,213.8432L81.3118,199.5348L104.5013,186.3115L103.9761,193.3623L118.9529,193.9721L119.0464,206.8118z" fill="#fff" stroke="#000" stroke-linecap="round" stroke-linejoin="round" stroke-width=".9366"/>
<path d="m124.5252,407.7591c0,11.8668-1.9131,21.4867-4.2729,21.4867-2.3599,0-4.2729,-9.6199-4.2729,-21.4867 0,-11.8668 1.9131,-21.4867 4.2729,-21.4867 2.3599,0 4.2729,9.6199 4.2729,21.4867z" fill="#f8ffff" stroke="#000" stroke-linecap="round" stroke-linejoin="round" stroke-width="2" transform="matrix(.97172,.23614,-.23614,.97172,108.08825,-51.75396)"/>
<path d="m124.5252,407.7591c0,11.8668-1.9131,21.4867-4.2729,21.4867-2.3599,0-4.2729,-9.6199-4.2729,-21.4867 0,-11.8668 1.9131,-21.4867 4.2729,-21.4867 2.3599,0 4.2729,9.6199 4.2729,21.4867z" fill="#f8ffff" stroke="#000" stroke-linecap="round" stroke-linejoin="round" stroke-width="2" transform="matrix(.92453,-.3811,.3811,.92453,-63.7801,45.18571)"/>
<path d="M222.9114,336.4922C221.6551,344.2146 219.2063,350.5049 217.0877,355.7525C214.9289,361.0998 206.8736,362.3474 202.5509,368.3893C199.3409,372.876 192.4149,373.4885 186.5457,374.7461C181.3901,375.8508 176.9482,374.4947 169.8314,376.7444C164.0877,378.5601 156.7327,378.374 152.5966,374.6156C148.5159,370.9075 142.2199,371.1087 137.6529,368.6971C131.1296,365.2523 128.4688,356.5908 122.0524,355.033C111.7461,352.531 108.952,342.1561 115.5719,335.4601C122.0476,328.9099 113.3844,319.5812 121.3614,312.9879C126.2052,308.9843 126.7673,297.9827 140.8781,301.7844C157.7485,293.0915 156.8146,300.1608 169.9789,300.3683C177.2872,296.741 182.1564,299.2939 189.8445,303.2934C196.236,306.6183 202.0746,305.3058 206.1803,310.8821C209.978,316.0401 221.0611,314.2344 220.1641,320.0197C219.3778,325.0918 222.2922,331.0903 222.9114,336.4922z" fill="#f8ffff" stroke="#000" stroke-linecap="round" stroke-linejoin="round" stroke-width="2"/>
<path d="M130.056,318.6702C130.056,329.7602 121.0136,339.6243 109.9834,338.7607C80.5941,336.4597 82.2333,331.1031 89.9107,318.6702C96.3999,308.1617 98.9033,298.5797 109.9834,298.5797C121.0635,298.5797 130.056,307.5803 130.056,318.6702z" fill="#f8ffff" stroke="#000" stroke-linecap="round" stroke-linejoin="round" stroke-width="1.8736"/>
<path d="m231.9588,344.0315c0,4.7198-3.4981,8.5458-7.8133,8.5458-4.3152,0-7.8133,-3.8261-7.8133,-8.5458 0,-4.7197 3.4981,-8.5458 7.8133,-8.5458 4.3152,0 7.8133,3.8261 7.8133,8.5458z" fill="#f8ffff" stroke="#000" stroke-linecap="round" stroke-linejoin="round" stroke-width="2" transform="translate(3.5142,-17.7976)"/>
<path d="m124.5252,407.7591c0,11.8668-1.9131,21.4867-4.2729,21.4867-2.3599,0-4.2729,-9.6199-4.2729,-21.4867 0,-11.8668 1.9131,-21.4867 4.2729,-21.4867 2.3599,0 4.2729,9.6199 4.2729,21.4867z" fill="#f8ffff" stroke="#000" stroke-linecap="round" stroke-linejoin="round" stroke-width="2" transform="matrix(.92453,-.3811,.3811,.92453,-118.02616,46.59526)"/>
<path d="m124.5252,407.7591c0,11.8668-1.9131,21.4867-4.2729,21.4867-2.3599,0-4.2729,-9.6199-4.2729,-21.4867 0,-11.8668 1.9131,-21.4867 4.2729,-21.4867 2.3599,0 4.2729,9.6199 4.2729,21.4867z" fill="#f8ffff" stroke="#000" stroke-linecap="round" stroke-linejoin="round" stroke-width="2" transform="matrix(.98214,.18818,-.18818,.98214,149.12562,-44.18017)"/>
<path d="M131.4578,320.3738C131.4578,331.0215 127.1917,339.663 121.9353,339.663C116.6789,339.663 110.6554,330.8754 112.4128,320.3738C115.0201,304.7932 117.5192,300.333 121.9353,301.0846C126.3552,301.8368 127.5148,313.6692 131.4578,320.3738z" fill="#f8ffff" stroke="#000" stroke-linecap="round" stroke-linejoin="round" stroke-width="2"/>
<text font-family="Bitstream Vera Sans" font-size="20" x="425.435" y="256.1579">
    <tspan font-size="28" text-align="center" text-anchor="middle" x="425.435" y="256.1579">Le</tspan>
    <tspan font-size="28" text-align="center" text-anchor="middle" x="425.435" y="291.1579">Lendemain</tspan>
   </text>
<text font-family="Bitstream Vera Sans" font-size="20" x="434.0542" y="609.0563">
    <tspan font-size="28" text-align="center" text-anchor="middle" x="434.0542" y="609.0563">Le</tspan>
    <tspan font-size="28" text-align="center" text-anchor="middle" x="434.0542" y="644.0563">Lendemain</tspan>
   </text>
<path d="M766.2917,325.3939C766.2917,347.1232 743.0099,364.7586 714.3234,364.7586C685.6369,364.7586 668.2253,338.8359 668.2253,317.1066C668.2253,295.3773 745.7199,240.1037 774.4064,240.1037C789.1825,240.1037 742.4418,290.7082 751.9068,298.2155C760.8173,305.283 766.2917,314.8571 766.2917,325.3939z" fill="#f8ffff" stroke="#000" stroke-linecap="round" stroke-linejoin="round" stroke-width="2"/>
<path d="M765.9579,315.898C765.9579,337.6273 742.6761,355.2627 713.9896,355.2627C685.3031,355.2627 667.8915,329.34 667.8915,307.6107C667.8915,285.8814 745.3861,230.6078 774.0726,230.6078C788.8487,230.6078 742.108,281.2123 751.573,288.7196C760.4835,295.7871 765.9579,305.3612 765.9579,315.898z" fill="#f8ffff" stroke="#000" stroke-linecap="round" stroke-linejoin="round" stroke-width="2"/>
<path d="M651.2442,268.0929C651.2442,277.2483 652.1582,284.7727 651.3534,288.8744C650.6539,289.9415 648.2686,290.9849 647.4494,289.4907C646.6262,285.4415 646.0646,277.3756 646.0646,268.0929C646.0646,254.7503 647.2249,243.9215 648.6544,243.9215C650.084,243.9215 651.2442,254.7503 651.2442,268.0929z" fill="#f8ffff" stroke="#000" stroke-linecap="round" stroke-linejoin="round" stroke-width="2" transform="matrix(.90129,-.43323,.43323,.90129,-22.35569,316.43727)"/>
<g transform="matrix(.8954,-.44526,.44526,.8954,-14.75951,347.12729)">
<path d="M620.9186,183.4737H682.0375A14.1575,14.1575 0 0 1 696.195,197.6312V219.7307A14.1575,14.1575 0 0 1 682.0375,233.8882H620.9186A14.1575,14.1575 0 0 1 606.7611,219.7307V197.6312A14.1575,14.1575 0 0 1 620.9186,183.4737z" fill="#f8ffff" stroke="#000" stroke-linecap="round" stroke-linejoin="round" stroke-width="2"/>
<text font-family="Bitstream Vera Sans" font-size="20" x="627.4794" y="218.6948">
      <tspan font-size="28" x="627.4794" y="218.6948">4 €</tspan>
     </text>
</g>
<path d="M735.28,319.114C731.0155,329.003 718.8058,332.2202 707.2615,328.2779C692.1314,323.111 688.757,311.3578 694.694,301.6119C700.2967,292.4147 735.5249,267.3736 728.1901,296.3143C725.1931,308.1393 739.5445,309.225 735.28,319.114z" fill="#f8ffff" stroke="#000" stroke-linecap="round" stroke-linejoin="round" stroke-width="2"/>
<text font-family="Bitstream Vera Sans" font-size="20" x="664.0817" y="567.7976">
    <tspan x="664.0817" y="567.7976"></tspan>
   </text>
<g transform="matrix(.96096,-.27668,.27668,.96096,-166.91282,189.9422)">
<path d="M657.4857,555.0409H788.6496A21.4348,21.4348 0 0 1 810.0844,576.4757V776.7004A21.4348,21.4348 0 0 1 788.6496,798.1353H657.4857A21.4348,21.4348 0 0 1 636.0508,776.7004V576.4757A21.4348,21.4348 0 0 1 657.4857,555.0409z" fill="#f8ffff" stroke="#000" stroke-linecap="round" stroke-linejoin="round" stroke-width="2" transform="translate(3.5142,-14.8676)"/>
<path d="M657.1144,565.7453C656.7411,567.0661 654.1515,570.9805 652.9707,573.342C652.4271,574.4293 652.2318,576.6428 651.9348,577.831C651.3985,579.9763 653.4245,579.2122 655.3878,579.2122C658.6119,579.2122 662.7964,577.878 665.747,577.1403" fill="none" stroke="#000" transform="translate(3.5142,-14.8676)"/>
<path d="M658.8409,574.7232C661.6129,574.7232 658.9302,580.3045 659.5315,583.0105C659.9483,584.8861 659.8768,587.8176 659.8768,589.9166" fill="none" stroke="#000" transform="translate(3.5142,-14.8676)"/>
<path d="M674.7249,575.4138C675.1454,577.3062 659.7794,600.4705 657.805,604.4194" fill="none" stroke="#000" transform="translate(3.5142,-14.8676)"/>
<path d="M674.0343,591.9884C672.8403,594.3763 679.3065,590.9525 681.9763,590.9525C686.046,590.9525 676.1577,604.9605 674.3796,606.1459C671.874,607.8163 671.6545,607.8724 675.0702,607.8724C677.1257,607.8724 678.9635,607.5113 680.9404,607.1818" fill="none" stroke="#000" transform="translate(3.5142,-14.8676)"/>
<path d="M694.4072,590.9525C695.0334,590.9525 690.8677,592.8521 689.2277,596.1321C688.1672,598.253 687.8465,599.4977 687.8465,602.0023C687.8465,604.1526 689.3603,604.3662 690.9542,604.7647C693.2929,605.3494 696.1979,602.6287 697.515,601.3116C698.9222,599.9044 699.2415,597.8627 699.2415,596.1321C699.2415,594.231 698.3458,593.1646 697.515,592.3337C696.8036,591.6224 695.5267,591.4003 694.4072,590.9525z" fill="none" stroke="#000" transform="translate(3.5142,-14.8676)"/>
<path d="M767.9571,568.1624C766.1592,566.3645 773.087,568.0885 775.5538,567.4718C781.9377,565.8758 778.9134,566.0439 784.5317,568.853C786.1466,569.6605 789.6355,568.4888 791.0925,568.853C791.5028,568.9556 792.3233,568.853 792.819,568.853" fill="none" stroke="#000" transform="translate(3.5142,-14.8676)"/>
<path d="M779.3522,577.1403C780.8352,577.5111 783.2332,577.2473 785.5676,577.831C787.8813,578.4094 789.4685,577.4856 791.7831,577.4856C792.1471,577.4856 792.4737,577.2554 792.819,577.1403" fill="none" stroke="#000" transform="translate(3.5142,-14.8676)"/>
<path d="M767.2665,578.5216C768.1594,578.5216 770.8179,578.1762 772.7914,578.1762C773.6785,578.1762 774.035,578.8669 775.2085,578.8669" fill="none" stroke="#000" transform="translate(3.5142,-14.8676)"/>
<path d="M708.91,570.9249C710.333,570.9249 712.1217,570.4622 714.4349,570.9249C719.1332,571.8645 725.956,566.2948 730.6642,567.4718C731.4772,567.6751 732.2756,567.9322 733.0814,568.1624C734.9619,568.6997 739.5665,569.3904 740.3327,569.5436" fill="none" stroke="#000" transform="translate(3.5142,-14.8676)"/>
<path d="M666.0923,633.7703C669.3278,634.6947 683.1874,631.6984 688.8824,631.6984C695.0498,631.6984 701.6266,632.389 708.2194,632.389C711.1248,632.389 718.9101,631.6616 721.6863,631.3531" fill="none" stroke="#000" transform="translate(3.5142,-14.8676)"/>
<path d="M750.0013,637.9139C757.8237,637.9139 768.3776,633.0797 777.6256,633.0797C779.6006,633.0797 782.303,634.8062 785.2223,634.8062C786.8899,634.8062 790.8812,633.7703 791.4378,633.7703" fill="none" stroke="#000" transform="translate(3.5142,-14.8676)"/>
<path d="M670.9266,654.8338C679.3389,654.8338 687.6884,650.6902 696.4791,650.6902C705.1726,650.6902 709.2963,650.6141 716.5067,652.4167C720.1359,653.324 724.3506,652.5648 727.9018,653.4526" fill="none" stroke="#000" transform="translate(3.5142,-14.8676)"/>
<path d="M746.2029,654.1432C751.6621,655.508 763.5856,655.5245 770.3742,655.5245C774.5179,655.5245 778.6615,655.5245 782.8052,655.5245C783.4958,655.5245 784.1864,655.5245 784.877,655.5245" fill="none" stroke="#000" transform="translate(3.5142,-14.8676)"/>
<path d="M705.1117,665.8836C712.3966,665.8836 720.7549,666.7125 727.9018,668.3007C732.1929,669.2543 738.3077,670.4472 742.7499,669.3366C745.3156,668.6952 748.1137,668.9453 750.6919,668.3007C751.5933,668.0754 751.8973,668.0596 752.4184,667.9554" fill="none" stroke="#000" transform="translate(3.5142,-14.8676)"/>
<path d="M663.3298,669.6819C663.3298,669.6819 663.3298,669.6819 663.3298,669.6819C669.9148,666.2623 675.4609,664.4024 681.9763,666.5742C685.6131,667.7865 686.5487,669.3366 690.2636,669.3366C693.3954,669.3366 695.9342,668.0053 698.8962,667.2648C699.2312,667.1811 698.2056,667.2648 697.8603,667.2648" fill="none" stroke="#000" transform="translate(3.5142,-14.8676)"/>
<path d="M649.5177,653.7979C651.2287,653.3702 657.6098,650.7652 660.9127,652.4167C662.2197,653.0702 662.6084,653.7902 664.0205,654.1432" fill="none" stroke="#000" transform="translate(3.5142,-14.8676)"/>
<path d="M766.5759,666.2289C766.7171,666.2995 770.7321,666.1623 772.7914,666.5742C775.0698,667.0299 777.5282,666.3772 779.6975,666.9195C781.6006,667.3953 784.2602,666.9195 786.2582,666.9195C786.8337,666.9195 787.4093,666.9195 787.9848,666.9195" fill="none" stroke="#000" transform="translate(3.5142,-14.8676)"/>
<path d="M653.316,684.53C658.0056,684.53 666.6418,675.4111 671.2718,680.0411C677.5899,686.3591 680.2143,683.1488 687.5012,683.1488C689.1675,683.1488 690.4342,682.8035 691.9901,682.8035" fill="none" stroke="#000" transform="translate(3.5142,-14.8676)"/>
<path d="M732.1066,670.842C734.1535,670.842 741.65,668.8014 744.5376,668.0795C746.6315,667.5561 759.2275,672.2232 764.9106,672.2232C767.2536,672.2232 769.4837,671.3389 771.4714,670.842C774.1522,670.1717 776.6731,670.3185 778.7227,669.8061C780.3686,669.3946 782.0225,668.2808 783.2117,667.3889C783.3038,667.3199 783.4419,667.3889 783.557,667.3889" fill="none" stroke="#000"/>
<path d="M657.1144,706.9748C657.5748,706.9748 657.5748,706.9748 657.1144,706.9748C646.7773,706.9748 667.6957,705.4044 671.2718,704.2124C674.2722,703.2123 677.2206,702.8705 679.2139,703.8671C685.0419,706.7811 694.014,702.2477 699.5868,703.1765C705.6379,704.185 710.9696,704.903 717.1973,704.903C717.7728,704.903 718.3484,704.903 718.9239,704.903C722.3163,704.903 726.1816,704.4412 730.3189,703.5218C733.6777,702.7754 738.602,705.2472 741.3687,705.9389C743.8466,706.5584 747.0662,705.9389 749.656,705.9389C751.3825,705.9389 753.109,705.9389 754.8355,705.9389C756.7266,705.9389 759.2366,705.7019 761.051,705.2483C768.5259,703.3796 767.476,701.0425 769.6836,707.6654C770.6614,710.5988 772.4547,707.3115 773.482,706.2842C774.1005,705.6657 777.2852,705.0744 777.9709,704.903C779.6693,704.4784 780.8979,704.6029 782.4599,704.2124C782.6832,704.1565 782.9203,704.2124 783.1505,704.2124" fill="none" stroke="#000" transform="translate(3.5142,-14.8676)"/>
</g>
<path d="M362.344,314.9756L477.5909,314.9756" fill="none" stroke="#000" transform="translate(3.5142,-14.8676)"/>
<path d="M364.8816,229.7878L480.1285,229.7878" fill="none" stroke="#000"/>
<path d="M376.6016,658.5453L491.8485,658.5453" fill="none" stroke="#000"/>
<path d="M375.6249,583.3418L490.8718,583.3418" fill="none" stroke="#000"/>
<path d="m102.0619,327.4281c0,.9439-.6559,1.7092-1.465,1.7092-.8091,0-1.465,-.7652-1.465,-1.7092 0,-.9439 .6559,-1.7092 1.465,-1.7092 .8091,0 1.465,.7652 1.465,1.7092z" fill="#f8ffff" stroke="#000" stroke-linecap="round" stroke-linejoin="round" stroke-width="2" transform="translate(3.5142,-14.8676)"/>
<path d="M246.1205,338.4156L265.6538,336.4623" fill="none" stroke="#000" transform="translate(3.5142,-14.8676)"/>
<path d="M245.1438,354.0423L263.7005,354.0423" fill="none" stroke="#000" transform="translate(3.5142,-14.8676)"/>
<path d="M245.1438,367.7157L262.7238,369.669" fill="none" stroke="#000" transform="translate(3.5142,-14.8676)"/>
<path d="M196.3104,673.4129L223.6571,670.4829" fill="none" stroke="#000" transform="translate(3.5142,-14.8676)"/>
<path d="M198.2637,687.0863L221.7037,687.0863" fill="none" stroke="#000" transform="translate(3.5142,-14.8676)"/>
<path d="M198.2637,704.6663L219.7504,705.643" fill="none" stroke="#000" transform="translate(3.5142,-14.8676)"/>
</g>
</svg>
