<svg version="1.0" viewBox="0 0 900 450" xmlns="http://www.w3.org/2000/svg" xmlns:svg="http://www.w3.org/2000/svg" xmlns:xlink="http://www.w3.org/1999/xlink">
<path d="M-342.5686,763.1674H-152.3596A7.5735,7.5735 0 0 1 -144.7861,770.7409V807.0939A7.5735,7.5735 0 0 1 -152.3596,814.6674H-342.5686A7.5735,7.5735 0 0 1 -350.1421,807.0939V770.7409A7.5735,7.5735 0 0 1 -342.5686,763.1674z" stroke="#000" stroke-linecap="round" stroke-linejoin="round" stroke-width="5.8088" transform="matrix(1,0,.87861,.47753,0,0)"/>
<path d="M49.9059,84.3393H830.9078A31.621,31.621 0 0 1 862.5288,115.9603V364.3091A31.621,31.621 0 0 1 830.9078,395.9302H49.9059A31.621,31.621 0 0 1 18.2849,364.3091V115.9603A31.621,31.621 0 0 1 49.9059,84.3393z" fill="#fff" stroke="#000" stroke-linecap="round" stroke-width="7.4907"/>
<path d="M446.8915,78.4154A61.5183,5.3033 0 1 1 323.8549,78.4154A61.5183,5.3033 0 1 1 446.8915,78.4154z" stroke="#000" stroke-linecap="round" stroke-width="4.862" transform="matrix(-1,0,0,1,605.1967,291.35769)"/>
<path d="M166.0653,282.8856L166.0653,330.774C166.0653,350.781 182.1721,366.8878 202.1791,366.8878L237.6131,366.8878C257.6201,366.8878 273.7268,350.781 273.7268,330.774L273.7268,282.8856" fill="#fff" stroke="#000" stroke-linecap="round" stroke-linejoin="round" stroke-width="3.6422"/>
<path d="M-244.6788,302.6971H-221.1448A.7803,.7803 0 0 1 -220.3645,303.4774V313.5034A.7803,.7803 0 0 1 -221.1448,314.2837H-244.6788A.7803,.7803 0 0 1 -245.4591,313.5034V303.4774A.7803,.7803 0 0 1 -244.6788,302.6971z" stroke="#000" stroke-linecap="square" stroke-linejoin="round" stroke-width="3.7338" transform="scale(-1,1)"/>
<path d="M-203.2879,302.6971H-182.875A2.3409,2.3409 0 0 1 -180.5341,305.0379V311.9429A2.3409,2.3409 0 0 1 -182.875,314.2837H-203.2879A2.3409,2.3409 0 0 1 -205.6287,311.9429V305.0379A2.3409,2.3409 0 0 1 -203.2879,302.6971z" stroke="#000" stroke-linecap="square" stroke-linejoin="round" stroke-width="3.7338" transform="scale(-1,1)"/>
<path d="M271.4186,307.7517C270.8694,307.7621 270.32,307.7584 269.7708,307.7557C269.4078,307.7536 269.0449,307.7522 268.6819,307.7515C268.3894,307.7511 268.0969,307.7511 267.8044,307.7511C267.5004,307.7505 267.1964,307.7517 266.8923,307.7522C266.5017,307.7426 266.1171,307.7519 265.7304,307.803C265.3307,307.8575 264.9273,307.8747 264.5241,307.8857C264.1189,307.8699 263.7213,307.9445 263.3201,307.9847C262.9122,308.0215 262.5021,308.0254 262.0927,308.0297C261.6626,308.032 261.2324,308.0319 260.8023,308.0304C260.4287,308.0296 260.0551,308.0291 259.6815,308.0282C259.3745,308.0274 259.0674,308.0272 258.7604,308.027C258.4689,308.027 258.1774,308.027 257.8859,308.027C257.5944,308.027 257.3028,308.027 257.0113,308.027C256.6926,308.0266 256.3739,308.0275 256.0552,308.029C255.661,308.0313 255.2667,308.0294 254.8724,308.0283C254.5015,308.0281 254.1307,308.0288 253.7598,308.0298C253.363,308.0297 252.9663,308.0297 252.5696,308.0288C252.1896,308.0289 251.8097,308.0295 251.4297,308.0289C251.0841,308.0276 250.7385,308.0274 250.393,308.0292C249.8598,308.0318 249.3266,308.0333 248.7934,308.0352C248.0668,308.038 247.3401,308.0386 246.6135,308.0362C246.0803,308.0349 245.547,308.031 245.0138,308.0308C244.5725,308.0315 244.1312,308.0308 243.6899,308.0293C243.6288,308.0291 243.5677,308.0289 243.5066,308.0287L245.2526,309.228C245.3131,309.2278 245.3736,309.2276 245.4341,309.2274C245.8739,309.2259 246.3138,309.2252 246.7536,309.2259C247.2816,309.2257 247.8095,309.2218 248.3375,309.2205C249.0651,309.218 249.7927,309.2187 250.5203,309.2215C251.0594,309.2233 251.5985,309.2249 252.1376,309.2275C252.4834,309.2292 252.8292,309.2291 253.175,309.2278C253.5552,309.2272 253.9353,309.2278 254.3154,309.2279C254.7111,309.2269 255.1068,309.227 255.5025,309.2269C255.8748,309.2279 256.2471,309.2286 256.6195,309.2284C257.0131,309.2273 257.4068,309.2254 257.8005,309.2277C258.121,309.2291 258.4416,309.2301 258.7622,309.2297C259.0537,309.2297 259.3453,309.2297 259.6368,309.2297C259.9283,309.2297 260.2197,309.2297 260.5111,309.2296C260.8171,309.2295 261.1231,309.2293 261.4291,309.2287C261.8012,309.228 262.1732,309.2278 262.5452,309.2278C262.9753,309.2269 263.4055,309.2285 263.8356,309.2237C264.2504,309.2181 264.6659,309.2092 265.0784,309.1642C265.4752,309.1197 265.8704,309.067 266.2714,309.0773C266.6792,309.0621 267.0863,309.0338 267.4907,308.9805C267.8727,308.9401 268.2561,308.9513 268.64,308.9527C268.9452,308.9533 269.2503,308.9545 269.5555,308.9538C269.8476,308.9539 270.1397,308.9539 270.4318,308.9534C270.7906,308.9528 271.1495,308.9514 271.5083,308.9492C272.0615,308.9464 272.6148,308.943 273.168,308.9533L271.4186,307.7517z" stroke="#000" stroke-linecap="square" stroke-linejoin="round" stroke-width=".4767"/>
<path d="M179.9238,308.0283C179.2199,308.0401 178.5159,308.0385 177.8119,308.0381C177.1667,308.0372 176.5215,308.0354 175.8763,308.0325C175.4451,308.0301 175.0139,308.03 174.5827,308.0295C174.2429,308.0287 173.9031,308.0278 173.5633,308.0274C173.2665,308.049 172.9813,307.9699 172.6895,307.9317C172.3969,307.8977 172.1019,307.8928 171.8075,307.8893C171.5153,307.8872 171.2231,307.888 170.931,307.8884C170.6392,307.8888 170.3474,307.889 170.0556,307.889C169.7638,307.8891 169.472,307.8891 169.1802,307.8891C168.8884,307.8891 168.5967,307.8891 168.3049,307.8891C167.9916,307.8885 167.6783,307.8902 167.365,307.8902C167.0478,307.89 166.7305,307.8895 166.4133,307.8893C166.1195,307.8891 165.8256,307.8891 165.5318,307.8891C165.3375,307.8891 165.4347,307.8891 165.2404,307.8891L166.9913,309.0917C167.1856,309.0917 167.0884,309.0917 167.2827,309.0917C167.5763,309.0917 167.8699,309.0917 168.1635,309.0915C168.4799,309.0913 168.7963,309.0908 169.1126,309.0906C169.427,309.0906 169.7414,309.0923 170.0557,309.0917C170.3475,309.0917 170.6393,309.0917 170.9311,309.0917C171.2229,309.0917 171.5147,309.0917 171.8065,309.0916C172.0984,309.0915 172.3902,309.0913 172.682,309.0909C172.9733,309.0907 173.2646,309.0899 173.5558,309.0952C173.8452,309.1026 174.135,309.1147 174.4211,309.1588C174.7172,309.204 175.0117,309.2494 175.3132,309.2293C175.651,309.2289 175.9887,309.228 176.3264,309.2272C176.7547,309.2267 177.1829,309.2266 177.6112,309.2242C178.251,309.2213 178.8908,309.2195 179.5307,309.2186C180.244,309.2181 180.9575,309.2167 181.6708,309.2283L179.9238,308.0283z" stroke="#000" stroke-linecap="square" stroke-linejoin="round" stroke-width=".4767"/>
<path d="M220.2166,308.1916C219.6827,308.2591 219.1441,308.2804 218.6062,308.2964C218.1261,308.308 217.6458,308.308 217.1656,308.3067C216.7692,308.3062 216.3728,308.3061 215.9764,308.3051C215.1806,308.3256 214.3844,308.3155 213.5884,308.3119C213.1075,308.3083 212.6266,308.3069 212.1456,308.3049C211.7621,308.3049 211.3786,308.3045 210.995,308.3055C210.5918,308.3068 210.1886,308.3046 209.7854,308.3052C209.4216,308.3043 209.0578,308.3044 208.694,308.3045C208.3296,308.3051 207.9652,308.3048 207.6009,308.304C207.2528,308.3052 206.9048,308.3041 206.5567,308.3036C206.2161,308.305 205.8756,308.304 205.535,308.3035C205.2342,308.3031 204.9334,308.303 204.6326,308.3029C204.381,308.3614 204.1279,308.4035 203.8698,308.4238C203.5899,308.4411 203.3093,308.4411 203.0289,308.4418C202.7372,308.442 202.4456,308.4414 202.1539,308.4412C202.0079,308.441 201.8619,308.441 201.7158,308.4409L203.4667,309.6436C203.6127,309.6437 203.7586,309.6438 203.9046,309.644C204.1966,309.6443 204.4887,309.6451 204.7807,309.6436C205.0659,309.6412 205.3516,309.6386 205.6356,309.6105C205.8862,309.5811 206.1315,309.5208 206.3834,309.5055C206.6836,309.5054 206.9838,309.5053 207.284,309.5049C207.6245,309.5044 207.965,309.5034 208.3055,309.5048C208.6532,309.5043 209.0008,309.5032 209.3484,309.5044C209.7123,309.5037 210.0762,309.5033 210.4401,309.5039C210.8032,309.504 211.1664,309.5041 211.5296,309.5032C211.9325,309.5039 212.3354,309.5016 212.7382,309.5029C213.1224,309.5039 213.5065,309.5035 213.8906,309.5035C214.3647,309.5015 214.8389,309.5001 215.313,309.4965C216.1158,309.4929 216.9188,309.4833 217.7214,309.5039C218.1171,309.5035 218.5129,309.5044 218.9086,309.5036C219.3871,309.5007 219.8656,309.4969 220.3439,309.481C220.8916,309.4598 221.4386,309.4272 221.9839,309.374L220.2166,308.1916z" stroke="#000" stroke-linecap="square" stroke-linejoin="round" stroke-width=".4767"/>
<path d="M258.7211,270.3782L258.7211,288.9215" fill="none" stroke="#000" stroke-linecap="round" stroke-width="4.8046"/>
<path d="M249.1971,268.6239L249.1971,287.1671" fill="none" stroke="#000" stroke-linecap="round" stroke-width="4.8046"/>
<path d="M240.2602,270.0882L240.2602,288.6314" fill="none" stroke="#000" stroke-linecap="round" stroke-width="4.8046"/>
<path d="M228.5835,268.921L228.5835,287.4642" fill="none" stroke="#000" stroke-linecap="round" stroke-width="4.8046"/>
<path d="M218.4248,271.1076L218.4248,289.6508" fill="none" stroke="#000" stroke-linecap="round" stroke-width="4.8046"/>
<path d="M206.7956,270.9322L206.7956,289.4754" fill="none" stroke="#000" stroke-linecap="round" stroke-width="4.8046"/>
<path d="M196.293,269.218L196.293,287.7613" fill="none" stroke="#000" stroke-linecap="round" stroke-width="4.8046"/>
<path d="M186.3776,272.2549L186.3776,290.7982" fill="none" stroke="#000" stroke-linecap="round" stroke-width="4.8046"/>
<path d="M175.7046,271.8862L175.7046,290.4295" fill="none" stroke="#000" stroke-linecap="round" stroke-width="4.8046"/>
<path d="M228.3374,346.9607L201.2145,342.5325" fill="none" stroke="#000" stroke-width=".7749"/>
<path d="M266.6053,275.1085L266.6053,293.6517" fill="none" stroke="#000" stroke-linecap="round" stroke-width="4.8046"/>
<path d="M585.5265,81.0247L585.5265,394.9151" fill="none" stroke="#000" stroke-width="5.6784"/>
<path d="M297.8164,80.3L297.8164,394.1905" fill="none" stroke="#000" stroke-width="5.6784"/>
<g transform="matrix(.12574,0,0,.12574,820.25174,423.4751)">
<path d="M162.9615,-66.1029C166.455,-62.0454 171.1969,-61.5587 176.2443,-61.2734C182.6298,-61.4455 189.026,-62.9739 194.9925,-65.2443C198.1805,-66.4574 199.9424,-67.4904 202.9171,-69.0527C185.1139,-58.637 195.0252,-64.2154 198.3536,-67.7512C200.078,-69.5831 201.1079,-71.5131 202.0803,-73.8002C204.6069,-80.9176 204.9343,-88.5711 205.3652,-96.044C206.205,-106.9224 203.9531,-117.6028 201.5284,-128.1342C198.5789,-139.2121 194.5731,-149.9773 190.1613,-160.547C188.0488,-165.5407 185.6597,-170.4087 183.3326,-175.3036C180.1965,-181.3209 177.6309,-177.584 195.344,-184.4552C195.9544,-184.6919 196.0751,-183.3682 196.4662,-182.8431C197.1211,-181.9638 197.8094,-181.1099 198.4809,-180.2434C205.0155,-171.2763 212.8739,-163.4194 220.7492,-155.6472C225.3824,-151.1349 230.3508,-146.9467 234.7812,-142.2286C236.4627,-140.8555 237.4679,-138.92 238.8212,-137.2745C240.143,-136.0803 241.1771,-137.3375 242.3452,-138.1546C221.9421,-125.9198 229.2084,-129.8742 233.1206,-133.6257C234.6613,-135.103 236.1138,-136.6818 237.5889,-138.2234C239.6824,-140.3121 241.6662,-142.5484 243.9587,-144.4296C250.0105,-149.3955 258.4541,-153.3638 264.7123,-156.9238C270.4949,-159.4778 276.4106,-161.6997 282.419,-163.6577C283.6619,-163.9272 288.4708,-165.7766 289.5688,-164.5267C289.8243,-164.2359 289.9278,-163.8408 290.1072,-163.4978C290.1321,-163.1471 290.2293,-162.7941 290.1818,-162.4458C289.8354,-159.9037 285.8996,-156.946 284.1819,-155.3646C276.2864,-148.8374 268.6258,-142.0481 261.3333,-134.8534C254.99,-128.0483 248.4375,-121.3307 243.3873,-113.4811C240.2691,-108.5784 238.6116,-103.1651 237.8336,-97.4612C237.3182,-92.3602 237.4023,-87.2238 237.4103,-82.1038C237.6896,-76.538 238.3996,-70.961 240.0566,-65.6294C241.0066,-62.7897 242.6958,-60.7035 245.3984,-59.4565C247.1918,-58.8245 249.2452,-58.4083 251.1546,-58.7689C251.5988,-58.8529 255.3028,-60.1078 255.5991,-60.2068C259.9663,-62.5901 270.5149,-68.1635 250.7739,-57.3451C249.993,-56.9172 252.2774,-58.3004 253.0176,-58.7957C254.7175,-59.9333 255.126,-60.2677 256.721,-61.457C258.634,-62.8882 257.7277,-62.1927 259.444,-63.5378L273.1151,-69.0361C271.3827,-67.5797 272.3103,-68.3061 270.3191,-66.8738C262.2562,-60.6484 253.3247,-55.4952 244.0683,-51.2776C240.0071,-50.0654 237.0083,-49.4853 233.0532,-51.3558C230.1407,-52.9982 228.2379,-55.381 227.2136,-58.6022C225.5902,-64.0918 224.9779,-69.8068 224.4451,-75.4915C224.414,-80.6627 224.3292,-85.8471 224.7473,-91.006C225.4856,-96.9163 227.043,-102.5571 230.2219,-107.6713C230.8593,-108.7308 231.4383,-109.8277 232.1341,-110.8497C233.5635,-112.949 235.6974,-115.3519 237.3267,-117.2406C240.9264,-121.4136 244.6087,-125.5129 248.4113,-129.5027C255.5038,-136.6573 262.9793,-143.4183 270.7308,-149.8547C272.9266,-151.8936 275.199,-153.8815 277.0938,-156.2117C277.4084,-156.0458 276.3957,-156.0728 276.0435,-156.0235C274.2856,-155.7778 272.5938,-155.2318 270.901,-154.7183C264.9598,-152.7572 259.0786,-150.5816 253.4382,-147.8602C272.8794,-159.3576 261.1903,-152.8293 257.3908,-149.9058C255.0765,-148.125 253.0963,-145.926 251.0661,-143.8444C243.704,-136.0782 243.2815,-135.2558 230.8263,-128.8268C228.7851,-127.8625 227.644,-127.977 226.0472,-129.6547C224.7873,-131.3205 223.7779,-133.1781 222.2218,-134.6111C217.9797,-139.4028 213.2498,-143.7505 208.7563,-148.2998C200.956,-156.2393 193.036,-164.0853 186.0942,-172.8083C185.3483,-173.6466 184.6017,-174.4843 183.8565,-175.3233C183.4425,-175.7895 182.1438,-176.3177 182.6168,-176.7238C193.8626,-186.3779 193.2258,-188.9054 196.1308,-182.5316C198.3231,-177.537 200.6341,-172.5923 202.629,-167.5129C206.8035,-156.7535 210.6525,-145.8567 213.8046,-134.7502C216.3374,-124.1716 218.8429,-113.4256 218.1141,-102.4633C217.8266,-94.9202 217.3841,-87.2389 215.3364,-79.9427C214.6632,-78.0762 214.4306,-77.1236 213.3557,-75.4158C208.633,-67.9123 198.4469,-64.3688 191.7517,-60.1093C183.2311,-55.9217 174.1664,-52.9607 164.5762,-52.9176C163.243,-53.0245 161.8998,-53.0436 160.5765,-53.2383C156.6356,-53.8182 152.962,-55.54 150.2346,-58.4617L162.9615,-66.1029z" stroke="#000" stroke-linecap="round" stroke-linejoin="round" stroke-width="2"/>
<path d="M285.1504,-83.2549C279.2704,-81.6082 266.5253,-73.74 288.7732,-86.471C285.6873,-84.8287 283.8556,-82.1564 282.4117,-79.0736C281.5877,-76.6037 280.7082,-73.8959 280.8873,-71.2445C281.0112,-69.4099 281.4883,-68.4885 282.1122,-66.775C284.5548,-61.9495 288.3109,-57.9808 292.7681,-54.9746C296.0578,-52.6838 299.7974,-51.6413 303.7669,-51.5931C306.8299,-52.2892 309.6761,-53.4821 312.4808,-54.8725C313.6763,-55.4652 317.18,-57.4003 316.0334,-56.7177C302.8176,-48.8508 306.1278,-50.9743 310.8042,-54.1772C314.6548,-57.1431 318.8403,-60.5843 319.8322,-65.6282C319.9707,-66.3328 319.9608,-67.0585 320.0251,-67.7736C319.7705,-74.0822 315.7842,-79.021 311.938,-83.6853C309.5135,-86.3835 306.7679,-88.9566 303.4532,-90.5325C301.7709,-91.3322 300.9086,-91.4744 299.127,-91.9474C295.533,-92.1428 291.7665,-91.8011 288.3544,-90.5627C286.7769,-89.9902 284.386,-88.6593 282.9199,-87.8841C302.9062,-99.8746 289.8107,-91.9587 285.6886,-88.3736L272.0851,-82.8087C278.4156,-88.898 286.8685,-92.4857 294.2269,-96.9393C296.3627,-97.9778 297.6236,-98.6956 299.9061,-99.3886C303.5386,-100.4916 307.4494,-100.7491 311.1907,-100.1978C313.1147,-99.5839 313.8945,-99.429 315.7014,-98.4661C319.0659,-96.6731 321.8405,-93.9498 324.3224,-91.1058C328.3687,-86.1242 332.4762,-80.9616 333.0924,-74.3305C333.0628,-73.5258 333.1121,-72.7144 333.0035,-71.9165C332.2653,-66.4892 328.2283,-62.6312 324.1231,-59.4248C316.1605,-53.7094 320.2406,-56.4756 304.8488,-47.7573C300.8383,-45.4856 296.4513,-43.5622 291.8451,-43.0245C287.6957,-43.3915 283.8349,-44.6143 280.4546,-47.1325C275.8828,-50.4672 272.0386,-54.677 269.3612,-59.693C268.7366,-61.3275 268.0271,-62.8838 267.8135,-64.6468C267.4791,-67.4079 268.3981,-70.3095 269.0633,-72.941C270.3422,-76.1902 271.9653,-79.2701 275.0209,-81.1777C282.2031,-85.3118 288.9239,-90.0555 296.9357,-92.2666L285.1504,-83.2549z" stroke="#000" stroke-linecap="round" stroke-linejoin="round" stroke-width="2"/>
<path d="M347.1504,-77.2549C344.6035,-76.4403 341.9575,-75.7416 339.5363,-74.5814C338.7232,-74.1918 337.9599,-73.7059 337.1716,-73.2681C340.5173,-75.1416 343.863,-77.0152 347.2087,-78.8887C343.2371,-76.2087 340.2901,-73.5303 338.5132,-69.0387C337.3505,-65.3388 337.9081,-62.2103 340.8379,-59.4732C341.5453,-58.8124 342.3768,-58.2984 343.1462,-57.711C348.7467,-54.4938 355.3758,-53.3418 361.7904,-54.0225C363.6291,-54.2176 365.4327,-54.663 367.2538,-54.9833C371.4683,-56.0713 373.305,-56.374 377.2631,-58.0355C378.5761,-58.5866 382.3128,-60.6635 381.0902,-59.9334C363.2909,-49.3046 371.3475,-53.9354 374.1428,-56.7651C374.7627,-57.3926 375.255,-58.1344 375.8111,-58.8191C378.2486,-62.6326 378.3111,-66.0246 376.5942,-70.0879C376.279,-70.8016 374.4627,-74.5447 373.1819,-73.7346C372.9601,-73.5943 372.8477,-73.33 372.6807,-73.1277C392.8977,-84.6564 385.2006,-82.7287 383.2398,-77.11C382.3936,-74.6854 382.2459,-72.3278 382.1295,-69.7816C383.5341,-57.9615 388.7559,-47.0167 393.0457,-36.0346C398.2618,-21.5258 403.2897,-6.47 403.8684,9.092C403.9836,12.189 403.6821,15.2876 403.5889,18.3853C403.1263,21.364 402.8671,24.3813 402.2011,27.3212C400.0287,36.9109 395.0849,45.6892 387.7437,52.2682C386.4496,53.4279 384.9846,54.3816 383.6051,55.4383C378.0848,58.3221 372.8336,61.7934 367.0443,64.0899C364.6445,65.0418 358.8518,63.0561 356.9529,62.2095C349.8949,59.0631 343.7992,53.895 337.8032,49.1621C327.688,40.5031 317.7846,31.4711 308.7355,21.6837C304.0475,16.6133 302.8886,14.9067 298.8166,9.6614C295.3512,3.8792 291.2661,-2.8245 294.6732,-9.6402C296.6895,-13.6737 299.1232,-15.1372 302.5004,-18.074C312.6219,-24.6327 313.4505,-25.3796 328.104,-32.7999C331.6804,-34.6109 343.2136,-38.7065 346.7432,-39.9379C353.7819,-42.3937 361.3514,-44.8267 368.4293,-47.1393C387.0233,-52.5028 405.2349,-59.0355 423.2344,-66.1176C424.7623,-66.7671 426.2923,-67.4118 427.8181,-68.0661C428.9838,-68.566 430.1581,-69.0469 431.3089,-69.5801C433.6612,-70.67 435.8588,-72.019 438.2856,-72.9431C441.5765,-73.4124 442.7308,-69.4505 443.7159,-67.0436C445.9847,-60.9159 447.263,-54.4902 447.8147,-47.9941C447.9509,-45.0837 448.0453,-42.1595 447.6331,-39.2662C447.5909,-38.9704 447.7439,-38.5103 447.473,-38.3842C443.0642,-36.3309 438.4604,-34.7251 433.9541,-32.8956C433.9659,-33.7909 433.9166,-34.689 433.9896,-35.5814C434.0957,-36.8799 434.3191,-38.1662 434.4903,-39.4578C435.49,-46.9958 436.7994,-54.4336 438.3334,-61.8806C439.8884,-68.3767 441.231,-75.18 444.9433,-80.8503C449.1473,-85.2518 458.497,-93.9297 463.0497,-88.879C463.5264,-88.3501 463.8605,-87.7082 464.2658,-87.1228C465.1568,-85.5475 465.9266,-84.351 466.5095,-82.6055C468.1484,-77.6977 468.884,-71.9449 469.7517,-66.8403C470.8843,-62.4227 470.4525,-57.1322 471.7929,-52.8005C473.5655,-57.562 471.775,-52.58 459.0435,-46.5094C458.7853,-46.3863 459.4327,-46.9346 459.5772,-47.1814C459.9087,-47.7474 460.5577,-49.4088 460.8105,-49.919C461.1553,-50.6152 461.549,-51.286 461.9182,-51.9694C464.3127,-55.807 466.3395,-59.8622 468.9779,-63.5425C473.3892,-69.0698 477.5158,-70.2762 485.1519,-74.4725C485.4138,-74.6164 485.7664,-74.5326 486.0475,-74.431C486.4054,-74.3016 486.6836,-74.0129 487.0016,-73.8039C489.988,-70.6628 491.0279,-66.2182 492.0362,-62.1278C492.9125,-57.6742 493.3814,-53.131 495.0104,-48.8712C495.4071,-48.3128 495.7311,-47.6948 496.2004,-47.1959C499.6185,-43.5623 505.2722,-40.8461 509.9343,-39.3687C511.6885,-38.8128 513.4959,-38.4411 515.2767,-37.9773C522.8167,-36.0961 530.3825,-36.0026 537.8823,-38.0643C539.5423,-38.5206 541.2095,-38.9969 542.7819,-39.6981C544.2464,-40.3512 545.5581,-41.3036 546.9463,-42.1064C544.0584,-40.6163 541.3829,-38.6098 538.2826,-37.636C537.087,-37.2605 540.1428,-39.3201 540.9963,-40.2377C543.5122,-42.9425 544.9507,-45.9503 545.9633,-49.4488C546.6579,-52.3622 546.6456,-55.3557 546.5652,-58.3283C545.753,-64.4645 540.332,-58.4252 559.1,-66.0472C559.4417,-66.186 558.8994,-65.3356 558.842,-64.9712C558.7584,-64.4412 558.7327,-63.9037 558.678,-63.37C558.4116,-58.5352 558.3011,-53.6898 558.8385,-48.8729C559.3853,-45.774 559.9781,-42.6077 562.4072,-40.4324C564.1162,-39.3075 565.9299,-39.231 567.8176,-39.8486C572.3605,-42.1411 579.1794,-46.118 558.5218,-34.4558C557.7888,-34.042 559.9393,-35.3644 560.6358,-35.837L574.3857,-41.3039C573.3212,-40.43 573.5147,-40.5201 572.2923,-39.8054C567.6471,-37.0896 561.8948,-32.5533 556.0168,-30.8992C553.7225,-30.6532 551.5833,-31.1524 549.789,-32.6773C547.292,-35.2807 546.4771,-38.6003 545.9205,-42.101C545.3299,-46.9737 545.4484,-51.8684 545.5121,-56.7697C545.5317,-57.4241 545.5891,-59.6985 545.6353,-59.7292C555.3623,-66.1895 558.5071,-72.3046 559.7414,-65.0828C559.8109,-61.9585 559.8144,-58.8161 559.1617,-55.7418C555.9603,-42.9865 547.5064,-40.0804 535.8851,-33.2002C534.4562,-32.4798 533.0874,-31.625 531.5984,-31.0388C522.6477,-27.5147 512.8948,-27.7976 503.6881,-30.0046C501.849,-30.4923 499.9816,-30.8834 498.1708,-31.4678C493.5394,-32.9624 487.0263,-36.1598 483.6105,-39.7531C483.0478,-40.345 482.6426,-41.0688 482.1586,-41.7267C480.5349,-46.0707 480.067,-50.6739 479.2315,-55.2142C478.3895,-58.7321 477.5533,-63.083 474.6465,-65.525C473.9606,-65.439 474.3146,-65.5425 473.6055,-65.1501C477.5343,-67.4822 481.4631,-69.8142 485.392,-72.1463C485.7243,-72.3373 484.7836,-71.6778 484.5048,-71.4148C483.8053,-70.7548 483.2382,-69.9617 482.4827,-69.3567C479.6627,-65.8118 477.6289,-61.7908 475.2736,-57.9352C474.3882,-56.4197 473.6566,-54.9774 473.0931,-53.3151C472.9783,-52.9764 473.1056,-52.4677 472.7992,-52.2834C459.5044,-44.2868 462.4531,-41.0521 458.7423,-45.7121C457.6264,-50.4162 458.1984,-55.4103 457.1115,-60.1366C456.048,-66.7522 455.2298,-73.8382 451.6337,-79.6263C451.0084,-80.3781 450.7399,-81.067 449.7463,-81.2506C449.4773,-81.3003 448.6972,-81.0264 448.9293,-81.1714C452.7843,-83.5799 456.7874,-85.7435 460.684,-88.0841C461.0341,-88.2944 459.9199,-87.7826 459.574,-87.5654C459.1661,-87.3094 458.8163,-86.9709 458.4374,-86.6736C454.0539,-81.4464 452.7319,-74.3891 450.9594,-67.9864C448.9624,-58.7542 447.2481,-49.392 446.9663,-39.9303C442.6611,-37.2917 438.4431,-34.5055 434.0509,-32.0145C433.809,-31.8773 434.2913,-32.5188 434.3689,-32.7859C435.1731,-35.5526 434.9442,-38.4808 434.9437,-41.3192C434.5725,-47.6693 433.3852,-53.9844 430.9595,-59.8902C430.4967,-60.9584 429.6461,-64.0551 428.0273,-64.1645C427.6519,-64.1899 426.9629,-63.8928 426.664,-63.7855C421.876,-61.6536 417.2258,-59.2069 412.2498,-57.5029C394.41,-50.7931 376.4177,-44.5046 358.1221,-39.1385C347.5024,-35.6251 336.8084,-32.2298 326.4071,-28.0958C323.4132,-26.9058 320.6723,-24.9485 317.5147,-24.3088C315.893,-23.9803 323.0914,-27.8472 321.6038,-27.1227C319.4346,-26.0663 317.5039,-24.5777 315.454,-23.3052C311.6254,-20.2317 306.9304,-17.0518 306.0231,-11.7537C305.1302,-6.539 308.4514,-1.7173 310.6976,2.6064C312.0867,4.5044 313.4087,6.4534 314.865,8.3002C324.8107,20.9133 336.9125,31.7349 349.2333,41.9507C355.2776,46.4639 361.4425,51.5105 368.5887,54.2474C370.2378,54.879 371.9681,55.3572 373.7232,55.5527C375.2204,55.7194 379.0476,54.0524 378.2367,55.3221C376.5481,57.9662 373.0607,58.8689 370.4727,60.6424C371.9211,59.6313 373.4539,58.7314 374.818,57.609C382.3953,51.3747 387.7065,42.7683 390.0706,33.2575C390.7888,30.3679 391.0696,27.3869 391.5691,24.4516C391.713,21.3964 392.0786,18.3436 392.0007,15.286C391.6074,-.1509 386.3714,-15.0473 381.0958,-29.3649C376.6203,-40.4339 371.1739,-51.3452 369.2251,-63.2235C369.1596,-66.0352 369.2286,-68.1755 369.9092,-70.8957C369.9473,-71.0478 370.7023,-73.7558 371.0384,-73.9872C375.3553,-76.9602 379.9527,-79.5037 384.4099,-82.2619C384.7489,-82.2349 385.0988,-82.2704 385.4268,-82.1807C387.5325,-81.605 388.5419,-78.9921 389.422,-77.2845C391.2962,-72.8589 391.5534,-68.921 389.1687,-64.5737C388.6277,-63.7989 388.1602,-62.9673 387.5458,-62.2493C383.155,-57.1183 374.373,-53.5169 369.904,-51.0303C365.6297,-48.6519 360.7122,-47.6351 356.0106,-46.5342C354.1284,-46.2519 352.2609,-45.8421 350.3638,-45.6872C343.5879,-45.1342 336.6659,-46.3505 330.8819,-49.9878C330.0515,-50.6505 329.1568,-51.2399 328.3906,-51.9759C325.1513,-55.0883 324.1401,-58.5232 325.2119,-62.8203C326.8277,-67.9581 329.3611,-70.4448 333.6797,-73.6076C342.0135,-78.5311 349.5479,-83.9618 358.9357,-86.2666L347.1504,-77.2549z" stroke="#000" stroke-linecap="round" stroke-linejoin="round" stroke-width="2"/>
<path d="M549.2332,-122.1847C547.4497,-120.0919 546.0244,-117.6969 545.3462,-115.0219C544.8607,-112.3468 546.4564,-111.6609 548.6501,-110.701C552.1989,-109.4013 555.2322,-109.544 558.8667,-110.1867C563.727,-111.8529 571.4457,-116.6009 549.8419,-104.683C549.5386,-104.5156 550.4174,-105.0731 550.6735,-105.3066C551.283,-105.8622 551.3443,-106.0922 551.7431,-106.7885C552.4769,-108.4348 552.405,-109.9757 551.4599,-111.492C550.2026,-112.6833 548.3125,-112.5716 546.6902,-112.6506C545.0147,-112.4957 543.4191,-112.0801 542.057,-111.0753L553.6269,-120.3929C555.2743,-121.0166 556.9597,-121.4107 558.7396,-121.2691C560.8571,-121.0599 562.9403,-120.7594 564.3134,-118.9498C565.4318,-117.0683 565.8738,-115.1231 565.2275,-112.9755C562.8838,-105.9037 553.9818,-103.0447 547.0943,-101.3611C543.4244,-100.8997 539.7964,-101.101 536.3461,-102.5755C533.866,-103.8553 531.6424,-105.4567 532.0181,-108.5614C532.4759,-111.4436 533.8818,-114.0254 535.5706,-116.3799L549.2332,-122.1847z" stroke="#000" stroke-linecap="round" stroke-linejoin="round" stroke-width="2"/>
<path d="M359.6057,-86.1453C362.4187,-87.5125 365.103,-89.129 368.0047,-90.3079C369.8229,-91.4887 371.8175,-92.0343 373.9447,-92.2669C375.9013,-92.4156 377.8658,-92.3906 379.8266,-92.3838C381.7726,-92.5908 383.4211,-92.0588 385.1306,-91.2244C386.3272,-90.2653 387.2717,-88.9911 388.1806,-87.7589C388.971,-86.3232 389.4355,-84.7124 389.9217,-83.1481C390.3578,-81.5453 390.9514,-80.0138 391.2655,-78.376C391.5681,-76.4533 391.5887,-74.5022 391.6123,-72.5605C391.6209,-71.5593 391.6196,-70.5581 391.6191,-69.5568L378.4016,-62.8239C378.4031,-63.8201 378.4051,-64.8163 378.4006,-65.8125C378.3869,-67.6761 378.3836,-69.5468 378.1492,-71.3987C377.8884,-72.9952 377.3044,-74.4635 376.8794,-76.0128C376.4669,-77.4199 376.0218,-78.8533 375.3829,-80.165C374.6051,-81.185 373.8481,-82.3496 372.73,-83.0103C371.1597,-83.6924 369.5221,-83.7365 367.825,-83.6633C365.9059,-83.6547 363.9742,-83.6641 362.0745,-83.3541C360.0654,-82.9292 358.2552,-82.0648 356.4262,-81.1471C353.5803,-79.8236 350.8275,-78.3064 348.069,-76.8116L359.6057,-86.1453z" stroke="#000" stroke-linecap="round" stroke-linejoin="round" stroke-width="2"/>
</g>
<path d="M59.8331,49.0329H246.7113A15.9099,15.9099 0 0 1 262.6212,64.9428V64.9428A15.9099,15.9099 0 0 1 246.7113,80.8527H59.8331A15.9099,15.9099 0 0 1 43.9232,64.9428V64.9428A15.9099,15.9099 0 0 1 59.8331,49.0329z" fill="#fff" stroke="#000" stroke-linecap="round" stroke-linejoin="round" stroke-width="4"/>
<path d="M101.5203,44.9288A36.8706,34.8503 0 1 1 27.7792,44.9288A36.8706,34.8503 0 1 1 101.5203,44.9288z" stroke="#000" stroke-linecap="round" stroke-linejoin="round" stroke-width="7.491" transform="matrix(.7121,0,0,.7121,-1.36316,26.65581)"/>
<text font-family="Bitstream Vera Sans" font-size="40" x="20.2861" y="72.6903">
   <tspan fill="#f9f9f9" x="20.2861" y="72.6903">39</tspan>
  </text>
<path d="M446.8915,78.4154A61.5183,5.3033 0 1 1 323.8549,78.4154A61.5183,5.3033 0 1 1 446.8915,78.4154z" stroke="#000" stroke-linecap="round" stroke-width="4.862" transform="matrix(-1,0,0,1,886.81695,291.91397)"/>
<path d="M447.6856,283.4419L447.6856,331.3303C447.6856,351.3373 463.7923,367.4441 483.7993,367.4441L519.2334,367.4441C539.2404,367.4441 555.3471,351.3373 555.3471,331.3303L555.3471,283.4419" fill="#fff" stroke="#000" stroke-linecap="round" stroke-linejoin="round" stroke-width="3.6422"/>
<path d="M-526.2991,303.2534H-502.765A.7803,.7803 0 0 1 -501.9848,304.0336V314.0597A.7803,.7803 0 0 1 -502.765,314.84H-526.2991A.7803,.7803 0 0 1 -527.0793,314.0597V304.0336A.7803,.7803 0 0 1 -526.2991,303.2534z" stroke="#000" stroke-linecap="square" stroke-linejoin="round" stroke-width="3.7338" transform="scale(-1,1)"/>
<path d="M-484.9081,303.2534H-464.4952A2.3409,2.3409 0 0 1 -462.1544,305.5942V312.4992A2.3409,2.3409 0 0 1 -464.4952,314.84H-484.9081A2.3409,2.3409 0 0 1 -487.249,312.4992V305.5942A2.3409,2.3409 0 0 1 -484.9081,303.2534z" stroke="#000" stroke-linecap="square" stroke-linejoin="round" stroke-width="3.7338" transform="scale(-1,1)"/>
<path d="M553.0389,308.3079C552.4897,308.3184 551.9403,308.3147 551.391,308.312C551.0281,308.3099 550.6651,308.3084 550.3022,308.3078C550.0097,308.3073 549.7172,308.3074 549.4247,308.3074C549.1206,308.3067 548.8166,308.308 548.5126,308.3085C548.1219,308.2989 547.7373,308.3082 547.3506,308.3592C546.951,308.4138 546.5475,308.4309 546.1444,308.442C545.7392,308.4262 545.3415,308.5008 544.9404,308.541C544.5325,308.5778 544.1224,308.5817 543.713,308.586C543.2829,308.5883 542.8527,308.5881 542.4226,308.5867C542.0489,308.5859 541.6754,308.5854 541.3018,308.5844C540.9947,308.5837 540.6877,308.5835 540.3806,308.5833C540.0892,308.5833 539.7977,308.5833 539.5062,308.5833C539.2146,308.5833 538.9231,308.5833 538.6315,308.5833C538.3129,308.5829 537.9942,308.5838 537.6755,308.5852C537.2812,308.5876 536.8869,308.5857 536.4927,308.5846C536.1218,308.5843 535.7509,308.5851 535.38,308.5861C534.9833,308.5859 534.5866,308.586 534.1899,308.585C533.8099,308.5852 533.4299,308.5858 533.05,308.5852C532.7044,308.5839 532.3588,308.5837 532.0132,308.5854C531.48,308.5881 530.9468,308.5896 530.4136,308.5915C529.687,308.5943 528.9604,308.5949 528.2337,308.5925C527.7005,308.5912 527.1673,308.5873 526.634,308.5871C526.1927,308.5877 525.7514,308.5871 525.3101,308.5856C525.249,308.5854 525.1879,308.5852 525.1268,308.585L526.8728,309.7843C526.9333,309.7841 526.9938,309.7839 527.0543,309.7837C527.4942,309.7822 527.934,309.7815 528.3739,309.7822C528.9018,309.7819 529.4298,309.7781 529.9578,309.7767C530.6853,309.7743 531.413,309.7749 532.1406,309.7777C532.6797,309.7796 533.2187,309.7812 533.7578,309.7838C534.1037,309.7855 534.4495,309.7853 534.7953,309.7841C535.1754,309.7835 535.5555,309.784 535.9357,309.7842C536.3313,309.7832 536.727,309.7833 537.1227,309.7831C537.495,309.7842 537.8674,309.7849 538.2397,309.7846C538.6334,309.7836 539.0271,309.7817 539.4207,309.784C539.7413,309.7854 540.0619,309.7863 540.3824,309.786C540.674,309.786 540.9655,309.786 541.2571,309.786C541.5485,309.786 541.84,309.786 542.1314,309.7859C542.4374,309.7858 542.7434,309.7856 543.0494,309.7849C543.4214,309.7842 543.7934,309.7841 544.1654,309.7841C544.5956,309.7832 545.0258,309.7848 545.4559,309.78C545.8706,309.7744 546.2861,309.7654 546.6986,309.7205C547.0954,309.676 547.4907,309.6233 547.8917,309.6336C548.2995,309.6184 548.7066,309.5901 549.111,309.5368C549.493,309.4964 549.8763,309.5076 550.2603,309.509C550.5654,309.5095 550.8705,309.5107 551.1757,309.5101C551.4678,309.5101 551.7599,309.5102 552.052,309.5097C552.4109,309.5091 552.7697,309.5076 553.1286,309.5055C553.6818,309.5027 554.2351,309.4993 554.7882,309.5096L553.0389,308.3079z" stroke="#000" stroke-linecap="square" stroke-linejoin="round" stroke-width=".4767"/>
<path d="M461.5441,308.5846C460.8402,308.5964 460.1361,308.5948 459.4322,308.5943C458.787,308.5935 458.1417,308.5917 457.4965,308.5888C457.0653,308.5864 456.6341,308.5863 456.203,308.5858C455.8632,308.5849 455.5234,308.5841 455.1836,308.5836C454.8868,308.6053 454.6015,308.5261 454.3098,308.488C454.0172,308.454 453.7221,308.449 453.4277,308.4455C453.1356,308.4434 452.8434,308.4443 452.5512,308.4447C452.2594,308.4451 451.9676,308.4452 451.6759,308.4453C451.3841,308.4454 451.0923,308.4454 450.8005,308.4454C450.5087,308.4454 450.2169,308.4454 449.9251,308.4454C449.6118,308.4447 449.2985,308.4465 448.9853,308.4465C448.668,308.4462 448.3508,308.4458 448.0335,308.4456C447.7397,308.4454 447.4459,308.4454 447.1521,308.4454C446.9577,308.4453 447.0549,308.4453 446.8606,308.4453L448.6115,309.648C448.8058,309.648 448.7087,309.648 448.903,309.648C449.1966,309.648 449.4902,309.648 449.7838,309.6478C450.1002,309.6476 450.4165,309.6471 450.7329,309.6469C451.0473,309.6469 451.3616,309.6486 451.676,309.648C451.9678,309.648 452.2596,309.648 452.5514,309.648C452.8432,309.648 453.135,309.648 453.4268,309.6479C453.7186,309.6478 454.0104,309.6475 454.3023,309.6472C454.5935,309.647 454.8848,309.6461 455.1761,309.6515C455.4654,309.6589 455.7552,309.671 456.0414,309.7151C456.3374,309.7603 456.6319,309.8057 456.9335,309.7856C457.2712,309.7852 457.6089,309.7843 457.9467,309.7835C458.3749,309.783 458.8032,309.7829 459.2314,309.7805C459.8713,309.7776 460.5111,309.7758 461.1509,309.7749C461.8643,309.7744 462.5778,309.773 463.2911,309.7846L461.5441,308.5846z" stroke="#000" stroke-linecap="square" stroke-linejoin="round" stroke-width=".4767"/>
<path d="M501.8369,308.7478C501.303,308.8154 500.7643,308.8367 500.2264,308.8527C499.7463,308.8642 499.2661,308.8643 498.7859,308.863C498.3895,308.8625 497.993,308.8624 497.5966,308.8614C496.8009,308.8819 496.0046,308.8718 495.2087,308.8682C494.7277,308.8646 494.2468,308.8632 493.7659,308.8612C493.3823,308.8612 492.9988,308.8608 492.6153,308.8618C492.2121,308.8631 491.8089,308.8608 491.4057,308.8615C491.0419,308.8606 490.678,308.8607 490.3143,308.8608C489.9499,308.8614 489.5855,308.861 489.2211,308.8603C488.8731,308.8615 488.525,308.8604 488.1769,308.8599C487.8364,308.8613 487.4958,308.8603 487.1553,308.8598C486.8545,308.8594 486.5537,308.8593 486.2529,308.8592C486.0013,308.9177 485.7482,308.9598 485.4901,308.9801C485.2102,308.9973 484.9295,308.9974 484.6492,308.9981C484.3575,308.9983 484.0658,308.9977 483.7742,308.9974C483.6281,308.9973 483.4821,308.9972 483.3361,308.9972L485.0869,310.1999C485.2329,310.2 485.3789,310.2001 485.5249,310.2003C485.8169,310.2006 486.1089,310.2013 486.4009,310.1999C486.6861,310.1974 486.9719,310.1949 487.2558,310.1668C487.5064,310.1374 487.7518,310.0771 488.0036,310.0618C488.3039,310.0617 488.604,310.0616 488.9042,310.0612C489.2447,310.0607 489.5852,310.0597 489.9258,310.0611C490.2734,310.0606 490.621,310.0595 490.9687,310.0607C491.3326,310.06 491.6964,310.0596 492.0603,310.0602C492.4235,310.0603 492.7867,310.0604 493.1498,310.0595C493.5527,310.0602 493.9556,310.0579 494.3585,310.0592C494.7426,310.0602 495.1267,310.0598 495.5108,310.0598C495.985,310.0578 496.4592,310.0564 496.9333,310.0528C497.736,310.0492 498.539,310.0396 499.3416,310.0602C499.7374,310.0598 500.1331,310.0607 500.5289,310.0598C501.0074,310.0569 501.4859,310.0532 501.9641,310.0373C502.5118,310.0161 503.0589,309.9835 503.6042,309.9303L501.8369,308.7478z" stroke="#000" stroke-linecap="square" stroke-linejoin="round" stroke-width=".4767"/>
<path d="M540.3414,270.9345L540.3414,289.4778" fill="none" stroke="#000" stroke-linecap="round" stroke-width="4.8046"/>
<path d="M530.8174,269.1802L530.8174,287.7234" fill="none" stroke="#000" stroke-linecap="round" stroke-width="4.8046"/>
<path d="M521.8804,270.6445L521.8804,289.1877" fill="none" stroke="#000" stroke-linecap="round" stroke-width="4.8046"/>
<path d="M510.2037,269.4773L510.2037,288.0205" fill="none" stroke="#000" stroke-linecap="round" stroke-width="4.8046"/>
<path d="M500.0451,271.6639L500.0451,290.2071" fill="none" stroke="#000" stroke-linecap="round" stroke-width="4.8046"/>
<path d="M488.4158,271.4885L488.4158,290.0317" fill="none" stroke="#000" stroke-linecap="round" stroke-width="4.8046"/>
<path d="M477.9133,269.7743L477.9133,288.3175" fill="none" stroke="#000" stroke-linecap="round" stroke-width="4.8046"/>
<path d="M467.9979,272.8112L467.9979,291.3544" fill="none" stroke="#000" stroke-linecap="round" stroke-width="4.8046"/>
<path d="M457.3249,272.4425L457.3249,290.9857" fill="none" stroke="#000" stroke-linecap="round" stroke-width="4.8046"/>
<path d="M548.2256,275.6648L548.2256,294.208" fill="none" stroke="#000" stroke-linecap="round" stroke-width="4.8046"/>
<text font-family="Bitstream Vera Sans" font-size="20" x="440.3151" y="150.8079">
   <tspan font-size="20" text-align="center" text-anchor="middle" x="440.3151" y="150.8079">Des partiels, un projet et</tspan>
   <tspan font-size="20" text-align="center" text-anchor="middle" x="440.3151" y="175.8079">un miniprojet à faire pour</tspan>
   <tspan font-size="20" text-align="center" text-anchor="middle" x="440.3151" y="200.8079">la rentrée. Et toi ?</tspan>
  </text>
<path d="M480.4937,219.1614L488.3062,255.0989" fill="none" stroke="#000"/>
<text font-family="Bitstream Vera Sans" font-size="20" x="102.1964" y="71.7099">
   <tspan x="102.1964" y="71.7099">Vacances</tspan>
  </text>
<text font-family="Bitstream Vera Sans" font-size="20" x="154.472" y="168.1422">
   <tspan text-align="center" text-anchor="middle" x="157.6556" y="168.1422">Hey, tu fais </tspan>
   <tspan text-align="center" text-anchor="middle" x="154.472" y="193.1422">quoi pour Noel ?</tspan>
  </text>
<path d="M124.472,207.4279L110.1863,248.1422" fill="none" stroke="#000"/>
<g transform="translate(12.8571,5.495)">
<path d="m446.8915,78.4154c0,2.9289-27.5427,5.3033-61.5183,5.3033-33.9756,0-61.5183,-2.3744-61.5183,-5.3033 0,-2.9289 27.5427,-5.3033 61.5183,-5.3033 33.9756,0 61.5183,2.3744 61.5183,5.3033z" stroke="#000" stroke-linecap="round" stroke-width="4.862" transform="matrix(-1,0,0,1,1155.0234,282.42915)"/>
<path d="M715.892,273.9571L715.892,321.8455C715.892,341.8525 731.9987,357.9592 752.0057,357.9592L787.4398,357.9592C807.4468,357.9592 823.5535,341.8525 823.5535,321.8455L823.5535,273.9571" fill="#fff" stroke="#000" stroke-linecap="round" stroke-linejoin="round" stroke-width="3.6422"/>
<path d="M-794.5054,293.7685H-770.9713A.7803,.7803 0 0 1 -770.191,294.5488V304.5749A.7803,.7803 0 0 1 -770.9713,305.3551H-794.5054A.7803,.7803 0 0 1 -795.2856,304.5749V294.5488A.7803,.7803 0 0 1 -794.5054,293.7685z" stroke="#000" stroke-linecap="square" stroke-linejoin="round" stroke-width="3.7338" transform="scale(-1,1)"/>
<path d="M-753.1143,293.7685H-732.7015A2.3409,2.3409 0 0 1 -730.3606,296.1093V303.0143A2.3409,2.3409 0 0 1 -732.7015,305.3551H-753.1143A2.3409,2.3409 0 0 1 -755.4552,303.0143V296.1093A2.3409,2.3409 0 0 1 -753.1143,293.7685z" stroke="#000" stroke-linecap="square" stroke-linejoin="round" stroke-width="3.7338" transform="scale(-1,1)"/>
<path d="M821.2453,298.8231C820.6961,298.8336 820.1467,298.8299 819.5974,298.8272C819.2345,298.825 818.8715,298.8236 818.5086,298.8229C818.2161,298.8225 817.9236,298.8225 817.6311,298.8225C817.3271,298.8219 817.023,298.8231 816.719,298.8237C816.3283,298.814 815.9438,298.8233 815.557,298.8744C815.1574,298.9289 814.7539,298.9461 814.3508,298.9571C813.9456,298.9413 813.5479,299.016 813.1468,299.0562C812.7389,299.0929 812.3288,299.0968 811.9194,299.1012C811.4893,299.1035 811.0591,299.1033 810.629,299.1019C810.2554,299.1011 809.8818,299.1005 809.5082,299.0996C809.2011,299.0989 808.8941,299.0986 808.5871,299.0985C808.2956,299.0984 808.0041,299.0984 807.7126,299.0985C807.421,299.0985 807.1295,299.0985 806.838,299.0985C806.5193,299.0981 806.2006,299.099 805.8819,299.1004C805.4876,299.1028 805.0933,299.1008 804.6991,299.0998C804.3282,299.0995 803.9573,299.1003 803.5864,299.1013C803.1897,299.1011 802.793,299.1012 802.3963,299.1002C802.0163,299.1004 801.6363,299.101 801.2564,299.1004C800.9108,299.0991 800.5652,299.0989 800.2196,299.1006C799.6864,299.1032 799.1532,299.1048 798.62,299.1067C797.8934,299.1095 797.1668,299.1101 796.4401,299.1077C795.9069,299.1063 795.3737,299.1025 794.8404,299.1023C794.3991,299.1029 793.9578,299.1022 793.5165,299.1008C793.4554,299.1006 793.3943,299.1004 793.3332,299.1002L795.0792,300.2995C795.1397,300.2992 795.2002,300.2991 795.2607,300.2989C795.7006,300.2973 796.1404,300.2967 796.5803,300.2973C797.1082,300.2971 797.6362,300.2933 798.1642,300.2919C798.8917,300.2895 799.6194,300.2901 800.347,300.2929C800.8861,300.2948 801.4251,300.2964 801.9642,300.299C802.3101,300.3007 802.6559,300.3005 803.0017,300.2992C803.3818,300.2987 803.7619,300.2992 804.1421,300.2994C804.5377,300.2984 804.9334,300.2985 805.3291,300.2983C805.7015,300.2994 806.0738,300.3001 806.4461,300.2998C806.8398,300.2988 807.2335,300.2968 807.6271,300.2992C807.9477,300.3006 808.2683,300.3015 808.5888,300.3011C808.8804,300.3011 809.1719,300.3011 809.4635,300.3011C809.7549,300.3011 810.0464,300.3012 810.3378,300.3011C810.6438,300.301 810.9498,300.3007 811.2558,300.3001C811.6278,300.2994 811.9998,300.2993 812.3718,300.2992C812.802,300.2984 813.2322,300.2999 813.6623,300.2951C814.0771,300.2895 814.4925,300.2806 814.905,300.2357C815.3018,300.1911 815.6971,300.1385 816.0981,300.1488C816.5059,300.1336 816.913,300.1053 817.3174,300.052C817.6994,300.0115 818.0827,300.0228 818.4667,300.0242C818.7718,300.0247 819.077,300.0259 819.3821,300.0253C819.6742,300.0253 819.9663,300.0253 820.2584,300.0249C820.6173,300.0242 820.9761,300.0228 821.335,300.0207C821.8882,300.0179 822.4415,300.0145 822.9947,300.0247L821.2453,298.8231z" stroke="#000" stroke-linecap="square" stroke-linejoin="round" stroke-width=".4767"/>
<path d="M729.7505,299.0998C729.0466,299.1116 728.3425,299.11 727.6386,299.1095C726.9934,299.1086 726.3481,299.1069 725.7029,299.1039C725.2717,299.1016 724.8405,299.1015 724.4094,299.1009C724.0696,299.1001 723.7298,299.0993 723.39,299.0988C723.0932,299.1205 722.8079,299.0413 722.5162,299.0032C722.2236,298.9691 721.9285,298.9642 721.6341,298.9607C721.342,298.9586 721.0498,298.9595 720.7576,298.9599C720.4658,298.9603 720.1741,298.9604 719.8823,298.9605C719.5905,298.9605 719.2987,298.9605 719.0069,298.9605C718.7151,298.9605 718.4233,298.9605 718.1315,298.9605C717.8182,298.9599 717.505,298.9616 717.1917,298.9617C716.8744,298.9614 716.5572,298.961 716.24,298.9607C715.9461,298.9606 715.6523,298.9605 715.3585,298.9605C715.1642,298.9605 715.2613,298.9605 715.067,298.9605L716.8179,300.1632C717.0122,300.1632 716.9151,300.1632 717.1094,300.1632C717.403,300.1632 717.6966,300.1632 717.9902,300.163C718.3066,300.1628 718.6229,300.1623 718.9393,300.1621C719.2537,300.1621 719.568,300.1638 719.8824,300.1632C720.1742,300.1632 720.466,300.1632 720.7578,300.1632C721.0496,300.1632 721.3414,300.1632 721.6332,300.1631C721.925,300.163 722.2168,300.1627 722.5087,300.1624C722.7999,300.1621 723.0913,300.1613 723.3825,300.1667C723.6718,300.1741 723.9616,300.1862 724.2478,300.2302C724.5438,300.2755 724.8383,300.3209 725.1399,300.3008C725.4776,300.3003 725.8153,300.2995 726.1531,300.2987C726.5813,300.2981 727.0096,300.298 727.4378,300.2957C728.0777,300.2927 728.7175,300.291 729.3573,300.2901C730.0707,300.2896 730.7842,300.2882 731.4975,300.2998L729.7505,299.0998z" stroke="#000" stroke-linecap="square" stroke-linejoin="round" stroke-width=".4767"/>
<path d="M770.0433,299.263C769.5094,299.3306 768.9707,299.3519 768.4328,299.3679C767.9527,299.3794 767.4725,299.3795 766.9923,299.3782C766.5959,299.3777 766.1994,299.3775 765.803,299.3766C765.0073,299.397 764.211,299.387 763.4151,299.3834C762.9341,299.3798 762.4532,299.3784 761.9723,299.3764C761.5887,299.3764 761.2052,299.3759 760.8217,299.377C760.4185,299.3782 760.0153,299.376 759.6121,299.3767C759.2483,299.3758 758.8845,299.3759 758.5207,299.376C758.1563,299.3766 757.7919,299.3762 757.4275,299.3755C757.0795,299.3767 756.7314,299.3756 756.3833,299.375C756.0428,299.3765 755.7022,299.3755 755.3617,299.375C755.0609,299.3746 754.7601,299.3744 754.4593,299.3744C754.2077,299.4329 753.9546,299.4749 753.6965,299.4953C753.4166,299.5125 753.1359,299.5125 752.8556,299.5133C752.5639,299.5135 752.2722,299.5129 751.9806,299.5126C751.8345,299.5125 751.6885,299.5124 751.5425,299.5124L753.2933,300.7151C753.4393,300.7152 753.5853,300.7153 753.7313,300.7154C754.0233,300.7158 754.3153,300.7165 754.6073,300.7151C754.8925,300.7126 755.1783,300.7101 755.4622,300.6819C755.7128,300.6526 755.9582,300.5923 756.2101,300.577C756.5103,300.5769 756.8105,300.5768 757.1106,300.5763C757.4511,300.5759 757.7917,300.5749 758.1322,300.5763C758.4798,300.5758 758.8274,300.5747 759.1751,300.5759C759.539,300.5751 759.9028,300.5748 760.2667,300.5754C760.6299,300.5755 760.9931,300.5755 761.3562,300.5747C761.7591,300.5753 762.162,300.5731 762.5649,300.5744C762.949,300.5754 763.3331,300.575 763.7172,300.575C764.1914,300.573 764.6656,300.5716 765.1397,300.568C765.9424,300.5643 766.7454,300.5548 767.548,300.5754C767.9438,300.5749 768.3395,300.5758 768.7353,300.575C769.2138,300.5721 769.6923,300.5684 770.1705,300.5525C770.7182,300.5313 771.2653,300.4986 771.8106,300.4455L770.0433,299.263z" stroke="#000" stroke-linecap="square" stroke-linejoin="round" stroke-width=".4767"/>
<path d="M808.5478,261.4497L808.5478,279.9929" fill="none" stroke="#000" stroke-linecap="round" stroke-width="4.8046"/>
<path d="M799.0238,259.6954L799.0238,278.2386" fill="none" stroke="#000" stroke-linecap="round" stroke-width="4.8046"/>
<path d="M790.0869,261.1597L790.0869,279.7029" fill="none" stroke="#000" stroke-linecap="round" stroke-width="4.8046"/>
<path d="M778.4101,259.9925L778.4101,278.5357" fill="none" stroke="#000" stroke-linecap="round" stroke-width="4.8046"/>
<path d="M768.2515,262.179L768.2515,280.7223" fill="none" stroke="#000" stroke-linecap="round" stroke-width="4.8046"/>
<path d="M756.6222,262.0036L756.6222,280.5469" fill="none" stroke="#000" stroke-linecap="round" stroke-width="4.8046"/>
<path d="M746.1197,260.2895L746.1197,278.8327" fill="none" stroke="#000" stroke-linecap="round" stroke-width="4.8046"/>
<path d="M736.2043,263.3264L736.2043,281.8696" fill="none" stroke="#000" stroke-linecap="round" stroke-width="4.8046"/>
<path d="M725.5313,262.9577L725.5313,281.5009" fill="none" stroke="#000" stroke-linecap="round" stroke-width="4.8046"/>
<path d="M816.432,266.1799L816.432,284.7231" fill="none" stroke="#000" stroke-linecap="round" stroke-width="4.8046"/>
<path d="M765.0775,339.3816C767.0851,336.6892 770.9093,335.9765 774.0915,334.7116C777.0905,333.5195 779.2287,334.6739 782.4378,335.1986" fill="none" stroke="#000"/>
</g>
<path d="M511.4186,347.2141L484.2957,342.7859" fill="none" stroke="#000" stroke-width=".7749"/>
<text font-family="Bitstream Vera Sans" font-size="20" x="683.5715" y="135.7143">
   <tspan text-align="center" text-anchor="middle" x="683.5715" y="135.7143">Ben moi je passe</tspan>
   <tspan text-align="center" text-anchor="middle" x="683.5715" y="160.7143">Noël en famille...</tspan>
  </text>
<text font-family="Bitstream Vera Sans" font-size="20" x="779.9999" y="197.8571">
   <tspan text-align="center" text-anchor="middle" x="779.9999" y="197.8571">Ca veut dire</tspan>
   <tspan text-align="center" text-anchor="middle" x="779.9999" y="222.8571">quoi ça déjà ?</tspan>
  </text>
<path d="m665.028,171.4146-8.5714,80.7143" fill="none" stroke="#000"/>
<path d="M770.7143,231.4286L777.1429,259.2857" fill="none" stroke="#000"/>
<g id="layer1-5" transform="matrix(1.31232,0,0,1.31232,25.70179,-996.62474)">
<g transform="matrix(.91492,0,0,.91492,-219.39684,762.99065)">
<path d="m446.8915,78.4154c0,2.9289-27.5427,5.3033-61.5183,5.3033-33.9756,0-61.5183,-2.3744-61.5183,-5.3033 0,-2.9289 27.5427,-5.3033 61.5183,-5.3033 33.9756,0 61.5183,2.3744 61.5183,5.3033z" stroke="#000" stroke-linecap="round" stroke-width="4.862" transform="matrix(.6118,0,0,.83289,60.47922,238.28112)"/>
<path d="m329.1406,231.2248 0,39.8857c0,16.6636-9.8541,30.0787-22.0944,30.0787l-21.6786,0c-12.2403,0-22.0944,-13.4151-22.0944,-30.0787l0,-39.8857" fill="#fff" stroke="#000" stroke-linecap="round" stroke-linejoin="round" stroke-width="2.6"/>
<path d="m70.7107,315.9022c0,3.7658-2.4874,6.8185-5.5558,6.8185-3.0684,0-5.5558,-3.0528-5.5558,-6.8185 0,-3.7658 2.4874,-6.8185 5.5558,-6.8185 3.0684,0 5.5558,3.0528 5.5558,6.8185z" fill="#fff" stroke="#000" stroke-linecap="round" stroke-linejoin="round" stroke-width="3.891" transform="matrix(.82764,0,0,.82764,237.7284,-8.80164)"/>
<path d="m70.7107,315.9022c0,3.7658-2.4874,6.8185-5.5558,6.8185-3.0684,0-5.5558,-3.0528-5.5558,-6.8185 0,-3.7658 2.4874,-6.8185 5.5558,-6.8185 3.0684,0 5.5558,3.0528 5.5558,6.8185z" fill="#fff" stroke="#000" stroke-linecap="round" stroke-linejoin="round" stroke-width="3.891" transform="matrix(.82764,0,0,.82764,256.0803,-9.13215)"/>
<path d="m281.253,281.5701 11.2017,2.7432" fill="none" stroke="#000" stroke-width=".8276"/>
<path d="m318.4506,219.9965c-14.3276,-3.2591-29.1226,-4.3374-45.4569,1.7678-14.4666,4.6962-22.3994,18.9779-14.1421,39.6485l-5.8084,11.1117c-8.9284,6.9537 8.599,3.963 10.6806,2.7832l.4311,-22.2286c4.8238,-2.3204 8.2962,-4.2531 9.562,-10.7899 .6448,-3.3294 3.1094,2.1094 8.6872,-4.0386 1.0861,-1.1971 7.9144,-4.2148 12.3079,-5.8796 0,0 16.8311,-2.718 24.2437,.5051 3.8761,1.6854 8.2649,6.9939 9.2176,11.1117 1.1581,5.0055-5.4819,10.3102-4.9245,13.5108 .3325,1.9092 5.5558,-.6313 5.5558,-.6313-4.9313,10.8388 .8798,14.7563 9.9753,15.9099 0,0-9.9644,-4.6583-10.9854,-1.0102-1.358,4.852 8.042,6.5751 12.2481,5.177 .8384,-.2787 1.9112,-1.809 1.3377,-2.288-.6277,-.5243-3.9267,-.252-3.3847,-.303 4.319,-.4058 3.1282,-4.634 1.4156,-5.4903-3.2948,-.529-7.8857,-.528-6.566,-9.4702 1.6898,-3.2617 5.6827,-33.7733-14.3947,-39.3959z" stroke="#000"/>
</g>
</g>
<use height="450" transform="translate(279.6639,-2.3903)" width="900" x="0" xlink:href="#layer1-5" y="0"/>
<use height="450" transform="translate(562.9132,-2.2667)" width="900" x="0" xlink:href="#layer1-5" y="0"/>
</svg>
