<svg version="1.0" viewBox="0 0 900 450" xmlns="http://www.w3.org/2000/svg" xmlns:svg="http://www.w3.org/2000/svg">
<path d="M-342.0831,760.1759H-151.8741A7.5735,7.5735 0 0 1 -144.3006,767.7494V804.1024A7.5735,7.5735 0 0 1 -151.8741,811.6759H-342.0831A7.5735,7.5735 0 0 1 -349.6566,804.1024V767.7494A7.5735,7.5735 0 0 1 -342.0831,760.1759z" stroke="#000" stroke-linecap="round" stroke-linejoin="round" stroke-width="5.8088" transform="matrix(1,0,.87861,.47753,0,0)"/>
<path d="M47.763,82.9107H828.765A31.621,31.621 0 0 1 860.386,114.5317V362.8806A31.621,31.621 0 0 1 828.765,394.5016H47.763A31.621,31.621 0 0 1 16.142,362.8806V114.5317A31.621,31.621 0 0 1 47.763,82.9107z" fill="#fff" stroke="#000" stroke-linecap="round" stroke-width="7.4907"/>
<path d="M291.6736,78.8714L291.6736,392.7619" fill="none" stroke="#000" stroke-width="5.6784"/>
<path d="M583.3837,79.5961L583.3837,393.4866" fill="none" stroke="#000" stroke-width="5.6784"/>
<path d="M838.6004,413.7345C839.0397,414.2447 839.6359,414.3059 840.2706,414.3417C841.0736,414.3201 841.8778,414.1279 842.6281,413.8424C843.029,413.6899 843.2505,413.56 843.6246,413.3635C841.3859,414.6733 842.6322,413.9718 843.0507,413.5272C843.2676,413.2969 843.3971,413.0542 843.5194,412.7666C843.8371,411.8716 843.8782,410.9092 843.9324,409.9695C844.038,408.6016 843.7549,407.2586 843.45,405.9344C843.0791,404.5414 842.5754,403.1877 842.0206,401.8586C841.755,401.2307 841.4546,400.6186 841.162,400.0031C840.7676,399.2464 840.445,399.7163 842.6723,398.8523C842.7491,398.8225 842.7642,398.989 842.8134,399.055C842.8958,399.1656 842.9823,399.273 843.0668,399.3819C843.8885,400.5095 844.8766,401.4974 845.8669,402.4748C846.4495,403.0422 847.0742,403.5688 847.6313,404.1621C847.8428,404.3347 847.9692,404.5781 848.1393,404.785C848.3055,404.9352 848.4356,404.7771 848.5825,404.6744C846.0169,406.2128 846.9306,405.7156 847.4225,405.2438C847.6163,405.0581 847.7989,404.8596 847.9844,404.6657C848.2476,404.4031 848.4971,404.1219 848.7853,403.8853C849.5463,403.2609 850.6081,402.7619 851.395,402.3142C852.1221,401.9931 852.866,401.7137 853.6215,401.4675C853.7778,401.4336 854.3825,401.2011 854.5206,401.3582C854.5527,401.3948 854.5657,401.4445 854.5883,401.4876C854.5914,401.5317 854.6036,401.5761 854.5977,401.6199C854.5541,401.9395 854.0592,402.3114 853.8432,402.5103C852.8504,403.3311 851.8871,404.1848 850.9701,405.0895C850.1725,405.9452 849.3485,406.7899 848.7135,407.7769C848.3214,408.3934 848.113,409.0741 848.0151,409.7913C847.9503,410.4328 847.9609,411.0786 847.9619,411.7224C847.997,412.4223 848.0863,413.1236 848.2947,413.794C848.4141,414.1511 848.6265,414.4134 848.9664,414.5702C849.1919,414.6497 849.4501,414.702 849.6902,414.6567C849.746,414.6461 850.2118,414.4883 850.2491,414.4759C850.7982,414.1762 852.1246,413.4754 849.6423,414.8357C849.5441,414.8895 849.8314,414.7156 849.9244,414.6533C850.1382,414.5102 850.1896,414.4682 850.3901,414.3187C850.6307,414.1387 850.5167,414.2262 850.7325,414.057L852.4516,413.3656C852.2338,413.5488 852.3504,413.4574 852.1,413.6375C851.0862,414.4203 849.9631,415.0683 848.7991,415.5987C848.2885,415.7511 847.9114,415.824 847.414,415.5888C847.0478,415.3823 846.8085,415.0827 846.6798,414.6776C846.4756,413.9873 846.3986,413.2687 846.3316,412.5539C846.3277,411.9037 846.317,411.2517 846.3696,410.603C846.4624,409.8598 846.6583,409.1506 847.058,408.5075C847.1382,408.3742 847.211,408.2363 847.2985,408.1078C847.4782,407.8438 847.7465,407.5417 847.9514,407.3042C848.404,406.7794 848.8671,406.264 849.3452,405.7623C850.2371,404.8626 851.1771,404.0125 852.1518,403.2031C852.4279,402.9468 852.7136,402.6968 852.9519,402.4038C852.9915,402.4246 852.8641,402.4212 852.8198,402.4274C852.5988,402.4583 852.386,402.527 852.1732,402.5916C851.4261,402.8382 850.6866,403.1117 849.9773,403.4539C852.422,402.0082 850.9521,402.8291 850.4744,403.1967C850.1833,403.4206 849.9343,403.6972 849.6791,403.9589C848.7533,404.9355 848.7002,405.0389 847.134,405.8473C846.8773,405.9685 846.7339,405.9541 846.5331,405.7432C846.3746,405.5337 846.2477,405.3001 846.0521,405.1199C845.5186,404.5174 844.9239,403.9707 844.3588,403.3986C843.378,402.4003 842.3821,401.4137 841.5092,400.3168C841.4154,400.2114 841.3215,400.1061 841.2278,400.0006C841.1758,399.942 841.0125,399.8756 841.0719,399.8245C842.486,398.6105 842.406,398.2927 842.7713,399.0942C843.0469,399.7222 843.3375,400.344 843.5884,400.9827C844.1133,402.3356 844.5973,403.7059 844.9936,405.1024C845.3121,406.4326 845.6272,407.7839 845.5355,409.1624C845.4994,410.1109 845.4437,411.0767 845.1862,411.9942C845.1016,412.2289 845.0723,412.3487 844.9372,412.5634C844.3433,413.5069 843.0625,413.9525 842.2206,414.4881C841.1492,415.0147 840.0093,415.387 838.8034,415.3924C838.6358,415.379 838.4669,415.3766 838.3005,415.3521C837.8049,415.2792 837.343,415.0627 837.0001,414.6953L838.6004,413.7345z" stroke="#000" stroke-linecap="round" stroke-linejoin="round" stroke-width=".2515"/>
<path d="M853.965,411.5777C853.2256,411.7848 851.623,412.7741 854.4205,411.1733C854.0325,411.3798 853.8022,411.7158 853.6206,412.1035C853.517,412.414 853.4064,412.7545 853.4289,413.0879C853.4445,413.3186 853.5045,413.4345 853.5829,413.6499C853.8901,414.2567 854.3624,414.7558 854.9229,415.1338C855.3365,415.4218 855.8067,415.5529 856.3059,415.559C856.6911,415.4715 857.0489,415.3215 857.4016,415.1466C857.552,415.0721 857.9925,414.8288 857.8483,414.9146C856.1865,415.9038 856.6028,415.6368 857.1908,415.2341C857.675,414.8611 858.2013,414.4284 858.326,413.7942C858.3434,413.7056 858.3422,413.6143 858.3503,413.5244C858.3183,412.7311 857.817,412.1101 857.3334,411.5236C857.0285,411.1843 856.6833,410.8607 856.2664,410.6626C856.0549,410.562 855.9465,410.5441 855.7224,410.4847C855.2705,410.4601 854.7969,410.5031 854.3679,410.6588C854.1695,410.7308 853.8689,410.8981 853.6845,410.9956C856.1977,409.4878 854.551,410.4832 854.0326,410.9341L852.3221,411.6338C853.1181,410.8681 854.181,410.417 855.1063,409.857C855.3749,409.7264 855.5334,409.6361 855.8204,409.549C856.2772,409.4103 856.769,409.3779 857.2394,409.4472C857.4813,409.5244 857.5794,409.5439 857.8066,409.665C858.2297,409.8904 858.5785,410.2329 858.8906,410.5905C859.3994,411.2169 859.9159,411.8661 859.9934,412.6999C859.9897,412.8011 859.9959,412.9031 859.9822,413.0034C859.8894,413.6859 859.3818,414.171 858.8656,414.5742C857.8643,415.2929 858.3774,414.945 856.4419,416.0413C855.9376,416.327 855.386,416.5688 854.8068,416.6364C854.285,416.5903 853.7996,416.4365 853.3745,416.1199C852.7996,415.7006 852.3162,415.1712 851.9796,414.5405C851.901,414.3349 851.8118,414.1393 851.785,413.9176C851.7429,413.5704 851.8585,413.2055 851.9421,412.8746C852.1029,412.466 852.307,412.0788 852.6912,411.8389C853.5944,411.3191 854.4395,410.7226 855.4469,410.4445L853.965,411.5777z" stroke="#000" stroke-linecap="round" stroke-linejoin="round" stroke-width=".2515"/>
<path d="M861.7611,412.3322C861.4409,412.4346 861.1082,412.5224 860.8037,412.6683C860.7015,412.7173 860.6055,412.7784 860.5064,412.8335C860.9271,412.5979 861.3478,412.3623 861.7685,412.1267C861.2691,412.4637 860.8985,412.8005 860.6751,413.3653C860.5289,413.8305 860.599,414.2239 860.9674,414.5681C861.0563,414.6512 861.1609,414.7158 861.2576,414.7897C861.9619,415.1942 862.7954,415.3391 863.602,415.2535C863.8332,415.229 864.06,415.173 864.289,415.1327C864.819,414.9959 865.0499,414.9578 865.5476,414.7489C865.7127,414.6796 866.1826,414.4184 866.0289,414.5102C863.7907,415.8467 864.8038,415.2645 865.1553,414.9086C865.2332,414.8297 865.2951,414.7365 865.365,414.6504C865.6716,414.1708 865.6794,413.7443 865.4635,413.2334C865.4239,413.1436 865.1955,412.673 865.0344,412.7748C865.0066,412.7925 864.9924,412.8257 864.9714,412.8511C867.5136,411.4015 866.5457,411.6439 866.2992,412.3504C866.1928,412.6553 866.1742,412.9517 866.1596,413.2719C866.3362,414.7582 866.9928,416.1344 867.5322,417.5154C868.1881,419.3398 868.8203,421.233 868.8931,423.1898C868.9076,423.5792 868.8697,423.9689 868.858,424.3584C868.7998,424.7329 868.7672,425.1124 868.6835,425.482C868.4103,426.6879 867.7886,427.7917 866.8655,428.619C866.7028,428.7648 866.5186,428.8847 866.3451,429.0176C865.651,429.3802 864.9907,429.8167 864.2627,430.1055C863.9609,430.2252 863.2325,429.9755 862.9937,429.8691C862.1062,429.4734 861.3397,428.8235 860.5858,428.2284C859.3138,427.1396 858.0685,426.0039 856.9307,424.7731C856.3412,424.1356 856.1955,423.921 855.6834,423.2614C855.2477,422.5343 854.734,421.6914 855.1624,420.8343C855.4159,420.3272 855.722,420.1431 856.1466,419.7738C857.4194,418.9491 857.5236,418.8552 859.3662,417.9221C859.8159,417.6944 861.2661,417.1794 861.7099,417.0246C862.595,416.7158 863.5468,416.4098 864.4368,416.119C866.7749,415.4446 869.0649,414.6232 871.3283,413.7326C871.5204,413.6509 871.7128,413.5699 871.9046,413.4876C872.0512,413.4248 872.1989,413.3643 872.3436,413.2972C872.6394,413.1602 872.9157,412.9905 873.2209,412.8743C873.6347,412.8153 873.7798,413.3135 873.9037,413.6162C874.189,414.3867 874.3497,415.1947 874.4191,416.0115C874.4362,416.3775 874.4481,416.7452 874.3963,417.109C874.391,417.1462 874.4102,417.2041 874.3762,417.2199C873.8218,417.4781 873.2429,417.68 872.6762,417.9101C872.6777,417.7975 872.6715,417.6846 872.6807,417.5724C872.694,417.4091 872.7221,417.2473 872.7437,417.0849C872.8694,416.1371 873.034,415.2018 873.2269,414.2654C873.4224,413.4485 873.5912,412.5931 874.0581,411.8801C874.5867,411.3266 875.7623,410.2354 876.3348,410.8705C876.3948,410.937 876.4368,411.0177 876.4878,411.0913C876.5998,411.2894 876.6966,411.4399 876.7699,411.6594C876.976,412.2765 877.0685,412.9999 877.1776,413.6417C877.32,414.1972 877.2657,414.8625 877.4342,415.4072C877.6571,414.8084 877.432,415.4349 875.8311,416.1982C875.7986,416.2137 875.88,416.1448 875.8982,416.1137C875.9399,416.0426 876.0215,415.8337 876.0533,415.7695C876.0966,415.682 876.1461,415.5976 876.1926,415.5117C876.4937,415.0291 876.7485,414.5192 877.0803,414.0564C877.635,413.3614 878.1539,413.2097 879.1141,412.682C879.147,412.6639 879.1913,412.6745 879.2267,412.6873C879.2717,412.7035 879.3067,412.7398 879.3467,412.7661C879.7222,413.1611 879.8529,413.72 879.9797,414.2343C880.0899,414.7943 880.1489,415.3656 880.3537,415.9013C880.4036,415.9715 880.4443,416.0492 880.5033,416.1119C880.9332,416.5688 881.6441,416.9104 882.2303,417.0961C882.4509,417.166 882.6782,417.2128 882.9021,417.2711C883.8502,417.5077 884.8016,417.5194 885.7446,417.2602C885.9534,417.2028 886.163,417.1429 886.3607,417.0547C886.5449,416.9726 886.7098,416.8528 886.8844,416.7519C886.5212,416.9393 886.1848,417.1916 885.7949,417.314C885.6446,417.3612 886.0289,417.1023 886.1362,416.9869C886.4525,416.6467 886.6334,416.2686 886.7608,415.8286C886.8481,415.4623 886.8466,415.0859 886.8365,414.7121C886.7343,413.9405 886.0527,414.6999 888.4126,413.7415C888.4556,413.724 888.3874,413.8309 888.3802,413.8768C888.3697,413.9434 888.3664,414.011 888.3596,414.0781C888.3261,414.6861 888.3122,415.2953 888.3797,415.901C888.4485,416.2907 888.5231,416.6889 888.8285,416.9624C889.0434,417.1038 889.2714,417.1135 889.5088,417.0358C890.0801,416.7475 890.9375,416.2475 888.3399,417.7139C888.2478,417.7659 888.5182,417.5997 888.6057,417.5402L890.3347,416.8528C890.2009,416.9627 890.2252,416.9514 890.0715,417.0412C889.4874,417.3827 888.7641,417.9531 888.0249,418.1611C887.7364,418.1921 887.4674,418.1293 887.2418,417.9375C886.9278,417.6102 886.8254,417.1928 886.7554,416.7526C886.6811,416.1399 886.696,415.5244 886.704,414.9081C886.7065,414.8258 886.7137,414.5398 886.7195,414.5359C887.9426,413.7236 888.3381,412.9546 888.4933,413.8627C888.502,414.2556 888.5025,414.6507 888.4204,415.0373C888.0178,416.6412 886.9548,417.0067 885.4935,417.8718C885.3138,417.9624 885.1417,418.0699 884.9544,418.1436C883.829,418.5867 882.6026,418.5511 881.4449,418.2736C881.2136,418.2123 880.9788,418.1631 880.7511,418.0896C880.1687,417.9017 879.3498,417.4996 878.9202,417.0478C878.8495,416.9734 878.7985,416.8824 878.7377,416.7996C878.5335,416.2534 878.4747,415.6746 878.3696,415.1037C878.2637,414.6613 878.1586,414.1142 877.7931,413.8071C877.7068,413.8179 877.7513,413.8049 877.6622,413.8543C878.1562,413.561 878.6502,413.2678 879.1443,412.9745C879.186,412.9505 879.0678,413.0335 879.0327,413.0665C878.9447,413.1495 878.8734,413.2492 878.7784,413.3253C878.4238,413.7711 878.1681,414.2767 877.8719,414.7615C877.7606,414.9521 877.6686,415.1334 877.5977,415.3425C877.5833,415.385 877.5993,415.449 877.5608,415.4722C875.889,416.4777 876.2598,416.8845 875.7932,416.2985C875.6529,415.707 875.7248,415.079 875.5881,414.4847C875.4544,413.6528 875.3515,412.7618 874.8993,412.034C874.8207,411.9394 874.7869,411.8528 874.662,411.8297C874.6282,411.8235 874.5301,411.8579 874.5593,411.8397C875.044,411.5368 875.5474,411.2648 876.0374,410.9705C876.0814,410.944 875.9413,411.0084 875.8978,411.0357C875.8465,411.0679 875.8025,411.1104 875.7549,411.1478C875.2037,411.8051 875.0374,412.6925 874.8145,413.4976C874.5634,414.6585 874.3479,415.8358 874.3124,417.0255C873.7711,417.3573 873.2407,417.7077 872.6884,418.0209C872.658,418.0381 872.7186,417.9575 872.7284,417.9239C872.8295,417.576 872.8007,417.2078 872.8007,416.8509C872.754,416.0524 872.6047,415.2583 872.2997,414.5157C872.2415,414.3814 872.1345,413.992 871.931,413.9782C871.8837,413.975 871.7971,414.0124 871.7595,414.0259C871.1575,414.2939 870.5727,414.6016 869.947,414.8159C867.7038,415.6596 865.4413,416.4503 863.1408,417.1251C861.8054,417.5669 860.4607,417.9938 859.1528,418.5136C858.7763,418.6633 858.4317,418.9094 858.0346,418.9898C857.8307,419.0312 858.7358,418.5449 858.5488,418.636C858.276,418.7688 858.0332,418.956 857.7755,419.116C857.294,419.5025 856.7037,419.9024 856.5896,420.5686C856.4773,421.2243 856.8949,421.8306 857.1774,422.3743C857.3521,422.6129 857.5183,422.858 857.7014,423.0903C858.952,424.6763 860.4738,426.037 862.023,427.3216C862.7831,427.8891 863.5583,428.5237 864.4569,428.8678C864.6643,428.9473 864.8818,429.0074 865.1025,429.032C865.2908,429.053 865.772,428.8433 865.6701,429.003C865.4577,429.3355 865.0192,429.449 864.6938,429.672C864.8759,429.5448 865.0687,429.4317 865.2402,429.2906C866.193,428.5066 866.8608,427.4244 867.1581,426.2285C867.2484,425.8651 867.2837,425.4903 867.3465,425.1212C867.3646,424.737 867.4106,424.3531 867.4008,423.9687C867.3514,422.0276 866.6929,420.1544 866.0296,418.3541C865.4668,416.9622 864.782,415.5902 864.5369,414.0965C864.5287,413.743 864.5373,413.4739 864.6229,413.1318C864.6277,413.1127 864.7227,412.7722 864.7649,412.743C865.3077,412.3692 865.8858,412.0494 866.4463,411.7025C866.4889,411.706 866.5329,411.7015 866.5742,411.7128C866.839,411.7852 866.9659,412.1137 867.0765,412.3284C867.3122,412.8849 867.3446,413.3801 867.0447,413.9268C866.9767,414.0242 866.9179,414.1288 866.8406,414.219C866.2885,414.8642 865.1842,415.3171 864.6223,415.6298C864.0848,415.9288 863.4665,416.0567 862.8753,416.1951C862.6386,416.2306 862.4037,416.2822 862.1652,416.3016C861.3132,416.3712 860.4428,416.2182 859.7155,415.7609C859.611,415.6775 859.4985,415.6034 859.4022,415.5109C858.9949,415.1195 858.8677,414.6876 859.0025,414.1472C859.2057,413.5012 859.5242,413.1885 860.0673,412.7908C861.1152,412.1717 862.0626,411.4888 863.2431,411.199L861.7611,412.3322z" stroke="#000" stroke-linecap="round" stroke-linejoin="round" stroke-width=".2515"/>
<path d="M887.1719,406.6825C886.9477,406.9457 886.7684,407.2468 886.6832,407.5832C886.6221,407.9196 886.8228,408.0058 887.0986,408.1265C887.5448,408.2899 887.9263,408.272 888.3833,408.1912C888.9945,407.9817 889.965,407.3846 887.2485,408.8832C887.2103,408.9043 887.3208,408.8342 887.353,408.8048C887.4297,408.735 887.4374,408.706 887.4875,408.6185C887.5798,408.4115 887.5708,408.2177 887.4519,408.027C887.2938,407.8772 887.0562,407.8913 886.8522,407.8813C886.6415,407.9008 886.4408,407.9531 886.2696,408.0794L887.7244,406.9078C887.9316,406.8294 888.1435,406.7798 888.3673,406.7976C888.6336,406.8239 888.8955,406.8617 889.0682,407.0892C889.2088,407.3259 889.2644,407.5704 889.1831,407.8405C888.8884,408.7297 887.769,409.0892 886.903,409.3009C886.4415,409.3589 885.9853,409.3336 885.5515,409.1482C885.2396,408.9873 884.96,408.7859 885.0072,408.3955C885.0648,408.0331 885.2416,407.7085 885.4539,407.4124L887.1719,406.6825z" stroke="#000" stroke-linecap="round" stroke-linejoin="round" stroke-width=".2515"/>
<path d="M863.3273,411.2142C863.681,411.0423 864.0186,410.8391 864.3835,410.6908C864.6121,410.5423 864.8629,410.4737 865.1304,410.4445C865.3764,410.4258 865.6234,410.4289 865.87,410.4298C866.1147,410.4038 866.322,410.4707 866.5369,410.5756C866.6874,410.6962 866.8062,410.8564 866.9205,411.0113C867.0199,411.1919 867.0783,411.3944 867.1394,411.5911C867.1942,411.7927 867.2689,411.9852 867.3084,412.1912C867.3464,412.433 867.349,412.6783 867.352,412.9225C867.3531,413.0484 867.3529,413.1742 867.3528,413.3001L865.6908,414.1468C865.691,414.0215 865.6912,413.8963 865.6907,413.771C865.6889,413.5366 865.6885,413.3014 865.6591,413.0685C865.6263,412.8678 865.5528,412.6832 865.4994,412.4884C865.4475,412.3114 865.3916,412.1312 865.3112,411.9662C865.2134,411.838 865.1182,411.6915 864.9776,411.6085C864.7802,411.5227 864.5743,411.5171 864.3609,411.5263C864.1195,411.5274 863.8766,411.5262 863.6378,411.5652C863.3851,411.6186 863.1575,411.7273 862.9275,411.8427C862.5697,412.0092 862.2235,412.2 861.8766,412.3879L863.3273,411.2142z" stroke="#000" stroke-linecap="round" stroke-linejoin="round" stroke-width=".2515"/>
<path d="M57.6902,47.6044H244.5684A15.9099,15.9099 0 0 1 260.4783,63.5143V63.5143A15.9099,15.9099 0 0 1 244.5684,79.4242H57.6902A15.9099,15.9099 0 0 1 41.7803,63.5143V63.5143A15.9099,15.9099 0 0 1 57.6902,47.6044z" fill="#fff" stroke="#000" stroke-linecap="round" stroke-linejoin="round" stroke-width="4"/>
<path d="M101.5203,44.9288A36.8706,34.8503 0 1 1 27.7792,44.9288A36.8706,34.8503 0 1 1 101.5203,44.9288z" stroke="#000" stroke-linecap="round" stroke-linejoin="round" stroke-width="7.491" transform="matrix(.7121,0,0,.7121,-3.50602,25.22724)"/>
<text font-family="Bitstream Vera Sans" font-size="40" x="18.1432" y="71.2618">
   <tspan fill="#f9f9f9" x="18.1432" y="71.2618">43</tspan>
  </text>
<text font-family="Bitstream Vera Sans" font-size="20" x="723.3035" y="143.2813">
   <tspan text-align="center" text-anchor="middle" x="723.3035" y="143.2813"></tspan>
  </text>
<text font-family="Bitstream Vera Sans" font-size="20" x="120.1964" y="70.2813">
   <tspan x="120.1964" y="70.2813">Esther</tspan>
  </text>
<text font-family="Bitstream Vera Sans" font-size="20" x="492.1429" y="326.4286">
   <tspan x="492.1429" y="326.4286"></tspan>
  </text>
<path d="m100.7879,340.0378 86.9491,9.013-64.9467,25.9787-72.6343,-1.5905 50.632,-33.4012z" stroke="#000" stroke-linecap="round" stroke-linejoin="round" stroke-width="2.2267"/>
<path d="M56.0017,351.4111H106.3203A6.3024,6.3024 0 0 1 112.6228,357.7135V366.1354A6.3024,6.3024 0 0 1 106.3203,372.4379H56.0017A6.3024,6.3024 0 0 1 49.6992,366.1354V357.7135A6.3024,6.3024 0 0 1 56.0017,351.4111z" fill="#fff" stroke="#000" stroke-linecap="round" stroke-linejoin="round" stroke-width="2.2872" transform="matrix(.94787,-.31866,0,1,0,0)"/>
<path d="M59.6374,352.8347H109.956A6.3024,6.3024 0 0 1 116.2585,359.1372V367.5591A6.3024,6.3024 0 0 1 109.956,373.8615H59.6374A6.3024,6.3024 0 0 1 53.3349,367.5591V359.1372A6.3024,6.3024 0 0 1 59.6374,352.8347z" fill="#fff" stroke="#000" stroke-linecap="round" stroke-linejoin="round" stroke-width="2.2872" transform="matrix(.94787,-.31866,0,1,0,0)"/>
<path d="m110.9369,335.363 65.7962,0c4.3214,0-4.4821,4.686-19.7389,10.5067-15.2569,5.8208-31.0185,10.5068-35.34,10.5068l-65.7962,0c-4.3215,0 4.8797,-7.3369 20.1365,-13.1576 11.553,-4.0744 22.7128,-6.3413 34.9423,-7.8559z" fill="#fff" stroke="#000" stroke-linecap="round" stroke-linejoin="round" stroke-width="1.36"/>
<path d="M117.2483,258.9206H157.757A18.9788,18.9788 0 0 1 176.7358,277.8994V323.4448A18.9788,18.9788 0 0 1 157.757,342.4236H117.2483A18.9788,18.9788 0 0 1 98.2696,323.4448V277.8994A18.9788,18.9788 0 0 1 117.2483,258.9206z" fill="#fff" stroke="#000" stroke-linecap="round" stroke-linejoin="round" stroke-width="2.2267"/>
<path d="M109.9584,260.2461H150.4671A18.9788,18.9788 0 0 1 169.4459,279.2248V324.7702A18.9788,18.9788 0 0 1 150.4671,343.749H109.9584A18.9788,18.9788 0 0 1 90.9796,324.7702V279.2248A18.9788,18.9788 0 0 1 109.9584,260.2461z" fill="#fff" stroke="#000" stroke-linecap="round" stroke-linejoin="round" stroke-width="2.2267"/>
<path d="m154.2857,169.6429a61.4286,8.2143 0 1 1 -122.8571,0 61.4286,8.2143 0 1 1 122.8571,0z" stroke="#000" transform="matrix(.60213,0,0,.60213,51.42318,242.66794)"/>
<path d="m99.2585,275.7318 19.4482,0c3.161,16.9994 18.1122,12.8621 19.9523,19.9523l-3.3453,30.9869c-6.5967,11.6033-15.0373,18.9686-23.2977,18.7359l-5.1544,0c-8.355,-.4499-21.1432,-10.4744-23.2977,-21.1689l-4.2577,-28.5539c1.2995,-4.9275 12.9618,-.7979 19.9523,-19.9523z" fill="#fff" stroke="#000" stroke-linecap="round" stroke-linejoin="round" stroke-width="2.193"/>
<path d="m87.6123,303.0319c.9088,-.2646 1.8105,-.5151 2.7458,-.6612 .9524,-.2002 1.9124,-.3297 2.8759,-.4616 .7571,-.1334 1.5045,-.2771 2.2671,-.3705 1.1111,-.1618 2.243,-.2316 3.3659,-.257 .5641,-.042 1.121,-.024 1.6838,.014l-2.9052,3.4486c-.5433,-.037-1.0849,-.033-1.629,-.011-1.1185,.043-2.2413,.1056-3.3449,.3018-.7571,.1049-1.5023,.2777-2.2621,.3656-.9609,.1229-1.9121,.2903-2.8637,.4712-.9256,.1664-1.8237,.4395-2.7228,.7124l2.7892,-3.552z" stroke="#000" stroke-linecap="round" stroke-linejoin="round" stroke-width="1.2043"/>
<path d="m116.7601,305.2818c-.9065,-.2723-1.806,-.5306-2.74,-.6846-.9507,-.2085-1.9095,-.3462-2.8719,-.4862-.7559,-.14-1.5021,-.2901-2.2639,-.39-1.1097,-.1713-2.2409,-.2509-3.3636,-.2858-.5637,-.047-1.1207,-.034-1.6839,-5e-4l2.8756,3.4733c.5436,-.032 1.0851,-.023 1.6291,0 1.1181,.052 2.2403,.1248 3.3422,.3305 .7561,.1113 1.4998,.2905 2.2589,.385 .9598,.1311 1.9095,.3065 2.8595,.4956 .9241,.1742 1.8199,.455 2.7166,.7356l-2.7587,-3.5756z" stroke="#000" stroke-linecap="round" stroke-linejoin="round" stroke-width="1.2043"/>
<path d="m538.4195,257.9523c0,3.0469-2.4032,5.5169-5.3678,5.5169-2.9646,0-5.3678,-2.47-5.3678,-5.5169 0,-3.0469 2.4032,-5.5169 5.3678,-5.5169 2.9646,0 5.3678,2.47 5.3678,5.5169z" fill="#fff" stroke="#000" stroke-linecap="round" stroke-linejoin="round" stroke-width="2" transform="matrix(.60213,0,0,.60213,-211.02523,157.10211)"/>
<path d="m555.2684,260.4871c0,.9058-.4005,1.6402-.8946,1.6402-.4941,0-.8946,-.7343-.8946,-1.6402 0,-.9058 .4005,-1.6402 .8946,-1.6402 .4941,0 .8946,.7343 .8946,1.6402z" fill="#fff" stroke="#000" stroke-linecap="round" stroke-linejoin="round" stroke-width="2" transform="matrix(.60213,0,0,.60213,-225.26958,155.55406)"/>
<g transform="matrix(.60213,0,0,.60213,-224.88867,156.65322)">
<path d="m538.4195,257.9523c0,3.0469-2.4032,5.5169-5.3678,5.5169-2.9646,0-5.3678,-2.47-5.3678,-5.5169 0,-3.0469 2.4032,-5.5169 5.3678,-5.5169 2.9646,0 5.3678,2.47 5.3678,5.5169z" fill="#fff" stroke="#000" stroke-linecap="round" stroke-linejoin="round" stroke-width="2"/>
<path d="m555.2684,260.4871c0,.9058-.4005,1.6402-.8946,1.6402-.4941,0-.8946,-.7343-.8946,-1.6402 0,-.9058 .4005,-1.6402 .8946,-1.6402 .4941,0 .8946,.7343 .8946,1.6402z" fill="#fff" stroke="#000" stroke-linecap="round" stroke-linejoin="round" stroke-width="2" transform="translate(-23.6822,-2.4475)"/>
</g>
<path d="m101.2551,281.4775-4.2239,1.4784c-2.9914,4.0832-5.3086,8.4381-15.4171,11.1932-.5429,11.1219-4.3117,11.8958-7.6029,12.8827-3.2507,-1.3481-3.6104,-6.4597-5.0686,-10.1372-6.1056,-9.1909-4.974,-16.6021 1.056,-22.8088-.5292,-.8243-.1774,.1066-.3093,-1.7108 .3841,-.068 2.5108,-1.5299 4.8574,-3.1679 1.3151,.4635 1.0331,-.1433 1.3653,1.4996-.2515,-1.6071 .5576,-2.79 1.2671,-4.0127 .9238,-.963 2.7847,-2.0821 4.8937,-3.2426-.4911,-1.4515 .6019,-2.6767 1.4421,-3.938 3.2911,-2.4311 6.4089,-3.119 9.5037,-3.3791 4.9813,-2.2436 9.1643,-3.0882 10.982,.2112 1.743,-.2323 2.9028,-1.1938 6.1246,.4224 6.9386,-1.8283 7.9574,3.284 9.2925,8.0253 1.3221,.8774 2.8372,.7167 3.9636,.224 5.3016,-2.1773 6.9684,2.5277 10.8199,6.7454 7.1017,-4.0128 6.2405,6.8142 9.2925,10.3484 5.3991,-3.8672 7.4249,25.0561-1.777,25.3175-.456,3.1441-1.3329,4.1837-2.1738,5.4035-2.9633,2.0584-3.252,1.586-4.819,2.3232-.9133,-.2109 1.4742,-6.0372 1.5893,-8.5458-2.1817,-4.1537-2.2864,-8.9997-2.1119,-13.9388l-2.1119,-1.2672c-5.765,3.9024-8.0662,-3.2902-12.038,-5.0686-1.7295,.9023-3.3265,.2137-4.8574,-1.2672-10.3021,4.1824-12.2258,.0346-13.9388,-3.5903z" stroke="#000" stroke-width="0"/>
<path d="m103.7252,334.5362c3.737,-1.1726 7.9354,-3.4933 10.5072,-1.7661" fill="none" stroke="#000"/>
<path d="M129.2748,374.7606H179.5935A6.3024,6.3024 0 0 1 185.8959,381.063V389.4849A6.3024,6.3024 0 0 1 179.5935,395.7873H129.2748A6.3024,6.3024 0 0 1 122.9724,389.4849V381.063A6.3024,6.3024 0 0 1 129.2748,374.7606z" fill="#fff" stroke="#000" stroke-linecap="round" stroke-linejoin="round" stroke-width="2.2872" transform="matrix(.94787,-.31866,0,1,0,0)"/>
<path d="M133.33,375.7563H183.6487A6.3024,6.3024 0 0 1 189.9511,382.0588V390.4806A6.3024,6.3024 0 0 1 183.6487,396.7831H133.33A6.3024,6.3024 0 0 1 127.0276,390.4806V382.0588A6.3024,6.3024 0 0 1 133.33,375.7563z" fill="#fff" stroke="#000" stroke-linecap="round" stroke-linejoin="round" stroke-width="2.2872" transform="matrix(.94787,-.31866,0,1,0,0)"/>
<path d="M60.0968,355.9431H117.621A7.555,7.555 0 0 1 125.1761,363.4982V363.4982A7.555,7.555 0 0 1 117.621,371.0532H60.0968A7.555,7.555 0 0 1 52.5417,363.4982V363.4982A7.555,7.555 0 0 1 60.0968,355.9431z" fill="#fff" stroke="#000" stroke-linecap="round" stroke-linejoin="round" stroke-width="2.2267"/>
<path d="M132.7847,403.0251H189.2324A6.8461,6.8461 0 0 1 196.0784,409.8712V409.8712A6.8461,6.8461 0 0 1 189.2324,416.7172H132.7847A6.8461,6.8461 0 0 1 125.9386,409.8712V409.8712A6.8461,6.8461 0 0 1 132.7847,403.0251z" fill="#fff" stroke="#000" stroke-linecap="round" stroke-linejoin="round" stroke-width="2.083" transform="matrix(.93839,-.34558,0,1,0,0)"/>
<path d="m182.4139,339.6001 86.9491,9.013-64.9468,25.9787-72.6343,-1.5905 50.632,-33.4012z" stroke="#000" stroke-linecap="round" stroke-linejoin="round" stroke-width="2.2267"/>
<path d="M142.117,378.4153H192.4357A6.3024,6.3024 0 0 1 198.7382,384.7178V393.1396A6.3024,6.3024 0 0 1 192.4357,399.4421H142.117A6.3024,6.3024 0 0 1 135.8146,393.1396V384.7178A6.3024,6.3024 0 0 1 142.117,378.4153z" fill="#fff" stroke="#000" stroke-linecap="round" stroke-linejoin="round" stroke-width="2.2872" transform="matrix(.94787,-.31866,0,1,0,0)"/>
<path d="M145.7527,379.8389H196.0714A6.3024,6.3024 0 0 1 202.3739,386.1414V394.5632A6.3024,6.3024 0 0 1 196.0714,400.8657H145.7527A6.3024,6.3024 0 0 1 139.4503,394.5632V386.1414A6.3024,6.3024 0 0 1 145.7527,379.8389z" fill="#fff" stroke="#000" stroke-linecap="round" stroke-linejoin="round" stroke-width="2.2872" transform="matrix(.94787,-.31866,0,1,0,0)"/>
<path d="m192.5629,334.9254 65.7962,0c4.3215,0-4.4821,4.686-19.7389,10.5068-15.2569,5.8207-31.0185,10.5068-35.34,10.5068l-65.7962,0c-4.3215,0 4.8797,-7.3369 20.1365,-13.1576 11.553,-4.0744 22.7128,-6.3413 34.9423,-7.8559z" fill="#fff" stroke="#000" stroke-linecap="round" stroke-linejoin="round" stroke-width="1.36"/>
<path d="M198.8743,258.483H239.383A18.9788,18.9788 0 0 1 258.3618,277.4618V323.0072A18.9788,18.9788 0 0 1 239.383,341.9859H198.8743A18.9788,18.9788 0 0 1 179.8955,323.0072V277.4618A18.9788,18.9788 0 0 1 198.8743,258.483z" fill="#fff" stroke="#000" stroke-linecap="round" stroke-linejoin="round" stroke-width="2.2267"/>
<path d="m446.8915,78.4154a61.5183,5.3033 0 1 1 -123.0366,0 61.5183,5.3033 0 1 1 123.0366,0z" stroke="#000" stroke-linecap="round" stroke-width="4.862" transform="matrix(-.74225,0,0,.74225,484.16842,289.58725)"/>
<path d="M191.5844,259.8084H232.0931A18.9788,18.9788 0 0 1 251.0719,278.7872V324.3326A18.9788,18.9788 0 0 1 232.0931,343.3114H191.5844A18.9788,18.9788 0 0 1 172.6056,324.3326V278.7872A18.9788,18.9788 0 0 1 191.5844,259.8084z" fill="#fff" stroke="#000" stroke-linecap="round" stroke-linejoin="round" stroke-width="2.2267"/>
<g transform="matrix(-.73858,0,0,.73858,121.40817,68.64803)">
<path d="m-43.5297,288.8057 0,47.8884c0,20.007-16.1067,36.1137-36.1137,36.1137l-35.434,0c-20.007,0-36.1137,-16.1067-36.1137,-36.1137l0,-47.8884" fill="#fff" stroke="#000" stroke-linecap="round" stroke-linejoin="round" stroke-width="3.6422"/>
<path d="M-122.1431,308.6171H-98.6091A.7803,.7803 0 0 1 -97.8288,309.3974V319.4235A.7803,.7803 0 0 1 -98.6091,320.2038H-122.1431A.7803,.7803 0 0 1 -122.9234,319.4235V309.3974A.7803,.7803 0 0 1 -122.1431,308.6171z" stroke="#000" stroke-linecap="square" stroke-linejoin="round" stroke-width="3.7338"/>
<path d="M-80.7522,308.6171H-60.3393A2.3409,2.3409 0 0 1 -57.9985,310.958V317.8629A2.3409,2.3409 0 0 1 -60.3393,320.2038H-80.7522A2.3409,2.3409 0 0 1 -83.093,317.8629V310.958A2.3409,2.3409 0 0 1 -80.7522,308.6171z" stroke="#000" stroke-linecap="square" stroke-linejoin="round" stroke-width="3.7338"/>
<path d="m-148.8829,313.6717c.5492,.0105 1.0986,.007 1.6478,.004 .363,-.002 .7259,-.004 1.0889,-.004 .2925,-4.3e-4 .585,-4e-4 .8775,-4e-4 .304,-6.3e-4 .6081,6e-4 .9121,10e-4 .3906,-.01 .7752,-3.7e-4 1.162,.0507 .3996,.0545 .8031,.0717 1.2062,.0827 .4052,-.0158 .8029,.0589 1.204,.099 .4079,.0368 .818,.0407 1.2274,.045 .4301,.002 .8603,.002 1.2904,6.5e-4 .3736,-7.6e-4 .7472,-10e-4 1.1208,-.002 .307,-7.7e-4 .6141,-9.8e-4 .9211,-10e-4 .2915,-8e-5 .583,-7e-5 .8745,-6e-5 .2915,1e-5 .5831,1e-5 .8746,1e-5 .3187,-3.9e-4 .6374,5.3e-4 .9561,.002 .3943,.002 .7885,4.4e-4 1.1828,-6.3e-4 .3709,-2.7e-4 .7418,4.7e-4 1.1126,10e-4 .3967,-1.7e-4 .7934,-8e-5 1.1902,-10e-4 .38,1.9e-4 .7599,7.4e-4 1.1399,1.6e-4 .3456,-.001 .6912,-.002 1.0367,2.5e-4 .5332,.003 1.0664,.004 1.5996,.006 .7266,.003 1.4533,.003 2.1799,.001 .5332,-.001 1.0664,-.005 1.5997,-.005 .4413,6.5e-4 .8826,-2e-5 1.3239,-.002 .0611,-2e-4 .1222,-4e-4 .1833,-6e-4l-1.746,1.1993c-.0605,-2.1e-4-.121,-4.1e-4-.1815,-6.1e-4-.4399,-.002-.8797,-.002-1.3196,-.002-.528,-2.2e-4-1.0559,-.004-1.5839,-.005-.7276,-.002-1.4552,-.002-2.1828,9.9e-4-.5391,.002-1.0782,.003-1.6173,.006-.3458,.002-.6916,.002-1.0375,2.6e-4-.3801,-5.7e-4-.7602,-3e-5-1.1404,1.5e-4-.3957,-9.9e-4-.7914,-8.9e-4-1.187,-.001-.3723,.001-.7447,.002-1.117,.002-.3937,-10e-4-.7873,-.003-1.181,-6.3e-4-.3206,.001-.6411,.002-.9617,.002-.2915,0-.5831,0-.8747,0-.2914,0-.5829,2e-5-.8743,-6e-5-.306,-1.3e-4-.612,-3.5e-4-.918,-9.6e-4-.372,-6.9e-4-.744,-8.4e-4-1.1161,-8.8e-4-.4302,-8.3e-4-.8603,7e-4-1.2904,-.004-.4148,-.006-.8303,-.0145-1.2428,-.0595-.3968,-.0446-.792,-.0972-1.193,-.0869-.4078,-.0152-.8149,-.0435-1.2193,-.0968-.382,-.0404-.7654,-.0292-1.1493,-.0278-.3051,5.6e-4-.6103,.002-.9155,.001-.2921,10e-6-.5842,3e-5-.8763,-4e-4-.3589,-6.7e-4-.7177,-.002-1.0765,-.004-.5532,-.003-1.1065,-.006-1.6597,.004l1.7494,-1.2016z" stroke="#000" stroke-linecap="square" stroke-linejoin="round" stroke-width=".4767"/>
<path d="m-57.3881,313.9484c.7039,.0118 1.4079,.0102 2.1119,.01 .6452,-8.9e-4 1.2905,-.003 1.9357,-.006 .4312,-.002 .8624,-.002 1.2935,-.003 .3398,-8.1e-4 .6796,-.002 1.0194,-.002 .2968,.0217 .5821,-.0575 .8738,-.0956 .2926,-.0341 .5877,-.039 .8821,-.0425 .2922,-.002 .5843,-10e-4 .8765,-8.4e-4 .2918,4e-4 .5836,5.3e-4 .8754,6.1e-4 .2918,5e-5 .5836,5e-5 .8754,5e-5 .2918,0 .5836,0 .8754,0 .3133,-6.1e-4 .6266,10e-4 .9398,10e-4 .3172,-2.5e-4 .6345,-6.9e-4 .9517,-9.3e-4 .2938,-1.8e-4 .5877,-2e-4 .8815,-2.1e-4 .1943,-1e-5 .0972,-1e-5 .2915,-1e-5l-1.7509,1.2027c-.1943,0-.0971,0-.2914,0-.2936,-2e-5-.5872,-4e-5-.8808,-2.2e-4-.3164,-2.3e-4-.6327,-6.8e-4-.9491,-9.3e-4-.3144,4e-5-.6287,.002-.9431,10e-4-.2918,1e-5-.5836,1e-5-.8754,1e-5-.2918,-1e-5-.5836,-1e-5-.8754,-1.2e-4-.2918,-1.3e-4-.5837,-3.7e-4-.8755,-7.2e-4-.2913,-2.3e-4-.5826,-10e-4-.8738,.004-.2893,.007-.5791,.0195-.8653,.0636-.2961,.0453-.5905,.0907-.8921,.0705-.3377,-4.3e-4-.6755,-10e-4-1.0132,-.002-.4283,-5.4e-4-.8565,-6.3e-4-1.2848,-.003-.6398,-.003-1.2796,-.005-1.9195,-.006-.7134,-4.8e-4-1.4269,-.002-2.1402,.01l1.747,-1.2z" stroke="#000" stroke-linecap="square" stroke-linejoin="round" stroke-width=".4767"/>
<path d="m-97.681,314.1116c.5339,.0676 1.0726,.0889 1.6105,.1048 .4801,.0116 .9604,.0116 1.4405,.0103 .3964,-5e-4 .7929,-6.3e-4 1.1893,-.002 .7958,.0205 1.592,.0104 2.3879,.007 .4809,-.004 .9619,-.005 1.4428,-.007 .3835,3e-5 .767,-4.2e-4 1.1506,6e-4 .4032,.001 .8064,-9.5e-4 1.2096,-3.1e-4 .3638,-8.6e-4 .7277,-7.6e-4 1.0915,-6.6e-4 .3644,5.6e-4 .7288,2.2e-4 1.0931,-5.1e-4 .3481,.001 .6961,1.1e-4 1.0442,-4.5e-4 .3406,.001 .6811,4.5e-4 1.0217,-4e-5 .3008,-4.3e-4 .6016,-5.6e-4 .9024,-6.3e-4 .2516,.0585 .5047,.1006 .7628,.1209 .2799,.0172 .5606,.0173 .8409,.018 .2917,1.9e-4 .5833,-3.9e-4 .875,-6.8e-4 .146,-1.4e-4 .292,-2e-4 .4381,-2.6e-4l-1.7508,1.2027c-.146,10e-5-.292,1.9e-4-.438,3.5e-4-.292,3.2e-4-.584,.001-.876,-3.9e-4-.2852,-.002-.5709,-.005-.8549,-.0331-.2506,-.0294-.496,-.0897-.7478,-.105-.3002,-8e-5-.6004,-2e-4-.9006,-6.3e-4-.3405,-4.8e-4-.681,-.001-1.0215,-5e-5-.3476,-5.5e-4-.6953,-.002-1.0429,-4.4e-4-.3639,-7.3e-4-.7278,-10e-4-1.0916,-5.1e-4-.3632,1.1e-4-.7264,1.9e-4-1.0895,-6.6e-4-.4029,6.4e-4-.8058,-.002-1.2087,-3.1e-4-.3841,.001-.7682,5.8e-4-1.1523,6e-4-.4742,-.002-.9483,-.003-1.4224,-.007-.8027,-.004-1.6058,-.0132-2.4083,.007-.3958,-4.3e-4-.7915,4.6e-4-1.1873,-3.6e-4-.4785,-.003-.957,-.007-1.4353,-.0226-.5477,-.0212-1.0947,-.0538-1.64,-.107l1.7673,-1.1825z" stroke="#000" stroke-linecap="square" stroke-linejoin="round" stroke-width=".4767"/>
<path d="m-136.1855,276.2983 0,18.5432" fill="none" stroke="#000" stroke-linecap="round" stroke-width="4.8046"/>
<path d="m-126.6615,274.544 0,18.5432" fill="none" stroke="#000" stroke-linecap="round" stroke-width="4.8046"/>
<path d="m-117.7245,276.0083 0,18.5432" fill="none" stroke="#000" stroke-linecap="round" stroke-width="4.8046"/>
<path d="m-106.0478,274.841 0,18.5432" fill="none" stroke="#000" stroke-linecap="round" stroke-width="4.8046"/>
<path d="m-95.8892,277.0276 0,18.5432" fill="none" stroke="#000" stroke-linecap="round" stroke-width="4.8046"/>
<path d="m-84.2599,276.8522 0,18.5432" fill="none" stroke="#000" stroke-linecap="round" stroke-width="4.8046"/>
<path d="m-73.7574,275.1381 0,18.5432" fill="none" stroke="#000" stroke-linecap="round" stroke-width="4.8046"/>
<path d="m-63.8419,278.175 0,18.5432" fill="none" stroke="#000" stroke-linecap="round" stroke-width="4.8046"/>
<path d="m-53.169,277.8063 0,18.5432" fill="none" stroke="#000" stroke-linecap="round" stroke-width="4.8046"/>
<path d="m-105.8017,352.8807 27.1229,-4.4282" fill="none" stroke="#000" stroke-width=".7749"/>
<path d="m-144.0697,281.0285 0,18.5432" fill="none" stroke="#000" stroke-linecap="round" stroke-width="4.8046"/>
</g>
<path d="M215.3902,401.7648H265.7089A6.3024,6.3024 0 0 1 272.0113,408.0672V416.4891A6.3024,6.3024 0 0 1 265.7089,422.7916H215.3902A6.3024,6.3024 0 0 1 209.0877,416.4891V408.0672A6.3024,6.3024 0 0 1 215.3902,401.7648z" fill="#fff" stroke="#000" stroke-linecap="round" stroke-linejoin="round" stroke-width="2.2872" transform="matrix(.94787,-.31866,0,1,0,0)"/>
<path d="M219.4454,402.7605H269.7641A6.3024,6.3024 0 0 1 276.0665,409.063V417.4848A6.3024,6.3024 0 0 1 269.7641,423.7873H219.4454A6.3024,6.3024 0 0 1 213.1429,417.4848V409.063A6.3024,6.3024 0 0 1 219.4454,402.7605z" fill="#fff" stroke="#000" stroke-linecap="round" stroke-linejoin="round" stroke-width="2.2872" transform="matrix(.94787,-.31866,0,1,0,0)"/>
<path d="M141.7228,355.5055H199.247A7.555,7.555 0 0 1 206.8021,363.0605V363.0605A7.555,7.555 0 0 1 199.247,370.6155H141.7228A7.555,7.555 0 0 1 134.1677,363.0605V363.0605A7.555,7.555 0 0 1 141.7228,355.5055z" fill="#fff" stroke="#000" stroke-linecap="round" stroke-linejoin="round" stroke-width="2.2267"/>
<path d="M219.77,432.648H276.2177A6.8461,6.8461 0 0 1 283.0637,439.4941V439.4941A6.8461,6.8461 0 0 1 276.2177,446.3402H219.77A6.8461,6.8461 0 0 1 212.9239,439.4941V439.4941A6.8461,6.8461 0 0 1 219.77,432.648z" fill="#fff" stroke="#000" stroke-linecap="round" stroke-linejoin="round" stroke-width="2.083" transform="matrix(.93839,-.34558,0,1,0,0)"/>
<path d="M382.5522,341.9493L469.5014,350.9623L404.5546,376.941L331.9203,375.3505L382.5522,341.9493z" stroke="#000" stroke-linecap="round" stroke-linejoin="round" stroke-width="2.2267"/>
<path d="M353.2629,448.0489H403.5815A6.3024,6.3024 0 0 1 409.884,454.3513V462.7732A6.3024,6.3024 0 0 1 403.5815,469.0757H353.2629A6.3024,6.3024 0 0 1 346.9604,462.7732V454.3513A6.3024,6.3024 0 0 1 353.2629,448.0489z" fill="#fff" stroke="#000" stroke-linecap="round" stroke-linejoin="round" stroke-width="2.2872" transform="matrix(.94787,-.31866,0,1,0,0)"/>
<path d="M356.8985,449.4725H407.2172A6.3024,6.3024 0 0 1 413.5197,455.775V464.1968A6.3024,6.3024 0 0 1 407.2172,470.4993H356.8985A6.3024,6.3024 0 0 1 350.5961,464.1968V455.775A6.3024,6.3024 0 0 1 356.8985,449.4725z" fill="#fff" stroke="#000" stroke-linecap="round" stroke-linejoin="round" stroke-width="2.2872" transform="matrix(.94787,-.31866,0,1,0,0)"/>
<path d="M392.7013,337.2746L458.4975,337.2746C462.8189,337.2746 454.0154,341.9606 438.7586,347.7813C423.5017,353.6021 407.7401,358.2881 403.4186,358.2881L337.6224,358.2881C333.3009,358.2881 342.5021,350.9512 357.7589,345.1304C369.3119,341.056 380.4717,338.7891 392.7013,337.2746z" fill="#fff" stroke="#000" stroke-linecap="round" stroke-linejoin="round" stroke-width="1.36"/>
<path d="M399.0127,260.8321H439.5214A18.9788,18.9788 0 0 1 458.5002,279.8109V325.3563A18.9788,18.9788 0 0 1 439.5214,344.3351H399.0127A18.9788,18.9788 0 0 1 380.0339,325.3563V279.8109A18.9788,18.9788 0 0 1 399.0127,260.8321z" fill="#fff" stroke="#000" stroke-linecap="round" stroke-linejoin="round" stroke-width="2.2267"/>
<path d="M391.7227,262.1576H432.2314A18.9788,18.9788 0 0 1 451.2102,281.1363V326.6817A18.9788,18.9788 0 0 1 432.2314,345.6605H391.7227A18.9788,18.9788 0 0 1 372.7439,326.6817V281.1363A18.9788,18.9788 0 0 1 391.7227,262.1576z" fill="#fff" stroke="#000" stroke-linecap="round" stroke-linejoin="round" stroke-width="2.2267"/>
<path d="m154.2857,169.6429a61.4286,8.2143 0 1 1 -122.8571,0 61.4286,8.2143 0 1 1 122.8571,0z" stroke="#000" transform="matrix(.60213,0,0,.60213,332.8398,246.89342)"/>
<path d="m380.6752,279.9573 19.4482,0c3.161,16.9994 18.1122,12.8621 19.9523,19.9523l-3.3453,30.9869c-6.5967,11.6033-15.0373,18.9686-23.2977,18.7359l-5.1544,0c-8.355,-.4499-21.1432,-10.4744-23.2977,-21.1689l-4.2577,-28.5539c1.2995,-4.9275 12.9618,-.7979 19.9523,-19.9523z" fill="#fff" stroke="#000" stroke-linecap="round" stroke-linejoin="round" stroke-width="2.193"/>
<path d="m369.0289,300.074c.9088,-.2646 1.8105,-.5151 2.7458,-.6612 .9524,-.2002 1.9124,-.3297 2.8759,-.4616 .7571,-.1334 1.5045,-.2771 2.2671,-.3705 1.1111,-.1618 2.243,-.2316 3.3659,-.257 .5641,-.042 1.121,-.024 1.6838,.014l-2.9052,3.4486c-.5433,-.037-1.0849,-.033-1.629,-.011-1.1185,.043-2.2413,.1056-3.3449,.3018-.7571,.1049-1.5023,.2777-2.2621,.3656-.9609,.1229-1.9121,.2903-2.8637,.4712-.9256,.1664-1.8237,.4395-2.7228,.7124l2.7892,-3.552z" stroke="#000" stroke-linecap="round" stroke-linejoin="round" stroke-width="1.2043"/>
<path d="m398.1768,300.6338c-.9065,-.2723-1.806,-.5306-2.74,-.6846-.9507,-.2085-1.9095,-.3462-2.8719,-.4862-.7559,-.14-1.5021,-.2901-2.2639,-.39-1.1097,-.1713-2.2409,-.2509-3.3636,-.2858-.5637,-.047-1.1207,-.034-1.6839,-5e-4l2.8756,3.4733c.5436,-.032 1.0851,-.023 1.6291,0 1.1181,.052 2.2403,.1248 3.3422,.3305 .7561,.1113 1.4998,.2905 2.2589,.385 .9598,.1311 1.9095,.3065 2.8595,.4956 .9241,.1742 1.8199,.455 2.7166,.7356l-2.7587,-3.5756z" stroke="#000" stroke-linecap="round" stroke-linejoin="round" stroke-width="1.2043"/>
<path d="m538.4195,257.9523c0,3.0469-2.4032,5.5169-5.3678,5.5169-2.9646,0-5.3678,-2.47-5.3678,-5.5169 0,-3.0469 2.4032,-5.5169 5.3678,-5.5169 2.9646,0 5.3678,2.47 5.3678,5.5169z" fill="#fff" stroke="#000" stroke-linecap="round" stroke-linejoin="round" stroke-width="2" transform="matrix(.60213,0,0,.60213,70.39139,161.32759)"/>
<path d="m555.2684,260.4871c0,.9058-.4005,1.6402-.8946,1.6402-.4941,0-.8946,-.7343-.8946,-1.6402 0,-.9058 .4005,-1.6402 .8946,-1.6402 .4941,0 .8946,.7343 .8946,1.6402z" fill="#fff" stroke="#000" stroke-linecap="round" stroke-linejoin="round" stroke-width="2" transform="matrix(.60213,0,0,.60213,56.14704,159.77954)"/>
<g transform="matrix(.60213,0,0,.60213,56.52795,160.8787)">
<path d="m538.4195,257.9523c0,3.0469-2.4032,5.5169-5.3678,5.5169-2.9646,0-5.3678,-2.47-5.3678,-5.5169 0,-3.0469 2.4032,-5.5169 5.3678,-5.5169 2.9646,0 5.3678,2.47 5.3678,5.5169z" fill="#fff" stroke="#000" stroke-linecap="round" stroke-linejoin="round" stroke-width="2"/>
<path d="m555.2684,260.4871c0,.9058-.4005,1.6402-.8946,1.6402-.4941,0-.8946,-.7343-.8946,-1.6402 0,-.9058 .4005,-1.6402 .8946,-1.6402 .4941,0 .8946,.7343 .8946,1.6402z" fill="#fff" stroke="#000" stroke-linecap="round" stroke-linejoin="round" stroke-width="2" transform="translate(-23.6822,-2.4475)"/>
</g>
<path d="m382.6717,285.7029-4.2239,1.4784c-2.9914,4.0832-5.3086,8.4381-15.4171,11.1932-.5429,11.1219-4.3117,11.8958-7.6029,12.8827-3.2507,-1.3481-3.6104,-6.4597-5.0686,-10.1372-6.1056,-9.1909-4.974,-16.6021 1.056,-22.8088-.5292,-.8243-.1774,.1066-.3093,-1.7108 .3841,-.068 2.5108,-1.5299 4.8574,-3.1679 1.3151,.4635 1.0331,-.1433 1.3653,1.4996-.2515,-1.6071 .5576,-2.79 1.2671,-4.0127 .9238,-.963 2.7847,-2.0821 4.8937,-3.2426-.4911,-1.4515 .6019,-2.6767 1.4421,-3.938 3.2911,-2.4311 6.4089,-3.119 9.5037,-3.3791 4.9813,-2.2436 9.1643,-3.0882 10.982,.2112 1.743,-.2323 2.9028,-1.1938 6.1246,.4224 6.9386,-1.8283 7.9574,3.284 9.2925,8.0253 1.3221,.8774 2.8372,.7167 3.9636,.224 5.3016,-2.1773 6.9684,2.5277 10.8199,6.7454 7.1017,-4.0128 6.2405,6.8142 9.2925,10.3484 5.3991,-3.8672 7.4249,25.0561-1.777,25.3175-.456,3.1441-1.3329,4.1837-2.1738,5.4035-2.9633,2.0584-3.252,1.586-4.819,2.3232-.9133,-.2109 1.4742,-6.0372 1.5893,-8.5458-2.1817,-4.1537-2.2864,-8.9997-2.1119,-13.9388l-2.1119,-1.2672c-5.765,3.9024-8.0662,-3.2902-12.038,-5.0686-1.7295,.9023-3.3265,.2137-4.8574,-1.2672-10.3021,4.1824-12.2258,.0346-13.9388,-3.5903z" stroke="#000" stroke-width="0"/>
<path d="M426.536,471.3984H476.8547A6.3024,6.3024 0 0 1 483.1571,477.7008V486.1227A6.3024,6.3024 0 0 1 476.8547,492.4251H426.536A6.3024,6.3024 0 0 1 420.2335,486.1227V477.7008A6.3024,6.3024 0 0 1 426.536,471.3984z" fill="#fff" stroke="#000" stroke-linecap="round" stroke-linejoin="round" stroke-width="2.2872" transform="matrix(.94787,-.31866,0,1,0,0)"/>
<path d="M430.5912,472.3941H480.9099A6.3024,6.3024 0 0 1 487.2123,478.6966V487.1184A6.3024,6.3024 0 0 1 480.9099,493.4209H430.5912A6.3024,6.3024 0 0 1 424.2888,487.1184V478.6966A6.3024,6.3024 0 0 1 430.5912,472.3941z" fill="#fff" stroke="#000" stroke-linecap="round" stroke-linejoin="round" stroke-width="2.2872" transform="matrix(.94787,-.31866,0,1,0,0)"/>
<path d="M341.8611,357.8546H399.3854A7.555,7.555 0 0 1 406.9404,365.4096V365.4096A7.555,7.555 0 0 1 399.3854,372.9647H341.8611A7.555,7.555 0 0 1 334.3061,365.4096V365.4096A7.555,7.555 0 0 1 341.8611,357.8546z" fill="#fff" stroke="#000" stroke-linecap="round" stroke-linejoin="round" stroke-width="2.2267"/>
<path d="M433.0487,508.7025H489.4964A6.8461,6.8461 0 0 1 496.3425,515.5486V515.5486A6.8461,6.8461 0 0 1 489.4964,522.3947H433.0487A6.8461,6.8461 0 0 1 426.2027,515.5486V515.5486A6.8461,6.8461 0 0 1 433.0487,508.7025z" fill="#fff" stroke="#000" stroke-linecap="round" stroke-linejoin="round" stroke-width="2.083" transform="matrix(.93839,-.34558,0,1,0,0)"/>
<path d="M464.1782,341.5117L551.1274,350.5247L486.1806,376.5034L413.5463,374.9129L464.1782,341.5117z" stroke="#000" stroke-linecap="round" stroke-linejoin="round" stroke-width="2.2267"/>
<path d="M439.3782,475.0531H489.6969A6.3024,6.3024 0 0 1 495.9993,481.3556V489.7774A6.3024,6.3024 0 0 1 489.6969,496.0799H439.3782A6.3024,6.3024 0 0 1 433.0758,489.7774V481.3556A6.3024,6.3024 0 0 1 439.3782,475.0531z" fill="#fff" stroke="#000" stroke-linecap="round" stroke-linejoin="round" stroke-width="2.2872" transform="matrix(.94787,-.31866,0,1,0,0)"/>
<path d="M443.0139,476.4767H493.3326A6.3024,6.3024 0 0 1 499.6351,482.7792V491.201A6.3024,6.3024 0 0 1 493.3326,497.5035H443.0139A6.3024,6.3024 0 0 1 436.7115,491.201V482.7792A6.3024,6.3024 0 0 1 443.0139,476.4767z" fill="#fff" stroke="#000" stroke-linecap="round" stroke-linejoin="round" stroke-width="2.2872" transform="matrix(.94787,-.31866,0,1,0,0)"/>
<path d="M474.3272,336.8369L540.1235,336.8369C544.4449,336.8369 535.6414,341.5229 520.3846,347.3437C505.1277,353.1644 489.3661,357.8504 485.0446,357.8504L419.2484,357.8504C414.9269,357.8504 424.1281,350.5135 439.3849,344.6928C450.9379,340.6184 462.0977,338.3515 474.3272,336.8369z" fill="#fff" stroke="#000" stroke-linecap="round" stroke-linejoin="round" stroke-width="1.36"/>
<path d="M480.6387,260.3945H521.1474A18.9788,18.9788 0 0 1 540.1262,279.3733V324.9187A18.9788,18.9788 0 0 1 521.1474,343.8975H480.6387A18.9788,18.9788 0 0 1 461.6599,324.9187V279.3733A18.9788,18.9788 0 0 1 480.6387,260.3945z" fill="#fff" stroke="#000" stroke-linecap="round" stroke-linejoin="round" stroke-width="2.2267"/>
<path d="M446.8915,78.4154A61.5183,5.3033 0 1 1 323.8549,78.4154A61.5183,5.3033 0 1 1 446.8915,78.4154z" stroke="#000" stroke-linecap="round" stroke-width="4.862" transform="matrix(-.74225,0,0,.74225,765.93277,291.49877)"/>
<path d="M473.3487,261.7199H513.8574A18.9788,18.9788 0 0 1 532.8362,280.6987V326.2441A18.9788,18.9788 0 0 1 513.8574,345.2229H473.3487A18.9788,18.9788 0 0 1 454.3699,326.2441V280.6987A18.9788,18.9788 0 0 1 473.3487,261.7199z" fill="#fff" stroke="#000" stroke-linecap="round" stroke-linejoin="round" stroke-width="2.2267"/>
<path d="M435.3225,283.8646L435.3225,319.2339C435.3225,334.0106 447.2186,345.9067 461.9953,345.9067L488.166,345.9067C502.9427,345.9067 514.8388,334.0106 514.8388,319.2339L514.8388,283.8646" fill="#fff" stroke="#000" stroke-linecap="round" stroke-linejoin="round" stroke-width="2.6901"/>
<path d="M-493.3846,298.497H-476.0029A.5763,.5763 0 0 1 -475.4266,299.0733V306.4783A.5763,.5763 0 0 1 -476.0029,307.0546H-493.3846A.5763,.5763 0 0 1 -493.9609,306.4783V299.0733A.5763,.5763 0 0 1 -493.3846,298.497z" stroke="#000" stroke-linecap="square" stroke-linejoin="round" stroke-width="2.7577" transform="scale(-1,1)"/>
<path d="M-462.8142,298.497H-447.7377A1.7289,1.7289 0 0 1 -446.0088,300.2259V305.3257A1.7289,1.7289 0 0 1 -447.7377,307.0546H-462.8142A1.7289,1.7289 0 0 1 -464.5431,305.3257V300.2259A1.7289,1.7289 0 0 1 -462.8142,298.497z" stroke="#000" stroke-linecap="square" stroke-linejoin="round" stroke-width="2.7577" transform="scale(-1,1)"/>
<path d="M513.134,302.2301C512.7283,302.2379 512.3226,302.2351 511.9169,302.2331C511.6488,302.2316 511.3808,302.2305 511.1127,302.23C510.8967,302.2297 510.6806,302.2297 510.4646,302.2297C510.2401,302.2292 510.0155,302.2302 509.791,302.2306C509.5024,302.2234 509.2184,302.2303 508.9328,302.268C508.6376,302.3083 508.3396,302.321 508.0419,302.3291C507.7426,302.3175 507.4489,302.3726 507.1526,302.4023C506.8514,302.4294 506.5485,302.4323 506.2461,302.4355C505.9284,302.4372 505.6107,302.4371 505.293,302.436C505.0171,302.4354 504.7412,302.435 504.4652,302.4343C504.2385,302.4338 504.0117,302.4336 503.7849,302.4335C503.5696,302.4335 503.3543,302.4335 503.139,302.4335C502.9237,302.4335 502.7084,302.4335 502.4931,302.4335C502.2577,302.4332 502.0223,302.4339 501.7869,302.4349C501.4957,302.4367 501.2045,302.4353 500.9133,302.4345C500.6394,302.4343 500.3655,302.4348 500.0916,302.4356C499.7985,302.4355 499.5055,302.4355 499.2125,302.4348C498.9319,302.4349 498.6513,302.4353 498.3706,302.4349C498.1154,302.434 497.8601,302.4338 497.6049,302.4351C497.2111,302.437 496.8173,302.4382 496.4235,302.4396C495.8868,302.4416 495.3502,302.4421 494.8135,302.4403C494.4196,302.4393 494.0258,302.4365 493.632,302.4363C493.306,302.4368 492.9801,302.4363 492.6542,302.4352C492.609,302.435 492.5639,302.4349 492.5188,302.4348L493.8083,303.3205C493.853,303.3204 493.8977,303.3202 493.9424,303.3201C494.2673,303.319 494.5921,303.3185 494.917,303.319C495.3069,303.3188 495.6968,303.3159 496.0868,303.315C496.6242,303.3131 497.1616,303.3136 497.699,303.3157C498.0971,303.3171 498.4953,303.3183 498.8934,303.3202C499.1489,303.3214 499.4043,303.3213 499.6597,303.3204C499.9404,303.3199 500.2212,303.3203 500.5019,303.3205C500.7942,303.3197 501.0864,303.3198 501.3787,303.3197C501.6537,303.3204 501.9287,303.321 502.2037,303.3208C502.4944,303.32 502.7852,303.3186 503.0759,303.3203C503.3127,303.3214 503.5495,303.322 503.7862,303.3218C504.0016,303.3218 504.2169,303.3218 504.4322,303.3218C504.6475,303.3218 504.8627,303.3218 505.078,303.3217C505.304,303.3216 505.53,303.3215 505.756,303.321C506.0307,303.3205 506.3055,303.3204 506.5803,303.3204C506.898,303.3197 507.2157,303.3209 507.5334,303.3173C507.8397,303.3132 508.1466,303.3066 508.4512,303.2734C508.7443,303.2405 509.0362,303.2016 509.3324,303.2092C509.6336,303.198 509.9342,303.1771 510.2329,303.1377C510.5151,303.1079 510.7982,303.1162 511.0817,303.1172C511.3071,303.1176 511.5325,303.1185 511.7579,303.118C511.9736,303.118 512.1894,303.1181 512.4051,303.1178C512.6702,303.1173 512.9352,303.1162 513.2002,303.1146C513.6088,303.1126 514.0175,303.11 514.426,303.1176L513.134,302.2301z" stroke="#000" stroke-linecap="square" stroke-linejoin="round" stroke-width=".352"/>
<path d="M445.558,302.4345C445.0382,302.4432 444.5182,302.442 443.9983,302.4417C443.5217,302.441 443.0452,302.4397 442.5686,302.4375C442.2502,302.4358 441.9317,302.4357 441.6132,302.4353C441.3623,302.4347 441.1113,302.4341 440.8604,302.4337C440.6411,302.4497 440.4305,302.3913 440.215,302.3631C439.9989,302.338 439.781,302.3343 439.5635,302.3318C439.3477,302.3302 439.1319,302.3309 438.9162,302.3311C438.7006,302.3314 438.4851,302.3315 438.2696,302.3316C438.0541,302.3316 437.8386,302.3316 437.6231,302.3316C437.4076,302.3316 437.1921,302.3316 436.9766,302.3316C436.7452,302.3312 436.5138,302.3324 436.2824,302.3325C436.0481,302.3323 435.8138,302.332 435.5795,302.3318C435.3625,302.3316 435.1455,302.3316 434.9285,302.3316C434.7849,302.3316 434.8567,302.3316 434.7132,302.3316L436.0064,303.2199C436.1499,303.2199 436.0781,303.2199 436.2216,303.2199C436.4385,303.2199 436.6553,303.2199 436.8722,303.2197C437.1058,303.2196 437.3395,303.2192 437.5732,303.219C437.8053,303.2191 438.0375,303.2203 438.2697,303.2199C438.4852,303.2199 438.7008,303.2199 438.9163,303.2199C439.1318,303.2199 439.3473,303.2199 439.5628,303.2198C439.7784,303.2197 439.9939,303.2195 440.2094,303.2193C440.4246,303.2191 440.6397,303.2185 440.8548,303.2225C441.0685,303.2279 441.2825,303.2369 441.4939,303.2694C441.7126,303.3028 441.9301,303.3364 442.1528,303.3215C442.4022,303.3212 442.6517,303.3206 442.9011,303.32C443.2174,303.3195 443.5337,303.3195 443.85,303.3177C444.3226,303.3155 444.7951,303.3143 445.2677,303.3136C445.7946,303.3132 446.3215,303.3122 446.8483,303.3208L445.558,302.4345z" stroke="#000" stroke-linecap="square" stroke-linejoin="round" stroke-width=".352"/>
<path d="M475.3174,302.555C474.9231,302.6049 474.5252,302.6207 474.1279,302.6325C473.7734,302.641 473.4186,302.641 473.064,302.6401C472.7712,302.6397 472.4784,302.6396 472.1856,302.6389C471.5979,302.654 471.0098,302.6466 470.4219,302.6439C470.0667,302.6413 469.7115,302.6402 469.3563,302.6388C469.0731,302.6388 468.7898,302.6384 468.5065,302.6392C468.2087,302.6401 467.911,302.6385 467.6132,302.639C467.3444,302.6383 467.0757,302.6384 466.807,302.6385C466.5379,302.6389 466.2688,302.6386 465.9997,302.6381C465.7426,302.639 465.4855,302.6382 465.2285,302.6378C464.9769,302.6388 464.7254,302.6381 464.4739,302.6377C464.2517,302.6374 464.0296,302.6373 463.8074,302.6373C463.6216,302.6805 463.4347,302.7115 463.244,302.7266C463.0373,302.7393 462.83,302.7393 462.6229,302.7399C462.4075,302.74 462.1921,302.7396 461.9767,302.7394C461.8688,302.7393 461.761,302.7392 461.6531,302.7392L462.9463,303.6275C463.0541,303.6276 463.1619,303.6277 463.2697,303.6278C463.4854,303.628 463.7011,303.6286 463.9168,303.6275C464.1274,303.6257 464.3385,303.6238 464.5482,303.603C464.7332,303.5813 464.9145,303.5368 465.1005,303.5255C465.3222,303.5254 465.5439,303.5254 465.7656,303.525C466.0171,303.5247 466.2686,303.524 466.5201,303.525C466.7769,303.5246 467.0336,303.5238 467.2904,303.5247C467.5591,303.5241 467.8279,303.5239 468.0966,303.5243C468.3649,303.5244 468.6331,303.5244 468.9013,303.5238C469.1989,303.5243 469.4965,303.5226 469.794,303.5236C470.0777,303.5243 470.3614,303.524 470.6451,303.524C470.9953,303.5226 471.3455,303.5215 471.6957,303.5189C472.2886,303.5162 472.8817,303.5091 473.4744,303.5243C473.7667,303.524 474.059,303.5246 474.3513,303.524C474.7047,303.5219 475.0582,303.5191 475.4114,303.5074C475.8159,303.4917 476.2199,303.4676 476.6227,303.4284L475.3174,302.555z" stroke="#000" stroke-linecap="square" stroke-linejoin="round" stroke-width=".352"/>
<path d="M503.7559,274.627L503.7559,288.3226" fill="none" stroke="#000" stroke-linecap="round" stroke-width="3.5486"/>
<path d="M496.7217,273.3313L496.7217,287.0269" fill="none" stroke="#000" stroke-linecap="round" stroke-width="3.5486"/>
<path d="M490.1211,274.4128L490.1211,288.1084" fill="none" stroke="#000" stroke-linecap="round" stroke-width="3.5486"/>
<path d="M481.4969,273.5507L481.4969,287.2463" fill="none" stroke="#000" stroke-linecap="round" stroke-width="3.5486"/>
<path d="M473.994,275.1657L473.994,288.8613" fill="none" stroke="#000" stroke-linecap="round" stroke-width="3.5486"/>
<path d="M465.4049,275.0361L465.4049,288.7317" fill="none" stroke="#000" stroke-linecap="round" stroke-width="3.5486"/>
<path d="M457.648,273.7701L457.648,287.4657" fill="none" stroke="#000" stroke-linecap="round" stroke-width="3.5486"/>
<path d="M450.3247,276.0131L450.3247,289.7087" fill="none" stroke="#000" stroke-linecap="round" stroke-width="3.5486"/>
<path d="M442.4419,275.7408L442.4419,289.4364" fill="none" stroke="#000" stroke-linecap="round" stroke-width="3.5486"/>
<path d="M479.5474,329.9263L459.5151,326.6557" fill="none" stroke="#000" stroke-width=".5724"/>
<path d="M509.579,278.1206L509.579,291.8162" fill="none" stroke="#000" stroke-linecap="round" stroke-width="3.5486"/>
<path d="M512.6514,498.4026H562.9701A6.3024,6.3024 0 0 1 569.2725,504.705V513.1269A6.3024,6.3024 0 0 1 562.9701,519.4294H512.6514A6.3024,6.3024 0 0 1 506.3489,513.1269V504.705A6.3024,6.3024 0 0 1 512.6514,498.4026z" fill="#fff" stroke="#000" stroke-linecap="round" stroke-linejoin="round" stroke-width="2.2872" transform="matrix(.94787,-.31866,0,1,0,0)"/>
<path d="M516.7066,499.3983H567.0252A6.3024,6.3024 0 0 1 573.3277,505.7008V514.1226A6.3024,6.3024 0 0 1 567.0252,520.4251H516.7066A6.3024,6.3024 0 0 1 510.4041,514.1226V505.7008A6.3024,6.3024 0 0 1 516.7066,499.3983z" fill="#fff" stroke="#000" stroke-linecap="round" stroke-linejoin="round" stroke-width="2.2872" transform="matrix(.94787,-.31866,0,1,0,0)"/>
<path d="M423.4871,357.417H481.0114A7.555,7.555 0 0 1 488.5664,364.972V364.972A7.555,7.555 0 0 1 481.0114,372.5271H423.4871A7.555,7.555 0 0 1 415.9321,364.972V364.972A7.555,7.555 0 0 1 423.4871,357.417z" fill="#fff" stroke="#000" stroke-linecap="round" stroke-linejoin="round" stroke-width="2.2267"/>
<path d="M520.0341,538.3254H576.4818A6.8461,6.8461 0 0 1 583.3278,545.1715V545.1715A6.8461,6.8461 0 0 1 576.4818,552.0176H520.0341A6.8461,6.8461 0 0 1 513.188,545.1715V545.1715A6.8461,6.8461 0 0 1 520.0341,538.3254z" fill="#fff" stroke="#000" stroke-linecap="round" stroke-linejoin="round" stroke-width="2.083" transform="matrix(.93839,-.34558,0,1,0,0)"/>
<path d="M664.6951,343.3779L751.6442,352.3909L686.6975,378.3696L614.0631,376.7791L664.6951,343.3779z" stroke="#000" stroke-linecap="round" stroke-linejoin="round" stroke-width="2.2267"/>
<path d="M650.9234,544.331H701.242A6.3024,6.3024 0 0 1 707.5445,550.6334V559.0553A6.3024,6.3024 0 0 1 701.242,565.3578H650.9234A6.3024,6.3024 0 0 1 644.6209,559.0553V550.6334A6.3024,6.3024 0 0 1 650.9234,544.331z" fill="#fff" stroke="#000" stroke-linecap="round" stroke-linejoin="round" stroke-width="2.2872" transform="matrix(.94787,-.31866,0,1,0,0)"/>
<path d="M654.559,545.7546H704.8777A6.3024,6.3024 0 0 1 711.1802,552.0571V560.479A6.3024,6.3024 0 0 1 704.8777,566.7814H654.559A6.3024,6.3024 0 0 1 648.2566,560.479V552.0571A6.3024,6.3024 0 0 1 654.559,545.7546z" fill="#fff" stroke="#000" stroke-linecap="round" stroke-linejoin="round" stroke-width="2.2872" transform="matrix(.94787,-.31866,0,1,0,0)"/>
<path d="M674.8441,338.7031L740.6403,338.7031C744.9618,338.7031 736.1583,343.3891 720.9014,349.2099C705.6446,355.0306 689.8829,359.7166 685.5615,359.7166L619.7652,359.7166C615.4437,359.7166 624.6449,352.3797 639.9018,346.559C651.4547,342.4846 662.6146,340.2177 674.8441,338.7031z" fill="#fff" stroke="#000" stroke-linecap="round" stroke-linejoin="round" stroke-width="1.36"/>
<path d="M681.1555,262.2607H721.6643A18.9788,18.9788 0 0 1 740.643,281.2395V326.7849A18.9788,18.9788 0 0 1 721.6643,345.7637H681.1555A18.9788,18.9788 0 0 1 662.1768,326.7849V281.2395A18.9788,18.9788 0 0 1 681.1555,262.2607z" fill="#fff" stroke="#000" stroke-linecap="round" stroke-linejoin="round" stroke-width="2.2267"/>
<path d="M673.8656,263.5861H714.3743A18.9788,18.9788 0 0 1 733.3531,282.5649V328.1103A18.9788,18.9788 0 0 1 714.3743,347.0891H673.8656A18.9788,18.9788 0 0 1 654.8868,328.1103V282.5649A18.9788,18.9788 0 0 1 673.8656,263.5861z" fill="#fff" stroke="#000" stroke-linecap="round" stroke-linejoin="round" stroke-width="2.2267"/>
<g transform="matrix(-1,0,0,1,723.09733,-695.37635)">
<path d="m154.2857,169.6429c0,4.5366-27.5025,8.2143-61.4286,8.2143-33.9261,0-61.4286,-3.6777-61.4286,-8.2143 0,-4.5366 27.5025,-8.2143 61.4286,-8.2143 33.9261,0 61.4286,3.6777 61.4286,8.2143z" stroke="#000" transform="matrix(-.60213,0,0,.60213,106.30564,942.26976)"/>
<path d="m58.4703,975.3336-19.4482,0c-3.161,16.9994-18.1122,12.8621-19.9523,19.9523l3.3453,30.9869c6.5967,11.6033 15.0373,18.9686 23.2977,18.7359l5.1544,0c8.355,-.4499 21.1432,-10.4744 23.2977,-21.1689l4.2577,-28.5539c-1.2995,-4.9275-12.9618,-.7979-19.9523,-19.9523z" fill="#fff" stroke="#000" stroke-linecap="round" stroke-linejoin="round" stroke-width="2.193"/>
<path d="m70.1165,1002.6337c-.9088,-.2646-1.8105,-.5151-2.7458,-.6612-.9524,-.2002-1.9124,-.3297-2.8759,-.4616-.7571,-.1334-1.5045,-.2771-2.2671,-.3705-1.1111,-.1618-2.243,-.2316-3.3659,-.257-.5641,-.042-1.121,-.024-1.6838,.014l2.9052,3.4486c.5433,-.037 1.0849,-.033 1.629,-.011 1.1185,.043 2.2413,.1056 3.3449,.3018 .7571,.1049 1.5023,.2777 2.2621,.3656 .9609,.1229 1.9121,.2903 2.8637,.4712 .9256,.1664 1.8237,.4395 2.7228,.7124l-2.7892,-3.552z" stroke="#000" stroke-linecap="round" stroke-linejoin="round" stroke-width="1.2043"/>
<path d="m40.9687,1003.1934c.9065,-.2723 1.806,-.5306 2.74,-.6846 .9507,-.2085 1.9095,-.3462 2.8719,-.4862 .7559,-.14 1.5021,-.2901 2.2639,-.39 1.1097,-.1713 2.2409,-.2509 3.3636,-.2858 .5637,-.047 1.1207,-.034 1.6839,-5e-4l-2.8756,3.4733c-.5436,-.032-1.0851,-.023-1.6291,0-1.1181,.052-2.2403,.1248-3.3422,.3305-.7561,.1113-1.4998,.2905-2.2589,.385-.9598,.1311-1.9095,.3065-2.8595,.4956-.9241,.1742-1.8199,.455-2.7166,.7356l2.7587,-3.5756z" stroke="#000" stroke-linecap="round" stroke-linejoin="round" stroke-width="1.2043"/>
<path d="m538.4195,257.9523c0,3.0469-2.4032,5.5169-5.3678,5.5169-2.9646,0-5.3678,-2.47-5.3678,-5.5169 0,-3.0469 2.4032,-5.5169 5.3678,-5.5169 2.9646,0 5.3678,2.47 5.3678,5.5169z" fill="#fff" stroke="#000" stroke-linecap="round" stroke-linejoin="round" stroke-width="2" transform="matrix(-.60213,0,0,.60213,368.75405,856.70393)"/>
<path d="m555.2684,260.4871c0,.9058-.4005,1.6402-.8946,1.6402-.4941,0-.8946,-.7343-.8946,-1.6402 0,-.9058 .4005,-1.6402 .8946,-1.6402 .4941,0 .8946,.7343 .8946,1.6402z" fill="#fff" stroke="#000" stroke-linecap="round" stroke-linejoin="round" stroke-width="2" transform="matrix(-.60213,0,0,.60213,382.9984,855.15588)"/>
<g transform="matrix(-.60213,0,0,.60213,382.61749,856.25504)">
<path d="m538.4195,257.9523c0,3.0469-2.4032,5.5169-5.3678,5.5169-2.9646,0-5.3678,-2.47-5.3678,-5.5169 0,-3.0469 2.4032,-5.5169 5.3678,-5.5169 2.9646,0 5.3678,2.47 5.3678,5.5169z" fill="#fff" stroke="#000" stroke-linecap="round" stroke-linejoin="round" stroke-width="2"/>
<path d="m555.2684,260.4871c0,.9058-.4005,1.6402-.8946,1.6402-.4941,0-.8946,-.7343-.8946,-1.6402 0,-.9058 .4005,-1.6402 .8946,-1.6402 .4941,0 .8946,.7343 .8946,1.6402z" fill="#fff" stroke="#000" stroke-linecap="round" stroke-linejoin="round" stroke-width="2" transform="translate(-23.6822,-2.4475)"/>
</g>
<path d="m56.4737,981.0793 4.2239,1.4784c2.9914,4.0832 5.3086,8.4381 15.4171,11.1932 .5429,11.1219 4.3117,11.8958 7.6029,12.8827 3.2507,-1.3481 3.6104,-6.4597 5.0686,-10.1372 6.1056,-9.1909 4.974,-16.6021-1.056,-22.8088 .5292,-.8243 .1774,.1066 .3093,-1.7108-.3841,-.068-2.5108,-1.5299-4.8574,-3.1679-1.3151,.4635-1.0331,-.1433-1.3653,1.4996 .2515,-1.6071-.5576,-2.79-1.2671,-4.0127-.9238,-.963-2.7847,-2.0821-4.8937,-3.2426 .4911,-1.4515-.6019,-2.6767-1.4421,-3.938-3.2911,-2.4311-6.4089,-3.119-9.5037,-3.3791-4.9813,-2.2436-9.1643,-3.0882-10.982,.2112-1.743,-.2323-2.9028,-1.1938-6.1246,.4224-6.9386,-1.8283-7.9574,3.284-9.2925,8.0253-1.3221,.8774-2.8372,.7167-3.9636,.224-5.3016,-2.1773-6.9683,2.5277-10.8199,6.7454-7.1017,-4.0128-6.2405,6.8142-9.2925,10.3484-5.3991,-3.8672-7.4249,25.0561 1.777,25.3175 .456,3.1441 1.3329,4.1837 2.1738,5.4035 2.9633,2.0584 3.252,1.586 4.819,2.3232 .9133,-.2109-1.4742,-6.0372-1.5892,-8.5458 2.1817,-4.1537 2.2864,-8.9997 2.1119,-13.9388l2.1119,-1.2672c5.765,3.9024 8.0662,-3.2902 12.038,-5.0686 1.7295,.9023 3.3265,.2137 4.8574,-1.2672 10.3021,4.1824 12.2258,.0346 13.9388,-3.5903z" stroke="#000" stroke-width="0"/>
<path d="m53.9286,1034.505c-3.8973,-.3884-8.6697,.098-10.3571,-2.5" fill="none" stroke="#000"/>
</g>
<path d="M724.1965,567.6805H774.5152A6.3024,6.3024 0 0 1 780.8176,573.9829V582.4048A6.3024,6.3024 0 0 1 774.5152,588.7072H724.1965A6.3024,6.3024 0 0 1 717.894,582.4048V573.9829A6.3024,6.3024 0 0 1 724.1965,567.6805z" fill="#fff" stroke="#000" stroke-linecap="round" stroke-linejoin="round" stroke-width="2.2872" transform="matrix(.94787,-.31866,0,1,0,0)"/>
<path d="M728.2517,568.6762H778.5704A6.3024,6.3024 0 0 1 784.8728,574.9787V583.4005A6.3024,6.3024 0 0 1 778.5704,589.703H728.2517A6.3024,6.3024 0 0 1 721.9493,583.4005V574.9787A6.3024,6.3024 0 0 1 728.2517,568.6762z" fill="#fff" stroke="#000" stroke-linecap="round" stroke-linejoin="round" stroke-width="2.2872" transform="matrix(.94787,-.31866,0,1,0,0)"/>
<path d="M624.0039,359.2832H681.5282A7.555,7.555 0 0 1 689.0832,366.8382V366.8382A7.555,7.555 0 0 1 681.5282,374.3933H624.0039A7.555,7.555 0 0 1 616.4489,366.8382V366.8382A7.555,7.555 0 0 1 624.0039,359.2832z" fill="#fff" stroke="#000" stroke-linecap="round" stroke-linejoin="round" stroke-width="2.2267"/>
<path d="M733.7161,614.0364H790.1638A6.8461,6.8461 0 0 1 797.0099,620.8825V620.8825A6.8461,6.8461 0 0 1 790.1638,627.7286H733.7161A6.8461,6.8461 0 0 1 726.8701,620.8825V620.8825A6.8461,6.8461 0 0 1 733.7161,614.0364z" fill="#fff" stroke="#000" stroke-linecap="round" stroke-linejoin="round" stroke-width="2.083" transform="matrix(.93839,-.34558,0,1,0,0)"/>
<path d="M746.3211,342.9402L833.2702,351.9533L768.3235,377.9319L695.6891,376.3414L746.3211,342.9402z" stroke="#000" stroke-linecap="round" stroke-linejoin="round" stroke-width="2.2267"/>
<path d="M737.0387,571.3352H787.3574A6.3024,6.3024 0 0 1 793.6598,577.6377V586.0595A6.3024,6.3024 0 0 1 787.3574,592.362H737.0387A6.3024,6.3024 0 0 1 730.7363,586.0595V577.6377A6.3024,6.3024 0 0 1 737.0387,571.3352z" fill="#fff" stroke="#000" stroke-linecap="round" stroke-linejoin="round" stroke-width="2.2872" transform="matrix(.94787,-.31866,0,1,0,0)"/>
<path d="M740.6745,572.7589H790.9931A6.3024,6.3024 0 0 1 797.2956,579.0613V587.4832A6.3024,6.3024 0 0 1 790.9931,593.7856H740.6745A6.3024,6.3024 0 0 1 734.372,587.4832V579.0613A6.3024,6.3024 0 0 1 740.6745,572.7589z" fill="#fff" stroke="#000" stroke-linecap="round" stroke-linejoin="round" stroke-width="2.2872" transform="matrix(.94787,-.31866,0,1,0,0)"/>
<path d="M756.4701,338.2655L822.2663,338.2655C826.5878,338.2655 817.7843,342.9515 802.5274,348.7722C787.2706,354.593 771.5089,359.279 767.1875,359.279L701.3913,359.279C697.0697,359.279 706.2709,351.9421 721.5278,346.1214C733.0807,342.0469 744.2406,339.78 756.4701,338.2655z" fill="#fff" stroke="#000" stroke-linecap="round" stroke-linejoin="round" stroke-width="1.36"/>
<path d="M762.7815,261.8231H803.2902A18.9788,18.9788 0 0 1 822.269,280.8018V326.3472A18.9788,18.9788 0 0 1 803.2902,345.326H762.7815A18.9788,18.9788 0 0 1 743.8027,326.3472V280.8018A18.9788,18.9788 0 0 1 762.7815,261.8231z" fill="#fff" stroke="#000" stroke-linecap="round" stroke-linejoin="round" stroke-width="2.2267"/>
<path d="M446.8915,78.4154A61.5183,5.3033 0 1 1 323.8549,78.4154A61.5183,5.3033 0 1 1 446.8915,78.4154z" stroke="#000" stroke-linecap="round" stroke-width="4.862" transform="matrix(-.74225,0,0,.74225,1048.0756,292.92734)"/>
<path d="M755.4916,263.1485H796.0003A18.9788,18.9788 0 0 1 814.9791,282.1273V327.6727A18.9788,18.9788 0 0 1 796.0003,346.6515H755.4916A18.9788,18.9788 0 0 1 736.5128,327.6727V282.1273A18.9788,18.9788 0 0 1 755.4916,263.1485z" fill="#fff" stroke="#000" stroke-linecap="round" stroke-linejoin="round" stroke-width="2.2267"/>
<path d="M717.4654,285.2932L717.4654,320.6625C717.4654,335.4392 729.3614,347.3352 744.1381,347.3352L770.3089,347.3352C785.0856,347.3352 796.9816,335.4392 796.9816,320.6625L796.9816,285.2932" fill="#fff" stroke="#000" stroke-linecap="round" stroke-linejoin="round" stroke-width="2.6901"/>
<path d="M-775.5275,299.9255H-758.1458A.5763,.5763 0 0 1 -757.5695,300.5018V307.9068A.5763,.5763 0 0 1 -758.1458,308.4831H-775.5275A.5763,.5763 0 0 1 -776.1038,307.9068V300.5018A.5763,.5763 0 0 1 -775.5275,299.9255z" stroke="#000" stroke-linecap="square" stroke-linejoin="round" stroke-width="2.7577" transform="scale(-1,1)"/>
<path d="M-744.957,299.9255H-729.8805A1.7289,1.7289 0 0 1 -728.1516,301.6544V306.7542A1.7289,1.7289 0 0 1 -729.8805,308.4831H-744.957A1.7289,1.7289 0 0 1 -746.6859,306.7542V301.6544A1.7289,1.7289 0 0 1 -744.957,299.9255z" stroke="#000" stroke-linecap="square" stroke-linejoin="round" stroke-width="2.7577" transform="scale(-1,1)"/>
<path d="M795.2768,303.6587C794.8712,303.6664 794.4654,303.6637 794.0598,303.6617C793.7917,303.6601 793.5236,303.6591 793.2555,303.6586C793.0395,303.6583 792.8235,303.6583 792.6075,303.6583C792.3829,303.6578 792.1584,303.6587 791.9338,303.6591C791.6453,303.652 791.3612,303.6589 791.0756,303.6966C790.7804,303.7369 790.4825,303.7496 790.1847,303.7577C789.8854,303.746 789.5917,303.8012 789.2955,303.8308C788.9942,303.858 788.6913,303.8609 788.389,303.8641C788.0712,303.8658 787.7536,303.8657 787.4359,303.8646C787.1599,303.864 786.884,303.8636 786.6081,303.8629C786.3813,303.8623 786.1545,303.8622 785.9278,303.8621C785.7125,303.862 785.4972,303.8621 785.2819,303.8621C785.0666,303.8621 784.8512,303.8621 784.6359,303.8621C784.4005,303.8618 784.1652,303.8625 783.9298,303.8635C783.6386,303.8653 783.3474,303.8638 783.0562,303.863C782.7823,303.8628 782.5083,303.8634 782.2344,303.8641C781.9414,303.864 781.6484,303.8641 781.3554,303.8634C781.0747,303.8635 780.7941,303.8639 780.5135,303.8635C780.2582,303.8625 780.003,303.8624 779.7478,303.8637C779.354,303.8656 778.9602,303.8668 778.5664,303.8682C778.0297,303.8702 777.493,303.8707 776.9563,303.8689C776.5625,303.8679 776.1687,303.865 775.7748,303.8649C775.4489,303.8653 775.1229,303.8649 774.797,303.8638C774.7519,303.8636 774.7068,303.8635 774.6616,303.8633L775.9512,304.7491C775.9959,304.7489 776.0406,304.7488 776.0852,304.7486C776.4101,304.7475 776.735,304.7471 777.0598,304.7475C777.4498,304.7474 777.8397,304.7445 778.2296,304.7435C778.767,304.7417 779.3044,304.7422 779.8418,304.7443C780.24,304.7457 780.6381,304.7468 781.0363,304.7487C781.2917,304.75 781.5471,304.7499 781.8025,304.7489C782.0833,304.7485 782.364,304.7489 782.6448,304.749C782.937,304.7483 783.2293,304.7484 783.5215,304.7482C783.7965,304.749 784.0715,304.7496 784.3465,304.7494C784.6373,304.7486 784.928,304.7471 785.2188,304.7489C785.4555,304.7499 785.6923,304.7506 785.9291,304.7503C786.1444,304.7503 786.3597,304.7503 786.5751,304.7503C786.7903,304.7503 787.0056,304.7504 787.2208,304.7503C787.4468,304.7502 787.6728,304.75 787.8988,304.7496C788.1736,304.7491 788.4484,304.749 788.7231,304.7489C789.0408,304.7483 789.3585,304.7495 789.6762,304.7459C789.9825,304.7418 790.2894,304.7352 790.5941,304.702C790.8871,304.6691 791.1791,304.6302 791.4752,304.6378C791.7764,304.6266 792.0771,304.6057 792.3758,304.5663C792.6579,304.5365 792.941,304.5448 793.2246,304.5458C793.45,304.5462 793.6753,304.5471 793.9007,304.5466C794.1165,304.5466 794.3322,304.5466 794.548,304.5463C794.813,304.5458 795.078,304.5448 795.3431,304.5432C795.7517,304.5411 796.1603,304.5386 796.5689,304.5462L795.2768,303.6587z" stroke="#000" stroke-linecap="square" stroke-linejoin="round" stroke-width=".352"/>
<path d="M727.7009,303.863C727.181,303.8718 726.661,303.8706 726.1411,303.8702C725.6646,303.8696 725.188,303.8683 724.7115,303.8661C724.393,303.8644 724.0746,303.8643 723.7561,303.8639C723.5051,303.8633 723.2542,303.8627 723.0032,303.8623C722.784,303.8783 722.5733,303.8199 722.3578,303.7917C722.1417,303.7665 721.9238,303.7629 721.7064,303.7603C721.4906,303.7588 721.2748,303.7594 721.059,303.7597C720.8435,303.76 720.628,303.7601 720.4125,303.7602C720.197,303.7602 719.9815,303.7602 719.7659,303.7602C719.5504,303.7602 719.3349,303.7602 719.1194,303.7602C718.888,303.7597 718.6567,303.761 718.4253,303.761C718.191,303.7609 717.9567,303.7605 717.7224,303.7604C717.5053,303.7602 717.2883,303.7602 717.0713,303.7602C716.9278,303.7602 716.9995,303.7602 716.856,303.7602L718.1492,304.6485C718.2927,304.6485 718.221,304.6485 718.3645,304.6485C718.5813,304.6485 718.7982,304.6484 719.015,304.6483C719.2487,304.6481 719.4823,304.6478 719.716,304.6476C719.9482,304.6476 720.1804,304.6489 720.4126,304.6485C720.6281,304.6485 720.8436,304.6485 721.0591,304.6485C721.2746,304.6485 721.4902,304.6485 721.7057,304.6484C721.9212,304.6483 722.1367,304.6481 722.3523,304.6478C722.5674,304.6477 722.7826,304.6471 722.9977,304.651C723.2114,304.6565 723.4254,304.6654 723.6368,304.698C723.8554,304.7314 724.0729,304.7649 724.2956,304.7501C724.5451,304.7498 724.7945,304.7491 725.044,304.7485C725.3603,304.7481 725.6766,304.748 725.9928,304.7463C726.4654,304.7441 726.938,304.7428 727.4105,304.7422C727.9374,304.7418 728.4644,304.7408 728.9912,304.7493L727.7009,303.863z" stroke="#000" stroke-linecap="square" stroke-linejoin="round" stroke-width=".352"/>
<path d="M757.4602,303.9836C757.0659,304.0335 756.6681,304.0492 756.2708,304.061C755.9162,304.0696 755.5615,304.0696 755.2068,304.0687C754.914,304.0683 754.6213,304.0682 754.3285,304.0675C753.7407,304.0826 753.1527,304.0752 752.5648,304.0725C752.2096,304.0698 751.8544,304.0688 751.4992,304.0673C751.2159,304.0673 750.9326,304.067 750.6494,304.0678C750.3516,304.0687 750.0538,304.0671 749.756,304.0675C749.4873,304.0669 749.2186,304.067 748.9499,304.067C748.6808,304.0675 748.4117,304.0672 748.1425,304.0667C747.8855,304.0676 747.6284,304.0668 747.3713,304.0663C747.1198,304.0674 746.8683,304.0667 746.6168,304.0663C746.3946,304.066 746.1724,304.0659 745.9502,304.0659C745.7644,304.109 745.5775,304.1401 745.3869,304.1551C745.1801,304.1679 744.9728,304.1679 744.7658,304.1685C744.5504,304.1686 744.335,304.1682 744.1195,304.168C744.0117,304.1678 743.9038,304.1678 743.796,304.1678L745.0891,305.0561C745.1969,305.0562 745.3048,305.0562 745.4126,305.0563C745.6282,305.0566 745.8439,305.0571 746.0596,305.0561C746.2702,305.0543 746.4813,305.0524 746.691,305.0316C746.8761,305.0099 747.0573,304.9654 747.2433,304.9541C747.4651,304.954 747.6868,304.9539 747.9085,304.9536C748.16,304.9533 748.4115,304.9525 748.663,304.9536C748.9197,304.9532 749.1765,304.9524 749.4332,304.9532C749.702,304.9527 749.9707,304.9524 750.2395,304.9529C750.5077,304.9529 750.7759,304.953 751.0442,304.9524C751.3417,304.9529 751.6393,304.9512 751.9369,304.9521C752.2206,304.9529 752.5043,304.9526 752.788,304.9526C753.1382,304.9511 753.4884,304.9501 753.8386,304.9474C754.4314,304.9447 755.0245,304.9377 755.6173,304.9529C755.9096,304.9526 756.2019,304.9532 756.4942,304.9526C756.8476,304.9505 757.201,304.9477 757.5542,304.9359C757.9587,304.9203 758.3628,304.8962 758.7655,304.8569L757.4602,303.9836z" stroke="#000" stroke-linecap="square" stroke-linejoin="round" stroke-width=".352"/>
<path d="M785.8988,276.0556L785.8988,289.7512" fill="none" stroke="#000" stroke-linecap="round" stroke-width="3.5486"/>
<path d="M778.8645,274.7599L778.8645,288.4555" fill="none" stroke="#000" stroke-linecap="round" stroke-width="3.5486"/>
<path d="M772.2639,275.8414L772.2639,289.537" fill="none" stroke="#000" stroke-linecap="round" stroke-width="3.5486"/>
<path d="M763.6398,274.9793L763.6398,288.6749" fill="none" stroke="#000" stroke-linecap="round" stroke-width="3.5486"/>
<path d="M756.1368,276.5942L756.1368,290.2898" fill="none" stroke="#000" stroke-linecap="round" stroke-width="3.5486"/>
<path d="M747.5477,276.4647L747.5477,290.1603" fill="none" stroke="#000" stroke-linecap="round" stroke-width="3.5486"/>
<path d="M739.7908,275.1986L739.7908,288.8943" fill="none" stroke="#000" stroke-linecap="round" stroke-width="3.5486"/>
<path d="M732.4675,277.4416L732.4675,291.1372" fill="none" stroke="#000" stroke-linecap="round" stroke-width="3.5486"/>
<path d="M724.5847,277.1694L724.5847,290.8649" fill="none" stroke="#000" stroke-linecap="round" stroke-width="3.5486"/>
<path d="M791.7218,279.5492L791.7218,293.2448" fill="none" stroke="#000" stroke-linecap="round" stroke-width="3.5486"/>
<path d="M810.3119,594.6847H860.6306A6.3024,6.3024 0 0 1 866.933,600.9871V609.409A6.3024,6.3024 0 0 1 860.6306,615.7115H810.3119A6.3024,6.3024 0 0 1 804.0095,609.409V600.9871A6.3024,6.3024 0 0 1 810.3119,594.6847z" fill="#fff" stroke="#000" stroke-linecap="round" stroke-linejoin="round" stroke-width="2.2872" transform="matrix(.94787,-.31866,0,1,0,0)"/>
<path d="M814.3671,595.6804H864.6858A6.3024,6.3024 0 0 1 870.9882,601.9829V610.4047A6.3024,6.3024 0 0 1 864.6858,616.7072H814.3671A6.3024,6.3024 0 0 1 808.0646,610.4047V601.9829A6.3024,6.3024 0 0 1 814.3671,595.6804z" fill="#fff" stroke="#000" stroke-linecap="round" stroke-linejoin="round" stroke-width="2.2872" transform="matrix(.94787,-.31866,0,1,0,0)"/>
<path d="M705.63,358.8456H763.1542A7.555,7.555 0 0 1 770.7093,366.4006V366.4006A7.555,7.555 0 0 1 763.1542,373.9556H705.63A7.555,7.555 0 0 1 698.0749,366.4006V366.4006A7.555,7.555 0 0 1 705.63,358.8456z" fill="#fff" stroke="#000" stroke-linecap="round" stroke-linejoin="round" stroke-width="2.2267"/>
<path d="M820.7015,643.6594H877.1492A6.8461,6.8461 0 0 1 883.9953,650.5054V650.5054A6.8461,6.8461 0 0 1 877.1492,657.3515H820.7015A6.8461,6.8461 0 0 1 813.8554,650.5054V650.5054A6.8461,6.8461 0 0 1 820.7015,643.6594z" fill="#fff" stroke="#000" stroke-linecap="round" stroke-linejoin="round" stroke-width="2.083" transform="matrix(.93839,-.34558,0,1,0,0)"/>
<path d="M750.4504,331.5768L767.3836,328.6226C766.8963,329.4408 766.5767,331.5736 765.2949,332.1295C764.3585,332.5356 763.4086,333.3866 762.1809,333.6425C761.3559,333.8145 759.5109,334.5041 758.5716,334.395C757.1326,334.2278 755.6914,334.0774 754.5629,333.695C753.4167,333.3065 752.4888,333.1323 751.5371,332.4061C751.1748,332.1297 750.8126,331.8533 750.4504,331.5768z" fill="none" stroke="#000" stroke-width="1.0423"/>
<text font-family="Bitstream Vera Sans" font-size="20" x="160.6143" y="123.2156">
   <tspan text-align="center" text-anchor="middle" x="160.6143" y="123.2156">Bordel ce film est</tspan>
   <tspan text-align="center" text-anchor="middle" x="160.6143" y="148.2156">vraiment trop mauvais !</tspan>
  </text>
<text font-family="Bitstream Vera Sans" font-size="20" x="50.0026" y="206.5532">
   <tspan x="50.0026" y="206.5532">Grave...</tspan>
  </text>
<path d="M204.5559,163.6217L199,249.4847" fill="none" stroke="#000"/>
<path d="M87.3782,218.6751L90.9137,248.4746" fill="none" stroke="#000"/>
<text font-family="Bitstream Vera Sans" font-size="20" x="443.457" y="126.2461">
   <tspan text-align="center" text-anchor="middle" x="443.457" y="126.2461">"JE SUIS PAS TA PUTAIN</tspan>
   <tspan text-align="center" text-anchor="middle" x="443.457" y="151.2461">DE MAMAN !!!!"</tspan>
  </text>
<path d="M300.5204,159.0761L343.4519,145.9441" fill="none" stroke="#000"/>
<text font-family="Bitstream Vera Sans" font-size="20" transform="rotate(34.229)" x="354.3213" y="-11.3435">
   <tspan x="354.3213" y="-11.3435">*CRAC*</tspan>
  </text>
<path d="M297.4899,215.6446L316.1778,211.0989" fill="none" stroke="#000"/>
<text font-family="Bitstream Vera Sans" font-size="20" x="678.5625" y="120.2867">
   <tspan text-align="center" text-anchor="middle" x="678.5625" y="120.2867">Bon au moins a</tspan>
   <tspan text-align="center" text-anchor="middle" x="678.5625" y="145.2867">finit bien !</tspan>
  </text>
<text font-family="Bitstream Vera Sans" font-size="20" x="774.1717" y="199.4463">
   <tspan text-align="center" text-anchor="middle" x="774.1717" y="199.4463">J'aime !</tspan>
  </text>
<path d="M656.8393,160.8463L662.0584,249.2656" fill="none" stroke="#000" stroke-width=".9183"/>
<path d="M765.6956,213.6243L755.5941,252.5152" fill="none" stroke="#000"/>
<text font-family="Bitstream Vera Sans" font-size="20" transform="rotate(33.334)" x="362.8844" y="-26.5874">
   <tspan x="362.8844" y="-26.5874">*bim*</tspan>
  </text>
<path d="m391.901,339.7151a1.3674,.8451 0 1 1 -2.7348,0 1.3674,.8451 0 1 1 2.7348,0z" stroke="#000" stroke-linejoin="bevel" stroke-width="2" transform="translate(1.6902,-2.1127)"/>
</svg>
