<svg version="1.0" viewBox="0 0 900 450" xmlns="http://www.w3.org/2000/svg" xmlns:svg="http://www.w3.org/2000/svg">
<path d="M49.3229,87.2583H830.3248A31.621,31.621 0 0 1 861.9458,118.8794V367.2282A31.621,31.621 0 0 1 830.3248,398.8492H49.3229A31.621,31.621 0 0 1 17.7018,367.2282V118.8794A31.621,31.621 0 0 1 49.3229,87.2583z" fill="#fff" stroke="#000" stroke-linecap="round" stroke-width="7.4907"/>
<g transform="matrix(-1,0,0,1,913.61163,-10.29818)">
<path d="m446.8915,78.4154c0,2.9289-27.5427,5.3033-61.5183,5.3033-33.9756,0-61.5183,-2.3744-61.5183,-5.3033 0,-2.9289 27.5427,-5.3033 61.5183,-5.3033 33.9756,0 61.5183,2.3744 61.5183,5.3033z" stroke="#000" stroke-linecap="round" stroke-width="4.862" transform="matrix(-1,0,0,1,523.05871,253.55929)"/>
<path d="M83.9274,245.0872L83.9274,292.9756C83.9274,312.9826 100.0341,329.0894 120.0411,329.0894L155.4751,329.0894C175.4821,329.0894 191.5888,312.9826 191.5888,292.9756L191.5888,245.0872" fill="#fff" stroke="#000" stroke-linecap="round" stroke-linejoin="round" stroke-width="3.642"/>
<path d="M-174.5408,264.8987H-151.0068A.7803,.7803 0 0 1 -150.2265,265.679V275.705A.7803,.7803 0 0 1 -151.0068,276.4853H-174.5408A.7803,.7803 0 0 1 -175.3211,275.705V265.679A.7803,.7803 0 0 1 -174.5408,264.8987z" stroke="#000" stroke-linecap="square" stroke-linejoin="round" stroke-width="3.7338" transform="scale(-1,1)"/>
<path d="M-129.1499,264.8987H-108.737A2.3409,2.3409 0 0 1 -106.3961,267.2395V274.1445A2.3409,2.3409 0 0 1 -108.737,276.4853H-129.1499A2.3409,2.3409 0 0 1 -131.4907,274.1445V267.2395A2.3409,2.3409 0 0 1 -129.1499,264.8987z" stroke="#000" stroke-linecap="square" stroke-linejoin="round" stroke-width="3.7338" transform="scale(-1,1)"/>
<path d="M189.2806,269.9533C188.7314,269.9637 188.1821,269.96 187.6328,269.9573C187.2698,269.9552 186.9069,269.9538 186.5439,269.9531C186.2514,269.9527 185.9589,269.9527 185.6664,269.9527C185.3624,269.9521 185.0584,269.9533 184.7543,269.9538C184.3637,269.9442 183.9791,269.9535 183.5924,270.0046C183.1927,270.0591 182.7893,270.0763 182.3861,270.0873C181.9809,270.0715 181.5833,270.1461 181.1822,270.1863C180.7742,270.2231 180.3642,270.227 179.9547,270.2313C179.5246,270.2336 179.0944,270.2335 178.6643,270.232C178.2907,270.2312 177.9171,270.2307 177.5435,270.2298C177.2365,270.229 176.9295,270.2288 176.6224,270.2287C176.3309,270.2286 176.0394,270.2286 175.7479,270.2286C175.4564,270.2286 175.1649,270.2286 174.8733,270.2286C174.5546,270.2282 174.2359,270.2291 173.9172,270.2305C173.523,270.2329 173.1287,270.231 172.7344,270.2299C172.3635,270.2296 171.9927,270.2304 171.6218,270.2314C171.2251,270.2312 170.8283,270.2313 170.4316,270.2303C170.0516,270.2305 169.6717,270.2311 169.2917,270.2305C168.9461,270.2292 168.6005,270.229 168.255,270.2308C167.7218,270.2334 167.1886,270.235 166.6554,270.2368C165.9288,270.2396 165.2021,270.2402 164.4755,270.2378C163.9423,270.2365 163.409,270.2326 162.8758,270.2324C162.4345,270.233 161.9932,270.2324 161.5519,270.2309C161.4908,270.2307 161.4297,270.2305 161.3686,270.2303L163.1146,271.4296C163.1751,271.4294 163.2356,271.4292 163.2961,271.429C163.7359,271.4275 164.1758,271.4268 164.6156,271.4275C165.1436,271.4273 165.6715,271.4234 166.1995,271.4221C166.9271,271.4196 167.6547,271.4203 168.3823,271.423C168.9214,271.4249 169.4605,271.4265 169.9996,271.4291C170.3454,271.4308 170.6912,271.4307 171.037,271.4294C171.4172,271.4288 171.7973,271.4293 172.1774,271.4295C172.5731,271.4285 172.9688,271.4286 173.3645,271.4285C173.7368,271.4295 174.1092,271.4302 174.4815,271.43C174.8752,271.4289 175.2688,271.427 175.6625,271.4293C175.983,271.4307 176.3036,271.4317 176.6242,271.4313C176.9157,271.4313 177.2073,271.4313 177.4989,271.4313C177.7903,271.4313 178.0817,271.4313 178.3731,271.4312C178.6791,271.4311 178.9852,271.4309 179.2911,271.4303C179.6632,271.4296 180.0352,271.4294 180.4072,271.4294C180.8374,271.4285 181.2675,271.4301 181.6977,271.4253C182.1124,271.4197 182.5279,271.4108 182.9404,271.3658C183.3372,271.3213 183.7324,271.2686 184.1335,271.2789C184.5412,271.2637 184.9483,271.2354 185.3527,271.1821C185.7347,271.1417 186.1181,271.1529 186.502,271.1543C186.8072,271.1549 187.1123,271.1561 187.4175,271.1554C187.7096,271.1555 188.0017,271.1555 188.2938,271.1551C188.6526,271.1544 189.0115,271.153 189.3703,271.1508C189.9235,271.148 190.4769,271.1446 191.03,271.1549L189.2806,269.9533z" stroke="#000" stroke-linecap="square" stroke-linejoin="round" stroke-width=".4767"/>
<path d="M102.9968,270.2554C102.0447,270.2666 101.0923,270.2651 100.1401,270.2647C99.2673,270.2638 98.3945,270.2621 97.5217,270.2593C96.9385,270.2571 96.3552,270.257 95.7719,270.2565C95.3123,270.2557 94.8527,270.2549 94.393,270.2545C93.9915,270.2751 93.6057,270.1997 93.211,270.1634C92.8152,270.131 92.4161,270.1263 92.0179,270.123C91.6227,270.1209 91.2274,270.1218 90.8322,270.1221C90.4375,270.1225 90.0428,270.1227 89.6481,270.1227C89.2534,270.1228 88.8587,270.1228 88.464,270.1228C88.0693,270.1228 87.6746,270.1228 87.2799,270.1228C86.8561,270.1222 86.4323,270.1238 86.0086,270.1239C85.5794,270.1236 85.1503,270.1232 84.7212,270.123C84.3237,270.1228 83.9262,270.1228 83.5288,270.1228C83.2659,270.1228 83.3974,270.1228 83.1345,270.1228L85.503,271.268C85.7658,271.268 85.6344,271.268 85.8972,271.268C86.2944,271.268 86.6916,271.268 87.0887,271.2678C87.5167,271.2676 87.9446,271.2671 88.3725,271.2669C88.7978,271.2669 89.223,271.2686 89.6483,271.268C90.043,271.268 90.4377,271.268 90.8324,271.268C91.2272,271.268 91.6219,271.268 92.0166,271.2679C92.4114,271.2678 92.8061,271.2675 93.2008,271.2672C93.5949,271.267 93.9889,271.2662 94.3829,271.2713C94.7743,271.2783 95.1663,271.2899 95.5534,271.3318C95.9539,271.3749 96.3522,271.4182 96.7601,271.399C97.217,271.3986 97.6738,271.3978 98.1307,271.397C98.71,271.3965 99.2893,271.3964 99.8686,271.3941C100.734,271.3913 101.5995,271.3896 102.465,271.3888C103.43,271.3884 104.3952,271.387 105.36,271.3981L102.9968,270.2554z" stroke="#000" stroke-linecap="square" stroke-linejoin="round" stroke-width=".541"/>
<path d="M156.4213,270.465C155.4178,270.5259 154.4054,270.5451 153.3945,270.5595C152.4922,270.5699 151.5895,270.5699 150.687,270.5688C149.942,270.5683 149.1969,270.5682 148.4518,270.5673C146.9562,270.5858 145.4597,270.5767 143.9638,270.5734C143.0599,270.5702 142.156,270.5689 141.2521,270.5671C140.5313,270.5672 139.8105,270.5668 139.0896,270.5677C138.3318,270.5688 137.574,270.5668 136.8162,270.5674C136.1325,270.5666 135.4486,270.5667 134.7649,270.5668C134.0801,270.5673 133.3952,270.567 132.7104,270.5663C132.0562,270.5674 131.4021,270.5664 130.7479,270.5659C130.1078,270.5672 129.4677,270.5663 128.8277,270.5659C128.2624,270.5655 127.697,270.5654 127.1316,270.5653C126.6588,270.618 126.1831,270.656 125.698,270.6743C125.172,270.6898 124.6445,270.6898 124.1176,270.6905C123.5694,270.6907 123.0212,270.6902 122.473,270.6899C122.1985,270.6898 121.9241,270.6897 121.6497,270.6897L124.9403,271.7735C125.2147,271.7736 125.489,271.7737 125.7635,271.7738C126.3123,271.7741 126.8611,271.7748 127.41,271.7735C127.9459,271.7713 128.483,271.769 129.0167,271.7436C129.4877,271.7172 129.9488,271.6628 130.4222,271.649C130.9864,271.649 131.5506,271.6488 132.1148,271.6485C132.7548,271.648 133.3948,271.6472 134.0347,271.6484C134.6881,271.6479 135.3415,271.647 135.9949,271.648C136.6788,271.6474 137.3626,271.647 138.0465,271.6476C138.7291,271.6477 139.4117,271.6477 140.0943,271.647C140.8515,271.6475 141.6087,271.6455 142.3659,271.6467C143.0879,271.6476 143.8098,271.6472 144.5317,271.6472C145.4229,271.6454 146.314,271.6442 147.2052,271.6409C148.7139,271.6376 150.2231,271.629 151.7315,271.6476C152.4753,271.6472 153.2192,271.648 153.963,271.6472C154.8623,271.6447 155.7616,271.6413 156.6605,271.6269C157.6898,271.6078 158.7179,271.5784 159.7429,271.5305L156.4213,270.465z" stroke="#000" stroke-linecap="square" stroke-linejoin="round" stroke-width=".6203"/>
<path d="M176.5831,232.5798L176.5831,251.1231" fill="none" stroke="#000" stroke-linecap="round" stroke-width="4.8046"/>
<path d="M167.0591,230.8255L167.0591,249.3687" fill="none" stroke="#000" stroke-linecap="round" stroke-width="4.8046"/>
<path d="M158.1222,232.2898L158.1222,250.833" fill="none" stroke="#000" stroke-linecap="round" stroke-width="4.8046"/>
<path d="M146.4455,231.1226L146.4455,249.6658" fill="none" stroke="#000" stroke-linecap="round" stroke-width="4.8046"/>
<path d="M136.2868,233.3092L136.2868,251.8524" fill="none" stroke="#000" stroke-linecap="round" stroke-width="4.8046"/>
<path d="M124.6576,233.1338L124.6576,251.677" fill="none" stroke="#000" stroke-linecap="round" stroke-width="4.8046"/>
<path d="M114.155,231.4196L114.155,249.9629" fill="none" stroke="#000" stroke-linecap="round" stroke-width="4.8046"/>
<path d="M104.2396,234.4565L104.2396,252.9998" fill="none" stroke="#000" stroke-linecap="round" stroke-width="4.8046"/>
<path d="M93.5666,234.0878L93.5666,252.6311" fill="none" stroke="#000" stroke-linecap="round" stroke-width="4.8046"/>
<path d="M146.1994,309.1623L119.0765,304.7341" fill="none" stroke="#000" stroke-width=".7749"/>
<path d="M184.4673,237.3101L184.4673,255.8533" fill="none" stroke="#000" stroke-linecap="round" stroke-width="4.8046"/>
<g transform="matrix(1.20124,0,0,1,-615.65511,632.87584)">
<path d="M1013.7151,-530.8745H1138.6816A13.0878,13.0878 0 0 1 1151.7694,-517.7867V-495.7367A13.0878,13.0878 0 0 1 1138.6816,-482.649H1013.7151A13.0878,13.0878 0 0 1 1000.6273,-495.7367V-517.7867A13.0878,13.0878 0 0 1 1013.7151,-530.8745z" stroke="#000" stroke-linecap="round" stroke-linejoin="round" stroke-width="1.9703" transform="matrix(1,0,.84988,.52697,0,0)"/>
<path d="M602.1455,-296.3292H607.6698A4.1432,4.1432 0 0 1 611.813,-292.186V-261.8025A4.1432,4.1432 0 0 1 607.6698,-257.6593H602.1455A4.1432,4.1432 0 0 1 598.0023,-261.8025V-292.186A4.1432,4.1432 0 0 1 602.1455,-296.3292z" fill="#fff" stroke="#000" stroke-linecap="round" stroke-linejoin="round" stroke-width="3.642"/>
<path d="M707.3829,-296.3292H712.9072A4.1432,4.1432 0 0 1 717.0504,-292.186V-261.8025A4.1432,4.1432 0 0 1 712.9072,-257.6593H707.3829A4.1432,4.1432 0 0 1 703.2397,-261.8025V-292.186A4.1432,4.1432 0 0 1 707.3829,-296.3292z" fill="#fff" stroke="#000" stroke-linecap="round" stroke-linejoin="round" stroke-width="3.642"/>
<path d="M684.1809,-308.4826H689.7052A4.1432,4.1432 0 0 1 693.8484,-304.3394V-273.9559A4.1432,4.1432 0 0 1 689.7052,-269.8127H684.1809A4.1432,4.1432 0 0 1 680.0377,-273.9559V-304.3394A4.1432,4.1432 0 0 1 684.1809,-308.4826z" fill="#fff" stroke="#000" stroke-linecap="round" stroke-linejoin="round" stroke-width="3.642"/>
<path d="M576.4576,-311.7971H581.9819A4.1432,4.1432 0 0 1 586.1251,-307.6539V-277.2705A4.1432,4.1432 0 0 1 581.9819,-273.1272H576.4576A4.1432,4.1432 0 0 1 572.3144,-277.2705V-307.6539A4.1432,4.1432 0 0 1 576.4576,-311.7971z" fill="#fff" stroke="#000" stroke-linecap="round" stroke-linejoin="round" stroke-width="3.642"/>
<path d="M1076.8467,-603.2072H1201.8132A13.0878,13.0878 0 0 1 1214.901,-590.1194V-568.0694A13.0878,13.0878 0 0 1 1201.8132,-554.9817H1076.8467A13.0878,13.0878 0 0 1 1063.7589,-568.0694V-590.1194A13.0878,13.0878 0 0 1 1076.8467,-603.2072z" fill="#fff" stroke="#000" stroke-linecap="round" stroke-linejoin="round" stroke-width="1.9703" transform="matrix(1,0,.84988,.52697,0,0)"/>
<path d="M1082.5307,-610.5453H1207.4972A13.0878,13.0878 0 0 1 1220.585,-597.4575V-575.4075A13.0878,13.0878 0 0 1 1207.4972,-562.3197H1082.5307A13.0878,13.0878 0 0 1 1069.4429,-575.4075V-597.4575A13.0878,13.0878 0 0 1 1082.5307,-610.5453z" fill="#fff" stroke="#000" stroke-linecap="round" stroke-linejoin="round" stroke-width="1.9703" transform="matrix(1,0,.84988,.52697,0,0)"/>
</g>
</g>
<g transform="matrix(.12574,0,0,.12574,819.66873,426.39419)">
<path d="M162.9615,-66.1029C166.455,-62.0454 171.1969,-61.5587 176.2443,-61.2734C182.6298,-61.4455 189.026,-62.9739 194.9925,-65.2443C198.1805,-66.4574 199.9424,-67.4904 202.9171,-69.0527C185.1139,-58.637 195.0252,-64.2154 198.3536,-67.7512C200.078,-69.5831 201.1079,-71.5131 202.0803,-73.8002C204.6069,-80.9176 204.9343,-88.5711 205.3652,-96.044C206.205,-106.9224 203.9531,-117.6028 201.5284,-128.1342C198.5789,-139.2121 194.5731,-149.9773 190.1613,-160.547C188.0488,-165.5407 185.6597,-170.4087 183.3326,-175.3036C180.1965,-181.3209 177.6309,-177.584 195.344,-184.4552C195.9544,-184.6919 196.0751,-183.3682 196.4662,-182.8431C197.1211,-181.9638 197.8094,-181.1099 198.4809,-180.2434C205.0155,-171.2763 212.8739,-163.4194 220.7492,-155.6472C225.3824,-151.1349 230.3508,-146.9467 234.7812,-142.2286C236.4627,-140.8555 237.4679,-138.92 238.8212,-137.2745C240.143,-136.0803 241.1771,-137.3375 242.3452,-138.1546C221.9421,-125.9198 229.2084,-129.8742 233.1206,-133.6257C234.6613,-135.103 236.1138,-136.6818 237.5889,-138.2234C239.6824,-140.3121 241.6662,-142.5484 243.9587,-144.4296C250.0105,-149.3955 258.4541,-153.3638 264.7123,-156.9238C270.4949,-159.4778 276.4106,-161.6997 282.419,-163.6577C283.6619,-163.9272 288.4708,-165.7766 289.5688,-164.5267C289.8243,-164.2359 289.9278,-163.8408 290.1072,-163.4978C290.1321,-163.1471 290.2293,-162.7941 290.1818,-162.4458C289.8354,-159.9037 285.8996,-156.946 284.1819,-155.3646C276.2864,-148.8374 268.6258,-142.0481 261.3333,-134.8534C254.99,-128.0483 248.4375,-121.3307 243.3873,-113.4811C240.2691,-108.5784 238.6116,-103.1651 237.8336,-97.4612C237.3182,-92.3602 237.4023,-87.2238 237.4103,-82.1038C237.6896,-76.538 238.3996,-70.961 240.0566,-65.6294C241.0066,-62.7897 242.6958,-60.7035 245.3984,-59.4565C247.1918,-58.8245 249.2452,-58.4083 251.1546,-58.7689C251.5988,-58.8529 255.3028,-60.1078 255.5991,-60.2068C259.9663,-62.5901 270.5149,-68.1635 250.7739,-57.3451C249.993,-56.9172 252.2774,-58.3004 253.0176,-58.7957C254.7175,-59.9333 255.126,-60.2677 256.721,-61.457C258.634,-62.8882 257.7277,-62.1927 259.444,-63.5378L273.1151,-69.0361C271.3827,-67.5797 272.3103,-68.3061 270.3191,-66.8738C262.2562,-60.6484 253.3247,-55.4952 244.0683,-51.2776C240.0071,-50.0654 237.0083,-49.4853 233.0532,-51.3558C230.1407,-52.9982 228.2379,-55.381 227.2136,-58.6022C225.5902,-64.0918 224.9779,-69.8068 224.4451,-75.4915C224.414,-80.6627 224.3292,-85.8471 224.7473,-91.006C225.4856,-96.9163 227.043,-102.5571 230.2219,-107.6713C230.8593,-108.7308 231.4383,-109.8277 232.1341,-110.8497C233.5635,-112.949 235.6974,-115.3519 237.3267,-117.2406C240.9264,-121.4136 244.6087,-125.5129 248.4113,-129.5027C255.5038,-136.6573 262.9793,-143.4183 270.7308,-149.8547C272.9266,-151.8936 275.199,-153.8815 277.0938,-156.2117C277.4084,-156.0458 276.3957,-156.0728 276.0435,-156.0235C274.2856,-155.7778 272.5938,-155.2318 270.901,-154.7183C264.9598,-152.7572 259.0786,-150.5816 253.4382,-147.8602C272.8794,-159.3576 261.1903,-152.8293 257.3908,-149.9058C255.0765,-148.125 253.0963,-145.926 251.0661,-143.8444C243.704,-136.0782 243.2815,-135.2558 230.8263,-128.8268C228.7851,-127.8625 227.644,-127.977 226.0472,-129.6547C224.7873,-131.3205 223.7779,-133.1781 222.2218,-134.6111C217.9797,-139.4028 213.2498,-143.7505 208.7563,-148.2998C200.956,-156.2393 193.036,-164.0853 186.0942,-172.8083C185.3483,-173.6466 184.6017,-174.4843 183.8565,-175.3233C183.4425,-175.7895 182.1438,-176.3177 182.6168,-176.7238C193.8626,-186.3779 193.2258,-188.9054 196.1308,-182.5316C198.3231,-177.537 200.6341,-172.5923 202.629,-167.5129C206.8035,-156.7535 210.6525,-145.8567 213.8046,-134.7502C216.3374,-124.1716 218.8429,-113.4256 218.1141,-102.4633C217.8266,-94.9202 217.3841,-87.2389 215.3364,-79.9427C214.6632,-78.0762 214.4306,-77.1236 213.3557,-75.4158C208.633,-67.9123 198.4469,-64.3688 191.7517,-60.1093C183.2311,-55.9217 174.1664,-52.9607 164.5762,-52.9176C163.243,-53.0245 161.8998,-53.0436 160.5765,-53.2383C156.6356,-53.8182 152.962,-55.54 150.2346,-58.4617L162.9615,-66.1029z" stroke="#000" stroke-linecap="round" stroke-linejoin="round" stroke-width="2"/>
<path d="M285.1504,-83.2549C279.2704,-81.6082 266.5253,-73.74 288.7732,-86.471C285.6873,-84.8287 283.8556,-82.1564 282.4117,-79.0736C281.5877,-76.6037 280.7082,-73.8959 280.8873,-71.2445C281.0112,-69.4099 281.4883,-68.4885 282.1122,-66.775C284.5548,-61.9495 288.3109,-57.9808 292.7681,-54.9746C296.0578,-52.6838 299.7974,-51.6413 303.7669,-51.5931C306.8299,-52.2892 309.6761,-53.4821 312.4808,-54.8725C313.6763,-55.4652 317.18,-57.4003 316.0334,-56.7177C302.8176,-48.8508 306.1278,-50.9743 310.8042,-54.1772C314.6548,-57.1431 318.8403,-60.5843 319.8322,-65.6282C319.9707,-66.3328 319.9608,-67.0585 320.0251,-67.7736C319.7705,-74.0822 315.7842,-79.021 311.938,-83.6853C309.5135,-86.3835 306.7679,-88.9566 303.4532,-90.5325C301.7709,-91.3322 300.9086,-91.4744 299.127,-91.9474C295.533,-92.1428 291.7665,-91.8011 288.3544,-90.5627C286.7769,-89.9902 284.386,-88.6593 282.9199,-87.8841C302.9062,-99.8746 289.8107,-91.9587 285.6886,-88.3736L272.0851,-82.8087C278.4156,-88.898 286.8685,-92.4857 294.2269,-96.9393C296.3627,-97.9778 297.6236,-98.6956 299.9061,-99.3886C303.5386,-100.4916 307.4494,-100.7491 311.1907,-100.1978C313.1147,-99.5839 313.8945,-99.429 315.7014,-98.4661C319.0659,-96.6731 321.8405,-93.9498 324.3224,-91.1058C328.3687,-86.1242 332.4762,-80.9616 333.0924,-74.3305C333.0628,-73.5258 333.1121,-72.7144 333.0035,-71.9165C332.2653,-66.4892 328.2283,-62.6312 324.1231,-59.4248C316.1605,-53.7094 320.2406,-56.4756 304.8488,-47.7573C300.8383,-45.4856 296.4513,-43.5622 291.8451,-43.0245C287.6957,-43.3915 283.8349,-44.6143 280.4546,-47.1325C275.8828,-50.4672 272.0386,-54.677 269.3612,-59.693C268.7366,-61.3275 268.0271,-62.8838 267.8135,-64.6468C267.4791,-67.4079 268.3981,-70.3095 269.0633,-72.941C270.3422,-76.1902 271.9653,-79.2701 275.0209,-81.1777C282.2031,-85.3118 288.9239,-90.0555 296.9357,-92.2666L285.1504,-83.2549z" stroke="#000" stroke-linecap="round" stroke-linejoin="round" stroke-width="2"/>
<path d="M347.1504,-77.2549C344.6035,-76.4403 341.9575,-75.7416 339.5363,-74.5814C338.7232,-74.1918 337.9599,-73.7059 337.1716,-73.2681C340.5173,-75.1416 343.863,-77.0152 347.2087,-78.8887C343.2371,-76.2087 340.2901,-73.5303 338.5132,-69.0387C337.3505,-65.3388 337.9081,-62.2103 340.8379,-59.4732C341.5453,-58.8124 342.3768,-58.2984 343.1462,-57.711C348.7467,-54.4938 355.3758,-53.3418 361.7904,-54.0225C363.6291,-54.2176 365.4327,-54.663 367.2538,-54.9833C371.4683,-56.0713 373.305,-56.374 377.2631,-58.0355C378.5761,-58.5866 382.3128,-60.6635 381.0902,-59.9334C363.2909,-49.3046 371.3475,-53.9354 374.1428,-56.7651C374.7627,-57.3926 375.255,-58.1344 375.8111,-58.8191C378.2486,-62.6326 378.3111,-66.0246 376.5942,-70.0879C376.279,-70.8016 374.4627,-74.5447 373.1819,-73.7346C372.9601,-73.5943 372.8477,-73.33 372.6807,-73.1277C392.8977,-84.6564 385.2006,-82.7287 383.2398,-77.11C382.3936,-74.6854 382.2459,-72.3278 382.1295,-69.7816C383.5341,-57.9615 388.7559,-47.0167 393.0457,-36.0346C398.2618,-21.5258 403.2897,-6.47 403.8684,9.092C403.9836,12.189 403.6821,15.2876 403.5889,18.3853C403.1263,21.364 402.8671,24.3813 402.2011,27.3212C400.0287,36.9109 395.0849,45.6892 387.7437,52.2682C386.4496,53.4279 384.9846,54.3816 383.6051,55.4383C378.0848,58.3221 372.8336,61.7934 367.0443,64.0899C364.6445,65.0418 358.8518,63.0561 356.9529,62.2095C349.8949,59.0631 343.7992,53.895 337.8032,49.1621C327.688,40.5031 317.7846,31.4711 308.7355,21.6837C304.0475,16.6133 302.8886,14.9067 298.8166,9.6614C295.3512,3.8792 291.2661,-2.8245 294.6732,-9.6402C296.6895,-13.6737 299.1232,-15.1372 302.5004,-18.074C312.6219,-24.6327 313.4505,-25.3796 328.104,-32.7999C331.6804,-34.6109 343.2136,-38.7065 346.7432,-39.9379C353.7819,-42.3937 361.3514,-44.8267 368.4293,-47.1393C387.0233,-52.5028 405.2349,-59.0355 423.2344,-66.1176C424.7623,-66.7671 426.2923,-67.4118 427.8181,-68.0661C428.9838,-68.566 430.1581,-69.0469 431.3089,-69.5801C433.6612,-70.67 435.8588,-72.019 438.2856,-72.9431C441.5765,-73.4124 442.7308,-69.4505 443.7159,-67.0436C445.9847,-60.9159 447.263,-54.4902 447.8147,-47.9941C447.9509,-45.0837 448.0453,-42.1595 447.6331,-39.2662C447.5909,-38.9704 447.7439,-38.5103 447.473,-38.3842C443.0642,-36.3309 438.4604,-34.7251 433.9541,-32.8956C433.9659,-33.7909 433.9166,-34.689 433.9896,-35.5814C434.0957,-36.8799 434.3191,-38.1662 434.4903,-39.4578C435.49,-46.9958 436.7994,-54.4336 438.3334,-61.8806C439.8884,-68.3767 441.231,-75.18 444.9433,-80.8503C449.1473,-85.2518 458.497,-93.9297 463.0497,-88.879C463.5264,-88.3501 463.8605,-87.7082 464.2658,-87.1228C465.1568,-85.5475 465.9266,-84.351 466.5095,-82.6055C468.1484,-77.6977 468.884,-71.9449 469.7517,-66.8403C470.8843,-62.4227 470.4525,-57.1322 471.7929,-52.8005C473.5655,-57.562 471.775,-52.58 459.0435,-46.5094C458.7853,-46.3863 459.4327,-46.9346 459.5772,-47.1814C459.9087,-47.7474 460.5577,-49.4088 460.8105,-49.919C461.1553,-50.6152 461.549,-51.286 461.9182,-51.9694C464.3127,-55.807 466.3395,-59.8622 468.9779,-63.5425C473.3892,-69.0698 477.5158,-70.2762 485.1519,-74.4725C485.4138,-74.6164 485.7664,-74.5326 486.0475,-74.431C486.4054,-74.3016 486.6836,-74.0129 487.0016,-73.8039C489.988,-70.6628 491.0279,-66.2182 492.0362,-62.1278C492.9125,-57.6742 493.3814,-53.131 495.0104,-48.8712C495.4071,-48.3128 495.7311,-47.6948 496.2004,-47.1959C499.6185,-43.5623 505.2722,-40.8461 509.9343,-39.3687C511.6885,-38.8128 513.4959,-38.4411 515.2767,-37.9773C522.8167,-36.0961 530.3825,-36.0026 537.8823,-38.0643C539.5423,-38.5206 541.2095,-38.9969 542.7819,-39.6981C544.2464,-40.3512 545.5581,-41.3036 546.9463,-42.1064C544.0584,-40.6163 541.3829,-38.6098 538.2826,-37.636C537.087,-37.2605 540.1428,-39.3201 540.9963,-40.2377C543.5122,-42.9425 544.9507,-45.9503 545.9633,-49.4488C546.6579,-52.3622 546.6456,-55.3557 546.5652,-58.3283C545.753,-64.4645 540.332,-58.4252 559.1,-66.0472C559.4417,-66.186 558.8994,-65.3356 558.842,-64.9712C558.7584,-64.4412 558.7327,-63.9037 558.678,-63.37C558.4116,-58.5352 558.3011,-53.6898 558.8385,-48.8729C559.3853,-45.774 559.9781,-42.6077 562.4072,-40.4324C564.1162,-39.3075 565.9299,-39.231 567.8176,-39.8486C572.3605,-42.1411 579.1794,-46.118 558.5218,-34.4558C557.7888,-34.042 559.9393,-35.3644 560.6358,-35.837L574.3857,-41.3039C573.3212,-40.43 573.5147,-40.5201 572.2923,-39.8054C567.6471,-37.0896 561.8948,-32.5533 556.0168,-30.8992C553.7225,-30.6532 551.5833,-31.1524 549.789,-32.6773C547.292,-35.2807 546.4771,-38.6003 545.9205,-42.101C545.3299,-46.9737 545.4484,-51.8684 545.5121,-56.7697C545.5317,-57.4241 545.5891,-59.6985 545.6353,-59.7292C555.3623,-66.1895 558.5071,-72.3046 559.7414,-65.0828C559.8109,-61.9585 559.8144,-58.8161 559.1617,-55.7418C555.9603,-42.9865 547.5064,-40.0804 535.8851,-33.2002C534.4562,-32.4798 533.0874,-31.625 531.5984,-31.0388C522.6477,-27.5147 512.8948,-27.7976 503.6881,-30.0046C501.849,-30.4923 499.9816,-30.8834 498.1708,-31.4678C493.5394,-32.9624 487.0263,-36.1598 483.6105,-39.7531C483.0478,-40.345 482.6426,-41.0688 482.1586,-41.7267C480.5349,-46.0707 480.067,-50.6739 479.2315,-55.2142C478.3895,-58.7321 477.5533,-63.083 474.6465,-65.525C473.9606,-65.439 474.3146,-65.5425 473.6055,-65.1501C477.5343,-67.4822 481.4631,-69.8142 485.392,-72.1463C485.7243,-72.3373 484.7836,-71.6778 484.5048,-71.4148C483.8053,-70.7548 483.2382,-69.9617 482.4827,-69.3567C479.6627,-65.8118 477.6289,-61.7908 475.2736,-57.9352C474.3882,-56.4197 473.6566,-54.9774 473.0931,-53.3151C472.9783,-52.9764 473.1056,-52.4677 472.7992,-52.2834C459.5044,-44.2868 462.4531,-41.0521 458.7423,-45.7121C457.6264,-50.4162 458.1984,-55.4103 457.1115,-60.1366C456.048,-66.7522 455.2298,-73.8382 451.6337,-79.6263C451.0084,-80.3781 450.7399,-81.067 449.7463,-81.2506C449.4773,-81.3003 448.6972,-81.0264 448.9293,-81.1714C452.7843,-83.5799 456.7874,-85.7435 460.684,-88.0841C461.0341,-88.2944 459.9199,-87.7826 459.574,-87.5654C459.1661,-87.3094 458.8163,-86.9709 458.4374,-86.6736C454.0539,-81.4464 452.7319,-74.3891 450.9594,-67.9864C448.9624,-58.7542 447.2481,-49.392 446.9663,-39.9303C442.6611,-37.2917 438.4431,-34.5055 434.0509,-32.0145C433.809,-31.8773 434.2913,-32.5188 434.3689,-32.7859C435.1731,-35.5526 434.9442,-38.4808 434.9437,-41.3192C434.5725,-47.6693 433.3852,-53.9844 430.9595,-59.8902C430.4967,-60.9584 429.6461,-64.0551 428.0273,-64.1645C427.6519,-64.1899 426.9629,-63.8928 426.664,-63.7855C421.876,-61.6536 417.2258,-59.2069 412.2498,-57.5029C394.41,-50.7931 376.4177,-44.5046 358.1221,-39.1385C347.5024,-35.6251 336.8084,-32.2298 326.4071,-28.0958C323.4132,-26.9058 320.6723,-24.9485 317.5147,-24.3088C315.893,-23.9803 323.0914,-27.8472 321.6038,-27.1227C319.4346,-26.0663 317.5039,-24.5777 315.454,-23.3052C311.6254,-20.2317 306.9304,-17.0518 306.0231,-11.7537C305.1302,-6.539 308.4514,-1.7173 310.6976,2.6064C312.0867,4.5044 313.4087,6.4534 314.865,8.3002C324.8107,20.9133 336.9125,31.7349 349.2333,41.9507C355.2776,46.4639 361.4425,51.5105 368.5887,54.2474C370.2378,54.879 371.9681,55.3572 373.7232,55.5527C375.2204,55.7194 379.0476,54.0524 378.2367,55.3221C376.5481,57.9662 373.0607,58.8689 370.4727,60.6424C371.9211,59.6313 373.4539,58.7314 374.818,57.609C382.3953,51.3747 387.7065,42.7683 390.0706,33.2575C390.7888,30.3679 391.0696,27.3869 391.5691,24.4516C391.713,21.3964 392.0786,18.3436 392.0007,15.286C391.6074,-.1509 386.3714,-15.0473 381.0958,-29.3649C376.6203,-40.4339 371.1739,-51.3452 369.2251,-63.2235C369.1596,-66.0352 369.2286,-68.1755 369.9092,-70.8957C369.9473,-71.0478 370.7023,-73.7558 371.0384,-73.9872C375.3553,-76.9602 379.9527,-79.5037 384.4099,-82.2619C384.7489,-82.2349 385.0988,-82.2704 385.4268,-82.1807C387.5325,-81.605 388.5419,-78.9921 389.422,-77.2845C391.2962,-72.8589 391.5534,-68.921 389.1687,-64.5737C388.6277,-63.7989 388.1602,-62.9673 387.5458,-62.2493C383.155,-57.1183 374.373,-53.5169 369.904,-51.0303C365.6297,-48.6519 360.7122,-47.6351 356.0106,-46.5342C354.1284,-46.2519 352.2609,-45.8421 350.3638,-45.6872C343.5879,-45.1342 336.6659,-46.3505 330.8819,-49.9878C330.0515,-50.6505 329.1568,-51.2399 328.3906,-51.9759C325.1513,-55.0883 324.1401,-58.5232 325.2119,-62.8203C326.8277,-67.9581 329.3611,-70.4448 333.6797,-73.6076C342.0135,-78.5311 349.5479,-83.9618 358.9357,-86.2666L347.1504,-77.2549z" stroke="#000" stroke-linecap="round" stroke-linejoin="round" stroke-width="2"/>
<path d="M549.2332,-122.1847C547.4497,-120.0919 546.0244,-117.6969 545.3462,-115.0219C544.8607,-112.3468 546.4564,-111.6609 548.6501,-110.701C552.1989,-109.4013 555.2322,-109.544 558.8667,-110.1867C563.727,-111.8529 571.4457,-116.6009 549.8419,-104.683C549.5386,-104.5156 550.4174,-105.0731 550.6735,-105.3066C551.283,-105.8622 551.3443,-106.0922 551.7431,-106.7885C552.4769,-108.4348 552.405,-109.9757 551.4599,-111.492C550.2026,-112.6833 548.3125,-112.5716 546.6902,-112.6506C545.0147,-112.4957 543.4191,-112.0801 542.057,-111.0753L553.6269,-120.3929C555.2743,-121.0166 556.9597,-121.4107 558.7396,-121.2691C560.8571,-121.0599 562.9403,-120.7594 564.3134,-118.9498C565.4318,-117.0683 565.8738,-115.1231 565.2275,-112.9755C562.8838,-105.9037 553.9818,-103.0447 547.0943,-101.3611C543.4244,-100.8997 539.7964,-101.101 536.3461,-102.5755C533.866,-103.8553 531.6424,-105.4567 532.0181,-108.5614C532.4759,-111.4436 533.8818,-114.0254 535.5706,-116.3799L549.2332,-122.1847z" stroke="#000" stroke-linecap="round" stroke-linejoin="round" stroke-width="2"/>
<path d="M359.6057,-86.1453C362.4187,-87.5125 365.103,-89.129 368.0047,-90.3079C369.8229,-91.4887 371.8175,-92.0343 373.9447,-92.2669C375.9013,-92.4156 377.8658,-92.3906 379.8266,-92.3838C381.7726,-92.5908 383.4211,-92.0588 385.1306,-91.2244C386.3272,-90.2653 387.2717,-88.9911 388.1806,-87.7589C388.971,-86.3232 389.4355,-84.7124 389.9217,-83.1481C390.3578,-81.5453 390.9514,-80.0138 391.2655,-78.376C391.5681,-76.4533 391.5887,-74.5022 391.6123,-72.5605C391.6209,-71.5593 391.6196,-70.5581 391.6191,-69.5568L378.4016,-62.8239C378.4031,-63.8201 378.4051,-64.8163 378.4006,-65.8125C378.3869,-67.6761 378.3836,-69.5468 378.1492,-71.3987C377.8884,-72.9952 377.3044,-74.4635 376.8794,-76.0128C376.4669,-77.4199 376.0218,-78.8533 375.3829,-80.165C374.6051,-81.185 373.8481,-82.3496 372.73,-83.0103C371.1597,-83.6924 369.5221,-83.7365 367.825,-83.6633C365.9059,-83.6547 363.9742,-83.6641 362.0745,-83.3541C360.0654,-82.9292 358.2552,-82.0648 356.4262,-81.1471C353.5803,-79.8236 350.8275,-78.3064 348.069,-76.8116L359.6057,-86.1453z" stroke="#000" stroke-linecap="round" stroke-linejoin="round" stroke-width="2"/>
</g>
<path d="M59.2501,51.952H246.1283A15.9099,15.9099 0 0 1 262.0382,67.8619V67.8619A15.9099,15.9099 0 0 1 246.1283,83.7718H59.2501A15.9099,15.9099 0 0 1 43.3401,67.8619V67.8619A15.9099,15.9099 0 0 1 59.2501,51.952z" fill="#fff" stroke="#000" stroke-linecap="round" stroke-linejoin="round" stroke-width="4"/>
<path d="M101.5203,44.9288A36.8706,34.8503 0 1 1 27.7792,44.9288A36.8706,34.8503 0 1 1 101.5203,44.9288z" stroke="#000" stroke-linecap="round" stroke-linejoin="round" stroke-width="7.491" transform="matrix(.7121,0,0,.7121,-1.94617,29.57488)"/>
<text font-family="Bitstream Vera Sans" font-size="40" x="19.7031" y="75.6094">
   <tspan fill="#f9f9f9" x="19.7031" y="75.6094">49</tspan>
  </text>
<text font-family="Bitstream Vera Sans" font-size="20" x="101.9216" y="75.7338">
   <tspan x="101.9216" y="75.7338">Entretiens</tspan>
  </text>
<path d="M446.8915,78.4154A61.5183,5.3033 0 1 1 323.8549,78.4154A61.5183,5.3033 0 1 1 446.8915,78.4154z" stroke="#000" stroke-linecap="round" stroke-width="4.862" transform="translate(-177.264,242.1307)"/>
<path d="M261.8673,233.6586L261.8673,281.5471C261.8673,301.5541 245.7606,317.6608 225.7536,317.6608L190.3196,317.6608C170.3126,317.6608 154.2059,301.5541 154.2059,281.5471L154.2059,233.6586" fill="#fff" stroke="#000" stroke-linecap="round" stroke-linejoin="round" stroke-width="3.642"/>
<path d="M171.2539,253.4701H194.7879A.7803,.7803 0 0 1 195.5682,254.2504V264.2765A.7803,.7803 0 0 1 194.7879,265.0568H171.2539A.7803,.7803 0 0 1 170.4736,264.2765V254.2504A.7803,.7803 0 0 1 171.2539,253.4701z" stroke="#000" stroke-linecap="square" stroke-linejoin="round" stroke-width="3.7338"/>
<path d="M216.6448,253.4701H237.0577A2.3409,2.3409 0 0 1 239.3986,255.811V262.7159A2.3409,2.3409 0 0 1 237.0577,265.0568H216.6448A2.3409,2.3409 0 0 1 214.304,262.7159V255.811A2.3409,2.3409 0 0 1 216.6448,253.4701z" stroke="#000" stroke-linecap="square" stroke-linejoin="round" stroke-width="3.7338"/>
<path d="M156.5141,258.5247C157.0633,258.5351 157.6126,258.5315 158.1619,258.5288C158.5249,258.5266 158.8878,258.5252 159.2508,258.5245C159.5433,258.5241 159.8358,258.5241 160.1283,258.5241C160.4323,258.5235 160.7363,258.5247 161.0404,258.5253C161.431,258.5156 161.8156,258.5249 162.2023,258.576C162.602,258.6305 163.0054,258.6477 163.4085,258.6587C163.8138,258.6429 164.2114,258.7176 164.6125,258.7577C165.0205,258.7945 165.4305,258.7984 165.8399,258.8028C166.2701,258.8051 166.7003,258.8049 167.1304,258.8034C167.504,258.8027 167.8776,258.8021 168.2512,258.8012C168.5582,258.8004 168.8653,258.8002 169.1723,258.8001C169.4638,258.8 169.7553,258.8 170.0468,258.8C170.3383,258.8 170.6299,258.8 170.9214,258.8C171.2401,258.7996 171.5588,258.8006 171.8775,258.802C172.2717,258.8043 172.666,258.8024 173.0603,258.8014C173.4312,258.8011 173.802,258.8018 174.1729,258.8028C174.5696,258.8027 174.9664,258.8028 175.3631,258.8018C175.7431,258.802 176.123,258.8025 176.503,258.8019C176.8486,258.8007 177.1942,258.8004 177.5397,258.8022C178.0729,258.8048 178.6061,258.8064 179.1393,258.8083C179.8659,258.8111 180.5926,258.8117 181.3192,258.8093C181.8524,258.8079 182.3857,258.8041 182.9189,258.8038C183.3602,258.8045 183.8015,258.8038 184.2428,258.8023C184.3039,258.8021 184.365,258.8019 184.4261,258.8017L182.6801,260.001C182.6196,260.0008 182.5591,260.0006 182.4986,260.0004C182.0588,259.9989 181.6189,259.9983 181.1791,259.9989C180.6511,259.9987 180.1232,259.9948 179.5952,259.9935C178.8676,259.991 178.14,259.9917 177.4124,259.9945C176.8733,259.9964 176.3342,259.998 175.7951,260.0005C175.4493,260.0023 175.1035,260.0021 174.7577,260.0008C174.3775,260.0002 173.9974,260.0008 173.6173,260.001C173.2216,260 172.8259,260.0001 172.4302,259.9999C172.0579,260.0009 171.6855,260.0017 171.3132,260.0014C170.9195,260.0003 170.5259,259.9984 170.1322,260.0008C169.8116,260.0022 169.4911,260.0031 169.1705,260.0027C168.879,260.0027 168.5874,260.0027 168.2958,260.0027C168.0044,260.0027 167.713,260.0027 167.4216,260.0027C167.1156,260.0025 166.8096,260.0023 166.5036,260.0017C166.1315,260.001 165.7595,260.0009 165.3875,260.0008C164.9573,260 164.5272,260.0015 164.097,259.9967C163.6823,259.9911 163.2668,259.9822 162.8543,259.9373C162.4575,259.8927 162.0623,259.8401 161.6612,259.8503C161.2534,259.8352 160.8464,259.8068 160.442,259.7536C160.0599,259.7131 159.6766,259.7244 159.2927,259.7257C158.9875,259.7263 158.6824,259.7275 158.3772,259.7269C158.0851,259.7269 157.793,259.7269 157.5009,259.7265C157.1421,259.7258 156.7832,259.7244 156.4244,259.7222C155.8712,259.7195 155.3178,259.716 154.7647,259.7263L156.5141,258.5247z" stroke="#000" stroke-linecap="square" stroke-linejoin="round" stroke-width=".4767"/>
<path d="M242.7979,258.8268C243.75,258.8381 244.7024,258.8365 245.6546,258.8361C246.5274,258.8352 247.4002,258.8335 248.273,258.8308C248.8562,258.8285 249.4395,258.8284 250.0228,258.8279C250.4824,258.8271 250.942,258.8263 251.4017,258.8259C251.8032,258.8465 252.189,258.7711 252.5837,258.7348C252.9795,258.7024 253.3786,258.6977 253.7768,258.6944C254.172,258.6924 254.5673,258.6932 254.9625,258.6936C255.3572,258.694 255.7519,258.6941 256.1466,258.6942C256.5413,258.6942 256.936,258.6942 257.3307,258.6942C257.7254,258.6942 258.1201,258.6942 258.5148,258.6942C258.9386,258.6936 259.3624,258.6952 259.7861,258.6953C260.2153,258.695 260.6444,258.6946 261.0735,258.6944C261.471,258.6942 261.8685,258.6942 262.2659,258.6942C262.5288,258.6942 262.3973,258.6942 262.6602,258.6942L260.2917,259.8394C260.0289,259.8394 260.1603,259.8394 259.8975,259.8394C259.5003,259.8394 259.1031,259.8394 258.706,259.8392C258.278,259.839 257.8501,259.8386 257.4221,259.8383C256.9969,259.8384 256.5717,259.84 256.1464,259.8394C255.7517,259.8394 255.357,259.8394 254.9623,259.8394C254.5675,259.8394 254.1728,259.8394 253.7781,259.8393C253.3833,259.8392 252.9886,259.839 252.5939,259.8386C252.1998,259.8384 251.8058,259.8376 251.4118,259.8427C251.0204,259.8498 250.6284,259.8613 250.2413,259.9033C249.8408,259.9463 249.4425,259.9896 249.0346,259.9704C248.5777,259.97 248.1209,259.9692 247.664,259.9684C247.0847,259.9679 246.5054,259.9678 245.9261,259.9656C245.0607,259.9628 244.1952,259.9611 243.3297,259.9602C242.3647,259.9598 241.3996,259.9585 240.4347,259.9695L242.7979,258.8268z" stroke="#000" stroke-linecap="square" stroke-linejoin="round" stroke-width=".541"/>
<path d="M189.3734,259.0364C190.3769,259.0973 191.3893,259.1165 192.4002,259.1309C193.3025,259.1413 194.2052,259.1413 195.1077,259.1402C195.8527,259.1397 196.5978,259.1396 197.3429,259.1388C198.8385,259.1572 200.335,259.1481 201.8309,259.1449C202.7348,259.1416 203.6387,259.1404 204.5426,259.1386C205.2634,259.1386 205.9843,259.1382 206.7051,259.1391C207.4629,259.1403 208.2207,259.1383 208.9785,259.1388C209.6623,259.1381 210.346,259.1381 211.0298,259.1382C211.7146,259.1387 212.3995,259.1384 213.0843,259.1378C213.7385,259.1388 214.3926,259.1379 215.0468,259.1374C215.6869,259.1386 216.327,259.1378 216.967,259.1373C217.5323,259.1369 218.0977,259.1368 218.6631,259.1368C219.1359,259.1895 219.6115,259.2274 220.0967,259.2457C220.6227,259.2612 221.1502,259.2613 221.6771,259.262C222.2253,259.2621 222.7735,259.2616 223.3217,259.2613C223.5961,259.2612 223.8706,259.2612 224.145,259.2611L220.8544,260.3449C220.58,260.345 220.3057,260.3451 220.0312,260.3452C219.4825,260.3455 218.9336,260.3462 218.3847,260.3449C217.8487,260.3427 217.3117,260.3404 216.778,260.315C216.307,260.2886 215.8459,260.2342 215.3725,260.2205C214.8083,260.2204 214.2441,260.2203 213.6799,260.2199C213.0399,260.2195 212.3999,260.2186 211.76,260.2199C211.1066,260.2194 210.4532,260.2184 209.7998,260.2194C209.1159,260.2188 208.4321,260.2185 207.7482,260.219C207.0656,260.2191 206.383,260.2192 205.7004,260.2184C204.9432,260.219 204.186,260.217 203.4288,260.2181C202.7068,260.219 201.9849,260.2186 201.263,260.2187C200.3718,260.2169 199.4807,260.2156 198.5895,260.2124C197.0808,260.2091 195.5716,260.2004 194.0632,260.219C193.3193,260.2186 192.5755,260.2194 191.8317,260.2187C190.9324,260.2161 190.0331,260.2127 189.1342,260.1984C188.1049,260.1793 187.0768,260.1499 186.0519,260.1019L189.3734,259.0364z" stroke="#000" stroke-linecap="square" stroke-linejoin="round" stroke-width=".6203"/>
<path d="M169.2115,221.1513L169.2115,239.6945" fill="none" stroke="#000" stroke-linecap="round" stroke-width="4.8046"/>
<path d="M178.7356,219.397L178.7356,237.9402" fill="none" stroke="#000" stroke-linecap="round" stroke-width="4.8046"/>
<path d="M187.6725,220.8613L187.6725,239.4045" fill="none" stroke="#000" stroke-linecap="round" stroke-width="4.8046"/>
<path d="M199.3492,219.694L199.3492,238.2372" fill="none" stroke="#000" stroke-linecap="round" stroke-width="4.8046"/>
<path d="M209.5079,221.8806L209.5079,240.4238" fill="none" stroke="#000" stroke-linecap="round" stroke-width="4.8046"/>
<path d="M221.1371,221.7052L221.1371,240.2485" fill="none" stroke="#000" stroke-linecap="round" stroke-width="4.8046"/>
<path d="M231.6397,219.991L231.6397,238.5343" fill="none" stroke="#000" stroke-linecap="round" stroke-width="4.8046"/>
<path d="M241.5551,223.028L241.5551,241.5712" fill="none" stroke="#000" stroke-linecap="round" stroke-width="4.8046"/>
<path d="M252.2281,222.6593L252.2281,241.2025" fill="none" stroke="#000" stroke-linecap="round" stroke-width="4.8046"/>
<path d="M161.3274,225.8815L161.3274,244.4247" fill="none" stroke="#000" stroke-linecap="round" stroke-width="4.8046"/>
<path d="M-948.3539,744.9438H-796.8689A15.0365,15.0365 0 0 1 -781.8324,759.9803V785.3135A15.0365,15.0365 0 0 1 -796.8689,800.35H-948.3539A15.0365,15.0365 0 0 1 -963.3904,785.3135V759.9803A15.0365,15.0365 0 0 1 -948.3539,744.9438z" stroke="#000" stroke-linecap="round" stroke-linejoin="round" stroke-width="2.3147" transform="matrix(-1,0,-.8886,.45868,0,0)"/>
<path d="M-238.962,325.1181H-230.6585A4.1432,4.1432 0 0 1 -226.5153,329.2613V359.6448A4.1432,4.1432 0 0 1 -230.6585,363.788H-238.962A4.1432,4.1432 0 0 1 -243.1052,359.6448V329.2613A4.1432,4.1432 0 0 1 -238.962,325.1181z" fill="#fff" stroke="#000" stroke-linecap="round" stroke-linejoin="round" stroke-width="3.9917" transform="scale(-1,1)"/>
<path d="M-112.5466,325.1181H-104.2431A4.1432,4.1432 0 0 1 -100.0999,329.2613V359.6448A4.1432,4.1432 0 0 1 -104.2431,363.788H-112.5466A4.1432,4.1432 0 0 1 -116.6898,359.6448V329.2613A4.1432,4.1432 0 0 1 -112.5466,325.1181z" fill="#fff" stroke="#000" stroke-linecap="round" stroke-linejoin="round" stroke-width="3.9917" transform="scale(-1,1)"/>
<path d="M-140.4178,312.9647H-132.1142A4.1432,4.1432 0 0 1 -127.971,317.1079V347.4914A4.1432,4.1432 0 0 1 -132.1142,351.6346H-140.4178A4.1432,4.1432 0 0 1 -144.561,347.4914V317.1079A4.1432,4.1432 0 0 1 -140.4178,312.9647z" fill="#fff" stroke="#000" stroke-linecap="round" stroke-linejoin="round" stroke-width="3.9917" transform="scale(-1,1)"/>
<path d="M-269.8194,309.6501H-261.5158A4.1432,4.1432 0 0 1 -257.3726,313.7933V344.1768A4.1432,4.1432 0 0 1 -261.5158,348.32H-269.8194A4.1432,4.1432 0 0 1 -273.9626,344.1768V313.7933A4.1432,4.1432 0 0 1 -269.8194,309.6501z" fill="#fff" stroke="#000" stroke-linecap="round" stroke-linejoin="round" stroke-width="3.9917" transform="scale(-1,1)"/>
<path d="M-872.5177,661.8411H-721.0326A15.0365,15.0365 0 0 1 -705.9961,676.8775V702.2107A15.0365,15.0365 0 0 1 -721.0326,717.2472H-872.5177A15.0365,15.0365 0 0 1 -887.5541,702.2107V676.8775A15.0365,15.0365 0 0 1 -872.5177,661.8411z" fill="#fff" stroke="#000" stroke-linecap="round" stroke-linejoin="round" stroke-width="2.3147" transform="matrix(-1,0,-.8886,.45868,0,0)"/>
<path d="M-865.6898,653.4104H-714.2048A15.0365,15.0365 0 0 1 -699.1683,668.4469V693.7801A15.0365,15.0365 0 0 1 -714.2048,708.8166H-865.6898A15.0365,15.0365 0 0 1 -880.7263,693.7801V668.4469A15.0365,15.0365 0 0 1 -865.6898,653.4104z" fill="#fff" stroke="#000" stroke-linecap="round" stroke-linejoin="round" stroke-width="2.3147" transform="matrix(-1,0,-.8886,.45868,0,0)"/>
<path d="M222.8571,298.5714C225.5155,299.2582 229.7055,296.0088 232.1429,293.5714C232.4341,293.2802 233.2012,290.0263 233.5714,289.2857" fill="none" stroke="#000"/>
<path d="M291.2334,83.2191L291.2334,397.1096" fill="none" stroke="#000" stroke-width="5.6784"/>
<g transform="translate(300.6741,.4161)">
<path d="m446.8915,78.4154c0,2.9289-27.5427,5.3033-61.5183,5.3033-33.9756,0-61.5183,-2.3744-61.5183,-5.3033 0,-2.9289 27.5427,-5.3033 61.5183,-5.3033 33.9756,0 61.5183,2.3744 61.5183,5.3033z" stroke="#000" stroke-linecap="round" stroke-width="4.862" transform="translate(-177.264,242.1307)"/>
<path d="M261.8673,233.6586L261.8673,281.5471C261.8673,301.5541 245.7606,317.6608 225.7536,317.6608L190.3196,317.6608C170.3126,317.6608 154.2059,301.5541 154.2059,281.5471L154.2059,233.6586" fill="#fff" stroke="#000" stroke-linecap="round" stroke-linejoin="round" stroke-width="3.642"/>
<path d="M171.2539,253.4701H194.7879A.7803,.7803 0 0 1 195.5682,254.2504V264.2765A.7803,.7803 0 0 1 194.7879,265.0568H171.2539A.7803,.7803 0 0 1 170.4736,264.2765V254.2504A.7803,.7803 0 0 1 171.2539,253.4701z" stroke="#000" stroke-linecap="square" stroke-linejoin="round" stroke-width="3.7338"/>
<path d="M216.6448,253.4701H237.0577A2.3409,2.3409 0 0 1 239.3986,255.811V262.7159A2.3409,2.3409 0 0 1 237.0577,265.0568H216.6448A2.3409,2.3409 0 0 1 214.304,262.7159V255.811A2.3409,2.3409 0 0 1 216.6448,253.4701z" stroke="#000" stroke-linecap="square" stroke-linejoin="round" stroke-width="3.7338"/>
<path d="M156.5141,258.5247C157.0633,258.5351 157.6126,258.5315 158.1619,258.5288C158.5249,258.5266 158.8878,258.5252 159.2508,258.5245C159.5433,258.5241 159.8358,258.5241 160.1283,258.5241C160.4323,258.5235 160.7363,258.5247 161.0404,258.5253C161.431,258.5156 161.8156,258.5249 162.2023,258.576C162.602,258.6305 163.0054,258.6477 163.4085,258.6587C163.8138,258.6429 164.2114,258.7176 164.6125,258.7577C165.0205,258.7945 165.4305,258.7984 165.8399,258.8028C166.2701,258.8051 166.7003,258.8049 167.1304,258.8034C167.504,258.8027 167.8776,258.8021 168.2512,258.8012C168.5582,258.8004 168.8653,258.8002 169.1723,258.8001C169.4638,258.8 169.7553,258.8 170.0468,258.8C170.3383,258.8 170.6299,258.8 170.9214,258.8C171.2401,258.7996 171.5588,258.8006 171.8775,258.802C172.2717,258.8043 172.666,258.8024 173.0603,258.8014C173.4312,258.8011 173.802,258.8018 174.1729,258.8028C174.5696,258.8027 174.9664,258.8028 175.3631,258.8018C175.7431,258.802 176.123,258.8025 176.503,258.8019C176.8486,258.8007 177.1942,258.8004 177.5397,258.8022C178.0729,258.8048 178.6061,258.8064 179.1393,258.8083C179.8659,258.8111 180.5926,258.8117 181.3192,258.8093C181.8524,258.8079 182.3857,258.8041 182.9189,258.8038C183.3602,258.8045 183.8015,258.8038 184.2428,258.8023C184.3039,258.8021 184.365,258.8019 184.4261,258.8017L182.6801,260.001C182.6196,260.0008 182.5591,260.0006 182.4986,260.0004C182.0588,259.9989 181.6189,259.9983 181.1791,259.9989C180.6511,259.9987 180.1232,259.9948 179.5952,259.9935C178.8676,259.991 178.14,259.9917 177.4124,259.9945C176.8733,259.9964 176.3342,259.998 175.7951,260.0005C175.4493,260.0023 175.1035,260.0021 174.7577,260.0008C174.3775,260.0002 173.9974,260.0008 173.6173,260.001C173.2216,260 172.8259,260.0001 172.4302,259.9999C172.0579,260.0009 171.6855,260.0017 171.3132,260.0014C170.9195,260.0003 170.5259,259.9984 170.1322,260.0008C169.8116,260.0022 169.4911,260.0031 169.1705,260.0027C168.879,260.0027 168.5874,260.0027 168.2958,260.0027C168.0044,260.0027 167.713,260.0027 167.4216,260.0027C167.1156,260.0025 166.8096,260.0023 166.5036,260.0017C166.1315,260.001 165.7595,260.0009 165.3875,260.0008C164.9573,260 164.5272,260.0015 164.097,259.9967C163.6823,259.9911 163.2668,259.9822 162.8543,259.9373C162.4575,259.8927 162.0623,259.8401 161.6612,259.8503C161.2534,259.8352 160.8464,259.8068 160.442,259.7536C160.0599,259.7131 159.6766,259.7244 159.2927,259.7257C158.9875,259.7263 158.6824,259.7275 158.3772,259.7269C158.0851,259.7269 157.793,259.7269 157.5009,259.7265C157.1421,259.7258 156.7832,259.7244 156.4244,259.7222C155.8712,259.7195 155.3178,259.716 154.7647,259.7263L156.5141,258.5247z" stroke="#000" stroke-linecap="square" stroke-linejoin="round" stroke-width=".4767"/>
<path d="M242.7979,258.8268C243.75,258.8381 244.7024,258.8365 245.6546,258.8361C246.5274,258.8352 247.4002,258.8335 248.273,258.8308C248.8562,258.8285 249.4395,258.8284 250.0228,258.8279C250.4824,258.8271 250.942,258.8263 251.4017,258.8259C251.8032,258.8465 252.189,258.7711 252.5837,258.7348C252.9795,258.7024 253.3786,258.6977 253.7768,258.6944C254.172,258.6924 254.5673,258.6932 254.9625,258.6936C255.3572,258.694 255.7519,258.6941 256.1466,258.6942C256.5413,258.6942 256.936,258.6942 257.3307,258.6942C257.7254,258.6942 258.1201,258.6942 258.5148,258.6942C258.9386,258.6936 259.3624,258.6952 259.7861,258.6953C260.2153,258.695 260.6444,258.6946 261.0735,258.6944C261.471,258.6942 261.8685,258.6942 262.2659,258.6942C262.5288,258.6942 262.3973,258.6942 262.6602,258.6942L260.2917,259.8394C260.0289,259.8394 260.1603,259.8394 259.8975,259.8394C259.5003,259.8394 259.1031,259.8394 258.706,259.8392C258.278,259.839 257.8501,259.8386 257.4221,259.8383C256.9969,259.8384 256.5717,259.84 256.1464,259.8394C255.7517,259.8394 255.357,259.8394 254.9623,259.8394C254.5675,259.8394 254.1728,259.8394 253.7781,259.8393C253.3833,259.8392 252.9886,259.839 252.5939,259.8386C252.1998,259.8384 251.8058,259.8376 251.4118,259.8427C251.0204,259.8498 250.6284,259.8613 250.2413,259.9033C249.8408,259.9463 249.4425,259.9896 249.0346,259.9704C248.5777,259.97 248.1209,259.9692 247.664,259.9684C247.0847,259.9679 246.5054,259.9678 245.9261,259.9656C245.0607,259.9628 244.1952,259.9611 243.3297,259.9602C242.3647,259.9598 241.3996,259.9585 240.4347,259.9695L242.7979,258.8268z" stroke="#000" stroke-linecap="square" stroke-linejoin="round" stroke-width=".541"/>
<path d="M189.3734,259.0364C190.3769,259.0973 191.3893,259.1165 192.4002,259.1309C193.3025,259.1413 194.2052,259.1413 195.1077,259.1402C195.8527,259.1397 196.5978,259.1396 197.3429,259.1388C198.8385,259.1572 200.335,259.1481 201.8309,259.1449C202.7348,259.1416 203.6387,259.1404 204.5426,259.1386C205.2634,259.1386 205.9843,259.1382 206.7051,259.1391C207.4629,259.1403 208.2207,259.1383 208.9785,259.1388C209.6623,259.1381 210.346,259.1381 211.0298,259.1382C211.7146,259.1387 212.3995,259.1384 213.0843,259.1378C213.7385,259.1388 214.3926,259.1379 215.0468,259.1374C215.6869,259.1386 216.327,259.1378 216.967,259.1373C217.5323,259.1369 218.0977,259.1368 218.6631,259.1368C219.1359,259.1895 219.6115,259.2274 220.0967,259.2457C220.6227,259.2612 221.1502,259.2613 221.6771,259.262C222.2253,259.2621 222.7735,259.2616 223.3217,259.2613C223.5961,259.2612 223.8706,259.2612 224.145,259.2611L220.8544,260.3449C220.58,260.345 220.3057,260.3451 220.0312,260.3452C219.4825,260.3455 218.9336,260.3462 218.3847,260.3449C217.8487,260.3427 217.3117,260.3404 216.778,260.315C216.307,260.2886 215.8459,260.2342 215.3725,260.2205C214.8083,260.2204 214.2441,260.2203 213.6799,260.2199C213.0399,260.2195 212.3999,260.2186 211.76,260.2199C211.1066,260.2194 210.4532,260.2184 209.7998,260.2194C209.1159,260.2188 208.4321,260.2185 207.7482,260.219C207.0656,260.2191 206.383,260.2192 205.7004,260.2184C204.9432,260.219 204.186,260.217 203.4288,260.2181C202.7068,260.219 201.9849,260.2186 201.263,260.2187C200.3718,260.2169 199.4807,260.2156 198.5895,260.2124C197.0808,260.2091 195.5716,260.2004 194.0632,260.219C193.3193,260.2186 192.5755,260.2194 191.8317,260.2187C190.9324,260.2161 190.0331,260.2127 189.1342,260.1984C188.1049,260.1793 187.0768,260.1499 186.0519,260.1019L189.3734,259.0364z" stroke="#000" stroke-linecap="square" stroke-linejoin="round" stroke-width=".6203"/>
<path d="M169.2115,221.1513L169.2115,239.6945" fill="none" stroke="#000" stroke-linecap="round" stroke-width="4.8046"/>
<path d="M178.7356,219.397L178.7356,237.9402" fill="none" stroke="#000" stroke-linecap="round" stroke-width="4.8046"/>
<path d="M187.6725,220.8613L187.6725,239.4045" fill="none" stroke="#000" stroke-linecap="round" stroke-width="4.8046"/>
<path d="M199.3492,219.694L199.3492,238.2372" fill="none" stroke="#000" stroke-linecap="round" stroke-width="4.8046"/>
<path d="M209.5079,221.8806L209.5079,240.4238" fill="none" stroke="#000" stroke-linecap="round" stroke-width="4.8046"/>
<path d="M221.1371,221.7052L221.1371,240.2485" fill="none" stroke="#000" stroke-linecap="round" stroke-width="4.8046"/>
<path d="M231.6397,219.991L231.6397,238.5343" fill="none" stroke="#000" stroke-linecap="round" stroke-width="4.8046"/>
<path d="M241.5551,223.028L241.5551,241.5712" fill="none" stroke="#000" stroke-linecap="round" stroke-width="4.8046"/>
<path d="M252.2281,222.6593L252.2281,241.2025" fill="none" stroke="#000" stroke-linecap="round" stroke-width="4.8046"/>
<path d="M161.3274,225.8815L161.3274,244.4247" fill="none" stroke="#000" stroke-linecap="round" stroke-width="4.8046"/>
<path d="M-948.3539,744.9438H-796.8689A15.0365,15.0365 0 0 1 -781.8324,759.9803V785.3135A15.0365,15.0365 0 0 1 -796.8689,800.35H-948.3539A15.0365,15.0365 0 0 1 -963.3904,785.3135V759.9803A15.0365,15.0365 0 0 1 -948.3539,744.9438z" stroke="#000" stroke-linecap="round" stroke-linejoin="round" stroke-width="2.3147" transform="matrix(-1,0,-.8886,.45868,0,0)"/>
<path d="M-238.962,325.1181H-230.6585A4.1432,4.1432 0 0 1 -226.5153,329.2613V359.6448A4.1432,4.1432 0 0 1 -230.6585,363.788H-238.962A4.1432,4.1432 0 0 1 -243.1052,359.6448V329.2613A4.1432,4.1432 0 0 1 -238.962,325.1181z" fill="#fff" stroke="#000" stroke-linecap="round" stroke-linejoin="round" stroke-width="3.9917" transform="scale(-1,1)"/>
<path d="M-112.5466,325.1181H-104.2431A4.1432,4.1432 0 0 1 -100.0999,329.2613V359.6448A4.1432,4.1432 0 0 1 -104.2431,363.788H-112.5466A4.1432,4.1432 0 0 1 -116.6898,359.6448V329.2613A4.1432,4.1432 0 0 1 -112.5466,325.1181z" fill="#fff" stroke="#000" stroke-linecap="round" stroke-linejoin="round" stroke-width="3.9917" transform="scale(-1,1)"/>
<path d="M-140.4178,312.9647H-132.1142A4.1432,4.1432 0 0 1 -127.971,317.1079V347.4914A4.1432,4.1432 0 0 1 -132.1142,351.6346H-140.4178A4.1432,4.1432 0 0 1 -144.561,347.4914V317.1079A4.1432,4.1432 0 0 1 -140.4178,312.9647z" fill="#fff" stroke="#000" stroke-linecap="round" stroke-linejoin="round" stroke-width="3.9917" transform="scale(-1,1)"/>
<path d="M-269.8194,309.6501H-261.5158A4.1432,4.1432 0 0 1 -257.3726,313.7933V344.1768A4.1432,4.1432 0 0 1 -261.5158,348.32H-269.8194A4.1432,4.1432 0 0 1 -273.9626,344.1768V313.7933A4.1432,4.1432 0 0 1 -269.8194,309.6501z" fill="#fff" stroke="#000" stroke-linecap="round" stroke-linejoin="round" stroke-width="3.9917" transform="scale(-1,1)"/>
<path d="M-872.5177,661.8411H-721.0326A15.0365,15.0365 0 0 1 -705.9961,676.8775V702.2107A15.0365,15.0365 0 0 1 -721.0326,717.2472H-872.5177A15.0365,15.0365 0 0 1 -887.5541,702.2107V676.8775A15.0365,15.0365 0 0 1 -872.5177,661.8411z" fill="#fff" stroke="#000" stroke-linecap="round" stroke-linejoin="round" stroke-width="2.3147" transform="matrix(-1,0,-.8886,.45868,0,0)"/>
<path d="M-865.6898,653.4104H-714.2048A15.0365,15.0365 0 0 1 -699.1683,668.4469V693.7801A15.0365,15.0365 0 0 1 -714.2048,708.8166H-865.6898A15.0365,15.0365 0 0 1 -880.7263,693.7801V668.4469A15.0365,15.0365 0 0 1 -865.6898,653.4104z" fill="#fff" stroke="#000" stroke-linecap="round" stroke-linejoin="round" stroke-width="2.3147" transform="matrix(-1,0,-.8886,.45868,0,0)"/>
<path d="M222.8571,298.5714C225.5155,299.2582 229.7055,296.0088 232.1429,293.5714C232.4341,293.2802 233.2012,290.0263 233.5714,289.2857" fill="none" stroke="#000"/>
</g>
<path d="M594.9435,83.9438L594.9435,397.8342" fill="none" stroke="#000" stroke-width="5.6784"/>
<text font-family="Bitstream Vera Sans" font-size="20" x="184.2857" y="191.4286">
   <tspan x="184.2857" y="191.4286">Accept !</tspan>
  </text>
<text font-family="Bitstream Vera Sans" font-size="20" x="483.9844" y="194.4894">
   <tspan x="483.9844" y="194.4894">Accept !</tspan>
  </text>
<text font-family="Bitstream Vera Sans" font-size="20" x="752.5558" y="193.0608">
   <tspan x="752.5558" y="193.0608">Suivant...</tspan>
  </text>
<path d="M227.1429,198.5714L220,211.4286" fill="none" stroke="#000"/>
<path d="M527.8571,198.5714L520.7143,212.8571" fill="none" stroke="#000"/>
<path d="M795,202.8571L790,215" fill="none" stroke="#000"/>
<path d="M127.8571,377.8571A40.3571,7.1429 0 1 1 47.1429,377.8571A40.3571,7.1429 0 1 1 127.8571,377.8571z" stroke="#000" stroke-linecap="round" stroke-linejoin="round" stroke-width="3" transform="translate(-.7143,2.1429)"/>
<path d="M126.4286,330.3571A38.5714,51.0714 0 1 1 49.2857,330.3571A38.5714,51.0714 0 1 1 126.4286,330.3571z" fill="#fff" stroke="#000" stroke-linecap="round" stroke-linejoin="round" stroke-width="3"/>
<text font-family="Bitstream Vera Sans" font-size="20" x="90" y="191.4286">
   <tspan text-align="center" text-anchor="middle" x="90" y="191.4286">Bonjour, je</tspan>
   <tspan text-align="center" text-anchor="middle" x="93.1836" y="216.4286">suis en S !</tspan>
  </text>
<path d="M90,227.8571L86.4286,267.1429" fill="none" stroke="#000"/>
<text font-family="Bitstream Vera Sans" font-size="20" x="386.4286" y="161.4286">
   <tspan text-align="center" text-anchor="middle" x="386.4286" y="161.4286">Bonjour, je suis</tspan>
   <tspan text-align="center" text-anchor="middle" x="386.4286" y="186.4286">en ES et je suis</tspan>
   <tspan text-align="center" text-anchor="middle" x="386.4286" y="211.4286">trs motiv !</tspan>
  </text>
<text font-family="Bitstream Vera Sans" font-size="20" x="666.5945" y="185.6703">
   <tspan text-align="center" text-anchor="middle" x="666.5945" y="185.6703">Bonjour, je</tspan>
   <tspan text-align="center" text-anchor="middle" x="666.5945" y="210.6703">suis en L et...</tspan>
  </text>
<path d="M380,227.1429L374.2857,270" fill="none" stroke="#000"/>
<path d="M127.8571,377.8571A40.3571,7.1429 0 1 1 47.1429,377.8571A40.3571,7.1429 0 1 1 127.8571,377.8571z" stroke="#000" stroke-linecap="round" stroke-linejoin="round" stroke-width="3" transform="translate(291.0714,4.2857)"/>
<path d="M417.8571,339.2857A38.9286,44.2857 0 1 1 340,339.2857A38.9286,44.2857 0 1 1 417.8571,339.2857z" fill="#fff" stroke="#000" stroke-linecap="round" stroke-linejoin="round" stroke-width="3"/>
<path d="M127.8571,377.8571A40.3571,7.1429 0 1 1 47.1429,377.8571A40.3571,7.1429 0 1 1 127.8571,377.8571z" stroke="#000" stroke-linecap="round" stroke-linejoin="round" stroke-width="3" transform="translate(579.6429,2.1429)"/>
<path d="M710.7143,332.1429A37.8571,47.8571 0 1 1 635,332.1429A37.8571,47.8571 0 1 1 710.7143,332.1429z" fill="#fff" stroke="#000" stroke-linecap="round" stroke-linejoin="round" stroke-width="3" transform="translate(-6.4286,-1.4286)"/>
<path d="M120.7143,304.6429C135.989,321.7965 135.3636,340.3046 88.2143,320.7143C68.7764,312.6379 32.0541,368.4882 53.5714,301.7857C56.7278,292.0012 67.9391,272.0366 86.0714,273.5714C101.5902,274.885 120.7143,289.4629 120.7143,304.6429z" stroke="#000" stroke-linecap="round" stroke-linejoin="round" stroke-width="3"/>
<path d="M701.7095,309.1191C711.558,309.801 681.0179,335.1538 665.3841,327.3083C632.6205,310.8667 621.8875,338.7931 631.3057,306.2659C634.1714,296.3683 646.3711,276.5576 665.3841,278.0903C681.6566,279.4021 701.7095,293.9599 701.7095,309.1191z" stroke="#000" stroke-linecap="round" stroke-linejoin="round" stroke-width="3.0699"/>
<path d="M660.6676,321.5875C659.5888,323.2451 658.448,324.8576 657.2419,326.4244C656.4722,327.3177 655.732,328.2431 655.1473,329.2698C654.633,330.1798 654.1299,331.0999 653.6904,332.0488C653.2266,333.0043 652.7157,333.9378 652.2705,334.9021C651.6645,335.8467 651.3964,336.8971 651.0808,337.9555C650.6388,339.0633 650.4712,340.2313 650.3738,341.4111C650.2786,342.7123 650.2332,343.9929 650.5034,345.2714C650.7067,346.3241 651.2191,347.2827 651.6963,348.2323C652.4127,349.0315 652.7581,350.0724 653.1979,351.0358C653.6962,352.0927 654.1368,353.1188 654.3628,354.2773C654.5746,355.6507 654.5811,357.0441 654.5937,358.4304C654.5992,359.8621 654.5928,361.2939 654.5898,362.7256C654.5451,363.974 654.0399,365.0915 653.4935,366.1891L642.8771,365.6381C643.4555,364.7741 643.8503,363.7523 643.9897,362.7234C643.9928,361.2959 643.9994,359.8684 643.9922,358.4409C643.9781,357.1247 643.9753,355.799 643.747,354.4986C643.502,353.4365 643.0155,352.4946 642.5795,351.5012C642.1213,350.5486 641.7115,349.5853 641.0787,348.7293C640.5565,347.7008 640.1002,346.6159 639.8881,345.478C639.6345,344.1026 639.6785,342.7213 639.766,341.3286C639.8586,340.0682 639.9975,338.8026 640.4622,337.6157C640.8527,336.5661 640.9236,335.391 641.6516,334.478C642.0364,333.4879 642.5676,332.5567 643.071,331.625C643.4557,330.6306 643.9865,329.6851 644.5321,328.7738C645.0439,327.6449 645.8167,326.6179 646.6783,325.7322C647.8528,324.1961 649.0884,322.7083 650.0775,321.0372L660.6676,321.5875z" stroke="#000" stroke-linecap="round" stroke-linejoin="round" stroke-width="3"/>
<path d="M669.0566,325.177C667.4801,326.4789 666.1851,328.0705 664.8293,329.5901C663.9884,330.4932 663.3244,331.5332 662.7241,332.6049C662.2046,333.5219 661.7554,334.4772 661.2898,335.4225C660.792,336.3634 660.4315,337.3757 660.0647,338.3748C659.6861,339.56 659.6437,340.8115 659.6009,342.0447C659.6897,343.3747 659.3871,344.657 659.156,345.9542C659.0444,347.2154 658.8528,348.4446 658.5651,349.6771C658.2495,350.7522 657.7335,351.7453 657.2781,352.7629C656.8164,353.7234 656.296,354.6558 655.8453,355.6213C655.7595,355.793 655.6738,355.9647 655.588,356.1364L644.9713,355.5943C645.0564,355.4607 645.1414,355.327 645.2265,355.1933C645.6145,354.204 646.1522,353.2762 646.6592,352.3459C647.0417,351.3529 647.58,350.4381 647.9486,349.4366C648.2254,348.2197 648.4778,347.0251 648.5419,345.7723C648.7526,344.5195 649.1009,343.2949 648.9971,342.01C649.0382,340.6723 649.087,339.3206 649.4458,338.0227C649.7914,336.9552 650.2289,335.9135 650.6722,334.8865C651.2395,333.9842 651.5786,332.9462 652.1123,332.0217C652.8347,330.9492 653.3595,329.7348 654.282,328.7927C655.736,327.3277 657.0007,325.6839 658.4895,324.2489L669.0566,325.177z" stroke="#000" stroke-linecap="round" stroke-linejoin="round" stroke-width="3"/>
<path d="M654.8639,313.738C653.6789,315.2661 652.5165,316.8488 651.6847,318.6016C651.1446,319.7392 650.5954,320.875 650.0998,322.0328C649.7043,323.0793 649.3611,324.1398 649.0014,325.1983C648.5158,326.2651 648.3392,327.406 648.2357,328.5622C648.1342,329.8601 648.0902,331.1377 648.3599,332.4133C648.6078,333.6148 648.7024,334.8193 649.0356,336.0003C649.3919,337.2659 649.4844,338.579 649.5474,339.8857C649.5764,341.1449 649.5352,342.4037 649.5025,343.6623L639.0725,343.6666C639.0298,342.4242 638.9959,341.1814 638.9418,339.9395C638.8758,338.7067 638.7727,337.4714 638.4182,336.2819C638.1023,335.075 638.0131,333.8376 637.7445,332.62C637.491,331.2454 637.5342,329.8647 637.6272,328.473C637.7261,327.2251 637.8713,325.9696 638.3819,324.8117C638.8247,323.7882 639.0488,322.6585 639.4837,321.6292C639.9328,320.4307 640.5521,319.2967 641.1156,318.1492C641.9328,316.2895 643.1792,314.6973 644.2817,313.0016L654.8639,313.738z" stroke="#000" stroke-linecap="round" stroke-linejoin="round" stroke-width="3"/>
<path d="M337.7414,332.6126C339.2379,328.8329 341.0507,325.186 342.8325,321.5346C344.3489,318.5572 345.7755,315.5393 347.1616,312.4998C347.993,310.5831 349.1517,309.0084 351.0716,308.1384C355.2682,306.9023 352.4824,307.6528 362.8906,307.8306C363.2049,307.836 363.845,308.3865 364.027,308.585C364.4244,309.0183 364.5024,309.28 364.7532,309.8023C365.6612,312.2776 365.1069,314.0036 364.3305,316.457C361.8207,322.0955 358.3858,327.2867 354.9577,332.4036C354.6556,332.8301 353.0312,335.1888 352.4975,335.7335C352.2722,335.9633 352.0172,336.305 351.697,336.273C347.9792,335.9022 344.0788,335.9659 340.6216,334.5491C339.7362,334.1863 340.4524,332.6374 340.4922,331.6813C340.5457,330.3938 340.7647,329.1185 340.9009,327.8371C342.6974,317.0515 347.7921,307.3018 352.9239,297.7825C355.8548,292.797 358.5905,287.5713 362.3881,283.1662C365.787,280.0315 368.9047,281.8671 374.8736,282.4181C375.3077,282.4582 377.3197,285.2451 377.5872,285.6225C378.732,287.9557 380.2346,290.7224 380.5721,293.3351C380.8582,295.5501 380.491,296.3155 380.0331,298.539C379.6522,299.5315 379.3563,300.5611 378.8903,301.5167C376.453,306.5143 372.2942,310.894 368.283,314.671C363.0161,319.0697 362.5977,318.2228 353.0555,317.6714C352.7102,317.6515 352.6335,317.1149 352.496,316.7975C352.3359,316.4277 352.2805,316.0209 352.1728,315.6327C352.1808,315.0054 352.1194,314.3734 352.197,313.7509C352.8995,308.1187 356.1735,303.0365 359.2488,298.4349C361.6821,295.0755 364.2427,291.6274 368.0962,289.8513C375.4327,288.0919 380.09,287.2261 382.6946,293.0391C383.7159,295.9101 382.7759,298.7162 381.5611,301.373C380.2053,304.3383 379.1991,305.8858 377.5169,308.7776C373.1708,314.5789 368.5565,320.5224 362.5225,324.6745C358.91,326.2917 349.9986,327.5029 349.5679,323.3403C349.28,320.5585 351.4639,318.2194 352.9735,316.2182C358.7145,310.258 365.4669,305.3991 372.5516,301.1717C378.1324,298.2433 380.0681,298.8229 388.1251,299.9461C388.4933,299.9975 388.4744,300.6286 388.4901,301.0001C388.5133,301.5524 388.3223,302.0929 388.2384,302.6393C385.6719,309.6311 380.5023,314.7193 375.229,319.7374C373.2098,321.4786 371.2712,323.4009 368.9635,324.7772C365.3319,326.9429 360.0769,325.423 356.5299,324.577C355.8834,324.4228 356.414,323.2527 356.3561,322.5906C357.1984,314.9767 361.8256,308.6982 366.5109,302.9281C368.1182,301.1064 369.7629,299.2767 371.7168,297.8129C371.9503,297.6381 373.1816,296.7858 373.6328,296.7818C377.3513,296.7487 381.0684,296.9421 384.7862,297.0223C385.164,297.6647 385.5044,298.0992 385.6005,298.8725C385.9514,301.6981 384.6832,304.4445 383.7219,307.0063C381.0198,312.1872 377.7312,317.248 373.4707,321.2932C373.0943,321.5309 372.7467,321.822 372.3414,322.0064C372.025,322.1503 371.679,322.2771 371.3316,322.2662C367.5694,322.1482 363.7824,322.1651 360.0578,321.6209C359.3736,321.521 359.1918,318.8972 359.1934,318.8219C359.2094,318.0533 359.4107,317.2998 359.5194,316.5388C359.8198,315.6604 360.0367,314.7489 360.4208,313.9037C363.1504,307.8982 368.8213,303.9148 374.1315,300.3734C376.8868,298.6846 379.7732,297.1981 382.7952,296.0453C383.4228,295.8059 385.5648,295.0546 386.3872,295.0385C390.2532,294.9628 394.1204,295.0915 397.987,295.118C398.2946,295.3817 398.7314,295.5454 398.9096,295.9092C399.4897,297.0935 399.0257,298.7425 398.6793,299.8428C397.5048,303.5745 395.3558,306.7939 393.2544,310.0444C390.997,313.2901 388.519,316.3836 385.7851,319.2412C385.0819,319.9762 383.4037,321.7022 382.3621,322.2518C381.8781,322.5072 381.3149,322.5702 380.7913,322.7293C376.8747,322.5487 372.9145,322.7971 369.0413,322.1876C368.3911,322.0852 368.1389,321.2224 367.7666,320.6796C366.6083,318.9906 365.5241,316.3537 365.2299,314.3284C365.1015,313.4445 365.1688,312.5432 365.1383,311.6505C365.3146,310.6937 365.3773,309.7088 365.6673,308.7801C367.2582,303.6863 371.5397,299.9551 375.5976,296.7848C381.1613,292.953 383.6413,294.0799 391.9377,294.4171C392.3107,294.4322 392.6295,294.7111 392.937,294.9227C393.2545,295.1411 393.5101,295.438 393.7967,295.6957C395.2077,297.3496 395.9517,299.4901 395.2442,301.6312C395.015,302.3248 394.6564,302.9688 394.3625,303.6376C393.8399,304.4171 393.3861,305.2474 392.7948,305.9762C388.6553,311.0789 382.8183,314.7119 377.3116,318.1404C375.916,318.9211 374.3666,319.8893 372.8247,320.4237C372.3524,320.5875 371.8585,320.7496 371.3587,320.7403C367.5309,320.6683 363.6395,320.9397 359.887,320.1806C358.8567,319.9722 359.6812,317.6257 360.0789,316.0659C360.5802,315.1593 360.9769,314.1865 361.5827,313.3462C363.2451,311.0404 365.6105,308.9284 367.7971,307.1736C371.9341,303.8535 376.4705,301.1672 381.0254,298.479C383.9239,296.9205 386.7931,295.2102 389.915,294.1154C390.4079,293.9425 390.9065,293.7203 391.4288,293.7099C395.21,293.6352 399.0263,293.3502 402.7736,293.8611C403.2679,293.9285 403.0274,294.8261 403.1543,295.3087C403.0771,295.9471 403.076,296.5995 402.9226,297.2241C402.5074,298.9152 401.4771,300.9604 400.754,302.469C399.194,305.7237 397.4419,308.8654 395.6995,312.0244C394.3248,314.4029 393.025,316.8366 391.4929,319.121C391.4921,319.1222 390.0341,321.2841 389.659,321.313C385.8815,321.6039 382.0819,321.3776 378.2933,321.4099C378.0281,321.0143 377.688,320.6596 377.4977,320.223C376.0562,316.9164 376.1004,311.5293 376.9044,308.1316C377.2279,306.7648 377.7878,305.4649 378.2295,304.1316C381.4629,297.307 386.2894,292.8921 392.478,288.8311C397.4164,285.9282 399.4042,286.8821 407.0701,287.1972C407.4368,287.2122 407.7181,287.5692 407.9608,287.8444C408.5898,288.5578 408.7301,289.3842 408.9977,290.2598C409.0578,290.7607 409.1992,291.2584 409.1781,291.7625C408.9913,296.2205 405.8098,301.2312 403.7202,305.0227C401.1148,308.8308 399.1148,313.2351 395.743,316.4664C392.8149,319.0457 383.2122,319.5534 384.0948,314.7579C384.1779,314.3064 384.2888,313.8422 384.5291,313.451C384.8816,312.8771 385.4039,312.4268 385.8413,311.9146C390.4905,308.3461 395.9874,306.0859 401.5186,304.2705C406.5312,302.8436 410.538,303.3795 416.3408,303.6165C417.4968,303.6637 417.5961,305.1105 417.6748,305.886C417.5234,306.3915 417.4434,306.9241 417.2206,307.4024C415.1832,311.7765 410.7843,315.7023 407.4284,319.0951C406.5537,319.7974 403.6358,323.1511 402.3406,323.1251C390.9693,322.8965 392.2486,326.0644 390.9291,321.4398C391.0154,320.884 391.0304,320.3123 391.188,319.7723C392.7659,314.3662 397.5533,309.9427 401.4787,306.1886C403.5612,304.3366 405.6711,302.4798 408.0337,300.9847C408.2149,300.87 409.8879,299.877 410.3443,299.8613C414.0621,299.7333 417.7843,299.8333 421.5043,299.8193C422.7952,301.6199 422.562,304.1012 422.4203,306.21C421.9257,309.3469 420.8798,312.3969 419.7493,315.3597C417.7966,319.5761 419.0568,317.4288 408.4685,315.3697C408.1879,315.3152 408.573,312.1356 408.6111,311.8514C409.0392,309.9794 409.5837,307.7944 411.1567,306.5136C411.4275,306.2932 411.7507,306.1465 412.0477,305.963C418.7543,304.0096 425.4884,305.3322 431.3858,308.3866C433.0974,309.3752 434.4375,310.7224 435.2738,312.5043L424.7196,313.0079C423.8409,311.4828 422.5546,310.3558 420.9879,309.5442C419.4697,308.8191 417.9629,308.1627 416.325,307.7451C415.7586,307.6007 414.0244,307.4351 414.6073,307.3917C419.005,307.0645 427.0454,307.3086 422.5389,307.1808C422.2523,307.2545 421.9467,307.2758 421.6789,307.402C420.0335,308.1777 419.5215,310.4222 419.1172,311.9861C419.0011,312.9264 418.8988,313.347 418.9637,314.2712C418.9821,314.5326 419.3554,315.0301 419.0938,315.0466C415.6221,315.265 412.1352,314.7942 408.659,314.9197C408.4799,314.9262 408.6876,315.4111 408.8667,315.4156C409.0639,315.4205 409.0952,315.0941 409.2094,314.9334C410.5297,312.165 411.455,309.1742 411.9153,306.143C411.9653,305.3128 412.2128,302.0062 411.4197,301.4473C411.309,301.3694 411.1515,301.4106 411.0174,301.3923C414.2794,301.3407 417.541,301.2351 420.8034,301.2375C421.1498,301.2377 420.107,301.2938 419.7769,301.3987C419.283,301.5555 418.808,301.7733 418.3504,302.0165C415.8545,303.3427 413.6954,305.2122 411.5394,307.0106C407.3872,310.8635 402.5053,315.1643 401.5037,321.0451C403.61,324.2612 401.9367,321.4332 391.8633,321.6634C391.58,321.6698 392.4396,321.7716 392.7128,321.6962C394.5364,321.1927 395.7872,319.336 397.2317,318.2891C400.8425,314.7654 405.3092,310.8666 407.082,306.0277C406.9912,305.5888 407.0867,305.4857 406.6178,305.321C406.3926,305.2419 405.677,305.1884 405.9155,305.1816C423.7452,304.6731 415.5173,304.7127 411.7515,305.5747C406.2766,307.204 400.8983,309.3378 396.2353,312.7014C395.366,313.519 394.9306,313.6157 394.6937,314.7036C394.549,315.3679 395.0367,315.4107 394.9407,315.4132C387.5016,315.6078 381.1428,315.3643 385.2189,315.5154C386.5079,314.6896 387.4119,313.6009 388.3431,312.3802C390.2555,309.8737 391.8943,307.176 393.5686,304.5097C395.514,301.0007 398.6139,296.056 398.6893,291.9044C398.6972,291.4708 398.5565,291.0472 398.4901,290.6186C398.2163,289.9667 398.1294,289.3809 397.4624,289.0167C397.2214,288.8851 396.3861,288.8396 396.6605,288.8278C418.3465,287.8984 407.0933,288.0277 404.5383,289.0015C403.9173,289.2381 403.3435,289.5835 402.7461,289.8745C396.5467,293.5543 391.5397,297.8686 388.2818,304.4548C387.8566,305.7249 387.3089,306.9604 387.0063,308.2652C386.421,310.7892 386.4349,312.7395 386.7683,315.2658C386.9007,316.2687 387.3036,318.4443 387.9991,319.4411C388.1742,319.692 388.5081,319.7808 388.7625,319.9507C385.5646,320.0941 382.3692,320.4447 379.1687,320.3808C378.8025,320.3735 379.8209,320.029 380.0871,319.7774C382.4448,317.5487 383.757,314.1245 385.5781,311.511C387.3189,308.3953 389.0623,305.285 390.5532,302.0389C391.0743,300.9042 392.1567,298.485 392.4774,297.1139C392.5864,296.6478 392.5592,296.16 392.6001,295.6831C390.3382,292.8801 391.9722,295.0967 401.789,295.1422C402.3363,295.1447 400.692,295.2263 400.1623,295.3637C396.8742,296.2168 393.9001,298.0313 390.886,299.5137C386.3256,302.1087 381.8378,304.7262 377.7306,308.0196C375.7267,309.6264 373.3512,311.7344 371.8113,313.8609C371.2604,314.6217 370.9102,315.5094 370.4597,316.3336C370.3014,316.9087 370.0114,317.4629 369.9849,318.0588C369.971,318.3726 370.2245,318.6395 370.3443,318.9299C367.2283,319.0265 364.1123,319.123 360.9963,319.2195C360.4851,319.2368 362.0304,319.3007 362.5306,319.1936C364.0686,318.8643 365.8993,317.7799 367.2214,317.0996C372.7144,313.8873 378.4425,310.3551 382.5309,305.3678C383.0811,304.6966 383.502,303.9292 383.9875,303.2099C385.192,300.4358 385.6567,298.955 383.2961,296.6792C383.0192,296.5202 382.763,296.3181 382.4656,296.2021C382.1665,296.0854 381.8395,296.06 381.5264,295.9889C384.607,295.9345 387.6875,295.8801 390.7681,295.8257C391.2527,295.829 389.7981,295.9147 389.3303,296.0412C387.7839,296.4595 387.2703,296.9053 385.8562,297.7405C381.8495,300.6035 377.4997,304.0842 375.9329,308.9677C375.6596,309.8196 375.607,310.7271 375.4441,311.6067C375.486,312.4185 375.4369,313.2401 375.5699,314.042C375.7496,315.1255 376.5444,317.2318 377.0684,318.2088C377.3799,318.7896 377.7235,319.3639 378.1612,319.8566C378.5247,320.2656 379.9817,320.7842 379.4433,320.8815C376.486,321.4163 373.4379,321.1296 370.4352,321.2537C370.9583,321.2489 371.5054,321.3961 372.0043,321.2392C373.1137,320.8901 374.9651,319.1288 375.6448,318.474C378.4828,315.74 380.9945,312.6869 383.2689,309.4736C385.2777,306.3252 387.2427,303.2535 388.3065,299.6336C388.3909,299.3466 388.9914,297.5621 388.4144,296.9732C388.2074,296.762 387.8602,296.7668 387.5831,296.6637C390.6338,296.6116 393.684,296.4944 396.735,296.5076C397.29,296.51 395.6247,296.5855 395.0809,296.696C391.1823,297.4887 387.6112,299.513 384.1515,301.3695C378.9877,304.6911 373.3353,308.4381 370.7027,314.2389C370.3493,315.0176 370.1619,315.8613 369.8915,316.6726C369.7567,317.85 369.4253,318.7681 369.9636,319.8683C370.0876,320.1218 370.8453,320.4409 370.5641,320.4651C367.3547,320.7415 364.1203,320.5081 360.9021,320.6488C360.5642,320.6636 361.5617,320.8817 361.8979,320.844C362.3163,320.7971 362.6873,320.5508 363.0821,320.4043C367.5961,316.7949 370.824,311.7268 373.4556,306.6498C373.998,305.0915 376.1019,300.2432 374.7105,298.6182C374.6001,298.4893 374.415,298.4512 374.2672,298.3677C377.5476,298.3133 380.8279,298.2479 384.1085,298.2043C384.4026,298.2004 383.5104,298.1689 383.2273,298.2486C382.8279,298.361 382.4531,298.557 382.0971,298.7702C379.9895,300.0323 378.3109,301.8909 376.6181,303.6314C372.4604,308.4937 368.4422,313.6422 367.0512,320.0547C366.8804,320.8419 366.8964,321.6583 366.819,322.4601C367.6362,326.7156 367.4775,323.8777 357.3841,324.0433C356.962,324.0502 358.2244,323.898 358.6105,323.7273C361.1062,322.6237 363.0939,320.5538 365.2111,318.9171C370.3256,314.1812 375.4338,309.2447 377.7388,302.4715C377.7966,302.1381 377.9473,301.8079 377.9124,301.4713C377.8956,301.3091 377.7018,301.2224 377.5964,301.098C380.8631,301.0452 384.1298,300.9923 387.3964,300.9394C387.7486,300.9324 386.6881,300.8709 386.34,300.9243C385.0066,301.1288 383.9607,301.7072 382.7247,302.2462C375.5389,306.1667 368.8232,310.9598 363.1344,316.8779C361.6941,318.7705 360.9443,319.3657 360.2404,321.5223C360.1081,321.9276 360.0127,322.3751 360.0962,322.7931C360.1492,323.0584 360.8876,323.3877 360.6185,323.4141C357.8125,323.6893 346.845,323.8847 352.1627,323.6161C352.7163,323.3113 353.3003,323.0562 353.8237,322.7018C355.3074,321.697 357.3709,319.8504 358.5944,318.6721C361.8971,315.4915 364.9146,312.0204 367.5436,308.261C369.2806,305.1411 369.9531,304.1265 371.3281,300.9879C372.3854,298.5743 373.251,296.0746 372.1648,293.5217C371.7377,292.7411 371.3425,291.9395 370.4975,291.5277C370.2704,291.417 369.5223,291.3087 369.7748,291.2992C377.2108,291.021 382.9003,291.4222 378.554,291.1333C374.482,292.2508 371.8643,295.8806 369.3666,299.0421C366.3863,303.3083 363.0805,308.3801 362.6386,313.7319C362.5964,314.2427 362.6963,314.7554 362.7251,315.2672C362.8379,315.4903 362.8824,315.7641 363.0634,315.9364C363.1764,316.0439 363.3694,315.9962 363.5225,316.0261C360.2824,316.0965 357.0423,316.1669 353.8021,316.2373C353.4296,316.232 354.5293,316.0562 354.8682,315.9013C356.1291,315.3249 356.8972,314.6499 358.0336,313.8127C362.1569,310.2296 366.2297,306.1021 368.6773,301.1419C369.1209,300.243 369.3968,299.2706 369.7565,298.3349C369.9239,297.4807 370.1792,296.639 370.2588,295.7721C370.5684,292.3985 368.7707,289.1021 367.1366,286.298C366.4685,285.4657 366.0882,284.8774 365.2283,284.2373C364.9606,284.038 364.0143,283.7842 364.3472,283.7618C367.6415,283.5407 370.9509,283.7215 374.2513,283.6316C374.4673,283.6257 373.8247,283.4583 373.6148,283.5093C373.3311,283.5782 373.1172,283.8147 372.8683,283.9674C371.4835,285.2722 370.3863,286.7095 369.2599,288.2469C366.9031,291.4638 364.7326,294.8046 362.7621,298.2742C357.6101,307.6084 352.5106,317.2247 351.0131,327.9237C350.9344,329.147 350.7587,330.368 350.7769,331.5937C350.7894,332.4312 351.8974,333.814 351.1048,334.0849C347.9756,335.1543 344.5044,334.5261 341.2145,334.8618C340.9211,334.8917 341.8311,335.1503 342.0877,335.0049C342.5185,334.7608 344.6734,331.8797 344.7434,331.7894C348.2097,326.8396 351.5481,321.7212 353.9116,316.1425C354.5208,314.1508 355.0966,312.3394 354.1502,310.3596C353.8261,309.9207 353.5447,309.6098 352.9755,309.5095C352.788,309.4764 352.2144,309.4872 352.4048,309.4845C362.8526,309.3353 365.5254,309.0077 361.5875,309.4552C359.6309,309.883 358.4632,311.1356 357.631,312.9493C356.2285,316.0039 354.7627,319.0255 353.2165,322.0104C351.4544,325.5507 349.6339,329.0867 348.3146,332.8214L337.7414,332.6126z" stroke="#000" stroke-linecap="round" stroke-linejoin="round" stroke-width="3"/>
<path d="M704.2857,328.5714A2.1429,2.1429 0 1 1 700,328.5714A2.1429,2.1429 0 1 1 704.2857,328.5714z" stroke="#000" stroke-linecap="round" stroke-linejoin="round" stroke-width="3"/>
<path d="M416.4286,332.5A2.8571,2.5 0 1 1 410.7143,332.5A2.8571,2.5 0 1 1 416.4286,332.5z" stroke="#000" stroke-linecap="round" stroke-linejoin="round" stroke-width="3"/>
<path d="M125,340.3571A2.8571,2.5 0 1 1 119.2857,340.3571A2.8571,2.5 0 1 1 125,340.3571z" stroke="#000" stroke-linecap="round" stroke-linejoin="round" stroke-width="3"/>
<path d="M109.2857,358.5714C109.6485,361.7252 110.2715,363.5714 115,363.5714" fill="none" stroke="#000"/>
<path d="M405,358.5714C406.1331,360.1122 408.4484,362.1429 412.1429,362.1429" fill="none" stroke="#000"/>
<path d="M692.8571,354.2857C693.3437,354.8505 696.466,355.9022 698.5714,356.4286" fill="none" stroke="#000"/>
<path d="M664.2857,228.5714L659.2857,267.1429" fill="none" stroke="#000"/>
</svg>
