<svg version="1.0" viewBox="0 0 900 450" xmlns="http://www.w3.org/2000/svg" xmlns:svg="http://www.w3.org/2000/svg">
<path d="M46.3345,87.1964H827.3364A31.621,31.621 0 0 1 858.9574,118.8174V367.1663A31.621,31.621 0 0 1 827.3364,398.7873H46.3345A31.621,31.621 0 0 1 14.7135,367.1663V118.8174A31.621,31.621 0 0 1 46.3345,87.1964z" fill="#fff" stroke="#000" stroke-linecap="round" stroke-width="7.4907"/>
<path d="M19.4054,377.0966H39.6085V387.2662H19.4054z" fill="#fff" stroke="#000" stroke-linecap="round" stroke-linejoin="round" stroke-width="3.1729" transform="matrix(1,0,.44811,.89398,0,0)"/>
<path d="M15.6574,317.1649L858.1246,317.1649" fill="none" stroke="#000"/>
<g transform="matrix(.78819,0,0,.78819,-41.06393,79.58451)">
<path d="M446.8915,78.4154A61.5183,5.3033 0 1 1 323.8549,78.4154A61.5183,5.3033 0 1 1 446.8915,78.4154z" stroke="#000" stroke-linecap="round" stroke-width="4.862" transform="translate(-240.842,288.1539)"/>
<path d="M198.2894,279.6818L198.2894,327.5703C198.2894,347.5773 182.1827,363.684 162.1757,363.684L126.7417,363.684C106.7347,363.684 90.6279,347.5773 90.6279,327.5703L90.6279,279.6818" fill="#fff" stroke="#000" stroke-linecap="round" stroke-linejoin="round" stroke-width="3.642"/>
<path d="M119.676,299.4933H143.21A.7803,.7803 0 0 1 143.9903,300.2736V310.2997A.7803,.7803 0 0 1 143.21,311.0799H119.676A.7803,.7803 0 0 1 118.8957,310.2997V300.2736A.7803,.7803 0 0 1 119.676,299.4933z" stroke="#000" stroke-linecap="square" stroke-linejoin="round" stroke-width="3.7338"/>
<path d="M161.0669,299.4933H181.4798A2.3409,2.3409 0 0 1 183.8206,301.8341V308.7391A2.3409,2.3409 0 0 1 181.4798,311.0799H161.0669A2.3409,2.3409 0 0 1 158.726,308.7391V301.8341A2.3409,2.3409 0 0 1 161.0669,299.4933z" stroke="#000" stroke-linecap="square" stroke-linejoin="round" stroke-width="3.7338"/>
<path d="M92.9361,304.5479C93.4853,304.5584 94.0347,304.5547 94.584,304.5519C94.9469,304.5498 95.3099,304.5484 95.6729,304.5477C95.9654,304.5473 96.2578,304.5473 96.5503,304.5473C96.8544,304.5467 97.1584,304.5479 97.4624,304.5485C97.8531,304.5388 98.2377,304.5481 98.6244,304.5992C99.024,304.6537 99.4275,304.6709 99.8306,304.6819C100.2358,304.6661 100.6335,304.7408 101.0346,304.7809C101.4425,304.8177 101.8526,304.8216 102.262,304.826C102.6922,304.8283 103.1223,304.8281 103.5525,304.8266C103.9261,304.8259 104.2997,304.8253 104.6733,304.8244C104.9803,304.8236 105.2873,304.8234 105.5944,304.8233C105.8859,304.8232 106.1773,304.8232 106.4689,304.8232C106.7604,304.8232 107.0519,304.8232 107.3435,304.8232C107.6622,304.8228 107.9808,304.8238 108.2995,304.8252C108.6938,304.8275 109.0881,304.8256 109.4823,304.8245C109.8532,304.8243 110.2241,304.825 110.595,304.8261C110.9917,304.8259 111.3884,304.826 111.7852,304.825C112.1651,304.8252 112.5451,304.8257 112.9251,304.8251C113.2707,304.8239 113.6162,304.8236 113.9618,304.8254C114.495,304.828 115.0282,304.8296 115.5614,304.8315C116.288,304.8343 117.0146,304.8349 117.7413,304.8325C118.2745,304.8311 118.8077,304.8272 119.341,304.827C119.7823,304.8277 120.2236,304.827 120.6649,304.8255C120.726,304.8253 120.7871,304.8251 120.8482,304.8249L119.1022,306.0242C119.0417,306.024 118.9812,306.0238 118.9207,306.0236C118.4808,306.0221 118.041,306.0215 117.6011,306.0221C117.0732,306.0219 116.5452,306.018 116.0173,306.0167C115.2897,306.0142 114.562,306.0149 113.8345,306.0177C113.2953,306.0196 112.7563,306.0212 112.2172,306.0238C111.8714,306.0255 111.5255,306.0253 111.1797,306.024C110.7996,306.0234 110.4195,306.024 110.0394,306.0242C109.6437,306.0232 109.248,306.0233 108.8523,306.0231C108.48,306.0241 108.1076,306.0249 107.7353,306.0246C107.3416,306.0235 106.9479,306.0216 106.5543,306.024C106.2337,306.0254 105.9132,306.0263 105.5926,306.0259C105.301,306.0259 105.0095,306.0259 104.7179,306.0259C104.4265,306.0259 104.1351,306.0259 103.8436,306.0258C103.5376,306.0257 103.2316,306.0255 102.9256,306.0249C102.5536,306.0242 102.1816,306.024 101.8096,306.024C101.3794,306.0232 100.9493,306.0247 100.5191,306.0199C100.1044,306.0143 99.6889,306.0054 99.2764,305.9605C98.8796,305.9159 98.4843,305.8632 98.0833,305.8735C97.6755,305.8584 97.2685,305.83 96.8641,305.7768C96.482,305.7363 96.0987,305.7476 95.7148,305.7489C95.4096,305.7495 95.1045,305.7507 94.7993,305.7501C94.5072,305.7501 94.2151,305.7501 93.923,305.7497C93.5641,305.749 93.2053,305.7476 92.8465,305.7455C92.2932,305.7427 91.7399,305.7392 91.1868,305.7495L92.9361,304.5479z" stroke="#000" stroke-linecap="square" stroke-linejoin="round" stroke-width=".4767"/>
<path d="M184.431,304.8246C185.1348,304.8364 185.8389,304.8348 186.5428,304.8343C187.1881,304.8334 187.8333,304.8316 188.4785,304.8287C188.9097,304.8263 189.3409,304.8262 189.7721,304.8257C190.1118,304.8249 190.4516,304.824 190.7914,304.8236C191.0882,304.8452 191.3735,304.7661 191.6652,304.728C191.9578,304.6939 192.2529,304.689 192.5473,304.6855C192.8395,304.6834 193.1316,304.6843 193.4238,304.6846C193.7156,304.685 194.0074,304.6852 194.2992,304.6853C194.5909,304.6853 194.8827,304.6853 195.1745,304.6853C195.4663,304.6853 195.7581,304.6853 196.0499,304.6853C196.3632,304.6847 196.6765,304.6864 196.9897,304.6864C197.307,304.6862 197.6242,304.6857 197.9415,304.6855C198.2353,304.6853 198.5291,304.6853 198.8229,304.6853C199.0173,304.6853 198.9201,304.6853 199.1144,304.6853L197.3635,305.888C197.1692,305.888 197.2664,305.888 197.072,305.888C196.7784,305.888 196.4848,305.8879 196.1912,305.8878C195.8749,305.8875 195.5585,305.8871 195.2421,305.8868C194.9278,305.8869 194.6134,305.8886 194.299,305.888C194.0072,305.888 193.7154,305.888 193.4236,305.888C193.1318,305.888 192.84,305.888 192.5482,305.8879C192.2564,305.8877 191.9646,305.8875 191.6728,305.8871C191.3815,305.8869 191.0902,305.8861 190.7989,305.8915C190.5096,305.8988 190.2198,305.911 189.9336,305.955C189.6376,306.0003 189.3431,306.0457 189.0415,306.0256C188.7038,306.0251 188.3661,306.0243 188.0283,306.0235C187.6001,306.0229 187.1718,306.0228 186.7436,306.0204C186.1038,306.0175 185.4639,306.0157 184.8241,306.0149C184.1107,306.0144 183.3972,306.013 182.6839,306.0246L184.431,304.8246z" stroke="#000" stroke-linecap="square" stroke-linejoin="round" stroke-width=".4767"/>
<path d="M144.1381,304.9878C144.672,305.0554 145.2107,305.0766 145.7486,305.0926C146.2287,305.1042 146.709,305.1042 147.1891,305.103C147.5856,305.1024 147.982,305.1023 148.3784,305.1014C149.1742,305.1218 149.9704,305.1118 150.7663,305.1081C151.2473,305.1046 151.7282,305.1031 152.2092,305.1011C152.5927,305.1012 152.9762,305.1007 153.3597,305.1017C153.7629,305.103 154.1661,305.1008 154.5693,305.1014C154.9331,305.1006 155.297,305.1007 155.6608,305.1008C156.0251,305.1013 156.3895,305.101 156.7539,305.1003C157.102,305.1015 157.45,305.1004 157.7981,305.0998C158.1386,305.1012 158.4792,305.1003 158.8197,305.0998C159.1205,305.0993 159.4214,305.0992 159.7222,305.0991C159.9738,305.1576 160.2268,305.1997 160.4849,305.2201C160.7648,305.2373 161.0455,305.2373 161.3258,305.2381C161.6175,305.2383 161.9092,305.2377 162.2009,305.2374C162.3469,305.2373 162.4929,305.2372 162.6389,305.2371L160.8881,306.4399C160.7421,306.44 160.5961,306.4401 160.4501,306.4402C160.1581,306.4405 159.8661,306.4413 159.5741,306.4398C159.2889,306.4374 159.0031,306.4348 158.7192,306.4067C158.4686,306.3774 158.2232,306.317 157.9714,306.3018C157.6712,306.3017 157.371,306.3016 157.0708,306.3011C156.7303,306.3006 156.3898,306.2997 156.0493,306.3011C155.7016,306.3005 155.354,306.2994 155.0063,306.3006C154.6425,306.2999 154.2786,306.2996 153.9147,306.3001C153.5515,306.3002 153.1884,306.3003 152.8252,306.2995C152.4223,306.3001 152.0194,306.2979 151.6165,306.2991C151.2324,306.3002 150.8483,306.2997 150.4642,306.2998C149.99,306.2978 149.5159,306.2963 149.0417,306.2928C148.239,306.2891 147.436,306.2795 146.6334,306.3001C146.2376,306.2997 145.8419,306.3006 145.4461,306.2998C144.9676,306.2969 144.4891,306.2932 144.0109,306.2772C143.4632,306.2561 142.9162,306.2234 142.3708,306.1702L144.1381,304.9878z" stroke="#000" stroke-linecap="square" stroke-linejoin="round" stroke-width=".4767"/>
<path d="M105.6336,267.1745L105.6336,285.7177" fill="none" stroke="#000" stroke-linecap="round" stroke-width="4.8046"/>
<path d="M115.1576,265.4201L115.1576,283.9634" fill="none" stroke="#000" stroke-linecap="round" stroke-width="4.8046"/>
<path d="M124.0946,266.8845L124.0946,285.4277" fill="none" stroke="#000" stroke-linecap="round" stroke-width="4.8046"/>
<path d="M135.7713,265.7172L135.7713,284.2604" fill="none" stroke="#000" stroke-linecap="round" stroke-width="4.8046"/>
<path d="M145.9299,267.9038L145.9299,286.447" fill="none" stroke="#000" stroke-linecap="round" stroke-width="4.8046"/>
<path d="M157.5592,267.7284L157.5592,286.2717" fill="none" stroke="#000" stroke-linecap="round" stroke-width="4.8046"/>
<path d="M168.0617,266.0142L168.0617,284.5575" fill="none" stroke="#000" stroke-linecap="round" stroke-width="4.8046"/>
<path d="M177.9772,269.0512L177.9772,287.5944" fill="none" stroke="#000" stroke-linecap="round" stroke-width="4.8046"/>
<path d="M188.6501,268.6825L188.6501,287.2257" fill="none" stroke="#000" stroke-linecap="round" stroke-width="4.8046"/>
<path d="M136.0174,343.7569L163.1403,339.3287" fill="none" stroke="#000" stroke-width=".7749"/>
<path d="M97.7494,271.9047L97.7494,290.4479" fill="none" stroke="#000" stroke-linecap="round" stroke-width="4.8046"/>
</g>
<path d="M581.9551,83.8818L581.9551,397.7723" fill="none" stroke="#000" stroke-width="5.6784"/>
<path d="M294.245,83.1572L294.245,397.0476" fill="none" stroke="#000" stroke-width="5.6784"/>
<g transform="matrix(.12574,0,0,.12574,816.68031,426.33225)">
<path d="M162.9615,-66.1029C166.455,-62.0454 171.1969,-61.5587 176.2443,-61.2734C182.6298,-61.4455 189.026,-62.9739 194.9925,-65.2443C198.1805,-66.4574 199.9424,-67.4904 202.9171,-69.0527C185.1139,-58.637 195.0252,-64.2154 198.3536,-67.7512C200.078,-69.5831 201.1079,-71.5131 202.0803,-73.8002C204.6069,-80.9176 204.9343,-88.5711 205.3652,-96.044C206.205,-106.9224 203.9531,-117.6028 201.5284,-128.1342C198.5789,-139.2121 194.5731,-149.9773 190.1613,-160.547C188.0488,-165.5407 185.6597,-170.4087 183.3326,-175.3036C180.1965,-181.3209 177.6309,-177.584 195.344,-184.4552C195.9544,-184.6919 196.0751,-183.3682 196.4662,-182.8431C197.1211,-181.9638 197.8094,-181.1099 198.4809,-180.2434C205.0155,-171.2763 212.8739,-163.4194 220.7492,-155.6472C225.3824,-151.1349 230.3508,-146.9467 234.7812,-142.2286C236.4627,-140.8555 237.4679,-138.92 238.8212,-137.2745C240.143,-136.0803 241.1771,-137.3375 242.3452,-138.1546C221.9421,-125.9198 229.2084,-129.8742 233.1206,-133.6257C234.6613,-135.103 236.1138,-136.6818 237.5889,-138.2234C239.6824,-140.3121 241.6662,-142.5484 243.9587,-144.4296C250.0105,-149.3955 258.4541,-153.3638 264.7123,-156.9238C270.4949,-159.4778 276.4106,-161.6997 282.419,-163.6577C283.6619,-163.9272 288.4708,-165.7766 289.5688,-164.5267C289.8243,-164.2359 289.9278,-163.8408 290.1072,-163.4978C290.1321,-163.1471 290.2293,-162.7941 290.1818,-162.4458C289.8354,-159.9037 285.8996,-156.946 284.1819,-155.3646C276.2864,-148.8374 268.6258,-142.0481 261.3333,-134.8534C254.99,-128.0483 248.4375,-121.3307 243.3873,-113.4811C240.2691,-108.5784 238.6116,-103.1651 237.8336,-97.4612C237.3182,-92.3602 237.4023,-87.2238 237.4103,-82.1038C237.6896,-76.538 238.3996,-70.961 240.0566,-65.6294C241.0066,-62.7897 242.6958,-60.7035 245.3984,-59.4565C247.1918,-58.8245 249.2452,-58.4083 251.1546,-58.7689C251.5988,-58.8529 255.3028,-60.1078 255.5991,-60.2068C259.9663,-62.5901 270.5149,-68.1635 250.7739,-57.3451C249.993,-56.9172 252.2774,-58.3004 253.0176,-58.7957C254.7175,-59.9333 255.126,-60.2677 256.721,-61.457C258.634,-62.8882 257.7277,-62.1927 259.444,-63.5378L273.1151,-69.0361C271.3827,-67.5797 272.3103,-68.3061 270.3191,-66.8738C262.2562,-60.6484 253.3247,-55.4952 244.0683,-51.2776C240.0071,-50.0654 237.0083,-49.4853 233.0532,-51.3558C230.1407,-52.9982 228.2379,-55.381 227.2136,-58.6022C225.5902,-64.0918 224.9779,-69.8068 224.4451,-75.4915C224.414,-80.6627 224.3292,-85.8471 224.7473,-91.006C225.4856,-96.9163 227.043,-102.5571 230.2219,-107.6713C230.8593,-108.7308 231.4383,-109.8277 232.1341,-110.8497C233.5635,-112.949 235.6974,-115.3519 237.3267,-117.2406C240.9264,-121.4136 244.6087,-125.5129 248.4113,-129.5027C255.5038,-136.6573 262.9793,-143.4183 270.7308,-149.8547C272.9266,-151.8936 275.199,-153.8815 277.0938,-156.2117C277.4084,-156.0458 276.3957,-156.0728 276.0435,-156.0235C274.2856,-155.7778 272.5938,-155.2318 270.901,-154.7183C264.9598,-152.7572 259.0786,-150.5816 253.4382,-147.8602C272.8794,-159.3576 261.1903,-152.8293 257.3908,-149.9058C255.0765,-148.125 253.0963,-145.926 251.0661,-143.8444C243.704,-136.0782 243.2815,-135.2558 230.8263,-128.8268C228.7851,-127.8625 227.644,-127.977 226.0472,-129.6547C224.7873,-131.3205 223.7779,-133.1781 222.2218,-134.6111C217.9797,-139.4028 213.2498,-143.7505 208.7563,-148.2998C200.956,-156.2393 193.036,-164.0853 186.0942,-172.8083C185.3483,-173.6466 184.6017,-174.4843 183.8565,-175.3233C183.4425,-175.7895 182.1438,-176.3177 182.6168,-176.7238C193.8626,-186.3779 193.2258,-188.9054 196.1308,-182.5316C198.3231,-177.537 200.6341,-172.5923 202.629,-167.5129C206.8035,-156.7535 210.6525,-145.8567 213.8046,-134.7502C216.3374,-124.1716 218.8429,-113.4256 218.1141,-102.4633C217.8266,-94.9202 217.3841,-87.2389 215.3364,-79.9427C214.6632,-78.0762 214.4306,-77.1236 213.3557,-75.4158C208.633,-67.9123 198.4469,-64.3688 191.7517,-60.1093C183.2311,-55.9217 174.1664,-52.9607 164.5762,-52.9176C163.243,-53.0245 161.8998,-53.0436 160.5765,-53.2383C156.6356,-53.8182 152.962,-55.54 150.2346,-58.4617L162.9615,-66.1029z" stroke="#000" stroke-linecap="round" stroke-linejoin="round" stroke-width="2"/>
<path d="M285.1504,-83.2549C279.2704,-81.6082 266.5253,-73.74 288.7732,-86.471C285.6873,-84.8287 283.8556,-82.1564 282.4117,-79.0736C281.5877,-76.6037 280.7082,-73.8959 280.8873,-71.2445C281.0112,-69.4099 281.4883,-68.4885 282.1122,-66.775C284.5548,-61.9495 288.3109,-57.9808 292.7681,-54.9746C296.0578,-52.6838 299.7974,-51.6413 303.7669,-51.5931C306.8299,-52.2892 309.6761,-53.4821 312.4808,-54.8725C313.6763,-55.4652 317.18,-57.4003 316.0334,-56.7177C302.8176,-48.8508 306.1278,-50.9743 310.8042,-54.1772C314.6548,-57.1431 318.8403,-60.5843 319.8322,-65.6282C319.9707,-66.3328 319.9608,-67.0585 320.0251,-67.7736C319.7705,-74.0822 315.7842,-79.021 311.938,-83.6853C309.5135,-86.3835 306.7679,-88.9566 303.4532,-90.5325C301.7709,-91.3322 300.9086,-91.4744 299.127,-91.9474C295.533,-92.1428 291.7665,-91.8011 288.3544,-90.5627C286.7769,-89.9902 284.386,-88.6593 282.9199,-87.8841C302.9062,-99.8746 289.8107,-91.9587 285.6886,-88.3736L272.0851,-82.8087C278.4156,-88.898 286.8685,-92.4857 294.2269,-96.9393C296.3627,-97.9778 297.6236,-98.6956 299.9061,-99.3886C303.5386,-100.4916 307.4494,-100.7491 311.1907,-100.1978C313.1147,-99.5839 313.8945,-99.429 315.7014,-98.4661C319.0659,-96.6731 321.8405,-93.9498 324.3224,-91.1058C328.3687,-86.1242 332.4762,-80.9616 333.0924,-74.3305C333.0628,-73.5258 333.1121,-72.7144 333.0035,-71.9165C332.2653,-66.4892 328.2283,-62.6312 324.1231,-59.4248C316.1605,-53.7094 320.2406,-56.4756 304.8488,-47.7573C300.8383,-45.4856 296.4513,-43.5622 291.8451,-43.0245C287.6957,-43.3915 283.8349,-44.6143 280.4546,-47.1325C275.8828,-50.4672 272.0386,-54.677 269.3612,-59.693C268.7366,-61.3275 268.0271,-62.8838 267.8135,-64.6468C267.4791,-67.4079 268.3981,-70.3095 269.0633,-72.941C270.3422,-76.1902 271.9653,-79.2701 275.0209,-81.1777C282.2031,-85.3118 288.9239,-90.0555 296.9357,-92.2666L285.1504,-83.2549z" stroke="#000" stroke-linecap="round" stroke-linejoin="round" stroke-width="2"/>
<path d="M347.1504,-77.2549C344.6035,-76.4403 341.9575,-75.7416 339.5363,-74.5814C338.7232,-74.1918 337.9599,-73.7059 337.1716,-73.2681C340.5173,-75.1416 343.863,-77.0152 347.2087,-78.8887C343.2371,-76.2087 340.2901,-73.5303 338.5132,-69.0387C337.3505,-65.3388 337.9081,-62.2103 340.8379,-59.4732C341.5453,-58.8124 342.3768,-58.2984 343.1462,-57.711C348.7467,-54.4938 355.3758,-53.3418 361.7904,-54.0225C363.6291,-54.2176 365.4327,-54.663 367.2538,-54.9833C371.4683,-56.0713 373.305,-56.374 377.2631,-58.0355C378.5761,-58.5866 382.3128,-60.6635 381.0902,-59.9334C363.2909,-49.3046 371.3475,-53.9354 374.1428,-56.7651C374.7627,-57.3926 375.255,-58.1344 375.8111,-58.8191C378.2486,-62.6326 378.3111,-66.0246 376.5942,-70.0879C376.279,-70.8016 374.4627,-74.5447 373.1819,-73.7346C372.9601,-73.5943 372.8477,-73.33 372.6807,-73.1277C392.8977,-84.6564 385.2006,-82.7287 383.2398,-77.11C382.3936,-74.6854 382.2459,-72.3278 382.1295,-69.7816C383.5341,-57.9615 388.7559,-47.0167 393.0457,-36.0346C398.2618,-21.5258 403.2897,-6.47 403.8684,9.092C403.9836,12.189 403.6821,15.2876 403.5889,18.3853C403.1263,21.364 402.8671,24.3813 402.2011,27.3212C400.0287,36.9109 395.0849,45.6892 387.7437,52.2682C386.4496,53.4279 384.9846,54.3816 383.6051,55.4383C378.0848,58.3221 372.8336,61.7934 367.0443,64.0899C364.6445,65.0418 358.8518,63.0561 356.9529,62.2095C349.8949,59.0631 343.7992,53.895 337.8032,49.1621C327.688,40.5031 317.7846,31.4711 308.7355,21.6837C304.0475,16.6133 302.8886,14.9067 298.8166,9.6614C295.3512,3.8792 291.2661,-2.8245 294.6732,-9.6402C296.6895,-13.6737 299.1232,-15.1372 302.5004,-18.074C312.6219,-24.6327 313.4505,-25.3796 328.104,-32.7999C331.6804,-34.6109 343.2136,-38.7065 346.7432,-39.9379C353.7819,-42.3937 361.3514,-44.8267 368.4293,-47.1393C387.0233,-52.5028 405.2349,-59.0355 423.2344,-66.1176C424.7623,-66.7671 426.2923,-67.4118 427.8181,-68.0661C428.9838,-68.566 430.1581,-69.0469 431.3089,-69.5801C433.6612,-70.67 435.8588,-72.019 438.2856,-72.9431C441.5765,-73.4124 442.7308,-69.4505 443.7159,-67.0436C445.9847,-60.9159 447.263,-54.4902 447.8147,-47.9941C447.9509,-45.0837 448.0453,-42.1595 447.6331,-39.2662C447.5909,-38.9704 447.7439,-38.5103 447.473,-38.3842C443.0642,-36.3309 438.4604,-34.7251 433.9541,-32.8956C433.9659,-33.7909 433.9166,-34.689 433.9896,-35.5814C434.0957,-36.8799 434.3191,-38.1662 434.4903,-39.4578C435.49,-46.9958 436.7994,-54.4336 438.3334,-61.8806C439.8884,-68.3767 441.231,-75.18 444.9433,-80.8503C449.1473,-85.2518 458.497,-93.9297 463.0497,-88.879C463.5264,-88.3501 463.8605,-87.7082 464.2658,-87.1228C465.1568,-85.5475 465.9266,-84.351 466.5095,-82.6055C468.1484,-77.6977 468.884,-71.9449 469.7517,-66.8403C470.8843,-62.4227 470.4525,-57.1322 471.7929,-52.8005C473.5655,-57.562 471.775,-52.58 459.0435,-46.5094C458.7853,-46.3863 459.4327,-46.9346 459.5772,-47.1814C459.9087,-47.7474 460.5577,-49.4088 460.8105,-49.919C461.1553,-50.6152 461.549,-51.286 461.9182,-51.9694C464.3127,-55.807 466.3395,-59.8622 468.9779,-63.5425C473.3892,-69.0698 477.5158,-70.2762 485.1519,-74.4725C485.4138,-74.6164 485.7664,-74.5326 486.0475,-74.431C486.4054,-74.3016 486.6836,-74.0129 487.0016,-73.8039C489.988,-70.6628 491.0279,-66.2182 492.0362,-62.1278C492.9125,-57.6742 493.3814,-53.131 495.0104,-48.8712C495.4071,-48.3128 495.7311,-47.6948 496.2004,-47.1959C499.6185,-43.5623 505.2722,-40.8461 509.9343,-39.3687C511.6885,-38.8128 513.4959,-38.4411 515.2767,-37.9773C522.8167,-36.0961 530.3825,-36.0026 537.8823,-38.0643C539.5423,-38.5206 541.2095,-38.9969 542.7819,-39.6981C544.2464,-40.3512 545.5581,-41.3036 546.9463,-42.1064C544.0584,-40.6163 541.3829,-38.6098 538.2826,-37.636C537.087,-37.2605 540.1428,-39.3201 540.9963,-40.2377C543.5122,-42.9425 544.9507,-45.9503 545.9633,-49.4488C546.6579,-52.3622 546.6456,-55.3557 546.5652,-58.3283C545.753,-64.4645 540.332,-58.4252 559.1,-66.0472C559.4417,-66.186 558.8994,-65.3356 558.842,-64.9712C558.7584,-64.4412 558.7327,-63.9037 558.678,-63.37C558.4116,-58.5352 558.3011,-53.6898 558.8385,-48.8729C559.3853,-45.774 559.9781,-42.6077 562.4072,-40.4324C564.1162,-39.3075 565.9299,-39.231 567.8176,-39.8486C572.3605,-42.1411 579.1794,-46.118 558.5218,-34.4558C557.7888,-34.042 559.9393,-35.3644 560.6358,-35.837L574.3857,-41.3039C573.3212,-40.43 573.5147,-40.5201 572.2923,-39.8054C567.6471,-37.0896 561.8948,-32.5533 556.0168,-30.8992C553.7225,-30.6532 551.5833,-31.1524 549.789,-32.6773C547.292,-35.2807 546.4771,-38.6003 545.9205,-42.101C545.3299,-46.9737 545.4484,-51.8684 545.5121,-56.7697C545.5317,-57.4241 545.5891,-59.6985 545.6353,-59.7292C555.3623,-66.1895 558.5071,-72.3046 559.7414,-65.0828C559.8109,-61.9585 559.8144,-58.8161 559.1617,-55.7418C555.9603,-42.9865 547.5064,-40.0804 535.8851,-33.2002C534.4562,-32.4798 533.0874,-31.625 531.5984,-31.0388C522.6477,-27.5147 512.8948,-27.7976 503.6881,-30.0046C501.849,-30.4923 499.9816,-30.8834 498.1708,-31.4678C493.5394,-32.9624 487.0263,-36.1598 483.6105,-39.7531C483.0478,-40.345 482.6426,-41.0688 482.1586,-41.7267C480.5349,-46.0707 480.067,-50.6739 479.2315,-55.2142C478.3895,-58.7321 477.5533,-63.083 474.6465,-65.525C473.9606,-65.439 474.3146,-65.5425 473.6055,-65.1501C477.5343,-67.4822 481.4631,-69.8142 485.392,-72.1463C485.7243,-72.3373 484.7836,-71.6778 484.5048,-71.4148C483.8053,-70.7548 483.2382,-69.9617 482.4827,-69.3567C479.6627,-65.8118 477.6289,-61.7908 475.2736,-57.9352C474.3882,-56.4197 473.6566,-54.9774 473.0931,-53.3151C472.9783,-52.9764 473.1056,-52.4677 472.7992,-52.2834C459.5044,-44.2868 462.4531,-41.0521 458.7423,-45.7121C457.6264,-50.4162 458.1984,-55.4103 457.1115,-60.1366C456.048,-66.7522 455.2298,-73.8382 451.6337,-79.6263C451.0084,-80.3781 450.7399,-81.067 449.7463,-81.2506C449.4773,-81.3003 448.6972,-81.0264 448.9293,-81.1714C452.7843,-83.5799 456.7874,-85.7435 460.684,-88.0841C461.0341,-88.2944 459.9199,-87.7826 459.574,-87.5654C459.1661,-87.3094 458.8163,-86.9709 458.4374,-86.6736C454.0539,-81.4464 452.7319,-74.3891 450.9594,-67.9864C448.9624,-58.7542 447.2481,-49.392 446.9663,-39.9303C442.6611,-37.2917 438.4431,-34.5055 434.0509,-32.0145C433.809,-31.8773 434.2913,-32.5188 434.3689,-32.7859C435.1731,-35.5526 434.9442,-38.4808 434.9437,-41.3192C434.5725,-47.6693 433.3852,-53.9844 430.9595,-59.8902C430.4967,-60.9584 429.6461,-64.0551 428.0273,-64.1645C427.6519,-64.1899 426.9629,-63.8928 426.664,-63.7855C421.876,-61.6536 417.2258,-59.2069 412.2498,-57.5029C394.41,-50.7931 376.4177,-44.5046 358.1221,-39.1385C347.5024,-35.6251 336.8084,-32.2298 326.4071,-28.0958C323.4132,-26.9058 320.6723,-24.9485 317.5147,-24.3088C315.893,-23.9803 323.0914,-27.8472 321.6038,-27.1227C319.4346,-26.0663 317.5039,-24.5777 315.454,-23.3052C311.6254,-20.2317 306.9304,-17.0518 306.0231,-11.7537C305.1302,-6.539 308.4514,-1.7173 310.6976,2.6064C312.0867,4.5044 313.4087,6.4534 314.865,8.3002C324.8107,20.9133 336.9125,31.7349 349.2333,41.9507C355.2776,46.4639 361.4425,51.5105 368.5887,54.2474C370.2378,54.879 371.9681,55.3572 373.7232,55.5527C375.2204,55.7194 379.0476,54.0524 378.2367,55.3221C376.5481,57.9662 373.0607,58.8689 370.4727,60.6424C371.9211,59.6313 373.4539,58.7314 374.818,57.609C382.3953,51.3747 387.7065,42.7683 390.0706,33.2575C390.7888,30.3679 391.0696,27.3869 391.5691,24.4516C391.713,21.3964 392.0786,18.3436 392.0007,15.286C391.6074,-.1509 386.3714,-15.0473 381.0958,-29.3649C376.6203,-40.4339 371.1739,-51.3452 369.2251,-63.2235C369.1596,-66.0352 369.2286,-68.1755 369.9092,-70.8957C369.9473,-71.0478 370.7023,-73.7558 371.0384,-73.9872C375.3553,-76.9602 379.9527,-79.5037 384.4099,-82.2619C384.7489,-82.2349 385.0988,-82.2704 385.4268,-82.1807C387.5325,-81.605 388.5419,-78.9921 389.422,-77.2845C391.2962,-72.8589 391.5534,-68.921 389.1687,-64.5737C388.6277,-63.7989 388.1602,-62.9673 387.5458,-62.2493C383.155,-57.1183 374.373,-53.5169 369.904,-51.0303C365.6297,-48.6519 360.7122,-47.6351 356.0106,-46.5342C354.1284,-46.2519 352.2609,-45.8421 350.3638,-45.6872C343.5879,-45.1342 336.6659,-46.3505 330.8819,-49.9878C330.0515,-50.6505 329.1568,-51.2399 328.3906,-51.9759C325.1513,-55.0883 324.1401,-58.5232 325.2119,-62.8203C326.8277,-67.9581 329.3611,-70.4448 333.6797,-73.6076C342.0135,-78.5311 349.5479,-83.9618 358.9357,-86.2666L347.1504,-77.2549z" stroke="#000" stroke-linecap="round" stroke-linejoin="round" stroke-width="2"/>
<path d="M549.2332,-122.1847C547.4497,-120.0919 546.0244,-117.6969 545.3462,-115.0219C544.8607,-112.3468 546.4564,-111.6609 548.6501,-110.701C552.1989,-109.4013 555.2322,-109.544 558.8667,-110.1867C563.727,-111.8529 571.4457,-116.6009 549.8419,-104.683C549.5386,-104.5156 550.4174,-105.0731 550.6735,-105.3066C551.283,-105.8622 551.3443,-106.0922 551.7431,-106.7885C552.4769,-108.4348 552.405,-109.9757 551.4599,-111.492C550.2026,-112.6833 548.3125,-112.5716 546.6902,-112.6506C545.0147,-112.4957 543.4191,-112.0801 542.057,-111.0753L553.6269,-120.3929C555.2743,-121.0166 556.9597,-121.4107 558.7396,-121.2691C560.8571,-121.0599 562.9403,-120.7594 564.3134,-118.9498C565.4318,-117.0683 565.8738,-115.1231 565.2275,-112.9755C562.8838,-105.9037 553.9818,-103.0447 547.0943,-101.3611C543.4244,-100.8997 539.7964,-101.101 536.3461,-102.5755C533.866,-103.8553 531.6424,-105.4567 532.0181,-108.5614C532.4759,-111.4436 533.8818,-114.0254 535.5706,-116.3799L549.2332,-122.1847z" stroke="#000" stroke-linecap="round" stroke-linejoin="round" stroke-width="2"/>
<path d="M359.6057,-86.1453C362.4187,-87.5125 365.103,-89.129 368.0047,-90.3079C369.8229,-91.4887 371.8175,-92.0343 373.9447,-92.2669C375.9013,-92.4156 377.8658,-92.3906 379.8266,-92.3838C381.7726,-92.5908 383.4211,-92.0588 385.1306,-91.2244C386.3272,-90.2653 387.2717,-88.9911 388.1806,-87.7589C388.971,-86.3232 389.4355,-84.7124 389.9217,-83.1481C390.3578,-81.5453 390.9514,-80.0138 391.2655,-78.376C391.5681,-76.4533 391.5887,-74.5022 391.6123,-72.5605C391.6209,-71.5593 391.6196,-70.5581 391.6191,-69.5568L378.4016,-62.8239C378.4031,-63.8201 378.4051,-64.8163 378.4006,-65.8125C378.3869,-67.6761 378.3836,-69.5468 378.1492,-71.3987C377.8884,-72.9952 377.3044,-74.4635 376.8794,-76.0128C376.4669,-77.4199 376.0218,-78.8533 375.3829,-80.165C374.6051,-81.185 373.8481,-82.3496 372.73,-83.0103C371.1597,-83.6924 369.5221,-83.7365 367.825,-83.6633C365.9059,-83.6547 363.9742,-83.6641 362.0745,-83.3541C360.0654,-82.9292 358.2552,-82.0648 356.4262,-81.1471C353.5803,-79.8236 350.8275,-78.3064 348.069,-76.8116L359.6057,-86.1453z" stroke="#000" stroke-linecap="round" stroke-linejoin="round" stroke-width="2"/>
</g>
<path d="M56.2617,51.8901H243.1399A15.9099,15.9099 0 0 1 259.0498,67.8V67.8A15.9099,15.9099 0 0 1 243.1399,83.7099H56.2617A15.9099,15.9099 0 0 1 40.3518,67.8V67.8A15.9099,15.9099 0 0 1 56.2617,51.8901z" fill="#fff" stroke="#000" stroke-linecap="round" stroke-linejoin="round" stroke-width="4"/>
<path d="M101.5203,44.9288A36.8706,34.8503 0 1 1 27.7792,44.9288A36.8706,34.8503 0 1 1 101.5203,44.9288z" stroke="#000" stroke-linecap="round" stroke-linejoin="round" stroke-width="7.491" transform="matrix(.7121,0,0,.7121,-4.93458,29.51295)"/>
<text font-family="Bitstream Vera Sans" font-size="40" x="16.7147" y="75.5475">
   <tspan fill="#f9f9f9" x="16.7147" y="75.5475">51</tspan>
  </text>
<text font-family="Bitstream Vera Sans" font-size="20" x="155.2966" y="154.3693">
   <tspan text-align="center" text-anchor="middle" x="155.2966" y="154.3693">Hey, j'ai un souci</tspan>
   <tspan text-align="center" text-anchor="middle" x="155.2966" y="179.3693">avec une fonction !</tspan>
  </text>
<text font-family="Bitstream Vera Sans" font-size="20" x="102.076" y="73.6719">
   <tspan x="102.076" y="73.6719">Assistants</tspan>
  </text>
<path d="M20.796,375.6841H40.999V385.8537H20.796z" fill="#fff" stroke="#000" stroke-linecap="round" stroke-linejoin="round" stroke-width="3.1729" transform="matrix(1,0,.44811,.89398,0,0)"/>
<g transform="translate(1.0102,12.1218)">
<path d="M251.0229,366.4099A33.0825,6.8185 0 1 1 184.8579,366.4099A33.0825,6.8185 0 1 1 251.0229,366.4099z" stroke="#000" stroke-linecap="round" stroke-linejoin="round" stroke-width="3" transform="translate(17.2132,-8.0406)"/>
<path d="M253.5483,341.4086A35.1028,43.9416 0 1 1 183.3427,341.4086A35.1028,43.9416 0 1 1 253.5483,341.4086z" fill="#fff" stroke="#000" stroke-linecap="round" stroke-linejoin="round" stroke-width="3" transform="translate(18.6878,-26.769)"/>
<path d="M272.7412,311.8616C270.8786,329.2185 279.9031,347.4213 271.9836,351.5101C267.7614,353.69 253.2477,344.1439 242.506,348.0778C210.5014,359.7988 218.3327,329.696 215.6676,311.104C213.2488,294.2307 202.9781,297.8485 203.5805,291.3117C204.5496,280.795 218.382,270.2344 239.1536,269.4352C271.4545,275.3459 271.4239,296.2986 272.7412,311.8616z" stroke="#000" stroke-linecap="round" stroke-linejoin="round" stroke-width="3"/>
<path d="M202.5356,312.1142L221.2234,312.1142" fill="none" stroke="#000"/>
</g>
<path d="M136.3706,328.0241L126.0165,317.67L126.0165,299.4873L136.3706,309.7151" fill="#fff" fill-rule="evenodd" stroke="#000" stroke-width="3"/>
<g transform="translate(-.5051,-2.7779)">
<path d="M135.8933,244.4521H182.3047A5.5654,5.5654 0 0 1 187.8702,250.0176V299.4595A5.5654,5.5654 0 0 1 182.3047,305.0249H135.8933A5.5654,5.5654 0 0 1 130.3279,299.4595V250.0176A5.5654,5.5654 0 0 1 135.8933,244.4521z" fill="#fff" stroke="#000" stroke-linecap="round" stroke-linejoin="round" stroke-width="3.0363"/>
<path d="M138.4187,245.7148H184.8301A5.5654,5.5654 0 0 1 190.3956,251.2803V300.7222A5.5654,5.5654 0 0 1 184.8301,306.2876H138.4187A5.5654,5.5654 0 0 1 132.8532,300.7222V251.2803A5.5654,5.5654 0 0 1 138.4187,245.7148z" fill="#fff" stroke="#000" stroke-linecap="round" stroke-linejoin="round" stroke-width="3.0363"/>
<path d="M140.6915,247.7351H187.103A5.5654,5.5654 0 0 1 192.6684,253.3006V302.7425A5.5654,5.5654 0 0 1 187.103,308.3079H140.6915A5.5654,5.5654 0 0 1 135.1261,302.7425V253.3006A5.5654,5.5654 0 0 1 140.6915,247.7351z" fill="#fff" stroke="#000" stroke-linecap="round" stroke-linejoin="round" stroke-width="3.0363"/>
<path d="M146.0933,252.2626H181.9537A5.4296,5.4296 0 0 1 187.3833,257.6922V293.5526A5.4296,5.4296 0 0 1 181.9537,298.9822H146.0933A5.4296,5.4296 0 0 1 140.6637,293.5526V257.6922A5.4296,5.4296 0 0 1 146.0933,252.2626z" fill="#fff" stroke="#000" stroke-linecap="round" stroke-linejoin="round" stroke-width="3"/>
<path d="M140.9163,286.3553L186.8782,286.3553" fill="none" stroke="#000"/>
<path d="M170.9683,276.0012L170.9683,286.3553" fill="none" stroke="#000"/>
<path d="M175.2615,276.2538L175.2615,286.1028" fill="none" stroke="#000"/>
<path d="M171.2209,276.5063L165.0337,270.3191L172.6098,262.743L179.5546,269.6878L175.7013,276.3619" fill="none" stroke="#000"/>
<path d="M175.514,276.5063L170.9683,276.5063" fill="none" stroke="#000"/>
<path d="M184.6054,303.7804A1.2627,1.2627 0 1 1 182.08,303.7804A1.2627,1.2627 0 1 1 184.6054,303.7804z" fill="#fff" stroke="#000" stroke-linecap="round" stroke-linejoin="round" stroke-width="3" transform="translate(3.5355,-.5051)"/>
<path d="M143.1891,303.2753A1.2627,1.2627 0 1 1 140.6637,303.2753A1.2627,1.2627 0 1 1 143.1891,303.2753z" fill="#fff" stroke="#000" stroke-linecap="round" stroke-linejoin="round" stroke-width="3" transform="translate(-.5051,-.2525)"/>
</g>
<path d="M156.1948,273.8546L156.1948,270.9505L153.6695,270.9505L153.6695,273.3496L158.3414,273.3496" fill="none" stroke="#000"/>
<path d="M153.7957,273.4758L155.1847,276.1275L156.5736,273.4758" fill="none" stroke="#000"/>
<path d="M155.3109,276.2538L155.3109,280.6732L153.8617,283.1833" fill="none" stroke="#000"/>
<path d="M155.4372,280.5469L156.9727,283.2064" fill="none" stroke="#000"/>
<path d="M155.5635,278.1478L158.5488,277.3479L159.6041,281.5571" fill="none" stroke="#000"/>
<g transform="translate(2.7779,-1.2627)">
<path d="M135.3604,310.5989H189.9087A1.7678,1.7678 0 0 1 191.6765,312.3667V328.5291A1.7678,1.7678 0 0 1 189.9087,330.2969H135.3604A1.7678,1.7678 0 0 1 133.5927,328.5291V312.3667A1.7678,1.7678 0 0 1 135.3604,310.5989z" fill="#fff" stroke="#000" stroke-linecap="round" stroke-linejoin="round" stroke-width="3"/>
<path d="M145.967,310.8515H180.8173A1.7678,1.7678 0 0 1 182.5851,312.6193V317.67A1.7678,1.7678 0 0 1 180.8173,319.4378H145.967A1.7678,1.7678 0 0 1 144.1993,317.67V312.6193A1.7678,1.7678 0 0 1 145.967,310.8515z" fill="#fff" stroke="#000" stroke-linecap="round" stroke-linejoin="round" stroke-width="3"/>
<text font-family="Bitstream Vera Sans" font-size="20" x="158.3414" y="327.014">
    <tspan font-size="6" x="158.3414" y="327.014">NES</tspan>
   </text>
</g>
<path d="M124.4829,296.3937L131.0857,296.3937" fill="none" stroke="#000" stroke-width="1.0437"/>
<path d="M194.4544,308.9574L190.3506,304.8537" fill="none" stroke="#000"/>
<path d="M108.0863,192.9162L86.7734,272.4571" fill="none" stroke="#000"/>
<path d="M196.2221,338.3781L198.2424,342.4187" fill="none" stroke="#000"/>
<path d="M195.212,340.3985L199.2526,340.3985" fill="none" stroke="#000"/>
<path d="M144.4518,321.2056C145.0679,321.3515 147.51,323.2814 148.2399,324.7411C148.6818,325.625 148.1314,327.9528 147.9873,328.5292C147.6419,329.9109 147.0369,330.8159 146.7247,332.0647C146.2011,334.1591 151.6082,339.0735 153.0381,340.1459C155.0422,341.649 157.8195,343.375 160.6142,343.934C163.8575,344.5826 166.9847,343.6814 170.2107,343.6814C173.8373,343.6814 177.9762,341.1877 181.0698,339.6408C182.8219,338.7648 184.3951,337.8057 186.1206,337.1155C187.5451,336.5456 187.9144,336.2251 189.4036,335.8528C189.8994,335.7288 190.3812,335.4821 190.9188,335.3477" fill="none" stroke="#000"/>
<path d="M311.3101,379.5471H331.5131V389.7167H311.3101z" fill="#fff" stroke="#000" stroke-linecap="round" stroke-linejoin="round" stroke-width="3.1729" transform="matrix(1,0,.44811,.89398,0,0)"/>
<g transform="matrix(.78819,0,0,.78819,249.91851,80.76505)">
<path d="M446.8915,78.4154A61.5183,5.3033 0 1 1 323.8549,78.4154A61.5183,5.3033 0 1 1 446.8915,78.4154z" stroke="#000" stroke-linecap="round" stroke-width="4.862" transform="translate(-240.842,288.1539)"/>
<path d="M198.2894,279.6818L198.2894,327.5703C198.2894,347.5773 182.1827,363.684 162.1757,363.684L126.7417,363.684C106.7347,363.684 90.6279,347.5773 90.6279,327.5703L90.6279,279.6818" fill="#fff" stroke="#000" stroke-linecap="round" stroke-linejoin="round" stroke-width="3.642"/>
<path d="M119.676,299.4933H143.21A.7803,.7803 0 0 1 143.9903,300.2736V310.2997A.7803,.7803 0 0 1 143.21,311.0799H119.676A.7803,.7803 0 0 1 118.8957,310.2997V300.2736A.7803,.7803 0 0 1 119.676,299.4933z" stroke="#000" stroke-linecap="square" stroke-linejoin="round" stroke-width="3.7338"/>
<path d="M161.0669,299.4933H181.4798A2.3409,2.3409 0 0 1 183.8206,301.8341V308.7391A2.3409,2.3409 0 0 1 181.4798,311.0799H161.0669A2.3409,2.3409 0 0 1 158.726,308.7391V301.8341A2.3409,2.3409 0 0 1 161.0669,299.4933z" stroke="#000" stroke-linecap="square" stroke-linejoin="round" stroke-width="3.7338"/>
<path d="M92.9361,304.5479C93.4853,304.5584 94.0347,304.5547 94.584,304.5519C94.9469,304.5498 95.3099,304.5484 95.6729,304.5477C95.9654,304.5473 96.2578,304.5473 96.5503,304.5473C96.8544,304.5467 97.1584,304.5479 97.4624,304.5485C97.8531,304.5388 98.2377,304.5481 98.6244,304.5992C99.024,304.6537 99.4275,304.6709 99.8306,304.6819C100.2358,304.6661 100.6335,304.7408 101.0346,304.7809C101.4425,304.8177 101.8526,304.8216 102.262,304.826C102.6922,304.8283 103.1223,304.8281 103.5525,304.8266C103.9261,304.8259 104.2997,304.8253 104.6733,304.8244C104.9803,304.8236 105.2873,304.8234 105.5944,304.8233C105.8859,304.8232 106.1773,304.8232 106.4689,304.8232C106.7604,304.8232 107.0519,304.8232 107.3435,304.8232C107.6622,304.8228 107.9808,304.8238 108.2995,304.8252C108.6938,304.8275 109.0881,304.8256 109.4823,304.8245C109.8532,304.8243 110.2241,304.825 110.595,304.8261C110.9917,304.8259 111.3884,304.826 111.7852,304.825C112.1651,304.8252 112.5451,304.8257 112.9251,304.8251C113.2707,304.8239 113.6162,304.8236 113.9618,304.8254C114.495,304.828 115.0282,304.8296 115.5614,304.8315C116.288,304.8343 117.0146,304.8349 117.7413,304.8325C118.2745,304.8311 118.8077,304.8272 119.341,304.827C119.7823,304.8277 120.2236,304.827 120.6649,304.8255C120.726,304.8253 120.7871,304.8251 120.8482,304.8249L119.1022,306.0242C119.0417,306.024 118.9812,306.0238 118.9207,306.0236C118.4808,306.0221 118.041,306.0215 117.6011,306.0221C117.0732,306.0219 116.5452,306.018 116.0173,306.0167C115.2897,306.0142 114.562,306.0149 113.8345,306.0177C113.2953,306.0196 112.7563,306.0212 112.2172,306.0238C111.8714,306.0255 111.5255,306.0253 111.1797,306.024C110.7996,306.0234 110.4195,306.024 110.0394,306.0242C109.6437,306.0232 109.248,306.0233 108.8523,306.0231C108.48,306.0241 108.1076,306.0249 107.7353,306.0246C107.3416,306.0235 106.9479,306.0216 106.5543,306.024C106.2337,306.0254 105.9132,306.0263 105.5926,306.0259C105.301,306.0259 105.0095,306.0259 104.7179,306.0259C104.4265,306.0259 104.1351,306.0259 103.8436,306.0258C103.5376,306.0257 103.2316,306.0255 102.9256,306.0249C102.5536,306.0242 102.1816,306.024 101.8096,306.024C101.3794,306.0232 100.9493,306.0247 100.5191,306.0199C100.1044,306.0143 99.6889,306.0054 99.2764,305.9605C98.8796,305.9159 98.4843,305.8632 98.0833,305.8735C97.6755,305.8584 97.2685,305.83 96.8641,305.7768C96.482,305.7363 96.0987,305.7476 95.7148,305.7489C95.4096,305.7495 95.1045,305.7507 94.7993,305.7501C94.5072,305.7501 94.2151,305.7501 93.923,305.7497C93.5641,305.749 93.2053,305.7476 92.8465,305.7455C92.2932,305.7427 91.7399,305.7392 91.1868,305.7495L92.9361,304.5479z" stroke="#000" stroke-linecap="square" stroke-linejoin="round" stroke-width=".4767"/>
<path d="M184.431,304.8246C185.1348,304.8364 185.8389,304.8348 186.5428,304.8343C187.1881,304.8334 187.8333,304.8316 188.4785,304.8287C188.9097,304.8263 189.3409,304.8262 189.7721,304.8257C190.1118,304.8249 190.4516,304.824 190.7914,304.8236C191.0882,304.8452 191.3735,304.7661 191.6652,304.728C191.9578,304.6939 192.2529,304.689 192.5473,304.6855C192.8395,304.6834 193.1316,304.6843 193.4238,304.6846C193.7156,304.685 194.0074,304.6852 194.2992,304.6853C194.5909,304.6853 194.8827,304.6853 195.1745,304.6853C195.4663,304.6853 195.7581,304.6853 196.0499,304.6853C196.3632,304.6847 196.6765,304.6864 196.9897,304.6864C197.307,304.6862 197.6242,304.6857 197.9415,304.6855C198.2353,304.6853 198.5291,304.6853 198.8229,304.6853C199.0173,304.6853 198.9201,304.6853 199.1144,304.6853L197.3635,305.888C197.1692,305.888 197.2664,305.888 197.072,305.888C196.7784,305.888 196.4848,305.8879 196.1912,305.8878C195.8749,305.8875 195.5585,305.8871 195.2421,305.8868C194.9278,305.8869 194.6134,305.8886 194.299,305.888C194.0072,305.888 193.7154,305.888 193.4236,305.888C193.1318,305.888 192.84,305.888 192.5482,305.8879C192.2564,305.8877 191.9646,305.8875 191.6728,305.8871C191.3815,305.8869 191.0902,305.8861 190.7989,305.8915C190.5096,305.8988 190.2198,305.911 189.9336,305.955C189.6376,306.0003 189.3431,306.0457 189.0415,306.0256C188.7038,306.0251 188.3661,306.0243 188.0283,306.0235C187.6001,306.0229 187.1718,306.0228 186.7436,306.0204C186.1038,306.0175 185.4639,306.0157 184.8241,306.0149C184.1107,306.0144 183.3972,306.013 182.6839,306.0246L184.431,304.8246z" stroke="#000" stroke-linecap="square" stroke-linejoin="round" stroke-width=".4767"/>
<path d="M144.1381,304.9878C144.672,305.0554 145.2107,305.0766 145.7486,305.0926C146.2287,305.1042 146.709,305.1042 147.1891,305.103C147.5856,305.1024 147.982,305.1023 148.3784,305.1014C149.1742,305.1218 149.9704,305.1118 150.7663,305.1081C151.2473,305.1046 151.7282,305.1031 152.2092,305.1011C152.5927,305.1012 152.9762,305.1007 153.3597,305.1017C153.7629,305.103 154.1661,305.1008 154.5693,305.1014C154.9331,305.1006 155.297,305.1007 155.6608,305.1008C156.0251,305.1013 156.3895,305.101 156.7539,305.1003C157.102,305.1015 157.45,305.1004 157.7981,305.0998C158.1386,305.1012 158.4792,305.1003 158.8197,305.0998C159.1205,305.0993 159.4214,305.0992 159.7222,305.0991C159.9738,305.1576 160.2268,305.1997 160.4849,305.2201C160.7648,305.2373 161.0455,305.2373 161.3258,305.2381C161.6175,305.2383 161.9092,305.2377 162.2009,305.2374C162.3469,305.2373 162.4929,305.2372 162.6389,305.2371L160.8881,306.4399C160.7421,306.44 160.5961,306.4401 160.4501,306.4402C160.1581,306.4405 159.8661,306.4413 159.5741,306.4398C159.2889,306.4374 159.0031,306.4348 158.7192,306.4067C158.4686,306.3774 158.2232,306.317 157.9714,306.3018C157.6712,306.3017 157.371,306.3016 157.0708,306.3011C156.7303,306.3006 156.3898,306.2997 156.0493,306.3011C155.7016,306.3005 155.354,306.2994 155.0063,306.3006C154.6425,306.2999 154.2786,306.2996 153.9147,306.3001C153.5515,306.3002 153.1884,306.3003 152.8252,306.2995C152.4223,306.3001 152.0194,306.2979 151.6165,306.2991C151.2324,306.3002 150.8483,306.2997 150.4642,306.2998C149.99,306.2978 149.5159,306.2963 149.0417,306.2928C148.239,306.2891 147.436,306.2795 146.6334,306.3001C146.2376,306.2997 145.8419,306.3006 145.4461,306.2998C144.9676,306.2969 144.4891,306.2932 144.0109,306.2772C143.4632,306.2561 142.9162,306.2234 142.3708,306.1702L144.1381,304.9878z" stroke="#000" stroke-linecap="square" stroke-linejoin="round" stroke-width=".4767"/>
<path d="M105.6336,267.1745L105.6336,285.7177" fill="none" stroke="#000" stroke-linecap="round" stroke-width="4.8046"/>
<path d="M115.1576,265.4201L115.1576,283.9634" fill="none" stroke="#000" stroke-linecap="round" stroke-width="4.8046"/>
<path d="M124.0946,266.8845L124.0946,285.4277" fill="none" stroke="#000" stroke-linecap="round" stroke-width="4.8046"/>
<path d="M135.7713,265.7172L135.7713,284.2604" fill="none" stroke="#000" stroke-linecap="round" stroke-width="4.8046"/>
<path d="M145.9299,267.9038L145.9299,286.447" fill="none" stroke="#000" stroke-linecap="round" stroke-width="4.8046"/>
<path d="M157.5592,267.7284L157.5592,286.2717" fill="none" stroke="#000" stroke-linecap="round" stroke-width="4.8046"/>
<path d="M168.0617,266.0142L168.0617,284.5575" fill="none" stroke="#000" stroke-linecap="round" stroke-width="4.8046"/>
<path d="M177.9772,269.0512L177.9772,287.5944" fill="none" stroke="#000" stroke-linecap="round" stroke-width="4.8046"/>
<path d="M188.6501,268.6825L188.6501,287.2257" fill="none" stroke="#000" stroke-linecap="round" stroke-width="4.8046"/>
<path d="M136.0174,343.7569L163.1403,339.3287" fill="none" stroke="#000" stroke-width=".7749"/>
<path d="M97.7494,271.9047L97.7494,290.4479" fill="none" stroke="#000" stroke-linecap="round" stroke-width="4.8046"/>
</g>
<text font-family="Bitstream Vera Sans" font-size="20" x="438.1978" y="140.3976">
   <tspan text-align="center" text-anchor="middle" x="438.1978" y="140.3976">Pas le temps je dois</tspan>
   <tspan text-align="center" text-anchor="middle" x="438.1978" y="165.3976">re-terminer "La bande à</tspan>
   <tspan text-align="center" text-anchor="middle" x="438.1978" y="190.3976">Picsou" sur Nintendo NES !</tspan>
  </text>
<path d="M312.7006,378.1347H332.9037V388.3043H312.7006z" fill="#fff" stroke="#000" stroke-linecap="round" stroke-linejoin="round" stroke-width="3.1729" transform="matrix(1,0,.44811,.89398,0,0)"/>
<path d="M429.3734,330.2148L419.0193,319.8607L419.0193,301.678L429.3734,311.9058" fill="#fff" fill-rule="evenodd" stroke="#000" stroke-width="3"/>
<g transform="translate(292.4977,-.5872)">
<path d="M135.8933,244.4521H182.3047A5.5654,5.5654 0 0 1 187.8702,250.0176V299.4595A5.5654,5.5654 0 0 1 182.3047,305.0249H135.8933A5.5654,5.5654 0 0 1 130.3279,299.4595V250.0176A5.5654,5.5654 0 0 1 135.8933,244.4521z" fill="#fff" stroke="#000" stroke-linecap="round" stroke-linejoin="round" stroke-width="3.0363"/>
<path d="M138.4187,245.7148H184.8301A5.5654,5.5654 0 0 1 190.3956,251.2803V300.7222A5.5654,5.5654 0 0 1 184.8301,306.2876H138.4187A5.5654,5.5654 0 0 1 132.8532,300.7222V251.2803A5.5654,5.5654 0 0 1 138.4187,245.7148z" fill="#fff" stroke="#000" stroke-linecap="round" stroke-linejoin="round" stroke-width="3.0363"/>
<path d="M140.6915,247.7351H187.103A5.5654,5.5654 0 0 1 192.6684,253.3006V302.7425A5.5654,5.5654 0 0 1 187.103,308.3079H140.6915A5.5654,5.5654 0 0 1 135.1261,302.7425V253.3006A5.5654,5.5654 0 0 1 140.6915,247.7351z" fill="#fff" stroke="#000" stroke-linecap="round" stroke-linejoin="round" stroke-width="3.0363"/>
<path d="M146.0933,252.2626H181.9537A5.4296,5.4296 0 0 1 187.3833,257.6922V293.5526A5.4296,5.4296 0 0 1 181.9537,298.9822H146.0933A5.4296,5.4296 0 0 1 140.6637,293.5526V257.6922A5.4296,5.4296 0 0 1 146.0933,252.2626z" fill="#fff" stroke="#000" stroke-linecap="round" stroke-linejoin="round" stroke-width="3"/>
<path d="M140.9163,286.3553L186.8782,286.3553" fill="none" stroke="#000"/>
<path d="M170.9683,276.0012L170.9683,286.3553" fill="none" stroke="#000"/>
<path d="M175.2615,276.2538L175.2615,286.1028" fill="none" stroke="#000"/>
<path d="M171.2209,276.5063L165.0337,270.3191L172.6098,262.743L179.5546,269.6878L175.7013,276.3619" fill="none" stroke="#000"/>
<path d="M175.514,276.5063L170.9683,276.5063" fill="none" stroke="#000"/>
<path d="M184.6054,303.7804A1.2627,1.2627 0 1 1 182.08,303.7804A1.2627,1.2627 0 1 1 184.6054,303.7804z" fill="#fff" stroke="#000" stroke-linecap="round" stroke-linejoin="round" stroke-width="3" transform="translate(3.5355,-.5051)"/>
<path d="M143.1891,303.2753A1.2627,1.2627 0 1 1 140.6637,303.2753A1.2627,1.2627 0 1 1 143.1891,303.2753z" fill="#fff" stroke="#000" stroke-linecap="round" stroke-linejoin="round" stroke-width="3" transform="translate(-.5051,-.2525)"/>
</g>
<g transform="translate(301.0028,2.1907)">
<path d="M156.1948,273.8546L156.1948,270.9505L153.6695,270.9505L153.6695,273.3496L158.3414,273.3496" fill="none" stroke="#000"/>
<path d="M153.7957,273.4758L155.1847,276.1275L156.5736,273.4758" fill="none" stroke="#000"/>
<path d="M155.3109,276.2538L155.3109,280.6732L153.8617,283.1833" fill="none" stroke="#000"/>
<path d="M155.4372,280.5469L156.9727,283.2064" fill="none" stroke="#000"/>
<path d="M155.5635,278.1478L158.5488,277.3479L159.6041,281.5571" fill="none" stroke="#000"/>
</g>
<g transform="translate(295.7807,.928)">
<path d="M135.3604,310.5989H189.9087A1.7678,1.7678 0 0 1 191.6765,312.3667V328.5291A1.7678,1.7678 0 0 1 189.9087,330.2969H135.3604A1.7678,1.7678 0 0 1 133.5927,328.5291V312.3667A1.7678,1.7678 0 0 1 135.3604,310.5989z" fill="#fff" stroke="#000" stroke-linecap="round" stroke-linejoin="round" stroke-width="3"/>
<path d="M145.967,310.8515H180.8173A1.7678,1.7678 0 0 1 182.5851,312.6193V317.67A1.7678,1.7678 0 0 1 180.8173,319.4378H145.967A1.7678,1.7678 0 0 1 144.1993,317.67V312.6193A1.7678,1.7678 0 0 1 145.967,310.8515z" fill="#fff" stroke="#000" stroke-linecap="round" stroke-linejoin="round" stroke-width="3"/>
<text font-family="Bitstream Vera Sans" font-size="20" x="158.3414" y="327.014">
    <tspan font-size="6" x="158.3414" y="327.014">NES</tspan>
   </text>
</g>
<path d="M417.4856,298.5844L424.0885,298.5844" fill="none" stroke="#000" stroke-width="1.0437"/>
<path d="M487.4571,311.1481L483.3534,307.0444" fill="none" stroke="#000"/>
<path d="M489.2249,340.5688L491.2452,344.6094" fill="none" stroke="#000"/>
<path d="M488.2147,342.5891L492.2554,342.5891" fill="none" stroke="#000"/>
<path d="M437.4546,323.3962C438.0707,323.5422 440.5128,325.4721 441.2427,326.9318C441.6846,327.8157 441.1342,330.1435 440.9901,330.7199C440.6447,332.1016 440.0396,333.0066 439.7274,334.2554C439.2038,336.3498 444.611,341.2642 446.0409,342.3366C448.045,343.8397 450.8222,345.5657 453.617,346.1247C456.8602,346.7733 459.9874,345.8721 463.2135,345.8721C466.84,345.8721 470.9789,343.3784 474.0726,341.8315C475.8247,340.9555 477.3978,339.9964 479.1234,339.3061C480.5479,338.7363 480.9171,338.4158 482.4064,338.0435C482.9022,337.9195 483.384,337.6728 483.9216,337.5384" fill="none" stroke="#000"/>
<path d="M592.1299,381.807H612.333V391.9766H592.1299z" fill="#fff" stroke="#000" stroke-linecap="round" stroke-linejoin="round" stroke-width="3.1729" transform="matrix(1,0,.44811,.89398,0,0)"/>
<path d="M446.8915,78.4154A61.5183,5.3033 0 1 1 323.8549,78.4154A61.5183,5.3033 0 1 1 446.8915,78.4154z" stroke="#000" stroke-linecap="round" stroke-width="4.862" transform="matrix(.78819,0,0,.78819,343.94212,310.91558)"/>
<path d="M690.0611,304.238L690.0611,341.9832C690.0611,357.7525 677.366,370.4476 661.5967,370.4476L633.6679,370.4476C617.8986,370.4476 605.2034,357.7525 605.2034,341.9832L605.2034,304.238" fill="#fff" stroke="#000" stroke-linecap="round" stroke-linejoin="round" stroke-width="2.8706"/>
<path d="M617.0308,294.3798L617.0308,308.9954" fill="none" stroke="#000" stroke-linecap="round" stroke-width="3.787"/>
<path d="M624.5375,292.997L624.5375,307.6126" fill="none" stroke="#000" stroke-linecap="round" stroke-width="3.787"/>
<path d="M631.5815,294.1512L631.5815,308.7668" fill="none" stroke="#000" stroke-linecap="round" stroke-width="3.787"/>
<path d="M640.785,293.2312L640.785,307.8468" fill="none" stroke="#000" stroke-linecap="round" stroke-width="3.787"/>
<path d="M648.7919,294.9546L648.7919,309.5702" fill="none" stroke="#000" stroke-linecap="round" stroke-width="3.787"/>
<path d="M657.958,294.8164L657.958,309.432" fill="none" stroke="#000" stroke-linecap="round" stroke-width="3.787"/>
<path d="M666.236,293.4653L666.236,308.0809" fill="none" stroke="#000" stroke-linecap="round" stroke-width="3.787"/>
<path d="M674.0512,295.859L674.0512,310.4746" fill="none" stroke="#000" stroke-linecap="round" stroke-width="3.787"/>
<path d="M682.4635,295.5684L682.4635,310.184" fill="none" stroke="#000" stroke-linecap="round" stroke-width="3.787"/>
<path d="M610.8165,298.1081L610.8165,312.7237" fill="none" stroke="#000" stroke-linecap="round" stroke-width="3.787"/>
<text font-family="Bitstream Vera Sans" font-size="20" x="694.8781" y="157.5133">
   <tspan text-align="center" text-anchor="middle" x="694.8781" y="157.5133">Hmm...  Je peux... ?</tspan>
  </text>
<path d="M593.5204,380.3946H613.7235V390.5641H593.5204z" fill="#fff" stroke="#000" stroke-linecap="round" stroke-linejoin="round" stroke-width="3.1729" transform="matrix(1,0,.44811,.89398,0,0)"/>
<path d="M711.2059,332.2351L700.8519,321.881L700.8519,303.6983L711.2059,313.9261" fill="#fff" fill-rule="evenodd" stroke="#000" stroke-width="3"/>
<g transform="translate(574.3302,1.4331)">
<path d="M135.8933,244.4521H182.3047A5.5654,5.5654 0 0 1 187.8702,250.0176V299.4595A5.5654,5.5654 0 0 1 182.3047,305.0249H135.8933A5.5654,5.5654 0 0 1 130.3279,299.4595V250.0176A5.5654,5.5654 0 0 1 135.8933,244.4521z" fill="#fff" stroke="#000" stroke-linecap="round" stroke-linejoin="round" stroke-width="3.0363"/>
<path d="M138.4187,245.7148H184.8301A5.5654,5.5654 0 0 1 190.3956,251.2803V300.7222A5.5654,5.5654 0 0 1 184.8301,306.2876H138.4187A5.5654,5.5654 0 0 1 132.8532,300.7222V251.2803A5.5654,5.5654 0 0 1 138.4187,245.7148z" fill="#fff" stroke="#000" stroke-linecap="round" stroke-linejoin="round" stroke-width="3.0363"/>
<path d="M140.6915,247.7351H187.103A5.5654,5.5654 0 0 1 192.6684,253.3006V302.7425A5.5654,5.5654 0 0 1 187.103,308.3079H140.6915A5.5654,5.5654 0 0 1 135.1261,302.7425V253.3006A5.5654,5.5654 0 0 1 140.6915,247.7351z" fill="#fff" stroke="#000" stroke-linecap="round" stroke-linejoin="round" stroke-width="3.0363"/>
<path d="M146.0933,252.2626H181.9537A5.4296,5.4296 0 0 1 187.3833,257.6922V293.5526A5.4296,5.4296 0 0 1 181.9537,298.9822H146.0933A5.4296,5.4296 0 0 1 140.6637,293.5526V257.6922A5.4296,5.4296 0 0 1 146.0933,252.2626z" fill="#fff" stroke="#000" stroke-linecap="round" stroke-linejoin="round" stroke-width="3"/>
<path d="M140.9163,286.3553L186.8782,286.3553" fill="none" stroke="#000"/>
<path d="M170.9683,276.0012L170.9683,286.3553" fill="none" stroke="#000"/>
<path d="M175.2615,276.2538L175.2615,286.1028" fill="none" stroke="#000"/>
<path d="M171.2209,276.5063L165.0337,270.3191L172.6098,262.743L179.5546,269.6878L175.7013,276.3619" fill="none" stroke="#000"/>
<path d="M175.514,276.5063L170.9683,276.5063" fill="none" stroke="#000"/>
<path d="M184.6054,303.7804A1.2627,1.2627 0 1 1 182.08,303.7804A1.2627,1.2627 0 1 1 184.6054,303.7804z" fill="#fff" stroke="#000" stroke-linecap="round" stroke-linejoin="round" stroke-width="3" transform="translate(3.5355,-.5051)"/>
<path d="M143.1891,303.2753A1.2627,1.2627 0 1 1 140.6637,303.2753A1.2627,1.2627 0 1 1 143.1891,303.2753z" fill="#fff" stroke="#000" stroke-linecap="round" stroke-linejoin="round" stroke-width="3" transform="translate(-.5051,-.2525)"/>
</g>
<g transform="translate(596.8353,4.211)">
<path d="M156.1948,273.8546L156.1948,270.9505L153.6695,270.9505L153.6695,273.3496L158.3414,273.3496" fill="none" stroke="#000"/>
<path d="M153.7957,273.4758L155.1847,276.1275L156.5736,273.4758" fill="none" stroke="#000"/>
<path d="M155.3109,276.2538L155.3109,280.6732L153.8617,283.1833" fill="none" stroke="#000"/>
<path d="M155.4372,280.5469L156.9727,283.2064" fill="none" stroke="#000"/>
<path d="M155.5635,278.1478L158.5488,277.3479L159.6041,281.5571" fill="none" stroke="#000"/>
</g>
<g transform="translate(577.6132,2.9483)">
<path d="M135.3604,310.5989H189.9087A1.7678,1.7678 0 0 1 191.6765,312.3667V328.5291A1.7678,1.7678 0 0 1 189.9087,330.2969H135.3604A1.7678,1.7678 0 0 1 133.5927,328.5291V312.3667A1.7678,1.7678 0 0 1 135.3604,310.5989z" fill="#fff" stroke="#000" stroke-linecap="round" stroke-linejoin="round" stroke-width="3"/>
<path d="M145.967,310.8515H180.8173A1.7678,1.7678 0 0 1 182.5851,312.6193V317.67A1.7678,1.7678 0 0 1 180.8173,319.4378H145.967A1.7678,1.7678 0 0 1 144.1993,317.67V312.6193A1.7678,1.7678 0 0 1 145.967,310.8515z" fill="#fff" stroke="#000" stroke-linecap="round" stroke-linejoin="round" stroke-width="3"/>
<text font-family="Bitstream Vera Sans" font-size="20" x="158.3414" y="327.014">
    <tspan font-size="6" x="158.3414" y="327.014">NES</tspan>
   </text>
</g>
<path d="M699.3182,300.6047L705.921,300.6047" fill="none" stroke="#000" stroke-width="1.0437"/>
<path d="M769.2897,313.1685L765.1859,309.0647" fill="none" stroke="#000"/>
<path d="M771.0575,342.5891L773.0778,346.6298" fill="none" stroke="#000"/>
<path d="M770.0473,344.6094L774.0879,344.6094" fill="none" stroke="#000"/>
<path d="M719.2871,325.4165C719.9033,325.5625 722.3454,327.4924 723.0752,328.9521C723.5172,329.836 722.9668,332.1638 722.8227,332.7402C722.4772,334.1219 721.8722,335.0269 721.56,336.2757C721.0364,338.3701 726.4436,343.2845 727.8734,344.3569C729.8775,345.86 732.6548,347.586 735.4496,348.145C738.6928,348.7936 741.82,347.8924 745.046,347.8924C748.6726,347.8924 752.8115,345.3987 755.9052,343.8518C757.6573,342.9758 759.2304,342.0167 760.9559,341.3265C762.3805,340.7566 762.7497,340.4361 764.2389,340.0638C764.7347,339.9398 765.2166,339.6931 765.7541,339.5587" fill="none" stroke="#000"/>
<path d="M501.0357,204.5329L511.6423,258.071" fill="none" stroke="#000"/>
<text font-family="Bitstream Vera Sans" font-size="20" x="772.8572" y="205">
   <tspan text-align="center" text-anchor="middle" x="772.8572" y="205">Crève va faire</tspan>
   <tspan text-align="center" text-anchor="middle" x="772.8572" y="230">ta fonction !</tspan>
  </text>
<path d="M651.4286,170.7143L635,267.8571" fill="none" stroke="#000"/>
<path d="M795,238.5714L805,264.2857" fill="none" stroke="#000"/>
<text font-family="Bitstream Vera Sans" font-size="20" transform="rotate(36.493)" x="269.1435" y="80.7962">
   <tspan font-size="10" x="269.1435" y="80.7962">*bip* *bip*</tspan>
  </text>
<text font-family="Bitstream Vera Sans" font-size="20" transform="matrix(.72719,-.68644,.68644,.72719,0,0)" x="114.6799" y="468.0274">
   <tspan font-size="10" x="114.6799" y="468.0274">*bip* *bip*</tspan>
  </text>
<text font-family="Bitstream Vera Sans" font-size="20" transform="matrix(.72719,-.68644,.68644,.72719,0,0)" x="318.4293" y="661.1576">
   <tspan font-size="10" x="318.4293" y="661.1576">*tadaa*</tspan>
  </text>
<g transform="translate(293.1833,14.7532)">
<path d="M251.0229,366.4099A33.0825,6.8185 0 1 1 184.8579,366.4099A33.0825,6.8185 0 1 1 251.0229,366.4099z" stroke="#000" stroke-linecap="round" stroke-linejoin="round" stroke-width="3" transform="translate(17.2132,-8.0406)"/>
<path d="M253.5483,341.4086A35.1028,43.9416 0 1 1 183.3427,341.4086A35.1028,43.9416 0 1 1 253.5483,341.4086z" fill="#fff" stroke="#000" stroke-linecap="round" stroke-linejoin="round" stroke-width="3" transform="translate(18.6878,-26.769)"/>
<path d="M272.7412,311.8616C270.8786,329.2185 279.9031,347.4213 271.9836,351.5101C267.7614,353.69 253.2477,344.1439 242.506,348.0778C210.5014,359.7988 218.3327,329.696 215.6676,311.104C213.2488,294.2307 202.9781,297.8485 203.5805,291.3117C204.5496,280.795 218.382,270.2344 239.1536,269.4352C271.4545,275.3459 271.4239,296.2986 272.7412,311.8616z" stroke="#000" stroke-linecap="round" stroke-linejoin="round" stroke-width="3"/>
<path d="M202.5356,312.1142L221.2234,312.1142" fill="none" stroke="#000"/>
</g>
<g transform="translate(575.5209,16.5209)">
<path d="M251.0229,366.4099A33.0825,6.8185 0 1 1 184.8579,366.4099A33.0825,6.8185 0 1 1 251.0229,366.4099z" stroke="#000" stroke-linecap="round" stroke-linejoin="round" stroke-width="3" transform="translate(17.2132,-8.0406)"/>
<path d="M253.5483,341.4086A35.1028,43.9416 0 1 1 183.3427,341.4086A35.1028,43.9416 0 1 1 253.5483,341.4086z" fill="#fff" stroke="#000" stroke-linecap="round" stroke-linejoin="round" stroke-width="3" transform="translate(18.6878,-26.769)"/>
<path d="M272.7412,311.8616C270.8786,329.2185 279.9031,347.4213 271.9836,351.5101C267.7614,353.69 253.2477,344.1439 242.506,348.0778C210.5014,359.7988 218.3327,329.696 215.6676,311.104C213.2488,294.2307 202.9781,297.8485 203.5805,291.3117C204.5496,280.795 218.382,270.2344 239.1536,269.4352C271.4545,275.3459 271.4239,296.2986 272.7412,311.8616z" stroke="#000" stroke-linecap="round" stroke-linejoin="round" stroke-width="3"/>
<path d="M202.5356,312.1142L221.2234,312.1142" fill="none" stroke="#000"/>
</g>
</svg>
