<svg version="1.0" viewBox="0 0 900 450" xmlns="http://www.w3.org/2000/svg" xmlns:svg="http://www.w3.org/2000/svg">
<path d="M49.9059,73.625H830.9078A31.621,31.621 0 0 1 862.5288,105.246V353.5948A31.621,31.621 0 0 1 830.9078,385.2159H49.9059A31.621,31.621 0 0 1 18.2849,353.5948V105.246A31.621,31.621 0 0 1 49.9059,73.625z" fill="#fff" stroke="#000" stroke-linecap="round" stroke-width="7.4907"/>
<path d="M585.5265,70.3104L585.5265,384.2008" fill="none" stroke="#000" stroke-width="5.6784"/>
<path d="M506.4286,329.2857L585.3571,329.2857" fill="none" stroke="#000"/>
<path d="M297.8164,70.4618L297.8164,383.484" fill="none" stroke="#000" stroke-width="5.6706"/>
<g transform="matrix(.12574,0,0,.12574,820.25174,412.76081)">
<path d="M162.9615,-66.1029C166.455,-62.0454 171.1969,-61.5587 176.2443,-61.2734C182.6298,-61.4455 189.026,-62.9739 194.9925,-65.2443C198.1805,-66.4574 199.9424,-67.4904 202.9171,-69.0527C185.1139,-58.637 195.0252,-64.2154 198.3536,-67.7512C200.078,-69.5831 201.1079,-71.5131 202.0803,-73.8002C204.6069,-80.9176 204.9343,-88.5711 205.3652,-96.044C206.205,-106.9224 203.9531,-117.6028 201.5284,-128.1342C198.5789,-139.2121 194.5731,-149.9773 190.1613,-160.547C188.0488,-165.5407 185.6597,-170.4087 183.3326,-175.3036C180.1965,-181.3209 177.6309,-177.584 195.344,-184.4552C195.9544,-184.6919 196.0751,-183.3682 196.4662,-182.8431C197.1211,-181.9638 197.8094,-181.1099 198.4809,-180.2434C205.0155,-171.2763 212.8739,-163.4194 220.7492,-155.6472C225.3824,-151.1349 230.3508,-146.9467 234.7812,-142.2286C236.4627,-140.8555 237.4679,-138.92 238.8212,-137.2745C240.143,-136.0803 241.1771,-137.3375 242.3452,-138.1546C221.9421,-125.9198 229.2084,-129.8742 233.1206,-133.6257C234.6613,-135.103 236.1138,-136.6818 237.5889,-138.2234C239.6824,-140.3121 241.6662,-142.5484 243.9587,-144.4296C250.0105,-149.3955 258.4541,-153.3638 264.7123,-156.9238C270.4949,-159.4778 276.4106,-161.6997 282.419,-163.6577C283.6619,-163.9272 288.4708,-165.7766 289.5688,-164.5267C289.8243,-164.2359 289.9278,-163.8408 290.1072,-163.4978C290.1321,-163.1471 290.2293,-162.7941 290.1818,-162.4458C289.8354,-159.9037 285.8996,-156.946 284.1819,-155.3646C276.2864,-148.8374 268.6258,-142.0481 261.3333,-134.8534C254.99,-128.0483 248.4375,-121.3307 243.3873,-113.4811C240.2691,-108.5784 238.6116,-103.1651 237.8336,-97.4612C237.3182,-92.3602 237.4023,-87.2238 237.4103,-82.1038C237.6896,-76.538 238.3996,-70.961 240.0566,-65.6294C241.0066,-62.7897 242.6958,-60.7035 245.3984,-59.4565C247.1918,-58.8245 249.2452,-58.4083 251.1546,-58.7689C251.5988,-58.8529 255.3028,-60.1078 255.5991,-60.2068C259.9663,-62.5901 270.5149,-68.1635 250.7739,-57.3451C249.993,-56.9172 252.2774,-58.3004 253.0176,-58.7957C254.7175,-59.9333 255.126,-60.2677 256.721,-61.457C258.634,-62.8882 257.7277,-62.1927 259.444,-63.5378L273.1151,-69.0361C271.3827,-67.5797 272.3103,-68.3061 270.3191,-66.8738C262.2562,-60.6484 253.3247,-55.4952 244.0683,-51.2776C240.0071,-50.0654 237.0083,-49.4853 233.0532,-51.3558C230.1407,-52.9982 228.2379,-55.381 227.2136,-58.6022C225.5902,-64.0918 224.9779,-69.8068 224.4451,-75.4915C224.414,-80.6627 224.3292,-85.8471 224.7473,-91.006C225.4856,-96.9163 227.043,-102.5571 230.2219,-107.6713C230.8593,-108.7308 231.4383,-109.8277 232.1341,-110.8497C233.5635,-112.949 235.6974,-115.3519 237.3267,-117.2406C240.9264,-121.4136 244.6087,-125.5129 248.4113,-129.5027C255.5038,-136.6573 262.9793,-143.4183 270.7308,-149.8547C272.9266,-151.8936 275.199,-153.8815 277.0938,-156.2117C277.4084,-156.0458 276.3957,-156.0728 276.0435,-156.0235C274.2856,-155.7778 272.5938,-155.2318 270.901,-154.7183C264.9598,-152.7572 259.0786,-150.5816 253.4382,-147.8602C272.8794,-159.3576 261.1903,-152.8293 257.3908,-149.9058C255.0765,-148.125 253.0963,-145.926 251.0661,-143.8444C243.704,-136.0782 243.2815,-135.2558 230.8263,-128.8268C228.7851,-127.8625 227.644,-127.977 226.0472,-129.6547C224.7873,-131.3205 223.7779,-133.1781 222.2218,-134.6111C217.9797,-139.4028 213.2498,-143.7505 208.7563,-148.2998C200.956,-156.2393 193.036,-164.0853 186.0942,-172.8083C185.3483,-173.6466 184.6017,-174.4843 183.8565,-175.3233C183.4425,-175.7895 182.1438,-176.3177 182.6168,-176.7238C193.8626,-186.3779 193.2258,-188.9054 196.1308,-182.5316C198.3231,-177.537 200.6341,-172.5923 202.629,-167.5129C206.8035,-156.7535 210.6525,-145.8567 213.8046,-134.7502C216.3374,-124.1716 218.8429,-113.4256 218.1141,-102.4633C217.8266,-94.9202 217.3841,-87.2389 215.3364,-79.9427C214.6632,-78.0762 214.4306,-77.1236 213.3557,-75.4158C208.633,-67.9123 198.4469,-64.3688 191.7517,-60.1093C183.2311,-55.9217 174.1664,-52.9607 164.5762,-52.9176C163.243,-53.0245 161.8998,-53.0436 160.5765,-53.2383C156.6356,-53.8182 152.962,-55.54 150.2346,-58.4617L162.9615,-66.1029z" stroke="#000" stroke-linecap="round" stroke-linejoin="round" stroke-width="2"/>
<path d="M285.1504,-83.2549C279.2704,-81.6082 266.5253,-73.74 288.7732,-86.471C285.6873,-84.8287 283.8556,-82.1564 282.4117,-79.0736C281.5877,-76.6037 280.7082,-73.8959 280.8873,-71.2445C281.0112,-69.4099 281.4883,-68.4885 282.1122,-66.775C284.5548,-61.9495 288.3109,-57.9808 292.7681,-54.9746C296.0578,-52.6838 299.7974,-51.6413 303.7669,-51.5931C306.8299,-52.2892 309.6761,-53.4821 312.4808,-54.8725C313.6763,-55.4652 317.18,-57.4003 316.0334,-56.7177C302.8176,-48.8508 306.1278,-50.9743 310.8042,-54.1772C314.6548,-57.1431 318.8403,-60.5843 319.8322,-65.6282C319.9707,-66.3328 319.9608,-67.0585 320.0251,-67.7736C319.7705,-74.0822 315.7842,-79.021 311.938,-83.6853C309.5135,-86.3835 306.7679,-88.9566 303.4532,-90.5325C301.7709,-91.3322 300.9086,-91.4744 299.127,-91.9474C295.533,-92.1428 291.7665,-91.8011 288.3544,-90.5627C286.7769,-89.9902 284.386,-88.6593 282.9199,-87.8841C302.9062,-99.8746 289.8107,-91.9587 285.6886,-88.3736L272.0851,-82.8087C278.4156,-88.898 286.8685,-92.4857 294.2269,-96.9393C296.3627,-97.9778 297.6236,-98.6956 299.9061,-99.3886C303.5386,-100.4916 307.4494,-100.7491 311.1907,-100.1978C313.1147,-99.5839 313.8945,-99.429 315.7014,-98.4661C319.0659,-96.6731 321.8405,-93.9498 324.3224,-91.1058C328.3687,-86.1242 332.4762,-80.9616 333.0924,-74.3305C333.0628,-73.5258 333.1121,-72.7144 333.0035,-71.9165C332.2653,-66.4892 328.2283,-62.6312 324.1231,-59.4248C316.1605,-53.7094 320.2406,-56.4756 304.8488,-47.7573C300.8383,-45.4856 296.4513,-43.5622 291.8451,-43.0245C287.6957,-43.3915 283.8349,-44.6143 280.4546,-47.1325C275.8828,-50.4672 272.0386,-54.677 269.3612,-59.693C268.7366,-61.3275 268.0271,-62.8838 267.8135,-64.6468C267.4791,-67.4079 268.3981,-70.3095 269.0633,-72.941C270.3422,-76.1902 271.9653,-79.2701 275.0209,-81.1777C282.2031,-85.3118 288.9239,-90.0555 296.9357,-92.2666L285.1504,-83.2549z" stroke="#000" stroke-linecap="round" stroke-linejoin="round" stroke-width="2"/>
<path d="M347.1504,-77.2549C344.6035,-76.4403 341.9575,-75.7416 339.5363,-74.5814C338.7232,-74.1918 337.9599,-73.7059 337.1716,-73.2681C340.5173,-75.1416 343.863,-77.0152 347.2087,-78.8887C343.2371,-76.2087 340.2901,-73.5303 338.5132,-69.0387C337.3505,-65.3388 337.9081,-62.2103 340.8379,-59.4732C341.5453,-58.8124 342.3768,-58.2984 343.1462,-57.711C348.7467,-54.4938 355.3758,-53.3418 361.7904,-54.0225C363.6291,-54.2176 365.4327,-54.663 367.2538,-54.9833C371.4683,-56.0713 373.305,-56.374 377.2631,-58.0355C378.5761,-58.5866 382.3128,-60.6635 381.0902,-59.9334C363.2909,-49.3046 371.3475,-53.9354 374.1428,-56.7651C374.7627,-57.3926 375.255,-58.1344 375.8111,-58.8191C378.2486,-62.6326 378.3111,-66.0246 376.5942,-70.0879C376.279,-70.8016 374.4627,-74.5447 373.1819,-73.7346C372.9601,-73.5943 372.8477,-73.33 372.6807,-73.1277C392.8977,-84.6564 385.2006,-82.7287 383.2398,-77.11C382.3936,-74.6854 382.2459,-72.3278 382.1295,-69.7816C383.5341,-57.9615 388.7559,-47.0167 393.0457,-36.0346C398.2618,-21.5258 403.2897,-6.47 403.8684,9.092C403.9836,12.189 403.6821,15.2876 403.5889,18.3853C403.1263,21.364 402.8671,24.3813 402.2011,27.3212C400.0287,36.9109 395.0849,45.6892 387.7437,52.2682C386.4496,53.4279 384.9846,54.3816 383.6051,55.4383C378.0848,58.3221 372.8336,61.7934 367.0443,64.0899C364.6445,65.0418 358.8518,63.0561 356.9529,62.2095C349.8949,59.0631 343.7992,53.895 337.8032,49.1621C327.688,40.5031 317.7846,31.4711 308.7355,21.6837C304.0475,16.6133 302.8886,14.9067 298.8166,9.6614C295.3512,3.8792 291.2661,-2.8245 294.6732,-9.6402C296.6895,-13.6737 299.1232,-15.1372 302.5004,-18.074C312.6219,-24.6327 313.4505,-25.3796 328.104,-32.7999C331.6804,-34.6109 343.2136,-38.7065 346.7432,-39.9379C353.7819,-42.3937 361.3514,-44.8267 368.4293,-47.1393C387.0233,-52.5028 405.2349,-59.0355 423.2344,-66.1176C424.7623,-66.7671 426.2923,-67.4118 427.8181,-68.0661C428.9838,-68.566 430.1581,-69.0469 431.3089,-69.5801C433.6612,-70.67 435.8588,-72.019 438.2856,-72.9431C441.5765,-73.4124 442.7308,-69.4505 443.7159,-67.0436C445.9847,-60.9159 447.263,-54.4902 447.8147,-47.9941C447.9509,-45.0837 448.0453,-42.1595 447.6331,-39.2662C447.5909,-38.9704 447.7439,-38.5103 447.473,-38.3842C443.0642,-36.3309 438.4604,-34.7251 433.9541,-32.8956C433.9659,-33.7909 433.9166,-34.689 433.9896,-35.5814C434.0957,-36.8799 434.3191,-38.1662 434.4903,-39.4578C435.49,-46.9958 436.7994,-54.4336 438.3334,-61.8806C439.8884,-68.3767 441.231,-75.18 444.9433,-80.8503C449.1473,-85.2518 458.497,-93.9297 463.0497,-88.879C463.5264,-88.3501 463.8605,-87.7082 464.2658,-87.1228C465.1568,-85.5475 465.9266,-84.351 466.5095,-82.6055C468.1484,-77.6977 468.884,-71.9449 469.7517,-66.8403C470.8843,-62.4227 470.4525,-57.1322 471.7929,-52.8005C473.5655,-57.562 471.775,-52.58 459.0435,-46.5094C458.7853,-46.3863 459.4327,-46.9346 459.5772,-47.1814C459.9087,-47.7474 460.5577,-49.4088 460.8105,-49.919C461.1553,-50.6152 461.549,-51.286 461.9182,-51.9694C464.3127,-55.807 466.3395,-59.8622 468.9779,-63.5425C473.3892,-69.0698 477.5158,-70.2762 485.1519,-74.4725C485.4138,-74.6164 485.7664,-74.5326 486.0475,-74.431C486.4054,-74.3016 486.6836,-74.0129 487.0016,-73.8039C489.988,-70.6628 491.0279,-66.2182 492.0362,-62.1278C492.9125,-57.6742 493.3814,-53.131 495.0104,-48.8712C495.4071,-48.3128 495.7311,-47.6948 496.2004,-47.1959C499.6185,-43.5623 505.2722,-40.8461 509.9343,-39.3687C511.6885,-38.8128 513.4959,-38.4411 515.2767,-37.9773C522.8167,-36.0961 530.3825,-36.0026 537.8823,-38.0643C539.5423,-38.5206 541.2095,-38.9969 542.7819,-39.6981C544.2464,-40.3512 545.5581,-41.3036 546.9463,-42.1064C544.0584,-40.6163 541.3829,-38.6098 538.2826,-37.636C537.087,-37.2605 540.1428,-39.3201 540.9963,-40.2377C543.5122,-42.9425 544.9507,-45.9503 545.9633,-49.4488C546.6579,-52.3622 546.6456,-55.3557 546.5652,-58.3283C545.753,-64.4645 540.332,-58.4252 559.1,-66.0472C559.4417,-66.186 558.8994,-65.3356 558.842,-64.9712C558.7584,-64.4412 558.7327,-63.9037 558.678,-63.37C558.4116,-58.5352 558.3011,-53.6898 558.8385,-48.8729C559.3853,-45.774 559.9781,-42.6077 562.4072,-40.4324C564.1162,-39.3075 565.9299,-39.231 567.8176,-39.8486C572.3605,-42.1411 579.1794,-46.118 558.5218,-34.4558C557.7888,-34.042 559.9393,-35.3644 560.6358,-35.837L574.3857,-41.3039C573.3212,-40.43 573.5147,-40.5201 572.2923,-39.8054C567.6471,-37.0896 561.8948,-32.5533 556.0168,-30.8992C553.7225,-30.6532 551.5833,-31.1524 549.789,-32.6773C547.292,-35.2807 546.4771,-38.6003 545.9205,-42.101C545.3299,-46.9737 545.4484,-51.8684 545.5121,-56.7697C545.5317,-57.4241 545.5891,-59.6985 545.6353,-59.7292C555.3623,-66.1895 558.5071,-72.3046 559.7414,-65.0828C559.8109,-61.9585 559.8144,-58.8161 559.1617,-55.7418C555.9603,-42.9865 547.5064,-40.0804 535.8851,-33.2002C534.4562,-32.4798 533.0874,-31.625 531.5984,-31.0388C522.6477,-27.5147 512.8948,-27.7976 503.6881,-30.0046C501.849,-30.4923 499.9816,-30.8834 498.1708,-31.4678C493.5394,-32.9624 487.0263,-36.1598 483.6105,-39.7531C483.0478,-40.345 482.6426,-41.0688 482.1586,-41.7267C480.5349,-46.0707 480.067,-50.6739 479.2315,-55.2142C478.3895,-58.7321 477.5533,-63.083 474.6465,-65.525C473.9606,-65.439 474.3146,-65.5425 473.6055,-65.1501C477.5343,-67.4822 481.4631,-69.8142 485.392,-72.1463C485.7243,-72.3373 484.7836,-71.6778 484.5048,-71.4148C483.8053,-70.7548 483.2382,-69.9617 482.4827,-69.3567C479.6627,-65.8118 477.6289,-61.7908 475.2736,-57.9352C474.3882,-56.4197 473.6566,-54.9774 473.0931,-53.3151C472.9783,-52.9764 473.1056,-52.4677 472.7992,-52.2834C459.5044,-44.2868 462.4531,-41.0521 458.7423,-45.7121C457.6264,-50.4162 458.1984,-55.4103 457.1115,-60.1366C456.048,-66.7522 455.2298,-73.8382 451.6337,-79.6263C451.0084,-80.3781 450.7399,-81.067 449.7463,-81.2506C449.4773,-81.3003 448.6972,-81.0264 448.9293,-81.1714C452.7843,-83.5799 456.7874,-85.7435 460.684,-88.0841C461.0341,-88.2944 459.9199,-87.7826 459.574,-87.5654C459.1661,-87.3094 458.8163,-86.9709 458.4374,-86.6736C454.0539,-81.4464 452.7319,-74.3891 450.9594,-67.9864C448.9624,-58.7542 447.2481,-49.392 446.9663,-39.9303C442.6611,-37.2917 438.4431,-34.5055 434.0509,-32.0145C433.809,-31.8773 434.2913,-32.5188 434.3689,-32.7859C435.1731,-35.5526 434.9442,-38.4808 434.9437,-41.3192C434.5725,-47.6693 433.3852,-53.9844 430.9595,-59.8902C430.4967,-60.9584 429.6461,-64.0551 428.0273,-64.1645C427.6519,-64.1899 426.9629,-63.8928 426.664,-63.7855C421.876,-61.6536 417.2258,-59.2069 412.2498,-57.5029C394.41,-50.7931 376.4177,-44.5046 358.1221,-39.1385C347.5024,-35.6251 336.8084,-32.2298 326.4071,-28.0958C323.4132,-26.9058 320.6723,-24.9485 317.5147,-24.3088C315.893,-23.9803 323.0914,-27.8472 321.6038,-27.1227C319.4346,-26.0663 317.5039,-24.5777 315.454,-23.3052C311.6254,-20.2317 306.9304,-17.0518 306.0231,-11.7537C305.1302,-6.539 308.4514,-1.7173 310.6976,2.6064C312.0867,4.5044 313.4087,6.4534 314.865,8.3002C324.8107,20.9133 336.9125,31.7349 349.2333,41.9507C355.2776,46.4639 361.4425,51.5105 368.5887,54.2474C370.2378,54.879 371.9681,55.3572 373.7232,55.5527C375.2204,55.7194 379.0476,54.0524 378.2367,55.3221C376.5481,57.9662 373.0607,58.8689 370.4727,60.6424C371.9211,59.6313 373.4539,58.7314 374.818,57.609C382.3953,51.3747 387.7065,42.7683 390.0706,33.2575C390.7888,30.3679 391.0696,27.3869 391.5691,24.4516C391.713,21.3964 392.0786,18.3436 392.0007,15.286C391.6074,-.1509 386.3714,-15.0473 381.0958,-29.3649C376.6203,-40.4339 371.1739,-51.3452 369.2251,-63.2235C369.1596,-66.0352 369.2286,-68.1755 369.9092,-70.8957C369.9473,-71.0478 370.7023,-73.7558 371.0384,-73.9872C375.3553,-76.9602 379.9527,-79.5037 384.4099,-82.2619C384.7489,-82.2349 385.0988,-82.2704 385.4268,-82.1807C387.5325,-81.605 388.5419,-78.9921 389.422,-77.2845C391.2962,-72.8589 391.5534,-68.921 389.1687,-64.5737C388.6277,-63.7989 388.1602,-62.9673 387.5458,-62.2493C383.155,-57.1183 374.373,-53.5169 369.904,-51.0303C365.6297,-48.6519 360.7122,-47.6351 356.0106,-46.5342C354.1284,-46.2519 352.2609,-45.8421 350.3638,-45.6872C343.5879,-45.1342 336.6659,-46.3505 330.8819,-49.9878C330.0515,-50.6505 329.1568,-51.2399 328.3906,-51.9759C325.1513,-55.0883 324.1401,-58.5232 325.2119,-62.8203C326.8277,-67.9581 329.3611,-70.4448 333.6797,-73.6076C342.0135,-78.5311 349.5479,-83.9618 358.9357,-86.2666L347.1504,-77.2549z" stroke="#000" stroke-linecap="round" stroke-linejoin="round" stroke-width="2"/>
<path d="M549.2332,-122.1847C547.4497,-120.0919 546.0244,-117.6969 545.3462,-115.0219C544.8607,-112.3468 546.4564,-111.6609 548.6501,-110.701C552.1989,-109.4013 555.2322,-109.544 558.8667,-110.1867C563.727,-111.8529 571.4457,-116.6009 549.8419,-104.683C549.5386,-104.5156 550.4174,-105.0731 550.6735,-105.3066C551.283,-105.8622 551.3443,-106.0922 551.7431,-106.7885C552.4769,-108.4348 552.405,-109.9757 551.4599,-111.492C550.2026,-112.6833 548.3125,-112.5716 546.6902,-112.6506C545.0147,-112.4957 543.4191,-112.0801 542.057,-111.0753L553.6269,-120.3929C555.2743,-121.0166 556.9597,-121.4107 558.7396,-121.2691C560.8571,-121.0599 562.9403,-120.7594 564.3134,-118.9498C565.4318,-117.0683 565.8738,-115.1231 565.2275,-112.9755C562.8838,-105.9037 553.9818,-103.0447 547.0943,-101.3611C543.4244,-100.8997 539.7964,-101.101 536.3461,-102.5755C533.866,-103.8553 531.6424,-105.4567 532.0181,-108.5614C532.4759,-111.4436 533.8818,-114.0254 535.5706,-116.3799L549.2332,-122.1847z" stroke="#000" stroke-linecap="round" stroke-linejoin="round" stroke-width="2"/>
<path d="M359.6057,-86.1453C362.4187,-87.5125 365.103,-89.129 368.0047,-90.3079C369.8229,-91.4887 371.8175,-92.0343 373.9447,-92.2669C375.9013,-92.4156 377.8658,-92.3906 379.8266,-92.3838C381.7726,-92.5908 383.4211,-92.0588 385.1306,-91.2244C386.3272,-90.2653 387.2717,-88.9911 388.1806,-87.7589C388.971,-86.3232 389.4355,-84.7124 389.9217,-83.1481C390.3578,-81.5453 390.9514,-80.0138 391.2655,-78.376C391.5681,-76.4533 391.5887,-74.5022 391.6123,-72.5605C391.6209,-71.5593 391.6196,-70.5581 391.6191,-69.5568L378.4016,-62.8239C378.4031,-63.8201 378.4051,-64.8163 378.4006,-65.8125C378.3869,-67.6761 378.3836,-69.5468 378.1492,-71.3987C377.8884,-72.9952 377.3044,-74.4635 376.8794,-76.0128C376.4669,-77.4199 376.0218,-78.8533 375.3829,-80.165C374.6051,-81.185 373.8481,-82.3496 372.73,-83.0103C371.1597,-83.6924 369.5221,-83.7365 367.825,-83.6633C365.9059,-83.6547 363.9742,-83.6641 362.0745,-83.3541C360.0654,-82.9292 358.2552,-82.0648 356.4262,-81.1471C353.5803,-79.8236 350.8275,-78.3064 348.069,-76.8116L359.6057,-86.1453z" stroke="#000" stroke-linecap="round" stroke-linejoin="round" stroke-width="2"/>
</g>
<path d="M59.8331,38.3186H246.7113A15.9099,15.9099 0 0 1 262.6212,54.2286V54.2286A15.9099,15.9099 0 0 1 246.7113,70.1385H59.8331A15.9099,15.9099 0 0 1 43.9232,54.2286V54.2286A15.9099,15.9099 0 0 1 59.8331,38.3186z" fill="#fff" stroke="#000" stroke-linecap="round" stroke-linejoin="round" stroke-width="4"/>
<path d="M101.5203,44.9288A36.8706,34.8503 0 1 1 27.7792,44.9288A36.8706,34.8503 0 1 1 101.5203,44.9288z" stroke="#000" stroke-linecap="round" stroke-linejoin="round" stroke-width="7.491" transform="matrix(.7121,0,0,.7121,-1.36316,15.94152)"/>
<text font-family="Bitstream Vera Sans" font-size="40" x="20.2861" y="61.9761">
   <tspan fill="#f9f9f9" x="20.2861" y="61.9761">61</tspan>
  </text>
<text font-family="Bitstream Vera Sans" font-size="20" x="120.1964" y="60.9956">
   <tspan x="120.1964" y="60.9956">Facile</tspan>
  </text>
<text font-family="Bitstream Vera Sans" font-size="20" x="160.4054" y="129.5155">
   <tspan text-align="center" text-anchor="middle" x="160.4054" y="129.5155"></tspan>
  </text>
<path d="M190.3832,231.8649L190.3832,279.7534C190.3832,299.7604 174.2764,315.8671 154.2694,315.8671L118.8354,315.8671C98.8284,315.8671 82.7217,299.7604 82.7217,279.7534L82.7217,231.8649" fill="#fff" stroke="#000" stroke-linecap="round" stroke-linejoin="round" stroke-width="3.6422"/>
<path d="M153.1606,251.6764H173.5735A2.3409,2.3409 0 0 1 175.9144,254.0173V260.9222A2.3409,2.3409 0 0 1 173.5735,263.2631H153.1606A2.3409,2.3409 0 0 1 150.8198,260.9222V254.0173A2.3409,2.3409 0 0 1 153.1606,251.6764z" stroke="#000" stroke-linecap="square" stroke-linejoin="round" stroke-width="3.7338"/>
<path d="M85.0299,256.731C85.5791,256.7414 86.1284,256.7378 86.6777,256.7351C87.0407,256.7329 87.4036,256.7315 87.7666,256.7308C88.0591,256.7304 88.3516,256.7304 88.6441,256.7304C88.9481,256.7298 89.2521,256.731 89.5562,256.7316C89.9468,256.7219 90.3314,256.7312 90.7181,256.7823C91.1178,256.8368 91.5212,256.854 91.9244,256.865C92.3296,256.8492 92.7272,256.9239 93.1284,256.964C93.5363,257.0008 93.9463,257.0047 94.3558,257.0091C94.7859,257.0114 95.2161,257.0112 95.6462,257.0097C96.0198,257.009 96.3934,257.0084 96.767,257.0075C97.074,257.0067 97.3811,257.0065 97.6881,257.0064C97.9796,257.0063 98.2711,257.0063 98.5626,257.0063C98.8541,257.0063 99.1457,257.0063 99.4372,257.0063C99.7559,257.0059 100.0746,257.0069 100.3933,257.0083C100.7875,257.0106 101.1818,257.0087 101.5761,257.0077C101.947,257.0074 102.3178,257.0081 102.6887,257.0091C103.0855,257.009 103.4822,257.0091 103.8789,257.0081C104.2589,257.0083 104.6388,257.0088 105.0188,257.0082C105.3644,257.007 105.71,257.0067 106.0555,257.0085C106.5887,257.0111 107.1219,257.0127 107.6551,257.0146C108.3817,257.0174 109.1084,257.018 109.835,257.0156C110.3683,257.0142 110.9015,257.0104 111.4347,257.0101C111.876,257.0108 112.3173,257.0101 112.7586,257.0086C112.8197,257.0084 112.8808,257.0082 112.9419,257.008L111.1959,258.2073C111.1354,258.2071 111.0749,258.2069 111.0144,258.2067C110.5746,258.2052 110.1347,258.2046 109.6949,258.2052C109.1669,258.205 108.639,258.2011 108.111,258.1998C107.3834,258.1973 106.6558,258.198 105.9282,258.2008C105.3891,258.2027 104.85,258.2043 104.3109,258.2068C103.9651,258.2086 103.6193,258.2084 103.2735,258.2071C102.8933,258.2065 102.5132,258.2071 102.1331,258.2073C101.7374,258.2063 101.3417,258.2064 100.946,258.2062C100.5737,258.2072 100.2014,258.208 99.829,258.2077C99.4353,258.2066 99.0417,258.2047 98.648,258.2071C98.3275,258.2085 98.0069,258.2094 97.6863,258.209C97.3948,258.209 97.1032,258.209 96.8116,258.209C96.5202,258.209 96.2288,258.209 95.9374,258.209C95.6314,258.2088 95.3254,258.2086 95.0194,258.208C94.6473,258.2073 94.2753,258.2072 93.9033,258.2071C93.4731,258.2063 93.043,258.2078 92.6129,258.203C92.1981,258.1974 91.7826,258.1885 91.3701,258.1436C90.9733,258.099 90.5781,258.0464 90.1771,258.0566C89.7693,258.0415 89.3622,258.0131 88.9578,257.9599C88.5758,257.9194 88.1924,257.9307 87.8085,257.932C87.5033,257.9326 87.1982,257.9338 86.893,257.9332C86.6009,257.9332 86.3088,257.9332 86.0167,257.9328C85.6579,257.9321 85.299,257.9307 84.9402,257.9286C84.387,257.9258 83.8336,257.9223 83.2805,257.9326L85.0299,256.731z" stroke="#000" stroke-linecap="square" stroke-linejoin="round" stroke-width=".4767"/>
<path d="M176.5247,257.0077C177.2286,257.0195 177.9326,257.0179 178.6366,257.0174C179.2818,257.0165 179.927,257.0147 180.5722,257.0118C181.0034,257.0094 181.4346,257.0093 181.8658,257.0088C182.2056,257.008 182.5454,257.0071 182.8852,257.0067C183.182,257.0283 183.4672,256.9492 183.759,256.9111C184.0516,256.877 184.3466,256.8721 184.641,256.8686C184.9332,256.8665 185.2254,256.8674 185.5175,256.8678C185.8093,256.8682 186.1011,256.8683 186.3929,256.8684C186.6847,256.8684 186.9765,256.8684 187.2683,256.8684C187.5601,256.8684 187.8519,256.8684 188.1436,256.8684C188.4569,256.8678 188.7702,256.8695 189.0835,256.8695C189.4007,256.8693 189.718,256.8689 190.0352,256.8686C190.329,256.8684 190.6229,256.8684 190.9167,256.8684C191.111,256.8684 191.0138,256.8684 191.2081,256.8684L189.4572,258.0711C189.2629,258.0711 189.3601,258.0711 189.1658,258.0711C188.8722,258.0711 188.5786,258.071 188.285,258.0709C187.9686,258.0706 187.6522,258.0702 187.3359,258.0699C187.0215,258.07 186.7071,258.0717 186.3928,258.0711C186.101,258.0711 185.8092,258.0711 185.5174,258.0711C185.2256,258.0711 184.9338,258.0711 184.642,258.071C184.3501,258.0708 184.0583,258.0706 183.7665,258.0702C183.4752,258.07 183.1839,258.0692 182.8927,258.0745C182.6033,258.082 182.3135,258.0941 182.0274,258.1381C181.7313,258.1834 181.4368,258.2288 181.1353,258.2086C180.7975,258.2082 180.4598,258.2074 180.1221,258.2065C179.6938,258.206 179.2656,258.2059 178.8373,258.2035C178.1975,258.2006 177.5577,258.1988 176.9178,258.1979C176.2045,258.1975 175.491,258.1961 174.7777,258.2077L176.5247,257.0077z" stroke="#000" stroke-linecap="square" stroke-linejoin="round" stroke-width=".4767"/>
<path d="M136.2319,257.1709C136.7658,257.2385 137.3044,257.2597 137.8423,257.2757C138.3224,257.2873 138.8027,257.2873 139.2829,257.286C139.6793,257.2856 140.0757,257.2854 140.4721,257.2844C141.2679,257.3049 142.0641,257.2949 142.8601,257.2912C143.341,257.2876 143.8219,257.2862 144.3029,257.2842C144.6864,257.2843 145.0699,257.2838 145.4535,257.2848C145.8567,257.2861 146.2599,257.2839 146.663,257.2845C147.0269,257.2837 147.3907,257.2838 147.7545,257.2839C148.1189,257.2844 148.4832,257.2841 148.8476,257.2834C149.1957,257.2846 149.5437,257.2835 149.8918,257.2829C150.2324,257.2843 150.5729,257.2834 150.9135,257.2829C151.2143,257.2824 151.5151,257.2823 151.8159,257.2822C152.0675,257.3407 152.3205,257.3828 152.5787,257.4032C152.8586,257.4204 153.1392,257.4204 153.4196,257.4212C153.7113,257.4214 154.0029,257.4208 154.2946,257.4205C154.4406,257.4204 154.5866,257.4203 154.7327,257.4202L152.9818,258.623C152.8358,258.6231 152.6899,258.6232 152.5439,258.6233C152.2519,258.6236 151.9598,258.6244 151.6678,258.6229C151.3826,258.6205 151.0969,258.6179 150.8129,258.5898C150.5623,258.5605 150.317,258.5001 150.0651,258.4848C149.7649,258.4848 149.4647,258.4846 149.1645,258.4842C148.824,258.4837 148.4835,258.4828 148.143,258.4842C147.7954,258.4836 147.4477,258.4825 147.1001,258.4837C146.7362,258.483 146.3723,258.4827 146.0085,258.4832C145.6453,258.4833 145.2821,258.4834 144.9189,258.4826C144.516,258.4832 144.1131,258.481 143.7103,258.4823C143.3261,258.4833 142.942,258.4828 142.5579,258.4828C142.0838,258.4809 141.6096,258.4794 141.1355,258.4759C140.3327,258.4722 139.5297,258.4626 138.7271,258.4832C138.3314,258.4828 137.9356,258.4837 137.5399,258.4829C137.0614,258.48 136.5829,258.4762 136.1046,258.4603C135.5569,258.4392 135.0099,258.4065 134.4646,258.3533L136.2319,257.1709z" stroke="#000" stroke-linecap="square" stroke-linejoin="round" stroke-width=".4767"/>
<path d="M97.7274,219.3576L97.7274,237.9008" fill="none" stroke="#000" stroke-linecap="round" stroke-width="4.8046"/>
<path d="M107.2514,217.6033L107.2514,236.1465" fill="none" stroke="#000" stroke-linecap="round" stroke-width="4.8046"/>
<path d="M116.1883,219.0676L116.1883,237.6108" fill="none" stroke="#000" stroke-linecap="round" stroke-width="4.8046"/>
<path d="M127.865,217.9003L127.865,236.4436" fill="none" stroke="#000" stroke-linecap="round" stroke-width="4.8046"/>
<path d="M138.0237,220.0869L138.0237,238.6301" fill="none" stroke="#000" stroke-linecap="round" stroke-width="4.8046"/>
<path d="M149.6529,219.9115L149.6529,238.4548" fill="none" stroke="#000" stroke-linecap="round" stroke-width="4.8046"/>
<path d="M160.1555,218.1974L160.1555,236.7406" fill="none" stroke="#000" stroke-linecap="round" stroke-width="4.8046"/>
<path d="M170.0709,221.2343L170.0709,239.7775" fill="none" stroke="#000" stroke-linecap="round" stroke-width="4.8046"/>
<path d="M180.7439,220.8656L180.7439,239.4088" fill="none" stroke="#000" stroke-linecap="round" stroke-width="4.8046"/>
<path d="M89.8432,224.0878L89.8432,242.631" fill="none" stroke="#000" stroke-linecap="round" stroke-width="4.8046"/>
<path d="M112.5079,251.8852H132.9207A2.3409,2.3409 0 0 1 135.2616,254.2261V261.131A2.3409,2.3409 0 0 1 132.9207,263.4719H112.5079A2.3409,2.3409 0 0 1 110.167,261.131V254.2261A2.3409,2.3409 0 0 1 112.5079,251.8852z" stroke="#000" stroke-linecap="square" stroke-linejoin="round" stroke-width="3.7338"/>
<path d="M137.625,295.7143C127.0239,295.2603 121.4081,295.6009 115.75,291.6071" fill="none" stroke="#000"/>
<g transform="matrix(1.20124,0,0,1,-612.21495,619.24243)">
<path d="M1013.7151,-530.8745H1138.6816A13.0878,13.0878 0 0 1 1151.7694,-517.7867V-495.7367A13.0878,13.0878 0 0 1 1138.6816,-482.649H1013.7151A13.0878,13.0878 0 0 1 1000.6273,-495.7367V-517.7867A13.0878,13.0878 0 0 1 1013.7151,-530.8745z" stroke="#000" stroke-linecap="round" stroke-linejoin="round" stroke-width="1.9703" transform="matrix(1,0,.84988,.52697,0,0)"/>
<path d="M602.1455,-296.3292H607.6698A4.1432,4.1432 0 0 1 611.813,-292.186V-261.8025A4.1432,4.1432 0 0 1 607.6698,-257.6593H602.1455A4.1432,4.1432 0 0 1 598.0023,-261.8025V-292.186A4.1432,4.1432 0 0 1 602.1455,-296.3292z" fill="#fff" stroke="#000" stroke-linecap="round" stroke-linejoin="round" stroke-width="3.642"/>
<path d="M707.3829,-296.3292H712.9072A4.1432,4.1432 0 0 1 717.0504,-292.186V-261.8025A4.1432,4.1432 0 0 1 712.9072,-257.6593H707.3829A4.1432,4.1432 0 0 1 703.2397,-261.8025V-292.186A4.1432,4.1432 0 0 1 707.3829,-296.3292z" fill="#fff" stroke="#000" stroke-linecap="round" stroke-linejoin="round" stroke-width="3.642"/>
<path d="M684.1809,-308.4826H689.7052A4.1432,4.1432 0 0 1 693.8484,-304.3394V-273.9559A4.1432,4.1432 0 0 1 689.7052,-269.8127H684.1809A4.1432,4.1432 0 0 1 680.0377,-273.9559V-304.3394A4.1432,4.1432 0 0 1 684.1809,-308.4826z" fill="#fff" stroke="#000" stroke-linecap="round" stroke-linejoin="round" stroke-width="3.642"/>
<path d="M576.4576,-311.7971H581.9819A4.1432,4.1432 0 0 1 586.1251,-307.6539V-277.2705A4.1432,4.1432 0 0 1 581.9819,-273.1272H576.4576A4.1432,4.1432 0 0 1 572.3144,-277.2705V-307.6539A4.1432,4.1432 0 0 1 576.4576,-311.7971z" fill="#fff" stroke="#000" stroke-linecap="round" stroke-linejoin="round" stroke-width="3.642"/>
<path d="M1076.8467,-603.2072H1201.8132A13.0878,13.0878 0 0 1 1214.901,-590.1194V-568.0694A13.0878,13.0878 0 0 1 1201.8132,-554.9817H1076.8467A13.0878,13.0878 0 0 1 1063.7589,-568.0694V-590.1194A13.0878,13.0878 0 0 1 1076.8467,-603.2072z" fill="#fff" stroke="#000" stroke-linecap="round" stroke-linejoin="round" stroke-width="1.9703" transform="matrix(1,0,.84988,.52697,0,0)"/>
<path d="M1082.5307,-610.5453H1207.4972A13.0878,13.0878 0 0 1 1220.585,-597.4575V-575.4075A13.0878,13.0878 0 0 1 1207.4972,-562.3197H1082.5307A13.0878,13.0878 0 0 1 1069.4429,-575.4075V-597.4575A13.0878,13.0878 0 0 1 1082.5307,-610.5453z" fill="#fff" stroke="#000" stroke-linecap="round" stroke-linejoin="round" stroke-width="1.9703" transform="matrix(1,0,.84988,.52697,0,0)"/>
</g>
<text font-family="Bitstream Vera Sans" font-size="20" x="164.7098" y="110.1385">
   <tspan text-align="center" text-anchor="middle" x="164.7098" y="110.1385">Question 1 : Combien</tspan>
   <tspan text-align="center" text-anchor="middle" x="164.7098" y="135.1385">coûte un Ultimate Orb</tspan>
   <tspan text-align="center" text-anchor="middle" x="164.7098" y="160.1385">dans DotA ? (3 points)</tspan>
  </text>
<text font-family="Bitstream Vera Sans" font-size="20" x="764.4519" y="188.1715">
   <tspan text-align="center" text-anchor="middle" x="764.4519" y="188.1715">Ca me paraissait</tspan>
   <tspan text-align="center" text-anchor="middle" x="764.4519" y="213.1715">louche aussi...</tspan>
  </text>
<path d="M712.5631,221.2068L696.6825,247.377" fill="none" stroke="#000" stroke-width="1.0219"/>
<path d="M-307.0513,537.8926H-281.4655A.135,.135 0 0 1 -281.3305,538.0277V565.7324A.135,.135 0 0 1 -281.4655,565.8674H-307.0513A.135,.135 0 0 1 -307.1863,565.7324V538.0277A.135,.135 0 0 1 -307.0513,537.8926z" fill="#fff" stroke="#000" stroke-linecap="round" stroke-linejoin="round" stroke-width="1.5832" transform="matrix(1,0,.82667,.56269,0,0)"/>
<path d="M162.1429,177.1429L150.7143,205" fill="none" stroke="#000"/>
<text font-family="Bitstream Vera Sans" font-size="20" x="209.6429" y="240.5357">
   <tspan x="209.6429" y="240.5357">Facile !</tspan>
  </text>
<path d="M203.0357,259.8214L228.9286,247.6786" fill="none" stroke="#000"/>
<path d="M584.2857,317.8571L863.5714,317.8571" fill="none" stroke="#000"/>
<g transform="translate(-15.7143,35)">
<path d="m744.2857,321.4286c0,3.5504-24.3045,6.4286-54.2857,6.4286-29.9812,0-54.2857,-2.8782-54.2857,-6.4286 0,-3.5504 24.3045,-6.4286 54.2857,-6.4286 29.9812,0 54.2857,2.8782 54.2857,6.4286z" stroke="#000200" stroke-linecap="round" stroke-linejoin="round" stroke-width="2" transform="translate(-1.4286,-5)"/>
<path d="M741.9027,232.8517L741.9027,280.7402C741.9027,300.7472 725.796,316.8539 705.789,316.8539L670.355,316.8539C650.348,316.8539 634.2413,300.7472 634.2413,280.7402L634.2413,232.8517" fill="#fff" stroke="#000" stroke-linecap="round" stroke-linejoin="round" stroke-width="3.6422"/>
<path d="M704.6803,252.6632H725.0932A2.3409,2.3409 0 0 1 727.434,255.004V261.909A2.3409,2.3409 0 0 1 725.0932,264.2498H704.6803A2.3409,2.3409 0 0 1 702.3394,261.909V255.004A2.3409,2.3409 0 0 1 704.6803,252.6632z" stroke="#000" stroke-linecap="square" stroke-linejoin="round" stroke-width="3.7338"/>
<path d="M636.5495,257.7178C637.0987,257.7283 637.648,257.7246 638.1973,257.7219C638.5603,257.7197 638.9232,257.7183 639.2862,257.7176C639.5787,257.7172 639.8712,257.7172 640.1637,257.7172C640.4677,257.7166 640.7717,257.7178 641.0758,257.7184C641.4664,257.7087 641.851,257.718 642.2377,257.7691C642.6374,257.8236 643.0408,257.8408 643.4439,257.8518C643.8492,257.836 644.2468,257.9107 644.648,257.9508C645.0559,257.9876 645.4659,257.9915 645.8754,257.9959C646.3055,257.9982 646.7356,257.998 647.1658,257.9965C647.5394,257.9958 647.913,257.9952 648.2866,257.9943C648.5936,257.9935 648.9007,257.9933 649.2077,257.9932C649.4992,257.9931 649.7907,257.9931 650.0822,257.9931C650.3737,257.9931 650.6653,257.9931 650.9568,257.9931C651.2755,257.9927 651.5942,257.9937 651.9129,257.9951C652.3071,257.9974 652.7014,257.9955 653.0957,257.9944C653.4666,257.9942 653.8374,257.9949 654.2083,257.9959C654.6051,257.9958 655.0018,257.9959 655.3985,257.9949C655.7785,257.9951 656.1584,257.9956 656.5384,257.995C656.884,257.9938 657.2296,257.9935 657.5751,257.9953C658.1083,257.9979 658.6415,257.9995 659.1747,258.0014C659.9013,258.0042 660.628,258.0048 661.3546,258.0024C661.8878,258.001 662.4211,257.9971 662.9543,257.9969C663.3956,257.9976 663.8369,257.9969 664.2782,257.9954C664.3393,257.9952 664.4004,257.995 664.4615,257.9948L662.7155,259.1941C662.655,259.1939 662.5945,259.1937 662.534,259.1935C662.0942,259.192 661.6543,259.1914 661.2145,259.192C660.6865,259.1918 660.1586,259.1879 659.6306,259.1866C658.903,259.1841 658.1754,259.1848 657.4478,259.1876C656.9087,259.1895 656.3696,259.1911 655.8305,259.1936C655.4847,259.1954 655.1389,259.1952 654.793,259.1939C654.4129,259.1933 654.0328,259.1939 653.6527,259.1941C653.257,259.1931 652.8613,259.1932 652.4656,259.193C652.0933,259.194 651.7209,259.1948 651.3486,259.1945C650.9549,259.1934 650.5613,259.1915 650.1676,259.1939C649.847,259.1953 649.5265,259.1962 649.2059,259.1958C648.9144,259.1958 648.6228,259.1958 648.3312,259.1958C648.0398,259.1958 647.7484,259.1958 647.457,259.1957C647.151,259.1956 646.845,259.1954 646.539,259.1948C646.1669,259.1941 645.7949,259.1939 645.4229,259.1939C644.9927,259.1931 644.5626,259.1946 644.1324,259.1898C643.7177,259.1842 643.3022,259.1753 642.8897,259.1304C642.4929,259.0858 642.0977,259.0332 641.6966,259.0434C641.2889,259.0283 640.8818,258.9999 640.4774,258.9467C640.0954,258.9062 639.712,258.9175 639.3281,258.9188C639.0229,258.9194 638.7178,258.9206 638.4126,258.92C638.1205,258.92 637.8284,258.92 637.5363,258.9196C637.1775,258.9189 636.8186,258.9175 636.4598,258.9154C635.9066,258.9126 635.3532,258.9091 634.8001,258.9194L636.5495,257.7178z" stroke="#000" stroke-linecap="square" stroke-linejoin="round" stroke-width=".4767"/>
<path d="M728.0443,257.9945C728.7482,258.0063 729.4522,258.0047 730.1562,258.0042C730.8014,258.0033 731.4466,258.0015 732.0918,257.9986C732.523,257.9962 732.9542,257.9961 733.3854,257.9956C733.7252,257.9948 734.065,257.9939 734.4048,257.9935C734.7016,258.0151 734.9868,257.936 735.2786,257.8979C735.5712,257.8638 735.8662,257.8589 736.1606,257.8554C736.4528,257.8533 736.745,257.8542 737.0371,257.8546C737.3289,257.855 737.6207,257.8551 737.9125,257.8552C738.2043,257.8552 738.4961,257.8552 738.7879,257.8552C739.0797,257.8552 739.3714,257.8552 739.6632,257.8552C739.9765,257.8546 740.2898,257.8563 740.6031,257.8563C740.9203,257.8561 741.2375,257.8557 741.5548,257.8554C741.8486,257.8552 742.1425,257.8552 742.4363,257.8552C742.6306,257.8552 742.5334,257.8552 742.7277,257.8552L740.9768,259.0579C740.7825,259.0579 740.8797,259.0579 740.6854,259.0579C740.3918,259.0579 740.0981,259.0578 739.8045,259.0577C739.4882,259.0574 739.1718,259.057 738.8555,259.0567C738.5411,259.0568 738.2267,259.0585 737.9124,259.0579C737.6206,259.0579 737.3288,259.0579 737.037,259.0579C736.7452,259.0579 736.4533,259.0579 736.1616,259.0578C735.8697,259.0576 735.5779,259.0574 735.2861,259.057C734.9948,259.0568 734.7035,259.056 734.4122,259.0614C734.1229,259.0688 733.8331,259.0809 733.547,259.1249C733.2509,259.1702 732.9564,259.2156 732.6549,259.1954C732.3171,259.195 731.9794,259.1942 731.6417,259.1934C731.2134,259.1928 730.7852,259.1927 730.3569,259.1903C729.7171,259.1874 729.0773,259.1856 728.4374,259.1848C727.7241,259.1843 727.0106,259.1829 726.2973,259.1945L728.0443,257.9945z" stroke="#000" stroke-linecap="square" stroke-linejoin="round" stroke-width=".4767"/>
<path d="M687.7514,258.1577C688.2854,258.2253 688.824,258.2465 689.3619,258.2625C689.842,258.2741 690.3223,258.2741 690.8025,258.2729C691.1989,258.2724 691.5953,258.2722 691.9917,258.2713C692.7875,258.2917 693.5837,258.2817 694.3797,258.278C694.8606,258.2745 695.3415,258.273 695.8225,258.271C696.206,258.2711 696.5895,258.2706 696.9731,258.2716C697.3763,258.2729 697.7794,258.2707 698.1826,258.2713C698.5465,258.2705 698.9103,258.2706 699.2741,258.2707C699.6385,258.2712 700.0028,258.2709 700.3672,258.2702C700.7153,258.2714 701.0633,258.2703 701.4114,258.2697C701.7519,258.2711 702.0925,258.2702 702.4331,258.2697C702.7339,258.2692 703.0347,258.2691 703.3355,258.269C703.5871,258.3275 703.8401,258.3696 704.0983,258.39C704.3782,258.4072 704.6588,258.4072 704.9392,258.408C705.2309,258.4082 705.5225,258.4076 705.8142,258.4073C705.9602,258.4072 706.1062,258.4071 706.2523,258.407L704.5014,259.6098C704.3554,259.6099 704.2094,259.61 704.0634,259.6101C703.7714,259.6104 703.4794,259.6112 703.1874,259.6097C702.9022,259.6073 702.6164,259.6047 702.3325,259.5766C702.0819,259.5473 701.8365,259.4869 701.5847,259.4717C701.2845,259.4716 700.9843,259.4715 700.6841,259.471C700.3436,259.4706 700.0031,259.4696 699.6626,259.471C699.3149,259.4704 698.9673,259.4693 698.6197,259.4705C698.2558,259.4698 697.8919,259.4695 697.528,259.47C697.1649,259.4701 696.8017,259.4702 696.4385,259.4694C696.0356,259.47 695.6327,259.4678 695.2298,259.469C694.8457,259.4701 694.4616,259.4696 694.0775,259.4697C693.6033,259.4677 693.1292,259.4662 692.655,259.4627C691.8523,259.459 691.0493,259.4495 690.2467,259.47C689.851,259.4696 689.4552,259.4705 689.0595,259.4697C688.581,259.4668 688.1024,259.4631 687.6242,259.4471C687.0765,259.426 686.5295,259.3933 685.9842,259.3401L687.7514,258.1577z" stroke="#000" stroke-linecap="square" stroke-linejoin="round" stroke-width=".4767"/>
<path d="M649.2469,220.3444L649.2469,238.8876" fill="none" stroke="#000" stroke-linecap="round" stroke-width="4.8046"/>
<path d="M658.771,218.5901L658.771,237.1333" fill="none" stroke="#000" stroke-linecap="round" stroke-width="4.8046"/>
<path d="M667.7079,220.0544L667.7079,238.5976" fill="none" stroke="#000" stroke-linecap="round" stroke-width="4.8046"/>
<path d="M679.3846,218.8871L679.3846,237.4304" fill="none" stroke="#000" stroke-linecap="round" stroke-width="4.8046"/>
<path d="M689.5433,221.0737L689.5433,239.617" fill="none" stroke="#000" stroke-linecap="round" stroke-width="4.8046"/>
<path d="M701.1725,220.8983L701.1725,239.4416" fill="none" stroke="#000" stroke-linecap="round" stroke-width="4.8046"/>
<path d="M711.6751,219.1841L711.6751,237.7274" fill="none" stroke="#000" stroke-linecap="round" stroke-width="4.8046"/>
<path d="M721.5905,222.2211L721.5905,240.7643" fill="none" stroke="#000" stroke-linecap="round" stroke-width="4.8046"/>
<path d="M732.2635,221.8524L732.2635,240.3956" fill="none" stroke="#000" stroke-linecap="round" stroke-width="4.8046"/>
<path d="M641.3628,225.0746L641.3628,243.6178" fill="none" stroke="#000" stroke-linecap="round" stroke-width="4.8046"/>
<path d="M664.0274,252.872H684.4403A2.3409,2.3409 0 0 1 686.7812,255.2129V262.1178A2.3409,2.3409 0 0 1 684.4403,264.4587H664.0274A2.3409,2.3409 0 0 1 661.6866,262.1178V255.2129A2.3409,2.3409 0 0 1 664.0274,252.872z" stroke="#000" stroke-linecap="square" stroke-linejoin="round" stroke-width="3.7338"/>
<path d="M672.1429,295L693.5714,297.8571" fill="none" stroke="#000"/>
</g>
<path d="M595,284.2857L611.4286,287.1429" fill="none" stroke="#000"/>
<path d="M597.8571,300L610.7143,300" fill="none" stroke="#000"/>
<path d="M597.8571,313.5714L610.7143,311.4286" fill="none" stroke="#000"/>
<path d="M641.5,100.4286H752.2143A13.2143,13.2143 0 0 1 765.4286,113.6429V126.5A13.2143,13.2143 0 0 1 752.2143,139.7143H641.5A13.2143,13.2143 0 0 1 628.2857,126.5V113.6429A13.2143,13.2143 0 0 1 641.5,100.4286z" fill="#fff" stroke="#000200" stroke-linecap="round" stroke-linejoin="round" stroke-width="2"/>
<text font-family="Bitstream Vera Sans" font-size="20" x="635.7143" y="127.8571">
   <tspan x="635.7143" y="127.8571">PARTIEL =></tspan>
  </text>
<path d="M405.9445,85.3571L405.9445,312.5L297.3731,363.2143" fill="none" stroke="#000"/>
<path d="M1274.2719,949.722H1427.7818A9.0319,9.0319 0 0 1 1436.8137,958.7539V1003.9911A9.0319,9.0319 0 0 1 1427.7818,1013.0231H1274.2719A9.0319,9.0319 0 0 1 1265.24,1003.9911V958.7539A9.0319,9.0319 0 0 1 1274.2719,949.722z" stroke="#000" stroke-linecap="round" stroke-linejoin="round" stroke-width="2.7076" transform="matrix(1,0,-.93627,.35128,0,0)"/>
<path d="M1267.7773,945.5034H1435.5375A6.1895,9.0319 0 0 1 1441.727,954.5353V1011.9727A6.1895,9.0319 0 0 1 1435.5375,1021.0046H1267.7773A6.1895,9.0319 0 0 1 1261.5878,1011.9727V954.5353A6.1895,9.0319 0 0 1 1267.7773,945.5034z" stroke="#000" stroke-linecap="round" stroke-linejoin="round" stroke-width="2.7076" transform="matrix(1,0,-.93627,.35128,0,0)"/>
<path d="M343.9184,331.4871H343.9184A5.1786,5.1786 0 0 1 349.0969,336.6657V350.2371A5.1786,5.1786 0 0 1 343.9184,355.4157H343.9184A5.1786,5.1786 0 0 1 338.7398,350.2371V336.6657A5.1786,5.1786 0 0 1 343.9184,331.4871z" fill="#fff" stroke="#000" stroke-linecap="round" stroke-linejoin="round" stroke-width="3"/>
<path d="M478.9541,331.88H478.9541A5.1786,5.1786 0 0 1 484.1326,337.0585V350.63A5.1786,5.1786 0 0 1 478.9541,355.8085H478.9541A5.1786,5.1786 0 0 1 473.7755,350.63V337.0585A5.1786,5.1786 0 0 1 478.9541,331.88z" fill="#fff" stroke="#000" stroke-linecap="round" stroke-linejoin="round" stroke-width="3"/>
<path d="M524.4898,313.4871H524.4898A5.1786,5.1786 0 0 1 529.6684,318.6657V332.2371A5.1786,5.1786 0 0 1 524.4898,337.4157H524.4898A5.1786,5.1786 0 0 1 519.3112,332.2371V318.6657A5.1786,5.1786 0 0 1 524.4898,313.4871z" fill="#fff" stroke="#000" stroke-linecap="round" stroke-linejoin="round" stroke-width="3"/>
<path d="M387.4898,314.5585H387.4898A5.1786,5.1786 0 0 1 392.6683,319.7371V333.3085A5.1786,5.1786 0 0 1 387.4898,338.4871H387.4898A5.1786,5.1786 0 0 1 382.3112,333.3085V319.7371A5.1786,5.1786 0 0 1 387.4898,314.5585z" fill="#fff" stroke="#000" stroke-linecap="round" stroke-linejoin="round" stroke-width="3"/>
<path d="M897.0268,848.7417H1081.2599A10.8396,10.8396 0 0 1 1092.0995,859.5813V913.8722A10.8396,10.8396 0 0 1 1081.2599,924.7118H897.0268A10.8396,10.8396 0 0 1 886.1872,913.8722V859.5813A10.8396,10.8396 0 0 1 897.0268,848.7417z" fill="#fff" stroke="#000" stroke-linecap="round" stroke-linejoin="round" stroke-width="3.2495" transform="matrix(.78777,0,-.73757,.27673,306.70243,81.73849)"/>
<path d="M892.6436,843.6788H1076.8768A10.8396,10.8396 0 0 1 1087.7164,854.5183V908.8093A10.8396,10.8396 0 0 1 1076.8768,919.6488H892.6436A10.8396,10.8396 0 0 1 881.8041,908.8093V854.5183A10.8396,10.8396 0 0 1 892.6436,843.6788z" fill="#fff" stroke="#000" stroke-linecap="round" stroke-linejoin="round" stroke-width="3.2495" transform="matrix(.78777,0,-.73757,.27673,306.70243,81.73849)"/>
<path d="M897.0268,848.7417H1081.2599A10.8396,10.8396 0 0 1 1092.0995,859.5813V913.8722A10.8396,10.8396 0 0 1 1081.2599,924.7118H897.0268A10.8396,10.8396 0 0 1 886.1872,913.8722V859.5813A10.8396,10.8396 0 0 1 897.0268,848.7417z" fill="#fff" stroke="#000" stroke-linecap="round" stroke-linejoin="round" stroke-width="3.2495" transform="matrix(.78777,0,-.73757,.27673,306.98377,79.29359)"/>
<path d="M892.6436,843.6788H1076.8768A10.8396,10.8396 0 0 1 1087.7164,854.5183V908.8093A10.8396,10.8396 0 0 1 1076.8768,919.6488H892.6436A10.8396,10.8396 0 0 1 881.8041,908.8093V854.5183A10.8396,10.8396 0 0 1 892.6436,843.6788z" fill="#fff" stroke="#000" stroke-linecap="round" stroke-linejoin="round" stroke-width="3.2495" transform="matrix(.78777,0,-.73757,.27673,306.98377,79.29359)"/>
<path d="M897.0268,848.7417H1081.2599A10.8396,10.8396 0 0 1 1092.0995,859.5813V913.8722A10.8396,10.8396 0 0 1 1081.2599,924.7118H897.0268A10.8396,10.8396 0 0 1 886.1872,913.8722V859.5813A10.8396,10.8396 0 0 1 897.0268,848.7417z" fill="#fff" stroke="#000" stroke-linecap="round" stroke-linejoin="round" stroke-width="3.2495" transform="matrix(.78777,0,-.73757,.27673,307.19478,76.51529)"/>
<path d="M892.6436,843.6788H1076.8768A10.8396,10.8396 0 0 1 1087.7164,854.5183V908.8093A10.8396,10.8396 0 0 1 1076.8768,919.6488H892.6436A10.8396,10.8396 0 0 1 881.8041,908.8093V854.5183A10.8396,10.8396 0 0 1 892.6436,843.6788z" fill="#fff" stroke="#000" stroke-linecap="round" stroke-linejoin="round" stroke-width="3.2495" transform="matrix(.78777,0,-.73757,.27673,307.19478,76.51529)"/>
<path d="M356.2697,413.1549H408.423A3.0109,3.0109 0 0 1 411.4339,416.1658V457.8737A3.0109,3.0109 0 0 1 408.423,460.8846H356.2697A3.0109,3.0109 0 0 1 353.2588,457.8737V416.1658A3.0109,3.0109 0 0 1 356.2697,413.1549z" fill="#fff" stroke="#000" stroke-linecap="round" stroke-linejoin="round" stroke-width="3.1126" transform="matrix(.92897,-.37014,0,1,0,0)"/>
<path d="M359.26,414.893H411.4133A3.0109,3.0109 0 0 1 414.4241,417.9039V459.6119A3.0109,3.0109 0 0 1 411.4133,462.6227H359.26A3.0109,3.0109 0 0 1 356.2491,459.6119V417.9039A3.0109,3.0109 0 0 1 359.26,414.893z" fill="#fff" stroke="#000" stroke-linecap="round" stroke-linejoin="round" stroke-width="3.1126" transform="matrix(.92897,-.37014,0,1,0,0)"/>
<path d="M119.198,282.6935A52.2754,16.2887 0 1 1 14.6472,282.6935A52.2754,16.2887 0 1 1 119.198,282.6935z" fill="#fff" stroke="#000" stroke-linecap="round" stroke-linejoin="round" stroke-width="3" transform="matrix(.59838,-.3161,.28511,.66342,247.04679,143.7546)"/>
<path d="M397.8261,242.2387L420.1444,266.7326C429.4687,276.9658 428.737,292.7106 418.5038,302.0348L400.38,318.5488C390.1469,327.8731 374.4021,327.1413 365.0779,316.9082L342.7595,292.4143" fill="#fff" stroke="#000" stroke-linecap="round" stroke-linejoin="round" stroke-width="2.5203"/>
<path d="M76.5119,460.7076H92.7965A.5399,.5399 0 0 1 93.3364,461.2475V468.1852A.5399,.5399 0 0 1 92.7965,468.7251H76.5119A.5399,.5399 0 0 1 75.9719,468.1852V461.2475A.5399,.5399 0 0 1 76.5119,460.7076z" stroke="#000" stroke-linecap="square" stroke-linejoin="round" stroke-width="2.5837" transform="matrix(.73917,-.67352,.67352,.73917,0,0)"/>
<path d="M105.1529,460.7076H119.2778A1.6198,1.6198 0 0 1 120.8976,462.3273V467.1053A1.6198,1.6198 0 0 1 119.2778,468.7251H105.1529A1.6198,1.6198 0 0 1 103.5331,467.1053V462.3273A1.6198,1.6198 0 0 1 105.1529,460.7076z" stroke="#000" stroke-linecap="square" stroke-linejoin="round" stroke-width="2.5837" transform="matrix(.73917,-.67352,.67352,.73917,0,0)"/>
<path d="M355.5289,304.057C355.8147,303.8064 356.094,303.5485 356.3736,303.2911C356.5583,303.1209 356.7433,302.951 356.9286,302.7815C357.078,302.6449 357.2276,302.5086 357.3772,302.3723C357.5324,302.2303 357.6885,302.0892 357.8443,301.9478C358.0396,301.7608 358.2406,301.5863 358.4622,301.4322C358.6921,301.2739 358.9064,301.0946 359.1178,300.9124C359.3177,300.7154 359.5559,300.5683 359.7797,300.4019C360.0055,300.2306 360.2171,300.0415 360.4285,299.8529C360.6496,299.6536 360.8695,299.4531 361.0888,299.2518C361.2796,299.0773 361.4704,298.9029 361.6611,298.7283C361.8177,298.5849 361.9747,298.4417 362.1317,298.2985C362.2807,298.1626 362.4298,298.0268 362.5789,297.8909C362.728,297.755 362.8772,297.6192 363.0263,297.4833C363.1891,297.3346 363.3525,297.1865 363.5162,297.0387C363.719,296.8562 363.9197,296.6714 364.1209,296.4872C364.3105,296.3142 364.5005,296.1417 364.6907,295.9694C364.8935,295.7844 365.0965,295.5996 365.2989,295.4142C365.4934,295.2372 365.688,295.0604 365.882,294.883C366.0582,294.7213 366.2348,294.5601 366.4124,294.3999C366.6864,294.1528 366.9598,293.9051 367.2334,293.6576C367.6064,293.3204 367.9783,292.982 368.3489,292.6421C368.6209,292.3929 368.8919,292.1424 369.1645,291.8938C369.3906,291.6885 369.6159,291.4825 369.841,291.276C369.8721,291.2475 369.9033,291.2189 369.9345,291.1903L369.6003,292.6174C369.5693,292.6455 369.5383,292.6736 369.5072,292.7017C369.2815,292.906 369.0563,293.1106 368.8316,293.3159C368.5614,293.5619 368.2896,293.8059 368.019,294.0513C367.6457,294.3892 367.2738,294.7286 366.903,295.0691C366.6281,295.3213 366.3531,295.5734 366.0786,295.8259C365.9025,295.988 365.7255,296.1491 365.5481,296.3096C365.3534,296.4865 365.1592,296.6639 364.9649,296.8411C364.762,297.025 364.5597,297.2095 364.3572,297.3938C364.1673,297.5679 363.9771,297.7418 363.7866,297.9152C363.5847,298.0981 363.3825,298.2806 363.1822,298.4653C363.0189,298.6154 362.8554,298.7652 362.6912,298.9144C362.5421,299.0503 362.393,299.1862 362.2439,299.3221C362.0948,299.4579 361.9458,299.5937 361.7967,299.7295C361.6401,299.8721 361.4835,300.0146 361.3267,300.1569C361.1361,300.3299 360.9457,300.5032 360.7554,300.6765C360.535,300.8766 360.3157,301.0779 360.0935,301.2759C359.8787,301.4663 359.6621,301.6554 359.4301,301.8246C359.2064,301.9868 358.9797,302.144 358.7794,302.3362C358.5638,302.5185 358.3423,302.6937 358.1107,302.8549C357.8964,303.0123 357.7056,303.1967 357.5099,303.3763C357.354,303.5188 357.1985,303.6617 357.0422,303.8036C356.8928,303.9397 356.7434,304.0758 356.5938,304.2118C356.4099,304.3787 356.2257,304.5452 356.0412,304.7113C355.7569,304.9677 355.4723,305.2238 355.1942,305.4869L355.5289,304.057z" stroke="#000" stroke-linecap="square" stroke-linejoin="round" stroke-width=".3298"/>
<path d="M402.4555,261.5574C402.821,261.2354 403.1804,260.9065 403.5402,260.5782C403.8698,260.277 404.199,259.9754 404.5277,259.6732C404.7471,259.471 404.9676,259.27 405.1879,259.0688C405.3613,258.91 405.5347,258.7512 405.7083,258.5926C405.8702,258.4654 405.9792,258.292 406.1107,258.1365C406.2445,257.9827 406.3931,257.8427 406.542,257.7037C406.6905,257.5664 406.8403,257.4307 406.9899,257.2948C407.1394,257.159 407.2887,257.0231 407.438,256.8871C407.5872,256.7511 407.7365,256.6152 407.8857,256.4792C408.035,256.3432 408.1842,256.2072 408.3335,256.0712C408.4934,255.9249 408.6544,255.7798 408.8147,255.6338C408.9768,255.4858 409.1389,255.3377 409.301,255.1898C409.4512,255.0527 409.6015,254.9158 409.7518,254.7788C409.8512,254.6883 409.8015,254.7335 409.9009,254.643L409.5658,256.0741C409.4665,256.1647 409.5161,256.1194 409.4168,256.21C409.2666,256.3468 409.1164,256.4836 408.9661,256.6204C408.8042,256.7677 408.6422,256.9149 408.4803,257.0622C408.3195,257.2088 408.1595,257.3561 407.9984,257.5023C407.8492,257.6383 407.6999,257.7743 407.5507,257.9103C407.4014,258.0463 407.2522,258.1823 407.1029,258.3182C406.9536,258.4542 406.8042,258.5901 406.6547,258.7259C406.5057,258.8615 406.3563,258.9969 406.2098,259.1353C406.0653,259.274 405.9227,259.4152 405.7969,259.5711C405.6665,259.7322 405.5371,259.8927 405.3734,260.0229C405.2005,260.1801 405.0274,260.3371 404.8542,260.4941C404.6349,260.6934 404.4158,260.8929 404.1957,261.0913C403.8671,261.388 403.539,261.6853 403.2113,261.983C402.8462,262.3152 402.4806,262.647 402.1212,262.9854L402.4555,261.5574z" stroke="#000" stroke-linecap="square" stroke-linejoin="round" stroke-width=".3298"/>
<path d="M381.9226,280.4194C382.2272,280.2051 382.5127,279.9649 382.7952,279.7224C383.0462,279.5046 383.2919,279.2808 383.5369,279.0563C383.7394,278.8713 383.9421,278.6865 384.1444,278.5013C384.5609,278.1409 384.9635,277.7646 385.3689,277.3918C385.6133,277.1659 385.8586,276.941 386.1036,276.7158C386.2998,276.5371 386.4958,276.3581 386.6924,276.1799C386.8992,275.9927 387.1044,275.8036 387.3109,275.616C387.4966,275.446 387.6828,275.2765 387.8689,275.107C388.0555,274.9375 388.2417,274.7675 388.4278,274.5973C388.6064,274.4357 388.7839,274.2729 388.9616,274.1105C389.1365,273.9525 389.3102,273.7932 389.4842,273.6343C389.6378,273.4939 389.7916,273.3536 389.9454,273.2134C390.1014,273.1261 390.2504,273.0296 390.392,272.9197C390.5431,272.7981 390.6867,272.6673 390.8304,272.5371C390.9797,272.4012 391.1286,272.265 391.2777,272.1289C391.3523,272.0608 391.427,271.9927 391.5016,271.9246L391.1667,273.3558C391.092,273.4238 391.0174,273.4919 390.9428,273.56C390.7936,273.6963 390.6446,273.8328 390.4945,273.9681C390.3475,274.0998 390.2002,274.2317 390.0418,274.3496C389.9,274.4514 389.7464,274.5349 389.6104,274.6445C389.4568,274.7843 389.3032,274.9242 389.1495,275.0638C388.9751,275.2223 388.8005,275.3805 388.627,275.5399C388.4489,275.7016 388.2706,275.8631 388.0934,276.0257C387.9069,276.1949 387.7206,276.3643 387.5348,276.5342C387.3491,276.7035 387.1634,276.8728 386.9772,277.0417C386.7714,277.2297 386.5643,277.4164 386.3589,277.6048C386.1628,277.7843 385.9662,277.9631 385.7697,278.1422C385.5263,278.3621 385.2831,278.5824 385.0389,278.8015C384.6266,279.1737 384.2115,279.5431 383.8105,279.9277C383.6079,280.1119 383.4059,280.2968 383.2031,280.4808C382.957,280.7023 382.7105,280.9234 382.4585,281.1382C382.1685,281.3826 381.8735,281.6209 381.5698,281.8478L381.9226,280.4194z" stroke="#000" stroke-linecap="square" stroke-linejoin="round" stroke-width=".3298"/>
<path d="M344.6056,279.0236L353.2476,288.5081" fill="none" stroke="#000" stroke-linecap="round" stroke-width="3.3246"/>
<path d="M348.6593,273.6877L357.3014,283.1721" fill="none" stroke="#000" stroke-linecap="round" stroke-width="3.3246"/>
<path d="M353.9128,270.2716L362.5548,279.7561" fill="none" stroke="#000" stroke-linecap="round" stroke-width="3.3246"/>
<path d="M359.3412,264.2326L367.9832,273.7171" fill="none" stroke="#000" stroke-linecap="round" stroke-width="3.3246"/>
<path d="M365.5562,260.6166L374.1982,270.1011" fill="none" stroke="#000" stroke-linecap="round" stroke-width="3.3246"/>
<path d="M371.4226,255.1071L380.0646,264.5916" fill="none" stroke="#000" stroke-linecap="round" stroke-width="3.3246"/>
<path d="M375.9955,249.3356L384.6375,258.8201" fill="none" stroke="#000" stroke-linecap="round" stroke-width="3.3246"/>
<path d="M382.4824,246.2679L391.1244,255.7524" fill="none" stroke="#000" stroke-linecap="round" stroke-width="3.3246"/>
<path d="M387.7695,241.1052L396.4116,250.5896" fill="none" stroke="#000" stroke-linecap="round" stroke-width="3.3246"/>
<path d="M395.8374,304.0336L407.6464,289.128" fill="none" stroke="#000" stroke-width=".5362"/>
<path d="M342.7775,285.1175L351.4195,294.6019" fill="none" stroke="#000" stroke-linecap="round" stroke-width="3.3246"/>
<path d="M426.844,295.3042L535.5815,308.8757C540.0021,308.8757 536.7343,315.584 533.1344,318.1496L521.5716,322.5942L506.6604,327.7736C503.0605,330.3393 481.9608,335.6191 477.5403,335.6191L383.4456,335.2619C379.025,335.2619 376.2214,325.6964 379.8213,323.1308L412.3667,299.9353C415.9666,297.3697 422.4234,295.3042 426.844,295.3042z" fill="#fff" stroke="#000" stroke-linecap="round" stroke-linejoin="round" stroke-width="1.6996"/>
<text font-family="Bitstream Vera Sans" font-size="20" x="462.4347" y="230.1269">
   <tspan text-align="center" text-anchor="middle" x="462.4347" y="230.1269">Wat ?</tspan>
  </text>
<path d="M436.7123,236.065L422.4266,259.6364" fill="none" stroke="#000"/>
<path d="M349.1316,331.7475H420.6352A.3121,.3121 0 0 1 420.9474,332.0596V378.7014A.3121,.3121 0 0 1 420.6352,379.0135H349.1316A.3121,.3121 0 0 1 348.8195,378.7014V332.0596A.3121,.3121 0 0 1 349.1316,331.7475z" fill="#fff" stroke="#000" stroke-linecap="round" stroke-linejoin="round" stroke-width="3.1321" transform="matrix(.91743,-.39789,0,1,0,0)"/>
<path d="M360.3236,337.6909H409.0374A2.893,2.893 0 0 1 411.9304,340.5839V370.5121A2.893,2.893 0 0 1 409.0374,373.4051H360.3236A2.893,2.893 0 0 1 357.4306,370.5121V340.5839A2.893,2.893 0 0 1 360.3236,337.6909z" fill="#fff" stroke="#000" stroke-linecap="round" stroke-linejoin="round" stroke-width="3.1321" transform="matrix(.91743,-.39789,0,1,0,0)"/>
<path d="M446.8915,78.4154A61.5183,5.3033 0 1 1 323.8549,78.4154A61.5183,5.3033 0 1 1 446.8915,78.4154z" stroke="#000" stroke-linecap="round" stroke-width="4.862" transform="matrix(-.21053,9.1305115e-2,0,.21053,433.57154,162.15766)"/>
<g transform="matrix(-.21053,9.1305115e-2,0,.21053,331.95846,143.64215)">
<path d="M-43.5297,288.8057L-43.5297,336.6941C-43.5297,356.7011-59.6364,372.8078-79.6434,372.8078L-115.0774,372.8078C-135.0844,372.8078-151.1912,356.7011-151.1912,336.6941L-151.1912,288.8057" fill="#fff" stroke="#000" stroke-linecap="round" stroke-linejoin="round" stroke-width="3.6422"/>
<path d="M-122.1431,308.6171H-98.6091A.7803,.7803 0 0 1 -97.8288,309.3974V319.4235A.7803,.7803 0 0 1 -98.6091,320.2038H-122.1431A.7803,.7803 0 0 1 -122.9234,319.4235V309.3974A.7803,.7803 0 0 1 -122.1431,308.6171z" stroke="#000" stroke-linecap="square" stroke-linejoin="round" stroke-width="3.7338"/>
<path d="M-80.7522,308.6171H-60.3393A2.3409,2.3409 0 0 1 -57.9985,310.958V317.8629A2.3409,2.3409 0 0 1 -60.3393,320.2038H-80.7522A2.3409,2.3409 0 0 1 -83.093,317.8629V310.958A2.3409,2.3409 0 0 1 -80.7522,308.6171z" stroke="#000" stroke-linecap="square" stroke-linejoin="round" stroke-width="3.7338"/>
<path d="M-148.8829,313.6717C-148.3338,313.6822-147.7844,313.6785-147.2351,313.6758C-146.8722,313.6736-146.5092,313.6722-146.1462,313.6715C-145.8537,313.6711-145.5613,313.6711-145.2688,313.6711C-144.9647,313.6705-144.6607,313.6717-144.3567,313.6723C-143.966,313.6626-143.5814,313.6719-143.1947,313.723C-142.7951,313.7775-142.3916,313.7947-141.9885,313.8057C-141.5833,313.7899-141.1856,313.8646-140.7845,313.9048C-140.3766,313.9415-139.9665,313.9454-139.5571,313.9498C-139.1269,313.9521-138.6968,313.9519-138.2666,313.9504C-137.893,313.9497-137.5194,313.9491-137.1458,313.9482C-136.8388,313.9474-136.5318,313.9472-136.2247,313.9471C-135.9332,313.947-135.6418,313.947-135.3502,313.947C-135.0587,313.947-134.7672,313.947-134.4756,313.947C-134.1569,313.9467-133.8382,313.9476-133.5196,313.949C-133.1253,313.9514-132.731,313.9494-132.3367,313.9484C-131.9659,313.9481-131.595,313.9488-131.2241,313.9499C-130.8274,313.9497-130.4307,313.9498-130.0339,313.9488C-129.654,313.949-129.274,313.9495-128.894,313.949C-128.5484,313.9477-128.2029,313.9475-127.8573,313.9492C-127.3241,313.9518-126.7909,313.9534-126.2577,313.9553C-125.5311,313.9581-124.8045,313.9587-124.0778,313.9563C-123.5446,313.9549-123.0113,313.9511-122.4781,313.9509C-122.0368,313.9515-121.5955,313.9508-121.1542,313.9493C-121.0931,313.9491-121.032,313.949-120.9709,313.9488L-122.7169,315.1481C-122.7774,315.1478-122.8379,315.1476-122.8984,315.1474C-123.3383,315.1459-123.7781,315.1453-124.218,315.1459C-124.7459,315.1457-125.2739,315.1418-125.8018,315.1405C-126.5294,315.1381-127.2571,315.1387-127.9846,315.1415C-128.5238,315.1434-129.0628,315.145-129.6019,315.1476C-129.9477,315.1493-130.2936,315.1491-130.6394,315.1478C-131.0195,315.1473-131.3996,315.1478-131.7797,315.148C-132.1754,315.147-132.5711,315.1471-132.9668,315.1469C-133.3391,315.1479-133.7115,315.1487-134.0838,315.1484C-134.4775,315.1474-134.8712,315.1454-135.2648,315.1478C-135.5854,315.1492-135.9059,315.1501-136.2265,315.1497C-136.5181,315.1497-136.8096,315.1497-137.1012,315.1497C-137.3926,315.1497-137.684,315.1497-137.9755,315.1497C-138.2815,315.1495-138.5875,315.1493-138.8935,315.1487C-139.2655,315.148-139.6375,315.1479-140.0095,315.1478C-140.4397,315.147-140.8698,315.1485-141.3,315.1437C-141.7147,315.1381-142.1302,315.1292-142.5427,315.0843C-142.9395,315.0397-143.3348,314.9871-143.7358,314.9973C-144.1436,314.9822-144.5506,314.9538-144.955,314.9006C-145.3371,314.8601-145.7204,314.8714-146.1043,314.8727C-146.4095,314.8733-146.7146,314.8745-147.0198,314.8739C-147.3119,314.8739-147.604,314.8739-147.8961,314.8735C-148.255,314.8728-148.6138,314.8714-148.9726,314.8693C-149.5259,314.8665-150.0792,314.863-150.6323,314.8733L-148.8829,313.6717z" stroke="#000" stroke-linecap="square" stroke-linejoin="round" stroke-width=".4767"/>
<path d="M-57.3881,313.9484C-56.6843,313.9602-55.9802,313.9586-55.2763,313.9581C-54.631,313.9572-53.9858,313.9554-53.3406,313.9525C-52.9094,313.9502-52.4782,313.9501-52.047,313.9495C-51.7073,313.9487-51.3675,313.9479-51.0277,313.9474C-50.7309,313.9691-50.4456,313.8899-50.1539,313.8518C-49.8613,313.8177-49.5662,313.8128-49.2718,313.8093C-48.9796,313.8072-48.6875,313.8081-48.3953,313.8085C-48.1035,313.8089-47.8117,313.809-47.5199,313.8091C-47.2282,313.8091-46.9364,313.8091-46.6446,313.8091C-46.3528,313.8091-46.061,313.8091-45.7692,313.8091C-45.4559,313.8085-45.1426,313.8102-44.8294,313.8103C-44.5121,313.81-44.1949,313.8096-43.8776,313.8093C-43.5838,313.8091-43.29,313.8091-42.9962,313.8091C-42.8018,313.8091-42.899,313.8091-42.7047,313.8091L-44.4556,315.0118C-44.6499,315.0118-44.5527,315.0118-44.7471,315.0118C-45.0407,315.0118-45.3343,315.0118-45.6279,315.0116C-45.9442,315.0113-46.2606,315.0109-46.577,315.0106C-46.8913,315.0107-47.2057,315.0124-47.5201,315.0118C-47.8119,315.0118-48.1037,315.0118-48.3955,315.0118C-48.6873,315.0118-48.9791,315.0118-49.2709,315.0117C-49.5627,315.0115-49.8545,315.0113-50.1463,315.011C-50.4376,315.0107-50.7289,315.0099-51.0202,315.0153C-51.3095,315.0227-51.5993,315.0348-51.8855,315.0788C-52.1815,315.1241-52.476,315.1695-52.7776,315.1494C-53.1153,315.1489-53.453,315.1481-53.7908,315.1473C-54.219,315.1467-54.6473,315.1466-55.0755,315.1442C-55.7153,315.1413-56.3552,315.1395-56.995,315.1387C-57.7084,315.1382-58.4219,315.1368-59.1352,315.1484L-57.3881,313.9484z" stroke="#000" stroke-linecap="square" stroke-linejoin="round" stroke-width=".4767"/>
<path d="M-97.681,314.1116C-97.1471,314.1792-96.6084,314.2005-96.0705,314.2165C-95.5904,314.228-95.1101,314.228-94.63,314.2268C-94.2335,314.2263-93.8371,314.2261-93.4407,314.2252C-92.6449,314.2456-91.8487,314.2356-91.0528,314.2319C-90.5718,314.2284-90.0909,314.2269-89.6099,314.225C-89.2264,314.225-88.8429,314.2245-88.4594,314.2256C-88.0562,314.2268-87.653,314.2246-87.2498,314.2253C-86.886,314.2244-86.5221,314.2245-86.1583,314.2246C-85.794,314.2251-85.4296,314.2248-85.0652,314.2241C-84.7171,314.2253-84.3691,314.2242-84.021,314.2236C-83.6805,314.2251-83.3399,314.2241-82.9994,314.2236C-82.6986,314.2232-82.3977,314.223-82.0969,314.223C-81.8453,314.2815-81.5923,314.3235-81.3342,314.3439C-81.0543,314.3611-80.7736,314.3611-80.4933,314.3619C-80.2016,314.3621-79.9099,314.3615-79.6182,314.3612C-79.4722,314.3611-79.3262,314.361-79.1802,314.361L-80.931,315.5637C-81.077,315.5638-81.223,315.5639-81.369,315.564C-81.661,315.5644-81.953,315.5651-82.245,315.5636C-82.5302,315.5612-82.816,315.5587-83.0999,315.5305C-83.3505,315.5012-83.5959,315.4409-83.8477,315.4256C-84.1479,315.4255-84.4481,315.4254-84.7483,315.4249C-85.0888,315.4245-85.4293,315.4235-85.7698,315.4249C-86.1175,315.4243-86.4651,315.4233-86.8128,315.4244C-87.1766,315.4237-87.5405,315.4234-87.9044,315.4239C-88.2676,315.4241-88.6307,315.4241-88.9939,315.4233C-89.3968,315.4239-89.7997,315.4217-90.2026,315.423C-90.5867,315.424-90.9708,315.4235-91.3549,315.4236C-91.8291,315.4216-92.3032,315.4202-92.7774,315.4166C-93.5801,315.4129-94.3831,315.4034-95.1857,315.424C-95.5815,315.4235-95.9772,315.4244-96.373,315.4236C-96.8515,315.4207-97.33,315.417-97.8082,315.401C-98.3559,315.3799-98.9029,315.3472-99.4483,315.2941L-97.681,314.1116z" stroke="#000" stroke-linecap="square" stroke-linejoin="round" stroke-width=".4767"/>
<path d="M-136.1855,276.2983L-136.1855,294.8415" fill="none" stroke="#000" stroke-linecap="round" stroke-width="4.8046"/>
<path d="M-126.6615,274.544L-126.6615,293.0872" fill="none" stroke="#000" stroke-linecap="round" stroke-width="4.8046"/>
<path d="M-117.7245,276.0083L-117.7245,294.5515" fill="none" stroke="#000" stroke-linecap="round" stroke-width="4.8046"/>
<path d="M-106.0478,274.841L-106.0478,293.3843" fill="none" stroke="#000" stroke-linecap="round" stroke-width="4.8046"/>
<path d="M-95.8892,277.0276L-95.8892,295.5709" fill="none" stroke="#000" stroke-linecap="round" stroke-width="4.8046"/>
<path d="M-84.2599,276.8522L-84.2599,295.3955" fill="none" stroke="#000" stroke-linecap="round" stroke-width="4.8046"/>
<path d="M-73.7574,275.1381L-73.7574,293.6813" fill="none" stroke="#000" stroke-linecap="round" stroke-width="4.8046"/>
<path d="M-63.8419,278.175L-63.8419,296.7182" fill="none" stroke="#000" stroke-linecap="round" stroke-width="4.8046"/>
<path d="M-53.169,277.8063L-53.169,296.3495" fill="none" stroke="#000" stroke-linecap="round" stroke-width="4.8046"/>
<path d="M-105.8017,352.8807L-78.6788,348.4525" fill="none" stroke="#000" stroke-width=".7749"/>
<path d="M-144.0697,281.0285L-144.0697,299.5717" fill="none" stroke="#000" stroke-linecap="round" stroke-width="4.8046"/>
</g>
<path d="M353.3193,136.9569L332.2479,187.8812" fill="none" stroke="#000"/>
<path d="M353.4408,136.8669L374.5122,169.514" fill="none" stroke="#000"/>
<path d="M381.4286,150.8929A1.6071,1.25 0 1 1 378.2143,150.8929A1.6071,1.25 0 1 1 381.4286,150.8929z" fill="#fff" stroke="#000" stroke-linecap="round" stroke-linejoin="round" stroke-width="3" transform="matrix(1,-.4337,0,1,-26.32358,151.25019)"/>
<path d="M321.4852,193.7557L328.9852,196.5744" fill="none" stroke="#000"/>
<path d="M321.1893,238.6875L328.3322,230.0539" fill="none" stroke="#000"/>
<path d="M378.6228,174.363L385.2299,165.6046" fill="none" stroke="#000"/>
<path d="M378.4748,207.5801L384.3677,211.0958" fill="none" stroke="#000"/>
<path d="M405.9375,86.0714L405.9375,74.8214" fill="none" stroke="#000"/>
<path d="M533.7259,140.742L490.4315,141.3882L499.4781,95.509L460.7069,122.0026L448.4294,81.9391L434.2133,119.4179L398.6731,81.9391L408.3659,134.2802L354.0862,101.9708L373.4718,143.9729L331.4697,134.9263L378.6413,162.7123L346.332,182.0979L386.3955,177.5746L381.226,206.0068L410.9506,178.867L411.5968,210.5301L438.0904,176.9284L472.3383,209.2377L476.2154,168.528L526.6179,184.0365L488.4929,156.8967L533.7259,140.742z" fill="#fff" fill-rule="evenodd" stroke="#000" stroke-width="1.2794"/>
<text font-family="Bitstream Vera Sans" font-size="20" x="381.9018" y="159.1787">
   <tspan font-size="20" x="381.9018" y="159.1787">DRIIIING !!</tspan>
  </text>
</svg>
