<svg version="1.0" viewBox="0 0 900 450" xmlns="http://www.w3.org/2000/svg" xmlns:svg="http://www.w3.org/2000/svg">
<path d="M48.4773,78.625H829.4792A31.621,31.621 0 0 1 861.1003,110.246V358.5948A31.621,31.621 0 0 1 829.4792,390.2159H48.4773A31.621,31.621 0 0 1 16.8563,358.5948V110.246A31.621,31.621 0 0 1 48.4773,78.625z" fill="#fff" stroke="#000" stroke-linecap="round" stroke-width="7.4907"/>
<path d="M16.4286,329.8571L859.2857,329.8571" fill="none" stroke="#000"/>
<path d="M584.098,75.3104L584.098,389.2009" fill="none" stroke="#000" stroke-width="5.6784"/>
<path d="M296.3879,75.4618L296.3879,388.484" fill="none" stroke="#000" stroke-width="5.6706"/>
<g transform="matrix(.12574,0,0,.12574,818.82317,417.76082)">
<path d="M162.9615,-66.1029C166.455,-62.0454 171.1969,-61.5587 176.2443,-61.2734C182.6298,-61.4455 189.026,-62.9739 194.9925,-65.2443C198.1805,-66.4574 199.9424,-67.4904 202.9171,-69.0527C185.1139,-58.637 195.0252,-64.2154 198.3536,-67.7512C200.078,-69.5831 201.1079,-71.5131 202.0803,-73.8002C204.6069,-80.9176 204.9343,-88.5711 205.3652,-96.044C206.205,-106.9224 203.9531,-117.6028 201.5284,-128.1342C198.5789,-139.2121 194.5731,-149.9773 190.1613,-160.547C188.0488,-165.5407 185.6597,-170.4087 183.3326,-175.3036C180.1965,-181.3209 177.6309,-177.584 195.344,-184.4552C195.9544,-184.6919 196.0751,-183.3682 196.4662,-182.8431C197.1211,-181.9638 197.8094,-181.1099 198.4809,-180.2434C205.0155,-171.2763 212.8739,-163.4194 220.7492,-155.6472C225.3824,-151.1349 230.3508,-146.9467 234.7812,-142.2286C236.4627,-140.8555 237.4679,-138.92 238.8212,-137.2745C240.143,-136.0803 241.1771,-137.3375 242.3452,-138.1546C221.9421,-125.9198 229.2084,-129.8742 233.1206,-133.6257C234.6613,-135.103 236.1138,-136.6818 237.5889,-138.2234C239.6824,-140.3121 241.6662,-142.5484 243.9587,-144.4296C250.0105,-149.3955 258.4541,-153.3638 264.7123,-156.9238C270.4949,-159.4778 276.4106,-161.6997 282.419,-163.6577C283.6619,-163.9272 288.4708,-165.7766 289.5688,-164.5267C289.8243,-164.2359 289.9278,-163.8408 290.1072,-163.4978C290.1321,-163.1471 290.2293,-162.7941 290.1818,-162.4458C289.8354,-159.9037 285.8996,-156.946 284.1819,-155.3646C276.2864,-148.8374 268.6258,-142.0481 261.3333,-134.8534C254.99,-128.0483 248.4375,-121.3307 243.3873,-113.4811C240.2691,-108.5784 238.6116,-103.1651 237.8336,-97.4612C237.3182,-92.3602 237.4023,-87.2238 237.4103,-82.1038C237.6896,-76.538 238.3996,-70.961 240.0566,-65.6294C241.0066,-62.7897 242.6958,-60.7035 245.3984,-59.4565C247.1918,-58.8245 249.2452,-58.4083 251.1546,-58.7689C251.5988,-58.8529 255.3028,-60.1078 255.5991,-60.2068C259.9663,-62.5901 270.5149,-68.1635 250.7739,-57.3451C249.993,-56.9172 252.2774,-58.3004 253.0176,-58.7957C254.7175,-59.9333 255.126,-60.2677 256.721,-61.457C258.634,-62.8882 257.7277,-62.1927 259.444,-63.5378L273.1151,-69.0361C271.3827,-67.5797 272.3103,-68.3061 270.3191,-66.8738C262.2562,-60.6484 253.3247,-55.4952 244.0683,-51.2776C240.0071,-50.0654 237.0083,-49.4853 233.0532,-51.3558C230.1407,-52.9982 228.2379,-55.381 227.2136,-58.6022C225.5902,-64.0918 224.9779,-69.8068 224.4451,-75.4915C224.414,-80.6627 224.3292,-85.8471 224.7473,-91.006C225.4856,-96.9163 227.043,-102.5571 230.2219,-107.6713C230.8593,-108.7308 231.4383,-109.8277 232.1341,-110.8497C233.5635,-112.949 235.6974,-115.3519 237.3267,-117.2406C240.9264,-121.4136 244.6087,-125.5129 248.4113,-129.5027C255.5038,-136.6573 262.9793,-143.4183 270.7308,-149.8547C272.9266,-151.8936 275.199,-153.8815 277.0938,-156.2117C277.4084,-156.0458 276.3957,-156.0728 276.0435,-156.0235C274.2856,-155.7778 272.5938,-155.2318 270.901,-154.7183C264.9598,-152.7572 259.0786,-150.5816 253.4382,-147.8602C272.8794,-159.3576 261.1903,-152.8293 257.3908,-149.9058C255.0765,-148.125 253.0963,-145.926 251.0661,-143.8444C243.704,-136.0782 243.2815,-135.2558 230.8263,-128.8268C228.7851,-127.8625 227.644,-127.977 226.0472,-129.6547C224.7873,-131.3205 223.7779,-133.1781 222.2218,-134.6111C217.9797,-139.4028 213.2498,-143.7505 208.7563,-148.2998C200.956,-156.2393 193.036,-164.0853 186.0942,-172.8083C185.3483,-173.6466 184.6017,-174.4843 183.8565,-175.3233C183.4425,-175.7895 182.1438,-176.3177 182.6168,-176.7238C193.8626,-186.3779 193.2258,-188.9054 196.1308,-182.5316C198.3231,-177.537 200.6341,-172.5923 202.629,-167.5129C206.8035,-156.7535 210.6525,-145.8567 213.8046,-134.7502C216.3374,-124.1716 218.8429,-113.4256 218.1141,-102.4633C217.8266,-94.9202 217.3841,-87.2389 215.3364,-79.9427C214.6632,-78.0762 214.4306,-77.1236 213.3557,-75.4158C208.633,-67.9123 198.4469,-64.3688 191.7517,-60.1093C183.2311,-55.9217 174.1664,-52.9607 164.5762,-52.9176C163.243,-53.0245 161.8998,-53.0436 160.5765,-53.2383C156.6356,-53.8182 152.962,-55.54 150.2346,-58.4617L162.9615,-66.1029z" stroke="#000" stroke-linecap="round" stroke-linejoin="round" stroke-width="2"/>
<path d="M285.1504,-83.2549C279.2704,-81.6082 266.5253,-73.74 288.7732,-86.471C285.6873,-84.8287 283.8556,-82.1564 282.4117,-79.0736C281.5877,-76.6037 280.7082,-73.8959 280.8873,-71.2445C281.0112,-69.4099 281.4883,-68.4885 282.1122,-66.775C284.5548,-61.9495 288.3109,-57.9808 292.7681,-54.9746C296.0578,-52.6838 299.7974,-51.6413 303.7669,-51.5931C306.8299,-52.2892 309.6761,-53.4821 312.4808,-54.8725C313.6763,-55.4652 317.18,-57.4003 316.0334,-56.7177C302.8176,-48.8508 306.1278,-50.9743 310.8042,-54.1772C314.6548,-57.1431 318.8403,-60.5843 319.8322,-65.6282C319.9707,-66.3328 319.9608,-67.0585 320.0251,-67.7736C319.7705,-74.0822 315.7842,-79.021 311.938,-83.6853C309.5135,-86.3835 306.7679,-88.9566 303.4532,-90.5325C301.7709,-91.3322 300.9086,-91.4744 299.127,-91.9474C295.533,-92.1428 291.7665,-91.8011 288.3544,-90.5627C286.7769,-89.9902 284.386,-88.6593 282.9199,-87.8841C302.9062,-99.8746 289.8107,-91.9587 285.6886,-88.3736L272.0851,-82.8087C278.4156,-88.898 286.8685,-92.4857 294.2269,-96.9393C296.3627,-97.9778 297.6236,-98.6956 299.9061,-99.3886C303.5386,-100.4916 307.4494,-100.7491 311.1907,-100.1978C313.1147,-99.5839 313.8945,-99.429 315.7014,-98.4661C319.0659,-96.6731 321.8405,-93.9498 324.3224,-91.1058C328.3687,-86.1242 332.4762,-80.9616 333.0924,-74.3305C333.0628,-73.5258 333.1121,-72.7144 333.0035,-71.9165C332.2653,-66.4892 328.2283,-62.6312 324.1231,-59.4248C316.1605,-53.7094 320.2406,-56.4756 304.8488,-47.7573C300.8383,-45.4856 296.4513,-43.5622 291.8451,-43.0245C287.6957,-43.3915 283.8349,-44.6143 280.4546,-47.1325C275.8828,-50.4672 272.0386,-54.677 269.3612,-59.693C268.7366,-61.3275 268.0271,-62.8838 267.8135,-64.6468C267.4791,-67.4079 268.3981,-70.3095 269.0633,-72.941C270.3422,-76.1902 271.9653,-79.2701 275.0209,-81.1777C282.2031,-85.3118 288.9239,-90.0555 296.9357,-92.2666L285.1504,-83.2549z" stroke="#000" stroke-linecap="round" stroke-linejoin="round" stroke-width="2"/>
<path d="M347.1504,-77.2549C344.6035,-76.4403 341.9575,-75.7416 339.5363,-74.5814C338.7232,-74.1918 337.9599,-73.7059 337.1716,-73.2681C340.5173,-75.1416 343.863,-77.0152 347.2087,-78.8887C343.2371,-76.2087 340.2901,-73.5303 338.5132,-69.0387C337.3505,-65.3388 337.9081,-62.2103 340.8379,-59.4732C341.5453,-58.8124 342.3768,-58.2984 343.1462,-57.711C348.7467,-54.4938 355.3758,-53.3418 361.7904,-54.0225C363.6291,-54.2176 365.4327,-54.663 367.2538,-54.9833C371.4683,-56.0713 373.305,-56.374 377.2631,-58.0355C378.5761,-58.5866 382.3128,-60.6635 381.0902,-59.9334C363.2909,-49.3046 371.3475,-53.9354 374.1428,-56.7651C374.7627,-57.3926 375.255,-58.1344 375.8111,-58.8191C378.2486,-62.6326 378.3111,-66.0246 376.5942,-70.0879C376.279,-70.8016 374.4627,-74.5447 373.1819,-73.7346C372.9601,-73.5943 372.8477,-73.33 372.6807,-73.1277C392.8977,-84.6564 385.2006,-82.7287 383.2398,-77.11C382.3936,-74.6854 382.2459,-72.3278 382.1295,-69.7816C383.5341,-57.9615 388.7559,-47.0167 393.0457,-36.0346C398.2618,-21.5258 403.2897,-6.47 403.8684,9.092C403.9836,12.189 403.6821,15.2876 403.5889,18.3853C403.1263,21.364 402.8671,24.3813 402.2011,27.3212C400.0287,36.9109 395.0849,45.6892 387.7437,52.2682C386.4496,53.4279 384.9846,54.3816 383.6051,55.4383C378.0848,58.3221 372.8336,61.7934 367.0443,64.0899C364.6445,65.0418 358.8518,63.0561 356.9529,62.2095C349.8949,59.0631 343.7992,53.895 337.8032,49.1621C327.688,40.5031 317.7846,31.4711 308.7355,21.6837C304.0475,16.6133 302.8886,14.9067 298.8166,9.6614C295.3512,3.8792 291.2661,-2.8245 294.6732,-9.6402C296.6895,-13.6737 299.1232,-15.1372 302.5004,-18.074C312.6219,-24.6327 313.4505,-25.3796 328.104,-32.7999C331.6804,-34.6109 343.2136,-38.7065 346.7432,-39.9379C353.7819,-42.3937 361.3514,-44.8267 368.4293,-47.1393C387.0233,-52.5028 405.2349,-59.0355 423.2344,-66.1176C424.7623,-66.7671 426.2923,-67.4118 427.8181,-68.0661C428.9838,-68.566 430.1581,-69.0469 431.3089,-69.5801C433.6612,-70.67 435.8588,-72.019 438.2856,-72.9431C441.5765,-73.4124 442.7308,-69.4505 443.7159,-67.0436C445.9847,-60.9159 447.263,-54.4902 447.8147,-47.9941C447.9509,-45.0837 448.0453,-42.1595 447.6331,-39.2662C447.5909,-38.9704 447.7439,-38.5103 447.473,-38.3842C443.0642,-36.3309 438.4604,-34.7251 433.9541,-32.8956C433.9659,-33.7909 433.9166,-34.689 433.9896,-35.5814C434.0957,-36.8799 434.3191,-38.1662 434.4903,-39.4578C435.49,-46.9958 436.7994,-54.4336 438.3334,-61.8806C439.8884,-68.3767 441.231,-75.18 444.9433,-80.8503C449.1473,-85.2518 458.497,-93.9297 463.0497,-88.879C463.5264,-88.3501 463.8605,-87.7082 464.2658,-87.1228C465.1568,-85.5475 465.9266,-84.351 466.5095,-82.6055C468.1484,-77.6977 468.884,-71.9449 469.7517,-66.8403C470.8843,-62.4227 470.4525,-57.1322 471.7929,-52.8005C473.5655,-57.562 471.775,-52.58 459.0435,-46.5094C458.7853,-46.3863 459.4327,-46.9346 459.5772,-47.1814C459.9087,-47.7474 460.5577,-49.4088 460.8105,-49.919C461.1553,-50.6152 461.549,-51.286 461.9182,-51.9694C464.3127,-55.807 466.3395,-59.8622 468.9779,-63.5425C473.3892,-69.0698 477.5158,-70.2762 485.1519,-74.4725C485.4138,-74.6164 485.7664,-74.5326 486.0475,-74.431C486.4054,-74.3016 486.6836,-74.0129 487.0016,-73.8039C489.988,-70.6628 491.0279,-66.2182 492.0362,-62.1278C492.9125,-57.6742 493.3814,-53.131 495.0104,-48.8712C495.4071,-48.3128 495.7311,-47.6948 496.2004,-47.1959C499.6185,-43.5623 505.2722,-40.8461 509.9343,-39.3687C511.6885,-38.8128 513.4959,-38.4411 515.2767,-37.9773C522.8167,-36.0961 530.3825,-36.0026 537.8823,-38.0643C539.5423,-38.5206 541.2095,-38.9969 542.7819,-39.6981C544.2464,-40.3512 545.5581,-41.3036 546.9463,-42.1064C544.0584,-40.6163 541.3829,-38.6098 538.2826,-37.636C537.087,-37.2605 540.1428,-39.3201 540.9963,-40.2377C543.5122,-42.9425 544.9507,-45.9503 545.9633,-49.4488C546.6579,-52.3622 546.6456,-55.3557 546.5652,-58.3283C545.753,-64.4645 540.332,-58.4252 559.1,-66.0472C559.4417,-66.186 558.8994,-65.3356 558.842,-64.9712C558.7584,-64.4412 558.7327,-63.9037 558.678,-63.37C558.4116,-58.5352 558.3011,-53.6898 558.8385,-48.8729C559.3853,-45.774 559.9781,-42.6077 562.4072,-40.4324C564.1162,-39.3075 565.9299,-39.231 567.8176,-39.8486C572.3605,-42.1411 579.1794,-46.118 558.5218,-34.4558C557.7888,-34.042 559.9393,-35.3644 560.6358,-35.837L574.3857,-41.3039C573.3212,-40.43 573.5147,-40.5201 572.2923,-39.8054C567.6471,-37.0896 561.8948,-32.5533 556.0168,-30.8992C553.7225,-30.6532 551.5833,-31.1524 549.789,-32.6773C547.292,-35.2807 546.4771,-38.6003 545.9205,-42.101C545.3299,-46.9737 545.4484,-51.8684 545.5121,-56.7697C545.5317,-57.4241 545.5891,-59.6985 545.6353,-59.7292C555.3623,-66.1895 558.5071,-72.3046 559.7414,-65.0828C559.8109,-61.9585 559.8144,-58.8161 559.1617,-55.7418C555.9603,-42.9865 547.5064,-40.0804 535.8851,-33.2002C534.4562,-32.4798 533.0874,-31.625 531.5984,-31.0388C522.6477,-27.5147 512.8948,-27.7976 503.6881,-30.0046C501.849,-30.4923 499.9816,-30.8834 498.1708,-31.4678C493.5394,-32.9624 487.0263,-36.1598 483.6105,-39.7531C483.0478,-40.345 482.6426,-41.0688 482.1586,-41.7267C480.5349,-46.0707 480.067,-50.6739 479.2315,-55.2142C478.3895,-58.7321 477.5533,-63.083 474.6465,-65.525C473.9606,-65.439 474.3146,-65.5425 473.6055,-65.1501C477.5343,-67.4822 481.4631,-69.8142 485.392,-72.1463C485.7243,-72.3373 484.7836,-71.6778 484.5048,-71.4148C483.8053,-70.7548 483.2382,-69.9617 482.4827,-69.3567C479.6627,-65.8118 477.6289,-61.7908 475.2736,-57.9352C474.3882,-56.4197 473.6566,-54.9774 473.0931,-53.3151C472.9783,-52.9764 473.1056,-52.4677 472.7992,-52.2834C459.5044,-44.2868 462.4531,-41.0521 458.7423,-45.7121C457.6264,-50.4162 458.1984,-55.4103 457.1115,-60.1366C456.048,-66.7522 455.2298,-73.8382 451.6337,-79.6263C451.0084,-80.3781 450.7399,-81.067 449.7463,-81.2506C449.4773,-81.3003 448.6972,-81.0264 448.9293,-81.1714C452.7843,-83.5799 456.7874,-85.7435 460.684,-88.0841C461.0341,-88.2944 459.9199,-87.7826 459.574,-87.5654C459.1661,-87.3094 458.8163,-86.9709 458.4374,-86.6736C454.0539,-81.4464 452.7319,-74.3891 450.9594,-67.9864C448.9624,-58.7542 447.2481,-49.392 446.9663,-39.9303C442.6611,-37.2917 438.4431,-34.5055 434.0509,-32.0145C433.809,-31.8773 434.2913,-32.5188 434.3689,-32.7859C435.1731,-35.5526 434.9442,-38.4808 434.9437,-41.3192C434.5725,-47.6693 433.3852,-53.9844 430.9595,-59.8902C430.4967,-60.9584 429.6461,-64.0551 428.0273,-64.1645C427.6519,-64.1899 426.9629,-63.8928 426.664,-63.7855C421.876,-61.6536 417.2258,-59.2069 412.2498,-57.5029C394.41,-50.7931 376.4177,-44.5046 358.1221,-39.1385C347.5024,-35.6251 336.8084,-32.2298 326.4071,-28.0958C323.4132,-26.9058 320.6723,-24.9485 317.5147,-24.3088C315.893,-23.9803 323.0914,-27.8472 321.6038,-27.1227C319.4346,-26.0663 317.5039,-24.5777 315.454,-23.3052C311.6254,-20.2317 306.9304,-17.0518 306.0231,-11.7537C305.1302,-6.539 308.4514,-1.7173 310.6976,2.6064C312.0867,4.5044 313.4087,6.4534 314.865,8.3002C324.8107,20.9133 336.9125,31.7349 349.2333,41.9507C355.2776,46.4639 361.4425,51.5105 368.5887,54.2474C370.2378,54.879 371.9681,55.3572 373.7232,55.5527C375.2204,55.7194 379.0476,54.0524 378.2367,55.3221C376.5481,57.9662 373.0607,58.8689 370.4727,60.6424C371.9211,59.6313 373.4539,58.7314 374.818,57.609C382.3953,51.3747 387.7065,42.7683 390.0706,33.2575C390.7888,30.3679 391.0696,27.3869 391.5691,24.4516C391.713,21.3964 392.0786,18.3436 392.0007,15.286C391.6074,-.1509 386.3714,-15.0473 381.0958,-29.3649C376.6203,-40.4339 371.1739,-51.3452 369.2251,-63.2235C369.1596,-66.0352 369.2286,-68.1755 369.9092,-70.8957C369.9473,-71.0478 370.7023,-73.7558 371.0384,-73.9872C375.3553,-76.9602 379.9527,-79.5037 384.4099,-82.2619C384.7489,-82.2349 385.0988,-82.2704 385.4268,-82.1807C387.5325,-81.605 388.5419,-78.9921 389.422,-77.2845C391.2962,-72.8589 391.5534,-68.921 389.1687,-64.5737C388.6277,-63.7989 388.1602,-62.9673 387.5458,-62.2493C383.155,-57.1183 374.373,-53.5169 369.904,-51.0303C365.6297,-48.6519 360.7122,-47.6351 356.0106,-46.5342C354.1284,-46.2519 352.2609,-45.8421 350.3638,-45.6872C343.5879,-45.1342 336.6659,-46.3505 330.8819,-49.9878C330.0515,-50.6505 329.1568,-51.2399 328.3906,-51.9759C325.1513,-55.0883 324.1401,-58.5232 325.2119,-62.8203C326.8277,-67.9581 329.3611,-70.4448 333.6797,-73.6076C342.0135,-78.5311 349.5479,-83.9618 358.9357,-86.2666L347.1504,-77.2549z" stroke="#000" stroke-linecap="round" stroke-linejoin="round" stroke-width="2"/>
<path d="M549.2332,-122.1847C547.4497,-120.0919 546.0244,-117.6969 545.3462,-115.0219C544.8607,-112.3468 546.4564,-111.6609 548.6501,-110.701C552.1989,-109.4013 555.2322,-109.544 558.8667,-110.1867C563.727,-111.8529 571.4457,-116.6009 549.8419,-104.683C549.5386,-104.5156 550.4174,-105.0731 550.6735,-105.3066C551.283,-105.8622 551.3443,-106.0922 551.7431,-106.7885C552.4769,-108.4348 552.405,-109.9757 551.4599,-111.492C550.2026,-112.6833 548.3125,-112.5716 546.6902,-112.6506C545.0147,-112.4957 543.4191,-112.0801 542.057,-111.0753L553.6269,-120.3929C555.2743,-121.0166 556.9597,-121.4107 558.7396,-121.2691C560.8571,-121.0599 562.9403,-120.7594 564.3134,-118.9498C565.4318,-117.0683 565.8738,-115.1231 565.2275,-112.9755C562.8838,-105.9037 553.9818,-103.0447 547.0943,-101.3611C543.4244,-100.8997 539.7964,-101.101 536.3461,-102.5755C533.866,-103.8553 531.6424,-105.4567 532.0181,-108.5614C532.4759,-111.4436 533.8818,-114.0254 535.5706,-116.3799L549.2332,-122.1847z" stroke="#000" stroke-linecap="round" stroke-linejoin="round" stroke-width="2"/>
<path d="M359.6057,-86.1453C362.4187,-87.5125 365.103,-89.129 368.0047,-90.3079C369.8229,-91.4887 371.8175,-92.0343 373.9447,-92.2669C375.9013,-92.4156 377.8658,-92.3906 379.8266,-92.3838C381.7726,-92.5908 383.4211,-92.0588 385.1306,-91.2244C386.3272,-90.2653 387.2717,-88.9911 388.1806,-87.7589C388.971,-86.3232 389.4355,-84.7124 389.9217,-83.1481C390.3578,-81.5453 390.9514,-80.0138 391.2655,-78.376C391.5681,-76.4533 391.5887,-74.5022 391.6123,-72.5605C391.6209,-71.5593 391.6196,-70.5581 391.6191,-69.5568L378.4016,-62.8239C378.4031,-63.8201 378.4051,-64.8163 378.4006,-65.8125C378.3869,-67.6761 378.3836,-69.5468 378.1492,-71.3987C377.8884,-72.9952 377.3044,-74.4635 376.8794,-76.0128C376.4669,-77.4199 376.0218,-78.8533 375.3829,-80.165C374.6051,-81.185 373.8481,-82.3496 372.73,-83.0103C371.1597,-83.6924 369.5221,-83.7365 367.825,-83.6633C365.9059,-83.6547 363.9742,-83.6641 362.0745,-83.3541C360.0654,-82.9292 358.2552,-82.0648 356.4262,-81.1471C353.5803,-79.8236 350.8275,-78.3064 348.069,-76.8116L359.6057,-86.1453z" stroke="#000" stroke-linecap="round" stroke-linejoin="round" stroke-width="2"/>
</g>
<path d="M58.4045,43.3186H245.2827A15.9099,15.9099 0 0 1 261.1926,59.2286V59.2286A15.9099,15.9099 0 0 1 245.2827,75.1385H58.4045A15.9099,15.9099 0 0 1 42.4946,59.2286V59.2286A15.9099,15.9099 0 0 1 58.4045,43.3186z" fill="#fff" stroke="#000" stroke-linecap="round" stroke-linejoin="round" stroke-width="4"/>
<path d="M101.5203,44.9288A36.8706,34.8503 0 1 1 27.7792,44.9288A36.8706,34.8503 0 1 1 101.5203,44.9288z" stroke="#000" stroke-linecap="round" stroke-linejoin="round" stroke-width="7.491" transform="matrix(.7121,0,0,.7121,-2.79173,20.94152)"/>
<text font-family="Bitstream Vera Sans" font-size="40" x="18.8575" y="66.9761">
   <tspan fill="#f9f9f9" x="18.8575" y="66.9761">63</tspan>
  </text>
<text font-family="Bitstream Vera Sans" font-size="20" x="114.0535" y="64.567">
   <tspan x="114.0535" y="64.567">Tagazok</tspan>
  </text>
<text font-family="Bitstream Vera Sans" font-size="20" x="158.9768" y="134.5155">
   <tspan text-align="center" text-anchor="middle" x="158.9768" y="134.5155"></tspan>
  </text>
<path d="M446.8915,78.4154A61.5183,5.3033 0 1 1 323.8549,78.4154A61.5183,5.3033 0 1 1 446.8915,78.4154z" stroke="#000" stroke-linecap="round" stroke-width="4.862" transform="matrix(.67055,0,0,.89701,-166.30839,288.82139)"/>
<path d="M63.4127,267.291L104.5409,267.291C121.7236,267.291 135.5567,281.124 135.5567,298.3067L135.5567,328.7387C135.5567,345.9214 121.7236,359.7544 104.5409,359.7544L63.4127,359.7544" fill="#fff" stroke="#000" stroke-linecap="round" stroke-linejoin="round" stroke-width="3.128"/>
<path d="M-334.8069,80.4275H-314.5951A.6701,.6701 0 0 1 -313.925,81.0976V89.7083A.6701,.6701 0 0 1 -314.5951,90.3785H-334.8069A.6701,.6701 0 0 1 -335.4771,89.7083V81.0976A.6701,.6701 0 0 1 -334.8069,80.4275z" stroke="#000" stroke-linecap="square" stroke-linejoin="round" stroke-width="3.2067" transform="matrix(0,-1,1,0,0,0)"/>
<path d="M-299.2589,80.4275H-281.7276A2.0104,2.0104 0 0 1 -279.7172,82.4379V88.3681A2.0104,2.0104 0 0 1 -281.7276,90.3785H-299.2589A2.0104,2.0104 0 0 1 -301.2693,88.3681V82.4379A2.0104,2.0104 0 0 1 -299.2589,80.4275z" stroke="#000" stroke-linecap="square" stroke-linejoin="round" stroke-width="3.2067" transform="matrix(0,-1,1,0,0,0)"/>
<path d="M84.7685,357.772C84.7775,357.3003 84.7743,356.8285 84.772,356.3568C84.7701,356.0451 84.7689,355.7334 84.7684,355.4216C84.768,355.1704 84.768,354.9192 84.768,354.668C84.7675,354.4069 84.7685,354.1458 84.769,353.8847C84.7607,353.5492 84.7687,353.2189 84.8126,352.8868C84.8594,352.5435 84.8741,352.197 84.8836,351.8508C84.87,351.5028 84.9342,351.1613 84.9686,350.8168C85.0002,350.4664 85.0036,350.1143 85.0073,349.7626C85.0093,349.3932 85.0091,349.0238 85.0079,348.6544C85.0072,348.3335 85.0068,348.0126 85.006,347.6918C85.0053,347.4281 85.0051,347.1644 85.005,346.9007C85.0049,346.6504 85.005,346.4 85.005,346.1497C85.005,345.8993 85.005,345.6489 85.005,345.3985C85.0046,345.1248 85.0054,344.8511 85.0066,344.5774C85.0087,344.2388 85.007,343.9002 85.0061,343.5616C85.0059,343.243 85.0065,342.9245 85.0074,342.606C85.0072,342.2653 85.0073,341.9246 85.0065,341.5838C85.0066,341.2575 85.0071,340.9312 85.0066,340.6048C85.0055,340.308 85.0053,340.0113 85.0068,339.7145C85.0091,339.2565 85.0104,338.7986 85.012,338.3407C85.0145,337.7166 85.015,337.0926 85.0129,336.4685C85.0117,336.0106 85.0084,335.5526 85.0082,335.0946C85.0088,334.7156 85.0082,334.3366 85.0069,333.9576C85.0068,333.9051 85.0066,333.8527 85.0064,333.8002L86.0364,335.2997C86.0363,335.3517 86.0361,335.4036 86.0359,335.4556C86.0346,335.8333 86.0341,336.2111 86.0346,336.5889C86.0344,337.0423 86.0311,337.4957 86.03,337.9491C86.0279,338.574 86.0284,339.199 86.0308,339.8238C86.0324,340.2868 86.0338,340.7498 86.036,341.2128C86.0375,341.5098 86.0373,341.8068 86.0362,342.1038C86.0358,342.4303 86.0362,342.7567 86.0364,343.0832C86.0355,343.423 86.0356,343.7628 86.0355,344.1027C86.0363,344.4225 86.037,344.7422 86.0367,345.062C86.0358,345.4001 86.0342,345.7382 86.0362,346.0763C86.0374,346.3516 86.0382,346.6269 86.0379,346.9022C86.0379,347.1526 86.0379,347.403 86.0379,347.6534C86.0379,347.9037 86.0379,348.154 86.0378,348.4043C86.0377,348.6671 86.0375,348.9299 86.037,349.1927C86.0364,349.5122 86.0363,349.8317 86.0362,350.1512C86.0355,350.5206 86.0368,350.8901 86.0327,351.2595C86.0279,351.6157 86.0203,351.9725 85.9817,352.3268C85.9434,352.6676 85.8982,353.007 85.907,353.3514C85.894,353.7017 85.8696,354.0513 85.8239,354.3986C85.7892,354.7267 85.7988,355.0559 85.8,355.3856C85.8005,355.6477 85.8015,355.9098 85.801,356.1719C85.801,356.4228 85.801,356.6736 85.8006,356.9245C85.8001,357.2327 85.7988,357.5409 85.797,357.849C85.7946,358.3242 85.7917,358.7994 85.8005,359.2745L84.7685,357.772z" stroke="#000" stroke-linecap="square" stroke-linejoin="round" stroke-width=".4094"/>
<path d="M85.0061,279.1931C85.0162,278.5886 85.0149,277.9839 85.0145,277.3793C85.0137,276.8252 85.0122,276.2711 85.0097,275.7169C85.0076,275.3466 85.0076,274.9763 85.0071,274.606C85.0064,274.3141 85.0057,274.0223 85.0053,273.7305C85.0239,273.4756 84.9559,273.2306 84.9232,272.98C84.8939,272.7287 84.8897,272.4753 84.8867,272.2225C84.8849,271.9716 84.8856,271.7206 84.886,271.4697C84.8863,271.2191 84.8864,270.9685 84.8865,270.7179C84.8865,270.4673 84.8865,270.2167 84.8865,269.9661C84.8865,269.7155 84.8865,269.4649 84.8865,269.2143C84.886,268.9453 84.8875,268.6762 84.8875,268.4072C84.8873,268.1347 84.8869,267.8623 84.8867,267.5898C84.8865,267.3374 84.8865,267.0851 84.8865,266.8328C84.8865,266.6659 84.8865,266.7493 84.8865,266.5824L85.9194,268.0862C85.9194,268.253 85.9194,268.1696 85.9194,268.3365C85.9194,268.5886 85.9194,268.8408 85.9192,269.093C85.919,269.3647 85.9186,269.6364 85.9184,269.9081C85.9185,270.1781 85.9199,270.4481 85.9194,270.718C85.9194,270.9686 85.9194,271.2193 85.9194,271.4699C85.9194,271.7205 85.9194,271.9711 85.9193,272.2217C85.9192,272.4723 85.919,272.723 85.9187,272.9736C85.9185,273.2237 85.9178,273.4739 85.9224,273.7241C85.9287,273.9725 85.9392,274.2214 85.977,274.4672C86.0158,274.7215 86.0548,274.9744 86.0376,275.2334C86.0372,275.5234 86.0365,275.8135 86.0358,276.1035C86.0353,276.4713 86.0352,276.8391 86.0332,277.2069C86.0307,277.7564 86.0291,278.3059 86.0284,278.8554C86.028,279.4681 86.0268,280.0809 86.0367,280.6935L85.0061,279.1931z" stroke="#000" stroke-linecap="square" stroke-linejoin="round" stroke-width=".4094"/>
<path d="M85.1463,313.798C85.2043,313.3394 85.2226,312.8768 85.2363,312.4148C85.2463,312.0025 85.2463,311.5901 85.2452,311.1777C85.2448,310.8372 85.2447,310.4967 85.2438,310.1563C85.2614,309.4728 85.2528,308.789 85.2497,308.1054C85.2466,307.6924 85.2454,307.2794 85.2436,306.8663C85.2437,306.5369 85.2433,306.2075 85.2442,305.8781C85.2453,305.5319 85.2433,305.1856 85.2439,304.8393C85.2432,304.5269 85.2432,304.2144 85.2433,303.9019C85.2438,303.589 85.2435,303.2761 85.2429,302.9631C85.2439,302.6642 85.243,302.3653 85.2425,302.0663C85.2437,301.7739 85.2429,301.4814 85.2425,301.1889C85.2421,300.9305 85.242,300.6722 85.2419,300.4139C85.2922,300.1978 85.3283,299.9805 85.3458,299.7588C85.3606,299.5184 85.3606,299.2773 85.3612,299.0366C85.3614,298.7861 85.3609,298.5356 85.3607,298.2851C85.3605,298.1597 85.3605,298.0342 85.3604,297.9088L86.3934,299.4125C86.3935,299.5379 86.3936,299.6633 86.3937,299.7887C86.394,300.0394 86.3946,300.2903 86.3934,300.541C86.3913,300.786 86.3891,301.0314 86.3649,301.2753C86.3397,301.4905 86.2879,301.7012 86.2748,301.9175C86.2747,302.1753 86.2746,302.4332 86.2742,302.691C86.2738,302.9834 86.273,303.2758 86.2742,303.5683C86.2737,303.8668 86.2728,304.1654 86.2738,304.464C86.2732,304.7765 86.2729,305.089 86.2734,305.4015C86.2735,305.7134 86.2735,306.0253 86.2728,306.3372C86.2734,306.6832 86.2714,307.0293 86.2725,307.3753C86.2734,307.7052 86.273,308.0351 86.2731,308.365C86.2713,308.7722 86.2701,309.1794 86.2671,309.5866C86.2639,310.276 86.2557,310.9657 86.2734,311.6549C86.273,311.9948 86.2738,312.3347 86.2731,312.6746C86.2706,313.0856 86.2674,313.4965 86.2537,313.9073C86.2355,314.3776 86.2075,314.8474 86.1618,315.3158L85.1463,313.798z" stroke="#000" stroke-linecap="square" stroke-linejoin="round" stroke-width=".4094"/>
<path d="M52.6709,346.867L68.5965,346.867" fill="none" stroke="#000" stroke-linecap="round" stroke-width="4.1264"/>
<path d="M51.1642,338.6874L67.0898,338.6874" fill="none" stroke="#000" stroke-linecap="round" stroke-width="4.1264"/>
<path d="M52.4218,331.0121L68.3474,331.0121" fill="none" stroke="#000" stroke-linecap="round" stroke-width="4.1264"/>
<path d="M51.4194,320.9837L67.3449,320.9837" fill="none" stroke="#000" stroke-linecap="round" stroke-width="4.1264"/>
<path d="M53.2973,312.2591L69.2229,312.2591" fill="none" stroke="#000" stroke-linecap="round" stroke-width="4.1264"/>
<path d="M53.1467,302.2715L69.0722,302.2715" fill="none" stroke="#000" stroke-linecap="round" stroke-width="4.1264"/>
<path d="M51.6745,293.2515L67.6,293.2515" fill="none" stroke="#000" stroke-linecap="round" stroke-width="4.1264"/>
<path d="M54.2827,284.7358L70.2082,284.7358" fill="none" stroke="#000" stroke-linecap="round" stroke-width="4.1264"/>
<path d="M53.966,275.5695L69.8916,275.5695" fill="none" stroke="#000" stroke-linecap="round" stroke-width="4.1264"/>
<path d="M56.7334,353.6382L72.659,353.6382" fill="none" stroke="#000" stroke-linecap="round" stroke-width="4.1264"/>
<flowRoot>
   <flowRegion>
    <path d="M192.8571,-55.7143H469.2857V26.4286H192.8571z"></path>
   </flowRegion>
   <flowPara></flowPara>
  </flowRoot>
<path d="M122.8571,291.0714A4.2857,3.9286 0 1 1 114.2857,291.0714A4.2857,3.9286 0 1 1 122.8571,291.0714z" fill="#fff" stroke="#000" stroke-linecap="round" stroke-linejoin="round" stroke-width="3.642" transform="translate(-2.8571,-5.7143)"/>
<path d="M446.8915,78.4154A61.5183,5.3033 0 1 1 323.8549,78.4154A61.5183,5.3033 0 1 1 446.8915,78.4154z" stroke="#000" stroke-linecap="round" stroke-width="4.862" transform="matrix(.85883,0,0,.85883,-127.40054,290.22826)"/>
<g transform="translate(7.8571,17.1429)">
<path d="M238.0357,193.75L257.3214,164.4643L286.25,206.9643L257.3214,180.8929L238.0357,201.6071" fill="none" stroke="#000" stroke-width="3.128"/>
<path d="M240.4551,176.5236L240.4551,217.6518C240.4551,234.8346 226.6221,248.6676 209.4394,248.6676L179.0074,248.6676C161.8247,248.6676 147.9916,234.8346 147.9916,217.6518L147.9916,176.5236" fill="#fff" stroke="#000" stroke-linecap="round" stroke-linejoin="round" stroke-width="3.1281"/>
<path d="M172.9391,193.5384H193.1509A.6701,.6701 0 0 1 193.8211,194.2085V202.8192A.6701,.6701 0 0 1 193.1509,203.4894H172.9391A.6701,.6701 0 0 1 172.2689,202.8192V194.2085A.6701,.6701 0 0 1 172.9391,193.5384z" stroke="#000" stroke-linecap="square" stroke-linejoin="round" stroke-width="3.2067"/>
<path d="M208.4871,193.5384H226.0184A2.0104,2.0104 0 0 1 228.0288,195.5488V201.479A2.0104,2.0104 0 0 1 226.0184,203.4894H208.4871A2.0104,2.0104 0 0 1 206.4767,201.479V195.5488A2.0104,2.0104 0 0 1 208.4871,193.5384z" stroke="#000" stroke-linecap="square" stroke-linejoin="round" stroke-width="3.2067"/>
<path d="M149.974,197.8794C150.4457,197.8884 150.9175,197.8852 151.3892,197.8829C151.701,197.881 152.0127,197.8798 152.3244,197.8793C152.5756,197.8789 152.8268,197.8789 153.078,197.8789C153.3391,197.8784 153.6002,197.8794 153.8614,197.8799C154.1969,197.8716 154.5272,197.8796 154.8593,197.9235C155.2025,197.9703 155.549,197.9851 155.8952,197.9945C156.2432,197.981 156.5848,198.0451 156.9293,198.0796C157.2796,198.1111 157.6318,198.1145 157.9834,198.1182C158.3528,198.1202 158.7223,198.12 159.0917,198.1188C159.4125,198.1181 159.7334,198.1177 160.0543,198.1169C160.3179,198.1162 160.5816,198.116 160.8453,198.1159C161.0957,198.1158 161.346,198.1159 161.5964,198.1159C161.8468,198.1159 162.0971,198.1159 162.3475,198.1159C162.6212,198.1155 162.8949,198.1163 163.1686,198.1175C163.5072,198.1196 163.8459,198.1179 164.1845,198.117C164.503,198.1168 164.8215,198.1174 165.14,198.1183C165.4808,198.1182 165.8215,198.1182 166.1622,198.1174C166.4885,198.1175 166.8149,198.118 167.1412,198.1175C167.438,198.1164 167.7348,198.1162 168.0316,198.1177C168.4895,198.12 168.9474,198.1213 169.4053,198.123C170.0294,198.1254 170.6535,198.1259 171.2775,198.1238C171.7355,198.1226 172.1935,198.1193 172.6514,198.1191C173.0304,198.1197 173.4094,198.1191 173.7884,198.1179C173.8409,198.1177 173.8934,198.1175 173.9459,198.1173L172.4463,199.1473C172.3944,199.1472 172.3424,199.147 172.2904,199.1468C171.9127,199.1455 171.5349,199.145 171.1572,199.1455C170.7037,199.1453 170.2503,199.142 169.7969,199.1409C169.172,199.1388 168.5471,199.1393 167.9222,199.1417C167.4592,199.1433 166.9962,199.1447 166.5333,199.1469C166.2362,199.1484 165.9392,199.1482 165.6422,199.1472C165.3158,199.1467 164.9893,199.1471 164.6628,199.1473C164.323,199.1464 163.9832,199.1465 163.6434,199.1464C163.3236,199.1472 163.0038,199.1479 162.684,199.1477C162.3459,199.1467 162.0078,199.1451 161.6697,199.1471C161.3944,199.1483 161.1191,199.1491 160.8438,199.1488C160.5934,199.1488 160.343,199.1488 160.0926,199.1488C159.8423,199.1488 159.592,199.1488 159.3417,199.1487C159.0789,199.1486 158.8161,199.1484 158.5533,199.1479C158.2338,199.1473 157.9143,199.1472 157.5948,199.1472C157.2254,199.1464 156.856,199.1478 156.4865,199.1436C156.1303,199.1388 155.7735,199.1312 155.4192,199.0926C155.0785,199.0543 154.739,199.0091 154.3946,199.0179C154.0444,199.0049 153.6948,198.9805 153.3474,198.9348C153.0193,198.9001 152.6901,198.9097 152.3604,198.9109C152.0983,198.9114 151.8363,198.9124 151.5742,198.9119C151.3233,198.9119 151.0724,198.9119 150.8216,198.9115C150.5134,198.911 150.2052,198.9098 149.897,198.9079C149.4219,198.9055 148.9467,198.9026 148.4716,198.9114L149.974,197.8794z" stroke="#000" stroke-linecap="square" stroke-linejoin="round" stroke-width=".4094"/>
<path d="M228.553,198.117C229.1575,198.1272 229.7621,198.1258 230.3667,198.1254C230.9208,198.1246 231.475,198.1231 232.0291,198.1206C232.3994,198.1185 232.7698,198.1185 233.1401,198.118C233.4319,198.1173 233.7237,198.1166 234.0155,198.1162C234.2705,198.1348 234.5154,198.0668 234.766,198.0341C235.0173,198.0048 235.2707,198.0006 235.5236,197.9976C235.7745,197.9958 236.0254,197.9965 236.2763,197.9969C236.5269,197.9972 236.7775,197.9973 237.0281,197.9974C237.2787,197.9974 237.5293,197.9974 237.7799,197.9974C238.0305,197.9974 238.2811,197.9974 238.5317,197.9974C238.8008,197.9969 239.0698,197.9984 239.3389,197.9984C239.6113,197.9982 239.8838,197.9978 240.1562,197.9976C240.4086,197.9974 240.661,197.9974 240.9133,197.9974C241.0802,197.9974 240.9967,197.9974 241.1636,197.9974L239.6599,199.0303C239.493,199.0303 239.5764,199.0303 239.4096,199.0303C239.1574,199.0303 238.9052,199.0303 238.6531,199.0301C238.3814,199.0299 238.1097,199.0296 237.838,199.0293C237.568,199.0294 237.298,199.0308 237.028,199.0303C236.7774,199.0303 236.5268,199.0303 236.2762,199.0303C236.0256,199.0303 235.7749,199.0303 235.5243,199.0302C235.2737,199.0301 235.0231,199.0299 234.7725,199.0296C234.5223,199.0294 234.2721,199.0287 234.022,199.0333C233.7735,199.0397 233.5246,199.0501 233.2788,199.0879C233.0246,199.1267 232.7717,199.1658 232.5127,199.1485C232.2226,199.1481 231.9326,199.1474 231.6425,199.1467C231.2747,199.1462 230.9069,199.1461 230.5391,199.1441C229.9896,199.1416 229.4401,199.14 228.8906,199.1393C228.2779,199.1389 227.6652,199.1377 227.0526,199.1476L228.553,198.117z" stroke="#000" stroke-linecap="square" stroke-linejoin="round" stroke-width=".4094"/>
<path d="M193.9481,198.2572C194.4066,198.3152 194.8692,198.3335 195.3312,198.3473C195.7435,198.3572 196.156,198.3572 196.5684,198.3561C196.9088,198.3557 197.2493,198.3556 197.5898,198.3547C198.2732,198.3723 198.957,198.3637 199.6406,198.3606C200.0537,198.3575 200.4667,198.3563 200.8797,198.3546C201.2091,198.3546 201.5385,198.3542 201.8679,198.3551C202.2142,198.3562 202.5605,198.3543 202.9067,198.3548C203.2192,198.3541 203.5317,198.3542 203.8441,198.3542C204.157,198.3547 204.47,198.3544 204.7829,198.3538C205.0819,198.3548 205.3808,198.3539 205.6797,198.3534C205.9722,198.3546 206.2647,198.3538 206.5571,198.3534C206.8155,198.353 207.0738,198.3529 207.3322,198.3528C207.5482,198.4031 207.7656,198.4392 207.9873,198.4567C208.2277,198.4715 208.4687,198.4715 208.7095,198.4722C208.96,198.4723 209.2105,198.4718 209.461,198.4716C209.5864,198.4715 209.7118,198.4714 209.8372,198.4714L208.3335,199.5043C208.2081,199.5044 208.0828,199.5045 207.9574,199.5046C207.7066,199.5049 207.4558,199.5055 207.205,199.5043C206.9601,199.5022 206.7146,199.5 206.4708,199.4758C206.2556,199.4506 206.0448,199.3988 205.8285,199.3857C205.5707,199.3856 205.3129,199.3855 205.0551,199.3851C204.7626,199.3847 204.4702,199.3839 204.1778,199.3851C203.8792,199.3846 203.5806,199.3837 203.2821,199.3847C202.9695,199.3841 202.657,199.3838 202.3445,199.3843C202.0326,199.3844 201.7207,199.3844 201.4088,199.3837C201.0628,199.3843 200.7168,199.3824 200.3708,199.3835C200.0409,199.3843 199.711,199.3839 199.3811,199.384C198.9739,199.3823 198.5667,199.381 198.1594,199.378C197.47,199.3748 196.7804,199.3666 196.0911,199.3843C195.7512,199.3839 195.4113,199.3847 195.0714,199.384C194.6605,199.3815 194.2495,199.3783 193.8388,199.3646C193.3684,199.3464 192.8986,199.3184 192.4303,199.2727L193.9481,198.2572z" stroke="#000" stroke-linecap="square" stroke-linejoin="round" stroke-width=".4094"/>
<path d="M160.8791,165.7818L160.8791,181.7074" fill="none" stroke="#000" stroke-linecap="round" stroke-width="4.1264"/>
<path d="M169.0586,164.2751L169.0586,180.2007" fill="none" stroke="#000" stroke-linecap="round" stroke-width="4.1264"/>
<path d="M176.734,165.5327L176.734,181.4583" fill="none" stroke="#000" stroke-linecap="round" stroke-width="4.1264"/>
<path d="M186.7623,164.5303L186.7623,180.4558" fill="none" stroke="#000" stroke-linecap="round" stroke-width="4.1264"/>
<path d="M195.4869,166.4082L195.4869,182.3338" fill="none" stroke="#000" stroke-linecap="round" stroke-width="4.1264"/>
<path d="M205.4745,166.2576L205.4745,182.1831" fill="none" stroke="#000" stroke-linecap="round" stroke-width="4.1264"/>
<path d="M214.4945,164.7854L214.4945,180.7109" fill="none" stroke="#000" stroke-linecap="round" stroke-width="4.1264"/>
<path d="M223.0102,167.3936L223.0102,183.3192" fill="none" stroke="#000" stroke-linecap="round" stroke-width="4.1264"/>
<path d="M232.1765,167.0769L232.1765,183.0025" fill="none" stroke="#000" stroke-linecap="round" stroke-width="4.1264"/>
<path d="M200.9821,231.5535C192.8657,232.044 184.0382,236.0906 177.688,227.7504" fill="none" stroke="#000" stroke-width=".6655"/>
<path d="M154.1078,169.8443L154.1078,185.7699" fill="none" stroke="#000" stroke-linecap="round" stroke-width="4.1264"/>
<g transform="translate(-1.4286,4.2857)">
<path d="m242.8571,143.5714c0,4.3394-21.1066,7.8571-47.1429,7.8571-26.0363,0-47.1429,-3.5178-47.1429,-7.8571 0,-4.3394 21.1066,-7.8571 47.1429,-7.8571 26.0363,0 47.1429,3.5178 47.1429,7.8571z" fill="#fff" stroke="#000" stroke-linecap="round" stroke-linejoin="round" stroke-width="3.642"/>
<path d="m223.5714,143.5714c0,1.5779-12.9518,2.8571-28.9286,2.8571-15.9768,0-28.9286,-1.2792-28.9286,-2.8571 0,-1.578 12.9518,-2.8571 28.9286,-2.8571 15.9768,0 28.9286,1.2792 28.9286,2.8571z" fill="#fff" stroke="#000" stroke-linecap="round" stroke-linejoin="round" stroke-width="3.642"/>
</g>
<path d="M147.1429,195.7143L127.8572,166.4286L98.9286,208.9286L127.8572,182.8571L147.1429,203.5714" fill="none" stroke="#000" stroke-width="3.128"/>
</g>
<path d="M147.1429,255L131.4286,272.8571" fill="none" stroke="#000"/>
<path d="M158.5714,262.8571L142.8571,278.5714" fill="none" stroke="#000"/>
<path d="M170,270L150,287.8571" fill="none" stroke="#000"/>
<text font-family="Bitstream Vera Sans" font-size="20" x="155" y="106.4286">
   <tspan text-align="center" text-anchor="middle" x="155" y="106.4286">Adieu les partiels !</tspan>
   <tspan text-align="center" text-anchor="middle" x="155" y="131.4286">Tagazok mes frères !</tspan>
  </text>
<path d="M118.5714,148.5714L142.8571,172.8571" fill="none" stroke="#000"/>
<path d="M446.8915,78.4154A61.5183,5.3033 0 1 1 323.8549,78.4154A61.5183,5.3033 0 1 1 446.8915,78.4154z" stroke="#000" stroke-linecap="round" stroke-width="4.862" transform="matrix(.67055,0,0,.89701,81.37324,289.74119)"/>
<path d="M311.0943,268.2108L352.2226,268.2108C369.4053,268.2108 383.2383,282.0438 383.2383,299.2265L383.2383,329.6585C383.2383,346.8412 369.4053,360.6742 352.2226,360.6742L311.0943,360.6742" fill="#fff" stroke="#000" stroke-linecap="round" stroke-linejoin="round" stroke-width="3.128"/>
<path d="M-335.7267,328.1091H-315.5149A.6701,.6701 0 0 1 -314.8448,328.7792V337.39A.6701,.6701 0 0 1 -315.5149,338.0601H-335.7267A.6701,.6701 0 0 1 -336.3969,337.39V328.7792A.6701,.6701 0 0 1 -335.7267,328.1091z" stroke="#000" stroke-linecap="square" stroke-linejoin="round" stroke-width="3.2067" transform="matrix(0,-1,1,0,0,0)"/>
<path d="M-300.1787,328.1091H-282.6474A2.0104,2.0104 0 0 1 -280.637,330.1195V336.0497A2.0104,2.0104 0 0 1 -282.6474,338.0601H-300.1787A2.0104,2.0104 0 0 1 -302.1891,336.0497V330.1195A2.0104,2.0104 0 0 1 -300.1787,328.1091z" stroke="#000" stroke-linecap="square" stroke-linejoin="round" stroke-width="3.2067" transform="matrix(0,-1,1,0,0,0)"/>
<path d="M332.4501,358.6918C332.4591,358.2201 332.456,357.7483 332.4536,357.2766C332.4518,356.9649 332.4506,356.6532 332.45,356.3414C332.4496,356.0902 332.4497,355.839 332.4497,355.5878C332.4491,355.3267 332.4502,355.0656 332.4506,354.8045C332.4423,354.469 332.4503,354.1387 332.4942,353.8066C332.541,353.4633 332.5558,353.1168 332.5652,352.7706C332.5517,352.4226 332.6158,352.0811 332.6503,351.7366C332.6819,351.3862 332.6852,351.034 332.689,350.6824C332.6909,350.313 332.6908,349.9436 332.6895,349.5742C332.6889,349.2533 332.6884,348.9324 332.6876,348.6116C332.6869,348.3479 332.6868,348.0842 332.6866,347.8205C332.6866,347.5702 332.6866,347.3198 332.6866,347.0695C332.6866,346.8191 332.6866,346.5687 332.6866,346.3183C332.6863,346.0446 332.6871,345.7709 332.6883,345.4972C332.6903,345.1586 332.6887,344.82 332.6877,344.4814C332.6875,344.1628 332.6882,343.8443 332.689,343.5258C332.6889,343.1851 332.689,342.8444 332.6881,342.5036C332.6883,342.1773 332.6888,341.851 332.6882,341.5247C332.6872,341.2278 332.687,340.9311 332.6885,340.6343C332.6907,340.1763 332.6921,339.7184 332.6937,339.2605C332.6961,338.6364 332.6966,338.0124 332.6945,337.3883C332.6934,336.9303 332.6901,336.4724 332.6899,336.0144C332.6904,335.6354 332.6898,335.2564 332.6886,334.8774C332.6884,334.8249 332.6882,334.7725 332.6881,334.72L333.7181,336.2195C333.7179,336.2715 333.7177,336.3234 333.7175,336.3754C333.7163,336.7532 333.7157,337.1309 333.7163,337.5087C333.7161,337.9621 333.7127,338.4155 333.7116,338.8689C333.7095,339.4938 333.7101,340.1187 333.7124,340.7436C333.7141,341.2066 333.7154,341.6696 333.7177,342.1326C333.7191,342.4296 333.719,342.7266 333.7179,343.0236C333.7174,343.3501 333.7178,343.6765 333.718,344.003C333.7172,344.3428 333.7172,344.6826 333.7171,345.0225C333.718,345.3422 333.7186,345.662 333.7184,345.9818C333.7175,346.3199 333.7158,346.658 333.7178,346.9961C333.719,347.2714 333.7198,347.5467 333.7195,347.822C333.7195,348.0724 333.7195,348.3228 333.7195,348.5732C333.7195,348.8235 333.7195,349.0738 333.7195,349.3241C333.7194,349.5869 333.7192,349.8497 333.7186,350.1125C333.718,350.432 333.7179,350.7515 333.7179,351.071C333.7172,351.4404 333.7185,351.8099 333.7144,352.1793C333.7095,352.5355 333.7019,352.8923 333.6633,353.2466C333.625,353.5874 333.5798,353.9268 333.5886,354.2713C333.5756,354.6215 333.5513,354.9711 333.5055,355.3184C333.4708,355.6465 333.4805,355.9757 333.4816,356.3055C333.4821,356.5675 333.4832,356.8296 333.4826,357.0917C333.4826,357.3426 333.4826,357.5934 333.4823,357.8443C333.4817,358.1525 333.4805,358.4607 333.4786,358.7688C333.4762,359.244 333.4733,359.7192 333.4821,360.1943L332.4501,358.6918z" stroke="#000" stroke-linecap="square" stroke-linejoin="round" stroke-width=".4094"/>
<path d="M332.6877,280.1129C332.6979,279.5084 332.6965,278.9037 332.6961,278.2991C332.6953,277.745 332.6938,277.1909 332.6913,276.6367C332.6893,276.2664 332.6892,275.8961 332.6887,275.5258C332.688,275.2339 332.6873,274.9421 332.6869,274.6503C332.7055,274.3954 332.6375,274.1504 332.6048,273.8998C332.5755,273.6485 332.5713,273.3951 332.5683,273.1423C332.5665,272.8914 332.5673,272.6404 332.5676,272.3895C332.5679,272.1389 332.5681,271.8883 332.5681,271.6377C332.5682,271.3871 332.5682,271.1365 332.5682,270.8859C332.5682,270.6353 332.5682,270.3847 332.5682,270.1341C332.5676,269.8651 332.5691,269.596 332.5691,269.327C332.5689,269.0545 332.5685,268.7821 332.5683,268.5096C332.5682,268.2572 332.5682,268.0049 332.5682,267.7526C332.5681,267.5857 332.5681,267.6691 332.5681,267.5022L333.601,269.006C333.601,269.1728 333.601,269.0894 333.601,269.2563C333.601,269.5084 333.601,269.7606 333.6009,270.0128C333.6007,270.2845 333.6003,270.5562 333.6001,270.8279C333.6001,271.0979 333.6015,271.3678 333.601,271.6378C333.601,271.8884 333.601,272.1391 333.601,272.3897C333.601,272.6403 333.601,272.8909 333.601,273.1415C333.6008,273.3921 333.6006,273.6428 333.6003,273.8934C333.6001,274.1435 333.5994,274.3937 333.604,274.6439C333.6104,274.8923 333.6208,275.1412 333.6586,275.387C333.6975,275.6413 333.7365,275.8942 333.7192,276.1532C333.7188,276.4432 333.7181,276.7333 333.7174,277.0233C333.7169,277.3911 333.7169,277.7589 333.7148,278.1267C333.7123,278.6762 333.7108,279.2257 333.71,279.7752C333.7096,280.3879 333.7084,281.0007 333.7184,281.6133L332.6877,280.1129z" stroke="#000" stroke-linecap="square" stroke-linejoin="round" stroke-width=".4094"/>
<path d="M332.8279,314.7178C332.886,314.2592 332.9042,313.7966 332.918,313.3346C332.9279,312.9223 332.9279,312.5099 332.9268,312.0975C332.9264,311.757 332.9263,311.4165 332.9255,311.0761C332.943,310.3927 332.9344,309.7088 332.9313,309.0252C332.9282,308.6122 332.927,308.1991 332.9253,307.7861C332.9253,307.4567 332.9249,307.1273 332.9258,306.7979C332.9269,306.4517 332.925,306.1054 332.9255,305.7591C332.9248,305.4466 332.9249,305.1342 332.925,304.8217C332.9255,304.5088 332.9252,304.1959 332.9245,303.8829C332.9256,303.584 332.9246,303.2851 332.9241,302.9861C332.9254,302.6937 332.9245,302.4012 332.9241,302.1087C332.9237,301.8503 332.9236,301.592 332.9236,301.3337C332.9738,301.1176 333.0099,300.9003 333.0274,300.6786C333.0422,300.4382 333.0422,300.1971 333.0429,299.9564C333.043,299.7059 333.0426,299.4554 333.0423,299.2049C333.0422,299.0795 333.0421,298.954 333.0421,298.8286L334.075,300.3323C334.0751,300.4577 334.0752,300.5831 334.0753,300.7085C334.0756,300.9592 334.0763,301.2101 334.075,301.4608C334.0729,301.7058 334.0707,301.9512 334.0466,302.1951C334.0213,302.4103 333.9695,302.621 333.9564,302.8373C333.9563,303.0951 333.9562,303.353 333.9559,303.6108C333.9555,303.9032 333.9546,304.1956 333.9558,304.4881C333.9554,304.7867 333.9544,305.0852 333.9554,305.3838C333.9548,305.6963 333.9545,306.0088 333.955,306.3213C333.9551,306.6332 333.9552,306.9451 333.9545,307.257C333.955,307.603 333.9531,307.9491 333.9542,308.2951C333.9551,308.625 333.9547,308.9549 333.9547,309.2847C333.953,309.692 333.9518,310.0992 333.9487,310.5064C333.9456,311.1958 333.9373,311.8855 333.955,312.5747C333.9547,312.9146 333.9554,313.2545 333.9547,313.5944C333.9522,314.0054 333.949,314.4163 333.9354,314.8271C333.9172,315.2974 333.8891,315.7672 333.8435,316.2356L332.8279,314.7178z" stroke="#000" stroke-linecap="square" stroke-linejoin="round" stroke-width=".4094"/>
<path d="M300.3526,347.7868L316.2781,347.7868" fill="none" stroke="#000" stroke-linecap="round" stroke-width="4.1264"/>
<path d="M298.8459,339.6072L314.7714,339.6072" fill="none" stroke="#000" stroke-linecap="round" stroke-width="4.1264"/>
<path d="M300.1035,331.9319L316.029,331.9319" fill="none" stroke="#000" stroke-linecap="round" stroke-width="4.1264"/>
<path d="M299.101,321.9035L315.0266,321.9035" fill="none" stroke="#000" stroke-linecap="round" stroke-width="4.1264"/>
<path d="M300.9789,313.1789L316.9045,313.1789" fill="none" stroke="#000" stroke-linecap="round" stroke-width="4.1264"/>
<path d="M300.8283,303.1913L316.7539,303.1913" fill="none" stroke="#000" stroke-linecap="round" stroke-width="4.1264"/>
<path d="M299.3561,294.1713L315.2817,294.1713" fill="none" stroke="#000" stroke-linecap="round" stroke-width="4.1264"/>
<path d="M301.9643,285.6556L317.8899,285.6556" fill="none" stroke="#000" stroke-linecap="round" stroke-width="4.1264"/>
<path d="M301.6477,276.4893L317.5732,276.4893" fill="none" stroke="#000" stroke-linecap="round" stroke-width="4.1264"/>
<path d="M304.415,354.558L320.3406,354.558" fill="none" stroke="#000" stroke-linecap="round" stroke-width="4.1264"/>
<path d="M122.8571,291.0714A4.2857,3.9286 0 1 1 114.2857,291.0714A4.2857,3.9286 0 1 1 122.8571,291.0714z" fill="#fff" stroke="#000" stroke-linecap="round" stroke-linejoin="round" stroke-width="3.642" transform="translate(244.8245,-4.7945)"/>
<path d="M520.0031,141.0984L539.2888,111.8127L568.2174,154.3127L539.2888,128.2412L520.0031,148.9555" fill="none" stroke="#000" stroke-width="3.128"/>
<path d="M522.4224,123.8719L522.4224,165.0002C522.4224,182.1829 508.5894,196.0159 491.4067,196.0159L460.9747,196.0159C443.792,196.0159 429.959,182.1829 429.959,165.0002L429.959,123.8719" fill="#fff" stroke="#000" stroke-linecap="round" stroke-linejoin="round" stroke-width="3.1281"/>
<path d="M454.9065,140.8867H475.1183A.6701,.6701 0 0 1 475.7884,141.5569V150.1676A.6701,.6701 0 0 1 475.1183,150.8377H454.9065A.6701,.6701 0 0 1 454.2363,150.1676V141.5569A.6701,.6701 0 0 1 454.9065,140.8867z" stroke="#000" stroke-linecap="square" stroke-linejoin="round" stroke-width="3.2067"/>
<path d="M490.4545,140.8867H507.9858A2.0104,2.0104 0 0 1 509.9962,142.8971V148.8273A2.0104,2.0104 0 0 1 507.9858,150.8377H490.4545A2.0104,2.0104 0 0 1 488.4441,148.8273V142.8971A2.0104,2.0104 0 0 1 490.4545,140.8867z" stroke="#000" stroke-linecap="square" stroke-linejoin="round" stroke-width="3.2067"/>
<path d="M431.9414,145.2278C432.413,145.2368 432.8849,145.2336 433.3566,145.2313C433.6683,145.2294 433.98,145.2282 434.2917,145.2276C434.543,145.2273 434.7942,145.2273 435.0454,145.2273C435.3065,145.2268 435.5676,145.2278 435.8287,145.2283C436.1642,145.22 436.4945,145.228 436.8266,145.2718C437.1699,145.3187 437.5164,145.3334 437.8626,145.3429C438.2106,145.3293 438.5521,145.3934 438.8966,145.4279C439.247,145.4595 439.5991,145.4629 439.9508,145.4666C440.3202,145.4686 440.6896,145.4684 441.059,145.4672C441.3799,145.4665 441.7008,145.466 442.0216,145.4652C442.2853,145.4646 442.549,145.4644 442.8127,145.4643C443.063,145.4642 443.3134,145.4642 443.5637,145.4642C443.8141,145.4642 444.0645,145.4642 444.3149,145.4642C444.5886,145.4639 444.8623,145.4647 445.136,145.4659C445.4746,145.468 445.8132,145.4663 446.1518,145.4654C446.4703,145.4651 446.7889,145.4658 447.1074,145.4667C447.4481,145.4665 447.7888,145.4666 448.1295,145.4658C448.4559,145.4659 448.7822,145.4664 449.1085,145.4659C449.4053,145.4648 449.7021,145.4646 449.9989,145.4661C450.4569,145.4683 450.9148,145.4697 451.3727,145.4713C451.9968,145.4737 452.6208,145.4742 453.2449,145.4722C453.7028,145.471 454.1608,145.4677 454.6188,145.4675C454.9978,145.4681 455.3768,145.4675 455.7558,145.4662C455.8083,145.466 455.8607,145.4659 455.9132,145.4657L454.4137,146.4957C454.3617,146.4955 454.3098,146.4954 454.2578,146.4952C453.88,146.4939 453.5023,146.4933 453.1245,146.4939C452.6711,146.4937 452.2177,146.4904 451.7642,146.4892C451.1394,146.4871 450.5144,146.4877 449.8896,146.4901C449.4266,146.4917 448.9636,146.4931 448.5006,146.4953C448.2036,146.4968 447.9066,146.4966 447.6096,146.4955C447.2831,146.495 446.9567,146.4955 446.6302,146.4957C446.2904,146.4948 445.9506,146.4949 445.6107,146.4947C445.2909,146.4956 444.9712,146.4963 444.6514,146.496C444.3133,146.4951 443.9752,146.4934 443.6371,146.4955C443.3618,146.4967 443.0865,146.4975 442.8111,146.4972C442.5608,146.4972 442.3104,146.4972 442.06,146.4972C441.8097,146.4972 441.5594,146.4972 441.3091,146.4971C441.0463,146.497 440.7835,146.4968 440.5207,146.4963C440.2012,146.4957 439.8817,146.4956 439.5622,146.4955C439.1927,146.4948 438.8233,146.4961 438.4539,146.492C438.0977,146.4872 437.7409,146.4795 437.3866,146.4409C437.0458,146.4027 436.7063,146.3575 436.3619,146.3663C436.0117,146.3533 435.6621,146.3289 435.3148,146.2832C434.9867,146.2484 434.6575,146.2581 434.3277,146.2593C434.0657,146.2597 433.8036,146.2608 433.5415,146.2603C433.2906,146.2603 433.0398,146.2603 432.7889,146.2599C432.4807,146.2593 432.1725,146.2581 431.8643,146.2563C431.3892,146.2539 430.914,146.2509 430.4389,146.2598L431.9414,145.2278z" stroke="#000" stroke-linecap="square" stroke-linejoin="round" stroke-width=".4094"/>
<path d="M510.5203,145.4654C511.1248,145.4755 511.7295,145.4742 512.3341,145.4737C512.8882,145.473 513.4423,145.4715 513.9965,145.469C514.3668,145.4669 514.7371,145.4668 515.1074,145.4664C515.3992,145.4657 515.6911,145.4649 515.9829,145.4646C516.2378,145.4831 516.4828,145.4152 516.7334,145.3824C516.9846,145.3532 517.2381,145.349 517.4909,145.3459C517.7418,145.3441 517.9927,145.3449 518.2437,145.3452C518.4943,145.3456 518.7449,145.3457 518.9955,145.3458C519.246,145.3458 519.4967,145.3458 519.7473,145.3458C519.9979,145.3458 520.2485,145.3458 520.4991,145.3458C520.7681,145.3453 521.0372,145.3467 521.3062,145.3468C521.5787,145.3466 521.8511,145.3462 522.1236,145.346C522.3759,145.3458 522.6283,145.3458 522.8806,145.3458C523.0475,145.3458 522.9641,145.3458 523.131,145.3458L521.6272,146.3787C521.4603,146.3787 521.5438,146.3787 521.3769,146.3787C521.1247,146.3787 520.8726,146.3787 520.6204,146.3785C520.3487,146.3783 520.077,146.3779 519.8053,146.3777C519.5353,146.3777 519.2653,146.3792 518.9954,146.3787C518.7447,146.3787 518.4941,146.3787 518.2435,146.3787C517.9929,146.3787 517.7423,146.3787 517.4917,146.3786C517.2411,146.3785 516.9904,146.3783 516.7398,146.378C516.4897,146.3778 516.2395,146.3771 515.9893,146.3817C515.7409,146.388 515.492,146.3984 515.2462,146.4363C514.9919,146.4751 514.739,146.5141 514.48,146.4968C514.19,146.4965 513.8999,146.4957 513.6099,146.495C513.242,146.4946 512.8742,146.4945 512.5065,146.4924C511.957,146.4899 511.4075,146.4884 510.858,146.4877C510.2453,146.4872 509.6325,146.486 509.0199,146.496L510.5203,145.4654z" stroke="#000" stroke-linecap="square" stroke-linejoin="round" stroke-width=".4094"/>
<path d="M475.9154,145.6056C476.3739,145.6636 476.8366,145.6819 477.2985,145.6956C477.7108,145.7055 478.1233,145.7056 478.5357,145.7045C478.8762,145.704 479.2167,145.7039 479.5571,145.7031C480.2405,145.7207 480.9244,145.7121 481.608,145.7089C482.021,145.7058 482.434,145.7046 482.8471,145.7029C483.1765,145.7029 483.5059,145.7026 483.8352,145.7034C484.1815,145.7045 484.5278,145.7026 484.8741,145.7032C485.1865,145.7024 485.499,145.7025 485.8115,145.7026C486.1244,145.7031 486.4373,145.7028 486.7503,145.7022C487.0492,145.7032 487.3481,145.7023 487.647,145.7018C487.9395,145.703 488.232,145.7022 488.5245,145.7018C488.7828,145.7014 489.0412,145.7013 489.2995,145.7012C489.5156,145.7514 489.7329,145.7876 489.9546,145.805C490.195,145.8199 490.4361,145.8199 490.6768,145.8205C490.9273,145.8207 491.1778,145.8202 491.4283,145.8199C491.5537,145.8198 491.6791,145.8198 491.8045,145.8197L490.3009,146.8527C490.1755,146.8528 490.0501,146.8528 489.9247,146.853C489.6739,146.8533 489.4231,146.8539 489.1723,146.8526C488.9274,146.8505 488.682,146.8484 488.4381,146.8242C488.2229,146.799 488.0122,146.7472 487.7959,146.734C487.5381,146.734 487.2802,146.7339 487.0224,146.7335C486.73,146.7331 486.4375,146.7323 486.1451,146.7335C485.8465,146.733 485.548,146.7321 485.2494,146.7331C484.9369,146.7325 484.6244,146.7322 484.3119,146.7327C484,146.7328 483.6881,146.7328 483.3761,146.7321C483.0301,146.7326 482.6841,146.7307 482.3381,146.7318C482.0082,146.7327 481.6783,146.7323 481.3484,146.7323C480.9412,146.7306 480.534,146.7294 480.1268,146.7263C479.4374,146.7232 478.7477,146.715 478.0584,146.7327C477.7185,146.7323 477.3787,146.7331 477.0388,146.7324C476.6278,146.7299 476.2169,146.7267 475.8061,146.713C475.3358,146.6948 474.8659,146.6668 474.3976,146.6211L475.9154,145.6056z" stroke="#000" stroke-linecap="square" stroke-linejoin="round" stroke-width=".4094"/>
<path d="M442.8464,113.1302L442.8464,129.0558" fill="none" stroke="#000" stroke-linecap="round" stroke-width="4.1264"/>
<path d="M451.026,111.6235L451.026,127.5491" fill="none" stroke="#000" stroke-linecap="round" stroke-width="4.1264"/>
<path d="M458.7013,112.8811L458.7013,128.8067" fill="none" stroke="#000" stroke-linecap="round" stroke-width="4.1264"/>
<path d="M468.7297,111.8786L468.7297,127.8042" fill="none" stroke="#000" stroke-linecap="round" stroke-width="4.1264"/>
<path d="M477.4543,113.7566L477.4543,129.6821" fill="none" stroke="#000" stroke-linecap="round" stroke-width="4.1264"/>
<path d="M487.4419,113.6059L487.4419,129.5315" fill="none" stroke="#000" stroke-linecap="round" stroke-width="4.1264"/>
<path d="M496.4619,112.1337L496.4619,128.0593" fill="none" stroke="#000" stroke-linecap="round" stroke-width="4.1264"/>
<path d="M504.9776,114.7419L504.9776,130.6675" fill="none" stroke="#000" stroke-linecap="round" stroke-width="4.1264"/>
<path d="M514.1439,114.4253L514.1439,130.3509" fill="none" stroke="#000" stroke-linecap="round" stroke-width="4.1264"/>
<path d="M436.0752,117.1927L436.0752,133.1182" fill="none" stroke="#000" stroke-linecap="round" stroke-width="4.1264"/>
<g transform="translate(280.5388,-48.3659)">
<path d="m242.8571,143.5714c0,4.3394-21.1066,7.8571-47.1429,7.8571-26.0363,0-47.1429,-3.5178-47.1429,-7.8571 0,-4.3394 21.1066,-7.8571 47.1429,-7.8571 26.0363,0 47.1429,3.5178 47.1429,7.8571z" fill="#fff" stroke="#000" stroke-linecap="round" stroke-linejoin="round" stroke-width="3.642"/>
<path d="m223.5714,143.5714c0,1.5779-12.9518,2.8571-28.9286,2.8571-15.9768,0-28.9286,-1.2792-28.9286,-2.8571 0,-1.578 12.9518,-2.8571 28.9286,-2.8571 15.9768,0 28.9286,1.2792 28.9286,2.8571z" fill="#fff" stroke="#000" stroke-linecap="round" stroke-linejoin="round" stroke-width="3.642"/>
</g>
<path d="M429.1102,143.0627L409.8245,113.7769L380.8959,156.2769L409.8245,130.2055L429.1102,150.9198" fill="none" stroke="#000" stroke-width="3.128"/>
<path d="M458.5714,174.2857L478.5714,179.2857" fill="none" stroke="#000"/>
<text font-family="Bitstream Vera Sans" font-size="20" x="311.4286" y="111.4286">
   <tspan x="311.4286" y="111.4286">Wait...</tspan>
  </text>
<path d="M362.1429,117.8572L388.5714,127.8572" fill="none" stroke="#000"/>
<text font-family="Bitstream Vera Sans" font-size="20" x="416.4286" y="216.4286">
   <tspan text-align="center" text-anchor="middle" x="416.4286" y="216.4286">Oh mon dieu ! Vite un</tspan>
   <tspan text-align="center" text-anchor="middle" x="416.4286" y="241.4286">point de destin !</tspan>
  </text>
<path d="M380,246.4286L396.4286,268.5714" fill="none" stroke="#000"/>
<text font-family="Bitstream Vera Sans" font-size="20" x="168.9768" y="-316.1988">
   <tspan text-align="center" text-anchor="middle" x="168.9768" y="-316.1988"></tspan>
  </text>
<g transform="matrix(-1,0,0,1,1336.9916,39.28571)">
<path d="m744.2857,321.4286c0,3.5504-24.3045,6.4286-54.2857,6.4286-29.9812,0-54.2857,-2.8782-54.2857,-6.4286 0,-3.5504 24.3045,-6.4286 54.2857,-6.4286 29.9812,0 54.2857,2.8782 54.2857,6.4286z" stroke="#000200" stroke-linecap="round" stroke-linejoin="round" stroke-width="2" transform="translate(-1.4286,-5)"/>
<path d="M741.9027,232.8517L741.9027,280.7402C741.9027,300.7472 725.796,316.8539 705.789,316.8539L670.355,316.8539C650.348,316.8539 634.2413,300.7472 634.2413,280.7402L634.2413,232.8517" fill="#fff" stroke="#000" stroke-linecap="round" stroke-linejoin="round" stroke-width="3.6422"/>
<path d="M704.6803,252.6632H725.0932A2.3409,2.3409 0 0 1 727.434,255.004V261.909A2.3409,2.3409 0 0 1 725.0932,264.2498H704.6803A2.3409,2.3409 0 0 1 702.3394,261.909V255.004A2.3409,2.3409 0 0 1 704.6803,252.6632z" stroke="#000" stroke-linecap="square" stroke-linejoin="round" stroke-width="3.7338"/>
<path d="M636.5495,257.7178C637.0987,257.7283 637.648,257.7246 638.1973,257.7219C638.5603,257.7197 638.9232,257.7183 639.2862,257.7176C639.5787,257.7172 639.8712,257.7172 640.1637,257.7172C640.4677,257.7166 640.7717,257.7178 641.0758,257.7184C641.4664,257.7087 641.851,257.718 642.2377,257.7691C642.6374,257.8236 643.0408,257.8408 643.4439,257.8518C643.8492,257.836 644.2468,257.9107 644.648,257.9508C645.0559,257.9876 645.4659,257.9915 645.8754,257.9959C646.3055,257.9982 646.7356,257.998 647.1658,257.9965C647.5394,257.9958 647.913,257.9952 648.2866,257.9943C648.5936,257.9935 648.9007,257.9933 649.2077,257.9932C649.4992,257.9931 649.7907,257.9931 650.0822,257.9931C650.3737,257.9931 650.6653,257.9931 650.9568,257.9931C651.2755,257.9927 651.5942,257.9937 651.9129,257.9951C652.3071,257.9974 652.7014,257.9955 653.0957,257.9944C653.4666,257.9942 653.8374,257.9949 654.2083,257.9959C654.6051,257.9958 655.0018,257.9959 655.3985,257.9949C655.7785,257.9951 656.1584,257.9956 656.5384,257.995C656.884,257.9938 657.2296,257.9935 657.5751,257.9953C658.1083,257.9979 658.6415,257.9995 659.1747,258.0014C659.9013,258.0042 660.628,258.0048 661.3546,258.0024C661.8878,258.001 662.4211,257.9971 662.9543,257.9969C663.3956,257.9976 663.8369,257.9969 664.2782,257.9954C664.3393,257.9952 664.4004,257.995 664.4615,257.9948L662.7155,259.1941C662.655,259.1939 662.5945,259.1937 662.534,259.1935C662.0942,259.192 661.6543,259.1914 661.2145,259.192C660.6865,259.1918 660.1586,259.1879 659.6306,259.1866C658.903,259.1841 658.1754,259.1848 657.4478,259.1876C656.9087,259.1895 656.3696,259.1911 655.8305,259.1936C655.4847,259.1954 655.1389,259.1952 654.793,259.1939C654.4129,259.1933 654.0328,259.1939 653.6527,259.1941C653.257,259.1931 652.8613,259.1932 652.4656,259.193C652.0933,259.194 651.7209,259.1948 651.3486,259.1945C650.9549,259.1934 650.5613,259.1915 650.1676,259.1939C649.847,259.1953 649.5265,259.1962 649.2059,259.1958C648.9144,259.1958 648.6228,259.1958 648.3312,259.1958C648.0398,259.1958 647.7484,259.1958 647.457,259.1957C647.151,259.1956 646.845,259.1954 646.539,259.1948C646.1669,259.1941 645.7949,259.1939 645.4229,259.1939C644.9927,259.1931 644.5626,259.1946 644.1324,259.1898C643.7177,259.1842 643.3022,259.1753 642.8897,259.1304C642.4929,259.0858 642.0977,259.0332 641.6966,259.0434C641.2889,259.0283 640.8818,258.9999 640.4774,258.9467C640.0954,258.9062 639.712,258.9175 639.3281,258.9188C639.0229,258.9194 638.7178,258.9206 638.4126,258.92C638.1205,258.92 637.8284,258.92 637.5363,258.9196C637.1775,258.9189 636.8186,258.9175 636.4598,258.9154C635.9066,258.9126 635.3532,258.9091 634.8001,258.9194L636.5495,257.7178z" stroke="#000" stroke-linecap="square" stroke-linejoin="round" stroke-width=".4767"/>
<path d="M728.0443,257.9945C728.7482,258.0063 729.4522,258.0047 730.1562,258.0042C730.8014,258.0033 731.4466,258.0015 732.0918,257.9986C732.523,257.9962 732.9542,257.9961 733.3854,257.9956C733.7252,257.9948 734.065,257.9939 734.4048,257.9935C734.7016,258.0151 734.9868,257.936 735.2786,257.8979C735.5712,257.8638 735.8662,257.8589 736.1606,257.8554C736.4528,257.8533 736.745,257.8542 737.0371,257.8546C737.3289,257.855 737.6207,257.8551 737.9125,257.8552C738.2043,257.8552 738.4961,257.8552 738.7879,257.8552C739.0797,257.8552 739.3714,257.8552 739.6632,257.8552C739.9765,257.8546 740.2898,257.8563 740.6031,257.8563C740.9203,257.8561 741.2375,257.8557 741.5548,257.8554C741.8486,257.8552 742.1425,257.8552 742.4363,257.8552C742.6306,257.8552 742.5334,257.8552 742.7277,257.8552L740.9768,259.0579C740.7825,259.0579 740.8797,259.0579 740.6854,259.0579C740.3918,259.0579 740.0981,259.0578 739.8045,259.0577C739.4882,259.0574 739.1718,259.057 738.8555,259.0567C738.5411,259.0568 738.2267,259.0585 737.9124,259.0579C737.6206,259.0579 737.3288,259.0579 737.037,259.0579C736.7452,259.0579 736.4533,259.0579 736.1616,259.0578C735.8697,259.0576 735.5779,259.0574 735.2861,259.057C734.9948,259.0568 734.7035,259.056 734.4122,259.0614C734.1229,259.0688 733.8331,259.0809 733.547,259.1249C733.2509,259.1702 732.9564,259.2156 732.6549,259.1954C732.3171,259.195 731.9794,259.1942 731.6417,259.1934C731.2134,259.1928 730.7852,259.1927 730.3569,259.1903C729.7171,259.1874 729.0773,259.1856 728.4374,259.1848C727.7241,259.1843 727.0106,259.1829 726.2973,259.1945L728.0443,257.9945z" stroke="#000" stroke-linecap="square" stroke-linejoin="round" stroke-width=".4767"/>
<path d="M687.7514,258.1577C688.2854,258.2253 688.824,258.2465 689.3619,258.2625C689.842,258.2741 690.3223,258.2741 690.8025,258.2729C691.1989,258.2724 691.5953,258.2722 691.9917,258.2713C692.7875,258.2917 693.5837,258.2817 694.3797,258.278C694.8606,258.2745 695.3415,258.273 695.8225,258.271C696.206,258.2711 696.5895,258.2706 696.9731,258.2716C697.3763,258.2729 697.7794,258.2707 698.1826,258.2713C698.5465,258.2705 698.9103,258.2706 699.2741,258.2707C699.6385,258.2712 700.0028,258.2709 700.3672,258.2702C700.7153,258.2714 701.0633,258.2703 701.4114,258.2697C701.7519,258.2711 702.0925,258.2702 702.4331,258.2697C702.7339,258.2692 703.0347,258.2691 703.3355,258.269C703.5871,258.3275 703.8401,258.3696 704.0983,258.39C704.3782,258.4072 704.6588,258.4072 704.9392,258.408C705.2309,258.4082 705.5225,258.4076 705.8142,258.4073C705.9602,258.4072 706.1062,258.4071 706.2523,258.407L704.5014,259.6098C704.3554,259.6099 704.2094,259.61 704.0634,259.6101C703.7714,259.6104 703.4794,259.6112 703.1874,259.6097C702.9022,259.6073 702.6164,259.6047 702.3325,259.5766C702.0819,259.5473 701.8365,259.4869 701.5847,259.4717C701.2845,259.4716 700.9843,259.4715 700.6841,259.471C700.3436,259.4706 700.0031,259.4696 699.6626,259.471C699.3149,259.4704 698.9673,259.4693 698.6197,259.4705C698.2558,259.4698 697.8919,259.4695 697.528,259.47C697.1649,259.4701 696.8017,259.4702 696.4385,259.4694C696.0356,259.47 695.6327,259.4678 695.2298,259.469C694.8457,259.4701 694.4616,259.4696 694.0775,259.4697C693.6033,259.4677 693.1292,259.4662 692.655,259.4627C691.8523,259.459 691.0493,259.4495 690.2467,259.47C689.851,259.4696 689.4552,259.4705 689.0595,259.4697C688.581,259.4668 688.1024,259.4631 687.6242,259.4471C687.0765,259.426 686.5295,259.3933 685.9842,259.3401L687.7514,258.1577z" stroke="#000" stroke-linecap="square" stroke-linejoin="round" stroke-width=".4767"/>
<path d="M649.2469,220.3444L649.2469,238.8876" fill="none" stroke="#000" stroke-linecap="round" stroke-width="4.8046"/>
<path d="M658.771,218.5901L658.771,237.1333" fill="none" stroke="#000" stroke-linecap="round" stroke-width="4.8046"/>
<path d="M667.7079,220.0544L667.7079,238.5976" fill="none" stroke="#000" stroke-linecap="round" stroke-width="4.8046"/>
<path d="M679.3846,218.8871L679.3846,237.4304" fill="none" stroke="#000" stroke-linecap="round" stroke-width="4.8046"/>
<path d="M689.5433,221.0737L689.5433,239.617" fill="none" stroke="#000" stroke-linecap="round" stroke-width="4.8046"/>
<path d="M701.1725,220.8983L701.1725,239.4416" fill="none" stroke="#000" stroke-linecap="round" stroke-width="4.8046"/>
<path d="M711.6751,219.1841L711.6751,237.7274" fill="none" stroke="#000" stroke-linecap="round" stroke-width="4.8046"/>
<path d="M721.5905,222.2211L721.5905,240.7643" fill="none" stroke="#000" stroke-linecap="round" stroke-width="4.8046"/>
<path d="M732.2635,221.8524L732.2635,240.3956" fill="none" stroke="#000" stroke-linecap="round" stroke-width="4.8046"/>
<path d="M641.3628,225.0746L641.3628,243.6178" fill="none" stroke="#000" stroke-linecap="round" stroke-width="4.8046"/>
<path d="M664.0274,252.872H684.4403A2.3409,2.3409 0 0 1 686.7812,255.2129V262.1178A2.3409,2.3409 0 0 1 684.4403,264.4587H664.0274A2.3409,2.3409 0 0 1 661.6866,262.1178V255.2129A2.3409,2.3409 0 0 1 664.0274,252.872z" stroke="#000" stroke-linecap="square" stroke-linejoin="round" stroke-width="3.7338"/>
<path d="M670,297.1429L693.5714,297.8571" fill="none" stroke="#000"/>
</g>
<text font-family="Bitstream Vera Sans" font-size="20" x="717.1428" y="118.5714">
   <tspan text-align="center" text-anchor="middle" x="717.1428" y="118.5714">T'as de la chance que</tspan>
   <tspan text-align="center" text-anchor="middle" x="717.1428" y="143.5714">je passe par la !</tspan>
  </text>
<text font-family="Bitstream Vera Sans" font-size="20" x="666.5714" y="195.7143">
   <tspan text-align="center" text-anchor="middle" x="666.5714" y="195.7143">Bordel j'ai</tspan>
   <tspan text-align="center" text-anchor="middle" x="666.5714" y="220.7143">même raté ça...</tspan>
  </text>
<path d="M667.8571,226.4286L660.7143,251.4286" fill="none" stroke="#000"/>
<path d="M745.7143,153.5714L771.4286,241.4286" fill="none" stroke="#000"/>
<path d="M518.5714,292.1429L560.7143,287.8571" fill="none" stroke="#000"/>
<path d="M520,307.8571L558.5714,306.4286" fill="none" stroke="#000"/>
<path d="M519.2857,325L557.8571,327.1429" fill="none" stroke="#000"/>
<path d="M707.8571,291.4286L724.2857,287.8571" fill="none" stroke="#000"/>
<path d="M709.2857,300.7143L723.5714,300.7143" fill="none" stroke="#000"/>
<path d="M710,311.4286L721.4286,312.1429" fill="none" stroke="#000"/>
<path d="m446.8915,78.4154a61.5183,5.3033 0 1 1 -123.0366,0 61.5183,5.3033 0 1 1 123.0366,0z" stroke="#000" stroke-linecap="round" stroke-width="4.862" transform="matrix(-.65815,0,0,.89599,714.35886,287.73077)"/>
<path d="m425.3424,280.1399 0,42.9076c0,17.9261 10.6007,32.3576 23.7684,32.3576l23.3211,0c13.1677,0 23.7684,-14.4315 23.7684,-32.3576l0,-42.9076" fill="#fff" stroke="#000" stroke-linecap="round" stroke-linejoin="round" stroke-width="2.7969"/>
<path d="m70.7107,315.9022a5.5558,6.8185 0 1 1 -11.1117,0 5.5558,6.8185 0 1 1 11.1117,0z" fill="#fff" stroke="#000" stroke-linecap="round" stroke-linejoin="round" stroke-width="3.891" transform="matrix(-.89034,0,0,.89034,523.68045,21.92786)"/>
<path d="m70.7107,315.9022a5.5558,6.8185 0 1 1 -11.1117,0 5.5558,6.8185 0 1 1 11.1117,0z" fill="#fff" stroke="#000" stroke-linecap="round" stroke-linejoin="round" stroke-width="3.891" transform="matrix(-.89034,0,0,.89034,503.93812,21.57231)"/>
<path d="m436.8424,268.0608c15.4132,-3.5061 31.329,-4.666 48.9009,1.9017 15.5626,5.052 24.0965,20.4157 15.2136,42.6524l6.2485,11.9535c9.6048,7.4805-9.2505,4.2632-11.4898,2.994l-.4638,-23.9127c-5.1893,-2.4962-8.9247,-4.5753-10.2865,-11.6074-.6936,-3.5817-3.345,2.2692-9.3454,-4.3446-1.1684,-1.2879-8.5141,-4.5341-13.2404,-6.3251 0,0-18.1063,-2.924-26.0805,.5433-4.1697,1.8131-8.8911,7.5237-9.916,11.9536-1.2459,5.3847 5.8972,11.0913 5.2976,14.5344-.3577,2.0539-5.9768,-.6792-5.9768,-.6792 5.305,11.66-.9464,15.8743-10.731,17.1153 0,0 10.7193,-5.0112 11.8177,-1.0867 1.4609,5.2196-8.6513,7.0733-13.1761,5.5693-.9019,-.2998-2.056,-1.946-1.4391,-2.4613 .6753,-.564 4.2242,-.2711 3.6411,-.3259-4.6463,-.4366-3.3652,-4.9851-1.5229,-5.9062 3.5444,-.5691 8.4831,-.568 7.0635,-10.1877-1.8178,-3.5088-6.1132,-36.3321 15.4853,-42.3808z" stroke="#000" stroke-width="1.0758"/>
<g transform="matrix(-1.07576,0,0,1.07576,1105.46551,26.91457)">
<path d="m446.8915,78.4154c0,2.9289-27.5427,5.3033-61.5183,5.3033-33.9756,0-61.5183,-2.3744-61.5183,-5.3033 0,-2.9289 27.5427,-5.3033 61.5183,-5.3033 33.9756,0 61.5183,2.3744 61.5183,5.3033z" stroke="#000" stroke-linecap="round" stroke-width="4.862" transform="matrix(.6118,0,0,.83289,60.47922,238.28112)"/>
<path d="m329.1406,231.2248 0,39.8857c0,16.6636-9.8541,30.0787-22.0944,30.0787l-21.6786,0c-12.2403,0-22.0944,-13.4151-22.0944,-30.0787l0,-39.8857" fill="#fff" stroke="#000" stroke-linecap="round" stroke-linejoin="round" stroke-width="2.6"/>
<path d="m70.7107,315.9022c0,3.7658-2.4874,6.8185-5.5558,6.8185-3.0684,0-5.5558,-3.0528-5.5558,-6.8185 0,-3.7658 2.4874,-6.8185 5.5558,-6.8185 3.0684,0 5.5558,3.0528 5.5558,6.8185z" fill="#fff" stroke="#000" stroke-linecap="round" stroke-linejoin="round" stroke-width="3.891" transform="matrix(.82764,0,0,.82764,237.7284,-8.80164)"/>
<path d="m70.7107,315.9022c0,3.7658-2.4874,6.8185-5.5558,6.8185-3.0684,0-5.5558,-3.0528-5.5558,-6.8185 0,-3.7658 2.4874,-6.8185 5.5558,-6.8185 3.0684,0 5.5558,3.0528 5.5558,6.8185z" fill="#fff" stroke="#000" stroke-linecap="round" stroke-linejoin="round" stroke-width="3.891" transform="matrix(.82764,0,0,.82764,256.0803,-9.13215)"/>
<path d="m281.253,281.5701c2.7278,4.9389 7.0456,3.5176 11.2017,2.7432" fill="none" stroke="#000" stroke-width=".8276"/>
<path d="m318.4506,219.9965c-14.3276,-3.2591-29.1226,-4.3374-45.4569,1.7678-14.4666,4.6962-22.3994,18.9779-14.1421,39.6485l-5.8084,11.1117c-8.9284,6.9537 8.599,3.963 10.6806,2.7832l.4311,-22.2286c4.8238,-2.3204 8.2962,-4.2531 9.562,-10.7899 .6448,-3.3294 3.1094,2.1094 8.6872,-4.0386 1.0861,-1.1971 7.9144,-4.2148 12.3079,-5.8796 0,0 16.8311,-2.718 24.2437,.5051 3.8761,1.6854 8.2649,6.9939 9.2176,11.1117 1.1581,5.0055-5.4819,10.3102-4.9245,13.5108 .3325,1.9092 5.5558,-.6313 5.5558,-.6313-4.9313,10.8388 .8798,14.7563 9.9753,15.9099 0,0-9.9644,-4.6583-10.9854,-1.0102-1.358,4.852 8.042,6.5751 12.2481,5.177 .8384,-.2787 1.9112,-1.809 1.3377,-2.288-.6277,-.5243-3.9267,-.252-3.3847,-.303 4.319,-.4058 3.1282,-4.634 1.4156,-5.4903-3.2948,-.529-7.8857,-.528-6.566,-9.4702 1.6898,-3.2617 5.6827,-33.7733-14.3947,-39.3959z" stroke="#000"/>
</g>
<path d="m476.2652,338.8515a8.6648,4.7806 0 1 1 -17.3296,0 8.6648,4.7806 0 1 1 17.3296,0z" fill="#fff" stroke="#000" stroke-linejoin="bevel" stroke-width="4"/>
</svg>
