<svg version="1.0" viewBox="0 0 900 450" xmlns="http://www.w3.org/2000/svg" xmlns:svg="http://www.w3.org/2000/svg">
<path d="M49.9059,82.1964H830.9078A31.621,31.621 0 0 1 862.5288,113.8174V362.1663A31.621,31.621 0 0 1 830.9078,393.7873H49.9059A31.621,31.621 0 0 1 18.2849,362.1663V113.8174A31.621,31.621 0 0 1 49.9059,82.1964z" fill="#fff" stroke="#000" stroke-linecap="round" stroke-width="7.4907"/>
<path d="M595.5266,78.8818L595.5266,392.7723" fill="none" stroke="#000" stroke-width="5.6784"/>
<path d="M291.8164,78.1572L291.8164,392.0476" fill="none" stroke="#000" stroke-width="5.6784"/>
<g transform="matrix(.12574,0,0,.12574,820.25175,421.33225)">
<path d="M162.9615,-66.1029C166.455,-62.0454 171.1969,-61.5587 176.2443,-61.2734C182.6298,-61.4455 189.026,-62.9739 194.9925,-65.2443C198.1805,-66.4574 199.9424,-67.4904 202.9171,-69.0527C185.1139,-58.637 195.0252,-64.2154 198.3536,-67.7512C200.078,-69.5831 201.1079,-71.5131 202.0803,-73.8002C204.6069,-80.9176 204.9343,-88.5711 205.3652,-96.044C206.205,-106.9224 203.9531,-117.6028 201.5284,-128.1342C198.5789,-139.2121 194.5731,-149.9773 190.1613,-160.547C188.0488,-165.5407 185.6597,-170.4087 183.3326,-175.3036C180.1965,-181.3209 177.6309,-177.584 195.344,-184.4552C195.9544,-184.6919 196.0751,-183.3682 196.4662,-182.8431C197.1211,-181.9638 197.8094,-181.1099 198.4809,-180.2434C205.0155,-171.2763 212.8739,-163.4194 220.7492,-155.6472C225.3824,-151.1349 230.3508,-146.9467 234.7812,-142.2286C236.4627,-140.8555 237.4679,-138.92 238.8212,-137.2745C240.143,-136.0803 241.1771,-137.3375 242.3452,-138.1546C221.9421,-125.9198 229.2084,-129.8742 233.1206,-133.6257C234.6613,-135.103 236.1138,-136.6818 237.5889,-138.2234C239.6824,-140.3121 241.6662,-142.5484 243.9587,-144.4296C250.0105,-149.3955 258.4541,-153.3638 264.7123,-156.9238C270.4949,-159.4778 276.4106,-161.6997 282.419,-163.6577C283.6619,-163.9272 288.4708,-165.7766 289.5688,-164.5267C289.8243,-164.2359 289.9278,-163.8408 290.1072,-163.4978C290.1321,-163.1471 290.2293,-162.7941 290.1818,-162.4458C289.8354,-159.9037 285.8996,-156.946 284.1819,-155.3646C276.2864,-148.8374 268.6258,-142.0481 261.3333,-134.8534C254.99,-128.0483 248.4375,-121.3307 243.3873,-113.4811C240.2691,-108.5784 238.6116,-103.1651 237.8336,-97.4612C237.3182,-92.3602 237.4023,-87.2238 237.4103,-82.1038C237.6896,-76.538 238.3996,-70.961 240.0566,-65.6294C241.0066,-62.7897 242.6958,-60.7035 245.3984,-59.4565C247.1918,-58.8245 249.2452,-58.4083 251.1546,-58.7689C251.5988,-58.8529 255.3028,-60.1078 255.5991,-60.2068C259.9663,-62.5901 270.5149,-68.1635 250.7739,-57.3451C249.993,-56.9172 252.2774,-58.3004 253.0176,-58.7957C254.7175,-59.9333 255.126,-60.2677 256.721,-61.457C258.634,-62.8882 257.7277,-62.1927 259.444,-63.5378L273.1151,-69.0361C271.3827,-67.5797 272.3103,-68.3061 270.3191,-66.8738C262.2562,-60.6484 253.3247,-55.4952 244.0683,-51.2776C240.0071,-50.0654 237.0083,-49.4853 233.0532,-51.3558C230.1407,-52.9982 228.2379,-55.381 227.2136,-58.6022C225.5902,-64.0918 224.9779,-69.8068 224.4451,-75.4915C224.414,-80.6627 224.3292,-85.8471 224.7473,-91.006C225.4856,-96.9163 227.043,-102.5571 230.2219,-107.6713C230.8593,-108.7308 231.4383,-109.8277 232.1341,-110.8497C233.5635,-112.949 235.6974,-115.3519 237.3267,-117.2406C240.9264,-121.4136 244.6087,-125.5129 248.4113,-129.5027C255.5038,-136.6573 262.9793,-143.4183 270.7308,-149.8547C272.9266,-151.8936 275.199,-153.8815 277.0938,-156.2117C277.4084,-156.0458 276.3957,-156.0728 276.0435,-156.0235C274.2856,-155.7778 272.5938,-155.2318 270.901,-154.7183C264.9598,-152.7572 259.0786,-150.5816 253.4382,-147.8602C272.8794,-159.3576 261.1903,-152.8293 257.3908,-149.9058C255.0765,-148.125 253.0963,-145.926 251.0661,-143.8444C243.704,-136.0782 243.2815,-135.2558 230.8263,-128.8268C228.7851,-127.8625 227.644,-127.977 226.0472,-129.6547C224.7873,-131.3205 223.7779,-133.1781 222.2218,-134.6111C217.9797,-139.4028 213.2498,-143.7505 208.7563,-148.2998C200.956,-156.2393 193.036,-164.0853 186.0942,-172.8083C185.3483,-173.6466 184.6017,-174.4843 183.8565,-175.3233C183.4425,-175.7895 182.1438,-176.3177 182.6168,-176.7238C193.8626,-186.3779 193.2258,-188.9054 196.1308,-182.5316C198.3231,-177.537 200.6341,-172.5923 202.629,-167.5129C206.8035,-156.7535 210.6525,-145.8567 213.8046,-134.7502C216.3374,-124.1716 218.8429,-113.4256 218.1141,-102.4633C217.8266,-94.9202 217.3841,-87.2389 215.3364,-79.9427C214.6632,-78.0762 214.4306,-77.1236 213.3557,-75.4158C208.633,-67.9123 198.4469,-64.3688 191.7517,-60.1093C183.2311,-55.9217 174.1664,-52.9607 164.5762,-52.9176C163.243,-53.0245 161.8998,-53.0436 160.5765,-53.2383C156.6356,-53.8182 152.962,-55.54 150.2346,-58.4617L162.9615,-66.1029z" stroke="#000" stroke-linecap="round" stroke-linejoin="round" stroke-width="2"/>
<path d="M285.1504,-83.2549C279.2704,-81.6082 266.5253,-73.74 288.7732,-86.471C285.6873,-84.8287 283.8556,-82.1564 282.4117,-79.0736C281.5877,-76.6037 280.7082,-73.8959 280.8873,-71.2445C281.0112,-69.4099 281.4883,-68.4885 282.1122,-66.775C284.5548,-61.9495 288.3109,-57.9808 292.7681,-54.9746C296.0578,-52.6838 299.7974,-51.6413 303.7669,-51.5931C306.8299,-52.2892 309.6761,-53.4821 312.4808,-54.8725C313.6763,-55.4652 317.18,-57.4003 316.0334,-56.7177C302.8176,-48.8508 306.1278,-50.9743 310.8042,-54.1772C314.6548,-57.1431 318.8403,-60.5843 319.8322,-65.6282C319.9707,-66.3328 319.9608,-67.0585 320.0251,-67.7736C319.7705,-74.0822 315.7842,-79.021 311.938,-83.6853C309.5135,-86.3835 306.7679,-88.9566 303.4532,-90.5325C301.7709,-91.3322 300.9086,-91.4744 299.127,-91.9474C295.533,-92.1428 291.7665,-91.8011 288.3544,-90.5627C286.7769,-89.9902 284.386,-88.6593 282.9199,-87.8841C302.9062,-99.8746 289.8107,-91.9587 285.6886,-88.3736L272.0851,-82.8087C278.4156,-88.898 286.8685,-92.4857 294.2269,-96.9393C296.3627,-97.9778 297.6236,-98.6956 299.9061,-99.3886C303.5386,-100.4916 307.4494,-100.7491 311.1907,-100.1978C313.1147,-99.5839 313.8945,-99.429 315.7014,-98.4661C319.0659,-96.6731 321.8405,-93.9498 324.3224,-91.1058C328.3687,-86.1242 332.4762,-80.9616 333.0924,-74.3305C333.0628,-73.5258 333.1121,-72.7144 333.0035,-71.9165C332.2653,-66.4892 328.2283,-62.6312 324.1231,-59.4248C316.1605,-53.7094 320.2406,-56.4756 304.8488,-47.7573C300.8383,-45.4856 296.4513,-43.5622 291.8451,-43.0245C287.6957,-43.3915 283.8349,-44.6143 280.4546,-47.1325C275.8828,-50.4672 272.0386,-54.677 269.3612,-59.693C268.7366,-61.3275 268.0271,-62.8838 267.8135,-64.6468C267.4791,-67.4079 268.3981,-70.3095 269.0633,-72.941C270.3422,-76.1902 271.9653,-79.2701 275.0209,-81.1777C282.2031,-85.3118 288.9239,-90.0555 296.9357,-92.2666L285.1504,-83.2549z" stroke="#000" stroke-linecap="round" stroke-linejoin="round" stroke-width="2"/>
<path d="M347.1504,-77.2549C344.6035,-76.4403 341.9575,-75.7416 339.5363,-74.5814C338.7232,-74.1918 337.9599,-73.7059 337.1716,-73.2681C340.5173,-75.1416 343.863,-77.0152 347.2087,-78.8887C343.2371,-76.2087 340.2901,-73.5303 338.5132,-69.0387C337.3505,-65.3388 337.9081,-62.2103 340.8379,-59.4732C341.5453,-58.8124 342.3768,-58.2984 343.1462,-57.711C348.7467,-54.4938 355.3758,-53.3418 361.7904,-54.0225C363.6291,-54.2176 365.4327,-54.663 367.2538,-54.9833C371.4683,-56.0713 373.305,-56.374 377.2631,-58.0355C378.5761,-58.5866 382.3128,-60.6635 381.0902,-59.9334C363.2909,-49.3046 371.3475,-53.9354 374.1428,-56.7651C374.7627,-57.3926 375.255,-58.1344 375.8111,-58.8191C378.2486,-62.6326 378.3111,-66.0246 376.5942,-70.0879C376.279,-70.8016 374.4627,-74.5447 373.1819,-73.7346C372.9601,-73.5943 372.8477,-73.33 372.6807,-73.1277C392.8977,-84.6564 385.2006,-82.7287 383.2398,-77.11C382.3936,-74.6854 382.2459,-72.3278 382.1295,-69.7816C383.5341,-57.9615 388.7559,-47.0167 393.0457,-36.0346C398.2618,-21.5258 403.2897,-6.47 403.8684,9.092C403.9836,12.189 403.6821,15.2876 403.5889,18.3853C403.1263,21.364 402.8671,24.3813 402.2011,27.3212C400.0287,36.9109 395.0849,45.6892 387.7437,52.2682C386.4496,53.4279 384.9846,54.3816 383.6051,55.4383C378.0848,58.3221 372.8336,61.7934 367.0443,64.0899C364.6445,65.0418 358.8518,63.0561 356.9529,62.2095C349.8949,59.0631 343.7992,53.895 337.8032,49.1621C327.688,40.5031 317.7846,31.4711 308.7355,21.6837C304.0475,16.6133 302.8886,14.9067 298.8166,9.6614C295.3512,3.8792 291.2661,-2.8245 294.6732,-9.6402C296.6895,-13.6737 299.1232,-15.1372 302.5004,-18.074C312.6219,-24.6327 313.4505,-25.3796 328.104,-32.7999C331.6804,-34.6109 343.2136,-38.7065 346.7432,-39.9379C353.7819,-42.3937 361.3514,-44.8267 368.4293,-47.1393C387.0233,-52.5028 405.2349,-59.0355 423.2344,-66.1176C424.7623,-66.7671 426.2923,-67.4118 427.8181,-68.0661C428.9838,-68.566 430.1581,-69.0469 431.3089,-69.5801C433.6612,-70.67 435.8588,-72.019 438.2856,-72.9431C441.5765,-73.4124 442.7308,-69.4505 443.7159,-67.0436C445.9847,-60.9159 447.263,-54.4902 447.8147,-47.9941C447.9509,-45.0837 448.0453,-42.1595 447.6331,-39.2662C447.5909,-38.9704 447.7439,-38.5103 447.473,-38.3842C443.0642,-36.3309 438.4604,-34.7251 433.9541,-32.8956C433.9659,-33.7909 433.9166,-34.689 433.9896,-35.5814C434.0957,-36.8799 434.3191,-38.1662 434.4903,-39.4578C435.49,-46.9958 436.7994,-54.4336 438.3334,-61.8806C439.8884,-68.3767 441.231,-75.18 444.9433,-80.8503C449.1473,-85.2518 458.497,-93.9297 463.0497,-88.879C463.5264,-88.3501 463.8605,-87.7082 464.2658,-87.1228C465.1568,-85.5475 465.9266,-84.351 466.5095,-82.6055C468.1484,-77.6977 468.884,-71.9449 469.7517,-66.8403C470.8843,-62.4227 470.4525,-57.1322 471.7929,-52.8005C473.5655,-57.562 471.775,-52.58 459.0435,-46.5094C458.7853,-46.3863 459.4327,-46.9346 459.5772,-47.1814C459.9087,-47.7474 460.5577,-49.4088 460.8105,-49.919C461.1553,-50.6152 461.549,-51.286 461.9182,-51.9694C464.3127,-55.807 466.3395,-59.8622 468.9779,-63.5425C473.3892,-69.0698 477.5158,-70.2762 485.1519,-74.4725C485.4138,-74.6164 485.7664,-74.5326 486.0475,-74.431C486.4054,-74.3016 486.6836,-74.0129 487.0016,-73.8039C489.988,-70.6628 491.0279,-66.2182 492.0362,-62.1278C492.9125,-57.6742 493.3814,-53.131 495.0104,-48.8712C495.4071,-48.3128 495.7311,-47.6948 496.2004,-47.1959C499.6185,-43.5623 505.2722,-40.8461 509.9343,-39.3687C511.6885,-38.8128 513.4959,-38.4411 515.2767,-37.9773C522.8167,-36.0961 530.3825,-36.0026 537.8823,-38.0643C539.5423,-38.5206 541.2095,-38.9969 542.7819,-39.6981C544.2464,-40.3512 545.5581,-41.3036 546.9463,-42.1064C544.0584,-40.6163 541.3829,-38.6098 538.2826,-37.636C537.087,-37.2605 540.1428,-39.3201 540.9963,-40.2377C543.5122,-42.9425 544.9507,-45.9503 545.9633,-49.4488C546.6579,-52.3622 546.6456,-55.3557 546.5652,-58.3283C545.753,-64.4645 540.332,-58.4252 559.1,-66.0472C559.4417,-66.186 558.8994,-65.3356 558.842,-64.9712C558.7584,-64.4412 558.7327,-63.9037 558.678,-63.37C558.4116,-58.5352 558.3011,-53.6898 558.8385,-48.8729C559.3853,-45.774 559.9781,-42.6077 562.4072,-40.4324C564.1162,-39.3075 565.9299,-39.231 567.8176,-39.8486C572.3605,-42.1411 579.1794,-46.118 558.5218,-34.4558C557.7888,-34.042 559.9393,-35.3644 560.6358,-35.837L574.3857,-41.3039C573.3212,-40.43 573.5147,-40.5201 572.2923,-39.8054C567.6471,-37.0896 561.8948,-32.5533 556.0168,-30.8992C553.7225,-30.6532 551.5833,-31.1524 549.789,-32.6773C547.292,-35.2807 546.4771,-38.6003 545.9205,-42.101C545.3299,-46.9737 545.4484,-51.8684 545.5121,-56.7697C545.5317,-57.4241 545.5891,-59.6985 545.6353,-59.7292C555.3623,-66.1895 558.5071,-72.3046 559.7414,-65.0828C559.8109,-61.9585 559.8144,-58.8161 559.1617,-55.7418C555.9603,-42.9865 547.5064,-40.0804 535.8851,-33.2002C534.4562,-32.4798 533.0874,-31.625 531.5984,-31.0388C522.6477,-27.5147 512.8948,-27.7976 503.6881,-30.0046C501.849,-30.4923 499.9816,-30.8834 498.1708,-31.4678C493.5394,-32.9624 487.0263,-36.1598 483.6105,-39.7531C483.0478,-40.345 482.6426,-41.0688 482.1586,-41.7267C480.5349,-46.0707 480.067,-50.6739 479.2315,-55.2142C478.3895,-58.7321 477.5533,-63.083 474.6465,-65.525C473.9606,-65.439 474.3146,-65.5425 473.6055,-65.1501C477.5343,-67.4822 481.4631,-69.8142 485.392,-72.1463C485.7243,-72.3373 484.7836,-71.6778 484.5048,-71.4148C483.8053,-70.7548 483.2382,-69.9617 482.4827,-69.3567C479.6627,-65.8118 477.6289,-61.7908 475.2736,-57.9352C474.3882,-56.4197 473.6566,-54.9774 473.0931,-53.3151C472.9783,-52.9764 473.1056,-52.4677 472.7992,-52.2834C459.5044,-44.2868 462.4531,-41.0521 458.7423,-45.7121C457.6264,-50.4162 458.1984,-55.4103 457.1115,-60.1366C456.048,-66.7522 455.2298,-73.8382 451.6337,-79.6263C451.0084,-80.3781 450.7399,-81.067 449.7463,-81.2506C449.4773,-81.3003 448.6972,-81.0264 448.9293,-81.1714C452.7843,-83.5799 456.7874,-85.7435 460.684,-88.0841C461.0341,-88.2944 459.9199,-87.7826 459.574,-87.5654C459.1661,-87.3094 458.8163,-86.9709 458.4374,-86.6736C454.0539,-81.4464 452.7319,-74.3891 450.9594,-67.9864C448.9624,-58.7542 447.2481,-49.392 446.9663,-39.9303C442.6611,-37.2917 438.4431,-34.5055 434.0509,-32.0145C433.809,-31.8773 434.2913,-32.5188 434.3689,-32.7859C435.1731,-35.5526 434.9442,-38.4808 434.9437,-41.3192C434.5725,-47.6693 433.3852,-53.9844 430.9595,-59.8902C430.4967,-60.9584 429.6461,-64.0551 428.0273,-64.1645C427.6519,-64.1899 426.9629,-63.8928 426.664,-63.7855C421.876,-61.6536 417.2258,-59.2069 412.2498,-57.5029C394.41,-50.7931 376.4177,-44.5046 358.1221,-39.1385C347.5024,-35.6251 336.8084,-32.2298 326.4071,-28.0958C323.4132,-26.9058 320.6723,-24.9485 317.5147,-24.3088C315.893,-23.9803 323.0914,-27.8472 321.6038,-27.1227C319.4346,-26.0663 317.5039,-24.5777 315.454,-23.3052C311.6254,-20.2317 306.9304,-17.0518 306.0231,-11.7537C305.1302,-6.539 308.4514,-1.7173 310.6976,2.6064C312.0867,4.5044 313.4087,6.4534 314.865,8.3002C324.8107,20.9133 336.9125,31.7349 349.2333,41.9507C355.2776,46.4639 361.4425,51.5105 368.5887,54.2474C370.2378,54.879 371.9681,55.3572 373.7232,55.5527C375.2204,55.7194 379.0476,54.0524 378.2367,55.3221C376.5481,57.9662 373.0607,58.8689 370.4727,60.6424C371.9211,59.6313 373.4539,58.7314 374.818,57.609C382.3953,51.3747 387.7065,42.7683 390.0706,33.2575C390.7888,30.3679 391.0696,27.3869 391.5691,24.4516C391.713,21.3964 392.0786,18.3436 392.0007,15.286C391.6074,-.1509 386.3714,-15.0473 381.0958,-29.3649C376.6203,-40.4339 371.1739,-51.3452 369.2251,-63.2235C369.1596,-66.0352 369.2286,-68.1755 369.9092,-70.8957C369.9473,-71.0478 370.7023,-73.7558 371.0384,-73.9872C375.3553,-76.9602 379.9527,-79.5037 384.4099,-82.2619C384.7489,-82.2349 385.0988,-82.2704 385.4268,-82.1807C387.5325,-81.605 388.5419,-78.9921 389.422,-77.2845C391.2962,-72.8589 391.5534,-68.921 389.1687,-64.5737C388.6277,-63.7989 388.1602,-62.9673 387.5458,-62.2493C383.155,-57.1183 374.373,-53.5169 369.904,-51.0303C365.6297,-48.6519 360.7122,-47.6351 356.0106,-46.5342C354.1284,-46.2519 352.2609,-45.8421 350.3638,-45.6872C343.5879,-45.1342 336.6659,-46.3505 330.8819,-49.9878C330.0515,-50.6505 329.1568,-51.2399 328.3906,-51.9759C325.1513,-55.0883 324.1401,-58.5232 325.2119,-62.8203C326.8277,-67.9581 329.3611,-70.4448 333.6797,-73.6076C342.0135,-78.5311 349.5479,-83.9618 358.9357,-86.2666L347.1504,-77.2549z" stroke="#000" stroke-linecap="round" stroke-linejoin="round" stroke-width="2"/>
<path d="M549.2332,-122.1847C547.4497,-120.0919 546.0244,-117.6969 545.3462,-115.0219C544.8607,-112.3468 546.4564,-111.6609 548.6501,-110.701C552.1989,-109.4013 555.2322,-109.544 558.8667,-110.1867C563.727,-111.8529 571.4457,-116.6009 549.8419,-104.683C549.5386,-104.5156 550.4174,-105.0731 550.6735,-105.3066C551.283,-105.8622 551.3443,-106.0922 551.7431,-106.7885C552.4769,-108.4348 552.405,-109.9757 551.4599,-111.492C550.2026,-112.6833 548.3125,-112.5716 546.6902,-112.6506C545.0147,-112.4957 543.4191,-112.0801 542.057,-111.0753L553.6269,-120.3929C555.2743,-121.0166 556.9597,-121.4107 558.7396,-121.2691C560.8571,-121.0599 562.9403,-120.7594 564.3134,-118.9498C565.4318,-117.0683 565.8738,-115.1231 565.2275,-112.9755C562.8838,-105.9037 553.9818,-103.0447 547.0943,-101.3611C543.4244,-100.8997 539.7964,-101.101 536.3461,-102.5755C533.866,-103.8553 531.6424,-105.4567 532.0181,-108.5614C532.4759,-111.4436 533.8818,-114.0254 535.5706,-116.3799L549.2332,-122.1847z" stroke="#000" stroke-linecap="round" stroke-linejoin="round" stroke-width="2"/>
<path d="M359.6057,-86.1453C362.4187,-87.5125 365.103,-89.129 368.0047,-90.3079C369.8229,-91.4887 371.8175,-92.0343 373.9447,-92.2669C375.9013,-92.4156 377.8658,-92.3906 379.8266,-92.3838C381.7726,-92.5908 383.4211,-92.0588 385.1306,-91.2244C386.3272,-90.2653 387.2717,-88.9911 388.1806,-87.7589C388.971,-86.3232 389.4355,-84.7124 389.9217,-83.1481C390.3578,-81.5453 390.9514,-80.0138 391.2655,-78.376C391.5681,-76.4533 391.5887,-74.5022 391.6123,-72.5605C391.6209,-71.5593 391.6196,-70.5581 391.6191,-69.5568L378.4016,-62.8239C378.4031,-63.8201 378.4051,-64.8163 378.4006,-65.8125C378.3869,-67.6761 378.3836,-69.5468 378.1492,-71.3987C377.8884,-72.9952 377.3044,-74.4635 376.8794,-76.0128C376.4669,-77.4199 376.0218,-78.8533 375.3829,-80.165C374.6051,-81.185 373.8481,-82.3496 372.73,-83.0103C371.1597,-83.6924 369.5221,-83.7365 367.825,-83.6633C365.9059,-83.6547 363.9742,-83.6641 362.0745,-83.3541C360.0654,-82.9292 358.2552,-82.0648 356.4262,-81.1471C353.5803,-79.8236 350.8275,-78.3064 348.069,-76.8116L359.6057,-86.1453z" stroke="#000" stroke-linecap="round" stroke-linejoin="round" stroke-width="2"/>
</g>
<path d="M59.8331,46.8901H246.7113A15.9099,15.9099 0 0 1 262.6212,62.8V62.8A15.9099,15.9099 0 0 1 246.7113,78.7099H59.8331A15.9099,15.9099 0 0 1 43.9232,62.8V62.8A15.9099,15.9099 0 0 1 59.8331,46.8901z" fill="#fff" stroke="#000" stroke-linecap="round" stroke-linejoin="round" stroke-width="4"/>
<path d="M101.5203,44.9288A36.8706,34.8503 0 1 1 27.7792,44.9288A36.8706,34.8503 0 1 1 101.5203,44.9288z" stroke="#000" stroke-linecap="round" stroke-linejoin="round" stroke-width="7.491" transform="matrix(.7121,0,0,.7121,-1.36314,24.51294)"/>
<text font-family="Bitstream Vera Sans" font-size="40" x="20.2861" y="70.5475">
   <tspan fill="#f9f9f9" x="20.2861" y="70.5475">64</tspan>
  </text>
<text font-family="Bitstream Vera Sans" font-size="20" x="132.2189" y="69.2433">
   <tspan x="132.2189" y="69.2433">Fan</tspan>
  </text>
<path d="M446.8915,78.4154A61.5183,5.3033 0 1 1 323.8549,78.4154A61.5183,5.3033 0 1 1 446.8915,78.4154z" stroke="#000" stroke-linecap="round" stroke-width="4.862" transform="matrix(-1,0,0,1,523.64173,248.49735)"/>
<path d="M84.5104,240.0253L84.5104,287.9137C84.5104,307.9207 100.6171,324.0274 120.6241,324.0274L156.0581,324.0274C176.0651,324.0274 192.1719,307.9207 192.1719,287.9137L192.1719,240.0253" fill="#fff" stroke="#000" stroke-linecap="round" stroke-linejoin="round" stroke-width="3.642"/>
<path d="M-175.1239,259.8367H-151.5898A.7803,.7803 0 0 1 -150.8095,260.617V270.6431A.7803,.7803 0 0 1 -151.5898,271.4234H-175.1239A.7803,.7803 0 0 1 -175.9041,270.6431V260.617A.7803,.7803 0 0 1 -175.1239,259.8367z" stroke="#000" stroke-linecap="square" stroke-linejoin="round" stroke-width="3.7338" transform="scale(-1,1)"/>
<path d="M-129.7329,259.8367H-109.32A2.3409,2.3409 0 0 1 -106.9792,262.1776V269.0825A2.3409,2.3409 0 0 1 -109.32,271.4234H-129.7329A2.3409,2.3409 0 0 1 -132.0737,269.0825V262.1776A2.3409,2.3409 0 0 1 -129.7329,259.8367z" stroke="#000" stroke-linecap="square" stroke-linejoin="round" stroke-width="3.7338" transform="scale(-1,1)"/>
<path d="M189.8637,264.8913C189.3144,264.9018 188.7651,264.8981 188.2158,264.8954C187.8529,264.8932 187.4899,264.8918 187.1269,264.8911C186.8344,264.8907 186.542,264.8908 186.2494,264.8908C185.9454,264.8901 185.6414,264.8913 185.3373,264.8919C184.9467,264.8822 184.5621,264.8915 184.1754,264.9426C183.7757,264.9971 183.3723,265.0143 182.9692,265.0253C182.564,265.0095 182.1663,265.0842 181.7652,265.1244C181.3572,265.1611 180.9472,265.165 180.5378,265.1694C180.1076,265.1717 179.6775,265.1715 179.2473,265.1701C178.8737,265.1693 178.5001,265.1687 178.1265,265.1678C177.8195,265.1671 177.5125,265.1668 177.2054,265.1667C176.9139,265.1666 176.6224,265.1666 176.3309,265.1667C176.0394,265.1667 175.7479,265.1667 175.4563,265.1667C175.1376,265.1663 174.819,265.1672 174.5003,265.1686C174.106,265.171 173.7117,265.1691 173.3175,265.168C172.9466,265.1677 172.5757,265.1685 172.2048,265.1695C171.8081,265.1693 171.4114,265.1694 171.0146,265.1684C170.6347,265.1686 170.2547,265.1692 169.8747,265.1686C169.5291,265.1673 169.1836,265.1671 168.838,265.1688C168.3048,265.1714 167.7716,265.173 167.2384,265.1749C166.5118,265.1777 165.7851,265.1783 165.0585,265.1759C164.5253,265.1745 163.9921,265.1707 163.4588,265.1705C163.0175,265.1711 162.5762,265.1704 162.1349,265.169C162.0738,265.1688 162.0127,265.1686 161.9516,265.1684L163.6976,266.3677C163.7581,266.3675 163.8186,266.3673 163.8791,266.3671C164.319,266.3655 164.7588,266.3649 165.1987,266.3655C165.7266,266.3653 166.2546,266.3615 166.7825,266.3601C167.5101,266.3577 168.2378,266.3583 168.9653,266.3611C169.5044,266.363 170.0435,266.3646 170.5826,266.3672C170.9284,266.3689 171.2743,266.3687 171.6201,266.3674C172.0002,266.3669 172.3803,266.3674 172.7604,266.3676C173.1561,266.3666 173.5518,266.3667 173.9475,266.3665C174.3198,266.3675 174.6922,266.3683 175.0645,266.368C175.4582,266.367 175.8519,266.365 176.2455,266.3674C176.5661,266.3688 176.8866,266.3697 177.2072,266.3693C177.4988,266.3693 177.7903,266.3693 178.0819,266.3693C178.3733,266.3693 178.6647,266.3694 178.9562,266.3693C179.2622,266.3691 179.5682,266.3689 179.8741,266.3683C180.2462,266.3676 180.6182,266.3675 180.9902,266.3674C181.4204,266.3666 181.8505,266.3681 182.2807,266.3634C182.6954,266.3577 183.1109,266.3488 183.5234,266.3039C183.9202,266.2593 184.3155,266.2067 184.7165,266.2169C185.1243,266.2018 185.5313,266.1735 185.9357,266.1202C186.3178,266.0797 186.7011,266.091 187.085,266.0924C187.3902,266.0929 187.6953,266.0941 188.0005,266.0935C188.2926,266.0935 188.5847,266.0935 188.8768,266.0931C189.2356,266.0924 189.5945,266.091 189.9533,266.0889C190.5066,266.0861 191.0599,266.0827 191.613,266.0929L189.8637,264.8913z" stroke="#000" stroke-linecap="square" stroke-linejoin="round" stroke-width=".4767"/>
<path d="M103.5799,265.1934C102.6277,265.2047 101.6754,265.2031 100.7232,265.2027C99.8503,265.2019 98.9775,265.2002 98.1047,265.1974C97.5215,265.1951 96.9382,265.195 96.355,265.1945C95.8953,265.1938 95.4357,265.1929 94.9761,265.1925C94.5745,265.2131 94.1887,265.1378 93.794,265.1015C93.3982,265.069 92.9991,265.0643 92.6009,265.061C92.2057,265.059 91.8105,265.0598 91.4153,265.0602C91.0205,265.0606 90.6258,265.0607 90.2311,265.0608C89.8364,265.0608 89.4417,265.0608 89.047,265.0608C88.6523,265.0608 88.2576,265.0608 87.8629,265.0608C87.4391,265.0603 87.0154,265.0619 86.5916,265.0619C86.1625,265.0617 85.7333,265.0613 85.3042,265.061C84.9067,265.0609 84.5093,265.0608 84.1118,265.0608C83.8489,265.0608 83.9804,265.0608 83.7175,265.0608L86.086,266.2061C86.3488,266.2061 86.2174,266.2061 86.4803,266.2061C86.8774,266.206 87.2746,266.206 87.6718,266.2058C88.0997,266.2056 88.5276,266.2052 88.9556,266.205C89.3808,266.205 89.8061,266.2066 90.2313,266.2061C90.626,266.2061 91.0207,266.2061 91.4155,266.2061C91.8102,266.2061 92.2049,266.2061 92.5996,266.2059C92.9944,266.2058 93.3891,266.2056 93.7839,266.2053C94.1779,266.205 94.572,266.2043 94.9659,266.2094C95.3573,266.2164 95.7493,266.228 96.1364,266.2699C96.5369,266.313 96.9352,266.3562 97.3431,266.3371C97.8,266.3367 98.2568,266.3358 98.7137,266.3351C99.293,266.3345 99.8723,266.3345 100.4516,266.3322C101.3171,266.3294 102.1826,266.3277 103.0481,266.3269C104.0131,266.3264 104.9782,266.3251 105.9431,266.3361L103.5799,265.1934z" stroke="#000" stroke-linecap="square" stroke-linejoin="round" stroke-width=".541"/>
<path d="M157.0043,265.403C156.0009,265.4639 154.9885,265.4831 153.9775,265.4975C153.0752,265.5079 152.1725,265.508 151.2701,265.5068C150.525,265.5064 149.7799,265.5063 149.0349,265.5054C147.5393,265.5238 146.0428,265.5148 144.5468,265.5115C143.6429,265.5083 142.739,265.507 141.8351,265.5052C141.1143,265.5052 140.3935,265.5048 139.6726,265.5057C138.9148,265.5069 138.157,265.5049 137.3993,265.5054C136.7155,265.5047 136.0317,265.5048 135.3479,265.5049C134.6631,265.5054 133.9783,265.5051 133.2934,265.5044C132.6393,265.5055 131.9851,265.5045 131.3309,265.504C130.6909,265.5053 130.0508,265.5044 129.4107,265.504C128.8454,265.5036 128.28,265.5034 127.7147,265.5034C127.2418,265.5561 126.7662,265.594 126.281,265.6123C125.755,265.6279 125.2275,265.6279 124.7006,265.6286C124.1524,265.6288 123.6042,265.6282 123.056,265.628C122.7816,265.6278 122.5071,265.6278 122.2327,265.6277L125.5233,266.7115C125.7977,266.7116 126.0721,266.7117 126.3465,266.7119C126.8953,266.7122 127.4441,266.7128 127.993,266.7115C128.529,266.7093 129.0661,266.707 129.5997,266.6817C130.0707,266.6552 130.5319,266.6009 131.0052,266.5871C131.5694,266.587 132.1336,266.5869 132.6978,266.5865C133.3378,266.5861 133.9778,266.5852 134.6178,266.5865C135.2711,266.586 135.9245,266.585 136.5779,266.5861C137.2618,266.5854 137.9457,266.5851 138.6296,266.5856C139.3121,266.5857 139.9947,266.5858 140.6773,266.585C141.4345,266.5856 142.1917,266.5836 142.9489,266.5847C143.6709,266.5857 144.3928,266.5853 145.1147,266.5853C146.0059,266.5835 146.8971,266.5822 147.7882,266.579C149.2969,266.5757 150.8061,266.5671 152.3145,266.5856C153.0584,266.5852 153.8022,266.5861 154.546,266.5853C155.4453,266.5827 156.3447,266.5793 157.2435,266.565C158.2728,266.5459 159.301,266.5165 160.3259,266.4686L157.0043,265.403z" stroke="#000" stroke-linecap="square" stroke-linejoin="round" stroke-width=".6203"/>
<path d="M177.1662,227.5179L177.1662,246.0611" fill="none" stroke="#000" stroke-linecap="round" stroke-width="4.8046"/>
<path d="M167.6421,225.7636L167.6421,244.3068" fill="none" stroke="#000" stroke-linecap="round" stroke-width="4.8046"/>
<path d="M158.7052,227.2279L158.7052,245.7711" fill="none" stroke="#000" stroke-linecap="round" stroke-width="4.8046"/>
<path d="M147.0285,226.0607L147.0285,244.6039" fill="none" stroke="#000" stroke-linecap="round" stroke-width="4.8046"/>
<path d="M136.8699,228.2472L136.8699,246.7905" fill="none" stroke="#000" stroke-linecap="round" stroke-width="4.8046"/>
<path d="M125.2406,228.0719L125.2406,246.6151" fill="none" stroke="#000" stroke-linecap="round" stroke-width="4.8046"/>
<path d="M114.7381,226.3577L114.7381,244.9009" fill="none" stroke="#000" stroke-linecap="round" stroke-width="4.8046"/>
<path d="M104.8226,229.3946L104.8226,247.9378" fill="none" stroke="#000" stroke-linecap="round" stroke-width="4.8046"/>
<path d="M94.1496,229.0259L94.1496,247.5691" fill="none" stroke="#000" stroke-linecap="round" stroke-width="4.8046"/>
<path d="M146.7824,304.1004L119.6595,299.6721" fill="none" stroke="#000" stroke-width=".7749"/>
<path d="M185.0504,232.2481L185.0504,250.7913" fill="none" stroke="#000" stroke-linecap="round" stroke-width="4.8046"/>
<g transform="matrix(1.20124,0,0,1,-615.07209,627.81386)">
<path d="M1013.7151,-530.8745H1138.6816A13.0878,13.0878 0 0 1 1151.7694,-517.7867V-495.7367A13.0878,13.0878 0 0 1 1138.6816,-482.649H1013.7151A13.0878,13.0878 0 0 1 1000.6273,-495.7367V-517.7867A13.0878,13.0878 0 0 1 1013.7151,-530.8745z" stroke="#000" stroke-linecap="round" stroke-linejoin="round" stroke-width="1.9703" transform="matrix(1,0,.84988,.52697,0,0)"/>
<path d="M602.1455,-296.3292H607.6698A4.1432,4.1432 0 0 1 611.813,-292.186V-261.8025A4.1432,4.1432 0 0 1 607.6698,-257.6593H602.1455A4.1432,4.1432 0 0 1 598.0023,-261.8025V-292.186A4.1432,4.1432 0 0 1 602.1455,-296.3292z" fill="#fff" stroke="#000" stroke-linecap="round" stroke-linejoin="round" stroke-width="3.642"/>
<path d="M707.3829,-296.3292H712.9072A4.1432,4.1432 0 0 1 717.0504,-292.186V-261.8025A4.1432,4.1432 0 0 1 712.9072,-257.6593H707.3829A4.1432,4.1432 0 0 1 703.2397,-261.8025V-292.186A4.1432,4.1432 0 0 1 707.3829,-296.3292z" fill="#fff" stroke="#000" stroke-linecap="round" stroke-linejoin="round" stroke-width="3.642"/>
<path d="M684.1809,-308.4826H689.7052A4.1432,4.1432 0 0 1 693.8484,-304.3394V-273.9559A4.1432,4.1432 0 0 1 689.7052,-269.8127H684.1809A4.1432,4.1432 0 0 1 680.0377,-273.9559V-304.3394A4.1432,4.1432 0 0 1 684.1809,-308.4826z" fill="#fff" stroke="#000" stroke-linecap="round" stroke-linejoin="round" stroke-width="3.642"/>
<path d="M576.4576,-311.7971H581.9819A4.1432,4.1432 0 0 1 586.1251,-307.6539V-277.2705A4.1432,4.1432 0 0 1 581.9819,-273.1272H576.4576A4.1432,4.1432 0 0 1 572.3144,-277.2705V-307.6539A4.1432,4.1432 0 0 1 576.4576,-311.7971z" fill="#fff" stroke="#000" stroke-linecap="round" stroke-linejoin="round" stroke-width="3.642"/>
<path d="M1076.8467,-603.2072H1201.8132A13.0878,13.0878 0 0 1 1214.901,-590.1194V-568.0694A13.0878,13.0878 0 0 1 1201.8132,-554.9817H1076.8467A13.0878,13.0878 0 0 1 1063.7589,-568.0694V-590.1194A13.0878,13.0878 0 0 1 1076.8467,-603.2072z" fill="#fff" stroke="#000" stroke-linecap="round" stroke-linejoin="round" stroke-width="1.9703" transform="matrix(1,0,.84988,.52697,0,0)"/>
<path d="M1082.5307,-610.5453H1207.4972A13.0878,13.0878 0 0 1 1220.585,-597.4575V-575.4075A13.0878,13.0878 0 0 1 1207.4972,-562.3197H1082.5307A13.0878,13.0878 0 0 1 1069.4429,-575.4075V-597.4575A13.0878,13.0878 0 0 1 1082.5307,-610.5453z" fill="#fff" stroke="#000" stroke-linecap="round" stroke-linejoin="round" stroke-width="1.9703" transform="matrix(1,0,.84988,.52697,0,0)"/>
</g>
<path d="M446.8915,78.4154A61.5183,5.3033 0 1 1 323.8549,78.4154A61.5183,5.3033 0 1 1 446.8915,78.4154z" stroke="#000" stroke-linecap="round" stroke-width="4.862" transform="matrix(-1,0,0,1,1101.0949,249.79659)"/>
<path d="M661.9636,241.3245L661.9636,289.2129C661.9636,309.2199 678.0703,325.3267 698.0773,325.3267L733.5114,325.3267C753.5184,325.3267 769.6251,309.2199 769.6251,289.2129L769.6251,241.3245" fill="#fff" stroke="#000" stroke-linecap="round" stroke-linejoin="round" stroke-width="3.642"/>
<path d="M-752.5771,261.136H-729.0431A.7803,.7803 0 0 1 -728.2628,261.9162V271.9423A.7803,.7803 0 0 1 -729.0431,272.7226H-752.5771A.7803,.7803 0 0 1 -753.3574,271.9423V261.9162A.7803,.7803 0 0 1 -752.5771,261.136z" stroke="#000" stroke-linecap="square" stroke-linejoin="round" stroke-width="3.7338" transform="scale(-1,1)"/>
<path d="M-707.1862,261.136H-686.7733A2.3409,2.3409 0 0 1 -684.4324,263.4768V270.3818A2.3409,2.3409 0 0 1 -686.7733,272.7226H-707.1862A2.3409,2.3409 0 0 1 -709.527,270.3818V263.4768A2.3409,2.3409 0 0 1 -707.1862,261.136z" stroke="#000" stroke-linecap="square" stroke-linejoin="round" stroke-width="3.7338" transform="scale(-1,1)"/>
<path d="M767.3169,266.1906C766.7677,266.201 766.2183,266.1973 765.669,266.1946C765.3061,266.1925 764.9431,266.1911 764.5802,266.1904C764.2877,266.19 763.9952,266.19 763.7027,266.19C763.3987,266.1894 763.0946,266.1906 762.7906,266.1911C762.3999,266.1815 762.0154,266.1908 761.6286,266.2419C761.229,266.2964 760.8255,266.3136 760.4224,266.3246C760.0172,266.3088 759.6195,266.3834 759.2184,266.4236C758.8105,266.4604 758.4004,266.4643 757.991,266.4686C757.5609,266.4709 757.1307,266.4708 756.7006,266.4693C756.327,266.4685 755.9534,266.468 755.5798,266.4671C755.2727,266.4663 754.9657,266.4661 754.6587,266.466C754.3672,266.4659 754.0757,266.4659 753.7842,266.4659C753.4926,266.4659 753.2011,266.4659 752.9096,266.4659C752.5909,266.4655 752.2722,266.4664 751.9535,266.4678C751.5592,266.4702 751.1649,266.4683 750.7707,266.4672C750.3998,266.4669 750.0289,266.4677 749.658,266.4687C749.2613,266.4685 748.8646,266.4686 748.4679,266.4676C748.0879,266.4678 747.7079,266.4684 747.328,266.4678C746.9824,266.4665 746.6368,266.4663 746.2912,266.4681C745.758,266.4707 745.2248,266.4722 744.6916,266.4741C743.965,266.4769 743.2384,266.4775 742.5117,266.4751C741.9785,266.4738 741.4453,266.4699 740.912,266.4697C740.4707,266.4703 740.0294,266.4697 739.5881,266.4682C739.527,266.468 739.4659,266.4678 739.4048,266.4676L741.1508,267.6669C741.2113,267.6667 741.2718,267.6665 741.3323,267.6663C741.7722,267.6648 742.212,267.6641 742.6519,267.6648C743.1798,267.6646 743.7078,267.6607 744.2358,267.6594C744.9633,267.6569 745.691,267.6576 746.4186,267.6603C746.9577,267.6622 747.4968,267.6638 748.0358,267.6664C748.3817,267.6681 748.7275,267.668 749.0733,267.6667C749.4534,267.6661 749.8335,267.6667 750.2137,267.6668C750.6093,267.6658 751.005,267.6659 751.4007,267.6658C751.7731,267.6668 752.1454,267.6675 752.5177,267.6673C752.9114,267.6662 753.3051,267.6643 753.6987,267.6666C754.0193,267.668 754.3399,267.669 754.6604,267.6686C754.952,267.6686 755.2436,267.6686 755.5351,267.6686C755.8265,267.6686 756.118,267.6686 756.4094,267.6685C756.7154,267.6684 757.0214,267.6682 757.3274,267.6676C757.6994,267.6669 758.0714,267.6667 758.4434,267.6667C758.8736,267.6658 759.3038,267.6674 759.7339,267.6626C760.1487,267.657 760.5642,267.6481 760.9766,267.6031C761.3734,267.5586 761.7687,267.5059 762.1697,267.5162C762.5775,267.501 762.9846,267.4727 763.389,267.4194C763.771,267.379 764.1543,267.3902 764.5383,267.3916C764.8434,267.3922 765.1486,267.3934 765.4537,267.3927C765.7458,267.3928 766.0379,267.3928 766.33,267.3924C766.6889,267.3917 767.0477,267.3903 767.4066,267.3881C767.9598,267.3853 768.5131,267.3819 769.0663,267.3922L767.3169,266.1906z" stroke="#000" stroke-linecap="square" stroke-linejoin="round" stroke-width=".4767"/>
<path d="M681.0331,266.4927C680.081,266.5039 679.1286,266.5024 678.1764,266.502C677.3036,266.5011 676.4308,266.4994 675.558,266.4966C674.9747,266.4944 674.3914,266.4943 673.8082,266.4938C673.3486,266.493 672.8889,266.4922 672.4293,266.4918C672.0278,266.5124 671.6419,266.437 671.2473,266.4007C670.8515,266.3683 670.4524,266.3636 670.0541,266.3603C669.6589,266.3582 669.2637,266.3591 668.8685,266.3594C668.4738,266.3598 668.0791,266.36 667.6844,266.36C667.2897,266.3601 666.895,266.3601 666.5003,266.3601C666.1055,266.3601 665.7108,266.3601 665.3161,266.3601C664.8923,266.3595 664.4686,266.3611 664.0448,266.3612C663.6157,266.3609 663.1866,266.3605 662.7574,266.3603C662.36,266.3601 661.9625,266.3601 661.5651,266.3601C661.3022,266.3601 661.4336,266.3601 661.1708,266.3601L663.5392,267.5053C663.8021,267.5053 663.6706,267.5053 663.9335,267.5053C664.3306,267.5053 664.7278,267.5053 665.125,267.5051C665.5529,267.5049 665.9809,267.5044 666.4088,267.5042C666.8341,267.5042 667.2593,267.5059 667.6845,267.5053C668.0793,267.5053 668.474,267.5053 668.8687,267.5053C669.2634,267.5053 669.6582,267.5053 670.0529,267.5052C670.4476,267.5051 670.8424,267.5048 671.2371,267.5045C671.6311,267.5043 672.0252,267.5035 672.4191,267.5086C672.8105,267.5156 673.2025,267.5272 673.5896,267.5691C673.9901,267.6122 674.3885,267.6554 674.7964,267.6363C675.2532,267.6359 675.7101,267.6351 676.1669,267.6343C676.7462,267.6338 677.3255,267.6337 677.9048,267.6314C678.7703,267.6286 679.6358,267.6269 680.5013,267.6261C681.4663,267.6257 682.4314,267.6243 683.3963,267.6354L681.0331,266.4927z" stroke="#000" stroke-linecap="square" stroke-linejoin="round" stroke-width=".541"/>
<path d="M732.4576,266.7023C731.4541,266.7632 730.4417,266.7824 729.4307,266.7968C728.5284,266.8072 727.6258,266.8072 726.7233,266.8061C725.9782,266.8056 725.2332,266.8055 724.4881,266.8046C722.9925,266.8231 721.496,266.814 720,266.8107C719.0961,266.8075 718.1922,266.8062 717.2883,266.8044C716.5675,266.8045 715.8467,266.8041 715.1259,266.805C714.3681,266.8061 713.6103,266.8041 712.8525,266.8047C712.1687,266.8039 711.4849,266.804 710.8012,266.8041C710.1163,266.8046 709.4315,266.8043 708.7466,266.8036C708.0925,266.8047 707.4383,266.8037 706.7841,266.8032C706.1441,266.8045 705.504,266.8036 704.864,266.8032C704.2986,266.8028 703.7332,266.8027 703.1679,266.8026C702.695,266.8553 702.2194,266.8933 701.7343,266.9116C701.2082,266.9271 700.6807,266.9271 700.1538,266.9278C699.6056,266.928 699.0575,266.9275 698.5092,266.9272C698.2348,266.9271 697.9604,266.927 697.6859,266.927L700.9766,268.0108C701.2509,268.0109 701.5253,268.011 701.7997,268.0111C702.3485,268.0114 702.8974,268.0121 703.4462,268.0107C703.9822,268.0086 704.5193,268.0063 705.053,267.9809C705.5239,267.9545 705.9851,267.9001 706.4584,267.8863C707.0227,267.8863 707.5869,267.8861 708.1511,267.8858C708.791,267.8853 709.431,267.8845 710.071,267.8857C710.7244,267.8852 711.3777,267.8843 712.0311,267.8853C712.715,267.8847 713.3989,267.8843 714.0828,267.8849C714.7654,267.885 715.4479,267.885 716.1305,267.8843C716.8877,267.8848 717.645,267.8828 718.4022,267.884C719.1241,267.8849 719.8461,267.8845 720.568,267.8845C721.4591,267.8827 722.3503,267.8814 723.2414,267.8782C724.7501,267.8749 726.2594,267.8663 727.7678,267.8849C728.5116,267.8845 729.2554,267.8853 729.9992,267.8845C730.8985,267.882 731.7979,267.8786 732.6967,267.8642C733.7261,267.8451 734.7542,267.8157 735.7791,267.7678L732.4576,266.7023z" stroke="#000" stroke-linecap="square" stroke-linejoin="round" stroke-width=".6203"/>
<path d="M754.6194,228.8171L754.6194,247.3604" fill="none" stroke="#000" stroke-linecap="round" stroke-width="4.8046"/>
<path d="M745.0954,227.0628L745.0954,245.606" fill="none" stroke="#000" stroke-linecap="round" stroke-width="4.8046"/>
<path d="M736.1585,228.5271L736.1585,247.0703" fill="none" stroke="#000" stroke-linecap="round" stroke-width="4.8046"/>
<path d="M724.4817,227.3599L724.4817,245.9031" fill="none" stroke="#000" stroke-linecap="round" stroke-width="4.8046"/>
<path d="M714.3231,229.5465L714.3231,248.0897" fill="none" stroke="#000" stroke-linecap="round" stroke-width="4.8046"/>
<path d="M702.6938,229.3711L702.6938,247.9143" fill="none" stroke="#000" stroke-linecap="round" stroke-width="4.8046"/>
<path d="M692.1913,227.6569L692.1913,246.2002" fill="none" stroke="#000" stroke-linecap="round" stroke-width="4.8046"/>
<path d="M682.2759,230.6938L682.2759,249.2371" fill="none" stroke="#000" stroke-linecap="round" stroke-width="4.8046"/>
<path d="M671.6029,230.3251L671.6029,248.8684" fill="none" stroke="#000" stroke-linecap="round" stroke-width="4.8046"/>
<path d="M762.5036,233.5474L762.5036,252.0906" fill="none" stroke="#000" stroke-linecap="round" stroke-width="4.8046"/>
<g transform="matrix(1.20124,0,0,1,-46.8771,628.00824)">
<path d="M1013.7151,-530.8745H1138.6816A13.0878,13.0878 0 0 1 1151.7694,-517.7867V-495.7367A13.0878,13.0878 0 0 1 1138.6816,-482.649H1013.7151A13.0878,13.0878 0 0 1 1000.6273,-495.7367V-517.7867A13.0878,13.0878 0 0 1 1013.7151,-530.8745z" stroke="#000" stroke-linecap="round" stroke-linejoin="round" stroke-width="1.9703" transform="matrix(1,0,.84988,.52697,0,0)"/>
<path d="M602.1455,-296.3292H607.6698A4.1432,4.1432 0 0 1 611.813,-292.186V-261.8025A4.1432,4.1432 0 0 1 607.6698,-257.6593H602.1455A4.1432,4.1432 0 0 1 598.0023,-261.8025V-292.186A4.1432,4.1432 0 0 1 602.1455,-296.3292z" fill="#fff" stroke="#000" stroke-linecap="round" stroke-linejoin="round" stroke-width="3.642"/>
<path d="M707.3829,-296.3292H712.9072A4.1432,4.1432 0 0 1 717.0504,-292.186V-261.8025A4.1432,4.1432 0 0 1 712.9072,-257.6593H707.3829A4.1432,4.1432 0 0 1 703.2397,-261.8025V-292.186A4.1432,4.1432 0 0 1 707.3829,-296.3292z" fill="#fff" stroke="#000" stroke-linecap="round" stroke-linejoin="round" stroke-width="3.642"/>
<path d="M684.1809,-308.4826H689.7052A4.1432,4.1432 0 0 1 693.8484,-304.3394V-273.9559A4.1432,4.1432 0 0 1 689.7052,-269.8127H684.1809A4.1432,4.1432 0 0 1 680.0377,-273.9559V-304.3394A4.1432,4.1432 0 0 1 684.1809,-308.4826z" fill="#fff" stroke="#000" stroke-linecap="round" stroke-linejoin="round" stroke-width="3.642"/>
<path d="M576.4576,-311.7971H581.9819A4.1432,4.1432 0 0 1 586.1251,-307.6539V-277.2705A4.1432,4.1432 0 0 1 581.9819,-273.1272H576.4576A4.1432,4.1432 0 0 1 572.3144,-277.2705V-307.6539A4.1432,4.1432 0 0 1 576.4576,-311.7971z" fill="#fff" stroke="#000" stroke-linecap="round" stroke-linejoin="round" stroke-width="3.642"/>
<path d="M1076.8467,-603.2072H1201.8132A13.0878,13.0878 0 0 1 1214.901,-590.1194V-568.0694A13.0878,13.0878 0 0 1 1201.8132,-554.9817H1076.8467A13.0878,13.0878 0 0 1 1063.7589,-568.0694V-590.1194A13.0878,13.0878 0 0 1 1076.8467,-603.2072z" fill="#fff" stroke="#000" stroke-linecap="round" stroke-linejoin="round" stroke-width="1.9703" transform="matrix(1,0,.84988,.52697,0,0)"/>
<path d="M1082.5307,-610.5453H1207.4972A13.0878,13.0878 0 0 1 1220.585,-597.4575V-575.4075A13.0878,13.0878 0 0 1 1207.4972,-562.3197H1082.5307A13.0878,13.0878 0 0 1 1069.4429,-575.4075V-597.4575A13.0878,13.0878 0 0 1 1082.5307,-610.5453z" fill="#fff" stroke="#000" stroke-linecap="round" stroke-linejoin="round" stroke-width="1.9703" transform="matrix(1,0,.84988,.52697,0,0)"/>
</g>
<text font-family="Bitstream Vera Sans" font-size="20" x="730.7144" y="155.0664">
   <tspan text-align="center" text-anchor="middle" x="730.7144" y="155.0664">Hmm...</tspan>
  </text>
<text font-family="Bitstream Vera Sans" font-size="20" x="45.4054" y="-356.9131">
   <tspan text-align="center" text-anchor="middle" x="45.4054" y="-356.9131"></tspan>
  </text>
<path d="M-322.4753,552.3406H-296.8896A.135,.135 0 0 1 -296.7546,552.4756V580.1803A.135,.135 0 0 1 -296.8896,580.3154H-322.4753A.135,.135 0 0 1 -322.6103,580.1803V552.4756A.135,.135 0 0 1 -322.4753,552.3406z" fill="#fff" stroke="#000" stroke-linecap="round" stroke-linejoin="round" stroke-width="1.5832" transform="matrix(1,0,.82667,.56269,0,0)"/>
<path d="M250.6964,552.3012H276.2821A.135,.135 0 0 1 276.4171,552.4362V580.1409A.135,.135 0 0 1 276.2821,580.2759H250.6964A.135,.135 0 0 1 250.5613,580.1409V552.4362A.135,.135 0 0 1 250.6964,552.3012z" fill="#fff" stroke="#000" stroke-linecap="round" stroke-linejoin="round" stroke-width="1.5832" transform="matrix(1,0,.82667,.56269,0,0)"/>
<text font-family="Bitstream Vera Sans" font-size="20" x="157.7854" y="132.3162">
   <tspan text-align="center" text-anchor="middle" x="157.7854" y="132.3162">Bon, partiel de</tspan>
   <tspan text-align="center" text-anchor="middle" x="157.7854" y="157.3162">physique... go !</tspan>
  </text>
<path d="M158.5714,172.8571L142.8571,217.8571" fill="none" stroke="#000"/>
<path d="M692.3372,298.6432L705.9086,302.2146" fill="none" stroke="#000"/>
<path d="M728.7658,167.9289L715.1943,214.3575" fill="none" stroke="#000"/>
<path d="M326.4286,147.8571H568.8239V391.5982H326.4286z" fill="#fff" stroke="#000" stroke-linecap="round" stroke-linejoin="round" stroke-width="3.128"/>
<text font-family="Bitstream Vera Sans" font-size="20" x="396.8059" y="169.137">
   <tspan x="396.8059" y="169.137">PHYSIQUE</tspan>
  </text>
<path d="M404.061,174.2284L488.4088,174.2284" fill="none" stroke="#000"/>
<text font-family="Bitstream Vera Sans" font-size="20" x="341.9366" y="219.6852">
   <tspan x="341.9366" y="219.6852">- Seuls les fans</tspan>
   <tspan x="341.9366" y="244.6852">peuvent voir le sujet</tspan>
   <tspan x="341.9366" y="269.6852">du partiel.</tspan>
  </text>
<path d="M353.0483,317.1649H379.8174V345.9543H353.0483z" fill="#fff" stroke="#000" stroke-linecap="round" stroke-linejoin="round" stroke-width="3.128"/>
<text font-family="Bitstream Vera Sans" font-size="20" x="387.3936" y="326.7613">
   <tspan x="387.3936" y="326.7613">Devenir Fan de</tspan>
   <tspan x="387.3936" y="351.7613">Physique</tspan>
  </text>
</svg>
