<svg version="1.1" viewBox="0 0 900 450" xmlns="http://www.w3.org/2000/svg" xmlns:svg="http://www.w3.org/2000/svg">
<g transform="translate(0,-602.3622)">
<path d="M48.883,687.08H829.8849A31.621,31.621 0 0 1 861.5059,718.701V967.0499A31.621,31.621 0 0 1 829.8849,998.6709H48.883A31.621,31.621 0 0 1 17.2619,967.0499V718.701A31.621,31.621 0 0 1 48.883,687.08z" fill="#fff" stroke="#000" stroke-linecap="round" stroke-width="7.4907"/>
<path d="m16.8341,872.455 844.2857,0" fill="none" stroke="#000"/>
<g transform="translate(12)">
<path d="m344.3888,816.8121 0,47.8884c0,20.007 16.1067,36.1137 36.1137,36.1137l35.434,0c20.007,0 36.1137,-16.1067 36.1137,-36.1137l0,-47.8884" fill="#fff" stroke="#000" stroke-linecap="round" stroke-linejoin="round" stroke-width="3.6422"/>
<path d="M-423.0022,836.6236H-399.4682A.7803,.7803 0 0 1 -398.6879,837.4039V847.43A.7803,.7803 0 0 1 -399.4682,848.2103H-423.0022A.7803,.7803 0 0 1 -423.7825,847.43V837.4039A.7803,.7803 0 0 1 -423.0022,836.6236z" stroke="#000" stroke-linecap="square" stroke-linejoin="round" stroke-width="3.7338" transform="scale(-1,1)"/>
<path d="M-381.6113,836.6236H-361.1984A2.3409,2.3409 0 0 1 -358.8575,838.9645V845.8694A2.3409,2.3409 0 0 1 -361.1984,848.2103H-381.6113A2.3409,2.3409 0 0 1 -383.9521,845.8694V838.9645A2.3409,2.3409 0 0 1 -381.6113,836.6236z" stroke="#000" stroke-linecap="square" stroke-linejoin="round" stroke-width="3.7338" transform="scale(-1,1)"/>
<path d="m449.742,841.6782c-.5492,.0105-1.0986,.007-1.6478,.004-.363,-.002-.7259,-.004-1.0889,-.004-.2925,-4.3e-4-.585,-4e-4-.8775,-4e-4-.304,-6.3e-4-.6081,6e-4-.9121,10e-4-.3906,-.01-.7752,-3.7e-4-1.162,.0507-.3996,.0545-.8031,.0717-1.2062,.0827-.4052,-.0158-.8029,.0589-1.204,.099-.4079,.0368-.818,.0407-1.2274,.045-.4301,.002-.8603,.002-1.2904,6.5e-4-.3736,-7.6e-4-.7472,-10e-4-1.1208,-.002-.307,-7.7e-4-.6141,-9.8e-4-.9211,-10e-4-.2915,-8e-5-.583,-7e-5-.8745,-6e-5-.2915,10e-6-.5831,10e-6-.8746,10e-6-.3187,-3.9e-4-.6374,5.3e-4-.9561,.002-.3943,.002-.7885,4.4e-4-1.1828,-6.3e-4-.3709,-2.7e-4-.7418,4.7e-4-1.1126,.001-.3967,-1.7e-4-.7934,-8e-5-1.1902,-.001-.38,1.9e-4-.7599,7.4e-4-1.1399,1.6e-4-.3456,-10e-4-.6912,-10e-4-1.0367,2.5e-4-.5332,.003-1.0664,.004-1.5996,.006-.7266,.003-1.4533,.003-2.1799,10e-4-.5332,-10e-4-1.0664,-.005-1.5997,-.005-.4413,6.5e-4-.8826,-2e-5-1.3239,-10e-4-.0611,-2e-4-.1222,-4e-4-.1833,-6e-4l1.746,1.1993c.0605,-2.1e-4 .121,-4.1e-4 .1815,-6.1e-4 .4399,-10e-4 .8797,-.002 1.3196,-.002 .528,-2.2e-4 1.0559,-.004 1.5839,-.005 .7276,-.002 1.4552,-.002 2.1828,9.9e-4 .5391,.002 1.0782,.003 1.6173,.006 .3458,.002 .6916,.002 1.0375,2.6e-4 .3801,-5.7e-4 .7602,-3e-5 1.1404,1.5e-4 .3957,-9.9e-4 .7914,-8.9e-4 1.187,-10e-4 .3723,10e-4 .7447,.002 1.117,.002 .3937,-10e-4 .7873,-.003 1.181,-6.3e-4 .3206,10e-4 .6411,.002 .9617,.002 .2915,0 .5831,0 .8747,0 .2914,0 .5829,2e-5 .8743,-6e-5 .306,-1.3e-4 .612,-3.5e-4 .918,-9.6e-4 .372,-6.9e-4 .744,-8.4e-4 1.1161,-8.8e-4 .4302,-8.3e-4 .8603,7e-4 1.2904,-.004 .4148,-.006 .8303,-.0145 1.2428,-.0595 .3968,-.0446 .792,-.0972 1.193,-.0869 .4078,-.0152 .8149,-.0435 1.2193,-.0968 .382,-.0404 .7654,-.0292 1.1493,-.0278 .3051,5.6e-4 .6103,.002 .9155,10e-4 .2921,10e-6 .5842,3e-5 .8763,-4e-4 .3589,-6.7e-4 .7177,-.002 1.0765,-.004 .5532,-.003 1.1065,-.006 1.6597,.004l-1.7494,-1.2016z" stroke="#000" stroke-linecap="square" stroke-linejoin="round" stroke-width=".4767"/>
<path d="m358.2472,841.9549c-.7039,.0118-1.4079,.0102-2.1119,.01-.6452,-8.9e-4-1.2905,-.003-1.9357,-.006-.4312,-.002-.8624,-.002-1.2935,-.003-.3398,-8.1e-4-.6796,-.002-1.0194,-.002-.2968,.0217-.5821,-.0575-.8738,-.0956-.2926,-.0341-.5877,-.039-.8821,-.0425-.2922,-.002-.5843,-.001-.8765,-8.4e-4-.2918,4e-4-.5836,5.3e-4-.8754,6.1e-4-.2918,5e-5-.5836,5e-5-.8754,5e-5-.2918,0-.5836,0-.8754,0-.3133,-6.1e-4-.6266,10e-4-.9398,10e-4-.3172,-2.5e-4-.6345,-6.9e-4-.9517,-9.3e-4-.2938,-1.8e-4-.5877,-2e-4-.8815,-2.1e-4-.1943,-1e-5-.0972,-1e-5-.2915,-1e-5l1.7509,1.2027c.1943,0 .0971,0 .2914,0 .2936,-2e-5 .5872,-4e-5 .8808,-2.2e-4 .3164,-2.3e-4 .6327,-6.8e-4 .9491,-9.3e-4 .3144,4e-5 .6287,.002 .9431,10e-4 .2918,1e-5 .5836,1e-5 .8754,1e-5 .2918,-1e-5 .5836,-1e-5 .8754,-1.2e-4 .2918,-1.3e-4 .5837,-3.7e-4 .8755,-7.2e-4 .2913,-2.3e-4 .5826,-10e-4 .8738,.004 .2893,.007 .5791,.0195 .8653,.0636 .2961,.0452 .5905,.0907 .8921,.0705 .3377,-4.3e-4 .6755,-10e-4 1.0132,-.002 .4283,-5.4e-4 .8565,-6.3e-4 1.2848,-.003 .6398,-.003 1.2796,-.005 1.9195,-.006 .7134,-4.8e-4 1.4269,-.002 2.1402,.01l-1.747,-1.2z" stroke="#000" stroke-linecap="square" stroke-linejoin="round" stroke-width=".4767"/>
<path d="m398.54,842.1181c-.5339,.0676-1.0726,.0889-1.6105,.1048-.4801,.0116-.9604,.0116-1.4405,.0103-.3964,-5e-4-.7929,-6.3e-4-1.1893,-.002-.7958,.0205-1.592,.0104-2.3879,.007-.4809,-.004-.9619,-.005-1.4428,-.007-.3835,3e-5-.767,-4.2e-4-1.1506,6e-4-.4032,10e-4-.8064,-9.5e-4-1.2096,-3.1e-4-.3638,-8.6e-4-.7277,-7.6e-4-1.0915,-6.6e-4-.3644,5.6e-4-.7288,2.2e-4-1.0931,-5.1e-4-.3481,10e-4-.6961,1.1e-4-1.0442,-4.5e-4-.3406,10e-4-.6811,4.5e-4-1.0217,-4e-5-.3008,-4.3e-4-.6016,-5.6e-4-.9024,-6.3e-4-.2516,.0585-.5047,.1006-.7628,.1209-.2799,.0172-.5606,.0173-.8409,.018-.2917,1.9e-4-.5833,-3.9e-4-.875,-6.8e-4-.146,-1.4e-4-.292,-2e-4-.4381,-2.6e-4l1.7508,1.2027c.146,1e-4 .292,1.9e-4 .438,3.5e-4 .292,3.2e-4 .584,10e-4 .876,-3.9e-4 .2852,-.002 .5709,-.005 .8549,-.0331 .2506,-.0293 .496,-.0897 .7478,-.105 .3002,-8e-5 .6004,-2e-4 .9006,-6.3e-4 .3405,-4.8e-4 .681,-.001 1.0215,-5e-5 .3476,-5.5e-4 .6953,-.002 1.0429,-4.4e-4 .3639,-7.3e-4 .7278,-.001 1.0916,-5.1e-4 .3632,1.1e-4 .7264,1.9e-4 1.0895,-6.6e-4 .4029,6.4e-4 .8058,-.002 1.2087,-3.1e-4 .3841,10e-4 .7682,5.8e-4 1.1523,6e-4 .4742,-.002 .9483,-.003 1.4224,-.007 .8027,-.004 1.6058,-.0132 2.4083,.007 .3958,-4.3e-4 .7915,4.6e-4 1.1873,-3.6e-4 .4785,-.003 .957,-.007 1.4353,-.0226 .5477,-.0212 1.0947,-.0538 1.64,-.107l-1.7673,-1.1825z" stroke="#000" stroke-linecap="square" stroke-linejoin="round" stroke-width=".4767"/>
<path d="m437.0445,804.3048 0,18.5432" fill="none" stroke="#000" stroke-linecap="round" stroke-width="4.8046"/>
<path d="m427.5205,802.5505 0,18.5432" fill="none" stroke="#000" stroke-linecap="round" stroke-width="4.8046"/>
<path d="m418.5836,804.0148 0,18.5432" fill="none" stroke="#000" stroke-linecap="round" stroke-width="4.8046"/>
<path d="m406.9069,802.8475 0,18.5432" fill="none" stroke="#000" stroke-linecap="round" stroke-width="4.8046"/>
<path d="m396.7482,805.0341 0,18.5432" fill="none" stroke="#000" stroke-linecap="round" stroke-width="4.8046"/>
<path d="m385.119,804.8587 0,18.5432" fill="none" stroke="#000" stroke-linecap="round" stroke-width="4.8046"/>
<path d="m374.6164,803.1445 0,18.5432" fill="none" stroke="#000" stroke-linecap="round" stroke-width="4.8046"/>
<path d="m364.701,806.1815 0,18.5432" fill="none" stroke="#000" stroke-linecap="round" stroke-width="4.8046"/>
<path d="m354.028,805.8128 0,18.5432" fill="none" stroke="#000" stroke-linecap="round" stroke-width="4.8046"/>
<path d="m444.9287,809.035 0,18.5432" fill="none" stroke="#000" stroke-linecap="round" stroke-width="4.8046"/>
<path d="m384.9373,890.9786 57.1429,0" fill="none" stroke="#000"/>
<path d="m387.9731,892.9429 57.1428,0" fill="none" stroke="#000"/>
<path d="m391.7231,894.9072 57.1428,0" fill="none" stroke="#000"/>
<path d="m415.4252,269.6878-17.4251,5.0508" fill="none" stroke="#000" transform="translate(0,602.3622)"/>
</g>
<path d="M-1013.5655,1395.65H-784.6509V1438.873H-1013.5655z" opacity=".99" stroke="#000" stroke-linecap="round" stroke-width="2.375" transform="matrix(1,0,.74329,.66896,0,0)"/>
<path d="m576.5036,683.7654 0,313.8904" fill="none" stroke="#000" stroke-width="5.6784"/>
<path d="m290.7935,683.0408 0,313.8904" fill="none" stroke="#000" stroke-width="5.6784"/>
<path d="m839.7203,1017.9038c.4393,.5102 1.0355,.5714 1.6702,.6073 .8029,-.022 1.6072,-.2139 2.3575,-.4994 .4009,-.1525 .6224,-.2824 .9965,-.4788-2.2386,1.3097-.9924,.6082-.5738,.1636 .2168,-.2303 .3463,-.473 .4686,-.7606 .3177,-.895 .3589,-1.8574 .4131,-2.7971 .1056,-1.3679-.1776,-2.7108-.4825,-4.0351-.3709,-1.393-.8746,-2.7467-1.4293,-4.0757-.2656,-.628-.5661,-1.2401-.8587,-1.8556-.3944,-.7567-.717,-.2868 1.5104,-1.1508 .0768,-.03 .0919,.1367 .1411,.2027 .0823,.1106 .1689,.218 .2533,.327 .8217,1.1275 1.8098,2.1155 2.8001,3.0928 .5826,.5674 1.2073,1.094 1.7645,1.6873 .2114,.1727 .3378,.416 .508,.6229 .1662,.1502 .2962,-.01 .4431,-.1106-2.5656,1.5384-1.6519,1.0412-1.1599,.5695 .1937,-.1858 .3764,-.3843 .5618,-.5782 .2632,-.2626 .5127,-.5438 .801,-.7804 .761,-.6244 1.8227,-1.1234 2.6097,-1.5711 .7271,-.3211 1.471,-.6005 2.2265,-.8467 .1563,-.034 .761,-.2664 .899,-.1093 .0321,.037 .0451,.086 .0677,.1294 .003,.044 .0154,.088 .009,.1323-.0436,.3197-.5385,.6916-.7545,.8904-.9928,.8208-1.9561,1.6745-2.8731,2.5792-.7976,.8557-1.6216,1.7004-2.2566,2.6874-.3921,.6165-.6005,1.2972-.6984,2.0144-.0648,.6415-.0542,1.2873-.0532,1.9312 .0351,.6998 .1244,1.4011 .3328,2.0715 .1195,.3571 .3319,.6194 .6717,.7762 .2255,.08 .4837,.1318 .7238,.087 .0559,-.01 .5216,-.1683 .5589,-.1808 .5492,-.2997 1.8756,-1.0005-.6067,.3599-.0982,.054 .1891,-.1202 .2821,-.1824 .2138,-.1431 .2651,-.1851 .4657,-.3347 .2405,-.18 .1266,-.092 .3424,-.2616l1.7191,-.6914c-.2178,.1831-.1012,.092-.3516,.2719-1.0139,.7828-2.137,1.4308-3.3009,1.9611-.5107,.1525-.8878,.2254-1.3851,-.01-.3662,-.2065-.6055,-.5061-.7343,-.9112-.2041,-.6903-.2811,-1.4089-.3481,-2.1237-.004,-.6503-.0146,-1.3022 .038,-1.9509 .0928,-.7432 .2887,-1.4525 .6884,-2.0955 .0801,-.1333 .153,-.2712 .2404,-.3997 .1797,-.264 .4481,-.5661 .6529,-.8036 .4526,-.5248 .9157,-1.0402 1.3938,-1.5419 .8918,-.8997 1.8318,-1.7498 2.8066,-2.5592 .2761,-.2563 .5618,-.5063 .8001,-.7993 .0396,.021-.0878,.017-.1321,.024-.221,.031-.4338,.1-.6466,.1641-.7471,.2466-1.4866,.5202-2.1959,.8624 2.4446,-1.4458 .9748,-.6249 .497,-.2573-.291,.224-.54,.5005-.7953,.7622-.9257,.9766-.9789,1.08-2.545,1.8884-.2567,.1213-.4002,.1069-.6009,-.1041-.1584,-.2095-.2854,-.443-.481,-.6232-.5334,-.6026-1.1282,-1.1493-1.6932,-1.7213-.9808,-.9984-1.9767,-1.985-2.8496,-3.0818-.0938,-.1054-.1877,-.2108-.2814,-.3163-.0521,-.059-.2154,-.125-.1559,-.1761 1.4141,-1.2139 1.334,-1.5318 1.6993,-.7303 .2757,.6281 .5663,1.2498 .8171,1.8885 .5249,1.353 1.0089,2.7232 1.4053,4.1198 .3185,1.3302 .6335,2.6814 .5419,4.0599-.0362,.9485-.0918,1.9144-.3493,2.8318-.0847,.2347-.1139,.3545-.249,.5692-.5938,.9436-1.8747,1.3891-2.7166,1.9248-1.0714,.5265-2.2113,.8988-3.4172,.9043-.1676,-.013-.3365,-.016-.5029,-.04-.4955,-.073-.9575,-.2895-1.3004,-.6569l1.6003,-.9608z" stroke="#000" stroke-linecap="round" stroke-linejoin="round" stroke-width=".2515"/>
<path d="m855.0849,1015.747c-.7394,.2071-2.342,1.1965 .4556,-.4044-.388,.2065-.6184,.5425-.7999,.9302-.1036,.3106-.2142,.651-.1917,.9845 .0156,.2306 .0756,.3465 .154,.562 .3071,.6067 .7794,1.1058 1.3399,1.4838 .4137,.2881 .8839,.4191 1.383,.4252 .3851,-.088 .743,-.2375 1.0957,-.4124 .1503,-.074 .5909,-.3178 .4467,-.232-1.6618,.9892-1.2456,.7222-.6575,.3195 .4842,-.373 1.0105,-.8057 1.1352,-1.4399 .0174,-.089 .0162,-.1799 .0243,-.2698-.032,-.7933-.5333,-1.4143-1.0169,-2.0008-.3049,-.3393-.6501,-.6629-1.0669,-.861-.2115,-.1006-.32,-.1184-.544,-.1779-.4519,-.025-.9255,.018-1.3546,.1741-.1984,.072-.499,.2394-.6834,.3368 2.5132,-1.5077 .8665,-.5123 .3482,-.062l-1.7106,.6998c.796,-.7657 1.8589,-1.2169 2.7842,-1.7769 .2686,-.1306 .4271,-.2208 .7141,-.308 .4568,-.1387 .9485,-.171 1.419,-.1017 .2419,.077 .34,.097 .5672,.2177 .4231,.2255 .772,.5679 1.084,.9255 .5088,.6265 1.0253,1.2756 1.1028,2.1095-.004,.1011 .002,.2032-.0112,.3035-.0928,.6825-.6005,1.1676-1.1167,1.5708-1.0013,.7186-.4882,.3708-2.4236,1.4671-.5043,.2856-1.0559,.5275-1.6351,.5951-.5218,-.046-1.0072,-.1999-1.4323,-.5165-.5749,-.4194-1.0583,-.9487-1.3949,-1.5795-.0785,-.2055-.1678,-.4012-.1946,-.6229-.0421,-.3472 .0735,-.712 .1572,-1.0429 .1608,-.4086 .3649,-.7959 .7491,-1.0357 .9031,-.5199 1.7482,-1.1164 2.7557,-1.3944l-1.4819,1.1332z" stroke="#000" stroke-linecap="round" stroke-linejoin="round" stroke-width=".2515"/>
<path d="m862.881,1016.5015c-.3202,.1024-.653,.1903-.9574,.3361-.1022,.049-.1982,.1101-.2973,.1652 .4207,-.2356 .8414,-.4712 1.2621,-.7068-.4994,.337-.87,.6738-1.0934,1.2386-.1462,.4653-.0761,.8587 .2923,1.2028 .0889,.083 .1935,.1478 .2903,.2216 .7042,.4046 1.5378,.5494 2.3444,.4638 .2312,-.024 .458,-.081 .687,-.1208 .53,-.1368 .7609,-.1749 1.2586,-.3838 .1651,-.069 .635,-.3304 .4812,-.2386-2.2382,1.3365-1.2251,.7542-.8736,.3984 .078,-.079 .1399,-.1722 .2098,-.2583 .3065,-.4796 .3144,-.9061 .0985,-1.417-.0396,-.09-.268,-.5604-.4291,-.4586-.0279,.018-.042,.051-.063,.076 2.5422,-1.4496 1.5743,-1.2072 1.3277,-.5007-.1064,.3049-.125,.6013-.1396,.9215 .1766,1.4863 .8332,2.8625 1.3726,4.2435 .6559,1.8244 1.2881,3.7176 1.3609,5.6744 .0145,.3894-.0234,.7791-.0351,1.1686-.0582,.3745-.0908,.754-.1745,1.1236-.2732,1.2059-.8948,2.3097-1.8179,3.137-.1627,.1458-.3469,.2657-.5204,.3986-.6941,.3626-1.3544,.7991-2.0824,1.0879-.3018,.1197-1.0302,-.13-1.2689,-.2365-.8875,-.3956-1.654,-1.0455-2.408,-1.6406-1.2719,-1.0888-2.5172,-2.2245-3.6551,-3.4553-.5895,-.6375-.7352,-.8521-1.2472,-1.5117-.4358,-.7271-.9494,-1.57-.521,-2.4271 .2535,-.5072 .5595,-.6912 .9842,-1.0605 1.2727,-.8247 1.3769,-.9186 3.2195,-1.8517 .4497,-.2277 1.9,-.7427 2.3438,-.8975 .8851,-.3088 1.8369,-.6148 2.7269,-.9056 2.3381,-.6744 4.6281,-1.4959 6.8914,-2.3864 .1921,-.082 .3845,-.1627 .5764,-.245 .1466,-.063 .2943,-.1233 .439,-.1904 .2958,-.137 .5721,-.3066 .8773,-.4229 .4138,-.059 .559,.4392 .6828,.7419 .2853,.7705 .446,1.5785 .5154,2.3953 .0171,.366 .029,.7337-.0228,1.0975-.005,.037 .0139,.095-.0201,.1109-.5544,.2582-1.1333,.4601-1.6999,.6902 10e-4,-.1126-.005,-.2255 .004,-.3377 .0133,-.1633 .0414,-.3251 .063,-.4875 .1257,-.9478 .2903,-1.8831 .4832,-2.8195 .1955,-.8169 .3644,-1.6723 .8312,-2.3853 .5286,-.5535 1.7043,-1.6447 2.2768,-1.0096 .0599,.067 .1019,.1472 .1529,.2208 .112,.1981 .2088,.3486 .2821,.568 .2061,.6172 .2986,1.3406 .4077,1.9824 .1424,.5555 .0881,1.2208 .2567,1.7655 .2229,-.5988-.002,.028-1.6032,.791-.0325,.015 .0489,-.053 .0671,-.085 .0417,-.071 .1233,-.28 .1551,-.3442 .0434,-.087 .0929,-.1719 .1393,-.2578 .3011,-.4826 .556,-.9925 .8877,-1.4553 .5547,-.695 1.0736,-.8467 2.0338,-1.3744 .0329,-.018 .0773,-.01 .1126,0 .045,.016 .08,.053 .12,.079 .3755,.395 .5063,.9539 .6331,1.4682 .1102,.56 .1691,1.1313 .374,1.667 .0499,.07 .0906,.1479 .1496,.2106 .4298,.4569 1.1407,.7985 1.727,.9843 .2206,.07 .4479,.1166 .6718,.1749 .9481,.2366 1.8995,.2483 2.8425,-.011 .2087,-.057 .4184,-.1172 .6161,-.2054 .1842,-.082 .3491,-.2019 .5237,-.3029-.3631,.1874-.6996,.4397-1.0894,.5622-.1503,.047 .2339,-.2118 .3412,-.3272 .3164,-.3401 .4973,-.7183 .6246,-1.1582 .0873,-.3664 .0858,-.7428 .0757,-1.1166-.1021,-.7716-.7838,-.012 1.5762,-.9706 .043,-.017-.0252,.09-.0325,.1353-.0105,.067-.0137,.1343-.0206,.2014-.0335,.6079-.0474,1.2172 .0202,1.8229 .0688,.3897 .1433,.7878 .4487,1.0613 .2149,.1415 .443,.1511 .6803,.073 .5712,-.2882 1.4287,-.7883-1.1689,.6781-.0922,.052 .1782,-.1142 .2658,-.1736l1.729,-.6875c-.1339,.1099-.1095,.099-.2632,.1885-.5841,.3415-1.3074,.9119-2.0466,1.1199-.2885,.031-.5575,-.032-.7831,-.2236-.314,-.3274-.4164,-.7448-.4864,-1.185-.0743,-.6127-.0594,-1.2282-.0514,-1.8445 .002,-.082 .01,-.3683 .0155,-.3721 1.2231,-.8124 1.6185,-1.5813 1.7738,-.6732 .009,.3928 .009,.788-.0729,1.1745-.4026,1.604-1.4656,1.9694-2.9269,2.8345-.1797,.091-.3518,.1981-.539,.2718-1.1255,.4431-2.3519,.4076-3.5096,.13-.2313,-.061-.4661,-.1105-.6938,-.1839-.5824,-.188-1.4014,-.59-1.8309,-1.0419-.0708,-.074-.1217,-.1654-.1826,-.2481-.2042,-.5463-.263,-1.1251-.3681,-1.696-.1059,-.4424-.211,-.9895-.5766,-1.2965-.0862,.011-.0417,0-.1309,.047 .494,-.2933 .9881,-.5865 1.4821,-.8798 .0418,-.024-.0765,.059-.1115,.092-.088,.083-.1593,.1827-.2543,.2588-.3546,.4458-.6103,.9514-.9065,1.4362-.1113,.1906-.2033,.3719-.2742,.581-.0144,.043 .002,.1065-.0369,.1297-1.6717,1.0055-1.301,1.4123-1.7676,.8263-.1403,-.5915-.0684,-1.2195-.2051,-1.8138-.1337,-.8319-.2366,-1.7229-.6888,-2.4507-.0786,-.094-.1124,-.1812-.2373,-.2043-.0338,-.01-.1319,.028-.1027,.01 .4848,-.3028 .9881,-.5749 1.4781,-.8692 .044,-.026-.0961,.038-.1396,.065-.0513,.032-.0953,.075-.1429,.1121-.5512,.6573-.7174,1.5447-.9403,2.3498-.2511,1.1609-.4667,2.3382-.5021,3.5279-.5413,.3318-1.0717,.6822-1.624,.9954-.0304,.017 .0302,-.063 .04,-.097 .1011,-.3479 .0723,-.7161 .0723,-1.073-.0467,-.7985-.196,-1.5926-.501,-2.3352-.0582,-.1343-.1651,-.5237-.3687,-.5375-.0472,0-.1338,.034-.1714,.048-.6021,.2681-1.1868,.5758-1.8125,.79-2.2433,.8437-4.5057,1.6345-6.8063,2.3092-1.3354,.4418-2.6801,.8688-3.988,1.3886-.3765,.1496-.7211,.3958-1.1182,.4762-.2039,.041 .7012,-.4449 .5142,-.3538-.2728,.1328-.5155,.32-.7733,.48-.4814,.3865-1.0718,.7863-1.1859,1.4525-.1123,.6558 .3053,1.2621 .5878,1.8057 .1747,.2387 .3409,.4838 .524,.716 1.2506,1.586 2.7723,2.9468 4.3216,4.2314 .7601,.5675 1.5353,1.2021 2.4338,1.5462 .2074,.079 .4249,.1396 .6456,.1641 .1883,.021 .6695,-.1886 .5676,-.029-.2123,.3325-.6509,.446-.9763,.669 .1821,-.1271 .3749,-.2403 .5464,-.3814 .9528,-.7839 1.6207,-1.8661 1.9179,-3.062 .0903,-.3634 .1256,-.7382 .1884,-1.1074 .0181,-.3841 .0641,-.768 .0543,-1.1525-.0495,-1.9411-.7079,-3.8142-1.3712,-5.6146-.5628,-1.3918-1.2476,-2.7639-1.4927,-4.2575-.008,-.3536 4.4e-4,-.6227 .086,-.9647 .005,-.019 .0997,-.3597 .142,-.3888 .5428,-.3738 1.1209,-.6937 1.6814,-1.0405 .0426,0 .0866,0 .1279,.01 .2648,.072 .3917,.401 .5024,.6157 .2357,.5565 .268,1.0516-.0318,1.5983-.068,.097-.1268,.202-.2041,.2923-.5521,.6452-1.6564,1.098-2.2184,1.4107-.5375,.2991-1.1558,.4269-1.747,.5653-.2367,.035-.4715,.087-.71,.1066-.852,.07-1.7224,-.083-2.4497,-.5408-.1044,-.083-.2169,-.1575-.3133,-.25-.4073,-.3914-.5345,-.8233-.3997,-1.3636 .2032,-.6461 .5218,-.9588 1.0648,-1.3565 1.0479,-.6191 1.9953,-1.302 3.1758,-1.5918l-1.4819,1.1332z" stroke="#000" stroke-linecap="round" stroke-linejoin="round" stroke-width=".2515"/>
<path d="m888.2918,1010.8518c-.2243,.2632-.4035,.5643-.4888,.9007-.0611,.3364 .1396,.4226 .4154,.5433 .4462,.1634 .8277,.1455 1.2847,.065 .6111,-.2095 1.5817,-.8065-1.1348,.6921-.0381,.021 .0724,-.049 .1046,-.078 .0766,-.07 .0844,-.099 .1345,-.1864 .0923,-.207 .0832,-.4007-.0356,-.5914-.1581,-.1498-.3958,-.1358-.5998,-.1457-.2107,.019-.4113,.072-.5826,.1981l1.4548,-1.1717c.2072,-.078 .4191,-.1279 .6429,-.1101 .2663,.026 .5282,.064 .7009,.2916 .1406,.2366 .1962,.4812 .1149,.7512-.2947,.8893-1.4141,1.2488-2.2801,1.4605-.4615,.058-.9177,.033-1.3515,-.1527-.3119,-.1609-.5915,-.3623-.5442,-.7527 .0576,-.3624 .2344,-.6871 .4467,-.9831l1.718,-.73z" stroke="#000" stroke-linecap="round" stroke-linejoin="round" stroke-width=".2515"/>
<path d="m864.4472,1015.3836c.3537,-.172 .6913,-.3752 1.0561,-.5235 .2286,-.1484 .4794,-.217 .7469,-.2463 .246,-.019 .4931,-.016 .7396,-.015 .2447,-.026 .452,.041 .667,.1458 .1505,.1206 .2692,.2808 .3835,.4358 .0994,.1805 .1578,.383 .2189,.5797 .0548,.2016 .1295,.3942 .169,.6001 .038,.2418 .0406,.4871 .0436,.7313 10e-4,.1259 9.1e-4,.2518 8.4e-4,.3777l-1.662,.8466c1.7e-4,-.1253 4.3e-4,-.2505-1.3e-4,-.3758-.002,-.2343-.002,-.4696-.0316,-.7024-.0328,-.2008-.1062,-.3854-.1597,-.5802-.0519,-.177-.1078,-.3572-.1882,-.5222-.0978,-.1282-.193,-.2747-.3336,-.3577-.1975,-.086-.4034,-.091-.6168,-.082-.2413,10e-4-.4842,-1e-4-.7231,.039-.2526,.053-.4803,.1621-.7103,.2775-.3579,.1664-.704,.3572-1.0509,.5451l1.4507,-1.1736z" stroke="#000" stroke-linecap="round" stroke-linejoin="round" stroke-width=".2515"/>
<path d="M58.8101,651.7737H245.6884A15.9099,15.9099 0 0 1 261.5983,667.6836V667.6836A15.9099,15.9099 0 0 1 245.6884,683.5935H58.8101A15.9099,15.9099 0 0 1 42.9002,667.6836V667.6836A15.9099,15.9099 0 0 1 58.8101,651.7737z" fill="#fff" stroke="#000" stroke-linecap="round" stroke-linejoin="round" stroke-width="4"/>
<path d="m101.5203,44.9288c0,19.2473-16.5075,34.8503-36.8706,34.8503-20.3631,0-36.8706,-15.603-36.8706,-34.8503 0,-19.2473 16.5075,-34.8503 36.8706,-34.8503 20.3631,0 36.8706,15.603 36.8706,34.8503z" stroke="#000" stroke-linecap="round" stroke-linejoin="round" stroke-width="7.491" transform="matrix(.7121,0,0,.7121,-2.38611,629.39669)"/>
<text font-family="Bitstream Vera Sans" font-size="40" x="19.2632" y="675.4307">
   <tspan fill="#f9f9f9" x="19.2632" y="675.4307">78</tspan>
  </text>
<text font-family="Bitstream Vera Sans" font-size="20" x="105.1732" y="674.4507">
   <tspan x="105.1732" y="674.4507">Verification</tspan>
  </text>
<path d="m446.8915,78.4154c0,2.9289-27.5427,5.3033-61.5183,5.3033-33.9756,0-61.5183,-2.3744-61.5183,-5.3033 0,-2.9289 27.5427,-5.3033 61.5183,-5.3033 33.9756,0 61.5183,2.3744 61.5183,5.3033z" stroke="#000" stroke-linecap="round" stroke-width="4.862" transform="translate(-271.9369,827.5817)"/>
<path d="m167.1945,819.11 0,47.8884c0,20.007-16.1067,36.1137-36.1137,36.1137l-35.434,0c-20.007,0-36.1137,-16.1067-36.1137,-36.1137l0,-47.8884" fill="#fff" stroke="#000" stroke-linecap="round" stroke-linejoin="round" stroke-width="3.6422"/>
<path d="M88.581,838.9215H112.115A.7803,.7803 0 0 1 112.8953,839.7018V849.7279A.7803,.7803 0 0 1 112.115,850.5082H88.581A.7803,.7803 0 0 1 87.8007,849.7279V839.7018A.7803,.7803 0 0 1 88.581,838.9215z" stroke="#000" stroke-linecap="square" stroke-linejoin="round" stroke-width="3.7338"/>
<path d="M129.972,838.9215H150.3848A2.3409,2.3409 0 0 1 152.7257,841.2624V848.1673A2.3409,2.3409 0 0 1 150.3848,850.5082H129.972A2.3409,2.3409 0 0 1 127.6311,848.1673V841.2624A2.3409,2.3409 0 0 1 129.972,838.9215z" stroke="#000" stroke-linecap="square" stroke-linejoin="round" stroke-width="3.7338"/>
<path d="m61.8412,843.9761c.5492,.0105 1.0986,.007 1.6478,.004 .363,-.002 .7259,-.004 1.0889,-.004 .2925,-4.3e-4 .585,-4e-4 .8775,-4e-4 .304,-6.3e-4 .6081,6e-4 .9121,.001 .3906,-.01 .7752,-3.7e-4 1.162,.0507 .3996,.0545 .8031,.0717 1.2062,.0827 .4052,-.0158 .8029,.0589 1.204,.099 .4079,.0368 .818,.0407 1.2274,.045 .4301,.002 .8603,.002 1.2904,6.5e-4 .3736,-7.6e-4 .7472,-10e-4 1.1208,-.002 .307,-7.7e-4 .6141,-9.8e-4 .9211,-10e-4 .2915,-8e-5 .583,-7e-5 .8745,-6e-5 .2915,10e-6 .5831,10e-6 .8746,10e-6 .3187,-3.9e-4 .6374,5.3e-4 .9561,.002 .3943,.002 .7885,4.4e-4 1.1828,-6.3e-4 .3709,-2.7e-4 .7418,4.7e-4 1.1126,10e-4 .3967,-1.7e-4 .7934,-8e-5 1.1902,-10e-4 .38,1.9e-4 .7599,7.4e-4 1.1399,1.6e-4 .3456,-10e-4 .6912,-10e-4 1.0367,2.5e-4 .5332,.003 1.0664,.004 1.5996,.006 .7266,.003 1.4533,.003 2.1799,10e-4 .5332,-10e-4 1.0664,-.005 1.5997,-.005 .4413,6.5e-4 .8826,-2e-5 1.3239,-.001 .0611,-2e-4 .1222,-4e-4 .1833,-6e-4l-1.746,1.1993c-.0605,-2.1e-4-.121,-4.1e-4-.1815,-6.1e-4-.4399,-.001-.8797,-.002-1.3196,-.002-.528,-2.2e-4-1.0559,-.004-1.5839,-.005-.7276,-.002-1.4552,-.002-2.1828,9.9e-4-.5391,.002-1.0782,.003-1.6173,.006-.3458,.002-.6916,.002-1.0375,2.6e-4-.3801,-5.7e-4-.7602,-3e-5-1.1404,1.5e-4-.3957,-9.9e-4-.7914,-8.9e-4-1.187,-.001-.3723,.001-.7447,.002-1.117,.002-.3937,-10e-4-.7873,-.003-1.181,-6.3e-4-.3206,10e-4-.6411,.002-.9617,.002-.2915,0-.5831,0-.8747,0-.2914,0-.5829,2e-5-.8743,-6e-5-.306,-1.3e-4-.612,-3.5e-4-.918,-9.6e-4-.372,-6.9e-4-.744,-8.4e-4-1.1161,-8.8e-4-.4302,-8.3e-4-.8603,7e-4-1.2904,-.004-.4148,-.006-.8303,-.0145-1.2428,-.0595-.3968,-.0446-.792,-.0972-1.193,-.0869-.4078,-.0152-.8149,-.0435-1.2193,-.0968-.382,-.0404-.7654,-.0292-1.1493,-.0278-.3051,5.6e-4-.6103,.002-.9155,10e-4-.2921,10e-6-.5842,3e-5-.8763,-4e-4-.3589,-6.7e-4-.7177,-.002-1.0765,-.004-.5532,-.003-1.1065,-.006-1.6597,.004l1.7494,-1.2016z" stroke="#000" stroke-linecap="square" stroke-linejoin="round" stroke-width=".4767"/>
<path d="m153.336,844.2528c.7039,.0118 1.4079,.0102 2.1119,.01 .6452,-8.9e-4 1.2905,-.003 1.9357,-.006 .4312,-.002 .8624,-.002 1.2935,-.003 .3398,-8.1e-4 .6796,-.002 1.0194,-.002 .2968,.0217 .5821,-.0575 .8738,-.0956 .2926,-.0341 .5877,-.039 .8821,-.0425 .2922,-.002 .5843,-10e-4 .8765,-8.4e-4 .2918,4e-4 .5836,5.3e-4 .8754,6.1e-4 .2918,5e-5 .5836,5e-5 .8754,5e-5 .2918,0 .5836,0 .8754,0 .3133,-6.1e-4 .6266,.001 .9398,.001 .3172,-2.5e-4 .6345,-6.9e-4 .9517,-9.3e-4 .2938,-1.8e-4 .5877,-2e-4 .8815,-2.1e-4 .1943,-10e-6 .0972,-10e-6 .2915,-10e-6l-1.7509,1.2027c-.1943,0-.0971,0-.2914,0-.2936,-2e-5-.5872,-4e-5-.8808,-2.2e-4-.3164,-2.3e-4-.6327,-6.8e-4-.9491,-9.3e-4-.3144,4e-5-.6287,.002-.9431,10e-4-.2918,10e-6-.5836,10e-6-.8754,10e-6-.2918,-10e-6-.5836,-10e-6-.8754,-1.2e-4-.2918,-1.3e-4-.5837,-3.7e-4-.8755,-7.2e-4-.2913,-2.3e-4-.5826,-.001-.8738,.004-.2893,.007-.5791,.0195-.8653,.0636-.2961,.0452-.5905,.0907-.8921,.0705-.3377,-4.3e-4-.6755,-.001-1.0132,-.002-.4283,-5.4e-4-.8565,-6.3e-4-1.2848,-.003-.6398,-.003-1.2796,-.005-1.9195,-.006-.7134,-4.8e-4-1.4269,-.002-2.1402,.01l1.747,-1.2z" stroke="#000" stroke-linecap="square" stroke-linejoin="round" stroke-width=".4767"/>
<path d="m113.0432,844.416c.5339,.0676 1.0726,.0889 1.6105,.1048 .4801,.0116 .9604,.0116 1.4405,.0103 .3964,-5e-4 .7929,-6.3e-4 1.1893,-.002 .7958,.0205 1.592,.0104 2.3879,.007 .4809,-.004 .9619,-.005 1.4428,-.007 .3835,3e-5 .767,-4.2e-4 1.1506,6e-4 .4032,.001 .8064,-9.5e-4 1.2096,-3.1e-4 .3638,-8.6e-4 .7277,-7.6e-4 1.0915,-6.6e-4 .3644,5.6e-4 .7288,2.2e-4 1.0931,-5.1e-4 .3481,10e-4 .6961,1.1e-4 1.0442,-4.5e-4 .3406,10e-4 .6811,4.5e-4 1.0217,-4e-5 .3008,-4.3e-4 .6016,-5.6e-4 .9024,-6.3e-4 .2516,.0585 .5047,.1006 .7628,.1209 .2799,.0172 .5606,.0173 .8409,.018 .2917,1.9e-4 .5833,-3.9e-4 .875,-6.8e-4 .146,-1.4e-4 .292,-2e-4 .4381,-2.6e-4l-1.7508,1.2027c-.146,10e-5-.292,1.9e-4-.438,3.5e-4-.292,3.2e-4-.584,10e-4-.876,-3.9e-4-.2852,-.002-.5709,-.005-.8549,-.0331-.2506,-.0293-.496,-.0897-.7478,-.105-.3002,-8e-5-.6004,-2e-4-.9006,-6.3e-4-.3405,-4.8e-4-.681,-10e-4-1.0215,-5e-5-.3476,-5.5e-4-.6953,-.002-1.0429,-4.4e-4-.3639,-7.3e-4-.7278,-10e-4-1.0916,-5.1e-4-.3632,1.1e-4-.7264,1.9e-4-1.0895,-6.6e-4-.4029,6.4e-4-.8058,-.002-1.2087,-3.1e-4-.3841,10e-4-.7682,5.8e-4-1.1523,6e-4-.4742,-.002-.9483,-.003-1.4224,-.007-.8027,-.004-1.6058,-.0132-2.4083,.007-.3958,-4.3e-4-.7915,4.6e-4-1.1873,-3.6e-4-.4785,-.003-.957,-.007-1.4353,-.0226-.5477,-.0212-1.0947,-.0538-1.64,-.107l1.7673,-1.1825z" stroke="#000" stroke-linecap="square" stroke-linejoin="round" stroke-width=".4767"/>
<path d="m74.5387,806.6027 0,18.5432" fill="none" stroke="#000" stroke-linecap="round" stroke-width="4.8046"/>
<path d="m84.0627,804.8484 0,18.5432" fill="none" stroke="#000" stroke-linecap="round" stroke-width="4.8046"/>
<path d="m92.9996,806.3127 0,18.5432" fill="none" stroke="#000" stroke-linecap="round" stroke-width="4.8046"/>
<path d="m104.6764,805.1454 0,18.5432" fill="none" stroke="#000" stroke-linecap="round" stroke-width="4.8046"/>
<path d="m114.835,807.332 0,18.5432" fill="none" stroke="#000" stroke-linecap="round" stroke-width="4.8046"/>
<path d="m126.4643,807.1566 0,18.5432" fill="none" stroke="#000" stroke-linecap="round" stroke-width="4.8046"/>
<path d="m136.9668,805.4425 0,18.5432" fill="none" stroke="#000" stroke-linecap="round" stroke-width="4.8046"/>
<path d="m146.8822,808.4794 0,18.5432" fill="none" stroke="#000" stroke-linecap="round" stroke-width="4.8046"/>
<path d="m157.5552,808.1107 0,18.5432" fill="none" stroke="#000" stroke-linecap="round" stroke-width="4.8046"/>
<path d="m66.6545,811.3329 0,18.5432" fill="none" stroke="#000" stroke-linecap="round" stroke-width="4.8046"/>
<text font-family="Bitstream Vera Sans" font-size="20" x="657.6091" y="762.4487">
   <tspan x="657.6091" y="762.4487"></tspan>
  </text>
<path d="M61.8341,909.8836H66.8341A3.5714,3.5714 0 0 1 70.4055,913.455V954.1693A3.5714,3.5714 0 0 1 66.8341,957.7408H61.8341A3.5714,3.5714 0 0 1 58.2626,954.1693V913.455A3.5714,3.5714 0 0 1 61.8341,909.8836z" fill="#fff" opacity=".99" stroke="#000" stroke-linecap="round" stroke-width="3"/>
<path d="M37.1912,890.2408H42.1912A3.5714,3.5714 0 0 1 45.7626,893.8122V934.5265A3.5714,3.5714 0 0 1 42.1912,938.0979H37.1912A3.5714,3.5714 0 0 1 33.6198,934.5265V893.8122A3.5714,3.5714 0 0 1 37.1912,890.2408z" fill="#fff" opacity=".99" stroke="#000" stroke-linecap="round" stroke-width="3"/>
<path d="M263.7983,914.3479H268.7983A3.5714,3.5714 0 0 1 272.3698,917.9193V958.6336A3.5714,3.5714 0 0 1 268.7983,962.205H263.7983A3.5714,3.5714 0 0 1 260.2269,958.6336V917.9193A3.5714,3.5714 0 0 1 263.7983,914.3479z" fill="#fff" opacity=".99" stroke="#000" stroke-linecap="round" stroke-width="3"/>
<path d="M239.1555,894.7051H244.1555A3.5714,3.5714 0 0 1 247.7269,898.2765V938.9908A3.5714,3.5714 0 0 1 244.1555,942.5622H239.1555A3.5714,3.5714 0 0 1 235.584,938.9908V898.2765A3.5714,3.5714 0 0 1 239.1555,894.7051z" fill="#fff" opacity=".99" stroke="#000" stroke-linecap="round" stroke-width="3"/>
<path d="M-965.1924,1331.0511H-736.2777V1374.2741H-965.1924z" fill="#fff" opacity=".99" stroke="#000" stroke-linecap="round" stroke-width="2.375" transform="matrix(1,0,.74329,.66896,0,0)"/>
<path d="M-963.4067,1326.2463H-734.492V1369.4693H-963.4067z" fill="#fff" opacity=".99" stroke="#000" stroke-linecap="round" stroke-width="2.375" transform="matrix(1,0,.74329,.66896,0,0)"/>
<path d="m235.584,911.6693-25,-21.4286 0,-81.7857 37.8571,0 25.7143,20.7143" fill="#fff" opacity=".99" stroke="#000" stroke-linecap="round" stroke-width="3"/>
<g transform="translate(27.5484,1.45)">
<path d="M113.2143,798.4336H198.2143A5.7143,5.7143 0 0 1 203.9286,804.1479V872.3622A5.7143,5.7143 0 0 1 198.2143,878.0765H113.2143A5.7143,5.7143 0 0 1 107.5,872.3622V804.1479A5.7143,5.7143 0 0 1 113.2143,798.4336z" fill="#fff" opacity=".99" stroke="#000" stroke-linecap="round" stroke-width="3"/>
<path d="M130,815.2194H190.7143A5.7143,5.7143 0 0 1 196.4286,820.9336V867.0051A5.7143,5.7143 0 0 1 190.7143,872.7194H130A5.7143,5.7143 0 0 1 124.2857,867.0051V820.9336A5.7143,5.7143 0 0 1 130,815.2194z" fill="#fff" opacity=".99" stroke="#000" stroke-linecap="round" stroke-width="3"/>
<path d="M141.9643,903.8132H184.1071A2.6562,2.6562 0 0 1 186.7633,906.4693V906.4693A2.6562,2.6562 0 0 1 184.1071,909.1255H141.9643A2.6562,2.6562 0 0 1 139.3081,906.4693V906.4693A2.6562,2.6562 0 0 1 141.9643,903.8132z" fill="#fff" opacity=".99" stroke="#000" stroke-linecap="round" stroke-width="2.3305"/>
<path d="M156.0714,242.1429H170.3571A5.7143,5.7143 0 0 1 176.0714,247.8571V297.5A5.7143,5.7143 0 0 1 170.3571,303.2143H156.0714A5.7143,5.7143 0 0 1 150.3571,297.5V247.8571A5.7143,5.7143 0 0 1 156.0714,242.1429z" fill="#fff" opacity=".99" stroke="#000" stroke-linecap="round" stroke-width="3" transform="translate(0,602.362)"/>
</g>
<path d="M-1362.3308,1702.8184H-1290.7569V1720.2937H-1362.3308z" fill="#fff" opacity=".99" stroke="#000" stroke-linecap="round" stroke-width="3.3583" transform="matrix(1,0,.85223,.52316,0,0)"/>
<path d="M236.4769,829.8836H274.3341V911.6693H236.4769z" fill="#fff" opacity=".99" stroke="#000" stroke-linecap="round" stroke-width="3"/>
<path d="M240.8453,858.8948H269.6085V882.301H240.8453z" fill="#fff" opacity=".99" stroke="#000" stroke-linecap="round" stroke-width="1.8796"/>
<path d="m236.4769,830.2405-5.2679,-5.2679" fill="none" stroke="#000" stroke-width="3"/>
<path d="m211.834,876.312c1.1674,55.3978 25.5214,99.341 36.4286,-8.2143" fill="none" stroke="#000"/>
<path d="M71.8341,902.7405C119.0836,916.8931 125.9254,984.9294 263.2626,874.8834" fill="none" stroke="#000"/>
<path d="m132.3698,901.1336c47.9124,12.2799 127.8431,95.7648 117.8572,-20.7143" fill="none" stroke="#000"/>
<path d="M247.7269,862.5622H248.7983V868.0979H247.7269z" opacity=".99" stroke="#000" stroke-linecap="round"/>
<path d="M262.9055,869.4372H263.9769V874.9729H262.9055z" opacity=".99" stroke="#000" stroke-linecap="round"/>
<path d="M250.0483,875.1515H251.1197V880.6872H250.0483z" opacity=".99" stroke="#000" stroke-linecap="round"/>
<path d="m263.2626,902.0263c-5.636,61.344-45.0104,90.8932-3.7352,68.4521 4.6602,-2.5337 25.2726,-5.0428 30.8781,-21.3093" fill="none" stroke="#000" stroke-width="2"/>
<path d="m266.25,295.8929c0,1.578-1.8788,2.8571-4.1964,2.8571-2.3176,0-4.1964,-1.2792-4.1964,-2.8571 0,-1.5779 1.8788,-2.8571 4.1964,-2.8571 2.3176,0 4.1964,1.2792 4.1964,2.8571z" opacity=".99" stroke="#000" stroke-linecap="round" stroke-width="2" transform="translate(1.2983,605.5977)"/>
<path d="m72.8301,292.8571c0,4.1421-2.946,7.5-6.5801,7.5-3.6341,0-6.5801,-3.3579-6.5801,-7.5 0,-4.1421 2.946,-7.5 6.5801,-7.5 3.6341,0 6.5801,3.3579 6.5801,7.5z" fill="#fff" opacity=".99" stroke="#000" stroke-linecap="round" stroke-width="2" transform="matrix(1,0,.46219,1,-133.16295,603.81169)"/>
<path d="m65.0483,900.2405c2.6981,-.8843 4.2829,-2.9995 8.9286,-4.2857" fill="none" stroke="#000"/>
<path d="m70.1376,897.2941c2.4362,1.4094 3.1631,3.7535 3.8393,6.1607" fill="none" stroke="#000"/>
<path d="m100.2269,893.2764 57.1429,0" fill="none" stroke="#000"/>
<path d="m103.2626,895.2407 57.1429,0" fill="none" stroke="#000"/>
<path d="m107.0126,897.205 57.1429,0" fill="none" stroke="#000"/>
<text font-family="Bitstream Vera Sans" font-size="20" x="150.405" y="729.1697">
   <tspan text-align="center" text-anchor="middle" x="150.405" y="729.1697">YES ! Mon projet</tspan>
   <tspan text-align="center" text-anchor="middle" x="153.1785" y="754.1697">marche enfin !</tspan>
  </text>
<path d="M-726.3019,1392.215H-497.3872V1435.438H-726.3019z" opacity=".99" stroke="#000" stroke-linecap="round" stroke-width="2.375" transform="matrix(1,0,.74329,.66896,0,0)"/>
<path d="m446.8915,78.4154c0,2.9289-27.5427,5.3033-61.5183,5.3033-33.9756,0-61.5183,-2.3744-61.5183,-5.3033 0,-2.9289 27.5427,-5.3033 61.5183,-5.3033 33.9756,0 61.5183,2.3744 61.5183,5.3033z" stroke="#000" stroke-linecap="round" stroke-width="4.862" transform="matrix(-1,0,0,1,783.5201,825.28379)"/>
<path d="M346.5445,907.5857H351.5445A3.5714,3.5714 0 0 1 355.1159,911.1571V951.8714A3.5714,3.5714 0 0 1 351.5445,955.4428H346.5445A3.5714,3.5714 0 0 1 342.9731,951.8714V911.1571A3.5714,3.5714 0 0 1 346.5445,907.5857z" fill="#fff" opacity=".99" stroke="#000" stroke-linecap="round" stroke-width="3"/>
<path d="M321.9016,887.9429H326.9016A3.5714,3.5714 0 0 1 330.473,891.5144V932.2286A3.5714,3.5714 0 0 1 326.9016,935.8001H321.9016A3.5714,3.5714 0 0 1 318.3302,932.2286V891.5144A3.5714,3.5714 0 0 1 321.9016,887.9429z" fill="#fff" opacity=".99" stroke="#000" stroke-linecap="round" stroke-width="3"/>
<path d="M548.5087,912.0501H553.5087A3.5714,3.5714 0 0 1 557.0802,915.6215V956.3358A3.5714,3.5714 0 0 1 553.5087,959.9072H548.5087A3.5714,3.5714 0 0 1 544.9373,956.3358V915.6215A3.5714,3.5714 0 0 1 548.5087,912.0501z" fill="#fff" opacity=".99" stroke="#000" stroke-linecap="round" stroke-width="3"/>
<path d="M523.8659,892.4072H528.8659A3.5714,3.5714 0 0 1 532.4373,895.9787V936.6929A3.5714,3.5714 0 0 1 528.8659,940.2644H523.8659A3.5714,3.5714 0 0 1 520.2944,936.6929V895.9787A3.5714,3.5714 0 0 1 523.8659,892.4072z" fill="#fff" opacity=".99" stroke="#000" stroke-linecap="round" stroke-width="3"/>
<path d="M-677.9288,1327.6161H-449.0141V1370.8391H-677.9288z" fill="#fff" opacity=".99" stroke="#000" stroke-linecap="round" stroke-width="2.375" transform="matrix(1,0,.74329,.66896,0,0)"/>
<path d="M-676.1431,1322.8113H-447.2284V1366.0343H-676.1431z" fill="#fff" opacity=".99" stroke="#000" stroke-linecap="round" stroke-width="2.375" transform="matrix(1,0,.74329,.66896,0,0)"/>
<path d="m520.2945,909.3715-25,-21.4286 0,-81.7857 37.8571,0 25.7143,20.7143" fill="#fff" opacity=".99" stroke="#000" stroke-linecap="round" stroke-width="3"/>
<g transform="translate(312.2591,-.8479)">
<path d="M113.2143,798.4336H198.2143A5.7143,5.7143 0 0 1 203.9286,804.1479V872.3622A5.7143,5.7143 0 0 1 198.2143,878.0765H113.2143A5.7143,5.7143 0 0 1 107.5,872.3622V804.1479A5.7143,5.7143 0 0 1 113.2143,798.4336z" fill="#fff" opacity=".99" stroke="#000" stroke-linecap="round" stroke-width="3"/>
<path d="M130,815.2194H190.7143A5.7143,5.7143 0 0 1 196.4286,820.9336V867.0051A5.7143,5.7143 0 0 1 190.7143,872.7194H130A5.7143,5.7143 0 0 1 124.2857,867.0051V820.9336A5.7143,5.7143 0 0 1 130,815.2194z" fill="#fff" opacity=".99" stroke="#000" stroke-linecap="round" stroke-width="3"/>
<path d="M141.9643,903.8132H184.1071A2.6562,2.6562 0 0 1 186.7633,906.4693V906.4693A2.6562,2.6562 0 0 1 184.1071,909.1255H141.9643A2.6562,2.6562 0 0 1 139.3081,906.4693V906.4693A2.6562,2.6562 0 0 1 141.9643,903.8132z" fill="#fff" opacity=".99" stroke="#000" stroke-linecap="round" stroke-width="2.3305"/>
<path d="M156.0714,242.1429H170.3571A5.7143,5.7143 0 0 1 176.0714,247.8571V297.5A5.7143,5.7143 0 0 1 170.3571,303.2143H156.0714A5.7143,5.7143 0 0 1 150.3571,297.5V247.8571A5.7143,5.7143 0 0 1 156.0714,242.1429z" fill="#fff" opacity=".99" stroke="#000" stroke-linecap="round" stroke-width="3" transform="translate(0,602.362)"/>
</g>
<path d="M-1073.8772,1698.426H-1002.3033V1715.9013H-1073.8772z" fill="#fff" opacity=".99" stroke="#000" stroke-linecap="round" stroke-width="3.3583" transform="matrix(1,0,.85223,.52316,0,0)"/>
<path d="M521.1873,827.5857H559.0445V909.3715H521.1873z" fill="#fff" opacity=".99" stroke="#000" stroke-linecap="round" stroke-width="3"/>
<path d="M525.5557,856.597H554.3189V880.0031H525.5557z" fill="#fff" opacity=".99" stroke="#000" stroke-linecap="round" stroke-width="1.8796"/>
<path d="m521.1873,827.9429-5.2679,-5.2679" fill="none" stroke="#000" stroke-width="3"/>
<path d="m496.5445,874.0143c1.1674,55.3978 25.5214,99.341 36.4286,-8.2143" fill="none" stroke="#000"/>
<path d="m356.5445,900.4429c47.2495,14.1525 54.0914,82.1889 191.4286,-27.8572" fill="none" stroke="#000"/>
<path d="m417.0802,898.8358c47.9124,12.2799 127.8431,95.7648 117.8572,-20.7143" fill="none" stroke="#000"/>
<path d="M532.4373,860.2643H533.5087V865.8001H532.4373z" opacity=".99" stroke="#000" stroke-linecap="round"/>
<path d="M547.6158,867.1393H548.6873V872.6751H547.6158z" opacity=".99" stroke="#000" stroke-linecap="round"/>
<path d="M534.7587,872.8536H535.8302V878.3894H534.7587z" opacity=".99" stroke="#000" stroke-linecap="round"/>
<path d="m547.973,899.7286c-5.636,61.344-45.0104,90.8932-3.7352,68.4521 4.6602,-2.5337 25.2726,-5.0428 30.8781,-21.3092" fill="none" stroke="#000" stroke-width="2"/>
<path d="m266.25,295.8929c0,1.578-1.8788,2.8571-4.1964,2.8571-2.3176,0-4.1964,-1.2792-4.1964,-2.8571 0,-1.5779 1.8788,-2.8571 4.1964,-2.8571 2.3176,0 4.1964,1.2792 4.1964,2.8571z" opacity=".99" stroke="#000" stroke-linecap="round" stroke-width="2" transform="translate(286.0091,603.2997)"/>
<path d="m72.8301,292.8571c0,4.1421-2.946,7.5-6.5801,7.5-3.6341,0-6.5801,-3.3579-6.5801,-7.5 0,-4.1421 2.946,-7.5 6.5801,-7.5 3.6341,0 6.5801,3.3579 6.5801,7.5z" fill="#fff" opacity=".99" stroke="#000" stroke-linecap="round" stroke-width="2" transform="matrix(1,0,.46219,1,151.54705,601.51469)"/>
<path d="m349.7588,897.9429c2.6981,-.8843 4.2829,-2.9995 8.9286,-4.2857" fill="none" stroke="#000"/>
<path d="m354.8481,894.9965c2.4362,1.4094 3.1631,3.7534 3.8393,6.1607" fill="none" stroke="#000"/>
<text font-family="Bitstream Vera Sans" font-size="20" x="434.6876" y="757.4424">
   <tspan text-align="center" text-anchor="middle" x="434.6876" y="757.4424">Serieux ? T'as tout testé ?</tspan>
  </text>
<path d="M-446.6987,1397.5538H-217.784V1440.7768H-446.6987z" opacity=".99" stroke="#000" stroke-linecap="round" stroke-width="2.375" transform="matrix(1,0,.74329,.66896,0,0)"/>
<path d="m446.8915,78.4154c0,2.9289-27.5427,5.3033-61.5183,5.3033-33.9756,0-61.5183,-2.3744-61.5183,-5.3033 0,-2.9289 27.5427,-5.3033 61.5183,-5.3033 33.9756,0 61.5183,2.3744 61.5183,5.3033z" stroke="#000" stroke-linecap="round" stroke-width="4.862" transform="translate(296.3451,828.8552)"/>
<path d="m735.4765,820.3836 0,47.8884c0,20.007-16.1067,36.1137-36.1137,36.1137l-35.434,0c-20.007,0-36.1137,-16.1067-36.1137,-36.1137l0,-47.8884" fill="#fff" stroke="#000" stroke-linecap="round" stroke-linejoin="round" stroke-width="3.6422"/>
<path d="M656.863,840.195H680.397A.7803,.7803 0 0 1 681.1773,840.9753V851.0014A.7803,.7803 0 0 1 680.397,851.7817H656.863A.7803,.7803 0 0 1 656.0827,851.0014V840.9753A.7803,.7803 0 0 1 656.863,840.195z" stroke="#000" stroke-linecap="square" stroke-linejoin="round" stroke-width="3.7338"/>
<path d="M698.2539,840.195H718.6668A2.3409,2.3409 0 0 1 721.0077,842.5359V849.4408A2.3409,2.3409 0 0 1 718.6668,851.7817H698.2539A2.3409,2.3409 0 0 1 695.9131,849.4408V842.5359A2.3409,2.3409 0 0 1 698.2539,840.195z" stroke="#000" stroke-linecap="square" stroke-linejoin="round" stroke-width="3.7338"/>
<path d="m630.1232,845.2496c.5492,.0105 1.0986,.007 1.6478,.004 .363,-.002 .7259,-.004 1.0889,-.004 .2925,-4.3e-4 .585,-4e-4 .8775,-4e-4 .304,-6.3e-4 .6081,6e-4 .9121,.001 .3906,-.01 .7752,-3.7e-4 1.162,.0507 .3996,.0545 .8031,.0717 1.2062,.0827 .4052,-.0158 .8029,.0589 1.204,.099 .4079,.0368 .818,.0407 1.2274,.045 .4301,.002 .8603,.002 1.2904,6.5e-4 .3736,-7.6e-4 .7472,-10e-4 1.1208,-.002 .307,-7.7e-4 .6141,-9.8e-4 .9211,-10e-4 .2915,-8e-5 .583,-7e-5 .8745,-6e-5 .2915,10e-6 .5831,10e-6 .8746,10e-6 .3187,-3.9e-4 .6374,5.3e-4 .9561,.002 .3943,.002 .7885,4.4e-4 1.1828,-6.3e-4 .3709,-2.7e-4 .7418,4.7e-4 1.1126,10e-4 .3967,-1.7e-4 .7934,-8e-5 1.1902,-10e-4 .38,1.9e-4 .7599,7.4e-4 1.1399,1.6e-4 .3456,-10e-4 .6912,-10e-4 1.0367,2.5e-4 .5332,.003 1.0664,.004 1.5996,.006 .7266,.003 1.4533,.003 2.1799,10e-4 .5332,-10e-4 1.0664,-.005 1.5997,-.005 .4413,6.5e-4 .8826,-2e-5 1.3239,-.001 .0611,-2e-4 .1222,-4e-4 .1833,-6e-4l-1.746,1.1993c-.0605,-2.1e-4-.121,-4.1e-4-.1815,-6.1e-4-.4399,-.001-.8797,-.002-1.3196,-.002-.528,-2.2e-4-1.0559,-.004-1.5839,-.005-.7276,-.002-1.4552,-.002-2.1828,9.9e-4-.5391,.002-1.0782,.003-1.6173,.006-.3458,.002-.6916,.002-1.0375,2.6e-4-.3801,-5.7e-4-.7602,-3e-5-1.1404,1.5e-4-.3957,-9.9e-4-.7914,-8.9e-4-1.187,-.001-.3723,.001-.7447,.002-1.117,.002-.3937,-10e-4-.7873,-.003-1.181,-6.3e-4-.3206,10e-4-.6411,.002-.9617,.002-.2915,0-.5831,0-.8747,0-.2914,0-.5829,2e-5-.8743,-6e-5-.306,-1.3e-4-.612,-3.5e-4-.918,-9.6e-4-.372,-6.9e-4-.744,-8.4e-4-1.1161,-8.8e-4-.4302,-8.3e-4-.8603,7e-4-1.2904,-.004-.4148,-.006-.8303,-.0145-1.2428,-.0595-.3968,-.0446-.792,-.0972-1.193,-.0869-.4078,-.0152-.8149,-.0435-1.2193,-.0968-.382,-.0404-.7654,-.0292-1.1493,-.0278-.3051,5.6e-4-.6103,.002-.9155,10e-4-.2921,10e-6-.5842,3e-5-.8763,-4e-4-.3589,-6.7e-4-.7177,-.002-1.0765,-.004-.5532,-.003-1.1065,-.006-1.6597,.004l1.7494,-1.2016z" stroke="#000" stroke-linecap="square" stroke-linejoin="round" stroke-width=".4767"/>
<path d="m721.618,845.5263c.7039,.0118 1.4079,.0102 2.1119,.01 .6452,-8.9e-4 1.2905,-.003 1.9357,-.006 .4312,-.002 .8624,-.002 1.2935,-.003 .3398,-8.1e-4 .6796,-.002 1.0194,-.002 .2968,.0217 .5821,-.0575 .8738,-.0956 .2926,-.0341 .5877,-.039 .8821,-.0425 .2922,-.002 .5843,-10e-4 .8765,-8.4e-4 .2918,4e-4 .5836,5.3e-4 .8754,6.1e-4 .2918,5e-5 .5836,5e-5 .8754,5e-5 .2918,0 .5836,0 .8754,0 .3133,-6.1e-4 .6266,.001 .9398,.001 .3172,-2.5e-4 .6345,-6.9e-4 .9517,-9.3e-4 .2938,-1.8e-4 .5877,-2e-4 .8815,-2.1e-4 .1943,-10e-6 .0972,-10e-6 .2915,-10e-6l-1.7509,1.2027c-.1943,0-.0971,0-.2914,0-.2936,-2e-5-.5872,-4e-5-.8808,-2.2e-4-.3164,-2.3e-4-.6327,-6.8e-4-.9491,-9.3e-4-.3144,4e-5-.6287,.002-.9431,10e-4-.2918,10e-6-.5836,10e-6-.8754,10e-6-.2918,-10e-6-.5836,-10e-6-.8754,-1.2e-4-.2918,-1.3e-4-.5837,-3.7e-4-.8755,-7.2e-4-.2913,-2.3e-4-.5826,-.001-.8738,.004-.2893,.007-.5791,.0195-.8653,.0636-.2961,.0452-.5905,.0907-.8921,.0705-.3377,-4.3e-4-.6755,-.001-1.0132,-.002-.4283,-5.4e-4-.8565,-6.3e-4-1.2848,-.003-.6398,-.003-1.2796,-.005-1.9195,-.006-.7134,-4.8e-4-1.4269,-.002-2.1402,.01l1.747,-1.2z" stroke="#000" stroke-linecap="square" stroke-linejoin="round" stroke-width=".4767"/>
<path d="m681.3252,845.6895c.5339,.0676 1.0726,.0889 1.6105,.1048 .4801,.0116 .9604,.0116 1.4405,.0103 .3964,-5e-4 .7929,-6.3e-4 1.1893,-.002 .7958,.0205 1.592,.0104 2.3879,.007 .4809,-.004 .9619,-.005 1.4428,-.007 .3835,3e-5 .767,-4.2e-4 1.1506,6e-4 .4032,.001 .8064,-9.5e-4 1.2096,-3.1e-4 .3638,-8.6e-4 .7277,-7.6e-4 1.0915,-6.6e-4 .3644,5.6e-4 .7288,2.2e-4 1.0931,-5.1e-4 .3481,10e-4 .6961,1.1e-4 1.0442,-4.5e-4 .3406,10e-4 .6811,4.5e-4 1.0217,-4e-5 .3008,-4.3e-4 .6016,-5.6e-4 .9024,-6.3e-4 .2516,.0585 .5047,.1006 .7628,.1209 .2799,.0172 .5606,.0173 .8409,.018 .2917,1.9e-4 .5833,-3.9e-4 .875,-6.8e-4 .146,-1.4e-4 .292,-2e-4 .4381,-2.6e-4l-1.7508,1.2027c-.146,10e-5-.292,1.9e-4-.438,3.5e-4-.292,3.2e-4-.584,10e-4-.876,-3.9e-4-.2852,-.002-.5709,-.005-.8549,-.0331-.2506,-.0293-.496,-.0897-.7478,-.105-.3002,-8e-5-.6004,-2e-4-.9006,-6.3e-4-.3405,-4.8e-4-.681,-10e-4-1.0215,-5e-5-.3476,-5.5e-4-.6953,-.002-1.0429,-4.4e-4-.3639,-7.3e-4-.7278,-10e-4-1.0916,-5.1e-4-.3632,1.1e-4-.7264,1.9e-4-1.0895,-6.6e-4-.4029,6.4e-4-.8058,-.002-1.2087,-3.1e-4-.3841,10e-4-.7682,5.8e-4-1.1523,6e-4-.4742,-.002-.9483,-.003-1.4224,-.007-.8027,-.004-1.6058,-.0132-2.4083,.007-.3958,-4.3e-4-.7915,4.6e-4-1.1873,-3.6e-4-.4785,-.003-.957,-.007-1.4353,-.0226-.5477,-.0212-1.0947,-.0538-1.64,-.107l1.7673,-1.1825z" stroke="#000" stroke-linecap="square" stroke-linejoin="round" stroke-width=".4767"/>
<path d="m642.8207,807.8762 0,18.5432" fill="none" stroke="#000" stroke-linecap="round" stroke-width="4.8046"/>
<path d="m652.3447,806.1219 0,18.5432" fill="none" stroke="#000" stroke-linecap="round" stroke-width="4.8046"/>
<path d="m661.2816,807.5862 0,18.5432" fill="none" stroke="#000" stroke-linecap="round" stroke-width="4.8046"/>
<path d="m672.9584,806.419 0,18.5432" fill="none" stroke="#000" stroke-linecap="round" stroke-width="4.8046"/>
<path d="m683.117,808.6056 0,18.5432" fill="none" stroke="#000" stroke-linecap="round" stroke-width="4.8046"/>
<path d="m694.7463,808.4302 0,18.5432" fill="none" stroke="#000" stroke-linecap="round" stroke-width="4.8046"/>
<path d="m705.2488,806.716 0,18.5432" fill="none" stroke="#000" stroke-linecap="round" stroke-width="4.8046"/>
<path d="m715.1642,809.7529 0,18.5432" fill="none" stroke="#000" stroke-linecap="round" stroke-width="4.8046"/>
<path d="m725.8372,809.3842 0,18.5432" fill="none" stroke="#000" stroke-linecap="round" stroke-width="4.8046"/>
<path d="m634.9365,812.6065 0,18.5432" fill="none" stroke="#000" stroke-linecap="round" stroke-width="4.8046"/>
<path d="M630.1159,911.1572H635.1159A3.5714,3.5714 0 0 1 638.6873,914.7286V955.4429A3.5714,3.5714 0 0 1 635.1159,959.0143H630.1159A3.5714,3.5714 0 0 1 626.5445,955.4429V914.7286A3.5714,3.5714 0 0 1 630.1159,911.1572z" fill="#fff" opacity=".99" stroke="#000" stroke-linecap="round" stroke-width="3"/>
<path d="M605.473,891.5143H610.473A3.5714,3.5714 0 0 1 614.0445,895.0858V935.8001A3.5714,3.5714 0 0 1 610.473,939.3715H605.473A3.5714,3.5714 0 0 1 601.9016,935.8001V895.0858A3.5714,3.5714 0 0 1 605.473,891.5143z" fill="#fff" opacity=".99" stroke="#000" stroke-linecap="round" stroke-width="3"/>
<path d="M832.0802,915.6215H837.0802A3.5714,3.5714 0 0 1 840.6516,919.1929V959.9072A3.5714,3.5714 0 0 1 837.0802,963.4786H832.0802A3.5714,3.5714 0 0 1 828.5087,959.9072V919.1929A3.5714,3.5714 0 0 1 832.0802,915.6215z" fill="#fff" opacity=".99" stroke="#000" stroke-linecap="round" stroke-width="3"/>
<path d="M807.4373,895.9786H812.4373A3.5714,3.5714 0 0 1 816.0088,899.5501V940.2644A3.5714,3.5714 0 0 1 812.4373,943.8358H807.4373A3.5714,3.5714 0 0 1 803.8659,940.2644V899.5501A3.5714,3.5714 0 0 1 807.4373,895.9786z" fill="#fff" opacity=".99" stroke="#000" stroke-linecap="round" stroke-width="3"/>
<path d="M-398.3256,1332.955H-169.4109V1376.178H-398.3256z" fill="#fff" opacity=".99" stroke="#000" stroke-linecap="round" stroke-width="2.375" transform="matrix(1,0,.74329,.66896,0,0)"/>
<path d="M-396.5399,1328.1501H-167.6252V1371.3731H-396.5399z" fill="#fff" opacity=".99" stroke="#000" stroke-linecap="round" stroke-width="2.375" transform="matrix(1,0,.74329,.66896,0,0)"/>
<path d="m803.8659,912.9429-25,-21.4286 0,-81.7857 37.8571,0 25.7143,20.7143" fill="#fff" opacity=".99" stroke="#000" stroke-linecap="round" stroke-width="3"/>
<g transform="translate(595.8301,2.7235)">
<path d="M113.2143,798.4336H198.2143A5.7143,5.7143 0 0 1 203.9286,804.1479V872.3622A5.7143,5.7143 0 0 1 198.2143,878.0765H113.2143A5.7143,5.7143 0 0 1 107.5,872.3622V804.1479A5.7143,5.7143 0 0 1 113.2143,798.4336z" fill="#fff" opacity=".99" stroke="#000" stroke-linecap="round" stroke-width="3"/>
<path d="M130,815.2194H190.7143A5.7143,5.7143 0 0 1 196.4286,820.9336V867.0051A5.7143,5.7143 0 0 1 190.7143,872.7194H130A5.7143,5.7143 0 0 1 124.2857,867.0051V820.9336A5.7143,5.7143 0 0 1 130,815.2194z" fill="#fff" opacity=".99" stroke="#000" stroke-linecap="round" stroke-width="3"/>
<path d="M141.9643,903.8132H184.1071A2.6562,2.6562 0 0 1 186.7633,906.4693V906.4693A2.6562,2.6562 0 0 1 184.1071,909.1255H141.9643A2.6562,2.6562 0 0 1 139.3081,906.4693V906.4693A2.6562,2.6562 0 0 1 141.9643,903.8132z" fill="#fff" opacity=".99" stroke="#000" stroke-linecap="round" stroke-width="2.3305"/>
<path d="M156.0714,242.1429H170.3571A5.7143,5.7143 0 0 1 176.0714,247.8571V297.5A5.7143,5.7143 0 0 1 170.3571,303.2143H156.0714A5.7143,5.7143 0 0 1 150.3571,297.5V247.8571A5.7143,5.7143 0 0 1 156.0714,242.1429z" fill="#fff" opacity=".99" stroke="#000" stroke-linecap="round" stroke-width="3" transform="translate(0,602.362)"/>
</g>
<path d="M-796.1236,1705.2528H-724.5497V1722.7281H-796.1236z" fill="#fff" opacity=".99" stroke="#000" stroke-linecap="round" stroke-width="3.3583" transform="matrix(1,0,.85223,.52316,0,0)"/>
<path d="M804.7588,831.1572H842.6159V912.9429H804.7588z" fill="#fff" opacity=".99" stroke="#000" stroke-linecap="round" stroke-width="3"/>
<path d="M809.1271,860.1684H837.8904V883.5745H809.1271z" fill="#fff" opacity=".99" stroke="#000" stroke-linecap="round" stroke-width="1.8796"/>
<path d="m804.7588,831.5143-5.2679,-5.2679" fill="none" stroke="#000" stroke-width="3"/>
<path d="m780.1159,877.5857c1.1674,55.3978 25.5214,99.341 36.4286,-8.2143" fill="none" stroke="#000"/>
<path d="m640.1159,904.0143c47.2495,14.1525 54.0914,82.1889 191.4286,-27.8571" fill="none" stroke="#000"/>
<path d="m700.6516,902.4071c47.9124,12.2799 127.8431,95.7648 117.8572,-20.7143" fill="none" stroke="#000"/>
<path d="M816.0087,863.8357H817.0802V869.3715H816.0087z" opacity=".99" stroke="#000" stroke-linecap="round"/>
<path d="M831.1873,870.7107H832.2587V876.2465H831.1873z" opacity=".99" stroke="#000" stroke-linecap="round"/>
<path d="M818.3302,876.4251H819.4016V881.9608H818.3302z" opacity=".99" stroke="#000" stroke-linecap="round"/>
<path d="m831.5445,903.3c-5.636,61.344-45.0104,90.8932-3.7352,68.4521 4.6602,-2.5337 25.2726,-5.0428 30.8781,-21.3092" fill="none" stroke="#000" stroke-width="2"/>
<path d="m266.25,295.8929c0,1.578-1.8788,2.8571-4.1964,2.8571-2.3176,0-4.1964,-1.2792-4.1964,-2.8571 0,-1.5779 1.8788,-2.8571 4.1964,-2.8571 2.3176,0 4.1964,1.2792 4.1964,2.8571z" opacity=".99" stroke="#000" stroke-linecap="round" stroke-width="2" transform="translate(569.5801,606.8717)"/>
<path d="m72.8301,292.8571c0,4.1421-2.946,7.5-6.5801,7.5-3.6341,0-6.5801,-3.3579-6.5801,-7.5 0,-4.1421 2.946,-7.5 6.5801,-7.5 3.6341,0 6.5801,3.3579 6.5801,7.5z" fill="#fff" opacity=".99" stroke="#000" stroke-linecap="round" stroke-width="2" transform="matrix(1,0,.46219,1,435.11905,605.08569)"/>
<path d="m633.3302,901.5143c2.6981,-.8843 4.2829,-2.9995 8.9286,-4.2857" fill="none" stroke="#000"/>
<path d="m638.4195,898.5679c2.4362,1.4094 3.1631,3.7535 3.8393,6.1607" fill="none" stroke="#000"/>
<path d="m668.5088,894.55 57.1429,0" fill="none" stroke="#000"/>
<path d="m671.5445,896.5143 57.1428,0" fill="none" stroke="#000"/>
<path d="m675.2945,898.4786 57.1428,0" fill="none" stroke="#000"/>
<text font-family="Bitstream Vera Sans" font-size="20" x="723.1404" y="724.3458">
   <tspan text-align="center" text-anchor="middle" x="723.1404" y="724.3458">Non... ça compile, donc</tspan>
   <tspan text-align="center" text-anchor="middle" x="723.1404" y="749.3458">ça marche !</tspan>
  </text>
<path d="m666.4481,272.9708c5.8926,6.9652 11.7851,5.258 17.6777,7.8287" fill="none" stroke="#000" transform="translate(0,602.3622)"/>
<path d="M702.7777,759.3672 686.6153,796.9954" fill="none" stroke="#000"/>
<path d="m91.4188,270.1929c5.5599,5.4194 12.5902,7.1628 19.4454,9.3439" fill="none" stroke="#000" transform="translate(0,602.3622)"/>
<text font-family="Bitstream Vera Sans" font-size="20" x="273.9768" y="276.1634">
   <tspan text-align="center" text-anchor="middle" x="273.9768" y="276.1634"></tspan>
  </text>
<text font-family="Bitstream Vera Sans" font-size="20" x="834.7321" y="-185.7851">
   <tspan text-align="center" text-anchor="middle" x="834.7321" y="-185.7851"></tspan>
  </text>
<text font-family="Bitstream Vera Sans" font-size="20" x="603.5714" y="-2.6378">
   <tspan x="603.5714" y="-2.6378"></tspan>
  </text>
<path d="m258.5714,357.1429c0,3.5504-14.2309,6.4286-31.7857,6.4286-17.5548,0-31.7857,-2.8782-31.7857,-6.4286 0,-3.5504 14.2309,-6.4286 31.7857,-6.4286 17.5548,0 31.7857,2.8782 31.7857,6.4286z" stroke="#000" stroke-linecap="round" stroke-linejoin="round" stroke-width="7.5" transform="matrix(-1.02112,0,0,.66001,572.27622,745.74251)"/>
<path d="m353.4002,892.6064-25.0879,0c-4.0777,21.9291-23.3646,16.5919-25.7383,25.7383l4.3155,39.9728c8.5097,14.9682 19.398,24.4693 30.0538,24.1691l6.6492,0c10.7779,-.5802 27.2745,-13.5118 30.0538,-27.3076l5.4924,-36.8343c-1.6763,-6.3565-16.7206,-1.0293-25.7383,-25.7383z" fill="#fff" stroke="#000" stroke-linecap="round" stroke-linejoin="round" stroke-width="2.8289"/>
<path d="m367.2998,914.9518c-1.2168,-.1015-2.421,-.1871-3.6408,-.132-1.2555,-.009-2.5023,.0734-3.7542,.1537-.9913,.0254-1.9731,.0353-2.9612,.1127-1.4462,.0802-2.895,.2821-4.3213,.5379-.7239,.0915-1.4233,.2571-2.1252,.4493l4.5569,3.6152c.6775,-.1854 1.3633,-.3189 2.0567,-.4319 1.4251,-.2327 2.8607,-.4411 4.3062,-.4758 .984,-.0615 1.9705,-.034 2.9536,-.1177 1.2463,-.0909 2.4917,-.1232 3.7412,-.1384 1.2128,-.0269 2.4183,.088 3.625,.2025l-4.4368,-3.7755z" stroke="#000" stroke-linecap="round" stroke-linejoin="round" stroke-width="1.5535"/>
<path d="m325.1397,918.4071c1.2062,-.1899 2.4009,-.363 3.6216,-.3969 1.2515,-.1006 2.501,-.1092 3.7554,-.1204 .9906,-.0468 1.9705,-.1086 2.9615,-.1034 1.4482,-.0254 2.908,.0704 4.349,.2216 .7286,.0384 1.4382,.1527 2.1523,.2932l-4.2814,3.9376c-.6892,-.1356-1.3828,-.2187-2.0826,-.2809-1.4382,-.1283-2.8852,-.2314-4.3294,-.1608-.9859,.0104-1.9677,.1096-2.9543,.0978-1.2496,1.3e-4-2.4941,.0586-3.7413,.1346-1.2115,.0615-2.4054,.264-3.6006,.4662l4.1499,-4.0888z" stroke="#000" stroke-linecap="round" stroke-linejoin="round" stroke-width="1.5535"/>
<path d="m538.4195,257.9523c0,3.0469-2.4032,5.5169-5.3678,5.5169-2.9646,0-5.3678,-2.47-5.3678,-5.5169 0,-3.0469 2.4032,-5.5169 5.3678,-5.5169 2.9646,0 5.3678,2.47 5.3678,5.5169z" fill="#fff" stroke="#000" stroke-linecap="round" stroke-linejoin="round" stroke-width="2" transform="matrix(-.77674,0,0,.77674,751.34662,734.4794)"/>
<path d="m555.2684,260.4871c0,.9058-.4005,1.6402-.8946,1.6402-.4941,0-.8946,-.7343-.8946,-1.6402 0,-.9058 .4005,-1.6402 .8946,-1.6402 .4941,0 .8946,.7343 .8946,1.6402z" fill="#fff" stroke="#000" stroke-linecap="round" stroke-linejoin="round" stroke-width="2" transform="matrix(-.77674,0,0,.77674,769.72168,732.48243)"/>
<g transform="matrix(-.77674,0,0,.77674,769.23031,733.90033)">
<path d="m538.4195,257.9523c0,3.0469-2.4032,5.5169-5.3678,5.5169-2.9646,0-5.3678,-2.47-5.3678,-5.5169 0,-3.0469 2.4032,-5.5169 5.3678,-5.5169 2.9646,0 5.3678,2.47 5.3678,5.5169z" fill="#fff" stroke="#000" stroke-linecap="round" stroke-linejoin="round" stroke-width="2"/>
<path d="m555.2684,260.4871c0,.9058-.4005,1.6402-.8946,1.6402-.4941,0-.8946,-.7343-.8946,-1.6402 0,-.9058 .4005,-1.6402 .8946,-1.6402 .4941,0 .8946,.7343 .8946,1.6402z" fill="#fff" stroke="#000" stroke-linecap="round" stroke-linejoin="round" stroke-width="2" transform="translate(-23.6822,-2.4475)"/>
</g>
<path d="m258.5714,357.1429c0,3.5504-14.2309,6.4286-31.7857,6.4286-17.5548,0-31.7857,-2.8782-31.7857,-6.4286 0,-3.5504 14.2309,-6.4286 31.7857,-6.4286 17.5548,0 31.7857,2.8782 31.7857,6.4286z" stroke="#000" stroke-linecap="round" stroke-linejoin="round" stroke-width="7.5" transform="matrix(-1.02112,0,0,.66001,855.56938,746.41162)"/>
<path d="m636.6934,893.2755-25.0879,0c-4.0777,21.9291-23.3646,16.5919-25.7383,25.7383l4.3155,39.9728c8.5097,14.9682 19.398,24.4693 30.0538,24.1691l6.6492,0c10.7779,-.5802 27.2745,-13.5118 30.0538,-27.3076l5.4924,-36.8343c-1.6763,-6.3565-16.7206,-1.0293-25.7383,-25.7383z" fill="#fff" stroke="#000" stroke-linecap="round" stroke-linejoin="round" stroke-width="2.8289"/>
<path d="m538.4195,257.9523c0,3.0469-2.4032,5.5169-5.3678,5.5169-2.9646,0-5.3678,-2.47-5.3678,-5.5169 0,-3.0469 2.4032,-5.5169 5.3678,-5.5169 2.9646,0 5.3678,2.47 5.3678,5.5169z" fill="#fff" stroke="#000" stroke-linecap="round" stroke-linejoin="round" stroke-width="2" transform="matrix(-.77674,0,0,.77674,1034.63981,735.1485)"/>
<path d="m555.2684,260.4871c0,.9058-.4005,1.6402-.8946,1.6402-.4941,0-.8946,-.7343-.8946,-1.6402 0,-.9058 .4005,-1.6402 .8946,-1.6402 .4941,0 .8946,.7343 .8946,1.6402z" fill="#fff" stroke="#000" stroke-linecap="round" stroke-linejoin="round" stroke-width="2" transform="matrix(-.77674,0,0,.77674,1053.01487,733.15153)"/>
<g transform="matrix(-.77674,0,0,.77674,1052.5235,734.56943)">
<path d="m538.4195,257.9523c0,3.0469-2.4032,5.5169-5.3678,5.5169-2.9646,0-5.3678,-2.47-5.3678,-5.5169 0,-3.0469 2.4032,-5.5169 5.3678,-5.5169 2.9646,0 5.3678,2.47 5.3678,5.5169z" fill="#fff" stroke="#000" stroke-linecap="round" stroke-linejoin="round" stroke-width="2"/>
<path d="m555.2684,260.4871c0,.9058-.4005,1.6402-.8946,1.6402-.4941,0-.8946,-.7343-.8946,-1.6402 0,-.9058 .4005,-1.6402 .8946,-1.6402 .4941,0 .8946,.7343 .8946,1.6402z" fill="#fff" stroke="#000" stroke-linecap="round" stroke-linejoin="round" stroke-width="2" transform="translate(-23.6822,-2.4475)"/>
</g>
<path d="m646.259,914.4321c-1.1261,.472-2.2337,.9523-3.2902,1.5645-1.1177,.5719-2.1855,1.2209-3.2588,1.8703-.8675,.4804-1.7338,.9427-2.5744,1.4677-1.2456,.7391-2.4374,1.5874-3.5843,2.473-.5998,.4155-1.1436,.8854-1.6774,1.38l5.7115,1.1017c.5153,-.4774 1.0618,-.9125 1.6247,-1.333 1.1565,-.8647 2.3336,-1.7125 3.5996,-2.4109 .8443,-.509 1.732,-.9403 2.5654,-1.4686 1.0634,-.6563 2.1531,-1.2602 3.2543,-1.8507 1.0632,-.584 2.1855,-1.0389 3.3087,-1.4947l-5.679,-1.2994z" stroke="#000" stroke-linecap="round" stroke-linejoin="round" stroke-width="1.5535"/>
<path d="m611.1896,922.301c1.2176,.0909 2.4203,.1955 3.6164,.4415 1.2413,.1882 2.4598,.4654 3.6835,.7414 .975,.1808 1.9431,.3448 2.9067,.5764 1.4157,.3064 2.8148,.7333 4.1832,1.21 .7006,.204 1.3652,.4775 2.0282,.7775l-5.0682,2.8545c-.6399,-.2895-1.2962,-.5291-1.9633,-.7496-1.3708,-.4537-2.7559,-.8849-4.178,-1.1463-.9621,-.2154-1.9406,-.3431-2.8984,-.5802-1.2166,-.2856-2.4415,-.5131-3.673,-.7243-1.1935,-.2171-2.4021,-.2929-3.6118,-.3693l4.9747,-3.0318z" stroke="#000" stroke-linecap="round" stroke-linejoin="round" stroke-width="1.5535"/>
<path d="m626.7211,961.616-18.218,-3.9559" fill="none" stroke="#000" stroke-width="1.2943"/>
<path d="m333.5714,171.4286 7.1429,72.8571" fill="none" stroke="#000" transform="translate(0,602.3622)"/>
<path d="m334.8656,358.0761c0,1.6737-1.4699,3.0305-3.283,3.0305-1.8132,0-3.283,-1.3568-3.283,-3.0305 0,-1.6737 1.4699,-3.0305 3.283,-3.0305 1.8132,0 3.283,1.3568 3.283,3.0305z" transform="translate(3.5355,602.3622)"/>
<path d="m138.5714,160-17.8571,33.5714" fill="none" stroke="#000" transform="translate(0,602.3622)"/>
<path d="m349.6566,904.0871 5.3473,1.8715c3.787,5.1692 6.7205,10.6824 19.5175,14.1702 .6873,14.08 5.4584,15.0597 9.6251,16.3091 4.1153,-1.7066 4.5706,-8.1777 6.4167,-12.8334 7.7294,-11.6353 6.2969,-21.0177-1.3368,-28.8752 .6699,-1.0435 .2245,.1349 .3915,-2.1658-.4863,-.0861-3.1786,-1.9369-6.1493,-4.0104-1.6649,.5867-1.3079,-.1815-1.7284,1.8984 .3184,-2.0345-.7058,-3.532-1.6042,-5.0799-1.1695,-1.2191-3.5253,-2.6359-6.1952,-4.105 .6218,-1.8375-.762,-3.3886-1.8257,-4.9854-4.1665,-3.0777-8.1134,-3.9485-12.0313,-4.2778-6.3062,-2.8403-11.6016,-3.9095-13.9029,.2674-2.2066,-.2941-3.6748,-1.5113-7.7535,.5347-8.784,-2.3145-10.0738,4.1574-11.764,10.1598-1.6737,1.1108-3.5918,.9073-5.0178,.2836-6.7117,-2.7564-8.8217,3.1999-13.6976,8.5394-8.9904,-5.0801-7.9002,8.6265-11.764,13.1008-6.8351,-4.8958-9.3996,31.7202 2.2496,32.0511 .5773,3.9803 1.6875,5.2964 2.7519,6.8406 3.7515,2.6059 4.1169,2.0078 6.1007,2.9411 1.1562,-.267-1.8662,-7.6429-2.0119,-10.8187 2.7619,-5.2584 2.8945,-11.3933 2.6736,-17.646l2.6736,-1.6042c7.2982,4.9402 10.2116,-4.1653 15.2397,-6.4167 2.1895,1.1422 4.2112,.2705 6.1493,-1.6042 13.0421,5.2947 15.4774,.0438 17.646,-4.5452z" stroke="#000" stroke-width="0"/>
<path d="m632.0045,901.4483 5.3473,1.8715c3.787,5.1692 6.7205,10.6824 19.5175,14.1702 .6873,14.08 5.4584,15.0597 9.6251,16.3091 4.1153,-1.7066 4.5706,-8.1777 6.4167,-12.8334 7.7294,-11.6353 6.2969,-21.0177-1.3368,-28.8752 .6699,-1.0435 .2245,.1349 .3915,-2.1658-.4863,-.0861-3.1786,-1.9369-6.1493,-4.0104-1.6649,.5867-1.3079,-.1815-1.7284,1.8984 .3184,-2.0345-.7058,-3.532-1.6042,-5.0799-1.1695,-1.2191-3.5253,-2.6359-6.1952,-4.105 .6218,-1.8375-.762,-3.3886-1.8257,-4.9854-4.1665,-3.0777-8.1134,-3.9485-12.0313,-4.2778-6.3062,-2.8403-11.6016,-3.9095-13.9029,.2674-2.2066,-.2941-3.6748,-1.5113-7.7535,.5347-8.784,-2.3145-10.0738,4.1574-11.764,10.1598-1.6737,1.1108-3.5918,.9073-5.0178,.2836-6.7117,-2.7564-8.8217,3.1999-13.6976,8.5394-8.9904,-5.0801-7.9002,8.6265-11.764,13.1008-6.8351,-4.8958-9.3996,31.7202 2.2496,32.0511 .5773,3.9803 1.6875,5.2964 2.7519,6.8406 3.7515,2.6059 4.1169,2.0078 6.1007,2.9411 1.1562,-.267-1.8662,-7.6429-2.0119,-10.8187 2.7619,-5.2584 2.8945,-11.3933 2.6736,-17.646l2.6736,-1.6042c7.2982,4.9402 10.2116,-4.1653 15.2397,-6.4167 2.1895,1.1422 4.2112,.2705 6.1493,-1.6042 13.0421,5.2947 15.4774,.0438 17.646,-4.5452z" stroke="#000" stroke-width="0"/>
</g>
</svg>
