<svg version="1.1" viewBox="0 0 900 450" xmlns="http://www.w3.org/2000/svg" xmlns:svg="http://www.w3.org/2000/svg">
<g transform="translate(0,-602.3622)">
<path d="M52.0489,673.8444H833.0508A31.621,31.621 0 0 1 864.6718,705.4654V953.8142A31.621,31.621 0 0 1 833.0508,985.4352H52.0489A31.621,31.621 0 0 1 20.4279,953.8142V705.4654A31.621,31.621 0 0 1 52.0489,673.8444z" fill="#fff" stroke="#000" stroke-linecap="round" stroke-width="7.4907"/>
<g transform="translate(284.3595,-5.792)">
<path d="M821.3258,1161.9354H1028.815A6.2554,6.2554 0 0 1 1035.0704,1168.1908V1196.4559A6.2554,6.2554 0 0 1 1028.815,1202.7113H821.3258A6.2554,6.2554 0 0 1 815.0704,1196.4559V1168.1908A6.2554,6.2554 0 0 1 821.3258,1161.9354z" stroke="#000" stroke-width="4.5562" transform="matrix(1,0,-.63712,.77076,0,0)"/>
<path d="M67.9464,864.4158H72.9464A4.8214,4.8214 0 0 1 77.7679,869.2372V919.2372A4.8214,4.8214 0 0 1 72.9464,924.0586H67.9464A4.8214,4.8214 0 0 1 63.125,919.2372V869.2372A4.8214,4.8214 0 0 1 67.9464,864.4158z" fill="#fff" stroke="#000" stroke-width="3"/>
<path d="M249.1071,864.5051H254.1071A4.8214,4.8214 0 0 1 258.9286,869.3265V919.3265A4.8214,4.8214 0 0 1 254.1071,924.1479H249.1071A4.8214,4.8214 0 0 1 244.2857,919.3265V869.3265A4.8214,4.8214 0 0 1 249.1071,864.5051z" fill="#fff" stroke="#000" stroke-width="3"/>
<path d="M95.7576,848.0917H101.921A4.3137,4.3137 0 0 1 106.2347,852.4054V897.1403A4.3137,4.3137 0 0 1 101.921,901.454H95.7576A4.3137,4.3137 0 0 1 91.4438,897.1403V852.4054A4.3137,4.3137 0 0 1 95.7576,848.0917z" fill="#fff" stroke="#000" stroke-width="2.852"/>
<path d="M268.8988,848.1595H275.3869A4.1728,4.1728 0 0 1 279.5597,852.3324V895.6062A4.1728,4.1728 0 0 1 275.3869,899.7791H268.8988A4.1728,4.1728 0 0 1 264.726,895.6062V852.3324A4.1728,4.1728 0 0 1 268.8988,848.1595z" fill="#fff" stroke="#000" stroke-width="2.8091"/>
<path d="M776.081,1094.2845H983.5702A6.2554,6.2554 0 0 1 989.8256,1100.5399V1128.805A6.2554,6.2554 0 0 1 983.5702,1135.0604H776.081A6.2554,6.2554 0 0 1 769.8256,1128.805V1100.5399A6.2554,6.2554 0 0 1 776.081,1094.2845z" fill="#fff" stroke="#000" stroke-width="4.5562" transform="matrix(1,0,-.63712,.77076,0,0)"/>
<path d="M774.3716,1091.0409H981.8608A6.2554,6.2554 0 0 1 988.1162,1097.2963V1125.5614A6.2554,6.2554 0 0 1 981.8608,1131.8168H774.3716A6.2554,6.2554 0 0 1 768.1162,1125.5614V1097.2963A6.2554,6.2554 0 0 1 774.3716,1091.0409z" fill="#fff" stroke="#000" stroke-width="4.5562" transform="matrix(1,0,-.63712,.77076,0,0)"/>
<path d="M675.3655,967.0037H713.3987A3.4834,3.4834 0 0 1 716.8821,970.4871V977.8638A3.4834,3.4834 0 0 1 713.3987,981.3472H675.3655A3.4834,3.4834 0 0 1 671.8821,977.8638V970.4871A3.4834,3.4834 0 0 1 675.3655,967.0037z" fill="#fff" stroke="#000" stroke-width="3.2136" transform="matrix(1,0,-.49044,.87147,0,0)"/>
<path d="m205.0246,848.791c-1.4617,-1.6648 2.8326,-6.3505 2.8326,-8.7502l0,-21.0714c0,-5.2432 4.2211,-9.4643 9.4643,-9.4643 5.2432,0 9.4643,4.2211 9.4643,9.4643l0,21.0714c0,2.576 3.9811,7.5838 2.3228,9.287" fill="#fff" stroke="#000" stroke-width="4"/>
<path d="M172.9358,732.6575H257.0642A6.9162,6.9162 0 0 1 263.9804,739.5737V818.0078A6.9162,6.9162 0 0 1 257.0642,824.9241H172.9358A6.9162,6.9162 0 0 1 166.0196,818.0078V739.5737A6.9162,6.9162 0 0 1 172.9358,732.6575z" fill="#fff" stroke="#000" stroke-width="3.8861"/>
<path d="M178.1987,741.4255H247.8731A5.728,5.728 0 0 1 253.6011,747.1534V812.1118A5.728,5.728 0 0 1 247.8731,817.8398H178.1987A5.728,5.728 0 0 1 172.4708,812.1118V747.1534A5.728,5.728 0 0 1 178.1987,741.4255z" fill="#fff" stroke="#000" stroke-width="3.2184"/>
<path d="m177.5,276.4286c0,5.7201-3.118,10.3571-6.9643,10.3571-3.8463,0-6.9643,-4.6371-6.9643,-10.3571 0,-5.7201 3.118,-10.3571 6.9643,-10.3571 3.8463,0 6.9643,4.6371 6.9643,10.3571z" fill="#fff" stroke="#000" stroke-width="2" transform="matrix(.89625,.44355,-.44355,.89625,136.01667,533.97212)"/>
<path d="m159.6429,854.6836c4.5447,-2.2076 9.3311,-1.0311 14.1071,0" fill="none" stroke="#000"/>
<path d="m166.25,853.3443c.2636,-1.895 1.5016,-3.4644 3.2143,-5.8036" fill="none" stroke="#000"/>
<path d="m168.8393,847.3622c-.5628,-11.3434 13.9749,11.4012 10.7143,-6.7857" fill="none" stroke="#000"/>
<path d="m130.5729,848.4202c-.8171,-11.5828 36.5336,6.5667 36.6071,-8.4821" fill="none" stroke="#000"/>
<path d="M725.426,1075.2247H782.9086A5.3279,5.3279 0 0 1 788.2365,1080.5526V1092.8185A5.3279,5.3279 0 0 1 782.9086,1098.1464H725.426A5.3279,5.3279 0 0 1 720.0981,1092.8185V1080.5526A5.3279,5.3279 0 0 1 725.426,1075.2247z" fill="#fff" stroke="#000" stroke-width="3.3435" transform="matrix(1,0,-.58982,.80753,0,-19.28571)"/>
<path d="M761.465,1101.9617H765.9293V1107.6056H761.465z" fill="#fff" stroke="#000" stroke-width="2.2488" transform="matrix(1,0,-.61182,.791,0,-19.28571)"/>
<path d="M767.7051,1101.9617H772.1694V1107.6056H767.7051z" fill="#fff" stroke="#000" stroke-width="2.2488" transform="matrix(1,0,-.61182,.791,0,-19.28571)"/>
<path d="M773.9452,1101.9617H778.4095V1107.6056H773.9452z" fill="#fff" stroke="#000" stroke-width="2.2488" transform="matrix(1,0,-.61182,.791,0,-19.28571)"/>
<path d="M786.4253,1101.9617H790.8896V1107.6056H786.4253z" fill="#fff" stroke="#000" stroke-width="2.2488" transform="matrix(1,0,-.61182,.791,0,-19.28571)"/>
<path d="M792.6654,1101.9617H797.1297V1107.6056H792.6654z" fill="#fff" stroke="#000" stroke-width="2.2488" transform="matrix(1,0,-.61182,.791,0,-19.28571)"/>
<path d="M798.9055,1101.9617H803.3697V1107.6056H798.9055z" fill="#fff" stroke="#000" stroke-width="2.2488" transform="matrix(1,0,-.61182,.791,0,-19.28571)"/>
<path d="M805.1456,1101.9617H809.6099V1107.6056H805.1456z" fill="#fff" stroke="#000" stroke-width="2.2488" transform="matrix(1,0,-.61182,.791,0,-19.28571)"/>
<path d="M811.3857,1101.9617H815.85V1107.6056H811.3857z" fill="#fff" stroke="#000" stroke-width="2.2488" transform="matrix(1,0,-.61182,.791,0,-19.28571)"/>
<path d="M817.6257,1101.9617H822.09V1107.6056H817.6257z" fill="#fff" stroke="#000" stroke-width="2.2488" transform="matrix(1,0,-.61182,.791,0,-19.28571)"/>
<path d="M780.1853,1101.9617H784.6496V1107.6056H780.1853z" fill="#fff" stroke="#000" stroke-width="2.2488" transform="matrix(1,0,-.61182,.791,0,-19.28571)"/>
<path d="M761.8678,1110.4275H766.3321V1116.0714H761.8678z" fill="#fff" stroke="#000" stroke-width="2.2488" transform="matrix(1,0,-.61182,.791,0,-19.28571)"/>
<path d="M768.1079,1110.4275H772.5722V1116.0714H768.1079z" fill="#fff" stroke="#000" stroke-width="2.2488" transform="matrix(1,0,-.61182,.791,0,-19.28571)"/>
<path d="M774.348,1110.4275H778.8122V1116.0714H774.348z" fill="#fff" stroke="#000" stroke-width="2.2488" transform="matrix(1,0,-.61182,.791,0,-19.28571)"/>
<path d="M786.8281,1110.4275H791.2923V1116.0714H786.8281z" fill="#fff" stroke="#000" stroke-width="2.2488" transform="matrix(1,0,-.61182,.791,0,-19.28571)"/>
<path d="M793.0682,1110.4275H797.5325V1116.0714H793.0682z" fill="#fff" stroke="#000" stroke-width="2.2488" transform="matrix(1,0,-.61182,.791,0,-19.28571)"/>
<path d="M799.3082,1110.4275H803.7725V1116.0714H799.3082z" fill="#fff" stroke="#000" stroke-width="2.2488" transform="matrix(1,0,-.61182,.791,0,-19.28571)"/>
<path d="M805.5483,1110.4275H810.0126V1116.0714H805.5483z" fill="#fff" stroke="#000" stroke-width="2.2488" transform="matrix(1,0,-.61182,.791,0,-19.28571)"/>
<path d="M811.7885,1110.4275H816.2527V1116.0714H811.7885z" fill="#fff" stroke="#000" stroke-width="2.2488" transform="matrix(1,0,-.61182,.791,0,-19.28571)"/>
<path d="M818.0285,1110.4275H822.4928V1116.0714H818.0285z" fill="#fff" stroke="#000" stroke-width="2.2488" transform="matrix(1,0,-.61182,.791,0,-19.28571)"/>
<path d="M780.5881,1110.4275H785.0524V1116.0714H780.5881z" fill="#fff" stroke="#000" stroke-width="2.2488" transform="matrix(1,0,-.61182,.791,0,-19.28571)"/>
<path d="m193.75,222.5c1.5164,9.8412-6.0315,12.8824-8.2143,16.25" fill="none" stroke="#000" transform="translate(0,602.3622)"/>
</g>
<path d="m23.0305,883.74 844.2857,0" fill="none" stroke="#000"/>
<path d="m842.8863,1004.6682c.4393,.5102 1.0355,.5714 1.6702,.6073 .8029,-.022 1.6072,-.2139 2.3575,-.4994 .4009,-.1525 .6224,-.2824 .9965,-.4788-2.2386,1.3097-.9924,.6082-.5738,.1636 .2168,-.2303 .3463,-.473 .4686,-.7606 .3177,-.895 .3589,-1.8574 .4131,-2.7971 .1056,-1.3679-.1776,-2.7108-.4825,-4.0351-.3709,-1.393-.8746,-2.7467-1.4293,-4.0757-.2656,-.628-.5661,-1.2401-.8587,-1.8556-.3944,-.7567-.717,-.2868 1.5104,-1.1508 .0768,-.03 .0919,.1367 .1411,.2027 .0823,.1106 .1689,.218 .2533,.327 .8217,1.1275 1.8098,2.1155 2.8001,3.0928 .5826,.5674 1.2073,1.094 1.7645,1.6873 .2114,.1727 .3378,.416 .508,.6229 .1662,.1502 .2962,-.01 .4431,-.1106-2.5656,1.5384-1.6519,1.0412-1.1599,.5695 .1937,-.1858 .3764,-.3843 .5618,-.5782 .2632,-.2626 .5127,-.5438 .801,-.7804 .761,-.6244 1.8227,-1.1234 2.6097,-1.5711 .7271,-.3211 1.471,-.6005 2.2265,-.8467 .1563,-.034 .761,-.2664 .899,-.1093 .0321,.037 .0451,.086 .0677,.1294 .003,.044 .0154,.088 .009,.1323-.0436,.3197-.5385,.6916-.7545,.8904-.9928,.8208-1.9561,1.6745-2.8731,2.5792-.7976,.8557-1.6216,1.7004-2.2566,2.6874-.3921,.6165-.6005,1.2972-.6984,2.0144-.0648,.6415-.0542,1.2873-.0532,1.9312 .0351,.6998 .1244,1.4011 .3328,2.0715 .1195,.3571 .3319,.6194 .6717,.7762 .2255,.08 .4837,.1318 .7238,.087 .0559,-.01 .5216,-.1683 .5589,-.1808 .5492,-.2997 1.8756,-1.0005-.6067,.3599-.0982,.054 .1891,-.1202 .2821,-.1824 .2138,-.1431 .2651,-.1851 .4657,-.3347 .2405,-.18 .1266,-.092 .3424,-.2616l1.7191,-.6914c-.2178,.1831-.1012,.092-.3516,.2719-1.0139,.7828-2.137,1.4308-3.3009,1.9611-.5107,.1525-.8878,.2254-1.3851,-.01-.3662,-.2065-.6055,-.5061-.7343,-.9112-.2041,-.6903-.2811,-1.4089-.3481,-2.1237-.004,-.6503-.0146,-1.3022 .038,-1.9509 .0928,-.7432 .2887,-1.4525 .6884,-2.0955 .0801,-.1333 .153,-.2712 .2404,-.3997 .1797,-.264 .4481,-.5661 .6529,-.8036 .4526,-.5248 .9157,-1.0402 1.3938,-1.5419 .8918,-.8997 1.8318,-1.7498 2.8066,-2.5592 .2761,-.2563 .5618,-.5063 .8001,-.7993 .0396,.021-.0878,.017-.1321,.024-.221,.031-.4338,.1-.6466,.1641-.7471,.2466-1.4866,.5202-2.1959,.8624 2.4446,-1.4458 .9748,-.6249 .497,-.2573-.291,.224-.54,.5005-.7953,.7622-.9257,.9766-.9789,1.08-2.545,1.8884-.2567,.1213-.4002,.1069-.6009,-.1041-.1584,-.2095-.2854,-.443-.481,-.6232-.5334,-.6026-1.1282,-1.1493-1.6932,-1.7213-.9808,-.9984-1.9767,-1.985-2.8496,-3.0818-.0938,-.1054-.1877,-.2108-.2814,-.3163-.0521,-.059-.2154,-.125-.1559,-.1761 1.4141,-1.2139 1.334,-1.5318 1.6993,-.7303 .2757,.6281 .5663,1.2498 .8171,1.8885 .5249,1.353 1.0089,2.7232 1.4053,4.1198 .3185,1.3302 .6335,2.6814 .5419,4.0599-.0362,.9485-.0918,1.9144-.3493,2.8318-.0847,.2347-.1139,.3545-.249,.5692-.5938,.9436-1.8747,1.3891-2.7166,1.9248-1.0714,.5265-2.2113,.8988-3.4172,.9043-.1676,-.013-.3365,-.016-.5029,-.04-.4955,-.073-.9575,-.2895-1.3004,-.6569l1.6003,-.9608z" stroke="#000" stroke-linecap="round" stroke-linejoin="round" stroke-width=".2515"/>
<path d="m858.2508,1002.5114c-.7394,.2071-2.342,1.1965 .4556,-.4044-.388,.2065-.6184,.5425-.7999,.9302-.1036,.3106-.2142,.651-.1917,.9845 .0156,.2306 .0756,.3465 .154,.562 .3071,.6067 .7794,1.1058 1.3399,1.4838 .4137,.2881 .8839,.4191 1.383,.4252 .3851,-.088 .743,-.2375 1.0957,-.4124 .1503,-.074 .5909,-.3178 .4467,-.232-1.6618,.9892-1.2456,.7222-.6575,.3195 .4842,-.373 1.0105,-.8057 1.1352,-1.4399 .0174,-.089 .0162,-.1799 .0243,-.2698-.032,-.7933-.5333,-1.4143-1.0169,-2.0008-.3049,-.3393-.6501,-.6629-1.0669,-.861-.2115,-.1006-.32,-.1184-.544,-.1779-.4519,-.025-.9255,.018-1.3546,.1741-.1984,.072-.499,.2394-.6834,.3368 2.5132,-1.5077 .8665,-.5123 .3482,-.062l-1.7106,.6998c.796,-.7657 1.8589,-1.2169 2.7842,-1.7769 .2686,-.1306 .4271,-.2208 .7141,-.308 .4568,-.1387 .9485,-.171 1.419,-.1017 .2419,.077 .34,.097 .5672,.2177 .4231,.2255 .772,.5679 1.084,.9255 .5088,.6265 1.0253,1.2756 1.1028,2.1095-.004,.1011 .002,.2032-.0112,.3035-.0928,.6825-.6005,1.1676-1.1167,1.5708-1.0013,.7186-.4882,.3708-2.4236,1.4671-.5043,.2856-1.0559,.5275-1.6351,.5951-.5218,-.046-1.0072,-.1999-1.4323,-.5165-.5749,-.4194-1.0583,-.9487-1.3949,-1.5795-.0785,-.2055-.1678,-.4012-.1946,-.6229-.0421,-.3472 .0735,-.712 .1572,-1.0429 .1608,-.4086 .3649,-.7959 .7491,-1.0357 .9031,-.5199 1.7482,-1.1164 2.7557,-1.3944l-1.4819,1.1332z" stroke="#000" stroke-linecap="round" stroke-linejoin="round" stroke-width=".2515"/>
<path d="m866.047,1003.2659c-.3202,.1024-.653,.1903-.9574,.3361-.1022,.049-.1982,.1101-.2973,.1652 .4207,-.2356 .8414,-.4712 1.2621,-.7068-.4994,.337-.87,.6738-1.0934,1.2386-.1462,.4653-.0761,.8587 .2923,1.2028 .0889,.083 .1935,.1478 .2903,.2216 .7042,.4046 1.5378,.5494 2.3444,.4638 .2312,-.024 .458,-.081 .687,-.1208 .53,-.1368 .7609,-.1749 1.2586,-.3838 .1651,-.069 .635,-.3304 .4812,-.2386-2.2382,1.3365-1.2251,.7542-.8736,.3984 .078,-.079 .1399,-.1722 .2098,-.2583 .3065,-.4796 .3144,-.9061 .0985,-1.417-.0396,-.09-.268,-.5604-.4291,-.4586-.0279,.018-.042,.051-.063,.076 2.5422,-1.4496 1.5743,-1.2072 1.3277,-.5007-.1064,.3049-.125,.6013-.1396,.9215 .1766,1.4863 .8332,2.8625 1.3726,4.2435 .6559,1.8244 1.2881,3.7176 1.3609,5.6744 .0145,.3894-.0234,.7791-.0351,1.1686-.0582,.3745-.0908,.754-.1745,1.1236-.2732,1.2059-.8948,2.3097-1.8179,3.137-.1627,.1458-.3469,.2657-.5204,.3986-.6941,.3626-1.3544,.7991-2.0824,1.0879-.3018,.1197-1.0302,-.13-1.2689,-.2365-.8875,-.3956-1.654,-1.0455-2.408,-1.6406-1.2719,-1.0888-2.5172,-2.2245-3.6551,-3.4553-.5895,-.6375-.7352,-.8521-1.2472,-1.5117-.4358,-.7271-.9494,-1.57-.521,-2.4271 .2535,-.5072 .5595,-.6912 .9842,-1.0605 1.2727,-.8247 1.3769,-.9186 3.2195,-1.8517 .4497,-.2277 1.9,-.7427 2.3438,-.8975 .8851,-.3088 1.8369,-.6148 2.7269,-.9056 2.3381,-.6744 4.6281,-1.4959 6.8914,-2.3864 .1921,-.082 .3845,-.1627 .5764,-.245 .1466,-.063 .2943,-.1233 .439,-.1904 .2958,-.137 .5721,-.3066 .8773,-.4229 .4138,-.059 .559,.4392 .6828,.7419 .2853,.7705 .446,1.5785 .5154,2.3953 .0171,.366 .029,.7337-.0228,1.0975-.005,.037 .0139,.095-.0201,.1109-.5544,.2582-1.1333,.4601-1.6999,.6902 .001,-.1126-.005,-.2255 .004,-.3377 .0133,-.1633 .0414,-.3251 .063,-.4875 .1257,-.9478 .2903,-1.8831 .4832,-2.8195 .1955,-.8169 .3644,-1.6723 .8312,-2.3853 .5286,-.5535 1.7043,-1.6447 2.2768,-1.0096 .0599,.067 .1019,.1472 .1529,.2208 .112,.1981 .2088,.3486 .2821,.568 .2061,.6172 .2986,1.3406 .4077,1.9824 .1424,.5555 .0881,1.2208 .2567,1.7655 .2229,-.5988-.002,.028-1.6032,.791-.0325,.015 .0489,-.053 .0671,-.085 .0417,-.071 .1233,-.28 .1551,-.3442 .0434,-.087 .0929,-.1719 .1393,-.2578 .3011,-.4826 .556,-.9925 .8877,-1.4553 .5547,-.695 1.0736,-.8467 2.0338,-1.3744 .0329,-.018 .0773,-.01 .1126,0 .045,.016 .08,.053 .12,.079 .3755,.395 .5063,.9539 .6331,1.4682 .1102,.56 .1691,1.1313 .374,1.667 .0499,.07 .0906,.1479 .1496,.2106 .4298,.4569 1.1407,.7985 1.727,.9843 .2206,.07 .4479,.1166 .6718,.1749 .9481,.2366 1.8995,.2483 2.8425,-.011 .2087,-.057 .4184,-.1172 .6161,-.2054 .1842,-.082 .3491,-.2019 .5237,-.3029-.3631,.1874-.6996,.4397-1.0894,.5622-.1503,.047 .2339,-.2118 .3412,-.3272 .3164,-.3401 .4973,-.7183 .6246,-1.1582 .0873,-.3664 .0858,-.7428 .0757,-1.1166-.1021,-.7716-.7838,-.012 1.5762,-.9706 .043,-.017-.0252,.09-.0325,.1353-.0105,.067-.0137,.1343-.0206,.2014-.0335,.6079-.0474,1.2172 .0202,1.8229 .0688,.3897 .1433,.7878 .4487,1.0613 .2149,.1415 .443,.1511 .6803,.073 .5712,-.2882 1.4287,-.7883-1.1689,.6781-.0922,.052 .1782,-.1142 .2658,-.1736l1.729,-.6875c-.1339,.1099-.1095,.099-.2632,.1885-.5841,.3415-1.3074,.9119-2.0466,1.1199-.2885,.031-.5575,-.032-.7831,-.2236-.314,-.3274-.4164,-.7448-.4864,-1.185-.0743,-.6127-.0594,-1.2282-.0514,-1.8445 .002,-.082 .01,-.3683 .0155,-.3721 1.2231,-.8124 1.6185,-1.5813 1.7738,-.6732 .009,.3928 .009,.788-.0729,1.1745-.4026,1.604-1.4656,1.9694-2.9269,2.8345-.1797,.091-.3518,.1981-.539,.2718-1.1255,.4431-2.3519,.4076-3.5096,.13-.2313,-.061-.4661,-.1105-.6938,-.1839-.5824,-.188-1.4014,-.59-1.8309,-1.0419-.0708,-.074-.1217,-.1654-.1826,-.2481-.2042,-.5463-.263,-1.1251-.3681,-1.696-.1059,-.4424-.211,-.9895-.5766,-1.2965-.0862,.011-.0417,0-.1309,.047 .494,-.2933 .9881,-.5865 1.4821,-.8798 .0418,-.024-.0765,.059-.1115,.092-.088,.083-.1593,.1827-.2543,.2588-.3546,.4458-.6103,.9514-.9065,1.4362-.1113,.1906-.2033,.3719-.2742,.581-.0144,.043 .002,.1065-.0369,.1297-1.6717,1.0055-1.301,1.4123-1.7676,.8263-.1403,-.5915-.0684,-1.2195-.2051,-1.8138-.1337,-.8319-.2366,-1.7229-.6888,-2.4507-.0786,-.094-.1124,-.1812-.2373,-.2043-.0338,-.01-.1319,.028-.1027,.01 .4848,-.3028 .9881,-.5749 1.4781,-.8692 .044,-.026-.0961,.038-.1396,.065-.0513,.032-.0953,.075-.1429,.1121-.5512,.6573-.7174,1.5447-.9403,2.3498-.2511,1.1609-.4667,2.3382-.5021,3.5279-.5413,.3318-1.0717,.6822-1.624,.9954-.0304,.017 .0302,-.063 .04,-.097 .1011,-.3479 .0723,-.7161 .0723,-1.073-.0467,-.7985-.196,-1.5926-.501,-2.3352-.0582,-.1343-.1651,-.5237-.3687,-.5375-.0472,0-.1338,.034-.1714,.048-.6021,.2681-1.1868,.5758-1.8125,.79-2.2433,.8437-4.5057,1.6345-6.8063,2.3092-1.3354,.4418-2.6801,.8688-3.988,1.3886-.3765,.1496-.7211,.3958-1.1182,.4762-.2039,.041 .7012,-.4449 .5142,-.3538-.2728,.1328-.5155,.32-.7733,.48-.4814,.3865-1.0718,.7863-1.1859,1.4525-.1123,.6558 .3053,1.2621 .5878,1.8057 .1747,.2387 .3409,.4838 .524,.716 1.2506,1.586 2.7723,2.9468 4.3216,4.2314 .7601,.5675 1.5353,1.2021 2.4338,1.5462 .2074,.079 .4249,.1396 .6456,.1641 .1883,.021 .6695,-.1886 .5676,-.029-.2123,.3325-.6509,.446-.9763,.669 .1821,-.1271 .3749,-.2403 .5464,-.3814 .9528,-.7839 1.6207,-1.8661 1.9179,-3.062 .0903,-.3634 .1256,-.7382 .1884,-1.1074 .0181,-.3841 .0641,-.768 .0543,-1.1525-.0495,-1.9411-.7079,-3.8142-1.3712,-5.6146-.5628,-1.3918-1.2476,-2.7639-1.4927,-4.2575-.008,-.3536 4.4e-4,-.6227 .086,-.9647 .005,-.019 .0997,-.3597 .142,-.3888 .5428,-.3738 1.1209,-.6937 1.6814,-1.0405 .0426,0 .0866,0 .1279,.01 .2648,.072 .3917,.401 .5024,.6157 .2357,.5565 .268,1.0516-.0318,1.5983-.068,.097-.1268,.202-.2041,.2923-.5521,.6452-1.6564,1.098-2.2184,1.4107-.5375,.2991-1.1558,.4269-1.747,.5653-.2367,.035-.4715,.087-.71,.1066-.852,.07-1.7224,-.083-2.4497,-.5408-.1044,-.083-.2169,-.1575-.3133,-.25-.4073,-.3914-.5345,-.8233-.3997,-1.3636 .2032,-.6461 .5218,-.9588 1.0648,-1.3565 1.0479,-.6191 1.9953,-1.302 3.1758,-1.5918l-1.4819,1.1332z" stroke="#000" stroke-linecap="round" stroke-linejoin="round" stroke-width=".2515"/>
<path d="m891.4578,997.6162c-.2243,.2632-.4035,.5643-.4888,.9007-.0611,.3364 .1396,.4226 .4154,.5433 .4462,.1634 .8277,.1455 1.2847,.065 .6111,-.2095 1.5817,-.8065-1.1348,.6921-.0381,.021 .0724,-.049 .1046,-.078 .0766,-.07 .0844,-.099 .1345,-.1864 .0923,-.207 .0832,-.4007-.0356,-.5914-.1581,-.1498-.3958,-.1358-.5998,-.1457-.2107,.019-.4113,.072-.5826,.1981l1.4548,-1.1717c.2072,-.078 .4191,-.1279 .6429,-.1101 .2663,.026 .5282,.064 .7009,.2916 .1406,.2366 .1962,.4812 .1149,.7512-.2947,.8893-1.4141,1.2488-2.2801,1.4605-.4615,.058-.9177,.033-1.3515,-.1527-.3119,-.1609-.5915,-.3623-.5442,-.7527 .0576,-.3624 .2344,-.6871 .4467,-.9831l1.718,-.73z" stroke="#000" stroke-linecap="round" stroke-linejoin="round" stroke-width=".2515"/>
<path d="m867.6132,1002.148c.3537,-.172 .6913,-.3752 1.0561,-.5235 .2286,-.1484 .4794,-.217 .7469,-.2463 .246,-.019 .4931,-.016 .7396,-.015 .2447,-.026 .452,.041 .667,.1458 .1505,.1206 .2692,.2808 .3835,.4358 .0994,.1805 .1578,.383 .2189,.5797 .0548,.2016 .1295,.3942 .169,.6001 .038,.2418 .0406,.4871 .0436,.7313 10e-4,.1259 9.1e-4,.2518 8.4e-4,.3777l-1.662,.8466c1.7e-4,-.1253 4.3e-4,-.2505-1.3e-4,-.3758-.002,-.2343-.002,-.4696-.0316,-.7024-.0328,-.2008-.1062,-.3854-.1597,-.5802-.0519,-.177-.1078,-.3572-.1882,-.5222-.0978,-.1282-.193,-.2747-.3336,-.3577-.1975,-.086-.4034,-.091-.6168,-.082-.2413,0-.4842,-10e-5-.7231,.039-.2526,.053-.4803,.1621-.7103,.2775-.3579,.1664-.704,.3572-1.0509,.5451l1.4507,-1.1736z" stroke="#000" stroke-linecap="round" stroke-linejoin="round" stroke-width=".2515"/>
<path d="M61.9761,638.538H248.8543A15.9099,15.9099 0 0 1 264.7642,654.4479V654.4479A15.9099,15.9099 0 0 1 248.8543,670.3578H61.9761A15.9099,15.9099 0 0 1 46.0662,654.4479V654.4479A15.9099,15.9099 0 0 1 61.9761,638.538z" fill="#fff" stroke="#000" stroke-linecap="round" stroke-linejoin="round" stroke-width="4"/>
<path d="m101.5203,44.9288c0,19.2473-16.5075,34.8503-36.8706,34.8503-20.3631,0-36.8706,-15.603-36.8706,-34.8503 0,-19.2473 16.5075,-34.8503 36.8706,-34.8503 20.3631,0 36.8706,15.603 36.8706,34.8503z" stroke="#000" stroke-linecap="round" stroke-linejoin="round" stroke-width="7.491" transform="matrix(.7121,0,0,.7121,.77984,616.16106)"/>
<text font-family="Bitstream Vera Sans" font-size="40" x="25.2862" y="662.9094">
   <tspan fill="#f9f9f9" x="25.2862" y="662.9094">79</tspan>
  </text>
<text font-family="Bitstream Vera Sans" font-size="20" x="108.3392" y="661.2151">
   <tspan x="108.3392" y="661.2151">Sauvetage</tspan>
  </text>
<text font-family="Bitstream Vera Sans" font-size="20" x="660.775" y="749.2131">
   <tspan x="660.775" y="749.2131"></tspan>
  </text>
<text font-family="Bitstream Vera Sans" font-size="20" x="277.1428" y="262.9278">
   <tspan text-align="center" text-anchor="middle" x="277.1428" y="262.9278"></tspan>
  </text>
<text font-family="Bitstream Vera Sans" font-size="20" x="837.898" y="-199.0207">
   <tspan text-align="center" text-anchor="middle" x="837.898" y="-199.0207"></tspan>
  </text>
<text font-family="Bitstream Vera Sans" font-size="20" x="606.7374" y="-15.8735">
   <tspan x="606.7374" y="-15.8735"></tspan>
  </text>
<path d="m446.8915,78.4154c0,2.9289-27.5427,5.3033-61.5183,5.3033-33.9756,0-61.5183,-2.3744-61.5183,-5.3033 0,-2.9289 27.5427,-5.3033 61.5183,-5.3033 33.9756,0 61.5183,2.3744 61.5183,5.3033z" stroke="#000" stroke-linecap="round" stroke-width="4.862" transform="matrix(-.83173,0,0,.83173,843.78205,867.74516)"/>
<path d="m478.5444,860.6987 0,39.8301c0,16.6404 13.3964,30.0368 30.0368,30.0368l29.4715,0c16.6404,0 30.0368,-13.3964 30.0368,-30.0368l0,-39.8301" fill="#fff" stroke="#000" stroke-linecap="round" stroke-linejoin="round" stroke-width="3.0293"/>
<path d="M-543.9294,877.1765H-524.3555A.649,.649 0 0 1 -523.7065,877.8254V886.1644A.649,.649 0 0 1 -524.3555,886.8134H-543.9294A.649,.649 0 0 1 -544.5784,886.1644V877.8254A.649,.649 0 0 1 -543.9294,877.1765z" stroke="#000" stroke-linecap="square" stroke-linejoin="round" stroke-width="3.1055" transform="scale(-1,1)"/>
<path d="M-509.5034,877.1765H-492.5254A1.947,1.947 0 0 1 -490.5785,879.1234V884.8664A1.947,1.947 0 0 1 -492.5254,886.8134H-509.5034A1.947,1.947 0 0 1 -511.4503,884.8664V879.1234A1.947,1.947 0 0 1 -509.5034,877.1765z" stroke="#000" stroke-linecap="square" stroke-linejoin="round" stroke-width="3.1055" transform="scale(-1,1)"/>
<path d="m566.1696,881.3805c-.4568,.009-.9137,.006-1.3705,.003-.3019,-.002-.6038,-.003-.9057,-.003-.2433,-3.6e-4-.4865,-3.4e-4-.7298,-3.4e-4-.2529,-5.2e-4-.5057,5e-4-.7586,8.4e-4-.3249,-.008-.6448,-3.1e-4-.9664,.0422-.3324,.0453-.668,.0596-1.0032,.0688-.337,-.0131-.6678,.049-1.0014,.0823-.3393,.0306-.6803,.0339-1.0209,.0374-.3578,.002-.7155,.002-1.0733,5.4e-4-.3107,-6.3e-4-.6214,-8.3e-4-.9322,-.002-.2554,-6.4e-4-.5107,-8.1e-4-.7661,-8.3e-4-.2424,-6e-5-.4849,-6e-5-.7273,-5e-5-.2425,10e-6-.4849,10e-6-.7274,10e-6-.2651,-3.2e-4-.5301,4.4e-4-.7952,.002-.3279,.002-.6559,3.7e-4-.9838,-5.2e-4-.3085,-2.2e-4-.6169,3.9e-4-.9254,8.3e-4-.33,-1.4e-4-.6599,-6e-5-.9899,-8.3e-4-.316,1.6e-4-.6321,6.2e-4-.9481,1.3e-4-.2874,-8.3e-4-.5749,-.002-.8623,2.1e-4-.4435,.002-.8869,.003-1.3304,.005-.6044,.002-1.2087,.002-1.8131,8.3e-4-.4435,-8.3e-4-.887,-.004-1.3305,-.004-.367,5.5e-4-.7341,-1e-5-1.1011,-.002-.0508,-1.6e-4-.1016,-3.3e-4-.1524,-5e-4l1.4522,.9975c.0503,-1.7e-4 .1007,-3.4e-4 .151,-5e-4 .3659,-.002 .7317,-.002 1.0975,-.002 .4391,-1.8e-4 .8782,-.003 1.3174,-.004 .6051,-.002 1.2103,-.002 1.8155,8.3e-4 .4484,.002 .8968,.002 1.3451,.005 .2876,.002 .5753,.002 .8629,2.1e-4 .3162,-4.7e-4 .6323,-2e-5 .9485,1.3e-4 .3291,-8.2e-4 .6582,-7.4e-4 .9873,-8.3e-4 .3097,8.3e-4 .6194,.002 .9291,.002 .3274,-8.3e-4 .6549,-.002 .9823,-5.2e-4 .2666,8.3e-4 .5332,.002 .7999,.002 .2425,0 .485,0 .7275,0 .2424,0 .4848,2e-5 .7272,-5e-5 .2545,-1.1e-4 .509,-2.9e-4 .7635,-8e-4 .3094,-5.7e-4 .6189,-7e-4 .9283,-7.3e-4 .3578,-6.9e-4 .7156,5.8e-4 1.0733,-.003 .345,-.005 .6905,-.0121 1.0336,-.0495 .33,-.0371 .6588,-.0808 .9923,-.0723 .3392,-.0126 .6777,-.0362 1.0141,-.0805 .3177,-.0336 .6366,-.0243 .9559,-.0231 .2538,4.7e-4 .5076,.002 .7614,8.4e-4 .243,0 .4859,2e-5 .7288,-3.4e-4 .2985,-5.5e-4 .5969,-.002 .8954,-.003 .4601,-.003 .9203,-.005 1.3804,.003l-1.455,-.9994z" stroke="#000" stroke-linecap="square" stroke-linejoin="round" stroke-width=".3964"/>
<path d="m490.0708,881.6106c-.5854,.01-1.171,.008-1.7565,.008-.5367,-7.4e-4-1.0733,-.003-1.61,-.005-.3586,-.002-.7173,-.002-1.0759,-.003-.2826,-6.7e-4-.5652,-.002-.8478,-.002-.2469,.0181-.4841,-.0478-.7268,-.0795-.2434,-.0284-.4888,-.0324-.7336,-.0353-.243,-.002-.486,-8.3e-4-.729,-7e-4-.2427,3.3e-4-.4854,4.4e-4-.7281,5.1e-4-.2427,4e-5-.4854,4e-5-.7281,4e-5-.2427,0-.4854,0-.7281,0-.2606,-5.1e-4-.5211,8.3e-4-.7817,8.3e-4-.2638,-2.1e-4-.5277,-5.7e-4-.7916,-7.7e-4-.2444,-1.5e-4-.4888,-1.7e-4-.7331,-1.8e-4-.1616,-10e-6-.0808,-10e-6-.2424,-10e-6l1.4563,1.0003c.1616,0 .0808,0 .2424,0 .2442,-10e-6 .4884,-3e-5 .7326,-1.8e-4 .2631,-1.9e-4 .5262,-5.6e-4 .7894,-7.7e-4 .2615,3e-5 .5229,.002 .7844,8.3e-4 .2427,10e-6 .4854,10e-6 .7281,10e-6 .2427,-10e-6 .4854,-10e-6 .7281,-10e-5 .2427,-1.1e-4 .4854,-3.1e-4 .7281,-6e-4 .2423,-1.9e-4 .4846,-8.3e-4 .7268,.003 .2407,.006 .4817,.0162 .7197,.0529 .2462,.0377 .4912,.0754 .742,.0586 .2809,-3.6e-4 .5618,-8.3e-4 .8427,-.002 .3562,-4.5e-4 .7124,-5.3e-4 1.0686,-.002 .5322,-.002 1.0643,-.004 1.5965,-.005 .5933,-4e-4 1.1868,-.002 1.78,.008l-1.453,-.9981z" stroke="#000" stroke-linecap="square" stroke-linejoin="round" stroke-width=".3964"/>
<path d="m523.5835,881.7464c-.4441,.0562-.8921,.0739-1.3395,.0872-.3993,.01-.7987,.01-1.1981,.009-.3297,-4.2e-4-.6594,-5.3e-4-.9891,-.002-.6619,.017-1.3241,.009-1.9861,.006-.4,-.003-.8,-.004-1.2,-.006-.319,2e-5-.638,-3.5e-4-.957,4.9e-4-.3353,8.4e-4-.6707,-7.9e-4-1.006,-2.5e-4-.3026,-7.2e-4-.6052,-6.4e-4-.9078,-5.5e-4-.3031,4.6e-4-.6061,1.8e-4-.9092,-4.3e-4-.2895,8.4e-4-.579,10e-5-.8685,-3.7e-4-.2832,8.3e-4-.5665,3.7e-4-.8497,-3e-5-.2502,-3.6e-4-.5004,-4.7e-4-.7506,-5.3e-4-.2092,.0487-.4197,.0836-.6344,.1006-.2328,.0143-.4662,.0144-.6994,.015-.2426,1.6e-4-.4852,-3.3e-4-.7278,-5.7e-4-.1215,-1.1e-4-.2429,-1.6e-4-.3644,-2.1e-4l1.4562,1.0004c.1214,8e-5 .2428,1.6e-4 .3643,2.9e-4 .2429,2.6e-4 .4858,8.3e-4 .7286,-3.3e-4 .2372,-.002 .4749,-.004 .711,-.0275 .2084,-.0245 .4125,-.0746 .622,-.0873 .2497,-7e-5 .4994,-1.7e-4 .749,-5.3e-4 .2832,-4e-4 .5664,-8.3e-4 .8496,-4e-5 .2892,-4.6e-4 .5783,-.002 .8674,-3.7e-4 .3026,-6e-4 .6053,-8.3e-4 .9079,-4.2e-4 .3021,9e-5 .6041,1.6e-4 .9062,-5.5e-4 .3351,5.3e-4 .6702,-.002 1.0053,-2.6e-4 .3195,8.4e-4 .639,4.9e-4 .9584,5e-4 .3944,-.002 .7887,-.002 1.1831,-.006 .6676,-.003 1.3356,-.011 2.0031,.006 .3292,-3.6e-4 .6583,3.9e-4 .9875,-3e-4 .398,-.002 .796,-.006 1.1938,-.0188 .4555,-.0176 .9105,-.0448 1.3641,-.089l-1.4699,-.9835z" stroke="#000" stroke-linecap="square" stroke-linejoin="round" stroke-width=".3964"/>
<path d="m555.6088,850.296 0,15.4229" fill="none" stroke="#000" stroke-linecap="round" stroke-width="3.9961"/>
<path d="m547.6874,848.8369 0,15.4229" fill="none" stroke="#000" stroke-linecap="round" stroke-width="3.9961"/>
<path d="m540.2543,850.0548 0,15.4229" fill="none" stroke="#000" stroke-linecap="round" stroke-width="3.9961"/>
<path d="m530.5424,849.0839 0,15.4229" fill="none" stroke="#000" stroke-linecap="round" stroke-width="3.9961"/>
<path d="m522.0932,850.9026 0,15.4229" fill="none" stroke="#000" stroke-linecap="round" stroke-width="3.9961"/>
<path d="m512.4208,850.7567 0,15.4229" fill="none" stroke="#000" stroke-linecap="round" stroke-width="3.9961"/>
<path d="m503.6856,849.331 0,15.4229" fill="none" stroke="#000" stroke-linecap="round" stroke-width="3.9961"/>
<path d="m495.4386,851.8569 0,15.4229" fill="none" stroke="#000" stroke-linecap="round" stroke-width="3.9961"/>
<path d="m486.5616,851.5502 0,15.4229" fill="none" stroke="#000" stroke-linecap="round" stroke-width="3.9961"/>
<path d="m562.1663,854.2302 0,15.4229" fill="none" stroke="#000" stroke-linecap="round" stroke-width="3.9961"/>
<path d="M821.3258,1161.9354H1028.815A6.2554,6.2554 0 0 1 1035.0704,1168.1908V1196.4559A6.2554,6.2554 0 0 1 1028.815,1202.7113H821.3258A6.2554,6.2554 0 0 1 815.0704,1196.4559V1168.1908A6.2554,6.2554 0 0 1 821.3258,1161.9354z" stroke="#000" stroke-width="4.5562" transform="matrix(1,0,-.63712,.77076,0,0)"/>
<path d="M67.9464,864.4158H72.9464A4.8214,4.8214 0 0 1 77.7679,869.2372V919.2372A4.8214,4.8214 0 0 1 72.9464,924.0586H67.9464A4.8214,4.8214 0 0 1 63.125,919.2372V869.2372A4.8214,4.8214 0 0 1 67.9464,864.4158z" fill="#fff" stroke="#000" stroke-width="3"/>
<path d="M249.1071,864.5051H254.1071A4.8214,4.8214 0 0 1 258.9286,869.3265V919.3265A4.8214,4.8214 0 0 1 254.1071,924.1479H249.1071A4.8214,4.8214 0 0 1 244.2857,919.3265V869.3265A4.8214,4.8214 0 0 1 249.1071,864.5051z" fill="#fff" stroke="#000" stroke-width="3"/>
<path d="M95.7576,848.0917H101.921A4.3137,4.3137 0 0 1 106.2347,852.4054V897.1403A4.3137,4.3137 0 0 1 101.921,901.454H95.7576A4.3137,4.3137 0 0 1 91.4438,897.1403V852.4054A4.3137,4.3137 0 0 1 95.7576,848.0917z" fill="#fff" stroke="#000" stroke-width="2.852"/>
<path d="M268.8988,848.1595H275.3869A4.1728,4.1728 0 0 1 279.5597,852.3324V895.6062A4.1728,4.1728 0 0 1 275.3869,899.7791H268.8988A4.1728,4.1728 0 0 1 264.726,895.6062V852.3324A4.1728,4.1728 0 0 1 268.8988,848.1595z" fill="#fff" stroke="#000" stroke-width="2.8091"/>
<path d="M776.081,1094.2845H983.5702A6.2554,6.2554 0 0 1 989.8256,1100.5399V1128.805A6.2554,6.2554 0 0 1 983.5702,1135.0604H776.081A6.2554,6.2554 0 0 1 769.8256,1128.805V1100.5399A6.2554,6.2554 0 0 1 776.081,1094.2845z" fill="#fff" stroke="#000" stroke-width="4.5562" transform="matrix(1,0,-.63712,.77076,0,0)"/>
<path d="M774.3716,1091.0409H981.8608A6.2554,6.2554 0 0 1 988.1162,1097.2963V1125.5614A6.2554,6.2554 0 0 1 981.8608,1131.8168H774.3716A6.2554,6.2554 0 0 1 768.1162,1125.5614V1097.2963A6.2554,6.2554 0 0 1 774.3716,1091.0409z" fill="#fff" stroke="#000" stroke-width="4.5562" transform="matrix(1,0,-.63712,.77076,0,0)"/>
<path d="M675.3655,967.0037H713.3987A3.4834,3.4834 0 0 1 716.8821,970.4871V977.8638A3.4834,3.4834 0 0 1 713.3987,981.3472H675.3655A3.4834,3.4834 0 0 1 671.8821,977.8638V970.4871A3.4834,3.4834 0 0 1 675.3655,967.0037z" fill="#fff" stroke="#000" stroke-width="3.2136" transform="matrix(1,0,-.49044,.87147,0,0)"/>
<path d="m205.0246,848.791c-1.4617,-1.6648 2.8326,-6.3505 2.8326,-8.7502l0,-21.0714c0,-5.2432 4.2211,-9.4643 9.4643,-9.4643 5.2432,0 9.4643,4.2211 9.4643,9.4643l0,21.0714c0,2.576 3.9811,7.5838 2.3228,9.287" fill="#fff" stroke="#000" stroke-width="4"/>
<path d="M172.9358,732.6575H257.0642A6.9162,6.9162 0 0 1 263.9804,739.5737V818.0078A6.9162,6.9162 0 0 1 257.0642,824.9241H172.9358A6.9162,6.9162 0 0 1 166.0196,818.0078V739.5737A6.9162,6.9162 0 0 1 172.9358,732.6575z" fill="#fff" stroke="#000" stroke-width="3.8861"/>
<path d="M178.1987,741.4255H247.8731A5.728,5.728 0 0 1 253.6011,747.1534V812.1118A5.728,5.728 0 0 1 247.8731,817.8398H178.1987A5.728,5.728 0 0 1 172.4708,812.1118V747.1534A5.728,5.728 0 0 1 178.1987,741.4255z" fill="#fff" stroke="#000" stroke-width="3.2184"/>
<path d="m177.5,276.4286c0,5.7201-3.118,10.3571-6.9643,10.3571-3.8463,0-6.9643,-4.6371-6.9643,-10.3571 0,-5.7201 3.118,-10.3571 6.9643,-10.3571 3.8463,0 6.9643,4.6371 6.9643,10.3571z" fill="#fff" stroke="#000" stroke-width="2" transform="matrix(.89625,.44355,-.44355,.89625,136.01667,533.97212)"/>
<path d="m159.6429,854.6836c4.5447,-2.2076 9.3311,-1.0311 14.1071,0" fill="none" stroke="#000"/>
<path d="m166.25,853.3443c.2636,-1.895 1.5016,-3.4644 3.2143,-5.8036" fill="none" stroke="#000"/>
<path d="m168.8393,847.3622c-.5628,-11.3434 13.9749,11.4012 10.7143,-6.7857" fill="none" stroke="#000"/>
<path d="m130.5729,848.4202c-.8171,-11.5828 36.5336,6.5667 36.6071,-8.4821" fill="none" stroke="#000"/>
<path d="M725.426,1075.2247H782.9086A5.3279,5.3279 0 0 1 788.2365,1080.5526V1092.8185A5.3279,5.3279 0 0 1 782.9086,1098.1464H725.426A5.3279,5.3279 0 0 1 720.0981,1092.8185V1080.5526A5.3279,5.3279 0 0 1 725.426,1075.2247z" fill="#fff" stroke="#000" stroke-width="3.3435" transform="matrix(1,0,-.58982,.80753,0,-19.28571)"/>
<path d="M761.465,1101.9617H765.9293V1107.6056H761.465z" fill="#fff" stroke="#000" stroke-width="2.2488" transform="matrix(1,0,-.61182,.791,0,-19.28571)"/>
<path d="M767.7051,1101.9617H772.1694V1107.6056H767.7051z" fill="#fff" stroke="#000" stroke-width="2.2488" transform="matrix(1,0,-.61182,.791,0,-19.28571)"/>
<path d="M773.9452,1101.9617H778.4095V1107.6056H773.9452z" fill="#fff" stroke="#000" stroke-width="2.2488" transform="matrix(1,0,-.61182,.791,0,-19.28571)"/>
<path d="M786.4253,1101.9617H790.8896V1107.6056H786.4253z" fill="#fff" stroke="#000" stroke-width="2.2488" transform="matrix(1,0,-.61182,.791,0,-19.28571)"/>
<path d="M792.6654,1101.9617H797.1297V1107.6056H792.6654z" fill="#fff" stroke="#000" stroke-width="2.2488" transform="matrix(1,0,-.61182,.791,0,-19.28571)"/>
<path d="M798.9055,1101.9617H803.3697V1107.6056H798.9055z" fill="#fff" stroke="#000" stroke-width="2.2488" transform="matrix(1,0,-.61182,.791,0,-19.28571)"/>
<path d="M805.1456,1101.9617H809.6099V1107.6056H805.1456z" fill="#fff" stroke="#000" stroke-width="2.2488" transform="matrix(1,0,-.61182,.791,0,-19.28571)"/>
<path d="M811.3857,1101.9617H815.85V1107.6056H811.3857z" fill="#fff" stroke="#000" stroke-width="2.2488" transform="matrix(1,0,-.61182,.791,0,-19.28571)"/>
<path d="M817.6257,1101.9617H822.09V1107.6056H817.6257z" fill="#fff" stroke="#000" stroke-width="2.2488" transform="matrix(1,0,-.61182,.791,0,-19.28571)"/>
<path d="M780.1853,1101.9617H784.6496V1107.6056H780.1853z" fill="#fff" stroke="#000" stroke-width="2.2488" transform="matrix(1,0,-.61182,.791,0,-19.28571)"/>
<path d="M761.8678,1110.4275H766.3321V1116.0714H761.8678z" fill="#fff" stroke="#000" stroke-width="2.2488" transform="matrix(1,0,-.61182,.791,0,-19.28571)"/>
<path d="M768.1079,1110.4275H772.5722V1116.0714H768.1079z" fill="#fff" stroke="#000" stroke-width="2.2488" transform="matrix(1,0,-.61182,.791,0,-19.28571)"/>
<path d="M774.348,1110.4275H778.8122V1116.0714H774.348z" fill="#fff" stroke="#000" stroke-width="2.2488" transform="matrix(1,0,-.61182,.791,0,-19.28571)"/>
<path d="M786.8281,1110.4275H791.2923V1116.0714H786.8281z" fill="#fff" stroke="#000" stroke-width="2.2488" transform="matrix(1,0,-.61182,.791,0,-19.28571)"/>
<path d="M793.0682,1110.4275H797.5325V1116.0714H793.0682z" fill="#fff" stroke="#000" stroke-width="2.2488" transform="matrix(1,0,-.61182,.791,0,-19.28571)"/>
<path d="M799.3082,1110.4275H803.7725V1116.0714H799.3082z" fill="#fff" stroke="#000" stroke-width="2.2488" transform="matrix(1,0,-.61182,.791,0,-19.28571)"/>
<path d="M805.5483,1110.4275H810.0126V1116.0714H805.5483z" fill="#fff" stroke="#000" stroke-width="2.2488" transform="matrix(1,0,-.61182,.791,0,-19.28571)"/>
<path d="M811.7885,1110.4275H816.2527V1116.0714H811.7885z" fill="#fff" stroke="#000" stroke-width="2.2488" transform="matrix(1,0,-.61182,.791,0,-19.28571)"/>
<path d="M818.0285,1110.4275H822.4928V1116.0714H818.0285z" fill="#fff" stroke="#000" stroke-width="2.2488" transform="matrix(1,0,-.61182,.791,0,-19.28571)"/>
<path d="M780.5881,1110.4275H785.0524V1116.0714H780.5881z" fill="#fff" stroke="#000" stroke-width="2.2488" transform="matrix(1,0,-.61182,.791,0,-19.28571)"/>
<path d="m193.75,222.5c1.5164,9.8412-6.0315,12.8824-8.2143,16.25" fill="none" stroke="#000" transform="translate(0,602.3622)"/>
<path d="M1578.1826,1750.8221H1603.8954A7.1728,7.1728 0 0 1 1611.0683,1757.9949V1772.3406A7.1728,7.1728 0 0 1 1603.8954,1779.5135H1578.1826A7.1728,7.1728 0 0 1 1571.0098,1772.3406V1757.9949A7.1728,7.1728 0 0 1 1578.1826,1750.8221z" stroke="#000" stroke-width="3.3873" transform="matrix(1,0,-.8413,.54057,0,0)"/>
<path d="m187.3833,353.2779c0,4.6026-12.6633,8.3338-28.2843,8.3338-15.621,0-28.2843,-3.7311-28.2843,-8.3338 0,-4.6026 12.6633,-8.3338 28.2843,-8.3338 15.621,0 28.2843,3.7312 28.2843,8.3338z" stroke="#000" stroke-width="3" transform="translate(-9.5964,600.3419)"/>
<g transform="matrix(-.76921,-.63899,-.63899,.76921,867.76527,287.35939)">
<path d="m253.5483,341.4086c0,24.2683-15.7161,43.9416-35.1028,43.9416-19.3867,0-35.1028,-19.6733-35.1028,-43.9416 0,-24.2683 15.7161,-43.9416 35.1028,-43.9416 19.3867,0 35.1028,19.6733 35.1028,43.9416z" fill="#fff" stroke="#000" stroke-linecap="round" stroke-linejoin="round" stroke-width="3" transform="translate(-38.2651,576.1996)"/>
<path d="m215.7882,914.8303c-1.8626,17.3569 7.1619,35.5596-.7576,39.6485-4.2222,2.1799-18.7359,-7.3662-29.4776,-3.4323-32.0046,11.721-24.1733,-18.3818-26.8384,-36.9738-2.4188,-16.8733-12.6894,-13.2555-12.0871,-19.7923 .9691,-10.5167 14.8015,-21.0773 35.5731,-21.8765 32.3009,5.9107 32.2703,26.8634 33.5876,42.4264z" stroke="#000" stroke-linecap="round" stroke-linejoin="round" stroke-width="3"/>
<path d="m145.5826,915.0828 18.6878,0" fill="none" stroke="#000"/>
</g>
<path d="M80.8808,929.8423H90.5736V959.6641H80.8808z" fill="#fff" stroke="#000" stroke-width="2.7623"/>
<path d="M95.779,922.4622H105.4718V952.284H95.779z" fill="#fff" stroke="#000" stroke-width="2.7623"/>
<path d="M102.9588,929.0892H112.6516V958.9111H102.9588z" fill="#fff" stroke="#000" stroke-width="2.7623"/>
<path d="M117.3186,922.7634H127.0114V952.5852H117.3186z" fill="#fff" stroke="#000" stroke-width="2.7623"/>
<path d="M1537.2495,1702.5922H1562.9623A7.1728,7.1728 0 0 1 1570.1352,1709.765V1724.1107A7.1728,7.1728 0 0 1 1562.9623,1731.2836H1537.2495A7.1728,7.1728 0 0 1 1530.0767,1724.1107V1709.765A7.1728,7.1728 0 0 1 1537.2495,1702.5922z" fill="#fff" stroke="#000" stroke-width="3.3873" transform="matrix(1,0,-.8413,.54057,0,0)"/>
<path d="m83.5557,876.3453 22.0551,0c3.5618,0 6.4292,2.8674 6.4292,6.4292-5.0993,15.2911 5.8071,29.0165 0,46.0415 0,3.5618-2.8674,6.4292-6.4292,6.4292 0,0-19.5111,0-22.0551,0-3.5618,0-6.4292,-2.8674-6.4292,-6.4292-7.1285,-18.0303 4.4909,-30.719 0,-46.0415 0,-3.5618 2.8674,-6.4292 6.4292,-6.4292z" fill="#fff" stroke="#000" stroke-width="3.0286"/>
<text font-family="Bitstream Vera Sans" font-size="25.734" x="43.1934" y="734.6502">
   <tspan font-size="20" x="43.1934" y="734.6502">Aaargh...</tspan>
  </text>
<path d="m85.863,750.8316 32.3249,68.6904" fill="none" stroke="#000"/>
<path d="M101.5203,814.9763 119.198,834.6743" fill="none" stroke="#000"/>
<path d="M75.2564,825.0779 100.0051,838.7149" fill="none" stroke="#000"/>
<path d="m430.325,353.783c0,4.6026-18.5427,8.3338-41.4163,8.3338-22.8736,0-41.4162,-3.7311-41.4162,-8.3338 0,-4.6026 18.5427,-8.3338 41.4162,-8.3338 22.8736,0 41.4163,3.7311 41.4163,8.3338z" stroke="#000" stroke-width="3" transform="matrix(1.09001,0,0,.99276,-13.03323,617.5518)"/>
<path d="m253.5483,341.4086c0,24.2683-15.7161,43.9416-35.1028,43.9416-19.3867,0-35.1028,-19.6733-35.1028,-43.9416 0,-24.2683 15.7161,-43.9416 35.1028,-43.9416 19.3867,0 35.1028,19.6733 35.1028,43.9416z" fill="#fff" stroke="#000" stroke-linecap="round" stroke-linejoin="round" stroke-width="3" transform="matrix(.00538,-.99999,-.99999,-.00538,753.33711,1158.5464)"/>
<path d="m416.0786,902.6742c-17.3667,1.7692-35.5206,-7.3532-39.652,.5442-2.2026,4.2104 7.2653,18.7752 3.2736,29.4956-11.8931,31.941 18.2514,24.2719 36.8288,27.037 16.8601,2.5095 13.187,12.7606 19.7269,12.1934 10.5218,-.9125 21.1567,-14.6878 22.0677,-35.4549-5.7367,-32.3322-26.6893,-32.4144-42.245,-33.8154z" stroke="#fff" stroke-linecap="round" stroke-linejoin="round"/>
<path d="m415.4482,972.8774 .1006,-18.6876" fill="none" stroke="#000"/>
<path d="M1780.7589,1731.9182H1806.4717A7.1728,7.1728 0 0 1 1813.6446,1739.091V1753.4367A7.1728,7.1728 0 0 1 1806.4717,1760.6096H1780.7589A7.1728,7.1728 0 0 1 1773.5861,1753.4367V1739.091A7.1728,7.1728 0 0 1 1780.7589,1731.9182z" stroke="#000" stroke-width="3.3873" transform="matrix(1,0,-.8413,.54057,0,0)"/>
<g transform="translate(218.4802,-10.2188)">
<path d="M80.8808,929.8423H90.5736V959.6641H80.8808z" fill="#fff" stroke="#000" stroke-width="2.7623"/>
<path d="M95.779,922.4622H105.4718V952.284H95.779z" fill="#fff" stroke="#000" stroke-width="2.7623"/>
<path d="M102.9588,929.0892H112.6516V958.9111H102.9588z" fill="#fff" stroke="#000" stroke-width="2.7623"/>
<path d="M117.3186,922.7634H127.0114V952.5852H117.3186z" fill="#fff" stroke="#000" stroke-width="2.7623"/>
<path d="M1537.2495,1702.5922H1562.9623A7.1728,7.1728 0 0 1 1570.1352,1709.765V1724.1107A7.1728,7.1728 0 0 1 1562.9623,1731.2836H1537.2495A7.1728,7.1728 0 0 1 1530.0767,1724.1107V1709.765A7.1728,7.1728 0 0 1 1537.2495,1702.5922z" fill="#fff" stroke="#000" stroke-width="3.3873" transform="matrix(1,0,-.8413,.54057,0,0)"/>
<path d="m83.5557,876.3453 22.0551,0c3.5618,0 6.4292,2.8674 6.4292,6.4292-5.0993,15.2911 5.8071,29.0165 0,46.0415 0,3.5618-2.8674,6.4292-6.4292,6.4292 0,0-19.5111,0-22.0551,0-3.5618,0-6.4292,-2.8674-6.4292,-6.4292-7.1285,-18.0303 4.4909,-30.719 0,-46.0415 0,-3.5618 2.8674,-6.4292 6.4292,-6.4292z" fill="#fff" stroke="#000" stroke-width="3.0286"/>
</g>
<path d="m293.9594,672.2829 0,311.4349" fill="none" stroke="#000" stroke-width="5.6562"/>
<g transform="translate(565,-4.6404)">
<path d="M821.3258,1161.9354H1028.815A6.2554,6.2554 0 0 1 1035.0704,1168.1908V1196.4559A6.2554,6.2554 0 0 1 1028.815,1202.7113H821.3258A6.2554,6.2554 0 0 1 815.0704,1196.4559V1168.1908A6.2554,6.2554 0 0 1 821.3258,1161.9354z" stroke="#000" stroke-width="4.5562" transform="matrix(1,0,-.63712,.77076,0,0)"/>
<path d="M67.9464,864.4158H72.9464A4.8214,4.8214 0 0 1 77.7679,869.2372V919.2372A4.8214,4.8214 0 0 1 72.9464,924.0586H67.9464A4.8214,4.8214 0 0 1 63.125,919.2372V869.2372A4.8214,4.8214 0 0 1 67.9464,864.4158z" fill="#fff" stroke="#000" stroke-width="3"/>
<path d="M249.1071,864.5051H254.1071A4.8214,4.8214 0 0 1 258.9286,869.3265V919.3265A4.8214,4.8214 0 0 1 254.1071,924.1479H249.1071A4.8214,4.8214 0 0 1 244.2857,919.3265V869.3265A4.8214,4.8214 0 0 1 249.1071,864.5051z" fill="#fff" stroke="#000" stroke-width="3"/>
<path d="M95.7576,848.0917H101.921A4.3137,4.3137 0 0 1 106.2347,852.4054V897.1403A4.3137,4.3137 0 0 1 101.921,901.454H95.7576A4.3137,4.3137 0 0 1 91.4438,897.1403V852.4054A4.3137,4.3137 0 0 1 95.7576,848.0917z" fill="#fff" stroke="#000" stroke-width="2.852"/>
<path d="M268.8988,848.1595H275.3869A4.1728,4.1728 0 0 1 279.5597,852.3324V895.6062A4.1728,4.1728 0 0 1 275.3869,899.7791H268.8988A4.1728,4.1728 0 0 1 264.726,895.6062V852.3324A4.1728,4.1728 0 0 1 268.8988,848.1595z" fill="#fff" stroke="#000" stroke-width="2.8091"/>
<path d="M776.081,1094.2845H983.5702A6.2554,6.2554 0 0 1 989.8256,1100.5399V1128.805A6.2554,6.2554 0 0 1 983.5702,1135.0604H776.081A6.2554,6.2554 0 0 1 769.8256,1128.805V1100.5399A6.2554,6.2554 0 0 1 776.081,1094.2845z" fill="#fff" stroke="#000" stroke-width="4.5562" transform="matrix(1,0,-.63712,.77076,0,0)"/>
<path d="M774.3716,1091.0409H981.8608A6.2554,6.2554 0 0 1 988.1162,1097.2963V1125.5614A6.2554,6.2554 0 0 1 981.8608,1131.8168H774.3716A6.2554,6.2554 0 0 1 768.1162,1125.5614V1097.2963A6.2554,6.2554 0 0 1 774.3716,1091.0409z" fill="#fff" stroke="#000" stroke-width="4.5562" transform="matrix(1,0,-.63712,.77076,0,0)"/>
<path d="M675.3655,967.0037H713.3987A3.4834,3.4834 0 0 1 716.8821,970.4871V977.8638A3.4834,3.4834 0 0 1 713.3987,981.3472H675.3655A3.4834,3.4834 0 0 1 671.8821,977.8638V970.4871A3.4834,3.4834 0 0 1 675.3655,967.0037z" fill="#fff" stroke="#000" stroke-width="3.2136" transform="matrix(1,0,-.49044,.87147,0,0)"/>
<path d="m205.0246,848.791c-1.4617,-1.6648 2.8326,-6.3505 2.8326,-8.7502l0,-21.0714c0,-5.2432 4.2211,-9.4643 9.4643,-9.4643 5.2432,0 9.4643,4.2211 9.4643,9.4643l0,21.0714c0,2.576 3.9811,7.5838 2.3228,9.287" fill="#fff" stroke="#000" stroke-width="4"/>
<path d="M172.9358,732.6575H257.0642A6.9162,6.9162 0 0 1 263.9804,739.5737V818.0078A6.9162,6.9162 0 0 1 257.0642,824.9241H172.9358A6.9162,6.9162 0 0 1 166.0196,818.0078V739.5737A6.9162,6.9162 0 0 1 172.9358,732.6575z" fill="#fff" stroke="#000" stroke-width="3.8861"/>
<path d="M178.1987,741.4255H247.8731A5.728,5.728 0 0 1 253.6011,747.1534V812.1118A5.728,5.728 0 0 1 247.8731,817.8398H178.1987A5.728,5.728 0 0 1 172.4708,812.1118V747.1534A5.728,5.728 0 0 1 178.1987,741.4255z" fill="#fff" stroke="#000" stroke-width="3.2184"/>
<path d="m177.5,276.4286c0,5.7201-3.118,10.3571-6.9643,10.3571-3.8463,0-6.9643,-4.6371-6.9643,-10.3571 0,-5.7201 3.118,-10.3571 6.9643,-10.3571 3.8463,0 6.9643,4.6371 6.9643,10.3571z" fill="#fff" stroke="#000" stroke-width="2" transform="matrix(.89625,.44355,-.44355,.89625,136.01667,533.97212)"/>
<path d="m159.6429,854.6836c4.5447,-2.2076 9.3311,-1.0311 14.1071,0" fill="none" stroke="#000"/>
<path d="m166.25,853.3443c.2636,-1.895 1.5016,-3.4644 3.2143,-5.8036" fill="none" stroke="#000"/>
<path d="m168.8393,847.3622c-.5628,-11.3434 13.9749,11.4012 10.7143,-6.7857" fill="none" stroke="#000"/>
<path d="m130.5729,848.4202c-.8171,-11.5828 36.5336,6.5667 36.6071,-8.4821" fill="none" stroke="#000"/>
<path d="M725.426,1075.2247H782.9086A5.3279,5.3279 0 0 1 788.2365,1080.5526V1092.8185A5.3279,5.3279 0 0 1 782.9086,1098.1464H725.426A5.3279,5.3279 0 0 1 720.0981,1092.8185V1080.5526A5.3279,5.3279 0 0 1 725.426,1075.2247z" fill="#fff" stroke="#000" stroke-width="3.3435" transform="matrix(1,0,-.58982,.80753,0,-19.28571)"/>
<path d="M761.465,1101.9617H765.9293V1107.6056H761.465z" fill="#fff" stroke="#000" stroke-width="2.2488" transform="matrix(1,0,-.61182,.791,0,-19.28571)"/>
<path d="M767.7051,1101.9617H772.1694V1107.6056H767.7051z" fill="#fff" stroke="#000" stroke-width="2.2488" transform="matrix(1,0,-.61182,.791,0,-19.28571)"/>
<path d="M773.9452,1101.9617H778.4095V1107.6056H773.9452z" fill="#fff" stroke="#000" stroke-width="2.2488" transform="matrix(1,0,-.61182,.791,0,-19.28571)"/>
<path d="M786.4253,1101.9617H790.8896V1107.6056H786.4253z" fill="#fff" stroke="#000" stroke-width="2.2488" transform="matrix(1,0,-.61182,.791,0,-19.28571)"/>
<path d="M792.6654,1101.9617H797.1297V1107.6056H792.6654z" fill="#fff" stroke="#000" stroke-width="2.2488" transform="matrix(1,0,-.61182,.791,0,-19.28571)"/>
<path d="M798.9055,1101.9617H803.3697V1107.6056H798.9055z" fill="#fff" stroke="#000" stroke-width="2.2488" transform="matrix(1,0,-.61182,.791,0,-19.28571)"/>
<path d="M805.1456,1101.9617H809.6099V1107.6056H805.1456z" fill="#fff" stroke="#000" stroke-width="2.2488" transform="matrix(1,0,-.61182,.791,0,-19.28571)"/>
<path d="M811.3857,1101.9617H815.85V1107.6056H811.3857z" fill="#fff" stroke="#000" stroke-width="2.2488" transform="matrix(1,0,-.61182,.791,0,-19.28571)"/>
<path d="M817.6257,1101.9617H822.09V1107.6056H817.6257z" fill="#fff" stroke="#000" stroke-width="2.2488" transform="matrix(1,0,-.61182,.791,0,-19.28571)"/>
<path d="M780.1853,1101.9617H784.6496V1107.6056H780.1853z" fill="#fff" stroke="#000" stroke-width="2.2488" transform="matrix(1,0,-.61182,.791,0,-19.28571)"/>
<path d="M761.8678,1110.4275H766.3321V1116.0714H761.8678z" fill="#fff" stroke="#000" stroke-width="2.2488" transform="matrix(1,0,-.61182,.791,0,-19.28571)"/>
<path d="M768.1079,1110.4275H772.5722V1116.0714H768.1079z" fill="#fff" stroke="#000" stroke-width="2.2488" transform="matrix(1,0,-.61182,.791,0,-19.28571)"/>
<path d="M774.348,1110.4275H778.8122V1116.0714H774.348z" fill="#fff" stroke="#000" stroke-width="2.2488" transform="matrix(1,0,-.61182,.791,0,-19.28571)"/>
<path d="M786.8281,1110.4275H791.2923V1116.0714H786.8281z" fill="#fff" stroke="#000" stroke-width="2.2488" transform="matrix(1,0,-.61182,.791,0,-19.28571)"/>
<path d="M793.0682,1110.4275H797.5325V1116.0714H793.0682z" fill="#fff" stroke="#000" stroke-width="2.2488" transform="matrix(1,0,-.61182,.791,0,-19.28571)"/>
<path d="M799.3082,1110.4275H803.7725V1116.0714H799.3082z" fill="#fff" stroke="#000" stroke-width="2.2488" transform="matrix(1,0,-.61182,.791,0,-19.28571)"/>
<path d="M805.5483,1110.4275H810.0126V1116.0714H805.5483z" fill="#fff" stroke="#000" stroke-width="2.2488" transform="matrix(1,0,-.61182,.791,0,-19.28571)"/>
<path d="M811.7885,1110.4275H816.2527V1116.0714H811.7885z" fill="#fff" stroke="#000" stroke-width="2.2488" transform="matrix(1,0,-.61182,.791,0,-19.28571)"/>
<path d="M818.0285,1110.4275H822.4928V1116.0714H818.0285z" fill="#fff" stroke="#000" stroke-width="2.2488" transform="matrix(1,0,-.61182,.791,0,-19.28571)"/>
<path d="M780.5881,1110.4275H785.0524V1116.0714H780.5881z" fill="#fff" stroke="#000" stroke-width="2.2488" transform="matrix(1,0,-.61182,.791,0,-19.28571)"/>
<path d="m193.75,222.5c1.5164,9.8412-6.0315,12.8824-8.2143,16.25" fill="none" stroke="#000" transform="translate(0,602.3622)"/>
</g>
<path d="M2081.5185,1745.1318H2107.2313A7.1728,7.1728 0 0 1 2114.4042,1752.3046V1766.6503A7.1728,7.1728 0 0 1 2107.2313,1773.8232H2081.5185A7.1728,7.1728 0 0 1 2074.3457,1766.6503V1752.3046A7.1728,7.1728 0 0 1 2081.5185,1745.1318z" stroke="#000" stroke-width="3.3873" transform="matrix(1,0,-.8413,.54057,0,0)"/>
<path d="m579.6695,670.5298 0,313.8904" fill="none" stroke="#000" stroke-width="5.6784"/>
<g transform="translate(15.7143,127.8571)">
<path d="m446.8915,78.4154c0,2.9289-27.5427,5.3033-61.5183,5.3033-33.9756,0-61.5183,-2.3744-61.5183,-5.3033 0,-2.9289 27.5427,-5.3033 61.5183,-5.3033 33.9756,0 61.5183,2.3744 61.5183,5.3033z" stroke="#000" stroke-linecap="round" stroke-width="4.862" transform="matrix(-.83173,0,0,.83173,973.3827,739.84597)"/>
<path d="m608.145,732.7995 0,39.8301c0,16.6404 13.3964,30.0368 30.0368,30.0368l29.4715,0c16.6404,0 30.0368,-13.3964 30.0368,-30.0368l0,-39.8301" fill="#fff" stroke="#000" stroke-linecap="round" stroke-linejoin="round" stroke-width="3.0293"/>
<path d="m685.2094,722.3968 0,15.4229" fill="none" stroke="#000" stroke-linecap="round" stroke-width="3.9961"/>
<path d="m677.288,720.9377 0,15.4229" fill="none" stroke="#000" stroke-linecap="round" stroke-width="3.9961"/>
<path d="m669.8549,722.1556 0,15.4229" fill="none" stroke="#000" stroke-linecap="round" stroke-width="3.9961"/>
<path d="m660.1431,721.1847 0,15.4229" fill="none" stroke="#000" stroke-linecap="round" stroke-width="3.9961"/>
<path d="m651.6938,723.0034 0,15.4229" fill="none" stroke="#000" stroke-linecap="round" stroke-width="3.9961"/>
<path d="m642.0215,722.8575 0,15.4229" fill="none" stroke="#000" stroke-linecap="round" stroke-width="3.9961"/>
<path d="m633.2862,721.4318 0,15.4229" fill="none" stroke="#000" stroke-linecap="round" stroke-width="3.9961"/>
<path d="m625.0393,723.9577 0,15.4229" fill="none" stroke="#000" stroke-linecap="round" stroke-width="3.9961"/>
<path d="m616.1623,723.651 0,15.4229" fill="none" stroke="#000" stroke-linecap="round" stroke-width="3.9961"/>
<path d="m691.7669,726.331 0,15.4229" fill="none" stroke="#000" stroke-linecap="round" stroke-width="3.9961"/>
</g>
<g transform="translate(508.1231,-3.076)">
<path d="M80.8808,929.8423H90.5736V959.6641H80.8808z" fill="#fff" stroke="#000" stroke-width="2.7623"/>
<path d="M95.779,922.4622H105.4718V952.284H95.779z" fill="#fff" stroke="#000" stroke-width="2.7623"/>
<path d="M102.9588,929.0892H112.6516V958.9111H102.9588z" fill="#fff" stroke="#000" stroke-width="2.7623"/>
<path d="M117.3186,922.7634H127.0114V952.5852H117.3186z" fill="#fff" stroke="#000" stroke-width="2.7623"/>
<path d="M1537.2495,1702.5922H1562.9623A7.1728,7.1728 0 0 1 1570.1352,1709.765V1724.1107A7.1728,7.1728 0 0 1 1562.9623,1731.2836H1537.2495A7.1728,7.1728 0 0 1 1530.0767,1724.1107V1709.765A7.1728,7.1728 0 0 1 1537.2495,1702.5922z" fill="#fff" stroke="#000" stroke-width="3.3873" transform="matrix(1,0,-.8413,.54057,0,0)"/>
<path d="m83.5557,876.3453 22.0551,0c3.5618,0 6.4292,2.8674 6.4292,6.4292-5.0993,15.2911 5.8071,29.0165 0,46.0415 0,3.5618-2.8674,6.4292-6.4292,6.4292 0,0-19.5111,0-22.0551,0-3.5618,0-6.4292,-2.8674-6.4292,-6.4292-7.1285,-18.0303 4.4909,-30.719 0,-46.0415 0,-3.5618 2.8674,-6.4292 6.4292,-6.4292z" fill="#fff" stroke="#000" stroke-width="3.0286"/>
</g>
<path d="m520.7143,915.2193 20.7143,-4.2857" fill="none" stroke="#000"/>
<text font-family="Bitstream Vera Sans" font-size="40" x="372.1429" y="713.8836">
   <tspan font-size="20" text-align="center" text-anchor="middle" x="372.1429" y="713.8836">Oh mon dieu !</tspan>
   <tspan font-size="20" text-align="center" text-anchor="middle" x="372.1429" y="738.8836">Un malaise !</tspan>
   <tspan font-size="20" text-align="center" text-anchor="middle" x="372.1429" y="763.8836">On fait quoi ?</tspan>
  </text>
<text font-family="Bitstream Vera Sans" font-size="36.874" x="658.0336" y="713.2449">
   <tspan font-size="18.437" text-align="center" text-anchor="middle" x="660.9684" y="713.2449">Il est pas Z-lock ! </tspan>
   <tspan font-size="18.437" text-align="center" text-anchor="middle" x="658.0336" y="736.2913">On le conf-lose</tspan>
   <tspan font-size="18.437" text-align="center" text-anchor="middle" x="658.0336" y="759.3378">et on pourrit</tspan>
   <tspan font-size="18.437" text-align="center" text-anchor="middle" x="660.9684" y="782.3843">son facebook ! </tspan>
  </text>
<path d="m652.1429,193.5714 10.7143,32.1429" fill="none" stroke="#000" transform="translate(0,602.3622)"/>
<path d="m390.929,174.2284 94.9543,128.2894" fill="none" stroke="#000" transform="translate(0,602.3622)"/>
<path d="m430.325,353.783c0,4.6026-18.5427,8.3338-41.4163,8.3338-22.8736,0-41.4162,-3.7311-41.4162,-8.3338 0,-4.6026 18.5427,-8.3338 41.4162,-8.3338 22.8736,0 41.4163,3.7311 41.4163,8.3338z" stroke="#000" stroke-width="3" transform="matrix(1.09001,0,0,.99276,261.89591,619.45798)"/>
<path d="m253.5483,341.4086c0,24.2683-15.7161,43.9416-35.1028,43.9416-19.3867,0-35.1028,-19.6733-35.1028,-43.9416 0,-24.2683 15.7161,-43.9416 35.1028,-43.9416 19.3867,0 35.1028,19.6733 35.1028,43.9416z" fill="#fff" stroke="#000" stroke-linecap="round" stroke-linejoin="round" stroke-width="3" transform="matrix(.00538,-.99999,-.99999,-.00538,1028.2663,1160.4526)"/>
<path d="m691.0078,904.5804c-17.3667,1.7692-35.5206,-7.3532-39.652,.5442-2.2026,4.2104 7.2653,18.7752 3.2736,29.4956-11.8931,31.941 18.2514,24.2719 36.8288,27.037 16.8601,2.5095 13.187,12.7606 19.7269,12.1934 10.5218,-.9125 21.1567,-14.6878 22.0677,-35.4549-5.7367,-32.3322-26.6893,-32.4144-42.245,-33.8154z" stroke="#fff" stroke-linecap="round" stroke-linejoin="round"/>
<path d="m690.3774,974.7836 .1006,-18.6876" fill="none" stroke="#000"/>
<g transform="translate(6.3135,-6.8185)">
<path d="M187.3833,158.571H240.9214V204.0278H187.3833z" fill="#fff" stroke="#000" transform="translate(0,602.3622)"/>
<path d="M189.4036,164.6319H238.9011V201.5025H189.4036z" fill="#fff" stroke="#000" transform="translate(0,602.3622)"/>
<path d="M234.6079,762.2692H237.7647V765.4259H234.6079z" fill="#fff" stroke="#000"/>
<path d="M229.9675,762.2692H233.1243V765.4259H229.9675z" fill="#fff" stroke="#000"/>
<path d="M225.3271,762.2692H228.4839V765.4259H225.3271z" fill="#fff" stroke="#000"/>
<text font-family="Bitstream Vera Sans" font-size="5" x="190.9188" y="773.055">
    <tspan x="190.9188" y="773.055">niulbih uhibiulbh n</tspan>
    <tspan x="190.9188" y="779.305">kjhuilnuTHE GAME</tspan>
    <tspan x="190.9188" y="785.555">njuun iuhuyby buu</tspan>
    <tspan x="190.9188" y="791.805">uhuh  kjhoun; l</tspan>
   </text>
</g>
<g transform="translate(290.9239,-13.132)">
<path d="M187.3833,158.571H240.9214V204.0278H187.3833z" fill="#fff" stroke="#000" transform="translate(0,602.3622)"/>
<path d="M189.4036,164.6319H238.9011V201.5025H189.4036z" fill="#fff" stroke="#000" transform="translate(0,602.3622)"/>
<path d="M234.6079,762.2692H237.7647V765.4259H234.6079z" fill="#fff" stroke="#000"/>
<path d="M229.9675,762.2692H233.1243V765.4259H229.9675z" fill="#fff" stroke="#000"/>
<path d="M225.3271,762.2692H228.4839V765.4259H225.3271z" fill="#fff" stroke="#000"/>
<text font-family="Bitstream Vera Sans" font-size="5" x="190.9188" y="773.055">
    <tspan x="190.9188" y="773.055">niulbih uhibiuluh n</tspan>
    <tspan x="190.9188" y="779.305">kjhuilnuTHE GAME</tspan>
    <tspan x="190.9188" y="785.555">njuun iuhuyby bbu</tspan>
    <tspan x="190.9188" y="791.805">uhuh  kjhoun; l</tspan>
   </text>
</g>
<g transform="translate(571.7463,-13.132)">
<path d="M187.3833,158.571H240.9214V204.0278H187.3833z" fill="#fff" stroke="#000" transform="translate(0,602.3622)"/>
<path d="M189.4036,164.6319H238.9011V201.5025H189.4036z" fill="#fff" stroke="#000" transform="translate(0,602.3622)"/>
<path d="M234.6079,762.2692H237.7647V765.4259H234.6079z" fill="#fff" stroke="#000"/>
<path d="M229.9675,762.2692H233.1243V765.4259H229.9675z" fill="#fff" stroke="#000"/>
<path d="M225.3271,762.2692H228.4839V765.4259H225.3271z" fill="#fff" stroke="#000"/>
<text font-family="Bitstream Vera Sans" font-size="5" x="190.9188" y="773.055">
    <tspan x="190.9188" y="773.055">niulbih uhibiulbn n</tspan>
    <tspan x="190.9188" y="779.305">kjhuilnuTHE GAME</tspan>
    <tspan x="190.9188" y="785.555">njuun iuhuyby bbu</tspan>
    <tspan x="190.9188" y="791.805">uhuh  kjhoun; l</tspan>
   </text>
</g>
<g transform="matrix(-1.00676,0,0,1.00676,1094.96028,655.40272)">
<path d="m446.8915,78.4154c0,2.9289-27.5427,5.3033-61.5183,5.3033-33.9756,0-61.5183,-2.3744-61.5183,-5.3033 0,-2.9289 27.5427,-5.3033 61.5183,-5.3033 33.9756,0 61.5183,2.3744 61.5183,5.3033z" stroke="#000" stroke-linecap="round" stroke-width="4.862" transform="matrix(.6118,0,0,.83289,60.47922,238.28112)"/>
<path d="m329.1406,231.2248 0,39.8857c0,16.6636-9.8541,30.0787-22.0944,30.0787l-21.6786,0c-12.2403,0-22.0944,-13.4151-22.0944,-30.0787l0,-39.8857" fill="#fff" stroke="#000" stroke-linecap="round" stroke-linejoin="round" stroke-width="2.6"/>
<path d="m70.7107,315.9022c0,3.7658-2.4874,6.8185-5.5558,6.8185-3.0684,0-5.5558,-3.0528-5.5558,-6.8185 0,-3.7658 2.4874,-6.8185 5.5558,-6.8185 3.0684,0 5.5558,3.0528 5.5558,6.8185z" fill="#fff" stroke="#000" stroke-linecap="round" stroke-linejoin="round" stroke-width="3.891" transform="matrix(.82764,0,0,.82764,237.7284,-8.80164)"/>
<path d="m70.7107,315.9022c0,3.7658-2.4874,6.8185-5.5558,6.8185-3.0684,0-5.5558,-3.0528-5.5558,-6.8185 0,-3.7658 2.4874,-6.8185 5.5558,-6.8185 3.0684,0 5.5558,3.0528 5.5558,6.8185z" fill="#fff" stroke="#000" stroke-linecap="round" stroke-linejoin="round" stroke-width="3.891" transform="matrix(.82764,0,0,.82764,256.0803,-9.13215)"/>
<path d="m281.253,281.5701 11.2017,2.7432" fill="none" stroke="#000" stroke-width=".8276"/>
<path d="m318.4506,219.9965c-14.3276,-3.2591-29.1226,-4.3374-45.4569,1.7678-14.4666,4.6962-22.3994,18.9779-14.1421,39.6485l-5.8084,11.1117c-8.9284,6.9537 8.599,3.963 10.6806,2.7832l.4311,-22.2286c4.8238,-2.3204 8.2962,-4.2531 9.562,-10.7899 .6448,-3.3294 3.1094,2.1094 8.6872,-4.0386 1.0861,-1.1971 7.9144,-4.2148 12.3079,-5.8796 0,0 16.8311,-2.718 24.2437,.5051 3.8761,1.6854 8.2649,6.9939 9.2176,11.1117 1.1581,5.0055-5.4819,10.3102-4.9245,13.5108 .3325,1.9092 5.5558,-.6313 5.5558,-.6313-4.9313,10.8388 .8798,14.7563 9.9753,15.9099 0,0-9.9644,-4.6583-10.9854,-1.0102-1.358,4.852 8.042,6.5751 12.2481,5.177 .8384,-.2787 1.9112,-1.809 1.3377,-2.288-.6277,-.5243-3.9267,-.252-3.3847,-.303 4.319,-.4058 3.1282,-4.634 1.4156,-5.4903-3.2948,-.529-7.8857,-.528-6.566,-9.4702 1.6898,-3.2617 5.6827,-33.7733-14.3947,-39.3959z" stroke="#000"/>
</g>
<g transform="matrix(-1.00676,0,0,1.00676,828.75537,665.58357)">
<path d="m446.8915,78.4154c0,2.9289-27.5427,5.3033-61.5183,5.3033-33.9756,0-61.5183,-2.3744-61.5183,-5.3033 0,-2.9289 27.5427,-5.3033 61.5183,-5.3033 33.9756,0 61.5183,2.3744 61.5183,5.3033z" stroke="#000" stroke-linecap="round" stroke-width="4.862" transform="matrix(.6118,0,0,.83289,60.47922,238.28112)"/>
<path d="m329.1406,231.2248 0,39.8857c0,16.6636-9.8541,30.0787-22.0944,30.0787l-21.6786,0c-12.2403,0-22.0944,-13.4151-22.0944,-30.0787l0,-39.8857" fill="#fff" stroke="#000" stroke-linecap="round" stroke-linejoin="round" stroke-width="2.6"/>
<path d="m70.7107,315.9022c0,3.7658-2.4874,6.8185-5.5558,6.8185-3.0684,0-5.5558,-3.0528-5.5558,-6.8185 0,-3.7658 2.4874,-6.8185 5.5558,-6.8185 3.0684,0 5.5558,3.0528 5.5558,6.8185z" fill="#fff" stroke="#000" stroke-linecap="round" stroke-linejoin="round" stroke-width="3.891" transform="matrix(.82764,0,0,.82764,237.7284,-8.80164)"/>
<path d="m70.7107,315.9022c0,3.7658-2.4874,6.8185-5.5558,6.8185-3.0684,0-5.5558,-3.0528-5.5558,-6.8185 0,-3.7658 2.4874,-6.8185 5.5558,-6.8185 3.0684,0 5.5558,3.0528 5.5558,6.8185z" fill="#fff" stroke="#000" stroke-linecap="round" stroke-linejoin="round" stroke-width="3.891" transform="matrix(.82764,0,0,.82764,256.0803,-9.13215)"/>
<path d="m281.253,281.5701 11.2017,2.7432" fill="none" stroke="#000" stroke-width=".8276"/>
<path d="m318.4506,219.9965c-14.3276,-3.2591-29.1226,-4.3374-45.4569,1.7678-14.4666,4.6962-22.3994,18.9779-14.1421,39.6485l-5.8084,11.1117c-8.9284,6.9537 8.599,3.963 10.6806,2.7832l.4311,-22.2286c4.8238,-2.3204 8.2962,-4.2531 9.562,-10.7899 .6448,-3.3294 3.1094,2.1094 8.6872,-4.0386 1.0861,-1.1971 7.9144,-4.2148 12.3079,-5.8796 0,0 16.8311,-2.718 24.2437,.5051 3.8761,1.6854 8.2649,6.9939 9.2176,11.1117 1.1581,5.0055-5.4819,10.3102-4.9245,13.5108 .3325,1.9092 5.5558,-.6313 5.5558,-.6313-4.9313,10.8388 .8798,14.7563 9.9753,15.9099 0,0-9.9644,-4.6583-10.9854,-1.0102-1.358,4.852 8.042,6.5751 12.2481,5.177 .8384,-.2787 1.9112,-1.809 1.3377,-2.288-.6277,-.5243-3.9267,-.252-3.3847,-.303 4.319,-.4058 3.1282,-4.634 1.4156,-5.4903-3.2948,-.529-7.8857,-.528-6.566,-9.4702 1.6898,-3.2617 5.6827,-33.7733-14.3947,-39.3959z" stroke="#000"/>
</g>
</g>
</svg>
