<svg version="1.1" viewBox="0 0 900 900" xmlns="http://www.w3.org/2000/svg" xmlns:svg="http://www.w3.org/2000/svg">
<g transform="translate(0,-152.3622)">
<g transform="matrix(.90037,0,0,.90037,830.80098,347.61721)">
<path d="m14.3147,739.4487c.4393,.5102 1.0355,.5714 1.6702,.6073 .8029,-.0216 1.6072,-.2138 2.3575,-.4993 .4009,-.1525 .6224,-.2824 .9965,-.4789-2.2386,1.3097-.9924,.6083-.5738,.1636 .2168,-.2303 .3463,-.473 .4686,-.7606 .3177,-.895 .3589,-1.8573 .4131,-2.797 .1056,-1.3679-.1776,-2.7109-.4825,-4.0352-.3709,-1.393-.8746,-2.7466-1.4293,-4.0757-.2656,-.6279-.5661,-1.2401-.8587,-1.8556-.3944,-.7567-.717,-.2868 1.5104,-1.1508 .0768,-.0298 .0919,.1367 .1411,.2027 .0823,.1106 .1689,.2179 .2533,.3269 .8217,1.1276 1.8098,2.1155 2.8001,3.0928 .5826,.5674 1.2073,1.094 1.7645,1.6873 .2114,.1727 .3378,.416 .508,.623 .1662,.1502 .2962,-.008 .4431,-.1107-2.5656,1.5385-1.6519,1.0412-1.1599,.5695 .1937,-.1858 .3764,-.3843 .5618,-.5781 .2632,-.2626 .5127,-.5438 .801,-.7804 .761,-.6244 1.8227,-1.1234 2.6097,-1.5711 .7271,-.3211 1.471,-.6005 2.2265,-.8468 .1563,-.0339 .761,-.2664 .899,-.1093 .0321,.0366 .0451,.0862 .0677,.1294 .0031,.0441 .0154,.0885 .0094,.1323-.0436,.3196-.5385,.6916-.7545,.8904-.9928,.8208-1.9561,1.6745-2.8731,2.5792-.7976,.8557-1.6216,1.7004-2.2566,2.6874-.3921,.6165-.6005,1.2972-.6984,2.0144-.0648,.6414-.0542,1.2873-.0532,1.9311 .0351,.6999 .1244,1.4011 .3328,2.0716 .1195,.3571 .3319,.6194 .6717,.7762 .2255,.0795 .4837,.1318 .7238,.0865 .0559,-.0105 .5216,-.1684 .5589,-.1808 .5492,-.2997 1.8756,-1.0005-.6067,.3598-.0982,.0538 .1891,-.1201 .2821,-.1824 .2138,-.1431 .2651,-.1851 .4657,-.3347 .2405,-.18 .1266,-.0925 .3424,-.2616l1.7191,-.6914c-.2178,.1831-.1012,.0918-.3516,.2719-1.0139,.7828-2.137,1.4308-3.3009,1.9611-.5107,.1524-.8878,.2254-1.3851,-.01-.3662,-.2065-.6055,-.5061-.7343,-.9112-.2041,-.6903-.2811,-1.4089-.3481,-2.1237-.0039,-.6502-.0146,-1.3022 .038,-1.9509 .0928,-.7432 .2887,-1.4525 .6884,-2.0956 .0801,-.1332 .153,-.2712 .2404,-.3997 .1797,-.264 .4481,-.5661 .6529,-.8036 .4526,-.5247 .9157,-1.0402 1.3938,-1.5419 .8918,-.8997 1.8318,-1.7498 2.8066,-2.5591 .2761,-.2564 .5618,-.5063 .8001,-.7994 .0396,.0209-.0878,.0175-.1321,.0237-.221,.0309-.4338,.0996-.6466,.1641-.7471,.2466-1.4866,.5202-2.1959,.8624 2.4446,-1.4457 .9748,-.6248 .497,-.2572-.291,.2239-.54,.5004-.7953,.7622-.9257,.9766-.9789,1.08-2.545,1.8884-.2567,.1212-.4002,.1069-.6009,-.1041-.1584,-.2095-.2854,-.443-.481,-.6232-.5334,-.6025-1.1282,-1.1492-1.6932,-1.7213-.9808,-.9983-1.9767,-1.9849-2.8496,-3.0818-.0938,-.1054-.1877,-.2107-.2814,-.3162-.0521,-.0586-.2154,-.125-.1559,-.1761 1.4141,-1.2139 1.334,-1.5318 1.6993,-.7303 .2757,.628 .5663,1.2498 .8171,1.8885 .5249,1.3529 1.0089,2.7231 1.4053,4.1197 .3185,1.3302 .6335,2.6814 .5419,4.0599-.0362,.9485-.0918,1.9144-.3493,2.8318-.0847,.2347-.1139,.3545-.249,.5692-.5938,.9435-1.8747,1.3891-2.7166,1.9247-1.0714,.5266-2.2113,.8989-3.4172,.9043-.1676,-.0134-.3365,-.0158-.5029,-.0403-.4955,-.0729-.9575,-.2894-1.3004,-.6568l1.6003,-.9608z" stroke="#000" stroke-linecap="round" stroke-linejoin="round" stroke-width=".2515"/>
<path d="m29.6793,737.292c-.7394,.2071-2.342,1.1965 .4556,-.4044-.388,.2065-.6184,.5425-.7999,.9302-.1036,.3106-.2142,.6511-.1917,.9845 .0156,.2307 .0756,.3466 .154,.562 .3071,.6068 .7794,1.1058 1.3399,1.4838 .4137,.288 .8839,.4191 1.383,.4252 .3851,-.0875 .743,-.2375 1.0957,-.4124 .1503,-.0745 .5909,-.3179 .4467,-.232-1.6618,.9892-1.2456,.7222-.6575,.3195 .4842,-.3729 1.0105,-.8056 1.1352,-1.4399 .0174,-.0886 .0162,-.1799 .0243,-.2698-.032,-.7933-.5333,-1.4143-1.0169,-2.0008-.3049,-.3393-.6501,-.6629-1.0669,-.861-.2115,-.1006-.32,-.1184-.544,-.1779-.4519,-.0246-.9255,.0184-1.3546,.1741-.1984,.072-.499,.2394-.6834,.3368 2.5132,-1.5078 .8665,-.5124 .3482,-.0616l-1.7106,.6998c.796,-.7657 1.8589,-1.2168 2.7842,-1.7769 .2686,-.1306 .4271,-.2208 .7141,-.308 .4568,-.1387 .9485,-.1711 1.419,-.1017 .2419,.0772 .34,.0967 .5672,.2177 .4231,.2255 .772,.5679 1.084,.9255 .5088,.6264 1.0253,1.2756 1.1028,2.1094-.0037,.1012 .0025,.2032-.0112,.3035-.0928,.6825-.6005,1.1676-1.1167,1.5708-1.0013,.7187-.4882,.3709-2.4236,1.4671-.5043,.2856-1.0559,.5275-1.6351,.5951-.5218,-.0461-1.0072,-.1999-1.4323,-.5165-.5749,-.4193-1.0583,-.9487-1.3949,-1.5794-.0785,-.2055-.1678,-.4012-.1946,-.6229-.0421,-.3472 .0735,-.712 .1572,-1.043 .1608,-.4086 .3649,-.7958 .7491,-1.0357 .9031,-.5198 1.7482,-1.1163 2.7557,-1.3944l-1.4819,1.1332z" stroke="#000" stroke-linecap="round" stroke-linejoin="round" stroke-width=".2515"/>
<path d="m37.4754,738.0464c-.3202,.1024-.653,.1903-.9574,.3362-.1022,.049-.1982,.1101-.2973,.1651 .4207,-.2356 .8414,-.4712 1.2621,-.7068-.4994,.337-.87,.6738-1.0934,1.2386-.1462,.4652-.0761,.8586 .2923,1.2028 .0889,.0831 .1935,.1477 .2903,.2216 .7042,.4045 1.5378,.5494 2.3444,.4638 .2312,-.0245 .458,-.0805 .687,-.1208 .53,-.1368 .7609,-.1749 1.2586,-.3838 .1651,-.0693 .635,-.3305 .4812,-.2387-2.2382,1.3365-1.2251,.7542-.8736,.3984 .078,-.0789 .1399,-.1722 .2098,-.2583 .3065,-.4795 .3144,-.9061 .0985,-1.417-.0396,-.0897-.268,-.5604-.4291,-.4586-.0279,.0176-.042,.0509-.063,.0763 2.5422,-1.4497 1.5743,-1.2073 1.3277,-.5008-.1064,.3049-.125,.6013-.1396,.9215 .1766,1.4863 .8332,2.8626 1.3726,4.2435 .6559,1.8244 1.2881,3.7176 1.3609,5.6744 .0145,.3894-.0234,.7791-.0352,1.1686-.0582,.3745-.0908,.754-.1745,1.1236-.2732,1.2059-.8948,2.3097-1.8179,3.137-.1627,.1458-.3469,.2657-.5204,.3986-.6941,.3626-1.3544,.7991-2.0824,1.0879-.3018,.1197-1.0302,-.13-1.2689,-.2364-.8875,-.3957-1.654,-1.0455-2.408,-1.6406-1.2719,-1.0888-2.5172,-2.2245-3.6551,-3.4552-.5895,-.6376-.7352,-.8522-1.2472,-1.5118-.4358,-.7271-.9494,-1.57-.521,-2.4271 .2535,-.5072 .5595,-.6912 .9842,-1.0605 1.2727,-.8247 1.3769,-.9186 3.2195,-1.8517 .4497,-.2277 1.9,-.7427 2.3438,-.8976 .8851,-.3088 1.8369,-.6147 2.7269,-.9055 2.3381,-.6744 4.6281,-1.4959 6.8914,-2.3864 .1921,-.0817 .3845,-.1627 .5764,-.245 .1466,-.0628 .2943,-.1233 .439,-.1904 .2958,-.1371 .5721,-.3067 .8773,-.4229 .4138,-.059 .559,.4392 .6828,.7418 .2853,.7705 .446,1.5785 .5154,2.3954 .0171,.366 .029,.7337-.0228,1.0975-.0053,.0372 .0139,.0951-.0201,.1109-.5544,.2582-1.1333,.4601-1.6999,.6902 .0015,-.1126-.0047,-.2255 .0045,-.3377 .0134,-.1633 .0414,-.325 .063,-.4874 .1257,-.9479 .2903,-1.8831 .4832,-2.8196 .1955,-.8168 .3644,-1.6723 .8312,-2.3853 .5286,-.5535 1.7043,-1.6447 2.2768,-1.0096 .06,.0665 .1019,.1472 .1529,.2208 .112,.1981 .2088,.3485 .2821,.568 .2061,.6171 .2986,1.3405 .4077,1.9824 .1424,.5555 .0881,1.2207 .2567,1.7654 .2229,-.5987-.0023,.0277-1.6032,.7911-.0325,.0155 .0489,-.0535 .0671,-.0845 .0417,-.0712 .1233,-.2801 .1551,-.3443 .0433,-.0875 .0929,-.1719 .1393,-.2578 .3011,-.4825 .556,-.9925 .8877,-1.4552 .5547,-.695 1.0736,-.8467 2.0338,-1.3744 .0329,-.0181 .0773,-.008 .1126,.005 .045,.0163 .08,.0526 .12,.0789 .3755,.395 .5063,.9539 .6331,1.4682 .1102,.56 .1691,1.1313 .374,1.6669 .0499,.0702 .0906,.1479 .1496,.2107 .4298,.4569 1.1407,.7985 1.727,.9842 .2206,.0699 .4479,.1166 .6718,.175 .9481,.2366 1.8995,.2483 2.8425,-.0109 .2087,-.0574 .4184,-.1173 .6161,-.2054 .1842,-.0821 .3491,-.2019 .5237,-.3028-.3631,.1874-.6996,.4397-1.0894,.5621-.1503,.0472 .2339,-.2118 .3412,-.3271 .3164,-.3401 .4973,-.7183 .6246,-1.1583 .0873,-.3664 .0858,-.7428 .0757,-1.1166-.1021,-.7716-.7838,-.0122 1.5762,-.9706 .043,-.0174-.0252,.0895-.0324,.1353-.0105,.0666-.0137,.1342-.0206,.2013-.0335,.6079-.0474,1.2172 .0202,1.8229 .0688,.3897 .1433,.7878 .4487,1.0613 .2149,.1415 .443,.1511 .6803,.0734 .5712,-.2883 1.4287,-.7883-1.1689,.6781-.0922,.052 .1782,-.1143 .2658,-.1737l1.729,-.6874c-.1339,.1099-.1095,.0986-.2632,.1884-.5841,.3415-1.3074,.9119-2.0466,1.1199-.2885,.0309-.5575,-.0318-.7831,-.2236-.314,-.3274-.4164,-.7448-.4864,-1.185-.0743,-.6127-.0594,-1.2282-.0514,-1.8445 .0025,-.0823 .0097,-.3683 .0155,-.3721 1.2231,-.8123 1.6185,-1.5813 1.7738,-.6732 .0087,.3929 .0092,.788-.0729,1.1746-.4026,1.6039-1.4656,1.9693-2.9269,2.8345-.1797,.0906-.3518,.1981-.539,.2718-1.1255,.4431-2.3519,.4076-3.5096,.13-.2313,-.0613-.4661,-.1105-.6938,-.184-.5824,-.188-1.4014,-.59-1.8309,-1.0418-.0707,-.0744-.1217,-.1654-.1826,-.2482-.2042,-.5462-.263,-1.1251-.3681,-1.696-.1059,-.4424-.211,-.9895-.5766,-1.2965-.0862,.0108-.0417,-.002-.1309,.0472 .494,-.2933 .9881,-.5865 1.4821,-.8797 .0418,-.024-.0765,.0589-.1115,.092-.088,.083-.1593,.1827-.2543,.2588-.3546,.4458-.6103,.9514-.9065,1.4362-.1113,.1906-.2033,.3719-.2742,.5809-.0144,.0426 .0016,.1066-.0369,.1297-1.6717,1.0055-1.301,1.4123-1.7676,.8263-.1403,-.5915-.0684,-1.2195-.2051,-1.8138-.1337,-.8319-.2366,-1.7229-.6888,-2.4507-.0786,-.0945-.1124,-.1812-.2373,-.2042-.0338,-.006-.1319,.0282-.1027,.01 .4848,-.3029 .9881,-.5749 1.4781,-.8692 .044,-.0264-.0961,.0379-.1396,.0652-.0513,.0322-.0953,.0748-.1429,.1121-.5512,.6573-.7174,1.5447-.9403,2.3498-.2511,1.1609-.4667,2.3381-.5021,3.5279-.5413,.3318-1.0717,.6821-1.624,.9954-.0304,.0172 .0302,-.0634 .04,-.097 .1011,-.3479 .0723,-.7161 .0723,-1.073-.0467,-.7985-.196,-1.5926-.501,-2.3352-.0582,-.1343-.1651,-.5237-.3687,-.5375-.0472,-.003-.1338,.0342-.1714,.0477-.6021,.2681-1.1868,.5757-1.8125,.79-2.2433,.8437-4.5057,1.6345-6.8063,2.3092-1.3354,.4418-2.6801,.8687-3.988,1.3886-.3765,.1496-.7211,.3958-1.1182,.4762-.2039,.0413 .7012,-.4449 .5142,-.3538-.2728,.1328-.5155,.32-.7733,.48-.4814,.3865-1.0718,.7863-1.1859,1.4525-.1123,.6557 .3053,1.262 .5878,1.8057 .1747,.2387 .3409,.4837 .524,.716 1.2506,1.586 2.7723,2.9468 4.3216,4.2314 .7601,.5675 1.5353,1.2021 2.4338,1.5462 .2074,.0794 .4249,.1396 .6456,.1641 .1883,.021 .6695,-.1887 .5676,-.029-.2123,.3325-.6509,.446-.9763,.669 .1821,-.1271 .3749,-.2403 .5464,-.3814 .9528,-.7839 1.6207,-1.8661 1.9179,-3.0621 .0903,-.3634 .1256,-.7382 .1884,-1.1073 .0181,-.3842 .0641,-.7681 .0543,-1.1525-.0495,-1.9411-.7079,-3.8142-1.3712,-5.6146-.5628,-1.3919-1.2476,-2.7639-1.4927,-4.2575-.0082,-.3535 4.4e-4,-.6227 .086,-.9647 .0048,-.0191 .0997,-.3596 .142,-.3887 .5428,-.3738 1.1209,-.6937 1.6814,-1.0405 .0426,.003 .0866,-.001 .1279,.0102 .2648,.0724 .3917,.4009 .5024,.6157 .2357,.5565 .268,1.0517-.0319,1.5983-.068,.0974-.1268,.202-.2041,.2923-.5521,.6452-1.6564,1.098-2.2184,1.4107-.5375,.2991-1.1558,.4269-1.747,.5653-.2367,.0355-.4715,.087-.71,.1065-.852,.0696-1.7224,-.0834-2.4497,-.5408-.1044,-.0833-.2169,-.1574-.3133,-.25-.4073,-.3914-.5345,-.8233-.3997,-1.3636 .2032,-.6461 .5218,-.9587 1.0648,-1.3564 1.0479,-.6191 1.9953,-1.302 3.1758,-1.5918l-1.4819,1.1332z" stroke="#000" stroke-linecap="round" stroke-linejoin="round" stroke-width=".2515"/>
<path d="m62.8862,732.3968c-.2243,.2632-.4035,.5643-.4888,.9007-.0611,.3364 .1396,.4226 .4154,.5433 .4462,.1634 .8277,.1455 1.2847,.0647 .6111,-.2095 1.5817,-.8065-1.1348,.6921-.0382,.021 .0724,-.0491 .1046,-.0784 .0766,-.0699 .0844,-.0988 .1345,-.1863 .0923,-.207 .0832,-.4008-.0356,-.5915-.1581,-.1498-.3958,-.1358-.5998,-.1457-.2107,.0195-.4113,.0717-.5826,.1981l1.4548,-1.1716c.2072,-.0784 .4191,-.128 .6429,-.1102 .2663,.0263 .5282,.0641 .7009,.2916 .1406,.2366 .1962,.4812 .1149,.7512-.2947,.8892-1.4141,1.2488-2.2801,1.4605-.4615,.058-.9177,.0327-1.3515,-.1527-.3119,-.1609-.5915,-.3623-.5442,-.7527 .0576,-.3624 .2344,-.6871 .4467,-.9831l1.718,-.7299z" stroke="#000" stroke-linecap="round" stroke-linejoin="round" stroke-width=".2515"/>
<path d="m39.0416,736.9285c.3537,-.1719 .6913,-.3752 1.0561,-.5234 .2286,-.1485 .4794,-.2171 .7469,-.2463 .246,-.0187 .4931,-.0156 .7396,-.0147 .2447,-.026 .452,.0409 .667,.1458 .1505,.1206 .2692,.2808 .3835,.4358 .0994,.1805 .1578,.3831 .2189,.5798 .0548,.2015 .1295,.3941 .169,.6001 .038,.2418 .0406,.4871 .0436,.7313 .0011,.1259 9.1e-4,.2518 8.4e-4,.3777l-1.662,.8466c1.7e-4,-.1253 4.3e-4,-.2505-1.3e-4,-.3758-.0017,-.2343-.0022,-.4696-.0316,-.7024-.0328,-.2007-.1062,-.3854-.1597,-.5802-.0519,-.1769-.1078,-.3572-.1882,-.5221-.0978,-.1283-.193,-.2747-.3336,-.3578-.1975,-.0858-.4034,-.0913-.6168,-.0821-.2413,10e-4-.4842,-1e-4-.7231,.0389-.2526,.0534-.4803,.1621-.7103,.2775-.3579,.1664-.704,.3572-1.0509,.5452l1.4507,-1.1737z" stroke="#000" stroke-linecap="round" stroke-linejoin="round" stroke-width=".2515"/>
</g>
<path d="M98.9895,240.9155H792.075A77.7689,77.7689 0 0 1 869.8438,318.6844V929.4747A77.7689,77.7689 0 0 1 792.075,1007.2435H98.9895A77.7689,77.7689 0 0 1 21.2206,929.4747V318.6844A77.7689,77.7689 0 0 1 98.9895,240.9155z" fill="#fff" stroke="#000" stroke-linecap="round" stroke-width="11.7782"/>
<path d="M106.7455,201.3169H293.1345A17.1383,17.1383 0 0 1 310.2729,218.4552V218.4552A17.1383,17.1383 0 0 1 293.1345,235.5936H106.7455A17.1383,17.1383 0 0 1 89.6071,218.4552V218.4552A17.1383,17.1383 0 0 1 106.7455,201.3169z" fill="#fff" stroke="#000" stroke-linecap="round" stroke-linejoin="round" stroke-width="4.1702"/>
<path d="m101.5203,44.9288c0,19.2473-16.5075,34.8503-36.8706,34.8503-20.3631,0-36.8706,-15.603-36.8706,-34.8503 0,-19.2473 16.5075,-34.8503 36.8706,-34.8503 20.3631,0 36.8706,15.603 36.8706,34.8503z" stroke="#000" stroke-linecap="round" stroke-linejoin="round" stroke-width="7.491" transform="matrix(.71851,0,0,.76708,43.91342,177.21203)"/>
<text font-family="Bitstream Vera Sans" font-size="41.702" transform="scale(.968,1.033)" x="67.9439" y="219.5024">
   <tspan fill="#f9f9f9" x="67.9439" y="219.5024">82</tspan>
  </text>
<text font-family="Bitstream Vera Sans" font-size="20.851" transform="scale(.968,1.033)" x="149.426" y="219.0066">
   <tspan x="149.426" y="219.0066">Anniversaire</tspan>
  </text>
<path d="m446.8915,78.4154c0,2.9289-27.5427,5.3033-61.5183,5.3033-33.9756,0-61.5183,-2.3744-61.5183,-5.3033 0,-2.9289 27.5427,-5.3033 61.5183,-5.3033 33.9756,0 61.5183,2.3744 61.5183,5.3033z" stroke="#000" stroke-linecap="round" stroke-width="4.862" transform="matrix(1.97585,0,0,1.97585,-464.45951,717.11971)"/>
<g transform="matrix(1.97585,0,0,1.97585,489.2078,129.74256)">
<path d="m-43.5297,288.8057 0,47.8884c0,20.007-16.1067,36.1137-36.1137,36.1137l-35.434,0c-20.007,0-36.1137,-16.1067-36.1137,-36.1137l0,-47.8884" fill="#fff" stroke="#000" stroke-linecap="round" stroke-linejoin="round" stroke-width="3.6422"/>
<path d="M-122.1431,308.6171H-98.6091A.7803,.7803 0 0 1 -97.8288,309.3974V319.4235A.7803,.7803 0 0 1 -98.6091,320.2038H-122.1431A.7803,.7803 0 0 1 -122.9234,319.4235V309.3974A.7803,.7803 0 0 1 -122.1431,308.6171z" stroke="#000" stroke-linecap="square" stroke-linejoin="round" stroke-width="3.7338"/>
<path d="M-80.7522,308.6171H-60.3393A2.3409,2.3409 0 0 1 -57.9985,310.958V317.8629A2.3409,2.3409 0 0 1 -60.3393,320.2038H-80.7522A2.3409,2.3409 0 0 1 -83.093,317.8629V310.958A2.3409,2.3409 0 0 1 -80.7522,308.6171z" stroke="#000" stroke-linecap="square" stroke-linejoin="round" stroke-width="3.7338"/>
<path d="m-148.8829,313.6717c.5492,.0105 1.0986,.007 1.6478,.004 .363,-.002 .7259,-.004 1.0889,-.004 .2925,-4.3e-4 .585,-4e-4 .8775,-4e-4 .304,-6.3e-4 .6081,6e-4 .9121,10e-4 .3906,-.01 .7752,-3.7e-4 1.162,.0507 .3996,.0545 .8031,.0717 1.2062,.0827 .4052,-.0158 .8029,.0589 1.204,.099 .4079,.0368 .818,.0407 1.2274,.045 .4301,.002 .8603,.002 1.2904,6.5e-4 .3736,-7.6e-4 .7472,-10e-4 1.1208,-.002 .307,-7.7e-4 .6141,-9.8e-4 .9211,-10e-4 .2915,-8e-5 .583,-7e-5 .8745,-6e-5 .2915,1e-5 .5831,1e-5 .8746,1e-5 .3187,-3.9e-4 .6374,5.3e-4 .9561,.002 .3943,.002 .7885,4.4e-4 1.1828,-6.3e-4 .3709,-2.7e-4 .7418,4.7e-4 1.1126,10e-4 .3967,-1.7e-4 .7934,-8e-5 1.1902,-10e-4 .38,1.9e-4 .7599,7.4e-4 1.1399,1.6e-4 .3456,-.001 .6912,-.002 1.0367,2.5e-4 .5332,.003 1.0664,.004 1.5996,.006 .7266,.003 1.4533,.003 2.1799,.001 .5332,-.001 1.0664,-.005 1.5997,-.005 .4413,6.5e-4 .8826,-2e-5 1.3239,-.002 .0611,-2e-4 .1222,-4e-4 .1833,-6e-4l-1.746,1.1993c-.0605,-2.1e-4-.121,-4.1e-4-.1815,-6.1e-4-.4399,-.002-.8797,-.002-1.3196,-.002-.528,-2.2e-4-1.0559,-.004-1.5839,-.005-.7276,-.002-1.4552,-.002-2.1828,9.9e-4-.5391,.002-1.0782,.003-1.6173,.006-.3458,.002-.6916,.002-1.0375,2.6e-4-.3801,-5.7e-4-.7602,-3e-5-1.1404,1.5e-4-.3957,-9.9e-4-.7914,-8.9e-4-1.187,-.001-.3723,.001-.7447,.002-1.117,.002-.3937,-10e-4-.7873,-.003-1.181,-6.3e-4-.3206,.001-.6411,.002-.9617,.002-.2915,0-.5831,0-.8747,0-.2914,0-.5829,2e-5-.8743,-6e-5-.306,-1.3e-4-.612,-3.5e-4-.918,-9.6e-4-.372,-6.9e-4-.744,-8.4e-4-1.1161,-8.8e-4-.4302,-8.3e-4-.8603,7e-4-1.2904,-.004-.4148,-.006-.8303,-.0145-1.2428,-.0595-.3968,-.0446-.792,-.0972-1.193,-.0869-.4078,-.0152-.8149,-.0435-1.2193,-.0968-.382,-.0404-.7654,-.0292-1.1493,-.0278-.3051,5.6e-4-.6103,.002-.9155,.001-.2921,10e-6-.5842,3e-5-.8763,-4e-4-.3589,-6.7e-4-.7177,-.002-1.0765,-.004-.5532,-.003-1.1065,-.006-1.6597,.004l1.7494,-1.2016z" stroke="#000" stroke-linecap="square" stroke-linejoin="round" stroke-width=".4767"/>
<path d="m-57.3881,313.9484c.7039,.0118 1.4079,.0102 2.1119,.01 .6452,-8.9e-4 1.2905,-.003 1.9357,-.006 .4312,-.002 .8624,-.002 1.2935,-.003 .3398,-8.1e-4 .6796,-.002 1.0194,-.002 .2968,.0217 .5821,-.0575 .8738,-.0956 .2926,-.0341 .5877,-.039 .8821,-.0425 .2922,-.002 .5843,-10e-4 .8765,-8.4e-4 .2918,4e-4 .5836,5.3e-4 .8754,6.1e-4 .2918,5e-5 .5836,5e-5 .8754,5e-5 .2918,0 .5836,0 .8754,0 .3133,-6.1e-4 .6266,10e-4 .9398,10e-4 .3172,-2.5e-4 .6345,-6.9e-4 .9517,-9.3e-4 .2938,-1.8e-4 .5877,-2e-4 .8815,-2.1e-4 .1943,-1e-5 .0972,-1e-5 .2915,-1e-5l-1.7509,1.2027c-.1943,0-.0971,0-.2914,0-.2936,-2e-5-.5872,-4e-5-.8808,-2.2e-4-.3164,-2.3e-4-.6327,-6.8e-4-.9491,-9.3e-4-.3144,4e-5-.6287,.002-.9431,10e-4-.2918,1e-5-.5836,1e-5-.8754,1e-5-.2918,-1e-5-.5836,-1e-5-.8754,-1.2e-4-.2918,-1.3e-4-.5837,-3.7e-4-.8755,-7.2e-4-.2913,-2.3e-4-.5826,-10e-4-.8738,.004-.2893,.007-.5791,.0195-.8653,.0636-.2961,.0453-.5905,.0907-.8921,.0705-.3377,-4.3e-4-.6755,-10e-4-1.0132,-.002-.4283,-5.4e-4-.8565,-6.3e-4-1.2848,-.003-.6398,-.003-1.2796,-.005-1.9195,-.006-.7134,-4.8e-4-1.4269,-.002-2.1402,.01l1.747,-1.2z" stroke="#000" stroke-linecap="square" stroke-linejoin="round" stroke-width=".4767"/>
<path d="m-97.681,314.1116c.5339,.0676 1.0726,.0889 1.6105,.1048 .4801,.0116 .9604,.0116 1.4405,.0103 .3964,-5e-4 .7929,-6.3e-4 1.1893,-.002 .7958,.0205 1.592,.0104 2.3879,.007 .4809,-.004 .9619,-.005 1.4428,-.007 .3835,3e-5 .767,-4.2e-4 1.1506,6e-4 .4032,.001 .8064,-9.5e-4 1.2096,-3.1e-4 .3638,-8.6e-4 .7277,-7.6e-4 1.0915,-6.6e-4 .3644,5.6e-4 .7288,2.2e-4 1.0931,-5.1e-4 .3481,.001 .6961,1.1e-4 1.0442,-4.5e-4 .3406,.001 .6811,4.5e-4 1.0217,-4e-5 .3008,-4.3e-4 .6016,-5.6e-4 .9024,-6.3e-4 .2516,.0585 .5047,.1006 .7628,.1209 .2799,.0172 .5606,.0173 .8409,.018 .2917,1.9e-4 .5833,-3.9e-4 .875,-6.8e-4 .146,-1.4e-4 .292,-2e-4 .4381,-2.6e-4l-1.7508,1.2027c-.146,10e-5-.292,1.9e-4-.438,3.5e-4-.292,3.2e-4-.584,.001-.876,-3.9e-4-.2852,-.002-.5709,-.005-.8549,-.0331-.2506,-.0294-.496,-.0897-.7478,-.105-.3002,-8e-5-.6004,-2e-4-.9006,-6.3e-4-.3405,-4.8e-4-.681,-.001-1.0215,-5e-5-.3476,-5.5e-4-.6953,-.002-1.0429,-4.4e-4-.3639,-7.3e-4-.7278,-10e-4-1.0916,-5.1e-4-.3632,1.1e-4-.7264,1.9e-4-1.0895,-6.6e-4-.4029,6.4e-4-.8058,-.002-1.2087,-3.1e-4-.3841,.001-.7682,5.8e-4-1.1523,6e-4-.4742,-.002-.9483,-.003-1.4224,-.007-.8027,-.004-1.6058,-.0132-2.4083,.007-.3958,-4.3e-4-.7915,4.6e-4-1.1873,-3.6e-4-.4785,-.003-.957,-.007-1.4353,-.0226-.5477,-.0212-1.0947,-.0538-1.64,-.107l1.7673,-1.1825z" stroke="#000" stroke-linecap="square" stroke-linejoin="round" stroke-width=".4767"/>
<path d="m-136.1855,276.2983 0,18.5432" fill="none" stroke="#000" stroke-linecap="round" stroke-width="4.8046"/>
<path d="m-126.6615,274.544 0,18.5432" fill="none" stroke="#000" stroke-linecap="round" stroke-width="4.8046"/>
<path d="m-117.7245,276.0083 0,18.5432" fill="none" stroke="#000" stroke-linecap="round" stroke-width="4.8046"/>
<path d="m-106.0478,274.841 0,18.5432" fill="none" stroke="#000" stroke-linecap="round" stroke-width="4.8046"/>
<path d="m-95.8892,277.0276 0,18.5432" fill="none" stroke="#000" stroke-linecap="round" stroke-width="4.8046"/>
<path d="m-84.2599,276.8522 0,18.5432" fill="none" stroke="#000" stroke-linecap="round" stroke-width="4.8046"/>
<path d="m-73.7574,275.1381 0,18.5432" fill="none" stroke="#000" stroke-linecap="round" stroke-width="4.8046"/>
<path d="m-63.8419,278.175 0,18.5432" fill="none" stroke="#000" stroke-linecap="round" stroke-width="4.8046"/>
<path d="m-53.169,277.8063 0,18.5432" fill="none" stroke="#000" stroke-linecap="round" stroke-width="4.8046"/>
<path d="m-105.8017,352.8807 27.1229,-4.4282" fill="none" stroke="#000" stroke-width=".7749"/>
<path d="m-144.0697,281.0285 0,18.5432" fill="none" stroke="#000" stroke-linecap="round" stroke-width="4.8046"/>
</g>
<path d="m639.9317,453.3417c0,5.3-33.9196,9.5964-75.7614,9.5964-41.8419,0-75.7614,-4.2965-75.7614,-9.5964 0,-5.3 33.9196,-9.5965 75.7614,-9.5965 41.8419,0 75.7614,4.2965 75.7614,9.5965z" opacity=".99" stroke="#000" stroke-linecap="round" stroke-width="3" transform="matrix(1.37677,0,0,1.62157,-208.7953,137.9952)"/>
<path d="m466.8403,800.4151 203.5475,0 0,63.6954c-62.0371,16.2574-126.5807,23.165-203.5475,0l0,-63.6954z" fill="#fff" opacity=".99" stroke="#000" stroke-linecap="round" stroke-width="4.144"/>
<path d="m391.9392,309.395c0,5.8579-23.2914,10.6066-52.0229,10.6066-28.7314,0-52.0229,-4.7487-52.0229,-10.6066 0,-5.8579 23.2914,-10.6066 52.0229,-10.6066 28.7314,0 52.0229,4.7487 52.0229,10.6066z" fill="#fff" opacity=".99" stroke="#000" stroke-linecap="round" stroke-width="2.1032" transform="matrix(1.96709,0,0,1.96709,-99.8826,192.39033)"/>
<g transform="matrix(1.37905,0,0,1.37905,101.55354,314.14182)">
<path d="m288.2253,309.2217 102.877,0 0,41.7628c-31.9936,8.6202-65.5192,11.4954-102.877,0l0,-41.7628z" fill="#fff" opacity=".99" stroke="#000" stroke-linecap="round" stroke-width="3"/>
<path d="m391.9392,309.395c0,5.8579-23.2914,10.6066-52.0229,10.6066-28.7314,0-52.0229,-4.7487-52.0229,-10.6066 0,-5.8579 23.2914,-10.6066 52.0229,-10.6066 28.7314,0 52.0229,4.7487 52.0229,10.6066z" fill="#fff" opacity=".99" stroke="#000" stroke-linecap="round" stroke-width="3"/>
</g>
<g transform="matrix(1.37905,0,0,1.37905,149.41217,356.02625)">
<path d="m247.5956,322.678c-.8473,-.3228-3.7651,.8631-3.9058,.1678-.71,-3.5061-4.6063,-9.2342-7.8588,-12.6035l10.3541,5.3033 10.3541,-5.5558c-3.6436,3.6983-7.611,6.528-8.9435,12.6882z" fill="#fff" stroke="#000" stroke-width="3"/>
<path d="M244.4172,295.5951H247.9527V313.7779H244.4172z" fill="#fff" opacity=".99" stroke="#000" stroke-linecap="round" stroke-width="3"/>
<path d="m246.69,278.17c-1.6581,6.1165-9.3483,14.5788 0,16.415 6.3529,-3.8834 .9124,-10.7152 0,-16.415z" fill="#fff" stroke="#000" stroke-width="3"/>
</g>
<g transform="matrix(1.37905,0,0,1.37905,182.25422,368.2803)">
<path d="m247.5956,322.678c-.8473,-.3228-3.7651,.8631-3.9058,.1678-.71,-3.5061-4.6063,-9.2342-7.8588,-12.6035l10.3541,5.3033 10.3541,-5.5558c-3.6436,3.6983-7.611,6.528-8.9435,12.6882z" fill="#fff" stroke="#000" stroke-width="3"/>
<path d="M244.4172,295.5951H247.9527V313.7779H244.4172z" fill="#fff" opacity=".99" stroke="#000" stroke-linecap="round" stroke-width="3"/>
<path d="m246.69,278.17c-1.6581,6.1165-9.3483,14.5788 0,16.415 6.3529,-3.8834 .9124,-10.7152 0,-16.415z" fill="#fff" stroke="#000" stroke-width="3"/>
</g>
<g transform="matrix(1.37905,0,0,1.37905,220.67052,370.25036)">
<path d="m247.5956,322.678c-.8473,-.3228-3.7651,.8631-3.9058,.1678-.71,-3.5061-4.6063,-9.2342-7.8588,-12.6035l10.3541,5.3033 10.3541,-5.5558c-3.6436,3.6983-7.611,6.528-8.9435,12.6882z" fill="#fff" stroke="#000" stroke-width="3"/>
<path d="M244.4172,295.5951H247.9527V313.7779H244.4172z" fill="#fff" opacity=".99" stroke="#000" stroke-linecap="round" stroke-width="3"/>
<path d="m246.69,278.17c-1.6581,6.1165-9.3483,14.5788 0,16.415 6.3529,-3.8834 .9124,-10.7152 0,-16.415z" fill="#fff" stroke="#000" stroke-width="3"/>
</g>
<g transform="matrix(1.37905,0,0,1.37905,258.1018,367.78778)">
<path d="m247.5956,322.678c-.8473,-.3228-3.7651,.8631-3.9058,.1678-.71,-3.5061-4.6063,-9.2342-7.8588,-12.6035l10.3541,5.3033 10.3541,-5.5558c-3.6436,3.6983-7.611,6.528-8.9435,12.6882z" fill="#fff" stroke="#000" stroke-width="3"/>
<path d="M244.4172,295.5951H247.9527V313.7779H244.4172z" fill="#fff" opacity=".99" stroke="#000" stroke-linecap="round" stroke-width="3"/>
<path d="m246.69,278.17c-1.6581,6.1165-9.3483,14.5788 0,16.415 6.3529,-3.8834 .9124,-10.7152 0,-16.415z" fill="#fff" stroke="#000" stroke-width="3"/>
</g>
<g transform="matrix(1.37905,0,0,1.37905,292.57797,362.86261)">
<path d="m247.5956,322.678c-.8473,-.3228-3.7651,.8631-3.9058,.1678-.71,-3.5061-4.6063,-9.2342-7.8588,-12.6035l10.3541,5.3033 10.3541,-5.5558c-3.6436,3.6983-7.611,6.528-8.9435,12.6882z" fill="#fff" stroke="#000" stroke-width="3"/>
<path d="M244.4172,295.5951H247.9527V313.7779H244.4172z" fill="#fff" opacity=".99" stroke="#000" stroke-linecap="round" stroke-width="3"/>
<path d="m246.69,278.17c-1.6581,6.1165-9.3483,14.5788 0,16.415 6.3529,-3.8834 .9124,-10.7152 0,-16.415z" fill="#fff" stroke="#000" stroke-width="3"/>
</g>
<g transform="matrix(1.37905,0,0,1.37905,315.72625,353.50479)">
<path d="m247.5956,322.678c-.8473,-.3228-3.7651,.8631-3.9058,.1678-.71,-3.5061-4.6063,-9.2342-7.8588,-12.6035l10.3541,5.3033 10.3541,-5.5558c-3.6436,3.6983-7.611,6.528-8.9435,12.6882z" fill="#fff" stroke="#000" stroke-width="3"/>
<path d="M244.4172,295.5951H247.9527V313.7779H244.4172z" fill="#fff" opacity=".99" stroke="#000" stroke-linecap="round" stroke-width="3"/>
<path d="m246.69,278.17c-1.6581,6.1165-9.3483,14.5788 0,16.415 6.3529,-3.8834 .9124,-10.7152 0,-16.415z" fill="#fff" stroke="#000" stroke-width="3"/>
</g>
<g transform="matrix(1.37905,0,0,1.37905,183.23925,294.8953)">
<path d="m247.5956,322.678c-.8473,-.3228-3.7651,.8631-3.9058,.1678-.71,-3.5061-4.6063,-9.2342-7.8588,-12.6035l10.3541,5.3033 10.3541,-5.5558c-3.6436,3.6983-7.611,6.528-8.9435,12.6882z" fill="#fff" stroke="#000" stroke-width="3"/>
<path d="M244.4172,295.5951H247.9527V313.7779H244.4172z" fill="#fff" opacity=".99" stroke="#000" stroke-linecap="round" stroke-width="3"/>
<path d="m246.69,278.17c-1.6581,6.1165-9.3483,14.5788 0,16.415 6.3529,-3.8834 .9124,-10.7152 0,-16.415z" fill="#fff" stroke="#000" stroke-width="3"/>
</g>
<g transform="matrix(1.37905,0,0,1.37905,282.72763,295.38782)">
<path d="m247.5956,322.678c-.8473,-.3228-3.7651,.8631-3.9058,.1678-.71,-3.5061-4.6063,-9.2342-7.8588,-12.6035l10.3541,5.3033 10.3541,-5.5558c-3.6436,3.6983-7.611,6.528-8.9435,12.6882z" fill="#fff" stroke="#000" stroke-width="3"/>
<path d="M244.4172,295.5951H247.9527V313.7779H244.4172z" fill="#fff" opacity=".99" stroke="#000" stroke-linecap="round" stroke-width="3"/>
<path d="m246.69,278.17c-1.6581,6.1165-9.3483,14.5788 0,16.415 6.3529,-3.8834 .9124,-10.7152 0,-16.415z" fill="#fff" stroke="#000" stroke-width="3"/>
</g>
<path d="m466.9401,821.1658c68.9501,52.6524 156.1295,-8.4961 203.385,0" fill="none" stroke="#000" stroke-width="1.379"/>
<path d="m467.2883,837.9307c68.9501,52.6524 156.1296,-8.4961 203.385,0" fill="none" stroke="#000" stroke-width="1.379"/>
<path d="m467.2883,852.5577c68.9501,52.6524 156.1296,-8.4961 203.385,0" fill="none" stroke="#000" stroke-width="1.379"/>
<path d="m467.6366,808.6767c40.0513,30.5844 86.2534,22.7707 127.2086,12.5135" fill="none" stroke="#000" stroke-width="1.379"/>
<g transform="matrix(1.37905,.25606,0,1.37905,174.038,302.94154)">
<path d="m235.1786,348.255c0,1.7752-1.4391,3.2143-3.2143,3.2143-1.7752,0-3.2143,-1.4391-3.2143,-3.2143 0,-1.7752 1.4391,-3.2143 3.2143,-3.2143 1.7752,0 3.2143,1.4391 3.2143,3.2143z" fill="#fff" opacity=".99" stroke="#000" stroke-linecap="round" stroke-width="3"/>
<path d="m234.6429,339.6836c0,2.1697-.8395,3.9286-1.875,3.9286-1.0355,0-1.875,-1.7589-1.875,-3.9286 0,-2.1697 .8395,-3.9286 1.875,-3.9286 1.0355,0 1.875,1.7589 1.875,3.9286z" fill="#fff" opacity=".99" stroke="#000" stroke-linecap="round" stroke-width="3" transform="translate(-.7143)"/>
<path d="m234.6429,339.6836c0,2.1697-.8395,3.9286-1.875,3.9286-1.0355,0-1.875,-1.7589-1.875,-3.9286 0,-2.1697 .8395,-3.9286 1.875,-3.9286 1.0355,0 1.875,1.7589 1.875,3.9286z" fill="#fff" opacity=".99" stroke="#000" stroke-linecap="round" stroke-width="3" transform="translate(-.625,16.0714)"/>
<path d="m234.6429,339.6836c0,2.1697-.8395,3.9286-1.875,3.9286-1.0355,0-1.875,-1.7589-1.875,-3.9286 0,-2.1697 .8395,-3.9286 1.875,-3.9286 1.0355,0 1.875,1.7589 1.875,3.9286z" fill="#fff" opacity=".99" stroke="#000" stroke-linecap="round" stroke-width="3" transform="matrix(0,1,-1,0,580.04076,115.26397)"/>
<path d="m234.6429,339.6836c0,2.1697-.8395,3.9286-1.875,3.9286-1.0355,0-1.875,-1.7589-1.875,-3.9286 0,-2.1697 .8395,-3.9286 1.875,-3.9286 1.0355,0 1.875,1.7589 1.875,3.9286z" fill="#fff" opacity=".99" stroke="#000" stroke-linecap="round" stroke-width="3" transform="matrix(0,1,-1,0,563.96935,115.35326)"/>
</g>
<g transform="matrix(1.37905,0,0,1.37905,248.6543,369.81671)">
<path d="m235.1786,348.255c0,1.7752-1.4391,3.2143-3.2143,3.2143-1.7752,0-3.2143,-1.4391-3.2143,-3.2143 0,-1.7752 1.4391,-3.2143 3.2143,-3.2143 1.7752,0 3.2143,1.4391 3.2143,3.2143z" fill="#fff" opacity=".99" stroke="#000" stroke-linecap="round" stroke-width="3"/>
<path d="m234.6429,339.6836c0,2.1697-.8395,3.9286-1.875,3.9286-1.0355,0-1.875,-1.7589-1.875,-3.9286 0,-2.1697 .8395,-3.9286 1.875,-3.9286 1.0355,0 1.875,1.7589 1.875,3.9286z" fill="#fff" opacity=".99" stroke="#000" stroke-linecap="round" stroke-width="3" transform="translate(-.7143)"/>
<path d="m234.6429,339.6836c0,2.1697-.8395,3.9286-1.875,3.9286-1.0355,0-1.875,-1.7589-1.875,-3.9286 0,-2.1697 .8395,-3.9286 1.875,-3.9286 1.0355,0 1.875,1.7589 1.875,3.9286z" fill="#fff" opacity=".99" stroke="#000" stroke-linecap="round" stroke-width="3" transform="translate(-.625,16.0714)"/>
<path d="m234.6429,339.6836c0,2.1697-.8395,3.9286-1.875,3.9286-1.0355,0-1.875,-1.7589-1.875,-3.9286 0,-2.1697 .8395,-3.9286 1.875,-3.9286 1.0355,0 1.875,1.7589 1.875,3.9286z" fill="#fff" opacity=".99" stroke="#000" stroke-linecap="round" stroke-width="3" transform="matrix(0,1,-1,0,580.04076,115.26397)"/>
<path d="m234.6429,339.6836c0,2.1697-.8395,3.9286-1.875,3.9286-1.0355,0-1.875,-1.7589-1.875,-3.9286 0,-2.1697 .8395,-3.9286 1.875,-3.9286 1.0355,0 1.875,1.7589 1.875,3.9286z" fill="#fff" opacity=".99" stroke="#000" stroke-linecap="round" stroke-width="3" transform="matrix(0,1,-1,0,563.96935,115.35326)"/>
</g>
<g transform="matrix(1.37905,-.25606,0,1.37905,326.96445,420.43884)">
<path d="m235.1786,348.255c0,1.7752-1.4391,3.2143-3.2143,3.2143-1.7752,0-3.2143,-1.4391-3.2143,-3.2143 0,-1.7752 1.4391,-3.2143 3.2143,-3.2143 1.7752,0 3.2143,1.4391 3.2143,3.2143z" fill="#fff" opacity=".99" stroke="#000" stroke-linecap="round" stroke-width="3"/>
<path d="m234.6429,339.6836c0,2.1697-.8395,3.9286-1.875,3.9286-1.0355,0-1.875,-1.7589-1.875,-3.9286 0,-2.1697 .8395,-3.9286 1.875,-3.9286 1.0355,0 1.875,1.7589 1.875,3.9286z" fill="#fff" opacity=".99" stroke="#000" stroke-linecap="round" stroke-width="3" transform="translate(-.7143)"/>
<path d="m234.6429,339.6836c0,2.1697-.8395,3.9286-1.875,3.9286-1.0355,0-1.875,-1.7589-1.875,-3.9286 0,-2.1697 .8395,-3.9286 1.875,-3.9286 1.0355,0 1.875,1.7589 1.875,3.9286z" fill="#fff" opacity=".99" stroke="#000" stroke-linecap="round" stroke-width="3" transform="translate(-.625,16.0714)"/>
<path d="m234.6429,339.6836c0,2.1697-.8395,3.9286-1.875,3.9286-1.0355,0-1.875,-1.7589-1.875,-3.9286 0,-2.1697 .8395,-3.9286 1.875,-3.9286 1.0355,0 1.875,1.7589 1.875,3.9286z" fill="#fff" opacity=".99" stroke="#000" stroke-linecap="round" stroke-width="3" transform="matrix(0,1,-1,0,580.04076,115.26397)"/>
<path d="m234.6429,339.6836c0,2.1697-.8395,3.9286-1.875,3.9286-1.0355,0-1.875,-1.7589-1.875,-3.9286 0,-2.1697 .8395,-3.9286 1.875,-3.9286 1.0355,0 1.875,1.7589 1.875,3.9286z" fill="#fff" opacity=".99" stroke="#000" stroke-linecap="round" stroke-width="3" transform="matrix(0,1,-1,0,563.96935,115.35326)"/>
</g>
<g transform="matrix(1.37905,0,0,1.37905,98.14145,332.18817)">
<path d="m337.1429,269.3265 6.0714,6.6071 5.3571,-6.6071" fill="none" stroke="#000" stroke-width="3"/>
<text font-family="Bitstream Vera Sans" font-size="67.733" x="319.4932" y="269.1834">
    <tspan font-family="Century Schoolbook L" font-size="84.667" font-weight="bold" x="319.4932" y="269.1834">1</tspan>
   </text>
<path d="m343.2143,275.5765 0,18.3928" fill="none" stroke="#000" stroke-width="3"/>
</g>
<text font-family="Bitstream Vera Sans" font-size="20" x="398.5714" y="560.9336">
   <tspan font-size="40" text-align="center" text-anchor="middle" x="398.5714" y="560.9336">Youpi...</tspan>
  </text>
<path d="M368.5714,422.8571 337.1429,500" fill="none" stroke="#000" transform="translate(0,152.3622)"/>
<text font-family="Bitstream Vera Sans" font-size="33.472" x="443.8128" y="364.7901">
   <tspan font-size="75.311" text-align="center" text-anchor="middle" x="443.8128" y="364.7901">Producteur de froid</tspan>
   <tspan font-size="75.311" text-align="center" text-anchor="middle" x="455.8008" y="458.9292">depuis 1 an !</tspan>
  </text>
<path d="m90,234.2857 691.4286,0" fill="none" stroke="#000" transform="translate(0,152.3622)"/>
<path d="m225.7143,327.1429 435.7143,0" fill="none" stroke="#000" transform="translate(0,152.3622)"/>
</g>
</svg>
