<?xml version="1.0" encoding="UTF-8" standalone="no"?>
<!-- Created with Inkscape (http://www.inkscape.org/) -->

<svg
   xmlns:dc="http://purl.org/dc/elements/1.1/"
   xmlns:cc="http://creativecommons.org/ns#"
   xmlns:rdf="http://www.w3.org/1999/02/22-rdf-syntax-ns#"
   xmlns:svg="http://www.w3.org/2000/svg"
   xmlns="http://www.w3.org/2000/svg"
   xmlns:sodipodi="http://sodipodi.sourceforge.net/DTD/sodipodi-0.dtd"
   xmlns:inkscape="http://www.inkscape.org/namespaces/inkscape"
   width="100"
   height="100"
   id="svg4867"
   version="1.1"
   inkscape:version="0.48.4 r9939"
   sodipodi:docname="New document 1">
  <defs
     id="defs4869" />
  <sodipodi:namedview
     id="base"
     pagecolor="#ffffff"
     bordercolor="#666666"
     borderopacity="1.0"
     inkscape:pageopacity="0.0"
     inkscape:pageshadow="2"
     inkscape:zoom="3.1171875"
     inkscape:cx="58.989688"
     inkscape:cy="67.858243"
     inkscape:document-units="px"
     inkscape:current-layer="layer1"
     showgrid="false"
     inkscape:window-width="1366"
     inkscape:window-height="727"
     inkscape:window-x="0"
     inkscape:window-y="17"
     inkscape:window-maximized="1" />
  <metadata
     id="metadata4872">
    <rdf:RDF>
      <cc:Work
         rdf:about="">
        <dc:format>image/svg+xml</dc:format>
        <dc:type
           rdf:resource="http://purl.org/dc/dcmitype/StillImage" />
        <dc:title></dc:title>
      </cc:Work>
    </rdf:RDF>
  </metadata>
  <g
     inkscape:label="Layer 1"
     inkscape:groupmode="layer"
     id="layer1"
     transform="translate(0,-952.36218)">
    <path
       style="fill:#ffffff;fill-opacity:1;stroke:#000000;stroke-width:0.88079131;stroke-linecap:butt;stroke-linejoin:miter;stroke-miterlimit:4;stroke-opacity:1;stroke-dasharray:none"
       d="m 31.576024,1022.9566 c -2.405711,-2.5112 -0.746036,-8.1875 -0.746036,-8.1875 0,0 59.944467,-55.74707 62.930871,-56.41129 2.929264,-0.65151 -8.576021,30.10523 -10.791127,28.12334 -1.88634,-1.68775 1.180822,-7.41596 0.93682,-6.9258 0.800297,1.00219 -0.988326,2.87775 0.154815,4.10387 2.711874,-5.59696 5.195014,-9.82671 5.941217,-16.14197 -0.97338,2.12261 -4.864913,7.4368 -13.441322,17.23474 -13.788324,15.75221 -35.149971,36.68981 -38.351696,37.14221 0,0 -4.285439,3.5134 -6.633542,1.0624 z"
       id="path5476"
       inkscape:connector-curvature="0"
       sodipodi:nodetypes="ccsscccscs" />
    <rect
       style="fill:#ffffff;stroke:#000000;stroke-width:0.68510526000000005;stroke-miterlimit:4;stroke-dasharray:none"
       id="rect5478"
       width="23.122301"
       height="3.6702068"
       x="657.53052"
       y="782.42236"
       ry="1.0726507"
       transform="matrix(-0.74622915,0.66568916,0.66568916,0.74622915,0,0)" />
    <rect
       style="fill:#000000;stroke:#000000;stroke-width:0.68510526000000005;stroke-miterlimit:4;stroke-dasharray:none"
       id="rect5478-5"
       width="3.6702962"
       height="3.6702068"
       x="680.59161"
       y="782.45294"
       ry="1.0726507"
       transform="matrix(-0.74622915,0.66568916,0.66568916,0.74622915,0,0)" />
    <path
       inkscape:connector-curvature="0"
       style="fill:#ffffff;stroke:#000000;stroke-width:0.68510526;stroke-miterlimit:4;stroke-dasharray:none"
       d="m 8.440686,1040.7686 c 0.8571599,-0.7646 2.175519,-0.697 2.940157,0.1602 0.764639,0.8571 0.681902,2.1746 -0.17524,2.9393 -0.857142,0.7646 -2.1675337,0.6899 -2.9321723,-0.1673 -0.7646385,-0.8571 -0.6898866,-2.1675 0.1672553,-2.9322 z m 0.3064343,0.3436 c -0.6759758,0.603 -0.7349274,1.6365 -0.1319117,2.3124 0.6030157,0.676 1.6365004,0.735 2.3124794,0.1319 0.675976,-0.603 0.734928,-1.6365 0.131912,-2.3124 -0.603016,-0.676 -1.6365178,-0.735 -2.3124797,-0.1319 z"
       id="path5498" />
    <path
       style="fill:#000000;stroke:#000000;stroke-width:0.68510526;stroke-linecap:butt;stroke-linejoin:miter;stroke-miterlimit:4;stroke-opacity:1;stroke-dasharray:none"
       d="m 42.073904,1004.4928 c 0,0 -8.954769,4.1239 -13.293356,5.0292 -2.415184,0.5039 -5.082541,-0.174 -5.795986,0.6033 -0.713445,0.7773 -0.663218,1.9056 -0.663218,1.9056 0,0 5.426444,0.024 6.187407,1.366 0.760945,1.3418 -2.190287,6.7903 -2.190287,6.7903 l 5.130774,5.7515 c 1.785468,-0.4132 1.445029,-1.4888 1.987445,-2.1828 0,0 -7.241983,-4.245 -0.136853,-11.2721 6.077218,-6.0104 8.690363,-7.8121 8.774074,-7.991 z"
       id="path5500"
       inkscape:connector-curvature="0"
       sodipodi:nodetypes="cszczcccsc" />
    <path
       style="fill:none;stroke:#ffffff;stroke-width:0.68510526;stroke-linecap:butt;stroke-linejoin:miter;stroke-miterlimit:4;stroke-opacity:1;stroke-dasharray:none"
       d="m 22.684232,1011.7072 c 2.687828,-0.1958 3.757195,0.5039 5.919793,0.833 0,0 2.265759,-4.9334 4.062693,-1.8688 1.138578,1.9419 -1.793109,1.9492 -2.626205,5.7856 -0.833114,3.8364 0.902661,5.7434 2.19479,8.0977"
       id="path5522"
       inkscape:connector-curvature="0"
       sodipodi:nodetypes="ccszc" />
    <path
       sodipodi:type="arc"
       style="fill:#ffffff;stroke:#000000;stroke-width:2;stroke-miterlimit:4;stroke-dasharray:none"
       id="path5502-0"
       sodipodi:cx="452.67856"
       sodipodi:cy="401.46933"
       sodipodi:rx="2.1428571"
       sodipodi:ry="2.1428571"
       d="m 454.82142,401.46933 a 2.1428571,2.1428571 0 1 1 -4.28572,0 2.1428571,2.1428571 0 1 1 4.28572,0 z"
       transform="matrix(-0.25562276,0.22803358,0.22803358,0.25562276,55.357585,817.7772)" />
    <path
       style="fill:#666666;stroke:#1a1a1a;stroke-width:0.68510526;stroke-linecap:butt;stroke-linejoin:miter;stroke-miterlimit:4;stroke-opacity:1;stroke-dasharray:none"
       d="m 33.219762,1010.5189 5.665429,-1.5762 -5.333848,2.2078 3.784535,-0.8257 -3.887414,1.555 2.427977,-0.1372 -3.097909,1.1406 c 0.643261,-0.8148 0.511228,-1.5879 0.44123,-2.3643 z"
       id="path5526"
       inkscape:connector-curvature="0"
       sodipodi:nodetypes="cccccccc" />
    <path
       style="fill:none;stroke:#000000;stroke-width:0.68510526;stroke-linecap:butt;stroke-linejoin:miter;stroke-miterlimit:4;stroke-opacity:1;stroke-dasharray:none"
       d="m 30.817415,1025.8242 -5.330577,0"
       id="path5528"
       inkscape:connector-curvature="0" />
    <path
       style="fill:none;stroke:#000000;stroke-width:0.68510526;stroke-linecap:butt;stroke-linejoin:miter;stroke-miterlimit:4;stroke-opacity:1;stroke-dasharray:none"
       d="m 28.222328,1028.1392 -5.330577,0"
       id="path5528-4"
       inkscape:connector-curvature="0" />
    <path
       style="fill:none;stroke:#000000;stroke-width:0.68510526;stroke-linecap:butt;stroke-linejoin:miter;stroke-miterlimit:4;stroke-opacity:1;stroke-dasharray:none"
       d="m 25.627232,1030.4542 -5.330577,0"
       id="path5528-5"
       inkscape:connector-curvature="0" />
    <path
       style="fill:none;stroke:#000000;stroke-width:0.68510526;stroke-linecap:butt;stroke-linejoin:miter;stroke-miterlimit:4;stroke-opacity:1;stroke-dasharray:none"
       d="m 23.032132,1032.7692 -5.330577,0"
       id="path5528-0"
       inkscape:connector-curvature="0" />
    <path
       style="fill:none;stroke:#000000;stroke-width:0.68510526;stroke-linecap:butt;stroke-linejoin:miter;stroke-miterlimit:4;stroke-opacity:1;stroke-dasharray:none"
       d="m 20.437053,1035.0842 -5.330577,0"
       id="path5528-50"
       inkscape:connector-curvature="0" />
    <path
       style="fill:none;stroke:#000000;stroke-width:0.68510526;stroke-linecap:butt;stroke-linejoin:miter;stroke-miterlimit:4;stroke-opacity:1;stroke-dasharray:none"
       d="m 17.841961,1037.3992 -4.413352,-0.019"
       id="path5528-7"
       inkscape:connector-curvature="0"
       sodipodi:nodetypes="cc" />
    <path
       style="fill:none;stroke:#000000;stroke-width:0.68510526;stroke-linecap:butt;stroke-linejoin:miter;stroke-miterlimit:4;stroke-opacity:1;stroke-dasharray:none"
       d="m 15.737151,1039.3881 0.608433,-5.2957"
       id="path5528-06"
       inkscape:connector-curvature="0" />
    <path
       style="fill:none;stroke:#000000;stroke-width:0.68510526;stroke-linecap:butt;stroke-linejoin:miter;stroke-miterlimit:4;stroke-opacity:1;stroke-dasharray:none"
       d="m 18.332239,1037.0731 0.608433,-5.2957"
       id="path5528-4-4"
       inkscape:connector-curvature="0" />
    <path
       style="fill:none;stroke:#000000;stroke-width:0.68510526;stroke-linecap:butt;stroke-linejoin:miter;stroke-miterlimit:4;stroke-opacity:1;stroke-dasharray:none"
       d="m 20.927339,1034.7581 0.608429,-5.2957"
       id="path5528-5-3"
       inkscape:connector-curvature="0" />
    <path
       style="fill:none;stroke:#000000;stroke-width:0.68510526;stroke-linecap:butt;stroke-linejoin:miter;stroke-miterlimit:4;stroke-opacity:1;stroke-dasharray:none"
       d="m 23.522435,1032.4431 0.608428,-5.2957"
       id="path5528-0-0"
       inkscape:connector-curvature="0" />
    <path
       style="fill:none;stroke:#000000;stroke-width:0.68510526;stroke-linecap:butt;stroke-linejoin:miter;stroke-miterlimit:4;stroke-opacity:1;stroke-dasharray:none"
       d="m 26.117514,1030.1281 0.608429,-5.2957"
       id="path5528-50-3"
       inkscape:connector-curvature="0" />
    <path
       style="fill:none;stroke:#000000;stroke-width:0.68510526;stroke-linecap:butt;stroke-linejoin:miter;stroke-miterlimit:4;stroke-opacity:1;stroke-dasharray:none"
       d="m 28.71261,1027.8131 0.482809,-4.3869"
       id="path5528-7-6"
       inkscape:connector-curvature="0"
       sodipodi:nodetypes="cc" />
    <path
       sodipodi:type="arc"
       style="fill:#ffffff;stroke:#000000;stroke-width:2;stroke-miterlimit:4;stroke-dasharray:none"
       id="path5502-0-2"
       sodipodi:cx="452.67856"
       sodipodi:cy="401.46933"
       sodipodi:rx="2.1428571"
       sodipodi:ry="2.1428571"
       d="m 454.82142,401.46933 a 2.1428571,2.1428571 0 1 1 -4.28572,0 2.1428571,2.1428571 0 1 1 4.28572,0 z"
       transform="matrix(-0.25562276,0.22803358,0.22803358,0.25562276,55.048904,805.93599)" />
  </g>
</svg>
