<?xml version="1.0" encoding="UTF-8" standalone="no"?>
<!-- Created with Inkscape (http://www.inkscape.org/) -->

<svg
   xmlns:dc="http://purl.org/dc/elements/1.1/"
   xmlns:cc="http://creativecommons.org/ns#"
   xmlns:rdf="http://www.w3.org/1999/02/22-rdf-syntax-ns#"
   xmlns:svg="http://www.w3.org/2000/svg"
   xmlns="http://www.w3.org/2000/svg"
   xmlns:sodipodi="http://sodipodi.sourceforge.net/DTD/sodipodi-0.dtd"
   xmlns:inkscape="http://www.inkscape.org/namespaces/inkscape"
   width="100"
   height="100"
   id="svg4727"
   version="1.1"
   inkscape:version="0.48.4 r9939"
   sodipodi:docname="New document 2">
  <defs
     id="defs4729" />
  <sodipodi:namedview
     id="base"
     pagecolor="#ffffff"
     bordercolor="#666666"
     borderopacity="1.0"
     inkscape:pageopacity="0.0"
     inkscape:pageshadow="2"
     inkscape:zoom="4.4083688"
     inkscape:cx="76.506016"
     inkscape:cy="54.922461"
     inkscape:document-units="px"
     inkscape:current-layer="layer1"
     showgrid="false"
     inkscape:window-width="1366"
     inkscape:window-height="727"
     inkscape:window-x="0"
     inkscape:window-y="17"
     inkscape:window-maximized="1" />
  <metadata
     id="metadata4732">
    <rdf:RDF>
      <cc:Work
         rdf:about="">
        <dc:format>image/svg+xml</dc:format>
        <dc:type
           rdf:resource="http://purl.org/dc/dcmitype/StillImage" />
        <dc:title></dc:title>
      </cc:Work>
    </rdf:RDF>
  </metadata>
  <g
     inkscape:label="Layer 1"
     inkscape:groupmode="layer"
     id="layer1"
     transform="translate(0,-952.36218)">
    <g
       id="g18214"
       transform="matrix(0.47622158,-0.02688531,0.02688531,0.47622158,7.9713406,536.24324)"
       style="fill:#ffffff">
      <path
         inkscape:connector-curvature="0"
         id="path4720-6"
         transform="translate(0,952.36218)"
         d="M 129.3125,-62.8125 -31.5625,67.5 l 27,33.28125 L 112.03125,1.71875 129.3125,-62.8125 z M 0.46875,66.25 c 1.0849951,-0.09519 2.1995801,0.340582 2.9375,1.25 1.1806718,1.45507 0.9550695,3.600578 -0.5,4.78125 -1.4550695,1.180672 -3.60057816,0.95507 -4.78125,-0.5 -1.1806718,-1.45507 -0.9550695,-3.600578 0.5,-4.78125 0.54565108,-0.442752 1.19275292,-0.692884 1.84375,-0.75 z m -11.5,9.34375 c 1.0849951,-0.09519 2.1995801,0.340582 2.9375,1.25 1.1806718,1.45507 0.9550695,3.600578 -0.5,4.78125 -1.45507,1.180672 -3.600578,0.95507 -4.78125,-0.5 -1.180672,-1.45507 -0.95507,-3.600578 0.5,-4.78125 0.545651,-0.442752 1.192753,-0.692884 1.84375,-0.75 z"
         style="fill:#ffffff;stroke:#000000;stroke-width:2;stroke-linecap:butt;stroke-linejoin:miter;stroke-miterlimit:4;stroke-opacity:1;stroke-dasharray:none" />
      <rect
         transform="matrix(0.63008711,0.77652446,-0.77652446,0.63008711,0,0)"
         y="669.49042"
         x="790.46643"
         height="51.51778"
         width="5.5558391"
         id="rect4725-9"
         style="fill:#ffffff;stroke:#000000;stroke-width:2;stroke-miterlimit:4;stroke-dasharray:none" />
      <path
         inkscape:connector-curvature="0"
         id="path4729-1"
         d="m -57.767495,1064.3518 3.487986,4.2987"
         style="fill:#ffffff;stroke:#000000;stroke-width:2;stroke-linecap:butt;stroke-linejoin:miter;stroke-miterlimit:4;stroke-opacity:1;stroke-dasharray:none" />
      <path
         sodipodi:nodetypes="ccccc"
         inkscape:connector-curvature="0"
         id="rect4722-7"
         d="m -31.816471,1019.3803 27.66862,34.099 -10.04297,8.1492 -27.66864,-34.0991 z"
         style="fill:#ffffff;stroke:#000000;stroke-width:2;stroke-miterlimit:4;stroke-dasharray:none" />
      <path
         sodipodi:nodetypes="ccc"
         inkscape:connector-curvature="0"
         id="path4753-6"
         d="m 109.00414,906.30228 -5.87798,39.61786 -115.154091,98.56496"
         style="fill:#ffffff;stroke:#000000;stroke-width:2;stroke-linecap:butt;stroke-linejoin:miter;stroke-miterlimit:4;stroke-opacity:1;stroke-dasharray:none" />
    </g>
  </g>
</svg>
