<?xml version="1.0" encoding="UTF-8" standalone="no"?>
<!-- Created with Inkscape (http://www.inkscape.org/) -->

<svg
   xmlns:dc="http://purl.org/dc/elements/1.1/"
   xmlns:cc="http://creativecommons.org/ns#"
   xmlns:rdf="http://www.w3.org/1999/02/22-rdf-syntax-ns#"
   xmlns:svg="http://www.w3.org/2000/svg"
   xmlns="http://www.w3.org/2000/svg"
   xmlns:sodipodi="http://sodipodi.sourceforge.net/DTD/sodipodi-0.dtd"
   xmlns:inkscape="http://www.inkscape.org/namespaces/inkscape"
   width="100"
   height="100"
   id="svg4444"
   version="1.1"
   inkscape:version="0.48.4 r9939"
   sodipodi:docname="New document 2">
  <defs
     id="defs4446" />
  <sodipodi:namedview
     id="base"
     pagecolor="#ffffff"
     bordercolor="#666666"
     borderopacity="1.0"
     inkscape:pageopacity="0.0"
     inkscape:pageshadow="2"
     inkscape:zoom="3.1171875"
     inkscape:cx="78.272634"
     inkscape:cy="65.702251"
     inkscape:document-units="px"
     inkscape:current-layer="layer1"
     showgrid="false"
     inkscape:window-width="1366"
     inkscape:window-height="727"
     inkscape:window-x="0"
     inkscape:window-y="17"
     inkscape:window-maximized="1" />
  <metadata
     id="metadata4449">
    <rdf:RDF>
      <cc:Work
         rdf:about="">
        <dc:format>image/svg+xml</dc:format>
        <dc:type
           rdf:resource="http://purl.org/dc/dcmitype/StillImage" />
        <dc:title></dc:title>
      </cc:Work>
    </rdf:RDF>
  </metadata>
  <g
     inkscape:label="Layer 1"
     inkscape:groupmode="layer"
     id="layer1"
     transform="translate(0,-952.36218)">
    <g
       id="g3809"
       transform="matrix(0.25579549,0.24164075,-0.24164075,0.25579549,-17.571978,893.30812)">
      <path
         inkscape:connector-curvature="0"
         sodipodi:nodetypes="cccccccccccccc"
         id="path3750"
         d="m 332.65845,-8.7092481 c 3.87858,-11.5988109 3.96392,-22.5654129 2.14286,-33.2142849 4.10949,-4.939695 2.52664,-11.776835 1.07143,-18.571429 49.72761,16.700782 67.7158,74.13148 77.49999,105.357143 -9.63929,-10.1276 -18.80638,-3.99801 -22.85714,-2.142857 6.96674,0.381601 15.886,7.961284 17.14285,20.714286 -6.27346,-8.308118 -14.85795,-10.860397 -19.28571,-11.785715 6.3063,4.012239 16.82305,19.07721 20.35715,26.785714 -4.85929,-2.695004 -16.06892,-19.665474 -21.78572,-14.642857 -9.69097,42.393598 3.18218,50.941018 7.14286,72.857148 5.08061,0.52797 6.89358,-4.66242 8.21428,-10.71429 11.50436,13.08542 10.80812,15.5769 12.85714,21.78571 l -63.92856,3.92858 C 351.64087,107.22538 347.29691,23.141668 332.65845,-8.7092481 z"
         style="fill:#ff6600;stroke:#000000;stroke-width:3;stroke-linecap:butt;stroke-linejoin:miter;stroke-miterlimit:4;stroke-opacity:1;stroke-dasharray:none" />
      <path
         inkscape:connector-curvature="0"
         sodipodi:nodetypes="cccccccccccccc"
         id="path3750-6"
         d="m 351.31916,21.647894 c 3.87858,-11.598811 3.96392,-21.31541297 2.14286,-31.964285 4.10949,-4.939695 3.68735,-5.169692 2.23214,-11.964286 43.19641,21.77244356 28.98442,27.7098996 44.10714,55 -11.36214,-2.590114 -15.97378,11.020079 -19.99999,12.767857 6.67712,0.889017 10.40393,-0.804013 15.17856,4.642858 -9.3123,-3.66637 -12.25744,2.018008 -9.19642,3.749999 3.94914,2.637205 3.55061,1.491028 5.53571,5.714282 -4.53921,-1.892836 -3.92819,-1.356128 -7.76786,0.357147 -9.69097,42.393604 2.55718,59.423154 6.51786,81.339284 5.08061,0.52797 12.16144,-1.80527 13.48214,-7.85714 11.50436,13.08542 9.37955,8.43404 11.42857,14.64285 l -60.17856,3.92858 c -0.46002,-43.25127 5.99046,-93.520216 -3.48215,-130.357146 z"
         style="fill:#550000;stroke:#000000;stroke-width:1;stroke-linecap:butt;stroke-linejoin:miter;stroke-miterlimit:4;stroke-opacity:1;stroke-dasharray:none" />
      <g
         style="stroke:#aa0000"
         id="g3804">
        <path
           inkscape:connector-curvature="0"
           style="fill:none;stroke:#aa0000;stroke-width:1px;stroke-linecap:butt;stroke-linejoin:miter;stroke-opacity:1"
           d="M 362.85714,99.505038 365,-6.9235334 l 17.5,8.9285715 -4.64286,19.2857139 -9.28571,-7.5 6.07143,-6.0714282"
           id="path3798"
           sodipodi:nodetypes="cc" />
        <path
           inkscape:connector-curvature="0"
           style="fill:none;stroke:#aa0000;stroke-width:1px;stroke-linecap:butt;stroke-linejoin:miter;stroke-opacity:1"
           d="M 388.21429,24.505038 363.57143,56.647895"
           id="path3800" />
        <path
           inkscape:connector-curvature="0"
           style="fill:none;stroke:#aa0000;stroke-width:1px;stroke-linecap:butt;stroke-linejoin:miter;stroke-opacity:1"
           d="M 362.85714,117.36218 371.78571,98.790753 376.07143,109.1479 377.5,71.290752 368.92857,84.862181"
           id="path3802" />
      </g>
      <path
         inkscape:connector-curvature="0"
         sodipodi:nodetypes="ccccc"
         id="rect3738"
         d="m 356.07877,166.96347 11.86929,0 0,70.71068 -11.86929,0 0,-70.71068 z"
         style="fill:#808080;fill-opacity:1;stroke:#000000;stroke-width:3;stroke-linecap:round;stroke-linejoin:miter;stroke-miterlimit:4;stroke-opacity:1;stroke-dasharray:none;stroke-dashoffset:0" />
      <path
         inkscape:connector-curvature="0"
         sodipodi:nodetypes="ccccc"
         id="rect3740"
         d="m 356.33131,233.12847 11.61676,3.283 c -0.60986,11.67908 4.73118,8.82628 10.71429,11.36421 l -29.29534,0 c 3.98206,-4.8824 4.64286,-9.76481 6.96429,-14.64721 z"
         style="fill:#999999;fill-opacity:1;stroke:#000000;stroke-width:3;stroke-linecap:round;stroke-linejoin:miter;stroke-miterlimit:4;stroke-opacity:1;stroke-dasharray:none;stroke-dashoffset:0" />
      <path
         inkscape:connector-curvature="0"
         sodipodi:nodetypes="ccccccccccccccc"
         id="path3746"
         d="m 376.22987,169.32647 -39.99999,0 c -12.91403,-14.1082 -14.95939,-32.56387 -11.07143,-53.39286 l 9.74002,24.10714 c -1.58736,-20.9412 0.25435,-51.631985 7.60153,-52.254894 l 1.58702,21.362034 c 2.42314,-7.97891 -0.27676,-10.666559 9.39993,-17.436542 l -2.9893,16.576502 c 2.49932,-4.08139 8.84831,-9.906969 12.60677,-8.951773 -4.79318,25.241313 12.15477,46.849443 24.27212,47.227343 7.71152,-1.12074 11.43392,-4.13712 13.16878,-10.98695 17.77012,3.48931 18.24527,20.63254 24.27212,33.39285 l -13.60424,-11.07142 4.28571,13.03571 c 0,0 -45.51904,-33.03572 -39.26904,-1.60714 z"
         style="fill:#666666;stroke:#000000;stroke-width:3;stroke-linecap:butt;stroke-linejoin:miter;stroke-miterlimit:4;stroke-opacity:1;stroke-dasharray:none" />
      <path
         inkscape:connector-curvature="0"
         sodipodi:nodetypes="ccc"
         id="path3748"
         d="m 352.30131,137.36218 c 13.63935,-5.15117 28.26784,-12.03553 45.35714,-38.92857 -3.10467,23.33435 -17.3643,38.4884 -34.64286,51.42857"
         style="fill:#666666;stroke:#000000;stroke-width:3;stroke-linecap:butt;stroke-linejoin:miter;stroke-miterlimit:4;stroke-opacity:1;stroke-dasharray:none" />
      <path
         transform="matrix(0.73913064,-0.67356209,0.67356209,0.73913064,55.628668,262.38758)"
         d="m 295.46963,112.66778 c 0,4.88155 -1.92211,8.83883 -4.29315,8.83883 -2.37104,0 -4.29314,-3.95728 -4.29314,-8.83883 0,-4.88156 1.9221,-8.83884 4.29314,-8.83884 2.37104,0 4.29315,3.95728 4.29315,8.83884 z"
         sodipodi:ry="8.8388338"
         sodipodi:rx="4.293148"
         sodipodi:cy="112.66778"
         sodipodi:cx="291.17648"
         id="path3752"
         style="fill:#ff0000;fill-opacity:1;stroke:#000000;stroke-width:3;stroke-linecap:round;stroke-linejoin:miter;stroke-miterlimit:4;stroke-opacity:1;stroke-dasharray:none;stroke-dashoffset:0"
         sodipodi:type="arc" />
    </g>
  </g>
</svg>
