<?xml version="1.0" encoding="UTF-8" standalone="no"?>
<!-- Created with Inkscape (http://www.inkscape.org/) -->

<svg
   xmlns:dc="http://purl.org/dc/elements/1.1/"
   xmlns:cc="http://creativecommons.org/ns#"
   xmlns:rdf="http://www.w3.org/1999/02/22-rdf-syntax-ns#"
   xmlns:svg="http://www.w3.org/2000/svg"
   xmlns="http://www.w3.org/2000/svg"
   xmlns:sodipodi="http://sodipodi.sourceforge.net/DTD/sodipodi-0.dtd"
   xmlns:inkscape="http://www.inkscape.org/namespaces/inkscape"
   width="100"
   height="100"
   id="svg7422"
   version="1.1"
   inkscape:version="0.48.4 r9939"
   sodipodi:docname="New document 1">
  <defs
     id="defs7424" />
  <sodipodi:namedview
     id="base"
     pagecolor="#ffffff"
     bordercolor="#666666"
     borderopacity="1.0"
     inkscape:pageopacity="0.0"
     inkscape:pageshadow="2"
     inkscape:zoom="4.4083688"
     inkscape:cx="85.430387"
     inkscape:cy="47.747108"
     inkscape:document-units="px"
     inkscape:current-layer="layer1"
     showgrid="false"
     inkscape:window-width="1366"
     inkscape:window-height="727"
     inkscape:window-x="0"
     inkscape:window-y="17"
     inkscape:window-maximized="1" />
  <metadata
     id="metadata7427">
    <rdf:RDF>
      <cc:Work
         rdf:about="">
        <dc:format>image/svg+xml</dc:format>
        <dc:type
           rdf:resource="http://purl.org/dc/dcmitype/StillImage" />
        <dc:title></dc:title>
      </cc:Work>
    </rdf:RDF>
  </metadata>
  <g
     inkscape:label="Layer 1"
     inkscape:groupmode="layer"
     id="layer1"
     transform="translate(0,-952.36218)">
    <g
       id="g39018"
       transform="matrix(0.17361862,0,0,0.17361862,0.86879919,796.2454)">
      <path
         d="m 275.26657,261.60654 c 0,12.83151 -47.7135,23.23351 -106.57109,23.23351 -58.85759,0 -106.57109,-10.402 -106.57109,-23.23351 0,-12.83152 47.7135,-23.23351 106.57109,-23.23351 58.85759,0 106.57109,10.40199 106.57109,23.23351 z"
         sodipodi:ry="23.233509"
         sodipodi:rx="106.57109"
         sodipodi:cy="261.60654"
         sodipodi:cx="168.69548"
         id="path4189-1-1-9"
         style="opacity:0.98999999;fill:#000000;fill-opacity:1;stroke:#000000;stroke-width:3;stroke-linecap:round;stroke-linejoin:miter;stroke-miterlimit:4;stroke-opacity:1;stroke-dasharray:none;stroke-dashoffset:0"
         sodipodi:type="arc"
         transform="matrix(2.3741537,0,0,2.3741537,-110.63933,693.5362)" />
      <path
         transform="matrix(2.3741537,0,0,2.3741537,-111.83844,501.67557)"
         d="m 199.00006,336.61038 c 0,5.1605 -14.58541,9.34391 -32.57742,9.34391 -17.99201,0 -32.57742,-4.18341 -32.57742,-9.34391 0,-5.1605 14.58541,-9.34391 32.57742,-9.34391 17.99201,0 32.57742,4.18341 32.57742,9.34391 z"
         sodipodi:ry="9.3439112"
         sodipodi:rx="32.577419"
         sodipodi:cy="336.61038"
         sodipodi:cx="166.42264"
         id="path4215-4"
         style="opacity:0.98999999;fill:#ffffff;fill-opacity:1;stroke:#000000;stroke-width:3;stroke-linecap:round;stroke-linejoin:miter;stroke-miterlimit:4;stroke-opacity:1;stroke-dasharray:none;stroke-dashoffset:0"
         sodipodi:type="arc" />
      <path
         transform="matrix(2.3741537,0,0,2.3741537,-105.8428,464.5026)"
         d="m 179.30208,313.37686 c 0,21.89726 -7.1231,39.64849 -15.9099,39.64849 -8.7868,0 -15.9099,-17.75123 -15.9099,-39.64849 0,-21.89725 7.1231,-39.64849 15.9099,-39.64849 8.7868,0 15.9099,17.75124 15.9099,39.64849 z"
         sodipodi:ry="39.648487"
         sodipodi:rx="15.909903"
         sodipodi:cy="313.37686"
         sodipodi:cx="163.39218"
         id="path4213-8"
         style="opacity:0.98999999;fill:#ffffff;fill-opacity:1;stroke:#000000;stroke-width:3;stroke-linecap:round;stroke-linejoin:miter;stroke-miterlimit:4;stroke-opacity:1;stroke-dasharray:none;stroke-dashoffset:0"
         sodipodi:type="arc" />
      <path
         transform="matrix(2.3741537,0,0,2.3741537,-114.2367,499.27733)"
         d="m 275.26657,261.60654 c 0,12.83151 -47.7135,23.23351 -106.57109,23.23351 -58.85759,0 -106.57109,-10.402 -106.57109,-23.23351 0,-12.83152 47.7135,-23.23351 106.57109,-23.23351 58.85759,0 106.57109,10.40199 106.57109,23.23351 z"
         sodipodi:ry="23.233509"
         sodipodi:rx="106.57109"
         sodipodi:cy="261.60654"
         sodipodi:cx="168.69548"
         id="path4189-12"
         style="opacity:0.98999999;fill:#ffffff;fill-opacity:1;stroke:#000000;stroke-width:3;stroke-linecap:round;stroke-linejoin:miter;stroke-miterlimit:4;stroke-opacity:1;stroke-dasharray:none;stroke-dashoffset:0"
         sodipodi:type="arc" />
      <path
         d="m 275.26657,261.60654 c 0,12.83151 -47.7135,23.23351 -106.57109,23.23351 -58.85759,0 -106.57109,-10.402 -106.57109,-23.23351 0,-12.83152 47.7135,-23.23351 106.57109,-23.23351 58.85759,0 106.57109,10.40199 106.57109,23.23351 z"
         sodipodi:ry="23.233509"
         sodipodi:rx="106.57109"
         sodipodi:cy="261.60654"
         sodipodi:cx="168.69548"
         id="path4189-1-9"
         style="opacity:0.98999999;fill:#ffffff;fill-opacity:1;stroke:#000000;stroke-width:3;stroke-linecap:round;stroke-linejoin:miter;stroke-miterlimit:4;stroke-opacity:1;stroke-dasharray:none;stroke-dashoffset:0"
         sodipodi:type="arc"
         transform="matrix(2.3741537,0,0,2.3741537,-114.23671,488.48521)" />
    </g>
  </g>
</svg>
