<?xml version="1.0" encoding="UTF-8" standalone="no"?>
<!-- Created with Inkscape (http://www.inkscape.org/) -->

<svg
   xmlns:dc="http://purl.org/dc/elements/1.1/"
   xmlns:cc="http://creativecommons.org/ns#"
   xmlns:rdf="http://www.w3.org/1999/02/22-rdf-syntax-ns#"
   xmlns:svg="http://www.w3.org/2000/svg"
   xmlns="http://www.w3.org/2000/svg"
   xmlns:sodipodi="http://sodipodi.sourceforge.net/DTD/sodipodi-0.dtd"
   xmlns:inkscape="http://www.inkscape.org/namespaces/inkscape"
   width="100"
   height="100"
   id="svg3077"
   version="1.1"
   inkscape:version="0.48.4 r9939"
   sodipodi:docname="New document 2">
  <defs
     id="defs3079" />
  <sodipodi:namedview
     id="base"
     pagecolor="#ffffff"
     bordercolor="#666666"
     borderopacity="1.0"
     inkscape:pageopacity="0.0"
     inkscape:pageshadow="2"
     inkscape:zoom="3.1171875"
     inkscape:cx="109.39758"
     inkscape:cy="59.794067"
     inkscape:document-units="px"
     inkscape:current-layer="layer1"
     showgrid="false"
     inkscape:window-width="1366"
     inkscape:window-height="727"
     inkscape:window-x="0"
     inkscape:window-y="17"
     inkscape:window-maximized="1" />
  <metadata
     id="metadata3082">
    <rdf:RDF>
      <cc:Work
         rdf:about="">
        <dc:format>image/svg+xml</dc:format>
        <dc:type
           rdf:resource="http://purl.org/dc/dcmitype/StillImage" />
        <dc:title></dc:title>
      </cc:Work>
    </rdf:RDF>
  </metadata>
  <g
     inkscape:label="Layer 1"
     inkscape:groupmode="layer"
     id="layer1"
     transform="translate(0,-952.36218)">
    <g
       id="g4111"
       transform="matrix(1.5764583,0,0,1.5764583,-784.53295,185.35946)">
      <path
         sodipodi:type="arc"
         style="fill:#000000;fill-opacity:1;fill-rule:nonzero;stroke:#000000;stroke-width:2;stroke-linecap:round;stroke-linejoin:round;stroke-miterlimit:4;stroke-opacity:1;stroke-dasharray:none;stroke-dashoffset:0"
         id="use4041-0"
         sodipodi:cx="524.39545"
         sodipodi:cy="354.89642"
         sodipodi:rx="22.097088"
         sodipodi:ry="5.177032"
         d="m 546.49253,354.89642 c 0,2.8592 -9.8932,5.17704 -22.09708,5.17704 -12.20389,0 -22.09709,-2.31784 -22.09709,-5.17704 0,-2.85919 9.8932,-5.17703 22.09709,-5.17703 12.20388,0 22.09708,2.31784 22.09708,5.17703 z"
         transform="translate(5.1770255,177.23719)" />
      <path
         sodipodi:nodetypes="ccccc"
         inkscape:connector-curvature="0"
         id="path4043"
         d="m 511.8948,510.41534 -7.82868,19.95051 c 2.37935,3.63176 5.28635,3.57003 8.33376,2.52538 l 4.04061,-21.97082 z"
         style="fill:#ffffff;stroke:#000000;stroke-width:2;stroke-linecap:butt;stroke-linejoin:miter;stroke-miterlimit:4;stroke-opacity:1;stroke-dasharray:none" />
      <path
         sodipodi:nodetypes="ccccc"
         inkscape:connector-curvature="0"
         id="path4045"
         d="m 526.79455,512.43564 -4.54569,27.02158 c 3.43418,2.07182 6.95977,3.86944 12.37437,0 l -4.29315,-27.27412 z"
         style="fill:#ffffff;stroke:#000000;stroke-width:2;stroke-linecap:butt;stroke-linejoin:miter;stroke-miterlimit:4;stroke-opacity:1;stroke-dasharray:none" />
      <path
         sodipodi:nodetypes="ccccc"
         inkscape:connector-curvature="0"
         id="path4047"
         d="m 547.25014,509.15265 -4.29315,2.27284 5.80838,19.69797 c 2.48067,0.2368 4.99204,0.65779 6.81853,-3.03045 z"
         style="fill:#ffffff;stroke:#000000;stroke-width:2;stroke-linecap:butt;stroke-linejoin:miter;stroke-miterlimit:4;stroke-opacity:1;stroke-dasharray:none" />
      <path
         transform="translate(4.0406102,154.88756)"
         d="m 546.49253,354.89642 c 0,2.8592 -9.8932,5.17704 -22.09708,5.17704 -12.20389,0 -22.09709,-2.31784 -22.09709,-5.17704 0,-2.85919 9.8932,-5.17703 22.09709,-5.17703 12.20388,0 22.09708,2.31784 22.09708,5.17703 z"
         sodipodi:ry="5.177032"
         sodipodi:rx="22.097088"
         sodipodi:cy="354.89642"
         sodipodi:cx="524.39545"
         id="path4039"
         style="fill:#ffffff;fill-opacity:1;fill-rule:nonzero;stroke:#000000;stroke-width:2;stroke-linecap:round;stroke-linejoin:round;stroke-miterlimit:4;stroke-opacity:1;stroke-dasharray:none;stroke-dashoffset:0"
         sodipodi:type="arc" />
      <path
         sodipodi:type="arc"
         style="fill:#ffffff;fill-opacity:1;fill-rule:nonzero;stroke:#000000;stroke-width:2;stroke-linecap:round;stroke-linejoin:round;stroke-miterlimit:4;stroke-opacity:1;stroke-dasharray:none;stroke-dashoffset:0"
         id="use4041"
         sodipodi:cx="524.39545"
         sodipodi:cy="354.89642"
         sodipodi:rx="22.097088"
         sodipodi:ry="5.177032"
         d="m 546.49253,354.89642 c 0,2.8592 -9.8932,5.17704 -22.09708,5.17704 -12.20389,0 -22.09709,-2.31784 -22.09709,-5.17704 0,-2.85919 9.8932,-5.17703 22.09709,-5.17703 12.20388,0 22.09708,2.31784 22.09708,5.17703 z"
         transform="translate(4.0406102,152.61472)" />
    </g>
  </g>
</svg>
