<?xml version="1.0" encoding="UTF-8" standalone="no"?>
<!-- Created with Inkscape (http://www.inkscape.org/) -->

<svg
   xmlns:dc="http://purl.org/dc/elements/1.1/"
   xmlns:cc="http://creativecommons.org/ns#"
   xmlns:rdf="http://www.w3.org/1999/02/22-rdf-syntax-ns#"
   xmlns:svg="http://www.w3.org/2000/svg"
   xmlns="http://www.w3.org/2000/svg"
   xmlns:sodipodi="http://sodipodi.sourceforge.net/DTD/sodipodi-0.dtd"
   xmlns:inkscape="http://www.inkscape.org/namespaces/inkscape"
   width="100"
   height="100"
   id="svg4335"
   version="1.1"
   inkscape:version="0.48.4 r9939"
   sodipodi:docname="drakkar.svg">
  <defs
     id="defs4337" />
  <sodipodi:namedview
     id="base"
     pagecolor="#ffffff"
     bordercolor="#666666"
     borderopacity="1.0"
     inkscape:pageopacity="0.0"
     inkscape:pageshadow="2"
     inkscape:zoom="13.783984"
     inkscape:cx="47.452642"
     inkscape:cy="34.387022"
     inkscape:document-units="px"
     inkscape:current-layer="layer1"
     showgrid="false"
     inkscape:window-width="1366"
     inkscape:window-height="727"
     inkscape:window-x="0"
     inkscape:window-y="17"
     inkscape:window-maximized="1" />
  <metadata
     id="metadata4340">
    <rdf:RDF>
      <cc:Work
         rdf:about="">
        <dc:format>image/svg+xml</dc:format>
        <dc:type
           rdf:resource="http://purl.org/dc/dcmitype/StillImage" />
        <dc:title />
      </cc:Work>
    </rdf:RDF>
  </metadata>
  <g
     inkscape:label="Layer 1"
     inkscape:groupmode="layer"
     id="layer1"
     transform="translate(0,-952.36218)">
    <g
       id="g4413">
      <rect
         ry="0.34387231"
         y="998.69269"
         x="91.060867"
         height="1.1660209"
         width="6.6074514"
         id="rect4300"
         style="fill:#ffffff;fill-opacity:1;stroke:#000000;stroke-width:0.63042629;stroke-linejoin:bevel;stroke-miterlimit:4;stroke-opacity:1;stroke-dasharray:none;stroke-dashoffset:0" />
      <path
         sodipodi:nodetypes="cccc"
         inkscape:connector-curvature="0"
         id="path4321"
         d="m 8.0841785,990.21543 1.855125,-0.20619 c -0.667404,0.63996 -1.004484,1.42139 -1.030622,2.33609 -0.737854,-0.55559 -0.9083416,-1.30034 -0.824503,-2.1299 z"
         style="fill:#ffffff;stroke:#000000;stroke-width:0.63042629;stroke-linecap:butt;stroke-linejoin:miter;stroke-miterlimit:4;stroke-opacity:1;stroke-dasharray:none" />
      <path
         sodipodi:nodetypes="cccc"
         inkscape:connector-curvature="0"
         id="path4319"
         d="m 8.2903095,996.38311 1.648994,-0.13754 c -0.584975,-0.52251 -0.857661,-1.14926 -0.893205,-1.85505 -0.618747,0.31807 -0.881424,0.97201 -0.755789,1.99259 z"
         style="fill:#ffffff;stroke:#000000;stroke-width:0.63042629;stroke-linecap:butt;stroke-linejoin:miter;stroke-miterlimit:4;stroke-opacity:1;stroke-dasharray:none" />
      <rect
         ry="0.34387231"
         y="970.97705"
         x="51.439201"
         height="52.218418"
         width="1.9238364"
         id="rect4325"
         style="fill:#ffffff;fill-opacity:1;stroke:#000000;stroke-width:0.63042629;stroke-linejoin:bevel;stroke-miterlimit:4;stroke-opacity:1;stroke-dasharray:none;stroke-dashoffset:0" />
      <path
         sodipodi:nodetypes="csssaaasaasssssaascsssccsscscc"
         inkscape:connector-curvature="0"
         id="path4296"
         d="m 21.130429,1001.1709 c -2.513628,3.5222 -4.276879,10.3247 1.509537,14.5978 8.111146,5.9901 44.646319,9.5907 60.062736,-1.1603 11.294526,-7.8764 2.537675,-11.489 4.905573,-17.26727 0.572225,-1.39638 1.431734,-2.94438 2.816257,-3.54462 1.890311,-0.81962 4.750534,-1.00104 6.160706,0.50112 1.774762,1.89053 1.984212,5.95487 0.140143,7.77777 -1.276439,1.2619 -4.299442,1.042 -5.382243,-0.1589 -1.618526,-1.7949 -1.182189,-3.88793 -0.08643,-5.25483 0.649831,-0.81057 2.203962,-1.22688 3.052858,-0.62785 1.13161,0.79834 1.664127,3.41276 0.575973,4.11458 -0.294951,0.1903 -1.533957,0.1874 -1.787361,0 -1.022061,-0.75596 0.562495,-3.12577 0.466896,-3.20043 -0.663882,-0.51913 -1.696636,0.83839 -1.913046,1.65289 -0.416033,1.56564 0.756574,3.15984 2.444584,3.16704 1.260826,0.011 2.054976,-0.8438 2.374724,-1.78014 0.560076,-1.6398 0.173846,-4.2504 -1.383067,-5.0112 -1.988703,-0.97178 -4.76249,-0.75391 -6.13545,2.53965 -1.993609,4.78239 16.851641,19.24749 -7.007935,29.79559 -11.909062,5.2053 -53.239013,7.0347 -64.540568,-1.0522 -8.4739105,-6.0635 -9.2267815,-18.4342 -2.940412,-24.6318 0.243144,-0.2397 3.204794,-2.70548 3.459722,-5.27897 0.02347,-0.23631 -9.8128135,2.99231 -10.5108138,1.13278 -0.5944912,-0.74103 -0.2650729,-1.29269 0.1656163,-1.76368 3.7915255,0.11297 8.5388475,-0.73591 7.8332945,-3.5562 -0.746421,-2.98384 -7.4639042,-0.99492 -7.7294798,-1.02876 -1.2874728,-0.16384 -0.9227561,-3.50337 -0.8641195,-4.0578 1.4068758,-1.81352 4.2264443,1.06023 6.5594483,0.26652 1.279279,-0.43521 0.43277,-2.70022 2.996919,-3.26283 10.055139,-0.12759 8.57108,12.99135 4.75594,17.09204 z"
         style="fill:#ffffff;stroke:#000000;stroke-width:0.63042629;stroke-linecap:butt;stroke-linejoin:miter;stroke-miterlimit:4;stroke-opacity:1;stroke-dasharray:none" />
      <path
         sodipodi:nodetypes="czcsc"
         inkscape:connector-curvature="0"
         id="path4298"
         d="m 18.913328,999.66434 c -21.8554175,29.66836 17.846934,30.35296 33.278751,30.50396 15.431808,0.1509 46.711051,-4.522 38.625871,-22.439 -5.012547,10.5586 -17.551375,15.0773 -38.693627,15.2017 -25.626011,0.1506 -41.040742,-5.6633 -33.210995,-23.26666 z"
         style="fill:#ffffff;stroke:#000000;stroke-width:0.63042629;stroke-linecap:butt;stroke-linejoin:miter;stroke-miterlimit:4;stroke-opacity:1;stroke-dasharray:none" />
      <path
         transform="matrix(0.21014212,0,0,0.21014212,14.249242,904.66763)"
         sodipodi:type="arc"
         style="fill:#000000;fill-opacity:1;stroke:#000000;stroke-width:1;stroke-linejoin:bevel;stroke-miterlimit:4;stroke-opacity:1;stroke-dasharray:none;stroke-dashoffset:0"
         id="path4304"
         sodipodi:cx="381.93726"
         sodipodi:cy="450.0943"
         sodipodi:rx="0.34679529"
         sodipodi:ry="1.5027797"
         d="m 382.28405,450.0943 c 0,0.82996 -0.15526,1.50278 -0.34679,1.50278 -0.19153,0 -0.3468,-0.67282 -0.3468,-1.50278 0,-0.82996 0.15527,-1.50278 0.3468,-1.50278 0.19153,0 0.34679,0.67282 0.34679,1.50278 z" />
      <path
         transform="matrix(0.21014212,0,0,0.21014212,13.399025,904.66763)"
         d="m 382.28405,450.0943 c 0,0.82996 -0.15526,1.50278 -0.34679,1.50278 -0.19153,0 -0.3468,-0.67282 -0.3468,-1.50278 0,-0.82996 0.15527,-1.50278 0.3468,-1.50278 0.19153,0 0.34679,0.67282 0.34679,1.50278 z"
         sodipodi:ry="1.5027797"
         sodipodi:rx="0.34679529"
         sodipodi:cy="450.0943"
         sodipodi:cx="381.93726"
         id="path4302"
         style="fill:#000000;fill-opacity:1;stroke:#000000;stroke-width:1;stroke-linejoin:bevel;stroke-miterlimit:4;stroke-opacity:1;stroke-dasharray:none;stroke-dashoffset:0"
         sodipodi:type="arc" />
      <path
         sodipodi:nodetypes="ccc"
         inkscape:connector-curvature="0"
         id="path4317"
         d="m 17.909483,985.47452 c 2.350398,0.9572 5.773135,-1.20231 8.657267,-0.82448 -1.459686,1.56959 -2.838432,3.30098 -4.46605,4.53476"
         style="fill:#ffffff;stroke:#000000;stroke-width:0.63042629;stroke-linecap:butt;stroke-linejoin:miter;stroke-miterlimit:4;stroke-opacity:1;stroke-dasharray:none" />
      <path
         sodipodi:nodetypes="ccc"
         inkscape:connector-curvature="0"
         id="path4329"
         d="m 50.752124,975.09957 c -11.845279,10.60143 -8.163326,23.3082 1.511578,36.82763 -2.000845,-11.1694 -7.301809,-19.89962 -1.511578,-36.82763 z"
         style="fill:none;stroke:#000000;stroke-width:0.63042629;stroke-linecap:butt;stroke-linejoin:miter;stroke-miterlimit:4;stroke-opacity:1;stroke-dasharray:none" />
      <path
         sodipodi:nodetypes="ccc"
         inkscape:connector-curvature="0"
         id="path4331"
         d="m 19.496342,1011.7618 32.891505,-40.47061 34.422622,39.76921"
         style="fill:none;stroke:#000000;stroke-width:0.21014212px;stroke-linecap:butt;stroke-linejoin:miter;stroke-opacity:1" />
      <path
         transform="matrix(0.21014212,0,0,0.21014212,16.484121,906.39232)"
         d="m 182.18315,329.64072 c 0,5.87358 -4.76148,10.63505 -10.63505,10.63505 -5.87358,0 -10.63506,-4.76147 -10.63506,-10.63505 0,-5.87358 4.76148,-10.63506 10.63506,-10.63506 5.87357,0 10.63505,4.76148 10.63505,10.63506 z"
         sodipodi:ry="10.635056"
         sodipodi:rx="10.635056"
         sodipodi:cy="329.64072"
         sodipodi:cx="171.5481"
         id="path4333"
         style="fill:#ffffff;fill-opacity:1;stroke:#000000;stroke-width:3;stroke-linejoin:bevel;stroke-miterlimit:4;stroke-opacity:1;stroke-dasharray:none;stroke-dashoffset:0"
         sodipodi:type="arc" />
    </g>
    <g
       id="g4834"
       style="fill:#ffffff">
      <path
         transform="matrix(0.12872272,0,0,0.12872272,65.37825,974.66933)"
         d="m 173.94366,322.98792 a 54.275654,54.275654 0 1 1 -108.551307,0 54.275654,54.275654 0 1 1 108.551307,0 z"
         sodipodi:ry="54.275654"
         sodipodi:rx="54.275654"
         sodipodi:cy="322.98792"
         sodipodi:cx="119.66801"
         id="path4599"
         style="fill:#ffffff;fill-opacity:1;stroke:#000000;stroke-width:4.84220028000000013;stroke-linejoin:bevel;stroke-miterlimit:4;stroke-opacity:1;stroke-dasharray:none;stroke-dashoffset:0"
         sodipodi:type="arc" />
      <path
         transform="matrix(0.15582529,0,0,0.15582529,-6.7479921,991.18619)"
         d="m 596.37824,160.48793 a 33.02314,31.061367 0 1 1 -66.04628,0 33.02314,31.061367 0 1 1 66.04628,0 z"
         sodipodi:ry="31.061367"
         sodipodi:rx="33.02314"
         sodipodi:cy="160.48793"
         sodipodi:cx="563.3551"
         id="path4668"
         style="fill:#ffffff;stroke:#000000;stroke-width:3;stroke-linejoin:bevel;stroke-miterlimit:4;stroke-opacity:1;stroke-dasharray:none;stroke-dashoffset:0"
         sodipodi:type="arc" />
      <path
         transform="matrix(0.15582529,0,0,0.15582529,-4.9138313,990.6767)"
         d="m 565.64385,163.75754 a 12.097586,12.097586 0 1 1 -24.19517,0 12.097586,12.097586 0 1 1 24.19517,0 z"
         sodipodi:ry="12.097586"
         sodipodi:rx="12.097586"
         sodipodi:cy="163.75754"
         sodipodi:cx="553.54626"
         id="path4601"
         style="fill:#ffffff;fill-opacity:1;stroke:#000000;stroke-width:4;stroke-linejoin:bevel;stroke-miterlimit:4;stroke-opacity:1;stroke-dasharray:none;stroke-dashoffset:0"
         sodipodi:type="arc" />
    </g>
    <g
       id="g4829"
       style="fill:#ffffff">
      <path
         transform="matrix(-0.12833973,0.00992229,-0.00992229,-0.12833973,62.958766,1061.4288)"
         d="m 173.94366,322.98792 a 54.275654,54.275654 0 1 1 -108.551307,0 54.275654,54.275654 0 1 1 108.551307,0 z"
         sodipodi:ry="54.275654"
         sodipodi:rx="54.275654"
         sodipodi:cy="322.98792"
         sodipodi:cx="119.66801"
         id="path4599-2"
         style="fill:#ffffff;fill-opacity:1;stroke:#000000;stroke-width:4.84220028000000013;stroke-linejoin:bevel;stroke-miterlimit:4;stroke-opacity:1;stroke-dasharray:none;stroke-dashoffset:0"
         sodipodi:type="arc" />
      <path
         inkscape:connector-curvature="0"
         id="rect4633"
         d="m 42.40434,1016.132 0,2.937 -2.941198,0 0,4.1883 2.941198,0 0,2.9369 4.188333,0 0,-2.9369 2.936942,0 0,-4.1883 -2.936942,0 0,-2.937 -4.188333,0 z"
         style="fill:#ffffff;fill-opacity:1;stroke:#000000;stroke-width:0.54482388000000004;stroke-linejoin:bevel;stroke-miterlimit:4;stroke-opacity:1;stroke-dasharray:none;stroke-dashoffset:0" />
      <path
         transform="matrix(-0.15536166,0.01201142,-0.01201142,-0.15536166,132.29435,1040.2712)"
         d="m 565.64385,163.75754 a 12.097586,12.097586 0 1 1 -24.19517,0 12.097586,12.097586 0 1 1 24.19517,0 z"
         sodipodi:ry="12.097586"
         sodipodi:rx="12.097586"
         sodipodi:cy="163.75754"
         sodipodi:cx="553.54626"
         id="path4601-9"
         style="fill:#ffffff;fill-opacity:1;stroke:#000000;stroke-width:4;stroke-linejoin:bevel;stroke-miterlimit:4;stroke-opacity:1;stroke-dasharray:none;stroke-dashoffset:0"
         sodipodi:type="arc" />
    </g>
    <g
       id="g4847">
      <path
         transform="matrix(0.12872272,0,0,0.12872272,48.259414,978.84714)"
         d="m 173.94366,322.98792 a 54.275654,54.275654 0 1 1 -108.551307,0 54.275654,54.275654 0 1 1 108.551307,0 z"
         sodipodi:ry="54.275654"
         sodipodi:rx="54.275654"
         sodipodi:cy="322.98792"
         sodipodi:cx="119.66801"
         id="path4599-4"
         style="fill:#ffffff;fill-opacity:1;stroke:#000000;stroke-width:4.84220028000000013;stroke-linejoin:bevel;stroke-miterlimit:4;stroke-opacity:1;stroke-dasharray:none;stroke-dashoffset:0"
         sodipodi:type="arc" />
      <path
         sodipodi:nodetypes="ccccc"
         inkscape:connector-curvature="0"
         id="path4640"
         d="m 61.014062,1013.9016 1.681314,5.6553 2.190804,-0.3566 0.305693,-5.6044 c -1.305736,-0.289 -2.738935,0 -4.177811,0.3057 z"
         style="fill:#ffffff;stroke:#000000;stroke-width:0.46747586000000002;stroke-linecap:butt;stroke-linejoin:miter;stroke-miterlimit:4;stroke-opacity:1;stroke-dasharray:none" />
      <path
         sodipodi:nodetypes="ccccc"
         inkscape:connector-curvature="0"
         id="path4642"
         d="m 62.609239,1021.8482 -5.107367,1.5225 c -1.07821,-1.3358 -0.678418,-2.9413 -0.624991,-3.8332 l 5.365458,0.3592 z"
         style="fill:#ffffff;stroke:#000000;stroke-width:0.46747586000000002;stroke-linecap:butt;stroke-linejoin:miter;stroke-miterlimit:4;stroke-opacity:1;stroke-dasharray:none" />
      <path
         sodipodi:nodetypes="ccccc"
         inkscape:connector-curvature="0"
         id="path4644"
         d="m 62.986855,1022.4507 -0.216385,4.7403 c 1.565393,0.3956 2.787254,-0.072 4.032454,-0.48 l -1.71972,-4.6405 z"
         style="fill:#ffffff;stroke:#000000;stroke-width:0.46747586000000002;stroke-linecap:butt;stroke-linejoin:miter;stroke-miterlimit:4;stroke-opacity:1;stroke-dasharray:none" />
      <path
         sodipodi:nodetypes="ccccc"
         inkscape:connector-curvature="0"
         id="path4642-1"
         d="m 65.112878,1019.0844 4.64905,-2.0256 c 1.151907,1.2729 0.806418,3.2402 0.803429,4.1337 l -5.071484,0.1481 z"
         style="fill:#ffffff;stroke:#000000;stroke-width:0.46747586000000002;stroke-linecap:butt;stroke-linejoin:miter;stroke-miterlimit:4;stroke-opacity:1;stroke-dasharray:none" />
      <path
         transform="matrix(0.15582529,0,0,0.15582529,-22.236461,995.364)"
         d="m 565.64385,163.75754 a 12.097586,12.097586 0 1 1 -24.19517,0 12.097586,12.097586 0 1 1 24.19517,0 z"
         sodipodi:ry="12.097586"
         sodipodi:rx="12.097586"
         sodipodi:cy="163.75754"
         sodipodi:cx="553.54626"
         id="path4601-8"
         style="fill:#ffffff;fill-opacity:1;stroke:#000000;stroke-width:4;stroke-linejoin:bevel;stroke-miterlimit:4;stroke-opacity:1;stroke-dasharray:none;stroke-dashoffset:0"
         sodipodi:type="arc" />
      <path
         sodipodi:type="arc"
         style="fill:none;stroke:#000000;stroke-width:4.84220028;stroke-linejoin:bevel;stroke-miterlimit:4;stroke-opacity:1;stroke-dasharray:none;stroke-dashoffset:0"
         id="use4646"
         sodipodi:cx="119.66801"
         sodipodi:cy="322.98792"
         sodipodi:rx="54.275654"
         sodipodi:ry="54.275654"
         d="m 173.94366,322.98792 a 54.275654,54.275654 0 1 1 -108.551307,0 54.275654,54.275654 0 1 1 108.551307,0 z"
         transform="matrix(0.12872272,0,0,0.12872272,48.259414,978.84714)" />
    </g>
    <g
       id="g4856">
      <path
         transform="matrix(0.07784503,0.10251677,-0.10251677,0.07784503,51.364348,980.56347)"
         d="m 173.94366,322.98792 a 54.275654,54.275654 0 1 1 -108.551307,0 54.275654,54.275654 0 1 1 108.551307,0 z"
         sodipodi:ry="54.275654"
         sodipodi:rx="54.275654"
         sodipodi:cy="322.98792"
         sodipodi:cx="119.66801"
         id="path4599-4-3"
         style="fill:#ffffff;fill-opacity:1;stroke:#000000;stroke-width:4.84220028000000013;stroke-linejoin:bevel;stroke-miterlimit:4;stroke-opacity:1;stroke-dasharray:none;stroke-dashoffset:0"
         sodipodi:type="arc" />
      <path
         sodipodi:nodetypes="ccccc"
         inkscape:connector-curvature="0"
         id="path4640-4"
         d="m 31.159833,1011.9206 -3.487218,4.7591 1.608924,1.5291 4.648284,-3.1458 c -0.559476,-1.2147 -1.652846,-2.184 -2.76999,-3.1424 z"
         style="fill:#ffffff;stroke:#000000;stroke-width:0.46747586000000002;stroke-linecap:butt;stroke-linejoin:miter;stroke-miterlimit:4;stroke-opacity:1;stroke-dasharray:none" />
      <path
         sodipodi:nodetypes="ccccc"
         inkscape:connector-curvature="0"
         id="path4642-2"
         d="m 25.795699,1017.9968 -4.301252,-3.1469 c 0.411856,-1.6665 1.932226,-2.319 2.674861,-2.8158 l 2.958726,4.4903 z"
         style="fill:#ffffff;stroke:#000000;stroke-width:0.46747586000000002;stroke-linecap:butt;stroke-linejoin:miter;stroke-miterlimit:4;stroke-opacity:1;stroke-dasharray:none" />
      <path
         sodipodi:nodetypes="ccccc"
         inkscape:connector-curvature="0"
         id="path4644-6"
         d="m 25.544207,1018.6619 -3.906117,2.6944 c 0.631595,1.4859 1.742523,2.1765 2.820885,2.9212 l 2.655832,-4.176 z"
         style="fill:#ffffff;stroke:#000000;stroke-width:0.46747586000000002;stroke-linecap:butt;stroke-linejoin:miter;stroke-miterlimit:4;stroke-opacity:1;stroke-dasharray:none" />
      <path
         sodipodi:nodetypes="ccccc"
         inkscape:connector-curvature="0"
         id="path4642-1-8"
         d="m 29.510926,1018.3193 4.4247,2.4776 c -0.317111,1.6872 -2.092836,2.6017 -2.806237,3.1397 l -3.184954,-3.9494 z"
         style="fill:#ffffff;stroke:#000000;stroke-width:0.46747586000000002;stroke-linecap:butt;stroke-linejoin:miter;stroke-miterlimit:4;stroke-opacity:1;stroke-dasharray:none" />
      <path
         transform="matrix(0.09423531,0.12410168,-0.12410168,0.09423531,-4.4222985,934.40803)"
         d="m 565.64385,163.75754 a 12.097586,12.097586 0 1 1 -24.19517,0 12.097586,12.097586 0 1 1 24.19517,0 z"
         sodipodi:ry="12.097586"
         sodipodi:rx="12.097586"
         sodipodi:cy="163.75754"
         sodipodi:cx="553.54626"
         id="path4601-8-7"
         style="fill:#ffffff;fill-opacity:1;stroke:#000000;stroke-width:4;stroke-linejoin:bevel;stroke-miterlimit:4;stroke-opacity:1;stroke-dasharray:none;stroke-dashoffset:0"
         sodipodi:type="arc" />
      <path
         sodipodi:type="arc"
         style="fill:none;stroke:#000000;stroke-width:4.84220028;stroke-linejoin:bevel;stroke-miterlimit:4;stroke-opacity:1;stroke-dasharray:none;stroke-dashoffset:0"
         id="use4646-7"
         sodipodi:cx="119.66801"
         sodipodi:cy="322.98792"
         sodipodi:rx="54.275654"
         sodipodi:ry="54.275654"
         d="m 173.94366,322.98792 a 54.275654,54.275654 0 1 1 -108.551307,0 54.275654,54.275654 0 1 1 108.551307,0 z"
         transform="matrix(0.07784503,0.10251677,-0.10251677,0.07784503,51.364348,980.56347)" />
    </g>
  </g>
</svg>
